<svg width="80" height="83" viewBox="0 0 80 83" fill="none" xmlns="http://www.w3.org/2000/svg">
<path fill-rule="evenodd" clip-rule="evenodd" d="M39.9643 0.352626C47.9097 0.0486643 55.8295 1.68635 62.5959 6.22041C69.7515 11.0153 76.4073 17.5951 78.7741 26.3584C81.1118 35.0137 78.3727 44.1684 75.0816 52.4498C72.0415 60.0995 67.0184 66.33 60.8947 71.3477C54.6697 76.4485 47.745 80.6682 39.9643 81.2247C31.8315 81.8063 23.5477 79.6611 16.9309 74.4919C10.2946 69.3074 6.28181 61.279 3.66551 52.8668C1.02295 44.3702 -0.719212 35.123 2.06019 26.6781C4.80061 18.3516 11.6036 12.6722 18.4621 7.9088C24.968 3.39027 32.247 0.647864 39.9643 0.352626Z" fill="#FFFF99"/>
<path d="M39.1314 15.5894C39.1314 15.5894 25.9614 15.7914 25.7514 33.6959C25.7514 33.6959 18.6515 32.4836 24.7514 41.3348C24.7514 41.3348 25.3414 42.8549 27.2114 41.3348C29.0814 39.8147 25.4414 44.9427 33.9214 50.1091C33.9214 50.1091 34.0414 58.4023 31.9214 59.73C29.8014 61.0576 43.5414 65.6179 45.7914 59.73C44.3592 58.0376 43.6037 55.9081 43.6614 53.7265C43.6614 53.7265 53.1014 53.2647 53.1614 37.6212C53.2214 21.9776 48.7114 14.6273 39.1314 15.5894Z" fill="#CD9F94"/>
<path d="M53.5219 15.2142C53.5219 15.2142 48.8119 12.328 48.9519 10.9522C49.0919 9.57637 45.6719 7.89271 42.8119 9.17229C42.8119 9.17229 37.8119 5.1796 32.9619 9.30699C32.9619 9.30699 26.5319 8.75859 24.3919 12.7417C24.3919 12.7417 19.3919 12.328 21.3919 19.0626C21.3919 19.0626 16.3919 21.4005 20.2519 26.6151C20.2519 26.6151 17.3919 30.7424 21.2519 33.215C25.1119 35.6876 25.3919 32.6666 26.2519 37.0634C27.1119 41.4602 28.5319 32.936 28.3919 31.2908C28.2519 29.6457 28.3919 26.0667 30.6719 27.0288C32.9519 27.9909 29.8219 22.3241 34.4419 24.5562C39.0619 26.7882 41.2919 20.2268 43.1519 22.8725C45.0119 25.5183 49.0019 26.7209 50.0019 24.0078C51.0019 21.2947 52.8619 25.1719 54.8619 22.8725C56.8619 20.5731 58.0919 19.4378 53.5219 15.2142Z" fill="#202020"/>
<path d="M45.6188 59.6642C39.9095 64.2317 34.3584 61.5674 32.2965 59.6642C22.2005 59.243 14.4507 74.8725 11.8379 82.7399H68.4564C63.2227 73.1449 51.3281 55.0967 45.6188 59.6642Z" fill="#F8F8C8"/>
</svg>
