<svg width="80" height="85" viewBox="0 0 80 85" fill="none" xmlns="http://www.w3.org/2000/svg">
<path fill-rule="evenodd" clip-rule="evenodd" d="M39.477 0.0352434C47.4224 -0.268719 55.3422 1.36897 62.1086 5.90302C69.2642 10.6979 75.92 17.2777 78.2868 26.0411C80.6245 34.6963 77.8854 43.8511 74.5943 52.1324C71.5542 59.7822 66.5311 66.0126 60.4074 71.0303C54.1824 76.1311 47.2577 80.3509 39.477 80.9073C31.3442 81.4889 23.0604 79.3438 16.4436 74.1745C9.8073 68.99 5.79451 60.9616 3.17821 52.5494C0.535645 44.0528 -1.20652 34.8056 1.57289 26.3607C4.31331 18.0342 11.1163 12.3549 17.9748 7.59142C24.4807 3.07289 31.7597 0.330481 39.477 0.0352434Z" fill="#99CC99"/>
<path d="M41.6705 15.8871C41.6705 15.8871 28.5005 16.0971 28.2905 34.7071C28.2905 34.7071 21.1905 33.4471 27.2905 42.6471C27.2905 42.6471 27.8805 44.2271 29.7505 42.6471C31.6205 41.0671 27.9805 46.3971 36.4605 51.7671C36.4605 51.7671 36.5805 60.3871 34.4605 61.7671C32.3405 63.1471 46.0805 67.8871 48.3305 61.7671C46.8983 60.0081 46.1428 57.7947 46.2005 55.5271C46.2005 55.5271 55.6405 55.0471 55.7005 38.7871C55.7605 22.5271 51.2505 14.8871 41.6705 15.8871Z" fill="#E8C8B6"/>
<path d="M56.0609 15.4972C56.0609 15.4972 51.3509 12.4972 51.4909 11.0672C51.6309 9.63723 48.2109 7.88723 45.3509 9.21723C45.3509 9.21723 40.3509 5.06723 35.5009 9.35723C35.5009 9.35723 29.0709 8.78723 26.9309 12.9272C26.9309 12.9272 21.9309 12.4972 23.9309 19.4972C23.9309 19.4972 18.9309 21.9272 22.7909 27.3472C22.7909 27.3472 19.9309 31.6372 23.7909 34.2072C27.6509 36.7772 27.9309 33.6372 28.7909 38.2072C29.6509 42.7772 31.0709 33.9172 30.9309 32.2072C30.7909 30.4972 30.9309 26.7772 33.2109 27.7772C35.4909 28.7772 32.3609 22.8872 36.9809 25.2072C41.6009 27.5272 43.8309 20.7072 45.6909 23.4572C47.5509 26.2072 51.5409 27.4572 52.5409 24.6372C53.5409 21.8172 55.4009 25.8472 57.4009 23.4572C59.4009 21.0672 60.6309 19.8872 56.0609 15.4972Z" fill="#604637"/>
<path d="M47.8747 61.4841C42.1654 66.0516 36.6143 63.3872 34.5524 61.4841C24.4563 61.0628 16.7066 76.6923 14.0938 84.5597H70.7122C65.4786 74.9647 53.584 56.9166 47.8747 61.4841Z" fill="#F8F8C8"/>
</svg>
