<svg width="263" height="49" viewBox="0 0 263 49" fill="none" xmlns="http://www.w3.org/2000/svg">
<rect y="28" width="194" height="20" rx="10" fill="#F09B67" fill-opacity="0.7"/>
<path d="M13.432 32.5152C12.184 32.5152 10.976 32.3232 9.808 31.9392C8.656 31.5552 7.768 31.0672 7.144 30.4752L8.2 28.5552C8.84 29.1472 9.648 29.6192 10.624 29.9712C11.6 30.3072 12.608 30.4752 13.648 30.4752C15.024 30.4752 16.12 30.2272 16.936 29.7312C17.768 29.2192 18.184 28.5152 18.184 27.6192C18.184 27.1392 18.024 26.7392 17.704 26.4192C17.384 26.0992 16.992 25.8432 16.528 25.6512C16.064 25.4592 15.408 25.2352 14.56 24.9792C13.488 24.6592 12.624 24.3552 11.968 24.0672C11.312 23.7792 10.744 23.3552 10.264 22.7952C9.8 22.2192 9.568 21.4672 9.568 20.5392C9.568 19.4832 9.864 18.5632 10.456 17.7792C11.048 16.9952 11.872 16.3952 12.928 15.9792C13.984 15.5472 15.192 15.3312 16.552 15.3312C17.592 15.3312 18.576 15.4592 19.504 15.7152C20.448 15.9552 21.264 16.2992 21.952 16.7472L20.992 18.7152C20.368 18.2672 19.664 17.9312 18.88 17.7072C18.112 17.4832 17.296 17.3712 16.432 17.3712C15.056 17.3712 13.96 17.6432 13.144 18.1872C12.328 18.7152 11.92 19.4272 11.92 20.3232C11.92 20.8192 12.08 21.2352 12.4 21.5712C12.736 21.9072 13.144 22.1712 13.624 22.3632C14.12 22.5552 14.792 22.7792 15.64 23.0352C16.696 23.3552 17.544 23.6592 18.184 23.9472C18.84 24.2192 19.392 24.6272 19.84 25.1712C20.304 25.7152 20.536 26.4192 20.536 27.2832C20.536 28.3552 20.232 29.2832 19.624 30.0672C19.032 30.8512 18.2 31.4592 17.128 31.8912C16.056 32.3072 14.824 32.5152 13.432 32.5152ZM31.7463 19.4832C32.8343 19.4832 33.8023 19.7072 34.6503 20.1552C35.4983 20.5872 36.1623 21.2192 36.6423 22.0512C37.1223 22.8672 37.3623 23.8352 37.3623 24.9552C37.3623 26.3952 37.0503 27.6832 36.4263 28.8192C35.8023 29.9552 34.9383 30.8512 33.8343 31.5072C32.7463 32.1472 31.5223 32.4672 30.1623 32.4672C29.0743 32.4672 28.1383 32.2752 27.3543 31.8912C26.5703 31.4912 25.9703 30.9152 25.5543 30.1632L24.2103 36.9792H21.9062L25.3623 19.6032H27.5703L27.2583 21.1872C28.4423 20.0512 29.9383 19.4832 31.7463 19.4832ZM30.0663 30.4512C31.0103 30.4512 31.8583 30.2272 32.6103 29.7792C33.3623 29.3152 33.9543 28.6752 34.3863 27.8592C34.8183 27.0432 35.0343 26.1152 35.0343 25.0752C35.0343 23.9392 34.7063 23.0592 34.0503 22.4352C33.3943 21.8112 32.4583 21.4992 31.2423 21.4992C30.2983 21.4992 29.4423 21.7312 28.6743 22.1952C27.9223 22.6432 27.3303 23.2752 26.8983 24.0912C26.4823 24.9072 26.2743 25.8352 26.2743 26.8752C26.2743 27.9952 26.6023 28.8752 27.2583 29.5152C27.9303 30.1392 28.8663 30.4512 30.0663 30.4512ZM53.6976 19.6032L51.1776 32.3232H48.9696L49.2816 30.7632C48.7056 31.3072 48.0336 31.7312 47.2656 32.0352C46.5136 32.3232 45.6896 32.4672 44.7936 32.4672C43.7056 32.4672 42.7376 32.2512 41.8896 31.8192C41.0416 31.3712 40.3776 30.7312 39.8976 29.8992C39.4176 29.0672 39.1776 28.0912 39.1776 26.9712C39.1776 25.5312 39.4896 24.2432 40.1136 23.1072C40.7376 21.9712 41.5936 21.0832 42.6816 20.4432C43.7856 19.8032 45.0176 19.4832 46.3776 19.4832C47.4656 19.4832 48.3936 19.6752 49.1616 20.0592C49.9456 20.4432 50.5456 21.0112 50.9616 21.7632L51.3936 19.6032H53.6976ZM45.2976 30.4512C46.2416 30.4512 47.0896 30.2272 47.8416 29.7792C48.6096 29.3152 49.2016 28.6752 49.6176 27.8592C50.0496 27.0432 50.2656 26.1152 50.2656 25.0752C50.2656 23.9392 49.9376 23.0592 49.2816 22.4352C48.6256 21.8112 47.6896 21.4992 46.4736 21.4992C45.5296 21.4992 44.6816 21.7312 43.9296 22.1952C43.1776 22.6432 42.5856 23.2752 42.1536 24.0912C41.7216 24.9072 41.5056 25.8352 41.5056 26.8752C41.5056 27.9952 41.8336 28.8752 42.4896 29.5152C43.1616 30.1392 44.0976 30.4512 45.2976 30.4512ZM61.585 32.4672C60.369 32.4672 59.305 32.2432 58.393 31.7952C57.481 31.3312 56.777 30.6912 56.281 29.8752C55.785 29.0432 55.537 28.0752 55.537 26.9712C55.537 25.5472 55.857 24.2672 56.497 23.1312C57.137 21.9952 58.025 21.1072 59.161 20.4672C60.297 19.8112 61.585 19.4832 63.025 19.4832C65.537 19.4832 67.281 20.4032 68.257 22.2432L66.313 23.3232C65.641 22.1072 64.489 21.4992 62.857 21.4992C61.913 21.4992 61.057 21.7312 60.289 22.1952C59.537 22.6432 58.945 23.2752 58.513 24.0912C58.081 24.9072 57.865 25.8352 57.865 26.8752C57.865 27.9952 58.193 28.8752 58.849 29.5152C59.521 30.1392 60.465 30.4512 61.681 30.4512C62.449 30.4512 63.161 30.2992 63.817 29.9952C64.489 29.6912 65.041 29.2432 65.473 28.6512L67.153 29.8512C66.561 30.6672 65.769 31.3072 64.777 31.7712C63.785 32.2352 62.721 32.4672 61.585 32.4672ZM71.3164 26.6832V26.8272C71.3164 28.0112 71.6524 28.9152 72.3244 29.5392C72.9964 30.1472 74.0044 30.4512 75.3484 30.4512C76.1324 30.4512 76.8684 30.3232 77.5564 30.0672C78.2444 29.7952 78.8204 29.4352 79.2844 28.9872L80.2684 30.6432C79.6444 31.2192 78.8844 31.6672 77.9884 31.9872C77.0924 32.3072 76.1484 32.4672 75.1564 32.4672C73.9084 32.4672 72.8284 32.2432 71.9164 31.7952C71.0044 31.3472 70.3004 30.7072 69.8044 29.8752C69.3084 29.0432 69.0604 28.0672 69.0604 26.9472C69.0604 25.5232 69.3644 24.2432 69.9724 23.1072C70.5964 21.9712 71.4524 21.0832 72.5404 20.4432C73.6444 19.8032 74.8764 19.4832 76.2364 19.4832C77.9644 19.4832 79.3404 19.9792 80.3644 20.9712C81.4044 21.9472 81.9244 23.2832 81.9244 24.9792C81.9244 25.4912 81.8684 26.0592 81.7564 26.6832H71.3164ZM76.1404 21.4032C75.0044 21.4032 74.0284 21.7232 73.2124 22.3632C72.3964 23.0032 71.8444 23.8832 71.5564 25.0032H79.7644C79.8284 23.8672 79.5244 22.9872 78.8524 22.3632C78.1964 21.7232 77.2924 21.4032 76.1404 21.4032ZM93.8736 15.5232H100.45C102.13 15.5232 103.57 15.8112 104.77 16.3872C105.986 16.9472 106.906 17.7472 107.53 18.7872C108.17 19.8112 108.49 21.0192 108.49 22.4112C108.49 24.3632 108.05 26.0912 107.17 27.5952C106.306 29.0992 105.082 30.2672 103.498 31.0992C101.93 31.9152 100.106 32.3232 98.0256 32.3232H90.5136L93.8736 15.5232ZM98.0976 30.2352C99.7136 30.2352 101.122 29.9072 102.322 29.2512C103.522 28.5952 104.442 27.6912 105.082 26.5392C105.738 25.3712 106.066 24.0432 106.066 22.5552C106.066 21.0032 105.57 19.7952 104.578 18.9312C103.586 18.0512 102.13 17.6112 100.21 17.6112H95.8416L93.3216 30.2352H98.0976ZM112.262 26.6832V26.8272C112.262 28.0112 112.598 28.9152 113.27 29.5392C113.942 30.1472 114.95 30.4512 116.294 30.4512C117.078 30.4512 117.814 30.3232 118.502 30.0672C119.19 29.7952 119.766 29.4352 120.23 28.9872L121.214 30.6432C120.59 31.2192 119.83 31.6672 118.934 31.9872C118.038 32.3072 117.094 32.4672 116.102 32.4672C114.854 32.4672 113.774 32.2432 112.862 31.7952C111.95 31.3472 111.246 30.7072 110.75 29.8752C110.254 29.0432 110.006 28.0672 110.006 26.9472C110.006 25.5232 110.31 24.2432 110.918 23.1072C111.542 21.9712 112.398 21.0832 113.486 20.4432C114.59 19.8032 115.822 19.4832 117.182 19.4832C118.91 19.4832 120.286 19.9792 121.31 20.9712C122.35 21.9472 122.87 23.2832 122.87 24.9792C122.87 25.4912 122.814 26.0592 122.702 26.6832H112.262ZM117.086 21.4032C115.95 21.4032 114.974 21.7232 114.158 22.3632C113.342 23.0032 112.79 23.8832 112.502 25.0032H120.71C120.774 23.8672 120.47 22.9872 119.798 22.3632C119.142 21.7232 118.238 21.4032 117.086 21.4032ZM128.71 32.4672C127.654 32.4672 126.646 32.3312 125.686 32.0592C124.742 31.7872 124.006 31.4352 123.478 31.0032L124.51 29.1792C125.006 29.5792 125.646 29.8992 126.43 30.1392C127.23 30.3632 128.062 30.4752 128.926 30.4752C130.014 30.4752 130.838 30.3152 131.398 29.9952C131.974 29.6592 132.262 29.1952 132.262 28.6032C132.262 28.1232 132.03 27.7792 131.566 27.5712C131.118 27.3632 130.414 27.1552 129.454 26.9472C128.558 26.7552 127.822 26.5632 127.246 26.3712C126.686 26.1632 126.206 25.8432 125.806 25.4112C125.406 24.9632 125.206 24.3632 125.206 23.6112C125.206 22.7792 125.438 22.0512 125.902 21.4272C126.382 20.8032 127.054 20.3232 127.918 19.9872C128.798 19.6512 129.814 19.4832 130.966 19.4832C131.814 19.4832 132.638 19.5872 133.438 19.7952C134.238 20.0032 134.894 20.2832 135.406 20.6352L134.494 22.4592C133.998 22.1232 133.422 21.8752 132.766 21.7152C132.11 21.5392 131.438 21.4512 130.75 21.4512C129.71 21.4512 128.91 21.6272 128.35 21.9792C127.79 22.3152 127.51 22.7712 127.51 23.3472C127.51 23.8592 127.742 24.2272 128.206 24.4512C128.67 24.6592 129.39 24.8672 130.366 25.0752C131.246 25.2672 131.966 25.4592 132.526 25.6512C133.086 25.8432 133.558 26.1552 133.942 26.5872C134.342 27.0192 134.542 27.6032 134.542 28.3392C134.542 29.6352 134.006 30.6512 132.934 31.3872C131.878 32.1072 130.47 32.4672 128.71 32.4672ZM139.245 19.6032H141.549L139.029 32.3232H136.725L139.245 19.6032ZM141.069 17.1552C140.653 17.1552 140.309 17.0192 140.037 16.7472C139.765 16.4752 139.629 16.1472 139.629 15.7632C139.629 15.3152 139.781 14.9392 140.085 14.6352C140.405 14.3152 140.805 14.1552 141.285 14.1552C141.701 14.1552 142.045 14.2912 142.317 14.5632C142.605 14.8192 142.749 15.1312 142.749 15.4992C142.749 15.9952 142.589 16.3952 142.269 16.6992C141.965 17.0032 141.565 17.1552 141.069 17.1552ZM158.116 19.6032L155.932 30.5952C155.484 32.8672 154.636 34.5232 153.388 35.5632C152.156 36.6032 150.468 37.1232 148.324 37.1232C147.124 37.1232 146.028 36.9632 145.036 36.6432C144.044 36.3392 143.204 35.8992 142.516 35.3232L143.788 33.5472C144.3 34.0112 144.964 34.3792 145.78 34.6512C146.612 34.9392 147.516 35.0832 148.492 35.0832C149.964 35.0832 151.1 34.7472 151.9 34.0752C152.716 33.4032 153.268 32.3632 153.556 30.9552L153.748 30.0432C152.532 31.2112 150.996 31.7952 149.14 31.7952C148.02 31.7952 147.028 31.5872 146.164 31.1712C145.316 30.7552 144.652 30.1552 144.172 29.3712C143.708 28.5872 143.476 27.6672 143.476 26.6112C143.476 25.2832 143.78 24.0752 144.388 22.9872C145.012 21.8992 145.876 21.0432 146.98 20.4192C148.084 19.7952 149.332 19.4832 150.724 19.4832C151.812 19.4832 152.772 19.6912 153.604 20.1072C154.452 20.5072 155.076 21.1152 155.476 21.9312L155.932 19.6032H158.116ZM149.596 29.7792C150.556 29.7792 151.412 29.5712 152.164 29.1552C152.932 28.7232 153.524 28.1312 153.94 27.3792C154.372 26.6112 154.588 25.7472 154.588 24.7872C154.588 23.7632 154.252 22.9632 153.58 22.3872C152.924 21.7952 151.996 21.4992 150.796 21.4992C149.836 21.4992 148.972 21.7152 148.204 22.1472C147.452 22.5632 146.86 23.1552 146.428 23.9232C146.012 24.6752 145.804 25.5232 145.804 26.4672C145.804 27.5072 146.14 28.3232 146.812 28.9152C147.484 29.4912 148.412 29.7792 149.596 29.7792ZM169.023 19.4832C170.479 19.4832 171.607 19.8512 172.407 20.5872C173.223 21.3232 173.631 22.3632 173.631 23.7072C173.631 24.1712 173.583 24.6672 173.487 25.1952L172.071 32.3232H169.767L171.182 25.1952C171.263 24.7632 171.303 24.4112 171.303 24.1392C171.303 23.3072 171.055 22.6672 170.559 22.2192C170.063 21.7712 169.327 21.5472 168.351 21.5472C167.103 21.5472 166.071 21.8912 165.255 22.5792C164.455 23.2512 163.919 24.2592 163.647 25.6032L162.303 32.3232H159.999L162.519 19.6032H164.727L164.415 21.2352C165.567 20.0672 167.103 19.4832 169.023 19.4832ZM180.342 32.4672C179.286 32.4672 178.278 32.3312 177.318 32.0592C176.374 31.7872 175.638 31.4352 175.11 31.0032L176.142 29.1792C176.638 29.5792 177.278 29.8992 178.062 30.1392C178.862 30.3632 179.694 30.4752 180.558 30.4752C181.646 30.4752 182.47 30.3152 183.03 29.9952C183.606 29.6592 183.894 29.1952 183.894 28.6032C183.894 28.1232 183.662 27.7792 183.198 27.5712C182.75 27.3632 182.046 27.1552 181.086 26.9472C180.19 26.7552 179.454 26.5632 178.878 26.3712C178.318 26.1632 177.838 25.8432 177.438 25.4112C177.038 24.9632 176.838 24.3632 176.838 23.6112C176.838 22.7792 177.07 22.0512 177.534 21.4272C178.014 20.8032 178.686 20.3232 179.55 19.9872C180.43 19.6512 181.446 19.4832 182.598 19.4832C183.446 19.4832 184.27 19.5872 185.07 19.7952C185.87 20.0032 186.526 20.2832 187.038 20.6352L186.126 22.4592C185.63 22.1232 185.054 21.8752 184.398 21.7152C183.742 21.5392 183.07 21.4512 182.382 21.4512C181.342 21.4512 180.542 21.6272 179.982 21.9792C179.422 22.3152 179.142 22.7712 179.142 23.3472C179.142 23.8592 179.374 24.2272 179.838 24.4512C180.302 24.6592 181.022 24.8672 181.998 25.0752C182.878 25.2672 183.598 25.4592 184.158 25.6512C184.718 25.8432 185.19 26.1552 185.574 26.5872C185.974 27.0192 186.174 27.6032 186.174 28.3392C186.174 29.6352 185.638 30.6512 184.566 31.3872C183.51 32.1072 182.102 32.4672 180.342 32.4672Z" fill="#202020"/>
<circle cx="238.242" cy="24.2425" r="24.2425" fill="#99CCFF"/>
<path d="M230.612 30.8206C229.808 30.8206 229.064 30.6646 228.38 30.3526C227.708 30.0286 227.156 29.5786 226.724 29.0026L228.056 27.4006C228.752 28.3606 229.586 28.8406 230.558 28.8406C231.866 28.8406 232.52 28.0666 232.52 26.5186V20.0026H228.038V18.0406H234.86V26.3926C234.86 27.8686 234.5 28.9786 233.78 29.7226C233.06 30.4546 232.004 30.8206 230.612 30.8206ZM243.974 30.8206C242.702 30.8206 241.55 30.5446 240.518 29.9926C239.498 29.4286 238.694 28.6546 238.106 27.6706C237.53 26.6866 237.242 25.5766 237.242 24.3406C237.242 23.1046 237.536 21.9946 238.124 21.0106C238.712 20.0266 239.516 19.2586 240.536 18.7066C241.568 18.1426 242.72 17.8606 243.992 17.8606C245.024 17.8606 245.966 18.0406 246.818 18.4006C247.67 18.7606 248.39 19.2826 248.978 19.9666L247.466 21.3886C246.554 20.4046 245.432 19.9126 244.1 19.9126C243.236 19.9126 242.462 20.1046 241.778 20.4886C241.094 20.8606 240.56 21.3826 240.176 22.0546C239.792 22.7266 239.6 23.4886 239.6 24.3406C239.6 25.1926 239.792 25.9546 240.176 26.6266C240.56 27.2986 241.094 27.8266 241.778 28.2106C242.462 28.5826 243.236 28.7686 244.1 28.7686C245.432 28.7686 246.554 28.2706 247.466 27.2746L248.978 28.7146C248.39 29.3986 247.664 29.9206 246.8 30.2806C245.948 30.6406 245.006 30.8206 243.974 30.8206Z" fill="#202020"/>
</svg>
