<svg width="328" height="49" viewBox="0 0 328 49" fill="none" xmlns="http://www.w3.org/2000/svg">
<rect y="28" width="261" height="20" rx="10" fill="#F09B67" fill-opacity="0.7"/>
<path d="M15.4027 17.5232C17.3547 17.5232 18.8667 17.9552 19.9387 18.8192C21.0267 19.6672 21.5707 20.8752 21.5707 22.4432C21.5707 23.8672 21.2507 25.0912 20.6107 26.1152C19.9867 27.1232 19.0827 27.8992 17.8987 28.4432C16.7147 28.9712 15.3147 29.2352 13.6987 29.2352H9.21069L8.20269 34.3232H5.80269L9.16269 17.5232H15.4027ZM13.7467 27.1472C15.4747 27.1472 16.8107 26.7632 17.7547 25.9952C18.6987 25.2272 19.1707 24.1152 19.1707 22.6592C19.1707 21.6672 18.8267 20.9152 18.1387 20.4032C17.4507 19.8752 16.4667 19.6112 15.1867 19.6112H11.1547L9.64269 27.1472H13.7467ZM24.8857 21.6032H27.1897L24.6697 34.3232H22.3657L24.8857 21.6032ZM26.7097 19.1552C26.2937 19.1552 25.9497 19.0192 25.6777 18.7472C25.4057 18.4752 25.2697 18.1472 25.2697 17.7632C25.2697 17.3152 25.4217 16.9392 25.7257 16.6352C26.0457 16.3152 26.4457 16.1552 26.9257 16.1552C27.3417 16.1552 27.6857 16.2912 27.9577 16.5632C28.2457 16.8192 28.3897 17.1312 28.3897 17.4992C28.3897 17.9952 28.2297 18.3952 27.9097 18.6992C27.6057 19.0032 27.2057 19.1552 26.7097 19.1552ZM40.5168 23.1152L31.2528 32.4272H38.8368L38.4528 34.3232H27.7968L28.1088 32.8352L37.3728 23.4992H30.1728L30.5328 21.6032H40.8288L40.5168 23.1152ZM53.0324 23.1152L43.7684 32.4272H51.3524L50.9684 34.3232H40.3124L40.6244 32.8352L49.8884 23.4992H42.6884L43.0484 21.6032H53.3444L53.0324 23.1152ZM68.4086 21.6032L65.8886 34.3232H63.6806L63.9926 32.7632C63.4166 33.3072 62.7446 33.7312 61.9766 34.0352C61.2246 34.3232 60.4006 34.4672 59.5046 34.4672C58.4166 34.4672 57.4486 34.2512 56.6006 33.8192C55.7526 33.3712 55.0886 32.7312 54.6086 31.8992C54.1286 31.0672 53.8886 30.0912 53.8886 28.9712C53.8886 27.5312 54.2006 26.2432 54.8246 25.1072C55.4486 23.9712 56.3046 23.0832 57.3926 22.4432C58.4966 21.8032 59.7286 21.4832 61.0886 21.4832C62.1766 21.4832 63.1046 21.6752 63.8726 22.0592C64.6566 22.4432 65.2566 23.0112 65.6726 23.7632L66.1046 21.6032H68.4086ZM60.0086 32.4512C60.9526 32.4512 61.8006 32.2272 62.5526 31.7792C63.3206 31.3152 63.9126 30.6752 64.3286 29.8592C64.7606 29.0432 64.9766 28.1152 64.9766 27.0752C64.9766 25.9392 64.6486 25.0592 63.9926 24.4352C63.3366 23.8112 62.4006 23.4992 61.1846 23.4992C60.2406 23.4992 59.3926 23.7312 58.6406 24.1952C57.8886 24.6432 57.2966 25.2752 56.8646 26.0912C56.4326 26.9072 56.2166 27.8352 56.2166 28.8752C56.2166 29.9952 56.5446 30.8752 57.2006 31.5152C57.8726 32.1392 58.8086 32.4512 60.0086 32.4512ZM90.0373 25.6592C90.7893 25.9152 91.3733 26.3312 91.7893 26.9072C92.2053 27.4832 92.4133 28.2032 92.4133 29.0672C92.4133 30.7632 91.7573 32.0672 90.4453 32.9792C89.1493 33.8752 87.3733 34.3232 85.1173 34.3232H77.0293L80.3893 17.5232H87.8293C89.5253 17.5232 90.8293 17.8432 91.7413 18.4832C92.6693 19.1072 93.1333 20.0192 93.1333 21.2192C93.1333 22.3072 92.8453 23.2352 92.2693 24.0032C91.7093 24.7552 90.9653 25.3072 90.0373 25.6592ZM82.3813 19.4672L81.3013 24.8432H86.2213C87.5813 24.8432 88.6533 24.5712 89.4373 24.0272C90.2373 23.4672 90.6373 22.6592 90.6373 21.6032C90.6373 20.8832 90.3493 20.3472 89.7733 19.9952C89.2133 19.6432 88.3973 19.4672 87.3253 19.4672H82.3813ZM85.2853 32.3792C86.8053 32.3792 87.9733 32.0992 88.7893 31.5392C89.6213 30.9632 90.0373 30.1472 90.0373 29.0912C90.0373 28.2592 89.7413 27.6672 89.1493 27.3152C88.5733 26.9632 87.7013 26.7872 86.5333 26.7872H80.9173L79.8133 32.3792H85.2853ZM100.833 34.4672C99.6333 34.4672 98.5853 34.2432 97.6893 33.7952C96.7933 33.3312 96.0973 32.6832 95.6013 31.8512C95.1053 31.0192 94.8573 30.0592 94.8573 28.9712C94.8573 27.5472 95.1773 26.2672 95.8173 25.1312C96.4573 23.9952 97.3453 23.1072 98.4813 22.4672C99.6173 21.8112 100.897 21.4832 102.321 21.4832C103.521 21.4832 104.569 21.7072 105.465 22.1552C106.361 22.6032 107.049 23.2432 107.529 24.0752C108.025 24.8912 108.273 25.8512 108.273 26.9552C108.273 28.3792 107.953 29.6672 107.313 30.8192C106.673 31.9552 105.785 32.8512 104.649 33.5072C103.529 34.1472 102.257 34.4672 100.833 34.4672ZM100.977 32.4512C101.921 32.4512 102.769 32.2272 103.521 31.7792C104.289 31.3152 104.881 30.6752 105.297 29.8592C105.729 29.0432 105.945 28.1152 105.945 27.0752C105.945 25.9392 105.617 25.0592 104.961 24.4352C104.305 23.8112 103.369 23.4992 102.153 23.4992C101.209 23.4992 100.361 23.7312 99.6093 24.1952C98.8573 24.6432 98.2653 25.2752 97.8333 26.0912C97.4013 26.9072 97.1853 27.8352 97.1853 28.8752C97.1853 29.9952 97.5133 30.8752 98.1693 31.5152C98.8413 32.1392 99.7773 32.4512 100.977 32.4512ZM116.63 27.9152L120.326 34.3232H117.878L115.142 29.4272L110.486 34.3232H107.798L114.206 27.7472L110.702 21.6032H113.102L115.694 26.2112L120.11 21.6032H122.726L116.63 27.9152ZM145.509 22.4432C145.509 24.0912 145.069 25.4672 144.189 26.5712C143.309 27.6752 142.069 28.4352 140.469 28.8512L143.541 34.3232H140.997L138.069 29.1872H137.613H133.125L132.117 34.3232H129.693L133.053 17.5232H139.317C141.285 17.5232 142.805 17.9552 143.877 18.8192C144.965 19.6672 145.509 20.8752 145.509 22.4432ZM137.685 27.1472C139.413 27.1472 140.749 26.7632 141.693 25.9952C142.637 25.2272 143.109 24.1152 143.109 22.6592C143.109 21.6512 142.765 20.8912 142.077 20.3792C141.389 19.8672 140.397 19.6112 139.101 19.6112H135.045L133.533 27.1472H137.685ZM149.051 28.6832V28.8272C149.051 30.0112 149.387 30.9152 150.059 31.5392C150.731 32.1472 151.739 32.4512 153.083 32.4512C153.867 32.4512 154.603 32.3232 155.291 32.0672C155.979 31.7952 156.555 31.4352 157.019 30.9872L158.003 32.6432C157.379 33.2192 156.619 33.6672 155.723 33.9872C154.827 34.3072 153.883 34.4672 152.891 34.4672C151.643 34.4672 150.563 34.2432 149.651 33.7952C148.739 33.3472 148.035 32.7072 147.539 31.8752C147.043 31.0432 146.795 30.0672 146.795 28.9472C146.795 27.5232 147.099 26.2432 147.707 25.1072C148.331 23.9712 149.187 23.0832 150.275 22.4432C151.379 21.8032 152.611 21.4832 153.971 21.4832C155.699 21.4832 157.075 21.9792 158.099 22.9712C159.139 23.9472 159.659 25.2832 159.659 26.9792C159.659 27.4912 159.603 28.0592 159.491 28.6832H149.051ZM153.875 23.4032C152.739 23.4032 151.763 23.7232 150.947 24.3632C150.131 25.0032 149.579 25.8832 149.291 27.0032H157.499C157.563 25.8672 157.259 24.9872 156.587 24.3632C155.931 23.7232 155.027 23.4032 153.875 23.4032ZM177.019 16.5152L173.467 34.3232H171.259L171.571 32.7632C170.995 33.3072 170.323 33.7312 169.555 34.0352C168.803 34.3232 167.979 34.4672 167.083 34.4672C165.995 34.4672 165.027 34.2512 164.179 33.8192C163.331 33.3712 162.667 32.7312 162.187 31.8992C161.707 31.0672 161.467 30.0912 161.467 28.9712C161.467 27.5312 161.779 26.2432 162.403 25.1072C163.027 23.9712 163.883 23.0832 164.971 22.4432C166.075 21.8032 167.307 21.4832 168.667 21.4832C169.755 21.4832 170.691 21.6832 171.475 22.0832C172.275 22.4672 172.875 23.0352 173.275 23.7872L174.715 16.5152H177.019ZM167.587 32.4512C168.531 32.4512 169.379 32.2272 170.131 31.7792C170.899 31.3152 171.491 30.6752 171.907 29.8592C172.339 29.0432 172.555 28.1152 172.555 27.0752C172.555 25.9392 172.227 25.0592 171.571 24.4352C170.915 23.8112 169.979 23.4992 168.763 23.4992C167.819 23.4992 166.971 23.7312 166.219 24.1952C165.467 24.6432 164.875 25.2752 164.443 26.0912C164.011 26.9072 163.795 27.8352 163.795 28.8752C163.795 29.9952 164.123 30.8752 164.779 31.5152C165.451 32.1392 166.387 32.4512 167.587 32.4512ZM180.082 28.6832V28.8272C180.082 30.0112 180.418 30.9152 181.09 31.5392C181.762 32.1472 182.77 32.4512 184.114 32.4512C184.898 32.4512 185.634 32.3232 186.322 32.0672C187.01 31.7952 187.586 31.4352 188.05 30.9872L189.034 32.6432C188.41 33.2192 187.65 33.6672 186.754 33.9872C185.858 34.3072 184.914 34.4672 183.922 34.4672C182.674 34.4672 181.594 34.2432 180.682 33.7952C179.77 33.3472 179.066 32.7072 178.57 31.8752C178.074 31.0432 177.826 30.0672 177.826 28.9472C177.826 27.5232 178.13 26.2432 178.738 25.1072C179.362 23.9712 180.218 23.0832 181.306 22.4432C182.41 21.8032 183.642 21.4832 185.002 21.4832C186.73 21.4832 188.106 21.9792 189.13 22.9712C190.17 23.9472 190.69 25.2832 190.69 26.9792C190.69 27.4912 190.634 28.0592 190.522 28.6832H180.082ZM184.906 23.4032C183.77 23.4032 182.794 23.7232 181.978 24.3632C181.162 25.0032 180.61 25.8832 180.322 27.0032H188.53C188.594 25.8672 188.29 24.9872 187.618 24.3632C186.962 23.7232 186.058 23.4032 184.906 23.4032ZM196.53 34.4672C195.474 34.4672 194.466 34.3312 193.506 34.0592C192.562 33.7872 191.826 33.4352 191.298 33.0032L192.33 31.1792C192.826 31.5792 193.466 31.8992 194.25 32.1392C195.05 32.3632 195.882 32.4752 196.746 32.4752C197.834 32.4752 198.658 32.3152 199.218 31.9952C199.794 31.6592 200.082 31.1952 200.082 30.6032C200.082 30.1232 199.85 29.7792 199.386 29.5712C198.938 29.3632 198.234 29.1552 197.274 28.9472C196.378 28.7552 195.642 28.5632 195.066 28.3712C194.506 28.1632 194.026 27.8432 193.626 27.4112C193.226 26.9632 193.026 26.3632 193.026 25.6112C193.026 24.7792 193.258 24.0512 193.722 23.4272C194.202 22.8032 194.874 22.3232 195.738 21.9872C196.618 21.6512 197.634 21.4832 198.786 21.4832C199.634 21.4832 200.458 21.5872 201.258 21.7952C202.058 22.0032 202.714 22.2832 203.226 22.6352L202.314 24.4592C201.818 24.1232 201.242 23.8752 200.586 23.7152C199.93 23.5392 199.258 23.4512 198.57 23.4512C197.53 23.4512 196.73 23.6272 196.17 23.9792C195.61 24.3152 195.33 24.7712 195.33 25.3472C195.33 25.8592 195.562 26.2272 196.026 26.4512C196.49 26.6592 197.21 26.8672 198.186 27.0752C199.066 27.2672 199.786 27.4592 200.346 27.6512C200.906 27.8432 201.378 28.1552 201.762 28.5872C202.162 29.0192 202.362 29.6032 202.362 30.3392C202.362 31.6352 201.826 32.6512 200.754 33.3872C199.698 34.1072 198.29 34.4672 196.53 34.4672ZM207.065 21.6032H209.369L206.849 34.3232H204.545L207.065 21.6032ZM208.889 19.1552C208.473 19.1552 208.129 19.0192 207.857 18.7472C207.585 18.4752 207.449 18.1472 207.449 17.7632C207.449 17.3152 207.601 16.9392 207.905 16.6352C208.225 16.3152 208.625 16.1552 209.105 16.1552C209.521 16.1552 209.865 16.2912 210.137 16.5632C210.425 16.8192 210.569 17.1312 210.569 17.4992C210.569 17.9952 210.409 18.3952 210.089 18.6992C209.785 19.0032 209.385 19.1552 208.889 19.1552ZM225.937 21.6032L223.753 32.5952C223.305 34.8672 222.457 36.5232 221.209 37.5632C219.977 38.6032 218.289 39.1232 216.145 39.1232C214.945 39.1232 213.849 38.9632 212.857 38.6432C211.865 38.3392 211.025 37.8992 210.337 37.3232L211.609 35.5472C212.121 36.0112 212.785 36.3792 213.601 36.6512C214.433 36.9392 215.337 37.0832 216.312 37.0832C217.785 37.0832 218.921 36.7472 219.721 36.0752C220.537 35.4032 221.089 34.3632 221.377 32.9552L221.569 32.0432C220.353 33.2112 218.817 33.7952 216.961 33.7952C215.841 33.7952 214.849 33.5872 213.985 33.1712C213.137 32.7552 212.473 32.1552 211.993 31.3712C211.529 30.5872 211.297 29.6672 211.297 28.6112C211.297 27.2832 211.601 26.0752 212.209 24.9872C212.833 23.8992 213.697 23.0432 214.801 22.4192C215.905 21.7952 217.153 21.4832 218.545 21.4832C219.633 21.4832 220.593 21.6912 221.425 22.1072C222.273 22.5072 222.897 23.1152 223.297 23.9312L223.753 21.6032H225.937ZM217.417 31.7792C218.377 31.7792 219.233 31.5712 219.985 31.1552C220.753 30.7232 221.345 30.1312 221.761 29.3792C222.193 28.6112 222.409 27.7472 222.409 26.7872C222.409 25.7632 222.073 24.9632 221.401 24.3872C220.745 23.7952 219.817 23.4992 218.617 23.4992C217.657 23.4992 216.793 23.7152 216.025 24.1472C215.273 24.5632 214.681 25.1552 214.249 25.9232C213.833 26.6752 213.625 27.5232 213.625 28.4672C213.625 29.5072 213.961 30.3232 214.633 30.9152C215.305 31.4912 216.233 31.7792 217.417 31.7792ZM236.843 21.4832C238.299 21.4832 239.427 21.8512 240.227 22.5872C241.043 23.3232 241.451 24.3632 241.451 25.7072C241.451 26.1712 241.403 26.6672 241.307 27.1952L239.891 34.3232H237.587L239.003 27.1952C239.083 26.7632 239.123 26.4112 239.123 26.1392C239.123 25.3072 238.875 24.6672 238.379 24.2192C237.883 23.7712 237.147 23.5472 236.171 23.5472C234.923 23.5472 233.891 23.8912 233.075 24.5792C232.275 25.2512 231.739 26.2592 231.467 27.6032L230.123 34.3232H227.819L230.339 21.6032H232.547L232.235 23.2352C233.387 22.0672 234.923 21.4832 236.843 21.4832ZM248.163 34.4672C247.107 34.4672 246.099 34.3312 245.139 34.0592C244.195 33.7872 243.459 33.4352 242.931 33.0032L243.963 31.1792C244.459 31.5792 245.099 31.8992 245.883 32.1392C246.683 32.3632 247.515 32.4752 248.379 32.4752C249.467 32.4752 250.291 32.3152 250.851 31.9952C251.427 31.6592 251.715 31.1952 251.715 30.6032C251.715 30.1232 251.483 29.7792 251.019 29.5712C250.571 29.3632 249.867 29.1552 248.907 28.9472C248.011 28.7552 247.275 28.5632 246.699 28.3712C246.139 28.1632 245.659 27.8432 245.259 27.4112C244.859 26.9632 244.659 26.3632 244.659 25.6112C244.659 24.7792 244.891 24.0512 245.355 23.4272C245.835 22.8032 246.507 22.3232 247.371 21.9872C248.251 21.6512 249.267 21.4832 250.419 21.4832C251.267 21.4832 252.091 21.5872 252.891 21.7952C253.691 22.0032 254.347 22.2832 254.859 22.6352L253.947 24.4592C253.451 24.1232 252.875 23.8752 252.219 23.7152C251.563 23.5392 250.891 23.4512 250.203 23.4512C249.163 23.4512 248.363 23.6272 247.803 23.9792C247.243 24.3152 246.963 24.7712 246.963 25.3472C246.963 25.8592 247.195 26.2272 247.659 26.4512C248.123 26.6592 248.843 26.8672 249.819 27.0752C250.699 27.2672 251.419 27.4592 251.979 27.6512C252.539 27.8432 253.011 28.1552 253.395 28.5872C253.795 29.0192 253.995 29.6032 253.995 30.3392C253.995 31.6352 253.459 32.6512 252.387 33.3872C251.331 34.1072 249.923 34.4672 248.163 34.4672Z" fill="#202020"/>
<circle cx="303.242" cy="24.2425" r="24.2425" fill="#99CC99"/>
<path d="M294.865 30.8206C294.061 30.8206 293.317 30.6646 292.633 30.3526C291.961 30.0286 291.409 29.5786 290.977 29.0026L292.309 27.4006C293.005 28.3606 293.839 28.8406 294.811 28.8406C296.119 28.8406 296.773 28.0666 296.773 26.5186V20.0026H292.291V18.0406H299.113V26.3926C299.113 27.8686 298.753 28.9786 298.033 29.7226C297.313 30.4546 296.257 30.8206 294.865 30.8206ZM313.591 18.0406V30.6406H311.665L304.717 22.1086V30.6406H302.395V18.0406H304.321L311.269 26.5726V18.0406H313.591Z" fill="#202020"/>
</svg>
