<svg width="434" height="49" viewBox="0 0 434 49" fill="none" xmlns="http://www.w3.org/2000/svg">
<rect y="28" width="289" height="20" rx="10" fill="#F09B67" fill-opacity="0.7"/>
<path d="M11.576 18.6112L10.4 24.4672H18.848L18.44 26.5312H9.992L8.648 33.3232H6.248L9.608 16.5232H21.464L21.056 18.6112H11.576ZM26.7239 33.4672C25.5239 33.4672 24.4759 33.2432 23.5799 32.7952C22.6839 32.3312 21.9879 31.6832 21.4919 30.8512C20.9959 30.0192 20.7479 29.0592 20.7479 27.9712C20.7479 26.5472 21.0679 25.2672 21.7079 24.1312C22.3479 22.9952 23.2359 22.1072 24.3719 21.4672C25.5079 20.8112 26.7879 20.4832 28.2119 20.4832C29.4119 20.4832 30.4599 20.7072 31.3559 21.1552C32.2519 21.6032 32.9399 22.2432 33.4199 23.0752C33.9159 23.8912 34.1639 24.8512 34.1639 25.9552C34.1639 27.3792 33.8439 28.6672 33.2039 29.8192C32.5639 30.9552 31.6759 31.8512 30.5399 32.5072C29.4199 33.1472 28.1479 33.4672 26.7239 33.4672ZM26.8679 31.4512C27.8119 31.4512 28.6599 31.2272 29.4119 30.7792C30.1799 30.3152 30.7719 29.6752 31.1879 28.8592C31.6199 28.0432 31.8359 27.1152 31.8359 26.0752C31.8359 24.9392 31.5079 24.0592 30.8519 23.4352C30.1959 22.8112 29.2599 22.4992 28.0439 22.4992C27.0999 22.4992 26.2519 22.7312 25.4999 23.1952C24.7479 23.6432 24.1559 24.2752 23.7239 25.0912C23.2919 25.9072 23.0759 26.8352 23.0759 27.8752C23.0759 28.9952 23.4039 29.8752 24.0599 30.5152C24.7319 31.1392 25.6679 31.4512 26.8679 31.4512ZM41.9583 33.4672C40.7583 33.4672 39.7103 33.2432 38.8143 32.7952C37.9183 32.3312 37.2223 31.6832 36.7263 30.8512C36.2303 30.0192 35.9823 29.0592 35.9823 27.9712C35.9823 26.5472 36.3023 25.2672 36.9423 24.1312C37.5823 22.9952 38.4703 22.1072 39.6063 21.4672C40.7423 20.8112 42.0223 20.4832 43.4463 20.4832C44.6463 20.4832 45.6943 20.7072 46.5903 21.1552C47.4863 21.6032 48.1743 22.2432 48.6543 23.0752C49.1503 23.8912 49.3983 24.8512 49.3983 25.9552C49.3983 27.3792 49.0783 28.6672 48.4383 29.8192C47.7983 30.9552 46.9103 31.8512 45.7743 32.5072C44.6543 33.1472 43.3823 33.4672 41.9583 33.4672ZM42.1023 31.4512C43.0463 31.4512 43.8943 31.2272 44.6463 30.7792C45.4143 30.3152 46.0063 29.6752 46.4223 28.8592C46.8543 28.0432 47.0703 27.1152 47.0703 26.0752C47.0703 24.9392 46.7423 24.0592 46.0863 23.4352C45.4303 22.8112 44.4943 22.4992 43.2783 22.4992C42.3343 22.4992 41.4863 22.7312 40.7343 23.1952C39.9823 23.6432 39.3903 24.2752 38.9583 25.0912C38.5263 25.9072 38.3103 26.8352 38.3103 27.8752C38.3103 28.9952 38.6383 29.8752 39.2943 30.5152C39.9663 31.1392 40.9023 31.4512 42.1023 31.4512ZM66.7687 15.5152L63.2167 33.3232H61.0087L61.3207 31.7632C60.7447 32.3072 60.0727 32.7312 59.3047 33.0352C58.5527 33.3232 57.7287 33.4672 56.8327 33.4672C55.7447 33.4672 54.7767 33.2512 53.9287 32.8192C53.0807 32.3712 52.4167 31.7312 51.9367 30.8992C51.4567 30.0672 51.2167 29.0912 51.2167 27.9712C51.2167 26.5312 51.5287 25.2432 52.1527 24.1072C52.7767 22.9712 53.6327 22.0832 54.7207 21.4432C55.8247 20.8032 57.0567 20.4832 58.4167 20.4832C59.5047 20.4832 60.4407 20.6832 61.2247 21.0832C62.0247 21.4672 62.6247 22.0352 63.0247 22.7872L64.4647 15.5152H66.7687ZM57.3367 31.4512C58.2807 31.4512 59.1287 31.2272 59.8807 30.7792C60.6487 30.3152 61.2407 29.6752 61.6567 28.8592C62.0887 28.0432 62.3047 27.1152 62.3047 26.0752C62.3047 24.9392 61.9767 24.0592 61.3207 23.4352C60.6647 22.8112 59.7287 22.4992 58.5127 22.4992C57.5687 22.4992 56.7207 22.7312 55.9687 23.1952C55.2167 23.6432 54.6247 24.2752 54.1927 25.0912C53.7607 25.9072 53.5447 26.8352 53.5447 27.8752C53.5447 28.9952 53.8727 29.8752 54.5287 30.5152C55.2007 31.1392 56.1367 31.4512 57.3367 31.4512ZM77.7174 16.5232H80.1174L76.7574 33.3232H74.3574L77.7174 16.5232ZM90.4991 20.4832C91.9551 20.4832 93.0831 20.8512 93.8831 21.5872C94.6991 22.3232 95.1071 23.3632 95.1071 24.7072C95.1071 25.1712 95.0591 25.6672 94.9631 26.1952L93.5471 33.3232H91.2431L92.6591 26.1952C92.7391 25.7632 92.7791 25.4112 92.7791 25.1392C92.7791 24.3072 92.5311 23.6672 92.0351 23.2192C91.5391 22.7712 90.8031 22.5472 89.8271 22.5472C88.5791 22.5472 87.5471 22.8912 86.7311 23.5792C85.9311 24.2512 85.3951 25.2592 85.1231 26.6032L83.7791 33.3232H81.4751L83.9951 20.6032H86.2031L85.8911 22.2352C87.0431 21.0672 88.5791 20.4832 90.4991 20.4832ZM101.819 33.4672C100.763 33.4672 99.755 33.3312 98.795 33.0592C97.851 32.7872 97.115 32.4352 96.587 32.0032L97.619 30.1792C98.115 30.5792 98.755 30.8992 99.539 31.1392C100.339 31.3632 101.171 31.4752 102.035 31.4752C103.123 31.4752 103.947 31.3152 104.507 30.9952C105.083 30.6592 105.371 30.1952 105.371 29.6032C105.371 29.1232 105.139 28.7792 104.675 28.5712C104.227 28.3632 103.523 28.1552 102.563 27.9472C101.667 27.7552 100.931 27.5632 100.355 27.3712C99.795 27.1632 99.315 26.8432 98.915 26.4112C98.515 25.9632 98.315 25.3632 98.315 24.6112C98.315 23.7792 98.547 23.0512 99.011 22.4272C99.491 21.8032 100.163 21.3232 101.027 20.9872C101.907 20.6512 102.923 20.4832 104.075 20.4832C104.923 20.4832 105.747 20.5872 106.547 20.7952C107.347 21.0032 108.003 21.2832 108.515 21.6352L107.603 23.4592C107.107 23.1232 106.531 22.8752 105.875 22.7152C105.219 22.5392 104.547 22.4512 103.859 22.4512C102.819 22.4512 102.019 22.6272 101.459 22.9792C100.899 23.3152 100.619 23.7712 100.619 24.3472C100.619 24.8592 100.851 25.2272 101.315 25.4512C101.779 25.6592 102.499 25.8672 103.475 26.0752C104.355 26.2672 105.075 26.4592 105.635 26.6512C106.195 26.8432 106.667 27.1552 107.051 27.5872C107.451 28.0192 107.651 28.6032 107.651 29.3392C107.651 30.6352 107.115 31.6512 106.043 32.3872C104.987 33.1072 103.579 33.4672 101.819 33.4672ZM112.066 27.6832V27.8272C112.066 29.0112 112.402 29.9152 113.074 30.5392C113.746 31.1472 114.754 31.4512 116.098 31.4512C116.882 31.4512 117.618 31.3232 118.306 31.0672C118.994 30.7952 119.57 30.4352 120.034 29.9872L121.018 31.6432C120.394 32.2192 119.634 32.6672 118.738 32.9872C117.842 33.3072 116.898 33.4672 115.906 33.4672C114.658 33.4672 113.578 33.2432 112.666 32.7952C111.754 32.3472 111.05 31.7072 110.554 30.8752C110.058 30.0432 109.81 29.0672 109.81 27.9472C109.81 26.5232 110.114 25.2432 110.722 24.1072C111.346 22.9712 112.202 22.0832 113.29 21.4432C114.394 20.8032 115.626 20.4832 116.986 20.4832C118.714 20.4832 120.09 20.9792 121.114 21.9712C122.154 22.9472 122.674 24.2832 122.674 25.9792C122.674 26.4912 122.618 27.0592 122.506 27.6832H112.066ZM116.89 22.4032C115.754 22.4032 114.778 22.7232 113.962 23.3632C113.146 24.0032 112.594 24.8832 112.306 26.0032H120.514C120.578 24.8672 120.274 23.9872 119.602 23.3632C118.946 22.7232 118.042 22.4032 116.89 22.4032ZM130.53 33.4672C129.314 33.4672 128.25 33.2432 127.338 32.7952C126.426 32.3312 125.722 31.6912 125.226 30.8752C124.73 30.0432 124.482 29.0752 124.482 27.9712C124.482 26.5472 124.802 25.2672 125.442 24.1312C126.082 22.9952 126.97 22.1072 128.106 21.4672C129.242 20.8112 130.53 20.4832 131.97 20.4832C134.482 20.4832 136.226 21.4032 137.202 23.2432L135.258 24.3232C134.586 23.1072 133.434 22.4992 131.802 22.4992C130.858 22.4992 130.002 22.7312 129.234 23.1952C128.482 23.6432 127.89 24.2752 127.458 25.0912C127.026 25.9072 126.81 26.8352 126.81 27.8752C126.81 28.9952 127.138 29.8752 127.794 30.5152C128.466 31.1392 129.41 31.4512 130.626 31.4512C131.394 31.4512 132.106 31.2992 132.762 30.9952C133.434 30.6912 133.986 30.2432 134.418 29.6512L136.098 30.8512C135.506 31.6672 134.714 32.3072 133.722 32.7712C132.73 33.2352 131.666 33.4672 130.53 33.4672ZM152.593 20.6032L150.073 33.3232H147.865L148.177 31.6912C147.601 32.2832 146.921 32.7312 146.137 33.0352C145.369 33.3232 144.529 33.4672 143.617 33.4672C142.209 33.4672 141.097 33.0912 140.281 32.3392C139.465 31.5872 139.057 30.5392 139.057 29.1952C139.057 28.7472 139.105 28.2592 139.201 27.7312L140.617 20.6032H142.921L141.505 27.7552C141.425 28.1872 141.385 28.5472 141.385 28.8352C141.385 29.6672 141.625 30.3072 142.105 30.7552C142.601 31.1872 143.329 31.4032 144.289 31.4032C145.505 31.4032 146.513 31.0592 147.313 30.3712C148.129 29.6832 148.673 28.6752 148.945 27.3472L150.289 20.6032H152.593ZM158.827 22.4992C159.387 21.7952 160.075 21.2832 160.891 20.9632C161.707 20.6432 162.699 20.4832 163.867 20.4832L163.435 22.7152C163.291 22.6992 163.091 22.6912 162.835 22.6912C160.195 22.6912 158.595 24.1152 158.035 26.9632L156.763 33.3232H154.459L156.979 20.6032H159.187L158.827 22.4992ZM166.659 20.6032H168.963L166.443 33.3232H164.139L166.659 20.6032ZM168.483 18.1552C168.067 18.1552 167.723 18.0192 167.451 17.7472C167.179 17.4752 167.043 17.1472 167.043 16.7632C167.043 16.3152 167.195 15.9392 167.499 15.6352C167.819 15.3152 168.219 15.1552 168.699 15.1552C169.115 15.1552 169.459 15.2912 169.731 15.5632C170.019 15.8192 170.163 16.1312 170.163 16.4992C170.163 16.9952 170.003 17.3952 169.683 17.6992C169.379 18.0032 168.979 18.1552 168.483 18.1552ZM174.25 29.2672C174.202 29.5072 174.178 29.7312 174.178 29.9392C174.178 30.4512 174.314 30.8432 174.586 31.1152C174.874 31.3872 175.298 31.5232 175.858 31.5232C176.53 31.5232 177.138 31.3232 177.682 30.9232L178.162 32.6752C177.394 33.2032 176.41 33.4672 175.21 33.4672C174.202 33.4672 173.386 33.1872 172.762 32.6272C172.154 32.0512 171.85 31.2672 171.85 30.2752C171.85 29.9392 171.882 29.6192 171.946 29.3152L173.314 22.4992H171.154L171.514 20.6032H173.698L174.25 17.8192H176.554L176.002 20.6032H179.65L179.266 22.4992H175.618L174.25 29.2672ZM194.321 20.6032L185.297 34.7152C184.481 35.9952 183.705 36.8832 182.969 37.3792C182.233 37.8752 181.361 38.1232 180.353 38.1232C179.729 38.1232 179.121 38.0192 178.529 37.8112C177.937 37.6192 177.481 37.3472 177.161 36.9952L178.361 35.2912C178.937 35.8672 179.657 36.1552 180.521 36.1552C181.065 36.1552 181.545 36.0112 181.961 35.7232C182.377 35.4352 182.809 34.9472 183.257 34.2592L183.905 33.2512L180.833 20.6032H183.137L185.585 30.7792L191.993 20.6032H194.321ZM216.525 21.4432C216.525 23.0912 216.085 24.4672 215.205 25.5712C214.325 26.6752 213.085 27.4352 211.485 27.8512L214.557 33.3232H212.013L209.085 28.1872H208.629H204.141L203.133 33.3232H200.709L204.069 16.5232H210.333C212.301 16.5232 213.821 16.9552 214.893 17.8192C215.981 18.6672 216.525 19.8752 216.525 21.4432ZM208.701 26.1472C210.429 26.1472 211.765 25.7632 212.709 24.9952C213.653 24.2272 214.125 23.1152 214.125 21.6592C214.125 20.6512 213.781 19.8912 213.093 19.3792C212.405 18.8672 211.413 18.6112 210.117 18.6112H206.061L204.549 26.1472H208.701ZM220.066 27.6832V27.8272C220.066 29.0112 220.402 29.9152 221.074 30.5392C221.746 31.1472 222.754 31.4512 224.098 31.4512C224.882 31.4512 225.618 31.3232 226.306 31.0672C226.994 30.7952 227.57 30.4352 228.034 29.9872L229.018 31.6432C228.394 32.2192 227.634 32.6672 226.738 32.9872C225.842 33.3072 224.898 33.4672 223.906 33.4672C222.658 33.4672 221.578 33.2432 220.666 32.7952C219.754 32.3472 219.05 31.7072 218.554 30.8752C218.058 30.0432 217.81 29.0672 217.81 27.9472C217.81 26.5232 218.114 25.2432 218.722 24.1072C219.346 22.9712 220.202 22.0832 221.29 21.4432C222.394 20.8032 223.626 20.4832 224.986 20.4832C226.714 20.4832 228.09 20.9792 229.114 21.9712C230.154 22.9472 230.674 24.2832 230.674 25.9792C230.674 26.4912 230.618 27.0592 230.506 27.6832H220.066ZM224.89 22.4032C223.754 22.4032 222.778 22.7232 221.962 23.3632C221.146 24.0032 220.594 24.8832 220.306 26.0032H228.514C228.578 24.8672 228.274 23.9872 227.602 23.3632C226.946 22.7232 226.042 22.4032 224.89 22.4032ZM241.41 20.4832C242.498 20.4832 243.466 20.7072 244.314 21.1552C245.162 21.5872 245.826 22.2192 246.306 23.0512C246.786 23.8672 247.026 24.8352 247.026 25.9552C247.026 27.3952 246.714 28.6832 246.09 29.8192C245.466 30.9552 244.602 31.8512 243.498 32.5072C242.41 33.1472 241.186 33.4672 239.826 33.4672C238.738 33.4672 237.802 33.2752 237.018 32.8912C236.234 32.4912 235.634 31.9152 235.218 31.1632L233.874 37.9792H231.57L235.026 20.6032H237.234L236.922 22.1872C238.106 21.0512 239.602 20.4832 241.41 20.4832ZM239.73 31.4512C240.674 31.4512 241.522 31.2272 242.274 30.7792C243.026 30.3152 243.618 29.6752 244.05 28.8592C244.482 28.0432 244.698 27.1152 244.698 26.0752C244.698 24.9392 244.37 24.0592 243.714 23.4352C243.058 22.8112 242.122 22.4992 240.906 22.4992C239.962 22.4992 239.106 22.7312 238.338 23.1952C237.586 23.6432 236.994 24.2752 236.562 25.0912C236.146 25.9072 235.938 26.8352 235.938 27.8752C235.938 28.9952 236.266 29.8752 236.922 30.5152C237.594 31.1392 238.53 31.4512 239.73 31.4512ZM254.818 33.4672C253.618 33.4672 252.57 33.2432 251.674 32.7952C250.778 32.3312 250.082 31.6832 249.586 30.8512C249.09 30.0192 248.842 29.0592 248.842 27.9712C248.842 26.5472 249.162 25.2672 249.802 24.1312C250.442 22.9952 251.33 22.1072 252.466 21.4672C253.602 20.8112 254.882 20.4832 256.306 20.4832C257.506 20.4832 258.554 20.7072 259.45 21.1552C260.346 21.6032 261.034 22.2432 261.514 23.0752C262.01 23.8912 262.258 24.8512 262.258 25.9552C262.258 27.3792 261.938 28.6672 261.298 29.8192C260.658 30.9552 259.77 31.8512 258.634 32.5072C257.514 33.1472 256.242 33.4672 254.818 33.4672ZM254.962 31.4512C255.906 31.4512 256.754 31.2272 257.506 30.7792C258.274 30.3152 258.866 29.6752 259.282 28.8592C259.714 28.0432 259.93 27.1152 259.93 26.0752C259.93 24.9392 259.602 24.0592 258.946 23.4352C258.29 22.8112 257.354 22.4992 256.138 22.4992C255.194 22.4992 254.346 22.7312 253.594 23.1952C252.842 23.6432 252.25 24.2752 251.818 25.0912C251.386 25.9072 251.17 26.8352 251.17 27.8752C251.17 28.9952 251.498 29.8752 252.154 30.5152C252.826 31.1392 253.762 31.4512 254.962 31.4512ZM268.468 22.4992C269.028 21.7952 269.716 21.2832 270.532 20.9632C271.348 20.6432 272.34 20.4832 273.508 20.4832L273.076 22.7152C272.932 22.6992 272.732 22.6912 272.476 22.6912C269.836 22.6912 268.236 24.1152 267.676 26.9632L266.404 33.3232H264.1L266.62 20.6032H268.828L268.468 22.4992ZM277.703 29.2672C277.655 29.5072 277.631 29.7312 277.631 29.9392C277.631 30.4512 277.767 30.8432 278.039 31.1152C278.327 31.3872 278.751 31.5232 279.311 31.5232C279.983 31.5232 280.591 31.3232 281.135 30.9232L281.615 32.6752C280.847 33.2032 279.863 33.4672 278.663 33.4672C277.655 33.4672 276.839 33.1872 276.215 32.6272C275.607 32.0512 275.303 31.2672 275.303 30.2752C275.303 29.9392 275.335 29.6192 275.399 29.3152L276.767 22.4992H274.607L274.967 20.6032H277.151L277.703 17.8192H280.007L279.455 20.6032H283.103L282.719 22.4992H279.071L277.703 29.2672Z" fill="#202020"/>
<circle cx="409.242" cy="24.2425" r="24.2425" fill="#202020"/>
<path d="M408.262 18.0406V30.6406H406.336L399.388 22.1086V30.6406H397.066V18.0406H398.992L405.94 26.5726V18.0406H408.262ZM419.882 30.6406L417.308 26.9506C417.2 26.9626 417.038 26.9686 416.822 26.9686H413.978V30.6406H411.638V18.0406H416.822C417.914 18.0406 418.862 18.2206 419.666 18.5806C420.482 18.9406 421.106 19.4566 421.538 20.1286C421.97 20.8006 422.186 21.5986 422.186 22.5226C422.186 23.4706 421.952 24.2866 421.484 24.9706C421.028 25.6546 420.368 26.1646 419.504 26.5006L422.402 30.6406H419.882ZM419.828 22.5226C419.828 21.7186 419.564 21.1006 419.036 20.6686C418.508 20.2366 417.734 20.0206 416.714 20.0206H413.978V25.0426H416.714C417.734 25.0426 418.508 24.8266 419.036 24.3946C419.564 23.9506 419.828 23.3266 419.828 22.5226Z" fill="white"/>
<circle cx="370.242" cy="24.2425" r="23.2425" fill="white" stroke="#C4C4C4" stroke-width="2"/>
<path d="M368.409 18.0406V30.6406H366.483L359.535 22.1086V30.6406H357.213V18.0406H359.139L366.087 26.5726V18.0406H368.409ZM371.785 18.0406H377.293C378.637 18.0406 379.831 18.3046 380.875 18.8326C381.919 19.3486 382.729 20.0866 383.305 21.0466C383.881 21.9946 384.169 23.0926 384.169 24.3406C384.169 25.5886 383.881 26.6926 383.305 27.6526C382.729 28.6006 381.919 29.3386 380.875 29.8666C379.831 30.3826 378.637 30.6406 377.293 30.6406H371.785V18.0406ZM377.185 28.6606C378.109 28.6606 378.919 28.4866 379.615 28.1386C380.323 27.7786 380.863 27.2746 381.235 26.6266C381.619 25.9666 381.811 25.2046 381.811 24.3406C381.811 23.4766 381.619 22.7206 381.235 22.0726C380.863 21.4126 380.323 20.9086 379.615 20.5606C378.919 20.2006 378.109 20.0206 377.185 20.0206H374.125V28.6606H377.185Z" fill="#202020"/>
<circle cx="331.242" cy="24.2425" r="24.2425" fill="#FFF599"/>
<path d="M327.079 27.7246H320.779L319.537 30.6406H317.125L322.795 18.0406H325.099L330.787 30.6406H328.339L327.079 27.7246ZM326.305 25.8886L323.929 20.3806L321.571 25.8886H326.305ZM343.586 18.0406V30.6406H341.66L334.712 22.1086V30.6406H332.39V18.0406H334.316L341.264 26.5726V18.0406H343.586Z" fill="#202020"/>
</svg>
