<svg width="80" height="84" viewBox="0 0 80 84" fill="none" xmlns="http://www.w3.org/2000/svg">
<path fill-rule="evenodd" clip-rule="evenodd" d="M38.1216 0.942405C46.4681 0.763792 55.0686 1.61742 61.9588 6.55696C68.9622 11.5776 73.1344 19.6696 75.9467 28.059C78.8171 36.6219 81.1105 46.0431 78.0401 54.5295C75.0278 62.8553 67.0407 67.5204 59.9148 72.3705C53.1689 76.962 46.1402 81.0303 38.1216 81.6994C29.5994 82.4104 20.4829 81.6176 13.652 76.2306C6.87006 70.8821 4.10525 61.8517 2.02122 53.2294C0.056905 45.1024 -0.118067 36.7302 2.16246 28.6943C4.48989 20.4932 8.40693 12.6361 14.9813 7.56226C21.5809 2.46894 29.927 1.11777 38.1216 0.942405Z" fill="#E06B65"/>
<path d="M40.5529 18.3192C40.5529 18.3192 27.3829 18.5212 27.1729 36.4161C27.1729 36.4161 20.0629 35.2134 26.1729 44.1128C26.1729 44.1128 26.7728 45.6329 28.6428 44.1128C30.5128 42.5927 26.8929 47.7591 35.3929 52.9255C35.3929 52.9255 35.5128 61.2187 33.3928 62.5464C31.2728 63.874 45.0128 68.4343 47.2528 62.5464C45.8038 60.8394 45.0407 58.6883 45.1028 56.4852C45.1028 56.4852 54.5428 56.0234 54.5928 40.3799C54.6428 24.7363 50.1029 17.4148 40.5529 18.3192Z" fill="#E8C0B6"/>
<path d="M65.1024 66.8567C65.1024 66.8567 62.4424 51.3574 63.6824 44.6036C64.9224 37.8497 51.4924 18.2808 51.4924 18.2808C51.4924 18.2808 52.7224 9.82405 46.4924 12.364C46.4924 12.364 42.2224 15.3464 34.4924 13.6628C26.7624 11.9791 22.1024 22.0618 22.6524 25.4195C22.6524 25.4195 9.85239 29.9028 13.7324 49.4717C17.6124 69.0406 15.8003 78.777 21.4203 81.5767C27.0403 84.3763 37.2524 82.746 42.7324 74.905C48.2124 67.0639 53.7324 81.5767 53.7324 81.5767C53.7324 81.5767 66.6824 86.262 65.1024 66.8567ZM52.3924 50.963C49.9124 54.6574 48.2424 56.0813 45.7824 56.0813C43.3224 56.0813 46.8824 62.1136 46.8824 62.1136C40.3524 65.1923 34.0824 61.6037 34.0824 61.6037C36.9124 59.6795 36.0824 52.9449 36.0824 52.9449C32.6324 52.7332 29.1724 43.8339 29.1724 43.8339C26.3424 45.9697 25.0624 42.333 25.0624 42.333C22.6124 34.9538 27.2124 36.4354 27.2124 36.4354C26.5924 27.7766 36.6924 25.6889 42.7324 24.5055C48.7724 23.3222 49.2624 20.8303 49.2624 20.8303C56.6924 29.162 54.9124 47.2108 52.3924 50.963Z" fill="#202020"/>
<path d="M47.2243 60.6647C41.515 65.2322 35.9639 62.5679 33.902 60.6647C23.8059 60.2435 16.0562 75.873 13.4434 83.7404H70.0619C64.8282 74.1454 52.9336 56.0972 47.2243 60.6647Z" fill="#FFB6B3"/>
</svg>
