<svg width="49" height="49" viewBox="0 0 49 49" fill="none" xmlns="http://www.w3.org/2000/svg">
<circle cx="24.2425" cy="24.2425" r="24.2425" fill="#99CCFF"/>
<path d="M16.6116 30.8206C15.8076 30.8206 15.0636 30.6646 14.3796 30.3526C13.7076 30.0286 13.1556 29.5786 12.7236 29.0026L14.0556 27.4006C14.7516 28.3606 15.5856 28.8406 16.5576 28.8406C17.8656 28.8406 18.5196 28.0666 18.5196 26.5186V20.0026H14.0376V18.0406H20.8596V26.3926C20.8596 27.8686 20.4996 28.9786 19.7796 29.7226C19.0596 30.4546 18.0036 30.8206 16.6116 30.8206ZM29.9738 30.8206C28.7018 30.8206 27.5498 30.5446 26.5178 29.9926C25.4978 29.4286 24.6938 28.6546 24.1058 27.6706C23.5298 26.6866 23.2418 25.5766 23.2418 24.3406C23.2418 23.1046 23.5358 21.9946 24.1238 21.0106C24.7118 20.0266 25.5158 19.2586 26.5358 18.7066C27.5678 18.1426 28.7198 17.8606 29.9918 17.8606C31.0238 17.8606 31.9658 18.0406 32.8178 18.4006C33.6698 18.7606 34.3898 19.2826 34.9778 19.9666L33.4658 21.3886C32.5538 20.4046 31.4318 19.9126 30.0998 19.9126C29.2358 19.9126 28.4618 20.1046 27.7778 20.4886C27.0938 20.8606 26.5598 21.3826 26.1758 22.0546C25.7918 22.7266 25.5998 23.4886 25.5998 24.3406C25.5998 25.1926 25.7918 25.9546 26.1758 26.6266C26.5598 27.2986 27.0938 27.8266 27.7778 28.2106C28.4618 28.5826 29.2358 28.7686 30.0998 28.7686C31.4318 28.7686 32.5538 28.2706 33.4658 27.2746L34.9778 28.7146C34.3898 29.3986 33.6638 29.9206 32.7998 30.2806C31.9478 30.6406 31.0058 30.8206 29.9738 30.8206Z" fill="#202020"/>
</svg>
