<svg width="127" height="49" viewBox="0 0 127 49" fill="none" xmlns="http://www.w3.org/2000/svg">
<circle cx="102.242" cy="24.2425" r="24.2425" fill="#202020"/>
<path d="M101.262 18.0406V30.6406H99.3357L92.3877 22.1086V30.6406H90.0657V18.0406H91.9917L98.9397 26.5726V18.0406H101.262ZM112.882 30.6406L110.308 26.9506C110.2 26.9626 110.038 26.9686 109.822 26.9686H106.978V30.6406H104.638V18.0406H109.822C110.914 18.0406 111.862 18.2206 112.666 18.5806C113.482 18.9406 114.106 19.4566 114.538 20.1286C114.97 20.8006 115.186 21.5986 115.186 22.5226C115.186 23.4706 114.952 24.2866 114.484 24.9706C114.028 25.6546 113.368 26.1646 112.504 26.5006L115.402 30.6406H112.882ZM112.828 22.5226C112.828 21.7186 112.564 21.1006 112.036 20.6686C111.508 20.2366 110.734 20.0206 109.714 20.0206H106.978V25.0426H109.714C110.734 25.0426 111.508 24.8266 112.036 24.3946C112.564 23.9506 112.828 23.3266 112.828 22.5226Z" fill="white"/>
<circle cx="63.2425" cy="24.2425" r="23.2425" fill="white" stroke="#C4C4C4" stroke-width="2"/>
<path d="M61.4091 18.0406V30.6406H59.4831L52.5351 22.1086V30.6406H50.2131V18.0406H52.1391L59.0871 26.5726V18.0406H61.4091ZM64.7854 18.0406H70.2934C71.6374 18.0406 72.8314 18.3046 73.8754 18.8326C74.9194 19.3486 75.7294 20.0866 76.3054 21.0466C76.8814 21.9946 77.1694 23.0926 77.1694 24.3406C77.1694 25.5886 76.8814 26.6926 76.3054 27.6526C75.7294 28.6006 74.9194 29.3386 73.8754 29.8666C72.8314 30.3826 71.6374 30.6406 70.2934 30.6406H64.7854V18.0406ZM70.1854 28.6606C71.1094 28.6606 71.9194 28.4866 72.6154 28.1386C73.3234 27.7786 73.8634 27.2746 74.2354 26.6266C74.6194 25.9666 74.8114 25.2046 74.8114 24.3406C74.8114 23.4766 74.6194 22.7206 74.2354 22.0726C73.8634 21.4126 73.3234 20.9086 72.6154 20.5606C71.9194 20.2006 71.1094 20.0206 70.1854 20.0206H67.1254V28.6606H70.1854Z" fill="#202020"/>
<circle cx="24.2425" cy="24.2425" r="24.2425" fill="#FFF599"/>
<path d="M20.0795 27.7246H13.7795L12.5375 30.6406H10.1255L15.7955 18.0406H18.0995L23.7875 30.6406H21.3395L20.0795 27.7246ZM19.3055 25.8886L16.9295 20.3806L14.5715 25.8886H19.3055ZM36.5859 18.0406V30.6406H34.6599L27.7119 22.1086V30.6406H25.3899V18.0406H27.3159L34.2639 26.5726V18.0406H36.5859Z" fill="#202020"/>
</svg>
