<svg width="49" height="49" viewBox="0 0 49 49" fill="none" xmlns="http://www.w3.org/2000/svg">
<circle cx="24.2425" cy="24.2425" r="24.2425" fill="#99CC99"/>
<path d="M15.8646 30.8206C15.0606 30.8206 14.3166 30.6646 13.6326 30.3526C12.9606 30.0286 12.4086 29.5786 11.9766 29.0026L13.3086 27.4006C14.0046 28.3606 14.8386 28.8406 15.8106 28.8406C17.1186 28.8406 17.7726 28.0666 17.7726 26.5186V20.0026H13.2906V18.0406H20.1126V26.3926C20.1126 27.8686 19.7526 28.9786 19.0326 29.7226C18.3126 30.4546 17.2566 30.8206 15.8646 30.8206ZM34.5908 18.0406V30.6406H32.6648L25.7168 22.1086V30.6406H23.3948V18.0406H25.3208L32.2688 26.5726V18.0406H34.5908Z" fill="#202020"/>
</svg>
