<svg width="80" height="84" viewBox="0 0 80 84" fill="none" xmlns="http://www.w3.org/2000/svg">
<path fill-rule="evenodd" clip-rule="evenodd" d="M38.5339 0.121239C46.8512 -0.578627 55.1969 1.76903 62.1758 6.7106C69.3986 11.8249 75.4146 19.1217 77.9636 28.0403C80.4916 36.8854 79.0355 46.3968 75.9914 55.0498C73.0631 63.3739 68.1546 70.8439 61.2167 75.6451C54.5366 80.2678 46.4648 80.8814 38.5339 80.971C30.5197 81.0615 21.9934 81.2468 15.5041 76.1615C9.01181 71.0737 6.58489 62.23 4.10086 53.9873C1.61476 45.7378 -1.29491 37.0229 1.22698 28.786C3.74316 20.5679 10.8961 15.4911 17.4227 10.4764C23.8795 5.5153 30.6365 0.785774 38.5339 0.121239Z" fill="#99CC99"/>
<path d="M38.4442 16.8106C38.4442 16.8106 25.2742 17.0127 25.0342 34.946C25.0342 34.946 17.9242 33.7338 24.0342 42.585C24.0342 42.585 24.6242 44.1147 26.4942 42.585C28.3642 41.0553 24.7442 46.2313 33.2442 51.3978C33.2442 51.3978 33.3642 59.691 31.2442 61.0187C29.1242 62.3463 42.8642 66.9066 45.1042 61.0187C43.678 59.32 42.9265 57.1885 42.9842 55.0056C42.9842 55.0056 52.4242 54.5438 52.4742 38.9002C52.5242 23.2566 48.0342 15.9063 38.4442 16.8106Z" fill="#E8C0B6"/>
<path d="M19.9444 22.6695C19.9444 22.6695 16.5144 26.2774 20.8444 31.54C20.6566 31.9138 20.5549 32.3222 20.5461 32.7373C20.5373 33.1523 20.6217 33.5643 20.7935 33.9452C20.9653 34.326 21.2205 34.6667 21.5416 34.944C21.8628 35.2213 22.2423 35.4286 22.6544 35.552C22.6544 35.552 24.7744 37.8802 25.5744 36.033C26.3744 34.1858 27.7944 27.2202 31.0144 27.124C31.0144 27.124 30.2044 21.1206 35.1444 21.8999C35.1444 21.8999 36.1444 19.6678 38.2644 20.6395C40.3844 21.6112 41.9544 22.8908 43.8744 21.2456C45.7944 19.6005 47.3244 26.2004 50.0844 25.5462C51.6344 25.171 51.4444 35.0709 52.4544 34.0992C53.4644 33.1275 55.5744 22.7657 50.2344 16.9643C50.2344 16.9643 46.0144 14.3474 44.5044 16.0022C44.5044 16.0022 43.0944 12.9043 39.7744 12.9043C36.4544 12.9043 34.7744 14.3571 33.1244 14.0684C31.4744 13.7798 28.5944 13.5778 27.1844 15.0305C27.1844 15.0209 18.9544 19.4177 19.9444 22.6695Z" fill="#202020"/>
<path d="M45.0342 15.6271C45.2287 14.9949 45.6424 14.4457 46.2064 14.0711C46.7704 13.6965 47.4507 13.519 48.1342 13.5681" fill="#202020"/>
<path d="M43.874 15.0009C43.8841 14.5275 44.0702 14.0732 44.3986 13.7204C44.727 13.3676 45.1759 13.1396 45.6641 13.0776" fill="#202020"/>
<path d="M44.4928 60.6642C38.7835 65.2317 33.2324 62.5674 31.1706 60.6642C21.0745 60.243 13.3248 75.8725 10.7119 83.7399H67.3304C62.0968 74.1449 50.2022 56.0967 44.4928 60.6642Z" fill="#CBF4CB"/>
</svg>
