<svg width="80" height="83" viewBox="0 0 80 83" fill="none" xmlns="http://www.w3.org/2000/svg">
<path fill-rule="evenodd" clip-rule="evenodd" d="M40.8197 0.00223137C48.5192 -0.0987379 55.8629 3.23544 62.099 8.2716C68.3425 13.3136 72.9461 20.2711 75.8037 28.2544C78.8248 36.6945 81.4961 46.1165 78.701 54.6529C75.9394 63.0869 68.1737 67.6716 61.3415 72.4234C54.9877 76.8425 48.3081 81.0453 40.8197 80.9996C33.3559 80.9541 26.8483 76.4789 20.4604 72.174C13.4528 67.4515 5.08877 63.4601 2.14875 54.939C-0.83557 46.2895 1.95305 36.5516 5.23145 28.0355C8.28122 20.1133 13.586 13.7994 19.901 8.82498C26.1426 3.90836 33.1781 0.102441 40.8197 0.00223137Z" fill="#99CCFF"/>
<path d="M39.9132 16.9413C39.9132 16.9413 26.7432 17.1433 26.5332 35.0381C26.5332 35.0381 19.4232 33.8355 25.5332 42.7349C25.5332 42.7349 26.1332 44.255 28.0032 42.7349C29.8732 41.2148 26.2532 46.3812 34.7532 51.5476C34.7532 51.5476 34.8732 59.8408 32.7532 61.1685C30.6332 62.4962 45.6213 66.9078 47.8613 61.0198C46.4123 59.3129 44.4011 57.3104 44.4632 55.1073C44.4632 55.1073 53.9032 54.6455 53.9532 39.002C54.0032 23.3584 49.4632 16.0369 39.9132 16.9413Z" fill="#E8C0B6"/>
<path d="M64.4637 65.4788C64.4637 65.4788 61.8037 49.9795 63.0437 43.2257C64.2837 36.4718 50.8537 16.9029 50.8537 16.9029C50.8537 16.9029 52.0837 8.44612 45.8537 10.986C45.8537 10.986 41.5837 13.9685 33.8537 12.2849C26.1237 10.6012 21.4637 20.6839 22.0137 24.0416C22.0137 24.0416 9.21372 28.5249 13.0937 48.0938C16.9737 67.6628 18.8037 77.3991 24.4237 80.1988C30.0437 82.9985 36.6137 82.8496 42.0937 75.0086C47.5737 67.1675 53.0937 80.1988 53.0937 80.1988C53.0937 80.1988 66.0437 84.8842 64.4637 65.4788ZM51.7537 49.5851C49.2737 53.2795 47.6037 54.7034 45.1437 54.7034C42.6837 54.7034 46.8613 60.0579 46.8613 60.0579C40.3613 65.3494 33.4437 60.2258 33.4437 60.2258C35.8613 58.6147 35.4437 51.567 35.4437 51.567C31.9937 51.3553 28.5337 42.456 28.5337 42.456C25.7037 44.5918 24.4237 40.9551 24.4237 40.9551C21.9737 33.5759 26.5737 35.0575 26.5737 35.0575C25.9537 26.3987 36.0537 24.311 42.0937 23.1276C48.1337 21.9442 48.6237 19.4524 48.6237 19.4524C56.0537 27.7841 54.2737 45.8329 51.7537 49.5851Z" fill="#202020"/>
<path d="M46.5856 59.6647C40.8763 64.2322 35.3252 61.5679 33.2633 59.6647C23.1673 59.2435 15.4175 74.873 12.8047 82.7404H69.4232C64.1895 73.1454 52.2949 55.0972 46.5856 59.6647Z" fill="#C3DDF7"/>
</svg>
