<svg width="79" height="83" viewBox="0 0 79 83" fill="none" xmlns="http://www.w3.org/2000/svg">
<path fill-rule="evenodd" clip-rule="evenodd" d="M41.6893 0.047923C50.3229 -0.425534 59.0462 2.63377 65.597 8.13367C71.8554 13.3882 74.2202 21.4415 76.4138 29.2021C78.5092 36.6153 80.1937 44.3014 77.8996 51.6586C75.5779 59.1039 69.905 64.8226 63.7575 69.7898C57.222 75.0705 50.1555 80.2927 41.6893 80.9165C32.8761 81.5659 24.1444 78.3736 17.0551 73.231C10.0221 68.1292 5.30292 60.6971 2.60886 52.5672C-0.0812364 44.4493 -1.28872 35.5408 1.9374 27.6105C5.0649 19.9226 12.7448 15.4476 19.6601 10.6528C26.5007 5.90974 33.3066 0.507617 41.6893 0.047923Z" fill="#99CCFF"/>
<path d="M38.4986 13.4511C38.4986 13.4511 25.3286 13.6211 25.1186 32.2311C25.1186 32.2311 18.0186 30.9711 24.1186 40.1711C24.1186 40.1711 24.7086 41.7511 26.5786 40.1711C28.4486 38.5911 24.8286 43.9611 33.3286 49.3311C33.3286 49.3311 33.4486 57.9511 31.3286 59.3311C29.2086 60.7111 42.9486 65.4511 45.1986 59.3311C43.7664 57.5721 43.0109 55.3587 43.0686 53.0911C43.0686 53.0911 52.5086 52.6111 52.5686 36.3511C52.6286 20.0911 48.0886 12.4511 38.4986 13.4511Z" fill="#E8C0B6"/>
<path d="M26.8686 36.251C24.9164 33.9323 23.5679 31.1667 22.9433 28.2007C22.3187 25.2346 22.4373 22.1601 23.2886 19.251C26.0886 8.82101 39.9686 7.58102 46.1286 9.04102C52.2886 10.501 53.5186 5.79102 53.5186 5.79102C53.5186 5.79102 60.1286 20.351 53.5186 23.371C46.9086 26.391 27.3186 18.731 26.8686 36.251Z" fill="#DADADA"/>
<path d="M44.9723 59.6647C39.263 64.2322 33.7119 61.5679 31.6501 59.6647C21.554 59.2435 13.8043 74.873 11.1914 82.7404H67.8099C62.5763 73.1454 50.6816 55.0972 44.9723 59.6647Z" fill="#C3DDF7"/>
</svg>
