<svg width="82" height="85" viewBox="0 0 82 85" fill="none" xmlns="http://www.w3.org/2000/svg">
<path fill-rule="evenodd" clip-rule="evenodd" d="M40.8893 2.00752C48.8087 1.63711 56.9197 2.85976 63.4961 7.70141C70.2183 12.6504 74.4887 20.4863 77.2883 28.8051C80.1816 37.4024 82.3198 46.8415 79.5818 55.4995C76.8669 64.0847 69.7424 69.7605 62.7743 74.701C56.1383 79.4061 48.7934 83.1922 40.8893 82.9333C33.1265 82.6789 26.03 78.5653 19.9363 73.2975C14.0417 68.2018 10.0337 61.3261 7.12702 53.7468C3.97584 45.53 0.197225 36.6476 2.61799 28.1395C5.04771 19.6 12.7097 14.4877 19.6445 9.75247C26.1358 5.32021 33.2447 2.36508 40.8893 2.00752Z" fill="white" stroke="#DADADA" stroke-width="2"/>
<path d="M44.7687 17.4562C44.7687 17.4562 31.5987 17.6583 31.3887 35.5531C31.3887 35.5531 24.2787 34.3505 30.3887 43.2498C30.3887 43.2498 30.9787 44.7699 32.8487 43.2498C34.7187 41.7297 31.0987 46.8865 39.5987 52.0625C39.5987 52.0625 39.7187 60.3557 37.5987 61.6834C35.4787 63.0111 49.2187 67.5714 51.4587 61.6834C50.0325 59.9847 49.281 57.8533 49.3387 55.6703C49.3387 55.6703 58.7787 55.2182 58.8387 39.565C58.8487 24.008 54.3487 16.5519 44.7687 17.4562Z" fill="#E8C0B6"/>
<path d="M49.5183 17.2158C49.5183 17.2158 39.9282 13.3675 36.0182 16.1287C32.1082 18.8898 32.7382 21.526 29.2682 21.4105C25.7982 21.2951 16.1982 22.6997 19.0082 38.8339C19.0082 38.8339 28.1582 30.3291 27.2782 23.2289C27.2782 23.2289 28.0982 32.7054 25.6982 35.6109C23.2982 38.5164 18.1882 52.6783 27.5282 57.0462C36.8682 61.4141 39.6483 57.5946 39.6483 57.5946L40.1483 52.1299C40.1483 52.1299 33.9382 46.9539 33.3682 43.0094C32.9182 43.0094 30.0782 45.2125 28.7682 40.4598C27.5082 35.8707 29.2282 34.3217 32.1982 36.4094C32.1982 36.4094 32.0082 39.9307 32.7682 39.5651C33.5282 39.1995 34.9182 28.9821 37.3082 28.2702C39.6982 27.5583 50.0083 26.5481 49.5183 17.2158Z" fill="#202020"/>
<path d="M49.4887 19.3901C49.4887 19.3901 56.8087 24.624 58.3387 31.3586C58.3387 31.3586 61.0787 20.4581 53.0687 17.8893C53.0687 17.8893 48.1187 15.9651 49.4887 19.3901Z" fill="#202020"/>
<path d="M51.2887 61.5695C45.5794 66.137 40.0283 63.4726 37.9665 61.5695C27.8704 61.1483 20.1207 76.7778 17.5078 84.6452H74.1263C68.8927 75.0502 56.9981 57.002 51.2887 61.5695Z" fill="#DADADA"/>
</svg>
