<svg width="80" height="84" viewBox="0 0 80 84" fill="none" xmlns="http://www.w3.org/2000/svg">
<path fill-rule="evenodd" clip-rule="evenodd" d="M41.9246 0.95222C50.5583 0.478762 59.2816 3.53807 65.8323 9.03796C72.0908 14.2925 74.4556 22.3458 76.6491 30.1064C78.7445 37.5196 80.429 45.2057 78.1349 52.5629C75.8133 60.0082 70.1404 65.7269 63.9929 70.6941C57.4574 75.9748 50.3909 81.197 41.9246 81.8208C33.1114 82.4702 24.3797 79.2779 17.2904 74.1353C10.2574 69.0335 5.53827 61.6014 2.84421 53.4715C0.154115 45.3536 -1.05337 36.4451 2.17276 28.5148C5.30025 20.8269 12.9801 16.3519 19.8955 11.5571C26.7361 6.81404 33.542 1.41191 41.9246 0.95222Z" fill="#202020"/>
<path d="M38.8024 16.2064C38.8024 16.2064 25.6323 16.4084 25.4223 34.3418C25.4223 34.3418 18.3223 33.1391 24.4223 42.0385C24.4223 42.0385 25.0123 43.5586 26.8823 42.0385C28.7524 40.5184 25.1323 45.6752 33.6324 50.8512C33.6324 50.8512 33.7524 59.1444 31.6324 60.4721C29.5124 61.7998 43.2524 66.3601 45.5024 60.4721C44.071 58.7756 43.3158 56.6434 43.3724 54.459C43.3724 54.459 52.8224 54.0068 52.8724 38.3537C52.8824 22.7967 48.3924 15.302 38.8024 16.2064Z" fill="#CD9F94"/>
<path d="M22.7374 31.5887C22.7374 31.5887 22.2131 33.4375 25.001 35.8477C27.7889 38.2579 24.459 31.9141 27.0914 30.5041C29.7238 29.0942 26.6693 25.8645 29.5905 25.3945C32.5117 24.9245 31.0463 22.3697 33.501 22.5264C35.9557 22.683 35.501 21.5373 37.001 23.0506C42.001 20.5284 43.501 23.0506 46.501 22.0417C48.2837 20.5284 49.7054 22.1769 50.283 22.0684C50.8606 21.96 52.5044 21.7551 51.8491 19.2726C51.1938 16.7901 48.517 17.1034 48.2837 16.4165C48.0505 15.7296 46.7065 16.7178 46.2067 15.0186C45.7069 13.3194 44.1408 12.8494 42.5747 13.3194C41.0086 13.7894 40.5088 12.2348 39.0759 14.7053C39.0759 14.7053 36.5102 12.2951 34.3665 14.404C32.2229 16.5129 32.0118 12.3071 29.8015 17.4168C29.8015 17.4168 24.459 16.3322 25.1699 22.5264C25.1699 22.4541 23.1706 22.3577 22.7374 31.5887Z" fill="#202020"/>
<path d="M45.2077 60.569C39.4984 65.1365 33.9473 62.4722 31.8854 60.569C21.7893 60.1478 14.0396 75.7773 11.4268 83.6447H68.0453C62.8116 74.0497 50.917 56.0015 45.2077 60.569Z" fill="#202020"/>
</svg>
