<svg width="81" height="85" viewBox="0 0 81 85" fill="none" xmlns="http://www.w3.org/2000/svg">
<path fill-rule="evenodd" clip-rule="evenodd" d="M40.0416 1.73848C47.9611 1.36807 56.072 2.59072 62.6484 7.43237C69.3706 12.3814 73.641 20.2172 76.4406 28.5361C79.3339 37.1333 81.4721 46.5725 78.7341 55.2304C76.0192 63.8156 68.8947 69.4915 61.9267 74.4319C55.2906 79.137 47.9457 82.9232 40.0416 82.6642C32.2788 82.4099 25.1823 78.2962 19.0886 73.0284C13.194 67.9327 9.18605 61.057 6.27936 53.4778C3.12818 45.261 -0.650431 36.3785 1.77034 27.8705C4.20005 19.3309 11.862 14.2186 18.7969 9.48342C25.2881 5.05117 32.397 2.09604 40.0416 1.73848Z" fill="white" stroke="#DADADA" stroke-width="2"/>
<path d="M43.9087 15.9955C43.9087 15.9955 30.7487 16.2055 30.5387 34.8055C30.5387 34.8055 23.4287 33.5555 29.4887 42.8055C29.4887 42.8055 30.0787 44.3855 31.9587 42.8055C33.8387 41.2255 30.2087 46.5855 38.6987 51.9655C38.6987 51.9655 38.8287 60.5855 36.6987 61.9655C34.5687 63.3455 48.3187 68.0855 50.5687 61.9655C49.1425 60.1999 48.391 57.9844 48.4487 55.7155C48.4487 55.7155 57.8887 55.2455 57.9387 38.9755C57.9887 22.8055 53.4987 15.0555 43.9087 15.9955Z" fill="#F4D8BD"/>
<path d="M58.5 23.6768C58.5 23.6768 52.181 7.08577 28.4483 19.1766C28.4483 19.1766 17.9999 42.3056 27 66.1768C27 66.1768 35.6401 66.645 36.7501 62.985C37.6401 60.145 40.482 52.8116 38.6681 51.9156C36.8543 51.0197 35.3113 49.6576 34.1972 47.9689C33.0831 46.2802 32.4381 44.3257 32.3281 42.3057C32.3281 42.3057 29.7781 44.7357 28.4481 41.1057C27.0581 37.3057 26.6281 34.4956 30.6081 34.7156C30.6081 34.7156 31.1981 38.0956 32.9581 35.4457C34.7181 32.7957 36.6081 22.1057 38.6681 22.9457C40.7281 23.7857 50.0481 30.7356 55.9381 27.4956C55.9381 27.4956 60.5981 39.4957 55.1781 50.6057C55.1781 50.6057 52.3733 55.485 48.2507 55.485C48.2507 55.485 49.2507 62.985 50.7507 62.985C52.1807 63.345 60.2 69.7668 61 66.1768C61.8 62.5868 64.5 30.6768 58.5 23.6768Z" fill="#202020"/>
<path d="M50.4411 61.3005C44.7318 65.868 39.1807 63.2036 37.1188 61.3005C27.0227 60.8792 19.273 76.5087 16.6602 84.3761H73.2787C68.045 74.7811 56.1504 56.733 50.4411 61.3005Z" fill="#DADADA"/>
</svg>
