<svg width="79" height="84" viewBox="0 0 79 84" fill="none" xmlns="http://www.w3.org/2000/svg">
<path fill-rule="evenodd" clip-rule="evenodd" d="M39.3169 0.712001C47.2623 0.408039 55.182 2.04573 61.9484 6.57978C69.1041 11.3747 75.7599 17.9545 78.1267 26.7178C80.4643 35.3731 77.7253 44.5278 74.4341 52.8092C71.394 60.4589 66.371 66.6894 60.2472 71.7071C54.0222 76.8078 47.0976 81.0276 39.3169 81.5841C31.1841 82.1657 22.9002 80.0205 16.2834 74.8513C9.64715 69.6668 5.63435 61.6384 3.01805 53.2262C0.375489 44.7296 -1.36667 35.4824 1.41273 27.0375C4.15315 18.711 10.9561 13.0316 17.8147 8.26818C24.3206 3.74964 31.5995 1.00724 39.3169 0.712001Z" fill="#FFFF99"/>
<path d="M38.9283 15.2089C38.9283 15.2089 25.7583 15.4189 25.5483 34.0289C25.5483 34.0289 18.4483 32.7689 24.5483 41.9689C24.5483 41.9689 25.1383 43.5489 27.0083 41.9689C28.8783 40.3889 25.2383 45.7189 33.7183 51.0889C33.7183 51.0889 33.8383 59.7089 31.7183 61.0889C29.5983 62.4689 43.3383 67.2089 45.5883 61.0889C44.1561 59.3299 43.4006 57.1165 43.4583 54.8489C43.4583 54.8489 52.8983 54.3689 52.9583 38.1089C53.0183 21.8489 48.5083 14.2089 38.9283 15.2089Z" fill="#CD9F94"/>
<path d="M53.3188 14.8189C53.3188 14.8189 48.6088 11.8189 48.7488 10.3889C48.8888 8.95888 45.4688 7.20888 42.6088 8.53888C42.6088 8.53888 37.6087 4.38888 32.7587 8.67888C32.7587 8.67888 26.3288 8.10888 24.1888 12.2489C24.1888 12.2489 19.1888 11.8189 21.1888 18.8189C21.1888 18.8189 16.1888 21.2489 20.0488 26.6689C20.0488 26.6689 17.1888 30.9589 21.0488 33.5289C24.9088 36.0989 25.1888 32.9589 26.0488 37.5289C26.9088 42.0989 28.3287 33.2389 28.1887 31.5289C28.0487 29.8189 28.1888 26.0989 30.4688 27.0989C32.7488 28.0989 29.6188 22.2089 34.2388 24.5289C38.8588 26.8489 41.0888 20.0289 42.9488 22.7789C44.8088 25.5289 48.7987 26.7789 49.7987 23.9589C50.7988 21.1389 52.6588 25.1689 54.6588 22.7789C56.6588 20.3889 57.8888 19.2089 53.3188 14.8189Z" fill="#202020"/>
<path d="M44.9714 60.0236C39.262 64.5911 33.711 61.9267 31.6491 60.0236C21.553 59.6023 13.8033 75.2318 11.1904 83.0992H67.8089C62.5753 73.5042 50.6807 55.4561 44.9714 60.0236Z" fill="#F8F8C8"/>
</svg>
