<svg width="348" height="49" viewBox="0 0 348 49" fill="none" xmlns="http://www.w3.org/2000/svg">
<rect x="-0.000976562" y="28" width="242" height="20" rx="10" fill="#E95633" fill-opacity="0.6"/>
<path d="M22.4273 20.2465C22.4273 21.8945 21.9873 23.2705 21.1073 24.3745C20.2273 25.4785 18.9873 26.2385 17.3873 26.6545L20.4593 32.1265H17.9153L14.9873 26.9905H14.5313H10.0433L9.03528 32.1265H6.61128L9.97128 15.3265H16.2353C18.2033 15.3265 19.7233 15.7585 20.7953 16.6225C21.8833 17.4705 22.4273 18.6785 22.4273 20.2465ZM14.6033 24.9505C16.3313 24.9505 17.6673 24.5665 18.6113 23.7985C19.5553 23.0305 20.0273 21.9185 20.0273 20.4625C20.0273 19.4545 19.6833 18.6945 18.9953 18.1825C18.3073 17.6705 17.3153 17.4145 16.0193 17.4145H11.9633L10.4513 24.9505H14.6033ZM25.9688 26.4865V26.6305C25.9688 27.8145 26.3048 28.7185 26.9768 29.3425C27.6488 29.9505 28.6568 30.2545 30.0008 30.2545C30.7848 30.2545 31.5208 30.1265 32.2088 29.8705C32.8968 29.5985 33.4728 29.2385 33.9368 28.7905L34.9208 30.4465C34.2968 31.0225 33.5368 31.4705 32.6408 31.7905C31.7448 32.1105 30.8008 32.2705 29.8088 32.2705C28.5608 32.2705 27.4808 32.0465 26.5688 31.5985C25.6568 31.1505 24.9528 30.5105 24.4568 29.6785C23.9608 28.8465 23.7128 27.8705 23.7128 26.7505C23.7128 25.3265 24.0168 24.0465 24.6248 22.9105C25.2488 21.7745 26.1048 20.8865 27.1928 20.2465C28.2968 19.6065 29.5288 19.2865 30.8888 19.2865C32.6168 19.2865 33.9928 19.7825 35.0168 20.7745C36.0568 21.7505 36.5768 23.0865 36.5768 24.7825C36.5768 25.2945 36.5208 25.8625 36.4088 26.4865H25.9688ZM30.7928 21.2065C29.6568 21.2065 28.6808 21.5265 27.8648 22.1665C27.0488 22.8065 26.4968 23.6865 26.2088 24.8065H34.4168C34.4808 23.6705 34.1768 22.7905 33.5048 22.1665C32.8488 21.5265 31.9448 21.2065 30.7928 21.2065ZM42.4167 32.2705C41.3607 32.2705 40.3527 32.1345 39.3927 31.8625C38.4487 31.5905 37.7127 31.2385 37.1847 30.8065L38.2167 28.9825C38.7127 29.3825 39.3527 29.7025 40.1367 29.9425C40.9367 30.1665 41.7687 30.2785 42.6327 30.2785C43.7207 30.2785 44.5447 30.1185 45.1047 29.7985C45.6807 29.4625 45.9687 28.9985 45.9687 28.4065C45.9687 27.9265 45.7367 27.5825 45.2727 27.3745C44.8247 27.1665 44.1207 26.9585 43.1607 26.7505C42.2647 26.5585 41.5287 26.3665 40.9527 26.1745C40.3927 25.9665 39.9127 25.6465 39.5127 25.2145C39.1127 24.7665 38.9127 24.1665 38.9127 23.4145C38.9127 22.5825 39.1447 21.8545 39.6087 21.2305C40.0887 20.6065 40.7607 20.1265 41.6247 19.7905C42.5047 19.4545 43.5207 19.2865 44.6727 19.2865C45.5207 19.2865 46.3447 19.3905 47.1447 19.5985C47.9447 19.8065 48.6007 20.0865 49.1127 20.4385L48.2007 22.2625C47.7047 21.9265 47.1287 21.6785 46.4727 21.5185C45.8167 21.3425 45.1447 21.2545 44.4567 21.2545C43.4167 21.2545 42.6167 21.4305 42.0567 21.7825C41.4967 22.1185 41.2167 22.5745 41.2167 23.1505C41.2167 23.6625 41.4487 24.0305 41.9127 24.2545C42.3767 24.4625 43.0967 24.6705 44.0727 24.8785C44.9527 25.0705 45.6727 25.2625 46.2327 25.4545C46.7927 25.6465 47.2647 25.9585 47.6487 26.3905C48.0487 26.8225 48.2487 27.4065 48.2487 28.1425C48.2487 29.4385 47.7127 30.4545 46.6407 31.1905C45.5847 31.9105 44.1767 32.2705 42.4167 32.2705ZM52.9521 19.4065H55.2561L52.7361 32.1265H50.4321L52.9521 19.4065ZM54.7761 16.9585C54.3601 16.9585 54.0161 16.8225 53.7441 16.5505C53.4721 16.2785 53.3361 15.9505 53.3361 15.5665C53.3361 15.1185 53.4881 14.7425 53.7921 14.4385C54.1121 14.1185 54.5121 13.9585 54.9921 13.9585C55.4081 13.9585 55.7521 14.0945 56.0241 14.3665C56.3121 14.6225 56.4561 14.9345 56.4561 15.3025C56.4561 15.7985 56.2961 16.1985 55.9761 16.5025C55.6721 16.8065 55.2721 16.9585 54.7761 16.9585ZM72.6632 14.3185L69.1112 32.1265H66.9032L67.2152 30.5665C66.6392 31.1105 65.9672 31.5345 65.1992 31.8385C64.4472 32.1265 63.6232 32.2705 62.7272 32.2705C61.6392 32.2705 60.6712 32.0545 59.8232 31.6225C58.9752 31.1745 58.3112 30.5345 57.8312 29.7025C57.3512 28.8705 57.1112 27.8945 57.1112 26.7745C57.1112 25.3345 57.4232 24.0465 58.0472 22.9105C58.6712 21.7745 59.5272 20.8865 60.6152 20.2465C61.7192 19.6065 62.9512 19.2865 64.3112 19.2865C65.3992 19.2865 66.3352 19.4865 67.1192 19.8865C67.9192 20.2705 68.5192 20.8385 68.9192 21.5905L70.3592 14.3185H72.6632ZM63.2312 30.2545C64.1752 30.2545 65.0232 30.0305 65.7752 29.5825C66.5432 29.1185 67.1352 28.4785 67.5512 27.6625C67.9832 26.8465 68.1992 25.9185 68.1992 24.8785C68.1992 23.7425 67.8712 22.8625 67.2152 22.2385C66.5592 21.6145 65.6232 21.3025 64.4072 21.3025C63.4632 21.3025 62.6152 21.5345 61.8632 21.9985C61.1112 22.4465 60.5192 23.0785 60.0872 23.8945C59.6552 24.7105 59.4392 25.6385 59.4392 26.6785C59.4392 27.7985 59.7672 28.6785 60.4232 29.3185C61.0952 29.9425 62.0312 30.2545 63.2312 30.2545ZM75.7266 26.4865V26.6305C75.7266 27.8145 76.0626 28.7185 76.7346 29.3425C77.4066 29.9505 78.4146 30.2545 79.7586 30.2545C80.5426 30.2545 81.2786 30.1265 81.9666 29.8705C82.6546 29.5985 83.2306 29.2385 83.6946 28.7905L84.6786 30.4465C84.0546 31.0225 83.2946 31.4705 82.3986 31.7905C81.5026 32.1105 80.5586 32.2705 79.5666 32.2705C78.3186 32.2705 77.2386 32.0465 76.3266 31.5985C75.4146 31.1505 74.7106 30.5105 74.2146 29.6785C73.7186 28.8465 73.4706 27.8705 73.4706 26.7505C73.4706 25.3265 73.7746 24.0465 74.3826 22.9105C75.0066 21.7745 75.8626 20.8865 76.9506 20.2465C78.0546 19.6065 79.2866 19.2865 80.6466 19.2865C82.3746 19.2865 83.7506 19.7825 84.7746 20.7745C85.8146 21.7505 86.3346 23.0865 86.3346 24.7825C86.3346 25.2945 86.2786 25.8625 86.1666 26.4865H75.7266ZM80.5506 21.2065C79.4146 21.2065 78.4386 21.5265 77.6226 22.1665C76.8066 22.8065 76.2546 23.6865 75.9666 24.8065H84.1746C84.2386 23.6705 83.9346 22.7905 83.2626 22.1665C82.6066 21.5265 81.7026 21.2065 80.5506 21.2065ZM97.1905 19.2865C98.6465 19.2865 99.7745 19.6545 100.574 20.3905C101.39 21.1265 101.798 22.1665 101.798 23.5105C101.798 23.9745 101.75 24.4705 101.654 24.9985L100.238 32.1265H97.9345L99.3505 24.9985C99.4305 24.5665 99.4705 24.2145 99.4705 23.9425C99.4705 23.1105 99.2225 22.4705 98.7265 22.0225C98.2305 21.5745 97.4945 21.3505 96.5185 21.3505C95.2705 21.3505 94.2385 21.6945 93.4225 22.3825C92.6225 23.0545 92.0865 24.0625 91.8145 25.4065L90.4705 32.1265H88.1665L90.6865 19.4065H92.8945L92.5825 21.0385C93.7345 19.8705 95.2705 19.2865 97.1905 19.2865ZM110.597 32.2705C109.381 32.2705 108.317 32.0465 107.405 31.5985C106.493 31.1345 105.789 30.4945 105.293 29.6785C104.797 28.8465 104.549 27.8785 104.549 26.7745C104.549 25.3505 104.869 24.0705 105.509 22.9345C106.149 21.7985 107.037 20.9105 108.173 20.2705C109.309 19.6145 110.597 19.2865 112.037 19.2865C114.549 19.2865 116.293 20.2065 117.269 22.0465L115.325 23.1265C114.653 21.9105 113.501 21.3025 111.869 21.3025C110.925 21.3025 110.069 21.5345 109.301 21.9985C108.549 22.4465 107.957 23.0785 107.525 23.8945C107.093 24.7105 106.877 25.6385 106.877 26.6785C106.877 27.7985 107.205 28.6785 107.861 29.3185C108.533 29.9425 109.477 30.2545 110.693 30.2545C111.461 30.2545 112.173 30.1025 112.829 29.7985C113.501 29.4945 114.053 29.0465 114.485 28.4545L116.165 29.6545C115.573 30.4705 114.781 31.1105 113.789 31.5745C112.797 32.0385 111.733 32.2705 110.597 32.2705ZM120.328 26.4865V26.6305C120.328 27.8145 120.664 28.7185 121.336 29.3425C122.008 29.9505 123.016 30.2545 124.36 30.2545C125.144 30.2545 125.88 30.1265 126.568 29.8705C127.256 29.5985 127.832 29.2385 128.296 28.7905L129.28 30.4465C128.656 31.0225 127.896 31.4705 127 31.7905C126.104 32.1105 125.16 32.2705 124.168 32.2705C122.92 32.2705 121.84 32.0465 120.928 31.5985C120.016 31.1505 119.312 30.5105 118.816 29.6785C118.32 28.8465 118.072 27.8705 118.072 26.7505C118.072 25.3265 118.376 24.0465 118.984 22.9105C119.608 21.7745 120.464 20.8865 121.552 20.2465C122.656 19.6065 123.888 19.2865 125.248 19.2865C126.976 19.2865 128.352 19.7825 129.376 20.7745C130.416 21.7505 130.936 23.0865 130.936 24.7825C130.936 25.2945 130.88 25.8625 130.768 26.4865H120.328ZM125.152 21.2065C124.016 21.2065 123.04 21.5265 122.224 22.1665C121.408 22.8065 120.856 23.6865 120.568 24.8065H128.776C128.84 23.6705 128.536 22.7905 127.864 22.1665C127.208 21.5265 126.304 21.2065 125.152 21.2065ZM142.885 15.3265H149.461C151.141 15.3265 152.581 15.6145 153.781 16.1905C154.997 16.7505 155.917 17.5505 156.541 18.5905C157.181 19.6145 157.501 20.8225 157.501 22.2145C157.501 24.1665 157.061 25.8945 156.181 27.3985C155.317 28.9025 154.093 30.0705 152.509 30.9025C150.941 31.7185 149.117 32.1265 147.037 32.1265H139.525L142.885 15.3265ZM147.109 30.0385C148.725 30.0385 150.133 29.7105 151.333 29.0545C152.533 28.3985 153.453 27.4945 154.093 26.3425C154.749 25.1745 155.077 23.8465 155.077 22.3585C155.077 20.8065 154.581 19.5985 153.589 18.7345C152.597 17.8545 151.141 17.4145 149.221 17.4145H144.853L142.333 30.0385H147.109ZM161.273 26.4865V26.6305C161.273 27.8145 161.609 28.7185 162.281 29.3425C162.953 29.9505 163.961 30.2545 165.305 30.2545C166.089 30.2545 166.825 30.1265 167.513 29.8705C168.201 29.5985 168.777 29.2385 169.241 28.7905L170.225 30.4465C169.601 31.0225 168.841 31.4705 167.945 31.7905C167.049 32.1105 166.105 32.2705 165.113 32.2705C163.865 32.2705 162.785 32.0465 161.873 31.5985C160.961 31.1505 160.257 30.5105 159.761 29.6785C159.265 28.8465 159.017 27.8705 159.017 26.7505C159.017 25.3265 159.321 24.0465 159.929 22.9105C160.553 21.7745 161.409 20.8865 162.497 20.2465C163.601 19.6065 164.833 19.2865 166.193 19.2865C167.921 19.2865 169.297 19.7825 170.321 20.7745C171.361 21.7505 171.881 23.0865 171.881 24.7825C171.881 25.2945 171.825 25.8625 171.713 26.4865H161.273ZM166.097 21.2065C164.961 21.2065 163.985 21.5265 163.169 22.1665C162.353 22.8065 161.801 23.6865 161.513 24.8065H169.721C169.785 23.6705 169.481 22.7905 168.809 22.1665C168.153 21.5265 167.249 21.2065 166.097 21.2065ZM177.721 32.2705C176.665 32.2705 175.657 32.1345 174.697 31.8625C173.753 31.5905 173.017 31.2385 172.489 30.8065L173.521 28.9825C174.017 29.3825 174.657 29.7025 175.441 29.9425C176.241 30.1665 177.073 30.2785 177.937 30.2785C179.025 30.2785 179.849 30.1185 180.409 29.7985C180.985 29.4625 181.273 28.9985 181.273 28.4065C181.273 27.9265 181.041 27.5825 180.577 27.3745C180.129 27.1665 179.425 26.9585 178.465 26.7505C177.569 26.5585 176.833 26.3665 176.257 26.1745C175.697 25.9665 175.217 25.6465 174.817 25.2145C174.417 24.7665 174.217 24.1665 174.217 23.4145C174.217 22.5825 174.449 21.8545 174.913 21.2305C175.393 20.6065 176.065 20.1265 176.929 19.7905C177.809 19.4545 178.825 19.2865 179.977 19.2865C180.825 19.2865 181.649 19.3905 182.449 19.5985C183.249 19.8065 183.905 20.0865 184.417 20.4385L183.505 22.2625C183.009 21.9265 182.433 21.6785 181.777 21.5185C181.121 21.3425 180.449 21.2545 179.761 21.2545C178.721 21.2545 177.921 21.4305 177.361 21.7825C176.801 22.1185 176.521 22.5745 176.521 23.1505C176.521 23.6625 176.753 24.0305 177.217 24.2545C177.681 24.4625 178.401 24.6705 179.377 24.8785C180.257 25.0705 180.977 25.2625 181.537 25.4545C182.097 25.6465 182.569 25.9585 182.953 26.3905C183.353 26.8225 183.553 27.4065 183.553 28.1425C183.553 29.4385 183.017 30.4545 181.945 31.1905C180.889 31.9105 179.481 32.2705 177.721 32.2705ZM188.257 19.4065H190.561L188.041 32.1265H185.737L188.257 19.4065ZM190.081 16.9585C189.665 16.9585 189.321 16.8225 189.049 16.5505C188.777 16.2785 188.641 15.9505 188.641 15.5665C188.641 15.1185 188.793 14.7425 189.097 14.4385C189.417 14.1185 189.817 13.9585 190.297 13.9585C190.713 13.9585 191.057 14.0945 191.329 14.3665C191.617 14.6225 191.761 14.9345 191.761 15.3025C191.761 15.7985 191.601 16.1985 191.281 16.5025C190.977 16.8065 190.577 16.9585 190.081 16.9585ZM207.128 19.4065L204.944 30.3985C204.496 32.6705 203.648 34.3265 202.4 35.3665C201.168 36.4065 199.48 36.9265 197.336 36.9265C196.136 36.9265 195.04 36.7665 194.048 36.4465C193.056 36.1425 192.216 35.7025 191.528 35.1265L192.8 33.3505C193.312 33.8145 193.976 34.1825 194.792 34.4545C195.624 34.7425 196.528 34.8865 197.504 34.8865C198.976 34.8865 200.112 34.5505 200.912 33.8785C201.728 33.2065 202.28 32.1665 202.568 30.7585L202.76 29.8465C201.544 31.0145 200.008 31.5985 198.152 31.5985C197.032 31.5985 196.04 31.3905 195.176 30.9745C194.328 30.5585 193.664 29.9585 193.184 29.1745C192.72 28.3905 192.488 27.4705 192.488 26.4145C192.488 25.0865 192.792 23.8785 193.4 22.7905C194.024 21.7025 194.888 20.8465 195.992 20.2225C197.096 19.5985 198.344 19.2865 199.736 19.2865C200.824 19.2865 201.784 19.4945 202.616 19.9105C203.464 20.3105 204.088 20.9185 204.488 21.7345L204.944 19.4065H207.128ZM198.608 29.5825C199.568 29.5825 200.424 29.3745 201.176 28.9585C201.944 28.5265 202.536 27.9345 202.952 27.1825C203.384 26.4145 203.6 25.5505 203.6 24.5905C203.6 23.5665 203.264 22.7665 202.592 22.1905C201.936 21.5985 201.008 21.3025 199.808 21.3025C198.848 21.3025 197.984 21.5185 197.216 21.9505C196.464 22.3665 195.872 22.9585 195.44 23.7265C195.024 24.4785 194.816 25.3265 194.816 26.2705C194.816 27.3105 195.152 28.1265 195.824 28.7185C196.496 29.2945 197.424 29.5825 198.608 29.5825ZM218.034 19.2865C219.49 19.2865 220.618 19.6545 221.418 20.3905C222.234 21.1265 222.642 22.1665 222.642 23.5105C222.642 23.9745 222.594 24.4705 222.498 24.9985L221.082 32.1265H218.778L220.194 24.9985C220.274 24.5665 220.314 24.2145 220.314 23.9425C220.314 23.1105 220.066 22.4705 219.57 22.0225C219.074 21.5745 218.338 21.3505 217.362 21.3505C216.114 21.3505 215.082 21.6945 214.266 22.3825C213.466 23.0545 212.93 24.0625 212.658 25.4065L211.314 32.1265H209.01L211.53 19.4065H213.738L213.426 21.0385C214.578 19.8705 216.114 19.2865 218.034 19.2865ZM229.354 32.2705C228.298 32.2705 227.29 32.1345 226.33 31.8625C225.386 31.5905 224.65 31.2385 224.122 30.8065L225.154 28.9825C225.65 29.3825 226.29 29.7025 227.074 29.9425C227.874 30.1665 228.706 30.2785 229.57 30.2785C230.658 30.2785 231.482 30.1185 232.042 29.7985C232.618 29.4625 232.906 28.9985 232.906 28.4065C232.906 27.9265 232.674 27.5825 232.21 27.3745C231.762 27.1665 231.058 26.9585 230.098 26.7505C229.202 26.5585 228.466 26.3665 227.89 26.1745C227.33 25.9665 226.85 25.6465 226.45 25.2145C226.05 24.7665 225.85 24.1665 225.85 23.4145C225.85 22.5825 226.082 21.8545 226.546 21.2305C227.026 20.6065 227.698 20.1265 228.562 19.7905C229.442 19.4545 230.458 19.2865 231.61 19.2865C232.458 19.2865 233.282 19.3905 234.082 19.5985C234.882 19.8065 235.538 20.0865 236.05 20.4385L235.138 22.2625C234.642 21.9265 234.066 21.6785 233.41 21.5185C232.754 21.3425 232.082 21.2545 231.394 21.2545C230.354 21.2545 229.554 21.4305 228.994 21.7825C228.434 22.1185 228.154 22.5745 228.154 23.1505C228.154 23.6625 228.386 24.0305 228.85 24.2545C229.314 24.4625 230.034 24.6705 231.01 24.8785C231.89 25.0705 232.61 25.2625 233.17 25.4545C233.73 25.6465 234.202 25.9585 234.586 26.3905C234.986 26.8225 235.186 27.4065 235.186 28.1425C235.186 29.4385 234.65 30.4545 233.578 31.1905C232.522 31.9105 231.114 32.2705 229.354 32.2705Z" fill="#202020"/>
<circle cx="323.242" cy="24.2425" r="24.2425" fill="#99CC99"/>
<path d="M315.304 30.8203C314.5 30.8203 313.756 30.6643 313.072 30.3523C312.4 30.0283 311.848 29.5783 311.416 29.0023L312.748 27.4003C313.444 28.3603 314.278 28.8403 315.25 28.8403C316.558 28.8403 317.212 28.0663 317.212 26.5183V20.0023H312.73V18.0403H319.552V26.3923C319.552 27.8683 319.192 28.9783 318.472 29.7223C317.752 30.4543 316.696 30.8203 315.304 30.8203ZM331.762 24.0883C332.458 24.3163 333.01 24.7003 333.418 25.2403C333.826 25.7683 334.03 26.4283 334.03 27.2203C334.03 28.3123 333.61 29.1583 332.77 29.7583C331.93 30.3463 330.706 30.6403 329.098 30.6403H322.834V18.0403H328.738C330.226 18.0403 331.372 18.3343 332.176 18.9223C332.98 19.4983 333.382 20.2963 333.382 21.3163C333.382 21.9403 333.238 22.4923 332.95 22.9723C332.662 23.4523 332.266 23.8243 331.762 24.0883ZM325.174 19.8763V23.3503H328.486C329.302 23.3503 329.926 23.2063 330.358 22.9183C330.802 22.6183 331.024 22.1863 331.024 21.6223C331.024 21.0463 330.802 20.6143 330.358 20.3263C329.926 20.0263 329.302 19.8763 328.486 19.8763H325.174ZM328.954 28.8043C330.766 28.8043 331.672 28.1983 331.672 26.9863C331.672 25.7743 330.766 25.1683 328.954 25.1683H325.174V28.8043H328.954Z" fill="#202020"/>
<circle cx="286.242" cy="24.2425" r="24.2425" fill="#E06B65"/>
<path d="M281 30.6403L278.426 26.9503C278.318 26.9623 278.156 26.9683 277.94 26.9683H275.096V30.6403H272.756V18.0403H277.94C279.032 18.0403 279.98 18.2203 280.784 18.5803C281.6 18.9403 282.224 19.4563 282.656 20.1283C283.088 20.8003 283.304 21.5983 283.304 22.5223C283.304 23.4703 283.07 24.2863 282.602 24.9703C282.146 25.6543 281.486 26.1643 280.622 26.5003L283.52 30.6403H281ZM280.946 22.5223C280.946 21.7183 280.682 21.1003 280.154 20.6683C279.626 20.2363 278.852 20.0203 277.832 20.0203H275.096V25.0423H277.832C278.852 25.0423 279.626 24.8263 280.154 24.3943C280.682 23.9503 280.946 23.3263 280.946 22.5223ZM297.496 30.6403L297.478 22.2883L293.338 29.2003H292.294L288.154 22.3963V30.6403H285.922V18.0403H287.848L292.852 26.3923L297.766 18.0403H299.692L299.71 30.6403H297.496Z" fill="#202020"/>
</svg>
