<svg width="378" height="49" viewBox="0 0 378 49" fill="none" xmlns="http://www.w3.org/2000/svg">
<rect y="28" width="269" height="20" rx="10" fill="#E95633" fill-opacity="0.6"/>
<path d="M17.752 16.832L12.232 22.304C13.576 22.48 14.608 22.944 15.328 23.696C16.048 24.432 16.408 25.392 16.408 26.576C16.408 27.664 16.112 28.632 15.52 29.48C14.928 30.328 14.088 30.992 13 31.472C11.912 31.952 10.664 32.192 9.256 32.192C7.992 32.192 6.84 32.008 5.8 31.64C4.776 31.256 3.968 30.736 3.376 30.08L4.624 28.232C5.104 28.776 5.76 29.216 6.592 29.552C7.44 29.888 8.376 30.056 9.4 30.056C10.856 30.056 11.984 29.76 12.784 29.168C13.6 28.56 14.008 27.736 14.008 26.696C14.008 25 12.776 24.152 10.312 24.152H9.04L9.376 22.472L14.584 17.288H6.544L6.976 15.2H18.064L17.752 16.832ZM22.3424 15.2H28.9184C30.5984 15.2 32.0384 15.488 33.2384 16.064C34.4544 16.624 35.3744 17.424 35.9984 18.464C36.6384 19.488 36.9584 20.696 36.9584 22.088C36.9584 24.04 36.5184 25.768 35.6384 27.272C34.7744 28.776 33.5504 29.944 31.9664 30.776C30.3984 31.592 28.5744 32 26.4944 32H18.9824L22.3424 15.2ZM26.5664 29.912C28.1824 29.912 29.5904 29.584 30.7904 28.928C31.9904 28.272 32.9104 27.368 33.5504 26.216C34.2064 25.048 34.5344 23.72 34.5344 22.232C34.5344 20.68 34.0384 19.472 33.0464 18.608C32.0544 17.728 30.5984 17.288 28.6784 17.288H24.3104L21.7904 29.912H26.5664ZM66.4958 15.2L63.1358 32H60.8318L63.2798 19.856L55.3358 29.96H54.2318L50.0318 19.616L47.5598 32H45.2558L48.6158 15.2H50.5598L55.2398 27.032L64.4318 15.2H66.4958ZM73.8177 32.144C72.6177 32.144 71.5697 31.92 70.6737 31.472C69.7777 31.008 69.0817 30.36 68.5857 29.528C68.0897 28.696 67.8417 27.736 67.8417 26.648C67.8417 25.224 68.1617 23.944 68.8017 22.808C69.4417 21.672 70.3297 20.784 71.4657 20.144C72.6017 19.488 73.8817 19.16 75.3057 19.16C76.5057 19.16 77.5537 19.384 78.4497 19.832C79.3457 20.28 80.0337 20.92 80.5137 21.752C81.0097 22.568 81.2577 23.528 81.2577 24.632C81.2577 26.056 80.9377 27.344 80.2977 28.496C79.6577 29.632 78.7697 30.528 77.6337 31.184C76.5137 31.824 75.2417 32.144 73.8177 32.144ZM73.9617 30.128C74.9057 30.128 75.7537 29.904 76.5057 29.456C77.2737 28.992 77.8657 28.352 78.2817 27.536C78.7137 26.72 78.9297 25.792 78.9297 24.752C78.9297 23.616 78.6017 22.736 77.9457 22.112C77.2897 21.488 76.3537 21.176 75.1377 21.176C74.1937 21.176 73.3457 21.408 72.5937 21.872C71.8417 22.32 71.2497 22.952 70.8177 23.768C70.3857 24.584 70.1697 25.512 70.1697 26.552C70.1697 27.672 70.4977 28.552 71.1537 29.192C71.8257 29.816 72.7617 30.128 73.9617 30.128ZM98.6281 14.192L95.0761 32H92.8681L93.1801 30.44C92.6041 30.984 91.9321 31.408 91.1641 31.712C90.4121 32 89.5881 32.144 88.6921 32.144C87.6041 32.144 86.6361 31.928 85.7881 31.496C84.9401 31.048 84.2761 30.408 83.7961 29.576C83.3161 28.744 83.0761 27.768 83.0761 26.648C83.0761 25.208 83.3881 23.92 84.0121 22.784C84.6361 21.648 85.4921 20.76 86.5801 20.12C87.6841 19.48 88.9161 19.16 90.2761 19.16C91.3641 19.16 92.3001 19.36 93.0841 19.76C93.8841 20.144 94.4841 20.712 94.8841 21.464L96.3241 14.192H98.6281ZM89.1961 30.128C90.1401 30.128 90.9881 29.904 91.7401 29.456C92.5081 28.992 93.1001 28.352 93.5161 27.536C93.9481 26.72 94.1641 25.792 94.1641 24.752C94.1641 23.616 93.8361 22.736 93.1801 22.112C92.5241 21.488 91.5881 21.176 90.3721 21.176C89.4281 21.176 88.5801 21.408 87.8281 21.872C87.0761 22.32 86.4841 22.952 86.0521 23.768C85.6201 24.584 85.4041 25.512 85.4041 26.552C85.4041 27.672 85.7321 28.552 86.3881 29.192C87.0601 29.816 87.9961 30.128 89.1961 30.128ZM101.691 26.36V26.504C101.691 27.688 102.027 28.592 102.699 29.216C103.371 29.824 104.379 30.128 105.723 30.128C106.507 30.128 107.243 30 107.931 29.744C108.619 29.472 109.195 29.112 109.659 28.664L110.643 30.32C110.019 30.896 109.259 31.344 108.363 31.664C107.467 31.984 106.523 32.144 105.531 32.144C104.283 32.144 103.203 31.92 102.291 31.472C101.379 31.024 100.675 30.384 100.179 29.552C99.6834 28.72 99.4354 27.744 99.4354 26.624C99.4354 25.2 99.7394 23.92 100.347 22.784C100.971 21.648 101.827 20.76 102.915 20.12C104.019 19.48 105.251 19.16 106.611 19.16C108.339 19.16 109.715 19.656 110.739 20.648C111.779 21.624 112.299 22.96 112.299 24.656C112.299 25.168 112.243 25.736 112.131 26.36H101.691ZM106.515 21.08C105.379 21.08 104.403 21.4 103.587 22.04C102.771 22.68 102.219 23.56 101.931 24.68H110.139C110.203 23.544 109.899 22.664 109.227 22.04C108.571 21.4 107.667 21.08 106.515 21.08ZM117.683 14.192H119.987L116.435 32H114.131L117.683 14.192ZM132.92 17.288L131.744 23.144H140.192L139.784 25.208H131.336L129.992 32H127.592L130.952 15.2H142.808L142.4 17.288H132.92ZM156.612 19.28L154.092 32H151.884L152.196 30.44C151.62 30.984 150.948 31.408 150.18 31.712C149.428 32 148.604 32.144 147.708 32.144C146.62 32.144 145.652 31.928 144.804 31.496C143.956 31.048 143.292 30.408 142.812 29.576C142.332 28.744 142.092 27.768 142.092 26.648C142.092 25.208 142.404 23.92 143.028 22.784C143.652 21.648 144.508 20.76 145.596 20.12C146.7 19.48 147.932 19.16 149.292 19.16C150.38 19.16 151.308 19.352 152.076 19.736C152.86 20.12 153.46 20.688 153.876 21.44L154.308 19.28H156.612ZM148.212 30.128C149.156 30.128 150.004 29.904 150.756 29.456C151.524 28.992 152.116 28.352 152.532 27.536C152.964 26.72 153.18 25.792 153.18 24.752C153.18 23.616 152.852 22.736 152.196 22.112C151.54 21.488 150.604 21.176 149.388 21.176C148.444 21.176 147.596 21.408 146.844 21.872C146.092 22.32 145.5 22.952 145.068 23.768C144.636 24.584 144.42 25.512 144.42 26.552C144.42 27.672 144.748 28.552 145.404 29.192C146.076 29.816 147.012 30.128 148.212 30.128ZM167.379 19.16C168.467 19.16 169.435 19.384 170.283 19.832C171.131 20.264 171.795 20.896 172.275 21.728C172.755 22.544 172.995 23.512 172.995 24.632C172.995 26.072 172.683 27.36 172.059 28.496C171.435 29.632 170.571 30.528 169.467 31.184C168.379 31.824 167.155 32.144 165.795 32.144C164.675 32.144 163.715 31.936 162.915 31.52C162.131 31.104 161.539 30.496 161.139 29.696L160.659 32H158.475L162.027 14.192H164.331L163.011 20.744C164.195 19.688 165.651 19.16 167.379 19.16ZM165.699 30.128C166.643 30.128 167.491 29.904 168.243 29.456C168.995 28.992 169.587 28.352 170.019 27.536C170.451 26.72 170.667 25.792 170.667 24.752C170.667 23.616 170.339 22.736 169.683 22.112C169.027 21.488 168.091 21.176 166.875 21.176C165.931 21.176 165.075 21.408 164.307 21.872C163.555 22.32 162.963 22.952 162.531 23.768C162.115 24.584 161.907 25.512 161.907 26.552C161.907 27.672 162.235 28.552 162.891 29.192C163.563 29.816 164.499 30.128 165.699 30.128ZM179.202 21.176C179.762 20.472 180.45 19.96 181.266 19.64C182.082 19.32 183.074 19.16 184.242 19.16L183.81 21.392C183.666 21.376 183.466 21.368 183.21 21.368C180.57 21.368 178.97 22.792 178.41 25.64L177.138 32H174.834L177.354 19.28H179.562L179.202 21.176ZM187.034 19.28H189.338L186.818 32H184.514L187.034 19.28ZM188.858 16.832C188.442 16.832 188.098 16.696 187.826 16.424C187.554 16.152 187.418 15.824 187.418 15.44C187.418 14.992 187.57 14.616 187.874 14.312C188.194 13.992 188.594 13.832 189.074 13.832C189.49 13.832 189.834 13.968 190.106 14.24C190.394 14.496 190.538 14.808 190.538 15.176C190.538 15.672 190.378 16.072 190.058 16.376C189.754 16.68 189.354 16.832 188.858 16.832ZM197.241 32.144C196.025 32.144 194.961 31.92 194.049 31.472C193.137 31.008 192.433 30.368 191.937 29.552C191.441 28.72 191.193 27.752 191.193 26.648C191.193 25.224 191.513 23.944 192.153 22.808C192.793 21.672 193.681 20.784 194.817 20.144C195.953 19.488 197.241 19.16 198.681 19.16C201.193 19.16 202.937 20.08 203.913 21.92L201.969 23C201.297 21.784 200.145 21.176 198.513 21.176C197.569 21.176 196.713 21.408 195.945 21.872C195.193 22.32 194.601 22.952 194.169 23.768C193.737 24.584 193.521 25.512 193.521 26.552C193.521 27.672 193.849 28.552 194.505 29.192C195.177 29.816 196.121 30.128 197.337 30.128C198.105 30.128 198.817 29.976 199.473 29.672C200.145 29.368 200.697 28.92 201.129 28.328L202.809 29.528C202.217 30.344 201.425 30.984 200.433 31.448C199.441 31.912 198.377 32.144 197.241 32.144ZM219.237 19.28L216.717 32H214.509L214.821 30.44C214.245 30.984 213.573 31.408 212.805 31.712C212.053 32 211.229 32.144 210.333 32.144C209.245 32.144 208.277 31.928 207.429 31.496C206.581 31.048 205.917 30.408 205.437 29.576C204.957 28.744 204.717 27.768 204.717 26.648C204.717 25.208 205.029 23.92 205.653 22.784C206.277 21.648 207.133 20.76 208.221 20.12C209.325 19.48 210.557 19.16 211.917 19.16C213.005 19.16 213.933 19.352 214.701 19.736C215.485 20.12 216.085 20.688 216.501 21.44L216.933 19.28H219.237ZM210.837 30.128C211.781 30.128 212.629 29.904 213.381 29.456C214.149 28.992 214.741 28.352 215.157 27.536C215.589 26.72 215.805 25.792 215.805 24.752C215.805 23.616 215.477 22.736 214.821 22.112C214.165 21.488 213.229 21.176 212.013 21.176C211.069 21.176 210.221 21.408 209.469 21.872C208.717 22.32 208.125 22.952 207.693 23.768C207.261 24.584 207.045 25.512 207.045 26.552C207.045 27.672 207.373 28.552 208.029 29.192C208.701 29.816 209.637 30.128 210.837 30.128ZM224.508 27.944C224.46 28.184 224.436 28.408 224.436 28.616C224.436 29.128 224.572 29.52 224.844 29.792C225.132 30.064 225.556 30.2 226.116 30.2C226.788 30.2 227.396 30 227.94 29.6L228.42 31.352C227.652 31.88 226.668 32.144 225.468 32.144C224.46 32.144 223.644 31.864 223.02 31.304C222.412 30.728 222.108 29.944 222.108 28.952C222.108 28.616 222.14 28.296 222.204 27.992L223.572 21.176H221.412L221.772 19.28H223.956L224.508 16.496H226.812L226.26 19.28H229.908L229.524 21.176H225.876L224.508 27.944ZM233.558 19.28H235.862L233.342 32H231.038L233.558 19.28ZM235.382 16.832C234.966 16.832 234.622 16.696 234.35 16.424C234.078 16.152 233.942 15.824 233.942 15.44C233.942 14.992 234.094 14.616 234.398 14.312C234.718 13.992 235.118 13.832 235.598 13.832C236.014 13.832 236.358 13.968 236.63 14.24C236.918 14.496 237.062 14.808 237.062 15.176C237.062 15.672 236.902 16.072 236.582 16.376C236.278 16.68 235.878 16.832 235.382 16.832ZM243.693 32.144C242.493 32.144 241.445 31.92 240.549 31.472C239.653 31.008 238.957 30.36 238.461 29.528C237.965 28.696 237.717 27.736 237.717 26.648C237.717 25.224 238.037 23.944 238.677 22.808C239.317 21.672 240.205 20.784 241.341 20.144C242.477 19.488 243.757 19.16 245.181 19.16C246.381 19.16 247.429 19.384 248.325 19.832C249.221 20.28 249.909 20.92 250.389 21.752C250.885 22.568 251.133 23.528 251.133 24.632C251.133 26.056 250.813 27.344 250.173 28.496C249.533 29.632 248.645 30.528 247.509 31.184C246.389 31.824 245.117 32.144 243.693 32.144ZM243.837 30.128C244.781 30.128 245.629 29.904 246.381 29.456C247.149 28.992 247.741 28.352 248.157 27.536C248.589 26.72 248.805 25.792 248.805 24.752C248.805 23.616 248.477 22.736 247.821 22.112C247.165 21.488 246.229 21.176 245.013 21.176C244.069 21.176 243.221 21.408 242.469 21.872C241.717 22.32 241.125 22.952 240.693 23.768C240.261 24.584 240.045 25.512 240.045 26.552C240.045 27.672 240.373 28.552 241.029 29.192C241.701 29.816 242.637 30.128 243.837 30.128ZM261.999 19.16C263.455 19.16 264.583 19.528 265.383 20.264C266.199 21 266.607 22.04 266.607 23.384C266.607 23.848 266.559 24.344 266.463 24.872L265.047 32H262.743L264.159 24.872C264.239 24.44 264.279 24.088 264.279 23.816C264.279 22.984 264.031 22.344 263.535 21.896C263.039 21.448 262.303 21.224 261.327 21.224C260.079 21.224 259.047 21.568 258.231 22.256C257.431 22.928 256.895 23.936 256.623 25.28L255.279 32H252.975L255.495 19.28H257.703L257.391 20.912C258.543 19.744 260.079 19.16 261.999 19.16Z" fill="#202020"/>
<circle cx="353.242" cy="24.2425" r="24.2425" fill="#99CC99"/>
<path d="M345.304 30.8201C344.5 30.8201 343.756 30.6641 343.072 30.3521C342.4 30.0281 341.848 29.5781 341.416 29.0021L342.748 27.4001C343.444 28.3601 344.278 28.8401 345.25 28.8401C346.558 28.8401 347.212 28.0661 347.212 26.5181V20.0021H342.73V18.0401H349.552V26.3921C349.552 27.8681 349.192 28.9781 348.472 29.7221C347.752 30.4541 346.696 30.8201 345.304 30.8201ZM361.762 24.0881C362.458 24.3161 363.01 24.7001 363.418 25.2401C363.826 25.7681 364.03 26.4281 364.03 27.2201C364.03 28.3121 363.61 29.1581 362.77 29.7581C361.93 30.3461 360.706 30.6401 359.098 30.6401H352.834V18.0401H358.738C360.226 18.0401 361.372 18.3341 362.176 18.9221C362.98 19.4981 363.382 20.2961 363.382 21.3161C363.382 21.9401 363.238 22.4921 362.95 22.9721C362.662 23.4521 362.266 23.8241 361.762 24.0881ZM355.174 19.8761V23.3501H358.486C359.302 23.3501 359.926 23.2061 360.358 22.9181C360.802 22.6181 361.024 22.1861 361.024 21.6221C361.024 21.0461 360.802 20.6141 360.358 20.3261C359.926 20.0261 359.302 19.8761 358.486 19.8761H355.174ZM358.954 28.8041C360.766 28.8041 361.672 28.1981 361.672 26.9861C361.672 25.7741 360.766 25.1681 358.954 25.1681H355.174V28.8041H358.954Z" fill="#202020"/>
<circle cx="316.242" cy="24.2425" r="24.2425" fill="#FFFF99"/>
<path d="M312.079 27.7241H305.779L304.537 30.6401H302.125L307.795 18.0401H310.099L315.787 30.6401H313.339L312.079 27.7241ZM311.305 25.8881L308.929 20.3801L306.571 25.8881H311.305ZM328.586 18.0401V30.6401H326.66L319.712 22.1081V30.6401H317.39V18.0401H319.316L326.264 26.5721V18.0401H328.586Z" fill="#202020"/>
</svg>
