<svg width="357" height="49" viewBox="0 0 357 49" fill="none" xmlns="http://www.w3.org/2000/svg">
<rect x="0.000976562" y="28" width="246" height="20" rx="10" fill="#E95633" fill-opacity="0.6"/>
<path d="M15.0107 32.192C13.3467 32.192 11.9147 31.896 10.7147 31.304C9.51469 30.712 8.59469 29.888 7.95469 28.832C7.31469 27.76 6.99469 26.52 6.99469 25.112C6.99469 23.24 7.41869 21.536 8.26669 20C9.11469 18.464 10.3147 17.248 11.8667 16.352C13.4347 15.456 15.2427 15.008 17.2907 15.008C18.6827 15.008 19.9147 15.24 20.9867 15.704C22.0587 16.152 22.8827 16.792 23.4587 17.624L21.7307 19.112C20.7227 17.8 19.1867 17.144 17.1227 17.144C15.5707 17.144 14.2107 17.496 13.0427 18.2C11.8747 18.904 10.9707 19.856 10.3307 21.056C9.70669 22.24 9.39469 23.544 9.39469 24.968C9.39469 26.52 9.89069 27.76 10.8827 28.688C11.8907 29.6 13.3227 30.056 15.1787 30.056C17.2427 30.056 18.9387 29.392 20.2667 28.064L21.6587 29.648C20.8907 30.48 19.9307 31.112 18.7787 31.544C17.6427 31.976 16.3867 32.192 15.0107 32.192ZM29.2474 32.144C28.0474 32.144 26.9994 31.92 26.1034 31.472C25.2074 31.008 24.5114 30.36 24.0154 29.528C23.5194 28.696 23.2714 27.736 23.2714 26.648C23.2714 25.224 23.5914 23.944 24.2314 22.808C24.8714 21.672 25.7594 20.784 26.8954 20.144C28.0314 19.488 29.3114 19.16 30.7354 19.16C31.9354 19.16 32.9834 19.384 33.8794 19.832C34.7754 20.28 35.4634 20.92 35.9434 21.752C36.4394 22.568 36.6874 23.528 36.6874 24.632C36.6874 26.056 36.3674 27.344 35.7274 28.496C35.0874 29.632 34.1994 30.528 33.0634 31.184C31.9434 31.824 30.6714 32.144 29.2474 32.144ZM29.3914 30.128C30.3354 30.128 31.1834 29.904 31.9354 29.456C32.7034 28.992 33.2954 28.352 33.7114 27.536C34.1434 26.72 34.3594 25.792 34.3594 24.752C34.3594 23.616 34.0314 22.736 33.3754 22.112C32.7194 21.488 31.7834 21.176 30.5674 21.176C29.6234 21.176 28.7754 21.408 28.0234 21.872C27.2714 22.32 26.6794 22.952 26.2474 23.768C25.8154 24.584 25.5994 25.512 25.5994 26.552C25.5994 27.672 25.9274 28.552 26.5834 29.192C27.2554 29.816 28.1914 30.128 29.3914 30.128ZM56.6258 19.16C58.0658 19.16 59.1858 19.528 59.9858 20.264C60.8018 20.984 61.2098 22.016 61.2098 23.36C61.2098 23.728 61.1538 24.232 61.0418 24.872L59.6258 32H57.3218L58.7378 24.872C58.8178 24.424 58.8578 24.056 58.8578 23.768C58.8578 22.936 58.6258 22.304 58.1618 21.872C57.6978 21.44 56.9938 21.224 56.0498 21.224C54.8658 21.224 53.8898 21.56 53.1218 22.232C52.3698 22.888 51.8578 23.88 51.5858 25.208L50.2178 32H47.9138L49.3538 24.872C49.4338 24.44 49.4738 24.08 49.4738 23.792C49.4738 22.96 49.2338 22.328 48.7538 21.896C48.2898 21.448 47.5858 21.224 46.6418 21.224C45.4578 21.224 44.4818 21.56 43.7138 22.232C42.9618 22.904 42.4498 23.92 42.1778 25.28L40.8338 32H38.5298L41.0498 19.28H43.2578L42.9458 20.864C44.0658 19.728 45.5378 19.16 47.3618 19.16C48.3538 19.16 49.2018 19.352 49.9058 19.736C50.6098 20.12 51.1218 20.68 51.4418 21.416C52.7378 19.912 54.4658 19.16 56.6258 19.16ZM81.9851 19.16C83.4251 19.16 84.5451 19.528 85.3451 20.264C86.1611 20.984 86.5691 22.016 86.5691 23.36C86.5691 23.728 86.5131 24.232 86.4011 24.872L84.9851 32H82.6811L84.0971 24.872C84.1771 24.424 84.2171 24.056 84.2171 23.768C84.2171 22.936 83.9851 22.304 83.5211 21.872C83.0571 21.44 82.3531 21.224 81.4091 21.224C80.2251 21.224 79.2491 21.56 78.4811 22.232C77.7291 22.888 77.2171 23.88 76.9451 25.208L75.5771 32H73.2731L74.7131 24.872C74.7931 24.44 74.8331 24.08 74.8331 23.792C74.8331 22.96 74.5931 22.328 74.1131 21.896C73.6491 21.448 72.9451 21.224 72.0011 21.224C70.8171 21.224 69.8411 21.56 69.0731 22.232C68.3211 22.904 67.8091 23.92 67.5371 25.28L66.1931 32H63.8891L66.4091 19.28H68.6171L68.3051 20.864C69.4251 19.728 70.8971 19.16 72.7211 19.16C73.7131 19.16 74.5611 19.352 75.2651 19.736C75.9691 20.12 76.4811 20.68 76.8011 21.416C78.0971 19.912 79.8251 19.16 81.9851 19.16ZM103.625 19.28L101.105 32H98.8965L99.2085 30.368C98.6325 30.96 97.9525 31.408 97.1685 31.712C96.4005 32 95.5605 32.144 94.6485 32.144C93.2405 32.144 92.1285 31.768 91.3125 31.016C90.4965 30.264 90.0885 29.216 90.0885 27.872C90.0885 27.424 90.1365 26.936 90.2325 26.408L91.6485 19.28H93.9525L92.5365 26.432C92.4565 26.864 92.4165 27.224 92.4165 27.512C92.4165 28.344 92.6565 28.984 93.1365 29.432C93.6325 29.864 94.3605 30.08 95.3205 30.08C96.5365 30.08 97.5445 29.736 98.3445 29.048C99.1605 28.36 99.7045 27.352 99.9765 26.024L101.321 19.28H103.625ZM114.515 19.16C115.971 19.16 117.099 19.528 117.899 20.264C118.715 21 119.123 22.04 119.123 23.384C119.123 23.848 119.075 24.344 118.979 24.872L117.563 32H115.259L116.675 24.872C116.755 24.44 116.795 24.088 116.795 23.816C116.795 22.984 116.547 22.344 116.051 21.896C115.555 21.448 114.819 21.224 113.843 21.224C112.595 21.224 111.563 21.568 110.747 22.256C109.947 22.928 109.411 23.936 109.139 25.28L107.795 32H105.491L108.011 19.28H110.219L109.907 20.912C111.059 19.744 112.595 19.16 114.515 19.16ZM124.347 19.28H126.651L124.131 32H121.827L124.347 19.28ZM126.171 16.832C125.755 16.832 125.411 16.696 125.139 16.424C124.867 16.152 124.731 15.824 124.731 15.44C124.731 14.992 124.883 14.616 125.187 14.312C125.507 13.992 125.907 13.832 126.387 13.832C126.803 13.832 127.147 13.968 127.419 14.24C127.707 14.496 127.851 14.808 127.851 15.176C127.851 15.672 127.691 16.072 127.371 16.376C127.067 16.68 126.667 16.832 126.171 16.832ZM131.938 27.944C131.89 28.184 131.866 28.408 131.866 28.616C131.866 29.128 132.002 29.52 132.274 29.792C132.562 30.064 132.986 30.2 133.546 30.2C134.218 30.2 134.826 30 135.37 29.6L135.85 31.352C135.082 31.88 134.098 32.144 132.898 32.144C131.89 32.144 131.074 31.864 130.45 31.304C129.842 30.728 129.538 29.944 129.538 28.952C129.538 28.616 129.57 28.296 129.634 27.992L131.002 21.176H128.842L129.202 19.28H131.386L131.938 16.496H134.242L133.69 19.28H137.338L136.954 21.176H133.306L131.938 27.944ZM152.009 19.28L142.985 33.392C142.169 34.672 141.393 35.56 140.657 36.056C139.921 36.552 139.049 36.8 138.041 36.8C137.417 36.8 136.809 36.696 136.217 36.488C135.625 36.296 135.169 36.024 134.849 35.672L136.049 33.968C136.625 34.544 137.345 34.832 138.209 34.832C138.753 34.832 139.233 34.688 139.649 34.4C140.065 34.112 140.497 33.624 140.945 32.936L141.593 31.928L138.521 19.28H140.825L143.273 29.456L149.681 19.28H152.009ZM161.756 15.2H164.156L161.204 29.912H170.324L169.916 32H158.396L161.756 15.2ZM186.666 19.28L184.146 32H181.938L182.25 30.44C181.674 30.984 181.002 31.408 180.234 31.712C179.482 32 178.658 32.144 177.762 32.144C176.674 32.144 175.706 31.928 174.858 31.496C174.01 31.048 173.346 30.408 172.866 29.576C172.386 28.744 172.146 27.768 172.146 26.648C172.146 25.208 172.458 23.92 173.082 22.784C173.706 21.648 174.562 20.76 175.65 20.12C176.754 19.48 177.986 19.16 179.346 19.16C180.434 19.16 181.362 19.352 182.13 19.736C182.914 20.12 183.514 20.688 183.93 21.44L184.362 19.28H186.666ZM178.266 30.128C179.21 30.128 180.058 29.904 180.81 29.456C181.578 28.992 182.17 28.352 182.586 27.536C183.018 26.72 183.234 25.792 183.234 24.752C183.234 23.616 182.906 22.736 182.25 22.112C181.594 21.488 180.658 21.176 179.442 21.176C178.498 21.176 177.65 21.408 176.898 21.872C176.146 22.32 175.554 22.952 175.122 23.768C174.69 24.584 174.474 25.512 174.474 26.552C174.474 27.672 174.802 28.552 175.458 29.192C176.13 29.816 177.066 30.128 178.266 30.128ZM202.306 19.28L193.282 33.392C192.466 34.672 191.69 35.56 190.954 36.056C190.218 36.552 189.346 36.8 188.338 36.8C187.714 36.8 187.106 36.696 186.514 36.488C185.922 36.296 185.466 36.024 185.146 35.672L186.346 33.968C186.922 34.544 187.642 34.832 188.506 34.832C189.05 34.832 189.53 34.688 189.946 34.4C190.362 34.112 190.794 33.624 191.242 32.936L191.89 31.928L188.818 19.28H191.122L193.57 29.456L199.978 19.28H202.306ZM207.536 32.144C206.336 32.144 205.288 31.92 204.392 31.472C203.496 31.008 202.8 30.36 202.304 29.528C201.808 28.696 201.56 27.736 201.56 26.648C201.56 25.224 201.88 23.944 202.52 22.808C203.16 21.672 204.048 20.784 205.184 20.144C206.32 19.488 207.6 19.16 209.024 19.16C210.224 19.16 211.272 19.384 212.168 19.832C213.064 20.28 213.752 20.92 214.232 21.752C214.728 22.568 214.976 23.528 214.976 24.632C214.976 26.056 214.656 27.344 214.016 28.496C213.376 29.632 212.488 30.528 211.352 31.184C210.232 31.824 208.96 32.144 207.536 32.144ZM207.68 30.128C208.624 30.128 209.472 29.904 210.224 29.456C210.992 28.992 211.584 28.352 212 27.536C212.432 26.72 212.648 25.792 212.648 24.752C212.648 23.616 212.32 22.736 211.664 22.112C211.008 21.488 210.072 21.176 208.856 21.176C207.912 21.176 207.064 21.408 206.312 21.872C205.56 22.32 204.968 22.952 204.536 23.768C204.104 24.584 203.888 25.512 203.888 26.552C203.888 27.672 204.216 28.552 204.872 29.192C205.544 29.816 206.48 30.128 207.68 30.128ZM231.195 19.28L228.675 32H226.467L226.779 30.368C226.203 30.96 225.523 31.408 224.739 31.712C223.971 32 223.131 32.144 222.219 32.144C220.811 32.144 219.699 31.768 218.883 31.016C218.067 30.264 217.659 29.216 217.659 27.872C217.659 27.424 217.707 26.936 217.803 26.408L219.219 19.28H221.523L220.107 26.432C220.027 26.864 219.987 27.224 219.987 27.512C219.987 28.344 220.227 28.984 220.707 29.432C221.203 29.864 221.931 30.08 222.891 30.08C224.107 30.08 225.115 29.736 225.915 29.048C226.731 28.36 227.275 27.352 227.547 26.024L228.891 19.28H231.195ZM236.469 27.944C236.421 28.184 236.397 28.408 236.397 28.616C236.397 29.128 236.533 29.52 236.805 29.792C237.093 30.064 237.517 30.2 238.077 30.2C238.749 30.2 239.357 30 239.901 29.6L240.381 31.352C239.613 31.88 238.629 32.144 237.429 32.144C236.421 32.144 235.605 31.864 234.981 31.304C234.373 30.728 234.069 29.944 234.069 28.952C234.069 28.616 234.101 28.296 234.165 27.992L235.533 21.176H233.373L233.733 19.28H235.917L236.469 16.496H238.773L238.221 19.28H241.869L241.485 21.176H237.837L236.469 27.944Z" fill="#202020"/>
<circle cx="332.242" cy="24.2425" r="23.2425" fill="white" stroke="#C4C4C4" stroke-width="2"/>
<path d="M328.914 27.7241H322.614L321.372 30.6401H318.96L324.63 18.0401H326.934L332.622 30.6401H330.174L328.914 27.7241ZM328.14 25.8881L325.764 20.3801L323.406 25.8881H328.14ZM339.881 30.8201C338.609 30.8201 337.457 30.5441 336.425 29.9921C335.405 29.4281 334.601 28.6541 334.013 27.6701C333.437 26.6861 333.149 25.5761 333.149 24.3401C333.149 23.1041 333.443 21.9941 334.031 21.0101C334.619 20.0261 335.423 19.2581 336.443 18.7061C337.475 18.1421 338.627 17.8601 339.899 17.8601C340.931 17.8601 341.873 18.0401 342.725 18.4001C343.577 18.7601 344.297 19.2821 344.885 19.9661L343.373 21.3881C342.461 20.4041 341.339 19.9121 340.007 19.9121C339.143 19.9121 338.369 20.1041 337.685 20.4881C337.001 20.8601 336.467 21.3821 336.083 22.0541C335.699 22.7261 335.507 23.4881 335.507 24.3401C335.507 25.1921 335.699 25.9541 336.083 26.6261C336.467 27.2981 337.001 27.8261 337.685 28.2101C338.369 28.5821 339.143 28.7681 340.007 28.7681C341.339 28.7681 342.461 28.2701 343.373 27.2741L344.885 28.7141C344.297 29.3981 343.571 29.9201 342.707 30.2801C341.855 30.6401 340.913 30.8201 339.881 30.8201Z" fill="#202020"/>
<circle cx="295.242" cy="24.2425" r="24.2425" fill="#99CCFF"/>
<path d="M288.183 30.8201C287.379 30.8201 286.635 30.6641 285.951 30.3521C285.279 30.0281 284.727 29.5781 284.295 29.0021L285.627 27.4001C286.323 28.3601 287.157 28.8401 288.129 28.8401C289.437 28.8401 290.091 28.0661 290.091 26.5181V20.0021H285.609V18.0401H292.431V26.3921C292.431 27.8681 292.071 28.9781 291.351 29.7221C290.631 30.4541 289.575 30.8201 288.183 30.8201ZM305.505 28.6601V30.6401H294.759V29.0741L302.175 20.0201H294.885V18.0401H305.271V19.6061L297.855 28.6601H305.505Z" fill="#202020"/>
</svg>
