<svg width="86" height="49" viewBox="0 0 86 49" fill="none" xmlns="http://www.w3.org/2000/svg">
<circle cx="61.2425" cy="24.2425" r="24.2425" fill="#99CC99"/>
<path d="M53.304 30.8203C52.5 30.8203 51.756 30.6643 51.072 30.3523C50.4 30.0283 49.848 29.5783 49.416 29.0023L50.748 27.4003C51.444 28.3603 52.278 28.8403 53.25 28.8403C54.558 28.8403 55.212 28.0663 55.212 26.5183V20.0023H50.73V18.0403H57.552V26.3923C57.552 27.8683 57.192 28.9783 56.472 29.7223C55.752 30.4543 54.696 30.8203 53.304 30.8203ZM69.7622 24.0883C70.4582 24.3163 71.0102 24.7003 71.4182 25.2403C71.8262 25.7683 72.0302 26.4283 72.0302 27.2203C72.0302 28.3123 71.6102 29.1583 70.7702 29.7583C69.9302 30.3463 68.7062 30.6403 67.0982 30.6403H60.8342V18.0403H66.7382C68.2262 18.0403 69.3722 18.3343 70.1762 18.9223C70.9802 19.4983 71.3822 20.2963 71.3822 21.3163C71.3822 21.9403 71.2382 22.4923 70.9502 22.9723C70.6622 23.4523 70.2662 23.8243 69.7622 24.0883ZM63.1742 19.8763V23.3503H66.4862C67.3022 23.3503 67.9262 23.2063 68.3582 22.9183C68.8022 22.6183 69.0242 22.1863 69.0242 21.6223C69.0242 21.0463 68.8022 20.6143 68.3582 20.3263C67.9262 20.0263 67.3022 19.8763 66.4862 19.8763H63.1742ZM66.9542 28.8043C68.7662 28.8043 69.6722 28.1983 69.6722 26.9863C69.6722 25.7743 68.7662 25.1683 66.9542 25.1683H63.1742V28.8043H66.9542Z" fill="#202020"/>
<circle cx="24.2425" cy="24.2425" r="24.2425" fill="#E06B65"/>
<path d="M19.0001 30.6403L16.4261 26.9503C16.3181 26.9623 16.1561 26.9683 15.9401 26.9683H13.0961V30.6403H10.7561V18.0403H15.9401C17.0321 18.0403 17.9801 18.2203 18.7841 18.5803C19.6001 18.9403 20.2241 19.4563 20.6561 20.1283C21.0881 20.8003 21.3041 21.5983 21.3041 22.5223C21.3041 23.4703 21.0701 24.2863 20.6021 24.9703C20.1461 25.6543 19.4861 26.1643 18.6221 26.5003L21.5201 30.6403H19.0001ZM18.9461 22.5223C18.9461 21.7183 18.6821 21.1003 18.1541 20.6683C17.6261 20.2363 16.8521 20.0203 15.8321 20.0203H13.0961V25.0423H15.8321C16.8521 25.0423 17.6261 24.8263 18.1541 24.3943C18.6821 23.9503 18.9461 23.3263 18.9461 22.5223ZM35.4961 30.6403L35.4781 22.2883L31.3381 29.2003H30.2941L26.1541 22.3963V30.6403H23.9221V18.0403H25.8481L30.8521 26.3923L35.7661 18.0403H37.6921L37.7101 30.6403H35.4961Z" fill="#202020"/>
</svg>
