<svg width="86" height="49" viewBox="0 0 86 49" fill="none" xmlns="http://www.w3.org/2000/svg">
<circle cx="61.2425" cy="24.2425" r="24.2425" fill="#99CC99"/>
<path d="M53.304 30.8201C52.5 30.8201 51.756 30.6641 51.072 30.3521C50.4 30.0281 49.848 29.5781 49.416 29.0021L50.748 27.4001C51.444 28.3601 52.278 28.8401 53.25 28.8401C54.558 28.8401 55.212 28.0661 55.212 26.5181V20.0021H50.73V18.0401H57.552V26.3921C57.552 27.8681 57.192 28.9781 56.472 29.7221C55.752 30.4541 54.696 30.8201 53.304 30.8201ZM69.7622 24.0881C70.4582 24.3161 71.0102 24.7001 71.4182 25.2401C71.8262 25.7681 72.0302 26.4281 72.0302 27.2201C72.0302 28.3121 71.6102 29.1581 70.7702 29.7581C69.9302 30.3461 68.7062 30.6401 67.0982 30.6401H60.8342V18.0401H66.7382C68.2262 18.0401 69.3722 18.3341 70.1762 18.9221C70.9802 19.4981 71.3822 20.2961 71.3822 21.3161C71.3822 21.9401 71.2382 22.4921 70.9502 22.9721C70.6622 23.4521 70.2662 23.8241 69.7622 24.0881ZM63.1742 19.8761V23.3501H66.4862C67.3022 23.3501 67.9262 23.2061 68.3582 22.9181C68.8022 22.6181 69.0242 22.1861 69.0242 21.6221C69.0242 21.0461 68.8022 20.6141 68.3582 20.3261C67.9262 20.0261 67.3022 19.8761 66.4862 19.8761H63.1742ZM66.9542 28.8041C68.7662 28.8041 69.6722 28.1981 69.6722 26.9861C69.6722 25.7741 68.7662 25.1681 66.9542 25.1681H63.1742V28.8041H66.9542Z" fill="#202020"/>
<circle cx="24.2425" cy="24.2425" r="24.2425" fill="#FFFF99"/>
<path d="M20.0795 27.7241H13.7795L12.5375 30.6401H10.1255L15.7955 18.0401H18.0995L23.7875 30.6401H21.3395L20.0795 27.7241ZM19.3055 25.8881L16.9295 20.3801L14.5715 25.8881H19.3055ZM36.5859 18.0401V30.6401H34.6599L27.7119 22.1081V30.6401H25.3899V18.0401H27.3159L34.2639 26.5721V18.0401H36.5859Z" fill="#202020"/>
</svg>
