<svg width="86" height="49" viewBox="0 0 86 49" fill="none" xmlns="http://www.w3.org/2000/svg">
<circle cx="61.2425" cy="24.2425" r="23.2425" fill="white" stroke="#C4C4C4" stroke-width="2"/>
<path d="M57.9144 27.7241H51.6144L50.3724 30.6401H47.9604L53.6304 18.0401H55.9344L61.6224 30.6401H59.1744L57.9144 27.7241ZM57.1404 25.8881L54.7644 20.3801L52.4064 25.8881H57.1404ZM68.8811 30.8201C67.6091 30.8201 66.4571 30.5441 65.4251 29.9921C64.4051 29.4281 63.6011 28.6541 63.0131 27.6701C62.4371 26.6861 62.1491 25.5761 62.1491 24.3401C62.1491 23.1041 62.4431 21.9941 63.0311 21.0101C63.6191 20.0261 64.4231 19.2581 65.4431 18.7061C66.4751 18.1421 67.6271 17.8601 68.8991 17.8601C69.9311 17.8601 70.8731 18.0401 71.7251 18.4001C72.5771 18.7601 73.2971 19.2821 73.8851 19.9661L72.3731 21.3881C71.4611 20.4041 70.3391 19.9121 69.0071 19.9121C68.1431 19.9121 67.3691 20.1041 66.6851 20.4881C66.0011 20.8601 65.4671 21.3821 65.0831 22.0541C64.6991 22.7261 64.5071 23.4881 64.5071 24.3401C64.5071 25.1921 64.6991 25.9541 65.0831 26.6261C65.4671 27.2981 66.0011 27.8261 66.6851 28.2101C67.3691 28.5821 68.1431 28.7681 69.0071 28.7681C70.3391 28.7681 71.4611 28.2701 72.3731 27.2741L73.8851 28.7141C73.2971 29.3981 72.5711 29.9201 71.7071 30.2801C70.8551 30.6401 69.9131 30.8201 68.8811 30.8201Z" fill="#202020"/>
<circle cx="24.2425" cy="24.2425" r="24.2425" fill="#99CCFF"/>
<path d="M17.1829 30.8201C16.3789 30.8201 15.6349 30.6641 14.9509 30.3521C14.2789 30.0281 13.7269 29.5781 13.2949 29.0021L14.6269 27.4001C15.3229 28.3601 16.1569 28.8401 17.1289 28.8401C18.4369 28.8401 19.0909 28.0661 19.0909 26.5181V20.0021H14.6089V18.0401H21.4309V26.3921C21.4309 27.8681 21.0709 28.9781 20.3509 29.7221C19.6309 30.4541 18.5749 30.8201 17.1829 30.8201ZM34.5051 28.6601V30.6401H23.7591V29.0741L31.1751 20.0201H23.8851V18.0401H34.2711V19.6061L26.8551 28.6601H34.5051Z" fill="#202020"/>
</svg>
