<svg width="79" height="82" viewBox="0 0 79 82" fill="none" xmlns="http://www.w3.org/2000/svg">
<path fill-rule="evenodd" clip-rule="evenodd" d="M39.9408 0.678989C47.6403 0.57802 54.984 3.9122 61.2201 8.94836C67.4636 13.9904 72.0672 20.9479 74.9248 28.9312C77.9459 37.3713 80.6172 46.7932 77.8221 55.3296C75.0605 63.7637 67.2948 68.3483 60.4626 73.1002C54.1088 77.5193 47.4292 81.7221 39.9408 81.6764C32.477 81.6309 25.9694 77.1556 19.5815 72.8508C12.5738 68.1283 4.20986 64.1369 1.26984 55.6157C-1.71448 46.9662 1.07414 37.2284 4.35254 28.7122C7.40231 20.79 12.7071 14.4761 19.0221 9.50174C25.2637 4.58512 32.2992 0.779199 39.9408 0.678989Z" fill="#99CCFF"/>
<path d="M40.0748 13.0055C40.0748 13.0055 26.9048 13.2155 26.6948 31.8555C26.6948 31.8555 19.5948 30.6055 25.6948 39.8555C25.6948 39.8555 26.2848 41.4355 28.1548 39.8555C30.0248 38.2755 26.4048 43.6355 34.9048 49.0155C34.9048 49.0155 35.0248 57.6355 32.9048 59.0155C30.7848 60.3955 44.5248 65.1355 46.7748 59.0155C45.3435 57.2521 44.5882 55.0359 44.6448 52.7655C44.6448 52.7655 54.0848 52.2955 54.1448 36.0255C54.1548 19.8555 49.6548 12.0655 40.0748 13.0055Z" fill="#EAC4AF"/>
<path d="M38.3845 11.4255C38.3845 11.4255 35.5445 9.61548 32.2745 12.5455C29.0045 15.4755 27.1045 13.5455 25.7245 18.0555C24.3445 22.5655 23.9645 28.2055 24.6545 29.8555C25.3445 31.5055 31.5245 32.2355 33.0445 29.6055C34.3945 27.2655 34.7345 33.1955 37.7845 29.3455C40.4345 25.9955 41.3945 33.5055 44.0645 30.5755C46.7345 27.6455 46.4745 31.5755 47.4145 30.6655C47.7145 30.3855 51.6845 26.8455 53.2645 28.9955C54.8445 31.1455 55.2645 30.2255 55.4445 26.0655C55.6045 22.4455 56.1945 7.98548 38.3845 11.4255Z" fill="#202020"/>
<path d="M46.5983 58.6011C40.889 63.1686 35.3379 60.5042 33.276 58.6011C23.18 58.1799 15.4302 73.8094 12.8174 81.6768H69.4359C64.2022 72.0818 52.3076 54.0336 46.5983 58.6011Z" fill="#C3DDF7"/>
</svg>
