<svg width="79" height="82" viewBox="0 0 79 82" fill="none" xmlns="http://www.w3.org/2000/svg">
<path fill-rule="evenodd" clip-rule="evenodd" d="M39.0416 0.738478C46.9611 0.368065 55.072 1.59072 61.6484 6.43237C68.3706 11.3814 72.641 19.2172 75.4406 27.5361C78.3339 36.1333 80.4721 45.5725 77.7341 54.2304C75.0192 62.8156 67.8947 68.4915 60.9267 73.4319C54.2906 78.137 46.9457 81.9232 39.0416 81.6642C31.2788 81.4099 24.1823 77.2962 18.0886 72.0284C12.194 66.9327 8.18605 60.057 5.27936 52.4778C2.12818 44.261 -1.65043 35.3785 0.770336 26.8705C3.20005 18.3309 10.862 13.2186 17.7969 8.48342C24.2881 4.05117 31.397 1.09604 39.0416 0.738478Z" fill="#99CC99"/>
<path d="M39.067 13.1355C39.067 13.1355 25.897 13.3055 25.687 31.9155C25.687 31.9155 18.587 30.6555 24.687 39.8555C24.687 39.8555 25.277 41.4355 27.147 39.8555C29.017 38.2755 25.397 43.6455 33.897 49.0155C33.897 49.0155 34.017 57.6355 31.897 59.0155C29.777 60.3955 43.517 65.1355 45.767 59.0155C44.3348 57.2565 43.5793 55.043 43.637 52.7755C43.637 52.7755 53.077 52.2955 53.137 36.0355C53.197 19.7755 48.657 12.1355 39.067 13.1355Z" fill="#F0CEBB"/>
<path d="M27.437 35.9355C25.4848 33.6167 24.1363 30.8512 23.5117 27.8851C22.8871 24.9191 23.0057 21.8446 23.857 18.9355C26.657 8.50546 38.84 10.2168 45 11.6768C51.16 13.1368 54.087 8.72562 54.087 8.72562C54.087 8.72562 60.697 20.0355 54.087 23.0555C47.477 26.0755 27.887 18.4155 27.437 35.9355Z" fill="#C99F5F" stroke="#C99F5F" stroke-miterlimit="10"/>
<path d="M44.9714 58.6011C39.262 63.1686 33.711 60.5042 31.6491 58.6011C21.553 58.1799 13.8033 73.8094 11.1904 81.6768H67.8089C62.5753 72.0818 50.6807 54.0336 44.9714 58.6011Z" fill="#CBF4CB"/>
</svg>
