<svg width="79" height="88" viewBox="0 0 79 88" fill="none" xmlns="http://www.w3.org/2000/svg">
<path fill-rule="evenodd" clip-rule="evenodd" d="M38.2771 0.121239C46.5944 -0.578627 54.94 1.76903 61.9189 6.7106C69.1418 11.8249 75.1578 19.1217 77.7068 28.0403C80.2348 36.8854 78.7786 46.3968 75.7346 55.0498C72.8062 63.3739 67.8978 70.8439 60.9598 75.6451C54.2798 80.2678 46.2079 80.8814 38.2771 80.971C30.2629 81.0615 21.7365 81.2468 15.2473 76.1615C8.75497 71.0737 6.32806 62.23 3.84403 53.9873C1.35793 45.7378 -1.55175 37.0229 0.970142 28.786C3.48632 20.5679 10.6392 15.4911 17.1659 10.4764C23.6227 5.5153 30.3797 0.785774 38.2771 0.121239Z" fill="#B4E3E9"/>
<path d="M47.2575 64.4841C41.5482 69.0516 35.9971 66.3872 33.9352 64.4841C23.8391 64.0628 16.0894 79.6923 13.4766 87.5597H70.0951C64.8614 77.9647 52.9668 59.9166 47.2575 64.4841Z" fill="#8CC6CD"/>
<path d="M30.5037 46.2881C30.5037 46.2881 31.2816 52.559 36.5041 55.2881C36.5041 55.2881 30.0001 53.4999 27.9997 46.9999C27.9997 46.9999 29.9993 44.5002 30.5037 46.2881Z" fill="#D9D9D9"/>
<path d="M35.6679 24.1409C35.6679 24.1409 32.2842 36.2419 26.3187 40.4238C26.3187 40.4238 22.4633 28.7871 30.5967 23.8765C30.5967 23.8765 36.271 20.1752 35.6679 24.1409Z" fill="#D9D9D9"/>
<path d="M41.7898 19.3908C41.7898 19.3908 28.6198 19.6008 28.4098 38.2008C28.4098 38.2008 21.2997 36.9508 27.3597 46.2008C27.3597 46.2008 27.9597 47.7808 29.8297 46.2008C31.6997 44.6208 28.0798 49.9808 36.5798 55.3608C36.5798 55.3608 36.6997 63.9808 34.5798 65.3608C32.4598 66.7408 46.1898 71.4808 48.4398 65.3608C47.0136 63.5951 46.2621 61.3797 46.3198 59.1108C46.3198 59.1108 55.7598 58.6408 55.8098 42.3708C55.8698 26.2008 51.3698 18.4508 41.7898 19.3908Z" fill="#FDE6D1"/>
<path d="M46.5 21.0002C46.5 21.0002 32.0655 30.9616 29.5 42.5001C29.5 42.5001 23 23.5001 36.5946 18.9229C36.5946 18.9229 51.4991 18.0001 46.5 21.0002Z" fill="#E4E4E4"/>
<path d="M47.0006 21.0001C47.0006 21.0001 41.501 31.5001 35.501 34.0001C35.501 34.0001 34.713 22.2299 42.723 19.5599C42.723 19.5599 48.3706 17.4401 47.0006 21.0001Z" fill="#D9D9D9"/>
<path d="M46.0002 21.4998C46.0002 21.4998 45 29.4998 56 34.4998C56 34.4998 57.5007 22.9998 49.5693 19.8663C49.5693 19.8663 46.5007 17.9998 46.0002 21.4998Z" fill="#E4E4E4"/>
</svg>
