<svg width="79" height="84" viewBox="0 0 79 84" fill="none" xmlns="http://www.w3.org/2000/svg">
<path fill-rule="evenodd" clip-rule="evenodd" d="M38.2771 0.797997C46.5944 0.0981312 54.94 2.44579 61.9189 7.38736C69.1418 12.5016 75.1578 19.7985 77.7068 28.7171C80.2348 37.5622 78.7786 47.0736 75.7346 55.7265C72.8062 64.0507 67.8978 71.5207 60.9598 76.3219C54.2798 80.9446 46.2079 81.5581 38.2771 81.6477C30.2629 81.7383 21.7365 81.9236 15.2473 76.8382C8.75497 71.7505 6.32806 62.9068 3.84403 54.6641C1.35793 46.4146 -1.55175 37.6996 0.970142 29.4628C3.48632 21.2446 10.6392 16.1679 17.1659 11.1532C23.6227 6.19206 30.3797 1.46253 38.2771 0.797997Z" fill="#E06B65"/>
<path d="M42.0893 15.1789C42.0893 15.1789 28.9293 15.3889 28.7193 33.9889C28.7193 33.9889 21.6093 32.7389 27.6693 41.9289C27.6693 41.9289 28.2593 43.5189 30.1393 41.9289C32.0193 40.3389 28.3893 45.7189 36.8793 51.0889C36.8793 51.0889 37.0093 59.7089 34.8793 61.0889C32.7493 62.4689 46.4993 67.2089 48.7493 61.0889C47.3232 59.3233 46.5717 57.1078 46.6293 54.8389C46.6293 54.8389 56.0693 54.3689 56.1193 38.0989C56.1693 22.0189 51.6793 14.2689 42.0893 15.1789Z" fill="#D2AE8D"/>
<path d="M41.3991 10.7089C38.4054 9.24626 34.9899 8.89276 31.76 9.71122C28.5301 10.5297 25.6952 12.467 23.7592 15.1789C16.1392 24.8989 17.9391 52.7689 19.9491 56.6789C21.9591 60.5889 36.6191 56.1789 36.6191 56.1789C36.8674 54.6321 36.9546 53.0637 36.8792 51.4989C36.6792 49.7189 33.1192 50.7989 30.6892 41.5789C30.6892 41.5789 28.5291 43.8289 27.3591 41.5189C26.1891 39.2089 23.5392 35.6489 26.8192 34.1389C28.0992 33.5489 30.0392 35.4189 32.3792 31.3089C34.3792 27.7489 35.6891 18.3089 43.1091 18.9789C50.5291 19.6489 50.6292 17.9789 50.6292 17.9789C50.6292 17.9789 56.9192 21.5989 55.8092 42.5389C55.7824 43.2152 55.6784 43.8862 55.4992 44.5389C54.7992 47.1589 52.7592 53.5389 46.7192 53.8889C46.7192 53.8889 46.0391 57.8889 47.4491 57.6089C48.8591 57.3289 58.9491 58.4989 59.9491 55.6089C60.9491 52.7189 64.7591 0.28887 41.3991 10.7089Z" fill="#202020"/>
<path d="M47.7292 60.0236C42.0198 64.5911 36.4688 61.9267 34.4069 60.0236C24.3108 59.6023 16.5611 75.2318 13.9482 83.0992H70.5667C65.3331 73.5042 53.4385 55.4561 47.7292 60.0236Z" fill="#FFB6B2"/>
</svg>
