<svg width="79" height="84" viewBox="0 0 79 84" fill="none" xmlns="http://www.w3.org/2000/svg">
<path fill-rule="evenodd" clip-rule="evenodd" d="M39.3169 0.0352434C47.2623 -0.268719 55.182 1.36897 61.9484 5.90302C69.1041 10.6979 75.7599 17.2777 78.1267 26.0411C80.4643 34.6963 77.7253 43.8511 74.4341 52.1324C71.394 59.7822 66.371 66.0126 60.2472 71.0303C54.0222 76.1311 47.0976 80.3509 39.3169 80.9073C31.1841 81.4889 22.9002 79.3438 16.2834 74.1745C9.64715 68.99 5.63435 60.9616 3.01805 52.5494C0.375489 44.0528 -1.36667 34.8056 1.41273 26.3607C4.15315 18.0342 10.9561 12.3549 17.8147 7.59142C24.3206 3.07289 31.5995 0.330481 39.3169 0.0352434Z" fill="#FFFF99"/>
<path d="M40.5277 14.6895C40.5277 14.6895 27.3577 14.8995 27.1477 33.5095C27.1477 33.5095 20.0477 32.2495 26.1477 41.4495C26.1477 41.4495 26.7377 43.0295 28.6077 41.4495C30.4777 39.8695 26.8377 45.1995 35.3177 50.5695C35.3177 50.5695 35.4377 59.1895 33.3177 60.5695C31.1977 61.9495 44.9377 66.6895 47.1877 60.5695C45.7555 58.8105 45 56.5971 45.0577 54.3295C45.0577 54.3295 54.4977 53.8495 54.5577 37.5895C54.6177 21.3295 50.1077 13.6895 40.5277 14.6895Z" fill="#F0CEBB"/>
<path d="M54.9176 14.2995C54.9176 14.2995 50.2076 11.2995 50.3476 9.86947C50.4876 8.43947 47.0676 6.68947 44.2076 8.01947C44.2076 8.01947 39.2076 3.86947 34.3576 8.15947C34.3576 8.15947 27.9276 7.58947 25.7876 11.7295C25.7876 11.7295 20.7876 11.2995 22.7876 18.2995C22.7876 18.2995 17.7876 20.7295 21.6476 26.1495C21.6476 26.1495 18.7876 30.4395 22.6476 33.0095C26.5076 35.5795 26.7876 32.4395 27.6476 37.0095C28.5076 41.5795 29.9276 32.7195 29.7876 31.0095C29.6476 29.2995 29.7876 25.5795 32.0676 26.5795C34.3476 27.5795 31.2176 21.6895 35.8376 24.0095C40.4576 26.3295 42.6876 19.5095 44.5476 22.2595C46.4076 25.0095 50.3976 26.2595 51.3976 23.4395C52.3976 20.6195 54.2576 24.6495 56.2576 22.2595C58.2576 19.8695 59.4876 18.6895 54.9176 14.2995Z" fill="#EDA664"/>
<path d="M46.4318 60.1551C40.7225 64.7226 35.1714 62.0582 33.1095 60.1551C23.0135 59.7339 15.2637 75.3633 12.6509 83.2307H69.2694C64.0357 73.6357 52.1411 55.5876 46.4318 60.1551Z" fill="#F8F8C8"/>
</svg>
