<svg width="81" height="84" viewBox="0 0 81 84" fill="none" xmlns="http://www.w3.org/2000/svg">
<path fill-rule="evenodd" clip-rule="evenodd" d="M40.0416 1.06172C47.9611 0.691307 56.072 1.91396 62.6484 6.75561C69.3706 11.7046 73.641 19.5405 76.4406 27.8593C79.3339 36.4566 81.4721 45.8957 78.7341 54.5537C76.0192 63.1389 68.8947 68.8147 61.9267 73.7552C55.2906 78.4603 47.9457 82.2464 40.0416 81.9875C32.2788 81.7331 25.1823 77.6195 19.0886 72.3517C13.194 67.256 9.18605 60.3803 6.27936 52.801C3.12818 44.5842 -0.650431 35.7018 1.77034 27.1937C4.20005 18.6542 11.862 13.5419 18.7969 8.80667C25.2881 4.37441 32.397 1.41928 40.0416 1.06172Z" fill="white" stroke="#DADADA" stroke-width="2"/>
<path d="M41.1798 16.2186C41.1798 16.2186 28.0098 16.4286 27.7998 35.0286C27.7998 35.0286 20.6898 33.7786 26.7998 43.0286C26.7998 43.0286 27.3998 44.6086 29.2698 43.0286C31.1398 41.4486 27.5198 46.8186 36.0198 52.1886C36.0198 52.1886 36.1398 60.8086 34.0198 62.1886C31.8998 63.5686 45.6398 68.3086 47.8798 62.1886C46.4307 60.4144 45.6677 58.1785 45.7298 55.8886C45.7298 55.8886 55.1698 55.4086 55.2198 39.1486C55.2698 22.8886 50.7298 15.2786 41.1798 16.2186Z" fill="#E8C8B6"/>
<path d="M64.627 68.5347C64.627 68.5347 57.1272 59.5342 61.6272 44.5342C62.8672 37.5142 56.127 19.5345 56.127 19.5345C56.127 19.5345 54.627 15.5446 42.627 14.0446C42.627 14.0446 53.8572 16.2843 46.1272 14.5343C38.3972 12.7843 27.8371 15.2933 21.627 22.6488C21.627 22.6488 14.2475 27.6942 18.1275 48.0342C22.0075 68.3742 16.007 76.09 21.627 79C27.247 81.91 37.147 81.65 42.627 73.5C48.107 65.35 54.3596 81.9687 54.3596 81.9687C54.3596 81.9687 69.127 80.0347 64.627 68.5347ZM53.0196 50.1488C50.5396 53.9888 48.8696 55.4688 46.4096 55.4688C43.9496 55.4688 47.5096 61.7388 47.5096 61.7388C40.9796 64.9388 34.7096 61.2088 34.7096 61.2088C37.5396 59.2088 36.7096 52.2088 36.7096 52.2088C33.2596 51.9888 29.7996 42.7388 29.7996 42.7388C26.9696 44.9588 25.6896 41.1788 25.6896 41.1788C23.2396 33.5088 27.8396 35.0488 27.8396 35.0488C27.2196 26.0488 37.3196 23.8788 43.3596 22.6488C49.3996 21.4188 49.8896 18.8288 49.8896 18.8288C57.3196 27.4888 55.5396 46.2488 53.0196 50.1488Z" fill="#604637"/>
<path d="M46.7809 60.7277C41 64 37 62.5 35 60.9999C24.9039 60.5787 15.6129 75.9359 13 83.8033H41.3092H69.6185C64.3849 74.2083 53.1438 57.1259 46.7809 60.7277Z" fill="#343434"/>
</svg>
