<svg width="79" height="81" viewBox="0 0 79 81" fill="none" xmlns="http://www.w3.org/2000/svg">
<path fill-rule="evenodd" clip-rule="evenodd" d="M39.0416 0.0617201C46.9611 -0.308693 55.072 0.913959 61.6484 5.75561C68.3706 10.7046 72.641 18.5405 75.4406 26.8593C78.3339 35.4566 80.4721 44.8957 77.7341 53.5537C75.0192 62.1389 67.8947 67.8147 60.9267 72.7552C54.2906 77.4603 46.9457 81.2464 39.0416 80.9875C31.2788 80.7331 24.1823 76.6195 18.0886 71.3517C12.194 66.256 8.18605 59.3803 5.27936 51.801C2.12818 43.5842 -1.65043 34.7018 0.770336 26.1937C3.20005 17.6542 10.862 12.5419 17.7969 7.80667C24.2881 3.37441 31.397 0.41928 39.0416 0.0617201Z" fill="#EED0BE"/>
<path d="M38.996 12.6845C38.996 12.6845 25.826 12.8945 25.616 31.4945C25.616 31.4945 18.506 30.2445 24.616 39.4945C24.616 39.4945 25.216 41.0745 27.086 39.4945C28.956 37.9145 25.336 43.2845 33.836 48.6545C33.836 48.6545 33.956 57.2745 31.836 58.6545C29.716 60.0345 43.456 64.7745 45.696 58.6545C44.2469 56.8804 43.4838 54.6444 43.546 52.3545C43.546 52.3545 52.986 51.8745 53.0359 35.6145C53.0859 19.3545 48.546 11.7445 38.996 12.6845Z" fill="#BA814A"/>
<path d="M63.546 63.1345C63.546 63.1345 60.886 47.0245 62.126 40.0045C63.366 32.9845 49.936 12.6445 49.936 12.6445C49.936 12.6445 51.166 3.85453 44.936 6.49453C44.936 6.49453 40.666 9.59453 32.936 7.84453C25.206 6.09453 20.546 16.5745 21.096 20.0645C21.096 20.0645 8.296 24.7245 12.176 45.0645C16.056 65.4045 14.244 75.5245 19.864 78.4345C25.484 81.3445 35.696 79.6499 41.176 71.4999C46.656 63.3499 52.176 78.4345 52.176 78.4345C52.176 78.4345 65.126 83.3045 63.546 63.1345ZM50.836 46.6145C48.356 50.4545 46.686 51.9345 44.226 51.9345C41.766 51.9345 45.326 58.2045 45.326 58.2045C38.796 61.4045 32.526 57.6745 32.526 57.6745C35.356 55.6745 34.526 48.6745 34.526 48.6745C31.076 48.4545 27.616 39.2045 27.616 39.2045C24.786 41.4245 23.506 37.6445 23.506 37.6445C21.056 29.9745 25.656 31.5145 25.656 31.5145C25.036 22.5145 35.136 20.3445 41.176 19.1145C47.216 17.8845 47.706 15.2945 47.706 15.2945C55.136 23.9545 53.356 42.7145 50.836 46.6145Z" fill="#202020"/>
<path d="M45.2245 56.7438C39.5152 61.3113 33.9641 58.647 31.9023 56.7438C21.8062 56.3226 14.0565 71.9521 11.4436 79.8195H68.0621C62.8285 70.2245 50.9338 52.1763 45.2245 56.7438Z" fill="#C79587"/>
</svg>
