<svg width="82" height="81" viewBox="0 0 82 81" fill="none" xmlns="http://www.w3.org/2000/svg">
<path fill-rule="evenodd" clip-rule="evenodd" d="M41.6893 0.047923C50.3229 -0.425534 59.0462 2.63377 65.597 8.13367C71.8554 13.3882 74.2202 21.4415 76.4138 29.2021C78.5092 36.6153 80.1937 44.3014 77.8996 51.6586C75.5779 59.1039 69.905 64.8226 63.7575 69.7898C57.222 75.0705 50.1555 80.2927 41.6893 80.9165C32.8761 81.5659 24.1444 78.3736 17.0551 73.231C10.0221 68.1292 5.30292 60.6971 2.60886 52.5672C-0.0812366 44.4493 -1.28872 35.5408 1.9374 27.6105C5.0649 19.9226 12.7448 15.4476 19.6601 10.6528C26.5007 5.90974 33.3066 0.507617 41.6893 0.047923Z" fill="#343434"/>
<path d="M42.0675 12.4588C42.0675 12.4588 28.8975 12.6288 28.6875 31.2388C28.6875 31.2388 21.5875 29.9788 27.6875 39.1788C27.6875 39.1788 28.2775 40.7588 30.1475 39.1788C32.0175 37.5988 28.3975 42.9688 36.8975 48.3388C36.8975 48.3388 37.0175 56.9588 34.8975 58.3388C32.7775 59.7188 46.5175 64.4588 48.7675 58.3388C47.3353 56.5798 46.5798 54.3663 46.6375 52.0988C46.6375 52.0988 56.0775 51.6188 56.1375 35.3588C56.1975 19.0988 51.6575 11.4588 42.0675 12.4588Z" fill="#EED0BE"/>
<path d="M55.5 11.5563C55.5 11.5563 55.5 9.9999 53.6627 8.70991C52.6514 7.99989 51.36 5.66992 48.5 6.99992C48.5 6.99992 44.5 4.49989 37.6727 6.99991L33.1027 8.70991C33.1027 8.70991 25.9627 13.1399 26.1027 17.1399C26.1027 17.1399 23.5 22.2799 24.9627 24.9899C24.9627 24.9899 23.64 27.93 27.5 30.5C31.36 33.07 30.1027 31.2799 30.9627 35.8499C31.8227 40.4199 33.2427 31.5599 33.1027 29.8499C32.9627 28.1399 33.1027 24.4199 35.3827 25.4199C37.6627 26.4199 34.88 18.2363 39.5 20.5563C44.12 22.8763 45.5 19.4563 48.5 20.5563C52.5 21.4563 52.5 20.9001 55 20C55.5 19.5 56 18 56 18C56 18 57 16 55.5 11.5563Z" fill="#453216"/>
<path d="M47.9718 57.9244C42.2625 62.4919 36.7114 59.8275 34.6496 57.9244C24.5535 57.5031 16.8038 73.1326 14.1909 81H70.8094C65.5758 71.405 53.6812 53.3569 47.9718 57.9244Z" fill="#C3DDF6"/>
</svg>
