<svg width="369" height="49" viewBox="0 0 369 49" fill="none" xmlns="http://www.w3.org/2000/svg">
<path d="M0 38C0 32.4772 4.47715 28 10 28H254C259.523 28 264 32.4772 264 38C264 43.5228 259.523 48 254 48H10C4.47716 48 0 43.5228 0 38Z" fill="#FFF599" fill-opacity="0.8"/>
<path d="M17.5953 35.735C18.1713 35.735 18.7313 35.615 19.2753 35.375C19.8193 35.151 20.2913 34.823 20.6913 34.391L21.6753 35.855C21.1953 36.447 20.5873 36.887 19.8513 37.175C19.1313 37.479 18.3553 37.631 17.5233 37.631C15.1393 37.631 13.1873 36.511 11.6673 34.271C10.2273 34.159 8.98728 33.799 7.94728 33.191C6.92328 32.567 6.13928 31.751 5.59528 30.743C5.06728 29.719 4.80328 28.551 4.80328 27.239C4.80328 25.367 5.22728 23.663 6.07528 22.127C6.92328 20.591 8.11528 19.375 9.65128 18.479C11.2033 17.583 12.9873 17.135 15.0033 17.135C16.6513 17.135 18.0673 17.431 19.2513 18.023C20.4513 18.615 21.3633 19.447 21.9873 20.519C22.6113 21.575 22.9233 22.807 22.9233 24.215C22.9233 25.879 22.5793 27.415 21.8913 28.823C21.2193 30.231 20.2513 31.407 18.9873 32.351C17.7393 33.295 16.2833 33.903 14.6193 34.175C15.3873 35.215 16.3793 35.735 17.5953 35.735ZM7.20328 27.095C7.20328 28.647 7.69928 29.887 8.69128 30.815C9.68328 31.727 11.0913 32.183 12.9153 32.183C14.4193 32.183 15.7473 31.831 16.8993 31.127C18.0513 30.423 18.9393 29.479 19.5633 28.295C20.1873 27.095 20.4993 25.783 20.4993 24.359C20.4993 22.807 20.0033 21.575 19.0113 20.663C18.0353 19.735 16.6353 19.271 14.8113 19.271C13.3073 19.271 11.9793 19.623 10.8273 20.327C9.67528 21.031 8.77928 21.983 8.13928 23.183C7.51528 24.383 7.20328 25.687 7.20328 27.095ZM40.5835 22.247C40.5835 23.895 40.1435 25.271 39.2635 26.375C38.3835 27.479 37.1435 28.239 35.5435 28.655L38.6155 34.127H36.0715L33.1435 28.991H32.6875H28.1995L27.1915 34.127H24.7675L28.1275 17.327H34.3915C36.3595 17.327 37.8795 17.759 38.9515 18.623C40.0395 19.471 40.5835 20.679 40.5835 22.247ZM32.7595 26.951C34.4875 26.951 35.8235 26.567 36.7675 25.799C37.7115 25.031 38.1835 23.919 38.1835 22.463C38.1835 21.455 37.8395 20.695 37.1515 20.183C36.4635 19.671 35.4715 19.415 34.1755 19.415H30.1195L28.6075 26.951H32.7595ZM56.8583 34.319C55.1943 34.319 53.7623 34.023 52.5623 33.431C51.3623 32.839 50.4423 32.015 49.8023 30.959C49.1623 29.887 48.8423 28.647 48.8423 27.239C48.8423 25.367 49.2663 23.663 50.1143 22.127C50.9623 20.591 52.1623 19.375 53.7143 18.479C55.2823 17.583 57.0903 17.135 59.1383 17.135C60.5303 17.135 61.7623 17.367 62.8343 17.831C63.9063 18.279 64.7303 18.919 65.3063 19.751L63.5783 21.239C62.5703 19.927 61.0343 19.271 58.9703 19.271C57.4183 19.271 56.0583 19.623 54.8903 20.327C53.7223 21.031 52.8183 21.983 52.1783 23.183C51.5543 24.367 51.2423 25.671 51.2423 27.095C51.2423 28.647 51.7383 29.887 52.7303 30.815C53.7383 31.727 55.1703 32.183 57.0263 32.183C59.0903 32.183 60.7863 31.519 62.1143 30.191L63.5063 31.775C62.7383 32.607 61.7783 33.239 60.6263 33.671C59.4903 34.103 58.2343 34.319 56.8583 34.319ZM71.095 34.271C69.895 34.271 68.847 34.047 67.951 33.599C67.055 33.135 66.359 32.487 65.863 31.655C65.367 30.823 65.119 29.863 65.119 28.775C65.119 27.351 65.439 26.071 66.079 24.935C66.719 23.799 67.607 22.911 68.743 22.271C69.879 21.615 71.159 21.287 72.583 21.287C73.783 21.287 74.831 21.511 75.727 21.959C76.623 22.407 77.311 23.047 77.791 23.879C78.287 24.695 78.535 25.655 78.535 26.759C78.535 28.183 78.215 29.471 77.575 30.623C76.935 31.759 76.047 32.655 74.911 33.311C73.791 33.951 72.519 34.271 71.095 34.271ZM71.239 32.255C72.183 32.255 73.031 32.031 73.783 31.583C74.551 31.119 75.143 30.479 75.559 29.663C75.991 28.847 76.207 27.919 76.207 26.879C76.207 25.743 75.879 24.863 75.223 24.239C74.567 23.615 73.631 23.303 72.415 23.303C71.471 23.303 70.623 23.535 69.871 23.999C69.119 24.447 68.527 25.079 68.095 25.895C67.663 26.711 67.447 27.639 67.447 28.679C67.447 29.799 67.775 30.679 68.431 31.319C69.103 31.943 70.039 32.255 71.239 32.255ZM95.9054 16.319L92.3534 34.127H90.1454L90.4574 32.567C89.8814 33.111 89.2094 33.535 88.4414 33.839C87.6894 34.127 86.8654 34.271 85.9694 34.271C84.8814 34.271 83.9134 34.055 83.0654 33.623C82.2174 33.175 81.5534 32.535 81.0734 31.703C80.5934 30.871 80.3534 29.895 80.3534 28.775C80.3534 27.335 80.6654 26.047 81.2894 24.911C81.9134 23.775 82.7694 22.887 83.8574 22.247C84.9614 21.607 86.1934 21.287 87.5534 21.287C88.6414 21.287 89.5774 21.487 90.3614 21.887C91.1614 22.271 91.7614 22.839 92.1614 23.591L93.6014 16.319H95.9054ZM86.4734 32.255C87.4174 32.255 88.2654 32.031 89.0174 31.583C89.7854 31.119 90.3774 30.479 90.7934 29.663C91.2254 28.847 91.4414 27.919 91.4414 26.879C91.4414 25.743 91.1134 24.863 90.4574 24.239C89.8014 23.615 88.8654 23.303 87.6494 23.303C86.7054 23.303 85.8574 23.535 85.1054 23.999C84.3534 24.447 83.7614 25.079 83.3294 25.895C82.8974 26.711 82.6814 27.639 82.6814 28.679C82.6814 29.799 83.0094 30.679 83.6654 31.319C84.3374 31.943 85.2734 32.255 86.4734 32.255ZM98.9688 28.487V28.631C98.9688 29.815 99.3048 30.719 99.9768 31.343C100.649 31.951 101.657 32.255 103.001 32.255C103.785 32.255 104.521 32.127 105.209 31.871C105.897 31.599 106.473 31.239 106.937 30.791L107.921 32.447C107.297 33.023 106.537 33.471 105.641 33.791C104.745 34.111 103.801 34.271 102.809 34.271C101.561 34.271 100.481 34.047 99.5688 33.599C98.6568 33.151 97.9528 32.511 97.4568 31.679C96.9608 30.847 96.7128 29.871 96.7128 28.751C96.7128 27.327 97.0168 26.047 97.6248 24.911C98.2488 23.775 99.1048 22.887 100.193 22.247C101.297 21.607 102.529 21.287 103.889 21.287C105.617 21.287 106.993 21.783 108.017 22.775C109.057 23.751 109.577 25.087 109.577 26.783C109.577 27.295 109.521 27.863 109.409 28.487H98.9688ZM103.793 23.207C102.657 23.207 101.681 23.527 100.865 24.167C100.049 24.807 99.4968 25.687 99.2088 26.807H107.417C107.481 25.671 107.177 24.791 106.505 24.167C105.849 23.527 104.945 23.207 103.793 23.207ZM115.417 34.271C114.361 34.271 113.353 34.135 112.393 33.863C111.449 33.591 110.713 33.239 110.185 32.807L111.217 30.983C111.713 31.383 112.353 31.703 113.137 31.943C113.937 32.167 114.769 32.279 115.633 32.279C116.721 32.279 117.545 32.119 118.105 31.799C118.681 31.463 118.969 30.999 118.969 30.407C118.969 29.927 118.737 29.583 118.273 29.375C117.825 29.167 117.121 28.959 116.161 28.751C115.265 28.559 114.529 28.367 113.953 28.175C113.393 27.967 112.913 27.647 112.513 27.215C112.113 26.767 111.913 26.167 111.913 25.415C111.913 24.583 112.145 23.855 112.609 23.231C113.089 22.607 113.761 22.127 114.625 21.791C115.505 21.455 116.521 21.287 117.673 21.287C118.521 21.287 119.345 21.391 120.145 21.599C120.945 21.807 121.601 22.087 122.113 22.439L121.201 24.263C120.705 23.927 120.129 23.679 119.473 23.519C118.817 23.343 118.145 23.255 117.457 23.255C116.417 23.255 115.617 23.431 115.057 23.783C114.497 24.119 114.217 24.575 114.217 25.151C114.217 25.663 114.449 26.031 114.913 26.255C115.377 26.463 116.097 26.671 117.073 26.879C117.953 27.071 118.673 27.263 119.233 27.455C119.793 27.647 120.265 27.959 120.649 28.391C121.049 28.823 121.249 29.407 121.249 30.143C121.249 31.439 120.713 32.455 119.641 33.191C118.585 33.911 117.177 34.271 115.417 34.271ZM144.493 26.759C143.917 28.263 143.173 29.591 142.261 30.743L143.989 32.879L142.453 34.391L140.749 32.279C139.101 33.639 137.189 34.319 135.013 34.319C133.349 34.319 132.021 33.967 131.029 33.263C130.053 32.543 129.565 31.575 129.565 30.359C129.565 29.223 129.973 28.215 130.789 27.335C131.605 26.439 132.885 25.575 134.629 24.743C134.213 24.183 133.901 23.647 133.693 23.135C133.485 22.607 133.381 22.071 133.381 21.527C133.381 20.199 133.845 19.143 134.773 18.359C135.701 17.575 136.885 17.183 138.325 17.183C139.493 17.183 140.437 17.463 141.157 18.023C141.877 18.567 142.237 19.319 142.237 20.279C142.237 21.303 141.877 22.183 141.157 22.919C140.453 23.655 139.309 24.399 137.725 25.151L141.037 29.231C141.709 28.335 142.261 27.311 142.693 26.159L144.493 26.759ZM138.253 18.863C137.421 18.863 136.749 19.087 136.237 19.535C135.741 19.967 135.493 20.559 135.493 21.311C135.493 21.679 135.581 22.063 135.757 22.463C135.949 22.863 136.245 23.319 136.645 23.831C137.589 23.383 138.317 22.991 138.829 22.655C139.357 22.303 139.725 21.959 139.933 21.623C140.157 21.287 140.269 20.903 140.269 20.471C140.269 20.007 140.085 19.623 139.717 19.319C139.365 19.015 138.877 18.863 138.253 18.863ZM135.157 32.399C136.773 32.399 138.237 31.863 139.549 30.791L135.709 26.087C134.317 26.759 133.325 27.383 132.733 27.959C132.157 28.535 131.869 29.207 131.869 29.975C131.869 30.695 132.157 31.279 132.733 31.727C133.309 32.175 134.117 32.399 135.157 32.399ZM174.328 17.327L170.968 34.127H168.664L171.112 21.983L163.168 32.087H162.064L157.864 21.743L155.392 34.127H153.088L156.448 17.327H158.392L163.072 29.159L172.264 17.327H174.328ZM190.194 21.407L187.674 34.127H185.466L185.778 32.567C185.202 33.111 184.53 33.535 183.762 33.839C183.01 34.127 182.186 34.271 181.29 34.271C180.202 34.271 179.234 34.055 178.386 33.623C177.538 33.175 176.874 32.535 176.394 31.703C175.914 30.871 175.674 29.895 175.674 28.775C175.674 27.335 175.986 26.047 176.61 24.911C177.234 23.775 178.09 22.887 179.178 22.247C180.282 21.607 181.514 21.287 182.874 21.287C183.962 21.287 184.89 21.479 185.658 21.863C186.442 22.247 187.042 22.815 187.458 23.567L187.89 21.407H190.194ZM181.794 32.255C182.738 32.255 183.586 32.031 184.338 31.583C185.106 31.119 185.698 30.479 186.114 29.663C186.546 28.847 186.762 27.919 186.762 26.879C186.762 25.743 186.434 24.863 185.778 24.239C185.122 23.615 184.186 23.303 182.97 23.303C182.026 23.303 181.178 23.535 180.426 23.999C179.674 24.447 179.082 25.079 178.65 25.895C178.218 26.711 178.002 27.639 178.002 28.679C178.002 29.799 178.33 30.679 178.986 31.319C179.658 31.943 180.594 32.255 181.794 32.255ZM200.961 21.287C202.049 21.287 203.017 21.511 203.865 21.959C204.713 22.391 205.377 23.023 205.857 23.855C206.337 24.671 206.577 25.639 206.577 26.759C206.577 28.199 206.265 29.487 205.641 30.623C205.017 31.759 204.153 32.655 203.049 33.311C201.961 33.951 200.737 34.271 199.377 34.271C198.289 34.271 197.353 34.079 196.569 33.695C195.785 33.295 195.185 32.719 194.769 31.967L193.425 38.783H191.121L194.577 21.407H196.785L196.473 22.991C197.657 21.855 199.153 21.287 200.961 21.287ZM199.281 32.255C200.225 32.255 201.073 32.031 201.825 31.583C202.577 31.119 203.169 30.479 203.601 29.663C204.033 28.847 204.249 27.919 204.249 26.879C204.249 25.743 203.921 24.863 203.265 24.239C202.609 23.615 201.673 23.303 200.457 23.303C199.513 23.303 198.657 23.535 197.889 23.999C197.137 24.447 196.545 25.079 196.113 25.895C195.697 26.711 195.489 27.639 195.489 28.679C195.489 29.799 195.817 30.679 196.473 31.319C197.145 31.943 198.081 32.255 199.281 32.255ZM217.32 21.287C218.408 21.287 219.376 21.511 220.224 21.959C221.072 22.391 221.736 23.023 222.216 23.855C222.696 24.671 222.936 25.639 222.936 26.759C222.936 28.199 222.624 29.487 222 30.623C221.376 31.759 220.512 32.655 219.408 33.311C218.32 33.951 217.096 34.271 215.736 34.271C214.648 34.271 213.712 34.079 212.928 33.695C212.144 33.295 211.544 32.719 211.128 31.967L209.784 38.783H207.48L210.936 21.407H213.144L212.832 22.991C214.016 21.855 215.512 21.287 217.32 21.287ZM215.64 32.255C216.584 32.255 217.432 32.031 218.184 31.583C218.936 31.119 219.528 30.479 219.96 29.663C220.392 28.847 220.608 27.919 220.608 26.879C220.608 25.743 220.28 24.863 219.624 24.239C218.968 23.615 218.032 23.303 216.816 23.303C215.872 23.303 215.016 23.535 214.248 23.999C213.496 24.447 212.904 25.079 212.472 25.895C212.056 26.711 211.848 27.639 211.848 28.679C211.848 29.799 212.176 30.679 212.832 31.319C213.504 31.943 214.44 32.255 215.64 32.255ZM227.296 21.407H229.6L227.08 34.127H224.776L227.296 21.407ZM229.12 18.959C228.704 18.959 228.36 18.823 228.088 18.551C227.816 18.279 227.68 17.951 227.68 17.567C227.68 17.119 227.832 16.743 228.136 16.439C228.456 16.119 228.856 15.959 229.336 15.959C229.752 15.959 230.096 16.095 230.368 16.367C230.656 16.623 230.8 16.935 230.8 17.303C230.8 17.799 230.64 18.199 230.32 18.503C230.016 18.807 229.616 18.959 229.12 18.959ZM240.503 21.287C241.959 21.287 243.087 21.655 243.887 22.391C244.703 23.127 245.111 24.167 245.111 25.511C245.111 25.975 245.063 26.471 244.967 26.999L243.551 34.127H241.247L242.663 26.999C242.743 26.567 242.783 26.215 242.783 25.943C242.783 25.111 242.535 24.471 242.039 24.023C241.543 23.575 240.807 23.351 239.831 23.351C238.583 23.351 237.551 23.695 236.735 24.383C235.935 25.055 235.399 26.063 235.127 27.407L233.783 34.127H231.479L233.999 21.407H236.207L235.895 23.039C237.047 21.871 238.583 21.287 240.503 21.287ZM262.573 21.407L260.389 32.399C259.941 34.671 259.093 36.327 257.845 37.367C256.613 38.407 254.925 38.927 252.781 38.927C251.581 38.927 250.485 38.767 249.493 38.447C248.501 38.143 247.661 37.703 246.973 37.127L248.245 35.351C248.757 35.815 249.421 36.183 250.237 36.455C251.069 36.743 251.973 36.887 252.949 36.887C254.421 36.887 255.557 36.551 256.357 35.879C257.173 35.207 257.725 34.167 258.013 32.759L258.205 31.847C256.989 33.015 255.453 33.599 253.597 33.599C252.477 33.599 251.485 33.391 250.621 32.975C249.773 32.559 249.109 31.959 248.629 31.175C248.165 30.391 247.933 29.471 247.933 28.415C247.933 27.087 248.237 25.879 248.845 24.791C249.469 23.703 250.333 22.847 251.437 22.223C252.541 21.599 253.789 21.287 255.181 21.287C256.269 21.287 257.229 21.495 258.061 21.911C258.909 22.311 259.533 22.919 259.933 23.735L260.389 21.407H262.573ZM254.053 31.583C255.013 31.583 255.869 31.375 256.621 30.959C257.389 30.527 257.981 29.935 258.397 29.183C258.829 28.415 259.045 27.551 259.045 26.591C259.045 25.567 258.709 24.767 258.037 24.191C257.381 23.599 256.453 23.303 255.253 23.303C254.293 23.303 253.429 23.519 252.661 23.951C251.909 24.367 251.317 24.959 250.885 25.727C250.469 26.479 250.261 27.327 250.261 28.271C250.261 29.311 250.597 30.127 251.269 30.719C251.941 31.295 252.869 31.583 254.053 31.583Z" fill="#202020"/>
<circle cx="344.242" cy="24.2425" r="24.2425" fill="#E06B65"/>
<path d="M336.429 25.3666L334.431 27.4186V30.6406H332.091V18.0406H334.431V24.5026L340.659 18.0406H343.287L337.995 23.6746L343.611 30.6406H340.875L336.429 25.3666ZM356.4 18.0406V30.6406H354.06V25.2406H347.544V30.6406H345.204V18.0406H347.544V23.2426H354.06V18.0406H356.4Z" fill="#202020"/>
<circle cx="306.242" cy="24.2425" r="24.2425" fill="#FFF599"/>
<path d="M305.729 28.6606V30.6406H294.983V29.0746L302.399 20.0206H295.109V18.0406H305.495V19.6066L298.079 28.6606H305.729ZM317.322 28.6786V30.6406H307.872V18.0406H317.07V20.0026H310.212V23.2786H316.296V25.2046H310.212V28.6786H317.322Z" fill="#202020"/>
</svg>
