<svg width="309" height="49" viewBox="0 0 309 49" fill="none" xmlns="http://www.w3.org/2000/svg">
<rect y="28" width="242" height="20" rx="10" fill="#99CCFF" fill-opacity="0.8"/>
<path d="M16.936 29.8H7.96L5.296 34H2.704L13.696 17.2H16.072L20.32 34H17.944L16.936 29.8ZM16.456 27.88L14.464 19.6L9.184 27.88H16.456ZM31.4181 21.16C32.5061 21.16 33.4741 21.384 34.3221 21.832C35.1701 22.264 35.8341 22.896 36.3141 23.728C36.7941 24.544 37.0341 25.512 37.0341 26.632C37.0341 28.072 36.7221 29.36 36.0981 30.496C35.4741 31.632 34.6101 32.528 33.5061 33.184C32.4181 33.824 31.1941 34.144 29.8341 34.144C28.7461 34.144 27.8101 33.952 27.0261 33.568C26.2421 33.168 25.6421 32.592 25.2261 31.84L23.8821 38.656H21.5781L25.0341 21.28H27.2421L26.9301 22.864C28.1141 21.728 29.6101 21.16 31.4181 21.16ZM29.7381 32.128C30.6821 32.128 31.5301 31.904 32.2821 31.456C33.0341 30.992 33.6261 30.352 34.0581 29.536C34.4901 28.72 34.7061 27.792 34.7061 26.752C34.7061 25.616 34.3781 24.736 33.7221 24.112C33.0661 23.488 32.1301 23.176 30.9141 23.176C29.9701 23.176 29.1141 23.408 28.3461 23.872C27.5941 24.32 27.0021 24.952 26.5701 25.768C26.1541 26.584 25.9461 27.512 25.9461 28.552C25.9461 29.672 26.2741 30.552 26.9301 31.192C27.6021 31.816 28.5381 32.128 29.7381 32.128ZM47.7775 21.16C48.8655 21.16 49.8335 21.384 50.6815 21.832C51.5295 22.264 52.1935 22.896 52.6735 23.728C53.1535 24.544 53.3935 25.512 53.3935 26.632C53.3935 28.072 53.0815 29.36 52.4575 30.496C51.8335 31.632 50.9695 32.528 49.8655 33.184C48.7775 33.824 47.5535 34.144 46.1935 34.144C45.1055 34.144 44.1695 33.952 43.3855 33.568C42.6015 33.168 42.0015 32.592 41.5855 31.84L40.2415 38.656H37.9375L41.3935 21.28H43.6015L43.2895 22.864C44.4735 21.728 45.9695 21.16 47.7775 21.16ZM46.0975 32.128C47.0415 32.128 47.8895 31.904 48.6415 31.456C49.3935 30.992 49.9855 30.352 50.4175 29.536C50.8495 28.72 51.0655 27.792 51.0655 26.752C51.0655 25.616 50.7375 24.736 50.0815 24.112C49.4255 23.488 48.4895 23.176 47.2735 23.176C46.3295 23.176 45.4735 23.408 44.7055 23.872C43.9535 24.32 43.3615 24.952 42.9295 25.768C42.5135 26.584 42.3055 27.512 42.3055 28.552C42.3055 29.672 42.6335 30.552 43.2895 31.192C43.9615 31.816 44.8975 32.128 46.0975 32.128ZM58.7849 16.192H61.0889L57.5369 34H55.2329L58.7849 16.192ZM64.456 21.28H66.76L64.24 34H61.936L64.456 21.28ZM66.28 18.832C65.864 18.832 65.52 18.696 65.248 18.424C64.976 18.152 64.84 17.824 64.84 17.44C64.84 16.992 64.992 16.616 65.296 16.312C65.616 15.992 66.016 15.832 66.496 15.832C66.912 15.832 67.256 15.968 67.528 16.24C67.816 16.496 67.96 16.808 67.96 17.176C67.96 17.672 67.8 18.072 67.48 18.376C67.176 18.68 66.776 18.832 66.28 18.832ZM74.6631 34.144C73.4471 34.144 72.3831 33.92 71.4711 33.472C70.5591 33.008 69.8551 32.368 69.3591 31.552C68.8631 30.72 68.6151 29.752 68.6151 28.648C68.6151 27.224 68.9351 25.944 69.5751 24.808C70.2151 23.672 71.1031 22.784 72.2391 22.144C73.3751 21.488 74.6631 21.16 76.1031 21.16C78.6151 21.16 80.3591 22.08 81.3351 23.92L79.3911 25C78.7191 23.784 77.5671 23.176 75.9351 23.176C74.9911 23.176 74.1351 23.408 73.3671 23.872C72.6151 24.32 72.0231 24.952 71.5911 25.768C71.1591 26.584 70.9431 27.512 70.9431 28.552C70.9431 29.672 71.2711 30.552 71.9271 31.192C72.5991 31.816 73.5431 32.128 74.7591 32.128C75.5271 32.128 76.2391 31.976 76.8951 31.672C77.5671 31.368 78.1191 30.92 78.5511 30.328L80.2311 31.528C79.6391 32.344 78.8471 32.984 77.8551 33.448C76.8631 33.912 75.7991 34.144 74.6631 34.144ZM96.6586 21.28L94.1386 34H91.9306L92.2426 32.44C91.6666 32.984 90.9946 33.408 90.2266 33.712C89.4746 34 88.6506 34.144 87.7546 34.144C86.6666 34.144 85.6986 33.928 84.8506 33.496C84.0026 33.048 83.3386 32.408 82.8586 31.576C82.3786 30.744 82.1386 29.768 82.1386 28.648C82.1386 27.208 82.4506 25.92 83.0746 24.784C83.6986 23.648 84.5546 22.76 85.6426 22.12C86.7466 21.48 87.9786 21.16 89.3386 21.16C90.4266 21.16 91.3546 21.352 92.1226 21.736C92.9066 22.12 93.5066 22.688 93.9226 23.44L94.3546 21.28H96.6586ZM88.2586 32.128C89.2026 32.128 90.0506 31.904 90.8026 31.456C91.5706 30.992 92.1626 30.352 92.5786 29.536C93.0106 28.72 93.2266 27.792 93.2266 26.752C93.2266 25.616 92.8986 24.736 92.2426 24.112C91.5866 23.488 90.6506 23.176 89.4346 23.176C88.4906 23.176 87.6426 23.408 86.8906 23.872C86.1386 24.32 85.5466 24.952 85.1146 25.768C84.6826 26.584 84.4666 27.512 84.4666 28.552C84.4666 29.672 84.7946 30.552 85.4506 31.192C86.1226 31.816 87.0586 32.128 88.2586 32.128ZM101.93 29.944C101.882 30.184 101.858 30.408 101.858 30.616C101.858 31.128 101.994 31.52 102.266 31.792C102.554 32.064 102.978 32.2 103.538 32.2C104.21 32.2 104.818 32 105.362 31.6L105.842 33.352C105.074 33.88 104.09 34.144 102.89 34.144C101.882 34.144 101.066 33.864 100.442 33.304C99.8339 32.728 99.5299 31.944 99.5299 30.952C99.5299 30.616 99.5619 30.296 99.6259 29.992L100.994 23.176H98.8339L99.1939 21.28H101.378L101.93 18.496H104.234L103.682 21.28H107.33L106.946 23.176H103.298L101.93 29.944ZM110.979 21.28H113.283L110.763 34H108.459L110.979 21.28ZM112.803 18.832C112.387 18.832 112.043 18.696 111.771 18.424C111.499 18.152 111.363 17.824 111.363 17.44C111.363 16.992 111.515 16.616 111.819 16.312C112.139 15.992 112.539 15.832 113.019 15.832C113.435 15.832 113.779 15.968 114.051 16.24C114.339 16.496 114.483 16.808 114.483 17.176C114.483 17.672 114.323 18.072 114.003 18.376C113.699 18.68 113.299 18.832 112.803 18.832ZM121.115 34.144C119.915 34.144 118.867 33.92 117.971 33.472C117.075 33.008 116.379 32.36 115.883 31.528C115.387 30.696 115.139 29.736 115.139 28.648C115.139 27.224 115.459 25.944 116.099 24.808C116.739 23.672 117.627 22.784 118.763 22.144C119.899 21.488 121.179 21.16 122.603 21.16C123.803 21.16 124.851 21.384 125.747 21.832C126.643 22.28 127.331 22.92 127.811 23.752C128.307 24.568 128.555 25.528 128.555 26.632C128.555 28.056 128.235 29.344 127.595 30.496C126.955 31.632 126.067 32.528 124.931 33.184C123.811 33.824 122.539 34.144 121.115 34.144ZM121.259 32.128C122.203 32.128 123.051 31.904 123.803 31.456C124.571 30.992 125.163 30.352 125.579 29.536C126.011 28.72 126.227 27.792 126.227 26.752C126.227 25.616 125.899 24.736 125.243 24.112C124.587 23.488 123.651 23.176 122.435 23.176C121.491 23.176 120.643 23.408 119.891 23.872C119.139 24.32 118.547 24.952 118.115 25.768C117.683 26.584 117.467 27.512 117.467 28.552C117.467 29.672 117.795 30.552 118.451 31.192C119.123 31.816 120.059 32.128 121.259 32.128ZM139.421 21.16C140.877 21.16 142.005 21.528 142.805 22.264C143.621 23 144.029 24.04 144.029 25.384C144.029 25.848 143.981 26.344 143.885 26.872L142.469 34H140.165L141.581 26.872C141.661 26.44 141.701 26.088 141.701 25.816C141.701 24.984 141.453 24.344 140.957 23.896C140.461 23.448 139.725 23.224 138.749 23.224C137.501 23.224 136.469 23.568 135.653 24.256C134.853 24.928 134.317 25.936 134.045 27.28L132.701 34H130.397L132.917 21.28H135.125L134.813 22.912C135.965 21.744 137.501 21.16 139.421 21.16ZM156.85 17.2H163.426C165.106 17.2 166.546 17.488 167.746 18.064C168.962 18.624 169.882 19.424 170.506 20.464C171.146 21.488 171.466 22.696 171.466 24.088C171.466 26.04 171.026 27.768 170.146 29.272C169.282 30.776 168.058 31.944 166.474 32.776C164.906 33.592 163.082 34 161.002 34H153.49L156.85 17.2ZM161.074 31.912C162.69 31.912 164.098 31.584 165.298 30.928C166.498 30.272 167.418 29.368 168.058 28.216C168.714 27.048 169.042 25.72 169.042 24.232C169.042 22.68 168.546 21.472 167.554 20.608C166.562 19.728 165.106 19.288 163.186 19.288H158.818L156.298 31.912H161.074ZM175.238 28.36V28.504C175.238 29.688 175.574 30.592 176.246 31.216C176.918 31.824 177.926 32.128 179.27 32.128C180.054 32.128 180.79 32 181.478 31.744C182.166 31.472 182.742 31.112 183.206 30.664L184.19 32.32C183.566 32.896 182.806 33.344 181.91 33.664C181.014 33.984 180.07 34.144 179.078 34.144C177.83 34.144 176.75 33.92 175.838 33.472C174.926 33.024 174.222 32.384 173.726 31.552C173.23 30.72 172.982 29.744 172.982 28.624C172.982 27.2 173.286 25.92 173.894 24.784C174.518 23.648 175.374 22.76 176.462 22.12C177.566 21.48 178.798 21.16 180.158 21.16C181.886 21.16 183.262 21.656 184.286 22.648C185.326 23.624 185.846 24.96 185.846 26.656C185.846 27.168 185.79 27.736 185.678 28.36H175.238ZM180.062 23.08C178.926 23.08 177.95 23.4 177.134 24.04C176.318 24.68 175.766 25.56 175.478 26.68H183.686C183.75 25.544 183.446 24.664 182.774 24.04C182.118 23.4 181.214 23.08 180.062 23.08ZM191.686 34.144C190.63 34.144 189.622 34.008 188.662 33.736C187.718 33.464 186.982 33.112 186.454 32.68L187.486 30.856C187.982 31.256 188.622 31.576 189.406 31.816C190.206 32.04 191.038 32.152 191.902 32.152C192.99 32.152 193.814 31.992 194.374 31.672C194.95 31.336 195.238 30.872 195.238 30.28C195.238 29.8 195.006 29.456 194.542 29.248C194.094 29.04 193.39 28.832 192.43 28.624C191.534 28.432 190.798 28.24 190.222 28.048C189.662 27.84 189.182 27.52 188.782 27.088C188.382 26.64 188.182 26.04 188.182 25.288C188.182 24.456 188.414 23.728 188.878 23.104C189.358 22.48 190.03 22 190.894 21.664C191.774 21.328 192.79 21.16 193.942 21.16C194.79 21.16 195.614 21.264 196.414 21.472C197.214 21.68 197.87 21.96 198.382 22.312L197.47 24.136C196.974 23.8 196.398 23.552 195.742 23.392C195.086 23.216 194.414 23.128 193.726 23.128C192.686 23.128 191.886 23.304 191.326 23.656C190.766 23.992 190.486 24.448 190.486 25.024C190.486 25.536 190.718 25.904 191.182 26.128C191.646 26.336 192.366 26.544 193.342 26.752C194.222 26.944 194.942 27.136 195.502 27.328C196.062 27.52 196.534 27.832 196.918 28.264C197.318 28.696 197.518 29.28 197.518 30.016C197.518 31.312 196.982 32.328 195.91 33.064C194.854 33.784 193.446 34.144 191.686 34.144ZM202.222 21.28H204.526L202.006 34H199.702L202.222 21.28ZM204.046 18.832C203.63 18.832 203.286 18.696 203.014 18.424C202.742 18.152 202.606 17.824 202.606 17.44C202.606 16.992 202.758 16.616 203.062 16.312C203.382 15.992 203.782 15.832 204.262 15.832C204.678 15.832 205.022 15.968 205.294 16.24C205.582 16.496 205.726 16.808 205.726 17.176C205.726 17.672 205.566 18.072 205.246 18.376C204.942 18.68 204.542 18.832 204.046 18.832ZM221.093 21.28L218.909 32.272C218.461 34.544 217.613 36.2 216.365 37.24C215.133 38.28 213.445 38.8 211.301 38.8C210.101 38.8 209.005 38.64 208.013 38.32C207.021 38.016 206.181 37.576 205.493 37L206.765 35.224C207.277 35.688 207.941 36.056 208.757 36.328C209.589 36.616 210.493 36.76 211.469 36.76C212.941 36.76 214.077 36.424 214.877 35.752C215.693 35.08 216.245 34.04 216.533 32.632L216.725 31.72C215.509 32.888 213.973 33.472 212.117 33.472C210.997 33.472 210.005 33.264 209.141 32.848C208.293 32.432 207.629 31.832 207.149 31.048C206.685 30.264 206.453 29.344 206.453 28.288C206.453 26.96 206.757 25.752 207.365 24.664C207.989 23.576 208.853 22.72 209.957 22.096C211.061 21.472 212.309 21.16 213.701 21.16C214.789 21.16 215.749 21.368 216.581 21.784C217.429 22.184 218.053 22.792 218.453 23.608L218.909 21.28H221.093ZM212.573 31.456C213.533 31.456 214.389 31.248 215.141 30.832C215.909 30.4 216.501 29.808 216.917 29.056C217.349 28.288 217.565 27.424 217.565 26.464C217.565 25.44 217.229 24.64 216.557 24.064C215.901 23.472 214.973 23.176 213.773 23.176C212.813 23.176 211.949 23.392 211.181 23.824C210.429 24.24 209.837 24.832 209.405 25.6C208.989 26.352 208.781 27.2 208.781 28.144C208.781 29.184 209.117 30 209.789 30.592C210.461 31.168 211.389 31.456 212.573 31.456ZM231.999 21.16C233.455 21.16 234.583 21.528 235.383 22.264C236.199 23 236.607 24.04 236.607 25.384C236.607 25.848 236.559 26.344 236.463 26.872L235.047 34H232.743L234.159 26.872C234.239 26.44 234.279 26.088 234.279 25.816C234.279 24.984 234.031 24.344 233.535 23.896C233.039 23.448 232.303 23.224 231.327 23.224C230.079 23.224 229.047 23.568 228.231 24.256C227.431 24.928 226.895 25.936 226.623 27.28L225.279 34H222.975L225.495 21.28H227.703L227.391 22.912C228.543 21.744 230.079 21.16 231.999 21.16Z" fill="#202020"/>
<circle cx="284.242" cy="24.2425" r="24.2425" fill="#99CCFF"/>
<path d="M281.733 30.6406L279.159 26.9506C279.051 26.9626 278.889 26.9686 278.673 26.9686H275.829V30.6406H273.489V18.0406H278.673C279.765 18.0406 280.713 18.2206 281.517 18.5806C282.333 18.9406 282.957 19.4566 283.389 20.1286C283.821 20.8006 284.037 21.5986 284.037 22.5226C284.037 23.4706 283.803 24.2866 283.335 24.9706C282.879 25.6546 282.219 26.1646 281.355 26.5006L284.253 30.6406H281.733ZM281.679 22.5226C281.679 21.7186 281.415 21.1006 280.887 20.6686C280.359 20.2366 279.585 20.0206 278.565 20.0206H275.829V25.0426H278.565C279.585 25.0426 280.359 24.8266 280.887 24.3946C281.415 23.9506 281.679 23.3266 281.679 22.5226ZM291.915 26.1946V30.6406H289.575V26.2306L284.625 18.0406H287.127L290.817 24.1786L294.543 18.0406H296.847L291.915 26.1946Z" fill="#202020"/>
</svg>
