<svg width="515" height="49" viewBox="0 0 515 49" fill="none" xmlns="http://www.w3.org/2000/svg">
<rect x="0.00390625" y="28" width="378" height="20" rx="10" fill="#99CC99" fill-opacity="0.8"/>
<path d="M31.9266 17.2L22.9506 34H20.4066L18.5346 20.656L11.2146 34H8.67059L6.41459 17.2H8.76659L10.5906 30.904L18.0306 17.2H20.2626L22.1346 30.928L29.5266 17.2H31.9266ZM36.1575 34.144C34.9575 34.144 33.9095 33.92 33.0135 33.472C32.1175 33.008 31.4215 32.36 30.9255 31.528C30.4295 30.696 30.1815 29.736 30.1815 28.648C30.1815 27.224 30.5015 25.944 31.1415 24.808C31.7815 23.672 32.6695 22.784 33.8055 22.144C34.9415 21.488 36.2215 21.16 37.6455 21.16C38.8455 21.16 39.8935 21.384 40.7895 21.832C41.6855 22.28 42.3735 22.92 42.8535 23.752C43.3495 24.568 43.5975 25.528 43.5975 26.632C43.5975 28.056 43.2775 29.344 42.6375 30.496C41.9975 31.632 41.1095 32.528 39.9735 33.184C38.8535 33.824 37.5815 34.144 36.1575 34.144ZM36.3015 32.128C37.2455 32.128 38.0935 31.904 38.8455 31.456C39.6135 30.992 40.2055 30.352 40.6215 29.536C41.0535 28.72 41.2695 27.792 41.2695 26.752C41.2695 25.616 40.9415 24.736 40.2855 24.112C39.6295 23.488 38.6935 23.176 37.4775 23.176C36.5335 23.176 35.6855 23.408 34.9335 23.872C34.1815 24.32 33.5895 24.952 33.1575 25.768C32.7255 26.584 32.5095 27.512 32.5095 28.552C32.5095 29.672 32.8375 30.552 33.4935 31.192C34.1655 31.816 35.1015 32.128 36.3015 32.128ZM49.8079 23.176C50.3679 22.472 51.0559 21.96 51.8719 21.64C52.6879 21.32 53.6799 21.16 54.8479 21.16L54.4159 23.392C54.2719 23.376 54.0719 23.368 53.8159 23.368C51.1759 23.368 49.5759 24.792 49.0159 27.64L47.7439 34H45.4399L47.9599 21.28H50.1679L49.8079 23.176ZM63.0636 26.632L67.5996 34H64.9356L61.2636 28L58.1436 30.424L57.4236 34H55.1196L58.6716 16.192H60.9756L58.7196 27.52L66.6156 21.28H69.8556L63.0636 26.632ZM77.4983 17.944C76.8103 17.944 76.2663 18.136 75.8663 18.52C75.4663 18.888 75.1783 19.472 75.0023 20.272L74.7863 21.28H78.4823L78.0983 23.176H74.4743L72.2903 34H69.9863L72.1703 23.176H69.9863L70.3463 21.28H72.5543L72.7943 20.08C73.0503 18.784 73.5703 17.792 74.3543 17.104C75.1543 16.4 76.2023 16.048 77.4983 16.048C78.0263 16.048 78.5223 16.12 78.9863 16.264C79.4663 16.392 79.8583 16.584 80.1623 16.84L79.2023 18.544C78.7543 18.144 78.1863 17.944 77.4983 17.944ZM81.6983 16.192H84.0023L80.4503 34H78.1463L81.6983 16.192ZM90.7903 34.144C89.5903 34.144 88.5423 33.92 87.6463 33.472C86.7503 33.008 86.0543 32.36 85.5583 31.528C85.0623 30.696 84.8143 29.736 84.8143 28.648C84.8143 27.224 85.1343 25.944 85.7743 24.808C86.4143 23.672 87.3023 22.784 88.4383 22.144C89.5743 21.488 90.8543 21.16 92.2783 21.16C93.4783 21.16 94.5263 21.384 95.4223 21.832C96.3183 22.28 97.0063 22.92 97.4863 23.752C97.9823 24.568 98.2303 25.528 98.2303 26.632C98.2303 28.056 97.9103 29.344 97.2703 30.496C96.6303 31.632 95.7423 32.528 94.6063 33.184C93.4863 33.824 92.2143 34.144 90.7903 34.144ZM90.9343 32.128C91.8783 32.128 92.7263 31.904 93.4783 31.456C94.2463 30.992 94.8383 30.352 95.2543 29.536C95.6863 28.72 95.9023 27.792 95.9023 26.752C95.9023 25.616 95.5743 24.736 94.9183 24.112C94.2623 23.488 93.3263 23.176 92.1103 23.176C91.1663 23.176 90.3183 23.408 89.5663 23.872C88.8143 24.32 88.2223 24.952 87.7903 25.768C87.3583 26.584 87.1423 27.512 87.1423 28.552C87.1423 29.672 87.4703 30.552 88.1263 31.192C88.7983 31.816 89.7343 32.128 90.9343 32.128ZM121.609 21.28L114.481 34H112.225L110.281 24.376L104.761 34H102.553L100.129 21.28H102.217L104.089 31.36L109.849 21.28H111.817L113.737 31.36L119.425 21.28H121.609ZM142.415 26.632C141.839 28.136 141.095 29.464 140.183 30.616L141.911 32.752L140.375 34.264L138.671 32.152C137.023 33.512 135.111 34.192 132.935 34.192C131.271 34.192 129.943 33.84 128.951 33.136C127.975 32.416 127.487 31.448 127.487 30.232C127.487 29.096 127.895 28.088 128.711 27.208C129.527 26.312 130.807 25.448 132.551 24.616C132.135 24.056 131.823 23.52 131.615 23.008C131.407 22.48 131.303 21.944 131.303 21.4C131.303 20.072 131.767 19.016 132.695 18.232C133.623 17.448 134.807 17.056 136.247 17.056C137.415 17.056 138.359 17.336 139.079 17.896C139.799 18.44 140.159 19.192 140.159 20.152C140.159 21.176 139.799 22.056 139.079 22.792C138.375 23.528 137.231 24.272 135.647 25.024L138.959 29.104C139.631 28.208 140.183 27.184 140.615 26.032L142.415 26.632ZM136.175 18.736C135.343 18.736 134.671 18.96 134.159 19.408C133.663 19.84 133.415 20.432 133.415 21.184C133.415 21.552 133.503 21.936 133.679 22.336C133.871 22.736 134.167 23.192 134.567 23.704C135.511 23.256 136.239 22.864 136.751 22.528C137.279 22.176 137.647 21.832 137.855 21.496C138.079 21.16 138.191 20.776 138.191 20.344C138.191 19.88 138.007 19.496 137.639 19.192C137.287 18.888 136.799 18.736 136.175 18.736ZM133.079 32.272C134.695 32.272 136.159 31.736 137.471 30.664L133.631 25.96C132.239 26.632 131.247 27.256 130.655 27.832C130.079 28.408 129.791 29.08 129.791 29.848C129.791 30.568 130.079 31.152 130.655 31.6C131.231 32.048 132.039 32.272 133.079 32.272ZM154.37 17.2H160.946C162.626 17.2 164.066 17.488 165.266 18.064C166.482 18.624 167.402 19.424 168.026 20.464C168.666 21.488 168.986 22.696 168.986 24.088C168.986 26.04 168.546 27.768 167.666 29.272C166.802 30.776 165.578 31.944 163.994 32.776C162.426 33.592 160.602 34 158.522 34H151.01L154.37 17.2ZM158.594 31.912C160.21 31.912 161.618 31.584 162.818 30.928C164.018 30.272 164.938 29.368 165.578 28.216C166.234 27.048 166.562 25.72 166.562 24.232C166.562 22.68 166.066 21.472 165.074 20.608C164.082 19.728 162.626 19.288 160.706 19.288H156.338L153.818 31.912H158.594ZM185.022 21.28L182.502 34H180.294L180.606 32.44C180.03 32.984 179.358 33.408 178.59 33.712C177.838 34 177.014 34.144 176.118 34.144C175.03 34.144 174.062 33.928 173.214 33.496C172.366 33.048 171.702 32.408 171.222 31.576C170.742 30.744 170.502 29.768 170.502 28.648C170.502 27.208 170.814 25.92 171.438 24.784C172.062 23.648 172.918 22.76 174.006 22.12C175.11 21.48 176.342 21.16 177.702 21.16C178.79 21.16 179.718 21.352 180.486 21.736C181.27 22.12 181.87 22.688 182.286 23.44L182.718 21.28H185.022ZM176.622 32.128C177.566 32.128 178.414 31.904 179.166 31.456C179.934 30.992 180.526 30.352 180.942 29.536C181.374 28.72 181.59 27.792 181.59 26.752C181.59 25.616 181.262 24.736 180.606 24.112C179.95 23.488 179.014 23.176 177.798 23.176C176.854 23.176 176.006 23.408 175.254 23.872C174.502 24.32 173.91 24.952 173.478 25.768C173.046 26.584 172.83 27.512 172.83 28.552C172.83 29.672 173.158 30.552 173.814 31.192C174.486 31.816 175.422 32.128 176.622 32.128ZM190.293 29.944C190.245 30.184 190.221 30.408 190.221 30.616C190.221 31.128 190.357 31.52 190.629 31.792C190.917 32.064 191.341 32.2 191.901 32.2C192.573 32.2 193.181 32 193.725 31.6L194.205 33.352C193.437 33.88 192.453 34.144 191.253 34.144C190.245 34.144 189.429 33.864 188.805 33.304C188.197 32.728 187.893 31.944 187.893 30.952C187.893 30.616 187.925 30.296 187.989 29.992L189.357 23.176H187.197L187.557 21.28H189.741L190.293 18.496H192.597L192.045 21.28H195.693L195.309 23.176H191.661L190.293 29.944ZM210.897 21.28L208.377 34H206.169L206.481 32.44C205.905 32.984 205.233 33.408 204.465 33.712C203.713 34 202.889 34.144 201.993 34.144C200.905 34.144 199.937 33.928 199.089 33.496C198.241 33.048 197.577 32.408 197.097 31.576C196.617 30.744 196.377 29.768 196.377 28.648C196.377 27.208 196.689 25.92 197.313 24.784C197.937 23.648 198.793 22.76 199.881 22.12C200.985 21.48 202.217 21.16 203.577 21.16C204.665 21.16 205.593 21.352 206.361 21.736C207.145 22.12 207.745 22.688 208.161 23.44L208.593 21.28H210.897ZM202.497 32.128C203.441 32.128 204.289 31.904 205.041 31.456C205.809 30.992 206.401 30.352 206.817 29.536C207.249 28.72 207.465 27.792 207.465 26.752C207.465 25.616 207.137 24.736 206.481 24.112C205.825 23.488 204.889 23.176 203.673 23.176C202.729 23.176 201.881 23.408 201.129 23.872C200.377 24.32 199.785 24.952 199.353 25.768C198.921 26.584 198.705 27.512 198.705 28.552C198.705 29.672 199.033 30.552 199.689 31.192C200.361 31.816 201.297 32.128 202.497 32.128ZM237.47 17.2L226.718 34H224.366L220.334 17.2H222.806L226.07 31.024L234.974 17.2H237.47ZM238.483 21.28H240.787L238.267 34H235.963L238.483 21.28ZM240.307 18.832C239.891 18.832 239.547 18.696 239.275 18.424C239.003 18.152 238.867 17.824 238.867 17.44C238.867 16.992 239.019 16.616 239.323 16.312C239.643 15.992 240.043 15.832 240.523 15.832C240.939 15.832 241.283 15.968 241.555 16.24C241.843 16.496 241.987 16.808 241.987 17.176C241.987 17.672 241.827 18.072 241.507 18.376C241.203 18.68 240.803 18.832 240.307 18.832ZM246.674 34.144C245.618 34.144 244.61 34.008 243.65 33.736C242.706 33.464 241.97 33.112 241.442 32.68L242.474 30.856C242.97 31.256 243.61 31.576 244.394 31.816C245.194 32.04 246.026 32.152 246.89 32.152C247.978 32.152 248.802 31.992 249.362 31.672C249.938 31.336 250.226 30.872 250.226 30.28C250.226 29.8 249.994 29.456 249.53 29.248C249.082 29.04 248.378 28.832 247.418 28.624C246.522 28.432 245.786 28.24 245.21 28.048C244.65 27.84 244.17 27.52 243.77 27.088C243.37 26.64 243.17 26.04 243.17 25.288C243.17 24.456 243.402 23.728 243.866 23.104C244.346 22.48 245.018 22 245.882 21.664C246.762 21.328 247.778 21.16 248.93 21.16C249.778 21.16 250.602 21.264 251.402 21.472C252.202 21.68 252.858 21.96 253.37 22.312L252.458 24.136C251.962 23.8 251.386 23.552 250.73 23.392C250.074 23.216 249.402 23.128 248.714 23.128C247.674 23.128 246.874 23.304 246.314 23.656C245.754 23.992 245.474 24.448 245.474 25.024C245.474 25.536 245.706 25.904 246.17 26.128C246.634 26.336 247.354 26.544 248.33 26.752C249.21 26.944 249.93 27.136 250.49 27.328C251.05 27.52 251.522 27.832 251.906 28.264C252.306 28.696 252.506 29.28 252.506 30.016C252.506 31.312 251.97 32.328 250.898 33.064C249.842 33.784 248.434 34.144 246.674 34.144ZM269.066 21.28L266.546 34H264.338L264.65 32.368C264.074 32.96 263.394 33.408 262.61 33.712C261.842 34 261.002 34.144 260.09 34.144C258.682 34.144 257.57 33.768 256.754 33.016C255.938 32.264 255.53 31.216 255.53 29.872C255.53 29.424 255.578 28.936 255.674 28.408L257.09 21.28H259.394L257.978 28.432C257.898 28.864 257.858 29.224 257.858 29.512C257.858 30.344 258.098 30.984 258.578 31.432C259.074 31.864 259.802 32.08 260.762 32.08C261.978 32.08 262.986 31.736 263.786 31.048C264.602 30.36 265.146 29.352 265.418 28.024L266.762 21.28H269.066ZM285.428 21.28L282.908 34H280.7L281.012 32.44C280.436 32.984 279.764 33.408 278.996 33.712C278.244 34 277.42 34.144 276.524 34.144C275.436 34.144 274.468 33.928 273.62 33.496C272.772 33.048 272.108 32.408 271.628 31.576C271.148 30.744 270.908 29.768 270.908 28.648C270.908 27.208 271.22 25.92 271.844 24.784C272.468 23.648 273.324 22.76 274.412 22.12C275.516 21.48 276.748 21.16 278.108 21.16C279.196 21.16 280.124 21.352 280.892 21.736C281.676 22.12 282.276 22.688 282.692 23.44L283.124 21.28H285.428ZM277.028 32.128C277.972 32.128 278.82 31.904 279.572 31.456C280.34 30.992 280.932 30.352 281.348 29.536C281.78 28.72 281.996 27.792 281.996 26.752C281.996 25.616 281.668 24.736 281.012 24.112C280.356 23.488 279.42 23.176 278.204 23.176C277.26 23.176 276.412 23.408 275.66 23.872C274.908 24.32 274.316 24.952 273.884 25.768C273.452 26.584 273.236 27.512 273.236 28.552C273.236 29.672 273.564 30.552 274.22 31.192C274.892 31.816 275.828 32.128 277.028 32.128ZM290.843 16.192H293.147L289.595 34H287.291L290.843 16.192ZM296.515 21.28H298.819L296.299 34H293.995L296.515 21.28ZM298.339 18.832C297.923 18.832 297.579 18.696 297.307 18.424C297.035 18.152 296.899 17.824 296.899 17.44C296.899 16.992 297.051 16.616 297.355 16.312C297.675 15.992 298.075 15.832 298.555 15.832C298.971 15.832 299.315 15.968 299.587 16.24C299.875 16.496 300.019 16.808 300.019 17.176C300.019 17.672 299.859 18.072 299.539 18.376C299.235 18.68 298.835 18.832 298.339 18.832ZM312.146 22.792L302.882 32.104H310.466L310.082 34H299.426L299.738 32.512L309.002 23.176H301.802L302.162 21.28H312.458L312.146 22.792ZM327.522 21.28L325.002 34H322.794L323.106 32.44C322.53 32.984 321.858 33.408 321.09 33.712C320.338 34 319.514 34.144 318.618 34.144C317.53 34.144 316.562 33.928 315.714 33.496C314.866 33.048 314.202 32.408 313.722 31.576C313.242 30.744 313.002 29.768 313.002 28.648C313.002 27.208 313.314 25.92 313.938 24.784C314.562 23.648 315.418 22.76 316.506 22.12C317.61 21.48 318.842 21.16 320.202 21.16C321.29 21.16 322.218 21.352 322.986 21.736C323.77 22.12 324.37 22.688 324.786 23.44L325.218 21.28H327.522ZM319.122 32.128C320.066 32.128 320.914 31.904 321.666 31.456C322.434 30.992 323.026 30.352 323.442 29.536C323.874 28.72 324.09 27.792 324.09 26.752C324.09 25.616 323.762 24.736 323.106 24.112C322.45 23.488 321.514 23.176 320.298 23.176C319.354 23.176 318.506 23.408 317.754 23.872C317.002 24.32 316.41 24.952 315.978 25.768C315.546 26.584 315.33 27.512 315.33 28.552C315.33 29.672 315.658 30.552 316.314 31.192C316.986 31.816 317.922 32.128 319.122 32.128ZM332.793 29.944C332.745 30.184 332.721 30.408 332.721 30.616C332.721 31.128 332.857 31.52 333.129 31.792C333.417 32.064 333.841 32.2 334.401 32.2C335.073 32.2 335.681 32 336.225 31.6L336.705 33.352C335.937 33.88 334.953 34.144 333.753 34.144C332.745 34.144 331.929 33.864 331.305 33.304C330.697 32.728 330.393 31.944 330.393 30.952C330.393 30.616 330.425 30.296 330.489 29.992L331.857 23.176H329.697L330.057 21.28H332.241L332.793 18.496H335.097L334.545 21.28H338.193L337.809 23.176H334.161L332.793 29.944ZM341.843 21.28H344.147L341.627 34H339.323L341.843 21.28ZM343.667 18.832C343.251 18.832 342.907 18.696 342.635 18.424C342.363 18.152 342.227 17.824 342.227 17.44C342.227 16.992 342.379 16.616 342.683 16.312C343.003 15.992 343.403 15.832 343.883 15.832C344.299 15.832 344.643 15.968 344.915 16.24C345.203 16.496 345.347 16.808 345.347 17.176C345.347 17.672 345.187 18.072 344.867 18.376C344.563 18.68 344.163 18.832 343.667 18.832ZM351.978 34.144C350.778 34.144 349.73 33.92 348.834 33.472C347.938 33.008 347.242 32.36 346.746 31.528C346.25 30.696 346.002 29.736 346.002 28.648C346.002 27.224 346.322 25.944 346.962 24.808C347.602 23.672 348.49 22.784 349.626 22.144C350.762 21.488 352.042 21.16 353.466 21.16C354.666 21.16 355.714 21.384 356.61 21.832C357.506 22.28 358.194 22.92 358.674 23.752C359.17 24.568 359.418 25.528 359.418 26.632C359.418 28.056 359.098 29.344 358.458 30.496C357.818 31.632 356.93 32.528 355.794 33.184C354.674 33.824 353.402 34.144 351.978 34.144ZM352.122 32.128C353.066 32.128 353.914 31.904 354.666 31.456C355.434 30.992 356.026 30.352 356.442 29.536C356.874 28.72 357.09 27.792 357.09 26.752C357.09 25.616 356.762 24.736 356.106 24.112C355.45 23.488 354.514 23.176 353.298 23.176C352.354 23.176 351.506 23.408 350.754 23.872C350.002 24.32 349.41 24.952 348.978 25.768C348.546 26.584 348.33 27.512 348.33 28.552C348.33 29.672 348.658 30.552 349.314 31.192C349.986 31.816 350.922 32.128 352.122 32.128ZM370.284 21.16C371.74 21.16 372.868 21.528 373.668 22.264C374.484 23 374.892 24.04 374.892 25.384C374.892 25.848 374.844 26.344 374.748 26.872L373.332 34H371.028L372.444 26.872C372.524 26.44 372.564 26.088 372.564 25.816C372.564 24.984 372.316 24.344 371.82 23.896C371.324 23.448 370.588 23.224 369.612 23.224C368.364 23.224 367.332 23.568 366.516 24.256C365.716 24.928 365.18 25.936 364.908 27.28L363.564 34H361.26L363.78 21.28H365.988L365.676 22.912C366.828 21.744 368.364 21.16 370.284 21.16Z" fill="#202020"/>
<circle cx="490.242" cy="24.2425" r="23.2425" fill="white" stroke="#C4C4C4" stroke-width="2"/>
<path d="M483.641 30.8206C482.669 30.8206 481.727 30.6826 480.815 30.4066C479.915 30.1306 479.201 29.7646 478.673 29.3086L479.483 27.4906C479.999 27.8986 480.629 28.2346 481.373 28.4986C482.129 28.7506 482.885 28.8766 483.641 28.8766C484.577 28.8766 485.273 28.7266 485.729 28.4266C486.197 28.1266 486.431 27.7306 486.431 27.2386C486.431 26.8786 486.299 26.5846 486.035 26.3566C485.783 26.1166 485.459 25.9306 485.063 25.7986C484.667 25.6666 484.127 25.5166 483.443 25.3486C482.483 25.1206 481.703 24.8926 481.103 24.6646C480.515 24.4366 480.005 24.0826 479.573 23.6026C479.153 23.1106 478.943 22.4506 478.943 21.6226C478.943 20.9266 479.129 20.2966 479.501 19.7326C479.885 19.1566 480.455 18.7006 481.211 18.3646C481.979 18.0286 482.915 17.8606 484.019 17.8606C484.787 17.8606 485.543 17.9566 486.287 18.1486C487.031 18.3406 487.673 18.6166 488.213 18.9766L487.475 20.7946C486.923 20.4706 486.347 20.2246 485.747 20.0566C485.147 19.8886 484.565 19.8046 484.001 19.8046C483.077 19.8046 482.387 19.9606 481.931 20.2726C481.487 20.5846 481.265 20.9986 481.265 21.5146C481.265 21.8746 481.391 22.1686 481.643 22.3966C481.907 22.6246 482.237 22.8046 482.633 22.9366C483.029 23.0686 483.569 23.2186 484.253 23.3866C485.189 23.6026 485.957 23.8306 486.557 24.0706C487.157 24.2986 487.667 24.6526 488.087 25.1326C488.519 25.6126 488.735 26.2606 488.735 27.0766C488.735 27.7726 488.543 28.4026 488.159 28.9666C487.787 29.5306 487.217 29.9806 486.449 30.3166C485.681 30.6526 484.745 30.8206 483.641 30.8206ZM496.887 30.8206C495.615 30.8206 494.463 30.5446 493.431 29.9926C492.411 29.4286 491.607 28.6546 491.019 27.6706C490.443 26.6866 490.155 25.5766 490.155 24.3406C490.155 23.1046 490.449 21.9946 491.037 21.0106C491.625 20.0266 492.429 19.2586 493.449 18.7066C494.481 18.1426 495.633 17.8606 496.905 17.8606C497.937 17.8606 498.879 18.0406 499.731 18.4006C500.583 18.7606 501.303 19.2826 501.891 19.9666L500.379 21.3886C499.467 20.4046 498.345 19.9126 497.013 19.9126C496.149 19.9126 495.375 20.1046 494.691 20.4886C494.007 20.8606 493.473 21.3826 493.089 22.0546C492.705 22.7266 492.513 23.4886 492.513 24.3406C492.513 25.1926 492.705 25.9546 493.089 26.6266C493.473 27.2986 494.007 27.8266 494.691 28.2106C495.375 28.5826 496.149 28.7686 497.013 28.7686C498.345 28.7686 499.467 28.2706 500.379 27.2746L501.891 28.7146C501.303 29.3986 500.577 29.9206 499.713 30.2806C498.861 30.6406 497.919 30.8206 496.887 30.8206Z" fill="#202020"/>
<circle cx="453.242" cy="24.2425" r="24.2425" fill="#99CC99"/>
<path d="M455.333 31.9006C454.913 32.3926 454.421 32.7646 453.857 33.0166C453.305 33.2686 452.699 33.3946 452.039 33.3946C451.175 33.3946 450.383 33.1966 449.663 32.8006C448.943 32.4166 448.121 31.7446 447.197 30.7846C446.033 30.6886 444.989 30.3526 444.065 29.7766C443.141 29.1886 442.421 28.4266 441.905 27.4906C441.389 26.5426 441.131 25.4926 441.131 24.3406C441.131 23.1166 441.425 22.0126 442.013 21.0286C442.601 20.0326 443.411 19.2586 444.443 18.7066C445.475 18.1426 446.633 17.8606 447.917 17.8606C449.201 17.8606 450.359 18.1426 451.391 18.7066C452.423 19.2586 453.233 20.0266 453.821 21.0106C454.409 21.9946 454.703 23.1046 454.703 24.3406C454.703 25.3366 454.505 26.2606 454.109 27.1126C453.713 27.9526 453.161 28.6726 452.453 29.2726C451.745 29.8606 450.923 30.2866 449.987 30.5506C450.335 30.9226 450.677 31.1926 451.013 31.3606C451.349 31.5286 451.709 31.6126 452.093 31.6126C452.921 31.6126 453.641 31.2766 454.253 30.6046L455.333 31.9006ZM443.489 24.3406C443.489 25.1806 443.681 25.9426 444.065 26.6266C444.449 27.2986 444.977 27.8266 445.649 28.2106C446.321 28.5826 447.077 28.7686 447.917 28.7686C448.757 28.7686 449.513 28.5826 450.185 28.2106C450.857 27.8266 451.385 27.2986 451.769 26.6266C452.153 25.9426 452.345 25.1806 452.345 24.3406C452.345 23.5006 452.153 22.7446 451.769 22.0726C451.385 21.3886 450.857 20.8606 450.185 20.4886C449.513 20.1046 448.757 19.9126 447.917 19.9126C447.077 19.9126 446.321 20.1046 445.649 20.4886C444.977 20.8606 444.449 21.3886 444.065 22.0726C443.681 22.7446 443.489 23.5006 443.489 24.3406ZM459.564 20.0206H455.388V18.0406H466.08V20.0206H461.904V30.6406H459.564V20.0206Z" fill="#202020"/>
<circle cx="415.242" cy="24.2425" r="24.2425" fill="#E06B65"/>
<path d="M407.429 25.3666L405.431 27.4186V30.6406H403.091V18.0406H405.431V24.5026L411.659 18.0406H414.287L408.995 23.6746L414.611 30.6406H411.875L407.429 25.3666ZM427.4 18.0406V30.6406H425.06V25.2406H418.544V30.6406H416.204V18.0406H418.544V23.2426H425.06V18.0406H427.4Z" fill="#202020"/>
</svg>
