<svg width="49" height="49" viewBox="0 0 49 49" fill="none" xmlns="http://www.w3.org/2000/svg">
<circle cx="24.2425" cy="24.2425" r="24.2425" fill="#99CCFF"/>
<path d="M21.7325 30.6406L19.1585 26.9506C19.0505 26.9626 18.8885 26.9686 18.6725 26.9686H15.8285V30.6406H13.4885V18.0406H18.6725C19.7645 18.0406 20.7125 18.2206 21.5165 18.5806C22.3325 18.9406 22.9565 19.4566 23.3885 20.1286C23.8205 20.8006 24.0365 21.5986 24.0365 22.5226C24.0365 23.4706 23.8025 24.2866 23.3345 24.9706C22.8785 25.6546 22.2185 26.1646 21.3545 26.5006L24.2525 30.6406H21.7325ZM21.6785 22.5226C21.6785 21.7186 21.4145 21.1006 20.8865 20.6686C20.3585 20.2366 19.5845 20.0206 18.5645 20.0206H15.8285V25.0426H18.5645C19.5845 25.0426 20.3585 24.8266 20.8865 24.3946C21.4145 23.9506 21.6785 23.3266 21.6785 22.5226ZM31.9147 26.1946V30.6406H29.5747V26.2306L24.6247 18.0406H27.1267L30.8167 24.1786L34.5427 18.0406H36.8467L31.9147 26.1946Z" fill="#202020"/>
</svg>
