<svg width="127" height="49" viewBox="0 0 127 49" fill="none" xmlns="http://www.w3.org/2000/svg">
<circle cx="102.242" cy="24.2425" r="24.2425" fill="#EED0BE"/>
<path d="M98.5011 27.7241H92.2011L90.9591 30.6401H88.5471L94.2171 18.0401H96.5211L102.209 30.6401H99.7611L98.5011 27.7241ZM97.7271 25.8881L95.3511 20.3801L92.9931 25.8881H97.7271ZM112.24 24.1961H114.454V29.2181C113.806 29.7341 113.05 30.1301 112.186 30.4061C111.322 30.6821 110.434 30.8201 109.522 30.8201C108.238 30.8201 107.08 30.5441 106.048 29.9921C105.016 29.4281 104.206 28.6541 103.618 27.6701C103.03 26.6861 102.736 25.5761 102.736 24.3401C102.736 23.1041 103.03 21.9941 103.618 21.0101C104.206 20.0261 105.016 19.2581 106.048 18.7061C107.092 18.1421 108.262 17.8601 109.558 17.8601C110.614 17.8601 111.574 18.0341 112.438 18.3821C113.302 18.7301 114.028 19.2401 114.616 19.9121L113.14 21.3521C112.18 20.3921 111.022 19.9121 109.666 19.9121C108.778 19.9121 107.986 20.0981 107.29 20.4701C106.606 20.8421 106.066 21.3641 105.67 22.0361C105.286 22.7081 105.094 23.4761 105.094 24.3401C105.094 25.1801 105.286 25.9361 105.67 26.6081C106.066 27.2801 106.606 27.8081 107.29 28.1921C107.986 28.5761 108.772 28.7681 109.648 28.7681C110.632 28.7681 111.496 28.5521 112.24 28.1201V24.1961Z" fill="white"/>
<circle cx="64.2425" cy="24.2425" r="24.2425" fill="#343434"/>
<path d="M62.2854 24.0881C62.9814 24.3161 63.5334 24.7001 63.9414 25.2401C64.3494 25.7681 64.5534 26.4281 64.5534 27.2201C64.5534 28.3121 64.1334 29.1581 63.2934 29.7581C62.4534 30.3461 61.2294 30.6401 59.6214 30.6401H53.3574V18.0401H59.2614C60.7494 18.0401 61.8954 18.3341 62.6994 18.9221C63.5034 19.4981 63.9054 20.2961 63.9054 21.3161C63.9054 21.9401 63.7614 22.4921 63.4734 22.9721C63.1854 23.4521 62.7894 23.8241 62.2854 24.0881ZM55.6974 19.8761V23.3501H59.0094C59.8254 23.3501 60.4494 23.2061 60.8814 22.9181C61.3254 22.6181 61.5474 22.1861 61.5474 21.6221C61.5474 21.0461 61.3254 20.6141 60.8814 20.3261C60.4494 20.0261 59.8254 19.8761 59.0094 19.8761H55.6974ZM59.4774 28.8041C61.2894 28.8041 62.1954 28.1981 62.1954 26.9861C62.1954 25.7741 61.2894 25.1681 59.4774 25.1681H55.6974V28.8041H59.4774ZM69.3908 20.0021V23.8361H75.4748V25.8161H69.3908V30.6401H67.0508V18.0401H76.2488V20.0021H69.3908Z" fill="white"/>
<circle cx="24.2425" cy="24.2425" r="23.7425" fill="#F7D6A4" stroke="#BDBDBD"/>
<path d="M17.6413 30.8201C16.6693 30.8201 15.7273 30.6821 14.8153 30.4061C13.9153 30.1301 13.2013 29.7641 12.6733 29.3081L13.4833 27.4901C13.9993 27.8981 14.6293 28.2341 15.3733 28.4981C16.1293 28.7501 16.8853 28.8761 17.6413 28.8761C18.5773 28.8761 19.2733 28.7261 19.7293 28.4261C20.1973 28.1261 20.4313 27.7301 20.4313 27.2381C20.4313 26.8781 20.2993 26.5841 20.0353 26.3561C19.7833 26.1161 19.4593 25.9301 19.0633 25.7981C18.6673 25.6661 18.1273 25.5161 17.4433 25.3481C16.4833 25.1201 15.7033 24.8921 15.1033 24.6641C14.5153 24.4361 14.0053 24.0821 13.5733 23.6021C13.1533 23.1101 12.9433 22.4501 12.9433 21.6221C12.9433 20.9261 13.1293 20.2961 13.5013 19.7321C13.8853 19.1561 14.4553 18.7001 15.2113 18.3641C15.9793 18.0281 16.9153 17.8601 18.0193 17.8601C18.7873 17.8601 19.5433 17.9561 20.2873 18.1481C21.0313 18.3401 21.6733 18.6161 22.2133 18.9761L21.4753 20.7941C20.9233 20.4701 20.3473 20.2241 19.7473 20.0561C19.1473 19.8881 18.5653 19.8041 18.0013 19.8041C17.0773 19.8041 16.3873 19.9601 15.9313 20.2721C15.4873 20.5841 15.2653 20.9981 15.2653 21.5141C15.2653 21.8741 15.3913 22.1681 15.6433 22.3961C15.9073 22.6241 16.2373 22.8041 16.6333 22.9361C17.0293 23.0681 17.5693 23.2181 18.2533 23.3861C19.1893 23.6021 19.9573 23.8301 20.5573 24.0701C21.1573 24.2981 21.6673 24.6521 22.0873 25.1321C22.5193 25.6121 22.7353 26.2601 22.7353 27.0761C22.7353 27.7721 22.5433 28.4021 22.1593 28.9661C21.7873 29.5301 21.2173 29.9801 20.4493 30.3161C19.6813 30.6521 18.7453 30.8201 17.6413 30.8201ZM30.8876 30.8201C29.6156 30.8201 28.4636 30.5441 27.4316 29.9921C26.4116 29.4281 25.6076 28.6541 25.0196 27.6701C24.4436 26.6861 24.1556 25.5761 24.1556 24.3401C24.1556 23.1041 24.4496 21.9941 25.0376 21.0101C25.6256 20.0261 26.4296 19.2581 27.4496 18.7061C28.4816 18.1421 29.6336 17.8601 30.9056 17.8601C31.9376 17.8601 32.8796 18.0401 33.7316 18.4001C34.5836 18.7601 35.3036 19.2821 35.8916 19.9661L34.3796 21.3881C33.4676 20.4041 32.3456 19.9121 31.0136 19.9121C30.1496 19.9121 29.3756 20.1041 28.6916 20.4881C28.0076 20.8601 27.4736 21.3821 27.0896 22.0541C26.7056 22.7261 26.5136 23.4881 26.5136 24.3401C26.5136 25.1921 26.7056 25.9541 27.0896 26.6261C27.4736 27.2981 28.0076 27.8261 28.6916 28.2101C29.3756 28.5821 30.1496 28.7681 31.0136 28.7681C32.3456 28.7681 33.4676 28.2701 34.3796 27.2741L35.8916 28.7141C35.3036 29.3981 34.5776 29.9201 33.7136 30.2801C32.8616 30.6401 31.9196 30.8201 30.8876 30.8201Z" fill="#202020"/>
</svg>
