<svg width="87" height="49" viewBox="0 0 87 49" fill="none" xmlns="http://www.w3.org/2000/svg">
<circle cx="62.2425" cy="24.2425" r="24.2425" fill="#E06B65"/>
<path d="M54.429 25.3666L52.431 27.4186V30.6406H50.091V18.0406H52.431V24.5026L58.659 18.0406H61.287L55.995 23.6746L61.611 30.6406H58.875L54.429 25.3666ZM74.4003 18.0406V30.6406H72.0603V25.2406H65.5443V30.6406H63.2043V18.0406H65.5443V23.2426H72.0603V18.0406H74.4003Z" fill="#202020"/>
<circle cx="24.2425" cy="24.2425" r="24.2425" fill="#FFF599"/>
<path d="M23.7288 28.6606V30.6406H12.9828V29.0746L20.3988 20.0206H13.1088V18.0406H23.4948V19.6066L16.0788 28.6606H23.7288ZM35.3223 28.6786V30.6406H25.8723V18.0406H35.0703V20.0026H28.2123V23.2786H34.2963V25.2046H28.2123V28.6786H35.3223Z" fill="#202020"/>
</svg>
