<svg width="124" height="49" viewBox="0 0 124 49" fill="none" xmlns="http://www.w3.org/2000/svg">
<circle cx="99.2425" cy="24.2425" r="23.2425" fill="#F7D6A4" stroke="#C4C4C4" stroke-width="2"/>
<path d="M92.6413 30.8203C91.6693 30.8203 90.7273 30.6823 89.8153 30.4063C88.9153 30.1303 88.2013 29.7643 87.6733 29.3083L88.4833 27.4903C88.9993 27.8983 89.6293 28.2343 90.3733 28.4983C91.1293 28.7503 91.8853 28.8763 92.6413 28.8763C93.5773 28.8763 94.2733 28.7263 94.7293 28.4263C95.1973 28.1263 95.4313 27.7303 95.4313 27.2383C95.4313 26.8783 95.2993 26.5843 95.0353 26.3563C94.7833 26.1163 94.4593 25.9303 94.0633 25.7983C93.6673 25.6663 93.1273 25.5163 92.4433 25.3483C91.4833 25.1203 90.7033 24.8923 90.1033 24.6643C89.5153 24.4363 89.0053 24.0823 88.5733 23.6023C88.1533 23.1103 87.9433 22.4503 87.9433 21.6223C87.9433 20.9263 88.1293 20.2963 88.5013 19.7323C88.8853 19.1563 89.4553 18.7003 90.2113 18.3643C90.9793 18.0283 91.9153 17.8603 93.0193 17.8603C93.7873 17.8603 94.5433 17.9563 95.2873 18.1483C96.0313 18.3403 96.6733 18.6163 97.2133 18.9763L96.4753 20.7943C95.9233 20.4703 95.3473 20.2243 94.7473 20.0563C94.1473 19.8883 93.5653 19.8043 93.0013 19.8043C92.0773 19.8043 91.3873 19.9603 90.9313 20.2723C90.4873 20.5843 90.2653 20.9983 90.2653 21.5143C90.2653 21.8743 90.3913 22.1683 90.6433 22.3963C90.9073 22.6243 91.2373 22.8043 91.6333 22.9363C92.0293 23.0683 92.5693 23.2183 93.2533 23.3863C94.1893 23.6023 94.9573 23.8303 95.5573 24.0703C96.1573 24.2983 96.6673 24.6523 97.0873 25.1323C97.5193 25.6123 97.7353 26.2603 97.7353 27.0763C97.7353 27.7723 97.5433 28.4023 97.1593 28.9663C96.7873 29.5303 96.2173 29.9803 95.4493 30.3163C94.6813 30.6523 93.7453 30.8203 92.6413 30.8203ZM105.888 30.8203C104.616 30.8203 103.464 30.5443 102.432 29.9923C101.412 29.4283 100.608 28.6543 100.02 27.6703C99.4436 26.6863 99.1556 25.5763 99.1556 24.3403C99.1556 23.1043 99.4496 21.9943 100.038 21.0103C100.626 20.0263 101.43 19.2583 102.45 18.7063C103.482 18.1423 104.634 17.8603 105.906 17.8603C106.938 17.8603 107.88 18.0403 108.732 18.4003C109.584 18.7603 110.304 19.2823 110.892 19.9663L109.38 21.3883C108.468 20.4043 107.346 19.9123 106.014 19.9123C105.15 19.9123 104.376 20.1043 103.692 20.4883C103.008 20.8603 102.474 21.3823 102.09 22.0543C101.706 22.7263 101.514 23.4883 101.514 24.3403C101.514 25.1923 101.706 25.9543 102.09 26.6263C102.474 27.2983 103.008 27.8263 103.692 28.2103C104.376 28.5823 105.15 28.7683 106.014 28.7683C107.346 28.7683 108.468 28.2703 109.38 27.2743L110.892 28.7143C110.304 29.3983 109.578 29.9203 108.714 30.2803C107.862 30.6403 106.92 30.8203 105.888 30.8203Z" fill="#202020"/>
<circle cx="62.2425" cy="24.2425" r="24.2425" fill="#99CC99"/>
<path d="M64.3342 31.9003C63.9142 32.3923 63.4222 32.7643 62.8582 33.0163C62.3062 33.2683 61.7002 33.3943 61.0402 33.3943C60.1762 33.3943 59.3842 33.1963 58.6642 32.8003C57.9442 32.4163 57.1222 31.7443 56.1982 30.7843C55.0342 30.6883 53.9902 30.3523 53.0662 29.7763C52.1422 29.1883 51.4222 28.4263 50.9062 27.4903C50.3902 26.5423 50.1322 25.4923 50.1322 24.3403C50.1322 23.1163 50.4262 22.0123 51.0142 21.0283C51.6022 20.0323 52.4122 19.2583 53.4442 18.7063C54.4762 18.1423 55.6342 17.8603 56.9182 17.8603C58.2022 17.8603 59.3602 18.1423 60.3922 18.7063C61.4242 19.2583 62.2342 20.0263 62.8222 21.0103C63.4102 21.9943 63.7042 23.1043 63.7042 24.3403C63.7042 25.3363 63.5062 26.2603 63.1102 27.1123C62.7142 27.9523 62.1622 28.6723 61.4542 29.2723C60.7462 29.8603 59.9242 30.2863 58.9882 30.5503C59.3362 30.9223 59.6782 31.1923 60.0142 31.3603C60.3502 31.5283 60.7102 31.6123 61.0942 31.6123C61.9222 31.6123 62.6422 31.2763 63.2542 30.6043L64.3342 31.9003ZM52.4902 24.3403C52.4902 25.1803 52.6822 25.9423 53.0662 26.6263C53.4502 27.2983 53.9782 27.8263 54.6502 28.2103C55.3222 28.5823 56.0782 28.7683 56.9182 28.7683C57.7582 28.7683 58.5142 28.5823 59.1862 28.2103C59.8582 27.8263 60.3862 27.2983 60.7702 26.6263C61.1542 25.9423 61.3462 25.1803 61.3462 24.3403C61.3462 23.5003 61.1542 22.7443 60.7702 22.0723C60.3862 21.3883 59.8582 20.8603 59.1862 20.4883C58.5142 20.1043 57.7582 19.9123 56.9182 19.9123C56.0782 19.9123 55.3222 20.1043 54.6502 20.4883C53.9782 20.8603 53.4502 21.3883 53.0662 22.0723C52.6822 22.7443 52.4902 23.5003 52.4902 24.3403ZM68.5648 20.0203H64.3888V18.0403H75.0808V20.0203H70.9048V30.6403H68.5648V20.0203Z" fill="#202020"/>
<circle cx="24.2425" cy="24.2425" r="24.2425" fill="#E06B65"/>
<path d="M16.4298 25.3663L14.4318 27.4183V30.6403H12.0918V18.0403H14.4318V24.5023L20.6598 18.0403H23.2878L17.9958 23.6743L23.6118 30.6403H20.8758L16.4298 25.3663ZM36.4011 18.0403V30.6403H34.0611V25.2403H27.5451V30.6403H25.2051V18.0403H27.5451V23.2423H34.0611V18.0403H36.4011Z" fill="#202020"/>
</svg>
