<svg width="124" height="49" viewBox="0 0 124 49" fill="none" xmlns="http://www.w3.org/2000/svg">
<circle cx="99.2425" cy="24.2425" r="23.2425" fill="white" stroke="#C4C4C4" stroke-width="2"/>
<path d="M92.6406 30.8206C91.6686 30.8206 90.7266 30.6826 89.8146 30.4066C88.9146 30.1306 88.2006 29.7646 87.6726 29.3086L88.4826 27.4906C88.9986 27.8986 89.6286 28.2346 90.3726 28.4986C91.1286 28.7506 91.8846 28.8766 92.6406 28.8766C93.5766 28.8766 94.2726 28.7266 94.7286 28.4266C95.1966 28.1266 95.4306 27.7306 95.4306 27.2386C95.4306 26.8786 95.2986 26.5846 95.0346 26.3566C94.7826 26.1166 94.4586 25.9306 94.0626 25.7986C93.6666 25.6666 93.1266 25.5166 92.4426 25.3486C91.4826 25.1206 90.7026 24.8926 90.1026 24.6646C89.5146 24.4366 89.0046 24.0826 88.5726 23.6026C88.1526 23.1106 87.9426 22.4506 87.9426 21.6226C87.9426 20.9266 88.1286 20.2966 88.5006 19.7326C88.8846 19.1566 89.4546 18.7006 90.2106 18.3646C90.9786 18.0286 91.9146 17.8606 93.0186 17.8606C93.7866 17.8606 94.5426 17.9566 95.2866 18.1486C96.0306 18.3406 96.6726 18.6166 97.2126 18.9766L96.4746 20.7946C95.9226 20.4706 95.3466 20.2246 94.7466 20.0566C94.1466 19.8886 93.5646 19.8046 93.0006 19.8046C92.0766 19.8046 91.3866 19.9606 90.9306 20.2726C90.4866 20.5846 90.2646 20.9986 90.2646 21.5146C90.2646 21.8746 90.3906 22.1686 90.6426 22.3966C90.9066 22.6246 91.2366 22.8046 91.6326 22.9366C92.0286 23.0686 92.5686 23.2186 93.2526 23.3866C94.1886 23.6026 94.9566 23.8306 95.5566 24.0706C96.1566 24.2986 96.6666 24.6526 97.0866 25.1326C97.5186 25.6126 97.7346 26.2606 97.7346 27.0766C97.7346 27.7726 97.5426 28.4026 97.1586 28.9666C96.7866 29.5306 96.2166 29.9806 95.4486 30.3166C94.6806 30.6526 93.7446 30.8206 92.6406 30.8206ZM105.887 30.8206C104.615 30.8206 103.463 30.5446 102.431 29.9926C101.411 29.4286 100.607 28.6546 100.019 27.6706C99.4429 26.6866 99.1549 25.5766 99.1549 24.3406C99.1549 23.1046 99.4489 21.9946 100.037 21.0106C100.625 20.0266 101.429 19.2586 102.449 18.7066C103.481 18.1426 104.633 17.8606 105.905 17.8606C106.937 17.8606 107.879 18.0406 108.731 18.4006C109.583 18.7606 110.303 19.2826 110.891 19.9666L109.379 21.3886C108.467 20.4046 107.345 19.9126 106.013 19.9126C105.149 19.9126 104.375 20.1046 103.691 20.4886C103.007 20.8606 102.473 21.3826 102.089 22.0546C101.705 22.7266 101.513 23.4886 101.513 24.3406C101.513 25.1926 101.705 25.9546 102.089 26.6266C102.473 27.2986 103.007 27.8266 103.691 28.2106C104.375 28.5826 105.149 28.7686 106.013 28.7686C107.345 28.7686 108.467 28.2706 109.379 27.2746L110.891 28.7146C110.303 29.3986 109.577 29.9206 108.713 30.2806C107.861 30.6406 106.919 30.8206 105.887 30.8206Z" fill="#202020"/>
<circle cx="62.2425" cy="24.2425" r="24.2425" fill="#99CC99"/>
<path d="M64.3335 31.9006C63.9135 32.3926 63.4215 32.7646 62.8575 33.0166C62.3055 33.2686 61.6995 33.3946 61.0395 33.3946C60.1755 33.3946 59.3835 33.1966 58.6635 32.8006C57.9435 32.4166 57.1215 31.7446 56.1975 30.7846C55.0335 30.6886 53.9895 30.3526 53.0655 29.7766C52.1415 29.1886 51.4215 28.4266 50.9055 27.4906C50.3895 26.5426 50.1315 25.4926 50.1315 24.3406C50.1315 23.1166 50.4255 22.0126 51.0135 21.0286C51.6015 20.0326 52.4115 19.2586 53.4435 18.7066C54.4755 18.1426 55.6335 17.8606 56.9175 17.8606C58.2015 17.8606 59.3595 18.1426 60.3915 18.7066C61.4235 19.2586 62.2335 20.0266 62.8215 21.0106C63.4095 21.9946 63.7035 23.1046 63.7035 24.3406C63.7035 25.3366 63.5055 26.2606 63.1095 27.1126C62.7135 27.9526 62.1615 28.6726 61.4535 29.2726C60.7455 29.8606 59.9235 30.2866 58.9875 30.5506C59.3355 30.9226 59.6775 31.1926 60.0135 31.3606C60.3495 31.5286 60.7095 31.6126 61.0935 31.6126C61.9215 31.6126 62.6415 31.2766 63.2535 30.6046L64.3335 31.9006ZM52.4895 24.3406C52.4895 25.1806 52.6815 25.9426 53.0655 26.6266C53.4495 27.2986 53.9775 27.8266 54.6495 28.2106C55.3215 28.5826 56.0775 28.7686 56.9175 28.7686C57.7575 28.7686 58.5135 28.5826 59.1855 28.2106C59.8575 27.8266 60.3855 27.2986 60.7695 26.6266C61.1535 25.9426 61.3455 25.1806 61.3455 24.3406C61.3455 23.5006 61.1535 22.7446 60.7695 22.0726C60.3855 21.3886 59.8575 20.8606 59.1855 20.4886C58.5135 20.1046 57.7575 19.9126 56.9175 19.9126C56.0775 19.9126 55.3215 20.1046 54.6495 20.4886C53.9775 20.8606 53.4495 21.3886 53.0655 22.0726C52.6815 22.7446 52.4895 23.5006 52.4895 24.3406ZM68.564 20.0206H64.388V18.0406H75.08V20.0206H70.904V30.6406H68.564V20.0206Z" fill="#202020"/>
<circle cx="24.2425" cy="24.2425" r="24.2425" fill="#E06B65"/>
<path d="M16.429 25.3666L14.431 27.4186V30.6406H12.091V18.0406H14.431V24.5026L20.659 18.0406H23.287L17.995 23.6746L23.611 30.6406H20.875L16.429 25.3666ZM36.4003 18.0406V30.6406H34.0603V25.2406H27.5443V30.6406H25.2043V18.0406H27.5443V23.2426H34.0603V18.0406H36.4003Z" fill="#202020"/>
</svg>
