<svg width="196" height="49" viewBox="0 0 196 49" fill="none" xmlns="http://www.w3.org/2000/svg">
<circle cx="171.242" cy="24.2425" r="24.2425" fill="#EED0BE"/>
<path d="M167.501 27.7242H161.201L159.959 30.6402H157.547L163.217 18.0402H165.521L171.209 30.6402H168.761L167.501 27.7242ZM166.727 25.8882L164.351 20.3802L161.993 25.8882H166.727ZM181.24 24.1962H183.454V29.2182C182.806 29.7342 182.05 30.1302 181.186 30.4062C180.322 30.6822 179.434 30.8202 178.522 30.8202C177.238 30.8202 176.08 30.5442 175.048 29.9922C174.016 29.4282 173.206 28.6542 172.618 27.6702C172.03 26.6862 171.736 25.5762 171.736 24.3402C171.736 23.1042 172.03 21.9942 172.618 21.0102C173.206 20.0262 174.016 19.2582 175.048 18.7062C176.092 18.1422 177.262 17.8602 178.558 17.8602C179.614 17.8602 180.574 18.0342 181.438 18.3822C182.302 18.7302 183.028 19.2402 183.616 19.9122L182.14 21.3522C181.18 20.3922 180.022 19.9122 178.666 19.9122C177.778 19.9122 176.986 20.0982 176.29 20.4702C175.606 20.8422 175.066 21.3642 174.67 22.0362C174.286 22.7082 174.094 23.4762 174.094 24.3402C174.094 25.1802 174.286 25.9362 174.67 26.6082C175.066 27.2802 175.606 27.8082 176.29 28.1922C176.986 28.5762 177.772 28.7682 178.648 28.7682C179.632 28.7682 180.496 28.5522 181.24 28.1202V24.1962Z" fill="white"/>
<circle cx="133.242" cy="24.2425" r="24.2425" fill="#343434"/>
<path d="M131.285 24.0882C131.981 24.3162 132.533 24.7002 132.941 25.2402C133.349 25.7682 133.553 26.4282 133.553 27.2202C133.553 28.3122 133.133 29.1582 132.293 29.7582C131.453 30.3462 130.229 30.6402 128.621 30.6402H122.357V18.0402H128.261C129.749 18.0402 130.895 18.3342 131.699 18.9222C132.503 19.4982 132.905 20.2962 132.905 21.3162C132.905 21.9402 132.761 22.4922 132.473 22.9722C132.185 23.4522 131.789 23.8242 131.285 24.0882ZM124.697 19.8762V23.3502H128.009C128.825 23.3502 129.449 23.2062 129.881 22.9182C130.325 22.6182 130.547 22.1862 130.547 21.6222C130.547 21.0462 130.325 20.6142 129.881 20.3262C129.449 20.0262 128.825 19.8762 128.009 19.8762H124.697ZM128.477 28.8042C130.289 28.8042 131.195 28.1982 131.195 26.9862C131.195 25.7742 130.289 25.1682 128.477 25.1682H124.697V28.8042H128.477ZM138.391 20.0022V23.8362H144.475V25.8162H138.391V30.6402H136.051V18.0402H145.249V20.0022H138.391Z" fill="white"/>
<circle cx="93.2425" cy="24.2425" r="23.7425" fill="#F7D6A4" stroke="#BDBDBD"/>
<path d="M86.6413 30.8202C85.6693 30.8202 84.7273 30.6822 83.8153 30.4062C82.9153 30.1302 82.2013 29.7642 81.6733 29.3082L82.4833 27.4902C82.9993 27.8982 83.6293 28.2342 84.3733 28.4982C85.1293 28.7502 85.8853 28.8762 86.6413 28.8762C87.5773 28.8762 88.2733 28.7262 88.7293 28.4262C89.1973 28.1262 89.4313 27.7302 89.4313 27.2382C89.4313 26.8782 89.2993 26.5842 89.0353 26.3562C88.7833 26.1162 88.4593 25.9302 88.0633 25.7982C87.6673 25.6662 87.1273 25.5162 86.4433 25.3482C85.4833 25.1202 84.7033 24.8922 84.1033 24.6642C83.5153 24.4362 83.0053 24.0822 82.5733 23.6022C82.1533 23.1102 81.9433 22.4502 81.9433 21.6222C81.9433 20.9262 82.1293 20.2962 82.5013 19.7322C82.8853 19.1562 83.4553 18.7002 84.2113 18.3642C84.9793 18.0282 85.9153 17.8602 87.0193 17.8602C87.7873 17.8602 88.5433 17.9562 89.2873 18.1482C90.0313 18.3402 90.6733 18.6162 91.2133 18.9762L90.4753 20.7942C89.9233 20.4702 89.3473 20.2242 88.7473 20.0562C88.1473 19.8882 87.5653 19.8042 87.0013 19.8042C86.0773 19.8042 85.3873 19.9602 84.9313 20.2722C84.4873 20.5842 84.2653 20.9982 84.2653 21.5142C84.2653 21.8742 84.3913 22.1682 84.6433 22.3962C84.9073 22.6242 85.2373 22.8042 85.6333 22.9362C86.0293 23.0682 86.5693 23.2182 87.2533 23.3862C88.1893 23.6022 88.9573 23.8302 89.5573 24.0702C90.1573 24.2982 90.6673 24.6522 91.0873 25.1322C91.5193 25.6122 91.7353 26.2602 91.7353 27.0762C91.7353 27.7722 91.5433 28.4022 91.1593 28.9662C90.7873 29.5302 90.2173 29.9802 89.4493 30.3162C88.6813 30.6522 87.7453 30.8202 86.6413 30.8202ZM99.8876 30.8202C98.6156 30.8202 97.4636 30.5442 96.4316 29.9922C95.4116 29.4282 94.6076 28.6542 94.0196 27.6702C93.4436 26.6862 93.1556 25.5762 93.1556 24.3402C93.1556 23.1042 93.4496 21.9942 94.0376 21.0102C94.6256 20.0262 95.4296 19.2582 96.4496 18.7062C97.4816 18.1422 98.6336 17.8602 99.9056 17.8602C100.938 17.8602 101.88 18.0402 102.732 18.4002C103.584 18.7602 104.304 19.2822 104.892 19.9662L103.38 21.3882C102.468 20.4042 101.346 19.9122 100.014 19.9122C99.1496 19.9122 98.3756 20.1042 97.6916 20.4882C97.0076 20.8602 96.4736 21.3822 96.0896 22.0542C95.7056 22.7262 95.5136 23.4882 95.5136 24.3402C95.5136 25.1922 95.7056 25.9542 96.0896 26.6262C96.4736 27.2982 97.0076 27.8262 97.6916 28.2102C98.3756 28.5822 99.1496 28.7682 100.014 28.7682C101.346 28.7682 102.468 28.2702 103.38 27.2742L104.892 28.7142C104.304 29.3982 103.578 29.9202 102.714 30.2802C101.862 30.6402 100.92 30.8202 99.8876 30.8202Z" fill="#202020"/>
<circle cx="62.2425" cy="24.2425" r="24.2425" fill="#E06B65"/>
<path d="M54.4298 25.3662L52.4318 27.4182V30.6402H50.0918V18.0402H52.4318V24.5022L58.6598 18.0402H61.2878L55.9958 23.6742L61.6118 30.6402H58.8758L54.4298 25.3662ZM74.4011 18.0402V30.6402H72.0611V25.2402H65.5451V30.6402H63.2051V18.0402H65.5451V23.2422H72.0611V18.0402H74.4011Z" fill="#202020"/>
<circle cx="24.2425" cy="24.2425" r="24.2425" fill="#FFF599"/>
<path d="M23.7295 28.6602V30.6402H12.9835V29.0742L20.3995 20.0202H13.1095V18.0402H23.4955V19.6062L16.0795 28.6602H23.7295ZM35.323 28.6782V30.6402H25.873V18.0402H35.071V20.0022H28.213V23.2782H34.297V25.2042H28.213V28.6782H35.323Z" fill="#202020"/>
</svg>
