<svg width="80" height="82" viewBox="0 0 80 82" fill="none" xmlns="http://www.w3.org/2000/svg">
<path fill-rule="evenodd" clip-rule="evenodd" d="M41.7909 0.047923C50.4245 -0.425534 59.1478 2.63377 65.6985 8.13367C71.957 13.3882 74.3218 21.4415 76.5153 29.2021C78.6107 36.6153 80.2952 44.3014 78.0011 51.6586C75.6795 59.1039 70.0066 64.8226 63.8591 69.7898C57.3236 75.0705 50.2571 80.2927 41.7909 80.9165C32.9776 81.5659 24.246 78.3736 17.1566 73.231C10.1236 68.1292 5.40448 60.6971 2.71042 52.5672C0.0203259 44.4493 -1.18716 35.5408 2.03897 27.6105C5.16646 19.9226 12.8464 15.4476 19.7617 10.6528C26.6023 5.90974 33.4082 0.507617 41.7909 0.047923Z" fill="#343434"/>
<path d="M41.8541 13.0868C41.8541 13.0868 28.6841 13.2968 28.4741 31.9068C28.4741 31.9068 21.3741 30.6468 27.4741 39.8468C27.4741 39.8468 28.0641 41.4268 29.9341 39.8468C31.8041 38.2668 28.1641 43.5968 36.6441 48.9668C36.6441 48.9668 36.7641 57.5868 34.6441 58.9668C32.5241 60.3468 46.2641 65.0868 48.5141 58.9668C47.0819 57.2078 46.3264 54.9944 46.3841 52.7268C46.3841 52.7268 55.8241 52.2468 55.8841 35.9868C55.9441 19.7268 51.4341 12.0868 41.8541 13.0868Z" fill="#E8C8B6"/>
<path d="M41.6717 12.8872C41.6717 12.8872 25.9983 14 28.2917 31.7072C28.2917 31.7072 29.9987 33.5001 30.4997 37.5001C30.4997 37.5001 31.1283 38.5801 32.9983 37.0001C32.4974 33.3531 32.5 33.5 32.5 33.5L32.4984 31.7072C32.4984 30.5001 34 30.5 35.5 29.5C36.5 28.5 36.941 27.2678 36.9987 25.0002C36.9987 25.0002 50.4987 21.0001 54.4983 23.0001C53.4983 20.0001 54.9987 12.887 41.6717 12.8872Z" fill="#604637"/>
<path d="M47.8747 58.4841C42.1654 63.0516 36.6143 60.3872 34.5524 58.4841C24.4563 58.0628 16.7066 73.6923 14.0938 81.5597H70.7122C65.4786 71.9647 53.584 53.9166 47.8747 58.4841Z" fill="#DADADA"/>
</svg>
