<svg width="80" height="83" viewBox="0 0 80 83" fill="none" xmlns="http://www.w3.org/2000/svg">
<path fill-rule="evenodd" clip-rule="evenodd" d="M38.1216 0.0215064C46.4681 -0.157107 55.0686 0.696525 61.9588 5.63606C68.9622 10.6567 73.1344 18.7487 75.9467 27.1381C78.8171 35.701 81.1105 45.1222 78.0401 53.6086C75.0278 61.9344 67.0407 66.5995 59.9148 71.4496C53.1689 76.0411 46.1402 80.1094 38.1216 80.7785C29.5994 81.4895 20.4829 80.6967 13.652 75.3097C6.87006 69.9612 4.10525 60.9309 2.02122 52.3085C0.056905 44.1815 -0.118067 35.8093 2.16246 27.7734C4.48989 19.5723 8.40693 11.7152 14.9813 6.64136C21.5809 1.54805 29.927 0.196867 38.1216 0.0215064Z" fill="#E06B65"/>
<path d="M40.9952 15.6844C40.9952 15.6844 27.8252 15.8944 27.6152 34.4944C27.6152 34.4944 20.5052 33.2444 26.6152 42.4944C26.6152 42.4944 27.2152 44.0744 29.0852 42.4944C30.9552 40.9144 27.3352 46.2844 35.8352 51.6544C35.8352 51.6544 35.9552 60.2744 33.8352 61.6544C31.7152 63.0344 45.4552 67.7744 47.6952 61.6544C46.2462 59.8802 45.4831 57.6443 45.5452 55.3544C45.5452 55.3544 54.9852 54.8744 55.0352 38.6144C55.0852 22.3544 50.5452 14.7444 40.9952 15.6844Z" fill="#E8C0B6"/>
<path d="M65.5457 66.1345C65.5457 66.1345 62.8857 50.0245 64.1257 43.0045C65.3657 35.9845 51.9358 15.6445 51.9358 15.6445C51.9358 15.6445 53.1658 6.85453 46.9358 9.49453C46.9358 9.49453 42.6658 12.5945 34.9358 10.8445C27.2058 9.09453 22.5457 19.5745 23.0957 23.0645C23.0957 23.0645 10.2958 27.7245 14.1758 48.0645C18.0558 68.4045 16.2437 78.5245 21.8637 81.4345C27.4837 84.3445 37.6958 82.6499 43.1758 74.4999C48.6558 66.3499 54.1758 81.4345 54.1758 81.4345C54.1758 81.4345 67.1257 86.3045 65.5457 66.1345ZM52.8358 49.6145C50.3558 53.4545 48.6857 54.9345 46.2257 54.9345C43.7657 54.9345 47.3257 61.2045 47.3257 61.2045C40.7957 64.4045 34.5257 60.6745 34.5257 60.6745C37.3557 58.6745 36.5258 51.6745 36.5258 51.6745C33.0758 51.4545 29.6158 42.2045 29.6158 42.2045C26.7858 44.4245 25.5058 40.6445 25.5058 40.6445C23.0558 32.9745 27.6557 34.5145 27.6557 34.5145C27.0357 25.5145 37.1357 23.3445 43.1758 22.1145C49.2158 20.8845 49.7057 18.2945 49.7057 18.2945C57.1357 26.9545 55.3558 45.7145 52.8358 49.6145Z" fill="#202020"/>
<path d="M47.2243 59.7438C41.515 64.3113 35.9639 61.647 33.902 59.7438C23.8059 59.3226 16.0562 74.9521 13.4434 82.8195H70.0619C64.8282 73.2245 52.9336 55.1763 47.2243 59.7438Z" fill="#FFB6B3"/>
</svg>
