<svg width="80" height="83" viewBox="0 0 80 83" fill="none" xmlns="http://www.w3.org/2000/svg">
<path fill-rule="evenodd" clip-rule="evenodd" d="M38.6581 0.518242C46.9753 -0.181623 55.321 2.16603 62.2999 7.10761C69.5228 12.2219 75.5388 19.5187 78.0878 28.4373C80.6158 37.2824 79.1596 46.7938 76.1156 55.4468C73.1872 63.7709 68.2787 71.2409 61.3408 76.0421C54.6608 80.6648 46.5889 81.2784 38.6581 81.368C30.6439 81.4585 22.1175 81.6438 15.6283 76.5585C9.13596 71.4707 6.70904 62.627 4.22501 54.3843C1.73891 46.1348 -1.17077 37.4199 1.35112 29.183C3.8673 20.9649 11.0202 15.8881 17.5469 10.8734C24.0037 5.91231 30.7607 1.18278 38.6581 0.518242Z" fill="#99CC99"/>
<path d="M42.4699 14.8991C42.4699 14.8991 29.31 15.1091 29.1 33.7091C29.1 33.7091 21.9899 32.4591 28.0499 41.6491C28.0499 41.6491 28.6399 43.2391 30.5199 41.6491C32.3999 40.0591 28.77 45.4391 37.26 50.8091C37.26 50.8091 37.39 59.4291 35.26 60.8091C33.13 62.1891 46.88 66.9291 49.13 60.8091C47.7038 59.0435 46.9523 56.8281 47.01 54.5591C47.01 54.5591 56.4499 54.0891 56.4999 37.8191C56.5499 21.7391 52.0599 13.9891 42.4699 14.8991Z" fill="#E8C0B6"/>
<path d="M41.7799 10.4291C38.7861 8.96651 35.3706 8.61301 32.1407 9.43146C28.9108 10.2499 26.0759 12.1873 24.1399 14.8991C16.5199 24.6191 18.3199 52.4891 20.3299 56.3991C22.3399 60.3091 36.9999 55.8991 36.9999 55.8991C37.2482 54.3523 37.3353 52.7839 37.2599 51.2191C37.0599 49.4391 33.4999 50.5191 31.0699 41.2991C31.0699 41.2991 28.9099 43.5491 27.7399 41.2391C26.5699 38.9291 23.9199 35.3691 27.1999 33.8591C28.4799 33.2691 30.4199 35.1391 32.7599 31.0291C34.7599 27.4691 36.0699 18.0291 43.4899 18.6991C50.9099 19.3691 51.0099 17.6991 51.0099 17.6991C51.0099 17.6991 57.2999 21.3191 56.1899 42.2591C56.1631 42.9354 56.0591 43.6064 55.8799 44.2591C55.1799 46.8791 53.1399 53.2591 47.0999 53.6091C47.0999 53.6091 46.4199 57.6091 47.8299 57.3291C49.2399 57.0491 59.3299 58.2191 60.3299 55.3291C61.3299 52.4391 65.1399 0.00911522 41.7799 10.4291Z" fill="black"/>
<path d="M48.1098 59.7438C42.4005 64.3113 36.8494 61.647 34.7875 59.7438C24.6914 59.3226 16.9417 74.9521 14.3289 82.8195H70.9474C65.7137 73.2245 53.8191 55.1763 48.1098 59.7438Z" fill="#CBF4CB"/>
</svg>
