<svg width="80" height="82" viewBox="0 0 80 82" fill="none" xmlns="http://www.w3.org/2000/svg">
<path fill-rule="evenodd" clip-rule="evenodd" d="M40.1237 0.0219762C47.8231 -0.078993 55.1668 3.25519 61.403 8.29135C67.6464 13.3334 72.2501 20.2908 75.1077 28.2741C78.1288 36.7143 80.8 46.1362 78.005 54.6726C75.2434 63.1067 67.4776 67.6913 60.6454 72.4432C54.2916 76.8623 47.6121 81.0651 40.1237 81.0194C32.6599 80.9738 26.1522 76.4986 19.7644 72.1938C12.7567 67.4712 4.39272 63.4799 1.4527 54.9587C-1.53162 46.3092 1.257 36.5714 4.53541 28.0552C7.58517 20.133 12.8899 13.8191 19.2049 8.84472C25.4466 3.9281 32.4821 0.122186 40.1237 0.0219762Z" fill="#99CCFF"/>
<path d="M40.2573 12.3485C40.2573 12.3485 27.0873 12.5585 26.8773 31.1985C26.8773 31.1985 19.7773 29.9485 25.8773 39.1985C25.8773 39.1985 26.4673 40.7785 28.3373 39.1985C30.2073 37.6185 26.5873 42.9785 35.0873 48.3585C35.0873 48.3585 35.2073 56.9785 33.0873 58.3585C30.9673 59.7385 44.7073 64.4785 46.9573 58.3585C45.526 56.5951 44.7707 54.3789 44.8273 52.1085C44.8273 52.1085 54.2673 51.6385 54.3273 35.3685C54.3373 19.1985 49.8373 11.4085 40.2573 12.3485Z" fill="#E8C0B6"/>
<path d="M38.5673 10.7685C38.5673 10.7685 35.7273 8.95847 32.4573 11.8885C29.1873 14.8185 27.2873 12.8885 25.9073 17.3985C24.5273 21.9085 24.1473 27.5485 24.8373 29.1985C25.5273 30.8485 31.7073 31.5785 33.2273 28.9485C34.5773 26.6085 34.9173 32.5385 37.9673 28.6885C40.6173 25.3385 41.5773 32.8485 44.2473 29.9185C46.9173 26.9885 46.6573 30.9185 47.5973 30.0085C47.8973 29.7285 51.8673 26.1885 53.4473 28.3385C55.0273 30.4885 55.4473 29.5685 55.6273 25.4085C55.7873 21.7885 56.3773 7.32846 38.5673 10.7685Z" fill="black"/>
<path d="M46.7813 57.9441C41.072 62.5116 35.5209 59.8472 33.459 57.9441C23.3629 57.5229 15.6132 73.1523 13.0004 81.0198H69.6189C64.3852 71.4247 52.4906 53.3766 46.7813 57.9441Z" fill="#C3DDF7"/>
</svg>
