<svg width="82" height="84" viewBox="0 0 82 84" fill="none" xmlns="http://www.w3.org/2000/svg">
<path fill-rule="evenodd" clip-rule="evenodd" d="M40.5016 1.08147C48.421 0.711052 56.532 1.9337 63.1084 6.77536C69.8306 11.7244 74.101 19.5602 76.9006 27.879C79.7939 36.4763 81.9321 45.9154 79.1941 54.5734C76.4792 63.1586 69.3547 68.8344 62.3866 73.7749C55.7506 78.48 48.4057 82.2662 40.5016 82.0072C32.7388 81.7529 25.6423 77.6392 19.5486 72.3714C13.654 67.2757 9.64601 60.4 6.73933 52.8208C3.58814 44.604 -0.19047 35.7215 2.2303 27.2134C4.66001 18.6739 12.322 13.5616 19.2568 8.82641C25.7481 4.39416 32.857 1.43902 40.5016 1.08147Z" fill="white" stroke="#DADADA" stroke-width="2"/>
<path d="M40.5274 13.4785C40.5274 13.4785 27.3574 13.6485 27.1474 32.2585C27.1474 32.2585 20.0474 30.9985 26.1474 40.1985C26.1474 40.1985 26.7374 41.7785 28.6074 40.1985C30.4774 38.6185 26.8574 43.9885 35.3574 49.3585C35.3574 49.3585 35.4774 57.9785 33.3574 59.3585C31.2374 60.7385 44.9774 65.4785 47.2274 59.3585C45.7952 57.5995 45.0397 55.3861 45.0974 53.1185C45.0974 53.1185 54.5374 52.6385 54.5974 36.3785C54.6574 20.1185 50.1174 12.4785 40.5274 13.4785Z" fill="#CD9F94"/>
<path d="M28.8974 36.2785C26.9452 33.9597 25.5967 31.1942 24.9721 28.2281C24.3475 25.2621 24.4661 22.1876 25.3174 19.2785C28.1174 8.84845 41.9974 7.60845 48.1574 9.06845C54.3174 10.5285 55.5474 5.81845 55.5474 5.81845C55.5474 5.81845 62.1574 20.3785 55.5474 23.3985C48.9374 26.4185 29.3474 18.7584 28.8974 36.2785Z" fill="black" stroke="black" stroke-miterlimit="10"/>
<path d="M46.4317 58.9441C40.7224 63.5116 35.1713 60.8472 33.1094 58.9441C23.0133 58.5229 15.2636 74.1523 12.6508 82.0198H69.2693C64.0356 72.4247 52.141 54.3766 46.4317 58.9441Z" fill="#DADADA"/>
</svg>
