<svg width="81" height="83" viewBox="0 0 81 83" fill="none" xmlns="http://www.w3.org/2000/svg">
<path fill-rule="evenodd" clip-rule="evenodd" d="M40.0416 1.06172C47.9611 0.691307 56.072 1.91396 62.6484 6.75561C69.3706 11.7046 73.641 19.5405 76.4406 27.8593C79.3339 36.4566 81.4721 45.8957 78.7341 54.5537C76.0192 63.1389 68.8947 68.8147 61.9267 73.7552C55.2906 78.4603 47.9457 82.2464 40.0416 81.9875C32.2788 81.7331 25.1823 77.6195 19.0886 72.3517C13.194 67.256 9.18605 60.3803 6.27936 52.801C3.12818 44.5842 -0.650431 35.7018 1.77034 27.1937C4.20005 18.6542 11.862 13.5419 18.7969 8.80667C25.2881 4.37441 32.397 1.41928 40.0416 1.06172Z" fill="#F7D6A4" stroke="white" stroke-width="2"/>
<path d="M40.0675 13.4588C40.0675 13.4588 26.8975 13.6288 26.6875 32.2388C26.6875 32.2388 19.5875 30.9788 25.6875 40.1788C25.6875 40.1788 26.2775 41.7588 28.1475 40.1788C30.0175 38.5988 26.3975 43.9688 34.8975 49.3388C34.8975 49.3388 35.0175 57.9588 32.8975 59.3388C30.7775 60.7188 44.5175 65.4588 46.7675 59.3388C45.3353 57.5798 44.5798 55.3663 44.6375 53.0988C44.6375 53.0988 54.0775 52.6188 54.1375 36.3588C54.1975 20.0988 49.6575 12.4588 40.0675 13.4588Z" fill="#CD9F94"/>
<path d="M28.4375 36.2587C26.4852 33.94 25.1368 31.1744 24.5122 28.2084C23.8875 25.2423 24.0062 22.1678 24.8575 19.2587C27.6575 8.8287 41.5375 7.58871 47.6975 9.04871C53.8575 10.5087 55.0875 5.79871 55.0875 5.79871C55.0875 5.79871 61.6975 20.3587 55.0875 23.3787C48.4775 26.3987 28.8875 18.7387 28.4375 36.2587Z" fill="#202020" stroke="#202020" stroke-miterlimit="10"/>
<path d="M45.9718 58.9244C40.2625 63.4919 34.7114 60.8275 32.6496 58.9244C22.5535 58.5031 14.8038 74.1326 12.1909 82H68.8094C63.5758 72.405 51.6812 54.3569 45.9718 58.9244Z" fill="#DADADA"/>
</svg>
