<svg width="79" height="84" viewBox="0 0 79 84" fill="none" xmlns="http://www.w3.org/2000/svg">
<path fill-rule="evenodd" clip-rule="evenodd" d="M39.3169 0.624019C47.2623 0.320057 55.182 1.95775 61.9484 6.4918C69.1041 11.2867 75.7599 17.8665 78.1267 26.6298C80.4643 35.2851 77.7253 44.4398 74.4341 52.7212C71.394 60.3709 66.371 66.6014 60.2472 71.6191C54.0222 76.7199 47.0976 80.9396 39.3169 81.4961C31.1841 82.0777 22.9002 79.9325 16.2834 74.7633C9.64715 69.5788 5.63435 61.5504 3.01805 53.1382C0.375489 44.6416 -1.36667 35.3944 1.41273 26.9495C4.15315 18.623 10.9561 12.9436 17.8147 8.18019C24.3206 3.66166 31.5995 0.919256 39.3169 0.624019Z" fill="#FFFF99"/>
<path d="M40.5274 15.2782C40.5274 15.2782 27.3574 15.4882 27.1474 34.0982C27.1474 34.0982 20.0474 32.8382 26.1474 42.0382C26.1474 42.0382 26.7374 43.6182 28.6074 42.0382C30.4774 40.4582 26.8374 45.7882 35.3174 51.1582C35.3174 51.1582 35.4374 59.7782 33.3174 61.1582C31.1974 62.5382 44.9374 67.2782 47.1874 61.1582C45.7552 59.3992 44.9997 57.1858 45.0574 54.9182C45.0574 54.9182 54.4974 54.4382 54.5574 38.1782C54.6174 21.9182 50.1074 14.2782 40.5274 15.2782Z" fill="#F0CEBB"/>
<path d="M54.9175 14.8882C54.9175 14.8882 50.2075 11.8882 50.3475 10.4582C50.4875 9.02819 47.0675 7.27819 44.2075 8.60819C44.2075 8.60819 39.2075 4.45819 34.3575 8.74819C34.3575 8.74819 27.9275 8.17819 25.7875 12.3182C25.7875 12.3182 20.7875 11.8882 22.7875 18.8882C22.7875 18.8882 17.7875 21.3182 21.6475 26.7382C21.6475 26.7382 18.7875 31.0282 22.6475 33.5982C26.5075 36.1682 26.7875 33.0282 27.6475 37.5982C28.5075 42.1682 29.9275 33.3082 29.7875 31.5982C29.6475 29.8882 29.7875 26.1682 32.0675 27.1682C34.3475 28.1682 31.2175 22.2782 35.8375 24.5982C40.4575 26.9182 42.6875 20.0982 44.5475 22.8482C46.4075 25.5982 50.3975 26.8482 51.3975 24.0282C52.3975 21.2082 54.2575 25.2382 56.2575 22.8482C58.2575 20.4582 59.4875 19.2782 54.9175 14.8882Z" fill="black"/>
<path d="M46.4317 60.7438C40.7224 65.3113 35.1713 62.6469 33.1094 60.7438C23.0133 60.3226 15.2636 75.9521 12.6508 83.8195H69.2693C64.0356 74.2245 52.141 56.1763 46.4317 60.7438Z" fill="#F8F8C8"/>
</svg>
