<svg width="79" height="88" viewBox="0 0 79 88" fill="none" xmlns="http://www.w3.org/2000/svg">
<path fill-rule="evenodd" clip-rule="evenodd" d="M39.3169 0.0352434C47.2623 -0.268719 55.182 1.36897 61.9484 5.90302C69.1041 10.6979 75.7599 17.2777 78.1267 26.0411C80.4643 34.6963 77.7253 43.8511 74.4341 52.1324C71.394 59.7822 66.371 66.0126 60.2472 71.0303C54.0222 76.1311 47.0976 80.3509 39.3169 80.9073C31.1841 81.4889 22.9002 79.3438 16.2834 74.1745C9.64715 68.99 5.63435 60.9616 3.01805 52.5494C0.375489 44.0528 -1.36667 34.8056 1.41273 26.3607C4.15315 18.0342 10.9561 12.3549 17.8147 7.59142C24.3206 3.07289 31.5995 0.330481 39.3169 0.0352434Z" fill="#FFFF99"/>
<path d="M39.2193 18.1453C39.2193 18.1453 26.0493 18.3553 25.8393 36.9953C25.8393 36.9953 18.7393 35.7453 24.8393 44.9953C24.8393 44.9953 25.4293 46.5753 27.2993 44.9953C29.1693 43.4153 25.5493 48.7753 34.0493 54.1553C34.0493 54.1553 34.1693 62.7753 32.0493 64.1553C29.9293 65.5353 43.6693 70.2753 45.9193 64.1553C44.488 62.3919 43.7327 60.1758 43.7893 57.9053C43.7893 57.9053 53.2293 57.4353 53.2893 41.1653C53.2993 24.9953 48.7993 17.2053 39.2193 18.1453Z" fill="#E8C0B6"/>
<path d="M37.529 16.5651C37.529 16.5651 34.689 14.7551 31.419 17.6851C28.149 20.6151 26.249 18.6851 24.869 23.1951C23.489 27.7051 23.109 33.3451 23.799 34.9951C24.489 36.6451 30.669 37.3751 32.189 34.7451C33.539 32.4051 33.879 38.3351 36.929 34.4851C39.579 31.1351 40.539 38.6451 43.209 35.7151C45.879 32.7851 45.619 36.7151 46.559 35.8051C46.859 35.5251 50.829 31.9851 52.409 34.1351C53.989 36.2851 54.409 35.3651 54.589 31.2051C54.749 27.5851 55.339 13.1251 37.529 16.5651Z" fill="#202020"/>
<path d="M44.9723 64.4841C39.263 69.0516 33.7119 66.3872 31.6501 64.4841C21.554 64.0628 13.8043 79.6923 11.1914 87.5597H67.8099C62.5763 77.9647 50.6816 59.9166 44.9723 64.4841Z" fill="#F8F8C8"/>
</svg>
