<svg width="79" height="88" viewBox="0 0 79 88" fill="none" xmlns="http://www.w3.org/2000/svg">
<path fill-rule="evenodd" clip-rule="evenodd" d="M37.6216 0.0215064C45.9681 -0.157107 54.5686 0.696525 61.4588 5.63606C68.4622 10.6567 72.6344 18.7487 75.4467 27.1381C78.3171 35.701 80.6105 45.1222 77.5401 53.6086C74.5278 61.9344 66.5407 66.5995 59.4148 71.4496C52.6689 76.0411 45.6402 80.1094 37.6216 80.7785C29.0994 81.4895 19.9829 80.6967 13.152 75.3097C6.37006 69.9612 3.60525 60.9309 1.52122 52.3085C-0.443095 44.1815 -0.618067 35.8093 1.66246 27.7734C3.98989 19.5723 7.90693 11.7152 14.4813 6.64136C21.0809 1.54805 29.427 0.196867 37.6216 0.0215064Z" fill="#E06B65"/>
<path d="M26.2207 45.4505C26.2207 45.4505 29.9307 55.4505 34.2207 53.6905C34.2207 53.6905 28.4507 49.9905 28.5007 44.5505C28.5007 44.2705 28.0007 44.6105 27.8007 44.8105C27.6049 45.0322 27.3602 45.2055 27.0861 45.3165C26.8119 45.4276 26.5156 45.4735 26.2207 45.4505Z" fill="#202020"/>
<path d="M39.7898 18.0006C39.7898 18.0006 26.6198 18.2106 26.4098 36.8106C26.4098 36.8106 19.2997 35.5606 25.3597 44.8106C25.3597 44.8106 25.9597 46.3906 27.8297 44.8106C29.6997 43.2306 26.0798 48.5906 34.5798 53.9706C34.5798 53.9706 34.6997 62.5906 32.5798 63.9706C30.4598 65.3506 44.1898 70.0906 46.4398 63.9706C45.0136 62.205 44.2621 59.9896 44.3198 57.7206C44.3198 57.7206 53.7598 57.2506 53.8098 40.9806C53.8698 24.8106 49.3698 17.0606 39.7898 18.0006Z" fill="#CD9F94"/>
<path d="M38.7301 16.2405C38.7301 16.2405 34.6501 5.45049 25.3301 9.91049C16.0101 14.3705 25.3901 29.4905 24.9601 26.1605C24.2101 20.3505 17.4601 31.6405 24.1301 37.0205C24.1301 35.9405 37.0701 39.7705 42.7001 24.0205C42.7001 24.0205 52.1301 33.8905 53.4501 32.4205C54.7701 30.9505 53.0101 15.3605 38.7301 16.2405Z" fill="#202020"/>
<path d="M45.8356 64.4841C40.1263 69.0516 34.5752 66.3872 32.5133 64.4841C22.4173 64.0628 14.6675 79.6923 12.0547 87.5597H68.6732C63.4395 77.9647 51.5449 59.9166 45.8356 64.4841Z" fill="#FFB6B3"/>
</svg>
