<svg width="79" height="88" viewBox="0 0 79 88" fill="none" xmlns="http://www.w3.org/2000/svg">
<path fill-rule="evenodd" clip-rule="evenodd" d="M38.2771 0.121239C46.5944 -0.578627 54.94 1.76903 61.9189 6.7106C69.1418 11.8249 75.1578 19.1217 77.7068 28.0403C80.2348 36.8854 78.7786 46.3968 75.7346 55.0498C72.8062 63.3739 67.8978 70.8439 60.9598 75.6451C54.2798 80.2678 46.2079 80.8814 38.2771 80.971C30.2629 81.0615 21.7365 81.2468 15.2473 76.1615C8.75497 71.0737 6.32806 62.23 3.84403 53.9873C1.35793 45.7378 -1.55175 37.0229 0.970142 28.786C3.48632 20.5679 10.6392 15.4911 17.1659 10.4764C23.6227 5.5153 30.3797 0.785774 38.2771 0.121239Z" fill="#99CC99"/>
<path d="M41.16 18.4737C41.16 18.4737 27.99 18.6837 27.75 37.3237C27.75 37.3237 20.64 36.0637 26.75 45.2637C26.75 45.2637 27.34 46.8537 29.21 45.2637C31.08 43.6737 27.46 49.0537 35.96 54.4237C35.96 54.4237 36.08 63.0437 33.96 64.4237C31.84 65.8037 45.58 70.5437 47.82 64.4237C46.3938 62.6581 45.6423 60.4427 45.7 58.1737C45.7 58.1737 55.14 57.6937 55.19 41.4337C55.24 25.1737 50.75 17.5337 41.16 18.4737Z" fill="#E8C8B6"/>
<path d="M22.6602 24.5636C22.6602 24.5636 19.2302 28.3136 23.5602 33.7836C23.3724 34.1721 23.2707 34.5965 23.2619 35.028C23.2531 35.4594 23.3375 35.8876 23.5093 36.2835C23.6811 36.6793 23.9363 37.0334 24.2575 37.3216C24.5786 37.6099 24.9581 37.8254 25.3702 37.9536C25.3702 37.9536 27.4902 40.3736 28.2902 38.4536C29.0902 36.5336 30.5102 29.2936 33.7302 29.1936C33.7302 29.1936 32.9202 22.9536 37.8602 23.7636C37.8602 23.7636 38.8602 21.4436 40.9802 22.4536C43.1002 23.4636 44.6702 24.7936 46.5902 23.0836C48.5102 21.3736 50.0402 28.2336 52.8002 27.5536C54.3502 27.1636 54.1602 37.4536 55.1702 36.4436C56.1802 35.4336 58.2902 24.6636 52.9502 18.6336C52.9502 18.6336 48.7302 15.9136 47.2202 17.6336C47.2202 17.6336 45.8102 14.4136 42.4902 14.4136C39.1702 14.4136 37.4902 15.9236 35.8402 15.6236C34.1902 15.3236 31.3102 15.1136 29.9002 16.6236C29.9002 16.6136 21.6702 21.1836 22.6602 24.5636Z" fill="#331F14"/>
<path d="M47.75 17.2435C47.9446 16.5864 48.3583 16.0157 48.9223 15.6264C49.4863 15.237 50.1666 15.0525 50.85 15.1035" fill="#202020"/>
<path d="M46.5898 16.5938C46.6 16.1015 46.786 15.6291 47.1144 15.2622C47.4428 14.8953 47.8917 14.6582 48.3799 14.5938" fill="#202020"/>
<path d="M46.2028 64.4841C40.4935 69.0516 34.9424 66.3872 32.8805 64.4841C22.7845 64.0628 15.0347 79.6923 12.4219 87.5597H69.0404C63.8067 77.9647 51.9121 59.9166 46.2028 64.4841Z" fill="#CBF4CB"/>
</svg>
