<svg width="555" height="50" viewBox="0 0 555 50" fill="none" xmlns="http://www.w3.org/2000/svg">
<rect y="29" width="310" height="20" rx="10" fill="#F6D0E0" fill-opacity="0.8"/>
<path d="M11.688 35.192C9.704 35.192 8.152 34.696 7.032 33.704C5.928 32.712 5.376 31.336 5.376 29.576C5.376 29.048 5.44 28.44 5.568 27.752L7.464 18.2H9.864L7.944 27.728C7.832 28.272 7.776 28.8 7.776 29.312C7.776 30.544 8.128 31.48 8.832 32.12C9.536 32.744 10.56 33.056 11.904 33.056C13.408 33.056 14.608 32.624 15.504 31.76C16.416 30.896 17.056 29.544 17.424 27.704L19.32 18.2H21.672L19.752 27.872C19.256 30.304 18.328 32.136 16.968 33.368C15.624 34.584 13.864 35.192 11.688 35.192ZM26.9284 35.144C25.8724 35.144 24.8644 35.008 23.9044 34.736C22.9604 34.464 22.2244 34.112 21.6964 33.68L22.7284 31.856C23.2244 32.256 23.8644 32.576 24.6484 32.816C25.4484 33.04 26.2804 33.152 27.1444 33.152C28.2324 33.152 29.0564 32.992 29.6164 32.672C30.1924 32.336 30.4804 31.872 30.4804 31.28C30.4804 30.8 30.2484 30.456 29.7844 30.248C29.3364 30.04 28.6324 29.832 27.6724 29.624C26.7764 29.432 26.0404 29.24 25.4644 29.048C24.9044 28.84 24.4244 28.52 24.0244 28.088C23.6244 27.64 23.4244 27.04 23.4244 26.288C23.4244 25.456 23.6564 24.728 24.1204 24.104C24.6004 23.48 25.2724 23 26.1364 22.664C27.0164 22.328 28.0324 22.16 29.1844 22.16C30.0324 22.16 30.8564 22.264 31.6564 22.472C32.4564 22.68 33.1124 22.96 33.6244 23.312L32.7124 25.136C32.2164 24.8 31.6404 24.552 30.9844 24.392C30.3284 24.216 29.6564 24.128 28.9684 24.128C27.9284 24.128 27.1284 24.304 26.5684 24.656C26.0084 24.992 25.7284 25.448 25.7284 26.024C25.7284 26.536 25.9604 26.904 26.4244 27.128C26.8884 27.336 27.6084 27.544 28.5844 27.752C29.4644 27.944 30.1844 28.136 30.7444 28.328C31.3044 28.52 31.7764 28.832 32.1604 29.264C32.5604 29.696 32.7604 30.28 32.7604 31.016C32.7604 32.312 32.2244 33.328 31.1524 34.064C30.0964 34.784 28.6884 35.144 26.9284 35.144ZM37.1758 29.36V29.504C37.1758 30.688 37.5118 31.592 38.1838 32.216C38.8558 32.824 39.8638 33.128 41.2078 33.128C41.9918 33.128 42.7278 33 43.4158 32.744C44.1038 32.472 44.6798 32.112 45.1438 31.664L46.1278 33.32C45.5038 33.896 44.7438 34.344 43.8478 34.664C42.9518 34.984 42.0078 35.144 41.0158 35.144C39.7678 35.144 38.6878 34.92 37.7758 34.472C36.8638 34.024 36.1598 33.384 35.6638 32.552C35.1678 31.72 34.9198 30.744 34.9198 29.624C34.9198 28.2 35.2238 26.92 35.8318 25.784C36.4558 24.648 37.3118 23.76 38.3998 23.12C39.5038 22.48 40.7358 22.16 42.0958 22.16C43.8238 22.16 45.1998 22.656 46.2238 23.648C47.2638 24.624 47.7838 25.96 47.7838 27.656C47.7838 28.168 47.7278 28.736 47.6158 29.36H37.1758ZM41.9998 24.08C40.8638 24.08 39.8878 24.4 39.0718 25.04C38.2558 25.68 37.7038 26.56 37.4158 27.68H45.6238C45.6878 26.544 45.3838 25.664 44.7118 25.04C44.0558 24.4 43.1518 24.08 41.9998 24.08ZM53.9837 24.176C54.5437 23.472 55.2317 22.96 56.0477 22.64C56.8637 22.32 57.8557 22.16 59.0237 22.16L58.5917 24.392C58.4477 24.376 58.2477 24.368 57.9917 24.368C55.3517 24.368 53.7517 25.792 53.1917 28.64L51.9197 35H49.6157L52.1357 22.28H54.3437L53.9837 24.176ZM72.4808 20.288H66.7448L67.1528 18.2H81.0488L80.6168 20.288H74.8808L71.9288 35H69.5528L72.4808 20.288ZM80.9102 29.36V29.504C80.9102 30.688 81.2462 31.592 81.9182 32.216C82.5902 32.824 83.5982 33.128 84.9422 33.128C85.7262 33.128 86.4622 33 87.1502 32.744C87.8382 32.472 88.4142 32.112 88.8782 31.664L89.8622 33.32C89.2382 33.896 88.4782 34.344 87.5822 34.664C86.6862 34.984 85.7422 35.144 84.7502 35.144C83.5022 35.144 82.4222 34.92 81.5102 34.472C80.5982 34.024 79.8942 33.384 79.3982 32.552C78.9022 31.72 78.6542 30.744 78.6542 29.624C78.6542 28.2 78.9582 26.92 79.5662 25.784C80.1902 24.648 81.0462 23.76 82.1342 23.12C83.2382 22.48 84.4702 22.16 85.8302 22.16C87.5582 22.16 88.9342 22.656 89.9582 23.648C90.9982 24.624 91.5182 25.96 91.5182 27.656C91.5182 28.168 91.4622 28.736 91.3502 29.36H80.9102ZM85.7342 24.08C84.5982 24.08 83.6222 24.4 82.8062 25.04C81.9902 25.68 81.4382 26.56 81.1502 27.68H89.3582C89.4222 26.544 89.1182 25.664 88.4462 25.04C87.7902 24.4 86.8862 24.08 85.7342 24.08ZM97.3581 35.144C96.3021 35.144 95.2941 35.008 94.3341 34.736C93.3901 34.464 92.6541 34.112 92.1261 33.68L93.1581 31.856C93.6541 32.256 94.2941 32.576 95.0781 32.816C95.8781 33.04 96.7101 33.152 97.5741 33.152C98.6621 33.152 99.4861 32.992 100.046 32.672C100.622 32.336 100.91 31.872 100.91 31.28C100.91 30.8 100.678 30.456 100.214 30.248C99.7661 30.04 99.0621 29.832 98.1021 29.624C97.2061 29.432 96.4701 29.24 95.8941 29.048C95.3341 28.84 94.8541 28.52 94.4541 28.088C94.0541 27.64 93.8541 27.04 93.8541 26.288C93.8541 25.456 94.0861 24.728 94.5501 24.104C95.0301 23.48 95.7021 23 96.5661 22.664C97.4461 22.328 98.4621 22.16 99.6141 22.16C100.462 22.16 101.286 22.264 102.086 22.472C102.886 22.68 103.542 22.96 104.054 23.312L103.142 25.136C102.646 24.8 102.07 24.552 101.414 24.392C100.758 24.216 100.086 24.128 99.3981 24.128C98.3581 24.128 97.5581 24.304 96.9981 24.656C96.4381 24.992 96.1581 25.448 96.1581 26.024C96.1581 26.536 96.3901 26.904 96.8541 27.128C97.3181 27.336 98.0381 27.544 99.0141 27.752C99.8941 27.944 100.614 28.136 101.174 28.328C101.734 28.52 102.206 28.832 102.59 29.264C102.99 29.696 103.19 30.28 103.19 31.016C103.19 32.312 102.654 33.328 101.582 34.064C100.526 34.784 99.1181 35.144 97.3581 35.144ZM108.782 30.944C108.734 31.184 108.71 31.408 108.71 31.616C108.71 32.128 108.846 32.52 109.118 32.792C109.406 33.064 109.83 33.2 110.39 33.2C111.062 33.2 111.67 33 112.214 32.6L112.694 34.352C111.926 34.88 110.942 35.144 109.742 35.144C108.734 35.144 107.918 34.864 107.294 34.304C106.686 33.728 106.382 32.944 106.382 31.952C106.382 31.616 106.414 31.296 106.478 30.992L107.846 24.176H105.686L106.046 22.28H108.23L108.782 19.496H111.086L110.534 22.28H114.182L113.798 24.176H110.15L108.782 30.944ZM117.831 22.28H120.135L117.615 35H115.311L117.831 22.28ZM119.655 19.832C119.239 19.832 118.895 19.696 118.623 19.424C118.351 19.152 118.215 18.824 118.215 18.44C118.215 17.992 118.367 17.616 118.671 17.312C118.991 16.992 119.391 16.832 119.871 16.832C120.287 16.832 120.631 16.968 120.903 17.24C121.191 17.496 121.335 17.808 121.335 18.176C121.335 18.672 121.175 19.072 120.855 19.376C120.551 19.68 120.151 19.832 119.655 19.832ZM131.038 22.16C132.494 22.16 133.622 22.528 134.422 23.264C135.238 24 135.646 25.04 135.646 26.384C135.646 26.848 135.598 27.344 135.502 27.872L134.086 35H131.782L133.198 27.872C133.278 27.44 133.318 27.088 133.318 26.816C133.318 25.984 133.07 25.344 132.574 24.896C132.078 24.448 131.342 24.224 130.366 24.224C129.118 24.224 128.086 24.568 127.27 25.256C126.47 25.928 125.934 26.936 125.662 28.28L124.318 35H122.014L124.534 22.28H126.742L126.43 23.912C127.582 22.744 129.118 22.16 131.038 22.16ZM153.108 22.28L150.924 33.272C150.476 35.544 149.628 37.2 148.38 38.24C147.148 39.28 145.46 39.8 143.316 39.8C142.116 39.8 141.02 39.64 140.028 39.32C139.036 39.016 138.196 38.576 137.508 38L138.78 36.224C139.292 36.688 139.956 37.056 140.772 37.328C141.604 37.616 142.508 37.76 143.484 37.76C144.956 37.76 146.092 37.424 146.892 36.752C147.708 36.08 148.26 35.04 148.548 33.632L148.74 32.72C147.524 33.888 145.988 34.472 144.132 34.472C143.012 34.472 142.02 34.264 141.156 33.848C140.308 33.432 139.644 32.832 139.164 32.048C138.7 31.264 138.468 30.344 138.468 29.288C138.468 27.96 138.772 26.752 139.38 25.664C140.004 24.576 140.868 23.72 141.972 23.096C143.076 22.472 144.324 22.16 145.716 22.16C146.804 22.16 147.764 22.368 148.596 22.784C149.444 23.184 150.068 23.792 150.468 24.608L150.924 22.28H153.108ZM144.588 32.456C145.548 32.456 146.404 32.248 147.156 31.832C147.924 31.4 148.516 30.808 148.932 30.056C149.364 29.288 149.58 28.424 149.58 27.464C149.58 26.44 149.244 25.64 148.572 25.064C147.916 24.472 146.988 24.176 145.788 24.176C144.828 24.176 143.964 24.392 143.196 24.824C142.444 25.24 141.852 25.832 141.42 26.6C141.004 27.352 140.796 28.2 140.796 29.144C140.796 30.184 141.132 31 141.804 31.592C142.476 32.168 143.404 32.456 144.588 32.456ZM176.052 27.632C175.476 29.136 174.732 30.464 173.82 31.616L175.548 33.752L174.012 35.264L172.308 33.152C170.66 34.512 168.748 35.192 166.572 35.192C164.908 35.192 163.58 34.84 162.588 34.136C161.612 33.416 161.124 32.448 161.124 31.232C161.124 30.096 161.532 29.088 162.348 28.208C163.164 27.312 164.444 26.448 166.188 25.616C165.772 25.056 165.46 24.52 165.252 24.008C165.044 23.48 164.94 22.944 164.94 22.4C164.94 21.072 165.404 20.016 166.332 19.232C167.26 18.448 168.444 18.056 169.884 18.056C171.052 18.056 171.996 18.336 172.716 18.896C173.436 19.44 173.796 20.192 173.796 21.152C173.796 22.176 173.436 23.056 172.716 23.792C172.012 24.528 170.868 25.272 169.284 26.024L172.596 30.104C173.268 29.208 173.82 28.184 174.252 27.032L176.052 27.632ZM169.812 19.736C168.98 19.736 168.308 19.96 167.796 20.408C167.3 20.84 167.052 21.432 167.052 22.184C167.052 22.552 167.14 22.936 167.316 23.336C167.508 23.736 167.804 24.192 168.204 24.704C169.148 24.256 169.876 23.864 170.388 23.528C170.916 23.176 171.284 22.832 171.492 22.496C171.716 22.16 171.828 21.776 171.828 21.344C171.828 20.88 171.644 20.496 171.276 20.192C170.924 19.888 170.436 19.736 169.812 19.736ZM166.716 33.272C168.332 33.272 169.796 32.736 171.108 31.664L167.268 26.96C165.876 27.632 164.884 28.256 164.292 28.832C163.716 29.408 163.428 30.08 163.428 30.848C163.428 31.568 163.716 32.152 164.292 32.6C164.868 33.048 165.676 33.272 166.716 33.272ZM189.974 20.288L188.798 26.144H197.246L196.838 28.208H188.39L187.046 35H184.646L188.006 18.2H199.862L199.454 20.288H189.974ZM201.402 29.36V29.504C201.402 30.688 201.738 31.592 202.41 32.216C203.082 32.824 204.09 33.128 205.434 33.128C206.218 33.128 206.954 33 207.642 32.744C208.33 32.472 208.906 32.112 209.37 31.664L210.354 33.32C209.73 33.896 208.97 34.344 208.074 34.664C207.178 34.984 206.234 35.144 205.242 35.144C203.994 35.144 202.914 34.92 202.002 34.472C201.09 34.024 200.386 33.384 199.89 32.552C199.394 31.72 199.146 30.744 199.146 29.624C199.146 28.2 199.45 26.92 200.058 25.784C200.682 24.648 201.538 23.76 202.626 23.12C203.73 22.48 204.962 22.16 206.322 22.16C208.05 22.16 209.426 22.656 210.45 23.648C211.49 24.624 212.01 25.96 212.01 27.656C212.01 28.168 211.954 28.736 211.842 29.36H201.402ZM206.226 24.08C205.09 24.08 204.114 24.4 203.298 25.04C202.482 25.68 201.93 26.56 201.642 27.68H209.85C209.914 26.544 209.61 25.664 208.938 25.04C208.282 24.4 207.378 24.08 206.226 24.08ZM216.074 29.36V29.504C216.074 30.688 216.41 31.592 217.082 32.216C217.754 32.824 218.762 33.128 220.106 33.128C220.89 33.128 221.626 33 222.314 32.744C223.002 32.472 223.578 32.112 224.042 31.664L225.026 33.32C224.402 33.896 223.642 34.344 222.746 34.664C221.85 34.984 220.906 35.144 219.914 35.144C218.666 35.144 217.586 34.92 216.674 34.472C215.762 34.024 215.058 33.384 214.562 32.552C214.066 31.72 213.818 30.744 213.818 29.624C213.818 28.2 214.122 26.92 214.73 25.784C215.354 24.648 216.21 23.76 217.298 23.12C218.402 22.48 219.634 22.16 220.994 22.16C222.722 22.16 224.098 22.656 225.122 23.648C226.162 24.624 226.682 25.96 226.682 27.656C226.682 28.168 226.626 28.736 226.514 29.36H216.074ZM220.898 24.08C219.762 24.08 218.786 24.4 217.97 25.04C217.154 25.68 216.602 26.56 216.314 27.68H224.522C224.586 26.544 224.282 25.664 223.61 25.04C222.954 24.4 222.05 24.08 220.898 24.08ZM244.042 17.192L240.49 35H238.282L238.594 33.44C238.018 33.984 237.346 34.408 236.578 34.712C235.826 35 235.002 35.144 234.106 35.144C233.018 35.144 232.05 34.928 231.202 34.496C230.354 34.048 229.69 33.408 229.21 32.576C228.73 31.744 228.49 30.768 228.49 29.648C228.49 28.208 228.802 26.92 229.426 25.784C230.05 24.648 230.906 23.76 231.994 23.12C233.098 22.48 234.33 22.16 235.69 22.16C236.778 22.16 237.714 22.36 238.498 22.76C239.298 23.144 239.898 23.712 240.298 24.464L241.738 17.192H244.042ZM234.61 33.128C235.554 33.128 236.402 32.904 237.154 32.456C237.922 31.992 238.514 31.352 238.93 30.536C239.362 29.72 239.578 28.792 239.578 27.752C239.578 26.616 239.25 25.736 238.594 25.112C237.938 24.488 237.002 24.176 235.786 24.176C234.842 24.176 233.994 24.408 233.242 24.872C232.49 25.32 231.898 25.952 231.466 26.768C231.034 27.584 230.818 28.512 230.818 29.552C230.818 30.672 231.146 31.552 231.802 32.192C232.474 32.816 233.41 33.128 234.61 33.128ZM253.778 22.16C254.866 22.16 255.834 22.384 256.682 22.832C257.53 23.264 258.194 23.896 258.674 24.728C259.154 25.544 259.394 26.512 259.394 27.632C259.394 29.072 259.082 30.36 258.458 31.496C257.834 32.632 256.97 33.528 255.866 34.184C254.778 34.824 253.554 35.144 252.194 35.144C251.074 35.144 250.114 34.936 249.314 34.52C248.53 34.104 247.938 33.496 247.538 32.696L247.058 35H244.874L248.426 17.192H250.73L249.41 23.744C250.594 22.688 252.05 22.16 253.778 22.16ZM252.098 33.128C253.042 33.128 253.89 32.904 254.642 32.456C255.394 31.992 255.986 31.352 256.418 30.536C256.85 29.72 257.066 28.792 257.066 27.752C257.066 26.616 256.738 25.736 256.082 25.112C255.426 24.488 254.49 24.176 253.274 24.176C252.33 24.176 251.474 24.408 250.706 24.872C249.954 25.32 249.362 25.952 248.93 26.768C248.514 27.584 248.306 28.512 248.306 29.552C248.306 30.672 248.634 31.552 249.29 32.192C249.962 32.816 250.898 33.128 252.098 33.128ZM275.729 22.28L273.209 35H271.001L271.313 33.44C270.737 33.984 270.065 34.408 269.297 34.712C268.545 35 267.721 35.144 266.825 35.144C265.737 35.144 264.769 34.928 263.921 34.496C263.073 34.048 262.409 33.408 261.929 32.576C261.449 31.744 261.209 30.768 261.209 29.648C261.209 28.208 261.521 26.92 262.145 25.784C262.769 24.648 263.625 23.76 264.713 23.12C265.817 22.48 267.049 22.16 268.409 22.16C269.497 22.16 270.425 22.352 271.193 22.736C271.977 23.12 272.577 23.688 272.993 24.44L273.425 22.28H275.729ZM267.329 33.128C268.273 33.128 269.121 32.904 269.873 32.456C270.641 31.992 271.233 31.352 271.649 30.536C272.081 29.72 272.297 28.792 272.297 27.752C272.297 26.616 271.969 25.736 271.313 25.112C270.657 24.488 269.721 24.176 268.505 24.176C267.561 24.176 266.713 24.408 265.961 24.872C265.209 25.32 264.617 25.952 264.185 26.768C263.753 27.584 263.537 28.512 263.537 29.552C263.537 30.672 263.865 31.552 264.521 32.192C265.193 32.816 266.129 33.128 267.329 33.128ZM283.616 35.144C282.4 35.144 281.336 34.92 280.424 34.472C279.512 34.008 278.808 33.368 278.312 32.552C277.816 31.72 277.568 30.752 277.568 29.648C277.568 28.224 277.888 26.944 278.528 25.808C279.168 24.672 280.056 23.784 281.192 23.144C282.328 22.488 283.616 22.16 285.056 22.16C287.568 22.16 289.312 23.08 290.288 24.92L288.344 26C287.672 24.784 286.52 24.176 284.888 24.176C283.944 24.176 283.088 24.408 282.32 24.872C281.568 25.32 280.976 25.952 280.544 26.768C280.112 27.584 279.896 28.512 279.896 29.552C279.896 30.672 280.224 31.552 280.88 32.192C281.552 32.816 282.496 33.128 283.712 33.128C284.48 33.128 285.192 32.976 285.848 32.672C286.52 32.368 287.072 31.92 287.504 31.328L289.184 32.528C288.592 33.344 287.8 33.984 286.808 34.448C285.816 34.912 284.752 35.144 283.616 35.144ZM299.083 27.632L303.619 35H300.955L297.283 29L294.163 31.424L293.443 35H291.139L294.691 17.192H296.995L294.739 28.52L302.635 22.28H305.875L299.083 27.632Z" fill="#202020"/>
<circle cx="530.242" cy="24.2425" r="24.2425" fill="#202020"/>
<path d="M528.937 30.6406L526.363 26.9506C526.255 26.9626 526.093 26.9686 525.877 26.9686H523.033V30.6406H520.693V18.0406H525.877C526.969 18.0406 527.917 18.2206 528.721 18.5806C529.537 18.9406 530.161 19.4566 530.593 20.1286C531.025 20.8006 531.241 21.5986 531.241 22.5226C531.241 23.4706 531.007 24.2866 530.539 24.9706C530.083 25.6546 529.423 26.1646 528.559 26.5006L531.457 30.6406H528.937ZM528.883 22.5226C528.883 21.7186 528.619 21.1006 528.091 20.6686C527.563 20.2366 526.789 20.0206 525.769 20.0206H523.033V25.0426H525.769C526.789 25.0426 527.563 24.8266 528.091 24.3946C528.619 23.9506 528.883 23.3266 528.883 22.5226ZM535.645 30.8206C534.841 30.8206 534.097 30.6646 533.413 30.3526C532.741 30.0286 532.189 29.5786 531.757 29.0026L533.089 27.4006C533.785 28.3606 534.619 28.8406 535.591 28.8406C536.899 28.8406 537.553 28.0666 537.553 26.5186V20.0026H533.071V18.0406H539.893V26.3926C539.893 27.8686 539.533 28.9786 538.813 29.7226C538.093 30.4546 537.037 30.8206 535.645 30.8206Z" fill="white"/>
<circle cx="494.242" cy="25.2425" r="23.2425" fill="white" stroke="#C4C4C4" stroke-width="2"/>
<path d="M488.927 19.0406C490.019 19.0406 490.967 19.2206 491.771 19.5806C492.587 19.9406 493.211 20.4566 493.643 21.1286C494.075 21.8006 494.291 22.5986 494.291 23.5226C494.291 24.4346 494.075 25.2326 493.643 25.9166C493.211 26.5886 492.587 27.1046 491.771 27.4646C490.967 27.8246 490.019 28.0046 488.927 28.0046H486.083V31.6406H483.743V19.0406H488.927ZM488.819 26.0246C489.839 26.0246 490.613 25.8086 491.141 25.3766C491.669 24.9446 491.933 24.3266 491.933 23.5226C491.933 22.7186 491.669 22.1006 491.141 21.6686C490.613 21.2366 489.839 21.0206 488.819 21.0206H486.083V26.0246H488.819ZM500.71 31.8206C499.738 31.8206 498.796 31.6826 497.884 31.4066C496.984 31.1306 496.27 30.7646 495.742 30.3086L496.552 28.4906C497.068 28.8986 497.698 29.2346 498.442 29.4986C499.198 29.7506 499.954 29.8766 500.71 29.8766C501.646 29.8766 502.342 29.7266 502.798 29.4266C503.266 29.1266 503.5 28.7306 503.5 28.2386C503.5 27.8786 503.368 27.5846 503.104 27.3566C502.852 27.1166 502.528 26.9306 502.132 26.7986C501.736 26.6666 501.196 26.5166 500.512 26.3486C499.552 26.1206 498.772 25.8926 498.172 25.6646C497.584 25.4366 497.074 25.0826 496.642 24.6026C496.222 24.1106 496.012 23.4506 496.012 22.6226C496.012 21.9266 496.198 21.2966 496.57 20.7326C496.954 20.1566 497.524 19.7006 498.28 19.3646C499.048 19.0286 499.984 18.8606 501.088 18.8606C501.856 18.8606 502.612 18.9566 503.356 19.1486C504.1 19.3406 504.742 19.6166 505.282 19.9766L504.544 21.7946C503.992 21.4706 503.416 21.2246 502.816 21.0566C502.216 20.8886 501.634 20.8046 501.07 20.8046C500.146 20.8046 499.456 20.9606 499 21.2726C498.556 21.5846 498.334 21.9986 498.334 22.5146C498.334 22.8746 498.46 23.1686 498.712 23.3966C498.976 23.6246 499.306 23.8046 499.702 23.9366C500.098 24.0686 500.638 24.2186 501.322 24.3866C502.258 24.6026 503.026 24.8306 503.626 25.0706C504.226 25.2986 504.736 25.6526 505.156 26.1326C505.588 26.6126 505.804 27.2606 505.804 28.0766C505.804 28.7726 505.612 29.4026 505.228 29.9666C504.856 30.5306 504.286 30.9806 503.518 31.3166C502.75 31.6526 501.814 31.8206 500.71 31.8206Z" fill="#202020"/>
<circle cx="458.242" cy="24.2425" r="24.2425" fill="#FFEE52"/>
<path d="M455.977 27.7246H449.677L448.435 30.6406H446.023L451.693 18.0406H453.997L459.685 30.6406H457.237L455.977 27.7246ZM455.203 25.8886L452.827 20.3806L450.469 25.8886H455.203ZM461.287 18.0406H463.627V28.6606H470.215V30.6406H461.287V18.0406Z" fill="#202020"/>
<circle cx="422.242" cy="24.2425" r="24.2425" fill="#E06B65"/>
<path d="M419.704 27.7246H413.404L412.162 30.6406H409.75L415.42 18.0406H417.724L423.412 30.6406H420.964L419.704 27.7246ZM418.93 25.8886L416.554 20.3806L414.196 25.8886H418.93ZM428.921 30.8206C427.949 30.8206 427.007 30.6826 426.095 30.4066C425.195 30.1306 424.481 29.7646 423.953 29.3086L424.763 27.4906C425.279 27.8986 425.909 28.2346 426.653 28.4986C427.409 28.7506 428.165 28.8766 428.921 28.8766C429.857 28.8766 430.553 28.7266 431.009 28.4266C431.477 28.1266 431.711 27.7306 431.711 27.2386C431.711 26.8786 431.579 26.5846 431.315 26.3566C431.063 26.1166 430.739 25.9306 430.343 25.7986C429.947 25.6666 429.407 25.5166 428.723 25.3486C427.763 25.1206 426.983 24.8926 426.383 24.6646C425.795 24.4366 425.285 24.0826 424.853 23.6026C424.433 23.1106 424.223 22.4506 424.223 21.6226C424.223 20.9266 424.409 20.2966 424.781 19.7326C425.165 19.1566 425.735 18.7006 426.491 18.3646C427.259 18.0286 428.195 17.8606 429.299 17.8606C430.067 17.8606 430.823 17.9566 431.567 18.1486C432.311 18.3406 432.953 18.6166 433.493 18.9766L432.755 20.7946C432.203 20.4706 431.627 20.2246 431.027 20.0566C430.427 19.8886 429.845 19.8046 429.281 19.8046C428.357 19.8046 427.667 19.9606 427.211 20.2726C426.767 20.5846 426.545 20.9986 426.545 21.5146C426.545 21.8746 426.671 22.1686 426.923 22.3966C427.187 22.6246 427.517 22.8046 427.913 22.9366C428.309 23.0686 428.849 23.2186 429.533 23.3866C430.469 23.6026 431.237 23.8306 431.837 24.0706C432.437 24.2986 432.947 24.6526 433.367 25.1326C433.799 25.6126 434.015 26.2606 434.015 27.0766C434.015 27.7726 433.823 28.4026 433.439 28.9666C433.067 29.5306 432.497 29.9806 431.729 30.3166C430.961 30.6526 430.025 30.8206 428.921 30.8206Z" fill="#202020"/>
<circle cx="386.242" cy="24.2425" r="23.2425" fill="#99CC99" stroke="#99CC99" stroke-width="2"/>
<path d="M381.839 30.8206C380.567 30.8206 379.415 30.5446 378.383 29.9926C377.363 29.4286 376.559 28.6546 375.971 27.6706C375.395 26.6866 375.107 25.5766 375.107 24.3406C375.107 23.1046 375.401 21.9946 375.989 21.0106C376.577 20.0266 377.381 19.2586 378.401 18.7066C379.433 18.1426 380.585 17.8606 381.857 17.8606C382.889 17.8606 383.831 18.0406 384.683 18.4006C385.535 18.7606 386.255 19.2826 386.843 19.9666L385.331 21.3886C384.419 20.4046 383.297 19.9126 381.965 19.9126C381.101 19.9126 380.327 20.1046 379.643 20.4886C378.959 20.8606 378.425 21.3826 378.041 22.0546C377.657 22.7266 377.465 23.4886 377.465 24.3406C377.465 25.1926 377.657 25.9546 378.041 26.6266C378.425 27.2986 378.959 27.8266 379.643 28.2106C380.327 28.5826 381.101 28.7686 381.965 28.7686C383.297 28.7686 384.419 28.2706 385.331 27.2746L386.843 28.7146C386.255 29.3986 385.529 29.9206 384.665 30.2806C383.813 30.6406 382.871 30.8206 381.839 30.8206ZM389.085 18.0406H391.425V28.6606H398.013V30.6406H389.085V18.0406Z" fill="#202020"/>
<circle cx="350.242" cy="24.2425" r="24.2425" fill="#99CCFF"/>
<circle cx="350.242" cy="24.2425" r="23.2425" stroke="#99CCFF" stroke-opacity="0.77" stroke-width="2"/>
<path d="M340.121 18.0406H342.461V28.6606H349.049V30.6406H340.121V18.0406ZM356.5 30.8206C355.228 30.8206 354.076 30.5446 353.044 29.9926C352.024 29.4286 351.22 28.6546 350.632 27.6706C350.056 26.6866 349.768 25.5766 349.768 24.3406C349.768 23.1046 350.062 21.9946 350.65 21.0106C351.238 20.0266 352.042 19.2586 353.062 18.7066C354.094 18.1426 355.246 17.8606 356.518 17.8606C357.55 17.8606 358.492 18.0406 359.344 18.4006C360.196 18.7606 360.916 19.2826 361.504 19.9666L359.992 21.3886C359.08 20.4046 357.958 19.9126 356.626 19.9126C355.762 19.9126 354.988 20.1046 354.304 20.4886C353.62 20.8606 353.086 21.3826 352.702 22.0546C352.318 22.7266 352.126 23.4886 352.126 24.3406C352.126 25.1926 352.318 25.9546 352.702 26.6266C353.086 27.2986 353.62 27.8266 354.304 28.2106C354.988 28.5826 355.762 28.7686 356.626 28.7686C357.958 28.7686 359.08 28.2706 359.992 27.2746L361.504 28.7146C360.916 29.3986 360.19 29.9206 359.326 30.2806C358.474 30.6406 357.532 30.8206 356.5 30.8206Z" fill="#202020"/>
</svg>
