<svg width="198" height="49" viewBox="0 0 198 49" fill="none" xmlns="http://www.w3.org/2000/svg">
<rect y="28" width="135" height="20" rx="10" fill="#F6D0E0" fill-opacity="0.8"/>
<path d="M13.0921 19.288H7.35608L7.76408 17.2H21.6601L21.2281 19.288H15.4921L12.5401 34H10.1641L13.0921 19.288ZM21.5215 28.36V28.504C21.5215 29.688 21.8575 30.592 22.5295 31.216C23.2015 31.824 24.2095 32.128 25.5535 32.128C26.3375 32.128 27.0735 32 27.7615 31.744C28.4495 31.472 29.0255 31.112 29.4895 30.664L30.4735 32.32C29.8495 32.896 29.0895 33.344 28.1935 33.664C27.2975 33.984 26.3535 34.144 25.3615 34.144C24.1135 34.144 23.0335 33.92 22.1215 33.472C21.2095 33.024 20.5055 32.384 20.0095 31.552C19.5135 30.72 19.2655 29.744 19.2655 28.624C19.2655 27.2 19.5695 25.92 20.1775 24.784C20.8015 23.648 21.6575 22.76 22.7455 22.12C23.8495 21.48 25.0815 21.16 26.4415 21.16C28.1695 21.16 29.5455 21.656 30.5695 22.648C31.6095 23.624 32.1295 24.96 32.1295 26.656C32.1295 27.168 32.0735 27.736 31.9615 28.36H21.5215ZM26.3455 23.08C25.2095 23.08 24.2335 23.4 23.4175 24.04C22.6015 24.68 22.0495 25.56 21.7615 26.68H29.9695C30.0335 25.544 29.7295 24.664 29.0575 24.04C28.4015 23.4 27.4975 23.08 26.3455 23.08ZM39.9854 34.144C38.7694 34.144 37.7054 33.92 36.7934 33.472C35.8814 33.008 35.1774 32.368 34.6814 31.552C34.1854 30.72 33.9374 29.752 33.9374 28.648C33.9374 27.224 34.2574 25.944 34.8974 24.808C35.5374 23.672 36.4254 22.784 37.5614 22.144C38.6974 21.488 39.9854 21.16 41.4254 21.16C43.9374 21.16 45.6814 22.08 46.6574 23.92L44.7134 25C44.0414 23.784 42.8894 23.176 41.2574 23.176C40.3134 23.176 39.4574 23.408 38.6894 23.872C37.9374 24.32 37.3454 24.952 36.9134 25.768C36.4814 26.584 36.2654 27.512 36.2654 28.552C36.2654 29.672 36.5934 30.552 37.2494 31.192C37.9214 31.816 38.8654 32.128 40.0814 32.128C40.8494 32.128 41.5614 31.976 42.2174 31.672C42.8894 31.368 43.4414 30.92 43.8734 30.328L45.5534 31.528C44.9614 32.344 44.1694 32.984 43.1774 33.448C42.1854 33.912 41.1214 34.144 39.9854 34.144ZM56.5323 21.16C57.9883 21.16 59.1163 21.528 59.9163 22.264C60.7323 23 61.1403 24.04 61.1403 25.384C61.1403 25.848 61.0923 26.344 60.9963 26.872L59.5803 34H57.2763L58.6923 26.872C58.7723 26.44 58.8123 26.088 58.8123 25.816C58.8123 24.984 58.5643 24.344 58.0683 23.896C57.5723 23.448 56.8363 23.224 55.8603 23.224C54.6123 23.224 53.5803 23.568 52.7643 24.256C51.9643 24.928 51.4283 25.936 51.1563 27.28L49.8123 34H47.5083L51.0603 16.192H53.3643L52.0443 22.768C53.1803 21.696 54.6763 21.16 56.5323 21.16ZM83.6095 25.336C84.3615 25.592 84.9455 26.008 85.3615 26.584C85.7775 27.16 85.9855 27.88 85.9855 28.744C85.9855 30.44 85.3295 31.744 84.0175 32.656C82.7215 33.552 80.9455 34 78.6895 34H70.6015L73.9615 17.2H81.4015C83.0975 17.2 84.4015 17.52 85.3135 18.16C86.2415 18.784 86.7055 19.696 86.7055 20.896C86.7055 21.984 86.4175 22.912 85.8415 23.68C85.2815 24.432 84.5375 24.984 83.6095 25.336ZM75.9535 19.144L74.8735 24.52H79.7935C81.1535 24.52 82.2255 24.248 83.0095 23.704C83.8095 23.144 84.2095 22.336 84.2095 21.28C84.2095 20.56 83.9215 20.024 83.3455 19.672C82.7855 19.32 81.9695 19.144 80.8975 19.144H75.9535ZM78.8575 32.056C80.3775 32.056 81.5455 31.776 82.3615 31.216C83.1935 30.64 83.6095 29.824 83.6095 28.768C83.6095 27.936 83.3135 27.344 82.7215 26.992C82.1455 26.64 81.2735 26.464 80.1055 26.464H74.4895L73.3855 32.056H78.8575ZM102.95 21.28L100.43 34H98.2216L98.5336 32.44C97.9576 32.984 97.2856 33.408 96.5176 33.712C95.7656 34 94.9416 34.144 94.0456 34.144C92.9576 34.144 91.9896 33.928 91.1416 33.496C90.2936 33.048 89.6296 32.408 89.1496 31.576C88.6696 30.744 88.4296 29.768 88.4296 28.648C88.4296 27.208 88.7416 25.92 89.3656 24.784C89.9896 23.648 90.8456 22.76 91.9336 22.12C93.0376 21.48 94.2696 21.16 95.6296 21.16C96.7176 21.16 97.6456 21.352 98.4136 21.736C99.1976 22.12 99.7976 22.688 100.214 23.44L100.646 21.28H102.95ZM94.5496 32.128C95.4936 32.128 96.3416 31.904 97.0936 31.456C97.8616 30.992 98.4536 30.352 98.8696 29.536C99.3016 28.72 99.5176 27.792 99.5176 26.752C99.5176 25.616 99.1896 24.736 98.5336 24.112C97.8776 23.488 96.9416 23.176 95.7256 23.176C94.7816 23.176 93.9336 23.408 93.1816 23.872C92.4296 24.32 91.8376 24.952 91.4056 25.768C90.9736 26.584 90.7576 27.512 90.7576 28.552C90.7576 29.672 91.0856 30.552 91.7416 31.192C92.4136 31.816 93.3496 32.128 94.5496 32.128ZM108.821 34.144C107.765 34.144 106.757 34.008 105.797 33.736C104.853 33.464 104.117 33.112 103.589 32.68L104.621 30.856C105.117 31.256 105.757 31.576 106.541 31.816C107.341 32.04 108.173 32.152 109.037 32.152C110.125 32.152 110.949 31.992 111.509 31.672C112.085 31.336 112.373 30.872 112.373 30.28C112.373 29.8 112.141 29.456 111.677 29.248C111.229 29.04 110.525 28.832 109.565 28.624C108.669 28.432 107.933 28.24 107.357 28.048C106.797 27.84 106.317 27.52 105.917 27.088C105.517 26.64 105.317 26.04 105.317 25.288C105.317 24.456 105.549 23.728 106.013 23.104C106.493 22.48 107.165 22 108.029 21.664C108.909 21.328 109.925 21.16 111.077 21.16C111.925 21.16 112.749 21.264 113.549 21.472C114.349 21.68 115.005 21.96 115.517 22.312L114.605 24.136C114.109 23.8 113.533 23.552 112.877 23.392C112.221 23.216 111.549 23.128 110.861 23.128C109.821 23.128 109.021 23.304 108.461 23.656C107.901 23.992 107.621 24.448 107.621 25.024C107.621 25.536 107.853 25.904 108.317 26.128C108.781 26.336 109.501 26.544 110.477 26.752C111.357 26.944 112.077 27.136 112.637 27.328C113.197 27.52 113.669 27.832 114.053 28.264C114.453 28.696 114.653 29.28 114.653 30.016C114.653 31.312 114.117 32.328 113.045 33.064C111.989 33.784 110.581 34.144 108.821 34.144ZM119.068 28.36V28.504C119.068 29.688 119.404 30.592 120.076 31.216C120.748 31.824 121.756 32.128 123.1 32.128C123.884 32.128 124.62 32 125.308 31.744C125.996 31.472 126.572 31.112 127.036 30.664L128.02 32.32C127.396 32.896 126.636 33.344 125.74 33.664C124.844 33.984 123.9 34.144 122.908 34.144C121.66 34.144 120.58 33.92 119.668 33.472C118.756 33.024 118.052 32.384 117.556 31.552C117.06 30.72 116.812 29.744 116.812 28.624C116.812 27.2 117.116 25.92 117.724 24.784C118.348 23.648 119.204 22.76 120.292 22.12C121.396 21.48 122.628 21.16 123.988 21.16C125.716 21.16 127.092 21.656 128.116 22.648C129.156 23.624 129.676 24.96 129.676 26.656C129.676 27.168 129.62 27.736 129.508 28.36H119.068ZM123.892 23.08C122.756 23.08 121.78 23.4 120.964 24.04C120.148 24.68 119.596 25.56 119.308 26.68H127.516C127.58 25.544 127.276 24.664 126.604 24.04C125.948 23.4 125.044 23.08 123.892 23.08Z" fill="#202020"/>
<circle cx="173.242" cy="24.2425" r="24.2425" fill="#202020"/>
<path d="M171.937 30.6406L169.363 26.9506C169.255 26.9626 169.093 26.9686 168.877 26.9686H166.033V30.6406H163.693V18.0406H168.877C169.969 18.0406 170.917 18.2206 171.721 18.5806C172.537 18.9406 173.161 19.4566 173.593 20.1286C174.025 20.8006 174.241 21.5986 174.241 22.5226C174.241 23.4706 174.007 24.2866 173.539 24.9706C173.083 25.6546 172.423 26.1646 171.559 26.5006L174.457 30.6406H171.937ZM171.883 22.5226C171.883 21.7186 171.619 21.1006 171.091 20.6686C170.563 20.2366 169.789 20.0206 168.769 20.0206H166.033V25.0426H168.769C169.789 25.0426 170.563 24.8266 171.091 24.3946C171.619 23.9506 171.883 23.3266 171.883 22.5226ZM178.645 30.8206C177.841 30.8206 177.097 30.6646 176.413 30.3526C175.741 30.0286 175.189 29.5786 174.757 29.0026L176.089 27.4006C176.785 28.3606 177.619 28.8406 178.591 28.8406C179.899 28.8406 180.553 28.0666 180.553 26.5186V20.0026H176.071V18.0406H182.893V26.3926C182.893 27.8686 182.533 28.9786 181.813 29.7226C181.093 30.4546 180.037 30.8206 178.645 30.8206Z" fill="white"/>
</svg>
