<svg width="412" height="49" viewBox="0 0 412 49" fill="none" xmlns="http://www.w3.org/2000/svg">
<rect y="28" width="308" height="20" rx="10" fill="#F6D0E0" fill-opacity="0.8"/>
<path d="M8.97128 17.327H11.3713L8.41928 32.039H17.5393L17.1313 34.127H5.61128L8.97128 17.327ZM25.3372 34.271C24.1372 34.271 23.0892 34.047 22.1932 33.599C21.2972 33.135 20.6012 32.487 20.1052 31.655C19.6092 30.823 19.3612 29.863 19.3612 28.775C19.3612 27.351 19.6812 26.071 20.3212 24.935C20.9612 23.799 21.8492 22.911 22.9852 22.271C24.1212 21.615 25.4012 21.287 26.8252 21.287C28.0252 21.287 29.0732 21.511 29.9692 21.959C30.8652 22.407 31.5532 23.047 32.0332 23.879C32.5292 24.695 32.7772 25.655 32.7772 26.759C32.7772 28.183 32.4572 29.471 31.8172 30.623C31.1772 31.759 30.2892 32.655 29.1532 33.311C28.0332 33.951 26.7612 34.271 25.3372 34.271ZM25.4812 32.255C26.4252 32.255 27.2732 32.031 28.0252 31.583C28.7932 31.119 29.3852 30.479 29.8012 29.663C30.2332 28.847 30.4492 27.919 30.4492 26.879C30.4492 25.743 30.1212 24.863 29.4652 24.239C28.8092 23.615 27.8732 23.303 26.6572 23.303C25.7132 23.303 24.8652 23.535 24.1132 23.999C23.3612 24.447 22.7692 25.079 22.3372 25.895C21.9052 26.711 21.6892 27.639 21.6892 28.679C21.6892 29.799 22.0172 30.679 22.6732 31.319C23.3452 31.943 24.2812 32.255 25.4812 32.255ZM49.3076 21.407L47.1236 32.399C46.6756 34.671 45.8276 36.327 44.5796 37.367C43.3476 38.407 41.6596 38.927 39.5156 38.927C38.3156 38.927 37.2196 38.767 36.2276 38.447C35.2356 38.143 34.3956 37.703 33.7076 37.127L34.9796 35.351C35.4916 35.815 36.1556 36.183 36.9716 36.455C37.8036 36.743 38.7076 36.887 39.6836 36.887C41.1556 36.887 42.2916 36.551 43.0916 35.879C43.9076 35.207 44.4596 34.167 44.7476 32.759L44.9396 31.847C43.7236 33.015 42.1876 33.599 40.3316 33.599C39.2116 33.599 38.2196 33.391 37.3556 32.975C36.5076 32.559 35.8436 31.959 35.3636 31.175C34.8996 30.391 34.6676 29.471 34.6676 28.415C34.6676 27.087 34.9716 25.879 35.5796 24.791C36.2036 23.703 37.0676 22.847 38.1716 22.223C39.2756 21.599 40.5236 21.287 41.9156 21.287C43.0036 21.287 43.9636 21.495 44.7956 21.911C45.6436 22.311 46.2676 22.919 46.6676 23.735L47.1236 21.407H49.3076ZM40.7876 31.583C41.7476 31.583 42.6036 31.375 43.3556 30.959C44.1236 30.527 44.7156 29.935 45.1316 29.183C45.5636 28.415 45.7796 27.551 45.7796 26.591C45.7796 25.567 45.4436 24.767 44.7716 24.191C44.1156 23.599 43.1876 23.303 41.9876 23.303C41.0276 23.303 40.1636 23.519 39.3956 23.951C38.6436 24.367 38.0516 24.959 37.6196 25.727C37.2036 26.479 36.9956 27.327 36.9956 28.271C36.9956 29.311 37.3316 30.127 38.0036 30.719C38.6756 31.295 39.6036 31.583 40.7876 31.583ZM57.1419 34.271C55.9419 34.271 54.8939 34.047 53.9979 33.599C53.1019 33.135 52.4059 32.487 51.9099 31.655C51.4139 30.823 51.1659 29.863 51.1659 28.775C51.1659 27.351 51.4859 26.071 52.1259 24.935C52.7659 23.799 53.6539 22.911 54.7899 22.271C55.9259 21.615 57.2059 21.287 58.6299 21.287C59.8299 21.287 60.8779 21.511 61.7739 21.959C62.6699 22.407 63.3579 23.047 63.8379 23.879C64.3339 24.695 64.5819 25.655 64.5819 26.759C64.5819 28.183 64.2619 29.471 63.6219 30.623C62.9819 31.759 62.0939 32.655 60.9579 33.311C59.8379 33.951 58.5659 34.271 57.1419 34.271ZM57.2859 32.255C58.2299 32.255 59.0779 32.031 59.8299 31.583C60.5979 31.119 61.1899 30.479 61.6059 29.663C62.0379 28.847 62.2539 27.919 62.2539 26.879C62.2539 25.743 61.9259 24.863 61.2699 24.239C60.6139 23.615 59.6779 23.303 58.4619 23.303C57.5179 23.303 56.6699 23.535 55.9179 23.999C55.1659 24.447 54.5739 25.079 54.1419 25.895C53.7099 26.711 53.4939 27.639 53.4939 28.679C53.4939 29.799 53.8219 30.679 54.4779 31.319C55.1499 31.943 56.0859 32.255 57.2859 32.255ZM76.5416 17.327H83.1176C84.7976 17.327 86.2376 17.615 87.4376 18.191C88.6536 18.751 89.5736 19.551 90.1976 20.591C90.8376 21.615 91.1576 22.823 91.1576 24.215C91.1576 26.167 90.7176 27.895 89.8376 29.399C88.9736 30.903 87.7496 32.071 86.1656 32.903C84.5976 33.719 82.7736 34.127 80.6936 34.127H73.1816L76.5416 17.327ZM80.7656 32.039C82.3816 32.039 83.7896 31.711 84.9896 31.055C86.1896 30.399 87.1096 29.495 87.7496 28.343C88.4056 27.175 88.7336 25.847 88.7336 24.359C88.7336 22.807 88.2376 21.599 87.2456 20.735C86.2536 19.855 84.7976 19.415 82.8776 19.415H78.5096L75.9896 32.039H80.7656ZM94.9297 28.487V28.631C94.9297 29.815 95.2657 30.719 95.9377 31.343C96.6097 31.951 97.6177 32.255 98.9617 32.255C99.7457 32.255 100.482 32.127 101.17 31.871C101.858 31.599 102.434 31.239 102.898 30.791L103.882 32.447C103.258 33.023 102.498 33.471 101.602 33.791C100.706 34.111 99.7617 34.271 98.7697 34.271C97.5217 34.271 96.4417 34.047 95.5297 33.599C94.6177 33.151 93.9137 32.511 93.4177 31.679C92.9217 30.847 92.6737 29.871 92.6737 28.751C92.6737 27.327 92.9777 26.047 93.5857 24.911C94.2097 23.775 95.0657 22.887 96.1537 22.247C97.2577 21.607 98.4897 21.287 99.8497 21.287C101.578 21.287 102.954 21.783 103.978 22.775C105.018 23.751 105.538 25.087 105.538 26.783C105.538 27.295 105.482 27.863 105.37 28.487H94.9297ZM99.7537 23.207C98.6177 23.207 97.6417 23.527 96.8257 24.167C96.0097 24.807 95.4577 25.687 95.1697 26.807H103.378C103.442 25.671 103.138 24.791 102.466 24.167C101.81 23.527 100.906 23.207 99.7537 23.207ZM111.378 34.271C110.322 34.271 109.314 34.135 108.354 33.863C107.41 33.591 106.674 33.239 106.146 32.807L107.178 30.983C107.674 31.383 108.314 31.703 109.098 31.943C109.898 32.167 110.73 32.279 111.594 32.279C112.682 32.279 113.506 32.119 114.066 31.799C114.642 31.463 114.93 30.999 114.93 30.407C114.93 29.927 114.698 29.583 114.234 29.375C113.786 29.167 113.082 28.959 112.122 28.751C111.226 28.559 110.49 28.367 109.914 28.175C109.354 27.967 108.874 27.647 108.474 27.215C108.074 26.767 107.874 26.167 107.874 25.415C107.874 24.583 108.106 23.855 108.57 23.231C109.05 22.607 109.722 22.127 110.586 21.791C111.466 21.455 112.482 21.287 113.634 21.287C114.482 21.287 115.306 21.391 116.106 21.599C116.906 21.807 117.562 22.087 118.074 22.439L117.162 24.263C116.666 23.927 116.09 23.679 115.434 23.519C114.778 23.343 114.106 23.255 113.418 23.255C112.378 23.255 111.578 23.431 111.018 23.783C110.458 24.119 110.178 24.575 110.178 25.151C110.178 25.663 110.41 26.031 110.874 26.255C111.338 26.463 112.058 26.671 113.034 26.879C113.914 27.071 114.634 27.263 115.194 27.455C115.754 27.647 116.226 27.959 116.61 28.391C117.01 28.823 117.21 29.407 117.21 30.143C117.21 31.439 116.674 32.455 115.602 33.191C114.546 33.911 113.138 34.271 111.378 34.271ZM121.913 21.407H124.217L121.697 34.127H119.393L121.913 21.407ZM123.737 18.959C123.321 18.959 122.977 18.823 122.705 18.551C122.433 18.279 122.297 17.951 122.297 17.567C122.297 17.119 122.449 16.743 122.753 16.439C123.073 16.119 123.473 15.959 123.953 15.959C124.369 15.959 124.713 16.095 124.985 16.367C125.273 16.623 125.417 16.935 125.417 17.303C125.417 17.799 125.257 18.199 124.937 18.503C124.633 18.807 124.233 18.959 123.737 18.959ZM140.784 21.407L138.6 32.399C138.152 34.671 137.304 36.327 136.056 37.367C134.824 38.407 133.136 38.927 130.992 38.927C129.792 38.927 128.696 38.767 127.704 38.447C126.712 38.143 125.872 37.703 125.184 37.127L126.456 35.351C126.968 35.815 127.632 36.183 128.448 36.455C129.28 36.743 130.184 36.887 131.16 36.887C132.632 36.887 133.768 36.551 134.568 35.879C135.384 35.207 135.936 34.167 136.224 32.759L136.416 31.847C135.2 33.015 133.664 33.599 131.808 33.599C130.688 33.599 129.696 33.391 128.832 32.975C127.984 32.559 127.32 31.959 126.84 31.175C126.376 30.391 126.144 29.471 126.144 28.415C126.144 27.087 126.448 25.879 127.056 24.791C127.68 23.703 128.544 22.847 129.648 22.223C130.752 21.599 132 21.287 133.392 21.287C134.48 21.287 135.44 21.495 136.272 21.911C137.12 22.311 137.744 22.919 138.144 23.735L138.6 21.407H140.784ZM132.264 31.583C133.224 31.583 134.08 31.375 134.832 30.959C135.6 30.527 136.192 29.935 136.608 29.183C137.04 28.415 137.256 27.551 137.256 26.591C137.256 25.567 136.92 24.767 136.248 24.191C135.592 23.599 134.664 23.303 133.464 23.303C132.504 23.303 131.64 23.519 130.872 23.951C130.12 24.367 129.528 24.959 129.096 25.727C128.68 26.479 128.472 27.327 128.472 28.271C128.472 29.311 128.808 30.127 129.48 30.719C130.152 31.295 131.08 31.583 132.264 31.583ZM151.69 21.287C153.146 21.287 154.274 21.655 155.074 22.391C155.89 23.127 156.298 24.167 156.298 25.511C156.298 25.975 156.25 26.471 156.154 26.999L154.738 34.127H152.434L153.85 26.999C153.93 26.567 153.97 26.215 153.97 25.943C153.97 25.111 153.722 24.471 153.226 24.023C152.73 23.575 151.994 23.351 151.018 23.351C149.77 23.351 148.738 23.695 147.922 24.383C147.122 25.055 146.586 26.063 146.314 27.407L144.97 34.127H142.666L145.186 21.407H147.394L147.082 23.039C148.234 21.871 149.77 21.287 151.69 21.287ZM180.064 26.759C179.488 28.263 178.744 29.591 177.832 30.743L179.56 32.879L178.024 34.391L176.32 32.279C174.672 33.639 172.76 34.319 170.584 34.319C168.92 34.319 167.592 33.967 166.6 33.263C165.624 32.543 165.136 31.575 165.136 30.359C165.136 29.223 165.544 28.215 166.36 27.335C167.176 26.439 168.456 25.575 170.2 24.743C169.784 24.183 169.472 23.647 169.264 23.135C169.056 22.607 168.952 22.071 168.952 21.527C168.952 20.199 169.416 19.143 170.344 18.359C171.272 17.575 172.456 17.183 173.896 17.183C175.064 17.183 176.008 17.463 176.728 18.023C177.448 18.567 177.808 19.319 177.808 20.279C177.808 21.303 177.448 22.183 176.728 22.919C176.024 23.655 174.88 24.399 173.296 25.151L176.608 29.231C177.28 28.335 177.832 27.311 178.264 26.159L180.064 26.759ZM173.824 18.863C172.992 18.863 172.32 19.087 171.808 19.535C171.312 19.967 171.064 20.559 171.064 21.311C171.064 21.679 171.152 22.063 171.328 22.463C171.52 22.863 171.816 23.319 172.216 23.831C173.16 23.383 173.888 22.991 174.4 22.655C174.928 22.303 175.296 21.959 175.504 21.623C175.728 21.287 175.84 20.903 175.84 20.471C175.84 20.007 175.656 19.623 175.288 19.319C174.936 19.015 174.448 18.863 173.824 18.863ZM170.728 32.399C172.344 32.399 173.808 31.863 175.12 30.791L171.28 26.087C169.888 26.759 168.896 27.383 168.304 27.959C167.728 28.535 167.44 29.207 167.44 29.975C167.44 30.695 167.728 31.279 168.304 31.727C168.88 32.175 169.688 32.399 170.728 32.399ZM201.666 25.463C202.418 25.719 203.002 26.135 203.418 26.711C203.834 27.287 204.042 28.007 204.042 28.871C204.042 30.567 203.386 31.871 202.074 32.783C200.778 33.679 199.002 34.127 196.746 34.127H188.658L192.018 17.327H199.458C201.154 17.327 202.458 17.647 203.37 18.287C204.298 18.911 204.762 19.823 204.762 21.023C204.762 22.111 204.474 23.039 203.898 23.807C203.338 24.559 202.594 25.111 201.666 25.463ZM194.01 19.271L192.93 24.647H197.85C199.21 24.647 200.282 24.375 201.066 23.831C201.866 23.271 202.266 22.463 202.266 21.407C202.266 20.687 201.978 20.151 201.402 19.799C200.842 19.447 200.026 19.271 198.954 19.271H194.01ZM196.914 32.183C198.434 32.183 199.602 31.903 200.418 31.343C201.25 30.767 201.666 29.951 201.666 28.895C201.666 28.063 201.37 27.471 200.778 27.119C200.202 26.767 199.33 26.591 198.162 26.591H192.546L191.442 32.183H196.914ZM210.878 23.303C211.438 22.599 212.126 22.087 212.942 21.767C213.758 21.447 214.75 21.287 215.918 21.287L215.486 23.519C215.342 23.503 215.142 23.495 214.886 23.495C212.246 23.495 210.646 24.919 210.086 27.767L208.814 34.127H206.51L209.03 21.407H211.238L210.878 23.303ZM230.569 21.407L228.049 34.127H225.841L226.153 32.567C225.577 33.111 224.905 33.535 224.137 33.839C223.385 34.127 222.561 34.271 221.665 34.271C220.577 34.271 219.609 34.055 218.761 33.623C217.913 33.175 217.249 32.535 216.769 31.703C216.289 30.871 216.049 29.895 216.049 28.775C216.049 27.335 216.361 26.047 216.985 24.911C217.609 23.775 218.465 22.887 219.553 22.247C220.657 21.607 221.889 21.287 223.249 21.287C224.337 21.287 225.265 21.479 226.033 21.863C226.817 22.247 227.417 22.815 227.833 23.567L228.265 21.407H230.569ZM222.169 32.255C223.113 32.255 223.961 32.031 224.713 31.583C225.481 31.119 226.073 30.479 226.489 29.663C226.921 28.847 227.137 27.919 227.137 26.879C227.137 25.743 226.809 24.863 226.153 24.239C225.497 23.615 224.561 23.303 223.345 23.303C222.401 23.303 221.553 23.535 220.801 23.999C220.049 24.447 219.457 25.079 219.025 25.895C218.593 26.711 218.377 27.639 218.377 28.679C218.377 29.799 218.705 30.679 219.361 31.319C220.033 31.943 220.969 32.255 222.169 32.255ZM241.456 21.287C242.912 21.287 244.04 21.655 244.84 22.391C245.656 23.127 246.064 24.167 246.064 25.511C246.064 25.975 246.016 26.471 245.92 26.999L244.504 34.127H242.2L243.616 26.999C243.696 26.567 243.736 26.215 243.736 25.943C243.736 25.111 243.488 24.471 242.992 24.023C242.496 23.575 241.76 23.351 240.784 23.351C239.536 23.351 238.504 23.695 237.688 24.383C236.888 25.055 236.352 26.063 236.08 27.407L234.736 34.127H232.432L234.952 21.407H237.16L236.848 23.039C238 21.871 239.536 21.287 241.456 21.287ZM264.366 16.319L260.814 34.127H258.606L258.918 32.567C258.342 33.111 257.67 33.535 256.902 33.839C256.15 34.127 255.326 34.271 254.43 34.271C253.342 34.271 252.374 34.055 251.526 33.623C250.678 33.175 250.014 32.535 249.534 31.703C249.054 30.871 248.814 29.895 248.814 28.775C248.814 27.335 249.126 26.047 249.75 24.911C250.374 23.775 251.23 22.887 252.318 22.247C253.422 21.607 254.654 21.287 256.014 21.287C257.102 21.287 258.038 21.487 258.822 21.887C259.622 22.271 260.222 22.839 260.622 23.591L262.062 16.319H264.366ZM254.934 32.255C255.878 32.255 256.726 32.031 257.478 31.583C258.246 31.119 258.838 30.479 259.254 29.663C259.686 28.847 259.902 27.919 259.902 26.879C259.902 25.743 259.574 24.863 258.918 24.239C258.262 23.615 257.326 23.303 256.11 23.303C255.166 23.303 254.318 23.535 253.566 23.999C252.814 24.447 252.222 25.079 251.79 25.895C251.358 26.711 251.142 27.639 251.142 28.679C251.142 29.799 251.47 30.679 252.126 31.319C252.798 31.943 253.734 32.255 254.934 32.255ZM267.718 21.407H270.022L267.502 34.127H265.198L267.718 21.407ZM269.542 18.959C269.126 18.959 268.782 18.823 268.51 18.551C268.238 18.279 268.102 17.951 268.102 17.567C268.102 17.119 268.254 16.743 268.558 16.439C268.878 16.119 269.278 15.959 269.758 15.959C270.174 15.959 270.518 16.095 270.79 16.367C271.078 16.623 271.222 16.935 271.222 17.303C271.222 17.799 271.062 18.199 270.742 18.503C270.438 18.807 270.038 18.959 269.542 18.959ZM280.925 21.287C282.381 21.287 283.509 21.655 284.309 22.391C285.125 23.127 285.533 24.167 285.533 25.511C285.533 25.975 285.485 26.471 285.389 26.999L283.973 34.127H281.669L283.085 26.999C283.165 26.567 283.205 26.215 283.205 25.943C283.205 25.111 282.957 24.471 282.461 24.023C281.965 23.575 281.229 23.351 280.253 23.351C279.005 23.351 277.973 23.695 277.157 24.383C276.357 25.055 275.821 26.063 275.549 27.407L274.205 34.127H271.901L274.421 21.407H276.629L276.317 23.039C277.469 21.871 279.005 21.287 280.925 21.287ZM302.995 21.407L300.811 32.399C300.363 34.671 299.515 36.327 298.267 37.367C297.035 38.407 295.347 38.927 293.203 38.927C292.003 38.927 290.907 38.767 289.915 38.447C288.923 38.143 288.083 37.703 287.395 37.127L288.667 35.351C289.179 35.815 289.843 36.183 290.659 36.455C291.491 36.743 292.395 36.887 293.371 36.887C294.843 36.887 295.979 36.551 296.779 35.879C297.595 35.207 298.147 34.167 298.435 32.759L298.627 31.847C297.411 33.015 295.875 33.599 294.019 33.599C292.899 33.599 291.907 33.391 291.043 32.975C290.195 32.559 289.531 31.959 289.051 31.175C288.587 30.391 288.355 29.471 288.355 28.415C288.355 27.087 288.659 25.879 289.267 24.791C289.891 23.703 290.755 22.847 291.859 22.223C292.963 21.599 294.211 21.287 295.603 21.287C296.691 21.287 297.651 21.495 298.483 21.911C299.331 22.311 299.955 22.919 300.355 23.735L300.811 21.407H302.995ZM294.475 31.583C295.435 31.583 296.291 31.375 297.043 30.959C297.811 30.527 298.403 29.935 298.819 29.183C299.251 28.415 299.467 27.551 299.467 26.591C299.467 25.567 299.131 24.767 298.459 24.191C297.803 23.599 296.875 23.303 295.675 23.303C294.715 23.303 293.851 23.519 293.083 23.951C292.331 24.367 291.739 24.959 291.307 25.727C290.891 26.479 290.683 27.327 290.683 28.271C290.683 29.311 291.019 30.127 291.691 30.719C292.363 31.295 293.291 31.583 294.475 31.583Z" fill="#202020"/>
<circle cx="387.242" cy="24.2425" r="23.2425" fill="white" stroke="#C4C4C4" stroke-width="2"/>
<path d="M381.927 18.0406C383.019 18.0406 383.967 18.2206 384.771 18.5806C385.587 18.9406 386.211 19.4566 386.643 20.1286C387.075 20.8006 387.291 21.5986 387.291 22.5226C387.291 23.4346 387.075 24.2326 386.643 24.9166C386.211 25.5886 385.587 26.1046 384.771 26.4646C383.967 26.8246 383.019 27.0046 381.927 27.0046H379.083V30.6406H376.743V18.0406H381.927ZM381.819 25.0246C382.839 25.0246 383.613 24.8086 384.141 24.3766C384.669 23.9446 384.933 23.3266 384.933 22.5226C384.933 21.7186 384.669 21.1006 384.141 20.6686C383.613 20.2366 382.839 20.0206 381.819 20.0206H379.083V25.0246H381.819ZM393.71 30.8206C392.738 30.8206 391.796 30.6826 390.884 30.4066C389.984 30.1306 389.27 29.7646 388.742 29.3086L389.552 27.4906C390.068 27.8986 390.698 28.2346 391.442 28.4986C392.198 28.7506 392.954 28.8766 393.71 28.8766C394.646 28.8766 395.342 28.7266 395.798 28.4266C396.266 28.1266 396.5 27.7306 396.5 27.2386C396.5 26.8786 396.368 26.5846 396.104 26.3566C395.852 26.1166 395.528 25.9306 395.132 25.7986C394.736 25.6666 394.196 25.5166 393.512 25.3486C392.552 25.1206 391.772 24.8926 391.172 24.6646C390.584 24.4366 390.074 24.0826 389.642 23.6026C389.222 23.1106 389.012 22.4506 389.012 21.6226C389.012 20.9266 389.198 20.2966 389.57 19.7326C389.954 19.1566 390.524 18.7006 391.28 18.3646C392.048 18.0286 392.984 17.8606 394.088 17.8606C394.856 17.8606 395.612 17.9566 396.356 18.1486C397.1 18.3406 397.742 18.6166 398.282 18.9766L397.544 20.7946C396.992 20.4706 396.416 20.2246 395.816 20.0566C395.216 19.8886 394.634 19.8046 394.07 19.8046C393.146 19.8046 392.456 19.9606 392 20.2726C391.556 20.5846 391.334 20.9986 391.334 21.5146C391.334 21.8746 391.46 22.1686 391.712 22.3966C391.976 22.6246 392.306 22.8046 392.702 22.9366C393.098 23.0686 393.638 23.2186 394.322 23.3866C395.258 23.6026 396.026 23.8306 396.626 24.0706C397.226 24.2986 397.736 24.6526 398.156 25.1326C398.588 25.6126 398.804 26.2606 398.804 27.0766C398.804 27.7726 398.612 28.4026 398.228 28.9666C397.856 29.5306 397.286 29.9806 396.518 30.3166C395.75 30.6526 394.814 30.8206 393.71 30.8206Z" fill="#202020"/>
<circle cx="351.242" cy="24.2425" r="24.2425" fill="#99CCFF"/>
<circle cx="351.242" cy="24.2425" r="23.2425" stroke="#99CCFF" stroke-opacity="0.78" stroke-width="2"/>
<path d="M341.121 18.0406H343.461V28.6606H350.049V30.6406H341.121V18.0406ZM357.5 30.8206C356.228 30.8206 355.076 30.5446 354.044 29.9926C353.024 29.4286 352.22 28.6546 351.632 27.6706C351.056 26.6866 350.768 25.5766 350.768 24.3406C350.768 23.1046 351.062 21.9946 351.65 21.0106C352.238 20.0266 353.042 19.2586 354.062 18.7066C355.094 18.1426 356.246 17.8606 357.518 17.8606C358.55 17.8606 359.492 18.0406 360.344 18.4006C361.196 18.7606 361.916 19.2826 362.504 19.9666L360.992 21.3886C360.08 20.4046 358.958 19.9126 357.626 19.9126C356.762 19.9126 355.988 20.1046 355.304 20.4886C354.62 20.8606 354.086 21.3826 353.702 22.0546C353.318 22.7266 353.126 23.4886 353.126 24.3406C353.126 25.1926 353.318 25.9546 353.702 26.6266C354.086 27.2986 354.62 27.8266 355.304 28.2106C355.988 28.5826 356.762 28.7686 357.626 28.7686C358.958 28.7686 360.08 28.2706 360.992 27.2746L362.504 28.7146C361.916 29.3986 361.19 29.9206 360.326 30.2806C359.474 30.6406 358.532 30.8206 357.5 30.8206Z" fill="#202020"/>
</svg>
