<svg width="358" height="49" viewBox="0 0 358 49" fill="none" xmlns="http://www.w3.org/2000/svg">
<rect x="4" y="28" width="143" height="20" rx="10" fill="#F6D0E0" fill-opacity="0.8"/>
<path d="M35.3289 17.2L26.3529 34H23.8089L21.9369 20.656L14.6169 34H12.0729L9.81694 17.2H12.1689L13.9929 30.904L21.4329 17.2H23.6649L25.5369 30.928L32.9289 17.2H35.3289ZM37.1123 21.28H39.4163L36.8963 34H34.5923L37.1123 21.28ZM38.9363 18.832C38.5203 18.832 38.1763 18.696 37.9043 18.424C37.6323 18.152 37.4963 17.824 37.4963 17.44C37.4963 16.992 37.6483 16.616 37.9523 16.312C38.2723 15.992 38.6723 15.832 39.1523 15.832C39.5683 15.832 39.9123 15.968 40.1843 16.24C40.4723 16.496 40.6163 16.808 40.6163 17.176C40.6163 17.672 40.4563 18.072 40.1363 18.376C39.8323 18.68 39.4323 18.832 38.9363 18.832ZM45.6634 23.176C46.2234 22.472 46.9114 21.96 47.7274 21.64C48.5434 21.32 49.5354 21.16 50.7034 21.16L50.2714 23.392C50.1274 23.376 49.9274 23.368 49.6714 23.368C47.0314 23.368 45.4314 24.792 44.8714 27.64L43.5994 34H41.2954L43.8154 21.28H46.0234L45.6634 23.176ZM53.0899 28.36V28.504C53.0899 29.688 53.4259 30.592 54.0979 31.216C54.7699 31.824 55.7779 32.128 57.1219 32.128C57.9059 32.128 58.6419 32 59.3299 31.744C60.0179 31.472 60.5939 31.112 61.0579 30.664L62.0419 32.32C61.4179 32.896 60.6579 33.344 59.7619 33.664C58.8659 33.984 57.9219 34.144 56.9299 34.144C55.6819 34.144 54.6019 33.92 53.6899 33.472C52.7779 33.024 52.0739 32.384 51.5779 31.552C51.0819 30.72 50.8339 29.744 50.8339 28.624C50.8339 27.2 51.1379 25.92 51.7459 24.784C52.3699 23.648 53.2259 22.76 54.3139 22.12C55.4179 21.48 56.6499 21.16 58.0099 21.16C59.7379 21.16 61.1139 21.656 62.1379 22.648C63.1779 23.624 63.6979 24.96 63.6979 26.656C63.6979 27.168 63.6419 27.736 63.5299 28.36H53.0899ZM57.9139 23.08C56.7779 23.08 55.8019 23.4 54.9859 24.04C54.1699 24.68 53.6179 25.56 53.3299 26.68H61.5379C61.6019 25.544 61.2979 24.664 60.6259 24.04C59.9699 23.4 59.0659 23.08 57.9139 23.08ZM73.3538 17.944C72.6658 17.944 72.1218 18.136 71.7218 18.52C71.3218 18.888 71.0338 19.472 70.8578 20.272L70.6418 21.28H74.3378L73.9538 23.176H70.3298L68.1458 34H65.8418L68.0258 23.176H65.8418L66.2018 21.28H68.4098L68.6498 20.08C68.9058 18.784 69.4258 17.792 70.2098 17.104C71.0098 16.4 72.0578 16.048 73.3538 16.048C73.8818 16.048 74.3778 16.12 74.8418 16.264C75.3218 16.392 75.7138 16.584 76.0178 16.84L75.0578 18.544C74.6098 18.144 74.0418 17.944 73.3538 17.944ZM80.2806 23.176C80.8406 22.472 81.5286 21.96 82.3446 21.64C83.1606 21.32 84.1526 21.16 85.3206 21.16L84.8886 23.392C84.7446 23.376 84.5446 23.368 84.2886 23.368C81.6486 23.368 80.0486 24.792 79.4886 27.64L78.2166 34H75.9126L78.4326 21.28H80.6406L80.2806 23.176ZM99.9711 21.28L97.4511 34H95.2431L95.5551 32.44C94.9791 32.984 94.3071 33.408 93.5391 33.712C92.7871 34 91.9631 34.144 91.0671 34.144C89.9791 34.144 89.0111 33.928 88.1631 33.496C87.3151 33.048 86.6511 32.408 86.1711 31.576C85.6911 30.744 85.4511 29.768 85.4511 28.648C85.4511 27.208 85.7631 25.92 86.3871 24.784C87.0111 23.648 87.8671 22.76 88.9551 22.12C90.0591 21.48 91.2911 21.16 92.6511 21.16C93.7391 21.16 94.6671 21.352 95.4351 21.736C96.2191 22.12 96.8191 22.688 97.2351 23.44L97.6671 21.28H99.9711ZM91.5711 32.128C92.5151 32.128 93.3631 31.904 94.1151 31.456C94.8831 30.992 95.4751 30.352 95.8911 29.536C96.3231 28.72 96.5391 27.792 96.5391 26.752C96.5391 25.616 96.2111 24.736 95.5551 24.112C94.8991 23.488 93.9631 23.176 92.7471 23.176C91.8031 23.176 90.9551 23.408 90.2031 23.872C89.4511 24.32 88.8591 24.952 88.4271 25.768C87.9951 26.584 87.7791 27.512 87.7791 28.552C87.7791 29.672 88.1071 30.552 88.7631 31.192C89.4351 31.816 90.3711 32.128 91.5711 32.128ZM119.93 21.16C121.37 21.16 122.49 21.528 123.29 22.264C124.106 22.984 124.514 24.016 124.514 25.36C124.514 25.728 124.458 26.232 124.346 26.872L122.93 34H120.626L122.042 26.872C122.122 26.424 122.162 26.056 122.162 25.768C122.162 24.936 121.93 24.304 121.466 23.872C121.002 23.44 120.298 23.224 119.354 23.224C118.17 23.224 117.194 23.56 116.426 24.232C115.674 24.888 115.162 25.88 114.89 27.208L113.522 34H111.218L112.658 26.872C112.738 26.44 112.778 26.08 112.778 25.792C112.778 24.96 112.538 24.328 112.058 23.896C111.594 23.448 110.89 23.224 109.946 23.224C108.762 23.224 107.786 23.56 107.018 24.232C106.266 24.904 105.754 25.92 105.482 27.28L104.138 34H101.834L104.354 21.28H106.562L106.25 22.864C107.37 21.728 108.842 21.16 110.666 21.16C111.658 21.16 112.506 21.352 113.21 21.736C113.914 22.12 114.426 22.68 114.746 23.416C116.042 21.912 117.77 21.16 119.93 21.16ZM129.496 28.36V28.504C129.496 29.688 129.832 30.592 130.504 31.216C131.176 31.824 132.184 32.128 133.528 32.128C134.312 32.128 135.048 32 135.736 31.744C136.424 31.472 137 31.112 137.464 30.664L138.448 32.32C137.824 32.896 137.064 33.344 136.168 33.664C135.272 33.984 134.328 34.144 133.336 34.144C132.088 34.144 131.008 33.92 130.096 33.472C129.184 33.024 128.48 32.384 127.984 31.552C127.488 30.72 127.24 29.744 127.24 28.624C127.24 27.2 127.544 25.92 128.152 24.784C128.776 23.648 129.632 22.76 130.72 22.12C131.824 21.48 133.056 21.16 134.416 21.16C136.144 21.16 137.52 21.656 138.544 22.648C139.584 23.624 140.104 24.96 140.104 26.656C140.104 27.168 140.048 27.736 139.936 28.36H129.496ZM134.32 23.08C133.184 23.08 132.208 23.4 131.392 24.04C130.576 24.68 130.024 25.56 129.736 26.68H137.944C138.008 25.544 137.704 24.664 137.032 24.04C136.376 23.4 135.472 23.08 134.32 23.08Z" fill="#202020"/>
<circle cx="333.242" cy="24.2425" r="24.2425" fill="#99CC99"/>
<path d="M328.839 30.8206C327.567 30.8206 326.415 30.5446 325.383 29.9926C324.363 29.4286 323.559 28.6546 322.971 27.6706C322.395 26.6866 322.107 25.5766 322.107 24.3406C322.107 23.1046 322.401 21.9946 322.989 21.0106C323.577 20.0266 324.381 19.2586 325.401 18.7066C326.433 18.1426 327.585 17.8606 328.857 17.8606C329.889 17.8606 330.831 18.0406 331.683 18.4006C332.535 18.7606 333.255 19.2826 333.843 19.9666L332.331 21.3886C331.419 20.4046 330.297 19.9126 328.965 19.9126C328.101 19.9126 327.327 20.1046 326.643 20.4886C325.959 20.8606 325.425 21.3826 325.041 22.0546C324.657 22.7266 324.465 23.4886 324.465 24.3406C324.465 25.1926 324.657 25.9546 325.041 26.6266C325.425 27.2986 325.959 27.8266 326.643 28.2106C327.327 28.5826 328.101 28.7686 328.965 28.7686C330.297 28.7686 331.419 28.2706 332.331 27.2746L333.843 28.7146C333.255 29.3986 332.529 29.9206 331.665 30.2806C330.813 30.6406 329.871 30.8206 328.839 30.8206ZM336.085 18.0406H338.425V28.6606H345.013V30.6406H336.085V18.0406Z" fill="#202020"/>
<circle cx="296.242" cy="24.2425" r="23.2425" fill="white" stroke="#C4C4C4" stroke-width="2"/>
<path d="M290.927 18.0406C292.019 18.0406 292.967 18.2206 293.771 18.5806C294.587 18.9406 295.211 19.4566 295.643 20.1286C296.075 20.8006 296.291 21.5986 296.291 22.5226C296.291 23.4346 296.075 24.2326 295.643 24.9166C295.211 25.5886 294.587 26.1046 293.771 26.4646C292.967 26.8246 292.019 27.0046 290.927 27.0046H288.083V30.6406H285.743V18.0406H290.927ZM290.819 25.0246C291.839 25.0246 292.613 24.8086 293.141 24.3766C293.669 23.9446 293.933 23.3266 293.933 22.5226C293.933 21.7186 293.669 21.1006 293.141 20.6686C292.613 20.2366 291.839 20.0206 290.819 20.0206H288.083V25.0246H290.819ZM302.71 30.8206C301.738 30.8206 300.796 30.6826 299.884 30.4066C298.984 30.1306 298.27 29.7646 297.742 29.3086L298.552 27.4906C299.068 27.8986 299.698 28.2346 300.442 28.4986C301.198 28.7506 301.954 28.8766 302.71 28.8766C303.646 28.8766 304.342 28.7266 304.798 28.4266C305.266 28.1266 305.5 27.7306 305.5 27.2386C305.5 26.8786 305.368 26.5846 305.104 26.3566C304.852 26.1166 304.528 25.9306 304.132 25.7986C303.736 25.6666 303.196 25.5166 302.512 25.3486C301.552 25.1206 300.772 24.8926 300.172 24.6646C299.584 24.4366 299.074 24.0826 298.642 23.6026C298.222 23.1106 298.012 22.4506 298.012 21.6226C298.012 20.9266 298.198 20.2966 298.57 19.7326C298.954 19.1566 299.524 18.7006 300.28 18.3646C301.048 18.0286 301.984 17.8606 303.088 17.8606C303.856 17.8606 304.612 17.9566 305.356 18.1486C306.1 18.3406 306.742 18.6166 307.282 18.9766L306.544 20.7946C305.992 20.4706 305.416 20.2246 304.816 20.0566C304.216 19.8886 303.634 19.8046 303.07 19.8046C302.146 19.8046 301.456 19.9606 301 20.2726C300.556 20.5846 300.334 20.9986 300.334 21.5146C300.334 21.8746 300.46 22.1686 300.712 22.3966C300.976 22.6246 301.306 22.8046 301.702 22.9366C302.098 23.0686 302.638 23.2186 303.322 23.3866C304.258 23.6026 305.026 23.8306 305.626 24.0706C306.226 24.2986 306.736 24.6526 307.156 25.1326C307.588 25.6126 307.804 26.2606 307.804 27.0766C307.804 27.7726 307.612 28.4026 307.228 28.9666C306.856 29.5306 306.286 29.9806 305.518 30.3166C304.75 30.6526 303.814 30.8206 302.71 30.8206Z" fill="#202020"/>
<circle cx="260.242" cy="24.2425" r="23.2425" fill="#99CCFF" stroke="#99CCFF" stroke-width="2"/>
<path d="M250.121 18.0406H252.461V28.6606H259.049V30.6406H250.121V18.0406ZM266.5 30.8206C265.228 30.8206 264.076 30.5446 263.044 29.9926C262.024 29.4286 261.22 28.6546 260.632 27.6706C260.056 26.6866 259.768 25.5766 259.768 24.3406C259.768 23.1046 260.062 21.9946 260.65 21.0106C261.238 20.0266 262.042 19.2586 263.062 18.7066C264.094 18.1426 265.246 17.8606 266.518 17.8606C267.55 17.8606 268.492 18.0406 269.344 18.4006C270.196 18.7606 270.916 19.2826 271.504 19.9666L269.992 21.3886C269.08 20.4046 267.958 19.9126 266.626 19.9126C265.762 19.9126 264.988 20.1046 264.304 20.4886C263.62 20.8606 263.086 21.3826 262.702 22.0546C262.318 22.7266 262.126 23.4886 262.126 24.3406C262.126 25.1926 262.318 25.9546 262.702 26.6266C263.086 27.2986 263.62 27.8266 264.304 28.2106C264.988 28.5826 265.762 28.7686 266.626 28.7686C267.958 28.7686 269.08 28.2706 269.992 27.2746L271.504 28.7146C270.916 29.3986 270.19 29.9206 269.326 30.2806C268.474 30.6406 267.532 30.8206 266.5 30.8206Z" fill="#202020"/>
<circle cx="224.242" cy="24.2425" r="24.2425" fill="#FFEE52"/>
<path d="M221.977 27.7246H215.677L214.435 30.6406H212.023L217.693 18.0406H219.997L225.685 30.6406H223.237L221.977 27.7246ZM221.203 25.8886L218.827 20.3806L216.469 25.8886H221.203ZM227.287 18.0406H229.627V28.6606H236.215V30.6406H227.287V18.0406Z" fill="#202020"/>
<circle cx="188.242" cy="24.2425" r="24.2425" fill="#E06B65"/>
<path d="M185.704 27.7246H179.404L178.162 30.6406H175.75L181.42 18.0406H183.724L189.412 30.6406H186.964L185.704 27.7246ZM184.93 25.8886L182.554 20.3806L180.196 25.8886H184.93ZM194.921 30.8206C193.949 30.8206 193.007 30.6826 192.095 30.4066C191.195 30.1306 190.481 29.7646 189.953 29.3086L190.763 27.4906C191.279 27.8986 191.909 28.2346 192.653 28.4986C193.409 28.7506 194.165 28.8766 194.921 28.8766C195.857 28.8766 196.553 28.7266 197.009 28.4266C197.477 28.1266 197.711 27.7306 197.711 27.2386C197.711 26.8786 197.579 26.5846 197.315 26.3566C197.063 26.1166 196.739 25.9306 196.343 25.7986C195.947 25.6666 195.407 25.5166 194.723 25.3486C193.763 25.1206 192.983 24.8926 192.383 24.6646C191.795 24.4366 191.285 24.0826 190.853 23.6026C190.433 23.1106 190.223 22.4506 190.223 21.6226C190.223 20.9266 190.409 20.2966 190.781 19.7326C191.165 19.1566 191.735 18.7006 192.491 18.3646C193.259 18.0286 194.195 17.8606 195.299 17.8606C196.067 17.8606 196.823 17.9566 197.567 18.1486C198.311 18.3406 198.953 18.6166 199.493 18.9766L198.755 20.7946C198.203 20.4706 197.627 20.2246 197.027 20.0566C196.427 19.8886 195.845 19.8046 195.281 19.8046C194.357 19.8046 193.667 19.9606 193.211 20.2726C192.767 20.5846 192.545 20.9986 192.545 21.5146C192.545 21.8746 192.671 22.1686 192.923 22.3966C193.187 22.6246 193.517 22.8046 193.913 22.9366C194.309 23.0686 194.849 23.2186 195.533 23.3866C196.469 23.6026 197.237 23.8306 197.837 24.0706C198.437 24.2986 198.947 24.6526 199.367 25.1326C199.799 25.6126 200.015 26.2606 200.015 27.0766C200.015 27.7726 199.823 28.4026 199.439 28.9666C199.067 29.5306 198.497 29.9806 197.729 30.3166C196.961 30.6526 196.025 30.8206 194.921 30.8206Z" fill="#202020"/>
</svg>
