<svg width="49" height="49" viewBox="0 0 49 49" fill="none" xmlns="http://www.w3.org/2000/svg">
<circle cx="24.2425" cy="24.2425" r="24.2425" fill="#202020"/>
<path d="M22.9366 30.6406L20.3626 26.9506C20.2546 26.9626 20.0926 26.9686 19.8766 26.9686H17.0326V30.6406H14.6926V18.0406H19.8766C20.9686 18.0406 21.9166 18.2206 22.7206 18.5806C23.5366 18.9406 24.1606 19.4566 24.5926 20.1286C25.0246 20.8006 25.2406 21.5986 25.2406 22.5226C25.2406 23.4706 25.0066 24.2866 24.5386 24.9706C24.0826 25.6546 23.4226 26.1646 22.5586 26.5006L25.4566 30.6406H22.9366ZM22.8826 22.5226C22.8826 21.7186 22.6186 21.1006 22.0906 20.6686C21.5626 20.2366 20.7886 20.0206 19.7686 20.0206H17.0326V25.0426H19.7686C20.7886 25.0426 21.5626 24.8266 22.0906 24.3946C22.6186 23.9506 22.8826 23.3266 22.8826 22.5226ZM29.6448 30.8206C28.8408 30.8206 28.0968 30.6646 27.4128 30.3526C26.7408 30.0286 26.1888 29.5786 25.7568 29.0026L27.0888 27.4006C27.7848 28.3606 28.6188 28.8406 29.5908 28.8406C30.8988 28.8406 31.5528 28.0666 31.5528 26.5186V20.0026H27.0708V18.0406H33.8928V26.3926C33.8928 27.8686 33.5328 28.9786 32.8128 29.7226C32.0928 30.4546 31.0368 30.8206 29.6448 30.8206Z" fill="white"/>
</svg>
