<svg width="229" height="50" viewBox="0 0 229 50" fill="none" xmlns="http://www.w3.org/2000/svg">
<circle cx="204.242" cy="24.2425" r="24.2425" fill="#202020"/>
<path d="M202.937 30.6406L200.363 26.9506C200.255 26.9626 200.093 26.9686 199.877 26.9686H197.033V30.6406H194.693V18.0406H199.877C200.969 18.0406 201.917 18.2206 202.721 18.5806C203.537 18.9406 204.161 19.4566 204.593 20.1286C205.025 20.8006 205.241 21.5986 205.241 22.5226C205.241 23.4706 205.007 24.2866 204.539 24.9706C204.083 25.6546 203.423 26.1646 202.559 26.5006L205.457 30.6406H202.937ZM202.883 22.5226C202.883 21.7186 202.619 21.1006 202.091 20.6686C201.563 20.2366 200.789 20.0206 199.769 20.0206H197.033V25.0426H199.769C200.789 25.0426 201.563 24.8266 202.091 24.3946C202.619 23.9506 202.883 23.3266 202.883 22.5226ZM209.645 30.8206C208.841 30.8206 208.097 30.6646 207.413 30.3526C206.741 30.0286 206.189 29.5786 205.757 29.0026L207.089 27.4006C207.785 28.3606 208.619 28.8406 209.591 28.8406C210.899 28.8406 211.553 28.0666 211.553 26.5186V20.0026H207.071V18.0406H213.893V26.3926C213.893 27.8686 213.533 28.9786 212.813 29.7226C212.093 30.4546 211.037 30.8206 209.645 30.8206Z" fill="white"/>
<circle cx="168.242" cy="25.2425" r="23.2425" fill="white" stroke="#C4C4C4" stroke-width="2"/>
<path d="M162.927 19.0406C164.019 19.0406 164.967 19.2206 165.771 19.5806C166.587 19.9406 167.211 20.4566 167.643 21.1286C168.075 21.8006 168.291 22.5986 168.291 23.5226C168.291 24.4346 168.075 25.2326 167.643 25.9166C167.211 26.5886 166.587 27.1046 165.771 27.4646C164.967 27.8246 164.019 28.0046 162.927 28.0046H160.083V31.6406H157.743V19.0406H162.927ZM162.819 26.0246C163.839 26.0246 164.613 25.8086 165.141 25.3766C165.669 24.9446 165.933 24.3266 165.933 23.5226C165.933 22.7186 165.669 22.1006 165.141 21.6686C164.613 21.2366 163.839 21.0206 162.819 21.0206H160.083V26.0246H162.819ZM174.71 31.8206C173.738 31.8206 172.796 31.6826 171.884 31.4066C170.984 31.1306 170.27 30.7646 169.742 30.3086L170.552 28.4906C171.068 28.8986 171.698 29.2346 172.442 29.4986C173.198 29.7506 173.954 29.8766 174.71 29.8766C175.646 29.8766 176.342 29.7266 176.798 29.4266C177.266 29.1266 177.5 28.7306 177.5 28.2386C177.5 27.8786 177.368 27.5846 177.104 27.3566C176.852 27.1166 176.528 26.9306 176.132 26.7986C175.736 26.6666 175.196 26.5166 174.512 26.3486C173.552 26.1206 172.772 25.8926 172.172 25.6646C171.584 25.4366 171.074 25.0826 170.642 24.6026C170.222 24.1106 170.012 23.4506 170.012 22.6226C170.012 21.9266 170.198 21.2966 170.57 20.7326C170.954 20.1566 171.524 19.7006 172.28 19.3646C173.048 19.0286 173.984 18.8606 175.088 18.8606C175.856 18.8606 176.612 18.9566 177.356 19.1486C178.1 19.3406 178.742 19.6166 179.282 19.9766L178.544 21.7946C177.992 21.4706 177.416 21.2246 176.816 21.0566C176.216 20.8886 175.634 20.8046 175.07 20.8046C174.146 20.8046 173.456 20.9606 173 21.2726C172.556 21.5846 172.334 21.9986 172.334 22.5146C172.334 22.8746 172.46 23.1686 172.712 23.3966C172.976 23.6246 173.306 23.8046 173.702 23.9366C174.098 24.0686 174.638 24.2186 175.322 24.3866C176.258 24.6026 177.026 24.8306 177.626 25.0706C178.226 25.2986 178.736 25.6526 179.156 26.1326C179.588 26.6126 179.804 27.2606 179.804 28.0766C179.804 28.7726 179.612 29.4026 179.228 29.9666C178.856 30.5306 178.286 30.9806 177.518 31.3166C176.75 31.6526 175.814 31.8206 174.71 31.8206Z" fill="#202020"/>
<circle cx="132.242" cy="24.2425" r="24.2425" fill="#FFEE52"/>
<path d="M129.977 27.7246H123.677L122.435 30.6406H120.023L125.693 18.0406H127.997L133.685 30.6406H131.237L129.977 27.7246ZM129.203 25.8886L126.827 20.3806L124.469 25.8886H129.203ZM135.287 18.0406H137.627V28.6606H144.215V30.6406H135.287V18.0406Z" fill="#202020"/>
<circle cx="96.2425" cy="24.2425" r="24.2425" fill="#E06B65"/>
<path d="M93.7045 27.7246H87.4045L86.1625 30.6406H83.7505L89.4205 18.0406H91.7245L97.4125 30.6406H94.9645L93.7045 27.7246ZM92.9305 25.8886L90.5545 20.3806L88.1965 25.8886H92.9305ZM102.921 30.8206C101.949 30.8206 101.007 30.6826 100.095 30.4066C99.1949 30.1306 98.4809 29.7646 97.9529 29.3086L98.7629 27.4906C99.2789 27.8986 99.9089 28.2346 100.653 28.4986C101.409 28.7506 102.165 28.8766 102.921 28.8766C103.857 28.8766 104.553 28.7266 105.009 28.4266C105.477 28.1266 105.711 27.7306 105.711 27.2386C105.711 26.8786 105.579 26.5846 105.315 26.3566C105.063 26.1166 104.739 25.9306 104.343 25.7986C103.947 25.6666 103.407 25.5166 102.723 25.3486C101.763 25.1206 100.983 24.8926 100.383 24.6646C99.7949 24.4366 99.2849 24.0826 98.8529 23.6026C98.4329 23.1106 98.2229 22.4506 98.2229 21.6226C98.2229 20.9266 98.4089 20.2966 98.7809 19.7326C99.1649 19.1566 99.7349 18.7006 100.491 18.3646C101.259 18.0286 102.195 17.8606 103.299 17.8606C104.067 17.8606 104.823 17.9566 105.567 18.1486C106.311 18.3406 106.953 18.6166 107.493 18.9766L106.755 20.7946C106.203 20.4706 105.627 20.2246 105.027 20.0566C104.427 19.8886 103.845 19.8046 103.281 19.8046C102.357 19.8046 101.667 19.9606 101.211 20.2726C100.767 20.5846 100.545 20.9986 100.545 21.5146C100.545 21.8746 100.671 22.1686 100.923 22.3966C101.187 22.6246 101.517 22.8046 101.913 22.9366C102.309 23.0686 102.849 23.2186 103.533 23.3866C104.469 23.6026 105.237 23.8306 105.837 24.0706C106.437 24.2986 106.947 24.6526 107.367 25.1326C107.799 25.6126 108.015 26.2606 108.015 27.0766C108.015 27.7726 107.823 28.4026 107.439 28.9666C107.067 29.5306 106.497 29.9806 105.729 30.3166C104.961 30.6526 104.025 30.8206 102.921 30.8206Z" fill="#202020"/>
<circle cx="60.2425" cy="24.2425" r="23.2425" fill="#99CC99" stroke="#99CC99" stroke-width="2"/>
<path d="M55.8391 30.8206C54.5671 30.8206 53.4151 30.5446 52.3831 29.9926C51.3631 29.4286 50.5591 28.6546 49.9711 27.6706C49.3951 26.6866 49.1071 25.5766 49.1071 24.3406C49.1071 23.1046 49.4011 21.9946 49.9891 21.0106C50.5771 20.0266 51.3811 19.2586 52.4011 18.7066C53.4331 18.1426 54.5851 17.8606 55.8571 17.8606C56.8891 17.8606 57.8311 18.0406 58.6831 18.4006C59.5351 18.7606 60.2551 19.2826 60.8431 19.9666L59.3311 21.3886C58.4191 20.4046 57.2971 19.9126 55.9651 19.9126C55.1011 19.9126 54.3271 20.1046 53.6431 20.4886C52.9591 20.8606 52.4251 21.3826 52.0411 22.0546C51.6571 22.7266 51.4651 23.4886 51.4651 24.3406C51.4651 25.1926 51.6571 25.9546 52.0411 26.6266C52.4251 27.2986 52.9591 27.8266 53.6431 28.2106C54.3271 28.5826 55.1011 28.7686 55.9651 28.7686C57.2971 28.7686 58.4191 28.2706 59.3311 27.2746L60.8431 28.7146C60.2551 29.3986 59.5291 29.9206 58.6651 30.2806C57.8131 30.6406 56.8711 30.8206 55.8391 30.8206ZM63.0852 18.0406H65.4252V28.6606H72.0132V30.6406H63.0852V18.0406Z" fill="#202020"/>
<circle cx="24.2425" cy="24.2425" r="24.2425" fill="#99CCFF"/>
<circle cx="24.2425" cy="24.2425" r="23.2425" stroke="#99CCFF" stroke-opacity="0.77" stroke-width="2"/>
<path d="M14.1213 18.0406H16.4613V28.6606H23.0493V30.6406H14.1213V18.0406ZM30.5002 30.8206C29.2282 30.8206 28.0762 30.5446 27.0442 29.9926C26.0242 29.4286 25.2202 28.6546 24.6322 27.6706C24.0562 26.6866 23.7682 25.5766 23.7682 24.3406C23.7682 23.1046 24.0622 21.9946 24.6502 21.0106C25.2382 20.0266 26.0422 19.2586 27.0622 18.7066C28.0942 18.1426 29.2462 17.8606 30.5182 17.8606C31.5502 17.8606 32.4922 18.0406 33.3442 18.4006C34.1962 18.7606 34.9162 19.2826 35.5042 19.9666L33.9922 21.3886C33.0802 20.4046 31.9582 19.9126 30.6262 19.9126C29.7622 19.9126 28.9882 20.1046 28.3042 20.4886C27.6202 20.8606 27.0862 21.3826 26.7022 22.0546C26.3182 22.7266 26.1262 23.4886 26.1262 24.3406C26.1262 25.1926 26.3182 25.9546 26.7022 26.6266C27.0862 27.2986 27.6202 27.8266 28.3042 28.2106C28.9882 28.5826 29.7622 28.7686 30.6262 28.7686C31.9582 28.7686 33.0802 28.2706 33.9922 27.2746L35.5042 28.7146C34.9162 29.3986 34.1902 29.9206 33.3262 30.2806C32.4742 30.6406 31.5322 30.8206 30.5002 30.8206Z" fill="#202020"/>
</svg>
