<svg width="194" height="49" viewBox="0 0 194 49" fill="none" xmlns="http://www.w3.org/2000/svg">
<circle cx="169.242" cy="24.2425" r="24.2425" fill="#99CC99"/>
<path d="M164.839 30.8206C163.567 30.8206 162.415 30.5446 161.383 29.9926C160.363 29.4286 159.559 28.6546 158.971 27.6706C158.395 26.6866 158.107 25.5766 158.107 24.3406C158.107 23.1046 158.401 21.9946 158.989 21.0106C159.577 20.0266 160.381 19.2586 161.401 18.7066C162.433 18.1426 163.585 17.8606 164.857 17.8606C165.889 17.8606 166.831 18.0406 167.683 18.4006C168.535 18.7606 169.255 19.2826 169.843 19.9666L168.331 21.3886C167.419 20.4046 166.297 19.9126 164.965 19.9126C164.101 19.9126 163.327 20.1046 162.643 20.4886C161.959 20.8606 161.425 21.3826 161.041 22.0546C160.657 22.7266 160.465 23.4886 160.465 24.3406C160.465 25.1926 160.657 25.9546 161.041 26.6266C161.425 27.2986 161.959 27.8266 162.643 28.2106C163.327 28.5826 164.101 28.7686 164.965 28.7686C166.297 28.7686 167.419 28.2706 168.331 27.2746L169.843 28.7146C169.255 29.3986 168.529 29.9206 167.665 30.2806C166.813 30.6406 165.871 30.8206 164.839 30.8206ZM172.085 18.0406H174.425V28.6606H181.013V30.6406H172.085V18.0406Z" fill="#202020"/>
<circle cx="132.242" cy="24.2425" r="23.2425" fill="white" stroke="#C4C4C4" stroke-width="2"/>
<path d="M126.927 18.0406C128.019 18.0406 128.967 18.2206 129.771 18.5806C130.587 18.9406 131.211 19.4566 131.643 20.1286C132.075 20.8006 132.291 21.5986 132.291 22.5226C132.291 23.4346 132.075 24.2326 131.643 24.9166C131.211 25.5886 130.587 26.1046 129.771 26.4646C128.967 26.8246 128.019 27.0046 126.927 27.0046H124.083V30.6406H121.743V18.0406H126.927ZM126.819 25.0246C127.839 25.0246 128.613 24.8086 129.141 24.3766C129.669 23.9446 129.933 23.3266 129.933 22.5226C129.933 21.7186 129.669 21.1006 129.141 20.6686C128.613 20.2366 127.839 20.0206 126.819 20.0206H124.083V25.0246H126.819ZM138.71 30.8206C137.738 30.8206 136.796 30.6826 135.884 30.4066C134.984 30.1306 134.27 29.7646 133.742 29.3086L134.552 27.4906C135.068 27.8986 135.698 28.2346 136.442 28.4986C137.198 28.7506 137.954 28.8766 138.71 28.8766C139.646 28.8766 140.342 28.7266 140.798 28.4266C141.266 28.1266 141.5 27.7306 141.5 27.2386C141.5 26.8786 141.368 26.5846 141.104 26.3566C140.852 26.1166 140.528 25.9306 140.132 25.7986C139.736 25.6666 139.196 25.5166 138.512 25.3486C137.552 25.1206 136.772 24.8926 136.172 24.6646C135.584 24.4366 135.074 24.0826 134.642 23.6026C134.222 23.1106 134.012 22.4506 134.012 21.6226C134.012 20.9266 134.198 20.2966 134.57 19.7326C134.954 19.1566 135.524 18.7006 136.28 18.3646C137.048 18.0286 137.984 17.8606 139.088 17.8606C139.856 17.8606 140.612 17.9566 141.356 18.1486C142.1 18.3406 142.742 18.6166 143.282 18.9766L142.544 20.7946C141.992 20.4706 141.416 20.2246 140.816 20.0566C140.216 19.8886 139.634 19.8046 139.07 19.8046C138.146 19.8046 137.456 19.9606 137 20.2726C136.556 20.5846 136.334 20.9986 136.334 21.5146C136.334 21.8746 136.46 22.1686 136.712 22.3966C136.976 22.6246 137.306 22.8046 137.702 22.9366C138.098 23.0686 138.638 23.2186 139.322 23.3866C140.258 23.6026 141.026 23.8306 141.626 24.0706C142.226 24.2986 142.736 24.6526 143.156 25.1326C143.588 25.6126 143.804 26.2606 143.804 27.0766C143.804 27.7726 143.612 28.4026 143.228 28.9666C142.856 29.5306 142.286 29.9806 141.518 30.3166C140.75 30.6526 139.814 30.8206 138.71 30.8206Z" fill="#202020"/>
<circle cx="96.2425" cy="24.2425" r="23.2425" fill="#99CCFF" stroke="#99CCFF" stroke-width="2"/>
<path d="M86.1213 18.0406H88.4613V28.6606H95.0493V30.6406H86.1213V18.0406ZM102.5 30.8206C101.228 30.8206 100.076 30.5446 99.0442 29.9926C98.0242 29.4286 97.2202 28.6546 96.6322 27.6706C96.0562 26.6866 95.7682 25.5766 95.7682 24.3406C95.7682 23.1046 96.0622 21.9946 96.6502 21.0106C97.2382 20.0266 98.0422 19.2586 99.0622 18.7066C100.094 18.1426 101.246 17.8606 102.518 17.8606C103.55 17.8606 104.492 18.0406 105.344 18.4006C106.196 18.7606 106.916 19.2826 107.504 19.9666L105.992 21.3886C105.08 20.4046 103.958 19.9126 102.626 19.9126C101.762 19.9126 100.988 20.1046 100.304 20.4886C99.6202 20.8606 99.0862 21.3826 98.7022 22.0546C98.3182 22.7266 98.1262 23.4886 98.1262 24.3406C98.1262 25.1926 98.3182 25.9546 98.7022 26.6266C99.0862 27.2986 99.6202 27.8266 100.304 28.2106C100.988 28.5826 101.762 28.7686 102.626 28.7686C103.958 28.7686 105.08 28.2706 105.992 27.2746L107.504 28.7146C106.916 29.3986 106.19 29.9206 105.326 30.2806C104.474 30.6406 103.532 30.8206 102.5 30.8206Z" fill="#202020"/>
<circle cx="60.2425" cy="24.2425" r="24.2425" fill="#FFEE52"/>
<path d="M57.9769 27.7246H51.6769L50.4349 30.6406H48.0229L53.6929 18.0406H55.9969L61.6849 30.6406H59.2369L57.9769 27.7246ZM57.2029 25.8886L54.8269 20.3806L52.4689 25.8886H57.2029ZM63.2873 18.0406H65.6273V28.6606H72.2153V30.6406H63.2873V18.0406Z" fill="#202020"/>
<circle cx="24.2425" cy="24.2425" r="24.2425" fill="#E06B65"/>
<path d="M21.7045 27.7246H15.4045L14.1625 30.6406H11.7505L17.4205 18.0406H19.7245L25.4125 30.6406H22.9645L21.7045 27.7246ZM20.9305 25.8886L18.5545 20.3806L16.1965 25.8886H20.9305ZM30.9209 30.8206C29.9489 30.8206 29.0069 30.6826 28.0949 30.4066C27.1949 30.1306 26.4809 29.7646 25.9529 29.3086L26.7629 27.4906C27.2789 27.8986 27.9089 28.2346 28.6529 28.4986C29.4089 28.7506 30.1649 28.8766 30.9209 28.8766C31.8569 28.8766 32.5529 28.7266 33.0089 28.4266C33.4769 28.1266 33.7109 27.7306 33.7109 27.2386C33.7109 26.8786 33.5789 26.5846 33.3149 26.3566C33.0629 26.1166 32.7389 25.9306 32.3429 25.7986C31.9469 25.6666 31.4069 25.5166 30.7229 25.3486C29.7629 25.1206 28.9829 24.8926 28.3829 24.6646C27.7949 24.4366 27.2849 24.0826 26.8529 23.6026C26.4329 23.1106 26.2229 22.4506 26.2229 21.6226C26.2229 20.9266 26.4089 20.2966 26.7809 19.7326C27.1649 19.1566 27.7349 18.7006 28.4909 18.3646C29.2589 18.0286 30.1949 17.8606 31.2989 17.8606C32.0669 17.8606 32.8229 17.9566 33.5669 18.1486C34.3109 18.3406 34.9529 18.6166 35.4929 18.9766L34.7549 20.7946C34.2029 20.4706 33.6269 20.2246 33.0269 20.0566C32.4269 19.8886 31.8449 19.8046 31.2809 19.8046C30.3569 19.8046 29.6669 19.9606 29.2109 20.2726C28.7669 20.5846 28.5449 20.9986 28.5449 21.5146C28.5449 21.8746 28.6709 22.1686 28.9229 22.3966C29.1869 22.6246 29.5169 22.8046 29.9129 22.9366C30.3089 23.0686 30.8489 23.2186 31.5329 23.3866C32.4689 23.6026 33.2369 23.8306 33.8369 24.0706C34.4369 24.2986 34.9469 24.6526 35.3669 25.1326C35.7989 25.6126 36.0149 26.2606 36.0149 27.0766C36.0149 27.7726 35.8229 28.4026 35.4389 28.9666C35.0669 29.5306 34.4969 29.9806 33.7289 30.3166C32.9609 30.6526 32.0249 30.8206 30.9209 30.8206Z" fill="#202020"/>
</svg>
