<svg width="79" height="81" viewBox="0 0 79 81" fill="none" xmlns="http://www.w3.org/2000/svg">
<path fill-rule="evenodd" clip-rule="evenodd" d="M39.9408 0.00223137C47.6403 -0.0987379 54.984 3.23544 61.2201 8.2716C67.4636 13.3136 72.0672 20.2711 74.9248 28.2544C77.9459 36.6945 80.6172 46.1165 77.8221 54.6529C75.0605 63.0869 67.2948 67.6716 60.4626 72.4234C54.1088 76.8425 47.4292 81.0453 39.9408 80.9996C32.477 80.9541 25.9694 76.4789 19.5815 72.174C12.5738 67.4515 4.20986 63.4601 1.26984 54.939C-1.71448 46.2895 1.07414 36.5516 4.35254 28.0355C7.40231 20.1133 12.7071 13.7994 19.0221 8.82498C25.2637 3.90836 32.2992 0.102441 39.9408 0.00223137Z" fill="#99CCFF"/>
<path d="M41.798 14.1917C41.798 14.1917 28.628 14.4017 28.418 33.0017C28.418 33.0017 21.308 31.7517 27.418 41.0017C27.418 41.0017 28.018 42.5817 29.888 41.0017C31.758 39.4217 28.138 44.7918 36.638 50.1618C36.638 50.1618 36.758 58.7817 34.638 60.1618C32.518 61.5418 46.258 66.2817 48.498 60.1618C47.0489 58.3876 46.2859 56.1516 46.348 53.8618C46.348 53.8618 55.788 53.3817 55.838 37.1217C55.888 20.8617 51.348 13.2517 41.798 14.1917Z" fill="#E8C0B6"/>
<path d="M66.3485 64.6419C66.3485 64.6419 63.6885 48.5319 64.9285 41.5119C66.1685 34.4919 52.7385 14.1519 52.7385 14.1519C52.7385 14.1519 53.9685 5.36185 47.7385 8.00185C47.7385 8.00185 43.4685 11.1019 35.7385 9.35185C28.0085 7.60185 23.3485 18.0819 23.8985 21.5719C23.8985 21.5719 11.0985 26.2319 14.9785 46.5719C18.8585 66.9119 17.848 77.0319 23.468 79.9419C29.088 82.8519 38.988 78.2508 44.468 70.1008C49.948 61.9508 54.9785 79.9419 54.9785 79.9419C54.9785 79.9419 67.9285 84.8119 66.3485 64.6419ZM53.6385 48.1219C51.1585 51.9619 49.4885 53.4419 47.0285 53.4419C44.5685 53.4419 48.1285 59.7119 48.1285 59.7119C41.5985 62.9119 35.3285 59.1819 35.3285 59.1819C38.1585 57.1819 37.3285 50.1819 37.3285 50.1819C33.8785 49.9619 30.4185 40.7119 30.4185 40.7119C27.5885 42.9319 26.3085 39.1519 26.3085 39.1519C23.8585 31.4819 28.4585 33.0219 28.4585 33.0219C27.8385 24.0219 37.9385 21.8519 43.9785 20.6219C50.0185 19.3919 50.5085 16.8019 50.5085 16.8019C57.9385 25.4619 56.1585 44.2219 53.6385 48.1219Z" fill="#202020"/>
<path d="M48.027 57.7829C42.3177 62.3504 36.7666 59.686 34.7048 57.7829C24.6087 57.3617 16.8589 72.9912 14.2461 80.8586H70.8646C65.631 71.2635 53.7363 53.2154 48.027 57.7829Z" fill="#C3DDF7"/>
</svg>
