<svg width="79" height="84" viewBox="0 0 79 84" fill="none" xmlns="http://www.w3.org/2000/svg">
<path fill-rule="evenodd" clip-rule="evenodd" d="M39.3169 0.0352434C47.2623 -0.268719 55.182 1.36897 61.9484 5.90302C69.1041 10.6979 75.7599 17.2777 78.1267 26.0411C80.4643 34.6963 77.7253 43.8511 74.4341 52.1324C71.394 59.7822 66.371 66.0126 60.2472 71.0303C54.0222 76.1311 47.0976 80.3509 39.3169 80.9073C31.1841 81.4889 22.9002 79.3438 16.2834 74.1745C9.64715 68.99 5.63435 60.9616 3.01805 52.5494C0.375489 44.0528 -1.36667 34.8056 1.41273 26.3607C4.15315 18.0342 10.9561 12.3549 17.8147 7.59142C24.3206 3.07289 31.5995 0.330481 39.3169 0.0352434Z" fill="#DCE2FF"/>
<path d="M41.6202 16.0898C41.6202 16.0898 28.4502 16.2998 28.2402 34.9098C28.2402 34.9098 21.1302 33.6498 27.2402 42.8498C27.2402 42.8498 27.8402 44.4298 29.7102 42.8498C31.5802 41.2698 27.9602 46.6398 36.4602 52.0098C36.4602 52.0098 36.5802 60.6298 34.4602 62.0098C32.3402 63.3898 46.0702 68.1298 48.3202 62.0098C46.8932 60.2486 46.1415 58.0359 46.2002 55.7698C46.2002 55.7698 55.6402 55.2898 55.6902 39.0298C55.7402 22.7698 51.2002 15.0898 41.6202 16.0898Z" fill="#F4D8BD"/>
<path d="M23.0405 23.5897C23.0405 23.5897 14.3805 30.3997 20.0405 35.7597C20.0405 35.7597 15.0905 43.1797 23.0405 46.3397C23.0405 46.3397 23.5905 52.3397 29.6405 50.1897C29.6405 50.1897 35.0005 56.9197 37.8805 50.6697C37.8805 50.6697 33.3505 52.1097 29.6405 42.3497C29.6405 42.3497 26.7505 45.5797 26.0705 39.6397C25.3905 33.6997 27.4405 32.6397 28.9505 36.1697C30.4605 39.6997 31.1505 38.4597 31.1505 38.4597C31.1505 38.4597 31.1505 29.2997 33.0705 29.8497C34.9905 30.3997 34.8605 30.8497 37.2005 25.7197C37.2005 25.7197 40.0805 33.9697 47.3705 25.3097C47.3705 25.3097 48.7405 25.3097 51.0805 28.1997C53.4205 31.0897 52.8605 25.3097 57.2605 25.8597C61.6605 26.4097 61.6605 19.5397 59.3205 17.7497C59.3205 17.7497 61.3805 13.9097 59.1805 11.9797C56.9805 10.0497 50.2305 4.34967 48.0405 7.54967C45.8505 10.7497 42.5405 3.08967 34.0405 10.6097C34.0405 10.6097 21.9205 8.40967 23.0405 23.5897Z" fill="#B56F35"/>
<path d="M47.4801 60.6642C41.7708 65.2317 36.2197 62.5674 34.1579 60.6642C24.0618 60.243 16.3121 75.8725 13.6992 83.7399H70.3177C65.0841 74.1449 53.1895 56.0967 47.4801 60.6642Z" fill="#99CC99"/>
</svg>
