<svg width="428" height="428" viewBox="0 0 428 428" fill="none" xmlns="http://www.w3.org/2000/svg">
<rect x="20" y="16" width="388" height="388" rx="194" fill="url(#paint0_linear)" fill-opacity="0.6"/>
<g filter="url(#filter0_d)">
<rect x="30" y="26" width="368" height="368" rx="184" stroke="url(#paint1_linear)" stroke-width="20"/>
</g>
<path fill-rule="evenodd" clip-rule="evenodd" d="M208.217 134.801C205.756 131.98 204.091 128.524 204.369 124.651C205.171 113.491 221.082 115.946 224.176 121.578C227.271 127.211 226.904 141.498 222.904 142.504C221.309 142.906 217.91 141.922 214.452 139.887L216.623 154.882H203.805L208.217 134.801Z" fill="#E4A76D" fill-opacity="0.72"/>
<path fill-rule="evenodd" clip-rule="evenodd" d="M216.867 115.087C215.178 114.816 210.629 114.631 209.79 114.631C209.254 114.631 208.673 114.75 208.356 114.27C208.096 113.876 208.191 113.21 208.114 112.754C208.024 112.223 207.896 111.7 207.766 111.177C207.398 109.691 206.841 108.277 206.061 106.949C204.599 104.458 202.456 102.507 199.752 101.371C196.765 100.118 193.385 99.8306 190.172 100.085C186.734 100.357 183.622 101.465 180.376 102.508C177.282 103.502 174.042 103.893 170.807 103.407C167.547 102.919 165.084 101.194 162.335 99.5564C159.52 97.8802 156.303 96.784 152.976 97.036C149.87 97.2713 147.007 98.5235 144.438 100.196C142.035 101.761 140.053 103.644 138.933 106.295C137.729 109.145 137.73 112.274 139.71 114.794C142.581 118.446 147.91 119.39 152.343 119.296C154.908 119.242 157.426 118.785 159.847 117.954C163.076 116.845 165.866 114.965 168.887 113.441C170.305 112.725 171.77 112.137 173.306 111.714C174.796 111.303 176.264 111.115 177.614 111.994C179.041 112.924 180.32 113.837 181.953 114.419C183.52 114.978 185.18 115.29 186.849 115.278C190.096 115.253 193.298 114.265 196.452 113.603C199.024 113.064 201.776 112.526 204.398 113.045C205.493 113.261 207.091 113.708 207.486 114.818C200.834 115.995 198.222 124.027 200.097 129.924C201.109 133.106 207.193 136.826 209.558 135.153C211.057 134.093 210.147 132.702 209.558 131.783C208.431 130.024 208.045 127.764 210.132 126.54C211.931 125.483 213.823 127.992 213.859 127.989C214.354 127.951 218.628 125.591 221.573 122.147C224.478 122.315 224.919 120.445 224.225 118.915C223.531 117.386 219.202 115.461 216.867 115.087Z" fill="#89572F"/>
<path fill-rule="evenodd" clip-rule="evenodd" d="M200.604 198.175L240.289 262.954L270.042 317.72H276.451L226.599 198.175L200.604 198.175Z" fill="#E4A76D" fill-opacity="0.72"/>
<path fill-rule="evenodd" clip-rule="evenodd" d="M266.121 315.192C265.523 316.749 265.225 317.914 265.225 318.687C265.225 319.628 265.385 321 265.706 322.804C266.823 322.804 276.864 322.804 295.829 322.804C296.612 320.277 296.16 318.913 294.474 318.712C292.787 318.51 291.386 318.328 290.27 318.166L276.269 312.072C276 311.954 275.684 312.073 275.564 312.336C275.562 312.34 275.56 312.345 275.558 312.349L274.658 314.481C273.097 315.192 271.828 315.548 270.852 315.548C270.059 315.548 268.964 315.235 267.566 314.609L267.566 314.609C267.03 314.369 266.396 314.599 266.15 315.123C266.14 315.145 266.13 315.168 266.121 315.192Z" fill="white"/>
<path fill-rule="evenodd" clip-rule="evenodd" d="M261.782 308.95L274.141 305.3C268.727 289.495 262.09 272.103 254.232 253.123C246.374 234.143 237.934 215.827 228.913 198.175H194.008C204.037 220.504 214.669 240.793 225.904 259.042C237.14 277.291 249.099 293.927 261.782 308.95Z" fill="#9DBDE2"/>
<path fill-rule="evenodd" clip-rule="evenodd" d="M197.997 198.175C194.252 220.939 187.028 250.022 186.346 250.92C185.891 251.518 169.529 256.871 137.258 266.98L138.642 272.497C177.125 267.076 197.402 262.87 199.474 259.879C202.581 255.393 218.096 219.953 224.105 198.175H197.997Z" fill="#DEA273"/>
<path fill-rule="evenodd" clip-rule="evenodd" d="M148.605 262.21L151.044 271.097C179.827 273.562 197.463 271.781 203.952 265.754C210.441 259.727 217.836 237.201 226.138 198.175H192.854C187.594 230.132 184.653 246.781 184.032 248.123C183.41 249.464 171.602 254.16 148.605 262.21Z" fill="#B9D0EC"/>
<path fill-rule="evenodd" clip-rule="evenodd" d="M138.834 264.681C137.16 264.377 135.932 264.292 135.153 264.427C134.204 264.59 132.848 264.983 131.084 265.604C131.278 266.679 133.022 276.333 136.315 294.569C138.999 294.883 140.297 294.211 140.207 292.555C140.117 290.898 140.058 289.519 140.028 288.418L143.743 273.898C143.815 273.618 143.641 273.335 143.355 273.266C143.35 273.264 143.345 273.263 143.34 273.262L141.034 272.767C140.045 271.389 139.466 270.231 139.297 269.292C139.159 268.53 139.284 267.422 139.672 265.97L139.672 265.97C139.821 265.413 139.479 264.843 138.909 264.698C138.884 264.691 138.859 264.686 138.834 264.681Z" fill="white"/>
<path fill-rule="evenodd" clip-rule="evenodd" d="M246.558 189.888L261.688 204.298C266.09 206.132 269.697 208.156 272.508 210.371C273.141 211.116 273.829 212.543 270.854 211.904C267.879 211.266 264.72 210.725 264.161 211.67C263.602 212.614 265.25 214.062 264.216 215.298C263.527 216.122 261.211 213.501 257.266 207.433L241.533 198.377L246.558 189.888ZM179.404 191.92L190.565 191.963C183.674 213.684 179.954 225.208 179.404 226.537C178.169 229.528 180.784 234.082 181.902 236.529C178.26 238.121 178.648 232.227 174.053 234.314C169.859 236.22 166.668 239.671 161.823 236.752C161.227 236.393 160.574 235.042 162.152 233.986C166.081 231.355 171.744 226.751 172.509 225.235C173.553 223.168 175.851 212.063 179.404 191.92Z" fill="#E4A76D" fill-opacity="0.72"/>
<path fill-rule="evenodd" clip-rule="evenodd" d="M211.123 146.197L215.741 145.423C223.692 164.816 237.574 182.438 257.387 198.287L242.415 216.046C222.605 193.479 210.394 170.196 211.123 146.197Z" fill="#D796B1"/>
<path fill-rule="evenodd" clip-rule="evenodd" d="M190.99 202.862H232.115C222.587 180.244 217.823 161.03 217.823 145.22L205.418 143.416C195.669 158.725 192.916 177.574 190.99 202.862Z" fill="#DDE3E9"/>
<path fill-rule="evenodd" clip-rule="evenodd" d="M205.155 143.424C205.157 143.421 205.158 143.418 205.16 143.416H205.97C206.939 143.448 208.414 143.507 210.397 143.592L213.395 151.955C213.712 162.153 215.563 182.703 218.95 213.607H191.992C192.062 215.741 192.179 217.896 192.341 220.07H172.297C175.295 187.043 186.245 161.491 205.145 143.416L205.155 143.424Z" fill="#ECA5C3"/>
<path fill-rule="evenodd" clip-rule="evenodd" d="M193.771 186.297C194.538 199.602 196.459 208.774 199.533 213.813H191.997C191.667 204.24 192.258 195.068 193.771 186.297V186.297Z" fill="black" fill-opacity="0.1"/>
<path fill-rule="evenodd" clip-rule="evenodd" d="M197.988 197.647L211.281 191.614V197.647H197.988Z" fill="white" fill-opacity="0.2"/>
<ellipse cx="202.567" cy="219.977" rx="8.96111" ry="9.245" fill="#C4C4C4"/>
<path d="M209.028 219.977C209.028 223.777 206.062 226.722 202.567 226.722C199.071 226.722 196.105 223.777 196.105 219.977C196.105 216.178 199.071 213.232 202.567 213.232C206.062 213.232 209.028 216.178 209.028 219.977Z" stroke="black" stroke-opacity="0.64" stroke-width="5"/>
<ellipse cx="199.494" cy="256.957" rx="8.96111" ry="9.245" fill="#C4C4C4"/>
<path d="M205.955 256.957C205.955 260.757 202.99 263.702 199.494 263.702C195.999 263.702 193.033 260.757 193.033 256.957C193.033 253.158 195.999 250.212 199.494 250.212C202.99 250.212 205.955 253.158 205.955 256.957Z" stroke="black" stroke-opacity="0.64" stroke-width="5"/>
<rect width="23.0544" height="3.58546" transform="matrix(0.091053 -0.995846 0.995298 0.0968603 199.236 250.495)" fill="black" fill-opacity="0.64"/>
<rect width="21.4255" height="3.6905" transform="matrix(-0.96385 0.266445 -0.251381 -0.967888 192.652 259.737)" fill="black" fill-opacity="0.64"/>
<ellipse cx="165.697" cy="265.41" rx="8.96111" ry="9.245" fill="#C4C4C4"/>
<path d="M172.159 265.41C172.159 269.209 169.193 272.155 165.697 272.155C162.202 272.155 159.236 269.209 159.236 265.41C159.236 261.611 162.202 258.665 165.697 258.665C169.193 258.665 172.159 261.611 172.159 265.41Z" stroke="black" stroke-opacity="0.64" stroke-width="5"/>
<defs>
<filter id="filter0_d" x="0" y="0" width="428" height="428" filterUnits="userSpaceOnUse" color-interpolation-filters="sRGB">
<feFlood flood-opacity="0" result="BackgroundImageFix"/>
<feColorMatrix in="SourceAlpha" type="matrix" values="0 0 0 0 0 0 0 0 0 0 0 0 0 0 0 0 0 0 127 0"/>
<feOffset dy="4"/>
<feGaussianBlur stdDeviation="10"/>
<feColorMatrix type="matrix" values="0 0 0 0 0 0 0 0 0 0 0 0 0 0 0 0 0 0 0.25 0"/>
<feBlend mode="normal" in2="BackgroundImageFix" result="effect1_dropShadow"/>
<feBlend mode="normal" in="SourceGraphic" in2="effect1_dropShadow" result="shape"/>
</filter>
<linearGradient id="paint0_linear" x1="39.0374" y1="148.229" x2="412.242" y2="262.777" gradientUnits="userSpaceOnUse">
<stop stop-color="#9DBDE2"/>
<stop offset="0.453125" stop-color="#B6C0DD"/>
<stop offset="1" stop-color="#E3C6D3"/>
</linearGradient>
<linearGradient id="paint1_linear" x1="78.5" y1="84" x2="369" y2="340" gradientUnits="userSpaceOnUse">
<stop stop-color="#B4C1FF"/>
<stop offset="0.364583" stop-color="#B9C0FB"/>
<stop offset="1" stop-color="#E3C6D3"/>
</linearGradient>
</defs>
</svg>
