<svg width="80" height="83" viewBox="0 0 80 83" fill="none" xmlns="http://www.w3.org/2000/svg">
<path fill-rule="evenodd" clip-rule="evenodd" d="M39.7993 0.0352434C47.7447 -0.268719 55.6644 1.36897 62.4308 5.90302C69.5865 10.6979 76.2423 17.2777 78.6091 26.0411C80.9467 34.6963 78.2077 43.8511 74.9165 52.1324C71.8764 59.7822 66.8534 66.0126 60.7297 71.0303C54.5046 76.1311 47.58 80.3509 39.7993 80.9073C31.6665 81.4889 23.3826 79.3438 16.7659 74.1745C10.1296 68.99 6.11677 60.9616 3.50047 52.5494C0.85791 44.0528 -0.884251 34.8056 1.89516 26.3607C4.63557 18.0342 11.4385 12.3549 18.2971 7.59142C24.803 3.07289 32.0819 0.330481 39.7993 0.0352434Z" fill="#D7F4F4"/>
<path d="M39.4107 14.5321C39.4107 14.5321 26.2407 14.7421 26.0307 33.3521C26.0307 33.3521 18.9307 32.0921 25.0307 41.2921C25.0307 41.2921 25.6207 42.8721 27.4907 41.2921C29.3607 39.7121 25.7207 45.0421 34.2007 50.4121C34.2007 50.4121 34.3207 59.0321 32.2007 60.4121C30.0807 61.7921 43.8207 66.5321 46.0707 60.4121C44.6385 58.6531 43.883 56.4397 43.9407 54.1721C43.9407 54.1721 53.3807 53.6921 53.4407 37.4321C53.5007 21.1721 48.9907 13.5321 39.4107 14.5321Z" fill="#CD9F94"/>
<path d="M53.8012 14.1422C53.8012 14.1422 49.0912 11.1422 49.2312 9.71225C49.3712 8.28225 45.9512 6.53225 43.0912 7.86225C43.0912 7.86225 38.0912 3.71225 33.2412 8.00225C33.2412 8.00225 26.8112 7.43225 24.6712 11.5722C24.6712 11.5722 19.6712 11.1422 21.6712 18.1422C21.6712 18.1422 16.6712 20.5722 20.5312 25.9922C20.5312 25.9922 17.6712 30.2822 21.5312 32.8522C25.3912 35.4222 25.6712 32.2822 26.5312 36.8522C27.3912 41.4222 28.8112 32.5622 28.6712 30.8522C28.5312 29.1422 28.6712 25.4222 30.9512 26.4222C33.2312 27.4222 30.1012 21.5322 34.7212 23.8522C39.3412 26.1722 41.5712 19.3522 43.4312 22.1022C45.2912 24.8522 49.2812 26.1022 50.2812 23.2822C51.2812 20.4622 53.1412 24.4922 55.1412 22.1022C57.1412 19.7122 58.3712 18.5322 53.8012 14.1422Z" fill="#202020"/>
<path d="M45.4548 59.3469C39.7454 63.9144 34.1944 61.25 32.1325 59.3469C22.0364 58.9256 14.2867 74.5551 11.6738 82.4225H68.2923C63.0587 72.8275 51.1641 54.7794 45.4548 59.3469Z" fill="#F9BF87"/>
</svg>
