<svg width="81" height="83" viewBox="0 0 81 83" fill="none" xmlns="http://www.w3.org/2000/svg">
<path fill-rule="evenodd" clip-rule="evenodd" d="M40.0416 1.06172C47.9611 0.691307 56.072 1.91396 62.6484 6.75561C69.3706 11.7046 73.641 19.5405 76.4406 27.8593C79.3339 36.4566 81.4721 45.8957 78.7341 54.5537C76.0192 63.1389 68.8947 68.8147 61.9267 73.7552C55.2906 78.4603 47.9457 82.2464 40.0416 81.9875C32.2788 81.7331 25.1823 77.6195 19.0886 72.3517C13.194 67.256 9.18605 60.3803 6.27936 52.801C3.12818 44.5842 -0.650431 35.7018 1.77034 27.1937C4.20005 18.6542 11.862 13.5419 18.7969 8.80667C25.2881 4.37441 32.397 1.41928 40.0416 1.06172Z" fill="white" stroke="#DADADA" stroke-width="2"/>
<path d="M27.498 42.4988C27.498 42.4988 31.208 52.4988 35.498 50.7388C35.498 50.7388 29.728 47.0388 29.778 41.5988C29.778 41.3188 29.278 41.6588 29.078 41.8588C28.8822 42.0806 28.6376 42.2538 28.3634 42.3649C28.0892 42.4759 27.793 42.5218 27.498 42.4988Z" fill="#4D3107"/>
<path d="M41.0671 15.049C41.0671 15.049 27.8971 15.259 27.6871 33.859C27.6871 33.859 20.5771 32.609 26.6371 41.859C26.6371 41.859 27.2371 43.439 29.1071 41.859C30.9771 40.279 27.3571 45.639 35.8571 51.019C35.8571 51.019 35.9771 59.639 33.8571 61.019C31.7371 62.399 45.4671 67.139 47.7171 61.019C46.2909 59.2533 45.5395 57.0379 45.5971 54.769C45.5971 54.769 55.0371 54.299 55.0871 38.029C55.1471 21.859 50.6471 14.109 41.0671 15.049Z" fill="#F0CEBB"/>
<path d="M40.0075 13.2888C40.0075 13.2888 35.9275 2.49883 26.6075 6.95883C17.2875 11.4188 26.6675 26.5388 26.2375 23.2088C25.4875 17.3988 18.7375 28.6888 25.4075 34.0688C25.4075 32.9888 38.3475 36.8188 43.9775 21.0688C43.9775 21.0688 53.4075 30.9388 54.7275 29.4688C56.0475 27.9988 54.2875 12.4088 40.0075 13.2888Z" fill="#4D3107"/>
<path d="M46.9997 58.7829C41.2904 63.3504 35.7393 60.686 33.6774 58.7829C23.5813 58.3617 15.8316 73.9912 13.2188 81.8586H69.8372C64.6036 72.2635 52.709 54.2154 46.9997 58.7829Z" fill="#DADADA"/>
</svg>
