<svg width="79" height="81" viewBox="0 0 79 81" fill="none" xmlns="http://www.w3.org/2000/svg">
<path fill-rule="evenodd" clip-rule="evenodd" d="M41.6893 0.047923C50.3229 -0.425534 59.0462 2.63377 65.597 8.13367C71.8554 13.3882 74.2202 21.4415 76.4138 29.2021C78.5092 36.6153 80.1937 44.3014 77.8996 51.6586C75.5779 59.1039 69.905 64.8226 63.7575 69.7898C57.222 75.0705 50.1555 80.2927 41.6893 80.9165C32.8761 81.5659 24.1444 78.3736 17.0551 73.231C10.0221 68.1292 5.30292 60.6971 2.60886 52.5672C-0.0812364 44.4493 -1.28872 35.5408 1.9374 27.6105C5.0649 19.9226 12.7448 15.4476 19.6601 10.6528C26.5007 5.90974 33.3066 0.507617 41.6893 0.047923Z" fill="#343434"/>
<path d="M42.3775 12.9809C42.3775 12.9809 29.2075 13.1909 28.9975 31.8009C28.9975 31.8009 21.8975 30.5409 27.9975 39.7409C27.9975 39.7409 28.5875 41.3209 30.4575 39.7409C32.3275 38.1609 28.6875 43.4909 37.1675 48.8609C37.1675 48.8609 37.2875 57.4809 35.1675 58.8609C33.0475 60.2409 46.7875 64.9809 49.0375 58.8609C47.6053 57.1018 46.8498 54.8884 46.9075 52.6209C46.9075 52.6209 56.3475 52.1409 56.4075 35.8809C56.4675 19.6209 51.9575 11.9809 42.3775 12.9809Z" fill="#F0CEBB"/>
<path d="M56.768 12.591C56.768 12.591 52.058 9.59098 52.198 8.16098C52.338 6.73098 48.918 4.98098 46.058 6.31098C46.058 6.31098 41.058 2.16098 36.208 6.45098C36.208 6.45098 29.778 5.88098 27.638 10.021C27.638 10.021 22.638 9.59098 24.638 16.591C24.638 16.591 19.638 19.021 23.498 24.441C23.498 24.441 20.638 28.731 24.498 31.301C28.358 33.871 28.638 30.731 29.498 35.301C30.358 39.871 31.778 31.011 31.638 29.301C31.498 27.591 31.638 23.871 33.918 24.871C36.198 25.871 33.068 19.981 37.688 22.301C42.308 24.621 44.538 17.801 46.398 20.551C48.258 23.301 52.248 24.551 53.248 21.731C54.248 18.911 56.108 22.941 58.108 20.551C60.108 18.161 61.338 16.981 56.768 12.591Z" fill="#715426"/>
<path d="M47.4411 57.9245C41.7318 62.492 36.1807 59.8276 34.1188 57.9245C24.0227 57.5033 16.273 73.1328 13.6602 81.0002H70.2787C65.045 71.4051 53.1504 53.357 47.4411 57.9245Z" fill="#202020"/>
</svg>
