<svg width="79" height="88" viewBox="0 0 79 88" fill="none" xmlns="http://www.w3.org/2000/svg">
<path fill-rule="evenodd" clip-rule="evenodd" d="M37.6216 0.0215064C45.9681 -0.157107 54.5686 0.696525 61.4588 5.63606C68.4622 10.6567 72.6344 18.7487 75.4467 27.1381C78.3171 35.701 80.6105 45.1222 77.5401 53.6086C74.5278 61.9344 66.5407 66.5995 59.4148 71.4496C52.6689 76.0411 45.6402 80.1094 37.6216 80.7785C29.0994 81.4895 19.9829 80.6967 13.152 75.3097C6.37006 69.9612 3.60525 60.9309 1.52122 52.3085C-0.443095 44.1815 -0.618067 35.8093 1.66246 27.7734C3.98989 19.5723 7.90693 11.7152 14.4813 6.64136C21.0809 1.54805 29.427 0.196867 37.6216 0.0215064Z" fill="#E06B65"/>
<path d="M38.8766 18.6932C38.8766 18.6932 25.7066 18.9032 25.4966 37.5432C25.4966 37.5432 18.3966 36.2932 24.4966 45.5432C24.4966 45.5432 25.0866 47.1232 26.9566 45.5432C28.8266 43.9632 25.2066 49.3232 33.7066 54.7032C33.7066 54.7032 33.8266 63.3232 31.7066 64.7032C29.5866 66.0832 43.3266 70.8232 45.5766 64.7032C44.1452 62.9398 43.39 60.7236 43.4466 58.4532C43.4466 58.4532 52.8866 57.9832 52.9466 41.7132C52.9566 25.5431 48.4566 17.7532 38.8766 18.6932Z" fill="#E8C0B6"/>
<path d="M37.1862 17.1129C37.1862 17.1129 34.3462 15.3029 31.0762 18.2329C27.8062 21.1629 25.9062 19.2329 24.5262 23.7429C23.1462 28.2529 22.7662 33.8929 23.4562 35.5429C24.1462 37.1929 30.3262 37.9229 31.8462 35.2929C33.1962 32.9529 33.5362 38.8829 36.5862 35.0329C39.2362 31.6829 40.1962 39.1929 42.8662 36.2629C45.5362 33.3329 45.2762 37.2629 46.2162 36.3529C46.5162 36.0729 50.4862 32.5329 52.0662 34.6829C53.6462 36.8329 54.0662 35.9129 54.2462 31.7529C54.4062 28.1329 54.9962 13.6729 37.1862 17.1129Z" fill="#202020"/>
<path d="M44.9714 64.4841C39.262 69.0516 33.711 66.3872 31.6491 64.4841C21.553 64.0628 13.8033 79.6923 11.1904 87.5597H67.8089C62.5753 77.9647 50.6807 59.9166 44.9714 64.4841Z" fill="#FFB6B3"/>
</svg>
