<svg width="291" height="49" viewBox="0 0 291 49" fill="none" xmlns="http://www.w3.org/2000/svg">
<rect y="32" width="223" height="16" rx="8" fill="#87CC6B" fill-opacity="0.7"/>
<path d="M7.97128 20.2H10.3713L7.41928 34.912H16.5393L16.1313 37H4.61128L7.97128 20.2ZM21.0693 24.28H23.3733L20.8533 37H18.5493L21.0693 24.28ZM22.8933 21.832C22.4773 21.832 22.1333 21.696 21.8613 21.424C21.5893 21.152 21.4533 20.824 21.4533 20.44C21.4533 19.992 21.6053 19.616 21.9093 19.312C22.2293 18.992 22.6293 18.832 23.1093 18.832C23.5253 18.832 23.8693 18.968 24.1413 19.24C24.4293 19.496 24.5733 19.808 24.5733 20.176C24.5733 20.672 24.4133 21.072 24.0933 21.376C23.7893 21.68 23.3893 21.832 22.8933 21.832ZM28.6604 32.944C28.6124 33.184 28.5884 33.408 28.5884 33.616C28.5884 34.128 28.7244 34.52 28.9964 34.792C29.2844 35.064 29.7084 35.2 30.2684 35.2C30.9404 35.2 31.5484 35 32.0924 34.6L32.5724 36.352C31.8044 36.88 30.8204 37.144 29.6204 37.144C28.6124 37.144 27.7964 36.864 27.1724 36.304C26.5644 35.728 26.2604 34.944 26.2604 33.952C26.2604 33.616 26.2924 33.296 26.3564 32.992L27.7244 26.176H25.5644L25.9244 24.28H28.1084L28.6604 21.496H30.9644L30.4124 24.28H34.0604L33.6764 26.176H30.0284L28.6604 32.944ZM37 31.36V31.504C37 32.688 37.336 33.592 38.008 34.216C38.68 34.824 39.688 35.128 41.032 35.128C41.816 35.128 42.552 35 43.24 34.744C43.928 34.472 44.504 34.112 44.968 33.664L45.952 35.32C45.328 35.896 44.568 36.344 43.672 36.664C42.776 36.984 41.832 37.144 40.84 37.144C39.592 37.144 38.512 36.92 37.6 36.472C36.688 36.024 35.984 35.384 35.488 34.552C34.992 33.72 34.744 32.744 34.744 31.624C34.744 30.2 35.048 28.92 35.656 27.784C36.28 26.648 37.136 25.76 38.224 25.12C39.328 24.48 40.56 24.16 41.92 24.16C43.648 24.16 45.024 24.656 46.048 25.648C47.088 26.624 47.608 27.96 47.608 29.656C47.608 30.168 47.552 30.736 47.44 31.36H37ZM41.824 26.08C40.688 26.08 39.712 26.4 38.896 27.04C38.08 27.68 37.528 28.56 37.24 29.68H45.448C45.512 28.544 45.208 27.664 44.536 27.04C43.88 26.4 42.976 26.08 41.824 26.08ZM53.8079 26.176C54.3679 25.472 55.0559 24.96 55.8719 24.64C56.6879 24.32 57.6799 24.16 58.8479 24.16L58.4159 26.392C58.2719 26.376 58.0719 26.368 57.8159 26.368C55.1759 26.368 53.5759 27.792 53.0159 30.64L51.7439 37H49.4399L51.9599 24.28H54.1679L53.8079 26.176ZM73.4984 24.28L70.9784 37H68.7704L69.0824 35.44C68.5064 35.984 67.8344 36.408 67.0664 36.712C66.3144 37 65.4904 37.144 64.5944 37.144C63.5064 37.144 62.5384 36.928 61.6904 36.496C60.8424 36.048 60.1784 35.408 59.6984 34.576C59.2184 33.744 58.9784 32.768 58.9784 31.648C58.9784 30.208 59.2904 28.92 59.9144 27.784C60.5384 26.648 61.3944 25.76 62.4824 25.12C63.5864 24.48 64.8184 24.16 66.1784 24.16C67.2664 24.16 68.1944 24.352 68.9624 24.736C69.7464 25.12 70.3464 25.688 70.7624 26.44L71.1944 24.28H73.4984ZM65.0984 35.128C66.0424 35.128 66.8904 34.904 67.6424 34.456C68.4104 33.992 69.0024 33.352 69.4184 32.536C69.8504 31.72 70.0664 30.792 70.0664 29.752C70.0664 28.616 69.7384 27.736 69.0824 27.112C68.4264 26.488 67.4904 26.176 66.2744 26.176C65.3304 26.176 64.4824 26.408 63.7304 26.872C62.9784 27.32 62.3864 27.952 61.9544 28.768C61.5224 29.584 61.3064 30.512 61.3064 31.552C61.3064 32.672 61.6344 33.552 62.2904 34.192C62.9624 34.816 63.8984 35.128 65.0984 35.128ZM78.7698 32.944C78.7218 33.184 78.6978 33.408 78.6978 33.616C78.6978 34.128 78.8338 34.52 79.1058 34.792C79.3938 35.064 79.8178 35.2 80.3778 35.2C81.0498 35.2 81.6578 35 82.2018 34.6L82.6818 36.352C81.9138 36.88 80.9298 37.144 79.7298 37.144C78.7218 37.144 77.9058 36.864 77.2818 36.304C76.6738 35.728 76.3698 34.944 76.3698 33.952C76.3698 33.616 76.4018 33.296 76.4658 32.992L77.8338 26.176H75.6738L76.0338 24.28H78.2178L78.7698 21.496H81.0738L80.5218 24.28H84.1698L83.7858 26.176H80.1378L78.7698 32.944ZM99.6753 24.28L97.1553 37H94.9473L95.2593 35.368C94.6833 35.96 94.0033 36.408 93.2193 36.712C92.4513 37 91.6113 37.144 90.6993 37.144C89.2913 37.144 88.1793 36.768 87.3633 36.016C86.5473 35.264 86.1393 34.216 86.1393 32.872C86.1393 32.424 86.1873 31.936 86.2833 31.408L87.6993 24.28H90.0033L88.5873 31.432C88.5073 31.864 88.4673 32.224 88.4673 32.512C88.4673 33.344 88.7073 33.984 89.1873 34.432C89.6833 34.864 90.4113 35.08 91.3713 35.08C92.5873 35.08 93.5953 34.736 94.3953 34.048C95.2113 33.36 95.7553 32.352 96.0273 31.024L97.3713 24.28H99.6753ZM105.909 26.176C106.469 25.472 107.157 24.96 107.973 24.64C108.789 24.32 109.781 24.16 110.949 24.16L110.517 26.392C110.373 26.376 110.173 26.368 109.917 26.368C107.277 26.368 105.677 27.792 105.117 30.64L103.845 37H101.541L104.061 24.28H106.269L105.909 26.176ZM113.336 31.36V31.504C113.336 32.688 113.672 33.592 114.344 34.216C115.016 34.824 116.024 35.128 117.368 35.128C118.152 35.128 118.888 35 119.576 34.744C120.264 34.472 120.84 34.112 121.304 33.664L122.288 35.32C121.664 35.896 120.904 36.344 120.008 36.664C119.112 36.984 118.168 37.144 117.176 37.144C115.928 37.144 114.848 36.92 113.936 36.472C113.024 36.024 112.32 35.384 111.824 34.552C111.328 33.72 111.08 32.744 111.08 31.624C111.08 30.2 111.384 28.92 111.992 27.784C112.616 26.648 113.472 25.76 114.56 25.12C115.664 24.48 116.896 24.16 118.256 24.16C119.984 24.16 121.36 24.656 122.384 25.648C123.424 26.624 123.944 27.96 123.944 29.656C123.944 30.168 123.888 30.736 123.776 31.36H113.336ZM118.16 26.08C117.024 26.08 116.048 26.4 115.232 27.04C114.416 27.68 113.864 28.56 113.576 29.68H121.784C121.848 28.544 121.544 27.664 120.872 27.04C120.216 26.4 119.312 26.08 118.16 26.08ZM148.349 25.12C148.349 26.768 147.909 28.144 147.029 29.248C146.149 30.352 144.909 31.112 143.309 31.528L146.381 37H143.837L140.909 31.864H140.453H135.965L134.957 37H132.533L135.893 20.2H142.157C144.125 20.2 145.645 20.632 146.717 21.496C147.805 22.344 148.349 23.552 148.349 25.12ZM140.525 29.824C142.253 29.824 143.589 29.44 144.533 28.672C145.477 27.904 145.949 26.792 145.949 25.336C145.949 24.328 145.605 23.568 144.917 23.056C144.229 22.544 143.237 22.288 141.941 22.288H137.885L136.373 29.824H140.525ZM151.891 31.36V31.504C151.891 32.688 152.227 33.592 152.899 34.216C153.571 34.824 154.579 35.128 155.923 35.128C156.707 35.128 157.443 35 158.131 34.744C158.819 34.472 159.395 34.112 159.859 33.664L160.843 35.32C160.219 35.896 159.459 36.344 158.563 36.664C157.667 36.984 156.723 37.144 155.731 37.144C154.483 37.144 153.403 36.92 152.491 36.472C151.579 36.024 150.875 35.384 150.379 34.552C149.883 33.72 149.635 32.744 149.635 31.624C149.635 30.2 149.939 28.92 150.547 27.784C151.171 26.648 152.027 25.76 153.115 25.12C154.219 24.48 155.451 24.16 156.811 24.16C158.539 24.16 159.915 24.656 160.939 25.648C161.979 26.624 162.499 27.96 162.499 29.656C162.499 30.168 162.443 30.736 162.331 31.36H151.891ZM156.715 26.08C155.579 26.08 154.603 26.4 153.787 27.04C152.971 27.68 152.419 28.56 152.131 29.68H160.339C160.403 28.544 160.099 27.664 159.427 27.04C158.771 26.4 157.867 26.08 156.715 26.08ZM177.872 24.28L169.784 37H167.432L164.384 24.28H166.688L169.064 34.48L175.544 24.28H177.872ZM180.022 24.28H182.326L179.806 37H177.502L180.022 24.28ZM181.846 21.832C181.43 21.832 181.086 21.696 180.814 21.424C180.542 21.152 180.406 20.824 180.406 20.44C180.406 19.992 180.558 19.616 180.862 19.312C181.182 18.992 181.582 18.832 182.062 18.832C182.478 18.832 182.822 18.968 183.094 19.24C183.382 19.496 183.526 19.808 183.526 20.176C183.526 20.672 183.366 21.072 183.046 21.376C182.742 21.68 182.342 21.832 181.846 21.832ZM186.438 31.36V31.504C186.438 32.688 186.774 33.592 187.446 34.216C188.118 34.824 189.126 35.128 190.47 35.128C191.254 35.128 191.99 35 192.678 34.744C193.366 34.472 193.942 34.112 194.406 33.664L195.39 35.32C194.766 35.896 194.006 36.344 193.11 36.664C192.214 36.984 191.27 37.144 190.278 37.144C189.03 37.144 187.95 36.92 187.038 36.472C186.126 36.024 185.422 35.384 184.926 34.552C184.43 33.72 184.182 32.744 184.182 31.624C184.182 30.2 184.486 28.92 185.094 27.784C185.718 26.648 186.574 25.76 187.662 25.12C188.766 24.48 189.998 24.16 191.358 24.16C193.086 24.16 194.462 24.656 195.486 25.648C196.526 26.624 197.046 27.96 197.046 29.656C197.046 30.168 196.99 30.736 196.878 31.36H186.438ZM191.262 26.08C190.126 26.08 189.15 26.4 188.334 27.04C187.518 27.68 186.966 28.56 186.678 29.68H194.886C194.95 28.544 194.646 27.664 193.974 27.04C193.318 26.4 192.414 26.08 191.262 26.08ZM220.531 24.28L213.403 37H211.147L209.203 27.376L203.683 37H201.475L199.051 24.28H201.139L203.011 34.36L208.771 24.28H210.739L212.659 34.36L218.347 24.28H220.531Z" fill="#202020"/>
<circle cx="266.242" cy="24.2425" r="24.2425" fill="#99CCFF"/>
<path d="M264.383 30.6406L264.365 22.2886L260.225 29.2006H259.181L255.041 22.3966V30.6406H252.809V18.0406H254.735L259.739 26.3926L264.653 18.0406H266.579L266.597 30.6406H264.383ZM275.184 18.0406C276.276 18.0406 277.224 18.2206 278.028 18.5806C278.844 18.9406 279.468 19.4566 279.9 20.1286C280.332 20.8006 280.548 21.5986 280.548 22.5226C280.548 23.4346 280.332 24.2326 279.9 24.9166C279.468 25.5886 278.844 26.1046 278.028 26.4646C277.224 26.8246 276.276 27.0046 275.184 27.0046H272.34V30.6406H270V18.0406H275.184ZM275.076 25.0246C276.096 25.0246 276.87 24.8086 277.398 24.3766C277.926 23.9446 278.19 23.3266 278.19 22.5226C278.19 21.7186 277.926 21.1006 277.398 20.6686C276.87 20.2366 276.096 20.0206 275.076 20.0206H272.34V25.0246H275.076Z" fill="#202020"/>
</svg>
