<svg width="356" height="49" viewBox="0 0 356 49" fill="none" xmlns="http://www.w3.org/2000/svg">
<rect y="28" width="249" height="20" rx="10" fill="#87CC6B" fill-opacity="0.7"/>
<path d="M13.456 34.065C11.792 34.065 10.36 33.769 9.16 33.177C7.96 32.585 7.04 31.761 6.4 30.705C5.76 29.633 5.44 28.393 5.44 26.985C5.44 25.113 5.864 23.409 6.712 21.873C7.56 20.337 8.76 19.121 10.312 18.225C11.88 17.329 13.688 16.881 15.736 16.881C17.128 16.881 18.36 17.113 19.432 17.577C20.504 18.025 21.328 18.665 21.904 19.497L20.176 20.985C19.168 19.673 17.632 19.017 15.568 19.017C14.016 19.017 12.656 19.369 11.488 20.073C10.32 20.777 9.416 21.729 8.776 22.929C8.152 24.113 7.84 25.417 7.84 26.841C7.84 28.393 8.336 29.633 9.328 30.561C10.336 31.473 11.768 31.929 13.624 31.929C15.688 31.929 17.384 31.265 18.712 29.937L20.104 31.521C19.336 32.353 18.376 32.985 17.224 33.417C16.088 33.849 14.832 34.065 13.456 34.065ZM27.6927 34.017C26.4927 34.017 25.4447 33.793 24.5487 33.345C23.6527 32.881 22.9567 32.233 22.4607 31.401C21.9647 30.569 21.7167 29.609 21.7167 28.521C21.7167 27.097 22.0367 25.817 22.6767 24.681C23.3167 23.545 24.2047 22.657 25.3407 22.017C26.4767 21.361 27.7567 21.033 29.1807 21.033C30.3807 21.033 31.4287 21.257 32.3247 21.705C33.2207 22.153 33.9087 22.793 34.3887 23.625C34.8847 24.441 35.1327 25.401 35.1327 26.505C35.1327 27.929 34.8127 29.217 34.1727 30.369C33.5327 31.505 32.6447 32.401 31.5087 33.057C30.3887 33.697 29.1167 34.017 27.6927 34.017ZM27.8367 32.001C28.7807 32.001 29.6287 31.777 30.3807 31.329C31.1487 30.865 31.7407 30.225 32.1567 29.409C32.5887 28.593 32.8047 27.665 32.8047 26.625C32.8047 25.489 32.4767 24.609 31.8207 23.985C31.1647 23.361 30.2287 23.049 29.0127 23.049C28.0687 23.049 27.2207 23.281 26.4687 23.745C25.7167 24.193 25.1247 24.825 24.6927 25.641C24.2607 26.457 24.0447 27.385 24.0447 28.425C24.0447 29.545 24.3727 30.425 25.0287 31.065C25.7007 31.689 26.6367 32.001 27.8367 32.001ZM55.0711 21.033C56.5111 21.033 57.6311 21.401 58.4311 22.137C59.2471 22.857 59.6551 23.889 59.6551 25.233C59.6551 25.601 59.5991 26.105 59.4871 26.745L58.0711 33.873H55.7671L57.1831 26.745C57.2631 26.297 57.3031 25.929 57.3031 25.641C57.3031 24.809 57.0711 24.177 56.6071 23.745C56.1431 23.313 55.4391 23.097 54.4951 23.097C53.3111 23.097 52.3351 23.433 51.5671 24.105C50.8151 24.761 50.3031 25.753 50.0311 27.081L48.6631 33.873H46.3591L47.7991 26.745C47.8791 26.313 47.9191 25.953 47.9191 25.665C47.9191 24.833 47.6791 24.201 47.1991 23.769C46.7351 23.321 46.0311 23.097 45.0871 23.097C43.9031 23.097 42.9271 23.433 42.1591 24.105C41.4071 24.777 40.8951 25.793 40.6231 27.153L39.2791 33.873H36.9751L39.4951 21.153H41.7031L41.3911 22.737C42.5111 21.601 43.9831 21.033 45.8071 21.033C46.7991 21.033 47.6471 21.225 48.3511 21.609C49.0551 21.993 49.5671 22.553 49.8871 23.289C51.1831 21.785 52.9111 21.033 55.0711 21.033ZM80.4304 21.033C81.8704 21.033 82.9904 21.401 83.7904 22.137C84.6064 22.857 85.0144 23.889 85.0144 25.233C85.0144 25.601 84.9584 26.105 84.8464 26.745L83.4304 33.873H81.1264L82.5424 26.745C82.6224 26.297 82.6624 25.929 82.6624 25.641C82.6624 24.809 82.4304 24.177 81.9664 23.745C81.5024 23.313 80.7984 23.097 79.8544 23.097C78.6704 23.097 77.6944 23.433 76.9264 24.105C76.1744 24.761 75.6624 25.753 75.3904 27.081L74.0224 33.873H71.7184L73.1584 26.745C73.2384 26.313 73.2784 25.953 73.2784 25.665C73.2784 24.833 73.0384 24.201 72.5584 23.769C72.0944 23.321 71.3904 23.097 70.4464 23.097C69.2624 23.097 68.2864 23.433 67.5184 24.105C66.7664 24.777 66.2544 25.793 65.9824 27.153L64.6384 33.873H62.3344L64.8544 21.153H67.0624L66.7504 22.737C67.8704 21.601 69.3424 21.033 71.1664 21.033C72.1584 21.033 73.0064 21.225 73.7104 21.609C74.4144 21.993 74.9264 22.553 75.2464 23.289C76.5424 21.785 78.2704 21.033 80.4304 21.033ZM102.07 21.153L99.5498 33.873H97.3418L97.6538 32.241C97.0778 32.833 96.3978 33.281 95.6138 33.585C94.8458 33.873 94.0058 34.017 93.0938 34.017C91.6858 34.017 90.5738 33.641 89.7578 32.889C88.9418 32.137 88.5338 31.089 88.5338 29.745C88.5338 29.297 88.5818 28.809 88.6778 28.281L90.0938 21.153H92.3978L90.9818 28.305C90.9018 28.737 90.8618 29.097 90.8618 29.385C90.8618 30.217 91.1018 30.857 91.5818 31.305C92.0778 31.737 92.8058 31.953 93.7658 31.953C94.9818 31.953 95.9898 31.609 96.7898 30.921C97.6058 30.233 98.1498 29.225 98.4218 27.897L99.7658 21.153H102.07ZM112.96 21.033C114.416 21.033 115.544 21.401 116.344 22.137C117.16 22.873 117.568 23.913 117.568 25.257C117.568 25.721 117.52 26.217 117.424 26.745L116.008 33.873H113.704L115.12 26.745C115.2 26.313 115.24 25.961 115.24 25.689C115.24 24.857 114.992 24.217 114.496 23.769C114 23.321 113.264 23.097 112.288 23.097C111.04 23.097 110.008 23.441 109.192 24.129C108.392 24.801 107.856 25.809 107.584 27.153L106.24 33.873H103.936L106.456 21.153H108.664L108.352 22.785C109.504 21.617 111.04 21.033 112.96 21.033ZM122.792 21.153H125.096L122.576 33.873H120.272L122.792 21.153ZM124.616 18.705C124.2 18.705 123.856 18.569 123.584 18.297C123.312 18.025 123.176 17.697 123.176 17.313C123.176 16.865 123.328 16.489 123.632 16.185C123.952 15.865 124.352 15.705 124.832 15.705C125.248 15.705 125.592 15.841 125.864 16.113C126.152 16.369 126.296 16.681 126.296 17.049C126.296 17.545 126.136 17.945 125.816 18.249C125.512 18.553 125.112 18.705 124.616 18.705ZM130.383 29.817C130.335 30.057 130.311 30.281 130.311 30.489C130.311 31.001 130.447 31.393 130.719 31.665C131.007 31.937 131.431 32.073 131.991 32.073C132.663 32.073 133.271 31.873 133.815 31.473L134.295 33.225C133.527 33.753 132.543 34.017 131.343 34.017C130.335 34.017 129.519 33.737 128.895 33.177C128.287 32.601 127.983 31.817 127.983 30.825C127.983 30.489 128.015 30.169 128.079 29.865L129.447 23.049H127.287L127.647 21.153H129.831L130.383 18.369H132.687L132.135 21.153H135.783L135.399 23.049H131.751L130.383 29.817ZM150.454 21.153L141.43 35.265C140.614 36.545 139.838 37.433 139.102 37.929C138.366 38.425 137.494 38.673 136.486 38.673C135.862 38.673 135.254 38.569 134.662 38.361C134.07 38.169 133.614 37.897 133.294 37.545L134.494 35.841C135.07 36.417 135.79 36.705 136.654 36.705C137.198 36.705 137.678 36.561 138.094 36.273C138.51 35.985 138.942 35.497 139.39 34.809L140.038 33.801L136.966 21.153H139.27L141.718 31.329L148.126 21.153H150.454ZM172.658 21.993C172.658 23.641 172.218 25.017 171.338 26.121C170.458 27.225 169.218 27.985 167.618 28.401L170.69 33.873H168.146L165.218 28.737H164.762H160.274L159.266 33.873H156.842L160.202 17.073H166.466C168.434 17.073 169.954 17.505 171.026 18.369C172.114 19.217 172.658 20.425 172.658 21.993ZM164.834 26.697C166.562 26.697 167.898 26.313 168.842 25.545C169.786 24.777 170.258 23.665 170.258 22.209C170.258 21.201 169.914 20.441 169.226 19.929C168.538 19.417 167.546 19.161 166.25 19.161H162.194L160.682 26.697H164.834ZM176.199 28.233V28.377C176.199 29.561 176.535 30.465 177.207 31.089C177.879 31.697 178.887 32.001 180.231 32.001C181.015 32.001 181.751 31.873 182.439 31.617C183.127 31.345 183.703 30.985 184.167 30.537L185.151 32.193C184.527 32.769 183.767 33.217 182.871 33.537C181.975 33.857 181.031 34.017 180.039 34.017C178.791 34.017 177.711 33.793 176.799 33.345C175.887 32.897 175.183 32.257 174.687 31.425C174.191 30.593 173.943 29.617 173.943 28.497C173.943 27.073 174.247 25.793 174.855 24.657C175.479 23.521 176.335 22.633 177.423 21.993C178.527 21.353 179.759 21.033 181.119 21.033C182.847 21.033 184.223 21.529 185.247 22.521C186.287 23.497 186.807 24.833 186.807 26.529C186.807 27.041 186.751 27.609 186.639 28.233H176.199ZM181.023 22.953C179.887 22.953 178.911 23.273 178.095 23.913C177.279 24.553 176.727 25.433 176.439 26.553H184.647C184.711 25.417 184.407 24.537 183.735 23.913C183.079 23.273 182.175 22.953 181.023 22.953ZM202.181 21.153L194.093 33.873H191.741L188.693 21.153H190.997L193.373 31.353L199.853 21.153H202.181ZM204.331 21.153H206.635L204.115 33.873H201.811L204.331 21.153ZM206.155 18.705C205.739 18.705 205.395 18.569 205.123 18.297C204.851 18.025 204.715 17.697 204.715 17.313C204.715 16.865 204.867 16.489 205.171 16.185C205.491 15.865 205.891 15.705 206.371 15.705C206.787 15.705 207.131 15.841 207.403 16.113C207.691 16.369 207.835 16.681 207.835 17.049C207.835 17.545 207.675 17.945 207.355 18.249C207.051 18.553 206.651 18.705 206.155 18.705ZM210.746 28.233V28.377C210.746 29.561 211.082 30.465 211.754 31.089C212.426 31.697 213.434 32.001 214.778 32.001C215.562 32.001 216.298 31.873 216.986 31.617C217.674 31.345 218.25 30.985 218.714 30.537L219.698 32.193C219.074 32.769 218.314 33.217 217.418 33.537C216.522 33.857 215.578 34.017 214.586 34.017C213.338 34.017 212.258 33.793 211.346 33.345C210.434 32.897 209.73 32.257 209.234 31.425C208.738 30.593 208.49 29.617 208.49 28.497C208.49 27.073 208.794 25.793 209.402 24.657C210.026 23.521 210.882 22.633 211.97 21.993C213.074 21.353 214.306 21.033 215.666 21.033C217.394 21.033 218.77 21.529 219.794 22.521C220.834 23.497 221.354 24.833 221.354 26.529C221.354 27.041 221.298 27.609 221.186 28.233H210.746ZM215.57 22.953C214.434 22.953 213.458 23.273 212.642 23.913C211.826 24.553 211.274 25.433 210.986 26.553H219.194C219.258 25.417 218.954 24.537 218.282 23.913C217.626 23.273 216.722 22.953 215.57 22.953ZM244.84 21.153L237.712 33.873H235.456L233.512 24.249L227.992 33.873H225.784L223.36 21.153H225.448L227.32 31.233L233.08 21.153H235.048L236.968 31.233L242.656 21.153H244.84Z" fill="#202020"/>
<circle cx="331.242" cy="24.2425" r="24.2425" fill="#FFF599"/>
<path d="M323.993 25.3666L321.995 27.4186V30.6406H319.655V18.0406H321.995V24.5026L328.223 18.0406H330.851L325.559 23.6746L331.175 30.6406H328.439L323.993 25.3666ZM340.915 24.1966H343.129V29.2186C342.481 29.7346 341.725 30.1306 340.861 30.4066C339.997 30.6826 339.109 30.8206 338.197 30.8206C336.913 30.8206 335.755 30.5446 334.723 29.9926C333.691 29.4286 332.881 28.6546 332.293 27.6706C331.705 26.6866 331.411 25.5766 331.411 24.3406C331.411 23.1046 331.705 21.9946 332.293 21.0106C332.881 20.0266 333.691 19.2586 334.723 18.7066C335.767 18.1426 336.937 17.8606 338.233 17.8606C339.289 17.8606 340.249 18.0346 341.113 18.3826C341.977 18.7306 342.703 19.2406 343.291 19.9126L341.815 21.3526C340.855 20.3926 339.697 19.9126 338.341 19.9126C337.453 19.9126 336.661 20.0986 335.965 20.4706C335.281 20.8426 334.741 21.3646 334.345 22.0366C333.961 22.7086 333.769 23.4766 333.769 24.3406C333.769 25.1806 333.961 25.9366 334.345 26.6086C334.741 27.2806 335.281 27.8086 335.965 28.1926C336.661 28.5766 337.447 28.7686 338.323 28.7686C339.307 28.7686 340.171 28.5526 340.915 28.1206V24.1966Z" fill="#202020"/>
<circle cx="293.242" cy="24.2425" r="24.2425" fill="#99CC99"/>
<path d="M291.356 30.6406L291.338 22.2886L287.198 29.2006H286.154L282.014 22.3966V30.6406H279.782V18.0406H281.708L286.712 26.3926L291.626 18.0406H293.552L293.57 30.6406H291.356ZM301.312 25.3666L299.314 27.4186V30.6406H296.974V18.0406H299.314V24.5026L305.542 18.0406H308.17L302.878 23.6746L308.494 30.6406H305.758L301.312 25.3666Z" fill="#202020"/>
</svg>
