<svg width="300" height="49" viewBox="0 0 300 49" fill="none" xmlns="http://www.w3.org/2000/svg">
<path d="M0 38C0 32.4772 4.47715 28 10 28H221C226.523 28 231 32.4772 231 38V38C231 43.5228 226.523 48 221 48H9.99999C4.47715 48 0 43.5228 0 38V38Z" fill="#87CC6B" fill-opacity="0.7"/>
<path d="M26.0437 17.073L22.6837 33.873H20.3797L22.8277 21.729L14.8837 31.833H13.7797L9.57966 21.489L7.10766 33.873H4.80366L8.16366 17.073H10.1077L14.7877 28.905L23.9797 17.073H26.0437ZM29.6455 28.233V28.377C29.6455 29.561 29.9815 30.465 30.6535 31.089C31.3255 31.697 32.3335 32.001 33.6775 32.001C34.4615 32.001 35.1975 31.873 35.8855 31.617C36.5735 31.345 37.1495 30.985 37.6135 30.537L38.5975 32.193C37.9735 32.769 37.2135 33.217 36.3175 33.537C35.4215 33.857 34.4775 34.017 33.4855 34.017C32.2375 34.017 31.1575 33.793 30.2455 33.345C29.3335 32.897 28.6295 32.257 28.1335 31.425C27.6375 30.593 27.3895 29.617 27.3895 28.497C27.3895 27.073 27.6935 25.793 28.3015 24.657C28.9255 23.521 29.7815 22.633 30.8695 21.993C31.9735 21.353 33.2055 21.033 34.5655 21.033C36.2935 21.033 37.6695 21.529 38.6935 22.521C39.7335 23.497 40.2535 24.833 40.2535 26.529C40.2535 27.041 40.1975 27.609 40.0855 28.233H29.6455ZM34.4695 22.953C33.3335 22.953 32.3575 23.273 31.5415 23.913C30.7255 24.553 30.1735 25.433 29.8855 26.553H38.0935C38.1575 25.417 37.8535 24.537 37.1815 23.913C36.5255 23.273 35.6215 22.953 34.4695 22.953ZM60.1814 21.033C61.6214 21.033 62.7414 21.401 63.5414 22.137C64.3574 22.857 64.7654 23.889 64.7654 25.233C64.7654 25.601 64.7094 26.105 64.5974 26.745L63.1814 33.873H60.8774L62.2934 26.745C62.3734 26.297 62.4134 25.929 62.4134 25.641C62.4134 24.809 62.1814 24.177 61.7174 23.745C61.2534 23.313 60.5494 23.097 59.6054 23.097C58.4214 23.097 57.4454 23.433 56.6774 24.105C55.9254 24.761 55.4134 25.753 55.1414 27.081L53.7734 33.873H51.4694L52.9094 26.745C52.9894 26.313 53.0294 25.953 53.0294 25.665C53.0294 24.833 52.7894 24.201 52.3094 23.769C51.8454 23.321 51.1414 23.097 50.1974 23.097C49.0134 23.097 48.0374 23.433 47.2694 24.105C46.5174 24.777 46.0054 25.793 45.7334 27.153L44.3894 33.873H42.0854L44.6054 21.153H46.8134L46.5014 22.737C47.6214 21.601 49.0934 21.033 50.9174 21.033C51.9094 21.033 52.7574 21.225 53.4614 21.609C54.1654 21.993 54.6774 22.553 54.9974 23.289C56.2934 21.785 58.0214 21.033 60.1814 21.033ZM76.3488 21.033C77.4368 21.033 78.4048 21.257 79.2528 21.705C80.1008 22.137 80.7648 22.769 81.2448 23.601C81.7248 24.417 81.9648 25.385 81.9648 26.505C81.9648 27.945 81.6528 29.233 81.0288 30.369C80.4048 31.505 79.5408 32.401 78.4368 33.057C77.3488 33.697 76.1248 34.017 74.7648 34.017C73.6448 34.017 72.6848 33.809 71.8848 33.393C71.1008 32.977 70.5088 32.369 70.1088 31.569L69.6288 33.873H67.4448L70.9968 16.065H73.3008L71.9808 22.617C73.1648 21.561 74.6208 21.033 76.3488 21.033ZM74.6688 32.001C75.6128 32.001 76.4608 31.777 77.2128 31.329C77.9648 30.865 78.5568 30.225 78.9888 29.409C79.4208 28.593 79.6368 27.665 79.6368 26.625C79.6368 25.489 79.3088 24.609 78.6528 23.985C77.9968 23.361 77.0608 23.049 75.8448 23.049C74.9008 23.049 74.0448 23.281 73.2768 23.745C72.5248 24.193 71.9328 24.825 71.5008 25.641C71.0848 26.457 70.8768 27.385 70.8768 28.425C70.8768 29.545 71.2048 30.425 71.8608 31.065C72.5328 31.689 73.4688 32.001 74.6688 32.001ZM86.0362 28.233V28.377C86.0362 29.561 86.3722 30.465 87.0442 31.089C87.7162 31.697 88.7242 32.001 90.0682 32.001C90.8522 32.001 91.5882 31.873 92.2762 31.617C92.9642 31.345 93.5402 30.985 94.0042 30.537L94.9882 32.193C94.3642 32.769 93.6042 33.217 92.7082 33.537C91.8122 33.857 90.8682 34.017 89.8762 34.017C88.6282 34.017 87.5482 33.793 86.6362 33.345C85.7242 32.897 85.0202 32.257 84.5242 31.425C84.0282 30.593 83.7802 29.617 83.7802 28.497C83.7802 27.073 84.0842 25.793 84.6922 24.657C85.3162 23.521 86.1722 22.633 87.2602 21.993C88.3642 21.353 89.5962 21.033 90.9562 21.033C92.6842 21.033 94.0602 21.529 95.0842 22.521C96.1242 23.497 96.6442 24.833 96.6442 26.529C96.6442 27.041 96.5882 27.609 96.4762 28.233H86.0362ZM90.8602 22.953C89.7242 22.953 88.7482 23.273 87.9322 23.913C87.1162 24.553 86.5642 25.433 86.2762 26.553H94.4842C94.5482 25.417 94.2442 24.537 93.5722 23.913C92.9162 23.273 92.0122 22.953 90.8602 22.953ZM102.844 23.049C103.404 22.345 104.092 21.833 104.908 21.513C105.724 21.193 106.716 21.033 107.884 21.033L107.452 23.265C107.308 23.249 107.108 23.241 106.852 23.241C104.212 23.241 102.612 24.665 102.052 27.513L100.78 33.873H98.476L100.996 21.153H103.204L102.844 23.049ZM118.437 17.073H120.837L117.477 33.873H115.077L118.437 17.073ZM131.219 21.033C132.675 21.033 133.803 21.401 134.603 22.137C135.419 22.873 135.827 23.913 135.827 25.257C135.827 25.721 135.779 26.217 135.683 26.745L134.267 33.873H131.963L133.379 26.745C133.459 26.313 133.499 25.961 133.499 25.689C133.499 24.857 133.251 24.217 132.755 23.769C132.259 23.321 131.523 23.097 130.547 23.097C129.299 23.097 128.267 23.441 127.451 24.129C126.651 24.801 126.115 25.809 125.843 27.153L124.499 33.873H122.195L124.715 21.153H126.923L126.611 22.785C127.763 21.617 129.299 21.033 131.219 21.033ZM141.939 29.817C141.891 30.057 141.867 30.281 141.867 30.489C141.867 31.001 142.003 31.393 142.275 31.665C142.563 31.937 142.987 32.073 143.547 32.073C144.219 32.073 144.827 31.873 145.371 31.473L145.851 33.225C145.083 33.753 144.099 34.017 142.899 34.017C141.891 34.017 141.075 33.737 140.451 33.177C139.843 32.601 139.539 31.817 139.539 30.825C139.539 30.489 139.571 30.169 139.635 29.865L141.003 23.049H138.843L139.203 21.153H141.387L141.939 18.369H144.243L143.691 21.153H147.339L146.955 23.049H143.307L141.939 29.817ZM150.278 28.233V28.377C150.278 29.561 150.614 30.465 151.286 31.089C151.958 31.697 152.966 32.001 154.31 32.001C155.094 32.001 155.83 31.873 156.518 31.617C157.206 31.345 157.782 30.985 158.246 30.537L159.23 32.193C158.606 32.769 157.846 33.217 156.95 33.537C156.054 33.857 155.11 34.017 154.118 34.017C152.87 34.017 151.79 33.793 150.878 33.345C149.966 32.897 149.262 32.257 148.766 31.425C148.27 30.593 148.022 29.617 148.022 28.497C148.022 27.073 148.326 25.793 148.934 24.657C149.558 23.521 150.414 22.633 151.502 21.993C152.606 21.353 153.838 21.033 155.198 21.033C156.926 21.033 158.302 21.529 159.326 22.521C160.366 23.497 160.886 24.833 160.886 26.529C160.886 27.041 160.83 27.609 160.718 28.233H150.278ZM155.102 22.953C153.966 22.953 152.99 23.273 152.174 23.913C151.358 24.553 150.806 25.433 150.518 26.553H158.726C158.79 25.417 158.486 24.537 157.814 23.913C157.158 23.273 156.254 22.953 155.102 22.953ZM167.086 23.049C167.646 22.345 168.334 21.833 169.15 21.513C169.966 21.193 170.958 21.033 172.126 21.033L171.694 23.265C171.55 23.249 171.35 23.241 171.094 23.241C168.454 23.241 166.854 24.665 166.294 27.513L165.022 33.873H162.718L165.238 21.153H167.446L167.086 23.049ZM186.69 21.153L178.602 33.873H176.25L173.202 21.153H175.506L177.882 31.353L184.362 21.153H186.69ZM188.84 21.153H191.144L188.624 33.873H186.32L188.84 21.153ZM190.664 18.705C190.248 18.705 189.904 18.569 189.632 18.297C189.36 18.025 189.224 17.697 189.224 17.313C189.224 16.865 189.376 16.489 189.68 16.185C190 15.865 190.4 15.705 190.88 15.705C191.296 15.705 191.64 15.841 191.912 16.113C192.2 16.369 192.344 16.681 192.344 17.049C192.344 17.545 192.184 17.945 191.864 18.249C191.56 18.553 191.16 18.705 190.664 18.705ZM195.255 28.233V28.377C195.255 29.561 195.591 30.465 196.263 31.089C196.935 31.697 197.943 32.001 199.287 32.001C200.071 32.001 200.807 31.873 201.495 31.617C202.183 31.345 202.759 30.985 203.223 30.537L204.207 32.193C203.583 32.769 202.823 33.217 201.927 33.537C201.031 33.857 200.087 34.017 199.095 34.017C197.847 34.017 196.767 33.793 195.855 33.345C194.943 32.897 194.239 32.257 193.743 31.425C193.247 30.593 192.999 29.617 192.999 28.497C192.999 27.073 193.303 25.793 193.911 24.657C194.535 23.521 195.391 22.633 196.479 21.993C197.583 21.353 198.815 21.033 200.175 21.033C201.903 21.033 203.279 21.529 204.303 22.521C205.343 23.497 205.863 24.833 205.863 26.529C205.863 27.041 205.807 27.609 205.695 28.233H195.255ZM200.079 22.953C198.943 22.953 197.967 23.273 197.151 23.913C196.335 24.553 195.783 25.433 195.495 26.553H203.703C203.767 25.417 203.463 24.537 202.791 23.913C202.135 23.273 201.231 22.953 200.079 22.953ZM229.348 21.153L222.22 33.873H219.964L218.02 24.249L212.5 33.873H210.292L207.868 21.153H209.956L211.828 31.233L217.588 21.153H219.556L221.476 31.233L227.164 21.153H229.348Z" fill="#202020"/>
<circle cx="275.242" cy="24.2425" r="24.2425" fill="#E06B65"/>
<path d="M273.356 24.0886C274.052 24.3166 274.604 24.7006 275.012 25.2406C275.42 25.7686 275.624 26.4286 275.624 27.2206C275.624 28.3126 275.204 29.1586 274.364 29.7586C273.524 30.3466 272.3 30.6406 270.692 30.6406H264.428V18.0406H270.332C271.82 18.0406 272.966 18.3346 273.77 18.9226C274.574 19.4986 274.976 20.2966 274.976 21.3166C274.976 21.9406 274.832 22.4926 274.544 22.9726C274.256 23.4526 273.86 23.8246 273.356 24.0886ZM266.768 19.8766V23.3506H270.08C270.896 23.3506 271.52 23.2066 271.952 22.9186C272.396 22.6186 272.618 22.1866 272.618 21.6226C272.618 21.0466 272.396 20.6146 271.952 20.3266C271.52 20.0266 270.896 19.8766 270.08 19.8766H266.768ZM270.548 28.8046C272.36 28.8046 273.266 28.1986 273.266 26.9866C273.266 25.7746 272.36 25.1686 270.548 25.1686H266.768V28.8046H270.548ZM282.027 30.8206C281.055 30.8206 280.113 30.6826 279.201 30.4066C278.301 30.1306 277.587 29.7646 277.059 29.3086L277.869 27.4906C278.385 27.8986 279.015 28.2346 279.759 28.4986C280.515 28.7506 281.271 28.8766 282.027 28.8766C282.963 28.8766 283.659 28.7266 284.115 28.4266C284.583 28.1266 284.817 27.7306 284.817 27.2386C284.817 26.8786 284.685 26.5846 284.421 26.3566C284.169 26.1166 283.845 25.9306 283.449 25.7986C283.053 25.6666 282.513 25.5166 281.829 25.3486C280.869 25.1206 280.089 24.8926 279.489 24.6646C278.901 24.4366 278.391 24.0826 277.959 23.6026C277.539 23.1106 277.329 22.4506 277.329 21.6226C277.329 20.9266 277.515 20.2966 277.887 19.7326C278.271 19.1566 278.841 18.7006 279.597 18.3646C280.365 18.0286 281.301 17.8606 282.405 17.8606C283.173 17.8606 283.929 17.9566 284.673 18.1486C285.417 18.3406 286.059 18.6166 286.599 18.9766L285.861 20.7946C285.309 20.4706 284.733 20.2246 284.133 20.0566C283.533 19.8886 282.951 19.8046 282.387 19.8046C281.463 19.8046 280.773 19.9606 280.317 20.2726C279.873 20.5846 279.651 20.9986 279.651 21.5146C279.651 21.8746 279.777 22.1686 280.029 22.3966C280.293 22.6246 280.623 22.8046 281.019 22.9366C281.415 23.0686 281.955 23.2186 282.639 23.3866C283.575 23.6026 284.343 23.8306 284.943 24.0706C285.543 24.2986 286.053 24.6526 286.473 25.1326C286.905 25.6126 287.121 26.2606 287.121 27.0766C287.121 27.7726 286.929 28.4026 286.545 28.9666C286.173 29.5306 285.603 29.9806 284.835 30.3166C284.067 30.6526 283.131 30.8206 282.027 30.8206Z" fill="#202020"/>
</svg>
