<svg width="49" height="49" viewBox="0 0 49 49" fill="none" xmlns="http://www.w3.org/2000/svg">
<circle cx="24.2425" cy="24.2425" r="24.2425" fill="#E06B65"/>
<path d="M22.356 24.0886C23.052 24.3166 23.604 24.7006 24.012 25.2406C24.42 25.7686 24.624 26.4286 24.624 27.2206C24.624 28.3126 24.204 29.1586 23.364 29.7586C22.524 30.3466 21.3 30.6406 19.692 30.6406H13.428V18.0406H19.332C20.82 18.0406 21.966 18.3346 22.77 18.9226C23.574 19.4986 23.976 20.2966 23.976 21.3166C23.976 21.9406 23.832 22.4926 23.544 22.9726C23.256 23.4526 22.86 23.8246 22.356 24.0886ZM15.768 19.8766V23.3506H19.08C19.896 23.3506 20.52 23.2066 20.952 22.9186C21.396 22.6186 21.618 22.1866 21.618 21.6226C21.618 21.0466 21.396 20.6146 20.952 20.3266C20.52 20.0266 19.896 19.8766 19.08 19.8766H15.768ZM19.548 28.8046C21.36 28.8046 22.266 28.1986 22.266 26.9866C22.266 25.7746 21.36 25.1686 19.548 25.1686H15.768V28.8046H19.548ZM31.0273 30.8206C30.0553 30.8206 29.1133 30.6826 28.2013 30.4066C27.3013 30.1306 26.5873 29.7646 26.0593 29.3086L26.8693 27.4906C27.3853 27.8986 28.0153 28.2346 28.7593 28.4986C29.5153 28.7506 30.2713 28.8766 31.0273 28.8766C31.9633 28.8766 32.6593 28.7266 33.1153 28.4266C33.5833 28.1266 33.8173 27.7306 33.8173 27.2386C33.8173 26.8786 33.6853 26.5846 33.4213 26.3566C33.1693 26.1166 32.8453 25.9306 32.4493 25.7986C32.0533 25.6666 31.5133 25.5166 30.8293 25.3486C29.8693 25.1206 29.0893 24.8926 28.4893 24.6646C27.9013 24.4366 27.3913 24.0826 26.9593 23.6026C26.5393 23.1106 26.3293 22.4506 26.3293 21.6226C26.3293 20.9266 26.5153 20.2966 26.8873 19.7326C27.2713 19.1566 27.8413 18.7006 28.5973 18.3646C29.3653 18.0286 30.3013 17.8606 31.4053 17.8606C32.1733 17.8606 32.9293 17.9566 33.6733 18.1486C34.4173 18.3406 35.0593 18.6166 35.5993 18.9766L34.8613 20.7946C34.3093 20.4706 33.7333 20.2246 33.1333 20.0566C32.5333 19.8886 31.9513 19.8046 31.3873 19.8046C30.4633 19.8046 29.7733 19.9606 29.3173 20.2726C28.8733 20.5846 28.6513 20.9986 28.6513 21.5146C28.6513 21.8746 28.7773 22.1686 29.0293 22.3966C29.2933 22.6246 29.6233 22.8046 30.0193 22.9366C30.4153 23.0686 30.9553 23.2186 31.6393 23.3866C32.5753 23.6026 33.3433 23.8306 33.9433 24.0706C34.5433 24.2986 35.0533 24.6526 35.4733 25.1326C35.9053 25.6126 36.1213 26.2606 36.1213 27.0766C36.1213 27.7726 35.9293 28.4026 35.5453 28.9666C35.1733 29.5306 34.6033 29.9806 33.8353 30.3166C33.0673 30.6526 32.1313 30.8206 31.0273 30.8206Z" fill="#202020"/>
</svg>
