<svg width="49" height="49" viewBox="0 0 49 49" fill="none" xmlns="http://www.w3.org/2000/svg">
<circle cx="24.2425" cy="24.2425" r="24.2425" fill="#99CCFF"/>
<path d="M22.3828 30.6406L22.3648 22.2886L18.2248 29.2006H17.1808L13.0408 22.3966V30.6406H10.8088V18.0406H12.7348L17.7388 26.3926L22.6528 18.0406H24.5788L24.5968 30.6406H22.3828ZM33.1842 18.0406C34.2762 18.0406 35.2242 18.2206 36.0282 18.5806C36.8442 18.9406 37.4682 19.4566 37.9002 20.1286C38.3322 20.8006 38.5482 21.5986 38.5482 22.5226C38.5482 23.4346 38.3322 24.2326 37.9002 24.9166C37.4682 25.5886 36.8442 26.1046 36.0282 26.4646C35.2242 26.8246 34.2762 27.0046 33.1842 27.0046H30.3402V30.6406H28.0002V18.0406H33.1842ZM33.0762 25.0246C34.0962 25.0246 34.8702 24.8086 35.3982 24.3766C35.9262 23.9446 36.1902 23.3266 36.1902 22.5226C36.1902 21.7186 35.9262 21.1006 35.3982 20.6686C34.8702 20.2366 34.0962 20.0206 33.0762 20.0206H30.3402V25.0246H33.0762Z" fill="#202020"/>
</svg>
