<svg width="87" height="49" viewBox="0 0 87 49" fill="none" xmlns="http://www.w3.org/2000/svg">
<circle cx="62.2425" cy="24.2425" r="24.2425" fill="#FFF599"/>
<path d="M54.9925 25.3666L52.9945 27.4186V30.6406H50.6545V18.0406H52.9945V24.5026L59.2225 18.0406H61.8505L56.5585 23.6746L62.1745 30.6406H59.4385L54.9925 25.3666ZM71.9148 24.1966H74.1288V29.2186C73.4808 29.7346 72.7248 30.1306 71.8608 30.4066C70.9968 30.6826 70.1088 30.8206 69.1968 30.8206C67.9128 30.8206 66.7548 30.5446 65.7228 29.9926C64.6908 29.4286 63.8808 28.6546 63.2928 27.6706C62.7048 26.6866 62.4108 25.5766 62.4108 24.3406C62.4108 23.1046 62.7048 21.9946 63.2928 21.0106C63.8808 20.0266 64.6908 19.2586 65.7228 18.7066C66.7668 18.1426 67.9368 17.8606 69.2328 17.8606C70.2888 17.8606 71.2488 18.0346 72.1128 18.3826C72.9768 18.7306 73.7028 19.2406 74.2908 19.9126L72.8148 21.3526C71.8548 20.3926 70.6968 19.9126 69.3408 19.9126C68.4528 19.9126 67.6608 20.0986 66.9648 20.4706C66.2808 20.8426 65.7408 21.3646 65.3448 22.0366C64.9608 22.7086 64.7688 23.4766 64.7688 24.3406C64.7688 25.1806 64.9608 25.9366 65.3448 26.6086C65.7408 27.2806 66.2808 27.8086 66.9648 28.1926C67.6608 28.5766 68.4468 28.7686 69.3228 28.7686C70.3068 28.7686 71.1708 28.5526 71.9148 28.1206V24.1966Z" fill="#202020"/>
<circle cx="24.2425" cy="24.2425" r="24.2425" fill="#99CC99"/>
<path d="M22.3565 30.6406L22.3385 22.2886L18.1985 29.2006H17.1545L13.0145 22.3966V30.6406H10.7825V18.0406H12.7085L17.7125 26.3926L22.6265 18.0406H24.5525L24.5705 30.6406H22.3565ZM32.3119 25.3666L30.3139 27.4186V30.6406H27.9739V18.0406H30.3139V24.5026L36.5419 18.0406H39.1699L33.8779 23.6746L39.4939 30.6406H36.7579L32.3119 25.3666Z" fill="#202020"/>
</svg>
