<svg width="79" height="84" viewBox="0 0 79 84" fill="none" xmlns="http://www.w3.org/2000/svg">
<path fill-rule="evenodd" clip-rule="evenodd" d="M37.6216 0.0215064C45.9681 -0.157107 54.5686 0.696525 61.4588 5.63606C68.4622 10.6567 72.6344 18.7487 75.4467 27.1381C78.3171 35.701 80.6105 45.1222 77.5401 53.6086C74.5278 61.9344 66.5407 66.5995 59.4148 71.4496C52.6689 76.0411 45.6402 80.1094 37.6216 80.7785C29.0994 81.4895 19.9829 80.6967 13.152 75.3097C6.37006 69.9612 3.60525 60.9309 1.52122 52.3085C-0.443095 44.1815 -0.618067 35.8093 1.66246 27.7734C3.98989 19.5723 7.90693 11.7152 14.4813 6.64136C21.0809 1.54805 29.427 0.196867 37.6216 0.0215064Z" fill="#E06B65"/>
<path d="M41.6705 14.8871C41.6705 14.8871 28.5005 15.0971 28.2905 33.7071C28.2905 33.7071 21.1905 32.4471 27.2905 41.6471C27.2905 41.6471 27.8805 43.2271 29.7505 41.6471C31.6205 40.0671 27.9805 45.3971 36.4605 50.7671C36.4605 50.7671 36.5805 59.3871 34.4605 60.7671C32.3405 62.1471 46.0805 66.8871 48.3305 60.7671C46.8983 59.0081 46.1428 56.7947 46.2005 54.5271C46.2005 54.5271 55.6405 54.0471 55.7005 37.7871C55.7605 21.5271 51.2505 13.8871 41.6705 14.8871Z" fill="#E8C8B6"/>
<path d="M47.8747 60.4841C42.1654 65.0516 36.6143 62.3872 34.5524 60.4841C24.4563 60.0628 16.7066 75.6923 14.0938 83.5597H70.7122C65.4786 73.9647 53.584 55.9166 47.8747 60.4841Z" fill="#DADADA"/>
<path d="M31.3198 37.46C29.3676 35.1413 28.0191 32.3757 27.3945 29.4097C26.7699 26.4436 26.8885 23.3691 27.7398 20.46C30.5398 10.03 44.4198 8.79 50.5798 10.25C56.7398 11.71 57.9698 7 57.9698 7C57.9698 7 64.5798 21.56 57.9698 24.58C51.3598 27.6 31.7698 19.94 31.3198 37.46Z" fill="#DDB374"/>
</svg>
