<svg width="79" height="88" viewBox="0 0 79 88" fill="none" xmlns="http://www.w3.org/2000/svg">
<path fill-rule="evenodd" clip-rule="evenodd" d="M39.3169 0.0352434C47.2623 -0.268719 55.182 1.36897 61.9484 5.90302C69.1041 10.6979 75.7599 17.2777 78.1267 26.0411C80.4643 34.6963 77.7253 43.8511 74.4341 52.1324C71.394 59.7822 66.371 66.0126 60.2472 71.0303C54.0222 76.1311 47.0976 80.3509 39.3169 80.9073C31.1841 81.4889 22.9002 79.3438 16.2834 74.1745C9.64715 68.99 5.63435 60.9616 3.01805 52.5494C0.375489 44.0528 -1.36667 34.8056 1.41273 26.3607C4.15315 18.0342 10.9561 12.3549 17.8147 7.59142C24.3206 3.07289 31.5995 0.330481 39.3169 0.0352434Z" fill="#FFFF99"/>
<path d="M40.9347 20.9193C40.9347 20.9193 27.7647 21.1293 27.5547 39.7293C27.5547 39.7293 20.4447 38.4793 26.5547 47.7293C26.5547 47.7293 27.1547 49.3093 29.0247 47.7293C30.8947 46.1493 27.2747 51.5193 35.7747 56.8893C35.7747 56.8893 35.8947 65.5093 33.7747 66.8893C31.6547 68.2693 45.3947 73.0093 47.6347 66.8893C46.1856 65.1151 45.4226 62.8792 45.4847 60.5893C45.4847 60.5893 54.9247 60.1093 54.9747 43.8493C55.0247 27.5893 50.4847 19.9793 40.9347 20.9193Z" fill="#EAC4AF"/>
<path d="M65.4842 71.3694C65.4842 71.3694 62.8242 55.2594 64.0642 48.2394C65.3042 41.2194 51.8742 20.8794 51.8742 20.8794C51.8742 20.8794 53.1042 12.0894 46.8742 14.7294C46.8742 14.7294 42.6042 17.8294 34.8742 16.0794C27.1442 14.3294 22.4842 24.8094 23.0342 28.2994C23.0342 28.2994 10.2342 32.9594 14.1142 53.2994C17.9942 73.6394 17.4142 83.7594 23.0342 86.6694C28.6542 89.5794 37.6342 84.1501 43.1142 76.0001C48.5942 67.8501 54.1142 86.6694 54.1142 86.6694C54.1142 86.6694 67.0642 91.5394 65.4842 71.3694ZM52.7742 54.8494C50.2942 58.6894 48.6242 60.1694 46.1642 60.1694C43.7042 60.1694 47.2642 66.4394 47.2642 66.4394C40.7342 69.6394 34.4642 65.9094 34.4642 65.9094C37.2942 63.9094 36.4642 56.9094 36.4642 56.9094C33.0142 56.6894 29.5542 47.4394 29.5542 47.4394C26.7242 49.6594 25.4442 45.8794 25.4442 45.8794C22.9942 38.2094 27.5942 39.7494 27.5942 39.7494C26.9742 30.7494 37.0742 28.5794 43.1142 27.3494C49.1542 26.1194 49.6442 23.5294 49.6442 23.5294C57.0742 32.1894 55.2942 50.9494 52.7742 54.8494Z" fill="#202020"/>
<path d="M47.1628 64.4841C41.4534 69.0516 35.9024 66.3872 33.8405 64.4841C23.7444 64.0628 15.9947 79.6923 13.3818 87.5597H70.0003C64.7667 77.9647 52.8721 59.9166 47.1628 64.4841Z" fill="#F8F8C8"/>
</svg>
