<svg width="79" height="88" viewBox="0 0 79 88" fill="none" xmlns="http://www.w3.org/2000/svg">
<path fill-rule="evenodd" clip-rule="evenodd" d="M38.2771 0.121239C46.5944 -0.578627 54.94 1.76903 61.9189 6.7106C69.1418 11.8249 75.1578 19.1217 77.7068 28.0403C80.2348 36.8854 78.7786 46.3968 75.7346 55.0498C72.8062 63.3739 67.8978 70.8439 60.9598 75.6451C54.2798 80.2678 46.2079 80.8814 38.2771 80.971C30.2629 81.0615 21.7365 81.2468 15.2473 76.1615C8.75497 71.0737 6.32806 62.23 3.84403 53.9873C1.35793 45.7378 -1.55175 37.0229 0.970142 28.786C3.48632 20.5679 10.6392 15.4911 17.1659 10.4764C23.6227 5.5153 30.3797 0.785774 38.2771 0.121239Z" fill="#99CC99"/>
<path d="M41.7898 18.5734C41.7898 18.5734 28.6198 18.7834 28.4098 37.3834C28.4098 37.3834 21.2997 36.1334 27.3597 45.3834C27.3597 45.3834 27.9597 46.9634 29.8297 45.3834C31.6997 43.8034 28.0798 49.1634 36.5798 54.5434C36.5798 54.5434 36.6997 63.1634 34.5798 64.5434C32.4598 65.9234 46.1898 70.6634 48.4398 64.5434C47.0136 62.7778 46.2621 60.5623 46.3198 58.2934C46.3198 58.2934 55.7598 57.8234 55.8098 41.5534C55.8698 25.3834 51.3698 17.6334 41.7898 18.5734Z" fill="#C59E9E"/>
<path d="M56.9735 34.4159C55.5016 34.4159 58.8689 24.8352 53.6063 24.0636C53.6063 24.0636 49.7148 17.4406 47.4061 17.6335C45.0975 17.8264 44.7749 18.2949 42.2444 17.6335C42.2444 17.6335 35.4091 12.1772 33.4129 16.9722C33.4129 16.9722 29.2089 15.3371 25.4182 21.1884C21.6276 27.0397 19.2181 21.4732 20.5791 29.1341C20.5791 29.1341 17.0102 32.4961 18.2704 36.9971C18.2704 36.9971 13.6429 39.1006 16.8993 44.3457C20.1556 49.5907 13.499 47 17.9992 53.5C17.9992 53.5 18.3712 55.7783 20.5791 57C22.7869 58.2217 20.2766 61.0454 23.7447 62.5794C27.2128 64.1134 24.9582 61.466 29.999 63C29.999 63 31.2547 72.7726 35.499 67.5C35.499 67.5 37.3193 72.328 40.999 70.5C44.6788 68.672 44.422 67.466 46.1056 69C47.7892 70.534 46.9685 71.034 49.499 69.5C52.0295 67.966 51.5271 71.0457 52.999 67.5C54.4709 63.9543 48.8797 65.8771 52.499 64.9585C56.1183 64.0399 54.4396 64.8091 56.999 62C57.9396 60.3091 57.4586 60.0674 57.499 58.7306C57.5395 57.3937 59.56 57.19 60.2904 56.0299C62.0647 52.769 58.9092 49.9122 61.7421 46.1185C64.5751 42.3248 58.4454 34.4159 56.9735 34.4159ZM53.499 52.5C49.0732 58.1492 47.1743 56.8291 46.1056 58.7306C45.037 60.632 48.4143 64.389 48.4143 64.389C43.0005 70.4791 34.7638 64.9585 34.7638 64.9585C34.7638 64.9585 38.3339 55.2165 36.499 54.5C32.8596 53.0487 30.0252 44.9868 30.499 44.5C28.019 46.9802 25.5938 42.6008 24.999 39C25.499 37 28.499 37.5 28.499 37.5C28.3176 34.2666 30.2977 37.0889 29.9549 35.9499C29.6928 35.0956 29.1081 28.2339 32.6669 28.6013C36.2257 28.9688 32.7475 23.7053 37.2641 24.927C41.7806 26.1487 41.7 23.0164 41.7 23.0164C42.6577 22.6214 43.2626 23.6502 44.6539 24.5229C46.0451 25.3955 48.384 24.9178 48.384 24.9178C56.8223 26.9479 57.499 46.1185 53.499 52.5Z" fill="#202020"/>
<path d="M48.3454 64.4836C42.6361 69.0511 37.085 66.3867 35.0231 64.4836C24.927 64.0623 17.1773 79.6918 14.5645 87.5592H71.183C65.9493 77.9642 54.0547 59.9161 48.3454 64.4836Z" fill="#CBF4CB"/>
</svg>
