<svg width="79" height="81" viewBox="0 0 79 81" fill="none" xmlns="http://www.w3.org/2000/svg">
<path fill-rule="evenodd" clip-rule="evenodd" d="M39.9408 0.00223137C47.6403 -0.0987379 54.984 3.23544 61.2201 8.2716C67.4636 13.3136 72.0672 20.2711 74.9248 28.2544C77.9459 36.6945 80.6172 46.1165 77.8221 54.6529C75.0605 63.0869 67.2948 67.6716 60.4626 72.4234C54.1088 76.8425 47.4292 81.0453 39.9408 80.9996C32.477 80.9541 25.9694 76.4789 19.5815 72.174C12.5738 67.4515 4.20986 63.4601 1.26984 54.939C-1.71448 46.2895 1.07414 36.5516 4.35254 28.0355C7.40231 20.1133 12.7071 13.7994 19.0221 8.82498C25.2637 3.90836 32.2992 0.102441 39.9408 0.00223137Z" fill="#99CCFF"/>
<path d="M41.5841 11.7653C41.5841 11.7653 28.4141 11.9753 28.2041 30.5753C28.2041 30.5753 21.0941 29.3253 27.2041 38.5753C27.2041 38.5753 27.7941 40.1553 29.6641 38.5753C31.5341 36.9953 27.9141 42.3553 36.4141 47.7353C36.4141 47.7353 36.5341 56.3553 34.4141 57.7353C32.2941 59.1153 46.0341 63.8553 48.2741 57.7353C46.8479 55.9696 46.0964 53.7542 46.1541 51.4853C46.1541 51.4853 55.5941 51.0153 55.6541 34.7453C55.6641 18.5753 51.1641 10.8253 41.5841 11.7653Z" fill="#CD9F94"/>
<path d="M46.3337 11.5152C46.3337 11.5152 36.7437 7.51524 32.8337 10.3852C28.9237 13.2552 29.5537 15.9952 26.0837 15.8752C22.6137 15.7552 13.0137 17.2152 15.8237 33.9852C15.8237 33.9852 24.9737 25.1452 24.0937 17.7652C24.0937 17.7652 24.9137 27.6152 22.5137 30.6352C20.1137 33.6552 15.0037 48.3752 24.3437 52.9152C33.6837 57.4552 36.4637 53.4852 36.4637 53.4852L36.9637 47.8052C36.9637 47.8052 30.7537 42.4252 30.1837 38.3252C29.7337 38.3252 26.8937 40.6153 25.5837 35.6753C24.3237 30.9053 26.0437 29.2952 29.0137 31.4652C29.0137 31.4652 28.8237 35.1252 29.5837 34.7452C30.3437 34.3652 31.7337 23.7452 34.1237 23.0052C36.5137 22.2652 46.8237 21.2152 46.3337 11.5152Z" fill="#202020"/>
<path d="M46.3041 13.7752C46.3041 13.7752 53.6241 19.2152 55.1541 26.2152C55.1541 26.2152 57.8941 14.8852 49.8841 12.2152C49.8841 12.2152 44.9341 10.2152 46.3041 13.7752Z" fill="#202020"/>
<path d="M47.6608 57.7829C41.9515 62.3504 36.4004 59.686 34.3385 57.7829C24.2425 57.3617 16.4927 72.9912 13.8799 80.8586H70.4984C65.2647 71.2635 53.3701 53.2154 47.6608 57.7829Z" fill="#C3DDF7"/>
</svg>
