<svg width="79" height="81" viewBox="0 0 79 81" fill="none" xmlns="http://www.w3.org/2000/svg">
<path fill-rule="evenodd" clip-rule="evenodd" d="M38.2771 0.121239C46.5944 -0.578627 54.94 1.76903 61.9189 6.7106C69.1418 11.8249 75.1578 19.1217 77.7068 28.0403C80.2348 36.8854 78.7786 46.3968 75.7346 55.0498C72.8062 63.3739 67.8978 70.8439 60.9598 75.6451C54.2798 80.2678 46.2079 80.8814 38.2771 80.971C30.2629 81.0615 21.7365 81.2468 15.2473 76.1615C8.75497 71.0737 6.32806 62.23 3.84403 53.9873C1.35793 45.7378 -1.55175 37.0229 0.970142 28.786C3.48632 20.5679 10.6392 15.4911 17.1659 10.4764C23.6227 5.5153 30.3797 0.785774 38.2771 0.121239Z" fill="#99CC99"/>
<path d="M40.1798 13.2186C40.1798 13.2186 27.0098 13.4286 26.7998 32.0286C26.7998 32.0286 19.6898 30.7786 25.7998 40.0286C25.7998 40.0286 26.3998 41.6086 28.2698 40.0286C30.1398 38.4486 26.5198 43.8186 35.0198 49.1886C35.0198 49.1886 35.1398 57.8086 33.0198 59.1886C30.8998 60.5686 44.6398 65.3086 46.8798 59.1886C45.4307 57.4144 44.6677 55.1785 44.7298 52.8886C44.7298 52.8886 54.1698 52.4086 54.2198 36.1486C54.2698 19.8886 49.7298 12.2786 40.1798 13.2186Z" fill="#CD9F94"/>
<path d="M63.627 65.5347C63.627 65.5347 56.1272 56.5342 60.6272 41.5342C61.8672 34.5142 55.127 16.5345 55.127 16.5345C55.127 16.5345 53.627 12.5446 41.627 11.0446C41.627 11.0446 52.8572 13.2843 45.1272 11.5343C37.3972 9.78431 26.8371 12.2933 20.627 19.6488C20.627 19.6488 13.2475 24.6942 17.1275 45.0342C21.0075 65.3742 15.007 73.09 20.627 76C26.247 78.91 36.147 81.15 41.627 73C47.107 64.85 53.3596 78.9687 53.3596 78.9687C53.3596 78.9687 68.127 77.0347 63.627 65.5347ZM52.0196 47.1488C49.5396 50.9888 47.8696 52.4688 45.4096 52.4688C42.9496 52.4688 46.5096 58.7388 46.5096 58.7388C39.9796 61.9388 33.7096 58.2088 33.7096 58.2088C36.5396 56.2088 35.7096 49.2088 35.7096 49.2088C32.2596 48.9888 28.7996 39.7388 28.7996 39.7388C25.9696 41.9588 24.6896 38.1788 24.6896 38.1788C22.2396 30.5088 26.8396 32.0488 26.8396 32.0488C26.2196 23.0488 36.3196 20.8788 42.3596 19.6488C48.3996 18.4188 48.8896 15.8288 48.8896 15.8288C56.3196 24.4888 54.5396 43.2488 52.0196 47.1488Z" fill="#2F221A"/>
<path d="M45.7809 57.7277C40 61 36 59.5 34 57.9999C23.9039 57.5787 14.6129 72.9359 12 80.8033H68.6185C63.3849 71.2083 52.1438 54.1259 45.7809 57.7277Z" fill="#DADADA"/>
</svg>
