<svg width="655" height="99" viewBox="0 0 655 99" fill="none" xmlns="http://www.w3.org/2000/svg">
<path fill-rule="evenodd" clip-rule="evenodd" d="M52.0323 52.2334C65.3049 52.2334 76.0645 41.5532 76.0645 28.3784C76.0645 15.2037 65.3049 4.52344 52.0323 4.52344C38.7596 4.52344 28 15.2037 28 28.3784C28 41.5532 38.7596 52.2334 52.0323 52.2334ZM57.0676 34.0572H67.8249V23.3793H57.0676V12.7014H46.3103V23.3793H35.553V34.0572H46.3103V44.7351H57.0676V34.0572Z" fill="#E06B65"/>
<path fill-rule="evenodd" clip-rule="evenodd" d="M394 4.83398C380.66 4.83398 369.833 15.6607 369.833 29.0007C369.833 42.3407 380.66 53.1673 394 53.1673C407.34 53.1673 418.167 42.3407 418.167 29.0007C418.167 15.6607 407.34 4.83398 394 4.83398ZM402.724 20.1554C405.31 20.1554 407.388 22.2338 407.388 24.8196C407.388 27.4054 405.31 29.4838 402.724 29.4838C400.138 29.4838 398.06 27.4054 398.06 24.8196C398.036 22.2338 400.138 20.1554 402.724 20.1554ZM393.928 22.0403C393.928 18.8987 391.366 16.337 388.224 16.337C385.058 16.337 382.521 18.8745 382.521 22.0403C382.521 25.182 385.083 27.7437 388.224 27.7437C391.366 27.7437 393.928 25.182 393.928 22.0403ZM388.224 38.4018V47.4643C382.424 45.6518 377.833 41.181 375.803 35.4776C378.34 32.771 384.672 31.3935 388.224 31.3935C389.505 31.3935 391.124 31.5868 392.816 31.9251C388.853 34.0276 388.224 36.8068 388.224 38.4018ZM392.091 48.237C392.719 48.3095 393.348 48.3336 394 48.3336C402.193 48.3336 409.177 43.2103 412.004 36.0328C409.781 34.1961 405.31 33.2536 402.724 33.2536C399.196 33.2536 392.091 34.9695 392.091 38.4011V48.237Z" fill="#99CCFF" fill-opacity="0.77"/>
<path fill-rule="evenodd" clip-rule="evenodd" d="M191.833 29.0007C191.833 15.6607 202.66 4.83398 216 4.83398C229.34 4.83398 240.167 15.6607 240.167 29.0007C240.167 42.3407 229.34 53.1673 216 53.1673C202.66 53.1673 191.833 42.3407 191.833 29.0007ZM219.408 48.334V43.7182C223.613 42.9207 226.923 40.504 226.948 36.0815C226.948 29.9915 221.728 27.889 216.846 26.6323C211.964 25.3757 210.393 24.0465 210.393 22.0165C210.393 19.6965 212.568 18.0532 216.193 18.0532C220.012 18.0532 221.438 19.8898 221.558 22.5723H226.295C226.15 18.8748 223.903 15.4673 219.408 14.3798V9.66732H212.955V14.3315C208.798 15.2257 205.439 17.9323 205.439 22.089C205.439 27.0431 209.548 29.5082 215.541 30.9582C220.93 32.239 221.993 34.124 221.993 36.1298C221.993 37.604 220.93 39.9723 216.193 39.9723C211.771 39.9723 210.031 37.9907 209.789 35.4531H205.053C205.318 40.1415 208.823 42.7998 212.955 43.6698V48.334H219.408Z" fill="#FEEB96"/>
<path fill-rule="evenodd" clip-rule="evenodd" d="M583 4.83398C569.66 4.83398 558.833 15.6607 558.833 29.0007C558.833 42.3407 569.66 53.1673 583 53.1673C596.34 53.1673 607.167 42.3407 607.167 29.0007C607.167 15.6607 596.34 4.83398 583 4.83398ZM580.583 48.1648C571.038 46.9806 563.667 38.8606 563.667 29.0006C563.667 27.5023 563.86 26.0764 564.174 24.6748L575.75 36.2506V38.6673C575.75 41.3256 577.925 43.5006 580.583 43.5006V48.1648ZM592.667 38.6671C594.842 38.6671 596.63 40.0688 597.258 42.0263C600.4 38.5946 602.333 34.0271 602.333 29.0004C602.333 20.9046 597.331 13.9688 590.25 11.0929V12.0838C590.25 14.7421 588.075 16.9171 585.417 16.9171H580.583V21.7504C580.583 23.0796 579.496 24.1671 578.167 24.1671H573.333V29.0004H587.833C589.163 29.0004 590.25 30.0879 590.25 31.4171V38.6671H592.667Z" fill="#99CC99"/>
<path d="M523.301 84.038V86H513.851V73.4H523.049V75.362H516.191V78.638H522.275V80.564H516.191V84.038H523.301ZM537.106 73.4V86H535.18L528.232 77.468V86H525.91V73.4H527.836L534.784 81.932V73.4H537.106ZM551.914 73.4L546.424 86H544.12L538.612 73.4H541.15L545.344 83.12L549.574 73.4H551.914ZM553.244 73.4H555.584V86H553.244V73.4ZM567.236 86L564.662 82.31C564.554 82.322 564.392 82.328 564.176 82.328H561.332V86H558.992V73.4H564.176C565.268 73.4 566.216 73.58 567.02 73.94C567.836 74.3 568.46 74.816 568.892 75.488C569.324 76.16 569.54 76.958 569.54 77.882C569.54 78.83 569.306 79.646 568.838 80.33C568.382 81.014 567.722 81.524 566.858 81.86L569.756 86H567.236ZM567.182 77.882C567.182 77.078 566.918 76.46 566.39 76.028C565.862 75.596 565.088 75.38 564.068 75.38H561.332V80.402H564.068C565.088 80.402 565.862 80.186 566.39 79.754C566.918 79.31 567.182 78.686 567.182 77.882ZM578.044 86.18C576.76 86.18 575.602 85.904 574.57 85.352C573.538 84.788 572.728 84.014 572.14 83.03C571.552 82.034 571.258 80.924 571.258 79.7C571.258 78.476 571.552 77.372 572.14 76.388C572.728 75.392 573.538 74.618 574.57 74.066C575.602 73.502 576.76 73.22 578.044 73.22C579.328 73.22 580.486 73.502 581.518 74.066C582.55 74.618 583.36 75.386 583.948 76.37C584.536 77.354 584.83 78.464 584.83 79.7C584.83 80.936 584.536 82.046 583.948 83.03C583.36 84.014 582.55 84.788 581.518 85.352C580.486 85.904 579.328 86.18 578.044 86.18ZM578.044 84.128C578.884 84.128 579.64 83.942 580.312 83.57C580.984 83.186 581.512 82.658 581.896 81.986C582.28 81.302 582.472 80.54 582.472 79.7C582.472 78.86 582.28 78.104 581.896 77.432C581.512 76.748 580.984 76.22 580.312 75.848C579.64 75.464 578.884 75.272 578.044 75.272C577.204 75.272 576.448 75.464 575.776 75.848C575.104 76.22 574.576 76.748 574.192 77.432C573.808 78.104 573.616 78.86 573.616 79.7C573.616 80.54 573.808 81.302 574.192 81.986C574.576 82.658 575.104 83.186 575.776 83.57C576.448 83.942 577.204 84.128 578.044 84.128ZM598.506 73.4V86H596.58L589.632 77.468V86H587.31V73.4H589.236L596.184 81.932V73.4H598.506ZM613.456 86L613.438 77.648L609.298 84.56H608.254L604.114 77.756V86H601.882V73.4H603.808L608.812 81.752L613.726 73.4H615.652L615.67 86H613.456ZM628.524 84.038V86H619.074V73.4H628.272V75.362H621.414V78.638H627.498V80.564H621.414V84.038H628.524ZM642.328 73.4V86H640.402L633.454 77.468V86H631.132V73.4H633.058L640.006 81.932V73.4H642.328ZM648.261 75.38H644.085V73.4H654.777V75.38H650.601V86H648.261V75.38Z" fill="#202020"/>
<path d="M178.746 73.4C179.838 73.4 180.786 73.58 181.59 73.94C182.406 74.3 183.03 74.816 183.462 75.488C183.894 76.16 184.11 76.958 184.11 77.882C184.11 78.794 183.894 79.592 183.462 80.276C183.03 80.948 182.406 81.464 181.59 81.824C180.786 82.184 179.838 82.364 178.746 82.364H175.902V86H173.562V73.4H178.746ZM178.638 80.384C179.658 80.384 180.432 80.168 180.96 79.736C181.488 79.304 181.752 78.686 181.752 77.882C181.752 77.078 181.488 76.46 180.96 76.028C180.432 75.596 179.658 75.38 178.638 75.38H175.902V80.384H178.638ZM192.509 86.18C191.225 86.18 190.067 85.904 189.035 85.352C188.003 84.788 187.193 84.014 186.605 83.03C186.017 82.034 185.723 80.924 185.723 79.7C185.723 78.476 186.017 77.372 186.605 76.388C187.193 75.392 188.003 74.618 189.035 74.066C190.067 73.502 191.225 73.22 192.509 73.22C193.793 73.22 194.951 73.502 195.983 74.066C197.015 74.618 197.825 75.386 198.413 76.37C199.001 77.354 199.295 78.464 199.295 79.7C199.295 80.936 199.001 82.046 198.413 83.03C197.825 84.014 197.015 84.788 195.983 85.352C194.951 85.904 193.793 86.18 192.509 86.18ZM192.509 84.128C193.349 84.128 194.105 83.942 194.777 83.57C195.449 83.186 195.977 82.658 196.361 81.986C196.745 81.302 196.937 80.54 196.937 79.7C196.937 78.86 196.745 78.104 196.361 77.432C195.977 76.748 195.449 76.22 194.777 75.848C194.105 75.464 193.349 75.272 192.509 75.272C191.669 75.272 190.913 75.464 190.241 75.848C189.569 76.22 189.041 76.748 188.657 77.432C188.273 78.104 188.081 78.86 188.081 79.7C188.081 80.54 188.273 81.302 188.657 81.986C189.041 82.658 189.569 83.186 190.241 83.57C190.913 83.942 191.669 84.128 192.509 84.128ZM212.891 73.4L207.401 86H205.097L199.589 73.4H202.127L206.321 83.12L210.551 73.4H212.891ZM223.67 84.038V86H214.22V73.4H223.418V75.362H216.56V78.638H222.644V80.564H216.56V84.038H223.67ZM234.523 86L231.949 82.31C231.841 82.322 231.679 82.328 231.463 82.328H228.619V86H226.279V73.4H231.463C232.555 73.4 233.503 73.58 234.307 73.94C235.123 74.3 235.747 74.816 236.179 75.488C236.611 76.16 236.827 76.958 236.827 77.882C236.827 78.83 236.593 79.646 236.125 80.33C235.669 81.014 235.009 81.524 234.145 81.86L237.043 86H234.523ZM234.469 77.882C234.469 77.078 234.205 76.46 233.677 76.028C233.149 75.596 232.375 75.38 231.355 75.38H228.619V80.402H231.355C232.375 80.402 233.149 80.186 233.677 79.754C234.205 79.31 234.469 78.686 234.469 77.882ZM241.825 75.38H237.649V73.4H248.341V75.38H244.165V86H241.825V75.38ZM255.357 81.554V86H253.017V81.59L248.067 73.4H250.569L254.259 79.538L257.985 73.4H260.289L255.357 81.554Z" fill="#202020"/>
<path d="M360.143 86.18C359.171 86.18 358.229 86.042 357.317 85.766C356.417 85.49 355.703 85.124 355.175 84.668L355.985 82.85C356.501 83.258 357.131 83.594 357.875 83.858C358.631 84.11 359.387 84.236 360.143 84.236C361.079 84.236 361.775 84.086 362.231 83.786C362.699 83.486 362.933 83.09 362.933 82.598C362.933 82.238 362.801 81.944 362.537 81.716C362.285 81.476 361.961 81.29 361.565 81.158C361.169 81.026 360.629 80.876 359.945 80.708C358.985 80.48 358.205 80.252 357.605 80.024C357.017 79.796 356.507 79.442 356.075 78.962C355.655 78.47 355.445 77.81 355.445 76.982C355.445 76.286 355.631 75.656 356.003 75.092C356.387 74.516 356.957 74.06 357.713 73.724C358.481 73.388 359.417 73.22 360.521 73.22C361.289 73.22 362.045 73.316 362.789 73.508C363.533 73.7 364.175 73.976 364.715 74.336L363.977 76.154C363.425 75.83 362.849 75.584 362.249 75.416C361.649 75.248 361.067 75.164 360.503 75.164C359.579 75.164 358.889 75.32 358.433 75.632C357.989 75.944 357.767 76.358 357.767 76.874C357.767 77.234 357.893 77.528 358.145 77.756C358.409 77.984 358.739 78.164 359.135 78.296C359.531 78.428 360.071 78.578 360.755 78.746C361.691 78.962 362.459 79.19 363.059 79.43C363.659 79.658 364.169 80.012 364.589 80.492C365.021 80.972 365.237 81.62 365.237 82.436C365.237 83.132 365.045 83.762 364.661 84.326C364.289 84.89 363.719 85.34 362.951 85.676C362.183 86.012 361.247 86.18 360.143 86.18ZM373.443 86.18C372.159 86.18 371.001 85.904 369.969 85.352C368.937 84.788 368.127 84.014 367.539 83.03C366.951 82.034 366.657 80.924 366.657 79.7C366.657 78.476 366.951 77.372 367.539 76.388C368.127 75.392 368.937 74.618 369.969 74.066C371.001 73.502 372.159 73.22 373.443 73.22C374.727 73.22 375.885 73.502 376.917 74.066C377.949 74.618 378.759 75.386 379.347 76.37C379.935 77.354 380.229 78.464 380.229 79.7C380.229 80.936 379.935 82.046 379.347 83.03C378.759 84.014 377.949 84.788 376.917 85.352C375.885 85.904 374.727 86.18 373.443 86.18ZM373.443 84.128C374.283 84.128 375.039 83.942 375.711 83.57C376.383 83.186 376.911 82.658 377.295 81.986C377.679 81.302 377.871 80.54 377.871 79.7C377.871 78.86 377.679 78.104 377.295 77.432C376.911 76.748 376.383 76.22 375.711 75.848C375.039 75.464 374.283 75.272 373.443 75.272C372.603 75.272 371.847 75.464 371.175 75.848C370.503 76.22 369.975 76.748 369.591 77.432C369.207 78.104 369.015 78.86 369.015 79.7C369.015 80.54 369.207 81.302 369.591 81.986C369.975 82.658 370.503 83.186 371.175 83.57C371.847 83.942 372.603 84.128 373.443 84.128ZM388.542 86.18C387.27 86.18 386.118 85.904 385.086 85.352C384.066 84.788 383.262 84.014 382.674 83.03C382.098 82.046 381.81 80.936 381.81 79.7C381.81 78.464 382.104 77.354 382.692 76.37C383.28 75.386 384.084 74.618 385.104 74.066C386.136 73.502 387.288 73.22 388.56 73.22C389.592 73.22 390.534 73.4 391.386 73.76C392.238 74.12 392.958 74.642 393.546 75.326L392.034 76.748C391.122 75.764 390 75.272 388.668 75.272C387.804 75.272 387.03 75.464 386.346 75.848C385.662 76.22 385.128 76.742 384.744 77.414C384.36 78.086 384.168 78.848 384.168 79.7C384.168 80.552 384.36 81.314 384.744 81.986C385.128 82.658 385.662 83.186 386.346 83.57C387.03 83.942 387.804 84.128 388.668 84.128C390 84.128 391.122 83.63 392.034 82.634L393.546 84.074C392.958 84.758 392.232 85.28 391.368 85.64C390.516 86 389.574 86.18 388.542 86.18ZM395.788 73.4H398.128V86H395.788V73.4ZM410.986 84.038V86H401.536V73.4H410.734V75.362H403.876V78.638H409.96V80.564H403.876V84.038H410.986ZM416.15 75.38H411.974V73.4H422.666V75.38H418.49V86H416.15V75.38ZM429.683 81.554V86H427.343V81.59L422.393 73.4H424.895L428.585 79.538L432.311 73.4H434.615L429.683 81.554Z" fill="#202020"/>
<path d="M26.8323 73.4V86H24.4923V80.6H17.9763V86H15.6363V73.4H17.9763V78.602H24.4923V73.4H26.8323ZM39.6586 84.038V86H30.2086V73.4H39.4066V75.362H32.5486V78.638H38.6326V80.564H32.5486V84.038H39.6586ZM50.4392 83.084H44.1392L42.8972 86H40.4852L46.1552 73.4H48.4592L54.1472 86H51.6992L50.4392 83.084ZM49.6652 81.248L47.2892 75.74L44.9312 81.248H49.6652ZM55.7496 73.4H58.0896V84.02H64.6776V86H55.7496V73.4ZM67.9033 75.38H63.7273V73.4H74.4193V75.38H70.2433V86H67.9033V75.38ZM87.3714 73.4V86H85.0314V80.6H78.5154V86H76.1754V73.4H78.5154V78.602H85.0314V73.4H87.3714Z" fill="#202020"/>
</svg>
