<svg width="277" height="224" viewBox="0 0 277 224" fill="none" xmlns="http://www.w3.org/2000/svg">
<path fill-rule="evenodd" clip-rule="evenodd" d="M56.0323 57.71C69.3049 57.71 80.0645 47.0297 80.0645 33.855C80.0645 20.6802 69.3049 10 56.0323 10C42.7596 10 32 20.6802 32 33.855C32 47.0297 42.7596 57.71 56.0323 57.71ZM61.0676 39.5338H71.8249V28.8559H61.0676V18.178H50.3103V28.8559H39.553V39.5338H50.3103V50.2117H61.0676V39.5338Z" fill="#E06B65"/>
<path fill-rule="evenodd" clip-rule="evenodd" d="M55.9997 129.833C42.6597 129.833 31.833 140.66 31.833 154C31.833 167.34 42.6597 178.167 55.9997 178.167C69.3397 178.167 80.1663 167.34 80.1663 154C80.1663 140.66 69.3397 129.833 55.9997 129.833ZM64.7238 145.155C67.3097 145.155 69.388 147.233 69.388 149.819C69.388 152.405 67.3097 154.483 64.7238 154.483C62.138 154.483 60.0597 152.405 60.0597 149.819C60.0355 147.233 62.138 145.155 64.7238 145.155ZM55.9272 147.04C55.9272 143.898 53.3655 141.336 50.2238 141.336C47.058 141.336 44.5205 143.874 44.5205 147.04C44.5205 150.181 47.0822 152.743 50.2238 152.743C53.3655 152.743 55.9272 150.181 55.9272 147.04ZM50.2238 163.401V172.464C44.4238 170.651 39.8322 166.18 37.8022 160.477C40.3397 157.77 46.6713 156.393 50.2238 156.393C51.5047 156.393 53.1238 156.586 54.8155 156.924C50.8522 159.027 50.2238 161.806 50.2238 163.401ZM54.0905 173.236C54.7188 173.309 55.3472 173.333 55.9997 173.333C64.1922 173.333 71.1763 168.21 74.0038 161.032C71.7805 159.195 67.3097 158.253 64.7238 158.253C61.1955 158.253 54.0905 159.969 54.0905 163.4V173.236Z" fill="#99CCFF" fill-opacity="0.77"/>
<path fill-rule="evenodd" clip-rule="evenodd" d="M181.833 29C181.833 15.66 192.66 4.83334 206 4.83334C219.34 4.83334 230.166 15.66 230.166 29C230.166 42.34 219.34 53.1667 206 53.1667C192.66 53.1667 181.833 42.34 181.833 29ZM209.407 48.3333V43.7175C213.612 42.92 216.923 40.5033 216.947 36.0808C216.947 29.9908 211.727 27.8883 206.846 26.6317C201.964 25.375 200.393 24.0458 200.393 22.0158C200.393 19.6958 202.568 18.0525 206.193 18.0525C210.011 18.0525 211.437 19.8892 211.558 22.5717H216.295C216.15 18.8742 213.902 15.4667 209.407 14.3792V9.66668H202.955V14.3308C198.798 15.225 195.439 17.9317 195.439 22.0883C195.439 27.0425 199.547 29.5075 205.541 30.9575C210.93 32.2383 211.993 34.1233 211.993 36.1292C211.993 37.6033 210.93 39.9717 206.193 39.9717C201.771 39.9717 200.031 37.99 199.789 35.4525H195.052C195.318 40.1408 198.822 42.7992 202.955 43.6692V48.3333H209.407Z" fill="#FEEB96"/>
<path fill-rule="evenodd" clip-rule="evenodd" d="M206 129.833C192.66 129.833 181.833 140.66 181.833 154C181.833 167.34 192.66 178.167 206 178.167C219.34 178.167 230.166 167.34 230.166 154C230.166 140.66 219.34 129.833 206 129.833ZM203.583 173.164C194.037 171.98 186.666 163.86 186.666 154C186.666 152.502 186.86 151.076 187.174 149.674L198.75 161.25V163.667C198.75 166.325 200.925 168.5 203.583 168.5V173.164ZM215.666 163.666C217.841 163.666 219.63 165.068 220.258 167.026C223.4 163.594 225.333 159.026 225.333 154C225.333 145.904 220.331 138.968 213.25 136.092V137.083C213.25 139.741 211.075 141.916 208.416 141.916H203.583V146.75C203.583 148.079 202.496 149.166 201.166 149.166H196.333V154H210.833C212.162 154 213.25 155.087 213.25 156.416V163.666H215.666Z" fill="#99CC99"/>
<path d="M145.301 209.038V211H135.851V198.4H145.049V200.362H138.191V203.638H144.275V205.564H138.191V209.038H145.301ZM159.106 198.4V211H157.18L150.232 202.468V211H147.91V198.4H149.836L156.784 206.932V198.4H159.106ZM173.914 198.4L168.424 211H166.12L160.612 198.4H163.15L167.344 208.12L171.574 198.4H173.914ZM175.244 198.4H177.584V211H175.244V198.4ZM189.236 211L186.662 207.31C186.554 207.322 186.392 207.328 186.176 207.328H183.332V211H180.992V198.4H186.176C187.268 198.4 188.216 198.58 189.02 198.94C189.836 199.3 190.46 199.816 190.892 200.488C191.324 201.16 191.54 201.958 191.54 202.882C191.54 203.83 191.306 204.646 190.838 205.33C190.382 206.014 189.722 206.524 188.858 206.86L191.756 211H189.236ZM189.182 202.882C189.182 202.078 188.918 201.46 188.39 201.028C187.862 200.596 187.088 200.38 186.068 200.38H183.332V205.402H186.068C187.088 205.402 187.862 205.186 188.39 204.754C188.918 204.31 189.182 203.686 189.182 202.882ZM200.044 211.18C198.76 211.18 197.602 210.904 196.57 210.352C195.538 209.788 194.728 209.014 194.14 208.03C193.552 207.034 193.258 205.924 193.258 204.7C193.258 203.476 193.552 202.372 194.14 201.388C194.728 200.392 195.538 199.618 196.57 199.066C197.602 198.502 198.76 198.22 200.044 198.22C201.328 198.22 202.486 198.502 203.518 199.066C204.55 199.618 205.36 200.386 205.948 201.37C206.536 202.354 206.83 203.464 206.83 204.7C206.83 205.936 206.536 207.046 205.948 208.03C205.36 209.014 204.55 209.788 203.518 210.352C202.486 210.904 201.328 211.18 200.044 211.18ZM200.044 209.128C200.884 209.128 201.64 208.942 202.312 208.57C202.984 208.186 203.512 207.658 203.896 206.986C204.28 206.302 204.472 205.54 204.472 204.7C204.472 203.86 204.28 203.104 203.896 202.432C203.512 201.748 202.984 201.22 202.312 200.848C201.64 200.464 200.884 200.272 200.044 200.272C199.204 200.272 198.448 200.464 197.776 200.848C197.104 201.22 196.576 201.748 196.192 202.432C195.808 203.104 195.616 203.86 195.616 204.7C195.616 205.54 195.808 206.302 196.192 206.986C196.576 207.658 197.104 208.186 197.776 208.57C198.448 208.942 199.204 209.128 200.044 209.128ZM220.506 198.4V211H218.58L211.632 202.468V211H209.31V198.4H211.236L218.184 206.932V198.4H220.506ZM235.456 211L235.438 202.648L231.298 209.56H230.254L226.114 202.756V211H223.882V198.4H225.808L230.812 206.752L235.726 198.4H237.652L237.67 211H235.456ZM250.524 209.038V211H241.074V198.4H250.272V200.362H243.414V203.638H249.498V205.564H243.414V209.038H250.524ZM264.328 198.4V211H262.402L255.454 202.468V211H253.132V198.4H255.058L262.006 206.932V198.4H264.328ZM270.261 200.38H266.085V198.4H276.777V200.38H272.601V211H270.261V200.38Z" fill="#202020"/>
<path d="M168.746 73.4C169.838 73.4 170.786 73.58 171.59 73.94C172.406 74.3 173.03 74.816 173.462 75.488C173.894 76.16 174.11 76.958 174.11 77.882C174.11 78.794 173.894 79.592 173.462 80.276C173.03 80.948 172.406 81.464 171.59 81.824C170.786 82.184 169.838 82.364 168.746 82.364H165.902V86H163.562V73.4H168.746ZM168.638 80.384C169.658 80.384 170.432 80.168 170.96 79.736C171.488 79.304 171.752 78.686 171.752 77.882C171.752 77.078 171.488 76.46 170.96 76.028C170.432 75.596 169.658 75.38 168.638 75.38H165.902V80.384H168.638ZM182.509 86.18C181.225 86.18 180.067 85.904 179.035 85.352C178.003 84.788 177.193 84.014 176.605 83.03C176.017 82.034 175.723 80.924 175.723 79.7C175.723 78.476 176.017 77.372 176.605 76.388C177.193 75.392 178.003 74.618 179.035 74.066C180.067 73.502 181.225 73.22 182.509 73.22C183.793 73.22 184.951 73.502 185.983 74.066C187.015 74.618 187.825 75.386 188.413 76.37C189.001 77.354 189.295 78.464 189.295 79.7C189.295 80.936 189.001 82.046 188.413 83.03C187.825 84.014 187.015 84.788 185.983 85.352C184.951 85.904 183.793 86.18 182.509 86.18ZM182.509 84.128C183.349 84.128 184.105 83.942 184.777 83.57C185.449 83.186 185.977 82.658 186.361 81.986C186.745 81.302 186.937 80.54 186.937 79.7C186.937 78.86 186.745 78.104 186.361 77.432C185.977 76.748 185.449 76.22 184.777 75.848C184.105 75.464 183.349 75.272 182.509 75.272C181.669 75.272 180.913 75.464 180.241 75.848C179.569 76.22 179.041 76.748 178.657 77.432C178.273 78.104 178.081 78.86 178.081 79.7C178.081 80.54 178.273 81.302 178.657 81.986C179.041 82.658 179.569 83.186 180.241 83.57C180.913 83.942 181.669 84.128 182.509 84.128ZM202.891 73.4L197.401 86H195.097L189.589 73.4H192.127L196.321 83.12L200.551 73.4H202.891ZM213.67 84.038V86H204.22V73.4H213.418V75.362H206.56V78.638H212.644V80.564H206.56V84.038H213.67ZM224.523 86L221.949 82.31C221.841 82.322 221.679 82.328 221.463 82.328H218.619V86H216.279V73.4H221.463C222.555 73.4 223.503 73.58 224.307 73.94C225.123 74.3 225.747 74.816 226.179 75.488C226.611 76.16 226.827 76.958 226.827 77.882C226.827 78.83 226.593 79.646 226.125 80.33C225.669 81.014 225.009 81.524 224.145 81.86L227.043 86H224.523ZM224.469 77.882C224.469 77.078 224.205 76.46 223.677 76.028C223.149 75.596 222.375 75.38 221.355 75.38H218.619V80.402H221.355C222.375 80.402 223.149 80.186 223.677 79.754C224.205 79.31 224.469 78.686 224.469 77.882ZM231.825 75.38H227.649V73.4H238.341V75.38H234.165V86H231.825V75.38ZM245.357 81.554V86H243.017V81.59L238.067 73.4H240.569L244.259 79.538L247.985 73.4H250.289L245.357 81.554Z" fill="#202020"/>
<path d="M21.1429 211.18C20.1709 211.18 19.2289 211.042 18.3169 210.766C17.4169 210.49 16.7029 210.124 16.1749 209.668L16.9849 207.85C17.5009 208.258 18.1309 208.594 18.8749 208.858C19.6309 209.11 20.3869 209.236 21.1429 209.236C22.0789 209.236 22.7749 209.086 23.2309 208.786C23.6989 208.486 23.9329 208.09 23.9329 207.598C23.9329 207.238 23.8009 206.944 23.5369 206.716C23.2849 206.476 22.9609 206.29 22.5649 206.158C22.1689 206.026 21.6289 205.876 20.9449 205.708C19.9849 205.48 19.2049 205.252 18.6049 205.024C18.0169 204.796 17.5069 204.442 17.0749 203.962C16.6549 203.47 16.4449 202.81 16.4449 201.982C16.4449 201.286 16.6309 200.656 17.0029 200.092C17.3869 199.516 17.9569 199.06 18.7129 198.724C19.4809 198.388 20.4169 198.22 21.5209 198.22C22.2889 198.22 23.0449 198.316 23.7889 198.508C24.5329 198.7 25.1749 198.976 25.7149 199.336L24.9769 201.154C24.4249 200.83 23.8489 200.584 23.2489 200.416C22.6489 200.248 22.0669 200.164 21.5029 200.164C20.5789 200.164 19.8889 200.32 19.4329 200.632C18.9889 200.944 18.7669 201.358 18.7669 201.874C18.7669 202.234 18.8929 202.528 19.1449 202.756C19.4089 202.984 19.7389 203.164 20.1349 203.296C20.5309 203.428 21.0709 203.578 21.7549 203.746C22.6909 203.962 23.4589 204.19 24.0589 204.43C24.6589 204.658 25.1689 205.012 25.5889 205.492C26.0209 205.972 26.2369 206.62 26.2369 207.436C26.2369 208.132 26.0449 208.762 25.6609 209.326C25.2889 209.89 24.7189 210.34 23.9509 210.676C23.1829 211.012 22.2469 211.18 21.1429 211.18ZM34.4432 211.18C33.1592 211.18 32.0012 210.904 30.9692 210.352C29.9372 209.788 29.1272 209.014 28.5392 208.03C27.9512 207.034 27.6572 205.924 27.6572 204.7C27.6572 203.476 27.9512 202.372 28.5392 201.388C29.1272 200.392 29.9372 199.618 30.9692 199.066C32.0012 198.502 33.1592 198.22 34.4432 198.22C35.7272 198.22 36.8852 198.502 37.9172 199.066C38.9492 199.618 39.7592 200.386 40.3472 201.37C40.9352 202.354 41.2292 203.464 41.2292 204.7C41.2292 205.936 40.9352 207.046 40.3472 208.03C39.7592 209.014 38.9492 209.788 37.9172 210.352C36.8852 210.904 35.7272 211.18 34.4432 211.18ZM34.4432 209.128C35.2832 209.128 36.0392 208.942 36.7112 208.57C37.3832 208.186 37.9112 207.658 38.2952 206.986C38.6792 206.302 38.8712 205.54 38.8712 204.7C38.8712 203.86 38.6792 203.104 38.2952 202.432C37.9112 201.748 37.3832 201.22 36.7112 200.848C36.0392 200.464 35.2832 200.272 34.4432 200.272C33.6032 200.272 32.8472 200.464 32.1752 200.848C31.5032 201.22 30.9752 201.748 30.5912 202.432C30.2072 203.104 30.0152 203.86 30.0152 204.7C30.0152 205.54 30.2072 206.302 30.5912 206.986C30.9752 207.658 31.5032 208.186 32.1752 208.57C32.8472 208.942 33.6032 209.128 34.4432 209.128ZM49.5416 211.18C48.2696 211.18 47.1176 210.904 46.0856 210.352C45.0656 209.788 44.2616 209.014 43.6736 208.03C43.0976 207.046 42.8096 205.936 42.8096 204.7C42.8096 203.464 43.1036 202.354 43.6916 201.37C44.2796 200.386 45.0836 199.618 46.1036 199.066C47.1356 198.502 48.2876 198.22 49.5596 198.22C50.5916 198.22 51.5336 198.4 52.3856 198.76C53.2376 199.12 53.9576 199.642 54.5456 200.326L53.0336 201.748C52.1216 200.764 50.9996 200.272 49.6676 200.272C48.8036 200.272 48.0296 200.464 47.3456 200.848C46.6616 201.22 46.1276 201.742 45.7436 202.414C45.3596 203.086 45.1676 203.848 45.1676 204.7C45.1676 205.552 45.3596 206.314 45.7436 206.986C46.1276 207.658 46.6616 208.186 47.3456 208.57C48.0296 208.942 48.8036 209.128 49.6676 209.128C50.9996 209.128 52.1216 208.63 53.0336 207.634L54.5456 209.074C53.9576 209.758 53.2316 210.28 52.3676 210.64C51.5156 211 50.5736 211.18 49.5416 211.18ZM56.7877 198.4H59.1277V211H56.7877V198.4ZM71.9858 209.038V211H62.5358V198.4H71.7338V200.362H64.8758V203.638H70.9598V205.564H64.8758V209.038H71.9858ZM77.1503 200.38H72.9743V198.4H83.6663V200.38H79.4903V211H77.1503V200.38ZM90.6827 206.554V211H88.3427V206.59L83.3927 198.4H85.8947L89.5847 204.538L93.3107 198.4H95.6147L90.6827 206.554Z" fill="#202020"/>
<path d="M31.8323 73.11V85.71H29.4923V80.31H22.9763V85.71H20.6363V73.11H22.9763V78.312H29.4923V73.11H31.8323ZM44.6586 83.748V85.71H35.2086V73.11H44.4066V75.072H37.5486V78.348H43.6326V80.274H37.5486V83.748H44.6586ZM55.4392 82.794H49.1392L47.8972 85.71H45.4852L51.1552 73.11H53.4592L59.1472 85.71H56.6992L55.4392 82.794ZM54.6652 80.958L52.2892 75.45L49.9312 80.958H54.6652ZM60.7496 73.11H63.0896V83.73H69.6776V85.71H60.7496V73.11ZM72.9033 75.09H68.7273V73.11H79.4193V75.09H75.2433V85.71H72.9033V75.09ZM92.3714 73.11V85.71H90.0314V80.31H83.5154V85.71H81.1754V73.11H83.5154V78.312H90.0314V73.11H92.3714Z" fill="#202020"/>
</svg>
