<svg width="35" height="35" viewBox="0 0 35 35" fill="none" xmlns="http://www.w3.org/2000/svg">
<path d="M34 17.5C34 26.6127 26.6127 34 17.5 34C8.3873 34 1 26.6127 1 17.5C1 8.3873 8.3873 1 17.5 1C26.6127 1 34 8.3873 34 17.5Z" fill="#E06B65" stroke="#E06B65" stroke-width="2"/>
<path d="M13.5743 21.58H16.8943V13.72H13.5543V11.94C14.301 11.8867 15.1476 11.7 16.0943 11.38C17.041 11.0467 17.9343 10.6467 18.7743 10.18H19.8343V21.58H23.0943V24H13.5743V21.58Z" fill="white"/>
<path d="M13.5743 21.58V21.08H13.0743V21.58H13.5743ZM16.8943 21.58V22.08H17.3943V21.58H16.8943ZM16.8943 13.72H17.3943V13.22H16.8943V13.72ZM13.5543 13.72H13.0543V14.22H13.5543V13.72ZM13.5543 11.94L13.5187 11.4413L13.0543 11.4744V11.94H13.5543ZM16.0943 11.38L16.2544 11.8537L16.2604 11.8516L16.0943 11.38ZM18.7743 10.18V9.68H18.6447L18.5315 9.74292L18.7743 10.18ZM19.8343 10.18H20.3343V9.68H19.8343V10.18ZM19.8343 21.58H19.3343V22.08H19.8343V21.58ZM23.0943 21.58H23.5943V21.08H23.0943V21.58ZM23.0943 24V24.5H23.5943V24H23.0943ZM13.5743 24H13.0743V24.5H13.5743V24ZM13.5743 22.08H16.8943V21.08H13.5743V22.08ZM17.3943 21.58V13.72H16.3943V21.58H17.3943ZM16.8943 13.22H13.5543V14.22H16.8943V13.22ZM14.0543 13.72V11.94H13.0543V13.72H14.0543ZM13.5899 12.4387C14.3904 12.3816 15.28 12.183 16.2544 11.8537L15.9342 10.9063C15.0153 11.217 14.2115 11.3918 13.5187 11.4413L13.5899 12.4387ZM16.2604 11.8516C17.2324 11.5094 18.1515 11.098 19.0171 10.6171L18.5315 9.74292C17.7171 10.1953 16.8496 10.584 15.9282 10.9084L16.2604 11.8516ZM18.7743 10.68H19.8343V9.68H18.7743V10.68ZM19.3343 10.18V21.58H20.3343V10.18H19.3343ZM19.8343 22.08H23.0943V21.08H19.8343V22.08ZM22.5943 21.58V24H23.5943V21.58H22.5943ZM23.0943 23.5H13.5743V24.5H23.0943V23.5ZM14.0743 24V21.58H13.0743V24H14.0743Z" fill="white"/>
</svg>
