<svg width="35" height="35" viewBox="0 0 35 35" fill="none" xmlns="http://www.w3.org/2000/svg">
<path d="M34 17.5C34 26.6127 26.6127 34 17.5 34C8.3873 34 1 26.6127 1 17.5C1 8.3873 8.3873 1 17.5 1C26.6127 1 34 8.3873 34 17.5Z" fill="#99CCFF" stroke="#99CCFF" stroke-width="2"/>
<path d="M18.6743 15.44C18.9943 14.96 19.2943 14.3733 19.5743 13.68C19.8676 12.9867 20.0943 12.3467 20.2543 11.76H21.5343V18.44H23.3743V20.8H21.5343V24H18.6743V20.8H12.6343V18.42C13.3143 17.34 14.0076 16 14.7143 14.4C15.4343 12.7867 15.9743 11.3467 16.3343 10.08H19.1543C18.9543 10.9867 18.5943 12 18.0743 13.12C17.5543 14.2267 16.9943 15.2667 16.3943 16.24C15.8076 17.2133 15.301 17.9467 14.8743 18.44H18.6743V15.44Z" fill="white"/>
<path d="M18.6743 15.44L18.2583 15.1626L18.1743 15.2886V15.44H18.6743ZM19.5743 13.68L19.1138 13.4852L19.1107 13.4928L19.5743 13.68ZM20.2543 11.76V11.26H19.8724L19.7719 11.6284L20.2543 11.76ZM21.5343 11.76H22.0343V11.26H21.5343V11.76ZM21.5343 18.44H21.0343V18.94H21.5343V18.44ZM23.3743 18.44H23.8743V17.94H23.3743V18.44ZM23.3743 20.8V21.3H23.8743V20.8H23.3743ZM21.5343 20.8V20.3H21.0343V20.8H21.5343ZM21.5343 24V24.5H22.0343V24H21.5343ZM18.6743 24H18.1743V24.5H18.6743V24ZM18.6743 20.8H19.1743V20.3H18.6743V20.8ZM12.6343 20.8H12.1343V21.3H12.6343V20.8ZM12.6343 18.42L12.2112 18.1536L12.1343 18.2757V18.42H12.6343ZM14.7143 14.4L14.2577 14.1962L14.2569 14.198L14.7143 14.4ZM16.3343 10.08V9.58H15.9566L15.8533 9.94331L16.3343 10.08ZM19.1543 10.08L19.6426 10.1877L19.7766 9.58H19.1543V10.08ZM18.0743 13.12L18.5268 13.3326L18.5278 13.3306L18.0743 13.12ZM16.3943 16.24L15.9687 15.9776L15.9661 15.9819L16.3943 16.24ZM14.8743 18.44L14.4961 18.1129L13.7808 18.94H14.8743V18.44ZM18.6743 18.44V18.94H19.1743V18.44H18.6743ZM19.0903 15.7174C19.4338 15.2021 19.7487 14.5834 20.0379 13.8672L19.1107 13.4928C18.8399 14.1633 18.5548 14.7179 18.2583 15.1626L19.0903 15.7174ZM20.0348 13.8748C20.3349 13.1655 20.5696 12.5041 20.7367 11.8916L19.7719 11.6284C19.619 12.1892 19.4004 12.8078 19.1138 13.4852L20.0348 13.8748ZM20.2543 12.26H21.5343V11.26H20.2543V12.26ZM21.0343 11.76V18.44H22.0343V11.76H21.0343ZM21.5343 18.94H23.3743V17.94H21.5343V18.94ZM22.8743 18.44V20.8H23.8743V18.44H22.8743ZM23.3743 20.3H21.5343V21.3H23.3743V20.3ZM21.0343 20.8V24H22.0343V20.8H21.0343ZM21.5343 23.5H18.6743V24.5H21.5343V23.5ZM19.1743 24V20.8H18.1743V24H19.1743ZM18.6743 20.3H12.6343V21.3H18.6743V20.3ZM13.1343 20.8V18.42H12.1343V20.8H13.1343ZM13.0574 18.6864C13.7541 17.5798 14.4585 16.2167 15.1717 14.602L14.2569 14.198C13.5568 15.7833 12.8745 17.1002 12.2112 18.1536L13.0574 18.6864ZM15.1709 14.6038C15.8976 12.9755 16.447 11.5125 16.8153 10.2167L15.8533 9.94331C15.5016 11.1808 14.9711 12.5978 14.2577 14.1962L15.1709 14.6038ZM16.3343 10.58H19.1543V9.58H16.3343V10.58ZM18.666 9.97229C18.4759 10.8341 18.1302 11.8123 17.6208 12.9094L18.5278 13.3306C19.0584 12.1877 19.4327 11.1392 19.6426 10.1877L18.666 9.97229ZM17.6218 12.9074C17.1092 13.9981 16.5581 15.0214 15.9687 15.9776L16.8199 16.5024C17.4305 15.5119 17.9994 14.4552 18.5268 13.3326L17.6218 12.9074ZM15.9661 15.9819C15.385 16.9459 14.8954 17.6512 14.4961 18.1129L15.2525 18.7671C15.7065 18.2421 16.2303 17.4808 16.8225 16.4981L15.9661 15.9819ZM14.8743 18.94H18.6743V17.94H14.8743V18.94ZM19.1743 18.44V15.44H18.1743V18.44H19.1743Z" fill="white"/>
</svg>
