<svg width="35" height="35" viewBox="0 0 35 35" fill="none" xmlns="http://www.w3.org/2000/svg">
<path d="M34 17.5C34 26.6127 26.6127 34 17.5 34C8.3873 34 1 26.6127 1 17.5C1 8.3873 8.3873 1 17.5 1C26.6127 1 34 8.3873 34 17.5Z" fill="#FEEB96" stroke="#FEEB96" stroke-width="2"/>
<path d="M13.1343 23.4C13.1343 22.52 13.281 21.8267 13.5743 21.32C13.881 20.8 14.3076 20.3267 14.8543 19.9L18.7543 16.84C19.261 16.4533 19.6076 16.06 19.7943 15.66C19.9943 15.2467 20.0943 14.82 20.0943 14.38C20.0943 13.8867 19.9343 13.46 19.6143 13.1C19.2943 12.7267 18.8143 12.54 18.1743 12.54C17.6543 12.54 17.221 12.66 16.8743 12.9C16.541 13.1267 16.2943 13.4 16.1343 13.72C15.9743 14.04 15.8943 14.32 15.8943 14.56C15.8943 14.8 15.901 14.98 15.9143 15.1H13.1743C13.161 14.9933 13.1543 14.8667 13.1543 14.72C13.1543 14 13.3143 13.2933 13.6343 12.6C13.9543 11.8933 14.501 11.3 15.2743 10.82C16.0476 10.3267 17.061 10.08 18.3143 10.08H18.6143C19.5743 10.08 20.3943 10.28 21.0743 10.68C21.7676 11.08 22.2876 11.6067 22.6343 12.26C22.981 12.9 23.1543 13.5867 23.1543 14.32C23.1543 15.1067 23.001 15.8067 22.6943 16.42C22.401 17.02 21.8876 17.6267 21.1543 18.24C20.3143 18.9467 19.301 19.7467 18.1143 20.64C17.981 20.7467 17.8143 20.8933 17.6143 21.08C17.4143 21.2667 17.3143 21.3867 17.3143 21.44H23.1943V24H13.1343V23.4Z" fill="white"/>
<path d="M13.5743 21.32L13.1436 21.066L13.1416 21.0695L13.5743 21.32ZM14.8543 19.9L15.1619 20.2942L15.1629 20.2934L14.8543 19.9ZM18.7543 16.84L18.4509 16.4425L18.4457 16.4466L18.7543 16.84ZM19.7943 15.66L19.3442 15.4422L19.3412 15.4486L19.7943 15.66ZM19.6143 13.1L19.2346 13.4254L19.2406 13.4322L19.6143 13.1ZM16.8743 12.9L17.1555 13.3135L17.1589 13.3111L16.8743 12.9ZM16.1343 13.72L16.5815 13.9436H16.5815L16.1343 13.72ZM15.9143 15.1V15.6H16.4729L16.4112 15.0448L15.9143 15.1ZM13.1743 15.1L12.6782 15.162L12.7329 15.6H13.1743V15.1ZM13.6343 12.6L14.0883 12.8095L14.0898 12.8063L13.6343 12.6ZM15.2743 10.82L15.538 11.2449L15.5432 11.2415L15.2743 10.82ZM21.0743 10.68L20.8208 11.111L20.8244 11.1131L21.0743 10.68ZM22.6343 12.26L22.1926 12.4944L22.1947 12.4981L22.6343 12.26ZM22.6943 16.42L22.2471 16.1964L22.2451 16.2004L22.6943 16.42ZM21.1543 18.24L20.8335 17.8565L20.8324 17.8574L21.1543 18.24ZM18.1143 20.64L17.8136 20.2405L17.8077 20.245L17.802 20.2496L18.1143 20.64ZM17.6143 21.08L17.2731 20.7145H17.2731L17.6143 21.08ZM17.3143 21.44H16.8143V21.94H17.3143V21.44ZM23.1943 21.44H23.6943V20.94H23.1943V21.44ZM23.1943 24V24.5H23.6943V24H23.1943ZM13.1343 24H12.6343V24.5H13.1343V24ZM13.6343 23.4C13.6343 22.567 13.7745 21.9721 14.007 21.5705L13.1416 21.0695C12.7874 21.6813 12.6343 22.473 12.6343 23.4H13.6343ZM14.005 21.574C14.2754 21.1154 14.6574 20.6879 15.1619 20.2942L14.5467 19.5058C13.9578 19.9654 13.4865 20.4846 13.1436 21.066L14.005 21.574ZM15.1629 20.2934L19.0629 17.2334L18.4457 16.4466L14.5457 19.5066L15.1629 20.2934ZM19.0576 17.2375C19.602 16.8221 20.0148 16.3699 20.2474 15.8714L19.3412 15.4486C19.2005 15.7501 18.92 16.0846 18.451 16.4425L19.0576 17.2375ZM20.2444 15.8778C20.4758 15.3996 20.5943 14.8987 20.5943 14.38H19.5943C19.5943 14.7413 19.5128 15.0937 19.3442 15.4422L20.2444 15.8778ZM20.5943 14.38C20.5943 13.7675 20.3915 13.2218 19.988 12.7678L19.2406 13.4322C19.4771 13.6982 19.5943 14.0059 19.5943 14.38H20.5943ZM19.9939 12.7746C19.5521 12.2591 18.9132 12.04 18.1743 12.04V13.04C18.7154 13.04 19.0365 13.1942 19.2347 13.4254L19.9939 12.7746ZM18.1743 12.04C17.5766 12.04 17.0377 12.1787 16.5897 12.4889L17.1589 13.3111C17.4042 13.1413 17.732 13.04 18.1743 13.04V12.04ZM16.5931 12.4865C16.1983 12.7551 15.8899 13.0907 15.6871 13.4964L16.5815 13.9436C16.6987 13.7093 16.8837 13.4983 17.1555 13.3135L16.5931 12.4865ZM15.6871 13.4964C15.508 13.8546 15.3943 14.2137 15.3943 14.56H16.3943C16.3943 14.4263 16.4406 14.2254 16.5815 13.9436L15.6871 13.4964ZM15.3943 14.56C15.3943 14.8042 15.4009 15.0067 15.4174 15.1552L16.4112 15.0448C16.4011 14.9533 16.3943 14.7958 16.3943 14.56H15.3943ZM15.9143 14.6H13.1743V15.6H15.9143V14.6ZM13.6704 15.038C13.6604 14.9578 13.6543 14.8528 13.6543 14.72H12.6543C12.6543 14.8805 12.6615 15.0289 12.6782 15.162L13.6704 15.038ZM13.6543 14.72C13.6543 14.0767 13.7967 13.4412 14.0883 12.8095L13.1803 12.3905C12.8319 13.1454 12.6543 13.9233 12.6543 14.72H13.6543ZM14.0898 12.8063C14.3622 12.2046 14.8339 11.6818 15.538 11.2448L15.0106 10.3952C14.168 10.9182 13.5464 11.5821 13.1788 12.3937L14.0898 12.8063ZM15.5432 11.2415C16.2118 10.815 17.1225 10.58 18.3143 10.58V9.58C16.9995 9.58 15.8834 9.83834 15.0054 10.3985L15.5432 11.2415ZM18.3143 10.58H18.6143V9.58H18.3143V10.58ZM18.6143 10.58C19.5045 10.58 20.2327 10.765 20.8208 11.111L21.3278 10.249C20.5559 9.79496 19.6442 9.58 18.6143 9.58V10.58ZM20.8244 11.1131C21.4434 11.4702 21.8936 11.9308 22.1926 12.4944L23.076 12.0256C22.6817 11.2825 22.0919 10.6898 21.3242 10.2469L20.8244 11.1131ZM22.1947 12.4981C22.5014 13.0644 22.6543 13.6692 22.6543 14.32H23.6543C23.6543 13.5042 23.4605 12.7356 23.0739 12.0219L22.1947 12.4981ZM22.6543 14.32C22.6543 15.0405 22.5143 15.6621 22.2471 16.1964L23.1415 16.6436C23.4877 15.9513 23.6543 15.1728 23.6543 14.32H22.6543ZM22.2451 16.2004C21.9929 16.7163 21.5345 17.2702 20.8335 17.8565L21.4751 18.6235C22.2408 17.9832 22.809 17.3237 23.1435 16.6396L22.2451 16.2004ZM20.8324 17.8574C20.0012 18.5566 18.9954 19.3509 17.8136 20.2405L18.415 21.0395C19.6066 20.1425 20.6274 19.3367 21.4762 18.6226L20.8324 17.8574ZM17.802 20.2496C17.6546 20.3674 17.4776 20.5236 17.2731 20.7145L17.9555 21.4455C18.151 21.263 18.3073 21.1259 18.4267 21.0304L17.802 20.2496ZM17.2731 20.7145C17.1674 20.8132 17.0749 20.9063 17.0052 20.9899C16.9708 21.0311 16.9324 21.0815 16.9 21.1376C16.8759 21.1793 16.8143 21.2914 16.8143 21.44H17.8143C17.8143 21.5083 17.799 21.5595 17.7899 21.585C17.7801 21.6124 17.7701 21.6305 17.7661 21.6374C17.7588 21.6502 17.7578 21.6489 17.7734 21.6301C17.8037 21.5937 17.8612 21.5335 17.9555 21.4455L17.2731 20.7145ZM17.3143 21.94H23.1943V20.94H17.3143V21.94ZM22.6943 21.44V24H23.6943V21.44H22.6943ZM23.1943 23.5H13.1343V24.5H23.1943V23.5ZM13.6343 24V23.4H12.6343V24H13.6343Z" fill="white"/>
</svg>
