<svg width="80" height="84" viewBox="0 0 80 84" fill="none" xmlns="http://www.w3.org/2000/svg">
<path fill-rule="evenodd" clip-rule="evenodd" d="M39.8169 0.694057C47.7623 0.390095 55.682 2.02778 62.4484 6.56184C69.6041 11.3567 76.2599 17.9366 78.6267 26.6999C80.9643 35.3551 78.2253 44.5099 74.9341 52.7912C71.894 60.441 66.871 66.6714 60.7472 71.6892C54.5222 76.7899 47.5976 81.0097 39.8169 81.5661C31.6841 82.1478 23.4002 80.0026 16.7834 74.8333C10.1471 69.6488 6.13435 61.6204 3.51805 53.2082C0.875489 44.7116 -0.866673 35.4645 1.91273 27.0195C4.65315 18.693 11.4561 13.0137 18.3147 8.25023C24.8206 3.7317 32.0995 0.989294 39.8169 0.694057Z" fill="#FFFF99"/>
<path d="M39.5519 17.4312C39.5519 17.4312 26.3819 17.6333 26.1719 35.5281C26.1719 35.5281 19.0619 34.3255 25.1719 43.2248C25.1719 43.2248 25.7719 44.7449 27.6419 43.2248C29.5119 41.7047 25.8919 46.8712 34.3919 52.0376C34.3919 52.0376 34.5119 60.3308 32.3919 61.6585C30.2719 62.9862 45.26 67.3978 47.5 61.5098C46.051 59.8029 44.0398 57.8004 44.1019 55.5973C44.1019 55.5973 53.5419 55.1355 53.5919 39.4919C53.6419 23.8484 49.1019 16.5269 39.5519 17.4312Z" fill="#CC9587"/>
<path d="M64.1024 65.9686C64.1024 65.9686 61.4424 50.4693 62.6824 43.7154C63.9224 36.9615 50.4924 17.3926 50.4924 17.3926C50.4924 17.3926 51.7224 8.93587 45.4924 11.4758C45.4924 11.4758 41.2224 14.4583 33.4924 12.7746C25.7624 11.0909 21.1024 21.1736 21.6524 24.5313C21.6524 24.5313 8.85239 29.0147 12.7324 48.5836C16.6124 68.1525 18.4424 77.8889 24.0624 80.6885C29.6824 83.4882 36.2524 83.3393 41.7324 75.4983C47.2124 67.6573 52.7324 80.6885 52.7324 80.6885C52.7324 80.6885 65.6824 85.3739 64.1024 65.9686ZM51.3924 50.0748C48.9124 53.7693 47.2424 55.1931 44.7824 55.1931C42.3224 55.1931 46.5 60.5476 46.5 60.5476C40 65.8391 33.0824 60.7155 33.0824 60.7155C35.5 59.1045 35.0824 52.0567 35.0824 52.0567C31.6324 51.8451 28.1724 42.9457 28.1724 42.9457C25.3424 45.0816 24.0624 41.4449 24.0624 41.4449C21.6124 34.0657 26.2124 35.5473 26.2124 35.5473C25.5924 26.8885 35.6924 24.8007 41.7324 23.6174C47.7724 22.434 48.2624 19.9422 48.2624 19.9422C55.6924 28.2739 53.9124 46.3227 51.3924 50.0748Z" fill="#202020"/>
<path d="M45.4718 60.0057C39.7625 64.5732 34.2114 61.9088 32.1496 60.0057C22.0535 59.5844 14.3038 75.2139 11.6909 83.0813H68.3094C63.0758 73.4863 51.1812 55.4382 45.4718 60.0057Z" fill="#F8F8C8"/>
</svg>
