<svg width="79" height="83" viewBox="0 0 79 83" fill="none" xmlns="http://www.w3.org/2000/svg">
<path fill-rule="evenodd" clip-rule="evenodd" d="M37.6216 0.134055C45.9681 -0.0445578 54.5686 0.809074 61.4588 5.74861C68.4622 10.7693 72.6344 18.8613 75.4467 27.2506C78.3171 35.8135 80.6105 45.2347 77.5401 53.7211C74.5278 62.047 66.5407 66.7121 59.4148 71.5622C52.6689 76.1537 45.6402 80.222 37.6216 80.891C29.0994 81.6021 19.9829 80.8093 13.152 75.4222C6.37006 70.0738 3.60525 61.0434 1.52122 52.4211C-0.443095 44.294 -0.618067 35.9218 1.66246 27.886C3.98989 19.6848 7.90693 11.8278 14.4813 6.75391C21.0809 1.66059 29.427 0.309415 37.6216 0.134055Z" fill="#6C3E14"/>
<path d="M40.4126 14.3199C40.4126 14.3199 27.2526 14.5299 27.0426 33.1299C27.0426 33.1299 19.9326 31.8799 25.9926 41.0699C25.9926 41.0699 26.5826 42.6599 28.4626 41.0699C30.3426 39.4799 26.7126 44.8599 35.2026 50.2299C35.2026 50.2299 35.3326 58.8499 33.2026 60.2299C31.0726 61.6099 44.8226 66.3499 47.0726 60.2299C45.6464 58.4643 44.8949 56.2489 44.9526 53.9799C44.9526 53.9799 54.3926 53.5099 54.4426 37.2399C54.4926 21.1599 50.0026 13.4099 40.4126 14.3199Z" fill="#FCDFC5"/>
<path d="M39.7595 11.7986C36.8029 10.4241 31.8643 10.9686 28.9036 12.3352C26.8676 13.2749 24.8826 14.4855 22.9706 17.034C17.045 22.2027 21.482 55.6488 23.467 59.3233C23.9431 60.2047 24.8893 59.6464 26.4308 59.7932C28.2851 59.9697 29.6571 60.1533 31.8664 59.7932C34.3315 59.3233 34.8252 56.0341 34.8252 56.0341C34.8291 54.6245 35.319 52.2751 34.8291 49.9257C34.8291 48.9859 31.3034 49.1926 28.9036 40.528C28.9036 40.528 27.005 42.9235 25.8496 40.7527C24.6941 38.5818 22.077 35.2363 25.3163 33.8172C26.5804 33.2628 28.4963 35.0201 30.8072 31.1577C32.7824 27.8122 34.0761 18.9408 41.404 19.5704C48.7318 20.2001 48.8306 18.6307 48.8306 18.6307C48.8306 18.6307 54.6855 21.7892 53.5893 41.4678C53.5628 42.1033 53.2725 43.2038 53.0955 43.8172C52.4042 46.2794 50.666 52.8859 44.701 53.2148C44.701 53.2148 44.5676 55.8436 45.6886 57.4438C46.5122 58.6192 46.0379 59.1117 47.6638 58.8534C50.1282 58.4618 55.1144 60.5623 55.565 59.3233C56.5526 56.6074 65.9304 7.16645 39.7595 11.7986Z" fill="#DFCA70"/>
<path d="M46.7243 59.8564C41.015 64.4239 35.4639 61.7595 33.402 59.8564C23.3059 59.4351 15.5562 75.0646 12.9434 82.932H69.5619C64.3282 73.337 52.4336 55.2889 46.7243 59.8564Z" fill="#AD7B4C"/>
</svg>
