<svg width="79" height="83" viewBox="0 0 79 83" fill="none" xmlns="http://www.w3.org/2000/svg">
<path fill-rule="evenodd" clip-rule="evenodd" d="M39.3169 0.346279C47.2623 0.0423166 55.182 1.68001 61.9484 6.21406C69.1041 11.009 75.7599 17.5888 78.1267 26.3521C80.4643 35.0073 77.7253 44.1621 74.4341 52.4435C71.394 60.0932 66.371 66.3236 60.2472 71.3414C54.0222 76.4421 47.0976 80.6619 39.3169 81.2183C31.1841 81.8 22.9002 79.6548 16.2834 74.4855C9.64715 69.301 5.63435 61.2727 3.01805 52.8605C0.375489 44.3638 -1.36667 35.1167 1.41273 26.6717C4.15315 18.3452 10.9561 12.6659 17.8147 7.90245C24.3206 3.38392 31.5995 0.641516 39.3169 0.346279Z" fill="#FFEDC0"/>
<path d="M38.8885 13.8148C38.8885 13.8148 25.7185 14.0248 25.4785 32.6648C25.4785 32.6648 18.3685 31.4048 24.4785 40.6048C24.4785 40.6048 25.0685 42.1948 26.9385 40.6048C28.8085 39.0148 25.1885 44.3948 33.6885 49.7648C33.6885 49.7648 33.8085 58.3848 31.6885 59.7648C29.5685 61.1448 43.3085 65.8848 45.5485 59.7648C44.1223 57.9992 43.3709 55.7837 43.4285 53.5148C43.4285 53.5148 52.8685 53.0348 52.9185 36.7748C52.9685 20.5148 48.4785 12.8748 38.8885 13.8148Z" fill="#FCD4AD"/>
<path d="M45.4785 12.5849C45.6731 11.9277 46.0868 11.357 46.6508 10.9677C47.2148 10.5783 47.8951 10.3938 48.5785 10.4449" fill="#DDB374"/>
<path d="M44.3184 11.9348C44.3285 11.4425 44.5146 10.9702 44.8429 10.6033C45.1713 10.2364 45.6202 9.99925 46.1084 9.93481" fill="#DDB374"/>
<path d="M26.6889 34.46C24.7367 32.1413 23.3882 29.3757 22.7636 26.4097C22.139 23.4436 22.2576 20.3691 23.1089 17.46C25.9089 7.03 39.7889 5.79 45.9489 7.25C52.1089 8.71 53.3389 4 53.3389 4C53.3389 4 59.9489 18.56 53.3389 21.58C46.7289 24.6 27.1389 16.94 26.6889 34.46Z" fill="#DDB374" stroke="#DDB374" stroke-miterlimit="10"/>
<path d="M44.9718 59.6579C39.2625 64.2254 33.7114 61.561 31.6496 59.6579C21.5535 59.2367 13.8038 74.8662 11.1909 82.7336H67.8094C62.5758 73.1385 50.6812 55.0904 44.9718 59.6579Z" fill="#FFDB80"/>
</svg>
