<svg width="80" height="84" viewBox="0 0 80 84" fill="none" xmlns="http://www.w3.org/2000/svg">
<path fill-rule="evenodd" clip-rule="evenodd" d="M38.1216 0.481834C46.4681 0.303221 55.0686 1.15685 61.9588 6.09639C68.9622 11.117 73.1344 19.209 75.9467 27.5984C78.8171 36.1613 81.1105 45.5825 78.0401 54.0689C75.0278 62.3948 67.0407 67.0598 59.9148 71.91C53.1689 76.5015 46.1402 80.5698 38.1216 81.2388C29.5994 81.9499 20.4829 81.1571 13.652 75.77C6.87006 70.4215 4.10525 61.3912 2.02122 52.7689C0.056905 44.6418 -0.118067 36.2696 2.16246 28.2337C4.48989 20.0326 8.40693 12.1755 14.9813 7.10169C21.5809 2.00837 29.927 0.657194 38.1216 0.481834Z" fill="#E06B65"/>
<path d="M40.7889 17.9061C40.7889 17.9061 27.6189 18.1081 27.3789 36.0415C27.3789 36.0415 20.2689 34.8292 26.3789 43.6805C26.3789 43.6805 26.9689 45.2102 28.8389 43.6805C30.7089 42.1507 27.0889 47.3268 35.5889 52.4932C35.5889 52.4932 35.7089 60.7864 33.5889 62.1141C31.4689 63.4418 45.2089 68.0021 47.4489 62.1141C46.0227 60.4154 45.2712 58.284 45.3289 56.101C45.3289 56.101 54.7689 55.6392 54.8189 39.9957C54.8689 24.3521 50.3789 17.0017 40.7889 17.9061Z" fill="#DFA495"/>
<path d="M22.2891 23.7652C22.2891 23.7652 18.8591 27.3731 23.1891 32.6357C23.0013 33.0095 22.8996 33.4179 22.8908 33.833C22.882 34.248 22.9664 34.66 23.1382 35.0409C23.3101 35.4217 23.5652 35.7624 23.8864 36.0397C24.2075 36.317 24.5871 36.5244 24.9991 36.6477C24.9991 36.6477 27.1191 38.9759 27.9191 37.1287C28.7191 35.2815 30.1391 28.3159 33.3591 28.2197C33.3591 28.2197 32.5491 22.2163 37.4891 22.9956C37.4891 22.9956 38.4891 20.7635 40.6091 21.7352C42.7291 22.7069 44.2991 23.9865 46.2191 22.3414C48.1391 20.6962 49.6691 27.2961 52.4291 26.6419C53.9791 26.2667 53.7891 36.1666 54.7991 35.1949C55.8091 34.2232 57.9191 23.8615 52.5791 18.06C52.5791 18.06 48.3591 15.4431 46.8491 17.0979C46.8491 17.0979 45.4391 14 42.1191 14C38.7991 14 37.1191 15.4528 35.4691 15.1641C33.8191 14.8755 30.9391 14.6735 29.5291 16.1262C29.5291 16.1166 21.2991 20.5134 22.2891 23.7652Z" fill="#202020"/>
<path d="M47.3789 16.7228C47.5735 16.0906 47.9872 15.5414 48.5512 15.1668C49.1151 14.7922 49.7955 14.6147 50.4789 14.6638" fill="#202020"/>
<path d="M46.2192 16.0966C46.2293 15.6232 46.4154 15.1689 46.7438 14.8161C47.0722 14.4633 47.5211 14.2353 48.0093 14.1733" fill="#202020"/>
<path d="M47.2243 60.2042C41.515 64.7717 35.9639 62.1073 33.902 60.2042C23.8059 59.7829 16.0562 75.4124 13.4434 83.2798H70.0619C64.8282 73.6848 52.9336 55.6367 47.2243 60.2042Z" fill="#FFB6B3"/>
</svg>
