<svg width="209" height="49" viewBox="0 0 209 49" fill="none" xmlns="http://www.w3.org/2000/svg">
<circle cx="184.242" cy="24.2425" r="23.2425" fill="white" stroke="#C4C4C4" stroke-width="2"/>
<path d="M179.434 30.8203C178.462 30.8203 177.52 30.6823 176.608 30.4063C175.708 30.1303 174.994 29.7643 174.466 29.3083L175.276 27.4903C175.792 27.8983 176.422 28.2343 177.166 28.4983C177.922 28.7503 178.678 28.8763 179.434 28.8763C180.37 28.8763 181.066 28.7263 181.522 28.4263C181.99 28.1263 182.224 27.7303 182.224 27.2383C182.224 26.8783 182.092 26.5843 181.828 26.3563C181.576 26.1163 181.252 25.9303 180.856 25.7983C180.46 25.6663 179.92 25.5163 179.236 25.3483C178.276 25.1203 177.496 24.8923 176.896 24.6643C176.308 24.4363 175.798 24.0823 175.366 23.6023C174.946 23.1103 174.736 22.4503 174.736 21.6223C174.736 20.9263 174.922 20.2963 175.294 19.7323C175.678 19.1563 176.248 18.7003 177.004 18.3643C177.772 18.0283 178.708 17.8603 179.812 17.8603C180.58 17.8603 181.336 17.9563 182.08 18.1483C182.824 18.3403 183.466 18.6163 184.006 18.9763L183.268 20.7943C182.716 20.4703 182.14 20.2243 181.54 20.0563C180.94 19.8883 180.358 19.8043 179.794 19.8043C178.87 19.8043 178.18 19.9603 177.724 20.2723C177.28 20.5843 177.058 20.9983 177.058 21.5143C177.058 21.8743 177.184 22.1683 177.436 22.3963C177.7 22.6243 178.03 22.8043 178.426 22.9363C178.822 23.0683 179.362 23.2183 180.046 23.3863C180.982 23.6023 181.75 23.8303 182.35 24.0703C182.95 24.2983 183.46 24.6523 183.88 25.1323C184.312 25.6123 184.528 26.2603 184.528 27.0763C184.528 27.7723 184.336 28.4023 183.952 28.9663C183.58 29.5303 183.01 29.9803 182.242 30.3163C181.474 30.6523 180.538 30.8203 179.434 30.8203ZM188.81 30.8203C188.006 30.8203 187.262 30.6643 186.578 30.3523C185.906 30.0283 185.354 29.5783 184.922 29.0023L186.254 27.4003C186.95 28.3603 187.784 28.8403 188.756 28.8403C190.064 28.8403 190.718 28.0663 190.718 26.5183V20.0023H186.236V18.0403H193.058V26.3923C193.058 27.8683 192.698 28.9783 191.978 29.7223C191.258 30.4543 190.202 30.8203 188.81 30.8203Z" fill="#202020"/>
<circle cx="144.242" cy="24.2425" r="24.2425" fill="#99CCFF"/>
<path d="M137.49 30.8203C136.686 30.8203 135.942 30.6643 135.258 30.3523C134.586 30.0283 134.034 29.5783 133.602 29.0023L134.934 27.4003C135.63 28.3603 136.464 28.8403 137.436 28.8403C138.744 28.8403 139.398 28.0663 139.398 26.5183V20.0023H134.916V18.0403H141.738V26.3923C141.738 27.8683 141.378 28.9783 140.658 29.7223C139.938 30.4543 138.882 30.8203 137.49 30.8203ZM148.926 30.8203C147.954 30.8203 147.012 30.6823 146.1 30.4063C145.2 30.1303 144.486 29.7643 143.958 29.3083L144.768 27.4903C145.284 27.8983 145.914 28.2343 146.658 28.4983C147.414 28.7503 148.17 28.8763 148.926 28.8763C149.862 28.8763 150.558 28.7263 151.014 28.4263C151.482 28.1263 151.716 27.7303 151.716 27.2383C151.716 26.8783 151.584 26.5843 151.32 26.3563C151.068 26.1163 150.744 25.9303 150.348 25.7983C149.952 25.6663 149.412 25.5163 148.728 25.3483C147.768 25.1203 146.988 24.8923 146.388 24.6643C145.8 24.4363 145.29 24.0823 144.858 23.6023C144.438 23.1103 144.228 22.4503 144.228 21.6223C144.228 20.9263 144.414 20.2963 144.786 19.7323C145.17 19.1563 145.74 18.7003 146.496 18.3643C147.264 18.0283 148.2 17.8603 149.304 17.8603C150.072 17.8603 150.828 17.9563 151.572 18.1483C152.316 18.3403 152.958 18.6163 153.498 18.9763L152.76 20.7943C152.208 20.4703 151.632 20.2243 151.032 20.0563C150.432 19.8883 149.85 19.8043 149.286 19.8043C148.362 19.8043 147.672 19.9603 147.216 20.2723C146.772 20.5843 146.55 20.9983 146.55 21.5143C146.55 21.8743 146.676 22.1683 146.928 22.3963C147.192 22.6243 147.522 22.8043 147.918 22.9363C148.314 23.0683 148.854 23.2183 149.538 23.3863C150.474 23.6023 151.242 23.8303 151.842 24.0703C152.442 24.2983 152.952 24.6523 153.372 25.1323C153.804 25.6123 154.02 26.2603 154.02 27.0763C154.02 27.7723 153.828 28.4023 153.444 28.9663C153.072 29.5303 152.502 29.9803 151.734 30.3163C150.966 30.6523 150.03 30.8203 148.926 30.8203Z" fill="#202020"/>
<circle cx="104.242" cy="24.2425" r="24.2425" fill="#99CC99"/>
<path d="M95.7742 18.0403H98.1142V30.6403H95.7742V18.0403ZM112.718 18.0403V30.6403H110.378V25.2403H103.862V30.6403H101.522V18.0403H103.862V23.2423H110.378V18.0403H112.718Z" fill="#202020"/>
<circle cx="63.2425" cy="24.2425" r="24.2425" fill="#FFF599"/>
<path d="M59.4657 27.7243H53.1657L51.9237 30.6403H49.5117L55.1817 18.0403H57.4857L63.1737 30.6403H60.7257L59.4657 27.7243ZM58.6917 25.8883L56.3157 20.3803L53.9577 25.8883H58.6917ZM73.2645 27.7243H66.9645L65.7225 30.6403H63.3105L68.9805 18.0403H71.2845L76.9725 30.6403H74.5245L73.2645 27.7243ZM72.4905 25.8883L70.1145 20.3803L67.7565 25.8883H72.4905Z" fill="#202020"/>
<circle cx="24.2425" cy="24.2425" r="24.2425" fill="#E06B65"/>
<path d="M19.8396 30.8203C18.5676 30.8203 17.4156 30.5443 16.3836 29.9923C15.3636 29.4283 14.5596 28.6543 13.9716 27.6703C13.3956 26.6863 13.1076 25.5763 13.1076 24.3403C13.1076 23.1043 13.4016 21.9943 13.9896 21.0103C14.5776 20.0263 15.3816 19.2583 16.4016 18.7063C17.4336 18.1423 18.5856 17.8603 19.8576 17.8603C20.8896 17.8603 21.8316 18.0403 22.6836 18.4003C23.5356 18.7603 24.2556 19.2823 24.8436 19.9663L23.3316 21.3883C22.4196 20.4043 21.2976 19.9123 19.9656 19.9123C19.1016 19.9123 18.3276 20.1043 17.6436 20.4883C16.9596 20.8603 16.4256 21.3823 16.0416 22.0543C15.6576 22.7263 15.4656 23.4883 15.4656 24.3403C15.4656 25.1923 15.6576 25.9543 16.0416 26.6263C16.4256 27.2983 16.9596 27.8263 17.6436 28.2103C18.3276 28.5823 19.1016 28.7683 19.9656 28.7683C21.2976 28.7683 22.4196 28.2703 23.3316 27.2743L24.8436 28.7143C24.2556 29.3983 23.5296 29.9203 22.6656 30.2803C21.8136 30.6403 20.8716 30.8203 19.8396 30.8203ZM27.0857 18.0403H29.4257V28.6603H36.0137V30.6403H27.0857V18.0403Z" fill="#202020"/>
</svg>
