<svg width="162" height="49" viewBox="0 0 162 49" fill="none" xmlns="http://www.w3.org/2000/svg">
<circle cx="137.242" cy="24.2425" r="24.2425" fill="#99CC99"/>
<path d="M128.774 18.0402H131.114V30.6402H128.774V18.0402ZM145.718 18.0402V30.6402H143.378V25.2402H136.862V30.6402H134.522V18.0402H136.862V23.2422H143.378V18.0402H145.718Z" fill="#202020"/>
<circle cx="99.2425" cy="24.2425" r="24.2425" fill="#E06B65"/>
<path d="M94.8396 30.8202C93.5676 30.8202 92.4156 30.5442 91.3836 29.9922C90.3636 29.4282 89.5596 28.6542 88.9716 27.6702C88.3956 26.6862 88.1076 25.5762 88.1076 24.3402C88.1076 23.1042 88.4016 21.9942 88.9896 21.0102C89.5776 20.0262 90.3816 19.2582 91.4016 18.7062C92.4336 18.1422 93.5856 17.8602 94.8576 17.8602C95.8896 17.8602 96.8316 18.0402 97.6836 18.4002C98.5356 18.7602 99.2556 19.2822 99.8436 19.9662L98.3316 21.3882C97.4196 20.4042 96.2976 19.9122 94.9656 19.9122C94.1016 19.9122 93.3276 20.1042 92.6436 20.4882C91.9596 20.8602 91.4256 21.3822 91.0416 22.0542C90.6576 22.7262 90.4656 23.4882 90.4656 24.3402C90.4656 25.1922 90.6576 25.9542 91.0416 26.6262C91.4256 27.2982 91.9596 27.8262 92.6436 28.2102C93.3276 28.5822 94.1016 28.7682 94.9656 28.7682C96.2976 28.7682 97.4196 28.2702 98.3316 27.2742L99.8436 28.7142C99.2556 29.3982 98.5296 29.9202 97.6656 30.2802C96.8136 30.6402 95.8716 30.8202 94.8396 30.8202ZM102.086 18.0402H104.426V28.6602H111.014V30.6402H102.086V18.0402Z" fill="#202020"/>
<circle cx="62.2425" cy="24.2425" r="23.2425" fill="white" stroke="#C4C4C4" stroke-width="2"/>
<path d="M57.4341 30.8202C56.4621 30.8202 55.5201 30.6822 54.6081 30.4062C53.7081 30.1302 52.9941 29.7642 52.4661 29.3082L53.2761 27.4902C53.7921 27.8982 54.4221 28.2342 55.1661 28.4982C55.9221 28.7502 56.6781 28.8762 57.4341 28.8762C58.3701 28.8762 59.0661 28.7262 59.5221 28.4262C59.9901 28.1262 60.2241 27.7302 60.2241 27.2382C60.2241 26.8782 60.0921 26.5842 59.8281 26.3562C59.5761 26.1162 59.2521 25.9302 58.8561 25.7982C58.4601 25.6662 57.9201 25.5162 57.2361 25.3482C56.2761 25.1202 55.4961 24.8922 54.8961 24.6642C54.3081 24.4362 53.7981 24.0822 53.3661 23.6022C52.9461 23.1102 52.7361 22.4502 52.7361 21.6222C52.7361 20.9262 52.9221 20.2962 53.2941 19.7322C53.6781 19.1562 54.2481 18.7002 55.0041 18.3642C55.7721 18.0282 56.7081 17.8602 57.8121 17.8602C58.5801 17.8602 59.3361 17.9562 60.0801 18.1482C60.8241 18.3402 61.4661 18.6162 62.0061 18.9762L61.2681 20.7942C60.7161 20.4702 60.1401 20.2242 59.5401 20.0562C58.9401 19.8882 58.3581 19.8042 57.7941 19.8042C56.8701 19.8042 56.1801 19.9602 55.7241 20.2722C55.2801 20.5842 55.0581 20.9982 55.0581 21.5142C55.0581 21.8742 55.1841 22.1682 55.4361 22.3962C55.7001 22.6242 56.0301 22.8042 56.4261 22.9362C56.8221 23.0682 57.3621 23.2182 58.0461 23.3862C58.9821 23.6022 59.7501 23.8302 60.3501 24.0702C60.9501 24.2982 61.4601 24.6522 61.8801 25.1322C62.3121 25.6122 62.5281 26.2602 62.5281 27.0762C62.5281 27.7722 62.3361 28.4022 61.9521 28.9662C61.5801 29.5302 61.0101 29.9802 60.2421 30.3162C59.4741 30.6522 58.5381 30.8202 57.4341 30.8202ZM66.8104 30.8202C66.0064 30.8202 65.2624 30.6642 64.5784 30.3522C63.9064 30.0282 63.3544 29.5782 62.9224 29.0022L64.2544 27.4002C64.9504 28.3602 65.7844 28.8402 66.7564 28.8402C68.0644 28.8402 68.7184 28.0662 68.7184 26.5182V20.0022H64.2364V18.0402H71.0584V26.3922C71.0584 27.8682 70.6984 28.9782 69.9784 29.7222C69.2584 30.4542 68.2024 30.8202 66.8104 30.8202Z" fill="#202020"/>
<circle cx="24.2425" cy="24.2425" r="24.2425" fill="#FFF599"/>
<path d="M20.4657 27.7242H14.1657L12.9237 30.6402H10.5117L16.1817 18.0402H18.4857L24.1737 30.6402H21.7257L20.4657 27.7242ZM19.6917 25.8882L17.3157 20.3802L14.9577 25.8882H19.6917ZM34.2645 27.7242H27.9645L26.7225 30.6402H24.3105L29.9805 18.0402H32.2845L37.9725 30.6402H35.5245L34.2645 27.7242ZM33.4905 25.8882L31.1145 20.3802L28.7565 25.8882H33.4905Z" fill="#202020"/>
</svg>
