<svg width="49" height="49" viewBox="0 0 49 49" fill="none" xmlns="http://www.w3.org/2000/svg">
<circle cx="24.2425" cy="24.2425" r="24.2425" fill="#99CCFF"/>
<path d="M17.4901 30.8203C16.6861 30.8203 15.9421 30.6643 15.2581 30.3523C14.5861 30.0283 14.0341 29.5783 13.6021 29.0023L14.9341 27.4003C15.6301 28.3603 16.4641 28.8403 17.4361 28.8403C18.7441 28.8403 19.3981 28.0663 19.3981 26.5183V20.0023H14.9161V18.0403H21.7381V26.3923C21.7381 27.8683 21.3781 28.9783 20.6581 29.7223C19.9381 30.4543 18.8821 30.8203 17.4901 30.8203ZM28.9262 30.8203C27.9542 30.8203 27.0122 30.6823 26.1002 30.4063C25.2002 30.1303 24.4862 29.7643 23.9582 29.3083L24.7682 27.4903C25.2842 27.8983 25.9142 28.2343 26.6582 28.4983C27.4142 28.7503 28.1702 28.8763 28.9262 28.8763C29.8622 28.8763 30.5582 28.7263 31.0142 28.4263C31.4822 28.1263 31.7162 27.7303 31.7162 27.2383C31.7162 26.8783 31.5842 26.5843 31.3202 26.3563C31.0682 26.1163 30.7442 25.9303 30.3482 25.7983C29.9522 25.6663 29.4122 25.5163 28.7282 25.3483C27.7682 25.1203 26.9882 24.8923 26.3882 24.6643C25.8002 24.4363 25.2902 24.0823 24.8582 23.6023C24.4382 23.1103 24.2282 22.4503 24.2282 21.6223C24.2282 20.9263 24.4142 20.2963 24.7862 19.7323C25.1702 19.1563 25.7402 18.7003 26.4962 18.3643C27.2642 18.0283 28.2002 17.8603 29.3042 17.8603C30.0722 17.8603 30.8282 17.9563 31.5722 18.1483C32.3162 18.3403 32.9582 18.6163 33.4982 18.9763L32.7602 20.7943C32.2082 20.4703 31.6322 20.2243 31.0322 20.0563C30.4322 19.8883 29.8502 19.8043 29.2862 19.8043C28.3622 19.8043 27.6722 19.9603 27.2162 20.2723C26.7722 20.5843 26.5502 20.9983 26.5502 21.5143C26.5502 21.8743 26.6762 22.1683 26.9282 22.3963C27.1922 22.6243 27.5222 22.8043 27.9182 22.9363C28.3142 23.0683 28.8542 23.2183 29.5382 23.3863C30.4742 23.6023 31.2422 23.8303 31.8422 24.0703C32.4422 24.2983 32.9522 24.6523 33.3722 25.1323C33.8042 25.6123 34.0202 26.2603 34.0202 27.0763C34.0202 27.7723 33.8282 28.4023 33.4442 28.9663C33.0722 29.5303 32.5022 29.9803 31.7342 30.3163C30.9662 30.6523 30.0302 30.8203 28.9262 30.8203Z" fill="#202020"/>
</svg>
