<svg width="80" height="84" viewBox="0 0 80 84" fill="none" xmlns="http://www.w3.org/2000/svg">
<path fill-rule="evenodd" clip-rule="evenodd" d="M38.7771 0.121239C47.0944 -0.578627 55.44 1.76903 62.4189 6.7106C69.6418 11.8249 75.6578 19.1217 78.2068 28.0403C80.7348 36.8854 79.2786 46.3968 76.2346 55.0498C73.3062 63.3739 68.3978 70.8439 61.4598 75.6451C54.7798 80.2678 46.7079 80.8814 38.7771 80.971C30.7629 81.0615 22.2365 81.2468 15.7473 76.1615C9.25497 71.0737 6.82806 62.23 4.34403 53.9873C1.85793 45.7378 -1.05175 37.0229 1.47014 28.786C3.98632 20.5679 11.1392 15.4911 17.6659 10.4764C24.1227 5.5153 30.8797 0.785774 38.7771 0.121239Z" fill="#99CC99"/>
<path d="M38.1823 17.2285C38.1823 17.2285 25.0122 17.4385 24.8022 36.0385C24.8022 36.0385 17.6922 34.7885 23.8022 44.0385C23.8022 44.0385 24.4022 45.6185 26.2722 44.0385C28.1422 42.4585 24.5222 47.8285 33.0222 53.1985C33.0222 53.1985 33.1422 61.8185 31.0222 63.1985C28.9022 64.5785 42.6422 69.3185 44.8822 63.1985C43.4332 61.4243 42.6701 59.1884 42.7322 56.8985C42.7322 56.8985 52.1722 56.4185 52.2222 40.1585C52.2722 23.8985 47.7323 16.2885 38.1823 17.2285Z" fill="#E8B99E"/>
<path d="M61.627 69.5347C61.627 69.5347 56 56.4688 58.5 46C59.5 36.0488 54.127 23.0347 54.127 23.0347C54.127 23.0347 51.627 16.5446 39.627 15.0446C39.627 15.0446 52.5 18.5 43.1272 15.5343C35.3972 13.7843 24.8371 16.2933 18.627 23.6488C18.627 23.6488 11.2475 28.6942 15.1275 49.0342C19.0075 69.3742 14.88 80.0588 20.5 82.9688C26.12 85.8788 36.7704 69.5513 40 82C45.48 73.85 51.3596 82.9687 51.3596 82.9687C51.3596 82.9687 66.127 81.0347 61.627 69.5347ZM50.0196 51.1488C47.5396 54.9888 45.8696 56.4688 43.4096 56.4688C40.9496 56.4688 44.5096 62.7388 44.5096 62.7388C37.9796 65.9388 31.7096 62.2088 31.7096 62.2088C34.5396 60.2088 33.7096 53.2088 33.7096 53.2088C30.2596 52.9888 26.7996 43.7388 26.7996 43.7388C23.9696 45.9588 22.6896 42.1788 22.6896 42.1788C20.2396 34.5088 24.8396 36.0488 24.8396 36.0488C24.2196 27.0488 34.3196 24.8788 40.3596 23.6488C46.3996 22.4188 46.8896 19.8288 46.8896 19.8288C54.3196 28.4888 52.5396 47.2488 50.0196 51.1488Z" fill="#202020"/>
<path d="M37.1444 15.9339C37.1444 15.9339 35.9216 14.0634 26.6016 18.5234C17.2816 22.9834 23.8044 29.1839 23.3744 25.8539C22.6244 20.0439 15.8744 31.3339 22.5444 36.7139C22.5444 35.6339 35.4844 39.4639 41.1144 23.7139C41.1144 23.7139 50.5444 33.5839 51.8644 32.1139C53.1844 30.6439 51.4244 15.0539 37.1444 15.9339Z" fill="#202020"/>
<path d="M44.736 60.6645C39.0267 65.232 33.4756 62.5676 31.4137 60.6645C21.3177 60.2432 13.5679 75.8727 10.9551 83.7401H67.5736C62.3399 74.1451 50.4453 56.097 44.736 60.6645Z" fill="#CBF4CB"/>
</svg>
