<svg width="80" height="84" viewBox="0 0 80 84" fill="none" xmlns="http://www.w3.org/2000/svg">
<path fill-rule="evenodd" clip-rule="evenodd" d="M40.4408 0.502231C48.1403 0.401262 55.484 3.73544 61.7201 8.7716C67.9636 13.8136 72.5672 20.7711 75.4248 28.7544C78.4459 37.1945 81.1172 46.6165 78.3221 55.1529C75.5605 63.5869 67.7948 68.1716 60.9626 72.9234C54.6088 77.3425 47.9292 81.5453 40.4408 81.4996C32.977 81.4541 26.4694 76.9789 20.0815 72.674C13.0738 67.9515 4.70986 63.9601 1.76984 55.439C-1.21448 46.7895 1.57414 37.0516 4.85254 28.5355C7.90231 20.6133 13.2071 14.2994 19.5221 9.32498C25.7637 4.40836 32.7992 0.602441 40.4408 0.502231Z" fill="#99CCFF"/>
<path d="M39.8541 15.1329C39.8541 15.1329 26.6841 15.3428 26.4741 33.9828C26.4741 33.9828 19.3741 32.7328 25.4741 41.9828C25.4741 41.9828 26.0641 43.5628 27.9341 41.9828C29.8041 40.4028 26.1841 45.7629 34.6841 51.1429C34.6841 51.1429 34.8041 59.7629 32.6841 61.1429C30.5641 62.5229 44.3041 67.2629 46.5541 61.1429C45.1228 59.3795 44.3675 57.1633 44.4241 54.8929C44.4241 54.8929 53.8641 54.4228 53.9241 38.1528C53.9341 21.9828 49.4341 14.1929 39.8541 15.1329Z" fill="#F2C5AC"/>
<path d="M37.9894 13.4862C37.9894 13.4862 35.1648 11.8944 31.9126 14.4712C28.6604 17.0479 26.7708 15.3506 25.3983 19.3168C24.0258 23.283 24.7122 31.5489 25.3984 33C26.0847 34.4511 31.1667 31.7871 32.6784 29.4742C34.0211 27.4163 34.3592 32.6313 37.3926 29.2455C40.0282 26.2995 40.983 32.904 43.6384 30.3272C46.2939 27.7505 46.0353 31.2067 46.9702 30.4064C47.2685 30.1601 51.2169 27.047 52.7883 28.9377C54.3597 30.8285 54.7774 30.0194 54.9564 26.361C55.1156 23.1775 55.7024 10.461 37.9894 13.4862Z" fill="#202020"/>
<path d="M46.2067 60.1645C40.4974 64.732 34.9463 62.0676 32.8844 60.1645C22.7884 59.7432 15.0386 75.3727 12.4258 83.2401H69.0443C63.8106 73.6451 51.916 55.597 46.2067 60.1645Z" fill="#C3DDF7"/>
</svg>
