<svg width="82" height="85" viewBox="0 0 82 85" fill="none" xmlns="http://www.w3.org/2000/svg">
<path fill-rule="evenodd" clip-rule="evenodd" d="M40.5416 1.58223C48.4611 1.21182 56.572 2.43447 63.1484 7.27612C69.8706 12.2251 74.141 20.061 76.9406 28.3798C79.8339 36.9771 81.9721 46.4162 79.2341 55.0742C76.5192 63.6594 69.3947 69.3352 62.4267 74.2757C55.7906 78.9808 48.4457 82.7669 40.5416 82.508C32.7788 82.2536 25.6823 78.14 19.5886 72.8722C13.694 67.7765 9.68605 60.9008 6.77936 53.3215C3.62818 45.1047 -0.150431 36.2223 2.27034 27.7142C4.70005 19.1747 12.362 14.0624 19.2969 9.32717C25.7881 4.89492 32.897 1.93979 40.5416 1.58223Z" fill="white" stroke="#DADADA" stroke-width="2"/>
<path d="M44.5649 16.2313C44.5649 16.2313 31.4049 16.4413 31.1949 35.0413C31.1949 35.0413 24.0849 33.7913 30.1449 43.0413C30.1449 43.0413 30.7349 44.6213 32.6149 43.0413C34.4949 41.4613 30.8649 46.8213 39.3549 52.2013C39.3549 52.2013 39.4849 60.8213 37.3549 62.2013C35.2249 63.5813 48.9749 68.3213 51.2249 62.2013C49.7987 60.4357 49.0473 58.2203 49.1049 55.9513C49.1049 55.9513 58.5449 55.4813 58.5949 39.2113C58.6449 23.0413 54.1549 15.2913 44.5649 16.2313Z" fill="#DFAC8E"/>
<path d="M59.1562 23.9126C59.1562 23.9126 52.8373 7.32158 29.1046 19.4124C29.1046 19.4124 18.6562 42.5414 27.6562 66.4126C27.6562 66.4126 36.2964 66.8808 37.4064 63.2208C38.2964 60.3808 41.1382 53.0474 39.3244 52.1515C37.5105 51.2555 35.9675 49.8934 34.8534 48.2047C33.7394 46.5161 33.0943 44.5615 32.9844 42.5415C32.9844 42.5415 30.4344 44.9715 29.1044 41.3415C27.7144 37.5415 27.2844 34.7315 31.2644 34.9515C31.2644 34.9515 31.8544 38.3315 33.6144 35.6815C35.3744 33.0315 37.2644 22.3415 39.3244 23.1815C41.3844 24.0215 50.7044 30.9715 56.5944 27.7315C56.5944 27.7315 61.2544 39.7315 55.8344 50.8415C55.8344 50.8415 53.0295 55.7208 48.9069 55.7208C48.9069 55.7208 49.9069 63.2208 51.4069 63.2208C52.8369 63.5808 60.8563 70.0026 61.6563 66.4126C62.4563 62.8226 65.1562 30.9126 59.1562 23.9126Z" fill="#202020"/>
<path d="M50.9411 61.144C45.2318 65.7115 39.6807 63.0471 37.6188 61.144C27.5227 60.7227 19.773 76.3522 17.1602 84.2196H73.7787C68.545 74.6246 56.6504 56.5765 50.9411 61.144Z" fill="#DADADA"/>
</svg>
