<svg width="80" height="85" viewBox="0 0 80 85" fill="none" xmlns="http://www.w3.org/2000/svg">
<path fill-rule="evenodd" clip-rule="evenodd" d="M39.1658 0.938378C47.483 0.238512 55.8287 2.58617 62.8076 7.52774C70.0304 12.642 76.0465 19.9389 78.5955 28.8575C81.1235 37.7025 79.6673 47.2139 76.6233 55.8669C73.6949 64.1911 68.7864 71.6611 61.8485 76.4622C55.1685 81.0849 47.0966 81.6985 39.1658 81.7881C31.1516 81.8786 22.6252 82.0639 16.136 76.9786C9.64365 71.8909 7.21673 63.0472 4.7327 54.8045C2.2466 46.5549 -0.663075 37.84 1.85881 29.6032C4.37499 21.385 11.5279 16.3083 18.0545 11.2935C24.5114 6.33244 31.2684 1.60291 39.1658 0.938378Z" fill="#99CC99"/>
<path d="M39.5194 15.8149C39.5194 15.8149 26.3494 16.0249 26.1094 34.6649C26.1094 34.6649 18.9994 33.4049 25.1094 42.6049C25.1094 42.6049 25.6994 44.1949 27.5694 42.6049C29.4394 41.0149 25.8194 46.3949 34.3194 51.7649C34.3194 51.7649 34.4394 60.3849 32.3194 61.7649C30.1994 63.1449 43.9394 67.8849 46.1794 61.7649C44.7532 59.9993 44.0017 57.7838 44.0594 55.5149C44.0594 55.5149 53.4994 55.0349 53.5494 38.7749C53.5994 22.5149 49.1094 14.8749 39.5194 15.8149Z" fill="#F4D8BD"/>
<path d="M46.1094 14.5849C46.3039 13.9277 46.7176 13.357 47.2816 12.9677C47.8456 12.5783 48.5259 12.3938 49.2094 12.4449" fill="#DDB374"/>
<path d="M44.9492 13.9349C44.9593 13.4426 45.1454 12.9702 45.4738 12.6033C45.8022 12.2364 46.2511 11.9993 46.7392 11.9349" fill="#DDB374"/>
<path d="M45.1247 61.4816C39.4154 66.0491 33.8643 63.3848 31.8024 61.4816C21.7063 61.0604 13.9566 76.6899 11.3438 84.5573H67.9622C62.7286 74.9623 50.834 56.9141 45.1247 61.4816Z" fill="#CBF4CB"/>
<path d="M27.3198 36.46C25.3676 34.1413 24.0191 31.3757 23.3945 28.4097C22.7699 25.4436 22.8885 22.3691 23.7398 19.46C26.5398 9.03 40.4198 7.79 46.5798 9.25C52.7398 10.71 53.9698 6 53.9698 6C53.9698 6 60.5798 20.56 53.9698 23.58C47.3598 26.6 27.7698 18.94 27.3198 36.46Z" fill="#DDB374" stroke="#DDB374" stroke-miterlimit="10"/>
</svg>
