<svg width="399" height="49" viewBox="0 0 399 49" fill="none" xmlns="http://www.w3.org/2000/svg">
<rect y="28" width="260" height="20" rx="10" fill="#E06B65" fill-opacity="0.6"/>
<path d="M20.4263 22.2465C20.4263 23.8945 19.9863 25.2705 19.1063 26.3745C18.2263 27.4785 16.9863 28.2385 15.3863 28.6545L18.4583 34.1265H15.9143L12.9863 28.9905H12.5303H8.0423L7.0343 34.1265H4.6103L7.9703 17.3265H14.2343C16.2023 17.3265 17.7223 17.7585 18.7943 18.6225C19.8823 19.4705 20.4263 20.6785 20.4263 22.2465ZM12.6023 26.9505C14.3303 26.9505 15.6663 26.5665 16.6103 25.7985C17.5543 25.0305 18.0263 23.9185 18.0263 22.4625C18.0263 21.4545 17.6823 20.6945 16.9943 20.1825C16.3063 19.6705 15.3143 19.4145 14.0183 19.4145H9.9623L8.4503 26.9505H12.6023ZM23.9678 28.4865V28.6305C23.9678 29.8145 24.3038 30.7185 24.9758 31.3425C25.6478 31.9505 26.6558 32.2545 27.9998 32.2545C28.7838 32.2545 29.5198 32.1265 30.2078 31.8705C30.8958 31.5985 31.4718 31.2385 31.9358 30.7905L32.9198 32.4465C32.2958 33.0225 31.5358 33.4705 30.6398 33.7905C29.7438 34.1105 28.7998 34.2705 27.8078 34.2705C26.5598 34.2705 25.4798 34.0465 24.5678 33.5985C23.6558 33.1505 22.9518 32.5105 22.4558 31.6785C21.9598 30.8465 21.7118 29.8705 21.7118 28.7505C21.7118 27.3265 22.0158 26.0465 22.6238 24.9105C23.2478 23.7745 24.1038 22.8865 25.1918 22.2465C26.2958 21.6065 27.5278 21.2865 28.8878 21.2865C30.6158 21.2865 31.9918 21.7825 33.0158 22.7745C34.0558 23.7505 34.5758 25.0865 34.5758 26.7825C34.5758 27.2945 34.5198 27.8625 34.4078 28.4865H23.9678ZM28.7918 23.2065C27.6558 23.2065 26.6798 23.5265 25.8638 24.1665C25.0478 24.8065 24.4958 25.6865 24.2078 26.8065H32.4158C32.4798 25.6705 32.1758 24.7905 31.5038 24.1665C30.8478 23.5265 29.9438 23.2065 28.7918 23.2065ZM40.4157 34.2705C39.3597 34.2705 38.3517 34.1345 37.3917 33.8625C36.4477 33.5905 35.7117 33.2385 35.1837 32.8065L36.2157 30.9825C36.7117 31.3825 37.3517 31.7025 38.1357 31.9425C38.9357 32.1665 39.7677 32.2785 40.6317 32.2785C41.7197 32.2785 42.5437 32.1185 43.1037 31.7985C43.6797 31.4625 43.9677 30.9985 43.9677 30.4065C43.9677 29.9265 43.7357 29.5825 43.2717 29.3745C42.8237 29.1665 42.1197 28.9585 41.1597 28.7505C40.2637 28.5585 39.5277 28.3665 38.9517 28.1745C38.3917 27.9665 37.9117 27.6465 37.5117 27.2145C37.1117 26.7665 36.9117 26.1665 36.9117 25.4145C36.9117 24.5825 37.1437 23.8545 37.6077 23.2305C38.0877 22.6065 38.7597 22.1265 39.6237 21.7905C40.5037 21.4545 41.5197 21.2865 42.6717 21.2865C43.5197 21.2865 44.3437 21.3905 45.1437 21.5985C45.9437 21.8065 46.5997 22.0865 47.1117 22.4385L46.1997 24.2625C45.7037 23.9265 45.1277 23.6785 44.4717 23.5185C43.8157 23.3425 43.1437 23.2545 42.4557 23.2545C41.4157 23.2545 40.6157 23.4305 40.0557 23.7825C39.4957 24.1185 39.2157 24.5745 39.2157 25.1505C39.2157 25.6625 39.4477 26.0305 39.9117 26.2545C40.3757 26.4625 41.0957 26.6705 42.0717 26.8785C42.9517 27.0705 43.6717 27.2625 44.2317 27.4545C44.7917 27.6465 45.2637 27.9585 45.6477 28.3905C46.0477 28.8225 46.2477 29.4065 46.2477 30.1425C46.2477 31.4385 45.7117 32.4545 44.6397 33.1905C43.5837 33.9105 42.1757 34.2705 40.4157 34.2705ZM50.6631 28.4865V28.6305C50.6631 29.8145 50.9991 30.7185 51.6711 31.3425C52.3431 31.9505 53.3511 32.2545 54.6951 32.2545C55.4791 32.2545 56.2151 32.1265 56.9031 31.8705C57.5911 31.5985 58.1671 31.2385 58.6311 30.7905L59.6151 32.4465C58.9911 33.0225 58.2311 33.4705 57.3351 33.7905C56.4391 34.1105 55.4951 34.2705 54.5031 34.2705C53.2551 34.2705 52.1751 34.0465 51.2631 33.5985C50.3511 33.1505 49.6471 32.5105 49.1511 31.6785C48.6551 30.8465 48.4071 29.8705 48.4071 28.7505C48.4071 27.3265 48.7111 26.0465 49.3191 24.9105C49.9431 23.7745 50.7991 22.8865 51.8871 22.2465C52.9911 21.6065 54.2231 21.2865 55.5831 21.2865C57.3111 21.2865 58.6871 21.7825 59.7111 22.7745C60.7511 23.7505 61.2711 25.0865 61.2711 26.7825C61.2711 27.2945 61.2151 27.8625 61.1031 28.4865H50.6631ZM55.4871 23.2065C54.3511 23.2065 53.3751 23.5265 52.5591 24.1665C51.7431 24.8065 51.1911 25.6865 50.9031 26.8065H59.1111C59.1751 25.6705 58.8711 24.7905 58.1991 24.1665C57.5431 23.5265 56.6391 23.2065 55.4871 23.2065ZM77.599 21.4065L75.079 34.1265H72.871L73.183 32.5665C72.607 33.1105 71.935 33.5345 71.167 33.8385C70.415 34.1265 69.591 34.2705 68.695 34.2705C67.607 34.2705 66.639 34.0545 65.791 33.6225C64.943 33.1745 64.279 32.5345 63.799 31.7025C63.319 30.8705 63.079 29.8945 63.079 28.7745C63.079 27.3345 63.391 26.0465 64.015 24.9105C64.639 23.7745 65.495 22.8865 66.583 22.2465C67.687 21.6065 68.919 21.2865 70.279 21.2865C71.367 21.2865 72.295 21.4785 73.063 21.8625C73.847 22.2465 74.447 22.8145 74.863 23.5665L75.295 21.4065H77.599ZM69.199 32.2545C70.143 32.2545 70.991 32.0305 71.743 31.5825C72.511 31.1185 73.103 30.4785 73.519 29.6625C73.951 28.8465 74.167 27.9185 74.167 26.8785C74.167 25.7425 73.839 24.8625 73.183 24.2385C72.527 23.6145 71.591 23.3025 70.375 23.3025C69.431 23.3025 68.583 23.5345 67.831 23.9985C67.079 24.4465 66.487 25.0785 66.055 25.8945C65.623 26.7105 65.407 27.6385 65.407 28.6785C65.407 29.7985 65.735 30.6785 66.391 31.3185C67.063 31.9425 67.999 32.2545 69.199 32.2545ZM83.8304 23.3025C84.3904 22.5985 85.0784 22.0865 85.8944 21.7665C86.7104 21.4465 87.7024 21.2865 88.8704 21.2865L88.4384 23.5185C88.2944 23.5025 88.0944 23.4945 87.8384 23.4945C85.1984 23.4945 83.5984 24.9185 83.0384 27.7665L81.7664 34.1265H79.4624L81.9824 21.4065H84.1904L83.8304 23.3025ZM95.0489 34.2705C93.8329 34.2705 92.7689 34.0465 91.8569 33.5985C90.9449 33.1345 90.2409 32.4945 89.7449 31.6785C89.2489 30.8465 89.0009 29.8785 89.0009 28.7745C89.0009 27.3505 89.3209 26.0705 89.9609 24.9345C90.6009 23.7985 91.4889 22.9105 92.6249 22.2705C93.7609 21.6145 95.0489 21.2865 96.4889 21.2865C99.0009 21.2865 100.745 22.2065 101.721 24.0465L99.7769 25.1265C99.1049 23.9105 97.9529 23.3025 96.3209 23.3025C95.3769 23.3025 94.5209 23.5345 93.7529 23.9985C93.0009 24.4465 92.4089 25.0785 91.9769 25.8945C91.5449 26.7105 91.3289 27.6385 91.3289 28.6785C91.3289 29.7985 91.6569 30.6785 92.3129 31.3185C92.9849 31.9425 93.9289 32.2545 95.1449 32.2545C95.9129 32.2545 96.6249 32.1025 97.2809 31.7985C97.9529 31.4945 98.5049 31.0465 98.9369 30.4545L100.617 31.6545C100.025 32.4705 99.2329 33.1105 98.2409 33.5745C97.2489 34.0385 96.1849 34.2705 95.0489 34.2705ZM111.596 21.2865C113.052 21.2865 114.18 21.6545 114.98 22.3905C115.796 23.1265 116.204 24.1665 116.204 25.5105C116.204 25.9745 116.156 26.4705 116.06 26.9985L114.644 34.1265H112.34L113.756 26.9985C113.836 26.5665 113.876 26.2145 113.876 25.9425C113.876 25.1105 113.628 24.4705 113.132 24.0225C112.636 23.5745 111.9 23.3505 110.924 23.3505C109.676 23.3505 108.644 23.6945 107.828 24.3825C107.028 25.0545 106.492 26.0625 106.22 27.4065L104.876 34.1265H102.572L106.124 16.3185H108.428L107.108 22.8945C108.244 21.8225 109.74 21.2865 111.596 21.2865ZM139.969 26.7585C139.393 28.2625 138.649 29.5905 137.737 30.7425L139.465 32.8785L137.929 34.3905L136.225 32.2785C134.577 33.6385 132.665 34.3185 130.489 34.3185C128.825 34.3185 127.497 33.9665 126.505 33.2625C125.529 32.5425 125.041 31.5745 125.041 30.3585C125.041 29.2225 125.449 28.2145 126.265 27.3345C127.081 26.4385 128.361 25.5745 130.105 24.7425C129.689 24.1825 129.377 23.6465 129.169 23.1345C128.961 22.6065 128.857 22.0705 128.857 21.5265C128.857 20.1985 129.321 19.1425 130.249 18.3585C131.177 17.5745 132.361 17.1825 133.801 17.1825C134.969 17.1825 135.913 17.4625 136.633 18.0225C137.353 18.5665 137.713 19.3185 137.713 20.2785C137.713 21.3025 137.353 22.1825 136.633 22.9185C135.929 23.6545 134.785 24.3985 133.201 25.1505L136.513 29.2305C137.185 28.3345 137.737 27.3105 138.169 26.1585L139.969 26.7585ZM133.729 18.8625C132.897 18.8625 132.225 19.0865 131.713 19.5345C131.217 19.9665 130.969 20.5585 130.969 21.3105C130.969 21.6785 131.057 22.0625 131.233 22.4625C131.425 22.8625 131.721 23.3185 132.121 23.8305C133.065 23.3825 133.793 22.9905 134.305 22.6545C134.833 22.3025 135.201 21.9585 135.409 21.6225C135.633 21.2865 135.745 20.9025 135.745 20.4705C135.745 20.0065 135.561 19.6225 135.193 19.3185C134.841 19.0145 134.353 18.8625 133.729 18.8625ZM130.633 32.3985C132.249 32.3985 133.713 31.8625 135.025 30.7905L131.185 26.0865C129.793 26.7585 128.801 27.3825 128.209 27.9585C127.633 28.5345 127.345 29.2065 127.345 29.9745C127.345 30.6945 127.633 31.2785 128.209 31.7265C128.785 32.1745 129.593 32.3985 130.633 32.3985ZM153.891 19.4145L152.715 25.2705H161.163L160.755 27.3345H152.307L150.963 34.1265H148.563L151.923 17.3265H163.779L163.371 19.4145H153.891ZM165.771 21.4065H168.075L165.555 34.1265H163.251L165.771 21.4065ZM167.595 18.9585C167.179 18.9585 166.835 18.8225 166.563 18.5505C166.291 18.2785 166.155 17.9505 166.155 17.5665C166.155 17.1185 166.307 16.7425 166.611 16.4385C166.931 16.1185 167.331 15.9585 167.811 15.9585C168.227 15.9585 168.571 16.0945 168.843 16.3665C169.131 16.6225 169.275 16.9345 169.275 17.3025C169.275 17.7985 169.115 18.1985 168.795 18.5025C168.491 18.8065 168.091 18.9585 167.595 18.9585ZM178.979 21.2865C180.435 21.2865 181.563 21.6545 182.363 22.3905C183.179 23.1265 183.587 24.1665 183.587 25.5105C183.587 25.9745 183.539 26.4705 183.443 26.9985L182.027 34.1265H179.723L181.139 26.9985C181.219 26.5665 181.259 26.2145 181.259 25.9425C181.259 25.1105 181.011 24.4705 180.515 24.0225C180.019 23.5745 179.283 23.3505 178.307 23.3505C177.059 23.3505 176.027 23.6945 175.211 24.3825C174.411 25.0545 173.875 26.0625 173.603 27.4065L172.259 34.1265H169.955L172.475 21.4065H174.683L174.371 23.0385C175.523 21.8705 177.059 21.2865 178.979 21.2865ZM201.889 16.3185L198.337 34.1265H196.129L196.441 32.5665C195.865 33.1105 195.193 33.5345 194.425 33.8385C193.673 34.1265 192.849 34.2705 191.953 34.2705C190.865 34.2705 189.897 34.0545 189.049 33.6225C188.201 33.1745 187.537 32.5345 187.057 31.7025C186.577 30.8705 186.337 29.8945 186.337 28.7745C186.337 27.3345 186.649 26.0465 187.273 24.9105C187.897 23.7745 188.753 22.8865 189.841 22.2465C190.945 21.6065 192.177 21.2865 193.537 21.2865C194.625 21.2865 195.561 21.4865 196.345 21.8865C197.145 22.2705 197.745 22.8385 198.145 23.5905L199.585 16.3185H201.889ZM192.457 32.2545C193.401 32.2545 194.249 32.0305 195.001 31.5825C195.769 31.1185 196.361 30.4785 196.777 29.6625C197.209 28.8465 197.425 27.9185 197.425 26.8785C197.425 25.7425 197.097 24.8625 196.441 24.2385C195.785 23.6145 194.849 23.3025 193.633 23.3025C192.689 23.3025 191.841 23.5345 191.089 23.9985C190.337 24.4465 189.745 25.0785 189.313 25.8945C188.881 26.7105 188.665 27.6385 188.665 28.6785C188.665 29.7985 188.993 30.6785 189.649 31.3185C190.321 31.9425 191.257 32.2545 192.457 32.2545ZM205.24 21.4065H207.544L205.024 34.1265H202.72L205.24 21.4065ZM207.064 18.9585C206.648 18.9585 206.304 18.8225 206.032 18.5505C205.76 18.2785 205.624 17.9505 205.624 17.5665C205.624 17.1185 205.776 16.7425 206.08 16.4385C206.4 16.1185 206.8 15.9585 207.28 15.9585C207.696 15.9585 208.04 16.0945 208.312 16.3665C208.6 16.6225 208.744 16.9345 208.744 17.3025C208.744 17.7985 208.584 18.1985 208.264 18.5025C207.96 18.8065 207.56 18.9585 207.064 18.9585ZM218.447 21.2865C219.903 21.2865 221.031 21.6545 221.831 22.3905C222.647 23.1265 223.055 24.1665 223.055 25.5105C223.055 25.9745 223.007 26.4705 222.911 26.9985L221.495 34.1265H219.191L220.607 26.9985C220.687 26.5665 220.727 26.2145 220.727 25.9425C220.727 25.1105 220.479 24.4705 219.983 24.0225C219.487 23.5745 218.751 23.3505 217.775 23.3505C216.527 23.3505 215.495 23.6945 214.679 24.3825C213.879 25.0545 213.343 26.0625 213.071 27.4065L211.727 34.1265H209.423L211.943 21.4065H214.151L213.839 23.0385C214.991 21.8705 216.527 21.2865 218.447 21.2865ZM240.518 21.4065L238.334 32.3985C237.886 34.6705 237.038 36.3265 235.79 37.3665C234.558 38.4065 232.87 38.9265 230.726 38.9265C229.526 38.9265 228.43 38.7665 227.438 38.4465C226.446 38.1425 225.606 37.7025 224.918 37.1265L226.19 35.3505C226.702 35.8145 227.366 36.1825 228.182 36.4545C229.014 36.7425 229.918 36.8865 230.894 36.8865C232.366 36.8865 233.502 36.5505 234.302 35.8785C235.118 35.2065 235.67 34.1665 235.958 32.7585L236.15 31.8465C234.934 33.0145 233.398 33.5985 231.542 33.5985C230.422 33.5985 229.43 33.3905 228.566 32.9745C227.718 32.5585 227.054 31.9585 226.574 31.1745C226.11 30.3905 225.878 29.4705 225.878 28.4145C225.878 27.0865 226.182 25.8785 226.79 24.7905C227.414 23.7025 228.278 22.8465 229.382 22.2225C230.486 21.5985 231.734 21.2865 233.126 21.2865C234.214 21.2865 235.174 21.4945 236.006 21.9105C236.854 22.3105 237.478 22.9185 237.878 23.7345L238.334 21.4065H240.518ZM231.998 31.5825C232.958 31.5825 233.814 31.3745 234.566 30.9585C235.334 30.5265 235.926 29.9345 236.342 29.1825C236.774 28.4145 236.99 27.5505 236.99 26.5905C236.99 25.5665 236.654 24.7665 235.982 24.1905C235.326 23.5985 234.398 23.3025 233.198 23.3025C232.238 23.3025 231.374 23.5185 230.606 23.9505C229.854 24.3665 229.262 24.9585 228.83 25.7265C228.414 26.4785 228.206 27.3265 228.206 28.2705C228.206 29.3105 228.542 30.1265 229.214 30.7185C229.886 31.2945 230.814 31.5825 231.998 31.5825ZM246.408 34.2705C245.352 34.2705 244.344 34.1345 243.384 33.8625C242.44 33.5905 241.704 33.2385 241.176 32.8065L242.208 30.9825C242.704 31.3825 243.344 31.7025 244.128 31.9425C244.928 32.1665 245.76 32.2785 246.624 32.2785C247.712 32.2785 248.536 32.1185 249.096 31.7985C249.672 31.4625 249.96 30.9985 249.96 30.4065C249.96 29.9265 249.728 29.5825 249.264 29.3745C248.816 29.1665 248.112 28.9585 247.152 28.7505C246.256 28.5585 245.52 28.3665 244.944 28.1745C244.384 27.9665 243.904 27.6465 243.504 27.2145C243.104 26.7665 242.904 26.1665 242.904 25.4145C242.904 24.5825 243.136 23.8545 243.6 23.2305C244.08 22.6065 244.752 22.1265 245.616 21.7905C246.496 21.4545 247.512 21.2865 248.664 21.2865C249.512 21.2865 250.336 21.3905 251.136 21.5985C251.936 21.8065 252.592 22.0865 253.104 22.4385L252.192 24.2625C251.696 23.9265 251.12 23.6785 250.464 23.5185C249.808 23.3425 249.136 23.2545 248.448 23.2545C247.408 23.2545 246.608 23.4305 246.048 23.7825C245.488 24.1185 245.208 24.5745 245.208 25.1505C245.208 25.6625 245.44 26.0305 245.904 26.2545C246.368 26.4625 247.088 26.6705 248.064 26.8785C248.944 27.0705 249.664 27.2625 250.224 27.4545C250.784 27.6465 251.256 27.9585 251.64 28.3905C252.04 28.8225 252.24 29.4065 252.24 30.1425C252.24 31.4385 251.704 32.4545 250.632 33.1905C249.576 33.9105 248.168 34.2705 246.408 34.2705Z" fill="#202020"/>
<circle cx="374.242" cy="24.2425" r="24.2425" fill="#202020"/>
<path d="M367.42 30.8203C366.616 30.8203 365.872 30.6643 365.188 30.3523C364.516 30.0283 363.964 29.5783 363.532 29.0023L364.864 27.4003C365.56 28.3603 366.394 28.8403 367.366 28.8403C368.674 28.8403 369.328 28.0663 369.328 26.5183V20.0023H364.846V18.0403H371.668V26.3923C371.668 27.8683 371.308 28.9783 370.588 29.7223C369.868 30.4543 368.812 30.8203 367.42 30.8203ZM377.29 20.0023V23.8363H383.374V25.8163H377.29V30.6403H374.95V18.0403H384.148V20.0023H377.29Z" fill="white"/>
<circle cx="337.242" cy="24.2425" r="23.2425" fill="#99CCFF" stroke="#99CCFF" stroke-width="2"/>
<path d="M327.017 18.0403H329.357V28.6603H335.945V30.6403H327.017V18.0403ZM342.976 18.0403C344.068 18.0403 345.016 18.2203 345.82 18.5803C346.636 18.9403 347.26 19.4563 347.692 20.1283C348.124 20.8003 348.34 21.5983 348.34 22.5223C348.34 23.4343 348.124 24.2323 347.692 24.9163C347.26 25.5883 346.636 26.1043 345.82 26.4643C345.016 26.8243 344.068 27.0043 342.976 27.0043H340.132V30.6403H337.792V18.0403H342.976ZM342.868 25.0243C343.888 25.0243 344.662 24.8083 345.19 24.3763C345.718 23.9443 345.982 23.3263 345.982 22.5223C345.982 21.7183 345.718 21.1003 345.19 20.6683C344.662 20.2363 343.888 20.0203 342.868 20.0203H340.132V25.0243H342.868Z" fill="#202020"/>
<circle cx="301.242" cy="24.2425" r="24.2425" fill="#E06B65"/>
<path d="M300.791 28.6603V30.6403H290.045V29.0743L297.461 20.0203H290.171V18.0403H300.557V19.6063L293.141 28.6603H300.791ZM312.727 28.6603V30.6403H301.981V29.0743L309.397 20.0203H302.107V18.0403H312.493V19.6063L305.077 28.6603H312.727Z" fill="#202020"/>
</svg>
