<svg width="357" height="50" viewBox="0 0 357 50" fill="none" xmlns="http://www.w3.org/2000/svg">
<rect y="29" width="212" height="20" rx="10" fill="#E06B65" fill-opacity="0.6"/>
<path d="M32.4119 18.2L23.4359 35H20.8919L19.0199 21.656L11.6999 35H9.15595L6.89995 18.2H9.25195L11.0759 31.904L18.5159 18.2H20.7479L22.6199 31.928L30.0119 18.2H32.4119ZM32.9229 29.36V29.504C32.9229 30.688 33.2589 31.592 33.9309 32.216C34.6029 32.824 35.6109 33.128 36.9549 33.128C37.7389 33.128 38.4749 33 39.1629 32.744C39.8509 32.472 40.4269 32.112 40.8909 31.664L41.8749 33.32C41.2509 33.896 40.4909 34.344 39.5949 34.664C38.6989 34.984 37.7549 35.144 36.7629 35.144C35.5149 35.144 34.4349 34.92 33.5229 34.472C32.6109 34.024 31.9069 33.384 31.4109 32.552C30.9149 31.72 30.6669 30.744 30.6669 29.624C30.6669 28.2 30.9709 26.92 31.5789 25.784C32.2029 24.648 33.0589 23.76 34.1469 23.12C35.2509 22.48 36.4829 22.16 37.8429 22.16C39.5709 22.16 40.9469 22.656 41.9709 23.648C43.0109 24.624 43.5309 25.96 43.5309 27.656C43.5309 28.168 43.4749 28.736 43.3629 29.36H32.9229ZM37.7469 24.08C36.6109 24.08 35.6349 24.4 34.8189 25.04C34.0029 25.68 33.4509 26.56 33.1629 27.68H41.3709C41.4349 26.544 41.1309 25.664 40.4589 25.04C39.8029 24.4 38.8989 24.08 37.7469 24.08ZM54.2668 22.16C55.3548 22.16 56.3228 22.384 57.1708 22.832C58.0188 23.264 58.6828 23.896 59.1628 24.728C59.6428 25.544 59.8828 26.512 59.8828 27.632C59.8828 29.072 59.5708 30.36 58.9468 31.496C58.3228 32.632 57.4588 33.528 56.3548 34.184C55.2668 34.824 54.0428 35.144 52.6828 35.144C51.5628 35.144 50.6028 34.936 49.8028 34.52C49.0188 34.104 48.4268 33.496 48.0268 32.696L47.5468 35H45.3628L48.9148 17.192H51.2188L49.8988 23.744C51.0828 22.688 52.5388 22.16 54.2668 22.16ZM52.5868 33.128C53.5308 33.128 54.3788 32.904 55.1308 32.456C55.8828 31.992 56.4748 31.352 56.9068 30.536C57.3388 29.72 57.5548 28.792 57.5548 27.752C57.5548 26.616 57.2268 25.736 56.5708 25.112C55.9148 24.488 54.9788 24.176 53.7628 24.176C52.8188 24.176 51.9628 24.408 51.1948 24.872C50.4428 25.32 49.8508 25.952 49.4188 26.768C49.0028 27.584 48.7948 28.512 48.7948 29.552C48.7948 30.672 49.1228 31.552 49.7788 32.192C50.4508 32.816 51.3868 33.128 52.5868 33.128ZM80.1674 30.8H71.1914L68.5274 35H65.9354L76.9274 18.2H79.3034L83.5514 35H81.1754L80.1674 30.8ZM79.6874 28.88L77.6954 20.6L72.4154 28.88H79.6874ZM94.6496 22.16C95.7376 22.16 96.7056 22.384 97.5536 22.832C98.4016 23.264 99.0656 23.896 99.5456 24.728C100.026 25.544 100.266 26.512 100.266 27.632C100.266 29.072 99.9536 30.36 99.3296 31.496C98.7056 32.632 97.8416 33.528 96.7376 34.184C95.6496 34.824 94.4256 35.144 93.0656 35.144C91.9776 35.144 91.0416 34.952 90.2576 34.568C89.4736 34.168 88.8736 33.592 88.4576 32.84L87.1136 39.656H84.8096L88.2656 22.28H90.4736L90.1616 23.864C91.3456 22.728 92.8416 22.16 94.6496 22.16ZM92.9696 33.128C93.9136 33.128 94.7616 32.904 95.5136 32.456C96.2656 31.992 96.8576 31.352 97.2896 30.536C97.7216 29.72 97.9376 28.792 97.9376 27.752C97.9376 26.616 97.6096 25.736 96.9536 25.112C96.2976 24.488 95.3616 24.176 94.1456 24.176C93.2016 24.176 92.3456 24.408 91.5776 24.872C90.8256 25.32 90.2336 25.952 89.8016 26.768C89.3856 27.584 89.1776 28.512 89.1776 29.552C89.1776 30.672 89.5056 31.552 90.1616 32.192C90.8336 32.816 91.7696 33.128 92.9696 33.128ZM111.009 22.16C112.097 22.16 113.065 22.384 113.913 22.832C114.761 23.264 115.425 23.896 115.905 24.728C116.385 25.544 116.625 26.512 116.625 27.632C116.625 29.072 116.313 30.36 115.689 31.496C115.065 32.632 114.201 33.528 113.097 34.184C112.009 34.824 110.785 35.144 109.425 35.144C108.337 35.144 107.401 34.952 106.617 34.568C105.833 34.168 105.233 33.592 104.817 32.84L103.473 39.656H101.169L104.625 22.28H106.833L106.521 23.864C107.705 22.728 109.201 22.16 111.009 22.16ZM109.329 33.128C110.273 33.128 111.121 32.904 111.873 32.456C112.625 31.992 113.217 31.352 113.649 30.536C114.081 29.72 114.297 28.792 114.297 27.752C114.297 26.616 113.969 25.736 113.313 25.112C112.657 24.488 111.721 24.176 110.505 24.176C109.561 24.176 108.705 24.408 107.937 24.872C107.185 25.32 106.593 25.952 106.161 26.768C105.745 27.584 105.537 28.512 105.537 29.552C105.537 30.672 105.865 31.552 106.521 32.192C107.193 32.816 108.129 33.128 109.329 33.128ZM122.016 17.192H124.32L120.768 35H118.464L122.016 17.192ZM127.687 22.28H129.991L127.471 35H125.167L127.687 22.28ZM129.511 19.832C129.095 19.832 128.751 19.696 128.479 19.424C128.207 19.152 128.071 18.824 128.071 18.44C128.071 17.992 128.223 17.616 128.527 17.312C128.847 16.992 129.247 16.832 129.727 16.832C130.143 16.832 130.487 16.968 130.759 17.24C131.047 17.496 131.191 17.808 131.191 18.176C131.191 18.672 131.031 19.072 130.711 19.376C130.407 19.68 130.007 19.832 129.511 19.832ZM137.895 35.144C136.679 35.144 135.615 34.92 134.703 34.472C133.791 34.008 133.087 33.368 132.591 32.552C132.095 31.72 131.847 30.752 131.847 29.648C131.847 28.224 132.167 26.944 132.807 25.808C133.447 24.672 134.335 23.784 135.471 23.144C136.607 22.488 137.895 22.16 139.335 22.16C141.847 22.16 143.591 23.08 144.567 24.92L142.623 26C141.951 24.784 140.799 24.176 139.167 24.176C138.223 24.176 137.367 24.408 136.599 24.872C135.847 25.32 135.255 25.952 134.823 26.768C134.391 27.584 134.175 28.512 134.175 29.552C134.175 30.672 134.503 31.552 135.159 32.192C135.831 32.816 136.775 33.128 137.991 33.128C138.759 33.128 139.471 32.976 140.127 32.672C140.799 32.368 141.351 31.92 141.783 31.328L143.463 32.528C142.871 33.344 142.079 33.984 141.087 34.448C140.095 34.912 139.031 35.144 137.895 35.144ZM159.89 22.28L157.37 35H155.162L155.474 33.44C154.898 33.984 154.226 34.408 153.458 34.712C152.706 35 151.882 35.144 150.986 35.144C149.898 35.144 148.93 34.928 148.082 34.496C147.234 34.048 146.57 33.408 146.09 32.576C145.61 31.744 145.37 30.768 145.37 29.648C145.37 28.208 145.682 26.92 146.306 25.784C146.93 24.648 147.786 23.76 148.874 23.12C149.978 22.48 151.21 22.16 152.57 22.16C153.658 22.16 154.586 22.352 155.354 22.736C156.138 23.12 156.738 23.688 157.154 24.44L157.586 22.28H159.89ZM151.49 33.128C152.434 33.128 153.282 32.904 154.034 32.456C154.802 31.992 155.394 31.352 155.81 30.536C156.242 29.72 156.458 28.792 156.458 27.752C156.458 26.616 156.13 25.736 155.474 25.112C154.818 24.488 153.882 24.176 152.666 24.176C151.722 24.176 150.874 24.408 150.122 24.872C149.37 25.32 148.778 25.952 148.346 26.768C147.914 27.584 147.698 28.512 147.698 29.552C147.698 30.672 148.026 31.552 148.682 32.192C149.354 32.816 150.29 33.128 151.49 33.128ZM165.161 30.944C165.113 31.184 165.089 31.408 165.089 31.616C165.089 32.128 165.225 32.52 165.497 32.792C165.785 33.064 166.209 33.2 166.769 33.2C167.441 33.2 168.049 33 168.593 32.6L169.073 34.352C168.305 34.88 167.321 35.144 166.121 35.144C165.113 35.144 164.297 34.864 163.673 34.304C163.065 33.728 162.761 32.944 162.761 31.952C162.761 31.616 162.793 31.296 162.857 30.992L164.225 24.176H162.065L162.425 22.28H164.609L165.161 19.496H167.465L166.913 22.28H170.561L170.177 24.176H166.529L165.161 30.944ZM174.211 22.28H176.515L173.995 35H171.691L174.211 22.28ZM176.035 19.832C175.619 19.832 175.275 19.696 175.003 19.424C174.731 19.152 174.595 18.824 174.595 18.44C174.595 17.992 174.747 17.616 175.051 17.312C175.371 16.992 175.771 16.832 176.251 16.832C176.667 16.832 177.011 16.968 177.283 17.24C177.571 17.496 177.715 17.808 177.715 18.176C177.715 18.672 177.555 19.072 177.235 19.376C176.931 19.68 176.531 19.832 176.035 19.832ZM184.346 35.144C183.146 35.144 182.098 34.92 181.202 34.472C180.306 34.008 179.61 33.36 179.114 32.528C178.618 31.696 178.37 30.736 178.37 29.648C178.37 28.224 178.69 26.944 179.33 25.808C179.97 24.672 180.858 23.784 181.994 23.144C183.13 22.488 184.41 22.16 185.834 22.16C187.034 22.16 188.082 22.384 188.978 22.832C189.874 23.28 190.562 23.92 191.042 24.752C191.538 25.568 191.786 26.528 191.786 27.632C191.786 29.056 191.466 30.344 190.826 31.496C190.186 32.632 189.298 33.528 188.162 34.184C187.042 34.824 185.77 35.144 184.346 35.144ZM184.49 33.128C185.434 33.128 186.282 32.904 187.034 32.456C187.802 31.992 188.394 31.352 188.81 30.536C189.242 29.72 189.458 28.792 189.458 27.752C189.458 26.616 189.13 25.736 188.474 25.112C187.818 24.488 186.882 24.176 185.666 24.176C184.722 24.176 183.874 24.408 183.122 24.872C182.37 25.32 181.778 25.952 181.346 26.768C180.914 27.584 180.698 28.512 180.698 29.552C180.698 30.672 181.026 31.552 181.682 32.192C182.354 32.816 183.29 33.128 184.49 33.128ZM202.652 22.16C204.108 22.16 205.236 22.528 206.036 23.264C206.852 24 207.26 25.04 207.26 26.384C207.26 26.848 207.212 27.344 207.116 27.872L205.7 35H203.396L204.812 27.872C204.892 27.44 204.932 27.088 204.932 26.816C204.932 25.984 204.684 25.344 204.188 24.896C203.692 24.448 202.956 24.224 201.98 24.224C200.732 24.224 199.7 24.568 198.884 25.256C198.084 25.928 197.548 26.936 197.276 28.28L195.932 35H193.628L196.148 22.28H198.356L198.044 23.912C199.196 22.744 200.732 22.16 202.652 22.16Z" fill="#202020"/>
<circle cx="332.242" cy="24.2425" r="24.2425" fill="#99CC99"/>
<path d="M326.77 27.7241H320.47L319.228 30.6401H316.816L322.486 18.0401H324.79L330.478 30.6401H328.03L326.77 27.7241ZM325.996 25.8881L323.62 20.3801L321.262 25.8881H325.996ZM343.654 30.6401L343.636 22.2881L339.496 29.2001H338.452L334.312 22.3961V30.6401H332.08V18.0401H334.006L339.01 26.3921L343.924 18.0401H345.85L345.868 30.6401H343.654Z" fill="#202020"/>
<path d="M315.48 25.2425C315.48 38.079 305.075 48.4849 292.24 48.4849C279.405 48.4849 269 38.079 269 25.2425C269 12.4059 279.405 2 292.24 2C305.075 2 315.48 12.4059 315.48 25.2425Z" fill="white" stroke="#C4C4C4" stroke-width="2"/>
<path d="M290.406 19.0406V31.6406H288.48L281.532 23.1086V31.6406H279.21V19.0406H281.136L288.084 27.5726V19.0406H290.406ZM293.782 19.0406H299.29C300.634 19.0406 301.828 19.3046 302.872 19.8326C303.916 20.3486 304.726 21.0866 305.302 22.0466C305.878 22.9946 306.166 24.0926 306.166 25.3406C306.166 26.5886 305.878 27.6926 305.302 28.6526C304.726 29.6006 303.916 30.3386 302.872 30.8666C301.828 31.3826 300.634 31.6406 299.29 31.6406H293.782V19.0406ZM299.182 29.6606C300.106 29.6606 300.916 29.4866 301.612 29.1386C302.32 28.7786 302.86 28.2746 303.232 27.6266C303.616 26.9666 303.808 26.2046 303.808 25.3406C303.808 24.4766 303.616 23.7206 303.232 23.0726C302.86 22.4126 302.32 21.9086 301.612 21.5606C300.916 21.2006 300.106 21.0206 299.182 21.0206H296.122V29.6606H299.182Z" fill="#202020"/>
<circle cx="253.242" cy="24.2425" r="24.2425" fill="#FFEE52"/>
<path d="M252.894 18.0401V30.6401H250.968L244.02 22.1081V30.6401H241.698V18.0401H243.624L250.572 26.5721V18.0401H252.894ZM261.707 26.1941V30.6401H259.367V26.2301L254.417 18.0401H256.919L260.609 24.1781L264.335 18.0401H266.639L261.707 26.1941Z" fill="#202020"/>
</svg>
