<svg width="511" height="49" viewBox="0 0 511 49" fill="none" xmlns="http://www.w3.org/2000/svg">
<rect y="28" width="261" height="20" rx="10" fill="#E06B65" fill-opacity="0.6"/>
<path d="M16.4897 29.8H7.51371L4.84971 34H2.25771L13.2497 17.2H15.6257L19.8737 34H17.4977L16.4897 29.8ZM16.0097 27.88L14.0177 19.6L8.73771 27.88H16.0097ZM36.2095 21.28L33.6895 34H31.4815L31.7935 32.368C31.2175 32.96 30.5375 33.408 29.7535 33.712C28.9855 34 28.1455 34.144 27.2335 34.144C25.8255 34.144 24.7135 33.768 23.8975 33.016C23.0815 32.264 22.6735 31.216 22.6735 29.872C22.6735 29.424 22.7215 28.936 22.8175 28.408L24.2335 21.28H26.5375L25.1215 28.432C25.0415 28.864 25.0015 29.224 25.0015 29.512C25.0015 30.344 25.2415 30.984 25.7215 31.432C26.2175 31.864 26.9455 32.08 27.9055 32.08C29.1215 32.08 30.1295 31.736 30.9295 31.048C31.7455 30.36 32.2895 29.352 32.5615 28.024L33.9055 21.28H36.2095ZM53.6036 16.192L50.0516 34H47.8436L48.1556 32.44C47.5796 32.984 46.9076 33.408 46.1396 33.712C45.3876 34 44.5636 34.144 43.6676 34.144C42.5796 34.144 41.6116 33.928 40.7636 33.496C39.9156 33.048 39.2516 32.408 38.7716 31.576C38.2916 30.744 38.0516 29.768 38.0516 28.648C38.0516 27.208 38.3636 25.92 38.9876 24.784C39.6116 23.648 40.4676 22.76 41.5556 22.12C42.6596 21.48 43.8916 21.16 45.2516 21.16C46.3396 21.16 47.2756 21.36 48.0596 21.76C48.8596 22.144 49.4596 22.712 49.8596 23.464L51.2996 16.192H53.6036ZM44.1716 32.128C45.1156 32.128 45.9636 31.904 46.7156 31.456C47.4836 30.992 48.0756 30.352 48.4916 29.536C48.9236 28.72 49.1396 27.792 49.1396 26.752C49.1396 25.616 48.8116 24.736 48.1556 24.112C47.4996 23.488 46.5636 23.176 45.3476 23.176C44.4036 23.176 43.5556 23.408 42.8036 23.872C42.0516 24.32 41.4596 24.952 41.0276 25.768C40.5956 26.584 40.3796 27.512 40.3796 28.552C40.3796 29.672 40.7076 30.552 41.3636 31.192C42.0356 31.816 42.9716 32.128 44.1716 32.128ZM56.955 21.28H59.259L56.739 34H54.435L56.955 21.28ZM58.779 18.832C58.363 18.832 58.019 18.696 57.747 18.424C57.475 18.152 57.339 17.824 57.339 17.44C57.339 16.992 57.491 16.616 57.795 16.312C58.115 15.992 58.515 15.832 58.995 15.832C59.411 15.832 59.755 15.968 60.027 16.24C60.315 16.496 60.459 16.808 60.459 17.176C60.459 17.672 60.299 18.072 59.979 18.376C59.675 18.68 59.275 18.832 58.779 18.832ZM67.0901 34.144C65.8901 34.144 64.8421 33.92 63.9461 33.472C63.0501 33.008 62.3541 32.36 61.8581 31.528C61.3621 30.696 61.1141 29.736 61.1141 28.648C61.1141 27.224 61.4341 25.944 62.0741 24.808C62.7141 23.672 63.6021 22.784 64.7381 22.144C65.8741 21.488 67.1541 21.16 68.5781 21.16C69.7781 21.16 70.8261 21.384 71.7221 21.832C72.6181 22.28 73.3061 22.92 73.7861 23.752C74.2821 24.568 74.5301 25.528 74.5301 26.632C74.5301 28.056 74.2101 29.344 73.5701 30.496C72.9301 31.632 72.0421 32.528 70.9061 33.184C69.7861 33.824 68.5141 34.144 67.0901 34.144ZM67.2341 32.128C68.1781 32.128 69.0261 31.904 69.7781 31.456C70.5461 30.992 71.1381 30.352 71.5541 29.536C71.9861 28.72 72.2021 27.792 72.2021 26.752C72.2021 25.616 71.8741 24.736 71.2181 24.112C70.5621 23.488 69.6261 23.176 68.4101 23.176C67.4661 23.176 66.6181 23.408 65.8661 23.872C65.1141 24.32 64.5221 24.952 64.0901 25.768C63.6581 26.584 63.4421 27.512 63.4421 28.552C63.4421 29.672 63.7701 30.552 64.4261 31.192C65.0981 31.816 66.0341 32.128 67.2341 32.128ZM85.3485 13.792H87.5565L75.1965 36.4H72.9885L85.3485 13.792ZM103.801 17.2L93.0486 34H90.6966L86.6646 17.2H89.1366L92.4006 31.024L101.305 17.2H103.801ZM104.814 21.28H107.118L104.598 34H102.294L104.814 21.28ZM106.638 18.832C106.222 18.832 105.878 18.696 105.606 18.424C105.334 18.152 105.198 17.824 105.198 17.44C105.198 16.992 105.35 16.616 105.654 16.312C105.974 15.992 106.374 15.832 106.854 15.832C107.27 15.832 107.614 15.968 107.886 16.24C108.174 16.496 108.318 16.808 108.318 17.176C108.318 17.672 108.158 18.072 107.838 18.376C107.534 18.68 107.134 18.832 106.638 18.832ZM124.526 16.192L120.974 34H118.766L119.078 32.44C118.502 32.984 117.83 33.408 117.062 33.712C116.31 34 115.486 34.144 114.59 34.144C113.502 34.144 112.534 33.928 111.686 33.496C110.838 33.048 110.174 32.408 109.694 31.576C109.214 30.744 108.974 29.768 108.974 28.648C108.974 27.208 109.286 25.92 109.91 24.784C110.534 23.648 111.39 22.76 112.478 22.12C113.582 21.48 114.814 21.16 116.174 21.16C117.262 21.16 118.198 21.36 118.982 21.76C119.782 22.144 120.382 22.712 120.782 23.464L122.222 16.192H124.526ZM115.094 32.128C116.038 32.128 116.886 31.904 117.638 31.456C118.406 30.992 118.998 30.352 119.414 29.536C119.846 28.72 120.062 27.792 120.062 26.752C120.062 25.616 119.734 24.736 119.078 24.112C118.422 23.488 117.486 23.176 116.27 23.176C115.326 23.176 114.478 23.408 113.726 23.872C112.974 24.32 112.382 24.952 111.95 25.768C111.518 26.584 111.302 27.512 111.302 28.552C111.302 29.672 111.63 30.552 112.286 31.192C112.958 31.816 113.894 32.128 115.094 32.128ZM127.589 28.36V28.504C127.589 29.688 127.925 30.592 128.597 31.216C129.269 31.824 130.277 32.128 131.621 32.128C132.405 32.128 133.141 32 133.829 31.744C134.517 31.472 135.093 31.112 135.557 30.664L136.541 32.32C135.917 32.896 135.157 33.344 134.261 33.664C133.365 33.984 132.421 34.144 131.429 34.144C130.181 34.144 129.101 33.92 128.189 33.472C127.277 33.024 126.573 32.384 126.077 31.552C125.581 30.72 125.333 29.744 125.333 28.624C125.333 27.2 125.637 25.92 126.245 24.784C126.869 23.648 127.725 22.76 128.813 22.12C129.917 21.48 131.149 21.16 132.509 21.16C134.237 21.16 135.613 21.656 136.637 22.648C137.677 23.624 138.197 24.96 138.197 26.656C138.197 27.168 138.141 27.736 138.029 28.36H127.589ZM132.413 23.08C131.277 23.08 130.301 23.4 129.485 24.04C128.669 24.68 128.117 25.56 127.829 26.68H136.037C136.101 25.544 135.797 24.664 135.125 24.04C134.469 23.4 133.565 23.08 132.413 23.08ZM145.981 34.144C144.781 34.144 143.733 33.92 142.837 33.472C141.941 33.008 141.245 32.36 140.749 31.528C140.253 30.696 140.005 29.736 140.005 28.648C140.005 27.224 140.325 25.944 140.965 24.808C141.605 23.672 142.493 22.784 143.629 22.144C144.765 21.488 146.045 21.16 147.469 21.16C148.669 21.16 149.717 21.384 150.613 21.832C151.509 22.28 152.197 22.92 152.677 23.752C153.173 24.568 153.421 25.528 153.421 26.632C153.421 28.056 153.101 29.344 152.461 30.496C151.821 31.632 150.933 32.528 149.797 33.184C148.677 33.824 147.405 34.144 145.981 34.144ZM146.125 32.128C147.069 32.128 147.917 31.904 148.669 31.456C149.437 30.992 150.029 30.352 150.445 29.536C150.877 28.72 151.093 27.792 151.093 26.752C151.093 25.616 150.765 24.736 150.109 24.112C149.453 23.488 148.517 23.176 147.301 23.176C146.357 23.176 145.509 23.408 144.757 23.872C144.005 24.32 143.413 24.952 142.981 25.768C142.549 26.584 142.333 27.512 142.333 28.552C142.333 29.672 142.661 30.552 143.317 31.192C143.989 31.816 144.925 32.128 146.125 32.128ZM170.228 34.192C168.564 34.192 167.132 33.896 165.932 33.304C164.732 32.712 163.812 31.888 163.172 30.832C162.532 29.76 162.212 28.52 162.212 27.112C162.212 25.24 162.636 23.536 163.484 22C164.332 20.464 165.532 19.248 167.084 18.352C168.652 17.456 170.46 17.008 172.508 17.008C173.9 17.008 175.132 17.24 176.204 17.704C177.276 18.152 178.1 18.792 178.676 19.624L176.948 21.112C175.94 19.8 174.404 19.144 172.34 19.144C170.788 19.144 169.428 19.496 168.26 20.2C167.092 20.904 166.188 21.856 165.548 23.056C164.924 24.24 164.612 25.544 164.612 26.968C164.612 28.52 165.108 29.76 166.1 30.688C167.108 31.6 168.54 32.056 170.396 32.056C172.46 32.056 174.156 31.392 175.484 30.064L176.876 31.648C176.108 32.48 175.148 33.112 173.996 33.544C172.86 33.976 171.604 34.192 170.228 34.192ZM184.465 34.144C183.265 34.144 182.217 33.92 181.321 33.472C180.425 33.008 179.729 32.36 179.233 31.528C178.737 30.696 178.489 29.736 178.489 28.648C178.489 27.224 178.809 25.944 179.449 24.808C180.089 23.672 180.977 22.784 182.113 22.144C183.249 21.488 184.529 21.16 185.953 21.16C187.153 21.16 188.201 21.384 189.097 21.832C189.993 22.28 190.681 22.92 191.161 23.752C191.657 24.568 191.905 25.528 191.905 26.632C191.905 28.056 191.585 29.344 190.945 30.496C190.305 31.632 189.417 32.528 188.281 33.184C187.161 33.824 185.889 34.144 184.465 34.144ZM184.609 32.128C185.553 32.128 186.401 31.904 187.153 31.456C187.921 30.992 188.513 30.352 188.929 29.536C189.361 28.72 189.577 27.792 189.577 26.752C189.577 25.616 189.249 24.736 188.593 24.112C187.937 23.488 187.001 23.176 185.785 23.176C184.841 23.176 183.993 23.408 183.241 23.872C182.489 24.32 181.897 24.952 181.465 25.768C181.033 26.584 180.817 27.512 180.817 28.552C180.817 29.672 181.145 30.552 181.801 31.192C182.473 31.816 183.409 32.128 184.609 32.128ZM202.772 21.16C204.228 21.16 205.356 21.528 206.156 22.264C206.972 23 207.38 24.04 207.38 25.384C207.38 25.848 207.332 26.344 207.236 26.872L205.82 34H203.516L204.932 26.872C205.012 26.44 205.052 26.088 205.052 25.816C205.052 24.984 204.804 24.344 204.308 23.896C203.812 23.448 203.076 23.224 202.1 23.224C200.852 23.224 199.82 23.568 199.004 24.256C198.204 24.928 197.668 25.936 197.396 27.28L196.052 34H193.748L196.268 21.28H198.476L198.164 22.912C199.316 21.744 200.852 21.16 202.772 21.16ZM213.491 29.944C213.443 30.184 213.419 30.408 213.419 30.616C213.419 31.128 213.555 31.52 213.827 31.792C214.115 32.064 214.539 32.2 215.099 32.2C215.771 32.2 216.379 32 216.923 31.6L217.403 33.352C216.635 33.88 215.651 34.144 214.451 34.144C213.443 34.144 212.627 33.864 212.003 33.304C211.395 32.728 211.091 31.944 211.091 30.952C211.091 30.616 211.123 30.296 211.187 29.992L212.555 23.176H210.395L210.755 21.28H212.939L213.491 18.496H215.795L215.243 21.28H218.891L218.507 23.176H214.859L213.491 29.944ZM221.831 28.36V28.504C221.831 29.688 222.167 30.592 222.839 31.216C223.511 31.824 224.519 32.128 225.863 32.128C226.647 32.128 227.383 32 228.071 31.744C228.759 31.472 229.335 31.112 229.799 30.664L230.783 32.32C230.159 32.896 229.399 33.344 228.503 33.664C227.607 33.984 226.663 34.144 225.671 34.144C224.423 34.144 223.343 33.92 222.431 33.472C221.519 33.024 220.815 32.384 220.319 31.552C219.823 30.72 219.575 29.744 219.575 28.624C219.575 27.2 219.879 25.92 220.487 24.784C221.111 23.648 221.967 22.76 223.055 22.12C224.159 21.48 225.391 21.16 226.751 21.16C228.479 21.16 229.855 21.656 230.879 22.648C231.919 23.624 232.439 24.96 232.439 26.656C232.439 27.168 232.383 27.736 232.271 28.36H221.831ZM226.655 23.08C225.519 23.08 224.543 23.4 223.727 24.04C222.911 24.68 222.359 25.56 222.071 26.68H230.279C230.343 25.544 230.039 24.664 229.367 24.04C228.711 23.4 227.807 23.08 226.655 23.08ZM243.295 21.16C244.751 21.16 245.879 21.528 246.679 22.264C247.495 23 247.903 24.04 247.903 25.384C247.903 25.848 247.855 26.344 247.759 26.872L246.343 34H244.039L245.455 26.872C245.535 26.44 245.575 26.088 245.575 25.816C245.575 24.984 245.327 24.344 244.831 23.896C244.335 23.448 243.599 23.224 242.623 23.224C241.375 23.224 240.343 23.568 239.527 24.256C238.727 24.928 238.191 25.936 237.919 27.28L236.575 34H234.271L236.791 21.28H238.999L238.687 22.912C239.839 21.744 241.375 21.16 243.295 21.16ZM254.015 29.944C253.967 30.184 253.943 30.408 253.943 30.616C253.943 31.128 254.079 31.52 254.351 31.792C254.639 32.064 255.063 32.2 255.623 32.2C256.295 32.2 256.903 32 257.447 31.6L257.927 33.352C257.159 33.88 256.175 34.144 254.975 34.144C253.967 34.144 253.151 33.864 252.527 33.304C251.919 32.728 251.615 31.944 251.615 30.952C251.615 30.616 251.647 30.296 251.711 29.992L253.079 23.176H250.919L251.279 21.28H253.463L254.015 18.496H256.319L255.767 21.28H259.415L259.031 23.176H255.383L254.015 29.944Z" fill="#202020"/>
<circle cx="486.242" cy="24.2425" r="24.2425" fill="#202020"/>
<path d="M479.42 30.8201C478.616 30.8201 477.872 30.6641 477.188 30.3521C476.516 30.0281 475.964 29.5781 475.532 29.0021L476.864 27.4001C477.56 28.3601 478.394 28.8401 479.366 28.8401C480.674 28.8401 481.328 28.0661 481.328 26.5181V20.0021H476.846V18.0401H483.668V26.3921C483.668 27.8681 483.308 28.9781 482.588 29.7221C481.868 30.4541 480.812 30.8201 479.42 30.8201ZM489.29 20.0021V23.8361H495.374V25.8161H489.29V30.6401H486.95V18.0401H496.148V20.0021H489.29Z" fill="white"/>
<path d="M474.48 24.2425C474.48 37.079 464.075 47.4849 451.24 47.4849C438.405 47.4849 428 37.079 428 24.2425C428 11.4059 438.405 1 451.24 1C464.075 1 474.48 11.4059 474.48 24.2425Z" fill="white" stroke="#C4C4C4" stroke-width="2"/>
<path d="M449.406 18.0406V30.6406H447.48L440.532 22.1086V30.6406H438.21V18.0406H440.136L447.084 26.5726V18.0406H449.406ZM452.782 18.0406H458.29C459.634 18.0406 460.828 18.3046 461.872 18.8326C462.916 19.3486 463.726 20.0866 464.302 21.0466C464.878 21.9946 465.166 23.0926 465.166 24.3406C465.166 25.5886 464.878 26.6926 464.302 27.6526C463.726 28.6006 462.916 29.3386 461.872 29.8666C460.828 30.3826 459.634 30.6406 458.29 30.6406H452.782V18.0406ZM458.182 28.6606C459.106 28.6606 459.916 28.4866 460.612 28.1386C461.32 27.7786 461.86 27.2746 462.232 26.6266C462.616 25.9666 462.808 25.2046 462.808 24.3406C462.808 23.4766 462.616 22.7206 462.232 22.0726C461.86 21.4126 461.32 20.9086 460.612 20.5606C459.916 20.2006 459.106 20.0206 458.182 20.0206H455.122V28.6606H458.182Z" fill="#202020"/>
<circle cx="413.242" cy="24.2425" r="24.2425" fill="#99CC99"/>
<path d="M407.77 27.7241H401.47L400.228 30.6401H397.816L403.486 18.0401H405.79L411.478 30.6401H409.03L407.77 27.7241ZM406.996 25.8881L404.62 20.3801L402.262 25.8881H406.996ZM424.654 30.6401L424.636 22.2881L420.496 29.2001H419.452L415.312 22.3961V30.6401H413.08V18.0401H415.006L420.01 26.3921L424.924 18.0401H426.85L426.868 30.6401H424.654Z" fill="#202020"/>
<circle cx="373.242" cy="24.2425" r="24.2425" fill="#E06B65"/>
<path d="M372.791 28.6601V30.6401H362.045V29.0741L369.461 20.0201H362.171V18.0401H372.557V19.6061L365.141 28.6601H372.791ZM384.727 28.6601V30.6401H373.981V29.0741L381.397 20.0201H374.107V18.0401H384.493V19.6061L377.077 28.6601H384.727Z" fill="#202020"/>
<circle cx="336.242" cy="24.2425" r="24.2425" fill="#FFEE52"/>
<path d="M335.894 18.0401V30.6401H333.968L327.02 22.1081V30.6401H324.698V18.0401H326.624L333.572 26.5721V18.0401H335.894ZM344.707 26.1941V30.6401H342.367V26.2301L337.417 18.0401H339.919L343.609 24.1781L347.335 18.0401H349.639L344.707 26.1941Z" fill="#202020"/>
<circle cx="299.242" cy="24.2425" r="23.2425" fill="#99CCFF" stroke="#99CCFF" stroke-width="2"/>
<path d="M289.017 18.0401H291.357V28.6601H297.945V30.6401H289.017V18.0401ZM304.976 18.0401C306.068 18.0401 307.016 18.2201 307.82 18.5801C308.636 18.9401 309.26 19.4561 309.692 20.1281C310.124 20.8001 310.34 21.5981 310.34 22.5221C310.34 23.4341 310.124 24.2321 309.692 24.9161C309.26 25.5881 308.636 26.1041 307.82 26.4641C307.016 26.8241 306.068 27.0041 304.976 27.0041H302.132V30.6401H299.792V18.0401H304.976ZM304.868 25.0241C305.888 25.0241 306.662 24.8081 307.19 24.3761C307.718 23.9441 307.982 23.3261 307.982 22.5221C307.982 21.7181 307.718 21.1001 307.19 20.6681C306.662 20.2361 305.888 20.0201 304.868 20.0201H302.132V25.0241H304.868Z" fill="#202020"/>
</svg>
