<svg width="128" height="50" viewBox="0 0 128 50" fill="none" xmlns="http://www.w3.org/2000/svg">
<circle cx="103.242" cy="24.2425" r="24.2425" fill="#99CC99"/>
<path d="M97.7699 27.7241H91.4699L90.2279 30.6401H87.8159L93.4859 18.0401H95.7899L101.478 30.6401H99.0299L97.7699 27.7241ZM96.9959 25.8881L94.6199 20.3801L92.2619 25.8881H96.9959ZM114.654 30.6401L114.636 22.2881L110.496 29.2001H109.452L105.312 22.3961V30.6401H103.08V18.0401H105.006L110.01 26.3921L114.924 18.0401H116.85L116.868 30.6401H114.654Z" fill="#202020"/>
<path d="M86.48 25.2425C86.48 38.079 76.075 48.4849 63.24 48.4849C50.405 48.4849 40 38.079 40 25.2425C40 12.4059 50.405 2 63.24 2C76.075 2 86.48 12.4059 86.48 25.2425Z" fill="white" stroke="#C4C4C4" stroke-width="2"/>
<path d="M61.4056 19.0406V31.6406H59.4796L52.5316 23.1086V31.6406H50.2096V19.0406H52.1356L59.0836 27.5726V19.0406H61.4056ZM64.7818 19.0406H70.2898C71.6338 19.0406 72.8278 19.3046 73.8718 19.8326C74.9158 20.3486 75.7258 21.0866 76.3018 22.0466C76.8778 22.9946 77.1658 24.0926 77.1658 25.3406C77.1658 26.5886 76.8778 27.6926 76.3018 28.6526C75.7258 29.6006 74.9158 30.3386 73.8718 30.8666C72.8278 31.3826 71.6338 31.6406 70.2898 31.6406H64.7818V19.0406ZM70.1818 29.6606C71.1058 29.6606 71.9158 29.4866 72.6118 29.1386C73.3198 28.7786 73.8598 28.2746 74.2318 27.6266C74.6158 26.9666 74.8078 26.2046 74.8078 25.3406C74.8078 24.4766 74.6158 23.7206 74.2318 23.0726C73.8598 22.4126 73.3198 21.9086 72.6118 21.5606C71.9158 21.2006 71.1058 21.0206 70.1818 21.0206H67.1218V29.6606H70.1818Z" fill="#202020"/>
<circle cx="24.2425" cy="24.2425" r="24.2425" fill="#FFEE52"/>
<path d="M23.8945 18.0401V30.6401H21.9685L15.0205 22.1081V30.6401H12.6985V18.0401H14.6245L21.5725 26.5721V18.0401H23.8945ZM32.7067 26.1941V30.6401H30.3667V26.2301L25.4167 18.0401H27.9187L31.6087 24.1781L35.3347 18.0401H37.6387L32.7067 26.1941Z" fill="#202020"/>
</svg>
