<svg width="236" height="49" viewBox="0 0 236 49" fill="none" xmlns="http://www.w3.org/2000/svg">
<circle cx="211.242" cy="24.2425" r="24.2425" fill="#202020"/>
<path d="M204.42 30.8201C203.616 30.8201 202.872 30.6641 202.188 30.3521C201.516 30.0281 200.964 29.5781 200.532 29.0021L201.864 27.4001C202.56 28.3601 203.394 28.8401 204.366 28.8401C205.674 28.8401 206.328 28.0661 206.328 26.5181V20.0021H201.846V18.0401H208.668V26.3921C208.668 27.8681 208.308 28.9781 207.588 29.7221C206.868 30.4541 205.812 30.8201 204.42 30.8201ZM214.29 20.0021V23.8361H220.374V25.8161H214.29V30.6401H211.95V18.0401H221.148V20.0021H214.29Z" fill="white"/>
<path d="M199.48 24.2425C199.48 37.079 189.075 47.4849 176.24 47.4849C163.405 47.4849 153 37.079 153 24.2425C153 11.4059 163.405 1 176.24 1C189.075 1 199.48 11.4059 199.48 24.2425Z" fill="white" stroke="#C4C4C4" stroke-width="2"/>
<path d="M174.406 18.0406V30.6406H172.48L165.532 22.1086V30.6406H163.21V18.0406H165.136L172.084 26.5726V18.0406H174.406ZM177.782 18.0406H183.29C184.634 18.0406 185.828 18.3046 186.872 18.8326C187.916 19.3486 188.726 20.0866 189.302 21.0466C189.878 21.9946 190.166 23.0926 190.166 24.3406C190.166 25.5886 189.878 26.6926 189.302 27.6526C188.726 28.6006 187.916 29.3386 186.872 29.8666C185.828 30.3826 184.634 30.6406 183.29 30.6406H177.782V18.0406ZM183.182 28.6606C184.106 28.6606 184.916 28.4866 185.612 28.1386C186.32 27.7786 186.86 27.2746 187.232 26.6266C187.616 25.9666 187.808 25.2046 187.808 24.3406C187.808 23.4766 187.616 22.7206 187.232 22.0726C186.86 21.4126 186.32 20.9086 185.612 20.5606C184.916 20.2006 184.106 20.0206 183.182 20.0206H180.122V28.6606H183.182Z" fill="#202020"/>
<circle cx="138.242" cy="24.2425" r="24.2425" fill="#99CC99"/>
<path d="M132.77 27.7241H126.47L125.228 30.6401H122.816L128.486 18.0401H130.79L136.478 30.6401H134.03L132.77 27.7241ZM131.996 25.8881L129.62 20.3801L127.262 25.8881H131.996ZM149.654 30.6401L149.636 22.2881L145.496 29.2001H144.452L140.312 22.3961V30.6401H138.08V18.0401H140.006L145.01 26.3921L149.924 18.0401H151.85L151.868 30.6401H149.654Z" fill="#202020"/>
<circle cx="98.2425" cy="24.2425" r="24.2425" fill="#E06B65"/>
<path d="M97.7913 28.6601V30.6401H87.0453V29.0741L94.4613 20.0201H87.1713V18.0401H97.5573V19.6061L90.1413 28.6601H97.7913ZM109.727 28.6601V30.6401H98.9808V29.0741L106.397 20.0201H99.1068V18.0401H109.493V19.6061L102.077 28.6601H109.727Z" fill="#202020"/>
<circle cx="61.2425" cy="24.2425" r="24.2425" fill="#FFEE52"/>
<path d="M60.8945 18.0401V30.6401H58.9685L52.0205 22.1081V30.6401H49.6985V18.0401H51.6245L58.5725 26.5721V18.0401H60.8945ZM69.7067 26.1941V30.6401H67.3667V26.2301L62.4167 18.0401H64.9187L68.6087 24.1781L72.3347 18.0401H74.6387L69.7067 26.1941Z" fill="#202020"/>
<circle cx="24.2425" cy="24.2425" r="23.2425" fill="#99CCFF" stroke="#99CCFF" stroke-width="2"/>
<path d="M14.0168 18.0401H16.3568V28.6601H22.9448V30.6401H14.0168V18.0401ZM29.9762 18.0401C31.0682 18.0401 32.0162 18.2201 32.8202 18.5801C33.6362 18.9401 34.2602 19.4561 34.6922 20.1281C35.1242 20.8001 35.3402 21.5981 35.3402 22.5221C35.3402 23.4341 35.1242 24.2321 34.6922 24.9161C34.2602 25.5881 33.6362 26.1041 32.8202 26.4641C32.0162 26.8241 31.0682 27.0041 29.9762 27.0041H27.1322V30.6401H24.7922V18.0401H29.9762ZM29.8682 25.0241C30.8882 25.0241 31.6622 24.8081 32.1902 24.3761C32.7182 23.9441 32.9822 23.3261 32.9822 22.5221C32.9822 21.7181 32.7182 21.1001 32.1902 20.6681C31.6622 20.2361 30.8882 20.0201 29.8682 20.0201H27.1322V25.0241H29.8682Z" fill="#202020"/>
</svg>
