<svg width="122" height="49" viewBox="0 0 122 49" fill="none" xmlns="http://www.w3.org/2000/svg">
<circle cx="97.2425" cy="24.2425" r="24.2425" fill="#202020"/>
<path d="M90.4202 30.8203C89.6162 30.8203 88.8722 30.6643 88.1882 30.3523C87.5162 30.0283 86.9642 29.5783 86.5322 29.0023L87.8642 27.4003C88.5602 28.3603 89.3942 28.8403 90.3662 28.8403C91.6742 28.8403 92.3282 28.0663 92.3282 26.5183V20.0023H87.8462V18.0403H94.6682V26.3923C94.6682 27.8683 94.3082 28.9783 93.5882 29.7223C92.8682 30.4543 91.8122 30.8203 90.4202 30.8203ZM100.29 20.0023V23.8363H106.374V25.8163H100.29V30.6403H97.9504V18.0403H107.148V20.0023H100.29Z" fill="white"/>
<circle cx="60.2425" cy="24.2425" r="23.2425" fill="#99CCFF" stroke="#99CCFF" stroke-width="2"/>
<path d="M50.0168 18.0403H52.3568V28.6603H58.9448V30.6403H50.0168V18.0403ZM65.9762 18.0403C67.0682 18.0403 68.0162 18.2203 68.8202 18.5803C69.6362 18.9403 70.2602 19.4563 70.6922 20.1283C71.1242 20.8003 71.3402 21.5983 71.3402 22.5223C71.3402 23.4343 71.1242 24.2323 70.6922 24.9163C70.2602 25.5883 69.6362 26.1043 68.8202 26.4643C68.0162 26.8243 67.0682 27.0043 65.9762 27.0043H63.1322V30.6403H60.7922V18.0403H65.9762ZM65.8682 25.0243C66.8882 25.0243 67.6622 24.8083 68.1902 24.3763C68.7182 23.9443 68.9822 23.3263 68.9822 22.5223C68.9822 21.7183 68.7182 21.1003 68.1902 20.6683C67.6622 20.2363 66.8882 20.0203 65.8682 20.0203H63.1322V25.0243H65.8682Z" fill="#202020"/>
<circle cx="24.2425" cy="24.2425" r="24.2425" fill="#E06B65"/>
<path d="M23.7913 28.6603V30.6403H13.0453V29.0743L20.4613 20.0203H13.1713V18.0403H23.5573V19.6063L16.1413 28.6603H23.7913ZM35.7268 28.6603V30.6403H24.9808V29.0743L32.3968 20.0203H25.1068V18.0403H35.4928V19.6063L28.0768 28.6603H35.7268Z" fill="#202020"/>
</svg>
