<svg width="80" height="84" viewBox="0 0 80 84" fill="none" xmlns="http://www.w3.org/2000/svg">
<path fill-rule="evenodd" clip-rule="evenodd" d="M42.5565 0.769603C51.1901 0.296145 59.9134 3.35545 66.4641 8.85535C72.7226 14.1099 75.0874 22.1632 77.281 29.9237C79.3764 37.337 81.0609 45.0231 78.7667 52.3803C76.4451 59.8256 70.7722 65.5443 64.6247 70.5115C58.0892 75.7922 51.0227 81.0144 42.5565 81.6382C33.7433 82.2876 25.0116 79.0953 17.9223 73.9527C10.8892 68.8509 6.17011 61.4188 3.47604 53.2889C0.785951 45.171 -0.421534 36.2625 2.80459 28.3322C5.93209 20.6443 13.612 16.1693 20.5273 11.3745C27.3679 6.63142 34.1738 1.2293 42.5565 0.769603Z" fill="#373737"/>
<path d="M39.8775 14.1875C39.8775 14.1875 26.7075 14.3975 26.4975 33.0375C26.4975 33.0375 19.3975 31.7875 25.4975 41.0375C25.4975 41.0375 26.0875 42.6175 27.9575 41.0375C29.8275 39.4575 26.2075 44.8175 34.7075 50.1975C34.7075 50.1975 34.8275 58.8175 32.7075 60.1975C30.5875 61.5775 44.3275 66.3175 46.5775 60.1975C45.1462 58.4341 44.3909 56.2179 44.4475 53.9475C44.4475 53.9475 53.8975 53.4775 53.9475 37.2075C53.9575 21.0375 49.4675 13.2475 39.8775 14.1875Z" fill="#FDE6D1"/>
<path d="M45.8395 60.3862C40.1302 64.9537 34.5791 62.2893 32.5173 60.3862C22.4212 59.9649 14.6714 75.5944 12.0586 83.4618H68.6771C63.4435 73.8668 51.5488 55.8187 45.8395 60.3862Z" fill="#202020"/>
<path d="M21.2891 19.15C21.2891 19.15 17.8591 22.9 22.1891 28.37C22.0013 28.7585 21.8996 29.183 21.8908 29.6144C21.882 30.0458 21.9664 30.4741 22.1382 30.8699C22.3101 31.2657 22.5652 31.6198 22.8864 31.9081C23.2075 32.1963 23.5871 32.4118 23.9991 32.54C23.9991 32.54 26.1191 34.96 26.9191 33.04C27.7191 31.12 29.1391 23.88 32.3591 23.78C32.3591 23.78 31.5491 17.54 36.4891 18.35C36.4891 18.35 37.4891 16.03 39.6091 17.04C41.7291 18.05 43.2991 19.38 45.2191 17.67C47.1391 15.96 48.6691 22.82 51.4291 22.14C52.9791 21.75 52.7891 32.04 53.7991 31.03C54.8091 30.02 56.9191 19.25 51.5791 13.22C51.5791 13.22 47.3591 10.5 45.8491 12.22C45.8491 12.22 44.4391 9 41.1191 9C37.7991 9 36.1191 10.51 34.4691 10.21C32.8191 9.91001 29.9391 9.70001 28.5291 11.21C28.5291 11.2 20.2991 15.77 21.2891 19.15Z" fill="#FFE680" fill-opacity="0.99"/>
</svg>
