<svg width="80" height="82" viewBox="0 0 80 82" fill="none" xmlns="http://www.w3.org/2000/svg">
<path fill-rule="evenodd" clip-rule="evenodd" d="M40.7572 0.901645C48.4567 0.800676 55.8004 4.13486 62.0365 9.17102C68.28 14.2131 72.8836 21.1705 75.7412 29.1538C78.7623 37.5939 81.4336 47.0159 78.6385 55.5523C75.8769 63.9863 68.1112 68.571 61.279 73.3228C54.9252 77.7419 48.2456 81.9447 40.7572 81.899C33.2934 81.8535 26.7858 77.3783 20.3979 73.0734C13.3903 68.3509 5.02627 64.3595 2.08625 55.8384C-0.89807 47.1889 1.89055 37.451 5.16895 28.9349C8.21872 21.0127 13.5235 14.6988 19.8385 9.72439C26.0801 4.80777 33.1156 1.00186 40.7572 0.901645Z" fill="#99CCFF"/>
<path d="M42.4005 12.6647C42.4005 12.6647 29.2305 12.8747 29.0205 31.4747C29.0205 31.4747 21.9105 30.2247 28.0205 39.4747C28.0205 39.4747 28.6105 41.0547 30.4805 39.4747C32.3505 37.8947 28.7305 43.2547 37.2305 48.6347C37.2305 48.6347 37.3505 57.2547 35.2305 58.6347C33.1105 60.0147 46.8505 64.7547 49.0905 58.6347C47.6643 56.8691 46.9128 54.6537 46.9705 52.3847C46.9705 52.3847 56.4105 51.9147 56.4705 35.6447C56.4805 19.4747 51.9805 11.7247 42.4005 12.6647Z" fill="#F0CEBB"/>
<path d="M47.1501 12.4147C47.1501 12.4147 37.5601 8.41472 33.6501 11.2847C29.7401 14.1547 30.3701 16.8947 26.9001 16.7747C23.4301 16.6547 13.8301 18.1147 16.6401 34.8847C16.6401 34.8847 25.7901 26.0447 24.9101 18.6647C24.9101 18.6647 25.7301 28.5147 23.3301 31.5347C20.9301 34.5547 15.8201 49.2747 25.1601 53.8147C34.5001 58.3547 37.2801 54.3847 37.2801 54.3847L37.7801 48.7047C37.7801 48.7047 31.5701 43.3247 31.0001 39.2247C30.5501 39.2247 27.7101 41.5147 26.4001 36.5747C25.1401 31.8047 26.8601 30.1947 29.8301 32.3647C29.8301 32.3647 29.6401 36.0247 30.4001 35.6447C31.1601 35.2647 32.5501 24.6447 34.9401 23.9047C37.3301 23.1647 47.6401 22.1147 47.1501 12.4147Z" fill="#845F3D"/>
<path d="M47.1205 14.6747C47.1205 14.6747 54.4405 20.1147 55.9705 27.1147C55.9705 27.1147 58.7105 15.7847 50.7005 13.1147C50.7005 13.1147 45.7505 11.1147 47.1205 14.6747Z" fill="#845F3D"/>
<path d="M48.4772 58.6824C42.7679 63.2499 37.2168 60.5855 35.1549 58.6824C25.0589 58.2612 17.3091 73.8907 14.6963 81.7581H71.3148C66.0811 72.1631 54.1865 54.1149 48.4772 58.6824Z" fill="#C3DDF7"/>
</svg>
