<svg width="82" height="85" viewBox="0 0 82 85" fill="none" xmlns="http://www.w3.org/2000/svg">
<path fill-rule="evenodd" clip-rule="evenodd" d="M40.5221 1.82442C48.4415 1.454 56.5525 2.67665 63.1289 7.51831C69.8511 12.4673 74.1215 20.3032 76.9211 28.622C79.8144 37.2193 81.9526 46.6584 79.2146 55.3164C76.4997 63.9016 69.3752 69.5774 62.4071 74.5179C55.7711 79.223 48.4262 83.0091 40.5221 82.7502C32.7593 82.4958 25.6628 78.3822 19.5691 73.1143C13.6745 68.0186 9.66652 61.143 6.75983 53.5637C3.60865 45.3469 -0.169963 36.4645 2.2508 27.9564C4.68052 19.4169 12.3425 14.3045 19.2774 9.56936C25.7686 5.13711 32.8775 2.18197 40.5221 1.82442Z" fill="white" stroke="#DADADA" stroke-width="2"/>
<path d="M44.8439 15.4454C44.8439 15.4454 31.6739 15.6554 31.4639 34.2554C31.4639 34.2554 24.3539 33.0054 30.4639 42.2554C30.4639 42.2554 31.0539 43.8354 32.9239 42.2554C34.7939 40.6754 31.1739 46.0354 39.6739 51.4154C39.6739 51.4154 39.7939 60.0354 37.6739 61.4154C35.5539 62.7954 49.2939 67.5354 51.5339 61.4154C50.1077 59.6498 49.3562 57.4344 49.4138 55.1654C49.4138 55.1654 58.8538 54.6954 58.9138 38.4254C58.9238 22.2554 54.4239 14.5054 44.8439 15.4454Z" fill="#CD9F94"/>
<path d="M50.9215 61.3863C45.2122 65.9538 39.6612 63.2894 37.5993 61.3863C27.5032 60.965 19.7535 76.5945 17.1406 84.4619H73.7591C68.5255 74.8669 56.6309 56.8188 50.9215 61.3863Z" fill="#DADADA"/>
<path d="M59.3978 23.3906C59.3978 23.3906 50.3978 -0.549368 31.7678 15.5906C31.7678 15.5906 19.7678 36.5906 25.5978 60.0006C25.5978 60.0006 37.4878 63.6606 38.5978 60.0006C39.4878 57.1606 41.0278 51.4906 39.9178 50.9306C38.1039 50.0347 36.5609 48.6726 35.4468 46.9839C34.3328 45.2952 33.6877 43.3407 33.5778 41.3206C33.5778 41.3206 31.0278 43.7506 29.6978 40.1206C28.3078 36.3206 27.8778 33.5106 31.8578 33.7306C31.8578 33.7306 32.4478 37.1106 34.2078 34.4606C35.9678 31.8106 37.8578 21.1207 39.9178 21.9607C41.9778 22.8007 51.2978 29.7506 57.1878 26.5106C57.1878 26.5106 61.8478 38.5106 56.4278 49.6206C56.4278 49.6206 53.7578 54.5406 49.3778 54.4906C49.3778 54.4906 50.1878 59.6406 51.0378 59.8506C52.4678 60.2106 58.6778 60.1906 59.4778 56.6006C60.2778 53.0106 62.7678 33.5206 59.3978 23.3906Z" fill="black"/>
</svg>
