<svg width="80" height="83" viewBox="0 0 80 83" fill="none" xmlns="http://www.w3.org/2000/svg">
<path fill-rule="evenodd" clip-rule="evenodd" d="M39.5971 0.170009C47.5425 -0.133953 55.4623 1.50374 62.2287 6.03779C69.3844 10.8327 76.0401 17.4125 78.4069 26.1758C80.7446 34.8311 78.0055 43.9858 74.7144 52.2672C71.6743 59.9169 66.6512 66.1474 60.5275 71.1651C54.3025 76.2659 47.3779 80.4856 39.5971 81.0421C31.4643 81.6237 23.1805 79.4785 16.5637 74.3093C9.92742 69.1248 5.91462 61.0964 3.29832 52.6842C0.655762 44.1876 -1.0864 34.9404 1.69301 26.4955C4.43342 18.169 11.2364 12.4896 18.0949 7.72618C24.6008 3.20765 31.8798 0.465246 39.5971 0.170009Z" fill="#FFFF99"/>
<path d="M39.2086 14.6669C39.2086 14.6669 26.0386 14.8769 25.8286 33.4869C25.8286 33.4869 18.7286 32.2269 24.8286 41.4269C24.8286 41.4269 25.4186 43.0069 27.2886 41.4269C29.1586 39.8469 25.5186 45.1769 33.9986 50.5469C33.9986 50.5469 34.1186 59.1669 31.9986 60.5469C29.8786 61.9269 43.6186 66.6669 45.8686 60.5469C44.4364 58.7879 43.6809 56.5745 43.7386 54.3069C43.7386 54.3069 53.1786 53.8269 53.2386 37.5669C53.2986 21.3069 48.7886 13.6669 39.2086 14.6669Z" fill="#CD9F94"/>
<path d="M53.599 14.2769C53.599 14.2769 48.889 11.2769 49.029 9.84689C49.169 8.41689 45.749 6.66689 42.889 7.99689C42.889 7.99689 37.889 3.84689 33.039 8.13689C33.039 8.13689 26.609 7.56689 24.469 11.7069C24.469 11.7069 19.469 11.2769 21.469 18.2769C21.469 18.2769 16.469 20.7069 20.329 26.1269C20.329 26.1269 17.469 30.4169 21.329 32.9869C25.189 35.5569 25.469 32.4169 26.329 36.9869C27.189 41.5569 28.609 32.6969 28.469 30.9869C28.329 29.2769 28.469 25.5569 30.749 26.5569C33.029 27.5569 29.899 21.6669 34.519 23.9869C39.139 26.3069 41.369 19.4869 43.229 22.2369C45.089 24.9869 49.079 26.2369 50.079 23.4169C51.079 20.5969 52.939 24.6269 54.939 22.2369C56.939 19.8469 58.169 18.6669 53.599 14.2769Z" fill="#202020"/>
<path d="M45.2516 59.4816C39.5423 64.0491 33.9912 61.3847 31.9294 59.4816C21.8333 59.0604 14.0836 74.6899 11.4707 82.5573H68.0892C62.8556 72.9622 50.9609 54.9141 45.2516 59.4816Z" fill="#F8F8C8"/>
</svg>
