<svg width="81" height="87" viewBox="0 0 81 87" fill="none" xmlns="http://www.w3.org/2000/svg">
<path fill-rule="evenodd" clip-rule="evenodd" d="M38.574 0.0220508C47.1319 -0.161084 55.9501 0.714159 63.0148 5.77874C70.1954 10.9265 74.4733 19.2234 77.3567 27.8251C80.2998 36.6048 82.6513 46.2645 79.5032 54.9657C76.4146 63.5024 68.2253 68.2856 60.919 73.2585C54.0023 77.9662 46.7956 82.1375 38.574 82.8235C29.8361 83.5526 20.4888 82.7397 13.485 77.2163C6.53133 71.7324 3.69652 62.4734 1.55974 53.6328C-0.454313 45.3 -0.633714 36.7158 1.70455 28.4765C4.0909 20.0678 8.10711 12.0118 14.8479 6.8095C21.6146 1.58724 30.172 0.201851 38.574 0.0220508Z" fill="#D7F4F4"/>
<path d="M41.7589 19.2785C41.7589 19.2785 28.5889 19.4885 28.3789 38.0885C28.3789 38.0885 21.2689 36.8385 27.3789 46.0885C27.3789 46.0885 27.9789 47.6685 29.8489 46.0885C31.7189 44.5085 28.0989 49.8785 36.5989 55.2485C36.5989 55.2485 36.7189 63.8685 34.5989 65.2485C32.4789 66.6285 46.2189 71.3685 48.4589 65.2485C47.0098 63.4744 46.2468 61.2384 46.3089 58.9485C46.3089 58.9485 55.7489 58.4685 55.7989 42.2085C55.8489 25.9485 51.3089 18.3385 41.7589 19.2785Z" fill="#FFDAB4"/>
<path d="M47.7321 63.6645C42.0228 68.232 36.4717 65.5676 34.4098 63.6645C24.3137 63.2432 16.564 78.8727 13.9512 86.7401H70.5697C65.336 77.1451 53.4414 59.097 47.7321 63.6645Z" fill="#FFB6B3"/>
<path d="M46.5 61V59H47L49 58L51.5 56L53.5 53.5L55 49.5L55.5 45.5V40.5V36.5V34L54.5 29L53.5 26L51 22.5L48.5 20.5L46 20L43.5 19.5H40.5L38 20.5L35.5 21.5L33 24L31 26.5L29.5 30.5L28.5 35.5L28 38L25 39.5V42L26.5 45L28.5 47L30.5 46L31 48.5L31.5 51L34 53.5L36.5 55.5V57.5L36 61.5L35.5 64.5L34 63.5L31.5 64L27 66.5L19 75L22 45.5L25.5 34.5L28 26L31.5 20.5L38 16H45.5L52 18.5L57 26L58 40.5V53L59 69.5L55 65.5L52 63.5L49 63L47.5 64V63.5L47 62.5L46.5 61Z" fill="#F7CE23"/>
<path d="M27 65.5V66.5M27 66.5L31.5 64L34 63.5L35.5 64.5L36 61.5L36.5 57.5V55.5L34 53.5L31.5 51L31 48.5L30.5 46L28.5 47L26.5 45L25 42V39.5L28 38L28.5 35.5L29.5 30.5L31 26.5L33 24L35.5 21.5L38 20.5L40.5 19.5H43.5L46 20L48.5 20.5L51 22.5L53.5 26L54.5 29L55.5 34V36.5V40.5V45.5L55 49.5L53.5 53.5L51.5 56L49 58L47 59H46.5V61L47 62.5L47.5 63.5V64L49 63L52 63.5L55 65.5L59 69.5L58 53V40.5L57 26L52 18.5L45.5 16H38L31.5 20.5L28 26L25.5 34.5L22 45.5L19 75L27 66.5Z" stroke="#F7CE23"/>
</svg>
