<svg width="79" height="88" viewBox="0 0 79 88" fill="none" xmlns="http://www.w3.org/2000/svg">
<path fill-rule="evenodd" clip-rule="evenodd" d="M38.2771 0.121239C46.5944 -0.578627 54.94 1.76903 61.9189 6.7106C69.1418 11.8249 75.1578 19.1217 77.7068 28.0403C80.2348 36.8854 78.7786 46.3968 75.7346 55.0498C72.8062 63.3739 67.8978 70.8439 60.9598 75.6451C54.2798 80.2678 46.2079 80.8814 38.2771 80.971C30.2629 81.0615 21.7365 81.2468 15.2473 76.1615C8.75497 71.0737 6.32806 62.23 3.84403 53.9873C1.35793 45.7378 -1.55175 37.0229 0.970142 28.786C3.48632 20.5679 10.6392 15.4911 17.1659 10.4764C23.6227 5.5153 30.3797 0.785774 38.2771 0.121239Z" fill="#DCE2FF"/>
<path d="M41.7907 19.3911C41.7907 19.3911 28.6207 19.6011 28.4107 38.2011C28.4107 38.2011 21.3007 36.9511 27.3607 46.2011C27.3607 46.2011 27.9607 47.7811 29.8307 46.2011C31.7007 44.6211 28.0807 49.9811 36.5807 55.3611C36.5807 55.3611 36.7007 63.9811 34.5807 65.3611C32.4607 66.7411 46.1907 71.4811 48.4407 65.3611C47.0146 63.5954 46.2631 61.38 46.3207 59.1111C46.3207 59.1111 55.7607 58.6411 55.8107 42.3711C55.8707 26.2011 51.3707 18.4511 41.7907 19.3911Z" fill="#FDE6D1"/>
<path d="M47.2575 64.4839C41.5482 69.0514 35.9971 66.3871 33.9352 64.4839C23.8391 64.0627 16.0894 79.6922 13.4766 87.5596H70.0951C64.8614 77.9646 52.9668 59.9164 47.2575 64.4839Z" fill="#C1E0DF"/>
<path d="M52.9799 19.1788C52.9799 19.1788 41.5467 15.1563 36.8852 18.0424C32.2237 20.9285 32.9748 23.6839 28.8379 23.5632C24.7009 23.4425 13.2559 24.9107 16.6059 41.7747C16.6059 41.7747 27.5145 32.8852 26.4654 25.4638C26.4654 25.4638 27.443 35.369 24.5817 38.4059C21.7205 41.4429 15.6283 56.2454 26.7634 60.8108C37.8986 65.3763 41.2129 61.384 41.2129 61.384L41.809 55.6722C41.809 55.6722 34.4054 50.262 33.7259 46.1391C33.1894 46.1391 29.8035 48.4419 28.2418 43.4742C26.7396 38.6775 28.7902 37.0584 32.331 39.2406C32.331 39.2406 32.1045 42.9211 33.0105 42.539C33.9166 42.1569 35.5738 31.4773 38.4231 30.7332C41.2725 29.989 53.564 28.9331 52.9799 19.1788Z" fill="#FFDF5A"/>
</svg>
