<svg width="79" height="84" viewBox="0 0 79 84" fill="none" xmlns="http://www.w3.org/2000/svg">
<path fill-rule="evenodd" clip-rule="evenodd" d="M37.6216 0.0215064C45.9681 -0.157107 54.5686 0.696525 61.4588 5.63606C68.4622 10.6567 72.6344 18.7487 75.4467 27.1381C78.3171 35.701 80.6105 45.1222 77.5401 53.6086C74.5278 61.9344 66.5407 66.5995 59.4148 71.4496C52.6689 76.0411 45.6402 80.1094 37.6216 80.7785C29.0994 81.4895 19.9829 80.6967 13.152 75.3097C6.37006 69.9612 3.60525 60.9309 1.52122 52.3085C-0.443095 44.1815 -0.618067 35.8093 1.66246 27.7734C3.98989 19.5723 7.90693 11.7152 14.4813 6.64136C21.0809 1.54805 29.427 0.196867 37.6216 0.0215064Z" fill="#E06B65"/>
<path d="M42.438 14.451C42.438 14.451 29.278 14.661 29.068 33.271C29.068 33.271 21.958 32.011 28.018 41.211C28.018 41.211 28.608 42.791 30.488 41.211C32.368 39.631 28.738 45.001 37.228 50.371C37.228 50.371 37.358 58.991 35.228 60.371C33.098 61.751 46.848 66.501 49.098 60.371C47.6709 58.6097 46.9192 56.3971 46.978 54.131C46.978 54.131 56.438 53.601 56.498 37.381C56.558 21.161 52.058 13.521 42.438 14.451Z" fill="#CD9F94"/>
<path d="M57.5881 27.731C56.1281 27.731 59.4681 17.301 54.2481 16.461C54.2481 16.461 50.3881 9.25099 48.0981 9.46099C45.8081 9.67099 45.4881 10.181 42.9781 9.46099C42.9781 9.46099 36.1981 3.52099 34.2181 8.74099C34.2181 8.74099 30.0481 6.96099 26.2881 13.331C22.5281 19.701 20.1381 13.641 21.4881 21.981C21.4881 21.981 17.9481 25.641 19.1981 30.541C19.1981 30.541 14.6081 32.831 17.8381 38.541C21.0681 44.251 11.8981 40.421 18.2581 49.811C18.2581 49.811 15.1281 57.061 17.3181 58.391C19.5081 59.721 14.1881 64.521 17.6281 66.191C21.0681 67.861 15.6281 69.631 20.6281 71.301C20.6281 71.301 20.4181 77.771 24.6281 72.031C24.6281 72.031 26.5081 73.391 30.1581 71.401C33.8081 69.411 37.0481 68.481 38.7181 70.151C40.3881 71.821 44.4481 71.301 46.9581 69.631C49.4681 67.961 50.3981 74.741 51.8581 70.881C53.3181 67.021 51.8481 67.601 55.4381 66.601C59.0281 65.601 61.6981 62.011 60.6481 59.601C59.9943 58.3001 59.6731 56.8574 59.7132 55.402C59.7534 53.9466 60.1536 52.5239 60.8781 51.261C62.6381 47.711 59.5081 44.601 62.3181 40.471C65.1281 36.341 59.0481 27.731 57.5881 27.731ZM53.8081 49.131C49.4181 55.281 47.8681 52.131 46.8081 54.201C45.7481 56.271 49.0981 60.361 49.0981 60.361C43.7281 66.991 35.5581 60.981 35.5581 60.981C35.5581 60.981 38.7781 50.981 36.9581 50.201C33.3481 48.621 30.578 41.331 31.048 40.801C28.588 43.501 26.3281 39.451 25.7381 35.531C25.3281 32.831 28.9981 33.951 28.9981 33.951C28.8181 30.431 31.1281 30.641 30.7881 29.401C30.5281 28.471 29.9481 21.001 33.4781 21.401C37.0081 21.801 33.5581 16.071 38.0381 17.401C42.5181 18.731 42.4381 15.321 42.4381 15.321C43.3881 14.891 43.9881 16.011 45.3681 16.961C46.7481 17.911 49.0681 17.391 49.0681 17.391C57.4381 19.601 58.4881 42.601 53.8081 49.131Z" fill="black"/>
<path d="M48.6442 60.6645C42.9349 65.232 37.3838 62.5676 35.3219 60.6645C25.2259 60.2432 17.4761 75.8727 14.8633 83.7401H71.4818C66.2481 74.1451 54.3535 56.097 48.6442 60.6645Z" fill="#FFB6B3"/>
</svg>
