<svg width="81" height="87" viewBox="0 0 81 87" fill="none" xmlns="http://www.w3.org/2000/svg">
<path fill-rule="evenodd" clip-rule="evenodd" d="M38.574 0.0220508C47.1319 -0.161084 55.9501 0.714159 63.0148 5.77874C70.1954 10.9265 74.4733 19.2234 77.3567 27.8251C80.2998 36.6048 82.6513 46.2645 79.5032 54.9657C76.4146 63.5024 68.2253 68.2856 60.919 73.2585C54.0023 77.9662 46.7956 82.1375 38.574 82.8235C29.8361 83.5526 20.4888 82.7397 13.485 77.2163C6.53133 71.7324 3.69652 62.4734 1.55974 53.6328C-0.454313 45.3 -0.633714 36.7158 1.70455 28.4765C4.0909 20.0678 8.10711 12.0118 14.8479 6.8095C21.6146 1.58724 30.172 0.201851 38.574 0.0220508Z" fill="#D7F4F4"/>
<path d="M41.7599 19.2782C41.7599 19.2782 28.5899 19.4882 28.3799 38.0882C28.3799 38.0882 21.2699 36.8382 27.3799 46.0882C27.3799 46.0882 27.9799 47.6682 29.8499 46.0882C31.7199 44.5082 28.0999 49.8782 36.5999 55.2482C36.5999 55.2482 36.7199 63.8682 34.5999 65.2482C32.4799 66.6282 46.2199 71.3682 48.4599 65.2482C47.0108 63.474 46.2478 61.2381 46.3099 58.9482C46.3099 58.9482 55.7499 58.4682 55.7999 42.2082C55.8499 25.9482 51.3099 18.3382 41.7599 19.2782Z" fill="#F4D8BD"/>
<path d="M66.3094 69.7283C66.3094 69.7283 63.6494 53.6183 64.8894 46.5983C66.1294 39.5783 52.6994 19.2383 52.6994 19.2383C52.6994 19.2383 53.9294 10.4483 47.6994 13.0883C47.6994 13.0883 43.4294 16.1883 35.6994 14.4383C27.9694 12.6883 23.3094 23.1683 23.8594 26.6583C23.8594 26.6583 11.0594 31.3183 14.9394 51.6583C18.8194 71.9983 17.345 82.1183 22.965 85.0283C28.585 87.9383 36.985 82.8303 42.465 74.6803C47.945 66.5303 54.9394 85.0283 54.9394 85.0283C54.9394 85.0283 67.8894 89.8983 66.3094 69.7283ZM53.5994 53.2083C51.1194 57.0483 49.4494 58.5283 46.9894 58.5283C44.5294 58.5283 48.0894 64.7983 48.0894 64.7983C41.5594 67.9983 35.2894 64.2683 35.2894 64.2683C38.1194 62.2683 37.2894 55.2683 37.2894 55.2683C33.8394 55.0483 30.3794 45.7983 30.3794 45.7983C27.5494 48.0183 26.2694 44.2383 26.2694 44.2383C23.8194 36.5683 28.4194 38.1083 28.4194 38.1083C27.7994 29.1083 37.8994 26.9383 43.9394 25.7083C49.9794 24.4783 50.4694 21.8883 50.4694 21.8883C57.8994 30.5483 56.1194 49.3083 53.5994 53.2083Z" fill="#947F5F"/>
<path d="M48.7321 63.6642C43.0228 68.2317 37.4717 65.5674 35.4098 63.6642C25.3137 63.243 17.564 78.8725 14.9512 86.7399H71.5697C66.336 77.1449 54.4414 59.0967 48.7321 63.6642Z" fill="#FFB6B3"/>
</svg>
