<svg width="79" height="85" viewBox="0 0 79 85" fill="none" xmlns="http://www.w3.org/2000/svg">
<path fill-rule="evenodd" clip-rule="evenodd" d="M39.3169 0.0352434C47.2623 -0.268719 55.182 1.36897 61.9484 5.90302C69.1041 10.6979 75.7599 17.2777 78.1267 26.0411C80.4643 34.6963 77.7253 43.8511 74.4341 52.1324C71.394 59.7822 66.371 66.0126 60.2472 71.0303C54.0222 76.1311 47.0976 80.3509 39.3169 80.9073C31.1841 81.4889 22.9002 79.3438 16.2834 74.1745C9.64715 68.99 5.63435 60.9616 3.01805 52.5494C0.375489 44.0528 -1.36667 34.8056 1.41273 26.3607C4.15315 18.0342 10.9561 12.3549 17.8147 7.59142C24.3206 3.07289 31.5995 0.330481 39.3169 0.0352434Z" fill="#FFFF99"/>
<path d="M41.5104 15.8876C41.5104 15.8876 28.3404 16.0976 28.1304 34.7076C28.1304 34.7076 21.0304 33.4476 27.1304 42.6476C27.1304 42.6476 27.7204 44.2276 29.5904 42.6476C31.4604 41.0676 27.8204 46.3976 36.3004 51.7676C36.3004 51.7676 36.4204 60.3876 34.3004 61.7676C32.1804 63.1476 45.9204 67.8876 48.1704 61.7676C46.7382 60.0086 45.9826 57.7952 46.0404 55.5276C46.0404 55.5276 55.4804 55.0476 55.5404 38.7876C55.6004 22.5276 51.0904 14.8876 41.5104 15.8876Z" fill="#E8C8B6"/>
<path d="M55.9008 15.4977C55.9008 15.4977 51.1908 12.4977 51.3308 11.0677C51.4708 9.63771 48.0508 7.88771 45.1908 9.21771C45.1908 9.21771 40.1908 5.06771 35.3408 9.35771C35.3408 9.35771 28.9108 8.78771 26.7708 12.9277C26.7708 12.9277 21.7708 12.4977 23.7708 19.4977C23.7708 19.4977 18.7708 21.9277 22.6308 27.3477C22.6308 27.3477 19.7708 31.6377 23.6308 34.2077C27.4908 36.7777 27.7708 33.6377 28.6308 38.2077C29.4908 42.7777 30.9108 33.9177 30.7708 32.2077C30.6308 30.4977 30.7708 26.7777 33.0508 27.7777C35.3308 28.7777 32.2008 22.8877 36.8208 25.2077C41.4408 27.5277 43.6708 20.7077 45.5308 23.4577C47.3908 26.2077 51.3808 27.4577 52.3808 24.6377C53.3808 21.8177 55.2408 25.8477 57.2408 23.4577C59.2408 21.0677 60.4708 19.8877 55.9008 15.4977Z" fill="#604637"/>
<path d="M47.7145 61.4846C42.0052 66.0521 36.4541 63.3877 34.3923 61.4846C24.2962 61.0633 16.5464 76.6928 13.9336 84.5602H70.5521C65.3185 74.9652 53.4238 56.9171 47.7145 61.4846Z" fill="#F8F8C8"/>
</svg>
