<svg width="80" height="83" viewBox="0 0 80 83" fill="none" xmlns="http://www.w3.org/2000/svg">
<path fill-rule="evenodd" clip-rule="evenodd" d="M39.24 0.121239C47.5573 -0.578627 55.9029 1.76903 62.8818 6.7106C70.1047 11.8249 76.1207 19.1217 78.6697 28.0403C81.1977 36.8854 79.7415 46.3968 76.6975 55.0498C73.7691 63.3739 68.8607 70.8439 61.9227 75.6451C55.2427 80.2678 47.1708 80.8814 39.24 80.971C31.2258 81.0615 22.6994 81.2468 16.2102 76.1615C9.71786 71.0737 7.29095 62.23 4.80692 53.9873C2.32082 45.7378 -0.588857 37.0229 1.93303 28.786C4.44921 20.5679 11.6021 15.4911 18.1288 10.4764C24.5856 5.5153 31.3426 0.785774 39.24 0.121239Z" fill="#99CC99"/>
<path d="M39.5936 14.9976C39.5936 14.9976 26.4236 15.2076 26.1836 33.8476C26.1836 33.8476 19.0736 32.5876 25.1836 41.7876C25.1836 41.7876 25.7736 43.3776 27.6436 41.7876C29.5136 40.1976 25.8936 45.5776 34.3936 50.9476C34.3936 50.9476 34.5136 59.5676 32.3936 60.9476C30.2736 62.3276 44.0136 67.0676 46.2536 60.9476C44.8274 59.182 44.0759 56.9666 44.1336 54.6976C44.1336 54.6976 53.5736 54.2176 53.6236 37.9576C53.6736 21.6976 49.1836 14.0576 39.5936 14.9976Z" fill="#E8C0B6"/>
<path d="M21.0938 21.0875C21.0938 21.0875 17.6638 24.8375 21.9938 30.3075C21.806 30.696 21.7043 31.1205 21.6955 31.5519C21.6867 31.9833 21.7711 32.4116 21.9429 32.8074C22.1147 33.2032 22.3699 33.5573 22.6911 33.8456C23.0122 34.1338 23.3917 34.3493 23.8038 34.4775C23.8038 34.4775 25.9238 36.8975 26.7238 34.9775C27.5238 33.0575 28.9438 25.8175 32.1638 25.7175C32.1638 25.7175 31.3538 19.4775 36.2938 20.2875C36.2938 20.2875 37.2938 17.9675 39.4138 18.9775C41.5338 19.9875 43.1038 21.3175 45.0238 19.6075C46.9438 17.8975 48.4738 24.7575 51.2338 24.0775C52.7838 23.6875 52.5938 33.9775 53.6038 32.9675C54.6138 31.9575 56.7238 21.1875 51.3838 15.1575C51.3838 15.1575 47.1638 12.4375 45.6538 14.1575C45.6538 14.1575 44.2438 10.9375 40.9238 10.9375C37.6038 10.9375 35.9238 12.4475 34.2738 12.1475C32.6238 11.8475 29.7438 11.6375 28.3338 13.1475C28.3338 13.1375 20.1038 17.7075 21.0938 21.0875Z" fill="#202020"/>
<path d="M46.1836 13.7675C46.3782 13.1103 46.7918 12.5396 47.3559 12.1503C47.9199 11.7609 48.6002 11.5764 49.2836 11.6275" fill="#202020"/>
<path d="M45.0234 13.1177C45.0335 12.6254 45.2196 12.153 45.548 11.7861C45.8764 11.4192 46.3253 11.1821 46.8134 11.1177" fill="#202020"/>
<path d="M46.487 59.7277C40.7777 64.2952 35.2266 61.6308 33.1647 59.7277C23.0686 59.3065 15.3189 74.936 12.7061 82.8034H69.3246C64.0909 73.2084 52.1963 55.1602 46.487 59.7277Z" fill="#CBF4CB"/>
</svg>
