<svg width="385" height="49" viewBox="0 0 385 49" fill="none" xmlns="http://www.w3.org/2000/svg">
<rect y="27.5498" width="240" height="20" rx="10" fill="#8C4C7E" fill-opacity="0.6"/>
<path d="M25.8523 16.2L22.4923 33H20.1883L22.6363 20.856L14.6923 30.96H13.5883L9.38826 20.616L6.91626 33H4.61226L7.97226 16.2H9.91626L14.5963 28.032L23.7883 16.2H25.8523ZM41.7181 20.28L39.1981 33H36.9901L37.3021 31.44C36.7261 31.984 36.0541 32.408 35.2861 32.712C34.5341 33 33.7101 33.144 32.8141 33.144C31.7261 33.144 30.7581 32.928 29.9101 32.496C29.0621 32.048 28.3981 31.408 27.9181 30.576C27.4381 29.744 27.1981 28.768 27.1981 27.648C27.1981 26.208 27.5101 24.92 28.1341 23.784C28.7581 22.648 29.6141 21.76 30.7021 21.12C31.8061 20.48 33.0381 20.16 34.3981 20.16C35.4861 20.16 36.4141 20.352 37.1821 20.736C37.9661 21.12 38.5661 21.688 38.9821 22.44L39.4141 20.28H41.7181ZM33.3181 31.128C34.2621 31.128 35.1101 30.904 35.8621 30.456C36.6301 29.992 37.2221 29.352 37.6381 28.536C38.0701 27.72 38.2861 26.792 38.2861 25.752C38.2861 24.616 37.9581 23.736 37.3021 23.112C36.6461 22.488 35.7101 22.176 34.4941 22.176C33.5501 22.176 32.7021 22.408 31.9501 22.872C31.1981 23.32 30.6061 23.952 30.1741 24.768C29.7421 25.584 29.5261 26.512 29.5261 27.552C29.5261 28.672 29.8541 29.552 30.5101 30.192C31.1821 30.816 32.1181 31.128 33.3181 31.128ZM51.5255 25.632L56.0615 33H53.3975L49.7255 27L46.6055 29.424L45.8855 33H43.5815L47.1335 15.192H49.4375L47.1815 26.52L55.0775 20.28H58.3175L51.5255 25.632ZM59.8291 27.36V27.504C59.8291 28.688 60.1651 29.592 60.8371 30.216C61.5091 30.824 62.5171 31.128 63.8611 31.128C64.6451 31.128 65.3811 31 66.0691 30.744C66.7571 30.472 67.3331 30.112 67.7971 29.664L68.7811 31.32C68.1571 31.896 67.3971 32.344 66.5011 32.664C65.6051 32.984 64.6611 33.144 63.6691 33.144C62.4211 33.144 61.3411 32.92 60.4291 32.472C59.5171 32.024 58.8131 31.384 58.3171 30.552C57.8211 29.72 57.5731 28.744 57.5731 27.624C57.5731 26.2 57.8771 24.92 58.4851 23.784C59.1091 22.648 59.9651 21.76 61.0531 21.12C62.1571 20.48 63.3891 20.16 64.7491 20.16C66.4771 20.16 67.8531 20.656 68.8771 21.648C69.9171 22.624 70.4371 23.96 70.4371 25.656C70.4371 26.168 70.3811 26.736 70.2691 27.36H59.8291ZM64.6531 22.08C63.5171 22.08 62.5411 22.4 61.7251 23.04C60.9091 23.68 60.3571 24.56 60.0691 25.68H68.2771C68.3411 24.544 68.0371 23.664 67.3651 23.04C66.7091 22.4 65.8051 22.08 64.6531 22.08ZM76.637 22.176C77.197 21.472 77.885 20.96 78.701 20.64C79.517 20.32 80.509 20.16 81.677 20.16L81.245 22.392C81.101 22.376 80.901 22.368 80.645 22.368C78.005 22.368 76.405 23.792 75.845 26.64L74.573 33H72.269L74.789 20.28H76.997L76.637 22.176ZM86.0504 33.144C84.9944 33.144 83.9864 33.008 83.0264 32.736C82.0824 32.464 81.3464 32.112 80.8184 31.68L81.8504 29.856C82.3464 30.256 82.9864 30.576 83.7704 30.816C84.5704 31.04 85.4024 31.152 86.2664 31.152C87.3544 31.152 88.1784 30.992 88.7384 30.672C89.3144 30.336 89.6024 29.872 89.6024 29.28C89.6024 28.8 89.3704 28.456 88.9064 28.248C88.4584 28.04 87.7544 27.832 86.7944 27.624C85.8984 27.432 85.1624 27.24 84.5864 27.048C84.0264 26.84 83.5464 26.52 83.1464 26.088C82.7464 25.64 82.5464 25.04 82.5464 24.288C82.5464 23.456 82.7784 22.728 83.2424 22.104C83.7224 21.48 84.3944 21 85.2584 20.664C86.1384 20.328 87.1544 20.16 88.3064 20.16C89.1544 20.16 89.9784 20.264 90.7784 20.472C91.5784 20.68 92.2344 20.96 92.7464 21.312L91.8344 23.136C91.3384 22.8 90.7624 22.552 90.1064 22.392C89.4504 22.216 88.7784 22.128 88.0904 22.128C87.0504 22.128 86.2504 22.304 85.6904 22.656C85.1304 22.992 84.8504 23.448 84.8504 24.024C84.8504 24.536 85.0824 24.904 85.5464 25.128C86.0104 25.336 86.7304 25.544 87.7064 25.752C88.5864 25.944 89.3064 26.136 89.8664 26.328C90.4264 26.52 90.8984 26.832 91.2824 27.264C91.6824 27.696 91.8824 28.28 91.8824 29.016C91.8824 30.312 91.3464 31.328 90.2744 32.064C89.2184 32.784 87.8104 33.144 86.0504 33.144ZM102.97 20.16C104.058 20.16 105.026 20.384 105.874 20.832C106.722 21.264 107.386 21.896 107.866 22.728C108.346 23.544 108.586 24.512 108.586 25.632C108.586 27.072 108.274 28.36 107.65 29.496C107.026 30.632 106.162 31.528 105.058 32.184C103.97 32.824 102.746 33.144 101.386 33.144C100.298 33.144 99.3619 32.952 98.5779 32.568C97.7939 32.168 97.1939 31.592 96.7779 30.84L95.4339 37.656H93.1299L96.5859 20.28H98.7939L98.4819 21.864C99.6659 20.728 101.162 20.16 102.97 20.16ZM101.29 31.128C102.234 31.128 103.082 30.904 103.834 30.456C104.586 29.992 105.178 29.352 105.61 28.536C106.042 27.72 106.258 26.792 106.258 25.752C106.258 24.616 105.93 23.736 105.274 23.112C104.618 22.488 103.682 22.176 102.466 22.176C101.522 22.176 100.666 22.408 99.8979 22.872C99.1459 23.32 98.5539 23.952 98.1219 24.768C97.7059 25.584 97.4979 26.512 97.4979 27.552C97.4979 28.672 97.8259 29.552 98.4819 30.192C99.1539 30.816 100.09 31.128 101.29 31.128ZM124.921 20.28L122.401 33H120.193L120.505 31.44C119.929 31.984 119.257 32.408 118.489 32.712C117.737 33 116.913 33.144 116.017 33.144C114.929 33.144 113.961 32.928 113.113 32.496C112.265 32.048 111.601 31.408 111.121 30.576C110.641 29.744 110.401 28.768 110.401 27.648C110.401 26.208 110.713 24.92 111.337 23.784C111.961 22.648 112.817 21.76 113.905 21.12C115.009 20.48 116.241 20.16 117.601 20.16C118.689 20.16 119.617 20.352 120.385 20.736C121.169 21.12 121.769 21.688 122.185 22.44L122.617 20.28H124.921ZM116.521 31.128C117.465 31.128 118.313 30.904 119.065 30.456C119.833 29.992 120.425 29.352 120.841 28.536C121.273 27.72 121.489 26.792 121.489 25.752C121.489 24.616 121.161 23.736 120.505 23.112C119.849 22.488 118.913 22.176 117.697 22.176C116.753 22.176 115.905 22.408 115.153 22.872C114.401 23.32 113.809 23.952 113.377 24.768C112.945 25.584 112.729 26.512 112.729 27.552C112.729 28.672 113.057 29.552 113.713 30.192C114.385 30.816 115.321 31.128 116.521 31.128ZM132.809 33.144C131.593 33.144 130.529 32.92 129.617 32.472C128.705 32.008 128.001 31.368 127.505 30.552C127.009 29.72 126.761 28.752 126.761 27.648C126.761 26.224 127.081 24.944 127.721 23.808C128.361 22.672 129.249 21.784 130.385 21.144C131.521 20.488 132.809 20.16 134.249 20.16C136.761 20.16 138.505 21.08 139.481 22.92L137.537 24C136.865 22.784 135.713 22.176 134.081 22.176C133.137 22.176 132.281 22.408 131.513 22.872C130.761 23.32 130.169 23.952 129.737 24.768C129.305 25.584 129.089 26.512 129.089 27.552C129.089 28.672 129.417 29.552 130.073 30.192C130.745 30.816 131.689 31.128 132.905 31.128C133.673 31.128 134.385 30.976 135.041 30.672C135.713 30.368 136.265 29.92 136.697 29.328L138.377 30.528C137.785 31.344 136.993 31.984 136.001 32.448C135.009 32.912 133.945 33.144 132.809 33.144ZM142.54 27.36V27.504C142.54 28.688 142.876 29.592 143.548 30.216C144.22 30.824 145.228 31.128 146.572 31.128C147.356 31.128 148.092 31 148.78 30.744C149.468 30.472 150.044 30.112 150.508 29.664L151.492 31.32C150.868 31.896 150.108 32.344 149.212 32.664C148.316 32.984 147.372 33.144 146.38 33.144C145.132 33.144 144.052 32.92 143.14 32.472C142.228 32.024 141.524 31.384 141.028 30.552C140.532 29.72 140.284 28.744 140.284 27.624C140.284 26.2 140.588 24.92 141.196 23.784C141.82 22.648 142.676 21.76 143.764 21.12C144.868 20.48 146.1 20.16 147.46 20.16C149.188 20.16 150.564 20.656 151.588 21.648C152.628 22.624 153.148 23.96 153.148 25.656C153.148 26.168 153.092 26.736 152.98 27.36H142.54ZM147.364 22.08C146.228 22.08 145.252 22.4 144.436 23.04C143.62 23.68 143.068 24.56 142.78 25.68H150.988C151.052 24.544 150.748 23.664 150.076 23.04C149.42 22.4 148.516 22.08 147.364 22.08ZM175.081 24.504H177.385L176.065 31.104C175.265 31.76 174.329 32.272 173.257 32.64C172.185 33.008 171.081 33.192 169.945 33.192C168.313 33.192 166.889 32.896 165.673 32.304C164.473 31.712 163.545 30.888 162.889 29.832C162.249 28.76 161.929 27.52 161.929 26.112C161.929 24.24 162.353 22.536 163.201 21C164.049 19.464 165.257 18.248 166.825 17.352C168.393 16.456 170.209 16.008 172.273 16.008C173.729 16.008 175.001 16.232 176.089 16.68C177.193 17.128 178.081 17.768 178.753 18.6L177.025 20.064C176.465 19.408 175.785 18.928 174.985 18.624C174.185 18.304 173.249 18.144 172.177 18.144C170.609 18.144 169.233 18.488 168.049 19.176C166.865 19.864 165.945 20.808 165.289 22.008C164.649 23.192 164.329 24.512 164.329 25.968C164.329 27.52 164.833 28.76 165.841 29.688C166.849 30.6 168.305 31.056 170.209 31.056C171.601 31.056 172.865 30.704 174.001 30L175.081 24.504ZM194.34 20.28L191.82 33H189.612L189.924 31.368C189.348 31.96 188.668 32.408 187.884 32.712C187.116 33 186.276 33.144 185.364 33.144C183.956 33.144 182.844 32.768 182.028 32.016C181.212 31.264 180.804 30.216 180.804 28.872C180.804 28.424 180.852 27.936 180.948 27.408L182.364 20.28H184.668L183.252 27.432C183.172 27.864 183.132 28.224 183.132 28.512C183.132 29.344 183.372 29.984 183.852 30.432C184.348 30.864 185.076 31.08 186.036 31.08C187.252 31.08 188.26 30.736 189.06 30.048C189.876 29.36 190.42 28.352 190.692 27.024L192.036 20.28H194.34ZM198.727 20.28H201.031L198.511 33H196.207L198.727 20.28ZM200.551 17.832C200.135 17.832 199.791 17.696 199.519 17.424C199.247 17.152 199.111 16.824 199.111 16.44C199.111 15.992 199.263 15.616 199.567 15.312C199.887 14.992 200.287 14.832 200.767 14.832C201.183 14.832 201.527 14.968 201.799 15.24C202.087 15.496 202.231 15.808 202.231 16.176C202.231 16.672 202.071 17.072 201.751 17.376C201.447 17.68 201.047 17.832 200.551 17.832ZM218.438 15.192L214.886 33H212.678L212.99 31.44C212.414 31.984 211.742 32.408 210.974 32.712C210.222 33 209.398 33.144 208.502 33.144C207.414 33.144 206.446 32.928 205.598 32.496C204.75 32.048 204.086 31.408 203.606 30.576C203.126 29.744 202.886 28.768 202.886 27.648C202.886 26.208 203.198 24.92 203.822 23.784C204.446 22.648 205.302 21.76 206.39 21.12C207.494 20.48 208.726 20.16 210.086 20.16C211.174 20.16 212.11 20.36 212.894 20.76C213.694 21.144 214.294 21.712 214.694 22.464L216.134 15.192H218.438ZM209.006 31.128C209.95 31.128 210.798 30.904 211.55 30.456C212.318 29.992 212.91 29.352 213.326 28.536C213.758 27.72 213.974 26.792 213.974 25.752C213.974 24.616 213.646 23.736 212.99 23.112C212.334 22.488 211.398 22.176 210.182 22.176C209.238 22.176 208.39 22.408 207.638 22.872C206.886 23.32 206.294 23.952 205.862 24.768C205.43 25.584 205.214 26.512 205.214 27.552C205.214 28.672 205.542 29.552 206.198 30.192C206.87 30.816 207.806 31.128 209.006 31.128ZM221.501 27.36V27.504C221.501 28.688 221.837 29.592 222.509 30.216C223.181 30.824 224.189 31.128 225.533 31.128C226.317 31.128 227.053 31 227.741 30.744C228.429 30.472 229.005 30.112 229.469 29.664L230.453 31.32C229.829 31.896 229.069 32.344 228.173 32.664C227.277 32.984 226.333 33.144 225.341 33.144C224.093 33.144 223.013 32.92 222.101 32.472C221.189 32.024 220.485 31.384 219.989 30.552C219.493 29.72 219.245 28.744 219.245 27.624C219.245 26.2 219.549 24.92 220.157 23.784C220.781 22.648 221.637 21.76 222.725 21.12C223.829 20.48 225.061 20.16 226.421 20.16C228.149 20.16 229.525 20.656 230.549 21.648C231.589 22.624 232.109 23.96 232.109 25.656C232.109 26.168 232.053 26.736 231.941 27.36H221.501ZM226.325 22.08C225.189 22.08 224.213 22.4 223.397 23.04C222.581 23.68 222.029 24.56 221.741 25.68H229.949C230.013 24.544 229.709 23.664 229.037 23.04C228.381 22.4 227.477 22.08 226.325 22.08Z" fill="#202020"/>
<circle cx="360.242" cy="24.2425" r="24.2425" fill="#99CC99"/>
<path d="M347.96 18.0406H353.468C354.812 18.0406 356.006 18.3046 357.05 18.8326C358.094 19.3486 358.904 20.0866 359.48 21.0466C360.056 21.9946 360.344 23.0926 360.344 24.3406C360.344 25.5886 360.056 26.6926 359.48 27.6526C358.904 28.6006 358.094 29.3386 357.05 29.8666C356.006 30.3826 354.812 30.6406 353.468 30.6406H347.96V18.0406ZM353.36 28.6606C354.284 28.6606 355.094 28.4866 355.79 28.1386C356.498 27.7786 357.038 27.2746 357.41 26.6266C357.794 25.9666 357.986 25.2046 357.986 24.3406C357.986 23.4766 357.794 22.7206 357.41 22.0726C357.038 21.4126 356.498 20.9086 355.79 20.5606C355.094 20.2006 354.284 20.0206 353.36 20.0206H350.3V28.6606H353.36ZM368.663 30.8206C367.391 30.8206 366.239 30.5446 365.207 29.9926C364.187 29.4286 363.383 28.6546 362.795 27.6706C362.219 26.6866 361.931 25.5766 361.931 24.3406C361.931 23.1046 362.225 21.9946 362.813 21.0106C363.401 20.0266 364.205 19.2586 365.225 18.7066C366.257 18.1426 367.409 17.8606 368.681 17.8606C369.713 17.8606 370.655 18.0406 371.507 18.4006C372.359 18.7606 373.079 19.2826 373.667 19.9666L372.155 21.3886C371.243 20.4046 370.121 19.9126 368.789 19.9126C367.925 19.9126 367.151 20.1046 366.467 20.4886C365.783 20.8606 365.249 21.3826 364.865 22.0546C364.481 22.7266 364.289 23.4886 364.289 24.3406C364.289 25.1926 364.481 25.9546 364.865 26.6266C365.249 27.2986 365.783 27.8266 366.467 28.2106C367.151 28.5826 367.925 28.7686 368.789 28.7686C370.121 28.7686 371.243 28.2706 372.155 27.2746L373.667 28.7146C373.079 29.3986 372.353 29.9206 371.489 30.2806C370.637 30.6406 369.695 30.8206 368.663 30.8206Z" fill="#202020"/>
<circle cx="322.242" cy="24.2425" r="24.2425" fill="#FFFF99"/>
<path d="M319.275 24.0886C319.971 24.3166 320.523 24.7006 320.931 25.2406C321.339 25.7686 321.543 26.4286 321.543 27.2206C321.543 28.3126 321.123 29.1586 320.283 29.7586C319.443 30.3466 318.219 30.6406 316.611 30.6406H310.347V18.0406H316.251C317.739 18.0406 318.885 18.3346 319.689 18.9226C320.493 19.4986 320.895 20.2966 320.895 21.3166C320.895 21.9406 320.751 22.4926 320.463 22.9726C320.175 23.4526 319.779 23.8246 319.275 24.0886ZM312.687 19.8766V23.3506H315.999C316.815 23.3506 317.439 23.2066 317.871 22.9186C318.315 22.6186 318.537 22.1866 318.537 21.6226C318.537 21.0466 318.315 20.6146 317.871 20.3266C317.439 20.0266 316.815 19.8766 315.999 19.8766H312.687ZM316.467 28.8046C318.279 28.8046 319.185 28.1986 319.185 26.9866C319.185 25.7746 318.279 25.1686 316.467 25.1686H312.687V28.8046H316.467ZM332.212 27.7246H325.912L324.67 30.6406H322.258L327.928 18.0406H330.232L335.92 30.6406H333.472L332.212 27.7246ZM331.438 25.8886L329.062 20.3806L326.704 25.8886H331.438Z" fill="#202020"/>
<circle cx="284.242" cy="24.2425" r="24.2425" fill="#E06B65"/>
<path d="M283.791 28.6606V30.6406H273.045V29.0746L280.461 20.0206H273.171V18.0406H283.557V19.6066L276.141 28.6606H283.791ZM295.727 28.6606V30.6406H284.981V29.0746L292.397 20.0206H285.107V18.0406H295.493V19.6066L288.077 28.6606H295.727Z" fill="#202020"/>
</svg>
