<svg width="353" height="49" viewBox="0 0 353 49" fill="none" xmlns="http://www.w3.org/2000/svg">
<rect y="28" width="240" height="20" rx="10" fill="#8C4C7E" fill-opacity="0.6"/>
<path d="M26.0437 16.8465L22.6837 33.6465H20.3797L22.8277 21.5025L14.8837 31.6065H13.7797L9.57966 21.2625L7.10766 33.6465H4.80366L8.16366 16.8465H10.1077L14.7877 28.6785L23.9797 16.8465H26.0437ZM33.3655 33.7905C32.1655 33.7905 31.1175 33.5665 30.2215 33.1185C29.3255 32.6545 28.6295 32.0065 28.1335 31.1745C27.6375 30.3425 27.3895 29.3825 27.3895 28.2945C27.3895 26.8705 27.7095 25.5905 28.3495 24.4545C28.9895 23.3185 29.8775 22.4305 31.0135 21.7905C32.1495 21.1345 33.4295 20.8065 34.8535 20.8065C36.0535 20.8065 37.1015 21.0305 37.9975 21.4785C38.8935 21.9265 39.5815 22.5665 40.0615 23.3985C40.5575 24.2145 40.8055 25.1745 40.8055 26.2785C40.8055 27.7025 40.4855 28.9905 39.8455 30.1425C39.2055 31.2785 38.3175 32.1745 37.1815 32.8305C36.0615 33.4705 34.7895 33.7905 33.3655 33.7905ZM33.5095 31.7745C34.4535 31.7745 35.3015 31.5505 36.0535 31.1025C36.8215 30.6385 37.4135 29.9985 37.8295 29.1825C38.2615 28.3665 38.4775 27.4385 38.4775 26.3985C38.4775 25.2625 38.1495 24.3825 37.4935 23.7585C36.8375 23.1345 35.9015 22.8225 34.6855 22.8225C33.7415 22.8225 32.8935 23.0545 32.1415 23.5185C31.3895 23.9665 30.7975 24.5985 30.3655 25.4145C29.9335 26.2305 29.7175 27.1585 29.7175 28.1985C29.7175 29.3185 30.0455 30.1985 30.7015 30.8385C31.3735 31.4625 32.3095 31.7745 33.5095 31.7745ZM50.4719 17.5905C49.7839 17.5905 49.2399 17.7825 48.8399 18.1665C48.4399 18.5345 48.1519 19.1185 47.9759 19.9185L47.7599 20.9265H51.4559L51.0719 22.8225H47.4479L45.2639 33.6465H42.9599L45.1439 22.8225H42.9599L43.3199 20.9265H45.5279L45.7679 19.7265C46.0239 18.4305 46.5439 17.4385 47.3279 16.7505C48.1279 16.0465 49.1759 15.6945 50.4719 15.6945C50.9999 15.6945 51.4959 15.7665 51.9599 15.9105C52.4399 16.0385 52.8319 16.2305 53.1359 16.4865L52.1759 18.1905C51.7279 17.7905 51.1599 17.5905 50.4719 17.5905ZM58.9329 17.5905C58.2449 17.5905 57.7009 17.7825 57.3009 18.1665C56.9009 18.5345 56.6129 19.1185 56.4369 19.9185L56.2209 20.9265H59.9169L59.5329 22.8225H55.9089L53.7249 33.6465H51.4209L53.6049 22.8225H51.4209L51.7809 20.9265H53.9889L54.2289 19.7265C54.4849 18.4305 55.0049 17.4385 55.7889 16.7505C56.5889 16.0465 57.6369 15.6945 58.9329 15.6945C59.4609 15.6945 59.9569 15.7665 60.4209 15.9105C60.9009 16.0385 61.2929 16.2305 61.5969 16.4865L60.6369 18.1905C60.1889 17.7905 59.6209 17.5905 58.9329 17.5905ZM64.0209 20.9265H66.3249L63.8049 33.6465H61.5009L64.0209 20.9265ZM65.8449 18.4785C65.4289 18.4785 65.0849 18.3425 64.8129 18.0705C64.5409 17.7985 64.4049 17.4705 64.4049 17.0865C64.4049 16.6385 64.5569 16.2625 64.8609 15.9585C65.1809 15.6385 65.5809 15.4785 66.0609 15.4785C66.4769 15.4785 66.8209 15.6145 67.0929 15.8865C67.3809 16.1425 67.5249 16.4545 67.5249 16.8225C67.5249 17.3185 67.3649 17.7185 67.0449 18.0225C66.7409 18.3265 66.3409 18.4785 65.8449 18.4785ZM71.6028 29.5905C71.5548 29.8305 71.5308 30.0545 71.5308 30.2625C71.5308 30.7745 71.6668 31.1665 71.9388 31.4385C72.2268 31.7105 72.6508 31.8465 73.2108 31.8465C73.8828 31.8465 74.4908 31.6465 75.0348 31.2465L75.5148 32.9985C74.7468 33.5265 73.7628 33.7905 72.5628 33.7905C71.5548 33.7905 70.7388 33.5105 70.1148 32.9505C69.5068 32.3745 69.2028 31.5905 69.2028 30.5985C69.2028 30.2625 69.2348 29.9425 69.2988 29.6385L70.6668 22.8225H68.5068L68.8668 20.9265H71.0508L71.6028 18.1425H73.9068L73.3548 20.9265H77.0028L76.6188 22.8225H72.9708L71.6028 29.5905ZM81.2356 29.5905C81.1876 29.8305 81.1636 30.0545 81.1636 30.2625C81.1636 30.7745 81.2996 31.1665 81.5716 31.4385C81.8596 31.7105 82.2836 31.8465 82.8436 31.8465C83.5156 31.8465 84.1236 31.6465 84.6676 31.2465L85.1476 32.9985C84.3796 33.5265 83.3956 33.7905 82.1956 33.7905C81.1876 33.7905 80.3716 33.5105 79.7476 32.9505C79.1396 32.3745 78.8356 31.5905 78.8356 30.5985C78.8356 30.2625 78.8676 29.9425 78.9316 29.6385L80.2996 22.8225H78.1396L78.4996 20.9265H80.6836L81.2356 18.1425H83.5396L82.9876 20.9265H86.6356L86.2516 22.8225H82.6036L81.2356 29.5905ZM99.8504 18.9345L98.6744 24.7905H107.122L106.714 26.8545H98.2664L96.9224 33.6465H94.5224L97.8824 16.8465H109.738L109.33 18.9345H99.8504ZM112.997 15.8385H115.301L111.749 33.6465H109.445L112.997 15.8385ZM122.1 33.7905C120.9 33.7905 119.852 33.5665 118.956 33.1185C118.06 32.6545 117.364 32.0065 116.868 31.1745C116.372 30.3425 116.124 29.3825 116.124 28.2945C116.124 26.8705 116.444 25.5905 117.084 24.4545C117.724 23.3185 118.612 22.4305 119.748 21.7905C120.884 21.1345 122.164 20.8065 123.588 20.8065C124.788 20.8065 125.836 21.0305 126.732 21.4785C127.628 21.9265 128.316 22.5665 128.796 23.3985C129.292 24.2145 129.54 25.1745 129.54 26.2785C129.54 27.7025 129.22 28.9905 128.58 30.1425C127.94 31.2785 127.052 32.1745 125.916 32.8305C124.796 33.4705 123.524 33.7905 122.1 33.7905ZM122.244 31.7745C123.188 31.7745 124.036 31.5505 124.788 31.1025C125.556 30.6385 126.148 29.9985 126.564 29.1825C126.996 28.3665 127.212 27.4385 127.212 26.3985C127.212 25.2625 126.884 24.3825 126.228 23.7585C125.572 23.1345 124.636 22.8225 123.42 22.8225C122.476 22.8225 121.628 23.0545 120.876 23.5185C120.124 23.9665 119.532 24.5985 119.1 25.4145C118.668 26.2305 118.452 27.1585 118.452 28.1985C118.452 29.3185 118.78 30.1985 119.436 30.8385C120.108 31.4625 121.044 31.7745 122.244 31.7745ZM137.334 33.7905C136.134 33.7905 135.086 33.5665 134.19 33.1185C133.294 32.6545 132.598 32.0065 132.102 31.1745C131.606 30.3425 131.358 29.3825 131.358 28.2945C131.358 26.8705 131.678 25.5905 132.318 24.4545C132.958 23.3185 133.846 22.4305 134.982 21.7905C136.118 21.1345 137.398 20.8065 138.822 20.8065C140.022 20.8065 141.07 21.0305 141.966 21.4785C142.862 21.9265 143.55 22.5665 144.03 23.3985C144.526 24.2145 144.774 25.1745 144.774 26.2785C144.774 27.7025 144.454 28.9905 143.814 30.1425C143.174 31.2785 142.286 32.1745 141.15 32.8305C140.03 33.4705 138.758 33.7905 137.334 33.7905ZM137.478 31.7745C138.422 31.7745 139.27 31.5505 140.022 31.1025C140.79 30.6385 141.382 29.9985 141.798 29.1825C142.23 28.3665 142.446 27.4385 142.446 26.3985C142.446 25.2625 142.118 24.3825 141.462 23.7585C140.806 23.1345 139.87 22.8225 138.654 22.8225C137.71 22.8225 136.862 23.0545 136.11 23.5185C135.358 23.9665 134.766 24.5985 134.334 25.4145C133.902 26.2305 133.686 27.1585 133.686 28.1985C133.686 29.3185 134.014 30.1985 134.67 30.8385C135.342 31.4625 136.278 31.7745 137.478 31.7745ZM150.985 22.8225C151.545 22.1185 152.233 21.6065 153.049 21.2865C153.865 20.9665 154.857 20.8065 156.025 20.8065L155.593 23.0385C155.449 23.0225 155.249 23.0145 154.993 23.0145C152.353 23.0145 150.753 24.4385 150.193 27.2865L148.921 33.6465H146.617L149.137 20.9265H151.345L150.985 22.8225ZM170.418 16.8465L167.058 33.6465H164.682L167.61 18.9345H163.842L164.25 16.8465H170.418ZM199.786 16.8465L196.426 33.6465H194.122L196.57 21.5025L188.626 31.6065H187.522L183.322 21.2625L180.85 33.6465H178.546L181.906 16.8465H183.85L188.53 28.6785L197.722 16.8465H199.786ZM215.652 20.9265L213.132 33.6465H210.924L211.236 32.0865C210.66 32.6305 209.988 33.0545 209.22 33.3585C208.468 33.6465 207.644 33.7905 206.748 33.7905C205.66 33.7905 204.692 33.5745 203.844 33.1425C202.996 32.6945 202.332 32.0545 201.852 31.2225C201.372 30.3905 201.132 29.4145 201.132 28.2945C201.132 26.8545 201.444 25.5665 202.068 24.4305C202.692 23.2945 203.548 22.4065 204.636 21.7665C205.74 21.1265 206.972 20.8065 208.332 20.8065C209.42 20.8065 210.348 20.9985 211.116 21.3825C211.9 21.7665 212.5 22.3345 212.916 23.0865L213.348 20.9265H215.652ZM207.252 31.7745C208.196 31.7745 209.044 31.5505 209.796 31.1025C210.564 30.6385 211.156 29.9985 211.572 29.1825C212.004 28.3665 212.22 27.4385 212.22 26.3985C212.22 25.2625 211.892 24.3825 211.236 23.7585C210.58 23.1345 209.644 22.8225 208.428 22.8225C207.484 22.8225 206.636 23.0545 205.884 23.5185C205.132 23.9665 204.54 24.5985 204.108 25.4145C203.676 26.2305 203.46 27.1585 203.46 28.1985C203.46 29.3185 203.788 30.1985 204.444 30.8385C205.116 31.4625 206.052 31.7745 207.252 31.7745ZM226.419 20.8065C227.507 20.8065 228.475 21.0305 229.323 21.4785C230.171 21.9105 230.835 22.5425 231.315 23.3745C231.795 24.1905 232.035 25.1585 232.035 26.2785C232.035 27.7185 231.723 29.0065 231.099 30.1425C230.475 31.2785 229.611 32.1745 228.507 32.8305C227.419 33.4705 226.195 33.7905 224.835 33.7905C223.747 33.7905 222.811 33.5985 222.027 33.2145C221.243 32.8145 220.643 32.2385 220.227 31.4865L218.883 38.3025H216.579L220.035 20.9265H222.243L221.931 22.5105C223.115 21.3745 224.611 20.8065 226.419 20.8065ZM224.739 31.7745C225.683 31.7745 226.531 31.5505 227.283 31.1025C228.035 30.6385 228.627 29.9985 229.059 29.1825C229.491 28.3665 229.707 27.4385 229.707 26.3985C229.707 25.2625 229.379 24.3825 228.723 23.7585C228.067 23.1345 227.131 22.8225 225.915 22.8225C224.971 22.8225 224.115 23.0545 223.347 23.5185C222.595 23.9665 222.003 24.5985 221.571 25.4145C221.155 26.2305 220.947 27.1585 220.947 28.1985C220.947 29.3185 221.275 30.1985 221.931 30.8385C222.603 31.4625 223.539 31.7745 224.739 31.7745Z" fill="#202020"/>
<circle cx="328.242" cy="24.2425" r="24.2425" fill="#FFFF99"/>
<path d="M325.275 24.0886C325.971 24.3166 326.523 24.7006 326.931 25.2406C327.339 25.7686 327.543 26.4286 327.543 27.2206C327.543 28.3126 327.123 29.1586 326.283 29.7586C325.443 30.3466 324.219 30.6406 322.611 30.6406H316.347V18.0406H322.251C323.739 18.0406 324.885 18.3346 325.689 18.9226C326.493 19.4986 326.895 20.2966 326.895 21.3166C326.895 21.9406 326.751 22.4926 326.463 22.9726C326.175 23.4526 325.779 23.8246 325.275 24.0886ZM318.687 19.8766V23.3506H321.999C322.815 23.3506 323.439 23.2066 323.871 22.9186C324.315 22.6186 324.537 22.1866 324.537 21.6226C324.537 21.0466 324.315 20.6146 323.871 20.3266C323.439 20.0266 322.815 19.8766 321.999 19.8766H318.687ZM322.467 28.8046C324.279 28.8046 325.185 28.1986 325.185 26.9866C325.185 25.7746 324.279 25.1686 322.467 25.1686H318.687V28.8046H322.467ZM338.212 27.7246H331.912L330.67 30.6406H328.258L333.928 18.0406H336.232L341.92 30.6406H339.472L338.212 27.7246ZM337.438 25.8886L335.062 20.3806L332.704 25.8886H337.438Z" fill="#202020"/>
<circle cx="290.242" cy="24.2425" r="24.2425" fill="#99CCFF"/>
<path d="M289.306 18.0406V30.6406H287.38L280.432 22.1086V30.6406H278.11V18.0406H280.036L286.984 26.5726V18.0406H289.306ZM298.514 30.8206C297.242 30.8206 296.09 30.5446 295.058 29.9926C294.038 29.4286 293.234 28.6546 292.646 27.6706C292.07 26.6866 291.782 25.5766 291.782 24.3406C291.782 23.1046 292.076 21.9946 292.664 21.0106C293.252 20.0266 294.056 19.2586 295.076 18.7066C296.108 18.1426 297.26 17.8606 298.532 17.8606C299.564 17.8606 300.506 18.0406 301.358 18.4006C302.21 18.7606 302.93 19.2826 303.518 19.9666L302.006 21.3886C301.094 20.4046 299.972 19.9126 298.64 19.9126C297.776 19.9126 297.002 20.1046 296.318 20.4886C295.634 20.8606 295.1 21.3826 294.716 22.0546C294.332 22.7266 294.14 23.4886 294.14 24.3406C294.14 25.1926 294.332 25.9546 294.716 26.6266C295.1 27.2986 295.634 27.8266 296.318 28.2106C297.002 28.5826 297.776 28.7686 298.64 28.7686C299.972 28.7686 301.094 28.2706 302.006 27.2746L303.518 28.7146C302.93 29.3986 302.204 29.9206 301.34 30.2806C300.488 30.6406 299.546 30.8206 298.514 30.8206Z" fill="#202020"/>
</svg>
