<svg width="399" height="49" viewBox="0 0 399 49" fill="none" xmlns="http://www.w3.org/2000/svg">
<rect y="28" width="290" height="20" rx="10" fill="#8C4C7E" fill-opacity="0.6"/>
<path d="M26.3982 16.8465L23.0382 33.6465H20.7342L23.1822 21.5025L15.2382 31.6065H14.1342L9.93416 21.2625L7.46216 33.6465H5.15816L8.51816 16.8465H10.4622L15.1422 28.6785L24.3342 16.8465H26.3982ZM42.264 20.9265L39.744 33.6465H37.536L37.848 32.0865C37.272 32.6305 36.6 33.0545 35.832 33.3585C35.08 33.6465 34.256 33.7905 33.36 33.7905C32.272 33.7905 31.304 33.5745 30.456 33.1425C29.608 32.6945 28.944 32.0545 28.464 31.2225C27.984 30.3905 27.744 29.4145 27.744 28.2945C27.744 26.8545 28.056 25.5665 28.68 24.4305C29.304 23.2945 30.16 22.4065 31.248 21.7665C32.352 21.1265 33.584 20.8065 34.944 20.8065C36.032 20.8065 36.96 20.9985 37.728 21.3825C38.512 21.7665 39.112 22.3345 39.528 23.0865L39.96 20.9265H42.264ZM33.864 31.7745C34.808 31.7745 35.656 31.5505 36.408 31.1025C37.176 30.6385 37.768 29.9985 38.184 29.1825C38.616 28.3665 38.832 27.4385 38.832 26.3985C38.832 25.2625 38.504 24.3825 37.848 23.7585C37.192 23.1345 36.256 22.8225 35.04 22.8225C34.096 22.8225 33.248 23.0545 32.496 23.5185C31.744 23.9665 31.152 24.5985 30.72 25.4145C30.288 26.2305 30.072 27.1585 30.072 28.1985C30.072 29.3185 30.4 30.1985 31.056 30.8385C31.728 31.4625 32.664 31.7745 33.864 31.7745ZM52.0714 26.2785L56.6074 33.6465H53.9434L50.2714 27.6465L47.1514 30.0705L46.4314 33.6465H44.1274L47.6794 15.8385H49.9834L47.7274 27.1665L55.6234 20.9265H58.8634L52.0714 26.2785ZM60.375 28.0065V28.1505C60.375 29.3345 60.711 30.2385 61.383 30.8625C62.055 31.4705 63.063 31.7745 64.407 31.7745C65.191 31.7745 65.927 31.6465 66.615 31.3905C67.303 31.1185 67.879 30.7585 68.343 30.3105L69.327 31.9665C68.703 32.5425 67.943 32.9905 67.047 33.3105C66.151 33.6305 65.207 33.7905 64.215 33.7905C62.967 33.7905 61.887 33.5665 60.975 33.1185C60.063 32.6705 59.359 32.0305 58.863 31.1985C58.367 30.3665 58.119 29.3905 58.119 28.2705C58.119 26.8465 58.423 25.5665 59.031 24.4305C59.655 23.2945 60.511 22.4065 61.599 21.7665C62.703 21.1265 63.935 20.8065 65.295 20.8065C67.023 20.8065 68.399 21.3025 69.423 22.2945C70.463 23.2705 70.983 24.6065 70.983 26.3025C70.983 26.8145 70.927 27.3825 70.815 28.0065H60.375ZM65.199 22.7265C64.063 22.7265 63.087 23.0465 62.271 23.6865C61.455 24.3265 60.903 25.2065 60.615 26.3265H68.823C68.887 25.1905 68.583 24.3105 67.911 23.6865C67.255 23.0465 66.351 22.7265 65.199 22.7265ZM77.1829 22.8225C77.7429 22.1185 78.4309 21.6065 79.2469 21.2865C80.0629 20.9665 81.0549 20.8065 82.2229 20.8065L81.7909 23.0385C81.6469 23.0225 81.4469 23.0145 81.1909 23.0145C78.5509 23.0145 76.9509 24.4385 76.3909 27.2865L75.1189 33.6465H72.8149L75.3349 20.9265H77.5429L77.1829 22.8225ZM86.5963 33.7905C85.5403 33.7905 84.5323 33.6545 83.5723 33.3825C82.6283 33.1105 81.8923 32.7585 81.3643 32.3265L82.3963 30.5025C82.8923 30.9025 83.5323 31.2225 84.3163 31.4625C85.1163 31.6865 85.9483 31.7985 86.8123 31.7985C87.9003 31.7985 88.7243 31.6385 89.2843 31.3185C89.8603 30.9825 90.1483 30.5185 90.1483 29.9265C90.1483 29.4465 89.9163 29.1025 89.4523 28.8945C89.0043 28.6865 88.3003 28.4785 87.3403 28.2705C86.4443 28.0785 85.7083 27.8865 85.1323 27.6945C84.5723 27.4865 84.0923 27.1665 83.6923 26.7345C83.2923 26.2865 83.0923 25.6865 83.0923 24.9345C83.0923 24.1025 83.3243 23.3745 83.7883 22.7505C84.2683 22.1265 84.9403 21.6465 85.8043 21.3105C86.6843 20.9745 87.7003 20.8065 88.8523 20.8065C89.7003 20.8065 90.5243 20.9105 91.3243 21.1185C92.1243 21.3265 92.7803 21.6065 93.2923 21.9585L92.3803 23.7825C91.8843 23.4465 91.3083 23.1985 90.6523 23.0385C89.9963 22.8625 89.3243 22.7745 88.6363 22.7745C87.5963 22.7745 86.7963 22.9505 86.2363 23.3025C85.6763 23.6385 85.3963 24.0945 85.3963 24.6705C85.3963 25.1825 85.6283 25.5505 86.0923 25.7745C86.5563 25.9825 87.2763 26.1905 88.2523 26.3985C89.1323 26.5905 89.8523 26.7825 90.4123 26.9745C90.9723 27.1665 91.4443 27.4785 91.8283 27.9105C92.2283 28.3425 92.4283 28.9265 92.4283 29.6625C92.4283 30.9585 91.8923 31.9745 90.8203 32.7105C89.7643 33.4305 88.3563 33.7905 86.5963 33.7905ZM103.516 20.8065C104.604 20.8065 105.572 21.0305 106.42 21.4785C107.268 21.9105 107.932 22.5425 108.412 23.3745C108.892 24.1905 109.132 25.1585 109.132 26.2785C109.132 27.7185 108.82 29.0065 108.196 30.1425C107.572 31.2785 106.708 32.1745 105.604 32.8305C104.516 33.4705 103.292 33.7905 101.932 33.7905C100.844 33.7905 99.9078 33.5985 99.1238 33.2145C98.3398 32.8145 97.7398 32.2385 97.3238 31.4865L95.9798 38.3025H93.6758L97.1318 20.9265H99.3398L99.0278 22.5105C100.212 21.3745 101.708 20.8065 103.516 20.8065ZM101.836 31.7745C102.78 31.7745 103.628 31.5505 104.38 31.1025C105.132 30.6385 105.724 29.9985 106.156 29.1825C106.588 28.3665 106.804 27.4385 106.804 26.3985C106.804 25.2625 106.476 24.3825 105.82 23.7585C105.164 23.1345 104.228 22.8225 103.012 22.8225C102.068 22.8225 101.212 23.0545 100.444 23.5185C99.6918 23.9665 99.0998 24.5985 98.6678 25.4145C98.2518 26.2305 98.0438 27.1585 98.0438 28.1985C98.0438 29.3185 98.3718 30.1985 99.0278 30.8385C99.6998 31.4625 100.636 31.7745 101.836 31.7745ZM125.467 20.9265L122.947 33.6465H120.739L121.051 32.0865C120.475 32.6305 119.803 33.0545 119.035 33.3585C118.283 33.6465 117.459 33.7905 116.563 33.7905C115.475 33.7905 114.507 33.5745 113.659 33.1425C112.811 32.6945 112.147 32.0545 111.667 31.2225C111.187 30.3905 110.947 29.4145 110.947 28.2945C110.947 26.8545 111.259 25.5665 111.883 24.4305C112.507 23.2945 113.363 22.4065 114.451 21.7665C115.555 21.1265 116.787 20.8065 118.147 20.8065C119.235 20.8065 120.163 20.9985 120.931 21.3825C121.715 21.7665 122.315 22.3345 122.731 23.0865L123.163 20.9265H125.467ZM117.067 31.7745C118.011 31.7745 118.859 31.5505 119.611 31.1025C120.379 30.6385 120.971 29.9985 121.387 29.1825C121.819 28.3665 122.035 27.4385 122.035 26.3985C122.035 25.2625 121.707 24.3825 121.051 23.7585C120.395 23.1345 119.459 22.8225 118.243 22.8225C117.299 22.8225 116.451 23.0545 115.699 23.5185C114.947 23.9665 114.355 24.5985 113.923 25.4145C113.491 26.2305 113.275 27.1585 113.275 28.1985C113.275 29.3185 113.603 30.1985 114.259 30.8385C114.931 31.4625 115.867 31.7745 117.067 31.7745ZM133.355 33.7905C132.139 33.7905 131.075 33.5665 130.163 33.1185C129.251 32.6545 128.547 32.0145 128.051 31.1985C127.555 30.3665 127.307 29.3985 127.307 28.2945C127.307 26.8705 127.627 25.5905 128.267 24.4545C128.907 23.3185 129.795 22.4305 130.931 21.7905C132.067 21.1345 133.355 20.8065 134.795 20.8065C137.307 20.8065 139.051 21.7265 140.027 23.5665L138.083 24.6465C137.411 23.4305 136.259 22.8225 134.627 22.8225C133.683 22.8225 132.827 23.0545 132.059 23.5185C131.307 23.9665 130.715 24.5985 130.283 25.4145C129.851 26.2305 129.635 27.1585 129.635 28.1985C129.635 29.3185 129.963 30.1985 130.619 30.8385C131.291 31.4625 132.235 31.7745 133.451 31.7745C134.219 31.7745 134.931 31.6225 135.587 31.3185C136.259 31.0145 136.811 30.5665 137.243 29.9745L138.923 31.1745C138.331 31.9905 137.539 32.6305 136.547 33.0945C135.555 33.5585 134.491 33.7905 133.355 33.7905ZM143.086 28.0065V28.1505C143.086 29.3345 143.422 30.2385 144.094 30.8625C144.766 31.4705 145.774 31.7745 147.118 31.7745C147.902 31.7745 148.638 31.6465 149.326 31.3905C150.014 31.1185 150.59 30.7585 151.054 30.3105L152.038 31.9665C151.414 32.5425 150.654 32.9905 149.758 33.3105C148.862 33.6305 147.918 33.7905 146.926 33.7905C145.678 33.7905 144.598 33.5665 143.686 33.1185C142.774 32.6705 142.07 32.0305 141.574 31.1985C141.078 30.3665 140.83 29.3905 140.83 28.2705C140.83 26.8465 141.134 25.5665 141.742 24.4305C142.366 23.2945 143.222 22.4065 144.31 21.7665C145.414 21.1265 146.646 20.8065 148.006 20.8065C149.734 20.8065 151.11 21.3025 152.134 22.2945C153.174 23.2705 153.694 24.6065 153.694 26.3025C153.694 26.8145 153.638 27.3825 153.526 28.0065H143.086ZM147.91 22.7265C146.774 22.7265 145.798 23.0465 144.982 23.6865C144.166 24.3265 143.614 25.2065 143.326 26.3265H151.534C151.598 25.1905 151.294 24.3105 150.622 23.6865C149.966 23.0465 149.062 22.7265 147.91 22.7265ZM171.883 16.8465C173.835 16.8465 175.347 17.2785 176.419 18.1425C177.507 18.9905 178.051 20.1985 178.051 21.7665C178.051 23.1905 177.731 24.4145 177.091 25.4385C176.467 26.4465 175.563 27.2225 174.379 27.7665C173.195 28.2945 171.795 28.5585 170.179 28.5585H165.691L164.683 33.6465H162.283L165.643 16.8465H171.883ZM170.227 26.4705C171.955 26.4705 173.291 26.0865 174.235 25.3185C175.179 24.5505 175.651 23.4385 175.651 21.9825C175.651 20.9905 175.307 20.2385 174.619 19.7265C173.931 19.1985 172.947 18.9345 171.667 18.9345H167.635L166.123 26.4705H170.227ZM193.506 20.9265L190.986 33.6465H188.778L189.09 32.0865C188.514 32.6305 187.842 33.0545 187.074 33.3585C186.322 33.6465 185.498 33.7905 184.602 33.7905C183.514 33.7905 182.546 33.5745 181.698 33.1425C180.85 32.6945 180.186 32.0545 179.706 31.2225C179.226 30.3905 178.986 29.4145 178.986 28.2945C178.986 26.8545 179.298 25.5665 179.922 24.4305C180.546 23.2945 181.402 22.4065 182.49 21.7665C183.594 21.1265 184.826 20.8065 186.186 20.8065C187.274 20.8065 188.202 20.9985 188.97 21.3825C189.754 21.7665 190.354 22.3345 190.77 23.0865L191.202 20.9265H193.506ZM185.106 31.7745C186.05 31.7745 186.898 31.5505 187.65 31.1025C188.418 30.6385 189.01 29.9985 189.426 29.1825C189.858 28.3665 190.074 27.4385 190.074 26.3985C190.074 25.2625 189.746 24.3825 189.09 23.7585C188.434 23.1345 187.498 22.8225 186.282 22.8225C185.338 22.8225 184.49 23.0545 183.738 23.5185C182.986 23.9665 182.394 24.5985 181.962 25.4145C181.53 26.2305 181.314 27.1585 181.314 28.1985C181.314 29.3185 181.642 30.1985 182.298 30.8385C182.97 31.4625 183.906 31.7745 185.106 31.7745ZM213.466 20.8065C214.906 20.8065 216.026 21.1745 216.826 21.9105C217.642 22.6305 218.05 23.6625 218.05 25.0065C218.05 25.3745 217.994 25.8785 217.882 26.5185L216.466 33.6465H214.162L215.578 26.5185C215.658 26.0705 215.698 25.7025 215.698 25.4145C215.698 24.5825 215.466 23.9505 215.002 23.5185C214.538 23.0865 213.834 22.8705 212.89 22.8705C211.706 22.8705 210.73 23.2065 209.962 23.8785C209.21 24.5345 208.698 25.5265 208.426 26.8545L207.058 33.6465H204.754L206.194 26.5185C206.274 26.0865 206.314 25.7265 206.314 25.4385C206.314 24.6065 206.074 23.9745 205.594 23.5425C205.13 23.0945 204.426 22.8705 203.482 22.8705C202.298 22.8705 201.322 23.2065 200.554 23.8785C199.802 24.5505 199.29 25.5665 199.018 26.9265L197.674 33.6465H195.37L197.89 20.9265H200.098L199.786 22.5105C200.906 21.3745 202.378 20.8065 204.202 20.8065C205.194 20.8065 206.042 20.9985 206.746 21.3825C207.45 21.7665 207.962 22.3265 208.282 23.0625C209.578 21.5585 211.306 20.8065 213.466 20.8065ZM229.633 20.8065C230.721 20.8065 231.689 21.0305 232.537 21.4785C233.385 21.9105 234.049 22.5425 234.529 23.3745C235.009 24.1905 235.249 25.1585 235.249 26.2785C235.249 27.7185 234.937 29.0065 234.313 30.1425C233.689 31.2785 232.825 32.1745 231.721 32.8305C230.633 33.4705 229.409 33.7905 228.049 33.7905C226.961 33.7905 226.025 33.5985 225.241 33.2145C224.457 32.8145 223.857 32.2385 223.441 31.4865L222.097 38.3025H219.793L223.249 20.9265H225.457L225.145 22.5105C226.329 21.3745 227.825 20.8065 229.633 20.8065ZM227.953 31.7745C228.897 31.7745 229.745 31.5505 230.497 31.1025C231.249 30.6385 231.841 29.9985 232.273 29.1825C232.705 28.3665 232.921 27.4385 232.921 26.3985C232.921 25.2625 232.593 24.3825 231.937 23.7585C231.281 23.1345 230.345 22.8225 229.129 22.8225C228.185 22.8225 227.329 23.0545 226.561 23.5185C225.809 23.9665 225.217 24.5985 224.785 25.4145C224.369 26.2305 224.161 27.1585 224.161 28.1985C224.161 29.3185 224.489 30.1985 225.145 30.8385C225.817 31.4625 226.753 31.7745 227.953 31.7745ZM246.112 20.8065C247.568 20.8065 248.696 21.1745 249.496 21.9105C250.312 22.6465 250.72 23.6865 250.72 25.0305C250.72 25.4945 250.672 25.9905 250.576 26.5185L249.16 33.6465H246.856L248.272 26.5185C248.352 26.0865 248.392 25.7345 248.392 25.4625C248.392 24.6305 248.144 23.9905 247.648 23.5425C247.152 23.0945 246.416 22.8705 245.44 22.8705C244.192 22.8705 243.16 23.2145 242.344 23.9025C241.544 24.5745 241.008 25.5825 240.736 26.9265L239.392 33.6465H237.088L240.64 15.8385H242.944L241.624 22.4145C242.76 21.3425 244.256 20.8065 246.112 20.8065ZM256.976 15.8385H259.28L255.728 33.6465H253.424L256.976 15.8385ZM262.359 28.0065V28.1505C262.359 29.3345 262.695 30.2385 263.367 30.8625C264.039 31.4705 265.047 31.7745 266.391 31.7745C267.175 31.7745 267.911 31.6465 268.599 31.3905C269.287 31.1185 269.863 30.7585 270.327 30.3105L271.311 31.9665C270.687 32.5425 269.927 32.9905 269.031 33.3105C268.135 33.6305 267.191 33.7905 266.199 33.7905C264.951 33.7905 263.871 33.5665 262.959 33.1185C262.047 32.6705 261.343 32.0305 260.847 31.1985C260.351 30.3665 260.103 29.3905 260.103 28.2705C260.103 26.8465 260.407 25.5665 261.015 24.4305C261.639 23.2945 262.495 22.4065 263.583 21.7665C264.687 21.1265 265.919 20.8065 267.279 20.8065C269.007 20.8065 270.383 21.3025 271.407 22.2945C272.447 23.2705 272.967 24.6065 272.967 26.3025C272.967 26.8145 272.911 27.3825 272.799 28.0065H262.359ZM267.183 22.7265C266.047 22.7265 265.071 23.0465 264.255 23.6865C263.439 24.3265 262.887 25.2065 262.599 26.3265H270.807C270.871 25.1905 270.567 24.3105 269.895 23.6865C269.239 23.0465 268.335 22.7265 267.183 22.7265ZM278.207 29.5905C278.159 29.8305 278.135 30.0545 278.135 30.2625C278.135 30.7745 278.271 31.1665 278.543 31.4385C278.831 31.7105 279.255 31.8465 279.815 31.8465C280.487 31.8465 281.095 31.6465 281.639 31.2465L282.119 32.9985C281.351 33.5265 280.367 33.7905 279.167 33.7905C278.159 33.7905 277.343 33.5105 276.719 32.9505C276.111 32.3745 275.807 31.5905 275.807 30.5985C275.807 30.2625 275.839 29.9425 275.903 29.6385L277.271 22.8225H275.111L275.471 20.9265H277.655L278.207 18.1425H280.511L279.959 20.9265H283.607L283.223 22.8225H279.575L278.207 29.5905Z" fill="#202020"/>
<path d="M397.48 24.2425C397.48 37.079 387.075 47.4849 374.24 47.4849C361.405 47.4849 351 37.079 351 24.2425C351 11.4059 361.405 1 374.24 1C387.075 1 397.48 11.4059 397.48 24.2425Z" fill="white" stroke="#C4C4C4" stroke-width="2"/>
<path d="M366.891 30.8206C365.919 30.8206 364.977 30.6826 364.065 30.4066C363.165 30.1306 362.451 29.7646 361.923 29.3086L362.733 27.4906C363.249 27.8986 363.879 28.2346 364.623 28.4986C365.379 28.7506 366.135 28.8766 366.891 28.8766C367.827 28.8766 368.523 28.7266 368.979 28.4266C369.447 28.1266 369.681 27.7306 369.681 27.2386C369.681 26.8786 369.549 26.5846 369.285 26.3566C369.033 26.1166 368.709 25.9306 368.313 25.7986C367.917 25.6666 367.377 25.5166 366.693 25.3486C365.733 25.1206 364.953 24.8926 364.353 24.6646C363.765 24.4366 363.255 24.0826 362.823 23.6026C362.403 23.1106 362.193 22.4506 362.193 21.6226C362.193 20.9266 362.379 20.2966 362.751 19.7326C363.135 19.1566 363.705 18.7006 364.461 18.3646C365.229 18.0286 366.165 17.8606 367.269 17.8606C368.037 17.8606 368.793 17.9566 369.537 18.1486C370.281 18.3406 370.923 18.6166 371.463 18.9766L370.725 20.7946C370.173 20.4706 369.597 20.2246 368.997 20.0566C368.397 19.8886 367.815 19.8046 367.251 19.8046C366.327 19.8046 365.637 19.9606 365.181 20.2726C364.737 20.5846 364.515 20.9986 364.515 21.5146C364.515 21.8746 364.641 22.1686 364.893 22.3966C365.157 22.6246 365.487 22.8046 365.883 22.9366C366.279 23.0686 366.819 23.2186 367.503 23.3866C368.439 23.6026 369.207 23.8306 369.807 24.0706C370.407 24.2986 370.917 24.6526 371.337 25.1326C371.769 25.6126 371.985 26.2606 371.985 27.0766C371.985 27.7726 371.793 28.4026 371.409 28.9666C371.037 29.5306 370.467 29.9806 369.699 30.3166C368.931 30.6526 367.995 30.8206 366.891 30.8206ZM385.501 18.0406V30.6406H383.161V25.2406H376.645V30.6406H374.305V18.0406H376.645V23.2426H383.161V18.0406H385.501Z" fill="#202020"/>
<ellipse cx="336.24" cy="24.2425" rx="24.24" ry="24.2425" fill="black"/>
<path d="M329.487 30.8206C328.683 30.8206 327.939 30.6646 327.255 30.3526C326.583 30.0286 326.031 29.5786 325.599 29.0026L326.931 27.4006C327.627 28.3606 328.461 28.8406 329.433 28.8406C330.741 28.8406 331.395 28.0666 331.395 26.5186V20.0026H326.913V18.0406H333.735V26.3926C333.735 27.8686 333.375 28.9786 332.655 29.7226C331.935 30.4546 330.879 30.8206 329.487 30.8206ZM340.923 30.8206C339.951 30.8206 339.009 30.6826 338.097 30.4066C337.197 30.1306 336.483 29.7646 335.955 29.3086L336.765 27.4906C337.281 27.8986 337.911 28.2346 338.655 28.4986C339.411 28.7506 340.167 28.8766 340.923 28.8766C341.859 28.8766 342.555 28.7266 343.011 28.4266C343.479 28.1266 343.713 27.7306 343.713 27.2386C343.713 26.8786 343.581 26.5846 343.317 26.3566C343.065 26.1166 342.741 25.9306 342.345 25.7986C341.949 25.6666 341.409 25.5166 340.725 25.3486C339.765 25.1206 338.985 24.8926 338.385 24.6646C337.797 24.4366 337.287 24.0826 336.855 23.6026C336.435 23.1106 336.225 22.4506 336.225 21.6226C336.225 20.9266 336.411 20.2966 336.783 19.7326C337.167 19.1566 337.737 18.7006 338.493 18.3646C339.261 18.0286 340.197 17.8606 341.301 17.8606C342.069 17.8606 342.825 17.9566 343.569 18.1486C344.313 18.3406 344.955 18.6166 345.495 18.9766L344.757 20.7946C344.205 20.4706 343.629 20.2246 343.029 20.0566C342.429 19.8886 341.847 19.8046 341.283 19.8046C340.359 19.8046 339.669 19.9606 339.213 20.2726C338.769 20.5846 338.547 20.9986 338.547 21.5146C338.547 21.8746 338.673 22.1686 338.925 22.3966C339.189 22.6246 339.519 22.8046 339.915 22.9366C340.311 23.0686 340.851 23.2186 341.535 23.3866C342.471 23.6026 343.239 23.8306 343.839 24.0706C344.439 24.2986 344.949 24.6526 345.369 25.1326C345.801 25.6126 346.017 26.2606 346.017 27.0766C346.017 27.7726 345.825 28.4026 345.441 28.9666C345.069 29.5306 344.499 29.9806 343.731 30.3166C342.963 30.6526 342.027 30.8206 340.923 30.8206Z" fill="white"/>
</svg>
