<svg width="125" height="49" viewBox="0 0 125 49" fill="none" xmlns="http://www.w3.org/2000/svg">
<circle cx="100.242" cy="24.2425" r="24.2425" fill="#202020"/>
<path d="M87.9602 18.0406H93.4682C94.8122 18.0406 96.0062 18.3046 97.0502 18.8326C98.0942 19.3486 98.9042 20.0866 99.4802 21.0466C100.056 21.9946 100.344 23.0926 100.344 24.3406C100.344 25.5886 100.056 26.6926 99.4802 27.6526C98.9042 28.6006 98.0942 29.3386 97.0502 29.8666C96.0062 30.3826 94.8122 30.6406 93.4682 30.6406H87.9602V18.0406ZM93.3602 28.6606C94.2842 28.6606 95.0942 28.4866 95.7902 28.1386C96.4982 27.7786 97.0382 27.2746 97.4102 26.6266C97.7942 25.9666 97.9862 25.2046 97.9862 24.3406C97.9862 23.4766 97.7942 22.7206 97.4102 22.0726C97.0382 21.4126 96.4982 20.9086 95.7902 20.5606C95.0942 20.2006 94.2842 20.0206 93.3602 20.0206H90.3002V28.6606H93.3602ZM108.663 30.8206C107.391 30.8206 106.239 30.5446 105.207 29.9926C104.187 29.4286 103.383 28.6546 102.795 27.6706C102.219 26.6866 101.931 25.5766 101.931 24.3406C101.931 23.1046 102.225 21.9946 102.813 21.0106C103.401 20.0266 104.205 19.2586 105.225 18.7066C106.257 18.1426 107.409 17.8606 108.681 17.8606C109.713 17.8606 110.655 18.0406 111.507 18.4006C112.359 18.7606 113.079 19.2826 113.667 19.9666L112.155 21.3886C111.243 20.4046 110.121 19.9126 108.789 19.9126C107.925 19.9126 107.151 20.1046 106.467 20.4886C105.783 20.8606 105.249 21.3826 104.865 22.0546C104.481 22.7266 104.289 23.4886 104.289 24.3406C104.289 25.1926 104.481 25.9546 104.865 26.6266C105.249 27.2986 105.783 27.8266 106.467 28.2106C107.151 28.5826 107.925 28.7686 108.789 28.7686C110.121 28.7686 111.243 28.2706 112.155 27.2746L113.667 28.7146C113.079 29.3986 112.353 29.9206 111.489 30.2806C110.637 30.6406 109.695 30.8206 108.663 30.8206Z" fill="white"/>
<circle cx="62.2425" cy="24.2425" r="24.2425" fill="#E06B65"/>
<path d="M59.2749 24.0886C59.9709 24.3166 60.5229 24.7006 60.9309 25.2406C61.3389 25.7686 61.5429 26.4286 61.5429 27.2206C61.5429 28.3126 61.1229 29.1586 60.2829 29.7586C59.4429 30.3466 58.2189 30.6406 56.6109 30.6406H50.3469V18.0406H56.2509C57.7389 18.0406 58.8849 18.3346 59.6889 18.9226C60.4929 19.4986 60.8949 20.2966 60.8949 21.3166C60.8949 21.9406 60.7509 22.4926 60.4629 22.9726C60.1749 23.4526 59.7789 23.8246 59.2749 24.0886ZM52.6869 19.8766V23.3506H55.9989C56.8149 23.3506 57.4389 23.2066 57.8709 22.9186C58.3149 22.6186 58.5369 22.1866 58.5369 21.6226C58.5369 21.0466 58.3149 20.6146 57.8709 20.3266C57.4389 20.0266 56.8149 19.8766 55.9989 19.8766H52.6869ZM56.4669 28.8046C58.2789 28.8046 59.1849 28.1986 59.1849 26.9866C59.1849 25.7746 58.2789 25.1686 56.4669 25.1686H52.6869V28.8046H56.4669ZM72.2123 27.7246H65.9123L64.6703 30.6406H62.2583L67.9283 18.0406H70.2323L75.9203 30.6406H73.4723L72.2123 27.7246ZM71.4383 25.8886L69.0623 20.3806L66.7043 25.8886H71.4383Z" fill="#202020"/>
<circle cx="24.2425" cy="24.2425" r="24.2425" fill="#FFF599"/>
<path d="M23.7913 28.6606V30.6406H13.0453V29.0746L20.4613 20.0206H13.1713V18.0406H23.5573V19.6066L16.1413 28.6606H23.7913ZM35.7268 28.6606V30.6406H24.9808V29.0746L32.3968 20.0206H25.1068V18.0406H35.4928V19.6066L28.0768 28.6606H35.7268Z" fill="#202020"/>
</svg>
