<svg width="87" height="49" viewBox="0 0 87 49" fill="none" xmlns="http://www.w3.org/2000/svg">
<circle cx="62.2425" cy="24.2425" r="24.2425" fill="#E06B65"/>
<path d="M59.2749 24.0886C59.9709 24.3166 60.5229 24.7006 60.9309 25.2406C61.3389 25.7686 61.5429 26.4286 61.5429 27.2206C61.5429 28.3126 61.1229 29.1586 60.2829 29.7586C59.4429 30.3466 58.2189 30.6406 56.6109 30.6406H50.3469V18.0406H56.2509C57.7389 18.0406 58.8849 18.3346 59.6889 18.9226C60.4929 19.4986 60.8949 20.2966 60.8949 21.3166C60.8949 21.9406 60.7509 22.4926 60.4629 22.9726C60.1749 23.4526 59.7789 23.8246 59.2749 24.0886ZM52.6869 19.8766V23.3506H55.9989C56.8149 23.3506 57.4389 23.2066 57.8709 22.9186C58.3149 22.6186 58.5369 22.1866 58.5369 21.6226C58.5369 21.0466 58.3149 20.6146 57.8709 20.3266C57.4389 20.0266 56.8149 19.8766 55.9989 19.8766H52.6869ZM56.4669 28.8046C58.2789 28.8046 59.1849 28.1986 59.1849 26.9866C59.1849 25.7746 58.2789 25.1686 56.4669 25.1686H52.6869V28.8046H56.4669ZM72.2123 27.7246H65.9123L64.6703 30.6406H62.2583L67.9283 18.0406H70.2323L75.9203 30.6406H73.4723L72.2123 27.7246ZM71.4383 25.8886L69.0623 20.3806L66.7043 25.8886H71.4383Z" fill="#202020"/>
<circle cx="24.2425" cy="24.2425" r="24.2425" fill="#99CC99"/>
<path d="M23.3056 18.0406V30.6406H21.3796L14.4316 22.1086V30.6406H12.1096V18.0406H14.0356L20.9836 26.5726V18.0406H23.3056ZM32.5139 30.8206C31.2419 30.8206 30.0899 30.5446 29.0579 29.9926C28.0379 29.4286 27.2339 28.6546 26.6459 27.6706C26.0699 26.6866 25.7819 25.5766 25.7819 24.3406C25.7819 23.1046 26.0759 21.9946 26.6639 21.0106C27.2519 20.0266 28.0559 19.2586 29.0759 18.7066C30.1079 18.1426 31.2599 17.8606 32.5319 17.8606C33.5639 17.8606 34.5059 18.0406 35.3579 18.4006C36.2099 18.7606 36.9299 19.2826 37.5179 19.9666L36.0059 21.3886C35.0939 20.4046 33.9719 19.9126 32.6399 19.9126C31.7759 19.9126 31.0019 20.1046 30.3179 20.4886C29.6339 20.8606 29.0999 21.3826 28.7159 22.0546C28.3319 22.7266 28.1399 23.4886 28.1399 24.3406C28.1399 25.1926 28.3319 25.9546 28.7159 26.6266C29.0999 27.2986 29.6339 27.8266 30.3179 28.2106C31.0019 28.5826 31.7759 28.7686 32.6399 28.7686C33.9719 28.7686 35.0939 28.2706 36.0059 27.2746L37.5179 28.7146C36.9299 29.3986 36.2039 29.9206 35.3399 30.2806C34.4879 30.6406 33.5459 30.8206 32.5139 30.8206Z" fill="#202020"/>
</svg>
