<svg width="87" height="49" viewBox="0 0 87 49" fill="none" xmlns="http://www.w3.org/2000/svg">
<path d="M85.48 24.2425C85.48 37.079 75.075 47.4849 62.24 47.4849C49.405 47.4849 39 37.079 39 24.2425C39 11.4059 49.405 1 62.24 1C75.075 1 85.48 11.4059 85.48 24.2425Z" fill="white" stroke="#C4C4C4" stroke-width="2"/>
<path d="M54.891 30.8206C53.919 30.8206 52.977 30.6826 52.065 30.4066C51.165 30.1306 50.451 29.7646 49.923 29.3086L50.733 27.4906C51.249 27.8986 51.879 28.2346 52.623 28.4986C53.379 28.7506 54.135 28.8766 54.891 28.8766C55.827 28.8766 56.523 28.7266 56.979 28.4266C57.447 28.1266 57.681 27.7306 57.681 27.2386C57.681 26.8786 57.549 26.5846 57.285 26.3566C57.033 26.1166 56.709 25.9306 56.313 25.7986C55.917 25.6666 55.377 25.5166 54.693 25.3486C53.733 25.1206 52.953 24.8926 52.353 24.6646C51.765 24.4366 51.255 24.0826 50.823 23.6026C50.403 23.1106 50.193 22.4506 50.193 21.6226C50.193 20.9266 50.379 20.2966 50.751 19.7326C51.135 19.1566 51.705 18.7006 52.461 18.3646C53.229 18.0286 54.165 17.8606 55.269 17.8606C56.037 17.8606 56.793 17.9566 57.537 18.1486C58.281 18.3406 58.923 18.6166 59.463 18.9766L58.725 20.7946C58.173 20.4706 57.597 20.2246 56.997 20.0566C56.397 19.8886 55.815 19.8046 55.251 19.8046C54.327 19.8046 53.637 19.9606 53.181 20.2726C52.737 20.5846 52.515 20.9986 52.515 21.5146C52.515 21.8746 52.641 22.1686 52.893 22.3966C53.157 22.6246 53.487 22.8046 53.883 22.9366C54.279 23.0686 54.819 23.2186 55.503 23.3866C56.439 23.6026 57.207 23.8306 57.807 24.0706C58.407 24.2986 58.917 24.6526 59.337 25.1326C59.769 25.6126 59.985 26.2606 59.985 27.0766C59.985 27.7726 59.793 28.4026 59.409 28.9666C59.037 29.5306 58.467 29.9806 57.699 30.3166C56.931 30.6526 55.995 30.8206 54.891 30.8206ZM73.5013 18.0406V30.6406H71.1613V25.2406H64.6453V30.6406H62.3053V18.0406H64.6453V23.2426H71.1613V18.0406H73.5013Z" fill="#202020"/>
<ellipse cx="24.24" cy="24.2425" rx="24.24" ry="24.2425" fill="#99CCFF"/>
<path d="M16.6081 30.8206C15.8041 30.8206 15.0601 30.6646 14.3761 30.3526C13.7041 30.0286 13.1521 29.5786 12.7201 29.0026L14.0521 27.4006C14.7481 28.3606 15.5821 28.8406 16.5541 28.8406C17.8621 28.8406 18.5161 28.0666 18.5161 26.5186V20.0026H14.0341V18.0406H20.8561V26.3926C20.8561 27.8686 20.4961 28.9786 19.7761 29.7226C19.0561 30.4546 18.0001 30.8206 16.6081 30.8206ZM29.9703 30.8206C28.6983 30.8206 27.5463 30.5446 26.5143 29.9926C25.4943 29.4286 24.6903 28.6546 24.1023 27.6706C23.5263 26.6866 23.2383 25.5766 23.2383 24.3406C23.2383 23.1046 23.5323 21.9946 24.1203 21.0106C24.7083 20.0266 25.5123 19.2586 26.5323 18.7066C27.5643 18.1426 28.7163 17.8606 29.9883 17.8606C31.0203 17.8606 31.9623 18.0406 32.8143 18.4006C33.6663 18.7606 34.3863 19.2826 34.9743 19.9666L33.4623 21.3886C32.5503 20.4046 31.4283 19.9126 30.0963 19.9126C29.2323 19.9126 28.4583 20.1046 27.7743 20.4886C27.0903 20.8606 26.5563 21.3826 26.1723 22.0546C25.7883 22.7266 25.5963 23.4886 25.5963 24.3406C25.5963 25.1926 25.7883 25.9546 26.1723 26.6266C26.5563 27.2986 27.0903 27.8266 27.7743 28.2106C28.4583 28.5826 29.2323 28.7686 30.0963 28.7686C31.4283 28.7686 32.5503 28.2706 33.4623 27.2746L34.9743 28.7146C34.3863 29.3986 33.6603 29.9206 32.7963 30.2806C31.9443 30.6406 31.0023 30.8206 29.9703 30.8206Z" fill="#202020"/>
</svg>
