<svg width="80" height="83" viewBox="0 0 80 83" fill="none" xmlns="http://www.w3.org/2000/svg">
<path fill-rule="evenodd" clip-rule="evenodd" d="M42.1893 0.047923C50.8229 -0.425534 59.5462 2.63377 66.097 8.13367C72.3554 13.3882 74.7202 21.4415 76.9138 29.2021C79.0092 36.6153 80.6937 44.3014 78.3996 51.6586C76.0779 59.1039 70.405 64.8226 64.2575 69.7898C57.722 75.0705 50.6555 80.2927 42.1893 80.9165C33.3761 81.5659 24.6444 78.3736 17.5551 73.231C10.5221 68.1292 5.80292 60.6971 3.10886 52.5672C0.418764 44.4493 -0.788722 35.5408 2.4374 27.6105C5.5649 19.9226 13.2448 15.4476 20.1601 10.6528C27.0007 5.90974 33.8066 0.507617 42.1893 0.047923Z" fill="#353535"/>
<path d="M39.5104 13.4656C39.5104 13.4656 26.3404 13.6756 26.1304 32.3156C26.1304 32.3156 19.0304 31.0656 25.1304 40.3156C25.1304 40.3156 25.7204 41.8956 27.5904 40.3156C29.4604 38.7356 25.8404 44.0956 34.3404 49.4756C34.3404 49.4756 34.4604 58.0956 32.3404 59.4756C30.2204 60.8556 43.9604 65.5956 46.2104 59.4756C44.779 57.7122 44.0238 55.4961 44.0804 53.2256C44.0804 53.2256 53.5304 52.7556 53.5804 36.4856C53.5904 20.3156 49.1004 12.5256 39.5104 13.4656Z" fill="#EAC4AF"/>
<path d="M45.4723 59.6647C39.763 64.2322 34.2119 61.5679 32.1501 59.6647C22.054 59.2435 14.3043 74.873 11.6914 82.7404H68.3099C63.0763 73.1454 51.1816 55.0972 45.4723 59.6647Z" fill="#202020"/>
<path d="M26.3198 34.46C24.3676 32.1413 23.0191 29.3757 22.3945 26.4097C21.7699 23.4436 21.8885 20.3691 22.7398 17.46C25.5398 7.03 39.4198 5.79 45.5798 7.25C51.7398 8.71 52.9698 4 52.9698 4C52.9698 4 59.5798 18.56 52.9698 21.58C46.3598 24.6 26.7698 16.94 26.3198 34.46Z" fill="#202020" stroke="#202020" stroke-miterlimit="10"/>
</svg>
