<svg width="80" height="83" viewBox="0 0 80 83" fill="none" xmlns="http://www.w3.org/2000/svg">
<path fill-rule="evenodd" clip-rule="evenodd" d="M40.3783 0.00223137C48.0778 -0.0987379 55.4215 3.23544 61.6576 8.2716C67.9011 13.3136 72.5047 20.2711 75.3623 28.2544C78.3834 36.6945 81.0547 46.1165 78.2596 54.6529C75.498 63.0869 67.7323 67.6716 60.9001 72.4234C54.5463 76.8425 47.8667 81.0453 40.3783 80.9996C32.9145 80.9541 26.4069 76.4789 20.019 72.174C13.0113 67.4515 4.64736 63.4601 1.70734 54.939C-1.27698 46.2895 1.51164 36.5516 4.79004 28.0355C7.83981 20.1133 13.1446 13.7994 19.4596 8.82498C25.7012 3.90836 32.7367 0.102441 40.3783 0.00223137Z" fill="#99CCFF"/>
<path d="M39.9152 15.1727C39.9152 15.1727 26.7452 15.3827 26.5352 33.9827C26.5352 33.9827 19.4252 32.7327 25.5352 41.9827C25.5352 41.9827 26.1351 43.5627 28.0051 41.9827C29.8751 40.4027 26.2552 45.7727 34.7552 51.1427C34.7552 51.1427 34.8751 59.7627 32.7551 61.1427C30.6351 62.5227 45.6233 67.1082 47.8633 60.9882C46.4142 59.214 44.403 57.1326 44.4651 54.8427C44.4651 54.8427 53.9051 54.3627 53.9551 38.1027C54.0051 21.8427 49.4652 14.2327 39.9152 15.1727Z" fill="#E8C0B6"/>
<path d="M64.4657 65.6228C64.4657 65.6228 61.8057 49.5128 63.0457 42.4928C64.2857 35.4728 50.8557 15.1328 50.8557 15.1328C50.8557 15.1328 52.0857 6.34281 45.8557 8.98281C45.8557 8.98281 41.5857 12.0828 33.8557 10.3328C26.1257 8.58281 21.4657 19.0628 22.0157 22.5528C22.0157 22.5528 9.21567 27.2128 13.0957 47.5528C16.9757 67.8928 18.8057 78.0128 24.4257 80.9228C30.0457 83.8328 36.6157 83.6781 42.0957 75.5281C47.5757 67.3781 53.0957 80.9228 53.0957 80.9228C53.0957 80.9228 66.0457 85.7928 64.4657 65.6228ZM51.7557 49.1028C49.2757 52.9428 47.6057 54.4228 45.1457 54.4228C42.6857 54.4228 46.8633 59.9883 46.8633 59.9883C40.3633 65.4883 33.4457 60.1628 33.4457 60.1628C35.8633 58.4883 35.4457 51.1628 35.4457 51.1628C31.9957 50.9428 28.5357 41.6928 28.5357 41.6928C25.7057 43.9128 24.4257 40.1328 24.4257 40.1328C21.9757 32.4628 26.5757 34.0028 26.5757 34.0028C25.9557 25.0028 36.0557 22.8328 42.0957 21.6028C48.1357 20.3728 48.6257 17.7828 48.6257 17.7828C56.0557 26.4428 54.2757 45.2028 51.7557 49.1028Z" fill="#202020"/>
<path d="M46.1442 59.6642C40.4349 64.2317 34.8838 61.5674 32.8219 59.6642C22.7259 59.243 14.9761 74.8725 12.3633 82.7399H68.9818C63.7481 73.1449 51.8535 55.0967 46.1442 59.6642Z" fill="#C3DDF7"/>
</svg>
