<svg width="79" height="88" viewBox="0 0 79 88" fill="none" xmlns="http://www.w3.org/2000/svg">
<path fill-rule="evenodd" clip-rule="evenodd" d="M38.2771 0.121239C46.5944 -0.578627 54.94 1.76903 61.9189 6.7106C69.1418 11.8249 75.1578 19.1217 77.7068 28.0403C80.2348 36.8854 78.7786 46.3968 75.7346 55.0498C72.8062 63.3739 67.8978 70.8439 60.9598 75.6451C54.2798 80.2678 46.2079 80.8814 38.2771 80.971C30.2629 81.0615 21.7365 81.2468 15.2473 76.1615C8.75497 71.0737 6.32806 62.23 3.84403 53.9873C1.35793 45.7378 -1.55175 37.0229 0.970142 28.786C3.48632 20.5679 10.6392 15.4911 17.1659 10.4764C23.6227 5.5153 30.3797 0.785774 38.2771 0.121239Z" fill="#DCE2FF"/>
<path d="M41.7907 19.3912C41.7907 19.3912 28.6207 19.6012 28.4107 38.2012C28.4107 38.2012 21.3007 36.9512 27.3607 46.2012C27.3607 46.2012 27.9607 47.7812 29.8307 46.2012C31.7007 44.6212 28.0807 49.9812 36.5807 55.3612C36.5807 55.3612 36.7007 63.9812 34.5807 65.3612C32.4607 66.7412 46.1907 71.4812 48.4407 65.3612C47.0146 63.5956 46.2631 61.3802 46.3207 59.1112C46.3207 59.1112 55.7607 58.6412 55.8107 42.3712C55.8707 26.2012 51.3707 18.4512 41.7907 19.3912Z" fill="#FDE6D1"/>
<path d="M47.2575 64.4841C41.5482 69.0516 35.9971 66.3872 33.9352 64.4841C23.8391 64.0628 16.0894 79.6923 13.4766 87.5597H70.0951C64.8614 77.9647 52.9668 59.9166 47.2575 64.4841Z" fill="#C1E0DF"/>
<path d="M51.5 20.5C51.5 20.5 41.5467 15.1562 36.8852 18.0422C32.2237 20.9283 32.9748 23.6837 28.8379 23.563C24.7009 23.4424 13.2559 24.9105 16.6059 41.7746C16.6059 41.7746 27.5145 32.885 26.4654 25.4636C26.4654 25.4636 27.443 35.3688 24.5817 38.4058C21.7205 41.4427 15.6283 56.2452 26.7634 60.8107C37.8986 65.3761 36 62.4998 36 62.4998L36.5 55.4998C36.5 55.4998 32 50.9998 33.7259 46.1389C33.1894 46.1389 29.5618 47.9675 28 42.9998C26.4978 38.2031 28.7902 37.0583 32.331 39.2404C32.331 39.2404 32.1045 42.9209 33.0105 42.5388C33.9166 42.1567 35.5738 31.4771 38.4231 30.733C41.2725 29.9888 52.0842 30.2544 51.5 20.5Z" fill="#DFCA70"/>
<path d="M50.1474 22.1667C50.1474 22.1667 55.9109 29.2348 55.6788 36.3963C55.6788 36.3963 61.1119 26.0833 54.0005 21.5317C54.0005 21.5317 49.6917 18.3795 50.1474 22.1667Z" fill="#DFCA70"/>
</svg>
