<svg width="79" height="84" viewBox="0 0 79 84" fill="none" xmlns="http://www.w3.org/2000/svg">
<path fill-rule="evenodd" clip-rule="evenodd" d="M37.6216 0.0215064C45.9681 -0.157107 54.5686 0.696526 61.4588 5.63606C68.4622 10.6567 72.6344 18.7487 75.4467 27.1381C78.3171 35.701 80.6105 45.1222 77.5401 53.6086C74.5278 61.9344 66.5407 66.5995 59.4148 71.4496C52.6689 76.0411 45.6402 80.1094 37.6216 80.7785C29.0994 81.4896 19.9829 80.6967 13.152 75.3097C6.37007 69.9612 3.60525 60.9308 1.52122 52.3085C-0.443095 44.1815 -0.618067 35.8093 1.66246 27.7734C3.98989 19.5723 7.90693 11.7152 14.4813 6.64136C21.0809 1.54805 29.427 0.196867 37.6216 0.0215064Z" fill="#E06B65"/>
<path d="M42.438 14.4507C42.438 14.4507 29.278 14.6607 29.068 33.2707C29.068 33.2707 21.958 32.0107 28.018 41.2107C28.018 41.2107 28.608 42.7907 30.488 41.2107C32.368 39.6307 28.738 45.0007 37.228 50.3707C37.228 50.3707 37.358 58.9907 35.228 60.3707C33.098 61.7507 46.848 66.5007 49.098 60.3707C47.6709 58.6094 46.9192 56.3968 46.978 54.1307C46.978 54.1307 56.438 53.6007 56.498 37.3807C56.558 21.1607 52.058 13.5207 42.438 14.4507Z" fill="#CD9F94"/>
<path d="M57.5881 27.7307C56.1281 27.7307 59.4681 17.3007 54.2481 16.4607C54.2481 16.4607 50.3881 9.25075 48.0981 9.46075C45.8081 9.67075 45.4881 10.1807 42.9781 9.46075C42.9781 9.46075 36.1981 3.52075 34.2181 8.74075C34.2181 8.74075 30.0481 6.96075 26.2881 13.3307C22.5281 19.7007 20.1381 13.6407 21.4881 21.9807C21.4881 21.9807 17.9481 25.6407 19.1981 30.5407C19.1981 30.5407 14.6081 32.8307 17.8381 38.5407C21.0681 44.2507 11.8981 40.4207 18.2581 49.8107C18.2581 49.8107 15.1281 57.0607 17.3181 58.3907C19.5081 59.7207 14.1881 64.5207 17.6281 66.1907C21.0681 67.8607 15.6281 69.6307 20.6281 71.3007C20.6281 71.3007 20.4181 77.7707 24.6281 72.0307C24.6281 72.0307 26.5081 73.3907 30.1581 71.4007C33.8081 69.4107 37.0481 68.4807 38.7181 70.1507C40.3881 71.8207 44.4481 71.3007 46.9581 69.6307C49.4681 67.9607 50.3981 74.7407 51.8581 70.8807C53.3181 67.0207 51.8481 67.6007 55.4381 66.6007C59.0281 65.6007 61.6981 62.0107 60.6481 59.6007C59.9943 58.2998 59.6731 56.8572 59.7132 55.4018C59.7534 53.9464 60.1536 52.5236 60.8781 51.2607C62.6381 47.7107 59.5081 44.6007 62.3181 40.4707C65.1281 36.3407 59.0481 27.7307 57.5881 27.7307ZM53.8081 49.1307C49.4181 55.2807 47.8681 52.1307 46.8081 54.2007C45.7481 56.2707 49.0981 60.3607 49.0981 60.3607C43.7281 66.9907 35.5581 60.9807 35.5581 60.9807C35.5581 60.9807 38.7781 50.9807 36.9581 50.2007C33.3481 48.6207 30.578 41.3307 31.048 40.8007C28.588 43.5007 26.3281 39.4507 25.7381 35.5307C25.3281 32.8307 28.9981 33.9507 28.9981 33.9507C28.8181 30.4307 31.1281 30.6407 30.7881 29.4007C30.5281 28.4707 29.9481 21.0007 33.4781 21.4007C37.0081 21.8007 33.5581 16.0707 38.0381 17.4007C42.5181 18.7307 42.4381 15.3207 42.4381 15.3207C43.3881 14.8907 43.9881 16.0107 45.3681 16.9607C46.7481 17.9107 49.0681 17.3907 49.0681 17.3907C57.4381 19.6007 58.4881 42.6007 53.8081 49.1307Z" fill="#202020"/>
<path d="M48.6442 60.6642C42.9349 65.2317 37.3838 62.5674 35.3219 60.6642C25.2259 60.243 17.4761 75.8725 14.8633 83.7399H71.4818C66.2481 74.1449 54.3535 56.0967 48.6442 60.6642Z" fill="#FFB6B3"/>
</svg>
