<svg width="230" height="166" viewBox="0 0 230 166" fill="none" xmlns="http://www.w3.org/2000/svg">
<rect x="1" y="1" width="228" height="164" fill="white" stroke="white" stroke-width="2"/>
<path d="M64.9354 140.36C66.194 140.36 67.154 140.664 67.8154 141.272C68.4874 141.869 68.8234 142.776 68.8234 143.992V149H66.9354V147.96C66.69 148.333 66.338 148.621 65.8794 148.824C65.4314 149.016 64.8874 149.112 64.2474 149.112C63.6074 149.112 63.0474 149.005 62.5674 148.792C62.0874 148.568 61.714 148.264 61.4474 147.88C61.1914 147.485 61.0634 147.043 61.0634 146.552C61.0634 145.784 61.346 145.171 61.9114 144.712C62.4874 144.243 63.3887 144.008 64.6154 144.008H66.8234V143.88C66.8234 143.283 66.642 142.824 66.2794 142.504C65.9274 142.184 65.3994 142.024 64.6954 142.024C64.2154 142.024 63.7407 142.099 63.2714 142.248C62.8127 142.397 62.4234 142.605 62.1034 142.872L61.3194 141.416C61.7674 141.075 62.306 140.813 62.9354 140.632C63.5647 140.451 64.2314 140.36 64.9354 140.36ZM64.6634 147.656C65.1647 147.656 65.6074 147.544 65.9914 147.32C66.386 147.085 66.6634 146.755 66.8234 146.328V145.336H64.7594C63.6074 145.336 63.0314 145.715 63.0314 146.472C63.0314 146.835 63.1754 147.123 63.4634 147.336C63.7514 147.549 64.1514 147.656 64.6634 147.656ZM71.3901 137.128H73.3901V149H71.3901V137.128ZM84.0471 144.776C84.0471 144.915 84.0365 145.112 84.0151 145.368H77.3111C77.4285 145.997 77.7325 146.499 78.2231 146.872C78.7245 147.235 79.3431 147.416 80.0791 147.416C81.0178 147.416 81.7911 147.107 82.3991 146.488L83.4711 147.72C83.0871 148.179 82.6018 148.525 82.0151 148.76C81.4285 148.995 80.7671 149.112 80.0311 149.112C79.0925 149.112 78.2658 148.925 77.5511 148.552C76.8365 148.179 76.2818 147.661 75.8871 147C75.5031 146.328 75.3111 145.571 75.3111 144.728C75.3111 143.896 75.4978 143.149 75.8711 142.488C76.2551 141.816 76.7831 141.293 77.4551 140.92C78.1271 140.547 78.8845 140.36 79.7271 140.36C80.5591 140.36 81.3005 140.547 81.9511 140.92C82.6125 141.283 83.1245 141.8 83.4871 142.472C83.8605 143.133 84.0471 143.901 84.0471 144.776ZM79.7271 141.96C79.0871 141.96 78.5431 142.152 78.0951 142.536C77.6578 142.909 77.3911 143.411 77.2951 144.04H82.1431C82.0578 143.421 81.7965 142.92 81.3591 142.536C80.9218 142.152 80.3778 141.96 79.7271 141.96ZM96.7523 140.36C97.8296 140.36 98.6829 140.675 99.3123 141.304C99.9416 141.923 100.256 142.856 100.256 144.104V149H98.2563V144.36C98.2563 143.613 98.0909 143.053 97.7603 142.68C97.4296 142.296 96.9549 142.104 96.3363 142.104C95.6643 142.104 95.1256 142.328 94.7203 142.776C94.3149 143.213 94.1123 143.843 94.1123 144.664V149H92.1123V144.36C92.1123 143.613 91.9469 143.053 91.6163 142.68C91.2856 142.296 90.8109 142.104 90.1923 142.104C89.5096 142.104 88.9656 142.323 88.5603 142.76C88.1656 143.197 87.9683 143.832 87.9683 144.664V149H85.9683V140.456H87.8723V141.544C88.1923 141.16 88.5923 140.867 89.0723 140.664C89.5523 140.461 90.0856 140.36 90.6723 140.36C91.3123 140.36 91.8776 140.483 92.3683 140.728C92.8696 140.963 93.2643 141.315 93.5523 141.784C93.9043 141.336 94.3576 140.989 94.9123 140.744C95.4669 140.488 96.0803 140.36 96.7523 140.36ZM106.076 140.36C107.335 140.36 108.295 140.664 108.956 141.272C109.628 141.869 109.964 142.776 109.964 143.992V149H108.076V147.96C107.831 148.333 107.479 148.621 107.02 148.824C106.572 149.016 106.028 149.112 105.388 149.112C104.748 149.112 104.188 149.005 103.708 148.792C103.228 148.568 102.855 148.264 102.588 147.88C102.332 147.485 102.204 147.043 102.204 146.552C102.204 145.784 102.487 145.171 103.052 144.712C103.628 144.243 104.529 144.008 105.756 144.008H107.964V143.88C107.964 143.283 107.783 142.824 107.42 142.504C107.068 142.184 106.54 142.024 105.836 142.024C105.356 142.024 104.881 142.099 104.412 142.248C103.953 142.397 103.564 142.605 103.244 142.872L102.46 141.416C102.908 141.075 103.447 140.813 104.076 140.632C104.705 140.451 105.372 140.36 106.076 140.36ZM105.804 147.656C106.305 147.656 106.748 147.544 107.132 147.32C107.527 147.085 107.804 146.755 107.964 146.328V145.336H105.9C104.748 145.336 104.172 145.715 104.172 146.472C104.172 146.835 104.316 147.123 104.604 147.336C104.892 147.549 105.292 147.656 105.804 147.656ZM117.379 140.36C118.456 140.36 119.32 140.675 119.971 141.304C120.621 141.933 120.947 142.867 120.947 144.104V149H118.947V144.36C118.947 143.613 118.771 143.053 118.419 142.68C118.067 142.296 117.565 142.104 116.915 142.104C116.179 142.104 115.597 142.328 115.171 142.776C114.744 143.213 114.531 143.848 114.531 144.68V149H112.531V140.456H114.435V141.56C114.765 141.165 115.181 140.867 115.683 140.664C116.184 140.461 116.749 140.36 117.379 140.36ZM131.328 140.456L127.328 149.688C126.954 150.616 126.501 151.267 125.968 151.64C125.434 152.024 124.789 152.216 124.032 152.216C123.605 152.216 123.184 152.147 122.768 152.008C122.352 151.869 122.01 151.677 121.744 151.432L122.544 149.96C122.736 150.141 122.96 150.285 123.216 150.392C123.482 150.499 123.749 150.552 124.016 150.552C124.368 150.552 124.656 150.461 124.88 150.28C125.114 150.099 125.328 149.795 125.52 149.368L125.664 149.032L121.936 140.456H124.016L126.704 146.776L129.408 140.456H131.328ZM140.472 138.632C139.629 138.632 139.208 139.091 139.208 140.008V140.52H141.56V142.12H139.272V149H137.272V142.12H135.864V140.52H137.272V139.976C137.272 139.059 137.538 138.339 138.072 137.816C138.605 137.283 139.357 137.016 140.328 137.016C141.096 137.016 141.698 137.171 142.136 137.48L141.576 138.984C141.234 138.749 140.866 138.632 140.472 138.632ZM146.014 140.36C147.272 140.36 148.232 140.664 148.894 141.272C149.566 141.869 149.902 142.776 149.902 143.992V149H148.014V147.96C147.768 148.333 147.416 148.621 146.958 148.824C146.51 149.016 145.966 149.112 145.326 149.112C144.686 149.112 144.126 149.005 143.646 148.792C143.166 148.568 142.792 148.264 142.526 147.88C142.27 147.485 142.142 147.043 142.142 146.552C142.142 145.784 142.424 145.171 142.99 144.712C143.566 144.243 144.467 144.008 145.694 144.008H147.902V143.88C147.902 143.283 147.72 142.824 147.358 142.504C147.006 142.184 146.478 142.024 145.774 142.024C145.294 142.024 144.819 142.099 144.35 142.248C143.891 142.397 143.502 142.605 143.182 142.872L142.398 141.416C142.846 141.075 143.384 140.813 144.014 140.632C144.643 140.451 145.31 140.36 146.014 140.36ZM145.742 147.656C146.243 147.656 146.686 147.544 147.07 147.32C147.464 147.085 147.742 146.755 147.902 146.328V145.336H145.838C144.686 145.336 144.11 145.715 144.11 146.472C144.11 146.835 144.254 147.123 144.542 147.336C144.83 147.549 145.23 147.656 145.742 147.656ZM154.372 141.704C154.948 140.808 155.962 140.36 157.412 140.36V142.264C157.242 142.232 157.087 142.216 156.948 142.216C156.17 142.216 155.562 142.445 155.124 142.904C154.687 143.352 154.468 144.003 154.468 144.856V149H152.468V140.456H154.372V141.704ZM169.893 140.36C170.97 140.36 171.824 140.675 172.453 141.304C173.082 141.923 173.397 142.856 173.397 144.104V149H171.397V144.36C171.397 143.613 171.232 143.053 170.901 142.68C170.57 142.296 170.096 142.104 169.477 142.104C168.805 142.104 168.266 142.328 167.861 142.776C167.456 143.213 167.253 143.843 167.253 144.664V149H165.253V144.36C165.253 143.613 165.088 143.053 164.757 142.68C164.426 142.296 163.952 142.104 163.333 142.104C162.65 142.104 162.106 142.323 161.701 142.76C161.306 143.197 161.109 143.832 161.109 144.664V149H159.109V140.456H161.013V141.544C161.333 141.16 161.733 140.867 162.213 140.664C162.693 140.461 163.226 140.36 163.813 140.36C164.453 140.36 165.018 140.483 165.509 140.728C166.01 140.963 166.405 141.315 166.693 141.784C167.045 141.336 167.498 140.989 168.053 140.744C168.608 140.488 169.221 140.36 169.893 140.36Z" fill="black"/>
<path d="M118.857 111.604C115.054 110.856 111.4 109.452 108.052 107.449C105.448 105.683 104.856 104.489 102.844 104.172C99.0805 103.563 97.1158 107.108 92.6538 108.923C85.5526 111.835 74.9007 109.216 70.1665 103.928C66.391 99.7005 69.125 96.8007 64.3553 91.1841C61.1834 87.4559 59.2661 87.8946 56.248 84.0324C53.5614 80.5844 50.4131 74.2855 52.9104 71.6051C56.0942 68.2303 66.2253 73.4327 69.2197 69.8263C70.6517 68.1206 68.7936 66.4271 70.0126 63.3447C71.3974 59.8358 75.6463 57.2529 79.3981 56.4853C87.9552 54.6212 91.4348 62.2603 101.258 60.6765C103.495 60.3232 105.992 59.4581 109.472 60.2622C111.637 60.8206 113.67 61.8235 115.449 63.2106C122.929 67.9135 135.427 64.1 137.12 63.5883C139.299 62.8743 141.395 61.9141 143.369 60.7252C147.677 57.9961 146.919 55.2182 149.854 54.3167C152.458 53.5247 155.204 55.0599 157.323 56.2538C158.465 56.8787 159.54 57.626 160.53 58.4834C162.669 60.3642 164.581 62.5037 166.223 64.8554C171.146 71.5686 177.017 69.6558 178.697 74.0784C180.378 78.501 174.685 81.2911 170.803 92.7071C167.466 102.454 169.62 106.572 166.199 108.826C161.37 112.042 156.541 104.013 145.546 104.05C133.403 104.062 129.107 113.809 118.857 111.604Z" fill="#EADAC3"/>
<path opacity="0.8" d="M78.6522 106.499L78.5575 106.596C78.5082 106.593 78.4617 106.572 78.4268 106.536C78.3918 106.5 78.371 106.452 78.3682 106.401C78.2734 105.657 78.2734 104.904 78.3682 104.16C78.4628 103.282 78.0841 102.941 78.5575 102.113C78.6522 102.015 78.6522 102.015 78.6522 101.918V102.21C78.7946 103.636 78.7946 105.073 78.6522 106.499Z" fill="#5B9635" stroke="#4F7536" stroke-width="0.3" stroke-miterlimit="3.86"/>
<path opacity="0.8" d="M80.3559 106.499L80.2612 106.596C80.1665 106.596 80.1666 106.401 80.0719 106.401C80.0302 105.45 80.1259 104.497 80.3559 103.575C80.2721 102.669 80.4361 101.758 80.8293 100.943C80.8832 100.892 80.9169 100.823 80.924 100.748V101.138C80.7346 101.857 80.5808 106.011 80.3559 106.499Z" fill="#5B9635" stroke="#4F7536" stroke-width="0.3" stroke-miterlimit="3.86"/>
<path opacity="0.8" d="M78.0818 107.766C78.0818 107.766 78.0818 107.961 77.9872 107.961C77.8925 107.961 77.7978 107.766 77.7978 107.668C77.4364 106.394 77.183 105.089 77.0403 103.77C76.6513 102.595 76.4905 101.353 76.5669 100.115C76.5669 100.017 76.5669 99.8223 76.6616 99.8223C76.7094 100.014 76.7411 100.21 76.7563 100.407C77.3368 102.831 77.7794 105.289 78.0818 107.766Z" fill="#5B9635" stroke="#4F7536" stroke-width="0.3" stroke-miterlimit="3.86"/>
<path opacity="0.9" d="M81.6825 105.914L81.5878 106.012C81.5385 106.009 81.492 105.987 81.457 105.951C81.4221 105.915 81.4013 105.867 81.3984 105.817C81.3037 105.073 81.3037 104.319 81.3984 103.575C81.4931 102.698 81.1144 102.356 81.5878 101.528C81.6825 101.431 81.6825 101.431 81.6825 101.333V101.625C81.8249 103.051 81.8249 104.488 81.6825 105.914Z" fill="#5B9635" stroke="#4F7536" stroke-width="0.3" stroke-miterlimit="3.86"/>
<path opacity="0.9" d="M83.2891 105.914L83.1944 106.012C83.0997 106.012 83.0997 105.817 83.005 105.817C82.9633 104.865 83.0591 103.913 83.2891 102.99C83.2052 102.084 83.3692 101.173 83.7625 100.358C83.8163 100.308 83.8501 100.238 83.8572 100.163V100.553C83.7719 102.35 83.5822 104.14 83.2891 105.914Z" fill="#5B9635" stroke="#4F7536" stroke-width="0.3" stroke-miterlimit="3.86"/>
<path opacity="0.9" d="M81.1142 107.181C81.1142 107.181 81.1142 107.376 81.0195 107.376C80.9248 107.376 80.8302 107.181 80.8302 107.084C80.4688 105.809 80.2153 104.505 80.0727 103.185C79.6837 102.01 79.5228 100.768 79.5993 99.5298C79.5993 99.4324 79.5993 99.2374 79.6939 99.2374C79.7418 99.4292 79.7734 99.6248 79.7886 99.8222C80.3692 102.247 80.8118 104.704 81.1142 107.181Z" fill="#5B9635" stroke="#4F7536" stroke-width="0.3" stroke-miterlimit="3.86"/>
<path opacity="0.8" d="M134.8 103.477C134.8 103.477 134.705 103.672 134.61 103.672C134.516 103.672 134.421 103.477 134.421 103.38C134.279 102.248 134.279 101.101 134.421 99.9686C134.516 98.7502 134.137 98.0192 134.705 96.8496C134.8 96.7521 134.8 96.6546 134.894 96.5571V97.0445C134.894 97.9217 135.084 102.893 134.8 103.477Z" fill="#5B9635" stroke="#4F7536" stroke-width="0.3" stroke-miterlimit="3.86"/>
<path opacity="0.8" d="M136.881 103.477C136.881 103.477 136.786 103.672 136.692 103.672C136.597 103.672 136.502 103.38 136.502 103.38C136.462 101.944 136.557 100.508 136.786 99.0913C136.976 97.4343 136.597 96.5571 137.354 95.0951C137.449 94.9001 137.449 94.8027 137.544 94.7052V95.3875C137.449 96.2647 137.26 102.698 136.881 103.477Z" fill="#5B9635" stroke="#4F7536" stroke-width="0.3" stroke-miterlimit="3.86"/>
<path opacity="0.8" d="M134.135 105.427C134.135 105.524 134.135 105.719 134.04 105.719C133.946 105.719 133.756 105.427 133.756 105.329C133.326 103.369 133.01 101.383 132.809 99.3837C132.525 97.0444 131.957 96.0697 132.147 93.828C132.169 93.6637 132.201 93.501 132.241 93.3406C132.278 93.6384 132.342 93.932 132.431 94.2179C132.656 95.4849 134.23 104.294 134.135 105.427Z" fill="#5B9635" stroke="#4F7536" stroke-width="0.3" stroke-miterlimit="3.86"/>
<path opacity="0.9" d="M138.574 102.6C138.574 102.6 138.479 102.795 138.385 102.795C138.29 102.795 138.195 102.6 138.195 102.503C138.053 101.37 138.053 100.224 138.195 99.0913C138.29 97.8729 137.911 97.1419 138.479 95.9723C138.574 95.8748 138.574 95.7773 138.669 95.6799V96.1672C138.829 98.31 138.797 100.463 138.574 102.6Z" fill="#5B9635" stroke="#4F7536" stroke-width="0.3" stroke-miterlimit="3.86"/>
<path opacity="0.9" d="M140.763 102.6C140.763 102.6 140.668 102.795 140.574 102.795C140.479 102.795 140.384 102.503 140.384 102.503C140.343 101.067 140.439 99.6308 140.668 98.2141C140.858 96.5571 140.479 95.6799 141.236 94.2179C141.331 94.0229 141.331 93.9255 141.426 93.828V94.5468C141.331 95.3875 141.047 101.857 140.763 102.6Z" fill="#5B9635" stroke="#4F7536" stroke-width="0.3" stroke-miterlimit="3.86"/>
<path opacity="0.9" d="M137.924 104.55C137.924 104.647 137.924 104.842 137.829 104.842C137.735 104.842 137.545 104.55 137.545 104.452C137.115 102.491 136.799 100.506 136.598 98.5065C136.314 96.1672 135.746 95.1926 135.936 92.9508C135.958 92.7866 135.989 92.6238 136.03 92.4634C136.067 92.7612 136.131 93.0548 136.22 93.3407C136.409 94.6077 138.019 103.38 137.924 104.55Z" fill="#5B9635" stroke="#4F7536" stroke-width="0.3" stroke-miterlimit="3.86"/>
<path opacity="0.8" d="M111.886 79.0127C111.98 80.3773 112.264 81.2545 111.791 81.8393C111.128 82.6191 110.276 81.9368 109.14 82.7166C108.004 83.4963 108.477 84.3735 107.152 85.933C106.731 86.516 106.178 86.9844 105.542 87.2975C104.358 87.7849 103.554 87.1026 101.66 86.8102C100.618 86.7127 98.5354 86.4204 97.2098 87.59C95.8842 88.7596 96.3576 90.514 95.0321 91.0014C93.9906 91.3912 93.2331 90.4165 91.4815 90.8064C90.5346 91.0014 90.0612 91.4887 89.8718 91.3912C89.5878 91.0988 90.6293 89.7343 92.1442 87.2001C93.8485 84.276 93.5645 84.276 94.1326 83.6912C96.1209 81.8393 98.204 83.2039 99.8136 81.4494C101.234 79.9874 100.192 78.5254 101.518 77.1608C102.843 75.7963 104.548 76.576 107.862 76.0887C109.6 75.7735 111.288 75.216 112.88 74.4317C112.083 75.8106 111.734 77.4157 111.886 79.0127Z" fill="#61A03D" stroke="#61A03D" stroke-miterlimit="3.86"/>
<path opacity="0.8" d="M100.996 68.2912C100.525 69.445 100.33 70.6987 100.428 71.9463C100.618 73.1647 100.996 73.5058 101.186 74.8703C101.28 75.9425 101.47 77.4045 100.618 78.3792C99.5761 79.5976 98.0612 78.7691 97.067 80.0362C96.5936 80.621 96.7829 81.0108 96.4042 82.083C95.8361 83.8374 94.6999 84.3248 93.7531 85.5919C91.67 88.321 92.5695 91.5375 91.9541 91.6837C91.3386 91.8299 89.3976 88.4672 90.0604 85.3482C90.5338 83.2039 91.8594 82.3267 91.8594 79.695C91.8594 78.3305 91.4807 78.233 91.67 77.1609C91.8594 76.0887 92.3328 74.8216 94.8893 72.5798C96.8034 70.9749 98.8464 69.5403 100.996 68.2912Z" fill="#729959" stroke="#729959" stroke-width="0.5" stroke-miterlimit="3.86"/>
<path opacity="0.8" d="M90.8678 92.1101C91.6253 91.6227 91.3412 89.186 90.6784 87.724C90.1183 86.7949 89.4849 85.9147 88.7848 85.0923C87.0805 82.8505 86.8911 82.6556 86.8911 82.2658C86.6071 80.5113 88.0747 79.5366 87.6486 78.6107C87.0805 77.5385 84.7134 78.7081 83.2931 77.2461C82.441 76.3689 83.0091 75.5892 82.1096 74.6145C81.6362 74.1271 80.9261 73.7372 77.1861 73.6398C76.0025 73.6398 74.4402 73.6398 72.5466 73.7373C73.8511 74.7332 75.0422 75.8776 76.0972 77.1486C76.6043 77.6438 77.0072 78.241 77.2807 78.9031C77.7542 80.1214 77.3754 80.755 77.7542 82.0221C78.0644 82.9431 78.6226 83.7544 79.3638 84.3613C80.3729 85.2959 81.5245 86.0533 82.7724 86.6031C87.6841 88.5647 89.6369 92.7558 90.8678 92.1101Z" fill="#5B9635" stroke="#5B9635" stroke-width="0.5" stroke-miterlimit="3.86"/>
<path opacity="0.8" d="M108.761 86.2255C108.078 86.484 107.463 86.9009 106.962 87.4439C106.015 88.4185 106.205 89.1983 105.542 90.3679C104.69 91.9274 102.796 93.4869 101.281 93.1945C100.334 92.9996 100.429 92.1223 99.1033 91.4401C97.9424 90.8027 96.5936 90.6291 95.316 90.9527C93.6117 91.3426 92.9489 91.7325 92.8542 91.5375C92.5702 91.2451 93.801 89.4907 96.2628 87.8824C97.3921 87.1372 98.6432 86.6089 99.9555 86.3229C102.841 85.5641 105.861 85.5307 108.761 86.2255Z" fill="#729959" stroke="#729959" stroke-width="0.5" stroke-miterlimit="3.86"/>
<path opacity="0.8" d="M91.6252 107.863C91.8146 108.546 92.0986 108.253 92.1933 107.668C93.0455 104.647 92.4774 89.9292 92.0986 89.9292C91.7199 89.9292 90.9624 105.329 91.6252 107.863Z" fill="#5B9635" stroke="#4F7536" stroke-width="0.3" stroke-miterlimit="3.86"/>
<path opacity="0.8" d="M113.115 74.0419C108.286 80.5723 104.309 83.009 101.564 83.9837C99.2885 84.6285 97.1845 85.7948 95.4092 87.3951C94.2218 88.4449 93.1997 89.6779 92.3794 91.0502C92.2341 89.918 92.2341 88.771 92.3794 87.6387C92.6697 85.5365 93.2433 83.4861 94.0837 81.547C94.2719 81.1541 94.4302 80.7468 94.5571 80.3286C94.9358 79.2564 95.1252 78.3792 95.2199 78.0868V77.9894C95.4092 77.3071 96.9242 74.578 101.138 68.2425" stroke="#4F7536" stroke-width="0.3" stroke-miterlimit="3.86"/>
<path opacity="0.8" d="M108.476 86.2255C105.779 86.5612 103.117 87.1484 100.523 87.9799C100.523 87.9799 95.6938 89.1983 93.2321 91.0989C93.1457 91.1759 93.0503 91.2413 92.948 91.2938L92.8533 91.3913" stroke="#4F7536" stroke-width="0.3" stroke-miterlimit="3.86"/>
<path opacity="0.8" d="M92.5705 107.279C92.6652 107.474 92.9492 107.863 93.2333 107.766C93.5173 107.669 93.5173 107.279 93.612 107.181C93.8014 105.963 92.9492 95.29 92.5705 90.6115C92.2865 96.2647 91.9077 106.304 92.5705 107.279Z" fill="#5B9635" stroke="#4F7536" stroke-width="0.3" stroke-miterlimit="3.86"/>
<path opacity="0.8" d="M90.7731 91.8786C90.5167 91.5808 90.2943 91.2538 90.1103 90.9039C89.7556 90.3238 89.4695 89.702 89.2582 89.052C88.6901 87.395 86.6071 85.5431 84.6187 83.6912C82.2516 81.6444 81.7782 81.6444 81.0681 80.3773C80.0266 78.8178 80.2159 77.9406 79.5531 76.7222C78.7957 75.3577 76.9967 73.9931 72.5466 73.5058" stroke="#4F7536" stroke-width="0.3" stroke-miterlimit="3.86"/>
<path opacity="0.8" d="M91.1498 91.5861C91.1498 91.3912 90.8658 91.3912 90.1083 90.9039C88.4987 89.6855 88.5934 88.857 87.6465 88.3697C86.1316 87.6874 84.9007 89.588 83.3858 88.857C82.5336 88.4671 82.9124 87.7849 81.9655 87.1026C80.64 86.1279 79.2197 87.1026 77.6101 86.1279C76.9203 85.7598 76.358 85.1811 76.0005 84.4709C75.5271 87.6874 76.1898 89.0519 76.9473 89.7342C78.4622 91.0988 81.0187 90.2216 82.439 92.1709C83.0071 92.9507 82.723 93.2431 83.2911 93.7304C85.1848 95.6798 91.2327 92.7558 91.1498 91.5861Z" fill="#6AA842" stroke="#61A03D" stroke-width="0.5" stroke-miterlimit="3.86"/>
<path opacity="0.8" d="M91.1504 91.5862C87.7418 92.2685 85.4694 91.7811 84.2385 91.0989C83.2306 90.4817 82.1872 89.9283 81.1139 89.4419C80.1217 89.1583 79.1676 88.7491 78.2734 88.2235C77.1915 87.2116 76.4324 85.8865 76.0957 84.4222" stroke="#4F7536" stroke-width="0.3" stroke-miterlimit="3.86"/>
<path opacity="0.9" d="M143.51 106.304C143.699 107.181 144.078 106.791 144.268 106.012C145.309 102.356 145.025 83.8862 144.552 83.8862C144.078 83.8862 142.753 103.075 143.51 106.304Z" fill="#5B9635" stroke="#4F7536" stroke-width="0.3" stroke-miterlimit="3.86"/>
<path opacity="0.9" d="M170.021 70.2406C170.115 71.8975 170.589 72.9697 169.926 73.8956C169.263 74.8216 167.938 73.9931 166.612 74.9678C165.287 75.9425 165.76 77.0146 164.056 78.964C163.506 79.6467 162.83 80.21 162.067 80.621C160.552 81.2058 159.606 80.3286 157.239 80.0362C155.913 79.8412 153.356 79.5488 151.652 81.0109C149.948 82.4729 150.469 84.6659 149.001 85.2995C147.675 85.7868 146.823 84.5197 144.551 85.0071C143.367 85.2995 142.752 85.8843 142.563 85.6894C142.184 85.2995 143.509 83.6425 145.403 80.4261C147.581 76.771 147.202 76.771 147.96 76.04C150.516 73.7007 152.978 75.4552 155.061 73.3109C156.86 71.4589 155.44 69.6558 157.239 67.9501C159.037 66.2444 161.026 67.2678 165.097 66.5855C167.272 66.245 169.381 65.5542 171.346 64.5387C170.44 66.2922 169.984 68.2548 170.021 70.2406Z" fill="#61A03D" stroke="#61A03D" stroke-miterlimit="3.86"/>
<path opacity="0.9" d="M156.48 56.9849C155.847 58.4179 155.617 60.0052 155.817 61.5659C156.007 63.1254 156.575 63.5153 156.764 65.221C156.954 66.5856 157.143 68.4375 156.101 69.6071C154.918 71.0691 152.977 70.0944 151.651 71.6539C151.083 72.4337 151.273 72.8723 150.894 74.2856C150.136 76.5273 148.811 77.0147 147.58 78.6717C145.023 82.0831 146.16 86.1767 145.308 86.2742C144.455 86.3717 142.088 82.278 142.94 78.2818C143.509 75.5527 145.213 74.4805 145.213 71.2641C145.213 69.6071 144.739 69.4121 144.929 68.145C145.118 66.878 145.781 65.221 148.906 62.3944C151.165 60.2259 153.716 58.4041 156.48 56.9849Z" fill="#729959" stroke="#729959" stroke-width="0.5" stroke-miterlimit="3.86"/>
<path opacity="0.9" d="M143.796 86.6153C144.837 86.0305 144.458 82.9602 143.512 81.1571C142.813 79.9869 142.021 78.8784 141.144 77.8431C138.967 75.0165 138.872 74.8216 138.777 74.1881C138.399 71.9463 140.292 70.7766 139.724 69.607C138.967 68.2425 136.032 69.802 134.233 67.9501C133.049 66.8779 133.854 65.8058 132.718 64.6361C132.15 64.0513 131.203 63.4178 126.563 63.4178C125.143 63.4178 123.155 63.4178 120.788 63.5152C122.443 64.7788 123.966 66.2161 125.332 67.8038C125.973 68.444 126.487 69.2052 126.847 70.0457C127.415 71.6051 126.942 72.3849 127.415 73.8469C127.819 74.9835 128.504 75.9916 129.404 76.771C130.625 77.9753 132.076 78.9047 133.664 79.5001C139.819 82.2292 142.375 87.4925 143.796 86.6153Z" fill="#5B9635" stroke="#5B9635" stroke-width="0.5" stroke-miterlimit="3.86"/>
<path opacity="0.9" d="M166.233 79.3051C165.367 79.6355 164.589 80.1695 163.96 80.8646C162.777 82.083 163.013 83.1064 162.161 84.5197C160.978 86.4691 158.611 88.4184 156.859 88.0286C155.675 87.7362 155.817 86.8102 154.113 85.7868C152.648 85.036 150.975 84.8294 149.379 85.202C147.201 85.6893 146.444 86.1767 146.254 85.9817C146.065 85.7868 147.438 83.4475 150.515 81.4007C151.939 80.4777 153.51 79.818 155.155 79.4513C158.779 78.4615 162.585 78.4113 166.233 79.3051Z" fill="#729959" stroke="#729959" stroke-width="0.5" stroke-miterlimit="3.86"/>
<path opacity="0.9" d="M144.741 106.304C144.93 107.084 145.309 106.791 145.498 106.012C146.54 102.21 145.877 83.8862 145.403 83.8862C144.93 83.8862 143.889 103.185 144.741 106.304Z" fill="#5B9635" stroke="#4F7536" stroke-width="0.3" stroke-miterlimit="3.86"/>
<path opacity="0.9" d="M171.632 64.0879C165.714 72.2752 160.649 75.2968 157.145 76.4664C154.311 77.2924 151.692 78.7574 149.476 80.755C147.979 82.0863 146.672 83.6286 145.594 85.336C145.448 83.9104 145.448 82.473 145.594 81.0474C146.003 78.4597 146.735 75.9371 147.772 73.5423C147.866 73.3474 148.056 72.7626 148.34 72.0803C148.651 71.1558 148.904 70.2116 149.097 69.2537V69.1563C149.286 68.279 151.18 64.8676 156.388 56.9727" stroke="#4F7536" stroke-width="0.3" stroke-miterlimit="3.86"/>
<path opacity="0.9" d="M165.796 79.3051C162.422 79.7319 159.093 80.4825 155.854 81.5469C155.854 81.5469 149.795 83.0089 146.765 85.4456C146.645 85.5129 146.546 85.6145 146.481 85.738L146.386 85.8355" stroke="#4F7536" stroke-width="0.3" stroke-miterlimit="3.86"/>
<path opacity="0.9" d="M145.971 105.719C146.065 105.914 146.444 106.401 146.728 106.304C147.012 106.206 147.107 105.719 147.107 105.524C147.391 104.062 146.255 90.6115 145.781 84.8121C145.592 91.8786 145.118 104.452 145.971 105.719Z" fill="#5B9635" stroke="#4F7536" stroke-width="0.3" stroke-miterlimit="3.86"/>
<path opacity="0.9" d="M143.793 86.4203C143.604 86.1279 143.225 85.7381 142.941 85.202C142.497 84.4722 142.146 83.6859 141.9 82.8628C141.237 80.8159 138.586 78.3792 135.982 76.2349C133.047 73.6032 132.431 73.6032 131.437 72.0437C130.112 69.9969 130.396 69.0222 129.543 67.5602C128.597 65.9032 126.324 64.1488 120.738 63.564" stroke="#4F7536" stroke-width="0.3" stroke-miterlimit="3.86"/>
<path opacity="0.9" d="M144.172 86.0183C144.172 85.7259 143.794 85.7259 142.989 85.1411C140.906 83.679 141.095 82.5094 139.959 82.0221C138.065 81.1449 136.408 83.5816 134.657 82.7043C133.615 82.217 134.089 81.3398 132.858 80.4626C131.153 79.2442 129.449 80.3651 127.461 79.2442C126.62 78.7732 125.93 78.0624 125.472 77.1974C124.81 81.1936 125.662 82.948 126.656 83.8253C128.55 85.5797 131.674 84.41 133.473 86.8468C134.136 87.8214 133.852 88.2113 134.515 88.7961C136.787 91.1963 144.362 87.4925 144.172 86.0183Z" fill="#6AA842" stroke="#61A03D" stroke-width="0.5" stroke-miterlimit="3.86"/>
<path opacity="0.9" d="M144.171 86.0183C139.91 86.8955 137.07 86.2132 135.555 85.4335C134.315 84.6471 133.017 83.9627 131.673 83.3866C129.779 82.6069 129.116 82.7044 128.122 81.9246C126.786 80.6715 125.833 79.0463 125.376 77.2461" stroke="#4F7536" stroke-width="0.3" stroke-miterlimit="3.86"/>
<path d="M89.1595 106.401C89.7276 105.427 90.201 104.257 90.8638 104.257C91.5266 104.257 91.9053 105.232 92.4735 105.037C93.0416 104.842 92.9469 104.062 93.4203 103.477C94.2724 102.6 95.1246 104.062 97.1129 103.965C98.2965 103.965 98.4385 103.38 99.2907 103.672C100.15 103.96 100.908 104.502 101.468 105.232C102.794 106.596 102.794 107.279 103.646 107.474C104.498 107.669 104.498 107.084 105.35 107.279C106.119 107.541 106.784 108.055 107.244 108.741C107.623 109.228 107.907 109.715 108.096 109.959C104.972 110.154 101.752 110.251 98.4385 110.349C94.0831 110.446 89.8223 110.349 85.7509 110.154C87.151 109.188 88.3171 107.904 89.1595 106.401Z" fill="#B56F35" stroke="#B56F35" stroke-width="2" stroke-miterlimit="3.86"/>
<path d="M116.432 102.795C116.148 103.867 115.769 103.38 115.485 102.503C114.159 97.8242 114.538 74.8216 115.201 74.8216C115.863 74.8216 117.378 98.7988 116.432 102.795Z" fill="#5B9635" stroke="#4F7536" stroke-width="0.3" stroke-miterlimit="3.86"/>
<path d="M83.195 57.7646C83.1003 59.8114 82.5322 61.176 83.3844 62.2481C84.3312 63.4665 85.8462 62.4431 87.5505 63.6127C89.2548 64.7823 88.592 66.1469 90.675 68.5836C91.3099 69.4735 92.1581 70.1788 93.1368 70.6304C95.0305 71.4102 96.2613 70.2406 99.0545 69.9482C100.664 69.7532 103.883 69.3633 106.061 71.1665C108.239 72.9697 107.387 75.7475 109.375 76.5273C110.985 77.2096 112.121 75.5526 114.867 76.1374C116.382 76.5273 117.139 77.3558 117.328 77.0146C117.802 76.5273 116.145 74.4805 113.778 70.4842C111.032 65.9032 111.6 65.9032 110.653 65.026C107.529 62.1994 104.309 64.2463 101.848 61.6146C99.6699 59.2754 101.28 57.0336 99.1965 54.8893C97.1135 52.745 94.557 54.0121 89.3494 53.1349C86.6281 52.6706 83.983 51.8176 81.4907 50.6006C82.6886 52.7816 83.2784 55.2606 83.195 57.7646Z" fill="#61A03D" stroke="#61A03D" stroke-miterlimit="3.86"/>
<path d="M100.145 41.0975C100.91 42.8711 101.204 44.8218 100.997 46.7507C100.713 48.7 100.05 49.1874 99.8135 51.4291C99.6241 53.0861 99.3401 55.4254 100.666 56.8874C102.275 58.7393 104.642 57.4722 106.157 59.4216C106.915 60.3963 106.536 60.9811 107.199 62.638C108.146 65.4646 109.85 66.1469 111.365 68.0963C114.584 72.3849 113.164 77.4533 114.205 77.5507C115.247 77.6482 118.182 72.5799 117.235 67.609C116.572 64.1976 114.395 62.9305 114.395 58.8368C114.395 56.6925 114.963 56.595 114.773 54.8406C114.584 53.0861 113.732 51.1855 109.755 47.6279C106.76 45.1425 103.542 42.9559 100.145 41.0975Z" fill="#729959" stroke="#729959" stroke-width="0.5" stroke-miterlimit="3.86"/>
<path d="M116.088 78.1355C114.905 77.3558 115.331 73.652 116.467 71.2152C117.365 69.7668 118.379 68.3976 119.497 67.1215C122.148 63.6127 122.432 63.3203 122.527 62.638C123 59.9089 120.633 58.3494 121.343 56.9848C122.29 55.3279 125.983 57.1798 128.16 54.938C129.486 53.5734 128.634 52.3063 129.959 50.8443C130.717 50.0646 131.853 49.3823 137.629 49.2848C139.428 49.2848 141.89 49.2848 144.825 49.4798C142.75 51.0522 140.846 52.8494 139.144 54.8405C138.382 55.6248 137.771 56.5509 137.345 57.5696C136.587 59.519 137.25 60.4937 136.682 62.3456C136.199 63.7713 135.348 65.0348 134.22 66.0007C132.678 67.472 130.879 68.6295 128.918 69.4121C121.071 72.6773 117.852 79.3051 116.088 78.1355Z" fill="#5B9635" stroke="#5B9635" stroke-width="0.5" stroke-miterlimit="3.86"/>
<path d="M88.0247 69.0709C89.1066 69.483 90.0795 70.1507 90.8652 71.0203C92.2854 72.5798 92.0487 73.7494 93.1376 75.6014C94.5578 78.0381 97.493 80.4747 99.7654 79.9874C101.28 79.5975 101.091 78.3305 103.316 77.1608C105.144 76.2136 107.233 75.9384 109.234 76.3811C111.885 76.9659 112.784 77.5995 113.116 77.3558C113.447 77.1121 111.601 74.2368 107.814 71.6051C106.011 70.4093 104.002 69.582 101.896 69.1684C97.3395 68.0496 92.5953 68.0162 88.0247 69.0709Z" fill="#729959" stroke="#729959" stroke-width="0.5" stroke-miterlimit="3.86"/>
<path d="M114.821 102.795C114.537 103.867 114.159 103.38 113.874 102.405C112.691 97.7267 113.401 74.7241 114.064 74.7241C114.727 74.7241 115.957 98.8963 114.821 102.795Z" fill="#5B9635" stroke="#4F7536" stroke-width="0.3" stroke-miterlimit="3.86"/>
<path d="M81.2075 50.0646C88.6875 60.2988 94.9366 64.0026 99.2921 65.5621C102.826 66.6205 106.113 68.4116 108.95 70.8254C110.822 72.491 112.449 74.4282 113.779 76.576C113.972 74.7946 113.972 72.9967 113.779 71.2153C113.279 67.9514 112.356 64.7714 111.033 61.7608C110.938 61.4684 110.654 60.8836 110.37 59.9089C109.802 58.1545 109.518 56.7899 109.423 56.4V56.3026C109.234 55.0842 106.772 50.9418 100.334 41" stroke="#4F7536" stroke-width="0.3" stroke-miterlimit="3.86"/>
<path d="M88.498 69.0709C92.698 69.6305 96.8464 70.5432 100.902 71.8C100.902 71.8 108.476 73.5545 112.264 76.6735L112.642 77.0633L112.737 77.1608" stroke="#4F7536" stroke-width="0.3" stroke-miterlimit="3.86"/>
<path d="M113.117 101.857C113.023 102.052 112.928 102.442 112.739 102.442C112.549 102.442 112.265 101.759 112.171 101.467C111.508 99.3227 112.265 91.1354 112.36 88.5037C112.549 83.4354 111.508 81.0961 113.212 76.4176C113.401 75.9303 113.496 75.6379 113.591 75.3455V77.2948C113.591 80.1823 113.875 99.4811 113.117 101.857Z" fill="#5B9635" stroke="#4F7536" stroke-width="0.3" stroke-miterlimit="3.86"/>
<path d="M116.087 77.9406C116.494 77.5013 116.844 77.0099 117.129 76.4785C117.691 75.5668 118.137 74.584 118.454 73.5545C119.306 71.0203 122.62 67.9988 125.745 65.2697C129.437 62.0532 130.1 62.0532 131.426 60.1038C133.035 57.5696 132.751 56.3026 133.793 54.5481C134.976 52.5013 137.77 50.2595 144.776 49.5772" stroke="#4F7536" stroke-width="0.3" stroke-miterlimit="3.86"/>
<path d="M99.6722 106.012C100.856 104.452 101.661 102.795 103.081 102.698C104.501 102.6 105.448 104.16 106.631 103.77C107.673 103.477 107.389 102.21 108.525 101.431C110.229 100.212 112.218 102.21 116.478 102.113C119.035 102.015 119.224 101.236 121.307 101.528C123.104 101.898 124.791 102.7 126.231 103.867C129.261 105.817 129.45 106.889 131.249 107.181C133.048 107.474 133.048 106.596 135.036 106.889C136.639 107.22 138.135 107.957 139.392 109.033C140.812 110.105 141.57 110.593 141.475 110.982C141.286 112.542 131.344 111.86 120.645 111.957C104.359 112.152 93.4231 114.101 93.0917 112.152C92.7603 110.885 96.3582 110.495 99.6722 106.012Z" fill="#D57D28" stroke="#D57D28" stroke-width="2" stroke-miterlimit="3.86"/>
<path d="M115.672 77.4898C115.766 77.0999 116.145 77.0999 117.281 76.2714C119.838 74.517 119.648 73.0549 121.069 72.3727C123.436 71.3005 125.424 74.322 127.696 73.1524C129.022 72.4701 128.454 71.4955 129.874 70.4233C132.052 68.8638 134.135 70.3258 136.691 68.9613C137.765 68.3464 138.651 67.4349 139.248 66.3296C140.005 71.398 138.964 73.5423 137.828 74.6145C135.46 76.7588 131.484 75.3942 129.306 78.2695C128.454 79.4879 128.833 79.9265 128.122 80.7063C124.856 83.8862 115.388 79.3051 115.672 77.4898Z" fill="#6AA842" stroke="#61A03D" stroke-width="0.5" stroke-miterlimit="3.86"/>
<path d="M115.674 77.4898C120.976 78.7081 124.479 77.7821 126.468 76.71C128.017 75.7207 129.631 74.8414 131.296 74.0784C133.664 73.1037 134.421 73.2012 135.747 72.3239C137.385 70.7095 138.605 68.6992 139.297 66.4758" stroke="#4F7536" stroke-width="0.3" stroke-miterlimit="3.86"/>
<path d="M116.431 104.744C116.904 103.965 118.23 101.625 119.982 101.625C121.496 101.625 122.159 103.282 123.532 102.99C124.574 102.698 124.384 101.528 125.521 100.748C127.32 99.5299 129.071 101.82 133.474 101.967C136.03 102.064 136.314 101.284 138.303 101.772C140.059 102.256 141.68 103.157 143.037 104.403C145.877 106.548 146.067 107.62 147.771 108.058C149.475 108.497 149.665 107.571 151.558 107.961C153.151 108.401 154.615 109.238 155.819 110.398C156.671 111.177 157.334 111.957 157.808 112.444C151.085 112.152 144.078 111.957 136.977 111.957C125.71 111.86 114.821 112.152 104.406 112.737C111.697 110.105 114.904 107.181 116.431 104.744Z" fill="#D68A4C" stroke="#D68A4C" stroke-width="2" stroke-miterlimit="3.86"/>
<path d="M73.5376 108.351C74.3897 107.132 75.0525 105.817 76.094 105.719C77.1355 105.622 77.7983 106.937 78.7452 106.596C79.5026 106.304 79.4079 105.378 80.1654 104.744C81.491 103.672 82.9112 105.427 86.0831 105.329C87.9768 105.329 88.1662 104.647 89.6337 104.939C90.9343 105.283 92.1462 105.915 93.1844 106.791C95.3621 108.448 95.5515 109.228 96.877 109.52C98.2026 109.813 98.2026 109.033 99.7175 109.325C100.91 109.64 102.014 110.241 102.937 111.08C103.316 111.47 103.884 111.957 104.452 112.639C99.4335 112.932 94.2259 113.029 88.9236 113.127C81.8224 113.224 75.0052 113.224 68.3773 113.029C69.5118 112.314 70.5605 111.463 71.5019 110.495C72.2331 109.835 72.9137 109.118 73.5376 108.351Z" fill="#D68A4C" stroke="#D68A4C" stroke-width="2" stroke-miterlimit="3.86"/>
<path d="M142.373 108.156C143.035 107.181 143.556 105.914 144.456 105.914C145.355 105.914 145.781 106.986 146.539 106.791C147.296 106.596 147.107 105.719 147.722 105.134C148.764 104.257 149.805 105.817 152.362 105.719C153.877 105.719 153.971 105.134 155.202 105.427C156.244 105.769 157.188 106.372 157.948 107.181C159.652 108.643 159.747 109.423 160.694 109.618C161.641 109.813 161.735 109.228 162.872 109.423C163.813 109.707 164.663 110.246 165.333 110.982C165.791 111.411 166.19 111.903 166.517 112.444C162.54 112.542 158.469 112.639 154.303 112.639C148.716 112.639 143.414 112.444 138.207 112.152C139.897 111.198 141.329 109.825 142.373 108.156Z" fill="#D57D28" stroke="#D57D28" stroke-width="2" stroke-miterlimit="3.86"/>
<path d="M122.679 108.448C123.247 107.474 123.72 106.304 124.383 106.304C125.046 106.304 125.425 107.279 125.993 107.084C126.561 106.889 126.466 106.109 126.94 105.524C127.792 104.647 128.644 106.109 130.632 106.012C131.816 106.012 131.958 105.427 132.81 105.719C133.67 106.006 134.427 106.549 134.988 107.279C136.313 108.643 136.313 109.325 137.165 109.52C138.018 109.715 138.018 109.131 138.87 109.325C139.639 109.588 140.303 110.101 140.763 110.787C141.142 111.275 141.426 111.762 141.616 112.006C138.491 112.201 135.272 112.298 131.958 112.396C127.602 112.493 123.342 112.396 119.27 112.201C120.676 111.242 121.844 109.957 122.679 108.448Z" fill="#B56F35" stroke="#B56F35" stroke-width="2" stroke-miterlimit="3.86"/>
<path d="M96.1681 114.491C96.2727 114.491 96.3574 114.448 96.3574 114.394C96.3574 114.34 96.2727 114.296 96.1681 114.296C96.0635 114.296 95.9787 114.34 95.9787 114.394C95.9787 114.448 96.0635 114.491 96.1681 114.491Z" fill="#B56F35" stroke="#B56F35" stroke-width="0.5" stroke-miterlimit="3.86" stroke-linecap="round"/>
<path d="M97.9652 114.041C97.9624 114.091 97.9416 114.139 97.9066 114.175C97.8717 114.211 97.8252 114.233 97.7759 114.235C97.6812 114.235 97.4918 114.235 97.4918 114.138" fill="#B56F35"/>
<path d="M97.9652 114.041C97.9624 114.091 97.9416 114.139 97.9066 114.175C97.8717 114.211 97.8252 114.233 97.7759 114.235C97.6812 114.235 97.4918 114.235 97.4918 114.138" stroke="#B56F35" stroke-width="0.5" stroke-miterlimit="3.86" stroke-linecap="round"/>
<path d="M95.0325 112.737C95.2416 112.737 95.4112 112.606 95.4112 112.444C95.4112 112.283 95.2416 112.152 95.0325 112.152C94.8233 112.152 94.6537 112.283 94.6537 112.444C94.6537 112.606 94.8233 112.737 95.0325 112.737Z" fill="#B56F35"/>
<path d="M95.9771 113.127C96.1863 113.127 96.3559 112.996 96.3559 112.834C96.3559 112.673 96.1863 112.542 95.9771 112.542C95.7679 112.542 95.5984 112.673 95.5984 112.834C95.5984 112.996 95.7679 113.127 95.9771 113.127Z" fill="#B56F35"/>
<path d="M97.5894 111.567C97.7986 111.567 97.9682 111.436 97.9682 111.275C97.9682 111.113 97.7986 110.982 97.5894 110.982C97.3802 110.982 97.2107 111.113 97.2107 111.275C97.2107 111.436 97.3802 111.567 97.5894 111.567Z" fill="#B56F35"/>
<path d="M98.2509 113.029C98.46 113.029 98.6296 112.898 98.6296 112.737C98.6296 112.575 98.46 112.444 98.2509 112.444C98.0417 112.444 97.8721 112.575 97.8721 112.737C97.8721 112.898 98.0417 113.029 98.2509 113.029Z" fill="#B56F35"/>
<path d="M98.8193 113.419C99.0285 113.419 99.198 113.288 99.198 113.127C99.198 112.965 99.0285 112.834 98.8193 112.834C98.6101 112.834 98.4406 112.965 98.4406 113.127C98.4406 113.288 98.6101 113.419 98.8193 113.419Z" fill="#B56F35"/>
<path d="M98.8193 113.419C99.0285 113.419 99.198 113.288 99.198 113.127C99.198 112.965 99.0285 112.834 98.8193 112.834C98.6101 112.834 98.4406 112.965 98.4406 113.127C98.4406 113.288 98.6101 113.419 98.8193 113.419Z" fill="#B56F35"/>
<path d="M104.027 114.394C104.183 114.394 104.311 114.307 104.311 114.199C104.311 114.091 104.183 114.004 104.027 114.004C103.87 114.004 103.743 114.091 103.743 114.199C103.743 114.307 103.87 114.394 104.027 114.394Z" fill="#B56F35" stroke="#B56F35" stroke-width="0.5" stroke-miterlimit="3.86" stroke-linecap="round"/>
<path d="M161.31 113.614C161.31 113.712 161.215 113.809 161.026 113.809C160.836 113.809 160.742 113.712 160.742 113.614" fill="#B56F35"/>
<path d="M161.31 113.614C161.31 113.712 161.215 113.809 161.026 113.809C160.836 113.809 160.742 113.712 160.742 113.614" stroke="#B56F35" stroke-width="0.5" stroke-miterlimit="3.86" stroke-linecap="round"/>
<path d="M102.228 110.495C102.437 110.495 102.607 110.364 102.607 110.203C102.607 110.041 102.437 109.91 102.228 109.91C102.019 109.91 101.849 110.041 101.849 110.203C101.849 110.364 102.019 110.495 102.228 110.495Z" fill="#B56F35"/>
<path d="M103.08 110.885C103.289 110.885 103.458 110.754 103.458 110.593C103.458 110.431 103.289 110.3 103.08 110.3C102.87 110.3 102.701 110.431 102.701 110.593C102.701 110.754 102.87 110.885 103.08 110.885Z" fill="#B56F35"/>
<path d="M104.785 109.326C104.994 109.326 105.164 109.195 105.164 109.033C105.164 108.872 104.994 108.741 104.785 108.741C104.576 108.741 104.406 108.872 104.406 109.033C104.406 109.195 104.576 109.326 104.785 109.326Z" fill="#B56F35"/>
<path d="M105.351 110.787C105.56 110.787 105.73 110.657 105.73 110.495C105.73 110.334 105.56 110.203 105.351 110.203C105.142 110.203 104.972 110.334 104.972 110.495C104.972 110.657 105.142 110.787 105.351 110.787Z" fill="#B56F35"/>
<path d="M106.015 111.177C106.224 111.177 106.393 111.046 106.393 110.885C106.393 110.723 106.224 110.593 106.015 110.593C105.806 110.593 105.636 110.723 105.636 110.885C105.636 111.046 105.806 111.177 106.015 111.177Z" fill="#B56F35"/>
<path d="M106.015 111.177C106.224 111.177 106.393 111.046 106.393 110.885C106.393 110.723 106.224 110.593 106.015 110.593C105.806 110.593 105.636 110.723 105.636 110.885C105.636 111.046 105.806 111.177 106.015 111.177Z" fill="#B56F35"/>
<path d="M142.762 112.764C142.913 112.722 143.014 112.603 142.986 112.499C142.959 112.395 142.814 112.345 142.662 112.388C142.511 112.43 142.411 112.549 142.438 112.653C142.466 112.757 142.611 112.807 142.762 112.764Z" fill="#B56F35" stroke="#B56F35" stroke-miterlimit="3.86" stroke-linecap="round"/>
<path d="M144.172 112.639C144.172 112.737 144.077 112.834 143.982 112.932C143.888 113.029 143.698 112.932 143.604 112.834" fill="#B56F35"/>
<path d="M144.172 112.639C144.172 112.737 144.077 112.834 143.982 112.932C143.888 113.029 143.698 112.932 143.604 112.834" stroke="#B56F35" stroke-miterlimit="3.86" stroke-linecap="round"/>
<path d="M142.225 114.016C142.427 113.959 142.557 113.787 142.516 113.631C142.475 113.475 142.277 113.395 142.076 113.451C141.874 113.508 141.744 113.68 141.785 113.836C141.826 113.992 142.023 114.072 142.225 114.016Z" fill="#B56F35"/>
<path d="M143.164 114.112C143.365 114.056 143.496 113.884 143.454 113.728C143.413 113.572 143.216 113.492 143.014 113.548C142.812 113.605 142.682 113.777 142.723 113.933C142.765 114.089 142.962 114.169 143.164 114.112Z" fill="#B56F35"/>
<path d="M106.488 113.711C106.697 113.711 106.867 113.581 106.867 113.419C106.867 113.258 106.697 113.127 106.488 113.127C106.279 113.127 106.109 113.258 106.109 113.419C106.109 113.581 106.279 113.711 106.488 113.711Z" fill="#B56F35"/>
<path d="M145.251 113.447C145.453 113.39 145.583 113.218 145.542 113.062C145.501 112.907 145.304 112.826 145.102 112.883C144.9 112.939 144.77 113.112 144.811 113.267C144.852 113.423 145.049 113.504 145.251 113.447Z" fill="#B56F35"/>
<path d="M146.006 113.629C146.208 113.572 146.338 113.4 146.296 113.244C146.255 113.088 146.058 113.008 145.856 113.064C145.655 113.121 145.524 113.293 145.566 113.449C145.607 113.605 145.804 113.685 146.006 113.629Z" fill="#B56F35"/>
<path d="M146.006 113.629C146.208 113.572 146.338 113.4 146.296 113.244C146.255 113.088 146.058 113.008 145.856 113.064C145.655 113.121 145.524 113.293 145.566 113.449C145.607 113.605 145.804 113.685 146.006 113.629Z" fill="#B56F35"/>
<path d="M118.704 109.715C118.704 109.813 118.609 109.91 118.42 109.91C118.23 109.91 118.135 109.813 118.135 109.715" fill="#B56F35"/>
<path d="M118.704 109.715C118.704 109.813 118.609 109.91 118.42 109.91C118.23 109.91 118.135 109.813 118.135 109.715" stroke="#B56F35" stroke-width="0.5" stroke-miterlimit="3.86" stroke-linecap="round"/>
<path d="M102.228 110.495C102.437 110.495 102.607 110.364 102.607 110.203C102.607 110.041 102.437 109.91 102.228 109.91C102.019 109.91 101.849 110.041 101.849 110.203C101.849 110.364 102.019 110.495 102.228 110.495Z" fill="#B56F35"/>
<path d="M103.08 110.885C103.289 110.885 103.458 110.754 103.458 110.593C103.458 110.431 103.289 110.3 103.08 110.3C102.87 110.3 102.701 110.431 102.701 110.593C102.701 110.754 102.87 110.885 103.08 110.885Z" fill="#B56F35"/>
<path d="M104.785 109.326C104.994 109.326 105.164 109.195 105.164 109.033C105.164 108.872 104.994 108.741 104.785 108.741C104.576 108.741 104.406 108.872 104.406 109.033C104.406 109.195 104.576 109.326 104.785 109.326Z" fill="#B56F35"/>
<path d="M105.351 110.787C105.56 110.787 105.73 110.657 105.73 110.495C105.73 110.334 105.56 110.203 105.351 110.203C105.142 110.203 104.972 110.334 104.972 110.495C104.972 110.657 105.142 110.787 105.351 110.787Z" fill="#B56F35"/>
<path d="M106.015 111.177C106.224 111.177 106.393 111.046 106.393 110.885C106.393 110.723 106.224 110.593 106.015 110.593C105.806 110.593 105.636 110.723 105.636 110.885C105.636 111.046 105.806 111.177 106.015 111.177Z" fill="#B56F35"/>
<path d="M106.015 111.177C106.224 111.177 106.393 111.046 106.393 110.885C106.393 110.723 106.224 110.593 106.015 110.593C105.806 110.593 105.636 110.723 105.636 110.885C105.636 111.046 105.806 111.177 106.015 111.177Z" fill="#B56F35"/>
<path d="M103.08 113.419C103.237 113.419 103.364 113.332 103.364 113.224C103.364 113.117 103.237 113.029 103.08 113.029C102.923 113.029 102.796 113.117 102.796 113.224C102.796 113.332 102.923 113.419 103.08 113.419Z" fill="#B56F35" stroke="#B56F35" stroke-width="0.5" stroke-miterlimit="3.86" stroke-linecap="round"/>
<path d="M102.607 113.614C102.607 113.712 102.513 113.809 102.323 113.809C102.134 113.809 102.039 113.712 102.039 113.614" fill="#B56F35"/>
<path d="M102.607 113.614C102.607 113.712 102.513 113.809 102.323 113.809C102.134 113.809 102.039 113.712 102.039 113.614" stroke="#B56F35" stroke-width="0.5" stroke-miterlimit="3.86" stroke-linecap="round"/>
<path d="M165.097 113.517C165.307 113.517 165.476 113.386 165.476 113.224C165.476 113.063 165.307 112.932 165.097 112.932C164.888 112.932 164.719 113.063 164.719 113.224C164.719 113.386 164.888 113.517 165.097 113.517Z" fill="#B56F35"/>
<path d="M165.951 113.907C166.16 113.907 166.33 113.776 166.33 113.614C166.33 113.453 166.16 113.322 165.951 113.322C165.742 113.322 165.572 113.453 165.572 113.614C165.572 113.776 165.742 113.907 165.951 113.907Z" fill="#B56F35"/>
<path d="M167.559 112.347C167.768 112.347 167.938 112.216 167.938 112.055C167.938 111.893 167.768 111.762 167.559 111.762C167.35 111.762 167.181 111.893 167.181 112.055C167.181 112.216 167.35 112.347 167.559 112.347Z" fill="#B56F35"/>
<path d="M168.223 113.809C168.432 113.809 168.602 113.678 168.602 113.517C168.602 113.355 168.432 113.224 168.223 113.224C168.014 113.224 167.844 113.355 167.844 113.517C167.844 113.678 168.014 113.809 168.223 113.809Z" fill="#B56F35"/>
<path d="M106.015 111.177C106.224 111.177 106.393 111.046 106.393 110.885C106.393 110.723 106.224 110.593 106.015 110.593C105.806 110.593 105.636 110.723 105.636 110.885C105.636 111.046 105.806 111.177 106.015 111.177Z" fill="#B56F35"/>
<path d="M168.791 114.199C169 114.199 169.17 114.068 169.17 113.907C169.17 113.745 169 113.614 168.791 113.614C168.582 113.614 168.413 113.745 168.413 113.907C168.413 114.068 168.582 114.199 168.791 114.199Z" fill="#B56F35"/>
<path d="M64.4503 114.101C64.6595 114.101 64.8291 113.97 64.8291 113.809C64.8291 113.648 64.6595 113.517 64.4503 113.517C64.2411 113.517 64.0716 113.648 64.0716 113.809C64.0716 113.97 64.2411 114.101 64.4503 114.101Z" fill="#B56F35"/>
<path d="M65.2999 114.491C65.5091 114.491 65.6787 114.36 65.6787 114.199C65.6787 114.037 65.5091 113.906 65.2999 113.906C65.0908 113.906 64.9212 114.037 64.9212 114.199C64.9212 114.36 65.0908 114.491 65.2999 114.491Z" fill="#B56F35"/>
<path d="M66.9122 112.932C67.1214 112.932 67.291 112.801 67.291 112.639C67.291 112.478 67.1214 112.347 66.9122 112.347C66.7031 112.347 66.5335 112.478 66.5335 112.639C66.5335 112.801 66.7031 112.932 66.9122 112.932Z" fill="#B56F35"/>
<path d="M67.5737 114.394C67.7828 114.394 67.9524 114.263 67.9524 114.101C67.9524 113.94 67.7828 113.809 67.5737 113.809C67.3645 113.809 67.1949 113.94 67.1949 114.101C67.1949 114.263 67.3645 114.394 67.5737 114.394Z" fill="#B56F35"/>
<path d="M68.1421 114.784C68.3513 114.784 68.5208 114.653 68.5208 114.491C68.5208 114.33 68.3513 114.199 68.1421 114.199C67.9329 114.199 67.7634 114.33 67.7634 114.491C67.7634 114.653 67.9329 114.784 68.1421 114.784Z" fill="#B56F35"/>
<path d="M75.906 115.076C76.1151 115.076 76.2847 114.945 76.2847 114.784C76.2847 114.622 76.1151 114.491 75.906 114.491C75.6968 114.491 75.5272 114.622 75.5272 114.784C75.5272 114.945 75.6968 115.076 75.906 115.076Z" fill="#B56F35"/>
<path d="M73.349 114.394C73.5582 114.394 73.7277 114.263 73.7277 114.101C73.7277 113.94 73.5582 113.809 73.349 113.809C73.1398 113.809 72.9703 113.94 72.9703 114.101C72.9703 114.263 73.1398 114.394 73.349 114.394Z" fill="#B56F35"/>
<path d="M68.047 112.639C68.2562 112.639 68.4257 112.508 68.4257 112.347C68.4257 112.185 68.2562 112.055 68.047 112.055C67.8378 112.055 67.6683 112.185 67.6683 112.347C67.6683 112.508 67.8378 112.639 68.047 112.639Z" fill="#B56F35"/>
<path d="M76.3793 114.394C76.5885 114.394 76.7581 114.263 76.7581 114.101C76.7581 113.94 76.5885 113.809 76.3793 113.809C76.1702 113.809 76.0006 113.94 76.0006 114.101C76.0006 114.263 76.1702 114.394 76.3793 114.394Z" fill="#B56F35"/>
<path d="M77.0408 114.491C77.2499 114.491 77.4195 114.36 77.4195 114.199C77.4195 114.037 77.2499 113.906 77.0408 113.906C76.8316 113.906 76.662 114.037 76.662 114.199C76.662 114.36 76.8316 114.491 77.0408 114.491Z" fill="#B56F35"/>
<path d="M125.711 105.622C125.711 105.622 125.616 105.817 125.521 105.817C125.427 105.817 125.332 105.622 125.332 105.524C125.19 104.392 125.19 103.245 125.332 102.113C125.427 100.894 125.048 100.163 125.616 98.9938C125.711 98.8963 125.711 98.7989 125.806 98.7014V99.1888C125.965 101.332 125.933 103.485 125.711 105.622Z" fill="#5B9635" stroke="#4F7536" stroke-width="0.3" stroke-miterlimit="3.86"/>
<path d="M127.922 105.512C127.922 105.512 127.828 105.707 127.733 105.707C127.638 105.707 127.544 105.415 127.544 105.415C127.503 103.979 127.598 102.543 127.828 101.126C128.017 99.4689 127.638 98.5917 128.396 97.1297C128.49 96.9348 128.49 96.8373 128.585 96.7398V97.4221C128.455 98.409 128.266 104.842 127.922 105.512Z" fill="#5B9635" stroke="#4F7536" stroke-width="0.3" stroke-miterlimit="3.86"/>
<path d="M125.046 107.571C125.046 107.669 125.046 107.863 124.951 107.863C124.857 107.863 124.667 107.571 124.667 107.474C124.237 105.513 123.921 103.528 123.721 101.528C123.437 99.1888 122.868 98.2141 123.058 95.9724C123.08 95.8081 123.112 95.6454 123.153 95.485C123.19 95.7827 123.253 96.0763 123.342 96.3622C123.531 97.5318 125.236 106.401 125.046 107.571Z" fill="#5B9635" stroke="#4F7536" stroke-width="0.3" stroke-miterlimit="3.86"/>
<path d="M83.1026 107.279L83.0079 107.376C82.9132 107.376 82.9132 107.279 82.8185 107.181C82.7238 106.437 82.7238 105.683 82.8185 104.939C82.9132 104.062 82.5345 103.721 83.0079 102.893C83.0079 102.795 83.1026 102.795 83.1026 102.698V102.99C83.1973 103.672 83.3867 106.986 83.1026 107.279Z" fill="#5B9635" stroke="#4F7536" stroke-width="0.3" stroke-miterlimit="3.86"/>
<path d="M84.7115 107.571L84.6169 107.668C84.5222 107.668 84.5222 107.474 84.4275 107.474C84.3962 106.559 84.4597 105.645 84.6169 104.744C84.7115 103.672 84.5222 103.087 84.9956 102.21C85.0494 102.16 85.0831 102.09 85.0903 102.015V102.405C85.1522 104.136 85.0252 105.869 84.7115 107.571Z" fill="#5B9635" stroke="#4F7536" stroke-width="0.3" stroke-miterlimit="3.86"/>
<path d="M82.6278 108.448C82.6278 108.448 82.6278 108.643 82.5332 108.643C82.4385 108.643 82.3438 108.448 82.3438 108.351C82.0598 107.668 81.7757 105.134 81.5863 104.355C81.397 102.795 80.9235 102.015 81.1129 100.699C81.1129 100.602 81.1129 100.407 81.2076 100.407C81.2554 100.599 81.2871 100.795 81.3023 100.992C81.8713 103.452 82.3138 105.941 82.6278 108.448Z" fill="#5B9635" stroke="#4F7536" stroke-width="0.3" stroke-miterlimit="3.86"/>
<path d="M83.953 109.423C84.1622 109.423 84.3317 109.292 84.3317 109.131C84.3317 108.969 84.1622 108.838 83.953 108.838C83.7439 108.838 83.5743 108.969 83.5743 109.131C83.5743 109.292 83.7439 109.423 83.953 109.423Z" fill="#B56F35"/>
<path d="M86.7932 108.741C87.0023 108.741 87.1719 108.61 87.1719 108.448C87.1719 108.287 87.0023 108.156 86.7932 108.156C86.584 108.156 86.4144 108.287 86.4144 108.448C86.4144 108.61 86.584 108.741 86.7932 108.741Z" fill="#B56F35"/>
<path d="M83.3867 108.741C83.5958 108.741 83.7654 108.61 83.7654 108.448C83.7654 108.287 83.5958 108.156 83.3867 108.156C83.1775 108.156 83.0079 108.287 83.0079 108.448C83.0079 108.61 83.1775 108.741 83.3867 108.741Z" fill="#B56F35"/>
<path d="M82.7231 108.838C82.9323 108.838 83.1019 108.707 83.1019 108.546C83.1019 108.384 82.9323 108.253 82.7231 108.253C82.514 108.253 82.3444 108.384 82.3444 108.546C82.3444 108.707 82.514 108.838 82.7231 108.838Z" fill="#B56F35"/>
<path d="M161.309 110.3C161.309 110.3 161.404 110.495 161.499 110.495C161.593 110.495 161.688 110.3 161.688 110.203C161.83 109.07 161.83 107.924 161.688 106.791C161.593 105.573 161.972 104.842 161.404 103.672C161.309 103.575 161.309 103.477 161.215 103.38V103.867C161.215 104.744 161.061 109.715 161.309 110.3Z" fill="#5B9635" stroke="#4F7536" stroke-width="0.3" stroke-miterlimit="3.86"/>
<path d="M159.228 110.3C159.228 110.3 159.322 110.495 159.417 110.495C159.512 110.495 159.607 110.203 159.607 110.203C159.647 108.767 159.552 107.331 159.323 105.914C159.133 104.257 159.512 103.38 158.754 101.918C158.66 101.723 158.66 101.625 158.565 101.528V102.21C158.565 103.075 158.849 109.52 159.228 110.3Z" fill="#5B9635" stroke="#4F7536" stroke-width="0.3" stroke-miterlimit="3.86"/>
<path d="M161.973 112.25C161.973 112.347 161.974 112.542 162.068 112.542C162.163 112.542 162.352 112.25 162.352 112.152C162.783 110.191 163.099 108.206 163.299 106.206C163.583 103.867 164.151 102.893 163.962 100.651C163.94 100.487 163.908 100.324 163.867 100.163C163.83 100.461 163.767 100.755 163.678 101.041C163.488 102.308 161.879 111.08 161.973 112.25Z" fill="#5B9635" stroke="#4F7536" stroke-width="0.3" stroke-miterlimit="3.86"/>
<path d="M158.375 111.08L158.47 111.177C158.564 111.177 158.564 110.982 158.564 110.982C158.545 110.135 158.482 109.289 158.375 108.448C158.28 107.474 158.47 106.986 157.996 106.109C157.942 106.058 157.909 105.989 157.902 105.914V106.304C157.996 106.791 158.186 110.593 158.375 111.08Z" fill="#5B9635" stroke="#4F7536" stroke-width="0.3" stroke-miterlimit="3.86"/>
<path d="M156.956 111.177L157.05 111.275C157.145 111.275 157.145 111.08 157.145 110.982C157.08 109.898 156.922 108.822 156.672 107.766C156.685 106.729 156.491 105.701 156.104 104.744C156.067 104.706 156.04 104.66 156.024 104.609C156.007 104.559 156.002 104.505 156.009 104.452C156.003 104.62 156.035 104.787 156.104 104.939C156.235 107.038 156.52 109.123 156.956 111.177Z" fill="#5B9635" stroke="#4F7536" stroke-width="0.3" stroke-miterlimit="3.86"/>
<path d="M158.944 112.542C158.944 112.639 158.944 112.737 159.038 112.737C159.133 112.737 159.228 112.542 159.228 112.444C159.426 110.926 159.521 109.395 159.512 107.863C159.732 106.445 159.764 105.002 159.606 103.575C159.606 103.38 159.512 103.282 159.512 103.185C159.515 103.416 159.483 103.646 159.417 103.867C159.417 104.842 158.849 111.665 158.944 112.542Z" fill="#5B9635" stroke="#4F7536" stroke-width="0.3" stroke-miterlimit="3.86"/>
<path d="M160.174 112.542C160.383 112.542 160.552 112.455 160.552 112.347C160.552 112.239 160.383 112.152 160.174 112.152C159.965 112.152 159.795 112.239 159.795 112.347C159.795 112.455 159.965 112.542 160.174 112.542Z" fill="#B56F35"/>
<path d="M159.322 112.834C159.531 112.834 159.701 112.747 159.701 112.639C159.701 112.532 159.531 112.444 159.322 112.444C159.113 112.444 158.943 112.532 158.943 112.639C158.943 112.747 159.113 112.834 159.322 112.834Z" fill="#B56F35"/>
<path d="M157.712 111.567C157.921 111.567 158.091 111.48 158.091 111.372C158.091 111.265 157.921 111.177 157.712 111.177C157.503 111.177 157.333 111.265 157.333 111.372C157.333 111.48 157.503 111.567 157.712 111.567Z" fill="#B56F35"/>
<path d="M157.048 112.737C157.257 112.737 157.427 112.65 157.427 112.542C157.427 112.434 157.257 112.347 157.048 112.347C156.839 112.347 156.67 112.434 156.67 112.542C156.67 112.65 156.839 112.737 157.048 112.737Z" fill="#B56F35"/>
<path d="M156.387 113.029C156.596 113.029 156.766 112.942 156.766 112.834C156.766 112.727 156.596 112.639 156.387 112.639C156.178 112.639 156.008 112.727 156.008 112.834C156.008 112.942 156.178 113.029 156.387 113.029Z" fill="#B56F35"/>
</svg>
