<svg width="230" height="165" viewBox="0 0 230 165" fill="none" xmlns="http://www.w3.org/2000/svg">
<rect width="230" height="164.983" rx="6.7" fill="white"/>
<path d="M24.3114 147.312C23.618 147.312 22.9407 147.221 22.2794 147.04C21.618 146.859 21.09 146.629 20.6954 146.352L21.4634 144.832C21.8474 145.088 22.306 145.296 22.8394 145.456C23.3834 145.605 23.9167 145.68 24.4394 145.68C25.634 145.68 26.2314 145.365 26.2314 144.736C26.2314 144.437 26.0767 144.229 25.7674 144.112C25.4687 143.995 24.9834 143.883 24.3114 143.776C23.6074 143.669 23.0314 143.547 22.5834 143.408C22.146 143.269 21.762 143.029 21.4314 142.688C21.1114 142.336 20.9514 141.851 20.9514 141.232C20.9514 140.421 21.2874 139.776 21.9594 139.296C22.642 138.805 23.5594 138.56 24.7114 138.56C25.298 138.56 25.8847 138.629 26.4714 138.768C27.058 138.896 27.538 139.072 27.9114 139.296L27.1434 140.816C26.418 140.389 25.602 140.176 24.6954 140.176C24.1087 140.176 23.6607 140.267 23.3514 140.448C23.0527 140.619 22.9034 140.848 22.9034 141.136C22.9034 141.456 23.0634 141.685 23.3834 141.824C23.714 141.952 24.2207 142.075 24.9034 142.192C25.586 142.299 26.146 142.421 26.5834 142.56C27.0207 142.699 27.394 142.933 27.7034 143.264C28.0234 143.595 28.1834 144.064 28.1834 144.672C28.1834 145.472 27.8367 146.112 27.1434 146.592C26.45 147.072 25.506 147.312 24.3114 147.312ZM35.0418 146.736C34.8071 146.928 34.5191 147.072 34.1778 147.168C33.8471 147.264 33.4951 147.312 33.1218 147.312C32.1831 147.312 31.4578 147.067 30.9457 146.576C30.4338 146.085 30.1778 145.371 30.1778 144.432V140.32H28.7698V138.72H30.1778V136.768H32.1778V138.72H34.4658V140.32H32.1778V144.384C32.1778 144.8 32.2791 145.12 32.4818 145.344C32.6844 145.557 32.9778 145.664 33.3618 145.664C33.8098 145.664 34.1831 145.547 34.4818 145.312L35.0418 146.736ZM44.959 138.656V147.2H43.055V146.112C42.735 146.496 42.335 146.795 41.855 147.008C41.375 147.211 40.8577 147.312 40.303 147.312C39.1617 147.312 38.2603 146.997 37.599 146.368C36.9483 145.728 36.623 144.784 36.623 143.536V138.656H38.623V143.264C38.623 144.032 38.7937 144.608 39.135 144.992C39.487 145.365 39.983 145.552 40.623 145.552C41.3377 145.552 41.903 145.333 42.319 144.896C42.7457 144.448 42.959 143.808 42.959 142.976V138.656H44.959ZM55.9456 135.328V147.2H54.0256V146.096C53.695 146.501 53.2843 146.805 52.7936 147.008C52.3136 147.211 51.7803 147.312 51.1936 147.312C50.3723 147.312 49.631 147.131 48.9696 146.768C48.319 146.405 47.807 145.893 47.4336 145.232C47.0603 144.56 46.8736 143.792 46.8736 142.928C46.8736 142.064 47.0603 141.301 47.4336 140.64C47.807 139.979 48.319 139.467 48.9696 139.104C49.631 138.741 50.3723 138.56 51.1936 138.56C51.759 138.56 52.2763 138.656 52.7456 138.848C53.215 139.04 53.615 139.328 53.9456 139.712V135.328H55.9456ZM51.4336 145.6C51.9136 145.6 52.3456 145.493 52.7296 145.28C53.1136 145.056 53.4176 144.741 53.6416 144.336C53.8656 143.931 53.9776 143.461 53.9776 142.928C53.9776 142.395 53.8656 141.925 53.6416 141.52C53.4176 141.115 53.1136 140.805 52.7296 140.592C52.3456 140.368 51.9136 140.256 51.4336 140.256C50.9536 140.256 50.5216 140.368 50.1376 140.592C49.7536 140.805 49.4496 141.115 49.2256 141.52C49.0016 141.925 48.8896 142.395 48.8896 142.928C48.8896 143.461 49.0016 143.931 49.2256 144.336C49.4496 144.741 49.7536 145.056 50.1376 145.28C50.5216 145.493 50.9536 145.6 51.4336 145.6ZM66.594 142.976C66.594 143.115 66.5833 143.312 66.562 143.568H59.858C59.9753 144.197 60.2793 144.699 60.77 145.072C61.2713 145.435 61.89 145.616 62.626 145.616C63.5647 145.616 64.338 145.307 64.946 144.688L66.018 145.92C65.634 146.379 65.1487 146.725 64.562 146.96C63.9753 147.195 63.314 147.312 62.578 147.312C61.6393 147.312 60.8127 147.125 60.098 146.752C59.3833 146.379 58.8287 145.861 58.434 145.2C58.05 144.528 57.858 143.771 57.858 142.928C57.858 142.096 58.0447 141.349 58.418 140.688C58.802 140.016 59.33 139.493 60.002 139.12C60.674 138.747 61.4313 138.56 62.274 138.56C63.106 138.56 63.8473 138.747 64.498 139.12C65.1593 139.483 65.6713 140 66.034 140.672C66.4073 141.333 66.594 142.101 66.594 142.976ZM62.274 140.16C61.634 140.16 61.09 140.352 60.642 140.736C60.2047 141.109 59.938 141.611 59.842 142.24H64.69C64.6047 141.621 64.3433 141.12 63.906 140.736C63.4687 140.352 62.9247 140.16 62.274 140.16ZM73.3631 138.56C74.4405 138.56 75.3045 138.875 75.9551 139.504C76.6058 140.133 76.9311 141.067 76.9311 142.304V147.2H74.9311V142.56C74.9311 141.813 74.7551 141.253 74.4031 140.88C74.0511 140.496 73.5498 140.304 72.8991 140.304C72.1631 140.304 71.5818 140.528 71.1551 140.976C70.7285 141.413 70.5151 142.048 70.5151 142.88V147.2H68.5151V138.656H70.4191V139.76C70.7498 139.365 71.1658 139.067 71.6671 138.864C72.1685 138.661 72.7338 138.56 73.3631 138.56ZM84.6043 146.736C84.3696 146.928 84.0816 147.072 83.7403 147.168C83.4096 147.264 83.0576 147.312 82.6843 147.312C81.7456 147.312 81.0203 147.067 80.5082 146.576C79.9963 146.085 79.7403 145.371 79.7403 144.432V140.32H78.3323V138.72H79.7403V136.768H81.7403V138.72H84.0283V140.32H81.7403V144.384C81.7403 144.8 81.8416 145.12 82.0443 145.344C82.2469 145.557 82.5403 145.664 82.9243 145.664C83.3723 145.664 83.7456 145.547 84.0443 145.312L84.6043 146.736ZM94.1434 136.832C93.3007 136.832 92.8794 137.291 92.8794 138.208V138.72H95.2314V140.32H92.9434V147.2H90.9434V140.32H89.5354V138.72H90.9434V138.176C90.9434 137.259 91.21 136.539 91.7434 136.016C92.2767 135.483 93.0287 135.216 93.9994 135.216C94.7674 135.216 95.37 135.371 95.8074 135.68L95.2474 137.184C94.906 136.949 94.538 136.832 94.1434 136.832ZM100.293 147.312C99.4286 147.312 98.65 147.125 97.9566 146.752C97.2633 146.379 96.7193 145.861 96.3246 145.2C95.9406 144.528 95.7486 143.771 95.7486 142.928C95.7486 142.085 95.9406 141.333 96.3246 140.672C96.7193 140.011 97.2633 139.493 97.9566 139.12C98.65 138.747 99.4286 138.56 100.293 138.56C101.167 138.56 101.951 138.747 102.645 139.12C103.338 139.493 103.877 140.011 104.261 140.672C104.655 141.333 104.853 142.085 104.853 142.928C104.853 143.771 104.655 144.528 104.261 145.2C103.877 145.861 103.338 146.379 102.645 146.752C101.951 147.125 101.167 147.312 100.293 147.312ZM100.293 145.6C101.029 145.6 101.637 145.355 102.117 144.864C102.597 144.373 102.837 143.728 102.837 142.928C102.837 142.128 102.597 141.483 102.117 140.992C101.637 140.501 101.029 140.256 100.293 140.256C99.5566 140.256 98.9486 140.501 98.4686 140.992C97.9993 141.483 97.7646 142.128 97.7646 142.928C97.7646 143.728 97.9993 144.373 98.4686 144.864C98.9486 145.355 99.5566 145.6 100.293 145.6ZM110.605 147.312C109.741 147.312 108.962 147.125 108.269 146.752C107.576 146.379 107.032 145.861 106.637 145.2C106.253 144.528 106.061 143.771 106.061 142.928C106.061 142.085 106.253 141.333 106.637 140.672C107.032 140.011 107.576 139.493 108.269 139.12C108.962 138.747 109.741 138.56 110.605 138.56C111.48 138.56 112.264 138.747 112.957 139.12C113.65 139.493 114.189 140.011 114.573 140.672C114.968 141.333 115.165 142.085 115.165 142.928C115.165 143.771 114.968 144.528 114.573 145.2C114.189 145.861 113.65 146.379 112.957 146.752C112.264 147.125 111.48 147.312 110.605 147.312ZM110.605 145.6C111.341 145.6 111.949 145.355 112.429 144.864C112.909 144.373 113.149 143.728 113.149 142.928C113.149 142.128 112.909 141.483 112.429 140.992C111.949 140.501 111.341 140.256 110.605 140.256C109.869 140.256 109.261 140.501 108.781 140.992C108.312 141.483 108.077 142.128 108.077 142.928C108.077 143.728 108.312 144.373 108.781 144.864C109.261 145.355 109.869 145.6 110.605 145.6ZM125.446 135.328V147.2H123.526V146.096C123.195 146.501 122.784 146.805 122.294 147.008C121.814 147.211 121.28 147.312 120.694 147.312C119.872 147.312 119.131 147.131 118.47 146.768C117.819 146.405 117.307 145.893 116.934 145.232C116.56 144.56 116.374 143.792 116.374 142.928C116.374 142.064 116.56 141.301 116.934 140.64C117.307 139.979 117.819 139.467 118.47 139.104C119.131 138.741 119.872 138.56 120.694 138.56C121.259 138.56 121.776 138.656 122.246 138.848C122.715 139.04 123.115 139.328 123.446 139.712V135.328H125.446ZM120.934 145.6C121.414 145.6 121.846 145.493 122.23 145.28C122.614 145.056 122.918 144.741 123.142 144.336C123.366 143.931 123.478 143.461 123.478 142.928C123.478 142.395 123.366 141.925 123.142 141.52C122.918 141.115 122.614 140.805 122.23 140.592C121.846 140.368 121.414 140.256 120.934 140.256C120.454 140.256 120.022 140.368 119.638 140.592C119.254 140.805 118.95 141.115 118.726 141.52C118.502 141.925 118.39 142.395 118.39 142.928C118.39 143.461 118.502 143.931 118.726 144.336C118.95 144.741 119.254 145.056 119.638 145.28C120.022 145.493 120.454 145.6 120.934 145.6ZM136.404 147.312C135.519 147.312 134.724 147.125 134.02 146.752C133.316 146.379 132.767 145.861 132.372 145.2C131.977 144.528 131.78 143.771 131.78 142.928C131.78 142.085 131.977 141.333 132.372 140.672C132.767 140.011 133.311 139.493 134.004 139.12C134.708 138.747 135.508 138.56 136.404 138.56C137.247 138.56 137.983 138.731 138.612 139.072C139.252 139.413 139.732 139.904 140.052 140.544L138.516 141.44C138.271 141.045 137.961 140.752 137.588 140.56C137.225 140.357 136.825 140.256 136.388 140.256C135.641 140.256 135.023 140.501 134.532 140.992C134.041 141.472 133.796 142.117 133.796 142.928C133.796 143.739 134.036 144.389 134.516 144.88C135.007 145.36 135.631 145.6 136.388 145.6C136.825 145.6 137.225 145.504 137.588 145.312C137.961 145.109 138.271 144.811 138.516 144.416L140.052 145.312C139.721 145.952 139.236 146.448 138.596 146.8C137.967 147.141 137.236 147.312 136.404 147.312ZM145.496 147.312C144.632 147.312 143.853 147.125 143.16 146.752C142.466 146.379 141.922 145.861 141.528 145.2C141.144 144.528 140.952 143.771 140.952 142.928C140.952 142.085 141.144 141.333 141.528 140.672C141.922 140.011 142.466 139.493 143.16 139.12C143.853 138.747 144.632 138.56 145.496 138.56C146.37 138.56 147.154 138.747 147.848 139.12C148.541 139.493 149.08 140.011 149.464 140.672C149.858 141.333 150.056 142.085 150.056 142.928C150.056 143.771 149.858 144.528 149.464 145.2C149.08 145.861 148.541 146.379 147.848 146.752C147.154 147.125 146.37 147.312 145.496 147.312ZM145.496 145.6C146.232 145.6 146.84 145.355 147.32 144.864C147.8 144.373 148.04 143.728 148.04 142.928C148.04 142.128 147.8 141.483 147.32 140.992C146.84 140.501 146.232 140.256 145.496 140.256C144.76 140.256 144.152 140.501 143.672 140.992C143.202 141.483 142.968 142.128 142.968 142.928C142.968 143.728 143.202 144.373 143.672 144.864C144.152 145.355 144.76 145.6 145.496 145.6ZM151.968 135.328H153.968V147.2H151.968V135.328ZM156.593 135.328H158.593V147.2H156.593V135.328ZM169.25 142.976C169.25 143.115 169.24 143.312 169.218 143.568H162.514C162.632 144.197 162.936 144.699 163.426 145.072C163.928 145.435 164.546 145.616 165.282 145.616C166.221 145.616 166.994 145.307 167.602 144.688L168.674 145.92C168.29 146.379 167.805 146.725 167.218 146.96C166.632 147.195 165.97 147.312 165.234 147.312C164.296 147.312 163.469 147.125 162.754 146.752C162.04 146.379 161.485 145.861 161.09 145.2C160.706 144.528 160.514 143.771 160.514 142.928C160.514 142.096 160.701 141.349 161.074 140.688C161.458 140.016 161.986 139.493 162.658 139.12C163.33 138.747 164.088 138.56 164.93 138.56C165.762 138.56 166.504 138.747 167.154 139.12C167.816 139.483 168.328 140 168.69 140.672C169.064 141.333 169.25 142.101 169.25 142.976ZM164.93 140.16C164.29 140.16 163.746 140.352 163.298 140.736C162.861 141.109 162.594 141.611 162.498 142.24H167.346C167.261 141.621 167 141.12 166.562 140.736C166.125 140.352 165.581 140.16 164.93 140.16ZM175.091 147.312C174.206 147.312 173.411 147.125 172.707 146.752C172.003 146.379 171.454 145.861 171.059 145.2C170.665 144.528 170.467 143.771 170.467 142.928C170.467 142.085 170.665 141.333 171.059 140.672C171.454 140.011 171.998 139.493 172.691 139.12C173.395 138.747 174.195 138.56 175.091 138.56C175.934 138.56 176.67 138.731 177.299 139.072C177.939 139.413 178.419 139.904 178.739 140.544L177.203 141.44C176.958 141.045 176.649 140.752 176.275 140.56C175.913 140.357 175.513 140.256 175.075 140.256C174.329 140.256 173.71 140.501 173.219 140.992C172.729 141.472 172.483 142.117 172.483 142.928C172.483 143.739 172.723 144.389 173.203 144.88C173.694 145.36 174.318 145.6 175.075 145.6C175.513 145.6 175.913 145.504 176.275 145.312C176.649 145.109 176.958 144.811 177.203 144.416L178.739 145.312C178.409 145.952 177.923 146.448 177.283 146.8C176.654 147.141 175.923 147.312 175.091 147.312ZM185.714 146.736C185.479 146.928 185.191 147.072 184.85 147.168C184.519 147.264 184.167 147.312 183.794 147.312C182.855 147.312 182.13 147.067 181.618 146.576C181.106 146.085 180.85 145.371 180.85 144.432V140.32H179.442V138.72H180.85V136.768H182.85V138.72H185.138V140.32H182.85V144.384C182.85 144.8 182.951 145.12 183.154 145.344C183.356 145.557 183.65 145.664 184.034 145.664C184.482 145.664 184.855 145.547 185.154 145.312L185.714 146.736ZM187.359 138.656H189.359V147.2H187.359V138.656ZM188.367 137.248C188.004 137.248 187.7 137.136 187.455 136.912C187.21 136.677 187.087 136.389 187.087 136.048C187.087 135.707 187.21 135.424 187.455 135.2C187.7 134.965 188.004 134.848 188.367 134.848C188.73 134.848 189.034 134.96 189.279 135.184C189.524 135.397 189.647 135.669 189.647 136C189.647 136.352 189.524 136.651 189.279 136.896C189.044 137.131 188.74 137.248 188.367 137.248ZM199.984 138.656L196.32 147.2H194.256L190.592 138.656H192.672L195.328 144.992L198.064 138.656H199.984ZM209.032 142.976C209.032 143.115 209.021 143.312 209 143.568H202.296C202.413 144.197 202.717 144.699 203.208 145.072C203.709 145.435 204.328 145.616 205.064 145.616C206.002 145.616 206.776 145.307 207.384 144.688L208.456 145.92C208.072 146.379 207.586 146.725 207 146.96C206.413 147.195 205.752 147.312 205.016 147.312C204.077 147.312 203.25 147.125 202.536 146.752C201.821 146.379 201.266 145.861 200.872 145.2C200.488 144.528 200.296 143.771 200.296 142.928C200.296 142.096 200.482 141.349 200.856 140.688C201.24 140.016 201.768 139.493 202.44 139.12C203.112 138.747 203.869 138.56 204.712 138.56C205.544 138.56 206.285 138.747 206.936 139.12C207.597 139.483 208.109 140 208.472 140.672C208.845 141.333 209.032 142.101 209.032 142.976ZM204.712 140.16C204.072 140.16 203.528 140.352 203.08 140.736C202.642 141.109 202.376 141.611 202.28 142.24H207.128C207.042 141.621 206.781 141.12 206.344 140.736C205.906 140.352 205.362 140.16 204.712 140.16Z" fill="black"/>
<path d="M116.164 53.1182C112.604 53.5148 109.733 55.1972 105.076 57.925C96.6619 62.828 96.6496 65.9284 91.7956 67.9473C82.4449 71.8529 74.6342 62.131 67.4518 65.5439C61.526 68.3799 65.4191 75.3018 58.0519 81.3824C51.4239 86.8502 44.3523 84.4828 41.6666 89.4218C38.7222 94.8295 44.9191 101.835 45.3626 102.28C45.8061 102.725 51.1651 108.661 56.6967 107.952C58.5077 107.724 59.5056 106.895 61.7232 107.075C63.7424 107.344 65.6383 108.179 67.1808 109.478C74.203 114.141 86.1039 103.89 100.038 106.438C102.864 107.146 105.825 107.166 108.661 106.498C110.902 105.813 112.974 104.683 114.747 103.181C122.324 98.002 135.494 101.367 137.268 101.811C149.045 104.828 148.355 111.425 155.526 111.353C164.864 111.185 167.919 99.7686 179.869 98.9514C181.545 98.8312 184.797 98.8312 186.029 97.0888C187.384 95.13 185.401 92.1497 184.797 91.1763C178.366 80.6494 188.259 66.0847 182.087 61.2658C175.188 55.8821 160.047 72.0812 142.799 66.9859C130.406 63.3087 126.697 51.9405 116.164 53.1182Z" fill="#DCF4D7"/>
<path opacity="0.69" d="M30 77.4047C34.3659 78.8033 39.0058 79.1901 43.5517 78.5343C46.2251 78.1377 49.0463 77.7051 49.921 75.9026C51.2885 73.0545 47.802 68.0915 45.7816 68.3678C43.022 68.7524 40.287 79.3154 44.9561 83.8098C46.3113 85.1077 48.2455 85.8407 56.5367 86.069C72.3675 86.4896 76.3222 84.1102 80.1166 86.8141C85.3895 90.5754 85.4511 100.61 82.1864 102.256C79.7224 103.458 74.1539 100.646 73.9198 97.7376C73.5379 93.2552 85.5989 86.3695 95.4301 88.7008C101.688 90.1909 107.035 95.4183 106.185 96.9806C105.335 98.5428 98.9781 97.7857 98.3252 95.8509C97.4751 93.3394 106.493 88.7609 110.325 86.8141C129.309 77.2004 143.588 78.0777 144.253 73.2588C144.561 70.8554 141.383 67.8751 138.869 67.9953C136.356 68.1155 133.942 71.3361 134.496 73.8356C135.1 76.9481 140.151 78.9669 144.105 78.5223C148.972 77.9815 149.575 73.9798 156.918 68.8125C161.082 65.8683 169.09 61.3979 171.504 63.3087C173.919 65.2194 171.098 73.0065 168.474 73.1867C166.774 73.2949 164.507 70.1945 165.271 68.488C166.207 66.4211 171.899 65.7241 174.523 67.8391C177.147 69.9541 174.523 73.6073 177.196 78.1978C177.344 78.4502 180.584 83.7377 186.448 84.0381C188.75 84.0588 191.011 83.4464 192.972 82.271C194.933 81.0956 196.515 79.4049 197.536 77.3927" stroke="#4B964B" stroke-width="0.3" stroke-miterlimit="10"/>
<path d="M31.1434 76.5876C35.4927 77.9641 40.1074 78.3505 44.6335 77.7172C47.3069 77.3086 50.1281 76.888 51.0028 75.0734C52.3703 72.2254 48.8838 67.2623 46.8634 67.5507C44.1161 67.9232 41.3688 78.4983 46.038 82.9807C47.4055 84.2905 49.3273 85.0236 57.6185 85.2399C73.4494 85.6605 77.4163 83.2931 81.2108 85.997C86.4713 89.7463 86.5329 99.7806 83.2805 101.427C80.8166 102.629 75.248 99.8286 75.0016 96.9085C74.6197 92.4381 86.6931 85.5403 96.5119 87.8716C102.77 89.3617 108.117 94.6012 107.267 96.1634C106.417 97.7256 100.06 96.9686 99.407 95.0338C98.5693 92.5102 107.587 87.9317 111.406 85.997C130.391 76.3833 144.67 77.2485 145.335 72.4417C145.643 70.0382 142.464 67.046 139.951 67.1662C137.438 67.2863 135.097 70.5189 135.578 73.0065C136.181 76.1189 141.245 78.1498 145.187 77.7052C150.053 77.1644 150.657 73.1507 158 67.9833C162.176 65.0512 170.172 60.5808 172.586 62.4795C175.001 64.3782 172.18 72.1893 169.568 72.3576C167.855 72.4777 165.589 69.3653 166.365 67.6589C167.289 65.6039 172.993 64.907 175.617 67.022C178.241 69.137 175.617 72.7781 178.278 77.3807C178.426 77.633 181.666 82.9206 187.53 83.209C189.831 83.2322 192.091 82.6221 194.053 81.4488C196.014 80.2754 197.596 78.5864 198.618 76.5755" stroke="#76A576" stroke-width="0.5" stroke-miterlimit="10"/>
<path d="M32.5255 75.3017C36.8721 76.691 41.4899 77.0777 46.0156 76.4313C48.689 76.0348 51.5102 75.6142 52.3849 73.7996C53.7524 70.9516 50.2659 65.9885 48.2455 66.2649C45.4982 66.6494 42.7509 77.2245 47.4201 81.7069C48.7752 83.0167 50.7094 83.7498 59.0006 83.9661C74.8315 84.3867 78.7861 82.0193 82.5806 84.7231C87.8534 88.4725 87.915 98.5068 84.6503 100.153C82.1863 101.355 76.6301 98.5548 76.3838 95.6347C76.0018 91.1523 88.0628 84.2665 97.894 86.5978C104.152 88.0879 109.499 93.3154 108.649 94.8896C107.799 96.4638 101.442 95.6947 100.789 93.76C99.9514 91.2364 108.969 86.6579 112.789 84.7231C131.773 75.1095 146.052 75.9747 146.717 71.1679C147.025 68.7644 143.847 65.7722 141.333 65.8924C138.82 66.0125 136.467 69.2331 136.96 71.7327C137.564 74.8451 142.627 76.864 146.569 76.4313C151.436 75.8786 152.039 71.8769 159.382 66.7095C163.558 63.7774 171.554 59.307 173.968 61.2057C176.383 63.1044 173.562 70.9035 170.938 71.0837C169.238 71.2039 166.971 68.0915 167.747 66.3851C168.671 64.3301 174.362 63.6332 176.999 65.7361C179.635 67.8391 176.999 71.5043 179.66 76.1069C179.808 76.3472 183.048 81.6348 188.912 81.9352C191.214 81.9573 193.476 81.3454 195.437 80.1699C197.398 78.9943 198.98 77.3028 200 75.2897" stroke="#4B964B" stroke-width="0.5" stroke-miterlimit="10"/>
<path d="M176.53 79.1592C176.652 79.1592 176.752 79.1108 176.752 79.0511C176.752 78.9914 176.652 78.9429 176.53 78.9429C176.408 78.9429 176.308 78.9914 176.308 79.0511C176.308 79.1108 176.408 79.1592 176.53 79.1592Z" fill="#B56F35" stroke="#B56F35" stroke-width="0.5" stroke-miterlimit="3.86" stroke-linecap="round"/>
<path d="M175.202 77.2124C175.446 77.2124 175.645 77.0672 175.645 76.888C175.645 76.7088 175.446 76.5635 175.202 76.5635C174.957 76.5635 174.758 76.7088 174.758 76.888C174.758 77.0672 174.957 77.2124 175.202 77.2124Z" fill="#B56F35"/>
<path d="M176.31 77.6451C176.555 77.6451 176.753 77.4998 176.753 77.3206C176.753 77.1414 176.555 76.9962 176.31 76.9962C176.065 76.9962 175.866 77.1414 175.866 77.3206C175.866 77.4998 176.065 77.6451 176.31 77.6451Z" fill="#B56F35"/>
<path d="M178.194 75.9146C178.439 75.9146 178.638 75.7693 178.638 75.5901C178.638 75.4109 178.439 75.2657 178.194 75.2657C177.949 75.2657 177.75 75.4109 177.75 75.5901C177.75 75.7693 177.949 75.9146 178.194 75.9146Z" fill="#B56F35"/>
<path d="M178.97 77.5369C179.215 77.5369 179.414 77.3917 179.414 77.2125C179.414 77.0333 179.215 76.888 178.97 76.888C178.725 76.888 178.527 77.0333 178.527 77.2125C178.527 77.3917 178.725 77.5369 178.97 77.5369Z" fill="#B56F35"/>
<path d="M179.634 77.9696C179.879 77.9696 180.078 77.8243 180.078 77.6451C180.078 77.4659 179.879 77.3206 179.634 77.3206C179.389 77.3206 179.191 77.4659 179.191 77.6451C179.191 77.8243 179.389 77.9696 179.634 77.9696Z" fill="#B56F35"/>
<path d="M174.806 70.0983C171.406 72.7781 171.923 72.67 171.11 73.0666C168.277 74.5447 166.527 73.2468 161.957 74.785C160.639 75.2176 159.493 75.6262 159.493 76.2391C159.493 77.2725 162.708 78.4382 165.394 78.7146C167.052 78.9463 168.74 78.8531 170.361 78.4404C171.981 78.0277 173.501 77.3038 174.831 76.3112C178.724 73.1987 179.759 67.8391 178.884 67.3104C178.576 67.1181 177.307 68.1275 174.806 70.0983Z" fill="#FCC332" stroke="#FFCF03" stroke-width="0.5" stroke-miterlimit="10"/>
<path d="M177.837 67.6349C175.792 69.0889 178.009 72.658 175.903 75.6623C174.891 76.8766 173.518 77.7543 171.973 78.1739C170.551 78.6548 169.087 79.0088 167.599 79.2314C164.692 79.7722 164.026 79.7 163.829 80.1807C163.46 81.1181 165.332 82.9326 167.279 83.7859C168.742 84.3634 170.34 84.538 171.899 84.2906C173.439 84.1343 177.369 83.7498 179.291 80.8657C180.042 79.7241 180.178 78.5584 180.449 76.2391C180.646 74.6288 180.375 75.0374 180.338 70.6031C180.338 68.6684 180.338 67.683 179.722 67.3224C179.406 67.2131 179.067 67.1844 178.737 67.2391C178.408 67.2938 178.097 67.4301 177.837 67.6349Z" fill="#FCC332" stroke="#FFCF03" stroke-width="0.5" stroke-miterlimit="10"/>
<path d="M180.868 68.1276C180.4 68.2718 180.462 69.822 180.536 71.6726C180.634 74.2082 181.139 74.5808 181.028 76.3112C181.021 77.9738 180.425 79.5828 179.341 80.8657C178.158 81.8194 176.888 82.6642 175.546 83.3893C173.563 84.6511 173.316 84.8434 173.329 85.1198C173.329 86.1532 176.877 87.5232 179.932 86.7661C184.01 85.7687 185.648 81.4185 185.735 81.1902C187.989 74.8091 181.829 67.8151 180.868 68.1276Z" fill="#FCC332" stroke="#FFCF03" stroke-width="0.5" stroke-miterlimit="10"/>
<path d="M178.576 67.1181C178.576 66.2769 178.576 65.4357 178.576 64.5945L179.808 64.3662L180.03 65.4477L180.264 64.4023L181.361 64.5465C181.225 65.652 181.077 66.7696 180.942 67.8752L179.34 68.5482L178.576 67.1181Z" fill="#BC902E" stroke="#A07C22" stroke-width="0.25" stroke-miterlimit="10"/>
<path opacity="0.5" d="M174.277 84.9755C174.372 84.9755 174.449 84.9378 174.449 84.8914C174.449 84.8449 174.372 84.8073 174.277 84.8073C174.182 84.8073 174.104 84.8449 174.104 84.8914C174.104 84.9378 174.182 84.9755 174.277 84.9755Z" fill="#B56F35" stroke="#B56F35" stroke-width="0.25" stroke-miterlimit="3.86" stroke-linecap="round"/>
<path opacity="0.5" d="M181.2 85.1197C181.397 85.1197 181.557 85.0013 181.557 84.8553C181.557 84.7093 181.397 84.5909 181.2 84.5909C181.002 84.5909 180.843 84.7093 180.843 84.8553C180.843 85.0013 181.002 85.1197 181.2 85.1197Z" fill="#B56F35"/>
<path opacity="0.5" d="M182.088 85.4562C182.285 85.4562 182.445 85.3378 182.445 85.1918C182.445 85.0458 182.285 84.9274 182.088 84.9274C181.891 84.9274 181.731 85.0458 181.731 85.1918C181.731 85.3378 181.891 85.4562 182.088 85.4562Z" fill="#B56F35"/>
<path opacity="0.5" d="M183.603 84.0742C183.8 84.0742 183.96 83.9559 183.96 83.8098C183.96 83.6638 183.8 83.5455 183.603 83.5455C183.406 83.5455 183.246 83.6638 183.246 83.8098C183.246 83.9559 183.406 84.0742 183.603 84.0742Z" fill="#B56F35"/>
<path opacity="0.5" d="M176.223 83.6897C176.421 83.6897 176.581 83.5713 176.581 83.4253C176.581 83.2793 176.421 83.1609 176.223 83.1609C176.026 83.1609 175.866 83.2793 175.866 83.4253C175.866 83.5713 176.026 83.6897 176.223 83.6897Z" fill="#B56F35"/>
<path opacity="0.5" d="M176.753 84.0382C176.95 84.0382 177.11 83.9198 177.11 83.7738C177.11 83.6278 176.95 83.5094 176.753 83.5094C176.555 83.5094 176.395 83.6278 176.395 83.7738C176.395 83.9198 176.555 84.0382 176.753 84.0382Z" fill="#B56F35"/>
<path opacity="0.5" d="M182.667 77.8974C182.755 77.8974 182.827 77.8651 182.827 77.8253C182.827 77.7855 182.755 77.7532 182.667 77.7532C182.579 77.7532 182.507 77.7855 182.507 77.8253C182.507 77.8651 182.579 77.8974 182.667 77.8974Z" fill="#B56F35" stroke="#B56F35" stroke-width="0.25" stroke-miterlimit="3.86" stroke-linecap="round"/>
<path opacity="0.5" d="M181.73 76.5395C181.9 76.5395 182.038 76.4373 182.038 76.3112C182.038 76.1851 181.9 76.0828 181.73 76.0828C181.559 76.0828 181.422 76.1851 181.422 76.3112C181.422 76.4373 181.559 76.5395 181.73 76.5395Z" fill="#B56F35"/>
<path opacity="0.5" d="M182.508 76.8399C182.678 76.8399 182.816 76.7377 182.816 76.6116C182.816 76.4855 182.678 76.3832 182.508 76.3832C182.338 76.3832 182.2 76.4855 182.2 76.6116C182.2 76.7377 182.338 76.8399 182.508 76.8399Z" fill="#B56F35"/>
<path opacity="0.5" d="M183.821 75.6262C183.991 75.6262 184.129 75.524 184.129 75.3979C184.129 75.2718 183.991 75.1696 183.821 75.1696C183.651 75.1696 183.513 75.2718 183.513 75.3979C183.513 75.524 183.651 75.6262 183.821 75.6262Z" fill="#B56F35"/>
<path opacity="0.5" d="M177.726 71.6486C177.897 71.6486 178.034 71.5464 178.034 71.4203C178.034 71.2942 177.897 71.192 177.726 71.192C177.556 71.192 177.418 71.2942 177.418 71.4203C177.418 71.5464 177.556 71.6486 177.726 71.6486Z" fill="#B56F35"/>
<path opacity="0.5" d="M178.355 72.1773C178.525 72.1773 178.663 72.075 178.663 71.9489C178.663 71.8228 178.525 71.7206 178.355 71.7206C178.185 71.7206 178.047 71.8228 178.047 71.9489C178.047 72.075 178.185 72.1773 178.355 72.1773Z" fill="#B56F35"/>
<path opacity="0.5" d="M170.1 79.1592C170.188 79.1592 170.26 79.1269 170.26 79.0871C170.26 79.0473 170.188 79.015 170.1 79.015C170.011 79.015 169.939 79.0473 169.939 79.0871C169.939 79.1269 170.011 79.1592 170.1 79.1592Z" fill="#B56F35" stroke="#B56F35" stroke-width="0.25" stroke-miterlimit="3.86" stroke-linecap="round"/>
<path opacity="0.5" d="M169.164 77.8013C169.334 77.8013 169.472 77.6991 169.472 77.573C169.472 77.4469 169.334 77.3447 169.164 77.3447C168.994 77.3447 168.856 77.4469 168.856 77.573C168.856 77.6991 168.994 77.8013 169.164 77.8013Z" fill="#B56F35"/>
<path opacity="0.5" d="M169.938 78.1017C170.108 78.1017 170.246 77.9995 170.246 77.8734C170.246 77.7473 170.108 77.6451 169.938 77.6451C169.768 77.6451 169.63 77.7473 169.63 77.8734C169.63 77.9995 169.768 78.1017 169.938 78.1017Z" fill="#B56F35"/>
<path opacity="0.5" d="M171.258 76.9C171.428 76.9 171.566 76.7978 171.566 76.6717C171.566 76.5456 171.428 76.4434 171.258 76.4434C171.088 76.4434 170.95 76.5456 170.95 76.6717C170.95 76.7978 171.088 76.9 171.258 76.9Z" fill="#B56F35"/>
<path opacity="0.5" d="M171.8 78.0296C171.97 78.0296 172.108 77.9274 172.108 77.8013C172.108 77.6752 171.97 77.573 171.8 77.573C171.63 77.573 171.492 77.6752 171.492 77.8013C171.492 77.9274 171.63 78.0296 171.8 78.0296Z" fill="#B56F35"/>
<path opacity="0.5" d="M172.271 78.3301C172.441 78.3301 172.579 78.2278 172.579 78.1017C172.579 77.9756 172.441 77.8734 172.271 77.8734C172.101 77.8734 171.963 77.9756 171.963 78.1017C171.963 78.2278 172.101 78.3301 172.271 78.3301Z" fill="#B56F35"/>
<path opacity="0.5" d="M165.504 75.0734C165.627 75.0734 165.726 75.0035 165.726 74.9172C165.726 74.8309 165.627 74.761 165.504 74.761C165.382 74.761 165.283 74.8309 165.283 74.9172C165.283 75.0035 165.382 75.0734 165.504 75.0734Z" fill="#B56F35"/>
<path opacity="0.5" d="M166.048 75.2777C166.171 75.2777 166.27 75.2078 166.27 75.1215C166.27 75.0352 166.171 74.9653 166.048 74.9653C165.926 74.9653 165.826 75.0352 165.826 75.1215C165.826 75.2078 165.926 75.2777 166.048 75.2777Z" fill="#B56F35"/>
<path opacity="0.5" d="M167.353 75.2296C167.476 75.2296 167.575 75.1597 167.575 75.0734C167.575 74.9871 167.476 74.9172 167.353 74.9172C167.231 74.9172 167.132 74.9871 167.132 75.0734C167.132 75.1597 167.231 75.2296 167.353 75.2296Z" fill="#B56F35"/>
<path opacity="0.5" d="M167.685 75.4459C167.808 75.4459 167.907 75.376 167.907 75.2897C167.907 75.2034 167.808 75.1335 167.685 75.1335C167.563 75.1335 167.464 75.2034 167.464 75.2897C167.464 75.376 167.563 75.4459 167.685 75.4459Z" fill="#B56F35"/>
<path opacity="0.5" d="M168.611 83.8164C168.731 83.7941 168.815 83.7074 168.799 83.6226C168.782 83.5379 168.671 83.4872 168.551 83.5094C168.431 83.5316 168.347 83.6183 168.363 83.7031C168.379 83.7879 168.49 83.8386 168.611 83.8164Z" fill="#B56F35"/>
<path opacity="0.5" d="M169.177 83.9279C169.298 83.9057 169.382 83.819 169.365 83.7342C169.349 83.6495 169.238 83.5987 169.118 83.621C168.997 83.6432 168.913 83.7299 168.93 83.8147C168.946 83.8995 169.057 83.9502 169.177 83.9279Z" fill="#B56F35"/>
<path opacity="0.5" d="M170.456 83.6426C170.576 83.6204 170.66 83.5337 170.644 83.4489C170.627 83.3641 170.516 83.3134 170.396 83.3356C170.276 83.3578 170.191 83.4446 170.208 83.5294C170.224 83.6141 170.335 83.6648 170.456 83.6426Z" fill="#B56F35"/>
<path opacity="0.5" d="M170.823 83.7892C170.943 83.7669 171.027 83.6802 171.011 83.5954C170.995 83.5107 170.884 83.4599 170.763 83.4822C170.643 83.5044 170.559 83.5911 170.575 83.6759C170.592 83.7607 170.703 83.8114 170.823 83.7892Z" fill="#B56F35"/>
<path opacity="0.5" d="M179.306 74.2667C179.327 74.149 179.273 74.0416 179.186 74.0268C179.099 74.012 179.011 74.0955 178.99 74.2132C178.969 74.3309 179.023 74.4382 179.11 74.453C179.197 74.4678 179.285 74.3844 179.306 74.2667Z" fill="#B56F35"/>
<path opacity="0.5" d="M179.613 73.7803C179.634 73.6626 179.58 73.5552 179.493 73.5404C179.406 73.5256 179.318 73.6091 179.297 73.7268C179.276 73.8445 179.33 73.9519 179.417 73.9666C179.504 73.9814 179.592 73.898 179.613 73.7803Z" fill="#B56F35"/>
<path opacity="0.5" d="M180.398 70.6441C180.419 70.5258 180.365 70.418 180.278 70.4034C180.19 70.3887 180.102 70.4727 180.081 70.591C180.06 70.7092 180.115 70.817 180.202 70.8317C180.29 70.8463 180.378 70.7624 180.398 70.6441Z" fill="#B56F35"/>
<path opacity="0.5" d="M180.059 72.2374C180.08 72.1197 180.026 72.0124 179.939 71.9976C179.852 71.9828 179.764 72.0662 179.743 72.1839C179.722 72.3016 179.776 72.409 179.863 72.4238C179.95 72.4386 180.038 72.3551 180.059 72.2374Z" fill="#B56F35"/>
<path opacity="0.5" d="M172.053 82.8846C172.069 82.7998 171.985 82.7131 171.865 82.6908C171.744 82.6685 171.633 82.7191 171.617 82.8039C171.601 82.8887 171.685 82.9755 171.805 82.9977C171.925 83.02 172.036 82.9694 172.053 82.8846Z" fill="#B56F35"/>
<path opacity="0.5" d="M172.547 83.2037C172.563 83.119 172.479 83.0322 172.359 83.0099C172.238 82.9876 172.127 83.0383 172.111 83.123C172.094 83.2078 172.179 83.2946 172.299 83.3168C172.419 83.3391 172.53 83.2885 172.547 83.2037Z" fill="#B56F35"/>
<path opacity="0.5" d="M173.846 83.3797C173.862 83.2949 173.778 83.2081 173.658 83.1858C173.537 83.1635 173.426 83.2142 173.41 83.299C173.393 83.3837 173.478 83.4705 173.598 83.4928C173.718 83.5151 173.829 83.4644 173.846 83.3797Z" fill="#B56F35"/>
<path opacity="0.5" d="M174.113 83.6499C174.13 83.5651 174.046 83.4783 173.925 83.456C173.805 83.4337 173.694 83.4844 173.678 83.5692C173.661 83.6539 173.745 83.7407 173.866 83.763C173.986 83.7853 174.097 83.7346 174.113 83.6499Z" fill="#B56F35"/>
<path opacity="0.5" d="M179.444 86.2642C179.563 86.2353 179.642 86.1441 179.62 86.0604C179.599 85.9766 179.485 85.9321 179.366 85.9609C179.248 85.9898 179.169 86.081 179.19 86.1647C179.211 86.2485 179.325 86.293 179.444 86.2642Z" fill="#B56F35"/>
<path opacity="0.5" d="M180.027 86.3537C180.146 86.3249 180.225 86.2336 180.203 86.1499C180.182 86.0662 180.068 86.0217 179.95 86.0505C179.831 86.0793 179.752 86.1705 179.773 86.2543C179.794 86.338 179.908 86.3825 180.027 86.3537Z" fill="#B56F35"/>
<path opacity="0.5" d="M181.268 85.9874C181.387 85.9586 181.466 85.8673 181.444 85.7836C181.423 85.6999 181.309 85.6554 181.191 85.6842C181.072 85.713 180.993 85.8043 181.014 85.888C181.035 85.9717 181.149 86.0162 181.268 85.9874Z" fill="#B56F35"/>
<path opacity="0.5" d="M181.633 86.1249C181.752 86.096 181.831 86.0048 181.81 85.9211C181.788 85.8373 181.675 85.7928 181.556 85.8217C181.437 85.8505 181.358 85.9417 181.379 86.0254C181.401 86.1092 181.514 86.1537 181.633 86.1249Z" fill="#B56F35"/>
<path opacity="0.5" d="M178.412 80.6936C178.473 80.5896 178.459 80.4708 178.382 80.4284C178.305 80.386 178.194 80.436 178.133 80.54C178.073 80.6441 178.087 80.7628 178.164 80.8052C178.241 80.8476 178.352 80.7976 178.412 80.6936Z" fill="#B56F35"/>
<path opacity="0.5" d="M178.867 80.3334C178.927 80.2294 178.913 80.1106 178.836 80.0682C178.759 80.0258 178.648 80.0758 178.588 80.1799C178.528 80.2839 178.541 80.4026 178.618 80.445C178.695 80.4874 178.807 80.4375 178.867 80.3334Z" fill="#B56F35"/>
<path opacity="0.5" d="M179.469 79.2037C179.529 79.0997 179.515 78.981 179.438 78.9386C179.361 78.8962 179.25 78.9461 179.19 79.0502C179.129 79.1542 179.143 79.2729 179.22 79.3153C179.297 79.3577 179.408 79.3078 179.469 79.2037Z" fill="#B56F35"/>
<path opacity="0.5" d="M179.821 79.0323C179.882 78.9283 179.868 78.8096 179.791 78.7672C179.714 78.7248 179.603 78.7747 179.542 78.8788C179.482 78.9828 179.496 79.1015 179.573 79.1439C179.65 79.1863 179.761 79.1364 179.821 79.0323Z" fill="#B56F35"/>
<path opacity="0.5" d="M175.897 70.1236C175.988 70.0434 176.013 69.9265 175.954 69.8626C175.894 69.7986 175.773 69.8118 175.682 69.8921C175.591 69.9723 175.566 70.0891 175.625 70.1531C175.684 70.217 175.806 70.2038 175.897 70.1236Z" fill="#B56F35"/>
<path opacity="0.5" d="M176.455 69.9305C176.546 69.8503 176.571 69.7334 176.512 69.6695C176.453 69.6055 176.331 69.6187 176.24 69.6989C176.149 69.7792 176.124 69.896 176.183 69.9599C176.243 70.0239 176.364 70.0107 176.455 69.9305Z" fill="#B56F35"/>
<path opacity="0.5" d="M177.381 69.0388C177.472 68.9586 177.497 68.8417 177.438 68.7778C177.378 68.7139 177.256 68.7271 177.166 68.8073C177.075 68.8875 177.049 69.0043 177.109 69.0683C177.168 69.1322 177.29 69.119 177.381 69.0388Z" fill="#B56F35"/>
<path opacity="0.5" d="M177.767 68.9764C177.857 68.8962 177.883 68.7794 177.824 68.7154C177.764 68.6515 177.642 68.6647 177.552 68.7449C177.461 68.8251 177.435 68.942 177.495 69.0059C177.554 69.0698 177.676 69.0566 177.767 68.9764Z" fill="#B56F35"/>
<path opacity="0.5" d="M162.205 77.8013C162.327 77.8013 162.427 77.7314 162.427 77.6451C162.427 77.5588 162.327 77.4889 162.205 77.4889C162.082 77.4889 161.983 77.5588 161.983 77.6451C161.983 77.7314 162.082 77.8013 162.205 77.8013Z" fill="#B56F35"/>
<path opacity="0.5" d="M165.504 78.5463C165.627 78.5463 165.726 78.4764 165.726 78.3901C165.726 78.3038 165.627 78.2339 165.504 78.2339C165.382 78.2339 165.283 78.3038 165.283 78.3901C165.283 78.4764 165.382 78.5463 165.504 78.5463Z" fill="#B56F35"/>
<path opacity="0.5" d="M166.812 78.4863C166.934 78.4863 167.034 78.4163 167.034 78.3301C167.034 78.2438 166.934 78.1738 166.812 78.1738C166.689 78.1738 166.59 78.2438 166.59 78.3301C166.59 78.4163 166.689 78.4863 166.812 78.4863Z" fill="#B56F35"/>
<path opacity="0.5" d="M166.268 78.0536C166.391 78.0536 166.49 77.9837 166.49 77.8974C166.49 77.8112 166.391 77.7412 166.268 77.7412C166.146 77.7412 166.046 77.8112 166.046 77.8974C166.046 77.9837 166.146 78.0536 166.268 78.0536Z" fill="#B56F35"/>
<path opacity="0.5" d="M179.497 80.1124C179.517 79.9947 179.464 79.8873 179.377 79.8725C179.29 79.8577 179.202 79.9412 179.181 80.0589C179.16 80.1766 179.214 80.284 179.301 80.2987C179.388 80.3135 179.476 80.2301 179.497 80.1124Z" fill="#B56F35"/>
<path opacity="0.5" d="M175.096 78.5836C175.117 78.4653 175.063 78.3576 174.975 78.3429C174.888 78.3283 174.8 78.4122 174.779 78.5305C174.758 78.6488 174.812 78.7565 174.9 78.7712C174.988 78.7859 175.075 78.7019 175.096 78.5836Z" fill="#B56F35"/>
<path opacity="0.5" d="M181.429 70.3578C181.449 70.2401 181.396 70.1327 181.309 70.1179C181.222 70.1031 181.134 70.1865 181.113 70.3042C181.092 70.422 181.146 70.5294 181.233 70.5441C181.32 70.5589 181.408 70.4755 181.429 70.3578Z" fill="#B56F35"/>
<path opacity="0.5" d="M183.527 71.2233C183.548 71.1056 183.494 70.9983 183.407 70.9835C183.32 70.9687 183.232 71.0521 183.211 71.1698C183.19 71.2875 183.244 71.3949 183.331 71.4097C183.418 71.4245 183.506 71.341 183.527 71.2233Z" fill="#B56F35"/>
<path opacity="0.5" d="M183.163 70.5638C183.184 70.4461 183.131 70.3388 183.044 70.324C182.956 70.3092 182.869 70.3926 182.848 70.5103C182.827 70.628 182.88 70.7354 182.968 70.7502C183.055 70.765 183.142 70.6815 183.163 70.5638Z" fill="#B56F35"/>
<path opacity="0.5" d="M184.572 74.9968C184.593 74.8791 184.54 74.7717 184.453 74.757C184.365 74.7422 184.278 74.8256 184.257 74.9433C184.236 75.061 184.29 75.1684 184.377 75.1832C184.464 75.198 184.551 75.1145 184.572 74.9968Z" fill="#B56F35"/>
<path opacity="0.5" d="M185.8 79.2813C185.831 79.1657 185.786 79.0544 185.701 79.0329C185.615 79.0114 185.521 79.0877 185.49 79.2034C185.46 79.3191 185.504 79.4303 185.59 79.4519C185.676 79.4734 185.77 79.397 185.8 79.2813Z" fill="#B56F35"/>
<path opacity="0.5" d="M185.464 79.7361C185.495 79.6204 185.45 79.5092 185.364 79.4877C185.279 79.4662 185.185 79.5425 185.154 79.6582C185.124 79.7739 185.168 79.8851 185.254 79.9066C185.34 79.9281 185.434 79.8518 185.464 79.7361Z" fill="#B56F35"/>
<path opacity="0.5" d="M185.186 80.9858C185.217 80.8701 185.172 80.7588 185.086 80.7373C185.001 80.7158 184.907 80.7922 184.876 80.9078C184.845 81.0235 184.89 81.1348 184.976 81.1563C185.061 81.1778 185.156 81.1014 185.186 80.9858Z" fill="#B56F35"/>
<path opacity="0.5" d="M184.894 81.2439C184.924 81.1282 184.879 81.017 184.794 80.9955C184.708 80.9739 184.614 81.0503 184.583 81.166C184.553 81.2817 184.598 81.3929 184.683 81.4144C184.769 81.4359 184.863 81.3596 184.894 81.2439Z" fill="#B56F35"/>
<path opacity="0.5" d="M171.058 73.874C171.148 73.7938 171.174 73.6769 171.114 73.613C171.055 73.5491 170.933 73.5622 170.843 73.6425C170.752 73.7227 170.726 73.8396 170.786 73.9035C170.845 73.9674 170.967 73.9542 171.058 73.874Z" fill="#B56F35"/>
<path opacity="0.5" d="M171.682 73.9187C171.773 73.8385 171.798 73.7216 171.739 73.6577C171.68 73.5938 171.558 73.6069 171.467 73.6872C171.376 73.7674 171.351 73.8842 171.41 73.9482C171.47 74.0121 171.591 73.9989 171.682 73.9187Z" fill="#B56F35"/>
<path opacity="0.5" d="M172.624 73.019C172.715 72.9388 172.741 72.8219 172.681 72.758C172.622 72.694 172.5 72.7072 172.409 72.7874C172.319 72.8677 172.293 72.9845 172.353 73.0484C172.412 73.1124 172.534 73.0992 172.624 73.019Z" fill="#B56F35"/>
<path opacity="0.5" d="M172.218 73.15C172.308 73.0698 172.334 72.9529 172.274 72.889C172.215 72.825 172.093 72.8382 172.003 72.9184C171.912 72.9986 171.886 73.1155 171.946 73.1794C172.005 73.2434 172.127 73.2302 172.218 73.15Z" fill="#B56F35"/>
<path d="M143.304 74.1962L144.413 70.5911H144.758L145.201 72.1413C145.201 71.6245 145.312 71.0958 145.362 70.579H146.47H147.197L148.589 74.1842L146.273 75.3859L143.304 74.1962Z" fill="#9E7646" stroke="#9E7646" stroke-width="0.25" stroke-miterlimit="10"/>
<path d="M143.28 73.2709C142.77 73.3199 142.266 73.4206 141.777 73.5713C139.855 74.2202 139.054 80.1927 139.054 80.1927C138.438 84.7592 138.167 87.4871 139.904 89.5781C140.816 90.6716 142.27 91.4287 142.824 90.96C143.378 90.4914 142.504 88.833 142.307 85.3361C142.211 83.7713 142.277 82.2012 142.504 80.6494C143.157 76.5876 144.968 73.7636 144.302 73.2709C144.179 73.1868 143.884 73.2108 143.28 73.2709Z" fill="#E58910" stroke="#C67409" stroke-width="0.3" stroke-miterlimit="10"/>
<path d="M143.726 90.6115C142.74 89.9746 142.703 88.2081 142.494 84.8313C142.378 83.3082 142.469 81.7767 142.765 80.2768C142.94 79.4565 143.187 78.6524 143.504 77.8734C143.504 77.8734 143.763 76.6717 144.416 74.5567C144.785 73.355 144.896 73.0786 145.155 73.0065C145.783 72.8503 146.806 73.9078 147.348 75.0013C148.075 76.5155 147.594 77.4648 147.717 80.5773C147.761 81.6674 147.863 82.7545 148.025 83.8339C148.641 87.7395 149.836 89.2296 148.974 90.215C148.604 90.6476 148.05 90.7437 146.966 90.912C145.884 91.193 144.734 91.0865 143.726 90.6115Z" fill="#E58910" stroke="#C67409" stroke-width="0.3" stroke-miterlimit="10"/>
<path d="M146.681 73.3069C146.274 73.9678 147.913 74.773 147.975 76.7077C147.975 77.1764 147.888 78.7627 147.975 79.3876C148.061 80.0125 148.048 80.2888 148.061 80.4811C148.738 86.2613 148.664 89.6502 150.02 90.0948C150.771 90.3351 151.781 89.5901 152.262 88.8931C153.075 87.6914 152.422 86.5978 151.72 82.4399C151.362 80.3009 151.215 79.2193 151.042 77.8614C150.709 75.3618 150.488 74.1 150.007 73.6434C148.96 72.682 147.063 72.694 146.681 73.3069Z" fill="#E58910" stroke="#C67409" stroke-width="0.3" stroke-miterlimit="10"/>
<path d="M150.758 75.2657C151.08 76.3318 151.29 77.4269 151.387 78.5343C151.633 80.3609 151.522 80.6493 151.793 82.0553C152.015 83.1609 152.101 83.1609 152.323 84.1463C153 87.2707 152.409 88.857 153.234 89.2055C153.838 89.4578 154.651 88.9531 155.033 88.6166C155.368 88.2547 155.625 87.8313 155.79 87.3712C155.955 86.911 156.025 86.4234 155.994 85.9368C156.13 80.3008 156.216 75.7944 153.161 73.9197C152.039 73.2107 150.45 72.8502 150.105 73.2948C149.76 73.7395 150.327 74.0519 150.758 75.2657Z" fill="#E58910" stroke="#C67409" stroke-width="0.3" stroke-miterlimit="10"/>
<path d="M140.521 73.7515C140.866 74.1121 140.386 74.7249 139.511 77.4648C138.948 79.1723 138.568 80.9322 138.378 82.7163C138.358 83.0525 138.358 83.3895 138.378 83.7257C138.378 85.8287 138.378 87.3309 139.289 88.821C139.56 89.2776 140.139 89.8424 139.942 90.275C139.745 90.7077 138.71 90.8759 138.168 90.7677C135.088 90.1188 132.624 78.2099 137.146 74.6648C138.218 73.7876 140.004 73.2348 140.521 73.7515Z" fill="#E58910" stroke="#C67409" stroke-width="0.3" stroke-miterlimit="10"/>
<path d="M56.4376 87.8596C54.9716 87.6673 52.5816 87.3549 52.0272 85.8047C51.4728 84.2545 53.4316 82.1395 53.6164 81.9712C53.4741 81.5958 53.4413 81.1892 53.5218 80.7967C53.6023 80.4042 53.7928 80.0412 54.0723 79.7481C54.2824 79.5457 54.5331 79.3879 54.8087 79.2845C55.0843 79.1811 55.3788 79.1344 55.6738 79.1472C55.0629 78.3686 54.7106 77.4263 54.6644 76.4469C54.6182 75.4674 54.8801 74.4975 55.4151 73.6674C55.917 73.119 56.532 72.6802 57.2199 72.3799C57.9078 72.0796 58.653 71.9246 59.4067 71.925C60.0972 71.8978 60.7876 71.9789 61.4518 72.1653C61.3624 71.9411 61.3624 71.6924 61.4518 71.4683C61.53 71.2596 61.6702 71.0784 61.8546 70.9478C62.0389 70.8173 62.259 70.7432 62.4866 70.7353C62.9238 69.9831 63.5182 69.3291 64.2314 68.8157C64.9445 68.3022 65.7604 67.9409 66.6261 67.755C69.9154 67.2022 72.3301 70.0022 72.7859 70.579C73.42 71.3657 73.885 72.269 74.1534 73.2348C74.3434 72.9472 74.6385 72.7409 74.9788 72.658C75.9151 72.4537 77.1717 73.4151 77.9109 75.1576C78.0989 75.0158 78.3174 74.9172 78.5499 74.8694C78.7824 74.8215 79.0231 74.8256 79.2538 74.8812C80.4857 75.4099 80.8553 79.3756 78.9951 81.2262C77.874 82.3558 76.7036 81.9352 73.7345 82.7644C71.2706 83.4373 71.1597 83.9661 68.0551 85.348C64.6672 86.8141 60.8235 88.4484 56.4376 87.8596Z" fill="#5DAF67" stroke="#5A9E61" stroke-width="0.25" stroke-miterlimit="10"/>
<path d="M62.203 85.8047C63.3906 87.4195 64.2672 89.2315 64.7901 91.1523L65.8989 93.6879L67.0077 93.5557L67.1555 91.0321C67.5498 91.8613 67.944 92.6905 68.3875 93.5076L69.9644 93.3033C69.2512 91.8331 68.9983 90.1903 69.2376 88.5806C69.5702 86.5017 70.7406 85.2879 71.6029 81.6588C71.7261 81.118 71.8124 80.6734 71.874 80.3849C71.6389 80.8704 71.2847 81.2919 70.8429 81.6122C70.4011 81.9325 69.8852 82.1417 69.3408 82.2213C68.7965 82.3009 68.2404 82.2484 67.7217 82.0686C67.203 81.8887 66.7378 81.587 66.3671 81.1901C66.4927 81.4852 66.5327 81.8083 66.4827 82.1241C66.4327 82.4399 66.2947 82.7362 66.0837 82.9806C65.8882 83.152 65.6572 83.2803 65.4064 83.357C65.1556 83.4337 64.8908 83.457 64.63 83.4253C64.0405 83.3962 63.4756 83.1858 63.0161 82.8244C63.1393 83.2931 63.0161 83.4854 62.9422 83.5815C62.8683 83.6776 62.1907 83.6897 60.9341 83.3892L59.2832 83.0287C60.4093 83.7877 61.3963 84.7261 62.203 85.8047Z" fill="#548E58" stroke="#548E58" stroke-width="0.75" stroke-miterlimit="10"/>
<path d="M55.9108 85.9489C55.5113 85.7551 55.2028 85.4198 55.0484 85.0116C54.9377 84.5756 54.9902 84.1154 55.1962 83.7137C55.2906 83.5004 55.4105 83.2987 55.5535 83.1129C55.7118 82.9154 55.8985 82.7414 56.1079 82.5961C55.715 83.0625 55.4842 83.6385 55.4488 84.2411C55.4134 84.8438 55.5752 85.4418 55.9108 85.9489Z" fill="#5A9E61" stroke="#5A9E61" stroke-width="0.12" stroke-miterlimit="10"/>
<path d="M60.159 76.3592C60.3057 75.8584 60.6398 75.4295 61.0953 75.1575C61.3792 75.0052 61.6954 74.9188 62.0192 74.9051C62.0966 74.5872 62.2484 74.291 62.4627 74.0399C62.6687 73.7942 62.9344 73.6028 63.2357 73.4832C63.537 73.3635 63.8642 73.3194 64.1875 73.3549C64.6591 73.4677 65.0662 73.7569 65.3209 74.1601C65.4679 74.0565 65.6447 74.0007 65.826 74.0007C66.0074 74.0007 66.1841 74.0565 66.3311 74.1601C66.4761 74.288 66.5682 74.4633 66.5899 74.6528C66.4816 74.5166 66.3366 74.4125 66.171 74.3524C66.0334 74.3121 65.8887 74.3009 65.7463 74.3196C65.604 74.3382 65.4674 74.3863 65.3456 74.4605C65.0765 74.1235 64.6914 73.8929 64.2614 73.8116C64.0339 73.756 63.7961 73.7531 63.5672 73.8032C63.3383 73.8533 63.1246 73.9549 62.9432 74.1C62.6731 74.3297 62.5052 74.6529 62.4751 75.0013C62.0928 75.112 61.7249 75.2652 61.3786 75.4579C60.93 75.7 60.5193 76.0036 60.159 76.3592Z" fill="#5A9E61" stroke="#5A9E61" stroke-width="0.12" stroke-miterlimit="10"/>
<path d="M69.0177 76.7919C69.3457 76.6988 69.6863 76.6542 70.0279 76.6597C70.5293 76.5995 71.0369 76.7053 71.4693 76.9601C71.5266 77.0252 71.5801 77.0934 71.6295 77.1644C71.7145 77.301 71.773 77.4517 71.8019 77.6091C71.8715 77.4186 71.8715 77.2106 71.8019 77.0202C71.5555 76.2752 69.8924 75.8906 68.9191 76.5155C68.7101 76.6489 68.5335 76.8252 68.4017 77.0322C68.5967 76.929 68.8034 76.8483 69.0177 76.7919Z" fill="#5A9E61" stroke="#5A9E61" stroke-width="0.12" stroke-miterlimit="10"/>
<path d="M75.8782 76.6236C76.043 76.7319 76.1922 76.8612 76.3217 77.0082C76.6177 77.3505 76.8097 77.7668 76.8761 78.2099C76.9856 78.0011 77.0478 77.7718 77.0585 77.5375C77.0691 77.3032 77.0279 77.0694 76.9377 76.852C76.5188 76.0348 75.2745 76.0709 75.1267 76.0709C74.9045 76.082 74.6848 76.1224 74.4737 76.191C74.9761 76.1922 75.4662 76.3431 75.8782 76.6236Z" fill="#5A9E61" stroke="#5A9E61" stroke-width="0.12" stroke-miterlimit="10"/>
<path d="M62.2032 79.712C62.1748 79.5116 62.2184 79.3078 62.3264 79.1352C62.4639 78.9539 62.6662 78.8296 62.8931 78.7867C63.0118 78.7729 63.1317 78.7729 63.2504 78.7867C63.373 78.7699 63.4974 78.7699 63.62 78.7867C63.3092 78.7778 63.0039 78.868 62.7504 79.0437C62.497 79.2194 62.3092 79.4709 62.2155 79.7601L62.2032 79.712Z" fill="#5A9E61" stroke="#5A9E61" stroke-width="0.12" stroke-miterlimit="10"/>
<path d="M92.4261 82.7404L89.2969 78.8829C89.7933 78.8085 90.2702 78.6412 90.7014 78.3902C91.1465 78.1285 91.5322 77.7809 91.8348 77.3687L92.4261 82.7404Z" fill="#7C6745" stroke="#685130" stroke-width="0.25" stroke-miterlimit="10"/>
<path d="M92.7591 83.2931C92.0652 82.7078 91.2461 82.2811 90.3616 82.0441C89.477 81.8071 88.5494 81.7658 87.6464 81.9232C86.4113 82.3121 85.3401 83.0834 84.5952 84.1201C83.8504 85.1568 83.4726 86.4022 83.5193 87.6673C83.5193 88.869 84.8375 90.4313 87.3877 93.5437C90.2212 96.9806 91.2807 97.7256 92.1184 97.4973C92.9562 97.269 93.2642 95.8269 94.2621 95.7909C95.26 95.7548 95.494 96.8604 96.2579 96.8724C97.0217 96.8844 97.921 95.3943 98.9928 93.2673C101.703 87.9437 101.974 88.172 102.097 86.9583C102.097 86.5017 102.578 81.9712 99.7567 80.6373C97.7362 79.7 94.6809 80.6734 92.7591 83.2931Z" fill="#F97253" stroke="#E56A55" stroke-width="0.25" stroke-miterlimit="10"/>
<path d="M92.9676 81.3583C93.1494 80.375 93.6871 79.488 94.4829 78.8588C95.1725 78.2291 96.0239 77.7931 96.9469 77.597C97.3997 77.5003 97.8644 77.468 98.3267 77.5008C98.3351 78.1763 98.2041 78.8465 97.9415 79.4716C97.6789 80.0966 97.29 80.6638 96.798 81.1392C96.306 81.6146 95.721 81.9886 95.0777 82.2389C94.4345 82.4892 93.7462 82.6107 93.0538 82.5961C92.952 82.1915 92.9228 81.7727 92.9676 81.3583Z" fill="#5DAF67" stroke="#5DAF67" stroke-width="0.75" stroke-miterlimit="10"/>
<path d="M92.6966 82.8485C93.7283 82.0567 94.7 81.1933 95.6041 80.2648C96.6216 79.3112 97.5763 78.2958 98.4623 77.2245C97.4583 78.0044 96.5077 78.8473 95.6164 79.7481C94.8895 80.4451 94.2489 81.1421 93.904 81.5026C93.559 81.8631 92.672 82.8365 92.6966 82.8485Z" fill="#5A9E61" stroke="#5A9E61" stroke-width="0.1" stroke-miterlimit="10"/>
<path d="M91.1804 78.0536L92.1537 81.9592C91.4884 80.8176 90.8108 79.688 90.1332 78.5463" stroke="#60492C" stroke-width="0.2" stroke-miterlimit="10"/>
<path d="M85.943 85.0476C86.0965 85.2358 86.3082 85.3707 86.5466 85.4322C86.7476 85.491 86.9617 85.491 87.1626 85.4322C86.9624 86.108 86.8587 86.8076 86.8546 87.5111C86.8444 88.4011 87.0031 89.2852 87.3228 90.1188C86.4942 89.3763 85.94 88.3879 85.7459 87.3068C85.6259 86.5492 85.6935 85.7746 85.943 85.0476Z" fill="white"/>
<path d="M118.309 69.9782C117.249 70.7545 116.271 71.6321 115.389 72.5979L117.323 75.0975L114.44 73.7876C112.707 75.3487 111.58 77.4457 111.25 79.724C111.086 81.0272 111.203 82.3494 111.595 83.6056L115.389 84.6631L112.137 84.9755C112.624 86.016 113.236 86.9962 113.96 87.8957C114.652 88.7862 115.45 89.593 116.338 90.2991C116.782 90.1779 117.199 89.9784 117.57 89.7102C117.915 89.4586 118.208 89.1444 118.432 88.7849L117.496 87.8115L119.467 87.8836C119.775 87.6073 120.083 87.3068 120.391 86.9944C121.932 85.4032 123.235 83.6068 124.259 81.6588L120.44 80.0004L124.641 79.6279C124.692 77.5831 124.358 75.5467 123.656 73.6194C122.968 71.7567 121.942 70.0305 120.625 68.5241C119.818 68.9544 119.044 69.4403 118.309 69.9782Z" fill="#A4381B" stroke="#A4381B" stroke-width="0.75" stroke-miterlimit="10"/>
<path d="M120.588 68.3198C120.108 65.3636 119.356 64.4864 118.642 64.2581C118.432 64.186 117.816 64.0297 116.412 63.5971L115.747 63.3928C115.726 63.6087 115.726 63.8259 115.747 64.0418C115.808 64.7891 116.09 65.503 116.56 66.0967C117.615 67.2503 119.031 68.0319 120.588 68.3198Z" fill="#2E6031" stroke="#336D33" stroke-width="0.15" stroke-miterlimit="10"/>
<path d="M120.525 68.0915C120.512 67.4614 120.652 66.8371 120.932 66.2692C121.213 65.7013 121.626 65.2058 122.139 64.8229C122.603 64.5222 123.137 64.3404 123.692 64.2941C123.916 64.2644 124.144 64.2644 124.369 64.2941C124.284 64.3299 124.205 64.3786 124.135 64.4383C123.507 64.931 123.642 65.8203 123.507 66.325C123.371 66.8297 122.694 67.6229 120.525 68.0915Z" fill="#447F49" stroke="#357235" stroke-width="0.15" stroke-miterlimit="10"/>
<path d="M120.614 68.5001C119.945 67.5298 118.923 66.8429 117.756 66.5774C116.97 66.3945 116.147 66.4447 115.39 66.7216C115.19 66.8429 114.969 66.9284 114.737 66.9739C114.438 67.0439 114.126 67.0439 113.826 66.9739C114.202 67.2861 114.616 67.5524 115.058 67.767C115.918 68.1264 116.834 68.3417 117.768 68.404C118.713 68.5039 119.664 68.536 120.614 68.5001Z" fill="#468C48" stroke="#336D33" stroke-width="0.15" stroke-miterlimit="10"/>
<path d="M120.711 68.2237C121.34 67.9797 121.992 67.7985 122.658 67.6829C123.024 67.5898 123.405 67.5694 123.779 67.6228C124.317 67.8278 124.814 68.1248 125.245 68.5L125.553 68.7284C125.394 68.8457 125.225 68.9502 125.048 69.0408C124.509 69.2757 123.925 69.3946 123.335 69.3893C122.344 69.3276 121.41 68.9128 120.711 68.2237Z" fill="#2E6031" stroke="#336D33" stroke-width="0.15" stroke-miterlimit="10"/>
<path d="M123.692 73.5352C123.322 73.512 122.952 73.512 122.583 73.5352C122.305 73.4689 122.033 73.3805 121.77 73.2709C121.991 73.5169 122.276 73.6997 122.595 73.7996C122.957 73.9307 123.348 73.968 123.729 73.9078C123.729 73.9078 124.16 73.8477 124.135 73.7516C124.11 73.6554 123.753 73.5473 123.692 73.5352Z" fill="#681F0F"/>
<path d="M124.618 78.8949C124.261 78.8719 123.903 78.8719 123.546 78.8949C123.275 78.8382 123.01 78.7536 122.758 78.6425C122.965 78.8895 123.244 79.0696 123.558 79.1593C123.907 79.2907 124.286 79.3281 124.655 79.2674C124.655 79.2674 125.061 79.1953 125.049 79.1112C125.037 79.0271 124.667 78.9069 124.618 78.8949Z" fill="#681F0F"/>
<path d="M120.058 86.9583C119.454 86.6939 119.22 86.8261 118.69 86.6339C118.356 86.4788 118.034 86.298 117.729 86.0931C117.729 86.0931 118.074 86.6098 118.629 86.9583C119.046 87.2182 119.526 87.3673 120.021 87.3909C120.095 87.3909 120.575 87.3909 120.575 87.3068C120.575 87.2227 120.132 86.9823 120.058 86.9583Z" fill="#681F0F"/>
<path d="M123.851 74.3284C123.398 74.2617 122.941 74.2216 122.483 74.2082C122.136 74.1221 121.798 74.0055 121.473 73.8597C121.763 74.1528 122.123 74.3716 122.52 74.4966C122.963 74.6657 123.438 74.7356 123.912 74.7009C123.986 74.7009 124.442 74.7009 124.405 74.5567C124.368 74.4125 123.925 74.3284 123.851 74.3284Z" fill="#681F0F"/>
<path d="M116.448 81.815C117.077 81.9952 117.175 82.1034 117.68 82.2716C118.186 82.4399 118.752 82.5 118.752 82.524C118.336 82.5132 117.923 82.4567 117.52 82.3558C117.062 82.2594 116.616 82.1143 116.19 81.9232C116.19 81.9232 115.746 81.7189 115.82 81.6948C116.033 81.7171 116.243 81.7573 116.448 81.815Z" fill="#681F0F"/>
<path d="M114.835 80.3369C115.5 80.6133 115.574 80.7936 116.067 81.058C116.559 81.3223 117.212 81.3944 117.212 81.4425C116.75 81.4374 116.292 81.3562 115.857 81.2022C115.357 81.0522 114.886 80.8206 114.465 80.5172C114.403 80.5172 114.022 80.2047 114.12 80.1567C114.219 80.1086 114.761 80.2528 114.835 80.3369Z" fill="#681F0F"/>
<path d="M116.163 72.0091C116.73 72.3456 116.755 72.5498 117.223 72.8623C117.534 73.0503 117.859 73.215 118.196 73.355C117.763 73.3273 117.342 73.204 116.964 72.9945C116.531 72.7862 116.14 72.5056 115.806 72.1653C115.806 72.1653 115.461 71.7928 115.56 71.7567C115.658 71.7207 116.102 71.925 116.163 72.0091Z" fill="#681F0F"/>
<path d="M112.48 76.5395C113.096 76.7678 113.17 76.9841 113.712 77.2004C114.061 77.3236 114.419 77.4201 114.784 77.4888C114.373 77.5593 113.951 77.5346 113.552 77.4167C113.076 77.3129 112.63 77.1077 112.246 76.8159C112.246 76.8159 111.839 76.4914 111.913 76.4193C111.987 76.3472 112.406 76.5154 112.48 76.5395Z" fill="#681F0F"/>
<path d="M115.658 87.3909C115.528 87.3674 115.4 87.3312 115.276 87.2828C114.981 87.1987 114.956 87.2107 114.833 87.1626C114.716 87.1136 114.605 87.0532 114.5 86.9824C114.637 87.1427 114.81 87.2702 115.005 87.3549C115.193 87.432 115.393 87.4767 115.597 87.4871H115.72C115.814 87.4767 115.905 87.4523 115.991 87.415C115.88 87.4181 115.768 87.41 115.658 87.3909Z" fill="#681F0F"/>
<path d="M116.043 87.3429H116.179H116.302C116.395 87.3614 116.492 87.3614 116.585 87.3429C116.452 87.3285 116.327 87.2739 116.228 87.1867L116.129 87.1026C115.976 87.0306 115.806 86.9975 115.637 87.0064C115.449 86.9766 115.279 86.8829 115.156 86.7421C115.276 86.9154 115.431 87.0627 115.612 87.1747C115.747 87.2489 115.892 87.3055 116.043 87.3429Z" fill="#681F0F"/>
<path d="M120.232 86.8021C120.101 86.7785 119.973 86.7423 119.85 86.6939C119.698 86.6636 119.55 86.6193 119.407 86.5617C119.288 86.5209 119.176 86.4643 119.074 86.3935C119.214 86.5502 119.386 86.677 119.579 86.766C119.767 86.8431 119.967 86.8879 120.171 86.8982H120.294C120.389 86.8904 120.482 86.8616 120.565 86.8141C120.454 86.8285 120.341 86.8245 120.232 86.8021Z" fill="#681F0F"/>
<path d="M120.636 86.754H120.771H120.894C120.988 86.7725 121.084 86.7725 121.178 86.754C121.046 86.7337 120.923 86.6798 120.82 86.5978L120.722 86.5137C120.568 86.4417 120.399 86.4086 120.229 86.4176C120.042 86.3877 119.871 86.294 119.748 86.1532C119.868 86.3265 120.023 86.4738 120.204 86.5858C120.34 86.6601 120.485 86.7166 120.636 86.754Z" fill="#681F0F"/>
<path d="M117.15 73.7516L116.769 73.6434L116.337 73.5112C116.216 73.4674 116.101 73.411 115.992 73.343C116.135 73.4969 116.307 73.6233 116.497 73.7155C116.685 73.7918 116.886 73.8326 117.089 73.8357H117.224C117.316 73.8281 117.405 73.7993 117.483 73.7516H117.15Z" fill="#681F0F"/>
<path d="M117.533 73.6915H117.668H117.767C117.857 73.7029 117.948 73.7029 118.038 73.6915C117.907 73.669 117.785 73.6154 117.681 73.5353L117.582 73.4511C117.434 73.331 117.262 73.379 117.089 73.355C116.903 73.3235 116.736 73.2249 116.621 73.0786C116.731 73.2588 116.883 73.4111 117.065 73.5232C117.211 73.6013 117.369 73.658 117.533 73.6915Z" fill="#681F0F"/>
<path d="M121.068 80.5893L121.413 80.7816C121.539 80.8625 121.671 80.9348 121.807 80.9979L122.164 81.118C121.953 81.1245 121.744 81.0877 121.548 81.0099C121.358 80.9381 121.186 80.8275 121.043 80.6854L120.957 80.6013C120.9 80.5237 120.854 80.4388 120.821 80.3489C120.894 80.438 120.977 80.5186 121.068 80.5893Z" fill="#681F0F"/>
<path d="M120.846 80.3369L120.723 80.2648L120.625 80.1807C120.559 80.1133 120.505 80.0362 120.464 79.9523C120.567 80.0332 120.691 80.0833 120.822 80.0966H120.957C121.154 80.0966 121.241 80.2768 121.376 80.3729C121.526 80.4868 121.717 80.5386 121.906 80.5171C121.725 80.5554 121.538 80.5581 121.356 80.5251C121.174 80.4921 121.001 80.424 120.846 80.3249V80.3369Z" fill="#681F0F"/>
<path d="M112.84 77.5369C112.95 77.6092 113.065 77.6735 113.185 77.7292L113.591 77.9575C113.705 78.0088 113.825 78.0452 113.948 78.0657C113.734 78.0789 113.52 78.046 113.32 77.9695C113.135 77.8894 112.964 77.7797 112.815 77.6451L112.729 77.5489C112.68 77.4727 112.639 77.3922 112.606 77.3086C112.674 77.3936 112.753 77.4703 112.84 77.5369Z" fill="#681F0F"/>
<path d="M122.521 73.3069L122.139 73.1987L121.696 73.0666C121.58 73.0208 121.468 72.9644 121.363 72.8983C121.501 73.0543 121.674 73.1776 121.868 73.2588C122.056 73.3359 122.256 73.3806 122.459 73.391H122.583C122.677 73.3776 122.769 73.3492 122.854 73.3069H122.521Z" fill="#681F0F"/>
<path d="M122.902 73.2469C122.947 73.254 122.992 73.254 123.037 73.2469H123.16C123.254 73.2671 123.35 73.2671 123.444 73.2469C123.314 73.2214 123.192 73.168 123.086 73.0906C123.086 73.0906 123.086 73.0305 122.988 73.0065C122.889 72.9825 122.655 72.9344 122.495 72.9104C122.31 72.8687 122.142 72.7722 122.015 72.634C122.134 72.8073 122.29 72.9546 122.47 73.0666C122.602 73.1507 122.748 73.2117 122.902 73.2469Z" fill="#681F0F"/>
<path d="M120.772 81.0459L120.341 80.9257C120.178 80.8933 120.017 80.8491 119.861 80.7935C119.73 80.7449 119.606 80.6803 119.491 80.6013C119.641 80.7806 119.83 80.9245 120.046 81.0219C120.253 81.1064 120.474 81.1512 120.699 81.154H120.834C120.942 81.1354 121.046 81.0989 121.142 81.0459C121.019 81.0591 120.895 81.0591 120.772 81.0459Z" fill="#681F0F"/>
<path d="M121.191 80.9618C121.244 80.9689 121.298 80.9689 121.351 80.9618H121.462C121.567 80.9588 121.671 80.9385 121.77 80.9017C121.631 80.8749 121.5 80.8173 121.388 80.7335L121.277 80.6253C121.105 80.4931 120.92 80.5532 120.735 80.5412C120.528 80.504 120.344 80.3925 120.217 80.2288C120.338 80.4293 120.502 80.6016 120.698 80.7335C120.85 80.8321 121.016 80.9089 121.191 80.9618Z" fill="#681F0F"/>
<path d="M115.843 88.7489L115.707 88.6888H115.596C115.527 88.6277 115.465 88.5592 115.411 88.4845C115.523 88.549 115.652 88.5784 115.781 88.5686H115.916C116.114 88.5686 116.224 88.7128 116.372 88.7849C116.539 88.8705 116.732 88.8919 116.914 88.845C116.714 88.9198 116.499 88.9486 116.286 88.9291C116.131 88.8883 115.982 88.8277 115.843 88.7489Z" fill="#681F0F"/>
<path d="M115.895 89.542C115.748 89.5543 115.599 89.5543 115.452 89.542H114.959C114.821 89.5115 114.689 89.4629 114.565 89.3978C114.74 89.5553 114.951 89.6706 115.181 89.7343C115.396 89.777 115.618 89.777 115.834 89.7343H115.981C116.083 89.6955 116.178 89.6429 116.265 89.578C116.14 89.5828 116.016 89.5706 115.895 89.542Z" fill="#681F0F"/>
<path d="M116.299 89.4098H116.594C116.698 89.3891 116.798 89.3526 116.89 89.3016C116.747 89.3011 116.607 89.2637 116.483 89.1935L116.36 89.1094C116.175 89.0012 115.991 89.1094 115.806 89.1094C115.595 89.1035 115.393 89.0223 115.239 88.881C115.39 89.0638 115.585 89.2082 115.806 89.3016C115.963 89.3618 116.13 89.3982 116.299 89.4098Z" fill="#681F0F"/>
<path d="M119.86 69.7258L119.478 69.6176L118.998 69.5215C118.877 69.4777 118.761 69.4213 118.653 69.3533C118.801 69.5068 118.976 69.633 119.17 69.7258C119.358 69.8021 119.558 69.8429 119.762 69.846H119.885C119.98 69.8381 120.073 69.8093 120.156 69.7618C120.056 69.759 119.957 69.7469 119.86 69.7258Z" fill="#681F0F"/>
<path d="M120.229 69.6657H120.377H120.5C120.59 69.6772 120.681 69.6772 120.771 69.6657C120.644 69.6428 120.526 69.5891 120.426 69.5095C120.388 69.4876 120.355 69.4591 120.327 69.4254C120.167 69.3052 119.995 69.3533 119.835 69.3292C119.644 69.3019 119.471 69.2027 119.354 69.0529C119.469 69.233 119.625 69.3851 119.81 69.4975C119.94 69.5736 120.081 69.6303 120.229 69.6657Z" fill="#681F0F"/>
<path d="M119.823 70.2065L120.168 70.3988C120.439 70.543 120.439 70.567 120.562 70.6151C120.682 70.6643 120.805 70.7044 120.932 70.7353C120.717 70.7431 120.502 70.7063 120.303 70.6271C120.115 70.5523 119.943 70.4421 119.798 70.3027L119.712 70.2186C119.653 70.144 119.611 70.0579 119.589 69.9662C119.656 70.0555 119.735 70.1362 119.823 70.2065Z" fill="#681F0F"/>
<path d="M119.599 69.894L119.488 69.8219L119.39 69.7378C119.317 69.6769 119.261 69.5981 119.23 69.5095C119.331 69.5923 119.455 69.6426 119.587 69.6537H119.71C119.907 69.6537 120.006 69.8339 120.129 69.93C120.282 70.0396 120.47 70.0909 120.659 70.0743C120.452 70.116 120.238 70.116 120.03 70.0743C119.879 70.0329 119.734 69.9723 119.599 69.894Z" fill="#681F0F"/>
<path d="M113.046 83.9421C112.86 83.9245 112.675 83.8964 112.492 83.8579C112.073 83.7738 112.048 83.7858 111.863 83.7378C111.687 83.6978 111.514 83.6456 111.346 83.5815C111.837 83.881 112.405 84.0393 112.985 84.0382H113.157C113.276 84.0227 113.392 83.9903 113.502 83.9421C113.35 83.9558 113.198 83.9558 113.046 83.9421Z" fill="#681F0F"/>
<path d="M113.539 83.942H113.736H113.909C114.034 83.9393 114.159 83.919 114.278 83.8819C114.094 83.8658 113.915 83.8169 113.749 83.7377L113.589 83.6656C113.368 83.5862 113.132 83.5574 112.899 83.5815C112.635 83.5588 112.38 83.4721 112.159 83.3292C112.386 83.5072 112.639 83.6492 112.911 83.7497C113.113 83.8342 113.324 83.8986 113.539 83.942Z" fill="#681F0F"/>
<path d="M112.369 83.4733C112.239 83.4546 112.111 83.4224 111.987 83.3772L111.556 83.245C111.436 83.1989 111.321 83.1426 111.211 83.0768C111.352 83.2299 111.524 83.3527 111.716 83.4373C111.904 83.5144 112.104 83.5591 112.308 83.5695H112.443C112.534 83.5563 112.621 83.5278 112.702 83.4854C112.591 83.4985 112.479 83.4944 112.369 83.4733Z" fill="#681F0F"/>
<path d="M112.754 83.4253C112.799 83.4325 112.845 83.4325 112.889 83.4253H113.025C113.114 83.445 113.207 83.445 113.296 83.4253C113.166 83.3999 113.044 83.3465 112.939 83.2691C112.939 83.2691 112.939 83.209 112.84 83.185C112.742 83.1609 112.507 83.1129 112.347 83.0888C112.162 83.0472 111.994 82.9507 111.867 82.8124C111.99 82.9828 112.145 83.1294 112.323 83.2451C112.456 83.3264 112.601 83.3873 112.754 83.4253Z" fill="#681F0F"/>
</svg>
