<svg width="230" height="165" viewBox="0 0 230 165" fill="none" xmlns="http://www.w3.org/2000/svg">
<rect width="230" height="165" rx="6.7" fill="white"/>
<path d="M85.2554 148.112C84.3701 148.112 83.5754 147.925 82.8714 147.552C82.1674 147.179 81.6181 146.661 81.2234 146C80.8288 145.328 80.6314 144.571 80.6314 143.728C80.6314 142.885 80.8288 142.133 81.2234 141.472C81.6181 140.811 82.1621 140.293 82.8554 139.92C83.5594 139.547 84.3594 139.36 85.2554 139.36C86.0981 139.36 86.8341 139.531 87.4634 139.872C88.1034 140.213 88.5834 140.704 88.9034 141.344L87.3674 142.24C87.1221 141.845 86.8128 141.552 86.4394 141.36C86.0768 141.157 85.6768 141.056 85.2394 141.056C84.4928 141.056 83.8741 141.301 83.3834 141.792C82.8928 142.272 82.6474 142.917 82.6474 143.728C82.6474 144.539 82.8874 145.189 83.3674 145.68C83.8581 146.16 84.4821 146.4 85.2394 146.4C85.6768 146.4 86.0768 146.304 86.4394 146.112C86.8128 145.909 87.1221 145.611 87.3674 145.216L88.9034 146.112C88.5728 146.752 88.0874 147.248 87.4474 147.6C86.8181 147.941 86.0874 148.112 85.2554 148.112ZM93.8963 139.36C95.155 139.36 96.115 139.664 96.7763 140.272C97.4483 140.869 97.7843 141.776 97.7843 142.992V148H95.8963V146.96C95.651 147.333 95.299 147.621 94.8403 147.824C94.3923 148.016 93.8483 148.112 93.2083 148.112C92.5683 148.112 92.0083 148.005 91.5283 147.792C91.0483 147.568 90.675 147.264 90.4083 146.88C90.1523 146.485 90.0243 146.043 90.0243 145.552C90.0243 144.784 90.307 144.171 90.8723 143.712C91.4483 143.243 92.3496 143.008 93.5763 143.008H95.7843V142.88C95.7843 142.283 95.603 141.824 95.2403 141.504C94.8883 141.184 94.3603 141.024 93.6563 141.024C93.1763 141.024 92.7016 141.099 92.2323 141.248C91.7736 141.397 91.3843 141.605 91.0643 141.872L90.2803 140.416C90.7283 140.075 91.267 139.813 91.8963 139.632C92.5256 139.451 93.1923 139.36 93.8963 139.36ZM93.6243 146.656C94.1256 146.656 94.5683 146.544 94.9523 146.32C95.347 146.085 95.6243 145.755 95.7843 145.328V144.336H93.7203C92.5683 144.336 91.9923 144.715 91.9923 145.472C91.9923 145.835 92.1363 146.123 92.4243 146.336C92.7123 146.549 93.1123 146.656 93.6243 146.656ZM105.487 147.536C105.252 147.728 104.964 147.872 104.623 147.968C104.292 148.064 103.94 148.112 103.567 148.112C102.628 148.112 101.903 147.867 101.391 147.376C100.879 146.885 100.623 146.171 100.623 145.232V141.12H99.2151V139.52H100.623V137.568H102.623V139.52H104.911V141.12H102.623V145.184C102.623 145.6 102.724 145.92 102.927 146.144C103.13 146.357 103.423 146.464 103.807 146.464C104.255 146.464 104.628 146.347 104.927 146.112L105.487 147.536ZM111.98 139.36C113.058 139.36 113.922 139.675 114.572 140.304C115.223 140.933 115.548 141.867 115.548 143.104V148H113.548V143.36C113.548 142.613 113.372 142.053 113.02 141.68C112.668 141.296 112.167 141.104 111.516 141.104C110.78 141.104 110.199 141.328 109.772 141.776C109.346 142.213 109.132 142.848 109.132 143.68V148H107.132V136.128H109.132V140.448C109.463 140.096 109.868 139.829 110.348 139.648C110.839 139.456 111.383 139.36 111.98 139.36ZM126.196 143.776C126.196 143.915 126.185 144.112 126.164 144.368H119.46C119.577 144.997 119.881 145.499 120.372 145.872C120.873 146.235 121.492 146.416 122.228 146.416C123.166 146.416 123.94 146.107 124.548 145.488L125.62 146.72C125.236 147.179 124.75 147.525 124.164 147.76C123.577 147.995 122.916 148.112 122.18 148.112C121.241 148.112 120.414 147.925 119.7 147.552C118.985 147.179 118.43 146.661 118.036 146C117.652 145.328 117.46 144.571 117.46 143.728C117.46 142.896 117.646 142.149 118.02 141.488C118.404 140.816 118.932 140.293 119.604 139.92C120.276 139.547 121.033 139.36 121.876 139.36C122.708 139.36 123.449 139.547 124.1 139.92C124.761 140.283 125.273 140.8 125.636 141.472C126.009 142.133 126.196 142.901 126.196 143.776ZM121.876 140.96C121.236 140.96 120.692 141.152 120.244 141.536C119.806 141.909 119.54 142.411 119.444 143.04H124.292C124.206 142.421 123.945 141.92 123.508 141.536C123.07 141.152 122.526 140.96 121.876 140.96ZM133.253 147.536C133.018 147.728 132.73 147.872 132.389 147.968C132.058 148.064 131.706 148.112 131.333 148.112C130.394 148.112 129.669 147.867 129.157 147.376C128.645 146.885 128.389 146.171 128.389 145.232V141.12H126.981V139.52H128.389V137.568H130.389V139.52H132.677V141.12H130.389V145.184C130.389 145.6 130.49 145.92 130.693 146.144C130.895 146.357 131.189 146.464 131.573 146.464C132.021 146.464 132.394 146.347 132.693 146.112L133.253 147.536ZM142.649 143.776C142.649 143.915 142.638 144.112 142.617 144.368H135.913C136.03 144.997 136.334 145.499 136.825 145.872C137.326 146.235 137.945 146.416 138.681 146.416C139.619 146.416 140.393 146.107 141.001 145.488L142.073 146.72C141.689 147.179 141.203 147.525 140.617 147.76C140.03 147.995 139.369 148.112 138.633 148.112C137.694 148.112 136.867 147.925 136.153 147.552C135.438 147.179 134.883 146.661 134.489 146C134.105 145.328 133.913 144.571 133.913 143.728C133.913 142.896 134.099 142.149 134.473 141.488C134.857 140.816 135.385 140.293 136.057 139.92C136.729 139.547 137.486 139.36 138.329 139.36C139.161 139.36 139.902 139.547 140.553 139.92C141.214 140.283 141.726 140.8 142.089 141.472C142.462 142.133 142.649 142.901 142.649 143.776ZM138.329 140.96C137.689 140.96 137.145 141.152 136.697 141.536C136.259 141.909 135.993 142.411 135.897 143.04H140.745C140.659 142.421 140.398 141.92 139.961 141.536C139.523 141.152 138.979 140.96 138.329 140.96ZM146.474 140.704C147.05 139.808 148.063 139.36 149.514 139.36V141.264C149.343 141.232 149.188 141.216 149.05 141.216C148.271 141.216 147.663 141.445 147.226 141.904C146.788 142.352 146.57 143.003 146.57 143.856V148H144.57V139.456H146.474V140.704Z" fill="black"/>
<path opacity="0.2" d="M86.2632 83.37C84.7378 89.2033 81.4277 92.9533 77.5531 97.239C74.1393 100.991 70.2839 104.338 66.0668 107.209L64.8922 73.5337L65.1363 73.7569C66.0973 72.8342 72.3057 66.9861 79.6887 68.3403C81.6996 68.5912 83.5702 69.48 85.0124 70.87C88.5361 74.5307 87.0106 80.7063 86.2632 83.37Z" fill="#D84B35"/>
<path opacity="0.2" d="M66.0653 107.269L65.928 107.358C61.4222 104.766 57.3397 101.531 53.8163 97.7597C50.6282 94.3371 46.6773 89.992 44.9536 83.2955C44.2367 80.4979 42.6045 74.0992 46.1587 70.6617C47.4083 69.5471 48.9795 68.8352 50.6587 68.623C57.401 67.3432 63.2891 72.1497 64.8908 73.5932L66.0653 107.269Z" fill="#E04E40"/>
<path opacity="0.2" d="M138.875 76.0933C137.349 81.9267 134.039 85.6767 130.164 89.9624C126.751 93.7146 122.895 97.0611 118.678 99.9326L117.519 66.2571L117.763 66.4803C118.724 65.5577 124.932 59.7095 132.315 61.0637C134.326 61.3146 136.197 62.2035 137.639 63.5934C141.208 67.269 139.622 73.4297 138.875 76.0933Z" fill="#D84B35"/>
<path opacity="0.2" d="M118.737 99.9325L118.599 100.022C114.094 97.4302 110.011 94.1949 106.488 90.4235C103.3 87.0009 99.3487 82.6557 97.625 75.9593C96.908 73.1617 95.2758 66.7629 98.8301 63.3254C100.08 62.2108 101.651 61.4989 103.33 61.2867C110.072 60.0069 115.96 64.8135 117.562 66.2569L118.737 99.9325Z" fill="#E04E40"/>
<path opacity="0.2" d="M189.044 83.37C187.518 89.2033 184.208 92.9533 180.334 97.239C176.92 100.991 173.064 104.338 168.847 107.209L167.673 73.5337L167.917 73.7569C168.878 72.8342 175.086 66.9861 182.469 68.3403C184.48 68.5912 186.351 69.48 187.793 70.87C191.317 74.5307 189.73 80.7063 189.044 83.37Z" fill="#D84B35"/>
<path opacity="0.2" d="M168.849 107.269L168.711 107.358C164.206 104.766 160.123 101.531 156.6 97.7597C153.412 94.3371 149.461 89.992 147.737 83.2955C147.02 80.4979 145.388 74.0992 148.942 70.6617C150.212 69.5332 151.812 68.8204 153.518 68.623C160.261 67.3432 166.149 72.1497 167.75 73.5932L168.849 107.269Z" fill="#E04E40"/>
<path opacity="0.4" d="M84.279 79.8136C82.7536 85.6469 79.4434 89.3969 75.5689 93.6826C72.1551 97.4348 68.2997 100.781 64.0825 103.653L62.908 69.9773L63.152 70.2006C64.1131 69.2779 70.3215 63.4297 77.7044 64.7839C79.7154 65.0348 81.5859 65.9237 83.0281 67.3137C86.5518 70.9892 84.9654 77.1499 84.279 79.8136Z" fill="#D84B35"/>
<path opacity="0.4" d="M64.1288 103.653L63.9915 103.742C59.4856 101.15 55.4031 97.9151 51.8797 94.1437C48.6916 90.7211 44.7408 86.3759 43.0171 79.6795C42.3001 76.8819 40.6679 70.4831 44.2221 67.0456C45.4923 65.9171 47.0924 65.2043 48.7984 65.0069C55.5407 63.7271 61.4288 68.5337 63.0305 69.9772L64.1288 103.653Z" fill="#E04E40"/>
<path opacity="0.4" d="M136.95 72.5366C135.425 78.3699 132.115 82.1199 128.24 86.4056C124.826 90.1579 120.971 93.5044 116.754 96.3758L115.579 62.7003L115.823 62.9236C116.784 62.001 122.993 56.1527 130.376 57.5069C132.387 57.7579 134.257 58.6468 135.699 60.0367C139.223 63.7123 137.637 69.8729 136.95 72.5366Z" fill="#D84B35"/>
<path opacity="0.4" d="M116.755 96.376L116.618 96.4653C112.112 93.8737 108.03 90.6384 104.506 86.867C101.318 83.4444 97.3675 79.0993 95.6437 72.4028C94.9268 69.6052 93.2946 63.2065 96.8488 59.769C98.119 58.6405 99.719 57.9277 101.425 57.7303C108.167 56.4505 114.055 61.257 115.657 62.7005L116.755 96.376Z" fill="#E04E40"/>
<path opacity="0.4" d="M187.077 79.8136C185.552 85.6469 182.242 89.3969 178.367 93.6826C174.953 97.4348 171.098 100.781 166.881 103.653L165.706 69.9773L165.95 70.2006C166.911 69.2779 173.12 63.4297 180.503 64.7839C182.514 65.0348 184.384 65.9237 185.827 67.3137C189.35 70.9892 187.764 77.1499 187.077 79.8136Z" fill="#D84B35"/>
<path opacity="0.4" d="M166.879 103.653L166.742 103.742C162.236 101.15 158.154 97.9151 154.63 94.1437C151.442 90.7211 147.491 86.3759 145.768 79.6795C145.051 76.8819 143.419 70.4831 146.973 67.0456C148.222 65.931 149.794 65.2191 151.473 65.0069C158.215 63.7271 164.103 68.5337 165.705 69.9772L166.879 103.653Z" fill="#E04E40"/>
<path d="M82.3126 76.0933C80.7872 81.9267 77.4771 85.6767 73.6025 89.9624C70.1887 93.7146 66.3333 97.0611 62.1162 99.9326L60.9416 66.2571L61.1857 66.4803C62.1467 65.5577 68.3551 59.7095 75.7381 61.0637C77.749 61.3146 79.6196 62.2035 81.0618 63.5934C84.5855 67.269 82.999 73.4297 82.3126 76.0933Z" fill="#D84B35"/>
<path d="M62.1147 99.9325L61.9774 100.022C57.4716 97.4302 53.3891 94.1949 49.8657 90.4235C46.6776 87.0009 42.7268 82.6557 41.0031 75.9593C40.2861 73.1617 38.6539 66.7629 42.2081 63.3254C43.4783 62.1969 45.0784 61.4841 46.7844 61.2867C53.5267 60.0069 59.4148 64.8135 61.0165 66.2569L62.1147 99.9325Z" fill="#E04E40"/>
<path d="M41.0636 58.9801C45.9637 65.5734 50.2324 72.592 53.816 79.9473C56.9989 86.4383 59.6908 93.1476 61.8702 100.022C63.8185 93.7789 66.0996 87.6396 68.704 81.6289C72.0628 73.8088 76.0038 66.2389 80.4955 58.9801C76.4704 63.0436 72.8207 67.4456 69.5888 72.1349C66.8178 76.1515 64.3307 80.3477 62.1448 84.6944C59.5036 80.1921 56.5421 75.876 53.2821 71.7777C49.6052 67.1679 45.5163 62.8852 41.0636 58.9801Z" fill="white"/>
<path d="M134.984 68.8164C133.459 74.6497 130.148 78.3997 126.274 82.6854C122.86 86.4376 119.005 89.7842 114.788 92.6556L113.613 58.9801L113.857 59.2034C114.818 58.2807 121.026 52.4325 128.409 53.7867C130.42 54.0376 132.291 54.9265 133.733 56.3165C137.257 59.992 135.67 66.1527 134.984 68.8164Z" fill="#D84B35"/>
<path d="M114.786 92.6558L114.649 92.745C110.143 90.1535 106.06 86.9182 102.537 83.1468C99.3489 79.7242 95.3981 75.379 93.6744 68.6826C92.9575 65.885 91.3253 59.4862 94.8795 56.0488C96.1496 54.9203 97.7497 54.2075 99.4557 54.0101C106.198 52.7303 112.086 57.5368 113.688 58.9802L114.786 92.6558Z" fill="#E04E40"/>
<path d="M93.7379 51.7034C98.638 58.2967 102.907 65.3153 106.49 72.6706C109.673 79.1615 112.365 85.8709 114.545 92.7449C116.478 86.503 118.744 80.3638 121.333 74.3522C124.691 66.532 128.632 58.9622 133.124 51.7034C129.099 55.7668 125.449 60.1689 122.217 64.8581C119.45 68.8767 116.963 73.0727 114.773 77.4176C112.125 72.9197 109.164 68.6041 105.911 64.501C102.245 59.8961 98.1713 55.6138 93.7379 51.7034Z" fill="white"/>
<path d="M185.093 76.0933C183.568 81.9267 180.258 85.6767 176.383 89.9624C172.969 93.7146 169.114 97.0611 164.897 99.9326L163.722 66.2571L163.966 66.4803C164.927 65.5577 171.136 59.7095 178.519 61.0637C180.529 61.3146 182.4 62.2035 183.842 63.5934C187.366 67.269 185.78 73.4297 185.093 76.0933Z" fill="#D84B35"/>
<path d="M164.898 99.9325L164.761 100.022C160.255 97.4302 156.173 94.1949 152.649 90.4235C149.461 87.0009 145.51 82.6557 143.787 75.9593C143.07 73.1617 141.437 66.7629 144.992 63.3254C146.262 62.1969 147.862 61.4841 149.568 61.2867C156.31 60.0069 162.198 64.8135 163.8 66.2569L164.898 99.9325Z" fill="#E04E40"/>
<path d="M143.847 58.9801C148.747 65.5762 153.021 72.5943 156.615 79.9473C159.793 86.4384 162.48 93.1477 164.654 100.022C166.594 93.7819 168.859 87.643 171.442 81.6289C174.813 73.8144 178.753 66.2454 183.233 58.9801C179.217 63.0512 175.568 67.4525 172.326 72.1349C169.561 76.1549 167.074 80.3507 164.882 84.6944C162.247 80.1888 159.285 75.8723 156.02 71.7777C152.362 67.1662 148.288 62.8832 143.847 58.9801Z" fill="white"/>
</svg>
