<svg width="230" height="165" viewBox="0 0 230 165" fill="none" xmlns="http://www.w3.org/2000/svg">
<rect width="230" height="165" rx="6.7" fill="white"/>
<path d="M51.8883 149.311C51.0029 149.311 50.2083 149.124 49.5043 148.751C48.8003 148.377 48.2509 147.86 47.8563 147.199C47.4616 146.527 47.2643 145.769 47.2643 144.927C47.2643 144.084 47.4616 143.332 47.8563 142.671C48.2509 142.009 48.7949 141.492 49.4883 141.119C50.1923 140.745 50.9923 140.559 51.8883 140.559C52.7309 140.559 53.4669 140.729 54.0963 141.071C54.7363 141.412 55.2163 141.903 55.5363 142.543L54.0003 143.439C53.7549 143.044 53.4456 142.751 53.0723 142.559C52.7096 142.356 52.3096 142.255 51.8723 142.255C51.1256 142.255 50.5069 142.5 50.0163 142.991C49.5256 143.471 49.2803 144.116 49.2803 144.927C49.2803 145.737 49.5203 146.388 50.0003 146.879C50.4909 147.359 51.1149 147.599 51.8723 147.599C52.3096 147.599 52.7096 147.503 53.0723 147.311C53.4456 147.108 53.7549 146.809 54.0003 146.415L55.5363 147.311C55.2056 147.951 54.7203 148.447 54.0803 148.799C53.4509 149.14 52.7203 149.311 51.8883 149.311ZM60.9801 149.311C60.1161 149.311 59.3375 149.124 58.6441 148.751C57.9508 148.377 57.4068 147.86 57.0121 147.199C56.6281 146.527 56.4361 145.769 56.4361 144.927C56.4361 144.084 56.6281 143.332 57.0121 142.671C57.4068 142.009 57.9508 141.492 58.6441 141.119C59.3375 140.745 60.1161 140.559 60.9801 140.559C61.8548 140.559 62.6388 140.745 63.3321 141.119C64.0255 141.492 64.5641 142.009 64.9481 142.671C65.3428 143.332 65.5401 144.084 65.5401 144.927C65.5401 145.769 65.3428 146.527 64.9481 147.199C64.5641 147.86 64.0255 148.377 63.3321 148.751C62.6388 149.124 61.8548 149.311 60.9801 149.311ZM60.9801 147.599C61.7161 147.599 62.3241 147.353 62.8041 146.863C63.2841 146.372 63.5241 145.727 63.5241 144.927C63.5241 144.127 63.2841 143.481 62.8041 142.991C62.3241 142.5 61.7161 142.255 60.9801 142.255C60.2441 142.255 59.6361 142.5 59.1561 142.991C58.6868 143.481 58.4521 144.127 58.4521 144.927C58.4521 145.727 58.6868 146.372 59.1561 146.863C59.6361 147.353 60.2441 147.599 60.9801 147.599ZM78.2366 140.559C79.314 140.559 80.1673 140.873 80.7966 141.503C81.426 142.121 81.7406 143.055 81.7406 144.303V149.199H79.7406V144.559C79.7406 143.812 79.5753 143.252 79.2446 142.879C78.914 142.495 78.4393 142.303 77.8206 142.303C77.1486 142.303 76.61 142.527 76.2046 142.975C75.7993 143.412 75.5966 144.041 75.5966 144.863V149.199H73.5966V144.559C73.5966 143.812 73.4313 143.252 73.1006 142.879C72.77 142.495 72.2953 142.303 71.6766 142.303C70.994 142.303 70.45 142.521 70.0446 142.959C69.65 143.396 69.4526 144.031 69.4526 144.863V149.199H67.4526V140.655H69.3566V141.743C69.6766 141.359 70.0766 141.065 70.5566 140.863C71.0366 140.66 71.57 140.559 72.1566 140.559C72.7966 140.559 73.362 140.681 73.8526 140.927C74.354 141.161 74.7486 141.513 75.0366 141.983C75.3886 141.535 75.842 141.188 76.3966 140.943C76.9513 140.687 77.5646 140.559 78.2366 140.559ZM95.0804 140.559C96.1577 140.559 97.011 140.873 97.6404 141.503C98.2697 142.121 98.5844 143.055 98.5844 144.303V149.199H96.5844V144.559C96.5844 143.812 96.419 143.252 96.0884 142.879C95.7577 142.495 95.283 142.303 94.6644 142.303C93.9924 142.303 93.4537 142.527 93.0484 142.975C92.643 143.412 92.4404 144.041 92.4404 144.863V149.199H90.4404V144.559C90.4404 143.812 90.275 143.252 89.9444 142.879C89.6137 142.495 89.139 142.303 88.5204 142.303C87.8377 142.303 87.2937 142.521 86.8884 142.959C86.4937 143.396 86.2964 144.031 86.2964 144.863V149.199H84.2964V140.655H86.2004V141.743C86.5204 141.359 86.9204 141.065 87.4004 140.863C87.8804 140.66 88.4137 140.559 89.0004 140.559C89.6404 140.559 90.2057 140.681 90.6964 140.927C91.1977 141.161 91.5924 141.513 91.8804 141.983C92.2324 141.535 92.6857 141.188 93.2404 140.943C93.795 140.687 94.4084 140.559 95.0804 140.559ZM109.412 140.655V149.199H107.508V148.111C107.188 148.495 106.788 148.793 106.308 149.007C105.828 149.209 105.311 149.311 104.756 149.311C103.615 149.311 102.713 148.996 102.052 148.367C101.401 147.727 101.076 146.783 101.076 145.535V140.655H103.076V145.263C103.076 146.031 103.247 146.607 103.588 146.991C103.94 147.364 104.436 147.551 105.076 147.551C105.791 147.551 106.356 147.332 106.772 146.895C107.199 146.447 107.412 145.807 107.412 144.975V140.655H109.412ZM116.879 140.559C117.956 140.559 118.82 140.873 119.471 141.503C120.121 142.132 120.447 143.065 120.447 144.303V149.199H118.447V144.559C118.447 143.812 118.271 143.252 117.919 142.879C117.567 142.495 117.065 142.303 116.415 142.303C115.679 142.303 115.097 142.527 114.671 142.975C114.244 143.412 114.031 144.047 114.031 144.879V149.199H112.031V140.655H113.935V141.759C114.265 141.364 114.681 141.065 115.183 140.863C115.684 140.66 116.249 140.559 116.879 140.559ZM122.984 140.655H124.984V149.199H122.984V140.655ZM123.992 139.247C123.629 139.247 123.325 139.135 123.08 138.911C122.835 138.676 122.712 138.388 122.712 138.047C122.712 137.705 122.835 137.423 123.08 137.199C123.325 136.964 123.629 136.847 123.992 136.847C124.355 136.847 124.659 136.959 124.904 137.183C125.149 137.396 125.272 137.668 125.272 137.999C125.272 138.351 125.149 138.649 124.904 138.895C124.669 139.129 124.365 139.247 123.992 139.247ZM132.745 148.735C132.51 148.927 132.222 149.071 131.881 149.167C131.55 149.263 131.198 149.311 130.825 149.311C129.886 149.311 129.161 149.065 128.649 148.575C128.137 148.084 127.881 147.369 127.881 146.431V142.319H126.473V140.719H127.881V138.767H129.881V140.719H132.169V142.319H129.881V146.383C129.881 146.799 129.982 147.119 130.185 147.343C130.388 147.556 130.681 147.663 131.065 147.663C131.513 147.663 131.886 147.545 132.185 147.311L132.745 148.735ZM142.234 140.655L138.234 149.887C137.861 150.815 137.407 151.465 136.874 151.839C136.341 152.223 135.695 152.415 134.938 152.415C134.511 152.415 134.09 152.345 133.674 152.207C133.258 152.068 132.917 151.876 132.65 151.631L133.45 150.159C133.642 150.34 133.866 150.484 134.122 150.591C134.389 150.697 134.655 150.751 134.922 150.751C135.274 150.751 135.562 150.66 135.786 150.479C136.021 150.297 136.234 149.993 136.426 149.567L136.57 149.231L132.842 140.655H134.922L137.61 146.975L140.314 140.655H142.234ZM151.826 149.311C150.94 149.311 150.146 149.124 149.442 148.751C148.738 148.377 148.188 147.86 147.794 147.199C147.399 146.527 147.202 145.769 147.202 144.927C147.202 144.084 147.399 143.332 147.794 142.671C148.188 142.009 148.732 141.492 149.426 141.119C150.13 140.745 150.93 140.559 151.826 140.559C152.668 140.559 153.404 140.729 154.034 141.071C154.674 141.412 155.154 141.903 155.474 142.543L153.938 143.439C153.692 143.044 153.383 142.751 153.01 142.559C152.647 142.356 152.247 142.255 151.81 142.255C151.063 142.255 150.444 142.5 149.954 142.991C149.463 143.471 149.218 144.116 149.218 144.927C149.218 145.737 149.458 146.388 149.938 146.879C150.428 147.359 151.052 147.599 151.81 147.599C152.247 147.599 152.647 147.503 153.01 147.311C153.383 147.108 153.692 146.809 153.938 146.415L155.474 147.311C155.143 147.951 154.658 148.447 154.018 148.799C153.388 149.14 152.658 149.311 151.826 149.311ZM160.467 140.559C161.725 140.559 162.685 140.863 163.347 141.471C164.019 142.068 164.355 142.975 164.355 144.191V149.199H162.467V148.159C162.221 148.532 161.869 148.82 161.411 149.023C160.963 149.215 160.419 149.311 159.779 149.311C159.139 149.311 158.579 149.204 158.099 148.991C157.619 148.767 157.245 148.463 156.979 148.079C156.723 147.684 156.595 147.241 156.595 146.751C156.595 145.983 156.877 145.369 157.443 144.911C158.019 144.441 158.92 144.207 160.147 144.207H162.355V144.079C162.355 143.481 162.173 143.023 161.811 142.703C161.459 142.383 160.931 142.223 160.227 142.223C159.747 142.223 159.272 142.297 158.803 142.447C158.344 142.596 157.955 142.804 157.635 143.071L156.851 141.615C157.299 141.273 157.837 141.012 158.467 140.831C159.096 140.649 159.763 140.559 160.467 140.559ZM160.195 147.855C160.696 147.855 161.139 147.743 161.523 147.519C161.917 147.284 162.195 146.953 162.355 146.527V145.535H160.291C159.139 145.535 158.563 145.913 158.563 146.671C158.563 147.033 158.707 147.321 158.995 147.535C159.283 147.748 159.683 147.855 160.195 147.855ZM170.393 138.831C169.551 138.831 169.129 139.289 169.129 140.207V140.719H171.481V142.319H169.193V149.199H167.193V142.319H165.785V140.719H167.193V140.175C167.193 139.257 167.46 138.537 167.993 138.015C168.527 137.481 169.279 137.215 170.249 137.215C171.017 137.215 171.62 137.369 172.057 137.679L171.497 139.183C171.156 138.948 170.788 138.831 170.393 138.831ZM180.735 144.975C180.735 145.113 180.724 145.311 180.703 145.567H173.999C174.116 146.196 174.42 146.697 174.911 147.071C175.412 147.433 176.031 147.615 176.767 147.615C177.705 147.615 178.479 147.305 179.087 146.687L180.159 147.919C179.775 148.377 179.289 148.724 178.703 148.959C178.116 149.193 177.455 149.311 176.719 149.311C175.78 149.311 174.953 149.124 174.239 148.751C173.524 148.377 172.969 147.86 172.575 147.199C172.191 146.527 171.999 145.769 171.999 144.927C171.999 144.095 172.185 143.348 172.559 142.687C172.943 142.015 173.471 141.492 174.143 141.119C174.815 140.745 175.572 140.559 176.415 140.559C177.247 140.559 177.988 140.745 178.639 141.119C179.3 141.481 179.812 141.999 180.175 142.671C180.548 143.332 180.735 144.1 180.735 144.975ZM176.415 142.159C175.775 142.159 175.231 142.351 174.783 142.735C174.345 143.108 174.079 143.609 173.983 144.239H178.831C178.745 143.62 178.484 143.119 178.047 142.735C177.609 142.351 177.065 142.159 176.415 142.159Z" fill="black"/>
<path d="M83.7497 121.125C83.2587 121.122 82.7736 121.021 82.3244 120.828C81.8753 120.634 81.4717 120.353 81.1388 120C80.8059 119.648 80.5507 119.233 80.3892 118.781C80.2276 118.329 80.1632 117.849 80.1998 117.371L83.6555 73.347L80.6082 72.397C79.4968 71.9671 78.5112 71.2766 77.7386 70.3866C76.966 69.4966 76.4302 68.4345 76.1786 67.2943L75.6132 64.6893C75.3022 63.3052 75.249 61.8778 75.4561 60.4754L77.7651 44.8455C77.7798 44.7534 77.8271 44.6692 77.8989 44.6076C77.9706 44.546 78.0623 44.5109 78.1578 44.5084H80.9067C81.0108 44.5084 81.1107 44.5488 81.1843 44.6206C81.258 44.6925 81.2994 44.7899 81.2994 44.8915V61.4407C81.2993 61.7145 81.4097 61.9772 81.6066 62.1722C81.8036 62.3672 82.0712 62.4787 82.3518 62.4827H83.2942C83.5248 62.4787 83.7445 62.3865 83.9061 62.226C84.0677 62.0656 84.1582 61.8496 84.1581 61.6246L85.3205 43.3438C85.3284 43.2476 85.3733 43.1579 85.4461 43.0926C85.5189 43.0272 85.6143 42.9911 85.7132 42.9914H88.2264C88.2773 42.9893 88.328 42.9973 88.3755 43.0149C88.4231 43.0324 88.4665 43.0592 88.5032 43.0936C88.5399 43.1279 88.5691 43.1692 88.589 43.2148C88.6089 43.2604 88.6192 43.3096 88.6191 43.3592L89.2474 61.2109C89.2453 61.349 89.2714 61.4862 89.3242 61.6144C89.3769 61.7426 89.4553 61.8592 89.5547 61.9576C89.6541 62.056 89.7725 62.1341 89.9031 62.1875C90.0338 62.2408 90.1739 62.2682 90.3155 62.2682H90.8653C90.9767 62.2702 91.0874 62.2508 91.1911 62.2111C91.2948 62.1714 91.3895 62.1121 91.4697 62.0367C91.55 61.9613 91.6142 61.8712 91.6587 61.7716C91.7032 61.672 91.7272 61.5647 91.7292 61.4561L92.2633 45.106C92.2674 45.0071 92.3105 44.9136 92.3837 44.845C92.4569 44.7764 92.5545 44.7382 92.656 44.7383H94.7451C94.8384 44.7401 94.9283 44.773 94.9997 44.8315C95.0711 44.8901 95.1199 44.9707 95.1378 45.0601L97.5882 60.2455C97.8294 61.7309 97.7545 63.2487 97.3683 64.7046L96.5829 67.5854C96.3494 68.4699 95.9127 69.291 95.3058 69.9866C94.6989 70.6821 93.9378 71.2339 93.0801 71.6001L89.5302 73.1325L92.3261 117.754C92.354 118.186 92.291 118.619 92.1411 119.026C91.9912 119.433 91.7576 119.806 91.4545 120.121C91.1514 120.437 90.7854 120.689 90.3788 120.862C89.9722 121.034 89.5338 121.124 89.0903 121.125H83.7497Z" fill="#E8EAEA"/>
<path d="M88.2103 43.3745L88.8387 61.2262C88.8387 61.6042 88.9926 61.9667 89.2665 62.2339C89.5405 62.5012 89.912 62.6513 90.2995 62.6513H90.8492C91.0122 62.6533 91.174 62.624 91.3253 62.5651C91.4767 62.5061 91.6146 62.4186 91.7313 62.3076C91.848 62.1966 91.9411 62.0643 92.0054 61.9182C92.0697 61.7721 92.1038 61.6151 92.1059 61.4561L92.6399 45.1214H94.7447L97.1951 60.3069C97.429 61.7364 97.3541 63.1978 96.9752 64.5974L96.2055 67.4935C95.983 68.3321 95.5674 69.1103 94.9904 69.7688C94.4134 70.4272 93.6901 70.9488 92.8755 71.2937L89.0743 72.826L91.8859 117.724C91.9118 118.103 91.8574 118.483 91.7261 118.841C91.5948 119.199 91.3895 119.527 91.1229 119.805C90.8563 120.082 90.534 120.303 90.1762 120.454C89.8184 120.604 89.4326 120.682 89.0428 120.681H83.7494C83.3119 120.683 82.8789 120.595 82.4781 120.424C82.0773 120.253 81.7175 120.003 81.4217 119.688C81.126 119.374 80.9008 119.002 80.7607 118.598C80.6205 118.194 80.5685 117.765 80.6078 117.34L84.0949 73.0099L80.7649 71.9679C79.7192 71.5614 78.7923 70.9097 78.0662 70.0705C77.3402 69.2313 76.8374 68.2304 76.6024 67.1564L75.8955 64.5974C75.6499 63.2647 75.6499 61.9 75.8955 60.5673L78.2046 44.9375H80.9534V61.4867C80.9534 61.8621 81.1051 62.2222 81.3757 62.489C81.6463 62.7559 82.0138 62.9078 82.3985 62.9118H83.341C83.6757 62.9078 83.9953 62.7752 84.2305 62.5429C84.4657 62.3106 84.5976 61.9972 84.5976 61.6706L85.7756 43.4205H88.2889L88.2103 43.3745ZM88.2889 42.6543H85.7756C85.5794 42.654 85.3905 42.7267 85.2474 42.8577C85.1044 42.9888 85.018 43.1681 85.006 43.3592L83.7494 61.5787C83.7537 61.7103 83.7053 61.8383 83.6143 61.9356C83.5234 62.0329 83.3972 62.0918 83.2624 62.0997H82.32C82.232 62.0997 82.1449 62.0826 82.0638 62.0493C81.9827 62.016 81.9093 61.9672 81.8478 61.9058C81.7864 61.8444 81.7381 61.7716 81.7059 61.6918C81.6737 61.6119 81.6582 61.5266 81.6602 61.4408V44.8915C81.6562 44.6896 81.5722 44.497 81.4258 44.3541C81.2793 44.2113 81.0819 44.1293 80.8749 44.1254H78.126C77.9381 44.1272 77.7572 44.1947 77.616 44.3156C77.4748 44.4365 77.3826 44.6028 77.3563 44.7843L75.0473 60.4141C74.8279 61.8613 74.8758 63.3352 75.1887 64.766L75.7699 67.3709C76.0362 68.5766 76.6067 69.6985 77.4295 70.6349C78.2523 71.5714 79.3015 72.2929 80.4822 72.7341L83.2781 73.6075L79.8381 117.34C79.795 117.869 79.8638 118.4 80.0404 118.902C80.2169 119.403 80.4974 119.863 80.8643 120.254C81.2312 120.645 81.6767 120.959 82.1731 121.174C82.6694 121.39 83.206 121.504 83.7494 121.508H89.09C89.587 121.509 90.0789 121.411 90.5352 121.219C90.9915 121.027 91.4025 120.745 91.7427 120.392C92.0829 120.038 92.3451 119.62 92.5129 119.164C92.6808 118.708 92.7507 118.223 92.7185 117.739L89.9382 73.3011L93.2368 71.8913C94.1474 71.5025 94.9556 70.917 95.6004 70.1791C96.2453 69.4412 96.71 68.5701 96.9595 67.6314L97.7449 64.7353C98.1502 63.2356 98.2304 61.6699 97.9805 60.1383L95.5144 44.9528C95.4847 44.7741 95.3912 44.6115 95.2503 44.4937C95.1094 44.3759 94.9303 44.3105 94.7447 44.3092H92.687C92.4826 44.313 92.2874 44.3929 92.1414 44.5324C91.9954 44.672 91.9096 44.8608 91.9017 45.0601L91.3676 61.3948C91.3676 61.4545 91.3553 61.5135 91.3315 61.5685C91.3076 61.6234 91.2726 61.6731 91.2287 61.7146C91.1847 61.756 91.1326 61.7885 91.0755 61.8099C91.0184 61.8313 90.9575 61.8412 90.8964 61.8392H90.3466C90.2579 61.8392 90.1701 61.8221 90.0881 61.789C90.0062 61.7559 89.9317 61.7074 89.869 61.6462C89.8063 61.585 89.7565 61.5124 89.7226 61.4324C89.6886 61.3525 89.6712 61.2668 89.6712 61.1803L89.0428 43.2979C89.0347 43.1001 88.9484 42.913 88.802 42.7758C88.6556 42.6387 88.4604 42.5622 88.2575 42.5624L88.2889 42.6543Z" fill="#E8EAEA"/>
<path d="M149.895 49.0901C150.869 50.9289 151.151 53.2734 151.733 57.9624C152.16 61.7444 151.916 65.5701 151.01 69.271C150.785 70.0982 150.374 70.8658 149.806 71.518C149.238 72.1702 148.527 72.6904 147.727 73.0406L143.926 74.6648L146.737 119.562C146.761 119.941 146.705 120.321 146.573 120.678C146.441 121.035 146.235 121.362 145.969 121.639C145.703 121.916 145.382 122.136 145.025 122.288C144.668 122.439 144.283 122.518 143.894 122.52H138.554C138.116 122.521 137.683 122.434 137.282 122.263C136.882 122.092 136.522 121.841 136.226 121.527C135.93 121.212 135.705 120.841 135.565 120.437C135.425 120.033 135.373 119.604 135.412 119.179L138.899 74.8487L135.585 73.8067C134.565 73.3601 133.651 72.7133 132.899 71.9066C131.328 70.2211 130.59 67.9072 130.716 62.3142C130.857 55.434 130.936 52.0016 132.962 48.5232C134.014 46.7763 136.763 42.1793 141.051 42.0261C146.109 41.9035 149.439 48.2167 149.895 49.0901Z" fill="#E8EAEA" stroke="#E8EAEA" stroke-width="0.5" stroke-linecap="round" stroke-linejoin="round"/>
<path d="M116.059 41.9494C114.488 41.7349 105.802 65.3329 104.247 72.78C104.199 73.0102 104.203 73.2479 104.259 73.4764C104.315 73.7049 104.421 73.9186 104.571 74.1027C104.721 74.2867 104.91 74.4365 105.125 74.5415C105.341 74.6466 105.577 74.7044 105.818 74.7108L108.457 75.2471C109.635 75.4852 110.686 76.1316 111.413 77.0669C112.141 78.0022 112.497 79.163 112.415 80.3345L109.823 118.796C109.784 119.221 109.836 119.65 109.976 120.054C110.116 120.458 110.341 120.829 110.637 121.144C110.933 121.458 111.293 121.709 111.694 121.88C112.094 122.051 112.527 122.138 112.965 122.137H118.305C118.695 122.135 119.079 122.056 119.436 121.905C119.793 121.753 120.114 121.532 120.38 121.256C120.646 120.979 120.852 120.652 120.984 120.295C121.116 119.938 121.172 119.558 121.149 119.179L118.305 74.3584L115.996 42.0107" fill="#E8EAEA"/>
<path d="M116.059 41.9494C114.488 41.7349 105.802 65.3329 104.247 72.78C104.199 73.0102 104.203 73.2479 104.259 73.4764C104.315 73.7049 104.421 73.9186 104.571 74.1027C104.721 74.2867 104.91 74.4365 105.125 74.5415C105.341 74.6466 105.577 74.7044 105.818 74.7108L108.457 75.2471C109.635 75.4852 110.686 76.1316 111.413 77.0669C112.141 78.0022 112.497 79.163 112.415 80.3345L109.823 118.796C109.784 119.221 109.836 119.65 109.976 120.054C110.116 120.458 110.341 120.829 110.637 121.144C110.933 121.458 111.293 121.709 111.694 121.88C112.094 122.051 112.527 122.138 112.965 122.137H118.305C118.695 122.135 119.079 122.056 119.436 121.905C119.793 121.753 120.114 121.532 120.38 121.256C120.646 120.979 120.852 120.652 120.984 120.295C121.116 119.938 121.172 119.558 121.149 119.179L118.305 74.3584L115.996 42.0107" stroke="#E8EAEA" stroke-width="0.5" stroke-linecap="round" stroke-linejoin="round"/>
<path d="M59.1822 97.8951C65.3368 100.834 72.2399 101.948 79.0367 101.098C85.9842 100.563 92.6949 98.391 98.5927 94.7691C104.876 90.8157 104.452 88.6397 109.682 84.5944C123.819 73.7301 143.407 76.8407 144.239 76.9327C154.591 78.7255 155.91 82.9854 166.733 83.8895C172.833 84.3577 178.968 83.6122 184.765 81.6982C179.837 82.0823 174.878 81.757 170.047 80.7329C165.146 79.6909 162.978 78.4497 157.873 76.7948C151.565 74.5522 144.957 73.2153 138.255 72.826C129.944 72.3795 121.657 74.0481 114.206 77.6682C112.463 78.5416 108.504 81.2998 100.572 86.8622C91.1473 93.4206 91.053 93.865 88.5869 94.8764C81.7227 97.6959 75.3454 97.2208 68.8895 96.7305C63.3183 96.2997 57.8248 95.1877 52.5378 93.4206C54.5461 95.1847 56.7793 96.6886 59.1822 97.8951Z" fill="#D3B78D" stroke="#D3B78D" stroke-width="0.5" stroke-linecap="round" stroke-linejoin="round"/>
<path d="M67.648 86.4485C75.5018 83.2152 76.2087 82.2958 80.6383 81.4684C88.1465 80.0893 95.8119 80.8401 104.875 81.7289C114.96 82.7096 114.724 83.583 120.174 83.583C129.301 83.583 129.803 81.1619 143.547 79.1086C152.539 77.8811 161.597 77.175 170.675 76.994C176.518 76.7948 181.45 76.7794 185 76.8101C182.361 77.469 178.309 78.465 173.266 79.6143C161.768 82.2039 159.239 82.5104 154.229 83.9661C146.516 86.1727 149.187 87.6131 141.82 90.0954C132.517 93.0549 122.697 94.1546 112.949 93.3287C101.954 92.3173 102.472 89.3139 91.8849 88.8542C85.4762 88.5784 83.2457 89.5438 68.2135 90.8463C61.5534 91.4132 56.0243 91.735 52.3016 91.9189C55.9458 90.831 61.4278 88.9768 67.648 86.4485Z" fill="#F9EDB2" stroke="#F9EDB2" stroke-width="0.5" stroke-linecap="round" stroke-linejoin="round"/>
<path d="M60.3307 86.5251C68.1845 83.0774 68.9071 82.0813 73.3209 81.2232C80.8449 79.6909 88.4945 80.5337 97.5579 81.4837C107.658 82.541 107.422 83.4604 112.857 83.4758C121.983 83.4758 122.486 80.8861 136.23 78.6949C145.212 77.3674 154.274 76.615 163.357 76.4423C169.216 76.2125 174.148 76.1972 177.698 76.2278C175.06 76.9327 171.007 78.0053 165.965 79.2925C154.467 82.0507 151.922 82.3572 146.911 83.8895C139.215 86.2646 141.885 87.797 134.502 90.5245C125.249 93.682 115.409 94.863 105.647 93.9876C94.6519 92.8996 95.1546 89.697 84.5833 89.2067C78.1746 88.9002 75.9441 89.9422 60.9119 91.3213C54.2518 91.9343 48.707 92.2867 45 92.4706C48.6442 91.2141 54.1261 89.2373 60.3307 86.5251Z" stroke="#EFD686" stroke-width="0.5" stroke-linecap="round" stroke-linejoin="round"/>
<path d="M82.3507 122.428C81.8578 122.429 81.37 122.33 80.9184 122.138C80.4667 121.945 80.0612 121.663 79.7275 121.309C79.3987 120.957 79.147 120.543 78.9877 120.092C78.8283 119.642 78.7647 119.164 78.8007 118.689L82.2564 74.6495L79.2248 73.6994C78.1131 73.2745 77.1267 72.5875 76.3537 71.6997C75.5807 70.8119 75.0453 69.7511 74.7953 68.6121L74.2298 65.9918C73.9185 64.6077 73.8653 63.1803 74.0727 61.7779L76.3818 46.148C76.3968 46.0574 76.4447 45.975 76.5168 45.9159C76.5889 45.8569 76.6803 45.825 76.7744 45.8262H79.5076C79.6117 45.8262 79.7116 45.8666 79.7853 45.9384C79.8589 46.0103 79.9003 46.1077 79.9003 46.2093V62.7586C79.9044 63.0322 80.0188 63.2934 80.2186 63.4855C80.4185 63.6776 80.6878 63.7852 80.9684 63.7852H81.8952C82.1285 63.7852 82.3522 63.6948 82.5171 63.5339C82.6821 63.373 82.7748 63.1547 82.7748 62.9271L83.9529 44.6463C83.9608 44.5501 84.0056 44.4604 84.0784 44.395C84.1512 44.3297 84.2466 44.2936 84.3456 44.2939H86.8902C86.9917 44.2938 87.0893 44.3321 87.1625 44.4006C87.2357 44.4692 87.2788 44.5627 87.2829 44.6616L87.9112 62.5287C87.9091 62.6668 87.9352 62.804 87.9879 62.9322C88.0407 63.0604 88.119 63.177 88.2184 63.2754C88.3178 63.3738 88.4363 63.4519 88.5669 63.5053C88.6975 63.5586 88.8377 63.586 88.9793 63.586H89.5291C89.7555 63.5861 89.9729 63.4994 90.1345 63.3446C90.296 63.1899 90.3889 62.9794 90.393 62.7586L90.9271 46.4238C90.9271 46.3222 90.9684 46.2248 91.0421 46.153C91.1157 46.0811 91.2156 46.0408 91.3198 46.0408H93.3775C93.4712 46.0438 93.5608 46.0794 93.6299 46.1412C93.6991 46.2031 93.7432 46.287 93.7544 46.3779L96.2205 61.548C96.4571 63.0344 96.3768 64.5523 95.9849 66.0071L95.2153 68.9032C94.9744 69.7845 94.5349 70.6022 93.9289 71.2968C93.3229 71.9913 92.5657 72.5452 91.7125 72.918L88.1625 74.4503L90.9585 119.087C90.9841 119.518 90.9195 119.949 90.7686 120.354C90.6177 120.759 90.3837 121.13 90.0808 121.444C89.778 121.759 89.4127 122.009 89.0072 122.181C88.6018 122.352 88.1647 122.442 87.7227 122.443L82.3507 122.428Z" fill="#8C9998"/>
<path d="M86.8923 44.677L87.5206 62.5441C87.5206 62.922 87.6745 63.2845 87.9485 63.5517C88.2224 63.819 88.594 63.9691 88.9814 63.9691H89.5312C89.8579 63.9654 90.1706 63.8392 90.4045 63.6167C90.6385 63.3942 90.7757 63.0924 90.7878 62.7739L91.3219 46.4392H93.3796L95.83 61.6093C96.0638 63.044 95.9889 64.5104 95.61 65.9152L94.7461 68.796C94.5385 69.6109 94.1493 70.3711 93.6063 71.0226C93.0634 71.6741 92.3799 72.2009 91.6046 72.5655L87.8033 74.1898L90.615 119.087C90.6385 119.466 90.5825 119.846 90.4504 120.203C90.3183 120.56 90.1129 120.887 89.8467 121.164C89.5805 121.441 89.2592 121.661 88.9025 121.813C88.5457 121.964 88.161 122.043 87.7719 122.045H82.4313C81.9939 122.046 81.5608 121.959 81.16 121.788C80.7592 121.617 80.3994 121.366 80.1036 121.052C79.8079 120.737 79.5828 120.366 79.4426 119.962C79.3025 119.558 79.2504 119.129 79.2898 118.704L82.6669 74.3584L79.3369 73.3317C78.2922 72.9192 77.3668 72.2637 76.6413 71.4224C75.9158 70.5811 75.4122 69.5795 75.1744 68.5048L74.6089 65.8999C74.311 64.5605 74.2631 63.1798 74.4675 61.8239L76.7765 46.194H79.5097V62.7433C79.5138 63.1185 79.6695 63.4771 79.9431 63.7411C80.2166 64.005 80.5858 64.153 80.9705 64.153H81.8973C82.2347 64.153 82.5583 64.0222 82.7969 63.7895C83.0355 63.5567 83.1696 63.241 83.1696 62.9118L84.3477 44.6617H86.8923V44.677ZM86.8923 43.8955H84.3791C84.1787 43.8952 83.9857 43.9695 83.8397 44.1034C83.6937 44.2373 83.6057 44.4206 83.5937 44.6157L82.4156 62.8658C82.4198 62.9315 82.4105 62.9973 82.3881 63.0594C82.3658 63.1214 82.3308 63.1785 82.2854 63.2271C82.2399 63.2757 82.1849 63.3149 82.1237 63.3423C82.0624 63.3698 81.9961 63.3849 81.9287 63.3868H81.0019C80.914 63.3889 80.8265 63.3738 80.7446 63.3423C80.6628 63.3109 80.5882 63.2638 80.5252 63.2038C80.4623 63.1439 80.4123 63.0722 80.3782 62.9931C80.344 62.914 80.3265 62.8291 80.3265 62.7433V46.2093C80.3265 46.0061 80.2437 45.8113 80.0964 45.6676C79.9492 45.5239 79.7494 45.4432 79.5411 45.4432H76.808C76.6183 45.4445 76.4352 45.5115 76.2914 45.6321C76.1476 45.7528 76.0523 45.9193 76.0226 46.1021L73.7136 61.7319C73.5064 63.1753 73.5596 64.6429 73.8706 66.0684L74.4518 68.6887C74.706 69.8814 75.2575 70.9946 76.0574 71.93C76.8574 72.8654 77.8812 73.5942 79.0385 74.0519L81.8187 74.9253L78.4102 118.658C78.3691 119.188 78.4405 119.72 78.62 120.222C78.7995 120.724 79.0831 121.184 79.4531 121.573C79.8232 121.963 80.2717 122.274 80.7706 122.487C81.2696 122.7 81.8082 122.81 82.3528 122.811H87.6934C88.188 122.809 88.6771 122.709 89.1308 122.516C89.5845 122.324 89.9933 122.044 90.3323 121.692C90.6755 121.341 90.9405 120.924 91.1108 120.468C91.2811 120.011 91.353 119.526 91.3219 119.041L88.5416 74.6802L91.8402 73.2551C92.7508 72.8663 93.559 72.2808 94.2038 71.5429C94.8487 70.805 95.3134 69.9338 95.5629 68.9952L96.3326 66.0991C96.7383 64.5995 96.8186 63.0337 96.5682 61.5021L94.1178 46.3319C94.0912 46.1519 93.9985 45.9874 93.8569 45.8691C93.7154 45.7507 93.5346 45.6865 93.3481 45.6883H91.2904C91.1894 45.6863 91.0889 45.7037 90.9947 45.7396C90.9005 45.7755 90.8145 45.8291 90.7415 45.8974C90.6686 45.9657 90.6102 46.0473 90.5696 46.1377C90.529 46.228 90.5071 46.3253 90.5051 46.4239L90.0338 62.7433C90.0338 62.8652 89.9842 62.9821 89.8958 63.0683C89.8074 63.1545 89.6876 63.203 89.5626 63.203H89.0128C88.8337 63.203 88.6619 63.1335 88.5352 63.01C88.4086 62.8864 88.3374 62.7188 88.3374 62.5441L87.7091 44.6464C87.701 44.4485 87.6147 44.2614 87.4682 44.1243C87.3218 43.9872 87.1267 43.9107 86.9237 43.9108L86.8923 43.8955Z" fill="#8C9998"/>
<path d="M148.543 50.3926C149.517 52.2467 149.8 54.5912 150.381 59.2802C150.8 63.0631 150.551 66.8882 149.643 70.5888C149.414 71.4094 149.007 72.1724 148.449 72.826C147.879 73.4826 147.165 74.0062 146.36 74.3584L142.575 75.998L145.386 120.895C145.408 121.274 145.349 121.654 145.215 122.01C145.081 122.366 144.874 122.692 144.607 122.967C144.339 123.243 144.016 123.462 143.659 123.612C143.301 123.761 142.916 123.838 142.527 123.838H137.155C136.719 123.839 136.288 123.752 135.888 123.582C135.488 123.412 135.129 123.163 134.834 122.85C134.538 122.537 134.313 122.168 134.172 121.765C134.031 121.363 133.977 120.936 134.014 120.512L137.501 76.1818L134.171 75.1398C133.153 74.6831 132.235 74.0378 131.469 73.2398C129.898 71.5389 129.176 69.2404 129.302 63.632C129.443 56.7671 129.521 53.3194 131.548 49.841C132.616 48.0328 135.38 43.3745 139.684 43.2672C144.758 43.2059 148.151 49.5192 148.543 50.3926Z" fill="#8C9998" stroke="#8C9998" stroke-width="0.5" stroke-linecap="round" stroke-linejoin="round"/>
<path d="M114.711 43.2672C113.14 43.0527 104.438 66.6507 102.898 74.0979C102.837 74.3283 102.832 74.5695 102.883 74.8023C102.934 75.0351 103.04 75.2531 103.193 75.439C103.345 75.6249 103.54 75.7735 103.761 75.8732C103.983 75.9729 104.225 76.0209 104.469 76.0133L107.108 76.5496C108.284 76.7935 109.33 77.4415 110.057 78.3754C110.783 79.3093 111.142 80.4668 111.066 81.637L108.475 120.129C108.438 120.553 108.491 120.98 108.633 121.382C108.774 121.785 108.999 122.154 109.295 122.467C109.59 122.78 109.949 123.029 110.349 123.199C110.749 123.369 111.18 123.456 111.616 123.454H116.941C117.337 123.466 117.73 123.397 118.097 123.252C118.464 123.107 118.796 122.889 119.072 122.613C119.348 122.336 119.562 122.007 119.701 121.645C119.84 121.284 119.9 120.898 119.878 120.512L117.067 75.6149L114.758 43.2672" fill="#8C9998"/>
<path d="M114.711 43.2672C113.14 43.0527 104.438 66.6507 102.898 74.0979C102.837 74.3283 102.832 74.5695 102.883 74.8023C102.934 75.0351 103.04 75.2531 103.193 75.439C103.345 75.6249 103.54 75.7735 103.761 75.8732C103.983 75.9729 104.225 76.0209 104.469 76.0133L107.108 76.5496C108.284 76.7935 109.33 77.4415 110.057 78.3754C110.783 79.3093 111.142 80.4668 111.066 81.637L108.475 120.129C108.438 120.553 108.491 120.98 108.633 121.382C108.774 121.785 108.999 122.154 109.295 122.467C109.59 122.78 109.949 123.029 110.349 123.199C110.749 123.369 111.18 123.456 111.616 123.454H116.941C117.337 123.466 117.73 123.397 118.097 123.252C118.464 123.107 118.796 122.889 119.072 122.613C119.348 122.336 119.562 122.007 119.701 121.645C119.84 121.284 119.9 120.898 119.878 120.512L117.067 75.6149L114.758 43.2672" stroke="#8C9998" stroke-width="0.5" stroke-linecap="round" stroke-linejoin="round"/>
<path d="M75.6913 65.7926C75.7787 67.2315 76.2557 68.6222 77.0736 69.8227C77.9692 71.1234 79.2852 72.0944 80.812 72.5809C80.546 72.0465 80.236 71.5341 79.8853 71.0485C79.3545 70.3493 78.749 69.7072 78.0789 69.1331C77.0717 68.1786 76.2612 67.0446 75.6913 65.7926Z" fill="white" stroke="white" stroke-width="0.25" stroke-miterlimit="10"/>
<path d="M146.801 52.6452C146.587 51.2124 145.991 49.8596 145.073 48.7224C144.567 48.1242 143.968 47.6071 143.298 47.19C142.625 46.7652 141.881 46.4591 141.099 46.2859C141.411 46.7777 141.763 47.244 142.151 47.6804C142.745 48.3349 143.408 48.9257 144.131 49.4426C145.225 50.3314 146.132 51.419 146.801 52.6452Z" fill="white" stroke="white" stroke-width="0.25" stroke-miterlimit="10"/>
<path d="M83.4353 76.2125L81.7075 119.716" stroke="#B1B5B5" stroke-width="0.25" stroke-linecap="round" stroke-linejoin="round"/>
<path d="M85.1473 76.1971L85.1159 119.731" stroke="#B1B5B5" stroke-width="0.25" stroke-linecap="round" stroke-linejoin="round"/>
<path d="M87.0794 76.2125L88.7915 119.716" stroke="#B1B5B5" stroke-width="0.25" stroke-linecap="round" stroke-linejoin="round"/>
<path d="M112.323 78.1279L110.595 121.631" stroke="#B1B5B5" stroke-width="0.25" stroke-linecap="round" stroke-linejoin="round"/>
<path d="M114.035 78.1125L114.003 121.646" stroke="#B1B5B5" stroke-width="0.25" stroke-linecap="round" stroke-linejoin="round"/>
<path d="M115.967 78.1279L117.679 121.631" stroke="#B1B5B5" stroke-width="0.25" stroke-linecap="round" stroke-linejoin="round"/>
<path d="M137.909 78.1432L136.181 121.662" stroke="#B1B5B5" stroke-width="0.25" stroke-linecap="round" stroke-linejoin="round"/>
<path d="M139.637 78.1279L139.574 121.677" stroke="#B1B5B5" stroke-width="0.25" stroke-linecap="round" stroke-linejoin="round"/>
<path d="M141.568 78.1585L143.249 121.662" stroke="#B1B5B5" stroke-width="0.25" stroke-linecap="round" stroke-linejoin="round"/>
<path d="M91.1337 111.211H78.6304V113.295H91.1337V111.211Z" fill="#F9E46E" stroke="#F9E46E" stroke-width="0.5" stroke-linecap="round" stroke-linejoin="round"/>
<path d="M119.829 111.211H108.457V113.295H119.829V111.211Z" fill="#F9E46E" stroke="#F9E46E" stroke-width="0.5" stroke-linecap="round" stroke-linejoin="round"/>
<path d="M145.403 111.211H134.015V113.295H145.403V111.211Z" fill="#F9E46E" stroke="#F9E46E" stroke-width="0.5" stroke-linecap="round" stroke-linejoin="round"/>
<path d="M114.96 122.014C115.521 122.099 116.095 122.061 116.638 121.902C117.182 121.743 117.682 121.467 118.102 121.095C118.605 120.497 118.605 119.562 118.605 118.03C118.611 117.006 118.548 115.982 118.416 114.965C118.291 115.548 118.071 116.498 117.835 117.647C117.754 118.51 117.525 119.354 117.16 120.145C116.656 120.985 115.883 121.642 114.96 122.014Z" fill="white" stroke="white" stroke-width="0.25" stroke-miterlimit="10"/>
</svg>
