<svg width="230" height="165" viewBox="0 0 230 165" fill="none" xmlns="http://www.w3.org/2000/svg">
<rect width="230" height="165" rx="6.7" fill="white"/>
<path d="M71.0445 148.112C70.1592 148.112 69.3645 147.925 68.6605 147.552C67.9565 147.179 67.4072 146.661 67.0125 146C66.6178 145.328 66.4205 144.571 66.4205 143.728C66.4205 142.885 66.6178 142.133 67.0125 141.472C67.4072 140.811 67.9512 140.293 68.6445 139.92C69.3485 139.547 70.1485 139.36 71.0445 139.36C71.8872 139.36 72.6232 139.531 73.2525 139.872C73.8925 140.213 74.3725 140.704 74.6925 141.344L73.1565 142.24C72.9112 141.845 72.6018 141.552 72.2285 141.36C71.8658 141.157 71.4658 141.056 71.0285 141.056C70.2818 141.056 69.6632 141.301 69.1725 141.792C68.6818 142.272 68.4365 142.917 68.4365 143.728C68.4365 144.539 68.6765 145.189 69.1565 145.68C69.6472 146.16 70.2712 146.4 71.0285 146.4C71.4658 146.4 71.8658 146.304 72.2285 146.112C72.6018 145.909 72.9112 145.611 73.1565 145.216L74.6925 146.112C74.3618 146.752 73.8765 147.248 73.2365 147.6C72.6072 147.941 71.8765 148.112 71.0445 148.112ZM80.1364 148.112C79.2724 148.112 78.4937 147.925 77.8004 147.552C77.107 147.179 76.563 146.661 76.1684 146C75.7844 145.328 75.5924 144.571 75.5924 143.728C75.5924 142.885 75.7844 142.133 76.1684 141.472C76.563 140.811 77.107 140.293 77.8004 139.92C78.4937 139.547 79.2724 139.36 80.1364 139.36C81.011 139.36 81.795 139.547 82.4884 139.92C83.1817 140.293 83.7204 140.811 84.1044 141.472C84.499 142.133 84.6964 142.885 84.6964 143.728C84.6964 144.571 84.499 145.328 84.1044 146C83.7204 146.661 83.1817 147.179 82.4884 147.552C81.795 147.925 81.011 148.112 80.1364 148.112ZM80.1364 146.4C80.8724 146.4 81.4804 146.155 81.9604 145.664C82.4404 145.173 82.6804 144.528 82.6804 143.728C82.6804 142.928 82.4404 142.283 81.9604 141.792C81.4804 141.301 80.8724 141.056 80.1364 141.056C79.4004 141.056 78.7924 141.301 78.3124 141.792C77.843 142.283 77.6084 142.928 77.6084 143.728C77.6084 144.528 77.843 145.173 78.3124 145.664C78.7924 146.155 79.4004 146.4 80.1364 146.4ZM91.4569 139.36C92.5342 139.36 93.3982 139.675 94.0489 140.304C94.6995 140.933 95.0249 141.867 95.0249 143.104V148H93.0249V143.36C93.0249 142.613 92.8489 142.053 92.4969 141.68C92.1449 141.296 91.6435 141.104 90.9929 141.104C90.2569 141.104 89.6755 141.328 89.2489 141.776C88.8222 142.213 88.6089 142.848 88.6089 143.68V148H86.6089V139.456H88.5129V140.56C88.8435 140.165 89.2595 139.867 89.7609 139.664C90.2622 139.461 90.8275 139.36 91.4569 139.36ZM101.56 148.112C100.675 148.112 99.8801 147.925 99.1761 147.552C98.4721 147.179 97.9228 146.661 97.5281 146C97.1335 145.328 96.9361 144.571 96.9361 143.728C96.9361 142.885 97.1335 142.133 97.5281 141.472C97.9228 140.811 98.4668 140.293 99.1601 139.92C99.8641 139.547 100.664 139.36 101.56 139.36C102.403 139.36 103.139 139.531 103.768 139.872C104.408 140.213 104.888 140.704 105.208 141.344L103.672 142.24C103.427 141.845 103.117 141.552 102.744 141.36C102.381 141.157 101.981 141.056 101.544 141.056C100.797 141.056 100.179 141.301 99.6881 141.792C99.1975 142.272 98.9521 142.917 98.9521 143.728C98.9521 144.539 99.1921 145.189 99.6721 145.68C100.163 146.16 100.787 146.4 101.544 146.4C101.981 146.4 102.381 146.304 102.744 146.112C103.117 145.909 103.427 145.611 103.672 145.216L105.208 146.112C104.877 146.752 104.392 147.248 103.752 147.6C103.123 147.941 102.392 148.112 101.56 148.112ZM111.707 139.36C112.784 139.36 113.648 139.675 114.299 140.304C114.95 140.933 115.275 141.867 115.275 143.104V148H113.275V143.36C113.275 142.613 113.099 142.053 112.747 141.68C112.395 141.296 111.894 141.104 111.243 141.104C110.507 141.104 109.926 141.328 109.499 141.776C109.072 142.213 108.859 142.848 108.859 143.68V148H106.859V136.128H108.859V140.448C109.19 140.096 109.595 139.829 110.075 139.648C110.566 139.456 111.11 139.36 111.707 139.36ZM121.076 139.36C122.335 139.36 123.295 139.664 123.956 140.272C124.628 140.869 124.964 141.776 124.964 142.992V148H123.076V146.96C122.831 147.333 122.479 147.621 122.02 147.824C121.572 148.016 121.028 148.112 120.388 148.112C119.748 148.112 119.188 148.005 118.708 147.792C118.228 147.568 117.855 147.264 117.588 146.88C117.332 146.485 117.204 146.043 117.204 145.552C117.204 144.784 117.487 144.171 118.052 143.712C118.628 143.243 119.529 143.008 120.756 143.008H122.964V142.88C122.964 142.283 122.783 141.824 122.42 141.504C122.068 141.184 121.54 141.024 120.836 141.024C120.356 141.024 119.881 141.099 119.412 141.248C118.953 141.397 118.564 141.605 118.244 141.872L117.46 140.416C117.908 140.075 118.447 139.813 119.076 139.632C119.705 139.451 120.372 139.36 121.076 139.36ZM120.804 146.656C121.305 146.656 121.748 146.544 122.132 146.32C122.527 146.085 122.804 145.755 122.964 145.328V144.336H120.9C119.748 144.336 119.172 144.715 119.172 145.472C119.172 145.835 119.316 146.123 119.604 146.336C119.892 146.549 120.292 146.656 120.804 146.656ZM131.953 136.128H133.953V148H131.953V136.128ZM139.842 139.36C141.1 139.36 142.06 139.664 142.722 140.272C143.394 140.869 143.73 141.776 143.73 142.992V148H141.842V146.96C141.596 147.333 141.244 147.621 140.786 147.824C140.338 148.016 139.794 148.112 139.154 148.112C138.514 148.112 137.954 148.005 137.474 147.792C136.994 147.568 136.62 147.264 136.354 146.88C136.098 146.485 135.97 146.043 135.97 145.552C135.97 144.784 136.252 144.171 136.818 143.712C137.394 143.243 138.295 143.008 139.522 143.008H141.73V142.88C141.73 142.283 141.548 141.824 141.186 141.504C140.834 141.184 140.306 141.024 139.602 141.024C139.122 141.024 138.647 141.099 138.178 141.248C137.719 141.397 137.33 141.605 137.01 141.872L136.226 140.416C136.674 140.075 137.212 139.813 137.842 139.632C138.471 139.451 139.138 139.36 139.842 139.36ZM139.57 146.656C140.071 146.656 140.514 146.544 140.898 146.32C141.292 146.085 141.57 145.755 141.73 145.328V144.336H139.666C138.514 144.336 137.938 144.715 137.938 145.472C137.938 145.835 138.082 146.123 138.37 146.336C138.658 146.549 139.058 146.656 139.57 146.656ZM151.032 139.36C151.864 139.36 152.606 139.541 153.256 139.904C153.918 140.267 154.435 140.779 154.808 141.44C155.182 142.101 155.368 142.864 155.368 143.728C155.368 144.592 155.182 145.36 154.808 146.032C154.435 146.693 153.918 147.205 153.256 147.568C152.606 147.931 151.864 148.112 151.032 148.112C150.446 148.112 149.907 148.011 149.416 147.808C148.936 147.605 148.531 147.301 148.2 146.896V148H146.296V136.128H148.296V140.496C148.638 140.123 149.038 139.84 149.496 139.648C149.966 139.456 150.478 139.36 151.032 139.36ZM150.808 146.4C151.544 146.4 152.147 146.155 152.616 145.664C153.096 145.173 153.336 144.528 153.336 143.728C153.336 142.928 153.096 142.283 152.616 141.792C152.147 141.301 151.544 141.056 150.808 141.056C150.328 141.056 149.896 141.168 149.512 141.392C149.128 141.605 148.824 141.915 148.6 142.32C148.376 142.725 148.264 143.195 148.264 143.728C148.264 144.261 148.376 144.731 148.6 145.136C148.824 145.541 149.128 145.856 149.512 146.08C149.896 146.293 150.328 146.4 150.808 146.4ZM159.905 148.112C159.212 148.112 158.534 148.021 157.873 147.84C157.212 147.659 156.684 147.429 156.289 147.152L157.057 145.632C157.441 145.888 157.9 146.096 158.433 146.256C158.977 146.405 159.51 146.48 160.033 146.48C161.228 146.48 161.825 146.165 161.825 145.536C161.825 145.237 161.67 145.029 161.361 144.912C161.062 144.795 160.577 144.683 159.905 144.576C159.201 144.469 158.625 144.347 158.177 144.208C157.74 144.069 157.356 143.829 157.025 143.488C156.705 143.136 156.545 142.651 156.545 142.032C156.545 141.221 156.881 140.576 157.553 140.096C158.236 139.605 159.153 139.36 160.305 139.36C160.892 139.36 161.478 139.429 162.065 139.568C162.652 139.696 163.132 139.872 163.505 140.096L162.737 141.616C162.012 141.189 161.196 140.976 160.289 140.976C159.702 140.976 159.254 141.067 158.945 141.248C158.646 141.419 158.497 141.648 158.497 141.936C158.497 142.256 158.657 142.485 158.977 142.624C159.308 142.752 159.814 142.875 160.497 142.992C161.18 143.099 161.74 143.221 162.177 143.36C162.614 143.499 162.988 143.733 163.297 144.064C163.617 144.395 163.777 144.864 163.777 145.472C163.777 146.272 163.43 146.912 162.737 147.392C162.044 147.872 161.1 148.112 159.905 148.112Z" fill="black"/>
<path d="M53.7705 85.6293V89.0334C53.3077 89.0334 52.864 88.8541 52.5368 88.5349C52.2095 88.2157 52.0257 87.7828 52.0257 87.3314C52.0257 86.88 52.2095 86.447 52.5368 86.1278C52.864 85.8086 53.3077 85.6293 53.7705 85.6293Z" fill="#F4E9B8"/>
<path d="M55.5427 87.2738C55.5507 87.7266 55.3749 88.1641 55.0536 88.491C54.7323 88.8179 54.2917 89.0077 53.8276 89.0191V85.615C54.2787 85.6187 54.7106 85.7942 55.031 86.104C55.3514 86.4139 55.5351 86.8337 55.5427 87.2738Z" fill="#F4E9B8"/>
<path d="M57.1388 82.7879V86.1775C56.8972 86.1993 56.6536 86.1717 56.4235 86.0964C56.1935 86.0211 55.982 85.8999 55.8027 85.7404C55.6234 85.5809 55.4802 85.3866 55.3822 85.1701C55.2842 84.9535 55.2336 84.7194 55.2336 84.4827C55.2336 84.246 55.2842 84.0119 55.3822 83.7953C55.4802 83.5788 55.6234 83.3845 55.8027 83.225C55.982 83.0655 56.1935 82.9443 56.4235 82.869C56.6536 82.7937 56.8972 82.7661 57.1388 82.7879Z" fill="#9BB8CE"/>
<path d="M58.9152 84.389C58.9211 84.6118 58.8817 84.8336 58.7993 85.0415C58.7168 85.2494 58.593 85.4393 58.4349 85.6002C58.2768 85.7611 58.0876 85.8899 57.8781 85.9791C57.6687 86.0683 57.4433 86.1162 57.2148 86.1199V82.7302C57.6634 82.7376 58.0915 82.9148 58.4088 83.2243C58.726 83.5337 58.9076 83.9514 58.9152 84.389Z" fill="#9BB8CE"/>
<path d="M53.3252 80.4944V83.8985C52.8624 83.8985 52.4186 83.7192 52.0914 83.4C51.7642 83.0808 51.5804 82.6479 51.5804 82.1965C51.5804 81.7451 51.7642 81.3121 52.0914 80.9929C52.4186 80.6737 52.8624 80.4944 53.3252 80.4944Z" fill="#FFDF5A"/>
<path d="M55.0995 82.1676C55.1034 82.3911 55.0622 82.6132 54.9781 82.8212C54.894 83.0292 54.7688 83.2189 54.6095 83.3797C54.4502 83.5404 54.26 83.6689 54.0498 83.758C53.8396 83.847 53.6135 83.8948 53.3843 83.8985V80.4944C53.8369 80.5018 54.2687 80.6805 54.5887 80.9927C54.9088 81.3049 55.0919 81.7262 55.0995 82.1676Z" fill="#FFDF5A"/>
<path d="M123.796 88.4854L121.342 86.0766C121.5 85.9015 121.693 85.7599 121.909 85.6606C122.125 85.5613 122.36 85.5063 122.599 85.4992C122.838 85.4921 123.076 85.5329 123.298 85.6191C123.52 85.7054 123.721 85.8352 123.89 86.0005C124.058 86.1659 124.19 86.3632 124.277 86.5804C124.364 86.7975 124.405 87.0298 124.396 87.2628C124.387 87.4957 124.329 87.7245 124.226 87.9348C124.123 88.1451 123.977 88.3325 123.796 88.4854Z" fill="#F4E9B8"/>
<path d="M121.339 88.4709C121.177 88.3141 121.049 88.1275 120.961 87.9221C120.874 87.7166 120.829 87.4963 120.829 87.2737C120.829 87.0512 120.874 86.8308 120.961 86.6254C121.049 86.4199 121.177 86.2334 121.339 86.0765L123.794 88.4853C123.633 88.644 123.441 88.7698 123.23 88.8551C123.019 88.9405 122.792 88.9838 122.563 88.9825C122.335 88.9811 122.109 88.9352 121.898 88.8473C121.688 88.7595 121.498 88.6315 121.339 88.4709Z" fill="#F4E9B8"/>
<path d="M123.384 92.8128L120.944 90.4039C121.106 90.2458 121.299 90.1203 121.51 90.0347C121.722 89.9491 121.949 89.905 122.179 89.905C122.408 89.905 122.635 89.9491 122.847 90.0347C123.059 90.1203 123.251 90.2458 123.413 90.4039C123.575 90.5621 123.704 90.7499 123.792 90.9565C123.879 91.1632 123.925 91.3847 123.925 91.6084C123.925 91.832 123.879 92.0535 123.792 92.2602C123.704 92.4669 123.575 92.6546 123.413 92.8128H123.384Z" fill="#9BB8CE"/>
<path d="M120.945 92.8126C120.782 92.6545 120.654 92.4668 120.566 92.2601C120.478 92.0535 120.433 91.8319 120.433 91.6082C120.433 91.3845 120.478 91.163 120.566 90.9563C120.654 90.7496 120.782 90.5619 120.945 90.4038L123.414 92.8126C123.252 92.9709 123.059 93.0966 122.848 93.1823C122.636 93.2679 122.409 93.312 122.179 93.312C121.95 93.312 121.723 93.2679 121.511 93.1823C121.299 93.0966 121.107 92.9709 120.945 92.8126Z" fill="#9BB8CE"/>
<path d="M127.759 91.8897L125.379 89.4808C125.539 89.323 125.731 89.1977 125.941 89.1122C126.152 89.0267 126.378 88.9827 126.606 88.9827C126.834 88.9827 127.06 89.0267 127.27 89.1122C127.481 89.1977 127.672 89.323 127.833 89.4808C127.991 89.6436 128.114 89.8351 128.195 90.0443C128.277 90.2536 128.315 90.4765 128.308 90.7002C128.301 90.924 128.249 91.1442 128.155 91.3483C128.061 91.5524 127.926 91.7364 127.759 91.8897Z" fill="#FFDF5A"/>
<path d="M125.291 91.8895C125.127 91.7324 124.996 91.5449 124.907 91.3381C124.818 91.1313 124.772 90.9093 124.772 90.685C124.772 90.4607 124.818 90.2387 124.907 90.0319C124.996 89.8251 125.127 89.6377 125.291 89.4806L127.745 91.8895C127.418 92.2048 126.977 92.3817 126.518 92.3817C126.058 92.3817 125.617 92.2048 125.291 91.8895Z" fill="#FFDF5A"/>
<path d="M109.572 85.615L110.164 88.9614C109.931 89.0171 109.69 89.0255 109.454 88.9861C109.218 88.9467 108.992 88.8603 108.792 88.7324C108.592 88.6045 108.421 88.4377 108.289 88.2425C108.158 88.0473 108.069 87.8277 108.029 87.5976C107.988 87.3674 107.996 87.1316 108.053 86.9047C108.11 86.6778 108.214 86.4648 108.359 86.2788C108.503 86.0929 108.686 85.938 108.895 85.8238C109.103 85.7096 109.334 85.6385 109.572 85.615Z" fill="#F4E9B8"/>
<path d="M111.584 86.9996C111.624 87.2237 111.617 87.4533 111.564 87.6747C111.51 87.8961 111.412 88.1047 111.274 88.2879C111.136 88.4711 110.961 88.6252 110.76 88.741C110.559 88.8567 110.337 88.9317 110.106 88.9614L109.514 85.6149C109.744 85.567 109.981 85.5652 110.212 85.6097C110.442 85.6541 110.661 85.7439 110.854 85.8734C111.048 86.003 111.213 86.1696 111.338 86.3633C111.464 86.5569 111.547 86.7734 111.584 86.9996Z" fill="#F4E9B8"/>
<path d="M112.454 82.2974L113.061 85.6438C112.829 85.6975 112.589 85.7045 112.355 85.6643C112.121 85.6242 111.898 85.5379 111.699 85.4105C111.5 85.2832 111.33 85.1176 111.2 84.9239C111.069 84.7302 110.98 84.5125 110.939 84.2841C110.897 84.0558 110.904 83.8216 110.959 83.5959C111.014 83.3702 111.115 83.1578 111.257 82.9718C111.399 82.7857 111.578 82.63 111.784 82.514C111.99 82.398 112.218 82.3243 112.454 82.2974Z" fill="#9BB8CE"/>
<path d="M114.481 83.6821C114.519 83.906 114.511 84.1349 114.456 84.3555C114.402 84.5761 114.303 84.7838 114.165 84.9666C114.028 85.1494 113.854 85.3034 113.654 85.4197C113.454 85.536 113.233 85.6122 113.003 85.6438L112.396 82.2974C112.627 82.2515 112.864 82.2511 113.095 82.2963C113.325 82.3415 113.544 82.4312 113.739 82.5603C113.933 82.6894 114.099 82.8552 114.226 83.0479C114.354 83.2406 114.441 83.4562 114.481 83.6821Z" fill="#9BB8CE"/>
<path d="M108.331 80.6097L108.923 83.9562C108.69 84.0118 108.448 84.0202 108.212 83.9808C107.976 83.9414 107.751 83.8551 107.551 83.7271C107.351 83.5992 107.18 83.4325 107.048 83.2372C106.917 83.042 106.828 82.8225 106.787 82.5923C106.747 82.3622 106.755 82.1263 106.812 81.8995C106.869 81.6726 106.973 81.4596 107.117 81.2736C107.262 81.0876 107.445 80.9327 107.654 80.8185C107.862 80.7043 108.093 80.6332 108.331 80.6097Z" fill="#FFDF5A"/>
<path d="M110.341 81.9944C110.379 82.2183 110.37 82.4472 110.316 82.6678C110.262 82.8884 110.163 83.0962 110.025 83.279C109.887 83.4617 109.714 83.6158 109.514 83.732C109.314 83.8483 109.093 83.9245 108.863 83.9561L108.271 80.6097C108.501 80.5639 108.737 80.5637 108.967 80.609C109.196 80.6543 109.414 80.7443 109.607 80.8735C109.801 81.0027 109.965 81.1686 110.091 81.3612C110.217 81.5537 110.302 81.7691 110.341 81.9944Z" fill="#FFDF5A"/>
<path d="M79.5396 89.726L81.6392 92.4521C81.2703 92.723 80.8064 92.8402 80.3491 92.778C79.8918 92.7158 79.4784 92.4793 79.1995 92.1203C78.921 91.7581 78.8005 91.3033 78.8642 90.8548C78.9279 90.4064 79.1706 90.0006 79.5396 89.726Z" fill="#F4E9B8"/>
<path d="M82.0116 90.0721C82.2876 90.4337 82.4053 90.8875 82.3388 91.3337C82.2723 91.7799 82.0269 92.1821 81.6567 92.4521L79.5423 89.7259C79.7275 89.5899 79.9384 89.4909 80.163 89.4347C80.3875 89.3785 80.6212 89.3662 80.8507 89.3983C81.0801 89.4305 81.3008 89.5066 81.5 89.6222C81.6993 89.7378 81.8731 89.8907 82.0116 90.0721Z" fill="#F4E9B8"/>
<path d="M82.6317 86.0044L84.7313 88.7162C84.3607 88.9878 83.8947 89.1047 83.4358 89.0411C82.9769 88.9775 82.5627 88.7388 82.2842 88.3772C82.0058 88.0157 81.886 87.5611 81.9512 87.1134C82.0163 86.6657 82.2611 86.2616 82.6317 85.99V86.0044Z" fill="#AA9BCC"/>
<path d="M85.0851 86.3362C85.362 86.7002 85.4801 87.1562 85.4136 87.6048C85.3471 88.0534 85.1015 88.4581 84.7302 88.7307L82.6306 86.0044C83.0019 85.7328 83.4682 85.6152 83.9279 85.6774C84.3876 85.7395 84.8035 85.9763 85.0851 86.3362Z" fill="#AA9BCC"/>
<path d="M78.1683 86.3218L80.2679 89.048C79.8973 89.3196 79.4313 89.4365 78.9724 89.3729C78.5135 89.3093 78.0993 89.0705 77.8208 88.709C77.5424 88.3475 77.4226 87.8929 77.4878 87.4452C77.5529 86.9975 77.7977 86.5934 78.1683 86.3218Z" fill="#FFDF5A"/>
<path d="M80.6069 86.668C80.8846 87.0279 81.0047 87.4804 80.9409 87.9265C80.8772 88.3726 80.6348 88.7759 80.2668 89.048L78.1672 86.3218C78.5379 86.0525 79.003 85.9377 79.4605 86.0026C79.9179 86.0675 80.3302 86.3068 80.6069 86.668Z" fill="#FFDF5A"/>
<path d="M69.0466 83.8696L66.7695 86.4515C66.5957 86.3056 66.4531 86.1278 66.3497 85.9282C66.2464 85.7285 66.1844 85.511 66.1672 85.288C66.1501 85.065 66.1781 84.8409 66.2497 84.6284C66.3213 84.416 66.4352 84.2194 66.5847 84.0499C66.7342 83.8803 66.9165 83.7412 67.1211 83.6404C67.3257 83.5395 67.5487 83.479 67.7773 83.4623C68.0059 83.4456 68.2357 83.4729 68.4535 83.5428C68.6712 83.6126 68.8728 83.7237 69.0466 83.8696Z" fill="#F4E9B8"/>
<path d="M69.192 86.264C69.0443 86.4348 68.8633 86.5752 68.6595 86.6772C68.4558 86.7792 68.2333 86.8407 68.0049 86.8581C67.7766 86.8756 67.547 86.8486 67.3294 86.7788C67.1119 86.709 66.9107 86.5978 66.7375 86.4515L69.0146 83.8696C69.1885 84.0147 69.3313 84.192 69.4345 84.3913C69.5377 84.5906 69.5993 84.808 69.6159 85.0307C69.6324 85.2534 69.6034 85.4771 69.5306 85.6888C69.4579 85.9005 69.3428 86.096 69.192 86.264Z" fill="#F4E9B8"/>
<path d="M73.4918 83.9416L71.2296 86.5236C70.9129 86.2218 70.7257 85.8139 70.7059 85.3825C70.686 84.9511 70.835 84.5285 71.1226 84.2002C71.4102 83.8719 71.815 83.6626 72.2549 83.6146C72.6948 83.5665 73.137 83.6835 73.4918 83.9416Z" fill="#9BB8CE"/>
<path d="M73.6266 86.3362C73.4789 86.507 73.2979 86.6474 73.0941 86.7494C72.8903 86.8514 72.6678 86.9128 72.4395 86.9303C72.2112 86.9477 71.9816 86.9208 71.764 86.851C71.5464 86.7812 71.3452 86.67 71.1721 86.5237L73.4343 83.9418C73.6094 84.0859 73.7533 84.2624 73.8579 84.4612C73.9624 84.66 74.0255 84.877 74.0434 85.0998C74.0612 85.3225 74.0336 85.5465 73.9621 85.7588C73.8905 85.971 73.7765 86.1673 73.6266 86.3362Z" fill="#9BB8CE"/>
<path d="M72.1472 79.7443L69.8702 82.3262C69.5192 82.0317 69.3026 81.6132 69.2679 81.1628C69.2332 80.7124 69.3834 80.267 69.6854 79.9246C69.9873 79.5822 70.4163 79.3709 70.878 79.3371C71.3397 79.3032 71.7963 79.4497 72.1472 79.7443Z" fill="#FFDF5A"/>
<path d="M72.4002 82.1533C72.095 82.4936 71.6644 82.7027 71.2021 82.7351C70.7397 82.7675 70.2829 82.6206 69.931 82.3263L72.1489 79.7444C72.5086 80.032 72.737 80.4468 72.7841 80.8982C72.8312 81.3496 72.6932 81.8009 72.4002 82.1533Z" fill="#FFDF5A"/>
<path d="M57.8195 84.5042C58.7341 84.5042 59.4755 83.7809 59.4755 82.8887C59.4755 81.9965 58.7341 81.2732 57.8195 81.2732C56.9049 81.2732 56.1634 81.9965 56.1634 82.8887C56.1634 83.7809 56.9049 84.5042 57.8195 84.5042Z" stroke="#F7CE23" stroke-width="0.2" stroke-miterlimit="10" stroke-linecap="round"/>
<path d="M63.157 84.8216C64.0716 84.8216 64.813 84.0983 64.813 83.2061C64.813 82.3139 64.0716 81.5906 63.157 81.5906C62.2424 81.5906 61.501 82.3139 61.501 83.2061C61.501 84.0983 62.2424 84.8216 63.157 84.8216Z" stroke="#B8CCDD" stroke-width="0.2" stroke-miterlimit="10" stroke-linecap="round"/>
<path d="M60.8356 81.5041C61.7502 81.5041 62.4916 80.7808 62.4916 79.8886C62.4916 78.9964 61.7502 78.2731 60.8356 78.2731C59.921 78.2731 59.1796 78.9964 59.1796 79.8886C59.1796 80.7808 59.921 81.5041 60.8356 81.5041Z" stroke="#F4E9B8" stroke-width="0.2" stroke-miterlimit="10" stroke-linecap="round"/>
<path d="M104.235 88.6585C105.15 88.6585 105.891 87.9352 105.891 87.043C105.891 86.1508 105.15 85.4275 104.235 85.4275C103.32 85.4275 102.579 86.1508 102.579 87.043C102.579 87.9352 103.32 88.6585 104.235 88.6585Z" stroke="#F7CE23" stroke-width="0.2" stroke-miterlimit="10" stroke-linecap="round"/>
<path d="M109.558 88.1825C110.473 88.1825 111.214 87.4592 111.214 86.567C111.214 85.6747 110.473 84.9514 109.558 84.9514C108.644 84.9514 107.902 85.6747 107.902 86.567C107.902 87.4592 108.644 88.1825 109.558 88.1825Z" stroke="#B8CCDD" stroke-width="0.2" stroke-miterlimit="10" stroke-linecap="round"/>
<path d="M106.746 85.2399C107.661 85.2399 108.402 84.5166 108.402 83.6244C108.402 82.7322 107.661 82.0089 106.746 82.0089C105.831 82.0089 105.09 82.7322 105.09 83.6244C105.09 84.5166 105.831 85.2399 106.746 85.2399Z" stroke="#F4E9B8" stroke-width="0.2" stroke-miterlimit="10" stroke-linecap="round"/>
<path d="M121.843 91.3846C122.758 91.3846 123.499 90.6613 123.499 89.7691C123.499 88.8769 122.758 88.1536 121.843 88.1536C120.929 88.1536 120.187 88.8769 120.187 89.7691C120.187 90.6613 120.929 91.3846 121.843 91.3846Z" stroke="#F7CE23" stroke-width="0.2" stroke-miterlimit="10" stroke-linecap="round"/>
<path d="M116.935 89.3076C117.849 89.3076 118.591 88.5843 118.591 87.6921C118.591 86.7999 117.849 86.0765 116.935 86.0765C116.02 86.0765 115.279 86.7999 115.279 87.6921C115.279 88.5843 116.02 89.3076 116.935 89.3076Z" stroke="#B8CCDD" stroke-width="0.2" stroke-miterlimit="10" stroke-linecap="round"/>
<path d="M117.955 93.202C118.87 93.202 119.611 92.4787 119.611 91.5865C119.611 90.6942 118.87 89.9709 117.955 89.9709C117.041 89.9709 116.299 90.6942 116.299 91.5865C116.299 92.4787 117.041 93.202 117.955 93.202Z" stroke="#F4E9B8" stroke-width="0.2" stroke-miterlimit="10" stroke-linecap="round"/>
<path d="M73.393 89.1057C74.3076 89.1057 75.0491 88.3824 75.0491 87.4901C75.0491 86.5979 74.3076 85.8746 73.393 85.8746C72.4784 85.8746 71.737 86.5979 71.737 87.4901C71.737 88.3824 72.4784 89.1057 73.393 89.1057Z" stroke="#F7CE23" stroke-width="0.2" stroke-miterlimit="10" stroke-linecap="round"/>
<path d="M78.1059 86.6391C79.0205 86.6391 79.7619 85.9158 79.7619 85.0236C79.7619 84.1314 79.0205 83.4081 78.1059 83.4081C77.1913 83.4081 76.4499 84.1314 76.4499 85.0236C76.4499 85.9158 77.1913 86.6391 78.1059 86.6391Z" stroke="#B8CCDD" stroke-width="0.2" stroke-miterlimit="10" stroke-linecap="round"/>
<path d="M74.3352 84.9948C75.2498 84.9948 75.9912 84.2715 75.9912 83.3793C75.9912 82.4871 75.2498 81.7638 74.3352 81.7638C73.4206 81.7638 72.6791 82.4871 72.6791 83.3793C72.6791 84.2715 73.4206 84.9948 74.3352 84.9948Z" stroke="#F4E9B8" stroke-width="0.2" stroke-miterlimit="10" stroke-linecap="round"/>
<path d="M84.7918 94.9763C85.7064 94.9763 86.4478 94.253 86.4478 93.3608C86.4478 92.4685 85.7064 91.7452 84.7918 91.7452C83.8772 91.7452 83.1357 92.4685 83.1357 93.3608C83.1357 94.253 83.8772 94.9763 84.7918 94.9763Z" stroke="#F7CE23" stroke-width="0.2" stroke-miterlimit="10" stroke-linecap="round"/>
<path d="M89.317 92.1926C90.2316 92.1926 90.9731 91.4693 90.9731 90.5771C90.9731 89.6849 90.2316 88.9615 89.317 88.9615C88.4024 88.9615 87.661 89.6849 87.661 90.5771C87.661 91.4693 88.4024 92.1926 89.317 92.1926Z" stroke="#AA9BCC" stroke-width="0.2" stroke-miterlimit="10" stroke-linecap="round"/>
<path d="M85.4412 90.8222C86.3558 90.8222 87.0972 90.0989 87.0972 89.2067C87.0972 88.3145 86.3558 87.5912 85.4412 87.5912C84.5266 87.5912 83.7852 88.3145 83.7852 89.2067C83.7852 90.0989 84.5266 90.8222 85.4412 90.8222Z" stroke="#F4E9B8" stroke-width="0.2" stroke-miterlimit="10" stroke-linecap="round"/>
<path d="M92.0203 83.9274L93.9129 86.8122C93.5208 87.0571 93.045 87.1399 92.5903 87.0425C92.1355 86.9451 91.739 86.6755 91.488 86.293C91.2371 85.9104 91.1522 85.4463 91.252 85.0026C91.3518 84.559 91.6282 84.1722 92.0203 83.9274Z" fill="#F4E9B8"/>
<path d="M94.4463 84.389C94.6962 84.7718 94.7805 85.2356 94.6807 85.6789C94.5809 86.1223 94.3053 86.509 93.914 86.7546L92.0214 83.8697C92.4149 83.6297 92.8891 83.5496 93.3424 83.6467C93.7957 83.7438 94.192 84.0102 94.4463 84.389Z" fill="#F4E9B8"/>
<path d="M93.3645 79.7731L95.2571 82.6579C94.865 82.9028 94.3892 82.9856 93.9344 82.8882C93.4797 82.7909 93.0832 82.5212 92.8322 82.1387C92.5813 81.7561 92.4963 81.292 92.5962 80.8483C92.696 80.4047 92.9724 80.0179 93.3645 79.7731Z" fill="#AA9BCC"/>
<path d="M95.8045 80.2925C95.9305 80.4795 96.0171 80.689 96.0593 80.909C96.1015 81.129 96.0985 81.3549 96.0503 81.5737C96.0021 81.7925 95.9099 81.9998 95.7788 82.1835C95.6478 82.3671 95.4806 82.5236 95.287 82.6436L93.3944 79.7588C93.5885 79.6391 93.8048 79.5579 94.0311 79.52C94.2574 79.482 94.4891 79.488 94.713 79.5376C94.9369 79.5872 95.1486 79.6793 95.3359 79.8089C95.5232 79.9384 95.6825 80.1028 95.8045 80.2925Z" fill="#AA9BCC"/>
<path d="M88.8867 79.7876L90.7793 82.6724C90.3871 82.9173 89.9113 83.0001 89.4566 82.9028C89.0018 82.8054 88.6054 82.5357 88.3544 82.1532C88.1034 81.7706 88.0185 81.3065 88.1183 80.8629C88.2181 80.4192 88.4945 80.0324 88.8867 79.7876Z" fill="#FFDF5A"/>
<path d="M91.37 80.2924C91.6212 80.6735 91.7078 81.1361 91.6109 81.5792C91.514 82.0224 91.2413 82.4101 90.8525 82.658L88.9598 79.7731C89.3511 79.5339 89.823 79.4542 90.2739 79.5514C90.7248 79.6485 91.1184 79.9147 91.37 80.2924Z" fill="#FFDF5A"/>
<path d="M94.2238 88.8892C95.1384 88.8892 95.8798 88.1659 95.8798 87.2737C95.8798 86.3815 95.1384 85.6582 94.2238 85.6582C93.3092 85.6582 92.5677 86.3815 92.5677 87.2737C92.5677 88.1659 93.3092 88.8892 94.2238 88.8892Z" stroke="#F7CE23" stroke-width="0.2" stroke-miterlimit="10" stroke-linecap="round"/>
<path d="M98.9428 86.4228C99.8574 86.4228 100.599 85.6995 100.599 84.8073C100.599 83.9151 99.8574 83.1918 98.9428 83.1918C98.0282 83.1918 97.2868 83.9151 97.2868 84.8073C97.2868 85.6995 98.0282 86.4228 98.9428 86.4228Z" stroke="#B8CCDD" stroke-width="0.2" stroke-miterlimit="10" stroke-linecap="round"/>
<path d="M95.1845 84.7928C96.0991 84.7928 96.8405 84.0695 96.8405 83.1773C96.8405 82.2851 96.0991 81.5618 95.1845 81.5618C94.2699 81.5618 93.5284 82.2851 93.5284 83.1773C93.5284 84.0695 94.2699 84.7928 95.1845 84.7928Z" stroke="#F4E9B8" stroke-width="0.2" stroke-miterlimit="10" stroke-linecap="round"/>
<path d="M132.221 89.4806L132.295 86.0909C132.054 86.0647 131.811 86.0878 131.58 86.1586C131.348 86.2294 131.135 86.3464 130.953 86.5021C130.77 86.6579 130.623 86.8489 130.521 87.0632C130.419 87.2774 130.363 87.51 130.358 87.7463C130.353 87.9826 130.398 88.2174 130.491 88.4356C130.584 88.6539 130.723 88.8509 130.898 89.014C131.073 89.1772 131.281 89.3029 131.509 89.3833C131.737 89.4636 131.98 89.4967 132.221 89.4806Z" fill="#F4E9B8"/>
<path d="M134 87.822C134.005 87.5992 133.966 87.3774 133.884 87.1695C133.801 86.9616 133.677 86.7717 133.519 86.6108C133.361 86.4499 133.172 86.3211 132.962 86.2319C132.753 86.1427 132.528 86.0948 132.299 86.0911L132.225 89.4808C132.454 89.4865 132.681 89.4481 132.894 89.3676C133.107 89.2872 133.302 89.1664 133.467 89.0121C133.632 88.8579 133.764 88.6734 133.855 88.4691C133.947 88.2648 133.996 88.0449 134 87.822Z" fill="#F4E9B8"/>
<path d="M135.608 92.3368V88.9327C135.379 88.9269 135.152 88.9654 134.939 89.0458C134.726 89.1263 134.531 89.2471 134.366 89.4013C134.201 89.5555 134.069 89.7402 133.978 89.9444C133.886 90.1487 133.837 90.3686 133.834 90.5915C133.83 90.8205 133.873 91.0481 133.96 91.2606C134.048 91.4732 134.178 91.6664 134.344 91.8291C134.509 91.9917 134.706 92.1205 134.923 92.2077C135.14 92.2949 135.373 92.3388 135.608 92.3368Z" fill="#9BB8CE"/>
<path d="M137.383 90.6634C137.387 90.4399 137.346 90.2178 137.262 90.0098C137.178 89.8019 137.053 89.6121 136.893 89.4513C136.734 89.2906 136.544 89.1621 136.334 89.073C136.123 88.984 135.897 88.9363 135.668 88.9325V92.3366C136.121 92.3292 136.553 92.1505 136.873 91.8383C137.193 91.5261 137.376 91.1049 137.383 90.6634Z" fill="#9BB8CE"/>
<path d="M131.78 94.6158V91.2117C131.551 91.2079 131.323 91.2481 131.11 91.3301C130.897 91.4122 130.702 91.5343 130.537 91.6897C130.373 91.8451 130.241 92.0306 130.15 92.2357C130.058 92.4408 130.009 92.6614 130.005 92.8849C129.999 93.1138 130.041 93.3416 130.128 93.5543C130.215 93.767 130.346 93.9601 130.512 94.1221C130.678 94.284 130.876 94.4113 131.094 94.4961C131.312 94.581 131.545 94.6217 131.78 94.6158Z" fill="#FFDF5A"/>
<path d="M133.555 92.9569C133.56 92.7333 133.521 92.5108 133.439 92.3021C133.357 92.0934 133.233 91.9026 133.075 91.7405C132.917 91.5784 132.728 91.4483 132.519 91.3575C132.309 91.2668 132.083 91.2172 131.854 91.2115V94.6156C132.303 94.6082 132.731 94.4311 133.048 94.1216C133.365 93.8121 133.547 93.3945 133.555 92.9569Z" fill="#FFDF5A"/>
<path d="M202.267 86.6248L199.797 89.0481C200.127 89.3675 200.573 89.5462 201.037 89.5448C201.502 89.5435 201.946 89.3622 202.274 89.0408C202.601 88.7195 202.785 88.2844 202.783 87.8313C202.782 87.3782 202.596 86.9442 202.267 86.6248Z" fill="#F4E9B8"/>
<path d="M199.796 86.639C199.634 86.7971 199.505 86.9848 199.417 87.1915C199.329 87.3981 199.284 87.6197 199.284 87.8434C199.284 88.0671 199.329 88.2886 199.417 88.4953C199.505 88.702 199.634 88.8898 199.796 89.0478L202.265 86.6245C202.102 86.4672 201.909 86.3427 201.697 86.2583C201.484 86.1738 201.257 86.131 201.027 86.1324C200.798 86.1337 200.571 86.1791 200.36 86.266C200.149 86.353 199.957 86.4797 199.796 86.639Z" fill="#F4E9B8"/>
<path d="M201.833 82.2974L199.379 84.7062C199.537 84.8813 199.73 85.0229 199.946 85.1223C200.162 85.2216 200.397 85.2765 200.636 85.2836C200.875 85.2908 201.112 85.2499 201.334 85.1637C201.557 85.0774 201.758 84.9477 201.927 84.7823C202.095 84.6169 202.227 84.4196 202.314 84.2024C202.401 83.9853 202.441 83.7531 202.433 83.5201C202.424 83.2871 202.366 83.0583 202.263 82.848C202.16 82.6377 202.014 82.4503 201.833 82.2974Z" fill="#AA9BCC"/>
<path d="M199.311 82.2973C199.149 82.4554 199.02 82.6431 198.933 82.8498C198.845 83.0565 198.799 83.278 198.799 83.5017C198.799 83.7255 198.845 83.947 198.933 84.1537C199.02 84.3603 199.149 84.5481 199.311 84.7062L201.766 82.2973C201.439 81.9819 200.998 81.8051 200.539 81.8051C200.079 81.8051 199.638 81.9819 199.311 82.2973Z" fill="#AA9BCC"/>
<path d="M206.229 83.2206L203.745 85.6438C204.075 85.9633 204.521 86.142 204.985 86.1406C205.45 86.1393 205.895 85.958 206.222 85.6366C206.549 85.3153 206.733 84.8802 206.731 84.4271C206.73 83.974 206.544 83.54 206.215 83.2206H206.229Z" fill="#FFDF5A"/>
<path d="M203.744 83.2349C203.582 83.393 203.453 83.5808 203.365 83.7874C203.277 83.9941 203.232 84.2156 203.232 84.4393C203.232 84.6631 203.277 84.8846 203.365 85.0913C203.453 85.2979 203.582 85.4857 203.744 85.6438L206.213 83.2205C206.051 83.0614 205.858 82.9354 205.646 82.8498C205.433 82.7643 205.205 82.7209 204.975 82.7222C204.746 82.7235 204.518 82.7696 204.307 82.8576C204.095 82.9456 203.904 83.0739 203.744 83.2349Z" fill="#FFDF5A"/>
<path d="M188.026 89.4952L188.632 86.1488C188.402 86.1119 188.166 86.1201 187.939 86.1728C187.712 86.2256 187.498 86.3219 187.31 86.4562C187.121 86.5904 186.962 86.7599 186.841 86.9547C186.72 87.1496 186.641 87.366 186.606 87.5912C186.546 88.0259 186.66 88.4665 186.924 88.8213C187.189 89.176 187.583 89.4174 188.026 89.4952Z" fill="#F4E9B8"/>
<path d="M190.052 88.1248C190.092 87.8999 190.086 87.6694 190.032 87.4472C189.979 87.2249 189.881 87.0153 189.743 86.831C189.605 86.6466 189.43 86.4912 189.229 86.374C189.029 86.2568 188.806 86.1802 188.574 86.1487L187.968 89.4951C188.197 89.5432 188.434 89.5456 188.665 89.5022C188.895 89.4588 189.114 89.3705 189.309 89.2425C189.503 89.1146 189.67 88.9497 189.797 88.7576C189.925 88.5656 190.012 88.3503 190.052 88.1248Z" fill="#F4E9B8"/>
<path d="M190.922 92.8126L191.514 89.4662C191.281 89.4105 191.039 89.4021 190.803 89.4415C190.568 89.4809 190.342 89.5673 190.142 89.6952C189.942 89.8231 189.771 89.9899 189.639 90.1851C189.508 90.3803 189.419 90.5998 189.378 90.83C189.338 91.0601 189.346 91.296 189.403 91.5228C189.46 91.7497 189.564 91.9628 189.708 92.1487C189.853 92.3347 190.036 92.4896 190.245 92.6038C190.453 92.718 190.684 92.7891 190.922 92.8126Z" fill="#9BB8CE"/>
<path d="M192.934 91.4279C192.976 91.2036 192.971 90.9733 192.918 90.7511C192.866 90.5289 192.767 90.3195 192.629 90.1358C192.49 89.9521 192.315 89.798 192.113 89.6828C191.911 89.5677 191.688 89.4939 191.456 89.4662L190.864 92.8126C191.094 92.8605 191.331 92.8623 191.562 92.8179C191.792 92.7734 192.011 92.6837 192.204 92.5541C192.398 92.4246 192.563 92.2579 192.688 92.0643C192.814 91.8707 192.897 91.6541 192.934 91.4279Z" fill="#9BB8CE"/>
<path d="M186.784 94.4859L187.391 91.1394C187.159 91.0858 186.919 91.0788 186.685 91.1189C186.451 91.159 186.228 91.2454 186.029 91.3727C185.83 91.5 185.66 91.6656 185.53 91.8593C185.399 92.053 185.31 92.2707 185.269 92.4991C185.227 92.7275 185.234 92.9617 185.289 93.1874C185.344 93.4131 185.445 93.6254 185.587 93.8115C185.729 93.9975 185.909 94.1533 186.114 94.2693C186.32 94.3853 186.548 94.459 186.784 94.4859Z" fill="#FFDF5A"/>
<path d="M188.811 93.1156C188.849 92.8918 188.841 92.6628 188.786 92.4422C188.732 92.2217 188.633 92.0139 188.495 91.8311C188.358 91.6484 188.184 91.4943 187.984 91.378C187.785 91.2617 187.563 91.1855 187.333 91.1539L186.727 94.5004C186.957 94.5483 187.195 94.5502 187.426 94.5059C187.658 94.4616 187.877 94.372 188.072 94.2426C188.267 94.1132 188.433 93.9466 188.56 93.7529C188.687 93.5592 188.773 93.3424 188.811 93.1156Z" fill="#FFDF5A"/>
<path d="M160.067 84.8793L162.166 82.1532C161.796 81.8816 161.33 81.7646 160.871 81.8282C160.412 81.8918 159.998 82.1306 159.719 82.4921C159.441 82.8536 159.321 83.3082 159.386 83.7559C159.451 84.2036 159.696 84.6077 160.067 84.8793Z" fill="#F4E9B8"/>
<path d="M162.505 84.5332C162.783 84.1733 162.903 83.7207 162.839 83.2746C162.776 82.8285 162.533 82.4253 162.165 82.1532L160.066 84.8793C160.436 85.1487 160.901 85.2635 161.359 85.1986C161.816 85.1337 162.229 84.8944 162.505 84.5332Z" fill="#F4E9B8"/>
<path d="M161.101 89.1057L163.201 86.3939C163.02 86.2437 162.809 86.1311 162.582 86.0631C162.355 85.995 162.116 85.973 161.879 85.9983C161.643 86.0237 161.415 86.0958 161.208 86.2103C161.002 86.3248 160.821 86.4794 160.678 86.6644C160.535 86.8494 160.432 87.061 160.375 87.2862C160.319 87.5114 160.31 87.7455 160.35 87.9741C160.389 88.2027 160.476 88.421 160.606 88.6156C160.735 88.8101 160.903 88.9769 161.101 89.1057Z" fill="#9BB8CE"/>
<path d="M163.542 88.7162C163.82 88.3563 163.94 87.9037 163.876 87.4576C163.813 87.0115 163.57 86.6083 163.202 86.3362L161.103 89.0479C161.471 89.3188 161.935 89.436 162.393 89.3738C162.85 89.3116 163.263 89.0751 163.542 88.7162Z" fill="#9BB8CE"/>
<path d="M156.622 88.7882L158.721 86.0621C158.351 85.7904 157.885 85.6736 157.426 85.7372C156.967 85.8007 156.553 86.0395 156.274 86.401C155.996 86.7625 155.876 87.2172 155.941 87.6648C156.006 88.1125 156.251 88.5166 156.622 88.7882Z" fill="#FFDF5A"/>
<path d="M159.073 88.4421C159.349 88.0805 159.467 87.6268 159.4 87.1805C159.334 86.7343 159.088 86.3321 158.718 86.0621L156.618 88.7883C156.992 89.0584 157.459 89.1736 157.919 89.1088C158.379 89.0439 158.794 88.8043 159.073 88.4421Z" fill="#FFDF5A"/>
<path d="M147.559 91.2404L145.223 88.7162C144.874 89.0139 144.66 89.434 144.626 89.885C144.593 90.3361 144.744 90.7817 145.045 91.1251C145.199 91.2995 145.387 91.4414 145.599 91.5423C145.811 91.6431 146.041 91.7007 146.277 91.7115C146.512 91.7223 146.747 91.6861 146.968 91.6051C147.188 91.5241 147.389 91.4 147.559 91.2404Z" fill="#F4E9B8"/>
<path d="M147.691 88.846C147.386 88.5068 146.957 88.2975 146.496 88.2624C146.034 88.2274 145.577 88.3695 145.222 88.6585L147.558 91.2404C147.9 90.9392 148.105 90.5185 148.13 90.07C148.155 89.6214 147.997 89.1815 147.691 88.846Z" fill="#F4E9B8"/>
<path d="M151.992 91.1683L149.715 88.5863C149.541 88.7322 149.399 88.91 149.295 89.1096C149.192 89.3092 149.13 89.5268 149.113 89.7498C149.096 89.9728 149.124 90.1969 149.195 90.4094C149.267 90.6218 149.381 90.8184 149.53 90.988C149.68 91.1575 149.862 91.2966 150.067 91.3974C150.271 91.4982 150.494 91.5587 150.723 91.5755C150.952 91.5922 151.181 91.5649 151.399 91.495C151.617 91.4251 151.818 91.3141 151.992 91.1683Z" fill="#AA9BCC"/>
<path d="M152.142 88.7162C151.994 88.5455 151.813 88.405 151.609 88.3031C151.406 88.2011 151.183 88.1395 150.955 88.1221C150.726 88.1047 150.497 88.1316 150.279 88.2014C150.062 88.2712 149.86 88.3825 149.687 88.5287L151.994 91.1684C152.175 91.0207 152.323 90.8385 152.429 90.633C152.535 90.4275 152.597 90.2031 152.61 89.9734C152.624 89.7438 152.59 89.5138 152.509 89.2976C152.429 89.0814 152.304 88.8836 152.142 88.7162Z" fill="#AA9BCC"/>
<path d="M150.676 95.3658L148.399 92.7839C148.049 93.0771 147.832 93.4937 147.796 93.9424C147.76 94.3912 147.908 94.8356 148.207 95.1784C148.512 95.5175 148.941 95.7269 149.402 95.7619C149.863 95.797 150.32 95.6548 150.676 95.3658Z" fill="#FFDF5A"/>
<path d="M150.857 92.9568C150.709 92.7871 150.527 92.6479 150.323 92.5472C150.118 92.4465 149.895 92.3863 149.667 92.3702C149.439 92.3541 149.21 92.3824 148.993 92.4534C148.776 92.5244 148.575 92.6367 148.403 92.7838L150.68 95.3657C151.029 95.0679 151.243 94.6479 151.276 94.1969C151.31 93.7458 151.159 93.3002 150.857 92.9568Z" fill="#FFDF5A"/>
<path d="M137.813 94.6733C138.727 94.6733 139.469 93.95 139.469 93.0578C139.469 92.1656 138.727 91.4423 137.813 91.4423C136.898 91.4423 136.157 92.1656 136.157 93.0578C136.157 93.95 136.898 94.6733 137.813 94.6733Z" stroke="#F7CE23" stroke-width="0.2" stroke-miterlimit="10" stroke-linecap="round"/>
<path d="M141.627 93.5051C142.541 93.5051 143.283 92.7818 143.283 91.8896C143.283 90.9973 142.541 90.274 141.627 90.274C140.712 90.274 139.971 90.9973 139.971 91.8896C139.971 92.7818 140.712 93.5051 141.627 93.5051Z" stroke="#AA9BCC" stroke-width="0.2" stroke-miterlimit="10" stroke-linecap="round"/>
<path d="M139.305 96.8226C140.22 96.8226 140.961 96.0993 140.961 95.2071C140.961 94.3148 140.22 93.5916 139.305 93.5916C138.391 93.5916 137.649 94.3148 137.649 95.2071C137.649 96.0993 138.391 96.8226 139.305 96.8226Z" stroke="#F4E9B8" stroke-width="0.2" stroke-miterlimit="10" stroke-linecap="round"/>
<path d="M182.703 89.6683C183.617 89.6683 184.359 88.945 184.359 88.0528C184.359 87.1606 183.617 86.4373 182.703 86.4373C181.788 86.4373 181.047 87.1606 181.047 88.0528C181.047 88.945 181.788 89.6683 182.703 89.6683Z" stroke="#F7CE23" stroke-width="0.2" stroke-miterlimit="10" stroke-linecap="round"/>
<path d="M188.026 90.1586C188.941 90.1586 189.682 89.4353 189.682 88.5431C189.682 87.6509 188.941 86.9276 188.026 86.9276C187.111 86.9276 186.37 87.6509 186.37 88.5431C186.37 89.4353 187.111 90.1586 188.026 90.1586Z" stroke="#B8CCDD" stroke-width="0.2" stroke-miterlimit="10" stroke-linecap="round"/>
<path d="M185.216 93.0867C186.131 93.0867 186.872 92.3635 186.872 91.4712C186.872 90.579 186.131 89.8557 185.216 89.8557C184.301 89.8557 183.56 90.579 183.56 91.4712C183.56 92.3635 184.301 93.0867 185.216 93.0867Z" stroke="#F4E9B8" stroke-width="0.2" stroke-miterlimit="10" stroke-linecap="round"/>
<path d="M200.297 86.9419C201.211 86.9419 201.953 86.2187 201.953 85.3264C201.953 84.4342 201.211 83.7109 200.297 83.7109C199.382 83.7109 198.641 84.4342 198.641 85.3264C198.641 86.2187 199.382 86.9419 200.297 86.9419Z" stroke="#F7CE23" stroke-width="0.2" stroke-miterlimit="10" stroke-linecap="round"/>
<path d="M196.705 88.2403C197.62 88.2403 198.361 87.517 198.361 86.6248C198.361 85.7326 197.62 85.0093 196.705 85.0093C195.791 85.0093 195.049 85.7326 195.049 86.6248C195.049 87.517 195.791 88.2403 196.705 88.2403Z" stroke="#AA9BCC" stroke-width="0.2" stroke-miterlimit="10" stroke-linecap="round"/>
<path d="M206.851 88.0527C207.765 88.0527 208.507 87.3294 208.507 86.4372C208.507 85.5449 207.765 84.8217 206.851 84.8217C205.936 84.8217 205.195 85.5449 205.195 86.4372C205.195 87.3294 205.936 88.0527 206.851 88.0527Z" stroke="#F4E9B8" stroke-width="0.2" stroke-miterlimit="10" stroke-linecap="round"/>
<path d="M151.846 89.2354C152.761 89.2354 153.502 88.5121 153.502 87.6199C153.502 86.7277 152.761 86.0044 151.846 86.0044C150.932 86.0044 150.19 86.7277 150.19 87.6199C150.19 88.5121 150.932 89.2354 151.846 89.2354Z" stroke="#F7CE23" stroke-width="0.2" stroke-miterlimit="10" stroke-linecap="round"/>
<path d="M156.563 91.702C157.478 91.702 158.219 90.9787 158.219 90.0865C158.219 89.1942 157.478 88.4709 156.563 88.4709C155.649 88.4709 154.907 89.1942 154.907 90.0865C154.907 90.9787 155.649 91.702 156.563 91.702Z" stroke="#B8CCDD" stroke-width="0.2" stroke-miterlimit="10" stroke-linecap="round"/>
<path d="M152.807 93.332C153.722 93.332 154.463 92.6087 154.463 91.7165C154.463 90.8242 153.722 90.101 152.807 90.101C151.892 90.101 151.151 90.8242 151.151 91.7165C151.151 92.6087 151.892 93.332 152.807 93.332Z" stroke="#F4E9B8" stroke-width="0.2" stroke-miterlimit="10" stroke-linecap="round"/>
<path d="M163.26 83.3503C164.174 83.3503 164.916 82.627 164.916 81.7348C164.916 80.8425 164.174 80.1193 163.26 80.1193C162.345 80.1193 161.604 80.8425 161.604 81.7348C161.604 82.627 162.345 83.3503 163.26 83.3503Z" stroke="#F7CE23" stroke-width="0.2" stroke-miterlimit="10" stroke-linecap="round"/>
<path d="M167.785 86.1487C168.699 86.1487 169.441 85.4254 169.441 84.5332C169.441 83.6409 168.699 82.9176 167.785 82.9176C166.87 82.9176 166.129 83.6409 166.129 84.5332C166.129 85.4254 166.87 86.1487 167.785 86.1487Z" stroke="#B8CCDD" stroke-width="0.2" stroke-miterlimit="10" stroke-linecap="round"/>
<path d="M163.911 87.519C164.826 87.519 165.567 86.7957 165.567 85.9035C165.567 85.0112 164.826 84.288 163.911 84.288C162.996 84.288 162.255 85.0112 162.255 85.9035C162.255 86.7957 162.996 87.519 163.911 87.519Z" stroke="#F4E9B8" stroke-width="0.2" stroke-miterlimit="10" stroke-linecap="round"/>
<path d="M170.49 91.1828L172.383 88.2979C171.991 88.0531 171.515 87.9703 171.06 88.0677C170.605 88.1651 170.209 88.4347 169.958 88.8172C169.707 89.1998 169.622 89.6639 169.722 90.1076C169.822 90.5512 170.098 90.9379 170.49 91.1828Z" fill="#F4E9B8"/>
<path d="M172.901 90.6778C173.148 90.2979 173.232 89.8387 173.135 89.3991C173.038 88.9594 172.769 88.5743 172.384 88.3267L170.491 91.2115C170.884 91.4494 171.357 91.5268 171.808 91.4269C172.26 91.3271 172.652 91.0579 172.901 90.6778Z" fill="#F4E9B8"/>
<path d="M171.834 95.3368L173.727 92.452C173.335 92.2072 172.859 92.1243 172.404 92.2217C171.95 92.3191 171.553 92.5887 171.302 92.9713C171.051 93.3538 170.966 93.8179 171.066 94.2616C171.166 94.7052 171.442 95.092 171.834 95.3368Z" fill="#9BB8CE"/>
<path d="M174.246 94.8321C174.493 94.45 174.577 93.9886 174.481 93.5465C174.384 93.1045 174.114 92.7169 173.728 92.4666L171.835 95.3514C172.227 95.5907 172.699 95.6703 173.149 95.5732C173.6 95.476 173.994 95.2098 174.246 94.8321Z" fill="#9BB8CE"/>
<path d="M167.356 95.3224L169.234 92.4376C169.039 92.3173 168.823 92.2355 168.596 92.1969C168.37 92.1583 168.138 92.1636 167.913 92.2124C167.689 92.2613 167.476 92.3529 167.288 92.4818C167.1 92.6108 166.939 92.7747 166.816 92.9641C166.693 93.1535 166.609 93.3648 166.569 93.5858C166.53 93.8068 166.535 94.0333 166.585 94.2523C166.635 94.4713 166.729 94.6785 166.861 94.8621C166.994 95.0458 167.162 95.2022 167.356 95.3224Z" fill="#FFDF5A"/>
<path d="M169.737 94.8177C169.86 94.6293 169.944 94.4189 169.984 94.1988C170.024 93.9786 170.019 93.7529 169.97 93.5345C169.92 93.3162 169.827 93.1095 169.696 92.9262C169.565 92.743 169.398 92.5868 169.204 92.4666L167.327 95.3514C167.72 95.5893 168.193 95.6667 168.644 95.5668C169.095 95.4669 169.488 95.1978 169.737 94.8177Z" fill="#FFDF5A"/>
<path d="M172.677 89.4518C173.592 89.4518 174.333 88.7284 174.333 87.8362C174.333 86.944 173.592 86.2207 172.677 86.2207C171.762 86.2207 171.021 86.944 171.021 87.8362C171.021 88.7284 171.762 89.4518 172.677 89.4518Z" stroke="#F7CE23" stroke-width="0.2" stroke-miterlimit="10" stroke-linecap="round"/>
<path d="M177.398 91.9183C178.313 91.9183 179.054 91.195 179.054 90.3028C179.054 89.4106 178.313 88.6873 177.398 88.6873C176.484 88.6873 175.742 89.4106 175.742 90.3028C175.742 91.195 176.484 91.9183 177.398 91.9183Z" stroke="#B8CCDD" stroke-width="0.2" stroke-miterlimit="10" stroke-linecap="round"/>
<path d="M173.64 93.5482C174.554 93.5482 175.296 92.8249 175.296 91.9327C175.296 91.0404 174.554 90.3171 173.64 90.3171C172.725 90.3171 171.984 91.0404 171.984 91.9327C171.984 92.8249 172.725 93.5482 173.64 93.5482Z" stroke="#F4E9B8" stroke-width="0.2" stroke-miterlimit="10" stroke-linecap="round"/>
<path d="M29.1644 90.7788L29.2383 94.183C29.0092 94.1868 28.7815 94.1465 28.5684 94.0645C28.3552 93.9825 28.1606 93.8603 27.9959 93.7049C27.8311 93.5495 27.6993 93.364 27.6081 93.1589C27.5168 92.9539 27.4679 92.7333 27.464 92.5097C27.4581 92.2869 27.4975 92.0651 27.58 91.8572C27.6624 91.6494 27.7863 91.4595 27.9444 91.2985C28.1025 91.1376 28.2917 91.0088 28.5011 90.9196C28.7105 90.8304 28.9359 90.7825 29.1644 90.7788Z" fill="#F4E9B8"/>
<path d="M30.9534 92.452C30.9573 92.6755 30.916 92.8976 30.832 93.1056C30.7479 93.3135 30.6226 93.5033 30.4633 93.664C30.3041 93.8248 30.1139 93.9533 29.9037 94.0423C29.6935 94.1314 29.4673 94.1791 29.2382 94.1829L29.1643 90.7788C29.6273 90.7747 30.0737 90.9475 30.4079 91.2601C30.7422 91.5727 30.938 92.0005 30.9534 92.452Z" fill="#F4E9B8"/>
<path d="M32.5522 87.9373V91.3414C32.0894 91.3414 31.6456 91.1621 31.3184 90.8429C30.9912 90.5237 30.8074 90.0908 30.8074 89.6393C30.8074 89.1879 30.9912 88.755 31.3184 88.4358C31.6456 88.1166 32.0894 87.9373 32.5522 87.9373Z" fill="#AA9BCC"/>
<path d="M34.3244 89.6105C34.3283 89.834 34.2871 90.0561 34.203 90.2641C34.1189 90.472 33.9937 90.6618 33.8344 90.8225C33.6751 90.9833 33.4849 91.1118 33.2747 91.2008C33.0645 91.2899 32.8384 91.3376 32.6093 91.3414V87.9373C33.0618 87.9447 33.4936 88.1234 33.8136 88.4356C34.1337 88.7477 34.3168 89.169 34.3244 89.6105Z" fill="#AA9BCC"/>
<path d="M24.7447 86.9131V90.3172C24.282 90.3172 23.8382 90.1379 23.511 89.8187C23.1838 89.4995 23 89.0665 23 88.6151C23 88.1637 23.1838 87.7308 23.511 87.4116C23.8382 87.0924 24.282 86.9131 24.7447 86.9131Z" fill="#FFDF5A"/>
<path d="M26.5204 88.5719C26.5286 89.0198 26.3568 89.4532 26.0419 89.7793C25.7269 90.1054 25.2937 90.2984 24.8348 90.3172V86.9131C25.2809 86.9242 25.7052 87.1029 26.0193 87.412C26.3334 87.7211 26.513 88.1367 26.5204 88.5719Z" fill="#FFDF5A"/>
<path d="M44.4389 89.0191L42.1619 91.601C41.9881 91.4552 41.8455 91.2773 41.7421 91.0777C41.6388 90.8781 41.5768 90.6605 41.5596 90.4375C41.5249 89.9871 41.6751 89.5417 41.977 89.1994C42.1266 89.0298 42.3088 88.8907 42.5135 88.7899C42.7181 88.6891 42.9411 88.6286 43.1697 88.6118C43.6314 88.578 44.0879 88.7245 44.4389 89.0191Z" fill="#F4E9B8"/>
<path d="M44.6342 91.4135C44.4852 91.5847 44.3029 91.7254 44.0979 91.8276C43.8928 91.9298 43.6691 91.9914 43.4396 92.0088C43.21 92.0262 42.9792 91.9991 42.7605 91.9292C42.5417 91.8592 42.3393 91.7476 42.1649 91.601L44.442 89.019C44.792 89.3123 45.0088 89.7288 45.0448 90.1775C45.0808 90.6263 44.9332 91.0707 44.6342 91.4135Z" fill="#F4E9B8"/>
<path d="M48.9065 89.0912L46.6294 91.6732C46.2785 91.3786 46.0618 90.9601 46.0272 90.5097C45.9925 90.0593 46.1427 89.6139 46.4446 89.2716C46.7466 88.9292 47.1756 88.7178 47.6373 88.684C48.099 88.6502 48.5555 88.7967 48.9065 89.0912Z" fill="#9BB8CE"/>
<path d="M49.0976 91.5C48.7924 91.8403 48.3618 92.0494 47.8995 92.0818C47.4371 92.1143 46.9803 91.9674 46.6284 91.6731L48.9054 89.0912C49.2531 89.389 49.4677 89.8075 49.5036 90.2575C49.5395 90.7075 49.3938 91.1533 49.0976 91.5Z" fill="#9BB8CE"/>
<path d="M47.6179 84.9082L45.3409 87.4902C44.992 87.1924 44.7777 86.7724 44.7444 86.3213C44.7112 85.8703 44.8618 85.4247 45.1634 85.0813C45.3122 84.9116 45.494 84.7724 45.6983 84.6717C45.9026 84.571 46.1253 84.5108 46.3536 84.4947C46.5819 84.4786 46.8112 84.5069 47.0282 84.5779C47.2453 84.6489 47.4457 84.7611 47.6179 84.9082Z" fill="#FFDF5A"/>
<path d="M47.7943 87.2737C47.6466 87.4445 47.4656 87.5849 47.2619 87.6869C47.0581 87.7889 46.8356 87.8504 46.6072 87.8678C46.3789 87.8853 46.1493 87.8583 45.9317 87.7885C45.7142 87.7187 45.513 87.6075 45.3398 87.4612L47.6169 84.8793C47.7909 85.0244 47.9336 85.2017 48.0368 85.401C48.14 85.6003 48.2017 85.8176 48.2182 86.0403C48.2347 86.263 48.2057 86.4867 48.133 86.6985C48.0602 86.9102 47.9451 87.1057 47.7943 87.2737Z" fill="#FFDF5A"/>
<path d="M33.2345 89.6683C34.1491 89.6683 34.8905 88.945 34.8905 88.0528C34.8905 87.1606 34.1491 86.4373 33.2345 86.4373C32.3199 86.4373 31.5785 87.1606 31.5785 88.0528C31.5785 88.945 32.3199 89.6683 33.2345 89.6683Z" stroke="#F7CE23" stroke-width="0.2" stroke-miterlimit="10" stroke-linecap="round"/>
<path d="M37.133 91.2549C38.0476 91.2549 38.7891 90.5315 38.7891 89.6393C38.7891 88.7471 38.0476 88.0238 37.133 88.0238C36.2184 88.0238 35.477 88.7471 35.477 89.6393C35.477 90.5315 36.2184 91.2549 37.133 91.2549Z" stroke="#AA9BCC" stroke-width="0.2" stroke-miterlimit="10" stroke-linecap="round"/>
<path d="M35.8033 86.6679C36.7179 86.6679 37.4593 85.9446 37.4593 85.0524C37.4593 84.1602 36.7179 83.4369 35.8033 83.4369C34.8887 83.4369 34.1472 84.1602 34.1472 85.0524C34.1472 85.9446 34.8887 86.6679 35.8033 86.6679Z" stroke="#F4E9B8" stroke-width="0.2" stroke-miterlimit="10" stroke-linecap="round"/>
<path d="M48.7854 94.2551C49.7 94.2551 50.4414 93.5318 50.4414 92.6396C50.4414 91.7473 49.7 91.024 48.7854 91.024C47.8708 91.024 47.1293 91.7473 47.1293 92.6396C47.1293 93.5318 47.8708 94.2551 48.7854 94.2551Z" stroke="#F7CE23" stroke-width="0.2" stroke-miterlimit="10" stroke-linecap="round"/>
<path d="M49.7482 90.1586C50.6628 90.1586 51.4042 89.4353 51.4042 88.5431C51.4042 87.6509 50.6628 86.9276 49.7482 86.9276C48.8336 86.9276 48.0921 87.6509 48.0921 88.5431C48.0921 89.4353 48.8336 90.1586 49.7482 90.1586Z" stroke="#F4E9B8" stroke-width="0.2" stroke-miterlimit="10" stroke-linecap="round"/>
<path d="M162.226 63.6611L186.933 101.063C181.849 104.259 175.671 105.354 169.76 104.107C163.848 102.86 158.686 99.3735 155.409 94.4136C152.133 89.4538 151.011 83.4274 152.289 77.6602C153.567 71.893 157.142 66.8574 162.226 63.6611Z" fill="#F4E9B8"/>
<path d="M193.748 70.3108C197.022 75.2713 198.143 81.297 196.865 87.0635C195.587 92.83 192.014 97.8655 186.931 101.063L162.224 63.6613C164.741 62.0779 167.554 60.9939 170.5 60.4712C173.447 59.9484 176.471 59.9972 179.398 60.6147C182.326 61.2322 185.1 62.4064 187.562 64.0701C190.024 65.7338 192.126 67.8544 193.748 70.3108Z" fill="#F4E9B8"/>
<path d="M105.448 63.0554L130.14 100.458C125.056 103.652 118.879 104.745 112.969 103.497C107.058 102.248 101.898 98.7605 98.624 93.8007C95.3496 88.8409 94.2289 82.8153 95.5086 77.0494C96.7883 71.2836 100.364 66.2498 105.448 63.0554Z" fill="#AA9BCC"/>
<path d="M136.956 69.7051C138.579 72.1607 139.69 74.9042 140.226 77.7789C140.762 80.6536 140.712 83.6031 140.079 86.459C139.446 89.3148 138.242 92.021 136.537 94.4229C134.831 96.8248 132.657 98.8755 130.139 100.458L105.447 63.0555C107.963 61.4725 110.774 60.3888 113.72 59.8662C116.665 59.3437 119.688 59.3926 122.614 60.0101C125.54 60.6277 128.313 61.8018 130.774 63.4653C133.235 65.1288 135.335 67.2491 136.956 69.7051Z" fill="#AA9BCC"/>
<path d="M130.302 86.2063V88.1392H131.292C131.447 87.7888 131.523 87.4099 131.514 87.0285C131.501 86.7191 131.426 86.4152 131.292 86.1342L130.302 86.2063Z" fill="#EFCB5B"/>
<path d="M105.698 86.2784V88.2113H104.678C104.521 87.8619 104.45 87.4815 104.471 87.1006C104.488 86.7933 104.558 86.4909 104.678 86.2063L105.698 86.2784Z" fill="#EFCB5B"/>
<path d="M108.67 86.9853C106.852 86.5958 104.708 78.4895 108.508 73.4121C112.308 68.3348 120.943 67.0799 125.807 71.4071C131.397 76.4268 128.883 86.5959 126.488 87.2738C126.139 87.3616 125.771 87.3374 125.438 87.2048C125.105 87.0723 124.825 86.8385 124.639 86.5381C124.432 85.8746 125.6 85.2688 126.428 84.1293C127.505 82.4011 127.855 80.3336 127.404 78.3596C127.22 77.0273 126.745 75.7488 126.014 74.6095C125.282 73.4703 124.309 72.4965 123.161 71.7533C121.725 70.9778 120.118 70.5542 118.477 70.519C116.836 70.4839 115.211 70.8381 113.742 71.5514C113.55 71.6523 108.922 73.9746 108.316 78.4462C107.967 80.1353 108.234 81.8902 109.07 83.4081C109.691 84.3457 110.548 84.9515 110.356 85.7304C110.255 86.0911 110.036 86.4095 109.731 86.6363C109.426 86.8631 109.054 86.9858 108.67 86.9853Z" fill="#F7CE23" stroke="#F7CE23" stroke-width="0.25" stroke-miterlimit="10"/>
<path d="M111.141 70.4983C111.065 70.5872 111.009 70.6915 110.979 70.8036C110.948 70.9158 110.943 71.0331 110.964 71.1474C110.964 71.1474 110.964 71.2628 111.393 71.5657L111.748 71.8542C112.28 72.2148 114.054 70.9599 115.769 70.4118C116.532 70.1902 117.325 70.088 118.12 70.1089C119.825 70.0506 121.517 70.4075 123.044 71.1474C123.902 71.6667 124.892 72.2725 125.232 72.0129C125.232 72.0129 125.336 71.8686 125.425 71.6811C125.483 71.5414 125.528 71.3965 125.558 71.2484C125.574 71.0853 125.574 70.921 125.558 70.7579C125.558 70.3252 124.907 69.8637 124.523 69.6184C123.517 69.012 122.426 68.5505 121.285 68.2481C120.383 68.0606 118.52 67.9308 118.52 67.9308C118.194 67.9308 117.662 67.9308 117.337 67.9308C116.186 68.0124 115.052 68.2453 113.965 68.6232C112.871 68.9941 111.897 69.6411 111.141 70.4983Z" fill="#F4E9B8"/>
<path d="M107.932 84.3024C107.482 84.5516 106.972 84.6809 106.454 84.6774H105.507C105.239 85.4399 105.09 86.2373 105.064 87.043C105.053 87.9413 105.203 88.8346 105.507 89.6826H106.616C107.009 89.6873 107.39 89.808 107.71 90.0288L110.076 91.7453C110.293 91.8854 110.545 91.967 110.805 91.9819C111.064 91.9969 111.324 91.9447 111.556 91.8305C111.789 91.7164 111.986 91.5443 112.129 91.3318C112.271 91.1193 112.354 90.8738 112.368 90.6202C112.641 89.4763 112.771 88.304 112.752 87.1295C112.744 86.0564 112.616 84.9874 112.368 83.9418C112.36 83.7247 112.298 83.5128 112.187 83.3244C112.076 83.136 111.92 82.9766 111.732 82.86C111.541 82.7537 111.324 82.6979 111.104 82.6979C110.884 82.6979 110.667 82.7537 110.475 82.86L107.932 84.3024Z" fill="#F4E9B8"/>
<path d="M128.086 84.3024C128.534 84.559 129.046 84.6888 129.565 84.6774H130.526C130.795 85.4391 130.94 86.2374 130.955 87.043C130.976 87.9409 130.831 88.8352 130.526 89.6827H129.402C129.014 89.6866 128.637 89.8075 128.323 90.0288L125.942 91.7453C125.725 91.8854 125.474 91.967 125.214 91.982C124.954 91.9969 124.695 91.9447 124.462 91.8305C124.23 91.7164 124.032 91.5443 123.89 91.3318C123.747 91.1193 123.664 90.8738 123.65 90.6202C123.385 89.475 123.256 88.3037 123.266 87.1295C123.281 86.0569 123.41 84.9887 123.65 83.9418C123.659 83.7247 123.721 83.5129 123.832 83.3244C123.942 83.136 124.098 82.9766 124.286 82.86C124.48 82.7539 124.699 82.6981 124.922 82.6981C125.145 82.6981 125.364 82.7539 125.558 82.86L128.086 84.3024Z" fill="#F4E9B8"/>
<path d="M111.866 82.9465C112.236 83.1628 112.798 83.7109 112.96 86.8122C113.123 90.1442 112.546 91.0385 112.132 91.4856C111.925 91.702 111.541 92.0626 111.422 91.9905C111.304 91.9183 111.644 91.2548 111.91 90.274C112.118 89.5011 112.232 88.7072 112.251 87.9084C112.269 87.1072 112.215 86.3059 112.088 85.514C112.057 85.0223 111.958 84.5369 111.792 84.0716C111.467 83.2782 110.979 82.8455 111.097 82.7012C111.215 82.557 111.6 82.759 111.866 82.9465Z" fill="#F7CE23"/>
<path d="M124.151 82.9465C123.781 83.1629 123.219 83.711 123.057 86.8122C122.894 90.1442 123.471 91.0529 123.87 91.4857C124.269 91.9184 124.476 92.0626 124.594 91.9905C124.713 91.9184 124.372 91.2693 124.092 90.274C123.88 89.5023 123.771 88.7073 123.766 87.9084C123.737 87.1075 123.786 86.3057 123.914 85.514C123.952 85.0219 124.056 84.5369 124.225 84.0716C124.55 83.2783 125.038 82.8455 124.905 82.7013C124.772 82.557 124.417 82.7878 124.151 82.9465Z" fill="#F7CE23"/>
<path d="M103.527 89.7835C103.387 89.6858 103.279 89.5505 103.216 89.394C102.959 88.7626 102.804 88.0959 102.758 87.4179C102.74 86.6309 102.875 85.8477 103.157 85.11C103.232 84.9191 103.355 84.7499 103.515 84.6186C103.676 84.4874 103.868 84.3983 104.074 84.36C103.901 84.6838 103.758 85.0216 103.645 85.3697C103.48 85.836 103.376 86.3205 103.335 86.8121C103.276 87.2912 103.276 87.7754 103.335 88.2545C103.359 88.5453 103.424 88.8316 103.527 89.1055C103.651 89.4072 103.82 89.6892 104.029 89.9422C103.849 89.9422 103.673 89.8867 103.527 89.7835Z" fill="#F7CE23"/>
<path d="M102.15 89.3508C102.034 89.2735 101.946 89.1625 101.898 89.0335C101.687 88.5277 101.562 87.9918 101.529 87.4468C101.516 86.8086 101.621 86.1736 101.839 85.5716C101.904 85.424 101.999 85.2912 102.12 85.1822C102.254 85.0744 102.411 84.9958 102.578 84.9514C102.43 85.2687 102.312 85.5572 102.238 85.7736C102.111 86.1479 102.026 86.535 101.987 86.9275C101.945 87.3159 101.945 87.7075 101.987 88.0959C102.011 88.3277 102.066 88.5555 102.15 88.7738C102.245 89.0222 102.385 89.2519 102.564 89.4518C102.418 89.4613 102.273 89.426 102.15 89.3508Z" fill="#F2D65F"/>
<path d="M101.053 88.8317C100.976 88.776 100.914 88.7014 100.876 88.6153C100.557 87.8324 100.557 86.9604 100.876 86.1776C100.919 86.0738 100.985 85.9803 101.068 85.9035C101.168 85.8362 101.278 85.7828 101.393 85.7449C101.297 85.9368 101.213 86.1344 101.142 86.3363C101.06 86.5946 101.006 86.8604 100.979 87.1296C100.947 87.4028 100.947 87.6786 100.979 87.9518C101 88.1144 101.039 88.2742 101.098 88.4278C101.165 88.6 101.26 88.7607 101.379 88.9038C101.265 88.9166 101.15 88.8911 101.053 88.8317Z" fill="#F9E595"/>
<path d="M132.772 89.971C132.911 89.8784 133.019 89.748 133.083 89.596C133.339 88.9642 133.493 88.2976 133.541 87.6199C133.56 86.8328 133.424 86.0495 133.142 85.312C133.069 85.1249 132.953 84.9569 132.802 84.8215C132.637 84.6836 132.438 84.5893 132.225 84.5475C132.401 84.875 132.544 85.2179 132.654 85.5716C132.82 86.0375 132.925 86.5223 132.965 87.0141C133.022 87.4932 133.022 87.9773 132.965 88.4565C132.94 88.7426 132.875 89.0241 132.772 89.2931C132.648 89.5947 132.479 89.8767 132.27 90.1297C132.45 90.1298 132.626 90.0742 132.772 89.971Z" fill="#F7CE23"/>
<path d="M134.072 89.5528C134.185 89.4723 134.272 89.3623 134.324 89.2355C134.534 88.7245 134.659 88.184 134.693 87.6344C134.705 86.9963 134.6 86.3614 134.383 85.7593C134.315 85.6135 134.22 85.4814 134.102 85.3698C133.972 85.2594 133.813 85.1847 133.644 85.1534C133.773 85.4208 133.887 85.6953 133.984 85.9756C134.113 86.3445 134.198 86.727 134.235 87.1152C134.285 87.5031 134.285 87.8956 134.235 88.2835C134.212 88.5202 134.157 88.753 134.072 88.9759C133.974 89.2226 133.834 89.4517 133.658 89.6538C133.803 89.6581 133.947 89.6232 134.072 89.5528Z" fill="#F2D65F"/>
<path d="M135.3 89.0624C135.379 89.0018 135.44 88.9222 135.477 88.8316C135.624 88.4769 135.714 88.1023 135.744 87.7209C135.749 87.2741 135.674 86.8299 135.522 86.4083C135.473 86.3041 135.402 86.2108 135.315 86.1342C135.227 86.0563 135.12 86.0017 135.004 85.9756C135.108 86.2064 135.182 86.3939 135.241 86.5525C135.334 86.8135 135.394 87.0849 135.418 87.3603C135.452 87.6334 135.452 87.9094 135.418 88.1825C135.398 88.3451 135.358 88.5049 135.3 88.6585C135.232 88.8302 135.137 88.9908 135.019 89.1345C135.117 89.1336 135.214 89.1088 135.3 89.0624Z" fill="#F9E595"/>
<path d="M152.984 83.3072C153.102 83.4082 154.566 84.6775 155.542 84.5044C156.045 84.4034 156.222 83.9418 156.562 83.062C156.711 82.3762 156.908 81.7014 157.153 81.0426C157.523 80.3358 158.188 79.6002 158.469 79.6002C158.75 79.6002 158.543 80.1483 158.322 82.3552C158.197 83.1114 158.248 83.8851 158.469 84.6198C158.573 84.9371 158.854 85.7882 159.194 85.7882C159.534 85.7882 160.096 84.2736 160.229 83.1052C160.421 81.3743 159.874 80.7108 160.51 79.3405C160.761 78.8357 161.279 77.9991 161.619 78.0279C162.21 78.0279 162.033 80.682 161.988 81.3455C161.695 82.8371 161.596 84.3589 161.693 85.8747C161.796 86.5238 162.003 87.8509 162.565 87.8797C163.127 87.9086 163.852 86.6825 164.177 85.7016C164.302 85.364 164.367 85.0078 164.369 84.6486C164.333 83.5618 164.169 82.4825 163.881 81.4321C163.807 81.057 163.157 77.4798 165.197 76.9173C165.454 76.8485 165.724 76.8485 165.981 76.9173C167.282 77.3067 165.877 80.783 165.788 82.9033C165.756 83.3836 165.756 83.8655 165.788 84.3457C165.788 84.591 165.788 84.764 165.892 85.0525C166.04 86.1632 165.892 86.3795 166.025 87.0286C166.158 87.6777 166.321 88.5576 166.942 88.6153C167.563 88.673 168.213 87.8653 168.509 87.2739C168.613 87.085 168.683 86.88 168.716 86.668C168.662 85.4179 168.509 84.1737 168.258 82.9466C168.246 82.7448 168.246 82.5425 168.258 82.3408C168.143 81.5949 168.143 80.8364 168.258 80.0906C168.48 79.1674 169.086 78.302 169.337 78.3308C169.589 78.3597 169.455 78.3308 169.707 79.6002C169.707 79.8742 169.796 80.004 169.796 80.0906C169.796 80.6099 169.796 81.0426 169.707 82.1533C169.707 82.3841 169.707 82.9898 169.796 84.1871C169.839 84.8655 169.994 85.5327 170.254 86.1632C170.49 86.769 170.609 86.8412 170.697 86.8412C171.067 86.8412 171.525 85.8891 171.703 85.067C171.816 84.2169 171.786 83.3546 171.614 82.5139C171.422 80.5666 171.481 80.1772 171.792 80.1195C172.022 80.1236 172.25 80.1775 172.457 80.2772C172.664 80.377 172.846 80.5201 172.989 80.6964C173.255 81.0282 173.078 81.2589 172.989 81.9369C172.901 82.6148 172.767 83.5091 173.27 83.6534C173.444 83.6863 173.622 83.6815 173.794 83.6391C173.965 83.5967 174.125 83.5178 174.261 83.4082C174.586 83.0908 174.098 82.8024 174.261 82.1533C174.261 81.8648 174.542 81.4176 174.897 81.3888C175.07 81.3905 175.238 81.4518 175.37 81.5619C175.695 81.7927 175.68 82.0523 175.754 82.4129C175.828 82.7735 175.932 83.3793 176.183 83.3937C176.434 83.4082 176.922 82.6725 177.085 81.9513C177.085 81.7638 177.188 81.4032 177.233 81.1003C177.322 80.581 177.336 80.2781 177.632 80.1916C177.768 80.1554 177.911 80.1554 178.046 80.1916C178.564 80.3358 178.504 81.1003 178.46 81.634C178.371 82.5283 178.105 82.8456 178.46 83.3072C178.593 83.4947 178.874 83.7544 179.096 83.7255C179.318 83.6967 179.436 83.2207 179.554 82.4706L179.643 81.8071C179.691 81.5449 179.721 81.2799 179.732 81.0138C179.732 80.6099 179.732 80.206 179.732 79.9896C179.732 79.0809 179.732 78.9799 179.865 78.9222C180.103 78.7931 180.384 78.7571 180.648 78.8213C181.136 78.9511 181.136 79.5136 181.136 80.0185C181.136 81.8215 181.136 82.7158 181.136 82.8312C181.003 84.3458 180.885 85.0237 181.595 85.4131C181.726 85.509 181.889 85.5551 182.053 85.5429C182.689 85.4564 182.704 83.9563 182.689 82.6581C182.689 81.9657 182.689 81.8936 182.689 80.9993C182.556 77.8837 182.955 77.3644 183.458 77.2057C183.628 77.1642 183.805 77.1642 183.975 77.2057C184.212 77.2779 184.271 77.4798 184.404 78.403C184.404 78.677 184.404 78.8213 184.404 78.8501C184.404 79.2684 184.404 79.6002 184.404 80.2925C184.404 80.9849 184.404 81.0137 184.508 82.5283C184.508 83.1918 184.508 83.6822 184.508 84.3602C184.441 85.0366 184.441 85.7176 184.508 86.394C184.508 86.9566 184.655 87.2739 184.966 87.346C185.124 87.3675 185.286 87.3582 185.441 87.3185C185.595 87.2789 185.741 87.2099 185.868 87.1152C186.297 86.8123 186.164 86.4084 186.09 85.8459C186.03 84.8851 186.03 83.9218 186.09 82.961C186.09 82.4562 186.09 82.1388 186.09 81.9802C186.09 81.3743 186.208 81.1003 186.238 79.9464C186.238 79.2396 186.238 78.8357 186.238 78.302C186.238 77.7683 186.238 78.0279 186.238 77.6961C186.326 76.5278 186.238 76.0662 186.592 75.9076C186.741 75.857 186.902 75.857 187.051 75.9076C187.539 76.023 187.539 76.7009 187.509 77.35C187.509 78.6049 187.42 80.3502 187.42 81.2013C187.42 82.0523 187.42 81.7638 187.42 82.485C187.509 85.8603 186.622 87.8797 187.42 88.0961C187.705 88.1259 187.992 88.0597 188.234 87.9085C189.343 87.3748 188.899 86.2642 188.766 83.5813C188.766 82.1388 188.766 82.6869 188.766 80.8983C188.766 79.3261 188.589 78.201 189.195 78.0135C189.383 77.997 189.573 78.032 189.742 78.1145C190.141 78.3164 190.052 78.778 189.978 79.2107C189.904 79.6434 189.978 80.3214 189.978 80.8695C189.978 81.4176 189.978 81.1724 189.978 83.336C189.978 84.389 189.978 84.7785 190.422 84.9516C190.849 85.0939 191.316 85.068 191.723 84.8794C192.181 84.591 191.723 84.0861 191.546 82.4706C191.546 82.3552 191.546 82.4706 191.546 81.8792C191.398 80.3214 191.324 79.8742 191.797 79.629C191.992 79.5142 192.221 79.4636 192.448 79.4848C192.965 79.6146 192.921 80.6099 193.113 82.4706C193.113 82.6726 193.113 83.1053 193.512 83.1774C193.62 83.1984 193.73 83.1984 193.838 83.1774C194.606 82.9033 193.838 81.5042 194.459 81.2734C194.784 81.158 195.124 81.432 196.558 81.5907H197.09" fill="#AA9BCC"/>
<path d="M152.984 83.3072C153.102 83.4082 154.566 84.6775 155.542 84.5044C156.045 84.4034 156.222 83.9418 156.562 83.062C156.711 82.3762 156.908 81.7014 157.153 81.0426C157.523 80.3358 158.188 79.6002 158.469 79.6002C158.75 79.6002 158.543 80.1483 158.322 82.3552C158.197 83.1114 158.248 83.8851 158.469 84.6198C158.573 84.9371 158.854 85.7882 159.194 85.7882C159.534 85.7882 160.096 84.2736 160.229 83.1052C160.421 81.3743 159.874 80.7108 160.51 79.3405C160.761 78.8357 161.279 77.9991 161.619 78.0279C162.21 78.0279 162.033 80.682 161.988 81.3455C161.695 82.8371 161.596 84.3589 161.693 85.8747C161.796 86.5238 162.003 87.8509 162.565 87.8797C163.127 87.9086 163.852 86.6825 164.177 85.7016C164.302 85.364 164.367 85.0078 164.369 84.6486C164.333 83.5618 164.169 82.4825 163.881 81.4321C163.807 81.057 163.157 77.4798 165.197 76.9173C165.454 76.8485 165.724 76.8485 165.981 76.9173C167.282 77.3067 165.877 80.783 165.788 82.9033C165.756 83.3836 165.756 83.8655 165.788 84.3457C165.788 84.591 165.788 84.764 165.892 85.0525C166.04 86.1632 165.892 86.3795 166.025 87.0286C166.158 87.6777 166.321 88.5576 166.942 88.6153C167.563 88.673 168.213 87.8653 168.509 87.2739C168.613 87.085 168.683 86.88 168.716 86.668C168.662 85.4179 168.509 84.1737 168.258 82.9466C168.246 82.7448 168.246 82.5425 168.258 82.3408C168.143 81.5949 168.143 80.8364 168.258 80.0906C168.48 79.1674 169.086 78.302 169.337 78.3308C169.589 78.3597 169.455 78.3308 169.707 79.6002C169.707 79.8742 169.796 80.004 169.796 80.0906C169.796 80.6099 169.796 81.0426 169.707 82.1533C169.707 82.3841 169.707 82.9898 169.796 84.1871C169.839 84.8655 169.994 85.5327 170.254 86.1632C170.49 86.769 170.609 86.8412 170.697 86.8412C171.067 86.8412 171.525 85.8891 171.703 85.067C171.816 84.2169 171.786 83.3546 171.614 82.5139C171.422 80.5666 171.481 80.1772 171.792 80.1195C172.022 80.1236 172.25 80.1775 172.457 80.2772C172.664 80.377 172.846 80.5201 172.989 80.6964C173.255 81.0282 173.078 81.2589 172.989 81.9369C172.901 82.6148 172.767 83.5091 173.27 83.6534C173.444 83.6863 173.622 83.6815 173.794 83.6391C173.965 83.5967 174.125 83.5178 174.261 83.4082C174.586 83.0908 174.098 82.8024 174.261 82.1533C174.261 81.8648 174.542 81.4176 174.897 81.3888C175.07 81.3905 175.238 81.4518 175.37 81.5619C175.695 81.7927 175.68 82.0523 175.754 82.4129C175.828 82.7735 175.932 83.3793 176.183 83.3937C176.434 83.4082 176.922 82.6725 177.085 81.9513C177.085 81.7638 177.188 81.4032 177.233 81.1003C177.322 80.581 177.336 80.2781 177.632 80.1916C177.768 80.1554 177.911 80.1554 178.046 80.1916C178.564 80.3358 178.504 81.1003 178.46 81.634C178.371 82.5283 178.105 82.8456 178.46 83.3072C178.593 83.4947 178.874 83.7544 179.096 83.7255C179.318 83.6967 179.436 83.2207 179.554 82.4706L179.643 81.8071C179.691 81.5449 179.721 81.2799 179.732 81.0138C179.732 80.6099 179.732 80.206 179.732 79.9896C179.732 79.0809 179.732 78.9799 179.865 78.9222C180.103 78.7931 180.384 78.7571 180.648 78.8213C181.136 78.9511 181.136 79.5136 181.136 80.0185C181.136 81.8215 181.136 82.7158 181.136 82.8312C181.003 84.3458 180.885 85.0237 181.595 85.4131C181.726 85.509 181.889 85.5551 182.053 85.5429C182.689 85.4564 182.704 83.9563 182.689 82.6581C182.689 81.9657 182.689 81.8936 182.689 80.9993C182.556 77.8837 182.955 77.3644 183.458 77.2057C183.628 77.1642 183.805 77.1642 183.975 77.2057C184.212 77.2779 184.271 77.4798 184.404 78.403C184.404 78.677 184.404 78.8213 184.404 78.8501C184.404 79.2684 184.404 79.6002 184.404 80.2925C184.404 80.9849 184.404 81.0137 184.508 82.5283C184.508 83.1918 184.508 83.6822 184.508 84.3602C184.441 85.0366 184.441 85.7176 184.508 86.394C184.508 86.9566 184.655 87.2739 184.966 87.346C185.124 87.3675 185.286 87.3582 185.441 87.3185C185.595 87.2789 185.741 87.2099 185.868 87.1152C186.297 86.8123 186.164 86.4084 186.09 85.8459C186.03 84.8851 186.03 83.9218 186.09 82.961C186.09 82.4562 186.09 82.1388 186.09 81.9802C186.09 81.3743 186.208 81.1003 186.238 79.9464C186.238 79.2396 186.238 78.8357 186.238 78.302C186.238 77.7683 186.238 78.0279 186.238 77.6961C186.326 76.5278 186.238 76.0662 186.592 75.9076C186.741 75.857 186.902 75.857 187.051 75.9076C187.539 76.023 187.539 76.7009 187.509 77.35C187.509 78.6049 187.42 80.3502 187.42 81.2013C187.42 82.0523 187.42 81.7638 187.42 82.485C187.509 85.8603 186.622 87.8797 187.42 88.0961C187.705 88.1259 187.992 88.0597 188.234 87.9085C189.343 87.3748 188.899 86.2642 188.766 83.5813C188.766 82.1388 188.766 82.6869 188.766 80.8983C188.766 79.3261 188.588 78.201 189.195 78.0135C189.383 77.997 189.573 78.032 189.742 78.1145C190.141 78.3164 190.052 78.778 189.978 79.2107C189.904 79.6434 189.978 80.3214 189.978 80.8695C189.978 81.4176 189.978 81.1724 189.978 83.336C189.978 84.389 189.978 84.7785 190.422 84.9516C190.849 85.0939 191.316 85.068 191.723 84.8794C192.181 84.591 191.723 84.0861 191.546 82.4706C191.546 82.3552 191.546 82.4706 191.546 81.8792C191.398 80.3214 191.324 79.8742 191.797 79.629C191.992 79.5142 192.221 79.4636 192.448 79.4848C192.965 79.6146 192.921 80.6099 193.113 82.4706C193.113 82.6726 193.113 83.1053 193.512 83.1774C193.62 83.1984 193.73 83.1984 193.838 83.1774C194.606 82.9033 193.838 81.5042 194.459 81.2734C194.784 81.158 195.124 81.432 196.558 81.5907H197.09" stroke="#AA9BCC" stroke-width="0.5" stroke-miterlimit="10"/>
<path d="M46.8198 63.1997L71.5272 100.602C66.443 103.798 60.2655 104.893 54.3536 103.646C48.4418 102.399 43.2799 98.912 40.0035 93.9522C36.7271 88.9924 35.6045 82.966 36.8828 77.1988C38.1612 71.4316 41.7356 66.396 46.8198 63.1997Z" fill="#FFDF5A"/>
<path d="M78.3438 69.8493C81.6178 74.8098 82.739 80.8354 81.4608 86.6019C80.1826 92.3684 76.6098 97.4039 71.5275 100.602L46.8201 63.1997C51.905 60.0058 58.0818 58.9121 63.9929 60.159C69.904 61.4058 75.0658 64.8913 78.3438 69.8493Z" fill="#FFDF5A"/>
<path d="M45.062 79.2106H44.5149C44.1883 79.2106 43.9235 79.4689 43.9235 79.7875V85.889C43.9235 86.2077 44.1883 86.466 44.5149 86.466H45.062C45.3887 86.466 45.6535 86.2077 45.6535 85.889V79.7875C45.6535 79.4689 45.3887 79.2106 45.062 79.2106Z" fill="#AA9BCC"/>
<path d="M47.9586 79.2106H47.4115C47.0849 79.2106 46.8201 79.4689 46.8201 79.7875V85.889C46.8201 86.2077 47.0849 86.466 47.4115 86.466H47.9586C48.2853 86.466 48.5501 86.2077 48.5501 85.889V79.7875C48.5501 79.4689 48.2853 79.2106 47.9586 79.2106Z" fill="#AA9BCC"/>
<path d="M56.403 79.2106H55.856C55.5293 79.2106 55.2645 79.4689 55.2645 79.7875V85.889C55.2645 86.2077 55.5293 86.466 55.856 86.466H56.403C56.7297 86.466 56.9945 86.2077 56.9945 85.889V79.7875C56.9945 79.4689 56.7297 79.2106 56.403 79.2106Z" fill="#AA9BCC"/>
<path d="M58.8449 79.427C58.6231 79.1818 58.4456 79.2539 58.4456 79.5712V86.1054C58.4456 86.4227 58.6231 86.4948 58.8449 86.2641L61.6246 83.2638C61.7327 83.1472 61.7925 82.9955 61.7925 82.8383C61.7925 82.6811 61.7327 82.5295 61.6246 82.4128L58.8449 79.427Z" fill="#AA9BCC"/>
<path d="M74.8848 82.9465C74.8848 83.8124 74.5332 84.6431 73.907 85.2567C73.2807 85.8704 72.4308 86.217 71.5432 86.2208V79.6866C72.4294 79.6866 73.2794 80.0301 73.9061 80.6415C74.5328 81.2528 74.8848 82.082 74.8848 82.9465Z" fill="#AA9BCC"/>
<path d="M74.3082 82.9464C74.3082 83.6617 74.0169 84.3478 73.4983 84.8537C72.9798 85.3595 72.2765 85.6437 71.5432 85.6437V80.249C72.2765 80.249 72.9798 80.5332 73.4983 81.039C74.0169 81.5449 74.3082 82.231 74.3082 82.9464Z" fill="#FFDF5A"/>
<path d="M68.6596 80.9126C68.3806 81.1538 68.0263 81.2961 67.6541 81.3165H67.5063C67.3494 81.3165 67.199 81.3773 67.0881 81.4855C66.9771 81.5937 66.9148 81.7405 66.9148 81.8935V83.7831C66.9148 83.9361 66.9771 84.0829 67.0881 84.1911C67.199 84.2993 67.3494 84.3601 67.5063 84.3601H67.7133C68.0855 84.3805 68.4397 84.5228 68.7187 84.7639L70.5817 86.5814C70.8035 86.7977 70.9958 86.7256 70.9958 86.4083V79.2683C70.9958 78.951 70.8035 78.8788 70.5817 79.1096L68.6596 80.9126Z" fill="#AA9BCC"/>
<path d="M73.4949 82.9466C73.4911 83.4504 73.2842 83.9325 72.919 84.2887C72.5538 84.645 72.0596 84.8468 71.5432 84.8506V81.057C72.0583 81.057 72.5525 81.2556 72.9181 81.6096C73.2837 81.9635 73.491 82.4441 73.4949 82.9466Z" fill="#AA9BCC"/>
<path d="M72.9599 82.9466C72.9599 83.3291 72.8041 83.696 72.5269 83.9665C72.2496 84.237 71.8735 84.389 71.4813 84.389V81.6051C71.8562 81.6042 72.2174 81.7423 72.4919 81.9913C72.7664 82.2403 72.9337 82.5818 72.9599 82.9466Z" fill="#FFDF5A"/>
<path d="M173.404 106.256C185.359 106.256 195.051 96.8016 195.051 85.1389C195.051 73.4763 185.359 64.0219 173.404 64.0219C161.449 64.0219 151.757 73.4763 151.757 85.1389C151.757 96.8016 161.449 106.256 173.404 106.256Z" stroke="#F7CE23" stroke-width="0.5" stroke-miterlimit="10" stroke-linecap="round"/>
<path d="M57.4535 105.665C69.4087 105.665 79.1002 96.2101 79.1002 84.5475C79.1002 72.8848 69.4087 63.4304 57.4535 63.4304C45.4984 63.4304 35.8069 72.8848 35.8069 84.5475C35.8069 96.2101 45.4984 105.665 57.4535 105.665Z" stroke="#AA9BCC" stroke-width="0.5" stroke-miterlimit="10" stroke-linecap="round"/>
<path d="M116.874 106.256C128.829 106.256 138.521 96.8016 138.521 85.1389C138.521 73.4763 128.829 64.0219 116.874 64.0219C104.919 64.0219 95.2272 73.4763 95.2272 85.1389C95.2272 96.8016 104.919 106.256 116.874 106.256Z" stroke="#F4E9B8" stroke-width="0.5" stroke-miterlimit="10" stroke-linecap="round"/>
<path d="M212.484 88.2258L210.015 90.6491C210.344 90.9685 210.79 91.1472 211.255 91.1459C211.719 91.1445 212.164 90.9632 212.491 90.6419C212.819 90.3205 213.002 89.8855 213.001 89.4324C212.999 88.9793 212.813 88.5453 212.484 88.2258Z" fill="#AA9BCC"/>
<path d="M210.011 88.2401C209.849 88.3982 209.72 88.5859 209.632 88.7926C209.545 88.9992 209.499 89.2208 209.499 89.4445C209.499 89.6682 209.545 89.8898 209.632 90.0964C209.72 90.3031 209.849 90.4908 210.011 90.6489L212.481 88.2257C212.318 88.0683 212.124 87.9438 211.912 87.8593C211.7 87.7749 211.472 87.7321 211.243 87.7334C211.013 87.7348 210.787 87.7802 210.575 87.8672C210.364 87.9541 210.172 88.0808 210.011 88.2401Z" fill="#AA9BCC"/>
</svg>
