<svg width="230" height="166" viewBox="0 0 230 166" fill="none" xmlns="http://www.w3.org/2000/svg">
<rect width="230" height="165.09" rx="6.7" fill="white"/>
<path d="M32.1981 137.632C31.3554 137.632 30.9341 138.091 30.9341 139.008V139.52H33.2861V141.12H30.9981V148H28.9981V141.12H27.5901V139.52H28.9981V138.976C28.9981 138.059 29.2647 137.339 29.7981 136.816C30.3314 136.283 31.0834 136.016 32.0541 136.016C32.8221 136.016 33.4247 136.171 33.8621 136.48L33.3021 137.984C32.9607 137.749 32.5927 137.632 32.1981 137.632ZM34.6301 136.128H36.6301V148H34.6301V136.128ZM43.0973 148.112C42.2333 148.112 41.4546 147.925 40.7613 147.552C40.068 147.179 39.524 146.661 39.1293 146C38.7453 145.328 38.5533 144.571 38.5533 143.728C38.5533 142.885 38.7453 142.133 39.1293 141.472C39.524 140.811 40.068 140.293 40.7613 139.92C41.4546 139.547 42.2333 139.36 43.0973 139.36C43.972 139.36 44.756 139.547 45.4493 139.92C46.1426 140.293 46.6813 140.811 47.0653 141.472C47.46 142.133 47.6573 142.885 47.6573 143.728C47.6573 144.571 47.46 145.328 47.0653 146C46.6813 146.661 46.1426 147.179 45.4493 147.552C44.756 147.925 43.972 148.112 43.0973 148.112ZM43.0973 146.4C43.8333 146.4 44.4413 146.155 44.9213 145.664C45.4013 145.173 45.6413 144.528 45.6413 143.728C45.6413 142.928 45.4013 142.283 44.9213 141.792C44.4413 141.301 43.8333 141.056 43.0973 141.056C42.3613 141.056 41.7533 141.301 41.2733 141.792C40.804 142.283 40.5693 142.928 40.5693 143.728C40.5693 144.528 40.804 145.173 41.2733 145.664C41.7533 146.155 42.3613 146.4 43.0973 146.4ZM52.7244 139.36C53.9831 139.36 54.9431 139.664 55.6044 140.272C56.2764 140.869 56.6124 141.776 56.6124 142.992V148H54.7244V146.96C54.4791 147.333 54.1271 147.621 53.6684 147.824C53.2204 148.016 52.6764 148.112 52.0364 148.112C51.3964 148.112 50.8364 148.005 50.3564 147.792C49.8764 147.568 49.5031 147.264 49.2364 146.88C48.9804 146.485 48.8524 146.043 48.8524 145.552C48.8524 144.784 49.1351 144.171 49.7004 143.712C50.2764 143.243 51.1778 143.008 52.4044 143.008H54.6124V142.88C54.6124 142.283 54.4311 141.824 54.0684 141.504C53.7164 141.184 53.1884 141.024 52.4844 141.024C52.0044 141.024 51.5298 141.099 51.0604 141.248C50.6018 141.397 50.2124 141.605 49.8924 141.872L49.1084 140.416C49.5564 140.075 50.0951 139.813 50.7244 139.632C51.3538 139.451 52.0204 139.36 52.7244 139.36ZM52.4524 146.656C52.9538 146.656 53.3964 146.544 53.7804 146.32C54.1751 146.085 54.4524 145.755 54.6124 145.328V144.336H52.5484C51.3964 144.336 50.8204 144.715 50.8204 145.472C50.8204 145.835 50.9644 146.123 51.2524 146.336C51.5404 146.549 51.9404 146.656 52.4524 146.656ZM64.3152 147.536C64.0805 147.728 63.7925 147.872 63.4512 147.968C63.1205 148.064 62.7685 148.112 62.3952 148.112C61.4565 148.112 60.7312 147.867 60.2192 147.376C59.7072 146.885 59.4512 146.171 59.4512 145.232V141.12H58.0432V139.52H59.4512V137.568H61.4512V139.52H63.7392V141.12H61.4512V145.184C61.4512 145.6 61.5525 145.92 61.7552 146.144C61.9579 146.357 62.2512 146.464 62.6352 146.464C63.0832 146.464 63.4565 146.347 63.7552 146.112L64.3152 147.536ZM65.9604 139.456H67.9604V148H65.9604V139.456ZM66.9684 138.048C66.6058 138.048 66.3018 137.936 66.0564 137.712C65.8111 137.477 65.6884 137.189 65.6884 136.848C65.6884 136.507 65.8111 136.224 66.0564 136C66.3018 135.765 66.6058 135.648 66.9684 135.648C67.3311 135.648 67.6351 135.76 67.8804 135.984C68.1258 136.197 68.2484 136.469 68.2484 136.8C68.2484 137.152 68.1258 137.451 67.8804 137.696C67.6458 137.931 67.3418 138.048 66.9684 138.048ZM75.4334 139.36C76.5108 139.36 77.3748 139.675 78.0254 140.304C78.6761 140.933 79.0014 141.867 79.0014 143.104V148H77.0014V143.36C77.0014 142.613 76.8254 142.053 76.4734 141.68C76.1214 141.296 75.6201 141.104 74.9694 141.104C74.2334 141.104 73.6521 141.328 73.2254 141.776C72.7988 142.213 72.5854 142.848 72.5854 143.68V148H70.5854V139.456H72.4894V140.56C72.8201 140.165 73.2361 139.867 73.7374 139.664C74.2388 139.461 74.8041 139.36 75.4334 139.36ZM90.0967 139.456V146.704C90.0967 149.712 88.5607 151.216 85.4887 151.216C84.6674 151.216 83.8887 151.109 83.1527 150.896C82.4167 150.693 81.8087 150.395 81.3287 150L82.2247 148.496C82.598 148.805 83.0674 149.051 83.6327 149.232C84.2087 149.424 84.79 149.52 85.3767 149.52C86.3154 149.52 87.0034 149.307 87.4407 148.88C87.878 148.453 88.0967 147.803 88.0967 146.928V146.48C87.7554 146.853 87.3394 147.136 86.8487 147.328C86.358 147.52 85.8194 147.616 85.2327 147.616C84.422 147.616 83.686 147.445 83.0247 147.104C82.374 146.752 81.8567 146.261 81.4727 145.632C81.0994 145.003 80.9127 144.283 80.9127 143.472C80.9127 142.661 81.0994 141.947 81.4727 141.328C81.8567 140.699 82.374 140.213 83.0247 139.872C83.686 139.531 84.422 139.36 85.2327 139.36C85.8514 139.36 86.4114 139.461 86.9127 139.664C87.4247 139.867 87.8514 140.176 88.1927 140.592V139.456H90.0967ZM85.5367 145.92C86.294 145.92 86.9127 145.696 87.3927 145.248C87.8834 144.789 88.1287 144.197 88.1287 143.472C88.1287 142.757 87.8834 142.176 87.3927 141.728C86.9127 141.28 86.294 141.056 85.5367 141.056C84.7687 141.056 84.1394 141.28 83.6487 141.728C83.1687 142.176 82.9287 142.757 82.9287 143.472C82.9287 144.197 83.1687 144.789 83.6487 145.248C84.1394 145.696 84.7687 145.92 85.5367 145.92ZM105.42 139.456V148H103.516V146.912C103.196 147.296 102.796 147.595 102.316 147.808C101.836 148.011 101.319 148.112 100.764 148.112C99.6226 148.112 98.7213 147.797 98.0599 147.168C97.4093 146.528 97.0839 145.584 97.0839 144.336V139.456H99.0839V144.064C99.0839 144.832 99.2546 145.408 99.5959 145.792C99.9479 146.165 100.444 146.352 101.084 146.352C101.799 146.352 102.364 146.133 102.78 145.696C103.207 145.248 103.42 144.608 103.42 143.776V139.456H105.42ZM109.943 140.704C110.519 139.808 111.532 139.36 112.983 139.36V141.264C112.812 141.232 112.657 141.216 112.519 141.216C111.74 141.216 111.132 141.445 110.695 141.904C110.257 142.352 110.039 143.003 110.039 143.856V148H108.039V139.456H109.943V140.704ZM119.415 139.36C120.247 139.36 120.989 139.541 121.639 139.904C122.301 140.267 122.818 140.779 123.191 141.44C123.565 142.101 123.751 142.864 123.751 143.728C123.751 144.592 123.565 145.36 123.191 146.032C122.818 146.693 122.301 147.205 121.639 147.568C120.989 147.931 120.247 148.112 119.415 148.112C118.829 148.112 118.29 148.011 117.799 147.808C117.319 147.605 116.914 147.301 116.583 146.896V148H114.679V136.128H116.679V140.496C117.021 140.123 117.421 139.84 117.879 139.648C118.349 139.456 118.861 139.36 119.415 139.36ZM119.191 146.4C119.927 146.4 120.53 146.155 120.999 145.664C121.479 145.173 121.719 144.528 121.719 143.728C121.719 142.928 121.479 142.283 120.999 141.792C120.53 141.301 119.927 141.056 119.191 141.056C118.711 141.056 118.279 141.168 117.895 141.392C117.511 141.605 117.207 141.915 116.983 142.32C116.759 142.725 116.647 143.195 116.647 143.728C116.647 144.261 116.759 144.731 116.983 145.136C117.207 145.541 117.511 145.856 117.895 146.08C118.279 146.293 118.711 146.4 119.191 146.4ZM128.803 139.36C130.061 139.36 131.021 139.664 131.683 140.272C132.355 140.869 132.691 141.776 132.691 142.992V148H130.803V146.96C130.557 147.333 130.205 147.621 129.747 147.824C129.299 148.016 128.755 148.112 128.115 148.112C127.475 148.112 126.915 148.005 126.435 147.792C125.955 147.568 125.581 147.264 125.315 146.88C125.059 146.485 124.931 146.043 124.931 145.552C124.931 144.784 125.213 144.171 125.779 143.712C126.355 143.243 127.256 143.008 128.483 143.008H130.691V142.88C130.691 142.283 130.509 141.824 130.147 141.504C129.795 141.184 129.267 141.024 128.563 141.024C128.083 141.024 127.608 141.099 127.139 141.248C126.68 141.397 126.291 141.605 125.971 141.872L125.187 140.416C125.635 140.075 126.173 139.813 126.803 139.632C127.432 139.451 128.099 139.36 128.803 139.36ZM128.531 146.656C129.032 146.656 129.475 146.544 129.859 146.32C130.253 146.085 130.531 145.755 130.691 145.328V144.336H128.627C127.475 144.336 126.899 144.715 126.899 145.472C126.899 145.835 127.043 146.123 127.331 146.336C127.619 146.549 128.019 146.656 128.531 146.656ZM140.105 139.36C141.183 139.36 142.047 139.675 142.697 140.304C143.348 140.933 143.673 141.867 143.673 143.104V148H141.673V143.36C141.673 142.613 141.497 142.053 141.145 141.68C140.793 141.296 140.292 141.104 139.641 141.104C138.905 141.104 138.324 141.328 137.897 141.776C137.471 142.213 137.257 142.848 137.257 143.68V148H135.257V139.456H137.161V140.56C137.492 140.165 137.908 139.867 138.409 139.664C138.911 139.461 139.476 139.36 140.105 139.36ZM155.368 139.36C156.2 139.36 156.942 139.541 157.592 139.904C158.254 140.267 158.771 140.779 159.144 141.44C159.518 142.101 159.704 142.864 159.704 143.728C159.704 144.592 159.518 145.36 159.144 146.032C158.771 146.693 158.254 147.205 157.592 147.568C156.942 147.931 156.2 148.112 155.368 148.112C154.782 148.112 154.243 148.011 153.752 147.808C153.272 147.605 152.867 147.301 152.536 146.896V148H150.632V136.128H152.632V140.496C152.974 140.123 153.374 139.84 153.832 139.648C154.302 139.456 154.814 139.36 155.368 139.36ZM155.144 146.4C155.88 146.4 156.483 146.155 156.952 145.664C157.432 145.173 157.672 144.528 157.672 143.728C157.672 142.928 157.432 142.283 156.952 141.792C156.483 141.301 155.88 141.056 155.144 141.056C154.664 141.056 154.232 141.168 153.848 141.392C153.464 141.605 153.16 141.915 152.936 142.32C152.712 142.725 152.6 143.195 152.6 143.728C152.6 144.261 152.712 144.731 152.936 145.136C153.16 145.541 153.464 145.856 153.848 146.08C154.232 146.293 154.664 146.4 155.144 146.4ZM161.601 136.128H163.601V148H161.601V136.128ZM170.066 148.112C169.202 148.112 168.423 147.925 167.73 147.552C167.037 147.179 166.493 146.661 166.098 146C165.714 145.328 165.522 144.571 165.522 143.728C165.522 142.885 165.714 142.133 166.098 141.472C166.493 140.811 167.037 140.293 167.73 139.92C168.423 139.547 169.202 139.36 170.066 139.36C170.941 139.36 171.725 139.547 172.418 139.92C173.111 140.293 173.65 140.811 174.034 141.472C174.429 142.133 174.626 142.885 174.626 143.728C174.626 144.571 174.429 145.328 174.034 146C173.65 146.661 173.111 147.179 172.418 147.552C171.725 147.925 170.941 148.112 170.066 148.112ZM170.066 146.4C170.802 146.4 171.41 146.155 171.89 145.664C172.37 145.173 172.61 144.528 172.61 143.728C172.61 142.928 172.37 142.283 171.89 141.792C171.41 141.301 170.802 141.056 170.066 141.056C169.33 141.056 168.722 141.301 168.242 141.792C167.773 142.283 167.538 142.928 167.538 143.728C167.538 144.528 167.773 145.173 168.242 145.664C168.722 146.155 169.33 146.4 170.066 146.4ZM180.459 148.112C179.573 148.112 178.779 147.925 178.075 147.552C177.371 147.179 176.821 146.661 176.427 146C176.032 145.328 175.835 144.571 175.835 143.728C175.835 142.885 176.032 142.133 176.427 141.472C176.821 140.811 177.365 140.293 178.059 139.92C178.763 139.547 179.563 139.36 180.459 139.36C181.301 139.36 182.037 139.531 182.667 139.872C183.307 140.213 183.787 140.704 184.107 141.344L182.571 142.24C182.325 141.845 182.016 141.552 181.643 141.36C181.28 141.157 180.88 141.056 180.443 141.056C179.696 141.056 179.077 141.301 178.587 141.792C178.096 142.272 177.851 142.917 177.851 143.728C177.851 144.539 178.091 145.189 178.571 145.68C179.061 146.16 179.685 146.4 180.443 146.4C180.88 146.4 181.28 146.304 181.643 146.112C182.016 145.909 182.325 145.611 182.571 145.216L184.107 146.112C183.776 146.752 183.291 147.248 182.651 147.6C182.021 147.941 181.291 148.112 180.459 148.112ZM189.245 144.336L187.757 145.744V148H185.757V136.128H187.757V143.296L191.901 139.456H194.301L190.733 143.04L194.637 148H192.205L189.245 144.336ZM198.304 148.112C197.61 148.112 196.933 148.021 196.272 147.84C195.61 147.659 195.082 147.429 194.688 147.152L195.456 145.632C195.84 145.888 196.298 146.096 196.832 146.256C197.376 146.405 197.909 146.48 198.432 146.48C199.626 146.48 200.224 146.165 200.224 145.536C200.224 145.237 200.069 145.029 199.76 144.912C199.461 144.795 198.976 144.683 198.304 144.576C197.6 144.469 197.024 144.347 196.576 144.208C196.138 144.069 195.754 143.829 195.424 143.488C195.104 143.136 194.944 142.651 194.944 142.032C194.944 141.221 195.28 140.576 195.952 140.096C196.634 139.605 197.552 139.36 198.704 139.36C199.29 139.36 199.877 139.429 200.464 139.568C201.05 139.696 201.53 139.872 201.904 140.096L201.136 141.616C200.41 141.189 199.594 140.976 198.688 140.976C198.101 140.976 197.653 141.067 197.344 141.248C197.045 141.419 196.896 141.648 196.896 141.936C196.896 142.256 197.056 142.485 197.376 142.624C197.706 142.752 198.213 142.875 198.896 142.992C199.578 143.099 200.138 143.221 200.576 143.36C201.013 143.499 201.386 143.733 201.696 144.064C202.016 144.395 202.176 144.864 202.176 145.472C202.176 146.272 201.829 146.912 201.136 147.392C200.442 147.872 199.498 148.112 198.304 148.112Z" fill="black"/>
<path d="M113.329 68.4349L132.592 62.8882L168.904 63.9626L149.09 70.1674L113.329 68.4349Z" fill="#A8E09B"/>
<path d="M113.332 68.4349L112.671 81.1131L148.928 83.45C148.928 79.0314 148.928 74.6128 149.038 70.1809L113.332 68.4349Z" fill="#C1BFC1"/>
<path d="M149.092 70.1674L168.92 63.9492C168.92 67.9783 168.92 72.0074 168.81 76.0364L148.927 83.4499L149.092 70.1674Z" fill="#D3D3D3"/>
<path d="M129.059 60.7662L138.126 58.4025L156.151 58.8457L146.877 61.6526L129.059 60.7662Z" fill="#E89862"/>
<path d="M129.059 60.7662C129.059 62.8479 129.059 64.9162 129.059 66.9979L146.602 68.126C146.602 65.9637 146.602 63.8015 146.602 61.6258L129.059 60.7662Z" fill="#F7E8A6"/>
<path d="M146.547 61.5719L156.179 58.7919C156.179 60.8333 156.179 62.8209 156.275 64.9161L146.561 68.0722C146.534 65.9099 146.534 63.7476 146.547 61.5719Z" fill="#E5D8B1"/>
<path d="M136.377 56.8043L140.505 55.6359L149.834 55.9985L145.142 57.1669L136.377 56.8043Z" fill="#E89862"/>
<path d="M136.377 56.8043C136.377 57.7982 136.377 58.8054 136.487 59.7993L145.211 60.3633V57.1669L136.377 56.8043Z" fill="#F7E8A6"/>
<path d="M145.157 57.167L149.849 55.9985C149.849 56.9924 149.849 57.9728 149.849 58.9666L145.157 60.3096V57.167Z" fill="#E5D8B1"/>
<path d="M68.5706 74.1964L87.6137 67.2126L124.049 69.0257L104.896 75.9826L68.5706 74.1964Z" fill="#9ACC96"/>
<path d="M68.571 74.1964L68.2408 86.888L104.222 89.2114C104.36 84.7347 104.506 80.2266 104.662 75.6872L68.571 74.1964Z" fill="#C1BFC1"/>
<path d="M104.662 75.6737L124.049 68.9586V81.5159L104.222 89.1443C104.359 84.6765 104.506 80.1863 104.662 75.6737Z" fill="#D3D3D3"/>
<path d="M80.8029 62.4316L85.7151 60.7662L94.2184 60.9274L89.5677 62.7136L80.8029 62.4316Z" fill="#E89862"/>
<path d="M80.8029 62.4315V72.343L89.5401 72.7057V62.7001L80.8029 62.4315Z" fill="#F7E8A6"/>
<path d="M89.568 62.7136L94.2187 60.9274V70.718L89.568 72.7057C89.5818 69.375 89.568 66.0443 89.568 62.7136Z" fill="#E5D8B1"/>
<path d="M92.6226 68.4215L97.0257 67.0785L108.68 67.5217L103.85 69.0393L92.6226 68.4215Z" fill="#E89862"/>
<path d="M92.608 68.4215C92.608 69.4422 92.5117 70.4629 92.4567 71.4702L103.795 72.088C103.795 71.0673 103.795 70.0466 103.795 69.0124L92.608 68.4215Z" fill="#F7E8A6"/>
<path d="M103.85 69.0125L108.68 67.4949L108.501 70.1809L103.795 72.088C103.809 71.0673 103.836 70.0466 103.85 69.0125Z" fill="#E5D8B1"/>
<path d="M84.4481 59.9202L86.7596 59.2755L90.805 59.4501L88.7411 60.1351L84.4481 59.9202Z" fill="#E89862"/>
<path d="M84.4481 59.9202V61.8676L88.7273 62.1496V60.1351L84.4481 59.9202Z" fill="#F7E8A6"/>
<path d="M88.7427 60.135L90.8066 59.4501V61.3169L88.7702 62.1496C88.784 61.478 88.7564 60.7662 88.7427 60.135Z" fill="#E5D8B1"/>
<path d="M97.4653 66.2591L99.7632 65.6145L103.808 65.7891L101.745 66.474L97.4653 66.2591Z" fill="#E89862"/>
<path d="M97.4653 66.2593V68.2067L101.745 68.4887V66.4742L97.4653 66.2593Z" fill="#F7E8A6"/>
<path d="M101.744 66.474L103.808 65.7891V67.6559L101.757 68.4885C101.785 67.817 101.771 67.1455 101.744 66.474Z" fill="#E5D8B1"/>
<path opacity="0.5" d="M68.433 79.0985V82.5904L104.373 84.5646L124.049 77.0571L148.926 78.615L169.002 71.1747L185.719 71.7656L123.994 95.5237L43.0054 89.4533L68.433 79.0985Z" fill="#9BDDF9"/>
<path opacity="0.8" d="M43.0594 89.4532C41.6469 94.071 41.6469 98.991 43.0594 103.609L124.048 110.982V95.5237L43.0594 89.4532Z" fill="#9BDDF9"/>
<path opacity="0.65" d="M185.775 71.7656L124.05 95.5237V110.982L185.775 85.6659C186.604 83.3854 187.019 80.9811 187 78.5613C186.978 76.2458 186.564 73.9497 185.775 71.7656Z" fill="#9BDDF9"/>
</svg>
