<svg width="230" height="165" viewBox="0 0 230 165" fill="none" xmlns="http://www.w3.org/2000/svg">
<rect width="230" height="165" rx="6.7" fill="white"/>
<path d="M72.3076 139.661V146.909C72.3076 149.917 70.7716 151.421 67.6996 151.421C66.8783 151.421 66.0996 151.314 65.3636 151.101C64.6276 150.898 64.0196 150.6 63.5396 150.205L64.4356 148.701C64.809 149.01 65.2783 149.256 65.8436 149.437C66.4196 149.629 67.001 149.725 67.5876 149.725C68.5263 149.725 69.2143 149.512 69.6516 149.085C70.089 148.658 70.3076 148.008 70.3076 147.133V146.685C69.9663 147.058 69.5503 147.341 69.0596 147.533C68.569 147.725 68.0303 147.821 67.4436 147.821C66.633 147.821 65.897 147.65 65.2356 147.309C64.585 146.957 64.0676 146.466 63.6836 145.837C63.3103 145.208 63.1236 144.488 63.1236 143.677C63.1236 142.866 63.3103 142.152 63.6836 141.533C64.0676 140.904 64.585 140.418 65.2356 140.077C65.897 139.736 66.633 139.565 67.4436 139.565C68.0623 139.565 68.6223 139.666 69.1236 139.869C69.6356 140.072 70.0623 140.381 70.4036 140.797V139.661H72.3076ZM67.7476 146.125C68.505 146.125 69.1236 145.901 69.6036 145.453C70.0943 144.994 70.3396 144.402 70.3396 143.677C70.3396 142.962 70.0943 142.381 69.6036 141.933C69.1236 141.485 68.505 141.261 67.7476 141.261C66.9796 141.261 66.3503 141.485 65.8596 141.933C65.3796 142.381 65.1396 142.962 65.1396 143.677C65.1396 144.402 65.3796 144.994 65.8596 145.453C66.3503 145.901 66.9796 146.125 67.7476 146.125ZM76.841 140.909C77.417 140.013 78.4303 139.565 79.881 139.565V141.469C79.7103 141.437 79.5557 141.421 79.417 141.421C78.6383 141.421 78.0303 141.65 77.593 142.109C77.1557 142.557 76.937 143.208 76.937 144.061V148.205H74.937V139.661H76.841V140.909ZM85.3395 148.317C84.4755 148.317 83.6968 148.13 83.0035 147.757C82.3102 147.384 81.7662 146.866 81.3715 146.205C80.9875 145.533 80.7955 144.776 80.7955 143.933C80.7955 143.09 80.9875 142.338 81.3715 141.677C81.7662 141.016 82.3102 140.498 83.0035 140.125C83.6968 139.752 84.4755 139.565 85.3395 139.565C86.2142 139.565 86.9982 139.752 87.6915 140.125C88.3848 140.498 88.9235 141.016 89.3075 141.677C89.7022 142.338 89.8995 143.09 89.8995 143.933C89.8995 144.776 89.7022 145.533 89.3075 146.205C88.9235 146.866 88.3848 147.384 87.6915 147.757C86.9982 148.13 86.2142 148.317 85.3395 148.317ZM85.3395 146.605C86.0755 146.605 86.6835 146.36 87.1635 145.869C87.6435 145.378 87.8835 144.733 87.8835 143.933C87.8835 143.133 87.6435 142.488 87.1635 141.997C86.6835 141.506 86.0755 141.261 85.3395 141.261C84.6035 141.261 83.9955 141.506 83.5155 141.997C83.0462 142.488 82.8115 143.133 82.8115 143.933C82.8115 144.733 83.0462 145.378 83.5155 145.869C83.9955 146.36 84.6035 146.605 85.3395 146.605ZM100.084 139.661V148.205H98.18V147.117C97.86 147.501 97.46 147.8 96.98 148.013C96.5 148.216 95.9827 148.317 95.428 148.317C94.2867 148.317 93.3853 148.002 92.724 147.373C92.0733 146.733 91.748 145.789 91.748 144.541V139.661H93.748V144.269C93.748 145.037 93.9187 145.613 94.26 145.997C94.612 146.37 95.108 146.557 95.748 146.557C96.4627 146.557 97.028 146.338 97.444 145.901C97.8707 145.453 98.084 144.813 98.084 143.981V139.661H100.084ZM107.439 139.565C108.271 139.565 109.012 139.746 109.663 140.109C110.324 140.472 110.841 140.984 111.215 141.645C111.588 142.306 111.775 143.069 111.775 143.933C111.775 144.797 111.588 145.565 111.215 146.237C110.841 146.898 110.324 147.41 109.663 147.773C109.012 148.136 108.271 148.317 107.439 148.317C106.287 148.317 105.375 147.933 104.703 147.165V151.309H102.703V139.661H104.607V140.781C104.937 140.376 105.343 140.072 105.823 139.869C106.313 139.666 106.852 139.565 107.439 139.565ZM107.215 146.605C107.951 146.605 108.553 146.36 109.023 145.869C109.503 145.378 109.743 144.733 109.743 143.933C109.743 143.133 109.503 142.488 109.023 141.997C108.553 141.506 107.951 141.261 107.215 141.261C106.735 141.261 106.303 141.373 105.919 141.597C105.535 141.81 105.231 142.12 105.007 142.525C104.783 142.93 104.671 143.4 104.671 143.933C104.671 144.466 104.783 144.936 105.007 145.341C105.231 145.746 105.535 146.061 105.919 146.285C106.303 146.498 106.735 146.605 107.215 146.605ZM116.311 148.317C115.618 148.317 114.941 148.226 114.279 148.045C113.618 147.864 113.09 147.634 112.695 147.357L113.463 145.837C113.847 146.093 114.306 146.301 114.839 146.461C115.383 146.61 115.917 146.685 116.439 146.685C117.634 146.685 118.231 146.37 118.231 145.741C118.231 145.442 118.077 145.234 117.767 145.117C117.469 145 116.983 144.888 116.311 144.781C115.607 144.674 115.031 144.552 114.583 144.413C114.146 144.274 113.762 144.034 113.431 143.693C113.111 143.341 112.951 142.856 112.951 142.237C112.951 141.426 113.287 140.781 113.959 140.301C114.642 139.81 115.559 139.565 116.711 139.565C117.298 139.565 117.885 139.634 118.471 139.773C119.058 139.901 119.538 140.077 119.911 140.301L119.143 141.821C118.418 141.394 117.602 141.181 116.695 141.181C116.109 141.181 115.661 141.272 115.351 141.453C115.053 141.624 114.903 141.853 114.903 142.141C114.903 142.461 115.063 142.69 115.383 142.829C115.714 142.957 116.221 143.08 116.903 143.197C117.586 143.304 118.146 143.426 118.583 143.565C119.021 143.704 119.394 143.938 119.703 144.269C120.023 144.6 120.183 145.069 120.183 145.677C120.183 146.477 119.837 147.117 119.143 147.597C118.45 148.077 117.506 148.317 116.311 148.317ZM125.746 148.317C124.882 148.317 124.103 148.13 123.41 147.757C122.716 147.384 122.172 146.866 121.778 146.205C121.394 145.533 121.202 144.776 121.202 143.933C121.202 143.09 121.394 142.338 121.778 141.677C122.172 141.016 122.716 140.498 123.41 140.125C124.103 139.752 124.882 139.565 125.746 139.565C126.62 139.565 127.404 139.752 128.098 140.125C128.791 140.498 129.33 141.016 129.714 141.677C130.108 142.338 130.306 143.09 130.306 143.933C130.306 144.776 130.108 145.533 129.714 146.205C129.33 146.866 128.791 147.384 128.098 147.757C127.404 148.13 126.62 148.317 125.746 148.317ZM125.746 146.605C126.482 146.605 127.09 146.36 127.57 145.869C128.05 145.378 128.29 144.733 128.29 143.933C128.29 143.133 128.05 142.488 127.57 141.997C127.09 141.506 126.482 141.261 125.746 141.261C125.01 141.261 124.402 141.506 123.922 141.997C123.452 142.488 123.218 143.133 123.218 143.933C123.218 144.733 123.452 145.378 123.922 145.869C124.402 146.36 125.01 146.605 125.746 146.605ZM140.49 139.661V148.205H138.586V147.117C138.266 147.501 137.866 147.8 137.386 148.013C136.906 148.216 136.389 148.317 135.834 148.317C134.693 148.317 133.792 148.002 133.13 147.373C132.48 146.733 132.154 145.789 132.154 144.541V139.661H134.154V144.269C134.154 145.037 134.325 145.613 134.666 145.997C135.018 146.37 135.514 146.557 136.154 146.557C136.869 146.557 137.434 146.338 137.85 145.901C138.277 145.453 138.49 144.813 138.49 143.981V139.661H140.49ZM145.013 140.909C145.589 140.013 146.602 139.565 148.053 139.565V141.469C147.882 141.437 147.728 141.421 147.589 141.421C146.81 141.421 146.202 141.65 145.765 142.109C145.328 142.557 145.109 143.208 145.109 144.061V148.205H143.109V139.661H145.013V140.909ZM153.591 148.317C152.706 148.317 151.911 148.13 151.207 147.757C150.503 147.384 149.954 146.866 149.559 146.205C149.165 145.533 148.967 144.776 148.967 143.933C148.967 143.09 149.165 142.338 149.559 141.677C149.954 141.016 150.498 140.498 151.191 140.125C151.895 139.752 152.695 139.565 153.591 139.565C154.434 139.565 155.17 139.736 155.799 140.077C156.439 140.418 156.919 140.909 157.239 141.549L155.703 142.445C155.458 142.05 155.149 141.757 154.775 141.565C154.413 141.362 154.013 141.261 153.575 141.261C152.829 141.261 152.21 141.506 151.719 141.997C151.229 142.477 150.983 143.122 150.983 143.933C150.983 144.744 151.223 145.394 151.703 145.885C152.194 146.365 152.818 146.605 153.575 146.605C154.013 146.605 154.413 146.509 154.775 146.317C155.149 146.114 155.458 145.816 155.703 145.421L157.239 146.317C156.909 146.957 156.423 147.453 155.783 147.805C155.154 148.146 154.423 148.317 153.591 148.317ZM166.875 143.981C166.875 144.12 166.865 144.317 166.843 144.573H160.139C160.257 145.202 160.561 145.704 161.051 146.077C161.553 146.44 162.171 146.621 162.907 146.621C163.846 146.621 164.619 146.312 165.227 145.693L166.299 146.925C165.915 147.384 165.43 147.73 164.843 147.965C164.257 148.2 163.595 148.317 162.859 148.317C161.921 148.317 161.094 148.13 160.379 147.757C159.665 147.384 159.11 146.866 158.715 146.205C158.331 145.533 158.139 144.776 158.139 143.933C158.139 143.101 158.326 142.354 158.699 141.693C159.083 141.021 159.611 140.498 160.283 140.125C160.955 139.752 161.713 139.565 162.555 139.565C163.387 139.565 164.129 139.752 164.779 140.125C165.441 140.488 165.953 141.005 166.315 141.677C166.689 142.338 166.875 143.106 166.875 143.981ZM162.555 141.165C161.915 141.165 161.371 141.357 160.923 141.741C160.486 142.114 160.219 142.616 160.123 143.245H164.971C164.886 142.626 164.625 142.125 164.187 141.741C163.75 141.357 163.206 141.165 162.555 141.165Z" fill="black"/>
<path opacity="0.5" d="M150.084 74.5184L82.3591 118.587C104.075 122.733 126.515 121.427 147.572 114.791L150.084 74.5184Z" fill="#F9AD5A"/>
<path d="M84.5042 118.219C89.4939 116.495 94.6037 115.122 99.7945 114.111C115.288 111.136 131.238 111.257 146.682 114.465C126.605 120.776 105.225 122.067 84.5042 118.219Z" fill="#F9AD5A"/>
<path opacity="0.7" d="M96.9342 54.4601L82.4135 118.587C89.7355 119.995 97.1689 120.782 104.63 120.939C119.213 121.231 133.743 119.153 147.626 114.791C130.714 94.6759 113.817 74.5656 96.9342 54.4601Z" fill="#F9AD5A"/>
<path d="M83.8102 50.7629C87.0592 48.8173 90.6021 47.3832 94.3087 46.5132C99.0979 45.0472 104.086 44.2927 109.105 44.2751C113.462 44.3459 117.455 44.4026 117.818 45.8616C118.573 48.3406 108.902 53.7518 100.233 56.6982C89.9815 60.1829 77 61.6136 75.9545 58.7239C75.0832 56.3016 82.997 51.3578 83.8102 50.7629Z" fill="#B76DE2" stroke="#B76DE2" stroke-width="0.2" stroke-miterlimit="10" stroke-linecap="round"/>
<path d="M95.1477 48.9639C87.0016 51.3579 78.2311 57.0241 79.0878 59.758C79.9445 62.4919 91.14 62.4069 99.9105 59.758C107.694 57.3924 116.697 52.1653 115.883 49.3889C115.07 46.6124 104.078 46.2866 95.1477 48.9639Z" fill="#D7E7F7" stroke="white" stroke-width="0.2" stroke-miterlimit="10" stroke-linecap="round"/>
<path d="M76.0245 58.7664L77.9558 63.016C81.5682 63.6403 85.2384 63.8872 88.9044 63.7527C93.856 63.5685 104.151 63.0302 113.183 56.2166C115.412 54.5302 117.417 52.5792 119.151 50.4088L117.917 46.1591C112.947 52.0086 106.34 56.3207 98.9015 58.5694C91.4627 60.8182 83.5138 60.9063 76.0245 58.8231V58.7664Z" fill="#BA86DF" stroke="#A567D1" stroke-width="0.2" stroke-miterlimit="10" stroke-linecap="round"/>
<path d="M39.0143 75.5667V79.9013C39.2361 80.2173 39.5053 80.4991 39.8129 80.7371C40.7151 81.3939 41.8255 81.7198 42.9494 81.6578C42.9494 80.4679 42.9494 79.278 42.9494 78.1023L39.0143 75.5667Z" fill="#A46ED3" stroke="#A567D1" stroke-width="0.2" stroke-miterlimit="10" stroke-linecap="round"/>
<path d="M78.6235 62.2936L78.4347 60.5937L42.917 78.0314L42.8734 81.6436L78.6235 62.2936Z" fill="#9861D1" stroke="#A567D1" stroke-width="0.2" stroke-miterlimit="10" stroke-linecap="round"/>
<path d="M76.7815 60.1971C77.0835 60.1395 77.3942 60.1395 77.6963 60.1971C77.9594 60.2665 78.2094 60.3765 78.4368 60.5229L42.9191 78.0315C41.9963 77.6838 41.1304 77.2066 40.3489 76.6149C39.8825 76.2672 39.4499 75.8784 39.0566 75.4533L76.7815 60.1971Z" fill="#BA86DF" stroke="#A567D1" stroke-width="0.2" stroke-miterlimit="10" stroke-linecap="round"/>
<path d="M162.15 73.0311C159.555 71.4739 156.722 70.331 153.757 69.6455C149.925 68.4818 145.936 67.8849 141.923 67.8748C138.409 67.8748 135.243 67.9881 134.895 69.1497C134.299 71.1329 142.024 75.4533 148.951 77.819C157.155 80.6521 167.494 81.757 168.379 79.448C169.135 77.4648 162.804 73.456 162.15 73.0311Z" fill="#92BCD3" stroke="#6D94AF" stroke-width="0.2" stroke-miterlimit="10" stroke-linecap="round"/>
<path d="M153.075 71.6003C159.609 73.5551 166.608 78.0315 165.925 80.2271C165.243 82.4228 156.284 82.3519 149.27 80.2271C143.041 78.3431 135.853 74.1643 136.477 71.9403C137.102 69.7163 145.945 69.4613 153.075 71.6003Z" fill="#DAE8F7" stroke="white" stroke-width="0.2" stroke-miterlimit="10" stroke-linecap="round"/>
<path d="M168.379 79.448L166.84 82.791C163.966 83.288 161.045 83.4827 158.128 83.3718C154.164 83.216 145.93 82.791 138.699 77.3373C136.921 75.9863 135.317 74.431 133.922 72.7052L134.909 69.3055C138.886 73.9833 144.172 77.4324 150.122 79.2331C156.072 81.0339 162.43 81.1085 168.423 79.448H168.379Z" fill="#7499B7" stroke="#6D94AF" stroke-width="0.2" stroke-miterlimit="10" stroke-linecap="round"/>
<path d="M197.999 92.8768V96.3474C197.813 96.5968 197.593 96.8207 197.346 97.0132C196.63 97.5416 195.744 97.8029 194.848 97.7498V94.9167L197.999 92.8768Z" fill="#9EC4DD" stroke="#6D94AF" stroke-width="0.2" stroke-miterlimit="10" stroke-linecap="round"/>
<path d="M166.287 82.2527L166.447 80.8928L194.864 94.8458L194.893 97.7498L166.287 82.2527Z" fill="#89B1CC" stroke="#6D94AF" stroke-width="0.2" stroke-miterlimit="10" stroke-linecap="round"/>
<path d="M167.782 80.5812C167.542 80.5429 167.297 80.5429 167.056 80.5812C166.842 80.6396 166.637 80.7253 166.446 80.8362L194.863 94.8034C195.601 94.5071 196.294 94.1165 196.925 93.6418C197.295 93.3588 197.64 93.046 197.956 92.7069L167.782 80.5812Z" fill="#7499B7" stroke="#6D94AF" stroke-width="0.2" stroke-miterlimit="10" stroke-linecap="round"/>
<path d="M112.724 117.978C120.72 117.978 127.201 111.655 127.201 103.855C127.201 96.0553 120.72 89.7322 112.724 89.7322C104.728 89.7322 98.2468 96.0553 98.2468 103.855C98.2468 111.655 104.728 117.978 112.724 117.978Z" fill="#6D9ABF"/>
<path d="M100.988 97.1123C100.674 97.6538 100.551 98.281 100.639 98.8971C100.639 99.1238 100.813 100.101 101.322 100.229C101.83 100.356 102.672 98.8121 103.384 98.9538C104.095 99.0955 103.964 100.654 104.647 100.795C105.329 100.937 105.576 99.7754 106.418 99.6762C107.609 99.5487 109.323 101.589 108.814 102.509C108.306 103.43 105.068 102.963 104.821 103.926C104.647 104.563 105.983 105.342 106.186 105.498C106.389 105.654 109.163 107.241 111.05 105.711C111.649 105.169 112.056 104.456 112.21 103.673C112.364 102.891 112.258 102.081 111.907 101.362C111.21 99.9454 109.903 100.186 109.613 99.0813C109.293 97.7639 111.065 97.0981 111.065 95.1149C111.065 94.0667 110.629 92.6502 109.802 92.4377C108.538 92.1119 107.958 95.0441 104.995 96.0074C103.151 96.6873 101.714 96.064 100.988 97.1123Z" fill="#57BC74"/>
<path d="M118.019 103.359C116.305 103.614 115.536 106.192 114.882 105.923C114.229 105.654 114.752 104.138 114.258 103.968C113.764 103.798 112.341 105.229 112.646 106.32C112.951 107.411 115.071 107.623 115.55 107.651C118.033 107.836 120.865 106.377 120.821 105.087C120.676 104.181 119.18 103.189 118.019 103.359Z" fill="#57BC74"/>
<path d="M115.566 96.5599C114.317 97.6223 112.879 97.3532 112.821 97.7781C112.763 98.2031 114.041 98.8689 115.508 99.1239C118.542 99.6338 119.631 97.7923 122.318 98.2314C124.656 98.6139 125.788 100.342 126.224 99.9596C126.659 99.5771 124.772 96.4607 124.351 95.8658C123.233 94.2226 122.477 93.1602 121.025 92.5936C120.662 92.4519 118.847 91.8145 117.874 92.5936C117.41 92.976 117.569 93.316 116.916 94.5909C116.602 95.327 116.143 95.9959 115.566 96.5599Z" fill="#57BC74"/>
<path d="M123.828 104.776C123.741 104.776 123.915 105.144 123.828 105.711C123.785 106.128 123.624 106.525 123.363 106.858C122.884 107.482 122.332 107.439 122.303 107.779C122.274 108.119 122.811 108.586 123.305 108.572C124.031 108.572 124.641 107.538 124.757 106.674C124.776 106.307 124.701 105.942 124.539 105.61C124.377 105.279 124.132 104.992 123.828 104.776Z" fill="#57BC74"/>
<path d="M120.417 107.694C120.649 107.595 120.998 107.595 121.07 107.694C121.143 107.793 120.983 108.034 120.94 108.062C120.649 108.416 120.025 108.53 119.909 108.36C119.793 108.19 120.054 107.836 120.417 107.694Z" fill="#57BC74"/>
<path d="M101.086 102.849C100.651 103.209 100.371 103.714 100.302 104.266C100.302 104.408 100.069 105.158 100.302 105.272C100.534 105.385 100.897 104.733 101.754 104.096C102.611 103.458 103.583 103.331 103.569 103.09C103.554 102.849 102.044 102.169 101.086 102.849Z" fill="#57BC74"/>
<path d="M99.2766 101.008C99.0878 101.674 98.7974 101.914 98.9281 102.339C98.9281 102.339 99.0297 102.651 99.2185 102.708C99.4073 102.764 99.8138 102.453 99.9445 102.311C100.366 101.872 100.337 101.504 100.642 101.419C100.946 101.334 100.946 101.532 101.208 101.56C101.992 101.674 102.849 100.356 102.66 100.243C102.471 100.13 101.934 100.909 101.324 100.71C100.99 100.597 101.005 100.328 100.482 100.016C100.293 99.8888 99.8138 99.6055 99.5234 99.7613C99.233 99.9171 99.5089 100.243 99.2766 101.008Z" fill="#57BC74"/>
<path d="M120.834 98.7131C120.557 98.7619 120.292 98.8579 120.05 98.9964C119.454 99.3505 118.99 100.059 119.149 100.314C119.309 100.569 120.006 100.314 120.601 100.186C121.531 99.9455 121.647 99.733 122.155 99.7472C122.925 99.7472 123.346 100.314 123.462 100.186C123.578 100.059 123.23 99.3505 122.605 98.9539C122.064 98.6681 121.435 98.5826 120.834 98.7131Z" fill="#57BC74"/>
<path d="M112.882 96.8148C113.15 96.8732 113.431 96.8275 113.666 96.6874C114.145 96.3332 114.131 95.5258 113.898 95.3983C113.666 95.2708 113.666 95.4975 113.448 95.3983C113.23 95.2991 113.129 94.9733 113.027 94.9875C112.925 95.0017 113.027 95.3558 112.867 95.7666C112.707 96.1774 112.344 96.3332 112.403 96.5315C112.461 96.7299 112.78 96.8007 112.882 96.8148Z" fill="#57BC74"/>
<path d="M112.793 93.9676C112.793 94.1093 113.112 94.0951 113.359 94.4209C113.606 94.7467 113.475 94.6901 113.606 94.7609C113.737 94.8317 114.027 94.6759 114.201 94.7609C114.376 94.8459 114.201 95.6392 114.434 95.7808C114.666 95.9225 115.029 95.6108 115.247 95.3133C115.357 95.1421 115.43 94.9509 115.463 94.7513C115.495 94.5517 115.486 94.3478 115.436 94.1518C115.232 93.5427 114.695 93.5427 114.564 93.0044C114.434 92.4661 114.985 91.9703 114.869 91.8711C114.753 91.772 112.502 93.4577 112.793 93.9676Z" fill="#57BC74"/>
<path d="M113.853 107.85C113.998 107.68 114.288 107.85 115.087 107.921C116.321 108.062 116.757 107.85 117.076 108.204C117.396 108.558 117.207 108.785 117.439 108.898C117.889 109.125 118.572 108.147 118.978 108.331C119.385 108.516 119.196 109.493 118.978 110.074C118.738 110.833 118.326 111.53 117.773 112.114C117.51 112.457 117.202 112.767 116.858 113.034C116.116 113.424 115.274 113.596 114.433 113.528C113.593 113.46 112.791 113.156 112.125 112.652C112.125 112.298 115.522 112.836 115.914 111.731C115.964 111.527 115.95 111.313 115.875 111.117C115.8 110.92 115.668 110.749 115.493 110.626C115 110.286 114.506 110.626 113.431 110.626C112.357 110.626 111.486 110.215 111.5 110.017C111.515 109.819 113.707 110.017 114.012 109.167C114.274 108.714 113.664 108.133 113.853 107.85Z" fill="#57BC74"/>
<path d="M109.977 106.844C109.28 107.014 108.858 106.844 108.8 107.042C108.742 107.241 109.033 107.255 109.367 107.666C109.701 108.076 109.701 108.416 109.933 108.487C110.165 108.558 110.906 108.105 111.066 107.51C111.138 107.212 111.138 106.745 110.906 106.603C110.674 106.462 110.543 106.702 109.977 106.844Z" fill="#57BC74"/>
<path d="M107.973 106.745C108.017 106.827 108.044 106.917 108.05 107.01C108.057 107.102 108.045 107.195 108.013 107.283C107.982 107.37 107.933 107.451 107.869 107.519C107.804 107.587 107.726 107.642 107.639 107.68C107.551 107.696 107.459 107.694 107.371 107.675C107.283 107.656 107.199 107.619 107.126 107.567C107.053 107.516 106.991 107.45 106.944 107.375C106.898 107.299 106.868 107.215 106.855 107.127C106.884 106.787 107.741 106.504 107.973 106.745Z" fill="#57BC74"/>
<path d="M108.35 107.411C108.568 107.312 109.178 107.68 109.207 108.261C109.236 108.841 108.786 109.224 108.539 109.167C108.292 109.111 107.987 107.581 108.35 107.411Z" fill="#57BC74"/>
<path d="M115.115 104.875C115.115 104.875 115.232 104.62 115.304 104.11C115.377 103.6 115.304 103.444 115.304 103.232C115.551 102.764 116.756 102.665 116.858 102.977C116.96 103.289 115.246 105.017 115.115 104.875Z" fill="#57BC74"/>
<path d="M116.958 102.198C116.958 102.325 117.205 102.368 117.263 102.609C117.321 102.849 117.176 102.963 117.263 103.062C117.391 103.145 117.544 103.18 117.696 103.162C117.848 103.144 117.988 103.073 118.091 102.963C118.148 102.889 118.189 102.806 118.213 102.717C118.236 102.628 118.241 102.535 118.228 102.444C118.214 102.354 118.182 102.266 118.134 102.187C118.086 102.108 118.022 102.04 117.946 101.985C117.539 101.73 116.973 102.014 116.958 102.198Z" fill="#57BC74"/>
<path d="M105.297 114.848C105.297 114.564 106.096 114.366 106.749 114.451C107.403 114.536 107.751 115.131 108.869 115.655C109.403 115.881 109.964 116.039 110.539 116.122C111.556 116.335 112.834 116.604 113.153 116.122C113.327 115.868 113.153 115.556 113.269 115.414C113.385 115.273 113.923 115.641 114.721 115.811C115.318 115.951 115.946 115.896 116.507 115.655C117.016 115.4 116.914 115.159 117.321 115.046C117.727 114.933 118.221 115.287 119.078 115.287C119.499 115.287 119.731 115.046 119.891 115.173C120.05 115.301 119.891 115.726 119.891 115.811C119.557 116.916 115.985 117.837 112.471 117.525C110.895 117.361 109.354 116.97 107.897 116.363C107.054 116.037 105.21 115.329 105.297 114.848Z" fill="white"/>
<path d="M108.1 91.0213C107.825 91.1204 106.968 91.4321 106.91 91.9987C106.894 92.1137 106.91 92.2308 106.955 92.3379C107.001 92.445 107.076 92.5382 107.171 92.6078C107.578 92.8061 108.042 92.0837 109.102 91.6587C110.162 91.2337 111.063 91.4745 111.077 91.3329C110.643 91.0522 110.146 90.8773 109.628 90.8231C109.11 90.7689 108.586 90.8368 108.1 91.0213Z" fill="white"/>
<path d="M110.761 90.5112C110.761 90.6246 111.647 90.6671 111.676 90.9504C111.705 91.2337 111.051 91.3612 111.08 91.6162C111.109 91.8711 111.69 92.0128 112.184 92.0411C112.694 92.0379 113.199 91.9318 113.665 91.7295C114.725 91.3753 115.117 91.0779 115.407 91.262C115.698 91.4462 115.495 91.7295 115.756 91.9278C116.017 92.1261 116.801 91.9278 117.208 91.7011C117.615 91.4745 117.731 91.3612 117.716 91.1487C117.716 90.7096 116.192 90.5396 115.291 90.4263C113.79 90.1668 112.251 90.1956 110.761 90.5112Z" fill="white"/>
<path d="M106.405 91.8428C106.522 91.9703 106.318 92.1828 106.405 92.4803C106.531 92.645 106.7 92.7732 106.894 92.8506C107.089 92.928 107.302 92.9518 107.509 92.9194C107.799 92.9194 107.945 92.7352 107.974 92.7636C108.003 92.7919 107.625 93.4577 106.943 93.7551C106.338 93.9401 105.689 93.9401 105.084 93.7551C104.344 93.6276 103.908 93.5568 103.835 93.316C103.705 92.7777 106.042 91.5028 106.405 91.8428Z" fill="white"/>
<path d="M108.567 114.777C108.713 114.951 108.92 115.067 109.148 115.102L110.266 115.428C110.789 115.57 111.079 115.669 111.849 115.853C112.27 115.938 112.444 115.967 112.56 115.853C112.658 115.741 112.712 115.597 112.712 115.45C112.712 115.302 112.658 115.159 112.56 115.046C112.284 114.763 111.863 115.117 110.963 115.046C110.508 114.98 110.064 114.856 109.641 114.677C108.973 114.408 108.625 114.182 108.494 114.295C108.364 114.408 108.465 114.621 108.567 114.777Z" fill="white"/>
<path d="M118.993 114.777C118.993 114.89 119.835 114.465 120.169 114.777C120.273 114.868 120.348 114.986 120.387 115.117C120.387 115.273 120.387 115.372 120.387 115.4C120.387 115.428 120.692 115.258 120.837 115.103C120.982 114.947 121.273 114.607 121.2 114.366C121.128 114.125 120.532 113.998 120.184 114.026C119.472 114.083 118.935 114.663 118.993 114.777Z" fill="white"/>
<path opacity="0.5" d="M96.1034 58.823L96.9311 54.7717L99.5593 57.7606L99.69 57.9306L99.7336 58.0156L98.4122 58.4547L96.7423 58.8797L96.0453 59.0497L96.1034 58.823Z" fill="#F9AD5A"/>
<path opacity="0.35" d="M145.711 77.2524L150.067 74.5184C150.067 75.935 149.936 77.4507 149.863 78.9097L147.555 78.1023L146.103 77.4932L145.711 77.2524Z" fill="#F9AD5A"/>
<path d="M109.048 48.2131C109.087 48.3003 109.107 48.3943 109.107 48.4893C109.107 48.5844 109.087 48.6784 109.048 48.7656C108.613 49.6438 106.435 49.2047 103.356 49.1197C99.7405 49.0205 97.5479 49.488 97.5479 49.2614C98.4646 48.8349 99.4448 48.5528 100.452 48.4256C102.093 48.1539 103.753 48.0024 105.418 47.9723C107.669 47.8306 108.787 47.689 109.048 48.2131Z" fill="white"/>
<path d="M141.734 71.1895C141.727 71.2477 141.732 71.3067 141.749 71.3628C141.767 71.4189 141.796 71.4708 141.835 71.5153C142.169 71.912 143.098 71.742 143.723 71.657C144.751 71.5605 145.787 71.5605 146.816 71.657C148.573 71.657 149.72 72.1103 149.72 72.0111C149.185 71.7213 148.607 71.5158 148.006 71.402C147.175 71.2004 146.331 71.0537 145.48 70.9629C144.426 70.7029 143.328 70.6594 142.256 70.8354C142.14 70.8354 141.777 70.9629 141.734 71.1895Z" fill="white"/>
<path d="M56.4534 82.8903C56.5352 83.6664 56.3838 84.4489 56.0178 85.1426C55.6677 85.754 55.1362 86.2478 54.4931 86.5591C55.0138 86.8245 55.4773 87.1852 55.8581 87.6215C56.4067 88.2785 56.7674 89.0653 56.9036 89.9022C56.8324 89.0867 57.0092 88.2688 57.4118 87.5507C57.7266 86.9755 58.1863 86.488 58.7477 86.1342C58.3097 85.8593 57.9178 85.5201 57.5861 85.1284C57.0344 84.4789 56.6465 83.7124 56.4534 82.8903Z" fill="#FCE408"/>
<path d="M148.993 60.8771C149.019 61.7434 148.743 62.5929 148.208 63.2852C147.672 63.95 146.943 64.4432 146.117 64.7018C146.742 65.0345 147.298 65.4762 147.758 66.005C148.379 66.7556 148.762 67.6661 148.862 68.6256C148.848 67.7102 149.161 66.8186 149.748 66.1041C150.231 65.5148 150.861 65.0563 151.577 64.7726C151.04 64.4308 150.552 64.0212 150.125 63.5544C149.516 62.7727 149.126 61.8502 148.993 60.8771Z" fill="#FCE408"/>
<path d="M154.322 95.9225C154.411 96.578 154.24 97.2419 153.843 97.7782C153.423 98.3183 152.854 98.7309 152.202 98.9681C152.737 99.1716 153.229 99.4693 153.654 99.8463C154.23 100.333 154.628 100.989 154.787 101.716C154.725 101.023 154.927 100.333 155.353 99.7755C155.737 99.2967 156.236 98.9173 156.805 98.6706C156.352 98.4551 155.931 98.1786 155.556 97.849C154.964 97.3358 154.535 96.667 154.322 95.9225Z" fill="#FCE408"/>
<path d="M77.546 85.0858C77.67 86.1125 77.451 87.1508 76.9216 88.0464C76.4174 88.893 75.6564 89.5661 74.7435 89.9729C75.4839 90.3114 76.1459 90.7934 76.6893 91.3895C77.455 92.2362 77.9585 93.2776 78.1414 94.3926C78.0403 93.3077 78.3 92.22 78.8819 91.2903C79.3449 90.5432 80.0008 89.9277 80.7842 89.5054C80.1636 89.1556 79.6047 88.7108 79.1288 88.1881C78.3387 87.3025 77.7938 86.2346 77.546 85.0858Z" fill="#FCE408"/>
<path d="M69.242 103.954C69.3293 104.562 69.1902 105.18 68.85 105.697C68.4964 106.207 67.9891 106.598 67.3979 106.816C67.8591 107.01 68.2781 107.289 68.6322 107.637C69.1217 108.116 69.4508 108.729 69.576 109.394C69.5205 108.754 69.6894 108.115 70.0552 107.581C70.3573 107.135 70.7725 106.774 71.2604 106.532C70.7476 106.268 70.2969 105.902 69.9369 105.458C69.5769 105.014 69.3156 104.502 69.1694 103.954H69.242Z" fill="#FCE408"/>
<path d="M65.7426 67.2515C65.8491 68.1205 65.6704 69.0001 65.232 69.7638C64.7936 70.5274 64.1183 71.1357 63.3031 71.5012C64.0932 71.8678 64.7783 72.4191 65.2976 73.106C65.8169 73.793 66.1543 74.5944 66.2798 75.4392C66.1964 74.4897 66.4198 73.5386 66.9188 72.7194C67.3414 72.0656 67.9388 71.5367 68.6467 71.1895C68.1041 70.8778 67.6143 70.4859 67.1947 70.0279C66.4774 69.2374 65.9778 68.282 65.7426 67.2515Z" fill="#FCE408"/>
<path d="M186.066 79.6888C186.163 80.4388 185.994 81.1985 185.587 81.8419C185.191 82.4686 184.608 82.9626 183.917 83.2585C184.463 83.5062 184.955 83.8523 185.369 84.2784C185.963 84.8798 186.362 85.6386 186.516 86.4599C186.444 85.6686 186.643 84.8764 187.083 84.2076C187.447 83.6615 187.947 83.2134 188.535 82.9044C188.064 82.6507 187.633 82.3309 187.257 81.9553C186.668 81.3116 186.258 80.5312 186.066 79.6888Z" fill="#FCE408"/>
<path d="M118.123 68.3564C118.173 68.9812 118.021 69.6055 117.687 70.1412C117.338 70.6592 116.83 71.056 116.235 71.2745C116.689 71.486 117.094 71.7847 117.426 72.1527C117.892 72.6705 118.19 73.3113 118.283 73.9942C118.242 73.334 118.421 72.6785 118.791 72.1244C119.092 71.6779 119.507 71.3164 119.996 71.0762C119.622 70.8531 119.284 70.5761 118.994 70.2546C118.547 69.702 118.248 69.0497 118.123 68.3564Z" fill="#FCE408"/>
<path d="M176.932 97.9623C177.044 98.8648 176.855 99.7783 176.395 100.569C175.949 101.304 175.286 101.892 174.493 102.254C175.278 102.61 175.961 103.146 176.485 103.818C177.009 104.489 177.357 105.275 177.499 106.107C177.407 105.157 177.631 104.204 178.138 103.388C178.54 102.731 179.117 102.193 179.808 101.829C179.265 101.518 178.775 101.126 178.355 100.668C177.659 99.8945 177.171 98.9649 176.932 97.9623Z" fill="#FCE408"/>
<path d="M35.4395 90.9221C35.5549 91.8202 35.3663 92.7305 34.9022 93.5143C34.4679 94.2764 33.8038 94.8896 33 95.2709C33.7846 95.626 34.4685 96.1626 34.9923 96.8341C35.5161 97.5055 35.864 98.2915 36.0058 99.1239C35.9252 98.2732 36.1007 97.4181 36.5108 96.6633C36.9209 95.9085 37.5477 95.2867 38.3146 94.8742C37.772 94.5625 37.2822 94.1707 36.8625 93.7127C36.1492 92.9179 35.659 91.9565 35.4395 90.9221Z" fill="#FCE408"/>
<path d="M165.937 83.5985C165.998 84.2241 165.845 84.852 165.501 85.3834C165.175 85.8883 164.699 86.2839 164.136 86.5166C164.585 86.7294 164.985 87.0281 165.312 87.3949C165.778 87.9141 166.081 88.5535 166.184 89.2364C166.143 88.5761 166.321 87.9206 166.692 87.3665C166.998 86.9247 167.412 86.5643 167.897 86.3183C167.522 86.0952 167.185 85.8182 166.895 85.4967C166.417 84.9529 166.087 84.2999 165.937 83.5985Z" fill="#FCE408"/>
</svg>
