<svg width="230" height="165" viewBox="0 0 230 165" fill="none" xmlns="http://www.w3.org/2000/svg">
<rect width="230" height="164.907" rx="6.7" fill="white"/>
<path d="M60.5194 139.36C61.5967 139.36 62.4607 139.675 63.1114 140.304C63.762 140.933 64.0874 141.867 64.0874 143.104V148H62.0874V143.36C62.0874 142.613 61.9114 142.053 61.5594 141.68C61.2074 141.296 60.706 141.104 60.0554 141.104C59.3194 141.104 58.738 141.328 58.3114 141.776C57.8847 142.213 57.6714 142.848 57.6714 143.68V148H55.6714V136.128H57.6714V140.448C58.002 140.096 58.4074 139.829 58.8874 139.648C59.378 139.456 59.922 139.36 60.5194 139.36ZM69.8885 139.36C71.1472 139.36 72.1072 139.664 72.7685 140.272C73.4405 140.869 73.7765 141.776 73.7765 142.992V148H71.8885V146.96C71.6432 147.333 71.2912 147.621 70.8325 147.824C70.3845 148.016 69.8405 148.112 69.2005 148.112C68.5605 148.112 68.0005 148.005 67.5205 147.792C67.0405 147.568 66.6672 147.264 66.4005 146.88C66.1445 146.485 66.0165 146.043 66.0165 145.552C66.0165 144.784 66.2992 144.171 66.8645 143.712C67.4405 143.243 68.3418 143.008 69.5685 143.008H71.7765V142.88C71.7765 142.283 71.5952 141.824 71.2325 141.504C70.8805 141.184 70.3525 141.024 69.6485 141.024C69.1685 141.024 68.6938 141.099 68.2245 141.248C67.7658 141.397 67.3765 141.605 67.0565 141.872L66.2725 140.416C66.7205 140.075 67.2592 139.813 67.8885 139.632C68.5178 139.451 69.1845 139.36 69.8885 139.36ZM69.6165 146.656C70.1178 146.656 70.5605 146.544 70.9445 146.32C71.3392 146.085 71.6165 145.755 71.7765 145.328V144.336H69.7125C68.5605 144.336 67.9845 144.715 67.9845 145.472C67.9845 145.835 68.1285 146.123 68.4165 146.336C68.7045 146.549 69.1045 146.656 69.6165 146.656ZM81.1913 139.36C82.2686 139.36 83.1326 139.675 83.7833 140.304C84.4339 140.933 84.7593 141.867 84.7593 143.104V148H82.7593V143.36C82.7593 142.613 82.5833 142.053 82.2313 141.68C81.8793 141.296 81.3779 141.104 80.7273 141.104C79.9913 141.104 79.4099 141.328 78.9833 141.776C78.5566 142.213 78.3433 142.848 78.3433 143.68V148H76.3433V139.456H78.2473V140.56C78.5779 140.165 78.9939 139.867 79.4953 139.664C79.9966 139.461 80.5619 139.36 81.1913 139.36ZM89.9364 148.112C89.243 148.112 88.5657 148.021 87.9044 147.84C87.243 147.659 86.715 147.429 86.3204 147.152L87.0884 145.632C87.4724 145.888 87.931 146.096 88.4644 146.256C89.0084 146.405 89.5417 146.48 90.0644 146.48C91.259 146.48 91.8564 146.165 91.8564 145.536C91.8564 145.237 91.7017 145.029 91.3924 144.912C91.0937 144.795 90.6084 144.683 89.9364 144.576C89.2324 144.469 88.6564 144.347 88.2084 144.208C87.771 144.069 87.387 143.829 87.0564 143.488C86.7364 143.136 86.5764 142.651 86.5764 142.032C86.5764 141.221 86.9124 140.576 87.5844 140.096C88.267 139.605 89.1844 139.36 90.3364 139.36C90.923 139.36 91.5097 139.429 92.0964 139.568C92.683 139.696 93.163 139.872 93.5364 140.096L92.7684 141.616C92.043 141.189 91.227 140.976 90.3204 140.976C89.7337 140.976 89.2857 141.067 88.9764 141.248C88.6777 141.419 88.5284 141.648 88.5284 141.936C88.5284 142.256 88.6884 142.485 89.0084 142.624C89.339 142.752 89.8457 142.875 90.5284 142.992C91.211 143.099 91.771 143.221 92.2084 143.36C92.6457 143.499 93.019 143.733 93.3284 144.064C93.6484 144.395 93.8084 144.864 93.8084 145.472C93.8084 146.272 93.4617 146.912 92.7684 147.392C92.075 147.872 91.131 148.112 89.9364 148.112ZM104.801 139.36C105.878 139.36 106.742 139.675 107.393 140.304C108.043 140.933 108.369 141.867 108.369 143.104V148H106.369V143.36C106.369 142.613 106.193 142.053 105.841 141.68C105.489 141.296 104.987 141.104 104.337 141.104C103.601 141.104 103.019 141.328 102.593 141.776C102.166 142.213 101.953 142.848 101.953 143.68V148H99.9526V136.128H101.953V140.448C102.283 140.096 102.689 139.829 103.169 139.648C103.659 139.456 104.203 139.36 104.801 139.36ZM114.824 148.112C113.96 148.112 113.181 147.925 112.488 147.552C111.795 147.179 111.251 146.661 110.856 146C110.472 145.328 110.28 144.571 110.28 143.728C110.28 142.885 110.472 142.133 110.856 141.472C111.251 140.811 111.795 140.293 112.488 139.92C113.181 139.547 113.96 139.36 114.824 139.36C115.699 139.36 116.483 139.547 117.176 139.92C117.869 140.293 118.408 140.811 118.792 141.472C119.187 142.133 119.384 142.885 119.384 143.728C119.384 144.571 119.187 145.328 118.792 146C118.408 146.661 117.869 147.179 117.176 147.552C116.483 147.925 115.699 148.112 114.824 148.112ZM114.824 146.4C115.56 146.4 116.168 146.155 116.648 145.664C117.128 145.173 117.368 144.528 117.368 143.728C117.368 142.928 117.128 142.283 116.648 141.792C116.168 141.301 115.56 141.056 114.824 141.056C114.088 141.056 113.48 141.301 113 141.792C112.531 142.283 112.296 142.928 112.296 143.728C112.296 144.528 112.531 145.173 113 145.664C113.48 146.155 114.088 146.4 114.824 146.4ZM124.768 137.632C123.926 137.632 123.504 138.091 123.504 139.008V139.52H125.856V141.12H123.568V148H121.568V141.12H120.16V139.52H121.568V138.976C121.568 138.059 121.835 137.339 122.368 136.816C122.902 136.283 123.654 136.016 124.624 136.016C125.392 136.016 125.995 136.171 126.432 136.48L125.872 137.984C125.531 137.749 125.163 137.632 124.768 137.632ZM139.268 139.36C140.345 139.36 141.199 139.675 141.828 140.304C142.457 140.923 142.772 141.856 142.772 143.104V148H140.772V143.36C140.772 142.613 140.607 142.053 140.276 141.68C139.945 141.296 139.471 141.104 138.852 141.104C138.18 141.104 137.641 141.328 137.236 141.776C136.831 142.213 136.628 142.843 136.628 143.664V148H134.628V143.36C134.628 142.613 134.463 142.053 134.132 141.68C133.801 141.296 133.327 141.104 132.708 141.104C132.025 141.104 131.481 141.323 131.076 141.76C130.681 142.197 130.484 142.832 130.484 143.664V148H128.484V139.456H130.388V140.544C130.708 140.16 131.108 139.867 131.588 139.664C132.068 139.461 132.601 139.36 133.188 139.36C133.828 139.36 134.393 139.483 134.884 139.728C135.385 139.963 135.78 140.315 136.068 140.784C136.42 140.336 136.873 139.989 137.428 139.744C137.983 139.488 138.596 139.36 139.268 139.36ZM148.592 139.36C149.85 139.36 150.81 139.664 151.472 140.272C152.144 140.869 152.48 141.776 152.48 142.992V148H150.592V146.96C150.346 147.333 149.994 147.621 149.536 147.824C149.088 148.016 148.544 148.112 147.904 148.112C147.264 148.112 146.704 148.005 146.224 147.792C145.744 147.568 145.37 147.264 145.104 146.88C144.848 146.485 144.72 146.043 144.72 145.552C144.72 144.784 145.002 144.171 145.568 143.712C146.144 143.243 147.045 143.008 148.272 143.008H150.48V142.88C150.48 142.283 150.298 141.824 149.936 141.504C149.584 141.184 149.056 141.024 148.352 141.024C147.872 141.024 147.397 141.099 146.928 141.248C146.469 141.397 146.08 141.605 145.76 141.872L144.976 140.416C145.424 140.075 145.962 139.813 146.592 139.632C147.221 139.451 147.888 139.36 148.592 139.36ZM148.32 146.656C148.821 146.656 149.264 146.544 149.648 146.32C150.042 146.085 150.32 145.755 150.48 145.328V144.336H148.416C147.264 144.336 146.688 144.715 146.688 145.472C146.688 145.835 146.832 146.123 147.12 146.336C147.408 146.549 147.808 146.656 148.32 146.656ZM159.894 139.36C160.972 139.36 161.836 139.675 162.486 140.304C163.137 140.933 163.462 141.867 163.462 143.104V148H161.462V143.36C161.462 142.613 161.286 142.053 160.934 141.68C160.582 141.296 160.081 141.104 159.43 141.104C158.694 141.104 158.113 141.328 157.686 141.776C157.26 142.213 157.046 142.848 157.046 143.68V148H155.046V139.456H156.95V140.56C157.281 140.165 157.697 139.867 158.198 139.664C158.7 139.461 159.265 139.36 159.894 139.36ZM170.848 139.36C171.925 139.36 172.789 139.675 173.44 140.304C174.09 140.933 174.416 141.867 174.416 143.104V148H172.416V143.36C172.416 142.613 172.24 142.053 171.888 141.68C171.536 141.296 171.034 141.104 170.384 141.104C169.648 141.104 169.066 141.328 168.64 141.776C168.213 142.213 168 142.848 168 143.68V148H166V139.456H167.904V140.56C168.234 140.165 168.65 139.867 169.152 139.664C169.653 139.461 170.218 139.36 170.848 139.36Z" fill="black"/>
<path opacity="0.4" d="M83.5104 62.3745H37.9596V106.786H83.5104V62.3745Z" fill="#FC542D" stroke="#FC542D" stroke-miterlimit="10"/>
<path opacity="0.4" d="M139.257 62.3745H93.7059V106.786H139.257V62.3745Z" fill="#F9DC08" stroke="#F9DC08" stroke-miterlimit="10"/>
<path opacity="0.4" d="M195 106.771H149.449V62.3745H157.72H195V106.771Z" fill="#088DF9" stroke="#088DF9" stroke-miterlimit="10"/>
<path d="M80.5508 59.384H35V103.795H80.5508V59.384Z" fill="#F9F0D4" stroke="#FC542D" stroke-miterlimit="10"/>
<path d="M136.294 59.384H90.7433V103.795H136.294V59.384Z" fill="#F9F0D4" stroke="#F9DC08" stroke-miterlimit="10"/>
<path d="M192.04 103.795H146.49V59.384H154.76H192.04V103.795Z" fill="#F9F0D4" stroke="#088DF9" stroke-miterlimit="10"/>
<path d="M96.5877 73.8606C97.65 73.4824 98.7686 73.2764 99.8991 73.2506C102.173 73.2506 102.646 74.2921 104.141 73.9647C105.973 73.563 106.049 72.0306 107.651 71.8223C108.857 71.6586 109.437 72.462 111.588 73.682C115.251 75.7352 117.402 75.5418 117.433 76.375C117.463 77.2082 114.671 78.5472 112.061 78.7258C110.047 78.8746 109.36 78.3092 105.957 77.8033C105.072 77.6843 104.782 77.6694 100.754 77.3867C92.4523 76.7916 91.4451 76.6875 91.3841 76.3006C91.1857 75.4228 96.0231 74.0242 96.5877 73.8606Z" fill="#F9DC08"/>
<path d="M131.595 94.3479C130.547 94.6101 129.472 94.7499 128.39 94.7645C126.193 94.7645 125.75 94.0503 124.301 94.2735C122.53 94.5413 122.454 95.5976 120.913 95.7613C119.738 95.8654 119.189 95.315 117.098 94.4818C113.558 93.0683 111.482 93.2023 111.452 92.622C111.421 92.0418 114.122 91.1342 116.64 91.0151C118.644 91.0689 120.639 91.2829 122.607 91.6549C123.461 91.7442 123.736 91.7442 127.642 91.9376C135.654 92.3393 136.631 92.4137 136.692 92.6815C136.829 93.2766 132.129 94.2289 131.595 94.3479Z" fill="#F9DC08"/>
<path d="M96.1155 74.664C97.1734 74.2704 98.2947 74.0638 99.4269 74.054C101.701 74.054 102.158 75.0806 103.654 74.7533C105.5 74.3665 105.561 72.834 107.164 72.6257C108.385 72.4621 108.949 73.2655 111.101 74.4706C114.763 76.5238 116.915 76.3304 116.945 77.1785C116.976 78.0265 114.199 79.3507 111.589 79.5292C109.56 79.678 108.873 79.1126 105.409 78.6068C104.524 78.4729 104.249 78.458 100.205 78.1753C91.9038 77.595 90.8967 77.4909 90.8356 77.0892C90.6983 76.1519 95.5052 74.798 96.1155 74.664Z" fill="#DDB407"/>
<path d="M108.111 99.957C109.349 100.221 110.612 100.36 111.88 100.374C114.459 100.374 114.932 99.6594 116.687 99.8826C118.777 100.165 118.854 101.207 120.669 101.37C122.058 101.475 122.699 100.924 125.156 100.091C129.307 98.6923 131.748 98.8262 131.794 98.246C131.84 97.6657 128.742 96.7582 125.69 96.6243C123.344 96.6922 121.004 96.9058 118.686 97.264C117.679 97.3533 117.358 97.3533 112.765 97.5616C103.334 97.9633 102.175 98.0377 102.083 98.3055C101.961 98.8114 107.47 99.7784 108.111 99.957Z" fill="#DDB407"/>
<path d="M131.106 95.1067C130.065 95.3737 128.994 95.5186 127.917 95.5382C125.72 95.5382 125.262 94.824 123.812 95.0472C122.042 95.315 121.981 96.3565 120.424 96.535C119.249 96.654 118.7 96.1035 116.609 95.2704C113.084 93.8569 111.009 93.9908 110.963 93.4106C110.917 92.8303 113.634 91.9227 116.152 91.8037C118.154 91.8573 120.15 92.0663 122.118 92.4286C122.973 92.5179 123.247 92.5328 127.154 92.7262C135.181 93.1279 136.157 93.2023 136.218 93.4701C136.34 94.0057 131.656 95.0025 131.106 95.1067Z" fill="#DDB407"/>
<path d="M120.561 73.5482C119.514 73.8104 118.438 73.9502 117.357 73.9648C115.159 73.9648 114.717 73.2506 113.267 73.4738C111.482 73.7565 111.42 74.798 109.879 74.9616C108.704 75.0658 108.155 74.5152 106.064 73.6821C102.524 72.2835 100.449 72.4174 100.418 71.8372C100.388 71.2569 103.089 70.3494 105.606 70.2155C107.609 70.2842 109.603 70.4981 111.573 70.8552C112.428 70.9445 112.702 70.9445 116.609 71.1528C124.62 71.5545 125.597 71.6289 125.658 71.8967C125.795 72.477 121.111 73.4291 120.561 73.5482Z" fill="#DDB407"/>
<path d="M119.342 82.3115C118.295 82.5737 117.219 82.7136 116.138 82.7281C113.94 82.7281 113.498 82.0139 112.048 82.2371C110.263 82.5198 110.202 83.5612 108.66 83.7249C107.485 83.8291 106.936 83.2786 104.845 82.4454C101.305 81.0469 99.2296 81.1807 99.1991 80.6005C99.1686 80.0202 101.87 79.1127 104.387 78.9788C106.39 79.0399 108.385 79.2538 110.354 79.6185C111.209 79.7078 111.483 79.7078 115.39 79.9161C123.401 80.3178 124.378 80.3773 124.439 80.6451C124.576 81.2402 119.922 82.1925 119.342 82.3115Z" fill="#DDB407"/>
<path d="M119.831 81.5377C118.785 81.8072 117.708 81.9472 116.626 81.9543C114.429 81.9543 113.986 81.2401 112.521 81.4781C110.751 81.7459 110.69 82.7874 109.134 82.966C107.959 83.085 107.409 82.5345 105.334 81.7013C101.794 80.2879 99.7184 80.4218 99.6879 79.8416C99.6574 79.2613 102.343 78.3538 104.876 78.2198C106.874 78.2888 108.863 78.5027 110.828 78.8596C111.682 78.9489 111.957 78.9637 115.863 79.1571C123.89 79.5589 124.867 79.6332 124.928 79.9011C125.05 80.4664 120.365 81.4335 119.831 81.5377Z" fill="#F9DC08"/>
<path d="M108.584 99.1089C109.823 99.3752 111.086 99.5197 112.354 99.5404C114.933 99.5404 115.406 98.8262 117.176 99.0494C119.266 99.3172 119.343 100.359 121.159 100.537C122.532 100.656 123.188 100.106 125.645 99.2726C129.796 97.8591 132.237 97.993 132.283 97.4128C132.329 96.8325 129.14 95.9249 126.179 95.8059C123.828 95.8599 121.482 96.0687 119.16 96.4308C118.168 96.5201 117.832 96.5349 113.239 96.7284C103.808 97.1301 102.664 97.2045 102.557 97.4723C102.435 98.0525 107.959 99.0047 108.584 99.1089Z" fill="#F9DC08"/>
<path d="M121.05 72.7745C120.004 73.0441 118.927 73.184 117.845 73.1911C115.648 73.1911 115.205 72.4918 113.74 72.715C111.97 72.9828 111.909 74.0243 110.353 74.2028C109.178 74.3218 108.628 73.7713 106.553 72.9382C103.013 71.5247 100.937 71.6586 100.907 71.0784C100.876 70.4981 103.562 69.5906 106.095 69.4567C108.093 69.5256 110.082 69.7395 112.047 70.0964C112.901 70.1857 113.176 70.2006 117.082 70.394C125.109 70.7957 126.086 70.8701 126.147 71.1379C126.269 71.6884 121.584 72.6704 121.05 72.7745Z" fill="#F9DC08"/>
<path d="M93.6133 101.326C94.1346 101.525 94.6867 101.635 95.2461 101.653C96.3753 101.653 96.6042 101.103 97.352 101.266C98.0997 101.43 98.2828 102.293 99.0763 102.397C99.8699 102.501 99.9614 102.07 101.03 101.43C102.846 100.344 103.898 100.448 103.929 99.9421C103.96 99.4363 102.556 98.7965 101.274 98.6924C100.24 98.7401 99.2161 98.9049 98.2218 99.1834C97.7792 99.2578 97.6419 99.2578 95.6429 99.4066C91.538 99.719 91.0649 99.7785 91.0649 99.9868C90.9276 100.508 93.3386 101.237 93.6133 101.326Z" fill="#F9DC08"/>
<path d="M110.933 90.5241C110.434 90.3937 109.922 90.3188 109.407 90.3009C108.323 90.3009 108.094 90.6878 107.377 90.5687C106.66 90.4497 106.477 89.8695 105.699 89.7951C104.92 89.7207 104.844 90.0182 103.822 90.4646C102.067 91.2085 101.044 91.1341 101.029 91.4465C101.014 91.759 102.341 92.2202 103.593 92.2946C104.582 92.2614 105.568 92.1469 106.538 91.9524C106.965 91.9524 107.102 91.9524 109.04 91.8036C112.993 91.5953 113.481 91.5507 113.512 91.4168C113.542 91.2829 111.192 90.5836 110.933 90.5241Z" fill="#F9DC08"/>
<path d="M93.3678 100.924C93.8927 101.126 94.4514 101.232 95.0158 101.236C96.1298 101.236 96.3587 100.701 97.1064 100.864C97.8542 101.028 98.0525 101.876 98.8461 101.995C99.6396 102.114 99.7311 101.653 100.799 101.013C102.6 99.9271 103.668 100.031 103.683 99.5254C103.699 99.0195 102.325 98.3798 101.028 98.2905C99.9948 98.3382 98.9706 98.503 97.9762 98.7815C97.5337 98.8559 97.3964 98.8559 95.3973 99.0047C91.2924 99.3171 90.8194 99.3766 90.8194 99.57C90.6973 100.106 93.0931 100.835 93.3678 100.924Z" fill="#DDB407"/>
<path d="M110.766 90.1224C110.268 89.9911 109.756 89.9162 109.24 89.8992C108.156 89.8992 107.943 90.2712 107.225 90.1522C106.508 90.0331 106.31 89.4677 105.547 89.3933C104.784 89.319 104.692 89.6165 103.655 90.0629C101.915 90.8068 100.877 90.7324 100.862 91.03C100.847 91.3275 102.174 91.8185 103.426 91.8929C104.42 91.8522 105.41 91.7378 106.386 91.5507C106.798 91.5507 106.936 91.5507 108.874 91.4019C112.841 91.1787 113.329 91.149 113.345 91.0002C113.36 90.8514 110.964 90.1819 110.766 90.1224Z" fill="#DDB407"/>
<path d="M105.469 101.445C104.971 101.314 104.459 101.239 103.943 101.222C102.86 101.222 102.646 101.608 101.914 101.489C101.181 101.37 101.014 100.79 100.251 100.716C99.4876 100.641 99.396 100.939 98.3584 101.385C96.6035 102.129 95.5811 102.055 95.5658 102.352C95.5506 102.65 96.8782 103.141 98.1295 103.215C99.1238 103.175 100.113 103.06 101.09 102.873C101.502 102.873 101.639 102.873 103.577 102.724C107.545 102.501 108.018 102.471 108.048 102.323C108.079 102.174 105.744 101.549 105.469 101.445Z" fill="#DDB407"/>
<path d="M105.103 97.2788C104.605 97.1484 104.093 97.0735 103.577 97.0556C102.493 97.0556 102.28 97.4276 101.563 97.3085C100.845 97.1895 100.647 96.6242 99.884 96.5349C99.121 96.4456 99.0295 96.7729 97.9918 97.2044C96.2369 97.9483 95.2145 97.8888 95.1992 98.1864C95.184 98.4839 96.5116 98.9749 97.7629 99.0344C98.7575 99.0082 99.7479 98.8987 100.723 98.7071C101.135 98.7071 101.273 98.7071 103.211 98.5434C107.178 98.3351 107.651 98.3054 107.682 98.1566C107.712 98.0078 105.378 97.3383 105.103 97.2788Z" fill="#F9DC08"/>
<path d="M105.714 101.891C105.216 101.761 104.704 101.686 104.188 101.668C103.104 101.668 102.876 102.055 102.158 101.936C101.441 101.817 101.243 101.237 100.48 101.162C99.7167 101.088 99.6252 101.385 98.6028 101.832C96.8479 102.576 95.8255 102.501 95.8102 102.814C95.795 103.126 97.1226 103.602 98.3739 103.662C99.3637 103.628 100.349 103.514 101.319 103.32C101.746 103.32 101.884 103.319 103.806 103.171C107.774 102.962 108.262 102.918 108.293 102.784C108.323 102.65 105.973 101.951 105.714 101.891Z" fill="#F9DC08"/>
<path d="M130.343 70.3939C129.886 70.2441 129.407 70.1687 128.924 70.1707C127.948 70.1707 127.749 70.5576 127.108 70.4385C126.467 70.3195 126.284 69.7095 125.582 69.6351C124.88 69.5607 124.819 69.8731 123.888 70.3195C122.362 71.0932 121.386 71.0188 121.371 71.3312C121.355 71.6437 122.561 72.1495 123.675 72.2091C124.57 72.1838 125.459 72.0691 126.33 71.8668C126.712 71.8668 126.834 71.8669 128.573 71.7032C132.144 71.48 132.571 71.4502 132.602 71.3015C132.632 71.1527 130.603 70.4534 130.343 70.3939Z" fill="#F9DC08"/>
<path d="M119.921 67.3885C120.462 67.2382 121.022 67.1631 121.584 67.1653C122.744 67.1653 122.973 67.5522 123.736 67.4183C124.499 67.2844 124.697 66.7041 125.506 66.6297C126.315 66.5553 126.406 66.8678 127.49 67.3141C129.351 68.0878 130.435 68.0134 130.45 68.3258C130.465 68.6383 129.061 69.1292 127.734 69.2036C126.709 69.1604 125.69 69.0461 124.682 68.8615C124.239 68.8615 124.087 68.8614 122.042 68.6978C117.845 68.4746 117.342 68.4449 117.311 68.2961C117.281 68.1473 119.616 67.448 119.921 67.3885Z" fill="#DDB407"/>
<path d="M130.129 69.9774C129.672 69.8276 129.192 69.7522 128.71 69.7542C127.733 69.7542 127.535 70.1411 126.894 70.0071C126.253 69.8732 126.07 69.293 125.368 69.2186C124.666 69.1442 124.605 69.4566 123.674 69.903C122.148 70.6767 121.171 70.6023 121.156 70.9147C121.141 71.2272 122.346 71.7182 123.46 71.7925C124.354 71.752 125.242 71.6375 126.115 71.4503C126.497 71.4503 126.619 71.4503 128.359 71.2867C131.929 71.0635 132.357 71.0337 132.387 70.885C132.418 70.7362 130.373 70.0369 130.129 69.9774Z" fill="#DDB407"/>
<path d="M120.12 67.8052C120.661 67.6549 121.221 67.5797 121.784 67.582C122.944 67.582 123.172 67.9688 123.935 67.8349C124.698 67.701 124.897 67.1208 125.706 67.0464C126.514 66.972 126.606 67.2844 127.705 67.7308C129.551 68.5044 130.635 68.43 130.65 68.7425C130.665 69.0549 129.261 69.5459 127.934 69.6203C126.909 69.577 125.889 69.4627 124.882 69.2781C124.439 69.2781 124.286 69.2781 122.242 69.1144C118.06 68.8912 117.542 68.8615 117.511 68.7127C117.481 68.5639 119.831 67.8647 120.12 67.8052Z" fill="#F9DC08"/>
<path d="M115.434 74.5748C114.915 74.7533 115.006 74.8277 114.381 75.0509C113.521 75.3099 112.624 75.4305 111.725 75.408C109.97 75.408 109.467 75.2741 109.36 75.5121C109.253 75.7502 110.032 76.7619 111.069 76.9999C111.741 77.1487 112.198 76.9255 113.251 76.628C114.302 76.3181 115.38 76.1039 116.471 75.9882C118.806 75.8097 120.24 76.8214 120.454 76.4494C120.668 76.0775 119.767 75.2443 118.836 74.783C117.772 74.289 116.553 74.2144 115.434 74.5748Z" fill="#FFF097"/>
<path d="M115.527 78.1008C115.023 78.3537 115.176 78.7852 114.581 79.3059C113.619 80.1391 112.353 79.7969 112.292 80.1391C112.231 80.4813 113.207 81.1359 114.092 80.9723C114.977 80.8086 115.145 79.5589 116.381 79.1125C117.617 78.6662 118.304 79.291 118.365 79.1125C118.426 78.934 116.58 77.5503 115.527 78.1008Z" fill="#FFF097"/>
<path d="M97.0302 78.9341C98.7088 78.6514 99.3192 78.7853 100.448 78.5621C102.096 78.2646 101.883 77.7736 103.195 77.5504C104.896 77.5621 106.577 77.9061 108.139 78.5621C110.291 79.2316 110.505 79.4102 110.505 79.5887C110.505 80.1243 108.75 80.779 107.086 80.8831C105.423 80.9873 105.271 80.5112 103.775 80.6004C101.898 80.7195 101.73 81.4782 100.158 81.627C97.61 81.8502 95.0769 80.1392 95.2295 79.4995C95.2295 79.2465 95.8246 79.1275 97.0302 78.9341Z" fill="#F2DC72"/>
<path d="M115.496 74.9615C114.977 75.1252 115.069 75.2145 114.443 75.4228C113.585 75.6894 112.688 75.8151 111.788 75.7947C110.033 75.7947 109.529 75.6459 109.423 75.884C109.316 76.122 110.094 77.1338 111.132 77.3718C111.803 77.5206 112.261 77.2974 113.314 76.9998C114.366 76.6903 115.443 76.4712 116.534 76.3452C118.869 76.1667 120.303 77.1784 120.517 76.8064C120.73 76.4345 119.83 75.6013 118.899 75.1401C117.831 74.6558 116.612 74.5919 115.496 74.9615Z" fill="#F2DC72"/>
<path d="M115.586 78.4728C115.083 78.7257 115.235 79.1572 114.64 79.6779C113.679 80.5111 112.412 80.1838 112.351 80.5111C112.29 80.8384 113.267 81.5079 114.167 81.3442C115.068 81.1806 115.205 79.9308 116.441 79.4994C117.677 79.0679 118.364 79.663 118.425 79.4994C118.486 79.3357 116.639 77.9223 115.586 78.4728Z" fill="#F2DC72"/>
<path d="M123.506 76.3155L122.484 76.9255C121.248 77.6843 121.171 77.7438 120.958 77.7735C120.088 77.9223 119.615 77.3272 119.233 77.6247C119.084 77.7652 118.99 77.9524 118.967 78.1537C118.945 78.3549 118.996 78.5574 119.111 78.7258C119.111 78.815 119.417 79.0233 121.461 78.7258C121.958 78.587 122.471 78.507 122.987 78.4877C123.796 78.5621 124.04 78.9191 124.742 78.8745C125.444 78.8299 125.337 78.6216 125.963 78.4133C127.108 78.0413 127.489 78.5621 129.183 78.3389C130.404 78.1753 130.709 77.8331 130.709 77.7289C130.836 77.5551 130.904 77.3471 130.904 77.1338C130.904 76.9205 130.836 76.7125 130.709 76.5387C130.327 76.2262 129.732 76.7469 128.511 76.8511C127.865 76.8509 127.221 76.7861 126.589 76.6577C124.681 76.3304 124.254 76.0328 123.506 76.3155Z" fill="#F2DC72"/>
<path d="M96.9259 78.3092C98.6044 78.0117 99.1996 78.1605 100.344 77.9373C101.992 77.6248 101.779 77.1487 103.091 76.9255C104.792 76.9373 106.473 77.2813 108.035 77.9373C110.187 78.5919 110.4 78.7705 110.4 78.9639C110.4 79.4995 108.645 80.1541 106.982 80.2583C105.319 80.3624 105.166 79.8863 103.655 79.9756C101.794 80.0946 101.626 80.8534 100.054 80.9873C97.5057 81.2254 94.9726 79.4995 95.1252 78.8597C95.171 78.6217 95.7661 78.5175 96.9259 78.3092Z" fill="#FFF097"/>
<path d="M123.447 75.8096L122.424 76.4196C121.188 77.1784 121.112 77.2379 120.898 77.2677C120.028 77.4165 119.555 76.8213 119.174 77.1189C119.024 77.2593 118.93 77.4465 118.908 77.6478C118.885 77.849 118.936 78.0516 119.052 78.2199C119.052 78.3092 119.357 78.5175 121.402 78.2199C121.899 78.0811 122.411 78.0012 122.928 77.9818C123.737 78.0562 123.981 78.4133 124.683 78.3686C125.385 78.324 125.262 78.1157 125.903 77.9074C127.048 77.5355 127.429 78.0562 129.123 77.8331C130.344 77.6694 130.649 77.3272 130.649 77.223C130.776 77.0492 130.844 76.8412 130.844 76.6279C130.844 76.4146 130.776 76.2066 130.649 76.0328C130.268 75.7204 129.673 76.2411 128.452 76.3452C127.806 76.3457 127.161 76.2808 126.529 76.1518C124.606 75.8245 124.194 75.5269 123.447 75.8096Z" fill="#FFF097"/>
<path d="M132.769 65.9156C133.059 66.1388 132.983 66.5107 133.333 66.9719C133.898 67.701 134.646 67.4034 134.676 67.701C134.622 67.9295 134.482 68.1302 134.285 68.2648C134.088 68.3993 133.847 68.4582 133.608 68.43C132.998 68.2515 132.998 67.1951 132.265 66.8083C131.533 66.4215 131.121 66.9571 131.09 66.8083C131.06 66.6595 132.128 65.4246 132.769 65.9156Z" fill="#F9E258"/>
<path d="M132.785 63.1631C133.09 63.3119 133.044 63.3714 133.41 63.5648C133.888 63.782 134.409 63.8937 134.936 63.8921C135.974 63.8921 136.279 63.7582 136.34 63.9665C136.401 64.1748 135.943 65.0675 135.333 65.2609C134.723 65.4543 134.661 65.2609 134.036 64.9485C133.429 64.6744 132.788 64.4793 132.128 64.3682C130.74 64.2194 129.885 65.1121 129.763 64.7848C129.641 64.4575 130.175 63.7284 130.724 63.297C131.018 63.0843 131.369 62.9585 131.734 62.9348C132.1 62.911 132.464 62.9903 132.785 63.1631Z" fill="#F2DC72"/>
<path d="M132.74 66.2429C133.03 66.4661 132.939 66.838 133.29 67.2992C133.869 68.0283 134.617 67.7456 134.648 68.0283C134.596 68.2585 134.458 68.4613 134.26 68.5964C134.062 68.7315 133.819 68.7889 133.579 68.7573C132.954 68.5788 132.954 67.5224 132.221 67.1356C131.489 66.7488 131.092 67.2844 131.046 67.1356C131.001 66.9868 132.13 65.737 132.74 66.2429Z" fill="#F2DC72"/>
<path d="M128.04 64.3534L128.65 64.889C129.383 65.5437 129.429 65.5883 129.551 65.6329C130.07 65.7519 130.344 65.2461 130.573 65.4841C130.652 65.6363 130.694 65.8045 130.694 65.9751C130.694 66.1457 130.652 66.3139 130.573 66.4661C130.573 66.5405 130.39 66.719 129.169 66.4661C128.498 66.3024 128.498 66.2281 128.269 66.2578C127.781 66.2578 127.643 66.6298 127.216 66.6C126.789 66.5702 126.88 66.3768 126.499 66.1983C125.827 65.871 125.568 66.3173 124.591 66.1239C123.874 65.99 123.737 65.6776 123.691 65.5883C123.615 65.4246 123.576 65.2471 123.576 65.0675C123.576 64.888 123.615 64.7105 123.691 64.5468C123.92 64.279 124.271 64.7254 125.003 64.8146C125.386 64.8208 125.768 64.7655 126.133 64.651C127.353 64.3683 127.552 64.1005 128.04 64.3534Z" fill="#F2DC72"/>
<path d="M128.071 63.907L128.682 64.4426C129.414 65.0973 129.46 65.1419 129.582 65.1865C130.101 65.3056 130.376 64.7997 130.605 65.0526C130.687 65.201 130.731 65.3672 130.731 65.5362C130.731 65.7051 130.687 65.8713 130.605 66.0197C130.605 66.0941 130.421 66.2875 129.216 66.0197C128.529 65.8561 128.529 65.7816 128.3 65.8114C127.827 65.8114 127.675 66.1834 127.263 66.1536C126.851 66.1239 126.912 65.9305 126.545 65.7519C125.859 65.4246 125.615 65.8709 124.638 65.6775C123.921 65.5436 123.768 65.2461 123.722 65.1419C123.646 64.9785 123.606 64.8009 123.606 64.6212C123.606 64.4414 123.646 64.2638 123.722 64.1004C123.936 63.8326 124.287 64.2789 125.019 64.3682C125.407 64.3739 125.794 64.3186 126.164 64.2046C127.385 63.9219 127.644 63.6541 128.071 63.907Z" fill="#F9E258"/>
<path d="M132.83 62.7614C133.136 62.9102 133.075 62.9846 133.441 63.1631C133.914 63.3922 134.438 63.5046 134.967 63.4905C136.004 63.4905 136.31 63.3714 136.371 63.5797C136.432 63.788 135.974 64.6807 135.364 64.8742C134.753 65.0676 134.692 64.8742 134.066 64.5468C133.456 64.2839 132.816 64.0941 132.159 63.9815C130.77 63.8327 129.931 64.7105 129.794 64.3832C129.656 64.0558 130.206 63.3268 130.755 62.8953C131.051 62.6813 131.405 62.5549 131.773 62.5312C132.14 62.5075 132.508 62.5874 132.83 62.7614Z" fill="#F9E258"/>
<path d="M97.9162 68.2217C97.6721 68.3407 97.7178 68.4002 97.4126 68.549C97.003 68.7381 96.5533 68.8299 96.1003 68.8168C95.2457 68.8168 94.9863 68.7127 94.9405 68.8168C94.8948 68.921 95.2763 69.7244 95.7798 69.8732C96.2834 70.0219 96.3292 69.8731 96.848 69.6202C97.3338 69.402 97.8468 69.2469 98.374 69.159C99.5185 69.0251 100.22 69.7541 100.327 69.4863C100.434 69.2185 99.9916 68.6234 99.5338 68.2961C99.2985 68.137 99.022 68.0456 98.736 68.0324C98.4499 68.0193 98.1658 68.0849 97.9162 68.2217Z" fill="#F2DC72"/>
<path d="M102.097 69.1888L101.593 69.6351C100.983 70.1707 100.953 70.2005 100.846 70.2302C100.418 70.3344 100.19 69.9178 99.9912 70.1261C99.9231 70.2469 99.8873 70.3825 99.8873 70.5204C99.8873 70.6582 99.9231 70.7939 99.9912 70.9147C99.9912 70.9147 100.144 71.123 101.151 70.9147C101.716 70.7808 101.716 70.7361 101.899 70.751C102.311 70.751 102.418 71.0634 102.768 71.0337C103.119 71.0039 103.058 70.8402 103.364 70.6915C103.928 70.4385 104.142 70.7956 104.89 70.6915C105.637 70.5873 105.607 70.3344 105.637 70.2451C105.698 70.1117 105.73 69.9672 105.73 69.8211C105.73 69.675 105.698 69.5305 105.637 69.3971C105.454 69.1888 105.164 69.5458 104.554 69.6202C104.233 69.6243 103.914 69.5791 103.608 69.4863C102.662 69.2036 102.463 68.9954 102.097 69.1888Z" fill="#F2DC72"/>
<path d="M101.822 68.8316L101.319 69.2631C100.708 69.7987 100.678 69.8434 100.571 69.8731C100.144 69.9773 99.9149 69.5607 99.7318 69.7541C99.6637 69.8776 99.628 70.0156 99.628 70.1558C99.628 70.296 99.6637 70.434 99.7318 70.5575C99.7318 70.5575 99.8844 70.7658 100.892 70.5575C101.441 70.4236 101.441 70.3641 101.639 70.3939C101.838 70.4236 102.158 70.6914 102.509 70.6617C102.86 70.6319 102.784 70.4831 103.104 70.3343C103.669 70.0665 103.867 70.4385 104.63 70.3343C105.393 70.2302 105.347 69.9772 105.393 69.9029C105.458 69.7705 105.492 69.6256 105.492 69.4789C105.492 69.3321 105.458 69.1872 105.393 69.0548C105.21 68.8317 104.92 69.2036 104.325 69.278C104.004 69.2821 103.685 69.2369 103.379 69.1441C102.402 68.8465 102.189 68.6233 101.822 68.8316Z" fill="#F9E258"/>
<path d="M97.8864 67.954C97.6423 68.073 97.688 68.1325 97.3828 68.2813C96.9732 68.4704 96.5235 68.5622 96.0705 68.5491C95.2159 68.5491 94.9565 68.445 94.9107 68.5491C94.865 68.6533 95.2465 69.4418 95.75 69.6055C96.2536 69.7691 96.2994 69.6055 96.8182 69.3377C97.3089 69.1323 97.8204 68.9777 98.3442 68.8764C99.4887 68.7574 100.191 69.4716 100.297 69.2186C100.404 68.9657 99.9618 68.3557 99.504 68.0284C99.2687 67.8693 98.9922 67.7779 98.7061 67.7647C98.4201 67.7516 98.136 67.8171 97.8864 67.954Z" fill="#F9E258"/>
<path d="M134.586 91.997C133.213 92.3244 132.709 92.1756 131.779 92.4136C130.42 92.7707 130.604 93.3212 129.505 93.5741C128.681 93.7675 127.582 93.3212 125.446 92.4136C123.66 91.6697 123.492 91.4614 123.492 91.2531C123.492 90.6431 125.018 89.8992 126.3 89.7653C127.582 89.6314 127.826 90.1819 129.047 90.0777C130.573 89.9438 130.726 89.0809 132.008 88.9172C134.113 88.6494 136.189 90.6134 136.082 91.3424C136.036 91.6548 135.548 91.759 134.586 91.997Z" fill="#F2DC72"/>
<path d="M112.733 94.9727L113.573 94.2734C114.595 93.4253 114.656 93.3658 114.839 93.3212C115.556 93.1576 115.938 93.8122 116.258 93.4997C116.385 93.3149 116.46 93.101 116.476 92.8792C116.492 92.6575 116.449 92.4355 116.35 92.2351C116.35 92.1309 116.106 91.8929 114.412 92.2351C113.481 92.4434 113.481 92.5327 113.161 92.488C112.489 92.4136 112.275 92.0119 111.635 92.0566C110.994 92.1012 111.161 92.3392 110.643 92.5773C109.697 93.0088 109.346 92.4136 107.987 92.6666C106.98 92.8451 106.782 93.2319 106.721 93.3658C106.613 93.5735 106.558 93.8028 106.558 94.0353C106.558 94.2679 106.613 94.4972 106.721 94.7049C107.041 95.062 107.53 94.4817 108.537 94.3627C109.054 94.3609 109.569 94.4362 110.063 94.5859C111.772 94.9578 112.123 95.2851 112.733 94.9727Z" fill="#F2DC72"/>
<path d="M134.646 92.7112C133.258 93.0385 132.769 92.8897 131.823 93.1277C130.465 93.4848 130.648 94.0353 129.565 94.2882C128.726 94.4817 127.642 94.0353 125.49 93.1277C123.72 92.3838 123.537 92.1755 123.537 91.9672C123.537 91.3572 124.987 90.6133 126.36 90.4794C127.734 90.3455 127.886 90.9109 129.092 90.8068C130.618 90.6728 130.77 89.8099 132.067 89.6463C134.158 89.3784 136.249 91.3424 136.127 92.0565C136.081 92.369 135.608 92.5177 134.646 92.7112Z" fill="#FFF097"/>
<path d="M112.795 95.4936C112.795 95.4936 113.085 95.2555 113.635 94.7943C114.657 93.9313 114.718 93.8719 114.886 93.8421C115.603 93.6636 115.985 94.3331 116.305 94.0057C116.434 93.8251 116.512 93.6143 116.531 93.3949C116.55 93.1754 116.509 92.955 116.412 92.756C116.412 92.6518 116.152 92.4138 114.474 92.756C113.528 92.9791 113.528 93.0684 113.207 93.0238C112.536 93.0238 112.337 92.5328 111.758 92.5923C111.178 92.6518 111.269 92.875 110.75 93.113C109.804 93.5296 109.453 92.9494 108.095 93.2023C107.103 93.3808 106.89 93.7677 106.844 93.8867C106.734 94.0963 106.677 94.3283 106.677 94.5637C106.677 94.799 106.734 95.031 106.844 95.2406C107.149 95.5977 107.637 95.0175 108.645 94.8984C109.161 94.8958 109.675 94.9659 110.171 95.1067C111.834 95.4935 112.17 95.8655 112.795 95.4936Z" fill="#FFF097"/>
<path d="M96.6805 97.502C96.1617 97.3383 96.2533 97.2639 95.6276 97.0556C94.7669 96.8031 93.8711 96.6826 92.9724 96.6986C91.2175 96.6986 90.7139 96.8325 90.6071 96.6093C90.5003 96.3861 91.2785 95.3893 92.3162 95.1215C93.0642 95.0618 93.8155 95.1898 94.4984 95.4934C95.5519 95.7887 96.629 95.9977 97.7182 96.1183C100.068 96.282 101.503 95.3 101.701 95.672C101.899 96.0439 101.014 96.8325 100.099 97.2788C99.0319 97.7818 97.8066 97.8617 96.6805 97.502Z" fill="#FFF097"/>
<path d="M93.8735 94.2735C93.3852 94.0355 93.5225 93.6189 92.9274 93.113C91.966 92.2947 90.7147 92.622 90.6537 92.3096C90.5926 91.9972 91.5692 91.3277 92.4543 91.4913C93.3394 91.655 93.492 92.8601 94.728 93.2916C95.9641 93.723 96.666 93.1279 96.7271 93.2916C96.3998 93.7067 95.956 94.0205 95.4495 94.1948C94.943 94.369 94.3956 94.3964 93.8735 94.2735Z" fill="#FFF097"/>
<path d="M96.7401 97.145C96.2213 96.9813 96.3129 96.907 95.7025 96.6987C94.8393 96.4325 93.9371 96.3068 93.032 96.3267C91.2771 96.3267 90.7735 96.4755 90.6667 96.2374C90.5599 95.9994 91.3381 95.0174 92.3758 94.7496C93.1229 94.6754 93.8767 94.7988 94.558 95.1067C95.6097 95.4094 96.6874 95.6186 97.7778 95.7316C100.128 95.9101 101.562 94.9281 101.776 95.2852C101.99 95.6423 101.074 96.4606 100.158 96.907C99.0876 97.3931 97.8708 97.4778 96.7401 97.145Z" fill="#F2DC72"/>
<path d="M93.9808 93.9165C93.4925 93.6636 93.6298 93.2469 93.0347 92.7411C92.0733 91.9377 90.822 92.2501 90.7609 91.9377C90.6999 91.6252 91.6765 90.9557 92.5616 91.1194C93.4467 91.283 93.5993 92.503 94.8353 92.9196C96.0714 93.3362 96.7733 92.756 96.8344 92.9196C96.5064 93.3346 96.0632 93.6491 95.5574 93.8258C95.0516 94.0025 94.5044 94.0339 93.9808 93.9165Z" fill="#F2DC72"/>
<path d="M41.8832 65.99C41.4126 66.2599 41.0131 66.6331 40.7164 67.0799C40.4197 67.5267 40.234 68.0349 40.1741 68.5639C40.1938 69.4211 40.5305 70.2424 41.1221 70.8767C41.7138 71.511 42.5206 71.9155 43.3939 72.0157C45.8355 72.224 48.0787 69.3227 47.4225 67.463C46.7663 65.6032 43.8059 64.9188 41.8832 65.99Z" fill="white" stroke="#FC542D" stroke-width="0.25" stroke-miterlimit="10"/>
<path d="M42.6137 67.4183C42.1403 67.6865 41.7378 68.0589 41.4384 68.5059C41.139 68.9528 40.951 69.4618 40.8894 69.9922C40.9132 70.8491 41.2537 71.6687 41.8481 72.3002C42.4425 72.9317 43.2509 73.3326 44.1245 73.4291C44.7127 73.4328 45.2949 73.3126 45.8312 73.0769C46.3675 72.8412 46.8453 72.4955 47.2321 72.0634C47.6188 71.6312 47.9054 71.1228 48.0722 70.5728C48.2391 70.0228 48.2823 69.4441 48.1989 68.8764C47.5579 67.2249 44.5365 66.3322 42.6137 67.4183Z" stroke="#FC542D" stroke-width="0.25" stroke-miterlimit="10"/>
<path d="M43.4241 69.0252C42.9573 69.2994 42.5608 69.6737 42.2647 70.1197C41.9685 70.5657 41.7805 71.0717 41.715 71.5991C41.7378 72.4553 42.0756 73.275 42.6667 73.9086C43.2577 74.5423 44.0627 74.9477 44.9348 75.0509C47.3764 75.2592 49.6196 72.3579 48.9634 70.4981C48.3072 68.6384 45.3468 67.9539 43.4241 69.0252Z" stroke="#FC542D" stroke-width="0.25" stroke-miterlimit="10"/>
<path d="M53.5725 65.5436C53.1019 65.8135 52.7024 66.1867 52.4057 66.6335C52.109 67.0803 51.9233 67.5885 51.8634 68.1176C51.8799 68.9756 52.2155 69.7987 52.8078 70.4336C53.4 71.0685 54.2086 71.4721 55.0832 71.5693C57.5248 71.7776 59.768 68.8763 59.1118 67.0165C58.4557 65.1568 55.4952 64.4724 53.5725 65.5436Z" fill="#FCAB75" stroke="#FC542D" stroke-width="0.25" stroke-miterlimit="10"/>
<path d="M54.303 66.972C53.8296 67.2402 53.4271 67.6126 53.1277 68.0596C52.8283 68.5065 52.6403 69.0155 52.5787 69.546C52.603 70.4051 52.9456 71.2266 53.5432 71.8584C54.1407 72.4902 54.9527 72.8897 55.829 72.9828C56.4147 72.9822 56.9934 72.8589 57.526 72.6214C58.0586 72.3838 58.5327 72.0375 58.9161 71.6058C59.2995 71.1741 59.5834 70.6672 59.7484 70.1193C59.9135 69.5715 59.956 68.9954 59.8729 68.4301C59.232 66.734 56.2258 65.8859 54.303 66.972Z" stroke="#FC542D" stroke-width="0.25" stroke-miterlimit="10"/>
<path d="M55.1134 68.5788C54.6444 68.8505 54.2461 69.2241 53.9496 69.6706C53.6531 70.1171 53.4665 70.6243 53.4043 71.1528C53.406 72.0211 53.735 72.8586 54.3286 73.506C54.9223 74.1534 55.7392 74.5655 56.6241 74.664C59.0657 74.8723 61.3089 71.971 60.6527 70.1113C59.9965 68.2515 57.0361 67.5076 55.1134 68.5788Z" stroke="#FC542D" stroke-width="0.25" stroke-miterlimit="10"/>
<path d="M65.4887 65.9006C65.0153 66.1688 64.6127 66.5412 64.3133 66.9882C64.0139 67.4351 63.8259 67.9441 63.7643 68.4746C63.7881 69.3314 64.1286 70.151 64.723 70.7825C65.3175 71.414 66.1259 71.8149 66.9994 71.9114C67.5889 71.9172 68.1728 71.7987 68.7109 71.5639C69.2491 71.3292 69.7288 70.9838 70.1173 70.5514C70.5057 70.119 70.7937 69.6098 70.9614 69.0587C71.1291 68.5076 71.1727 67.9277 71.0891 67.3587C70.4329 65.6477 67.4114 64.8145 65.4887 65.9006Z" fill="#F78A4D" stroke="#FC542D" stroke-width="0.25" stroke-miterlimit="10"/>
<path d="M66.2066 67.3141C65.736 67.584 65.3365 67.9572 65.0398 68.404C64.7431 68.8509 64.5574 69.359 64.4975 69.8881C64.514 70.7462 64.8496 71.5692 65.4419 72.2041C66.0341 72.839 66.8428 73.2426 67.7173 73.3398C70.1589 73.5481 72.4021 70.6468 71.746 68.7871C71.0898 66.9273 68.1294 66.228 66.2066 67.3141Z" stroke="#FC542D" stroke-width="0.25" stroke-miterlimit="10"/>
<path d="M67.0296 68.9358C66.5561 69.204 66.1536 69.5764 65.8542 70.0234C65.5548 70.4703 65.3668 70.9794 65.3052 71.5098C65.3258 72.3676 65.6652 73.1889 66.2603 73.821C66.8553 74.4532 67.6655 74.8532 68.5403 74.9467C70.9819 75.1549 73.2251 72.2686 72.5689 70.3939C71.9127 68.5193 68.9523 67.8497 67.0296 68.9358Z" stroke="#FC542D" stroke-width="0.25" stroke-miterlimit="10"/>
<path d="M43.2694 79.5291C42.796 79.7973 42.3935 80.1697 42.0941 80.6166C41.7947 81.0636 41.6067 81.5726 41.5451 82.1031C41.5689 82.9599 41.9094 83.7795 42.5038 84.411C43.0982 85.0425 43.9066 85.4434 44.7802 85.5399C47.2217 85.7482 49.465 82.8618 48.8088 80.9872C48.1526 79.1125 45.1464 78.443 43.2694 79.5291Z" fill="#FCFCFC" stroke="#FC542D" stroke-width="0.25" stroke-miterlimit="10"/>
<path d="M44.095 81.136C43.6239 81.4069 43.2233 81.78 42.9242 82.2264C42.6251 82.6728 42.4357 83.1805 42.3706 83.7099C42.3935 84.5661 42.7313 85.3858 43.3224 86.0195C43.9134 86.6531 44.7184 87.0585 45.5905 87.1617C48.0473 87.37 50.2753 84.4687 49.6344 82.609C48.9934 80.7492 46.0178 80.0648 44.095 81.136Z" stroke="#FC542D" stroke-width="0.25" stroke-miterlimit="10"/>
<path d="M54.9588 79.1275C54.4853 79.3956 54.0828 79.7681 53.7834 80.215C53.484 80.6619 53.296 81.171 53.2344 81.7014C53.2725 82.5478 53.6194 83.3531 54.2125 83.9723C54.8056 84.5915 55.606 84.9838 56.4695 85.0787C57.0451 85.0744 57.6132 84.9516 58.1368 84.7184C58.6604 84.4853 59.1276 84.147 59.5079 83.7257C59.8881 83.3044 60.1729 82.8095 60.3435 82.2735C60.5142 81.7376 60.5668 81.1725 60.4981 80.6153C59.903 78.8448 56.8815 77.9967 54.9588 79.1275Z" fill="#FCAB75" stroke="#FC542D" stroke-width="0.25" stroke-miterlimit="10"/>
<path d="M55.8287 80.6896C55.3619 80.9638 54.9654 81.3382 54.6693 81.7842C54.3732 82.2302 54.1852 82.7361 54.1196 83.2635C54.143 84.122 54.4829 84.9435 55.0771 85.5775C55.6712 86.2115 56.4798 86.6154 57.3547 86.7153C59.7963 86.9236 62.0395 84.0223 61.3833 82.1626C60.7271 80.3028 57.6904 79.6184 55.8287 80.6896Z" stroke="#FC542D" stroke-width="0.25" stroke-miterlimit="10"/>
<path d="M66.8623 79.425C66.394 79.6975 65.9964 80.0714 65.7 80.5177C65.4036 80.964 65.2166 81.4708 65.1532 81.9989C65.1761 82.8551 65.5139 83.6748 66.1049 84.3084C66.696 84.942 67.501 85.3474 68.373 85.4506C70.8146 85.6589 73.0578 82.7577 72.4016 80.8979C71.7455 79.0381 68.785 78.3389 66.8623 79.425Z" fill="#F78A4D" stroke="#FC542D" stroke-width="0.25" stroke-miterlimit="10"/>
<path d="M67.6879 81.0468C67.2196 81.3119 66.8212 81.6799 66.5245 82.1216C66.2278 82.5633 66.0409 83.0664 65.9788 83.5909C65.9925 84.4483 66.3275 85.2712 66.9206 85.9043C67.5138 86.5374 68.3241 86.937 69.1986 87.0278C71.6402 87.2361 73.8834 84.3497 73.2272 82.475C72.5711 80.6004 69.5648 79.9606 67.6879 81.0468Z" stroke="#FC542D" stroke-width="0.25" stroke-miterlimit="10"/>
<path d="M42.5389 78.1009C42.0781 78.3673 41.6851 78.7319 41.3891 79.1673C41.0932 79.6027 40.9019 80.0977 40.8298 80.6153C40.8526 81.4715 41.1904 82.2911 41.7815 82.9248C42.3725 83.5584 43.1775 83.9638 44.0496 84.067C46.4912 84.2753 48.7344 81.3741 48.0782 79.5143C47.422 77.6545 44.4616 77.0296 42.5389 78.1009Z" stroke="#FC542D" stroke-width="0.25" stroke-miterlimit="10"/>
<path d="M54.3027 77.6397C53.8321 77.9095 53.4326 78.2827 53.1359 78.7296C52.8392 79.1764 52.6535 79.6845 52.5936 80.2136C52.6101 81.0717 52.9457 81.8947 53.538 82.5296C54.1302 83.1645 54.9388 83.5681 55.8134 83.6653C58.255 83.8736 60.4982 80.9724 59.842 79.1126C59.1859 77.2528 56.1491 76.5833 54.3027 77.6397Z" stroke="#FC542D" stroke-width="0.25" stroke-miterlimit="10"/>
<path d="M66.1444 78.0116C65.6671 78.2827 65.2622 78.6598 64.9625 79.1122C64.6629 79.5647 64.477 80.0796 64.42 80.6153C64.4438 81.4721 64.7843 82.2917 65.3787 82.9232C65.9732 83.5547 66.7816 83.9557 67.6551 84.0522C70.0967 84.2605 72.3399 81.3741 71.6837 79.4995C71.0275 77.6248 68.0366 76.9255 66.1444 78.0116Z" stroke="#FC542D" stroke-width="0.25" stroke-miterlimit="10"/>
<path d="M48.0469 99.3618C48.5156 99.0856 48.9116 98.7062 49.2031 98.2541C49.4945 97.802 49.6734 97.2897 49.7255 96.7581C49.6885 95.9015 49.334 95.087 48.7279 94.4659C48.1217 93.8448 47.305 93.4592 46.4293 93.3807C43.9725 93.2171 41.8513 96.1481 42.4923 98.0079C43.1332 99.8676 46.1546 100.478 48.0469 99.3618Z" fill="white" stroke="#FC542D" stroke-width="0.25" stroke-miterlimit="10"/>
<path d="M47.2985 97.9633C47.7644 97.6854 48.1574 97.3053 48.4462 96.8533C48.7349 96.4013 48.9115 95.8898 48.9619 95.3596C48.9222 94.5024 48.5672 93.6877 47.9619 93.0648C47.3566 92.4419 46.5415 92.0523 45.6657 91.9674C43.2241 91.8037 41.0877 94.7496 41.7287 96.5945C42.3696 98.4394 45.4063 99.0791 47.2985 97.9633Z" stroke="#FC542D" stroke-width="0.25" stroke-miterlimit="10"/>
<path d="M46.4448 96.3564C46.9131 96.0812 47.308 95.7018 47.5971 95.2493C47.8862 94.7967 48.0613 94.2839 48.1081 93.7527C48.0716 92.8984 47.7193 92.0859 47.1163 91.4651C46.5132 90.8443 45.7002 90.4572 44.8272 90.3753C42.3704 90.2117 40.2493 93.1427 40.8749 95.0025C41.5006 96.8623 44.5526 97.4722 46.4448 96.3564Z" stroke="#FC542D" stroke-width="0.25" stroke-miterlimit="10"/>
<path d="M60.6363 99.0196C61.1046 98.7444 61.4995 98.365 61.7886 97.9125C62.0777 97.4599 62.2528 96.9471 62.2996 96.4159C62.2663 95.5606 61.9151 94.7463 61.3114 94.1249C60.7077 93.5035 59.8929 93.1174 59.0187 93.0386C56.5619 92.8749 54.4408 95.8059 55.0817 97.6657C55.7226 99.5254 58.7441 100.135 60.6363 99.0196Z" fill="#FCAB75" stroke="#FC542D" stroke-width="0.25" stroke-miterlimit="10"/>
<path d="M59.8879 97.6211C60.3539 97.3432 60.7468 96.9632 61.0356 96.5111C61.3244 96.0591 61.5009 95.5477 61.5513 95.0174C61.5116 94.1602 61.1566 93.3456 60.5513 92.7227C59.946 92.0997 59.1309 91.7101 58.2551 91.6252C55.8136 91.4615 53.6772 94.4074 54.3181 96.2523C54.959 98.0972 57.9805 98.737 59.8879 97.6211Z" stroke="#FC542D" stroke-width="0.25" stroke-miterlimit="10"/>
<path d="M59.0356 96.0143C59.504 95.7391 59.8989 95.3597 60.188 94.9071C60.4771 94.4546 60.6522 93.9418 60.699 93.4106C60.6607 92.5469 60.2998 91.7267 59.6842 91.1046C59.0686 90.4825 58.2409 90.1014 57.357 90.0332C54.9002 89.8695 52.7791 92.8006 53.4047 94.6603C54.0304 96.5201 57.1434 97.1301 59.0356 96.0143Z" stroke="#FC542D" stroke-width="0.25" stroke-miterlimit="10"/>
<path d="M71.6704 98.6477C72.1363 98.3698 72.5293 97.9897 72.818 97.5377C73.1068 97.0857 73.2834 96.5742 73.3337 96.044C73.2968 95.1874 72.9423 94.3729 72.3361 93.7518C71.7299 93.1307 70.9132 92.7451 70.0376 92.6666C69.4534 92.6805 68.8792 92.8162 68.3534 93.0646C67.8276 93.3131 67.3625 93.6685 66.9894 94.107C66.6164 94.5454 66.344 95.0567 66.1907 95.6064C66.0373 96.1561 66.0066 96.7315 66.1005 97.2937C66.7262 98.9899 69.7629 99.7635 71.6704 98.6477Z" fill="#F78A4D" stroke="#FC542D" stroke-width="0.25" stroke-miterlimit="10"/>
<path d="M70.9208 97.2492C71.3904 96.9688 71.7875 96.5867 72.0812 96.1326C72.375 95.6785 72.5575 95.1646 72.6147 94.6306C72.5715 93.776 72.2149 92.965 71.61 92.3451C71.005 91.7252 70.1919 91.3378 69.3186 91.2532C66.877 91.0896 64.7406 94.0355 65.3815 95.8804C66.0224 97.7253 69.0134 98.365 70.9208 97.2492Z" stroke="#FC542D" stroke-width="0.25" stroke-miterlimit="10"/>
<path d="M70.0668 95.6423C70.5327 95.3644 70.9256 94.9843 71.2144 94.5323C71.5032 94.0803 71.6797 93.5688 71.7301 93.0386C71.6904 92.1814 71.3354 91.3667 70.7301 90.7438C70.1249 90.1209 69.3097 89.7313 68.4339 89.6464C67.8491 89.6623 67.2746 89.7999 66.7488 90.0501C66.223 90.3002 65.7581 90.657 65.3853 91.0965C65.0125 91.5361 64.7404 92.0483 64.5871 92.5988C64.4339 93.1493 64.4031 93.7253 64.4969 94.2884C65.1225 95.9696 68.1593 96.7581 70.0668 95.6423Z" stroke="#FC542D" stroke-width="0.25" stroke-miterlimit="10"/>
<path d="M156.987 60.3363H155.339V98.1269H156.987V60.3363Z" fill="#088DF9" stroke="#088DF9" stroke-miterlimit="10"/>
<path d="M166.539 75.6906H164.891V102.843H166.539V75.6906Z" fill="#088DF9" stroke="#088DF9" stroke-miterlimit="10"/>
<path d="M171.791 60.3363H170.142V98.1269H171.791V60.3363Z" fill="#088DF9" stroke="#088DF9" stroke-miterlimit="10"/>
<path d="M160.446 87.9111L160.438 89.5179L191.583 89.6557L191.591 88.0489L160.446 87.9111Z" fill="#088DF9" stroke="#088DF9" stroke-miterlimit="10"/>
<path d="M186.224 99.0048H147.464V100.612H186.224V99.0048Z" fill="#529DD1" stroke="#529DD1" stroke-width="0.5" stroke-miterlimit="10"/>
<path d="M191.077 89.6909H170.98V91.2977H191.077V89.6909Z" fill="#529DD1" stroke="#529DD1" stroke-width="0.5" stroke-miterlimit="10"/>
<path d="M186.224 84.5729H147.464V86.1797H186.224V84.5729Z" fill="#529DD1" stroke="#529DD1" stroke-width="0.5" stroke-miterlimit="10"/>
<path d="M175.851 65.3092L175.71 95.6753L177.358 95.6826L177.499 65.3165L175.851 65.3092Z" fill="#529DD1" stroke="#529DD1" stroke-width="0.5" stroke-miterlimit="10"/>
<path d="M191.306 67.7158H152.546V69.3227H191.306V67.7158Z" fill="#79AECC"/>
<path d="M174.98 77.0295H147.13V78.6364H174.98V77.0295Z" fill="#79AECC"/>
<path d="M191.261 80.7789H149.068V82.3858H191.261V80.7789Z" fill="#79AECC"/>
<path d="M160.845 72.6923L160.703 103.058L162.351 103.066L162.493 72.6996L160.845 72.6923Z" fill="#79AECC"/>
<path d="M152.79 60.113H151.142V97.9037H152.79V60.113Z" fill="#92CDF4"/>
<path d="M161.261 76.0476H159.613V103.037H161.261V76.0476Z" fill="#92CDF4"/>
<path d="M167.594 60.113H165.946V97.9037H167.594V60.113Z" fill="#92CDF4"/>
<path d="M156.246 87.6869L156.239 89.2937L187.384 89.4315L187.391 87.8247L156.246 87.6869Z" fill="#92CDF4"/>
<path d="M191.383 61.6819L165.12 61.7668L165.125 63.0017L191.387 62.9168L191.383 61.6819Z" fill="#088DF9"/>
<path d="M180.739 68.8579L161.863 68.9189L161.867 70.1538L180.743 70.0928L180.739 68.8579Z" fill="#088DF9"/>
<path d="M191.419 72.7363L173.916 72.7928L173.92 74.0278L191.423 73.9712L191.419 72.7363Z" fill="#088DF9"/>
<path d="M181.587 79.6631L181.572 103.037H180.458L180.473 79.6631H181.587Z" fill="#088DF9"/>
</svg>
