<svg width="87" height="87" viewBox="0 0 87 87" fill="none" xmlns="http://www.w3.org/2000/svg">
<circle cx="43.5" cy="43.5" r="43.5" fill="#99CC99"/>
<path fill-rule="evenodd" clip-rule="evenodd" d="M44.0003 17.1666C34.0287 17.1666 25.917 25.2783 25.917 35.25C25.917 41.3983 28.9912 46.7975 33.667 50.0783V55.9166C33.667 57.3375 34.8295 58.5 36.2503 58.5H51.7503C53.1712 58.5 54.3337 57.3375 54.3337 55.9166V50.0783C59.0095 46.7975 62.0837 41.3983 62.0837 35.25C62.0837 25.2783 53.972 17.1666 44.0003 17.1666ZM36.2503 66.25C36.2503 67.6708 37.4128 68.8333 38.8336 68.8333H49.167C50.5878 68.8333 51.7503 67.6708 51.7503 66.25V63.6666H36.2503V66.25ZM49.167 47.3916L51.3628 45.8416C54.8503 43.4133 56.917 39.4608 56.917 35.2499C56.917 28.1199 51.1303 22.3333 44.0003 22.3333C36.8703 22.3333 31.0837 28.1199 31.0837 35.2499C31.0837 39.4608 33.1503 43.4133 36.6378 45.8416L38.8337 47.3916V53.3333H49.167V47.3916Z" fill="white"/>
</svg>
