<svg width="87" height="86" viewBox="0 0 87 86" fill="none" xmlns="http://www.w3.org/2000/svg">
<path d="M86.1846 42.7744C86.1846 66.3981 66.8916 85.5489 43.0923 85.5489C19.2931 85.5489 0 66.3981 0 42.7744C0 19.1508 19.2931 0 43.0923 0C66.8916 0 86.1846 19.1508 86.1846 42.7744Z" fill="#E06B65"/>
<path fill-rule="evenodd" clip-rule="evenodd" d="M55.725 31.3129C55.725 38.4169 49.9711 44.1708 42.8671 44.1708C35.7632 44.1708 30.0093 38.4169 30.0093 31.3129C30.0093 24.209 35.7632 18.4551 42.8671 18.4551C49.9711 18.4551 55.725 24.209 55.725 31.3129ZM22 60.2461C22 51.8358 36.3244 47.599 43.5 47.599C50.6756 47.599 65 51.8358 65 60.2461V66.5696H22V60.2461Z" fill="white"/>
<path d="M52.5 63L51.7025 62.2807C48.87 59.7357 47 58.0572 47 55.9973C47 54.3188 48.331 53 50.025 53C50.982 53 51.9005 53.4414 52.5 54.139C53.0995 53.4414 54.018 53 54.975 53C56.669 53 58 54.3188 58 55.9973C58 58.0572 56.13 59.7357 53.2975 62.2861L52.5 63Z" fill="#E06B65"/>
</svg>
