<svg width="230" height="166" viewBox="0 0 230 166" fill="none" xmlns="http://www.w3.org/2000/svg">
<g clip-path="url(#clip0)">
<rect y="0.0168457" width="230" height="165.09" rx="6.7" fill="#202020"/>
<rect x="1" y="1.01685" width="228" height="164" fill="white" stroke="white" stroke-width="2"/>
<path d="M62.2233 77.5719L60.7336 77.267L58.4035 79.2108L53.5397 76.2253L54.3291 73.4685L53.476 71.7535L50.6621 71.1945L50 65.5793L52.5338 64.3089L53.3359 62.5557L51.9736 60.0657L56.3154 55.8734L58.9383 57.3725L60.6572 56.8389L62.2233 54.1202L68.0421 55.7972L67.5838 58.3253L68.7424 59.3416L72.0275 58.6429L74.7268 64.0167L72.8933 65.6047L72.6132 67.4341L74.8541 69.1873L72.384 74.65L70.6269 74.2943L69.0607 75.6028L69.4173 77.4449L63.7513 79.757L62.2233 77.5719Z" fill="#8DD1E1" stroke="#8DD1E1" stroke-miterlimit="10" stroke-linecap="round"/>
<path d="M62.7587 78.6137L61.2562 78.3088L58.9389 80.2525L54.0623 77.2671L54.8517 74.5103L53.9987 72.8079L51.1847 72.2362L50.5226 66.6211L53.0564 65.3506L53.8586 63.6102L52.4962 61.1075L56.838 56.9151L59.4609 58.4142L61.1798 57.8807L62.746 55.162L68.5775 56.8389L68.1064 59.367L69.2651 60.3833L72.5501 59.6846L75.2494 65.0584L73.4286 66.6465L73.1358 68.4758L75.3767 70.2417L72.9066 75.6918L71.1495 75.336L69.5834 76.6446L69.9399 78.4866L64.2739 80.7988L62.7587 78.6137Z" fill="#F7E326" stroke="#F7E326" stroke-miterlimit="10" stroke-linecap="round"/>
<path d="M62.8736 74.6118C66.5584 74.6118 69.5455 71.6314 69.5455 67.9549C69.5455 64.2784 66.5584 61.298 62.8736 61.298C59.1888 61.298 56.2017 64.2784 56.2017 67.9549C56.2017 71.6314 59.1888 74.6118 62.8736 74.6118Z" fill="white"/>
<path d="M61.3813 74.4467C61.986 74.587 62.608 74.6384 63.2276 74.5991C63.8258 74.5709 64.4172 74.4597 64.9847 74.2688C65.9622 73.9458 66.8543 73.4073 67.5949 72.6935C68.047 72.2324 68.4326 71.7107 68.7408 71.1436C68.3021 71.6063 67.825 72.0313 67.3148 72.414C66.9127 72.7147 66.4869 72.9823 66.0415 73.2144C65.5341 73.4798 65.0008 73.6926 64.4499 73.8496C64.0321 73.9836 63.607 74.0939 63.1767 74.1799C62.5834 74.3005 61.9841 74.3895 61.3813 74.4467Z" fill="#66CBE4"/>
<path d="M68.7428 71.131C68.3041 71.5937 67.8271 72.0187 67.3168 72.4014C66.9147 72.702 66.4889 72.9697 66.0435 73.2017C65.5361 73.4671 65.0028 73.68 64.4519 73.8369C64.0341 73.971 63.609 74.0813 63.1787 74.1672C62.5982 74.2908 62.0117 74.3841 61.4216 74.4467C61.9103 74.558 62.41 74.6134 62.9113 74.6119H63.2678C63.866 74.5836 64.4574 74.4725 65.0249 74.2816C65.9899 73.9497 66.8686 73.4072 67.5969 72.6936C68.049 72.2324 68.4347 71.7108 68.7428 71.1437V71.131Z" fill="#66CBE4"/>
<path d="M156.228 77.14L155.528 75.5774L152.218 74.7389L151.759 68.336L154.815 67.2562L155.821 65.3379L154.497 62.416L159.195 58.122L162.022 59.6084L164.161 59.1891L165.549 56.3053L172.246 57.5249L172.59 60.8915L174.194 62.1238L177.708 61.7553L179.987 68.1836L177.377 69.4159L177.199 71.1309L180 73.6718L176.843 79.6681L174.194 79.0329L172.335 79.973L172.182 83.1617L165.561 84.4956L164.747 82.6662L162.506 82.0818L161.067 83.619L155.223 79.9603L156.228 77.14Z" fill="#8DD1E1" stroke="#8DD1E1" stroke-miterlimit="10" stroke-linecap="round"/>
<path d="M155.617 78.3087L154.917 76.7334L151.606 75.895L151.148 69.4921L154.191 68.4122L155.209 66.5066L153.885 63.572L158.584 59.2907L161.41 60.7644L163.549 60.3579L164.937 57.4741L171.635 58.6936L171.978 62.0602L173.583 63.2925L177.097 62.9241L179.389 69.3397L176.766 70.5847L176.588 72.2997L179.389 74.8405L176.231 80.8241L173.583 80.1889L171.724 81.129L171.571 84.3305L164.95 85.6517L164.122 83.8223L161.894 83.2506L160.443 84.7878L154.611 81.129L155.617 78.3087Z" fill="#F7E326" stroke="#F7E326" stroke-miterlimit="10" stroke-linecap="round"/>
<path d="M165.46 78.9185C169.602 78.9185 172.96 75.5684 172.96 71.4358C172.96 67.3032 169.602 63.9531 165.46 63.9531C161.319 63.9531 157.961 67.3032 157.961 71.4358C157.961 75.5684 161.319 78.9185 165.46 78.9185Z" fill="white"/>
<path d="M158.532 74.3197C158.804 74.9596 159.164 75.5583 159.602 76.0983C160.02 76.6315 160.514 77.1021 161.066 77.4957C162.011 78.1561 163.096 78.5908 164.236 78.7661C164.954 78.8789 165.684 78.8789 166.401 78.7661C165.689 78.6747 164.986 78.5217 164.3 78.3088C163.766 78.1442 163.247 77.936 162.747 77.6863C162.17 77.3933 161.625 77.0444 161.117 76.6445C160.582 76.238 160.213 75.9077 159.933 75.6536C159.653 75.3996 159.054 74.9041 158.532 74.3197Z" fill="#66CBE4"/>
<path d="M158.532 74.3197C158.804 74.9596 159.164 75.5583 159.602 76.0983C160.02 76.6315 160.514 77.1021 161.066 77.4957C162.011 78.1561 163.096 78.5908 164.236 78.7661C164.954 78.8671 165.683 78.8671 166.401 78.7661C165.689 78.6747 164.986 78.5217 164.3 78.3088C163.766 78.1441 163.247 77.936 162.747 77.6863C162.17 77.3933 161.625 77.0444 161.117 76.6445C160.582 76.238 160.213 75.9077 159.933 75.6536C159.653 75.3996 159.054 74.8152 158.532 74.2308V74.3197Z" fill="#66CBE4"/>
<path d="M104.447 83.4793L105.631 81.9802L104.752 78.3088L110.826 74.5484L113.461 76.9748H115.868L118.071 74.1672L124.73 76.5683V80.1L126.245 81.9802L129.797 81.8532L132.064 89.0564L128.919 91.1399L128.55 93.3504L130.727 96.6153L125.57 102.167L122.998 100.249L121.216 100.96L120.159 105.013H112.621L111.87 102.091L109.985 100.744L106.764 102.256L102.028 96.4502L103.415 94.6843L102.83 92.207L100.563 91.5718L101.149 83.9621L104.447 83.4793Z" fill="#F487DD" stroke="#F487DD" stroke-miterlimit="10" stroke-linecap="round"/>
<path d="M102.98 83.4793L104.165 81.9802L103.286 78.3088L109.359 74.5484L111.995 76.9748H114.402L116.604 74.1672L123.263 76.5683V80.1L124.779 81.9802L128.344 81.8532L130.597 89.0564L127.452 91.1399L127.083 93.3504L129.261 96.6153L124.104 102.167L121.532 100.249L119.749 100.96L118.692 105.013H111.155L110.404 102.091L108.519 100.744L105.298 102.256L100.561 96.4502L101.949 94.6843L101.363 92.207L99.097 91.5718L99.6826 83.9621L102.98 83.4793Z" fill="#F7E326" stroke="#F7E326" stroke-miterlimit="10" stroke-linecap="round"/>
<path d="M114.849 97.9111C119.455 97.9111 123.189 94.1856 123.189 89.59C123.189 84.9943 119.455 81.2688 114.849 81.2688C110.243 81.2688 106.509 84.9943 106.509 89.59C106.509 94.1856 110.243 97.9111 114.849 97.9111Z" fill="white"/>
<path d="M108.455 84.1272C107.941 84.7165 107.512 85.3751 107.182 86.0836C106.875 86.7671 106.665 87.4896 106.558 88.2306C106.359 89.5065 106.459 90.8111 106.851 92.0418C107.101 92.8078 107.466 93.5316 107.933 94.1888C107.66 93.4425 107.455 92.6728 107.322 91.8894C107.206 91.2775 107.142 90.6571 107.131 90.0346C107.149 89.3301 107.23 88.6285 107.373 87.9384C107.469 87.3771 107.597 86.8215 107.755 86.2742C107.945 85.5452 108.179 84.8283 108.455 84.1272Z" fill="#F487DD"/>
<path d="M108.455 84.1272C107.941 84.7165 107.512 85.3751 107.182 86.0836C106.875 86.7671 106.665 87.4896 106.558 88.2306C106.359 89.5065 106.459 90.8111 106.851 92.0418C107.101 92.8078 107.466 93.5316 107.933 94.1888C107.66 93.4425 107.455 92.6728 107.322 91.8894C107.206 91.2775 107.142 90.6571 107.131 90.0346C107.149 89.3301 107.23 88.6285 107.373 87.9384C107.469 87.3771 107.597 86.8215 107.755 86.2742C107.942 85.5584 108.172 84.8542 108.442 84.1653L108.455 84.1272Z" fill="#F487DD"/>
<path d="M132.43 99.9056C132.049 100.3 131.784 100.793 131.666 101.328C131.557 101.85 131.596 102.391 131.781 102.891C131.547 103.026 131.344 103.209 131.186 103.428C131.028 103.647 130.918 103.897 130.864 104.162C130.812 104.555 130.898 104.954 131.106 105.292C130.779 105.711 130.592 106.222 130.571 106.753C130.568 107.277 130.709 107.791 130.979 108.24C130.651 108.673 130.465 109.196 130.444 109.739C130.438 110.179 130.539 110.615 130.737 111.009L143.966 113.092C144.311 112.702 144.548 112.23 144.654 111.72C144.765 111.215 144.739 110.688 144.577 110.196C144.938 109.838 145.183 109.38 145.28 108.882C145.378 108.384 145.324 107.868 145.125 107.401C145.377 107.067 145.563 106.687 145.672 106.283C145.785 105.759 145.75 105.213 145.57 104.708C145.871 104.261 146.051 103.745 146.092 103.209C146.108 102.776 146.039 102.344 145.889 101.938L132.43 99.9056Z" fill="#FFEC61"/>
<path d="M131.119 102.472L145.927 104.695" stroke="white" stroke-width="0.3" stroke-linecap="round" stroke-linejoin="round"/>
<path d="M130.687 105.368L145.483 107.592" stroke="white" stroke-width="0.3" stroke-linecap="round" stroke-linejoin="round"/>
<path d="M130.444 108.519L144.857 110.679" stroke="white" stroke-width="0.3" stroke-linecap="round" stroke-linejoin="round"/>
<path d="M131.999 98.7369L146.425 100.909C147.698 99.1815 149.417 96.7423 151.518 93.7823C156.764 86.3123 157.324 85.1943 157.757 84.0891C158.839 81.3831 160.851 76.3396 158.483 71.0928C155.554 64.5756 148.067 62.5557 146.909 62.2C146.425 62.0729 136.939 59.8243 130.063 65.9096C128.171 67.6289 126.714 69.7708 125.811 72.16C124.909 74.5491 124.585 77.1177 124.869 79.6554C125.098 81.7515 125.658 82.4375 128.688 90.06C130.14 93.7569 131.273 96.755 131.999 98.7369Z" fill="#F487DD" stroke="white" stroke-width="0.3" stroke-linecap="round" stroke-linejoin="round"/>
<path d="M132.838 67.1927C132.35 67.5873 131.886 68.0116 131.45 68.4631C131.157 68.768 130.852 69.111 130.521 69.5302C129.202 71.003 128.251 72.766 127.745 74.6754C127.561 75.5097 127.471 76.362 127.478 77.2162C127.859 76.533 128.284 75.8752 128.751 75.2471C129.535 74.2073 130.422 73.2496 131.399 72.3887C134.735 69.3524 136.492 69.1618 136.581 67.7009C136.624 67.279 136.534 66.8543 136.324 66.4856C136.115 66.1169 135.795 65.8224 135.41 65.6428C134.977 65.4777 134.239 66.0493 132.838 67.1927Z" fill="white" stroke="white" stroke-width="0.3" stroke-linecap="round" stroke-linejoin="round"/>
<path d="M86.0089 87.443C85.7987 87.9488 85.7326 88.5028 85.818 89.0437C85.9094 89.5679 86.1377 90.0587 86.48 90.4666C86.3176 90.6774 86.1999 90.9191 86.1343 91.1769C86.0686 91.4346 86.0563 91.703 86.0981 91.9657C86.1967 92.346 86.4155 92.6845 86.722 92.9312C86.5602 93.4352 86.5602 93.977 86.722 94.4811C86.8961 94.9784 87.2045 95.418 87.6133 95.7515C87.4812 96.2683 87.4812 96.8099 87.6133 97.3268C87.7318 97.7475 87.9403 98.1376 88.2244 98.4701L101.377 95.6498C101.422 95.3852 101.447 95.1177 101.454 94.8495C101.467 94.6253 101.467 94.4004 101.454 94.1762C101.336 93.6393 101.056 93.1515 100.651 92.7787C100.858 92.2527 100.898 91.6765 100.766 91.1272C100.65 90.7027 100.437 90.3112 100.142 89.9838C100.284 89.523 100.308 89.0341 100.212 88.5616C100.117 88.0891 99.9044 87.6478 99.5947 87.2779C99.7052 86.7549 99.6788 86.2124 99.5182 85.7026C99.3891 85.2912 99.1768 84.9107 98.8943 84.5846L86.0089 87.443Z" fill="#FFEC61" stroke="white" stroke-width="0.2" stroke-linecap="round" stroke-linejoin="round"/>
<path d="M84.7746 90.5173L99.3917 87.2651" stroke="white" stroke-width="0.3" stroke-linecap="round" stroke-linejoin="round"/>
<path d="M86.3657 93.1598L99.9132 90.0473" stroke="white" stroke-width="0.3" stroke-linecap="round" stroke-linejoin="round"/>
<path d="M87.2798 96.1834L100.42 92.8803" stroke="white" stroke-width="0.3" stroke-linecap="round" stroke-linejoin="round"/>
<path d="M85.2037 86.5029L99.4387 83.3396C99.9735 81.2942 100.712 78.3723 101.603 74.866C103.806 65.9731 103.908 64.7027 103.921 63.5848C103.921 60.6628 103.997 55.2509 99.8971 51.1983C94.8041 46.1802 87.1008 46.9932 85.8912 47.133C85.4074 47.133 75.7051 48.505 71.5288 56.6483C70.3849 58.932 69.8001 61.4537 69.8222 64.0066C69.8443 66.5594 70.4729 69.0707 71.6562 71.3342C72.6238 73.2144 73.4005 73.6591 78.9901 79.6681C81.664 82.5392 83.8031 84.9276 85.2037 86.5029Z" fill="#8DD1E1" stroke="white" stroke-width="0.3" stroke-linecap="round" stroke-linejoin="round"/>
<path d="M75.2759 57.4487C74.9517 57.9755 74.6625 58.523 74.4101 59.0875C74.227 59.5024 74.0655 59.9264 73.9263 60.3579C73.2657 62.2178 73.0519 64.2064 73.3024 66.1637C73.4247 66.9947 73.6426 67.8089 73.9517 68.5902C74.0778 67.8115 74.2435 67.0398 74.4483 66.278C74.8075 65.0269 75.2894 63.8141 75.8871 62.6574C77.8988 58.6556 79.4522 57.8679 79.032 56.4197C78.9312 56.0187 78.7101 55.658 78.3985 55.3856C78.0868 55.1133 77.6993 54.9422 77.2877 54.8952C76.7402 54.9079 76.2564 55.7718 75.2759 57.4487Z" fill="white" stroke="white" stroke-width="0.3" stroke-linecap="round" stroke-linejoin="round"/>
<path d="M90.3627 82.8568C90.803 80.3443 90.3143 77.7577 88.9876 75.5774C88.7966 75.2598 87.4979 73.2399 86.7721 73.4813C86.0464 73.7226 85.8554 75.6536 86.7721 76.6319C87.9817 77.9023 91.063 77.1908 92.8838 76.1237C93.5204 75.7553 95.9014 74.3705 95.9269 72.16C95.9269 70.2417 94.208 68.425 93.3804 68.6664C92.5527 68.9078 92.4763 71.2072 92.4509 72.5412C92.4442 75.7984 93.2586 79.005 94.8192 81.8659L90.3627 82.8568Z" stroke="#B2F4F7" stroke-width="0.3" stroke-linecap="round" stroke-linejoin="round"/>
<path d="M89.8145 83.4539C90.2465 80.9414 89.7585 78.3577 88.4394 76.1745C88.2356 75.8569 86.9369 73.8369 86.2239 74.0783C85.5109 74.3197 85.3071 76.2634 86.2239 77.2289C87.4335 78.4993 90.5148 77.7879 92.3355 76.7207C92.9594 76.365 95.3531 74.9676 95.3786 72.7571C95.3786 70.8515 93.6597 69.0221 92.8321 69.2635C92.0045 69.5048 91.9281 71.8043 91.9026 73.1509C91.8987 76.4078 92.7129 79.6137 94.2709 82.4757L89.8145 83.4539Z" stroke="white" stroke-width="0.3" stroke-linecap="round" stroke-linejoin="round"/>
<path d="M141.193 97.5554C140.589 95.075 140.896 92.4608 142.059 90.187C142.237 89.8694 143.396 87.7606 144.122 87.9511C144.847 88.1417 145.191 90.06 144.351 91.1017C143.23 92.4865 140.098 91.9402 138.214 91.0128C137.564 90.6952 135.082 89.4756 134.903 87.2016C134.738 85.296 136.355 83.3904 137.233 83.5428C138.112 83.6953 138.316 86.0201 138.43 87.354C138.671 90.6061 138.084 93.8661 136.724 96.8313L141.193 97.5554Z" stroke="#FCBBF7" stroke-width="0.3" stroke-linecap="round" stroke-linejoin="round"/>
<path d="M141.752 97.9747C141.148 95.4943 141.455 92.8801 142.618 90.6063C142.796 90.2887 143.955 88.1798 144.68 88.3704C145.406 88.5609 145.75 90.4793 144.909 91.521C143.789 92.9057 140.657 92.3595 138.772 91.4321C138.123 91.1145 135.64 89.8949 135.462 87.6208C135.296 85.7152 136.913 83.8096 137.792 83.9621C138.671 84.1145 138.874 86.4394 138.989 87.7733C139.227 91.0252 138.64 94.2846 137.283 97.2505L141.752 97.9747Z" stroke="white" stroke-width="0.3" stroke-linecap="round" stroke-linejoin="round"/>
<path d="M48.096 137.664C49.1733 137.664 50.0267 137.979 50.656 138.608C51.2853 139.227 51.6 140.16 51.6 141.408V146.304H49.6V141.664C49.6 140.918 49.4347 140.358 49.104 139.984C48.7733 139.6 48.2987 139.408 47.68 139.408C47.008 139.408 46.4693 139.632 46.064 140.08C45.6587 140.518 45.456 141.147 45.456 141.968V146.304H43.456V141.664C43.456 140.918 43.2907 140.358 42.96 139.984C42.6293 139.6 42.1547 139.408 41.536 139.408C40.8533 139.408 40.3093 139.627 39.904 140.064C39.5093 140.502 39.312 141.136 39.312 141.968V146.304H37.312V137.76H39.216V138.848C39.536 138.464 39.936 138.171 40.416 137.968C40.896 137.766 41.4293 137.664 42.016 137.664C42.656 137.664 43.2213 137.787 43.712 138.032C44.2133 138.267 44.608 138.619 44.896 139.088C45.248 138.64 45.7013 138.294 46.256 138.048C46.8107 137.792 47.424 137.664 48.096 137.664ZM58.0739 146.416C57.2099 146.416 56.4312 146.23 55.7379 145.856C55.0445 145.483 54.5005 144.966 54.1059 144.304C53.7219 143.632 53.5299 142.875 53.5299 142.032C53.5299 141.19 53.7219 140.438 54.1059 139.776C54.5005 139.115 55.0445 138.598 55.7379 138.224C56.4312 137.851 57.2099 137.664 58.0739 137.664C58.9485 137.664 59.7325 137.851 60.4259 138.224C61.1192 138.598 61.6579 139.115 62.0419 139.776C62.4365 140.438 62.6339 141.19 62.6339 142.032C62.6339 142.875 62.4365 143.632 62.0419 144.304C61.6579 144.966 61.1192 145.483 60.4259 145.856C59.7325 146.23 58.9485 146.416 58.0739 146.416ZM58.0739 144.704C58.8099 144.704 59.4179 144.459 59.8979 143.968C60.3779 143.478 60.6179 142.832 60.6179 142.032C60.6179 141.232 60.3779 140.587 59.8979 140.096C59.4179 139.606 58.8099 139.36 58.0739 139.36C57.3379 139.36 56.7299 139.606 56.2499 140.096C55.7805 140.587 55.5459 141.232 55.5459 142.032C55.5459 142.832 55.7805 143.478 56.2499 143.968C56.7299 144.459 57.3379 144.704 58.0739 144.704ZM68.0184 135.936C67.1757 135.936 66.7544 136.395 66.7544 137.312V137.824H69.1064V139.424H66.8184V146.304H64.8184V139.424H63.4104V137.824H64.8184V137.28C64.8184 136.363 65.085 135.643 65.6184 135.12C66.1517 134.587 66.9037 134.32 67.8744 134.32C68.6424 134.32 69.245 134.475 69.6824 134.784L69.1224 136.288C68.781 136.054 68.413 135.936 68.0184 135.936ZM73.9246 135.936C73.082 135.936 72.6606 136.395 72.6606 137.312V137.824H75.0126V139.424H72.7246V146.304H70.7246V139.424H69.3166V137.824H70.7246V137.28C70.7246 136.363 70.9913 135.643 71.5246 135.12C72.058 134.587 72.81 134.32 73.7806 134.32C74.5486 134.32 75.1513 134.475 75.5886 134.784L75.0286 136.288C74.6873 136.054 74.3193 135.936 73.9246 135.936ZM77.6366 137.76H79.6366V146.304H77.6366V137.76ZM78.6446 136.352C78.282 136.352 77.978 136.24 77.7326 136.016C77.4873 135.782 77.3646 135.494 77.3646 135.152C77.3646 134.811 77.4873 134.528 77.7326 134.304C77.978 134.07 78.282 133.952 78.6446 133.952C79.0073 133.952 79.3113 134.064 79.5566 134.288C79.802 134.502 79.9246 134.774 79.9246 135.104C79.9246 135.456 79.802 135.755 79.5566 136C79.322 136.235 79.018 136.352 78.6446 136.352ZM87.4011 145.84C87.1665 146.032 86.8785 146.176 86.5371 146.272C86.2065 146.368 85.8545 146.416 85.4811 146.416C84.5425 146.416 83.8171 146.171 83.3051 145.68C82.7931 145.19 82.5371 144.475 82.5371 143.536V139.424H81.1291V137.824H82.5371V135.872H84.5371V137.824H86.8251V139.424H84.5371V143.488C84.5371 143.904 84.6385 144.224 84.8411 144.448C85.0438 144.662 85.3371 144.768 85.7211 144.768C86.1691 144.768 86.5425 144.651 86.8411 144.416L87.4011 145.84ZM93.9793 145.84C93.7446 146.032 93.4566 146.176 93.1153 146.272C92.7846 146.368 92.4326 146.416 92.0593 146.416C91.1206 146.416 90.3953 146.171 89.8832 145.68C89.3713 145.19 89.1153 144.475 89.1153 143.536V139.424H87.7073V137.824H89.1153V135.872H91.1153V137.824H93.4033V139.424H91.1153V143.488C91.1153 143.904 91.2166 144.224 91.4193 144.448C91.6219 144.662 91.9153 144.768 92.2993 144.768C92.7473 144.768 93.1206 144.651 93.4193 144.416L93.9793 145.84ZM110.83 137.664C111.908 137.664 112.761 137.979 113.39 138.608C114.02 139.227 114.334 140.16 114.334 141.408V146.304H112.334V141.664C112.334 140.918 112.169 140.358 111.838 139.984C111.508 139.6 111.033 139.408 110.414 139.408C109.742 139.408 109.204 139.632 108.798 140.08C108.393 140.518 108.19 141.147 108.19 141.968V146.304H106.19V141.664C106.19 140.918 106.025 140.358 105.694 139.984C105.364 139.6 104.889 139.408 104.27 139.408C103.588 139.408 103.044 139.627 102.638 140.064C102.244 140.502 102.046 141.136 102.046 141.968V146.304H100.046V137.76H101.95V138.848C102.27 138.464 102.67 138.171 103.15 137.968C103.63 137.766 104.164 137.664 104.75 137.664C105.39 137.664 105.956 137.787 106.446 138.032C106.948 138.267 107.342 138.619 107.63 139.088C107.982 138.64 108.436 138.294 108.99 138.048C109.545 137.792 110.158 137.664 110.83 137.664ZM120.154 137.664C121.413 137.664 122.373 137.968 123.034 138.576C123.706 139.174 124.042 140.08 124.042 141.296V146.304H122.154V145.264C121.909 145.638 121.557 145.926 121.098 146.128C120.65 146.32 120.106 146.416 119.466 146.416C118.826 146.416 118.266 146.31 117.786 146.096C117.306 145.872 116.933 145.568 116.666 145.184C116.41 144.79 116.282 144.347 116.282 143.856C116.282 143.088 116.565 142.475 117.13 142.016C117.706 141.547 118.607 141.312 119.834 141.312H122.042V141.184C122.042 140.587 121.861 140.128 121.498 139.808C121.146 139.488 120.618 139.328 119.914 139.328C119.434 139.328 118.959 139.403 118.49 139.552C118.031 139.702 117.642 139.91 117.322 140.176L116.538 138.72C116.986 138.379 117.525 138.118 118.154 137.936C118.783 137.755 119.45 137.664 120.154 137.664ZM119.882 144.96C120.383 144.96 120.826 144.848 121.21 144.624C121.605 144.39 121.882 144.059 122.042 143.632V142.64H119.978C118.826 142.64 118.25 143.019 118.25 143.776C118.25 144.139 118.394 144.427 118.682 144.64C118.97 144.854 119.37 144.96 119.882 144.96ZM130.097 142.64L128.609 144.048V146.304H126.609V134.432H128.609V141.6L132.753 137.76H135.153L131.585 141.344L135.489 146.304H133.057L130.097 142.64ZM144.453 142.08C144.453 142.219 144.443 142.416 144.421 142.672H137.717C137.835 143.302 138.139 143.803 138.629 144.176C139.131 144.539 139.749 144.72 140.485 144.72C141.424 144.72 142.197 144.411 142.805 143.792L143.877 145.024C143.493 145.483 143.008 145.83 142.421 146.064C141.835 146.299 141.173 146.416 140.437 146.416C139.499 146.416 138.672 146.23 137.957 145.856C137.243 145.483 136.688 144.966 136.293 144.304C135.909 143.632 135.717 142.875 135.717 142.032C135.717 141.2 135.904 140.454 136.277 139.792C136.661 139.12 137.189 138.598 137.861 138.224C138.533 137.851 139.291 137.664 140.133 137.664C140.965 137.664 141.707 137.851 142.357 138.224C143.019 138.587 143.531 139.104 143.893 139.776C144.267 140.438 144.453 141.206 144.453 142.08ZM140.133 139.264C139.493 139.264 138.949 139.456 138.501 139.84C138.064 140.214 137.797 140.715 137.701 141.344H142.549C142.464 140.726 142.203 140.224 141.765 139.84C141.328 139.456 140.784 139.264 140.133 139.264ZM148.279 139.008C148.855 138.112 149.868 137.664 151.319 137.664V139.568C151.148 139.536 150.993 139.52 150.855 139.52C150.076 139.52 149.468 139.75 149.031 140.208C148.593 140.656 148.375 141.307 148.375 142.16V146.304H146.375V137.76H148.279V139.008ZM155.686 146.416C154.993 146.416 154.316 146.326 153.654 146.144C152.993 145.963 152.465 145.734 152.07 145.456L152.838 143.936C153.222 144.192 153.681 144.4 154.214 144.56C154.758 144.71 155.292 144.784 155.814 144.784C157.009 144.784 157.606 144.47 157.606 143.84C157.606 143.542 157.452 143.334 157.142 143.216C156.844 143.099 156.358 142.987 155.686 142.88C154.982 142.774 154.406 142.651 153.958 142.512C153.521 142.374 153.137 142.134 152.806 141.792C152.486 141.44 152.326 140.955 152.326 140.336C152.326 139.526 152.662 138.88 153.334 138.4C154.017 137.91 154.934 137.664 156.086 137.664C156.673 137.664 157.26 137.734 157.846 137.872C158.433 138 158.913 138.176 159.286 138.4L158.518 139.92C157.793 139.494 156.977 139.28 156.07 139.28C155.484 139.28 155.036 139.371 154.726 139.552C154.428 139.723 154.278 139.952 154.278 140.24C154.278 140.56 154.438 140.79 154.758 140.928C155.089 141.056 155.596 141.179 156.278 141.296C156.961 141.403 157.521 141.526 157.958 141.664C158.396 141.803 158.769 142.038 159.078 142.368C159.398 142.699 159.558 143.168 159.558 143.776C159.558 144.576 159.212 145.216 158.518 145.696C157.825 146.176 156.881 146.416 155.686 146.416ZM166.017 137.664C166.849 137.664 167.59 137.846 168.241 138.208C168.902 138.571 169.419 139.083 169.793 139.744C170.166 140.406 170.353 141.168 170.353 142.032C170.353 142.896 170.166 143.664 169.793 144.336C169.419 144.998 168.902 145.51 168.241 145.872C167.59 146.235 166.849 146.416 166.017 146.416C164.865 146.416 163.953 146.032 163.281 145.264V149.408H161.281V137.76H163.185V138.88C163.515 138.475 163.921 138.171 164.401 137.968C164.891 137.766 165.43 137.664 166.017 137.664ZM165.793 144.704C166.529 144.704 167.131 144.459 167.601 143.968C168.081 143.478 168.321 142.832 168.321 142.032C168.321 141.232 168.081 140.587 167.601 140.096C167.131 139.606 166.529 139.36 165.793 139.36C165.313 139.36 164.881 139.472 164.497 139.696C164.113 139.91 163.809 140.219 163.585 140.624C163.361 141.03 163.249 141.499 163.249 142.032C163.249 142.566 163.361 143.035 163.585 143.44C163.809 143.846 164.113 144.16 164.497 144.384C164.881 144.598 165.313 144.704 165.793 144.704ZM175.404 137.664C176.663 137.664 177.623 137.968 178.284 138.576C178.956 139.174 179.292 140.08 179.292 141.296V146.304H177.404V145.264C177.159 145.638 176.807 145.926 176.348 146.128C175.9 146.32 175.356 146.416 174.716 146.416C174.076 146.416 173.516 146.31 173.036 146.096C172.556 145.872 172.183 145.568 171.916 145.184C171.66 144.79 171.532 144.347 171.532 143.856C171.532 143.088 171.815 142.475 172.38 142.016C172.956 141.547 173.857 141.312 175.084 141.312H177.292V141.184C177.292 140.587 177.111 140.128 176.748 139.808C176.396 139.488 175.868 139.328 175.164 139.328C174.684 139.328 174.209 139.403 173.74 139.552C173.281 139.702 172.892 139.91 172.572 140.176L171.788 138.72C172.236 138.379 172.775 138.118 173.404 137.936C174.033 137.755 174.7 137.664 175.404 137.664ZM175.132 144.96C175.633 144.96 176.076 144.848 176.46 144.624C176.855 144.39 177.132 144.059 177.292 143.632V142.64H175.228C174.076 142.64 173.5 143.019 173.5 143.776C173.5 144.139 173.644 144.427 173.932 144.64C174.22 144.854 174.62 144.96 175.132 144.96ZM185.857 146.416C184.972 146.416 184.177 146.23 183.473 145.856C182.769 145.483 182.22 144.966 181.825 144.304C181.43 143.632 181.233 142.875 181.233 142.032C181.233 141.19 181.43 140.438 181.825 139.776C182.22 139.115 182.764 138.598 183.457 138.224C184.161 137.851 184.961 137.664 185.857 137.664C186.7 137.664 187.436 137.835 188.065 138.176C188.705 138.518 189.185 139.008 189.505 139.648L187.969 140.544C187.724 140.15 187.414 139.856 187.041 139.664C186.678 139.462 186.278 139.36 185.841 139.36C185.094 139.36 184.476 139.606 183.985 140.096C183.494 140.576 183.249 141.222 183.249 142.032C183.249 142.843 183.489 143.494 183.969 143.984C184.46 144.464 185.084 144.704 185.841 144.704C186.278 144.704 186.678 144.608 187.041 144.416C187.414 144.214 187.724 143.915 187.969 143.52L189.505 144.416C189.174 145.056 188.689 145.552 188.049 145.904C187.42 146.246 186.689 146.416 185.857 146.416ZM199.141 142.08C199.141 142.219 199.13 142.416 199.109 142.672H192.405C192.522 143.302 192.826 143.803 193.317 144.176C193.818 144.539 194.437 144.72 195.173 144.72C196.112 144.72 196.885 144.411 197.493 143.792L198.565 145.024C198.181 145.483 197.696 145.83 197.109 146.064C196.522 146.299 195.861 146.416 195.125 146.416C194.186 146.416 193.36 146.23 192.645 145.856C191.93 145.483 191.376 144.966 190.981 144.304C190.597 143.632 190.405 142.875 190.405 142.032C190.405 141.2 190.592 140.454 190.965 139.792C191.349 139.12 191.877 138.598 192.549 138.224C193.221 137.851 193.978 137.664 194.821 137.664C195.653 137.664 196.394 137.851 197.045 138.224C197.706 138.587 198.218 139.104 198.581 139.776C198.954 140.438 199.141 141.206 199.141 142.08ZM194.821 139.264C194.181 139.264 193.637 139.456 193.189 139.84C192.752 140.214 192.485 140.715 192.389 141.344H197.237C197.152 140.726 196.89 140.224 196.453 139.84C196.016 139.456 195.472 139.264 194.821 139.264Z" fill="black"/>
</g>
<defs>
<clipPath id="clip0">
<rect y="0.0168457" width="230" height="165.09" rx="6.7" fill="white"/>
</clipPath>
</defs>
</svg>
