<svg width="230" height="165" viewBox="0 0 230 165" fill="none" xmlns="http://www.w3.org/2000/svg">
<rect width="230" height="165" rx="6.7" fill="white"/>
<path d="M71.4803 139.36C72.5576 139.36 73.4216 139.675 74.0723 140.304C74.723 140.933 75.0483 141.867 75.0483 143.104V148H73.0483V143.36C73.0483 142.613 72.8723 142.053 72.5203 141.68C72.1683 141.296 71.667 141.104 71.0163 141.104C70.2803 141.104 69.699 141.328 69.2723 141.776C68.8456 142.213 68.6323 142.848 68.6323 143.68V148H66.6323V139.456H68.5363V140.56C68.867 140.165 69.283 139.867 69.7843 139.664C70.2856 139.461 70.851 139.36 71.4803 139.36ZM85.6956 143.776C85.6956 143.915 85.6849 144.112 85.6636 144.368H78.9596C79.0769 144.997 79.3809 145.499 79.8716 145.872C80.3729 146.235 80.9916 146.416 81.7276 146.416C82.6662 146.416 83.4396 146.107 84.0476 145.488L85.1196 146.72C84.7356 147.179 84.2502 147.525 83.6636 147.76C83.0769 147.995 82.4156 148.112 81.6796 148.112C80.7409 148.112 79.9142 147.925 79.1996 147.552C78.4849 147.179 77.9302 146.661 77.5356 146C77.1516 145.328 76.9596 144.571 76.9596 143.728C76.9596 142.896 77.1462 142.149 77.5196 141.488C77.9036 140.816 78.4316 140.293 79.1036 139.92C79.7756 139.547 80.5329 139.36 81.3756 139.36C82.2076 139.36 82.9489 139.547 83.5996 139.92C84.2609 140.283 84.7729 140.8 85.1356 141.472C85.5089 142.133 85.6956 142.901 85.6956 143.776ZM81.3756 140.96C80.7356 140.96 80.1916 141.152 79.7436 141.536C79.3062 141.909 79.0396 142.411 78.9436 143.04H83.7916C83.7062 142.421 83.4449 141.92 83.0076 141.536C82.5702 141.152 82.0262 140.96 81.3756 140.96ZM92.7527 147.536C92.518 147.728 92.23 147.872 91.8887 147.968C91.558 148.064 91.206 148.112 90.8327 148.112C89.894 148.112 89.1687 147.867 88.6567 147.376C88.1447 146.885 87.8887 146.171 87.8887 145.232V141.12H86.4807V139.52H87.8887V137.568H89.8887V139.52H92.1767V141.12H89.8887V145.184C89.8887 145.6 89.99 145.92 90.1927 146.144C90.3954 146.357 90.6887 146.464 91.0727 146.464C91.5207 146.464 91.894 146.347 92.1927 146.112L92.7527 147.536ZM94.3979 139.456H96.3979V148H94.3979V139.456ZM95.4059 138.048C95.0433 138.048 94.7393 137.936 94.4939 137.712C94.2486 137.477 94.1259 137.189 94.1259 136.848C94.1259 136.507 94.2486 136.224 94.4939 136C94.7393 135.765 95.0433 135.648 95.4059 135.648C95.7686 135.648 96.0726 135.76 96.3179 135.984C96.5633 136.197 96.6859 136.469 96.6859 136.8C96.6859 137.152 96.5633 137.451 96.3179 137.696C96.0833 137.931 95.7793 138.048 95.4059 138.048ZM102.943 148.112C102.058 148.112 101.263 147.925 100.559 147.552C99.8549 147.179 99.3056 146.661 98.9109 146C98.5163 145.328 98.3189 144.571 98.3189 143.728C98.3189 142.885 98.5163 142.133 98.9109 141.472C99.3056 140.811 99.8496 140.293 100.543 139.92C101.247 139.547 102.047 139.36 102.943 139.36C103.786 139.36 104.522 139.531 105.151 139.872C105.791 140.213 106.271 140.704 106.591 141.344L105.055 142.24C104.81 141.845 104.5 141.552 104.127 141.36C103.764 141.157 103.364 141.056 102.927 141.056C102.18 141.056 101.562 141.301 101.071 141.792C100.58 142.272 100.335 142.917 100.335 143.728C100.335 144.539 100.575 145.189 101.055 145.68C101.546 146.16 102.17 146.4 102.927 146.4C103.364 146.4 103.764 146.304 104.127 146.112C104.5 145.909 104.81 145.611 105.055 145.216L106.591 146.112C106.26 146.752 105.775 147.248 105.135 147.6C104.506 147.941 103.775 148.112 102.943 148.112ZM117.59 139.36C118.667 139.36 119.531 139.675 120.182 140.304C120.832 140.933 121.158 141.867 121.158 143.104V148H119.158V143.36C119.158 142.613 118.982 142.053 118.63 141.68C118.278 141.296 117.776 141.104 117.126 141.104C116.39 141.104 115.808 141.328 115.382 141.776C114.955 142.213 114.742 142.848 114.742 143.68V148H112.742V136.128H114.742V140.448C115.072 140.096 115.478 139.829 115.958 139.648C116.448 139.456 116.992 139.36 117.59 139.36ZM131.805 143.776C131.805 143.915 131.794 144.112 131.773 144.368H125.069C125.186 144.997 125.49 145.499 125.981 145.872C126.482 146.235 127.101 146.416 127.837 146.416C128.776 146.416 129.549 146.107 130.157 145.488L131.229 146.72C130.845 147.179 130.36 147.525 129.773 147.76C129.186 147.995 128.525 148.112 127.789 148.112C126.85 148.112 126.024 147.925 125.309 147.552C124.594 147.179 124.04 146.661 123.645 146C123.261 145.328 123.069 144.571 123.069 143.728C123.069 142.896 123.256 142.149 123.629 141.488C124.013 140.816 124.541 140.293 125.213 139.92C125.885 139.547 126.642 139.36 127.485 139.36C128.317 139.36 129.058 139.547 129.709 139.92C130.37 140.283 130.882 140.8 131.245 141.472C131.618 142.133 131.805 142.901 131.805 143.776ZM127.485 140.96C126.845 140.96 126.301 141.152 125.853 141.536C125.416 141.909 125.149 142.411 125.053 143.04H129.901C129.816 142.421 129.554 141.92 129.117 141.536C128.68 141.152 128.136 140.96 127.485 140.96ZM136.756 139.36C138.014 139.36 138.974 139.664 139.636 140.272C140.308 140.869 140.644 141.776 140.644 142.992V148H138.756V146.96C138.51 147.333 138.158 147.621 137.7 147.824C137.252 148.016 136.708 148.112 136.068 148.112C135.428 148.112 134.868 148.005 134.388 147.792C133.908 147.568 133.534 147.264 133.268 146.88C133.012 146.485 132.884 146.043 132.884 145.552C132.884 144.784 133.166 144.171 133.732 143.712C134.308 143.243 135.209 143.008 136.436 143.008H138.644V142.88C138.644 142.283 138.462 141.824 138.1 141.504C137.748 141.184 137.22 141.024 136.516 141.024C136.036 141.024 135.561 141.099 135.092 141.248C134.633 141.397 134.244 141.605 133.924 141.872L133.14 140.416C133.588 140.075 134.126 139.813 134.756 139.632C135.385 139.451 136.052 139.36 136.756 139.36ZM136.484 146.656C136.985 146.656 137.428 146.544 137.812 146.32C138.206 146.085 138.484 145.755 138.644 145.328V144.336H136.58C135.428 144.336 134.852 144.715 134.852 145.472C134.852 145.835 134.996 146.123 135.284 146.336C135.572 146.549 135.972 146.656 136.484 146.656ZM143.21 136.128H145.21V148H143.21V136.128ZM153.393 147.536C153.159 147.728 152.871 147.872 152.529 147.968C152.199 148.064 151.847 148.112 151.473 148.112C150.535 148.112 149.809 147.867 149.297 147.376C148.785 146.885 148.529 146.171 148.529 145.232V141.12H147.121V139.52H148.529V137.568H150.529V139.52H152.817V141.12H150.529V145.184C150.529 145.6 150.631 145.92 150.833 146.144C151.036 146.357 151.329 146.464 151.713 146.464C152.161 146.464 152.535 146.347 152.833 146.112L153.393 147.536ZM159.887 139.36C160.964 139.36 161.828 139.675 162.479 140.304C163.129 140.933 163.455 141.867 163.455 143.104V148H161.455V143.36C161.455 142.613 161.279 142.053 160.927 141.68C160.575 141.296 160.073 141.104 159.423 141.104C158.687 141.104 158.105 141.328 157.679 141.776C157.252 142.213 157.039 142.848 157.039 143.68V148H155.039V136.128H157.039V140.448C157.369 140.096 157.775 139.829 158.255 139.648C158.745 139.456 159.289 139.36 159.887 139.36Z" fill="black"/>
<path d="M79.1147 89.6434C79.23 88.7786 79.4761 87.9353 79.8452 87.1409" stroke="#9AC1C0" stroke-width="0.75" stroke-miterlimit="10"/>
<path d="M96.7664 98.1453C94.851 99.6813 92.4504 100.524 89.971 100.532" stroke="#9AC1C0" stroke-width="0.75" stroke-miterlimit="10"/>
<path d="M100.317 88.6988C100.538 89.7061 100.589 90.7414 100.47 91.7648" stroke="#9AC1C0" stroke-width="0.75" stroke-miterlimit="10"/>
<path d="M92.1281 80.8267C93.6806 81.2354 95.1276 81.9582 96.3752 82.948" stroke="#9AC1C0" stroke-width="0.75" stroke-miterlimit="10"/>
<path d="M81.2546 84.8042C81.9251 83.6505 82.8472 82.6548 83.9558 81.8873" stroke="#9AC1C0" stroke-width="0.75" stroke-miterlimit="10"/>
<path d="M86.5735 80.9261C87.5084 80.755 88.4616 80.6993 89.4106 80.7604" stroke="#9AC1C0" stroke-width="0.75" stroke-miterlimit="10"/>
<path d="M83.023 98.0459C81.1259 96.6093 79.8572 94.5249 79.4724 92.2123" stroke="#9AC1C0" stroke-width="0.75" stroke-miterlimit="10"/>
<path d="M87.998 100.3C86.887 100.105 85.8111 99.7535 84.8042 99.2557" stroke="#9AC1C0" stroke-width="0.75" stroke-miterlimit="10"/>
<path d="M100.028 93.2066C99.7862 94.6839 99.2055 96.0888 98.3295 97.3167" stroke="#9AC1C0" stroke-width="0.75" stroke-miterlimit="10"/>
<path d="M97.3442 83.9921C98.375 84.8209 99.2047 85.8624 99.7736 87.0415" stroke="#9AC1C0" stroke-width="0.75" stroke-miterlimit="10"/>
<path d="M173.045 93.1071C173.198 92.0261 173.507 90.9717 173.962 89.9749" stroke="#F9C7F7" stroke-width="0.75" stroke-miterlimit="10"/>
<path d="M195.267 103.73C192.828 105.663 189.778 106.711 186.637 106.697" stroke="#F9C7F7" stroke-width="0.75" stroke-miterlimit="10"/>
<path d="M199.734 91.8476C200.008 93.1054 200.071 94.3984 199.92 95.6759" stroke="#F9C7F7" stroke-width="0.75" stroke-miterlimit="10"/>
<path d="M189.421 82.0696C191.371 82.5907 193.192 83.4928 194.773 84.7213" stroke="#F9C7F7" stroke-width="0.75" stroke-miterlimit="10"/>
<path d="M175.725 87.0415C176.573 85.6 177.732 84.3559 179.122 83.3954" stroke="#F9C7F7" stroke-width="0.75" stroke-miterlimit="10"/>
<path d="M182.421 82.2188C183.602 82.0064 184.806 81.9341 186.005 82.0033" stroke="#F9C7F7" stroke-width="0.75" stroke-miterlimit="10"/>
<path d="M177.954 103.614C175.574 101.831 173.982 99.2289 173.503 96.3389" stroke="#F9C7F7" stroke-width="0.75" stroke-miterlimit="10"/>
<path d="M184.222 106.498C182.829 106.256 181.479 105.821 180.212 105.205" stroke="#F9C7F7" stroke-width="0.75" stroke-miterlimit="10"/>
<path d="M199.374 97.5653C199.053 99.4125 198.316 101.167 197.217 102.703" stroke="#F9C7F7" stroke-width="0.75" stroke-miterlimit="10"/>
<path d="M195.998 86.0471C197.301 87.1078 198.345 88.4382 199.056 89.9417" stroke="#F9C7F7" stroke-width="0.75" stroke-miterlimit="10"/>
<path d="M30 62.5137C30.1841 61.1867 30.5438 59.8887 31.0703 58.6522" stroke="#F9BF87" stroke-width="0.75" stroke-miterlimit="10"/>
<path d="M55.8041 75.6228C53.0201 77.9856 49.4541 79.2865 45.7639 79.2854" stroke="#F9BF87" stroke-width="0.75" stroke-miterlimit="10"/>
<path d="M61.0201 60.9557C61.3425 62.5099 61.4113 64.1039 61.224 65.679" stroke="#F9BF87" stroke-width="0.75" stroke-miterlimit="10"/>
<path d="M49.0092 48.9238C51.3036 49.5879 53.4283 50.7175 55.244 52.2384" stroke="#F9BF87" stroke-width="0.75" stroke-miterlimit="10"/>
<path d="M33.0761 55.0558C34.0556 53.3025 35.4116 51.7761 37.0514 50.5811" stroke="#F9BF87" stroke-width="0.75" stroke-miterlimit="10"/>
<path d="M40.8563 49.0564C42.2338 48.8083 43.6372 48.7248 45.0355 48.8078" stroke="#F9BF87" stroke-width="0.75" stroke-miterlimit="10"/>
<path d="M35.6719 75.4405C32.8515 73.1835 30.9974 69.9798 30.4734 66.458" stroke="#F9BF87" stroke-width="0.75" stroke-miterlimit="10"/>
<path d="M42.947 79.0368C41.3202 78.7109 39.7517 78.1525 38.2922 77.3795" stroke="#F9BF87" stroke-width="0.75" stroke-miterlimit="10"/>
<path d="M60.5804 68.0158C60.2185 70.2779 59.3609 72.4372 58.0661 74.3467" stroke="#F9BF87" stroke-width="0.75" stroke-miterlimit="10"/>
<path d="M56.6738 53.7963C58.2044 55.1248 59.4166 56.7657 60.2244 58.6024" stroke="#F9BF87" stroke-width="0.75" stroke-miterlimit="10"/>
<path d="M147.204 93.4883L141.496 108.702L131.898 96.5046L121.178 104.509L112.667 97.1344" stroke="#F7C2F9" stroke-miterlimit="10"/>
<path d="M132.917 73.1368C130.22 71.191 128.394 68.3065 127.82 65.0824" stroke="#9AC1C0" stroke-width="0.75" stroke-miterlimit="10"/>
<path d="M157.548 66.458C157.175 68.5098 156.32 70.4495 155.051 72.1259" stroke="#9AC1C0" stroke-width="0.75" stroke-miterlimit="10"/>
<path d="M71.4866 89.2954C71.7199 87.5418 72.1883 85.8256 72.8796 84.1909" stroke="#FCC3FC" stroke-width="0.75" stroke-miterlimit="10"/>
<path d="M111.664 87.257C112.086 89.3077 112.177 91.4101 111.936 93.4884" stroke="#FCC3FC" stroke-width="0.75" stroke-miterlimit="10"/>
<path d="M75.548 79.4345C76.7854 77.1148 78.5243 75.0849 80.6446 73.4849" stroke="#FCC3FC" stroke-width="0.75" stroke-miterlimit="10"/>
<path d="M106.039 77.7772C108.029 79.5474 109.6 81.719 110.643 84.1412" stroke="#FCC3FC" stroke-width="0.75" stroke-miterlimit="10"/>
<path fill-rule="evenodd" clip-rule="evenodd" d="M145.133 86.8924C143.667 82.5885 143.934 77.902 145.88 73.7832C149.737 66.1431 159.471 62.6296 167.676 64.0715C171.853 64.6938 175.716 66.605 178.698 69.5248C181.681 72.4447 183.626 76.2196 184.249 80.2965C184.872 84.3734 184.14 88.5377 182.161 92.1792C180.181 95.8208 177.058 98.748 173.249 100.532C161.662 105.835 148.462 96.6207 145.133 86.8924Z" fill="#D7F4F4"/>
<path fill-rule="evenodd" clip-rule="evenodd" d="M103.188 66.922C100.808 68.9166 98.9865 71.469 97.8958 74.3392C96.8051 77.2094 96.4807 80.303 96.9531 83.3292C97.5207 86.6738 99.0256 89.8 101.301 92.3622C103.577 94.9244 106.535 96.8227 109.847 97.847C113.333 98.8488 117.036 98.8865 120.542 97.9559C124.049 97.0254 127.222 95.1632 129.707 92.5769C134.634 87.605 137.267 79.534 134.345 73.0208C129.724 62.5633 112.345 59.6134 103.188 66.922Z" fill="#D7F4F4"/>
<path fill-rule="evenodd" clip-rule="evenodd" d="M51.4241 68.8941C57.8457 62.9942 68.7014 62.381 76.5331 67.5352C83.9401 72.507 87.6096 81.7713 84.8914 89.7594C81.086 100.996 65.6095 106.664 55.1445 100.648C44.17 94.3335 42.3692 77.2469 51.4241 68.8941Z" fill="#D7F4F4"/>
<path fill-rule="evenodd" clip-rule="evenodd" d="M147.035 84.3899C145.571 80.0789 145.844 75.3855 147.8 71.2641C151.656 63.6406 161.391 60.1105 169.579 61.5524C173.785 62.1499 177.681 64.0532 180.691 66.9804C183.7 69.9075 185.663 73.7027 186.289 77.8035C186.914 81.9043 186.168 86.0926 184.162 89.7476C182.156 93.4026 178.997 96.3299 175.151 98.0956C163.565 103.316 150.365 94.1016 147.035 84.3899Z" fill="#AFD9DB"/>
<path fill-rule="evenodd" clip-rule="evenodd" d="M105.039 64.0217C102.656 66.0108 100.833 68.56 99.7423 71.4281C98.6513 74.2962 98.3285 77.3885 98.8043 80.4123C99.3776 83.7648 100.893 86.8965 103.181 89.4595C105.469 92.0224 108.441 93.9161 111.767 94.9302C115.252 95.9319 118.955 95.9696 122.462 95.0391C125.968 94.1085 129.141 92.2463 131.626 89.66C136.553 84.6881 139.186 76.6171 136.264 70.104C131.575 59.6465 114.196 56.6965 105.039 64.0217Z" fill="#AFD9DB"/>
<path fill-rule="evenodd" clip-rule="evenodd" d="M53.6326 66.3917C60.0542 60.4751 70.8929 59.8619 78.7416 65.0327C86.1486 70.0046 89.8181 79.2688 87.1 87.2569C83.2945 98.4934 67.818 104.161 57.3531 98.1453C46.3785 91.8145 44.5777 74.7444 53.6326 66.3917Z" fill="#AFD9DB"/>
<path d="M65.8308 92.8254C63.9221 92.8309 62.0659 92.2165 60.5547 91.0792C59.0435 89.9418 57.9633 88.3462 57.4843 86.5438C57.0054 84.7414 57.155 82.8348 57.9095 81.1245C58.664 79.4142 59.9806 77.9975 61.6516 77.0977H61.7705C61.7838 77.1296 61.7838 77.1653 61.7705 77.1972L61.9234 79.103C61.0742 79.7267 60.383 80.532 59.9029 81.4572C59.4228 82.3824 59.1667 83.4026 59.1543 84.4395C59.1765 86.036 59.8052 87.5677 60.9187 88.738C62.0322 89.9082 63.5513 90.6337 65.1817 90.774C66.812 90.9143 68.4378 90.4593 69.7441 89.4973C71.0503 88.5353 71.9441 87.1346 72.2525 85.5665C72.2598 85.543 72.2729 85.5216 72.2907 85.5043C72.3085 85.487 72.3303 85.4742 72.3544 85.467C72.3729 85.4582 72.3933 85.4537 72.4139 85.4537C72.4345 85.4537 72.4548 85.4582 72.4733 85.467L73.6285 87.5718C73.0109 89.1042 71.9393 90.4223 70.5505 91.358C69.1616 92.2937 67.5185 92.8046 65.8308 92.8254Z" fill="#F492D8"/>
<path d="M61.7183 77.2304L61.8712 79.1362C60.9508 79.7632 60.2039 80.6028 59.6973 81.5801C59.1908 82.5573 58.9403 83.6418 58.9682 84.7366C58.9962 85.8313 59.3017 86.9023 59.8575 87.8538C60.4133 88.8052 61.2021 89.6075 62.1533 90.189C63.1046 90.7705 64.1887 91.113 65.3088 91.186C66.4289 91.2589 67.55 91.0601 68.5721 90.6072C69.5941 90.1542 70.4852 89.4613 71.1658 88.5904C71.8463 87.7195 72.2951 86.6977 72.472 85.6163L73.6272 87.721C73.1011 88.9411 72.283 90.0205 71.2414 90.8688C70.1998 91.7171 68.9651 92.3096 67.6405 92.5968C66.316 92.884 64.9402 92.8575 63.6284 92.5194C62.3165 92.1814 61.1068 91.5417 60.1004 90.6539C59.094 89.7661 58.3202 88.656 57.8439 87.4166C57.3676 86.1772 57.2026 84.8445 57.3627 83.5301C57.5228 82.2156 58.0033 80.9578 58.7641 79.8617C59.5248 78.7657 60.5436 77.8634 61.7353 77.2304H61.7183ZM61.7353 76.9818C61.6913 76.9666 61.6433 76.9666 61.5994 76.9818C60.3917 77.6408 59.3622 78.5708 58.5961 79.695C57.83 80.8192 57.3493 82.1051 57.1938 83.4465C57.0383 84.7879 57.2125 86.1461 57.7019 87.4088C58.1913 88.6715 58.9819 89.8023 60.0083 90.7077C61.0346 91.6132 62.2673 92.2672 63.6042 92.6156C64.9411 92.9641 66.3438 92.997 67.6963 92.7115C69.0488 92.4261 70.3122 91.8307 71.382 90.9744C72.4517 90.1181 73.2971 89.0256 73.8481 87.7873C73.8647 87.7537 73.8733 87.7169 73.8733 87.6796C73.8733 87.6423 73.8647 87.6055 73.8481 87.5719L72.6929 85.4671C72.6649 85.4379 72.6304 85.4153 72.5922 85.401C72.5539 85.3866 72.5129 85.3809 72.472 85.3842C72.4214 85.3934 72.3749 85.4173 72.3385 85.4528C72.3021 85.4883 72.2776 85.5338 72.2682 85.5831C72.0776 86.597 71.6355 87.5499 70.9804 88.3587C70.3254 89.1675 69.4774 89.8076 68.5104 90.223C67.5433 90.6385 66.4868 90.8167 65.4329 90.742C64.3791 90.6673 63.36 90.3422 62.4646 89.7948C61.5693 89.2474 60.8249 88.4946 60.2965 87.6019C59.7681 86.7093 59.4717 85.704 59.4333 84.6739C59.3949 83.6438 59.6156 82.6202 60.076 81.6925C60.5365 80.7648 61.2229 79.9611 62.0751 79.3517C62.108 79.326 62.1344 79.2931 62.1521 79.2557C62.1698 79.2183 62.1783 79.1774 62.177 79.1362L62.0241 77.2304C62.0204 77.1887 62.006 77.1487 61.9822 77.1139C61.9585 77.0792 61.9261 77.0508 61.8882 77.0315C61.8496 77.0189 61.8078 77.0189 61.7692 77.0315L61.7353 76.9818Z" fill="#F492D8"/>
<path d="M65.8308 92.8254C63.9221 92.8309 62.0659 92.2165 60.5547 91.0792C59.0435 89.9418 57.9633 88.3462 57.4843 86.5438C57.0054 84.7414 57.155 82.8348 57.9095 81.1245C58.664 79.4142 59.9806 77.9975 61.6516 77.0977H61.7705C61.7838 77.1296 61.7838 77.1653 61.7705 77.1972L61.9234 79.103C61.0742 79.7267 60.383 80.532 59.9029 81.4572C59.4228 82.3824 59.1667 83.4026 59.1543 84.4395C59.1765 86.036 59.8052 87.5677 60.9187 88.738C62.0322 89.9082 63.5513 90.6337 65.1817 90.774C66.812 90.9143 68.4378 90.4593 69.7441 89.4973C71.0503 88.5353 71.9441 87.1346 72.2525 85.5665C72.2598 85.543 72.2729 85.5216 72.2907 85.5043C72.3085 85.487 72.3303 85.4742 72.3544 85.467C72.3729 85.4582 72.3933 85.4537 72.4139 85.4537C72.4345 85.4537 72.4548 85.4582 72.4733 85.467L73.6285 87.5718C73.0109 89.1042 71.9393 90.4223 70.5505 91.358C69.1616 92.2937 67.5185 92.8046 65.8308 92.8254Z" fill="#F492D8"/>
<path d="M61.7183 77.2304L61.8712 79.1362C60.9508 79.7632 60.2039 80.6028 59.6973 81.5801C59.1908 82.5573 58.9403 83.6418 58.9682 84.7366C58.9962 85.8313 59.3017 86.9023 59.8575 87.8538C60.4133 88.8052 61.2021 89.6075 62.1533 90.189C63.1046 90.7705 64.1887 91.113 65.3088 91.186C66.4289 91.2589 67.55 91.0601 68.5721 90.6072C69.5941 90.1542 70.4852 89.4613 71.1658 88.5904C71.8463 87.7195 72.2951 86.6977 72.472 85.6163L73.6272 87.721C73.1011 88.9411 72.283 90.0205 71.2414 90.8688C70.1998 91.7171 68.9651 92.3096 67.6405 92.5968C66.316 92.884 64.9402 92.8575 63.6284 92.5194C62.3165 92.1814 61.1068 91.5417 60.1004 90.6539C59.094 89.7661 58.3202 88.656 57.8439 87.4166C57.3676 86.1772 57.2026 84.8445 57.3627 83.5301C57.5228 82.2156 58.0033 80.9578 58.7641 79.8617C59.5248 78.7657 60.5436 77.8634 61.7353 77.2304H61.7183ZM61.7353 76.9818C61.6913 76.9666 61.6433 76.9666 61.5994 76.9818C60.3917 77.6408 59.3622 78.5708 58.5961 79.695C57.83 80.8192 57.3493 82.1051 57.1938 83.4465C57.0383 84.7879 57.2125 86.1461 57.7019 87.4088C58.1913 88.6715 58.9819 89.8023 60.0083 90.7077C61.0346 91.6132 62.2673 92.2672 63.6042 92.6156C64.9411 92.9641 66.3438 92.997 67.6963 92.7115C69.0488 92.4261 70.3122 91.8307 71.382 90.9744C72.4517 90.1181 73.2971 89.0256 73.8481 87.7873C73.8647 87.7537 73.8733 87.7169 73.8733 87.6796C73.8733 87.6423 73.8647 87.6055 73.8481 87.5719L72.6929 85.4671C72.6649 85.4379 72.6304 85.4153 72.5922 85.401C72.5539 85.3866 72.5129 85.3809 72.472 85.3842C72.4214 85.3934 72.3749 85.4173 72.3385 85.4528C72.3021 85.4883 72.2776 85.5338 72.2682 85.5831C72.0776 86.597 71.6355 87.5499 70.9804 88.3587C70.3254 89.1675 69.4774 89.8076 68.5104 90.223C67.5433 90.6385 66.4868 90.8167 65.4329 90.742C64.3791 90.6673 63.36 90.3422 62.4646 89.7948C61.5693 89.2474 60.8249 88.4946 60.2965 87.6019C59.7681 86.7093 59.4717 85.704 59.4333 84.6739C59.3949 83.6438 59.6156 82.6202 60.076 81.6925C60.5365 80.7648 61.2229 79.9611 62.0751 79.3517C62.108 79.326 62.1344 79.2931 62.1521 79.2557C62.1698 79.2183 62.1783 79.1774 62.177 79.1362L62.0241 77.2304C62.0204 77.1887 62.006 77.1487 61.9822 77.1139C61.9585 77.0792 61.9261 77.0508 61.8882 77.0315C61.8496 77.0189 61.8078 77.0189 61.7692 77.0315L61.7353 76.9818Z" fill="#F492D8"/>
<path fill-rule="evenodd" clip-rule="evenodd" d="M75.8687 90.1075H75.7837L72.2162 82.0696L63.6199 82.3348C63.5884 82.3348 63.5582 82.3225 63.5359 82.3008C63.5136 82.279 63.501 82.2495 63.501 82.2188L62.125 71.2806V70.8L61.8192 69.9548V69.0433L62.091 68.2312L62.6346 67.6015L63.3481 67.27L64.0956 67.154L64.962 67.27L65.5906 67.6512L66.0323 68.3141L66.3211 69.0764V69.7725L66.1682 70.3691L65.8455 70.8663L65.3698 71.2475L64.8431 71.4961H64.4864L65.0809 76.2857L71.0439 76.1365C71.0439 76.1365 71.1629 76.1365 71.1798 76.2691V78.1087C71.1798 78.1395 71.1673 78.169 71.145 78.1907C71.1227 78.2125 71.0925 78.2247 71.0609 78.2247L65.3358 78.4899L65.4887 80.1471L73.6941 79.8654L76.871 87.2238L79.759 86.0305H79.861C79.8682 86.0577 79.8682 86.0862 79.861 86.1134L80.6085 87.9033C80.6198 87.9141 80.6287 87.927 80.6349 87.9412C80.641 87.9554 80.6442 87.9707 80.6442 87.9861C80.6442 88.0016 80.641 88.0168 80.6349 88.0311C80.6287 88.0453 80.6198 88.0582 80.6085 88.069L75.8687 90.0909V90.1075Z" fill="#DB7028"/>
<path d="M64.0959 67.27L64.9283 67.386L65.5059 67.7672L65.9137 68.3804L66.1855 69.1096V69.7725L66.0326 70.336L65.7268 70.8L65.2681 71.1646L64.7755 71.3801H64.3338L64.9283 76.352H71.0272V78.1916L65.1492 78.4567L65.3531 80.3129L73.6604 80.0312L76.7694 87.4227L79.7763 86.1797L80.5238 87.9862L75.869 89.9915L72.3353 82.0696L63.6202 82.2519L62.2612 71.3138V70.8L61.9384 69.9217V69.0433L62.2102 68.2644L62.7368 67.6843L63.4164 67.386L64.1129 67.27H64.0959ZM64.1129 67.0214L63.3994 67.1374L62.7368 67.4357H62.6349L62.1252 68.0158L61.8534 68.7947V69.6731L62.1592 70.5183V70.9161L63.5183 81.8708C63.5204 81.9012 63.5287 81.931 63.5427 81.9584C63.5567 81.9857 63.5761 82.0101 63.5998 82.0301C63.6235 82.0502 63.651 82.0654 63.6807 82.075C63.7105 82.0847 63.7419 82.0884 63.7731 82.0862L72.2674 81.9039L75.6651 89.7595C75.7037 89.8156 75.7563 89.8612 75.818 89.892H75.9199L80.6937 87.8536C80.7247 87.8427 80.753 87.8257 80.7769 87.8036C80.8008 87.7815 80.8198 87.7548 80.8325 87.7252C80.8453 87.6956 80.8517 87.6638 80.8512 87.6317C80.8507 87.5995 80.8433 87.5679 80.8296 87.5387L80.0821 85.7322C80.0821 85.7322 80.0821 85.6162 79.9462 85.5996H79.8443H79.7423L76.9732 86.7266L73.9663 79.5671C73.943 79.5245 73.909 79.4883 73.8673 79.4622C73.8257 79.4361 73.7778 79.4208 73.7284 79.418L65.6589 79.6831L65.523 78.3242L71.1122 78.0756C71.1471 78.0756 71.1817 78.0687 71.2138 78.0552C71.2459 78.0417 71.2748 78.0219 71.2987 77.997C71.3226 77.9721 71.3409 77.9427 71.3527 77.9106C71.3645 77.8785 71.3693 77.8444 71.367 77.8104V75.9708C71.3627 75.9078 71.334 75.8487 71.2866 75.8056C71.2393 75.7625 71.1769 75.7386 71.1122 75.7388H65.2342L64.7075 71.2972H64.9623L65.472 71.0652L65.9137 70.7172L66.2195 70.2531L66.3724 69.7062V69.0433L66.1006 68.3141L65.6758 67.6346H65.5909L65.0133 67.2534H64.9114L64.0789 67.1374L64.1129 67.0214Z" fill="#DB7028"/>
<path fill-rule="evenodd" clip-rule="evenodd" d="M75.8687 90.1075H75.7837L72.2162 82.0696L63.6199 82.3348C63.5884 82.3348 63.5582 82.3225 63.5359 82.3008C63.5136 82.279 63.501 82.2495 63.501 82.2188L62.125 71.2806V70.8L61.8192 69.9548V69.0433L62.091 68.2312L62.6346 67.6015L63.3481 67.27L64.0956 67.154L64.962 67.27L65.5906 67.6512L66.0323 68.3141L66.3211 69.0764V69.7725L66.1682 70.3691L65.8455 70.8663L65.3698 71.2475L64.8431 71.4961H64.4864L65.0809 76.2857L71.0439 76.1365C71.0439 76.1365 71.1629 76.1365 71.1798 76.2691V78.1087C71.1798 78.1395 71.1673 78.169 71.145 78.1907C71.1227 78.2125 71.0925 78.2247 71.0609 78.2247L65.3358 78.4899L65.4887 80.1471L73.6941 79.8654L76.871 87.2238L79.759 86.0305H79.861C79.8682 86.0577 79.8682 86.0862 79.861 86.1134L80.6085 87.9033C80.6198 87.9141 80.6287 87.927 80.6349 87.9412C80.641 87.9554 80.6442 87.9707 80.6442 87.9861C80.6442 88.0016 80.641 88.0168 80.6349 88.0311C80.6287 88.0453 80.6198 88.0582 80.6085 88.069L75.8687 90.0909V90.1075Z" fill="#DB7028"/>
<path d="M64.0959 67.27L64.9283 67.386L65.5059 67.7672L65.9137 68.3804L66.1855 69.1096V69.7725L66.0326 70.336L65.7268 70.8L65.2681 71.1646L64.7755 71.3801H64.3338L64.9283 76.352H71.0272V78.1916L65.1492 78.4567L65.3531 80.3129L73.6604 80.0312L76.7694 87.4227L79.7763 86.1797L80.5238 87.9862L75.869 89.9915L72.3353 82.0696L63.6202 82.2519L62.2612 71.3138V70.8L61.9384 69.9217V69.0433L62.2102 68.2644L62.7368 67.6843L63.4164 67.386L64.1129 67.27H64.0959ZM64.1129 67.0214L63.3994 67.1374L62.7368 67.4357H62.6349L62.1252 68.0158L61.8534 68.7947V69.6731L62.1592 70.5183V70.9161L63.5183 81.8708C63.5204 81.9012 63.5287 81.931 63.5427 81.9584C63.5567 81.9857 63.5761 82.0101 63.5998 82.0301C63.6235 82.0502 63.651 82.0654 63.6807 82.075C63.7105 82.0847 63.7419 82.0884 63.7731 82.0862L72.2674 81.9039L75.6651 89.7595C75.7037 89.8156 75.7563 89.8612 75.818 89.892H75.9199L80.6937 87.8536C80.7247 87.8427 80.753 87.8257 80.7769 87.8036C80.8008 87.7815 80.8198 87.7548 80.8325 87.7252C80.8453 87.6956 80.8517 87.6638 80.8512 87.6317C80.8507 87.5995 80.8433 87.5679 80.8296 87.5387L80.0821 85.7322C80.0821 85.7322 80.0821 85.6162 79.9462 85.5996H79.8443H79.7423L76.9732 86.7266L73.9663 79.5671C73.943 79.5245 73.909 79.4883 73.8673 79.4622C73.8257 79.4361 73.7778 79.4208 73.7284 79.418L65.6589 79.6831L65.523 78.3242L71.1122 78.0756C71.1471 78.0756 71.1817 78.0687 71.2138 78.0552C71.2459 78.0417 71.2748 78.0219 71.2987 77.997C71.3226 77.9721 71.3409 77.9427 71.3527 77.9106C71.3645 77.8785 71.3693 77.8444 71.367 77.8104V75.9708C71.3627 75.9078 71.334 75.8487 71.2866 75.8056C71.2393 75.7625 71.1769 75.7386 71.1122 75.7388H65.2342L64.7075 71.2972H64.9623L65.472 71.0652L65.9137 70.7172L66.2195 70.2531L66.3724 69.7062V69.0433L66.1006 68.3141L65.6758 67.6346H65.5909L65.0133 67.2534H64.9114L64.0789 67.1374L64.1129 67.0214Z" fill="#DB7028"/>
<path d="M115.878 67.2535C115.875 66.8234 116.002 66.402 116.245 66.0428C116.487 65.6836 116.834 65.4028 117.24 65.2359C117.646 65.069 118.094 65.0237 118.527 65.1056C118.96 65.1875 119.358 65.3929 119.671 65.6959C119.984 65.9988 120.198 66.3856 120.285 66.8072C120.372 67.2288 120.329 67.6662 120.161 68.0639C119.993 68.4615 119.708 68.8016 119.342 69.0409C118.975 69.2802 118.544 69.4079 118.103 69.408C117.516 69.408 116.953 69.1815 116.536 68.7779C116.119 68.3744 115.882 67.8264 115.878 67.2535Z" fill="#DB7028" stroke="#DB7028" stroke-width="0.25" stroke-miterlimit="10"/>
<path d="M115.878 67.2535C115.875 66.8234 116.002 66.402 116.245 66.0428C116.487 65.6836 116.834 65.4028 117.24 65.2359C117.646 65.069 118.094 65.0237 118.527 65.1056C118.96 65.1875 119.358 65.3929 119.671 65.6959C119.984 65.9988 120.198 66.3856 120.285 66.8072C120.372 67.2288 120.329 67.6662 120.161 68.0639C119.993 68.4615 119.708 68.8016 119.342 69.0409C118.975 69.2802 118.544 69.4079 118.103 69.408C117.516 69.408 116.953 69.1815 116.536 68.7779C116.119 68.3744 115.882 67.8264 115.878 67.2535Z" fill="#DB7028" stroke="#DB7028" stroke-width="0.25" stroke-linejoin="round"/>
<path d="M128.45 70.7503H107.639V71.7613H128.45V70.7503Z" fill="#D8600E" stroke="#DB7028" stroke-width="0.75" stroke-linejoin="round"/>
<path d="M120.617 71.7613H115.606V79.9814H120.617V71.7613Z" fill="#DB7028" stroke="#DB7028" stroke-width="0.75" stroke-linejoin="round"/>
<path d="M115.606 72.9522L115.441 90.4193L116.477 90.4286L116.643 72.9615L115.606 72.9522Z" fill="#D8600E" stroke="#DB7028" stroke-width="0.75" stroke-linecap="round" stroke-linejoin="round"/>
<path d="M120.564 72.7649L119.528 72.7663L119.554 90.6485L120.59 90.6471L120.564 72.7649Z" fill="#D8600E" stroke="#DB7028" stroke-width="0.75" stroke-linecap="round" stroke-linejoin="round"/>
<path d="M115.723 83.412H116.828V85.9808H115.214V83.412H115.723Z" fill="#F492D8" stroke="#F492D8" stroke-width="0.75" stroke-linejoin="round"/>
<path d="M170.138 72.2584C170.138 71.829 170.269 71.4093 170.513 71.0523C170.758 70.6952 171.105 70.417 171.512 70.2526C171.918 70.0883 172.366 70.0453 172.798 70.1291C173.229 70.2129 173.626 70.4196 173.937 70.7233C174.248 71.0269 174.46 71.4137 174.546 71.8349C174.632 72.256 174.588 72.6925 174.42 73.0892C174.251 73.486 173.966 73.825 173.6 74.0636C173.234 74.3021 172.804 74.4295 172.363 74.4295C172.071 74.4317 171.78 74.377 171.509 74.2687C171.238 74.1604 170.992 74.0005 170.785 73.7985C170.578 73.5965 170.414 73.3563 170.303 73.0919C170.192 72.8275 170.136 72.5441 170.138 72.2584Z" fill="#DB7028" stroke="#DB7028" stroke-width="0.15" stroke-miterlimit="10"/>
<path d="M170.138 72.2584C170.138 71.829 170.269 71.4093 170.513 71.0523C170.758 70.6952 171.105 70.417 171.512 70.2526C171.918 70.0883 172.366 70.0453 172.798 70.1291C173.229 70.2129 173.626 70.4196 173.937 70.7233C174.248 71.0269 174.46 71.4137 174.546 71.8349C174.632 72.256 174.588 72.6925 174.42 73.0892C174.251 73.486 173.966 73.825 173.6 74.0636C173.234 74.3021 172.804 74.4295 172.363 74.4295C172.071 74.4317 171.78 74.377 171.509 74.2687C171.238 74.1604 170.992 74.0005 170.785 73.7985C170.578 73.5965 170.414 73.3563 170.303 73.0919C170.192 72.8275 170.136 72.5441 170.138 72.2584Z" fill="#DB7028" stroke="#DB7028" stroke-width="0.15" stroke-linejoin="round"/>
<path d="M159.504 78.755L163.769 74.4958L169.188 74.4129L173.333 78.3407L176.782 74.8935" stroke="#DB7028" stroke-width="1.5" stroke-linecap="round" stroke-linejoin="round"/>
<path d="M166.997 74.4461L161.527 80.114L164.143 82.6828L170.14 76.4846L170.53 76.0702L168.849 74.4295L166.997 74.4461Z" fill="#DB7028" stroke="#DB7028" stroke-width="0.6" stroke-linejoin="round"/>
<path d="M152.399 83.5571L159.347 83.4577L161.199 81.6015L161.964 80.8392" stroke="#DB7028" stroke-width="2" stroke-linecap="round" stroke-linejoin="round"/>
<path d="M164.866 81.9448L167.133 83.9147L166.096 89.684" stroke="#DB7028" stroke-width="2" stroke-linecap="round" stroke-linejoin="round"/>
<path d="M40.5135 92.9746L51.2843 97.5487L57.0604 103.598L68.9863 103.084L75.1702 108.255L82.4242 104.758" stroke="#FCB854" stroke-width="1.2" stroke-miterlimit="10"/>
<path d="M38.7837 92.5437C38.8798 92.2361 39.0656 91.9624 39.3184 91.756C39.5712 91.5496 39.8801 91.4194 40.2074 91.3813C40.5347 91.3432 40.8664 91.3988 41.1619 91.5414C41.4573 91.6839 41.7039 91.9073 41.8716 92.1842C42.0392 92.4611 42.1206 92.7796 42.1059 93.1009C42.0912 93.4221 41.981 93.7323 41.7887 93.9935C41.5965 94.2547 41.3305 94.4557 41.0231 94.572C40.7158 94.6883 40.3804 94.7149 40.0578 94.6485C39.8273 94.601 39.6093 94.5072 39.4179 94.3732C39.2265 94.2391 39.0658 94.0676 38.9459 93.8696C38.8261 93.6717 38.7498 93.4516 38.7219 93.2233C38.6939 92.995 38.715 92.7636 38.7837 92.5437Z" fill="#C1E0DF"/>
<path d="M38.7837 92.5437C38.8798 92.2361 39.0656 91.9624 39.3184 91.756C39.5712 91.5496 39.8801 91.4194 40.2074 91.3813C40.5347 91.3432 40.8664 91.3988 41.1619 91.5414C41.4573 91.6839 41.7039 91.9073 41.8716 92.1842C42.0392 92.4611 42.1206 92.7796 42.1059 93.1009C42.0912 93.4221 41.981 93.7323 41.7887 93.9935C41.5965 94.2547 41.3305 94.4557 41.0231 94.572C40.7158 94.6883 40.3804 94.7149 40.0578 94.6485C39.8273 94.601 39.6093 94.5072 39.4179 94.3732C39.2265 94.2391 39.0658 94.0676 38.9459 93.8696C38.8261 93.6717 38.7498 93.4516 38.7219 93.2233C38.6939 92.995 38.715 92.7636 38.7837 92.5437Z" fill="#C1E0DF"/>
<path d="M49.5713 97.1013C49.693 96.6617 49.9886 96.2873 50.3933 96.0604C50.7979 95.8336 51.2783 95.7728 51.7289 95.8914C52.1794 96.0101 52.5632 96.2986 52.7958 96.6933C53.0284 97.088 53.0907 97.5567 52.969 97.9962C52.9088 98.2138 52.8052 98.4178 52.6642 98.5964C52.5232 98.7749 52.3475 98.9247 52.1471 99.037C51.9468 99.1494 51.7257 99.2221 51.4965 99.2511C51.2674 99.2801 51.0346 99.2648 50.8115 99.206C50.5884 99.1473 50.3793 99.0462 50.1963 98.9086C50.0132 98.7711 49.8597 98.5997 49.7446 98.4042C49.6294 98.2088 49.5548 97.9931 49.5251 97.7696C49.4954 97.546 49.5111 97.3189 49.5713 97.1013Z" fill="#C1E0DF"/>
<path d="M49.5713 97.1013C49.693 96.6617 49.9886 96.2873 50.3933 96.0604C50.7979 95.8336 51.2783 95.7728 51.7289 95.8914C52.1794 96.0101 52.5632 96.2986 52.7958 96.6933C53.0284 97.088 53.0907 97.5567 52.969 97.9962C52.9088 98.2138 52.8052 98.4178 52.6642 98.5964C52.5232 98.7749 52.3475 98.9247 52.1471 99.037C51.9468 99.1494 51.7257 99.2221 51.4965 99.2511C51.2674 99.2801 51.0346 99.2648 50.8115 99.206C50.5884 99.1473 50.3793 99.0462 50.1963 98.9086C50.0132 98.7711 49.8597 98.5997 49.7446 98.4042C49.6294 98.2088 49.5548 97.9931 49.5251 97.7696C49.4954 97.546 49.5111 97.3189 49.5713 97.1013Z" fill="#C1E0DF"/>
<path d="M55.3498 103.167C55.4468 102.859 55.6336 102.585 55.8875 102.379C56.1413 102.173 56.4512 102.044 56.7792 102.007C57.1072 101.97 57.4392 102.027 57.7344 102.172C58.0297 102.316 58.2754 102.541 58.4417 102.819C58.6079 103.097 58.6874 103.417 58.6704 103.739C58.6535 104.06 58.5408 104.37 58.3461 104.63C58.1515 104.891 57.8833 105.09 57.5744 105.204C57.2656 105.318 56.9294 105.341 56.607 105.272C56.3779 105.222 56.1619 105.127 55.9724 104.992C55.7829 104.857 55.6241 104.686 55.506 104.488C55.3879 104.29 55.313 104.071 55.2861 103.843C55.2593 103.616 55.281 103.386 55.3498 103.167Z" fill="#C1E0DF"/>
<path d="M55.3498 103.167C55.4468 102.859 55.6336 102.585 55.8875 102.379C56.1413 102.173 56.4512 102.044 56.7792 102.007C57.1072 101.97 57.4392 102.027 57.7344 102.172C58.0297 102.316 58.2754 102.541 58.4417 102.819C58.6079 103.097 58.6874 103.417 58.6704 103.739C58.6535 104.06 58.5408 104.37 58.3461 104.63C58.1515 104.891 57.8833 105.09 57.5744 105.204C57.2656 105.318 56.9294 105.341 56.607 105.272C56.3779 105.222 56.1619 105.127 55.9724 104.992C55.7829 104.857 55.6241 104.686 55.506 104.488C55.3879 104.29 55.313 104.071 55.2861 103.843C55.2593 103.616 55.281 103.386 55.3498 103.167Z" fill="#C1E0DF"/>
<path d="M80.709 104.31C80.8087 104.004 80.9975 103.733 81.2524 103.53C81.5072 103.326 81.8172 103.2 82.1446 103.165C82.4719 103.13 82.8025 103.189 83.0962 103.334C83.3899 103.48 83.634 103.705 83.7988 103.983C83.9636 104.261 84.042 104.58 84.0245 104.901C84.0069 105.221 83.8942 105.53 83.7001 105.79C83.5059 106.049 83.2387 106.248 82.9308 106.362C82.623 106.476 82.2878 106.5 81.9661 106.432C81.7351 106.383 81.5172 106.287 81.3263 106.151C81.1353 106.015 80.9756 105.842 80.8572 105.642C80.7389 105.442 80.6646 105.221 80.6391 104.992C80.6136 104.762 80.6374 104.53 80.709 104.31Z" fill="#C1E0DF"/>
<path d="M80.709 104.31C80.8087 104.004 80.9975 103.733 81.2524 103.53C81.5072 103.326 81.8172 103.2 82.1446 103.165C82.4719 103.13 82.8025 103.189 83.0962 103.334C83.3899 103.48 83.634 103.705 83.7988 103.983C83.9636 104.261 84.042 104.58 84.0245 104.901C84.0069 105.221 83.8942 105.53 83.7001 105.79C83.5059 106.049 83.2387 106.248 82.9308 106.362C82.623 106.476 82.2878 106.5 81.9661 106.432C81.7351 106.383 81.5172 106.287 81.3263 106.151C81.1353 106.015 80.9756 105.842 80.8572 105.642C80.7389 105.442 80.6646 105.221 80.6391 104.992C80.6136 104.762 80.6374 104.53 80.709 104.31Z" fill="#C1E0DF"/>
<path d="M73.4558 107.824C73.5555 107.518 73.7443 107.247 73.9992 107.043C74.254 106.84 74.564 106.713 74.8913 106.678C75.2187 106.644 75.5493 106.703 75.843 106.848C76.1366 106.993 76.3807 107.218 76.5455 107.497C76.7103 107.775 76.7887 108.093 76.7712 108.414C76.7537 108.735 76.641 109.044 76.4469 109.303C76.2527 109.563 75.9855 109.761 75.6776 109.875C75.3698 109.989 75.0346 110.014 74.7129 109.945C74.4819 109.896 74.264 109.801 74.073 109.665C73.8821 109.529 73.7223 109.355 73.604 109.155C73.4857 108.956 73.4114 108.734 73.3858 108.505C73.3603 108.276 73.3841 108.044 73.4558 107.824Z" fill="#C1E0DF"/>
<path d="M73.4558 107.824C73.5555 107.518 73.7443 107.247 73.9992 107.043C74.254 106.84 74.564 106.713 74.8913 106.678C75.2187 106.644 75.5493 106.703 75.843 106.848C76.1366 106.993 76.3807 107.218 76.5455 107.497C76.7103 107.775 76.7887 108.093 76.7712 108.414C76.7537 108.735 76.641 109.044 76.4469 109.303C76.2527 109.563 75.9855 109.761 75.6776 109.875C75.3698 109.989 75.0346 110.014 74.7129 109.945C74.4819 109.896 74.264 109.801 74.073 109.665C73.8821 109.529 73.7223 109.355 73.604 109.155C73.4857 108.956 73.4114 108.734 73.3858 108.505C73.3603 108.276 73.3841 108.044 73.4558 107.824Z" fill="#C1E0DF"/>
<path d="M67.2737 102.637C67.3734 102.33 67.5622 102.059 67.8171 101.856C68.072 101.653 68.3819 101.526 68.7093 101.491C69.0366 101.456 69.3672 101.515 69.6609 101.66C69.9546 101.806 70.1987 102.031 70.3635 102.309C70.5283 102.587 70.6067 102.906 70.5891 103.227C70.5716 103.548 70.4589 103.856 70.2648 104.116C70.0706 104.375 69.8034 104.574 69.4956 104.688C69.1877 104.802 68.8525 104.826 68.5308 104.758C68.0769 104.638 67.6901 104.347 67.4547 103.95C67.2192 103.552 67.1542 103.08 67.2737 102.637Z" fill="#C1E0DF"/>
<path d="M67.2737 102.637C67.3734 102.33 67.5622 102.059 67.8171 101.856C68.072 101.653 68.3819 101.526 68.7093 101.491C69.0366 101.456 69.3672 101.515 69.6609 101.66C69.9546 101.806 70.1987 102.031 70.3635 102.309C70.5283 102.587 70.6067 102.906 70.5891 103.227C70.5716 103.548 70.4589 103.856 70.2648 104.116C70.0706 104.375 69.8034 104.574 69.4956 104.688C69.1877 104.802 68.8525 104.826 68.5308 104.758C68.0769 104.638 67.6901 104.347 67.4547 103.95C67.2192 103.552 67.1542 103.08 67.2737 102.637Z" fill="#C1E0DF"/>
<path d="M123.812 56.9948L133.088 52.1721L142.755 58.1052L156.77 55.1055L168.39 63.6571" stroke="#F9C5F9" stroke-width="1.2" stroke-miterlimit="10"/>
<path d="M121.62 56.6137C121.649 56.3146 121.741 56.0246 121.89 55.762C122.04 55.4994 122.244 55.27 122.489 55.0881C122.734 54.9063 123.015 54.7761 123.314 54.7057C123.614 54.6353 123.925 54.6263 124.228 54.6793C124.531 54.7322 124.819 54.8459 125.075 55.0132C125.331 55.1805 125.548 55.3978 125.714 55.6512C125.879 55.9047 125.988 56.1889 126.035 56.4858C126.082 56.7827 126.065 57.0858 125.986 57.376C125.842 57.902 125.501 58.3561 125.03 58.6483C124.559 58.9404 123.993 59.0494 123.444 58.9534C122.894 58.8575 122.402 58.5638 122.064 58.1304C121.726 57.6971 121.568 57.1557 121.62 56.6137Z" fill="#D7F4F4"/>
<path d="M121.62 56.6137C121.649 56.3146 121.741 56.0246 121.89 55.762C122.04 55.4994 122.244 55.27 122.489 55.0881C122.734 54.9063 123.015 54.7761 123.314 54.7057C123.614 54.6353 123.925 54.6263 124.228 54.6793C124.531 54.7322 124.819 54.8459 125.075 55.0132C125.331 55.1805 125.548 55.3978 125.714 55.6512C125.879 55.9047 125.988 56.1889 126.035 56.4858C126.082 56.7827 126.065 57.0858 125.986 57.376C125.842 57.902 125.501 58.3561 125.03 58.6483C124.559 58.9404 123.993 59.0494 123.444 58.9534C122.894 58.8575 122.402 58.5638 122.064 58.1304C121.726 57.6971 121.568 57.1557 121.62 56.6137Z" fill="#D7F4F4"/>
<path d="M130.894 51.7909C131.002 51.2259 131.333 50.7249 131.816 50.3962C132.3 50.0675 132.896 49.9374 133.477 50.0342C133.91 50.1097 134.31 50.3088 134.628 50.6063C134.945 50.9039 135.165 51.2865 135.259 51.7059C135.353 52.1252 135.318 52.5625 135.158 52.9623C134.998 53.3621 134.719 53.7066 134.358 53.9522C133.997 54.1978 133.57 54.3335 133.13 54.3421C132.69 54.3506 132.257 54.2317 131.886 54.0004C131.515 53.7691 131.223 53.4357 131.047 53.0424C130.87 52.6491 130.817 52.2136 130.894 51.7909Z" fill="#D7F4F4"/>
<path d="M130.894 51.7909C131.002 51.2259 131.333 50.7249 131.816 50.3962C132.3 50.0675 132.896 49.9374 133.477 50.0342C133.91 50.1097 134.31 50.3088 134.628 50.6063C134.945 50.9039 135.165 51.2865 135.259 51.7059C135.353 52.1252 135.318 52.5625 135.158 52.9623C134.998 53.3621 134.719 53.7066 134.358 53.9522C133.997 54.1978 133.57 54.3335 133.13 54.3421C132.69 54.3506 132.257 54.2317 131.886 54.0004C131.515 53.7691 131.223 53.4357 131.047 53.0424C130.87 52.6491 130.817 52.2136 130.894 51.7909Z" fill="#D7F4F4"/>
<path d="M140.562 57.724C140.639 57.3014 140.843 56.9106 141.148 56.6011C141.453 56.2916 141.846 56.0772 142.276 55.9851C142.705 55.8931 143.154 55.9274 143.563 56.0838C143.973 56.2402 144.326 56.5116 144.578 56.8638C144.83 57.216 144.969 57.6331 144.978 58.0623C144.987 58.4916 144.865 58.9137 144.628 59.2754C144.39 59.6371 144.049 59.9221 143.646 60.0944C143.242 60.2666 142.796 60.3184 142.363 60.2431C142.075 60.1931 141.8 60.0883 141.554 59.9347C141.307 59.781 141.095 59.5815 140.927 59.3476C140.76 59.1136 140.642 58.8498 140.579 58.5713C140.516 58.2927 140.511 58.0048 140.562 57.724Z" fill="#D7F4F4"/>
<path d="M140.562 57.724C140.639 57.3014 140.843 56.9106 141.148 56.6011C141.453 56.2916 141.846 56.0772 142.276 55.9851C142.705 55.8931 143.154 55.9274 143.563 56.0838C143.973 56.2402 144.326 56.5116 144.578 56.8638C144.83 57.216 144.969 57.6331 144.978 58.0623C144.987 58.4916 144.865 58.9137 144.628 59.2754C144.39 59.6371 144.049 59.9221 143.646 60.0944C143.242 60.2666 142.796 60.3184 142.363 60.2431C142.075 60.1931 141.8 60.0883 141.554 59.9347C141.307 59.781 141.095 59.5815 140.927 59.3476C140.76 59.1136 140.642 58.8498 140.579 58.5713C140.516 58.2927 140.511 58.0048 140.562 57.724Z" fill="#D7F4F4"/>
<path d="M154.576 54.7244C154.719 54.1984 155.061 53.7443 155.532 53.4521C156.002 53.16 156.569 53.0511 157.118 53.147C157.667 53.2429 158.16 53.5366 158.497 53.97C158.835 54.4034 158.994 54.9447 158.942 55.4867C158.913 55.7858 158.821 56.0758 158.671 56.3384C158.522 56.601 158.318 56.8305 158.073 57.0123C157.828 57.1941 157.547 57.3243 157.247 57.3947C156.948 57.4651 156.637 57.4741 156.334 57.4212C156.031 57.3682 155.742 57.2545 155.486 57.0872C155.231 56.9199 155.013 56.7026 154.848 56.4492C154.683 56.1957 154.573 55.9115 154.526 55.6146C154.479 55.3178 154.496 55.0146 154.576 54.7244Z" fill="#D7F4F4"/>
<path d="M154.576 54.7244C154.719 54.1984 155.061 53.7443 155.532 53.4521C156.002 53.16 156.569 53.0511 157.118 53.147C157.667 53.2429 158.16 53.5366 158.497 53.97C158.835 54.4034 158.994 54.9447 158.942 55.4867C158.913 55.7858 158.821 56.0758 158.671 56.3384C158.522 56.601 158.318 56.8305 158.073 57.0123C157.828 57.1941 157.547 57.3243 157.247 57.3947C156.948 57.4651 156.637 57.4741 156.334 57.4212C156.031 57.3682 155.742 57.2545 155.486 57.0872C155.231 56.9199 155.013 56.7026 154.848 56.4492C154.683 56.1957 154.573 55.9115 154.526 55.6146C154.479 55.3178 154.496 55.0146 154.576 54.7244Z" fill="#D7F4F4"/>
<path d="M166.198 63.2759C166.226 62.9769 166.318 62.6869 166.468 62.4243C166.617 62.1617 166.821 61.9322 167.066 61.7504C167.311 61.5686 167.593 61.4384 167.892 61.368C168.191 61.2976 168.502 61.2886 168.805 61.3415C169.109 61.3944 169.397 61.5082 169.653 61.6755C169.909 61.8428 170.126 62.06 170.291 62.3135C170.456 62.567 170.566 62.8511 170.613 63.148C170.66 63.4449 170.643 63.7481 170.564 64.0383C170.42 64.5643 170.079 65.0184 169.608 65.3105C169.137 65.6027 168.571 65.7116 168.021 65.6157C167.472 65.5198 166.98 65.226 166.642 64.7927C166.304 64.3593 166.145 63.818 166.198 63.2759Z" fill="#D7F4F4"/>
<path d="M166.198 63.2759C166.226 62.9769 166.318 62.6869 166.468 62.4243C166.617 62.1617 166.821 61.9322 167.066 61.7504C167.311 61.5686 167.593 61.4384 167.892 61.368C168.191 61.2976 168.502 61.2886 168.805 61.3415C169.109 61.3944 169.397 61.5082 169.653 61.6755C169.909 61.8428 170.126 62.06 170.291 62.3135C170.456 62.567 170.566 62.8511 170.613 63.148C170.66 63.4449 170.643 63.7481 170.564 64.0383C170.42 64.5643 170.079 65.0184 169.608 65.3105C169.137 65.6027 168.571 65.7116 168.021 65.6157C167.472 65.5198 166.98 65.226 166.642 64.7927C166.304 64.3593 166.145 63.818 166.198 63.2759Z" fill="#D7F4F4"/>
<path d="M119.104 104.294C119.101 103.864 119.228 103.442 119.471 103.083C119.713 102.724 120.06 102.443 120.466 102.276C120.872 102.109 121.32 102.064 121.753 102.146C122.186 102.228 122.584 102.433 122.897 102.736C123.21 103.039 123.424 103.426 123.511 103.848C123.598 104.269 123.555 104.707 123.387 105.104C123.219 105.502 122.934 105.842 122.568 106.081C122.201 106.321 121.77 106.448 121.329 106.448C120.742 106.448 120.179 106.222 119.762 105.818C119.345 105.415 119.108 104.867 119.104 104.294Z" fill="#F7BA77"/>
<path d="M119.104 104.294C119.101 103.864 119.228 103.442 119.471 103.083C119.713 102.724 120.06 102.443 120.466 102.276C120.872 102.109 121.32 102.064 121.753 102.146C122.186 102.228 122.584 102.433 122.897 102.736C123.21 103.039 123.424 103.426 123.511 103.848C123.598 104.269 123.555 104.707 123.387 105.104C123.219 105.502 122.934 105.842 122.568 106.081C122.201 106.321 121.77 106.448 121.329 106.448C120.742 106.448 120.179 106.222 119.762 105.818C119.345 105.415 119.108 104.867 119.104 104.294Z" fill="#F7BA77"/>
<path d="M129.671 96.5046C129.665 96.0753 129.789 95.6537 130.027 95.2931C130.266 94.9325 130.61 94.6491 131.014 94.4788C131.418 94.3085 131.864 94.2588 132.297 94.3362C132.73 94.4135 133.13 94.6143 133.446 94.9133C133.762 95.2122 133.98 95.5958 134.072 96.0156C134.165 96.4354 134.128 96.8725 133.965 97.2717C133.803 97.6709 133.523 98.0141 133.161 98.2581C132.799 98.5021 132.371 98.6359 131.931 98.6425C131.638 98.6469 131.348 98.5951 131.076 98.49C130.805 98.3849 130.557 98.2287 130.347 98.0301C130.137 97.8316 129.97 97.5947 129.854 97.3329C129.738 97.0712 129.676 96.7897 129.671 96.5046Z" fill="#F7BA77"/>
<path d="M129.671 96.5046C129.665 96.0753 129.789 95.6537 130.027 95.2931C130.266 94.9325 130.61 94.6491 131.014 94.4788C131.418 94.3085 131.864 94.2588 132.297 94.3362C132.73 94.4135 133.13 94.6143 133.446 94.9133C133.762 95.2122 133.98 95.5958 134.072 96.0156C134.165 96.4354 134.128 96.8725 133.965 97.2717C133.803 97.6709 133.523 98.0141 133.161 98.2581C132.799 98.5021 132.371 98.6359 131.931 98.6425C131.638 98.6469 131.348 98.5951 131.076 98.49C130.805 98.3849 130.557 98.2287 130.347 98.0301C130.137 97.8316 129.97 97.5947 129.854 97.3329C129.738 97.0712 129.676 96.7897 129.671 96.5046Z" fill="#F7BA77"/>
<path d="M139.27 108.702C139.27 108.273 139.4 107.853 139.645 107.496C139.889 107.139 140.237 106.861 140.644 106.697C141.05 106.532 141.498 106.489 141.93 106.573C142.361 106.657 142.758 106.864 143.069 107.167C143.38 107.471 143.592 107.858 143.678 108.279C143.764 108.7 143.72 109.136 143.551 109.533C143.383 109.93 143.098 110.269 142.732 110.507C142.366 110.746 141.936 110.873 141.495 110.873C140.905 110.873 140.339 110.645 139.922 110.237C139.504 109.83 139.27 109.278 139.27 108.702Z" fill="#F7BA77"/>
<path d="M139.27 108.702C139.27 108.273 139.4 107.853 139.645 107.496C139.889 107.139 140.237 106.861 140.644 106.697C141.05 106.532 141.498 106.489 141.93 106.573C142.361 106.657 142.758 106.864 143.069 107.167C143.38 107.471 143.592 107.858 143.678 108.279C143.764 108.7 143.72 109.136 143.551 109.533C143.383 109.93 143.098 110.269 142.732 110.507C142.366 110.746 141.936 110.873 141.495 110.873C140.905 110.873 140.339 110.645 139.922 110.237C139.504 109.83 139.27 109.278 139.27 108.702Z" fill="#F7BA77"/>
<path d="M144.976 93.4884C144.976 93.0597 145.107 92.6406 145.35 92.2839C145.594 91.9273 145.941 91.649 146.346 91.4842C146.752 91.3194 147.199 91.2755 147.63 91.3579C148.061 91.4403 148.458 91.6455 148.77 91.9474C149.082 92.2494 149.295 92.6347 149.383 93.0548C149.47 93.4748 149.429 93.9108 149.263 94.3078C149.097 94.7048 148.814 95.045 148.451 95.2855C148.087 95.526 147.658 95.6561 147.219 95.6594C146.925 95.6616 146.634 95.6071 146.362 95.4989C146.09 95.3908 145.843 95.2312 145.634 95.0294C145.426 94.8276 145.26 94.5875 145.148 94.3231C145.035 94.0586 144.976 93.7749 144.976 93.4884Z" fill="#F7BA77"/>
<path d="M144.976 93.4884C144.976 93.0597 145.107 92.6406 145.35 92.2839C145.594 91.9273 145.941 91.649 146.346 91.4842C146.752 91.3194 147.199 91.2755 147.63 91.3579C148.061 91.4403 148.458 91.6455 148.77 91.9474C149.082 92.2494 149.295 92.6347 149.383 93.0548C149.47 93.4748 149.429 93.9108 149.263 94.3078C149.097 94.7048 148.814 95.045 148.451 95.2855C148.087 95.526 147.658 95.6561 147.219 95.6594C146.925 95.6616 146.634 95.6071 146.362 95.4989C146.09 95.3908 145.843 95.2312 145.634 95.0294C145.426 94.8276 145.26 94.5875 145.148 94.3231C145.035 94.0586 144.976 93.7749 144.976 93.4884Z" fill="#F7BA77"/>
<path d="M110.458 97.151C110.455 96.7202 110.583 96.2982 110.826 95.9386C111.07 95.5791 111.417 95.2982 111.824 95.1319C112.232 94.9655 112.68 94.9211 113.114 95.0044C113.547 95.0876 113.945 95.2947 114.257 95.5993C114.57 95.9039 114.782 96.2923 114.867 96.715C114.953 97.1377 114.907 97.5756 114.737 97.9729C114.566 98.3703 114.278 98.7092 113.91 98.9465C113.541 99.1838 113.108 99.3088 112.667 99.3055C112.082 99.3011 111.523 99.0728 111.11 98.6697C110.697 98.2666 110.463 97.7211 110.458 97.151Z" fill="#F7BA77"/>
<path d="M110.458 97.151C110.455 96.7202 110.583 96.2982 110.826 95.9386C111.07 95.5791 111.417 95.2982 111.824 95.1319C112.232 94.9655 112.68 94.9211 113.114 95.0044C113.547 95.0876 113.945 95.2947 114.257 95.5993C114.57 95.9039 114.782 96.2923 114.867 96.715C114.953 97.1377 114.907 97.5756 114.737 97.9729C114.566 98.3703 114.278 98.7092 113.91 98.9465C113.541 99.1838 113.108 99.3088 112.667 99.3055C112.082 99.3011 111.523 99.0728 111.11 98.6697C110.697 98.2666 110.463 97.7211 110.458 97.151Z" fill="#F7BA77"/>
</svg>
