<svg width="230" height="166" viewBox="0 0 230 166" fill="none" xmlns="http://www.w3.org/2000/svg">
<rect y="0.0927734" width="230" height="165.09" rx="6.7" fill="white"/>
<path d="M56.6668 147.629C56.4321 147.821 56.1441 147.965 55.8028 148.061C55.4721 148.157 55.1201 148.205 54.7468 148.205C53.8081 148.205 53.0828 147.959 52.5707 147.469C52.0588 146.978 51.8028 146.263 51.8028 145.325V141.213H50.3948V139.613H51.8028V137.661H53.8028V139.613H56.0908V141.213H53.8028V145.277C53.8028 145.693 53.9041 146.013 54.1068 146.237C54.3094 146.45 54.6028 146.557 54.9868 146.557C55.4348 146.557 55.8081 146.439 56.1068 146.205L56.6668 147.629ZM63.16 139.453C64.2373 139.453 65.1013 139.767 65.752 140.397C66.4027 141.026 66.728 141.959 66.728 143.197V148.093H64.728V143.453C64.728 142.706 64.552 142.146 64.2 141.773C63.848 141.389 63.3467 141.197 62.696 141.197C61.96 141.197 61.3787 141.421 60.952 141.869C60.5253 142.306 60.312 142.941 60.312 143.773V148.093H58.312V136.221H60.312V140.541C60.6427 140.189 61.048 139.922 61.528 139.741C62.0187 139.549 62.5627 139.453 63.16 139.453ZM71.1691 140.797C71.7451 139.901 72.7585 139.453 74.2091 139.453V141.357C74.0385 141.325 73.8838 141.309 73.7451 141.309C72.9665 141.309 72.3585 141.538 71.9211 141.997C71.4838 142.445 71.2651 143.095 71.2651 143.949V148.093H69.2651V139.549H71.1691V140.797ZM75.9058 139.549H77.9058V148.093H75.9058V139.549ZM76.9138 138.141C76.5511 138.141 76.2471 138.029 76.0018 137.805C75.7564 137.57 75.6338 137.282 75.6338 136.941C75.6338 136.599 75.7564 136.317 76.0018 136.093C76.2471 135.858 76.5511 135.741 76.9138 135.741C77.2764 135.741 77.5804 135.853 77.8258 136.077C78.0711 136.29 78.1938 136.562 78.1938 136.893C78.1938 137.245 78.0711 137.543 77.8258 137.789C77.5911 138.023 77.2871 138.141 76.9138 138.141ZM88.5308 139.549L84.8668 148.093H82.8028L79.1387 139.549H81.2188L83.8748 145.885L86.6108 139.549H88.5308ZM97.5784 143.869C97.5784 144.007 97.5677 144.205 97.5464 144.461H90.8424C90.9597 145.09 91.2637 145.591 91.7544 145.965C92.2557 146.327 92.8744 146.509 93.6104 146.509C94.549 146.509 95.3224 146.199 95.9304 145.581L97.0024 146.813C96.6184 147.271 96.133 147.618 95.5464 147.853C94.9597 148.087 94.2984 148.205 93.5624 148.205C92.6237 148.205 91.797 148.018 91.0824 147.645C90.3677 147.271 89.813 146.754 89.4184 146.093C89.0344 145.421 88.8424 144.663 88.8424 143.821C88.8424 142.989 89.029 142.242 89.4024 141.581C89.7864 140.909 90.3144 140.386 90.9864 140.013C91.6584 139.639 92.4157 139.453 93.2584 139.453C94.0904 139.453 94.8317 139.639 95.4824 140.013C96.1437 140.375 96.6557 140.893 97.0184 141.565C97.3917 142.226 97.5784 142.994 97.5784 143.869ZM93.2584 141.053C92.6184 141.053 92.0744 141.245 91.6264 141.629C91.189 142.002 90.9224 142.503 90.8264 143.133H95.6744C95.589 142.514 95.3277 142.013 94.8904 141.629C94.453 141.245 93.909 141.053 93.2584 141.053ZM108.769 139.453C109.847 139.453 110.711 139.767 111.361 140.397C112.012 141.026 112.337 141.959 112.337 143.197V148.093H110.337V143.453C110.337 142.706 110.161 142.146 109.809 141.773C109.457 141.389 108.956 141.197 108.305 141.197C107.569 141.197 106.988 141.421 106.561 141.869C106.135 142.306 105.921 142.941 105.921 143.773V148.093H103.921V139.549H105.825V140.653C106.156 140.258 106.572 139.959 107.073 139.757C107.575 139.554 108.14 139.453 108.769 139.453ZM122.985 143.869C122.985 144.007 122.974 144.205 122.953 144.461H116.249C116.366 145.09 116.67 145.591 117.161 145.965C117.662 146.327 118.281 146.509 119.017 146.509C119.955 146.509 120.729 146.199 121.337 145.581L122.409 146.813C122.025 147.271 121.539 147.618 120.953 147.853C120.366 148.087 119.705 148.205 118.969 148.205C118.03 148.205 117.203 148.018 116.489 147.645C115.774 147.271 115.219 146.754 114.825 146.093C114.441 145.421 114.249 144.663 114.249 143.821C114.249 142.989 114.435 142.242 114.809 141.581C115.193 140.909 115.721 140.386 116.393 140.013C117.065 139.639 117.822 139.453 118.665 139.453C119.497 139.453 120.238 139.639 120.889 140.013C121.55 140.375 122.062 140.893 122.425 141.565C122.798 142.226 122.985 142.994 122.985 143.869ZM118.665 141.053C118.025 141.053 117.481 141.245 117.033 141.629C116.595 142.002 116.329 142.503 116.233 143.133H121.081C120.995 142.514 120.734 142.013 120.297 141.629C119.859 141.245 119.315 141.053 118.665 141.053ZM130.042 147.629C129.807 147.821 129.519 147.965 129.178 148.061C128.847 148.157 128.495 148.205 128.122 148.205C127.183 148.205 126.458 147.959 125.946 147.469C125.434 146.978 125.178 146.263 125.178 145.325V141.213H123.77V139.613H125.178V137.661H127.178V139.613H129.466V141.213H127.178V145.277C127.178 145.693 127.279 146.013 127.482 146.237C127.684 146.45 127.978 146.557 128.362 146.557C128.81 146.557 129.183 146.439 129.482 146.205L130.042 147.629ZM144.859 139.549L141.707 148.093H139.787L137.579 142.205L135.339 148.093H133.419L130.283 139.549H132.171L134.427 145.853L136.779 139.549H138.459L140.763 145.885L143.083 139.549H144.859ZM149.84 148.205C148.976 148.205 148.197 148.018 147.504 147.645C146.81 147.271 146.266 146.754 145.872 146.093C145.488 145.421 145.296 144.663 145.296 143.821C145.296 142.978 145.488 142.226 145.872 141.565C146.266 140.903 146.81 140.386 147.504 140.013C148.197 139.639 148.976 139.453 149.84 139.453C150.714 139.453 151.498 139.639 152.192 140.013C152.885 140.386 153.424 140.903 153.808 141.565C154.202 142.226 154.4 142.978 154.4 143.821C154.4 144.663 154.202 145.421 153.808 146.093C153.424 146.754 152.885 147.271 152.192 147.645C151.498 148.018 150.714 148.205 149.84 148.205ZM149.84 146.493C150.576 146.493 151.184 146.247 151.664 145.757C152.144 145.266 152.384 144.621 152.384 143.821C152.384 143.021 152.144 142.375 151.664 141.885C151.184 141.394 150.576 141.149 149.84 141.149C149.104 141.149 148.496 141.394 148.016 141.885C147.546 142.375 147.312 143.021 147.312 143.821C147.312 144.621 147.546 145.266 148.016 145.757C148.496 146.247 149.104 146.493 149.84 146.493ZM158.216 140.797C158.792 139.901 159.805 139.453 161.256 139.453V141.357C161.085 141.325 160.931 141.309 160.792 141.309C160.013 141.309 159.405 141.538 158.968 141.997C158.531 142.445 158.312 143.095 158.312 143.949V148.093H156.312V139.549H158.216V140.797ZM166.441 144.429L164.953 145.837V148.093H162.953V136.221H164.953V143.389L169.097 139.549H171.497L167.929 143.133L171.833 148.093H169.401L166.441 144.429ZM175.499 148.205C174.806 148.205 174.128 148.114 173.467 147.933C172.806 147.751 172.278 147.522 171.883 147.245L172.651 145.725C173.035 145.981 173.494 146.189 174.027 146.349C174.571 146.498 175.104 146.573 175.627 146.573C176.822 146.573 177.419 146.258 177.419 145.629C177.419 145.33 177.264 145.122 176.955 145.005C176.656 144.887 176.171 144.775 175.499 144.669C174.795 144.562 174.219 144.439 173.771 144.301C173.334 144.162 172.95 143.922 172.619 143.581C172.299 143.229 172.139 142.743 172.139 142.125C172.139 141.314 172.475 140.669 173.147 140.189C173.83 139.698 174.747 139.453 175.899 139.453C176.486 139.453 177.072 139.522 177.659 139.661C178.246 139.789 178.726 139.965 179.099 140.189L178.331 141.709C177.606 141.282 176.79 141.069 175.883 141.069C175.296 141.069 174.848 141.159 174.539 141.341C174.24 141.511 174.091 141.741 174.091 142.029C174.091 142.349 174.251 142.578 174.571 142.717C174.902 142.845 175.408 142.967 176.091 143.085C176.774 143.191 177.334 143.314 177.771 143.453C178.208 143.591 178.582 143.826 178.891 144.157C179.211 144.487 179.371 144.957 179.371 145.565C179.371 146.365 179.024 147.005 178.331 147.485C177.638 147.965 176.694 148.205 175.499 148.205Z" fill="black"/>
<path d="M115.372 57.9486C116.823 58.9972 119.48 60.3999 125.867 62.5253C143.084 68.2781 151.257 62.0861 162.725 68.5331C168.706 71.8771 166.95 73.8183 176.778 80.4353C184.573 85.6638 187.781 85.8764 189.32 89.5037C191.948 95.7099 186.649 106.833 178.781 109.426C168.706 112.741 162.696 99.3656 143.81 95.5398C135.26 93.8112 126.971 95.6532 110.421 99.3231C88.4431 104.183 82.5202 109.171 63.7355 110.517C55.461 111.098 43.1508 111.863 40.5087 106.394C38.6506 102.511 42.2508 96.5742 45.3719 93.3294C52.5141 85.8764 61.0644 88.4835 62.9081 83.7793C65.5937 76.9072 48.9575 67.5271 51.9624 59.9182C52.877 57.6086 55.1416 56.6025 58.4224 55.1573C69.6293 50.2122 75.7554 56.8717 87.2962 53.5278C96.7466 50.7789 98.5322 44.5869 103.744 46.1172C108.389 47.4775 108.273 52.8335 115.372 57.9486Z" fill="#E2F2EE"/>
<path d="M90.0978 108.958C86.9447 108.891 83.7902 108.986 80.6473 109.242C73.1276 110.035 72.8373 111.466 67.2048 111.466C63.9676 111.466 61.8046 110.999 58.3351 112.033C58.0883 112.104 53.6316 113.45 53.7478 114.541C53.951 116.34 66.45 116.454 71.5018 116.496C92.6382 116.68 108.65 114.187 123.298 115.66C126.201 115.944 128.161 116.213 128.161 116.213C139.164 117.63 140.892 119.443 146.757 119.571C150.197 119.642 153.347 118.877 159.648 117.332C163.494 116.397 172.103 114.286 171.943 112.869C171.943 112.345 170.651 111.707 156.497 111.197C141.981 110.659 136.392 111.084 123.588 110.347C119.784 110.134 120.583 110.12 115.284 109.794C102.016 108.987 94.1044 108.944 90.0978 108.958Z" fill="#CCE5ED"/>
<path d="M91.4782 106.847C88.33 106.78 85.1803 106.875 82.0423 107.13C74.5226 107.924 74.2178 109.369 68.5853 109.369C65.348 109.369 63.1995 108.887 59.7155 109.922C59.4832 109.922 55.0266 111.339 55.1427 112.43C55.3315 114.243 67.8304 114.343 72.8822 114.385C94.0331 114.569 110.031 112.075 124.678 113.549C127.581 113.847 129.541 114.116 129.541 114.116C140.559 115.533 142.272 117.346 148.152 117.46C151.578 117.531 154.728 116.766 161.028 115.235C164.889 114.286 173.498 112.189 173.338 110.758C173.338 110.248 172.032 109.596 157.878 109.086C143.361 108.547 137.772 108.987 124.968 108.25C121.179 108.023 121.978 108.009 116.665 107.683C103.353 106.847 95.4848 106.847 91.4782 106.847Z" fill="#BCC8CE"/>
<path d="M87.9932 89.2911L91.3465 110.418C93.6164 110.992 95.9555 111.264 98.3001 111.225C100.545 111.192 102.776 110.868 104.934 110.262L107.983 89.2911H87.9932Z" stroke="#75869E" stroke-width="0.5" stroke-miterlimit="10"/>
<path d="M83.5223 65.6001H67.5393V72.288H83.5223V65.6001Z" fill="#BFBFBF" stroke="#BFBFBF" stroke-width="0.2" stroke-miterlimit="10"/>
<path d="M84.2919 58.8696H82.6515V62.4545H84.2919V58.8696Z" fill="black" stroke="black" stroke-width="0.3" stroke-miterlimit="10"/>
<path d="M89.9968 56.9993H76.9463C76.826 56.9993 76.7285 57.0944 76.7285 57.2118V58.487C76.7285 58.6044 76.826 58.6996 76.9463 58.6996H89.9968C90.1171 58.6996 90.2146 58.6044 90.2146 58.487V57.2118C90.2146 57.0944 90.1171 56.9993 89.9968 56.9993Z" fill="black"/>
<path d="M89.9966 57.2543V58.5437H76.9315V57.2543H89.9966ZM89.9966 56.8292H76.9315C76.8172 56.8328 76.7085 56.8787 76.6276 56.9577C76.5467 57.0366 76.4997 57.1427 76.496 57.2543V58.5437C76.4997 58.6553 76.5467 58.7614 76.6276 58.8404C76.7085 58.9193 76.8172 58.9653 76.9315 58.9688H89.9966C90.1121 58.9688 90.2229 58.924 90.3045 58.8443C90.3862 58.7646 90.4321 58.6565 90.4321 58.5437V57.2543C90.4321 57.1416 90.3862 57.0335 90.3045 56.9537C90.2229 56.874 90.1121 56.8292 89.9966 56.8292Z" fill="black"/>
<path d="M89.7341 94.9731L106.24 95.0582C105.543 99.9607 104.841 104.859 104.135 109.752C100.147 110.637 96.0131 110.699 91.9987 109.936L89.7341 94.9731Z" fill="#A4D3F7"/>
<path d="M93.7574 87.9875C92.0444 88.1576 87.9507 88.696 87.9507 89.0928C87.9507 89.9713 107.955 89.8862 107.984 89.0928C107.984 88.7385 103.803 88.2709 102.511 88.1292C99.6085 87.7521 96.6711 87.7046 93.7574 87.9875Z" fill="white" stroke="#75869E" stroke-width="0.5" stroke-miterlimit="10"/>
<path d="M98.0395 77.0914C97.5503 77.0892 97.0799 76.9071 96.7221 76.5815C96.3642 76.2559 96.1453 75.8106 96.1088 75.3344V75.0227C96.0547 74.4023 95.7663 73.8237 95.2994 73.3995C94.8325 72.9752 94.2207 72.7356 93.5828 72.7273H88.5455C87.814 72.7273 87.1125 72.4437 86.5952 71.9388C86.0779 71.4339 85.7874 70.7491 85.7874 70.0351V68.4481C85.7874 67.7341 86.0779 67.0494 86.5952 66.5445C87.1125 66.0396 87.814 65.756 88.5455 65.756H97.6621C98.1579 65.7556 98.6346 65.9429 98.992 66.2785C99.3493 66.6141 99.5595 67.0718 99.5783 67.5555L99.9847 75.1077C100.005 75.3665 99.9686 75.6265 99.8786 75.8707C99.7885 76.1149 99.6466 76.3378 99.4621 76.5247C99.2774 76.7092 99.0558 76.8546 98.8111 76.9521C98.5663 77.0496 98.3038 77.097 98.0395 77.0914Z" fill="#BFBFBF"/>
<path d="M97.6598 65.8267C98.1176 65.8296 98.557 66.0027 98.8887 66.3106C99.2204 66.6186 99.4195 67.0384 99.4453 67.4845L99.8373 75.0509C99.8506 75.2798 99.8177 75.509 99.7403 75.7254C99.6628 75.9419 99.5425 76.1413 99.3862 76.3124C99.2298 76.4834 99.0404 76.6227 98.8289 76.7223C98.6174 76.8219 98.3878 76.8799 98.1533 76.893C97.9188 76.906 97.684 76.8738 97.4623 76.7983C97.2406 76.7227 97.0362 76.6053 96.861 76.4526C96.6858 76.3 96.543 76.1152 96.441 75.9087C96.3389 75.7023 96.2795 75.4782 96.2662 75.2493V74.9518C96.212 74.2938 95.9081 73.6792 95.414 73.2284C94.92 72.7776 94.2713 72.5231 93.5951 72.5146H88.5578C87.8648 72.5146 87.2001 72.2459 86.7101 71.7676C86.2201 71.2893 85.9447 70.6406 85.9447 69.9642V68.3772C85.9485 67.7019 86.2251 67.0553 86.7143 66.5778C87.2035 66.1003 87.8659 65.8304 88.5578 65.8267H97.6598ZM97.6598 65.5433H88.5432C87.7732 65.5433 87.0347 65.8419 86.4903 66.3734C85.9458 66.9048 85.6399 67.6256 85.6399 68.3772V70.0067C85.6399 70.7583 85.9458 71.4791 86.4903 72.0105C87.0347 72.542 87.7732 72.8405 88.5432 72.8405H93.5806C94.1823 72.849 94.7593 73.0756 95.1993 73.4763C95.6393 73.877 95.9109 74.4231 95.9613 75.0084V75.306C95.9979 75.8198 96.2323 76.301 96.6173 76.6532C97.0023 77.0053 97.5096 77.2023 98.0372 77.2047C98.318 77.203 98.5955 77.1461 98.8533 77.0375C99.1111 76.9288 99.3438 76.7706 99.5375 76.5722C99.7313 76.3739 99.8821 76.1394 99.981 75.8829C100.08 75.6264 100.125 75.3531 100.113 75.0793L99.7356 67.8813V67.5129C99.7061 66.9941 99.4748 66.5058 99.0891 66.1477C98.7033 65.7896 98.1921 65.5886 97.6598 65.5858V65.5433Z" fill="#BFBFBF"/>
<path d="M83.6955 75.4052C81.9365 75.4053 80.1833 75.2104 78.4694 74.8243C78.2246 74.7819 77.9913 74.6908 77.784 74.5568C77.5768 74.4227 77.4 74.2485 77.2645 74.045C77.1717 73.9063 77.1095 73.7502 77.082 73.5868C77.0545 73.4233 77.0623 73.256 77.1048 73.0956L79.5582 63.9706C79.6954 63.6083 79.9492 63.2993 80.2816 63.0898C80.614 62.8803 81.0071 62.7817 81.4018 62.8087H85.4665C85.8532 62.7839 86.2381 62.8788 86.5665 63.0797C86.8948 63.2807 87.1499 63.5775 87.2956 63.9281L90.1989 73.0531C90.25 73.2157 90.2648 73.3871 90.2422 73.5558C90.2197 73.7244 90.1604 73.8864 90.0683 74.0308C89.9365 74.2402 89.7612 74.4203 89.5536 74.5594C89.3461 74.6985 89.111 74.7936 88.8634 74.8385C87.1709 75.2041 85.4435 75.3941 83.71 75.4052H83.6955Z" fill="#D6D8D6"/>
<path d="M85.4678 62.922C85.8229 62.8964 86.1773 62.9814 86.4798 63.1647C86.7824 63.348 87.0176 63.6202 87.1518 63.9422C88.1244 66.9744 89.0825 70.0209 90.0551 73.0673C90.2874 73.7757 89.7357 74.4842 88.8212 74.6684C87.1436 75.0355 85.4305 75.2256 83.7113 75.2352C81.9677 75.2331 80.2296 75.043 78.5288 74.6684C77.6433 74.47 77.0771 73.7899 77.2803 73.0956C78.0933 70.0633 78.9062 67.017 79.7337 63.9847C79.8592 63.651 80.0932 63.3665 80.3998 63.1746C80.7065 62.9827 81.069 62.894 81.4321 62.922H85.4968H85.4678ZM85.4968 62.6386H81.4321C81.0032 62.6088 80.5761 62.7174 80.2167 62.9479C79.8573 63.1783 79.5856 63.5178 79.4434 63.9139L78.2094 68.5047L77.0045 73.0248C76.9541 73.203 76.9423 73.3896 76.9698 73.5725C76.9973 73.7555 77.0635 73.9308 77.1642 74.0875C77.4632 74.526 77.9275 74.8315 78.4562 74.9376C80.1801 75.3227 81.9428 75.5175 83.7113 75.5185C85.4641 75.5097 87.211 75.3198 88.9228 74.9518C89.1919 74.904 89.4475 74.801 89.6727 74.6496C89.898 74.4981 90.0877 74.3017 90.2293 74.0733C90.3244 73.9091 90.3849 73.728 90.4073 73.5406C90.4298 73.3533 90.4137 73.1634 90.3599 72.9822L89.0389 68.7314L87.5001 63.8855C87.3474 63.5062 87.0755 63.184 86.7234 62.965C86.3712 62.7461 85.9571 62.6417 85.5404 62.667L85.4968 62.6386Z" fill="#D6D8D6"/>
<path d="M99.6201 76.7797H96.3829V89.192H99.6201V76.7797Z" fill="#A4D3F7" stroke="#A4D3F7" stroke-width="0.3" stroke-miterlimit="10"/>
<path d="M95.5697 76.7797C95.5312 76.7797 95.4943 76.7648 95.467 76.7382C95.4398 76.7117 95.4245 76.6756 95.4245 76.638V75.4903C95.4245 75.4527 95.4398 75.4167 95.467 75.3901C95.4943 75.3636 95.5312 75.3486 95.5697 75.3486H100.462C100.5 75.3486 100.537 75.3636 100.564 75.3901C100.592 75.4167 100.607 75.4527 100.607 75.4903V76.638C100.607 76.6756 100.592 76.7117 100.564 76.7382C100.537 76.7648 100.5 76.7797 100.462 76.7797H95.5697Z" fill="#D6D8D6"/>
<path d="M95.5703 75.4903H100.462V76.638H95.5703V75.4903ZM95.5703 75.2069C95.4944 75.2104 95.4226 75.2413 95.3689 75.2937C95.3152 75.3462 95.2834 75.4162 95.2799 75.4903V76.638C95.2799 76.7132 95.3105 76.7853 95.365 76.8384C95.4194 76.8916 95.4933 76.9214 95.5703 76.9214H100.462C100.538 76.918 100.61 76.887 100.664 76.8346C100.717 76.7822 100.749 76.7121 100.753 76.638V75.4903C100.753 75.4151 100.722 75.3431 100.668 75.2899C100.613 75.2368 100.539 75.2069 100.462 75.2069H95.5703Z" fill="#D6D8D6"/>
<path d="M94.4671 93.9811C93.0154 94.1511 89.6911 94.6896 89.7201 95.0863C89.7201 95.9648 106.226 95.8656 106.255 95.0863C106.255 94.7321 102.8 94.2787 101.725 94.1228C99.3241 93.7509 96.8817 93.7032 94.4671 93.9811Z" fill="#D3E6EF"/>
<path d="M99.6074 90.2405V94.4913C99.0442 94.6375 98.4625 94.7043 97.8799 94.6896C97.3895 94.6824 96.9018 94.6158 96.4282 94.4913V90.2405H99.6074Z" fill="#A4D3F7" stroke="#A4D3F7" stroke-width="0.3" stroke-miterlimit="10"/>
<path d="M78.2521 70.9844C78.1121 71.3981 77.9958 71.8191 77.9037 72.2454C77.7902 72.5882 77.7603 72.9521 77.8166 73.3081C77.8897 73.5606 78.013 73.7965 78.1795 74.0024C78.5927 74.3578 79.0828 74.6176 79.6131 74.7624C80.1435 74.9071 80.7005 74.9331 81.2426 74.8384C80.4403 74.6402 79.708 74.2338 79.1231 73.6624C78.7611 73.322 78.4917 72.8989 78.3396 72.4312C78.1875 71.9636 78.1575 71.4662 78.2521 70.9844Z" fill="white"/>
<path d="M84.7413 63.2479C85.0633 63.2647 85.3811 63.3268 85.6849 63.4321C86.0812 63.5979 86.4264 63.8616 86.6865 64.1973C86.8781 64.4557 87.0252 64.7428 87.122 65.0474L86.4688 64.594L85.6413 63.9989C85.1133 63.6301 84.5167 63.3654 83.8848 63.2196C84.1026 63.2196 84.3929 63.2196 84.7413 63.2479Z" fill="white"/>
<path d="M96.7757 66.0393C97.0553 66.0069 97.3379 66.0069 97.6176 66.0393C97.8709 66.0658 98.117 66.1379 98.3434 66.2519C98.645 66.4817 98.8636 66.7994 98.9677 67.1587C99.0559 67.3633 99.1193 67.5773 99.1564 67.7963C99.2166 68.0574 99.2554 68.3227 99.2725 68.5898C99.0978 68.2643 98.8989 67.9517 98.6774 67.6546C98.499 67.3782 98.2787 67.1298 98.0241 66.9178C97.6684 66.7092 97.2814 66.5562 96.8772 66.4644L95.7449 66.096C96.0862 66.0487 96.4311 66.0297 96.7757 66.0393Z" fill="white"/>
<path d="M95.7586 76.3121C95.799 76.3665 95.8481 76.4143 95.9038 76.4538C96.1435 76.6422 96.4383 76.7513 96.7457 76.7655C96.4808 76.8003 96.2123 76.8003 95.9473 76.7655C95.8095 76.7575 95.6777 76.708 95.5699 76.6238C95.4594 76.4822 95.4075 76.3051 95.4247 76.1279C95.398 75.9589 95.398 75.7868 95.4247 75.6178C95.4534 75.8791 95.571 76.1236 95.7586 76.3121Z" fill="white"/>
<path d="M91.8549 103.801C92.3371 104.581 92.7687 105.39 93.1469 106.223C93.3593 106.902 93.738 107.52 94.2501 108.023C94.6807 108.281 95.1322 108.503 95.6002 108.689C96.169 109 96.7555 109.279 97.3567 109.525C97.8671 109.718 98.3977 109.856 98.939 109.936C98.2051 110.002 97.4664 110.002 96.7325 109.936C95.823 109.837 94.9211 109.681 94.0324 109.468C93.63 109.406 93.2358 109.302 92.8565 109.157C92.1452 108.604 92.4355 107.527 92.1452 105.317C92.1017 104.693 92 104.141 91.8549 103.801Z" fill="white"/>
<path d="M142.664 90.198C141.551 97.2354 140.438 104.278 139.325 111.324C134.861 112.438 130.174 112.385 125.738 111.169L122.675 90.198H142.664Z" stroke="#75869E" stroke-width="0.5" stroke-miterlimit="10"/>
<path d="M163.104 66.4927H147.121V73.1806H163.104V66.4927Z" fill="#BFBFBF" stroke="#BFBFBF" stroke-width="0.2" stroke-miterlimit="10"/>
<path d="M147.99 59.7623H146.349V63.3472H147.99V59.7623Z" fill="black" stroke="black" stroke-width="0.3" stroke-miterlimit="10"/>
<path d="M153.695 57.9061H140.644C140.524 57.9061 140.426 58.0013 140.426 58.1187V59.3939C140.426 59.5113 140.524 59.6064 140.644 59.6064H153.695C153.815 59.6064 153.913 59.5113 153.913 59.3939V58.1187C153.913 58.0013 153.815 57.9061 153.695 57.9061Z" fill="black"/>
<path d="M153.695 58.1187V59.3939H140.63V58.1187H153.695ZM153.695 57.6936H140.63C140.572 57.6916 140.514 57.7013 140.461 57.7219C140.407 57.7426 140.358 57.7738 140.317 57.8137C140.276 57.8536 140.244 57.9012 140.223 57.9537C140.202 58.0062 140.192 58.0623 140.194 58.1187V59.3939C140.192 59.4503 140.202 59.5064 140.223 59.5589C140.244 59.6114 140.276 59.659 140.317 59.6989C140.358 59.7388 140.407 59.77 140.461 59.7907C140.514 59.8113 140.572 59.821 140.63 59.819H153.695C153.753 59.821 153.81 59.8113 153.864 59.7907C153.918 59.77 153.966 59.7388 154.007 59.6989C154.048 59.659 154.08 59.6114 154.101 59.5589C154.122 59.5064 154.132 59.4503 154.13 59.3939V58.1187C154.132 58.0623 154.122 58.0062 154.101 57.9537C154.08 57.9012 154.048 57.8536 154.007 57.8137C153.966 57.7738 153.918 57.7426 153.864 57.7219C153.81 57.7013 153.753 57.6916 153.695 57.6936Z" fill="black"/>
<path d="M140.283 101.052H125.127L126.39 110.744C128.41 111.223 130.481 111.471 132.56 111.48C134.615 111.484 136.665 111.266 138.671 110.829L140.283 101.052Z" fill="#A4D3F7"/>
<path d="M136.856 88.8944C138.569 89.0645 142.662 89.6029 142.662 89.9996C142.662 90.8781 122.673 90.7789 122.629 89.9996C122.629 89.6454 126.81 89.1778 128.117 89.0361C131.015 88.6673 133.946 88.6198 136.856 88.8944Z" fill="white" stroke="#75869E" stroke-width="0.5" stroke-miterlimit="10"/>
<path d="M132.602 77.9275C132.341 77.9239 132.083 77.8693 131.844 77.7671C131.605 77.6649 131.389 77.5171 131.209 77.3323C131.029 77.1475 130.889 76.9294 130.797 76.691C130.704 76.4525 130.662 76.1985 130.672 75.9438L131.078 68.3773C131.101 67.8937 131.314 67.4374 131.674 67.1045C132.034 66.7715 132.513 66.5878 133.009 66.592H142.111C142.842 66.592 143.544 66.8756 144.061 67.3805C144.578 67.8854 144.869 68.5702 144.869 69.2842V70.8711C144.869 71.5851 144.578 72.2699 144.061 72.7748C143.544 73.2797 142.842 73.5633 142.111 73.5633H137.073C136.436 73.5716 135.824 73.8112 135.357 74.2355C134.89 74.6598 134.602 75.2384 134.548 75.8587V76.1563C134.514 76.6374 134.295 77.0882 133.934 77.4172C133.572 77.7461 133.096 77.9285 132.602 77.9275Z" fill="#BFBFBF"/>
<path d="M142.11 66.7336C142.803 66.7336 143.468 67.0023 143.958 67.4806C144.448 67.9589 144.723 68.6076 144.723 69.2841V70.871C144.723 71.5474 144.448 72.1962 143.958 72.6745C143.468 73.1528 142.803 73.4215 142.11 73.4215H137.073C136.399 73.4296 135.752 73.6822 135.259 74.1301C134.765 74.5779 134.46 75.189 134.402 75.8444V76.1562C134.373 76.6184 134.157 77.0505 133.802 77.3574C133.447 77.6643 132.981 77.8209 132.508 77.7927C132.034 77.7645 131.591 77.5539 131.277 77.2071C130.962 76.8604 130.802 76.4059 130.831 75.9436L131.237 68.3914C131.256 67.9428 131.453 67.519 131.786 67.2096C132.12 66.9002 132.563 66.7295 133.023 66.7336H142.125H142.11ZM142.125 66.4502H133.023C132.49 66.4496 131.976 66.6494 131.59 67.0082C131.203 67.367 130.973 67.8572 130.947 68.3772L130.541 75.9295C130.508 76.4668 130.695 76.9949 131.061 77.3975C131.428 77.8001 131.943 78.0442 132.493 78.0761C133.044 78.1081 133.585 77.9252 133.997 77.5678C134.41 77.2104 134.66 76.7077 134.692 76.1704V75.8728C134.74 75.2863 135.01 74.7383 135.451 74.337C135.892 73.9357 136.47 73.7102 137.073 73.7049H142.11C142.88 73.7049 143.619 73.4063 144.163 72.8749C144.708 72.3434 145.014 71.6226 145.014 70.871V69.2841C145.014 68.5325 144.708 67.8117 144.163 67.2802C143.619 66.7488 142.88 66.4502 142.11 66.4502H142.125Z" fill="#BFBFBF"/>
<path d="M147.017 76.298C145.283 76.3002 143.555 76.1148 141.863 75.7453C141.613 75.7023 141.375 75.6081 141.165 75.4689C140.955 75.3297 140.777 75.1487 140.644 74.9377C140.55 74.7912 140.491 74.6261 140.471 74.4546C140.451 74.283 140.47 74.1092 140.528 73.9458L143.431 64.8208C143.582 64.474 143.838 64.1807 144.165 63.9806C144.492 63.7804 144.875 63.683 145.26 63.7014H149.339C149.734 63.6762 150.126 63.7774 150.456 63.9897C150.786 64.202 151.036 64.5137 151.168 64.8775L153.622 73.9883C153.706 74.3156 153.654 74.6621 153.477 74.9519C153.338 75.1527 153.16 75.3249 152.954 75.4586C152.747 75.5923 152.515 75.6849 152.272 75.7312C150.557 76.1126 148.804 76.3027 147.046 76.298H147.017Z" fill="#D6D8D6"/>
<path d="M149.253 63.8431C149.616 63.823 149.977 63.9166 150.282 64.1103C150.588 64.3039 150.822 64.5875 150.951 64.92L153.39 74.0308C153.579 74.7251 153.027 75.4478 152.156 75.5895C150.451 75.9709 148.708 76.161 146.959 76.1562C145.235 76.1575 143.517 75.9722 141.835 75.6036C141.645 75.5776 141.462 75.5151 141.296 75.4196C141.131 75.3241 140.987 75.1976 140.872 75.0474C140.758 74.8971 140.674 74.7262 140.628 74.5444C140.581 74.3626 140.572 74.1736 140.601 73.9883C141.573 70.9561 142.531 67.9097 143.504 64.8633C143.642 64.5438 143.878 64.2741 144.18 64.0913C144.481 63.9086 144.834 63.8218 145.188 63.8431H149.267H149.253ZM149.267 63.5597H145.188C144.772 63.5388 144.36 63.6449 144.009 63.8633C143.657 64.0817 143.385 64.4015 143.228 64.7783L141.689 69.6383L140.325 73.8891C140.269 74.0724 140.252 74.2648 140.274 74.4548C140.297 74.6447 140.359 74.8283 140.456 74.9943C140.603 75.2177 140.794 75.4104 141.019 75.5612C141.243 75.712 141.496 75.8179 141.762 75.8728C143.469 76.2416 145.211 76.4269 146.959 76.4254C148.732 76.43 150.499 76.2399 152.229 75.8587C152.757 75.7526 153.222 75.4471 153.521 75.0085C153.72 74.6904 153.782 74.3086 153.695 73.9458L152.461 69.3549L151.242 64.8349C151.105 64.4374 150.837 64.0952 150.479 63.8619C150.122 63.6287 149.696 63.5174 149.267 63.5455V63.5597Z" fill="#D6D8D6"/>
<path d="M134.242 77.6724H131.005V90.0847H134.242V77.6724Z" fill="#A4D3F7" stroke="#A4D3F7" stroke-width="0.3" stroke-miterlimit="10"/>
<path d="M130.192 77.7148C130.177 77.7223 130.159 77.7262 130.142 77.7262C130.124 77.7262 130.107 77.7223 130.091 77.7148C130.084 77.6991 130.08 77.6822 130.08 77.6652C130.08 77.6482 130.084 77.6313 130.091 77.6156V76.4679C130.091 76.4303 130.106 76.3943 130.133 76.3677C130.16 76.3411 130.197 76.3262 130.236 76.3262H135.114C135.13 76.3196 135.147 76.3162 135.164 76.3162C135.182 76.3162 135.199 76.3196 135.215 76.3262C135.223 76.3417 135.227 76.3586 135.227 76.3758C135.227 76.393 135.223 76.4099 135.215 76.4254V77.5731C135.212 77.6096 135.196 77.6438 135.169 77.6697C135.142 77.6957 135.107 77.7116 135.07 77.7148H130.192Z" fill="#D6D8D6"/>
<path d="M135.07 76.397V77.5448H130.192V76.397H135.07ZM135.07 76.1136H130.178C130.103 76.1173 130.033 76.1487 129.982 76.2015C129.93 76.2542 129.902 76.3243 129.902 76.397V77.5448C129.905 77.6188 129.937 77.6889 129.991 77.7413C130.045 77.7937 130.116 77.8247 130.192 77.8281H135.07C135.146 77.8247 135.218 77.7937 135.271 77.7413C135.325 77.6889 135.357 77.6188 135.36 77.5448V76.397C135.357 76.323 135.325 76.2529 135.271 76.2005C135.218 76.1481 135.146 76.1171 135.07 76.1136Z" fill="#D6D8D6"/>
<path d="M136.174 100.102C137.133 100.216 140.297 100.655 140.283 100.981C140.283 101.675 125.156 101.562 125.127 100.981C126.349 100.571 127.625 100.332 128.916 100.273C131.318 99.9067 133.758 99.8495 136.174 100.102Z" fill="#D3E6EF"/>
<path d="M131.05 91.1332V100.372C131.575 100.665 132.173 100.812 132.778 100.797C133.289 100.771 133.787 100.625 134.229 100.372V91.1332H131.05Z" fill="#A4D3F7" stroke="#A4D3F7" stroke-width="0.3" stroke-miterlimit="10"/>
<path d="M152.388 71.8912C152.53 72.3044 152.646 72.7255 152.736 73.1523C152.857 73.4887 152.887 73.8498 152.823 74.2008C152.752 74.4583 152.629 74.6992 152.46 74.9093C152.043 75.2587 151.553 75.5146 151.024 75.659C150.495 75.8034 149.939 75.8329 149.397 75.7453C150.201 75.5497 150.934 75.143 151.517 74.5692C151.808 74.2932 152.045 73.9664 152.214 73.6057C152.453 73.0657 152.513 72.4665 152.388 71.8912Z" fill="white"/>
<path d="M145.9 64.1548C145.582 64.1643 145.268 64.2266 144.971 64.339C144.566 64.4965 144.214 64.7616 143.955 65.1042C143.759 65.3526 143.616 65.6369 143.534 65.9402L144.173 65.4867L145 64.8916C145.531 64.5315 146.127 64.272 146.757 64.1265C146.471 64.1168 146.185 64.1262 145.9 64.1548Z" fill="white"/>
<path d="M133.867 66.932C133.587 66.9083 133.305 66.9083 133.025 66.932C132.769 66.947 132.521 67.0198 132.299 67.1445C132.002 67.3719 131.784 67.6838 131.675 68.0372C131.595 68.2446 131.532 68.4578 131.486 68.6748C131.424 68.9351 131.39 69.201 131.385 69.4683C131.558 69.1464 131.757 68.8385 131.98 68.5473C132.15 68.2691 132.366 68.0201 132.619 67.8104C132.969 67.5923 133.358 67.4387 133.765 67.357L134.898 66.9886C134.556 66.9417 134.212 66.9228 133.867 66.932Z" fill="white"/>
<path d="M134.896 77.2189C134.851 77.2698 134.802 77.3172 134.75 77.3606C134.507 77.5519 134.206 77.6612 133.894 77.6724C134.163 77.7157 134.438 77.7157 134.707 77.6724C134.839 77.6715 134.967 77.6265 135.07 77.5449C135.178 77.402 135.229 77.2259 135.215 77.0489C135.236 76.8795 135.236 76.7082 135.215 76.5388C135.173 76.7894 135.063 77.0243 134.896 77.2189Z" fill="white"/>
<path d="M138.729 104.707C138.25 105.489 137.818 106.298 137.437 107.13C137.24 107.811 136.859 108.428 136.334 108.916C135.911 109.189 135.458 109.417 134.984 109.596C134.417 109.91 133.83 110.189 133.227 110.432C132.72 110.619 132.195 110.757 131.66 110.843C132.388 110.917 133.123 110.917 133.852 110.843C134.768 110.757 135.675 110.601 136.566 110.375C136.963 110.315 137.352 110.216 137.728 110.078C138.454 109.525 138.163 108.434 138.454 106.224C138.541 105.6 138.657 105.047 138.729 104.707Z" fill="white"/>
<path d="M66.7539 58.9404H61.9343C61.3892 58.9404 60.9472 59.3718 60.9472 59.9039V80.1661C60.9472 80.6982 61.3892 81.1296 61.9343 81.1296H66.7539C67.2991 81.1296 67.741 80.6982 67.741 80.1661V59.9039C67.741 59.3718 67.2991 58.9404 66.7539 58.9404Z" fill="#7F7F7F"/>
<path d="M66.7704 59.1673C66.8707 59.1654 66.9704 59.183 67.0637 59.2192C67.1569 59.2554 67.2419 59.3094 67.3135 59.378C67.3852 59.4466 67.4421 59.5285 67.4809 59.6188C67.5198 59.7091 67.5398 59.8061 67.5397 59.9041V80.1804C67.5397 80.3795 67.4587 80.5705 67.3144 80.7114C67.1701 80.8522 66.9744 80.9314 66.7704 80.9314H61.9363C61.8359 80.9314 61.7365 80.9118 61.644 80.8739C61.5514 80.836 61.4676 80.7805 61.3973 80.7106C61.327 80.6406 61.2717 80.5577 61.2346 80.4667C61.1976 80.3756 61.1795 80.2783 61.1814 80.1804V59.9041C61.1814 59.8073 61.2009 59.7115 61.2389 59.6221C61.2768 59.5327 61.3324 59.4515 61.4025 59.3831C61.4726 59.3146 61.5558 59.2604 61.6474 59.2234C61.739 59.1863 61.8372 59.1673 61.9363 59.1673H66.7704ZM66.7704 58.7422H61.9363C61.6206 58.7422 61.3178 58.8646 61.0946 59.0825C60.8713 59.3004 60.7459 59.5959 60.7459 59.9041V80.1804C60.7459 80.4898 60.8708 80.7869 61.0937 81.007C61.3165 81.2272 61.6193 81.3527 61.9363 81.3564H66.7704C67.0899 81.3564 67.3964 81.2325 67.6223 81.012C67.8483 80.7914 67.9752 80.4923 67.9752 80.1804V59.9041C67.9714 59.5946 67.8428 59.2991 67.6173 59.0816C67.3917 58.8641 67.0874 58.7422 66.7704 58.7422Z" fill="#7F7F7F"/>
<path d="M62.1965 59.3514C62.0252 59.3969 61.8665 59.4792 61.732 59.5923C61.5737 59.731 61.4538 59.9064 61.3836 60.1024C61.2744 60.397 61.2347 60.7118 61.2674 61.0234C61.2674 61.3635 61.2674 61.8594 61.2674 62.5254C61.3545 62.2845 61.4997 61.9303 61.6594 61.491C61.773 60.9954 61.9587 60.5182 62.211 60.0741C62.4012 59.8597 62.6349 59.6861 62.8972 59.5642C63.1595 59.4422 63.4449 59.3746 63.7353 59.3656C63.2314 59.2368 62.7027 59.2319 62.1965 59.3514Z" fill="white"/>
<path d="M168.692 59.8473H163.872C163.327 59.8473 162.885 60.2787 162.885 60.8108V81.0729C162.885 81.6051 163.327 82.0364 163.872 82.0364H168.692C169.237 82.0364 169.679 81.6051 169.679 81.0729V60.8108C169.679 60.2787 169.237 59.8473 168.692 59.8473Z" fill="#7F7F7F"/>
<path d="M168.706 60.0882C168.91 60.0882 169.105 60.1673 169.25 60.3081C169.394 60.449 169.475 60.64 169.475 60.8392V81.1155C169.475 81.2134 169.455 81.3104 169.416 81.4008C169.377 81.4911 169.32 81.5729 169.249 81.6415C169.177 81.7102 169.092 81.7641 168.999 81.8003C168.906 81.8365 168.806 81.8542 168.706 81.8523H163.871C163.771 81.8542 163.671 81.8365 163.578 81.8003C163.485 81.7641 163.4 81.7102 163.328 81.6415C163.257 81.5729 163.2 81.4911 163.161 81.4008C163.122 81.3104 163.102 81.2134 163.102 81.1155V60.8108C163.102 60.6117 163.183 60.4207 163.327 60.2798C163.472 60.139 163.667 60.0598 163.871 60.0598H168.706V60.0882ZM168.706 59.6348H163.871C163.552 59.6348 163.245 59.7587 163.02 59.9792C162.794 60.1998 162.667 60.4989 162.667 60.8108V81.0871C162.67 81.3966 162.799 81.6921 163.025 81.9096C163.25 82.1271 163.554 82.249 163.871 82.249H168.706C169.023 82.249 169.327 82.1271 169.552 81.9096C169.778 81.6921 169.907 81.3966 169.91 81.0871V60.8108C169.91 60.4989 169.784 60.1998 169.558 59.9792C169.332 59.7587 169.025 59.6348 168.706 59.6348Z" fill="#7F7F7F"/>
<path d="M168.458 60.2582C168.628 60.3011 168.786 60.3784 168.923 60.4849C169.075 60.626 169.19 60.801 169.257 60.995C169.362 61.2954 169.407 61.6131 169.387 61.9302C169.387 62.2702 169.387 62.7662 169.387 63.4321L169.01 62.3836C168.891 61.8873 168.701 61.4102 168.444 60.9667C168.252 60.7555 168.017 60.585 167.755 60.4656C167.493 60.3462 167.209 60.2804 166.92 60.2724C167.423 60.1393 167.953 60.1344 168.458 60.2582Z" fill="white"/>
</svg>
