<svg width="230" height="165" viewBox="0 0 230 165" fill="none" xmlns="http://www.w3.org/2000/svg">
<rect width="230" height="165" rx="6.7" fill="white"/>
<path d="M89.1558 139.456L85.4918 148H83.4278L79.7637 139.456H81.8438L84.4998 145.792L87.2358 139.456H89.1558ZM90.4058 139.456H92.4058V148H90.4058V139.456ZM91.4138 138.048C91.0511 138.048 90.7471 137.936 90.5018 137.712C90.2564 137.477 90.1338 137.189 90.1338 136.848C90.1338 136.507 90.2564 136.224 90.5018 136C90.7471 135.765 91.0511 135.648 91.4138 135.648C91.7764 135.648 92.0804 135.76 92.3258 135.984C92.5711 136.197 92.6938 136.469 92.6938 136.8C92.6938 137.152 92.5711 137.451 92.3258 137.696C92.0911 137.931 91.7871 138.048 91.4138 138.048ZM97.6708 148.112C96.9774 148.112 96.3001 148.021 95.6388 147.84C94.9774 147.659 94.4494 147.429 94.0548 147.152L94.8228 145.632C95.2068 145.888 95.6654 146.096 96.1988 146.256C96.7428 146.405 97.2761 146.48 97.7988 146.48C98.9934 146.48 99.5908 146.165 99.5908 145.536C99.5908 145.237 99.4361 145.029 99.1268 144.912C98.8281 144.795 98.3428 144.683 97.6708 144.576C96.9668 144.469 96.3908 144.347 95.9428 144.208C95.5054 144.069 95.1214 143.829 94.7908 143.488C94.4708 143.136 94.3108 142.651 94.3108 142.032C94.3108 141.221 94.6468 140.576 95.3188 140.096C96.0014 139.605 96.9188 139.36 98.0708 139.36C98.6574 139.36 99.2441 139.429 99.8308 139.568C100.417 139.696 100.897 139.872 101.271 140.096L100.503 141.616C99.7774 141.189 98.9614 140.976 98.0548 140.976C97.4681 140.976 97.0201 141.067 96.7108 141.248C96.4121 141.419 96.2628 141.648 96.2628 141.936C96.2628 142.256 96.4228 142.485 96.7428 142.624C97.0734 142.752 97.5801 142.875 98.2628 142.992C98.9454 143.099 99.5054 143.221 99.9428 143.36C100.38 143.499 100.753 143.733 101.063 144.064C101.383 144.395 101.543 144.864 101.543 145.472C101.543 146.272 101.196 146.912 100.503 147.392C99.8094 147.872 98.8654 148.112 97.6708 148.112ZM111.537 139.456V148H109.633V146.912C109.313 147.296 108.913 147.595 108.433 147.808C107.953 148.011 107.436 148.112 106.881 148.112C105.74 148.112 104.838 147.797 104.177 147.168C103.526 146.528 103.201 145.584 103.201 144.336V139.456H105.201V144.064C105.201 144.832 105.372 145.408 105.713 145.792C106.065 146.165 106.561 146.352 107.201 146.352C107.916 146.352 108.481 146.133 108.897 145.696C109.324 145.248 109.537 144.608 109.537 143.776V139.456H111.537ZM117.42 139.36C118.678 139.36 119.638 139.664 120.3 140.272C120.972 140.869 121.308 141.776 121.308 142.992V148H119.42V146.96C119.174 147.333 118.822 147.621 118.364 147.824C117.916 148.016 117.372 148.112 116.732 148.112C116.092 148.112 115.532 148.005 115.052 147.792C114.572 147.568 114.198 147.264 113.932 146.88C113.676 146.485 113.548 146.043 113.548 145.552C113.548 144.784 113.83 144.171 114.396 143.712C114.972 143.243 115.873 143.008 117.1 143.008H119.308V142.88C119.308 142.283 119.126 141.824 118.764 141.504C118.412 141.184 117.884 141.024 117.18 141.024C116.7 141.024 116.225 141.099 115.756 141.248C115.297 141.397 114.908 141.605 114.588 141.872L113.804 140.416C114.252 140.075 114.79 139.813 115.42 139.632C116.049 139.451 116.716 139.36 117.42 139.36ZM117.148 146.656C117.649 146.656 118.092 146.544 118.476 146.32C118.87 146.085 119.148 145.755 119.308 145.328V144.336H117.244C116.092 144.336 115.516 144.715 115.516 145.472C115.516 145.835 115.66 146.123 115.948 146.336C116.236 146.549 116.636 146.656 117.148 146.656ZM123.875 136.128H125.875V148H123.875V136.128ZM128.5 139.456H130.5V148H128.5V139.456ZM129.508 138.048C129.145 138.048 128.841 137.936 128.596 137.712C128.35 137.477 128.228 137.189 128.228 136.848C128.228 136.507 128.35 136.224 128.596 136C128.841 135.765 129.145 135.648 129.508 135.648C129.87 135.648 130.174 135.76 130.42 135.984C130.665 136.197 130.788 136.469 130.788 136.8C130.788 137.152 130.665 137.451 130.42 137.696C130.185 137.931 129.881 138.048 129.508 138.048ZM139.797 146.4V148H132.421V146.736L137.109 141.056H132.517V139.456H139.669V140.72L134.965 146.4H139.797ZM149.547 143.776C149.547 143.915 149.536 144.112 149.515 144.368H142.811C142.928 144.997 143.232 145.499 143.723 145.872C144.224 146.235 144.843 146.416 145.579 146.416C146.518 146.416 147.291 146.107 147.899 145.488L148.971 146.72C148.587 147.179 148.102 147.525 147.515 147.76C146.928 147.995 146.267 148.112 145.531 148.112C144.592 148.112 143.766 147.925 143.051 147.552C142.336 147.179 141.782 146.661 141.387 146C141.003 145.328 140.811 144.571 140.811 143.728C140.811 142.896 140.998 142.149 141.371 141.488C141.755 140.816 142.283 140.293 142.955 139.92C143.627 139.547 144.384 139.36 145.227 139.36C146.059 139.36 146.8 139.547 147.451 139.92C148.112 140.283 148.624 140.8 148.987 141.472C149.36 142.133 149.547 142.901 149.547 143.776ZM145.227 140.96C144.587 140.96 144.043 141.152 143.595 141.536C143.158 141.909 142.891 142.411 142.795 143.04H147.643C147.558 142.421 147.296 141.92 146.859 141.536C146.422 141.152 145.878 140.96 145.227 140.96Z" fill="black"/>
<path d="M75.5871 41.799C74.9283 42.4125 75.3026 44.18 76.3358 45.1295C76.9119 45.5408 77.5891 45.7966 78.2989 45.8709C79.0087 45.9453 79.7261 45.8357 80.3786 45.5531C81.0529 45.2639 81.6588 44.8423 82.1586 44.3145C82.6584 43.7867 83.0414 43.1641 83.2836 42.4856C83.7094 41.4483 83.8284 40.3153 83.6272 39.2154C83.4261 38.1154 82.9128 37.0925 82.1456 36.2629C79.8995 34.0864 76.4705 34.9336 75.5122 35.1673C73.515 35.6779 71.7264 36.7737 70.3877 38.3069C69.0489 39.8402 68.2244 41.7371 68.0254 43.7418C67.5762 49.5847 73.2363 52.886 73.5807 53.0759C76.2154 54.4582 79.299 54.7832 82.1756 53.9815C84.0751 53.3776 85.809 52.3602 87.2462 51.0063C88.6833 49.6524 89.7859 47.9975 90.4708 46.1666C91.2195 44.2238 91.1897 42.2665 91.1597 38.3371C91.1393 35.8938 90.9591 33.4543 90.6205 31.0334H85.4697C86.7416 34.2072 87.5091 37.5519 87.7457 40.9518C87.8795 42.7313 87.5336 44.514 86.7424 46.1228V46.2689C85.5853 48.2643 83.7137 49.7728 81.4866 50.505C79.5158 51.116 77.3832 50.9964 75.4972 50.169C74.5919 49.8012 73.7747 49.2543 73.0969 48.5629C72.4191 47.8715 71.8954 47.0506 71.5591 46.152C71.3048 45.3211 71.2215 44.4494 71.314 43.587C71.4065 42.7246 71.673 41.8886 72.0982 41.1271C72.5347 40.3874 73.1255 39.7453 73.8322 39.2421C74.5389 38.7389 75.3459 38.3858 76.2011 38.2056C76.7813 38.0522 77.3909 38.0386 77.9778 38.1658C78.5646 38.293 79.1111 38.5573 79.5702 38.936C80.4536 39.8563 80.6931 41.5069 80.0193 42.1058C78.9711 42.953 76.4855 40.9372 75.5871 41.799Z" fill="#C16EC8"/>
<path d="M105.596 41.799C106.255 42.4125 105.895 44.18 104.847 45.1294C104.271 45.5408 103.594 45.7965 102.884 45.8709C102.174 45.9453 101.457 45.8356 100.804 45.5531C100.13 45.2639 99.5242 44.8422 99.0244 44.3144C98.5246 43.7867 98.1418 43.1641 97.8996 42.4855C97.4738 41.4483 97.3546 40.3153 97.5558 39.2153C97.7569 38.1154 98.2704 37.0925 99.0376 36.2628C101.284 34.0863 104.712 34.9336 105.671 35.1673C107.666 35.6816 109.452 36.7785 110.79 38.311C112.128 39.8436 112.954 41.7384 113.158 43.7417C113.592 49.5847 107.932 52.8859 107.587 53.0758C104.932 54.4503 101.83 54.7545 98.9476 53.923C97.0481 53.3191 95.3142 52.3018 93.8771 50.9479C92.4399 49.594 91.3371 47.939 90.6522 46.1081C89.9035 44.1654 89.9335 42.208 89.9635 38.2786C89.9839 35.8354 90.1639 33.3959 90.5025 30.975H95.6833C94.4114 34.1488 93.6441 37.4935 93.4075 40.8933C93.2737 42.6729 93.6194 44.4556 94.4106 46.0643V46.2104C95.5677 48.2058 97.4393 49.7143 99.6664 50.4465C101.637 51.0575 103.77 50.9379 105.656 50.1105C106.561 49.7427 107.378 49.1958 108.056 48.5045C108.734 47.8131 109.258 46.9922 109.594 46.0935C109.848 45.2627 109.931 44.3909 109.839 43.5285C109.746 42.6661 109.48 41.8301 109.055 41.0686C108.618 40.329 108.028 39.6868 107.321 39.1836C106.614 38.6804 105.807 38.3273 104.952 38.1472C104.374 37.9938 103.767 37.9801 103.182 38.1074C102.598 38.2346 102.054 38.499 101.598 38.8775C100.7 39.7978 100.46 41.4484 101.134 42.0473C102.212 42.953 104.653 40.9372 105.596 41.799Z" fill="#C16EC8"/>
<path d="M75.5871 64.2505C74.9283 63.637 75.3026 61.8695 76.3358 60.92C76.9119 60.5087 77.5891 60.2529 78.2989 60.1786C79.0087 60.1042 79.7261 60.2138 80.3786 60.4964C81.0529 60.7856 81.6588 61.2072 82.1586 61.735C82.6584 62.2628 83.0414 62.8854 83.2836 63.5639C83.7094 64.6012 83.8284 65.7341 83.6272 66.8341C83.4261 67.9341 82.9128 68.957 82.1456 69.7866C79.8995 71.9631 76.4705 71.1159 75.5122 70.8822C73.515 70.3716 71.7264 69.2758 70.3877 67.7425C69.0489 66.2093 68.2244 64.3124 68.0254 62.3077C67.5762 56.4648 73.2363 53.1635 73.5807 52.9736C76.213 51.5837 79.2997 51.2584 82.1756 52.068C84.0751 52.6719 85.809 53.6892 87.2462 55.0431C88.6833 56.397 89.7859 58.052 90.4708 59.8829C91.2195 61.8257 91.1897 63.783 91.1597 67.7124C91.1393 70.1556 90.9591 72.5951 90.6205 75.016H85.4697C86.7416 71.8422 87.5091 68.4976 87.7457 65.0977C87.8795 63.3182 87.5336 61.5354 86.7424 59.9267V59.7806C85.5908 57.7806 83.7172 56.2705 81.4866 55.5445C79.5158 54.9335 77.3832 55.0531 75.4972 55.8805C74.5919 56.2483 73.7747 56.7952 73.0969 57.4866C72.4191 58.1779 71.8954 58.9988 71.5591 59.8975C71.3048 60.7283 71.2215 61.6001 71.314 62.4625C71.4065 63.3249 71.673 64.1609 72.0982 64.9224C72.5347 65.662 73.1255 66.3042 73.8322 66.8074C74.5389 67.3106 75.3459 67.6637 76.2011 67.8439C76.7813 67.9972 77.3909 68.0109 77.9778 67.8837C78.5646 67.7565 79.1111 67.4922 79.5702 67.1135C80.4536 66.1932 80.6931 64.5426 80.0193 63.9437C78.9711 63.0965 76.4855 65.1123 75.5871 64.2505Z" fill="#C16EC8"/>
<path d="M105.595 64.2505C106.254 63.637 105.895 61.8695 104.847 60.92C104.271 60.5087 103.594 60.2529 102.884 60.1786C102.174 60.1042 101.456 60.2138 100.804 60.4964C100.13 60.7856 99.5238 61.2072 99.024 61.735C98.5242 62.2628 98.1414 62.8854 97.8992 63.5639C97.4734 64.6012 97.3542 65.7341 97.5553 66.8341C97.7565 67.9341 98.27 68.957 99.0372 69.7866C101.283 71.9631 104.712 71.1159 105.67 70.8822C107.665 70.3678 109.452 69.2709 110.79 67.7384C112.128 66.2059 112.954 64.311 113.157 62.3077C113.591 56.4648 107.931 53.1635 107.587 52.9736C104.955 51.5837 101.868 51.2584 98.9922 52.068C97.0927 52.6719 95.3587 53.6892 93.9216 55.0431C92.4845 56.397 91.3817 58.052 90.6968 59.8829C89.9481 61.8257 89.9781 63.783 90.008 67.7124C90.0284 70.1556 90.2085 72.5951 90.5471 75.016H95.7279C94.456 71.8422 93.6884 68.4976 93.4519 65.0977C93.318 63.3182 93.664 61.5354 94.4552 59.9267V59.7806C95.6067 57.7806 97.4804 56.2705 99.7109 55.5445C101.682 54.9335 103.814 55.0531 105.7 55.8805C106.606 56.2483 107.423 56.7952 108.101 57.4866C108.778 58.1779 109.302 58.9988 109.638 59.8975C109.893 60.7283 109.976 61.6001 109.884 62.4625C109.791 63.3249 109.525 64.1609 109.099 64.9224C108.663 65.662 108.072 66.3042 107.365 66.8074C106.659 67.3106 105.852 67.6637 104.997 67.8439C104.419 67.9973 103.811 68.0109 103.227 67.8836C102.642 67.7564 102.099 67.492 101.643 67.1135C100.744 66.1932 100.504 64.5426 101.178 63.9437C102.211 63.0965 104.652 65.1123 105.595 64.2505Z" fill="#C16EC8"/>
<path d="M127.396 69.1438C128.025 69.7866 129.837 69.436 130.81 68.4281C131.229 67.8648 131.489 67.2044 131.565 66.5125C131.641 65.8206 131.531 65.1213 131.244 64.4841C130.951 63.8244 130.52 63.2317 129.978 62.7438C129.437 62.2558 128.797 61.8834 128.1 61.6503C127.039 61.2191 125.874 61.0944 124.743 61.2913C123.612 61.4881 122.563 61.9981 121.721 62.7605C119.49 64.9516 120.358 68.2966 120.598 69.2169C121.121 71.1652 122.244 72.91 123.816 74.216C125.388 75.522 127.332 76.3264 129.387 76.5205C135.377 76.9588 138.761 71.4372 138.955 71.0866C140.373 68.5218 140.706 65.5179 139.884 62.7166C139.271 60.8605 138.23 59.166 136.841 57.7632C135.453 56.3604 133.753 55.2866 131.873 54.6242C129.881 53.8938 127.875 53.923 123.847 53.9523C121.343 53.968 118.842 54.1387 116.36 54.4635V59.5322C119.617 58.2854 123.051 57.5364 126.542 57.3119C128.367 57.1759 130.196 57.5135 131.843 58.2906C131.896 58.3089 131.946 58.3335 131.993 58.3637C134.041 59.4892 135.588 61.3162 136.335 63.4908C136.957 65.4139 136.835 67.4929 135.991 69.3337C135.618 70.2192 135.058 71.0186 134.349 71.6803C133.64 72.342 132.796 72.8513 131.873 73.1755C131.023 73.429 130.129 73.5144 129.245 73.4266C128.36 73.3388 127.503 73.0796 126.722 72.6642C125.962 72.2405 125.302 71.6649 124.786 70.9751C124.27 70.2854 123.909 69.4971 123.727 68.6618C123.57 68.0958 123.556 67.501 123.686 66.9285C123.817 66.356 124.088 65.823 124.476 65.3752C125.419 64.4987 127.111 64.2796 127.725 64.9223C128.534 65.8426 126.467 68.2382 127.396 69.1438Z" fill="#DE69A6"/>
<path d="M127.396 39.8856C128.025 39.2428 129.837 39.5934 130.81 40.6013C131.229 41.1646 131.489 41.825 131.565 42.5169C131.641 43.2088 131.531 43.9081 131.244 44.5453C130.951 45.205 130.52 45.7977 129.978 46.2857C129.437 46.7736 128.797 47.146 128.1 47.3791C127.039 47.8104 125.874 47.935 124.743 47.7381C123.612 47.5413 122.563 47.0313 121.721 46.269C119.49 44.0779 120.358 40.7328 120.598 39.8125C121.121 37.8642 122.244 36.1194 123.816 34.8134C125.388 33.5074 127.332 32.7031 129.387 32.5089C135.377 32.0853 138.761 37.6068 138.955 37.9428C140.373 40.5076 140.706 43.5115 139.884 46.3128C139.267 48.1685 138.225 49.8629 136.837 51.2676C135.449 52.6722 133.751 53.7502 131.873 54.4198C129.881 55.1356 127.875 55.121 123.847 55.0772C121.343 55.0615 118.842 54.8907 116.36 54.5659V49.541C119.615 50.7949 123.05 51.5441 126.542 51.7613C128.365 51.8964 130.192 51.564 131.843 50.7972L131.993 50.7242C134.04 49.5907 135.586 47.7597 136.335 45.5824C136.957 43.6593 136.835 41.5804 135.991 39.7395C135.618 38.854 135.058 38.0546 134.349 37.3929C133.64 36.7312 132.796 36.2219 131.873 35.8978C131.023 35.6442 130.129 35.5588 129.245 35.6466C128.36 35.7344 127.503 35.9936 126.722 36.409C125.96 36.8343 125.3 37.4122 124.783 38.1046C124.267 38.797 123.907 39.5881 123.727 40.426C123.56 40.9839 123.534 41.5731 123.651 42.143C123.768 42.7129 124.026 43.2465 124.401 43.6981C125.344 44.5745 127.036 44.7936 127.65 44.1509C128.534 43.1868 126.467 40.7766 127.396 39.8856Z" fill="#DE69A6"/>
<path d="M150.367 69.1439C149.738 69.7866 147.927 69.436 146.953 68.4281C146.532 67.8661 146.269 67.2055 146.193 66.513C146.117 65.8206 146.229 65.1207 146.519 64.4842C146.812 63.8269 147.242 63.2359 147.78 62.7482C148.319 62.2606 148.955 61.8868 149.649 61.6503C150.713 61.2268 151.878 61.1063 153.01 61.3028C154.142 61.4993 155.193 62.0047 156.042 62.7605C158.273 64.9516 157.405 68.2967 157.165 69.2169C156.642 71.1652 155.519 72.91 153.947 74.216C152.375 75.522 150.431 76.3264 148.376 76.5206C142.386 76.9588 139.002 71.4372 138.793 71.0867C137.37 68.5123 137.042 65.4957 137.879 62.6875C138.493 60.8339 139.532 59.1414 140.918 57.7389C142.303 56.3365 143.999 55.2612 145.875 54.595C147.867 53.8646 149.888 53.8939 153.901 53.9231C156.405 53.9395 158.906 54.1102 161.388 54.4343V59.5031C158.137 58.2552 154.707 57.5062 151.221 57.2828C149.392 57.1496 147.559 57.4871 145.905 58.2614L145.77 58.3345C143.717 59.4546 142.168 61.2836 141.428 63.4616C140.797 65.3837 140.92 67.4657 141.772 69.3046C142.146 70.19 142.705 70.9894 143.414 71.6511C144.123 72.3128 144.967 72.8222 145.89 73.1463C146.741 73.399 147.634 73.484 148.518 73.3962C149.403 73.3084 150.26 73.0497 151.041 72.635C151.799 72.2091 152.458 71.6329 152.973 70.9435C153.489 70.2541 153.851 69.4669 154.036 68.6326C154.2 68.0682 154.22 67.4729 154.092 66.8996C153.964 66.3262 153.692 65.7926 153.302 65.346C152.359 64.4695 150.667 64.2504 150.053 64.8932C149.184 65.8426 151.251 68.2382 150.367 69.1439Z" fill="#DE69A6"/>
<path d="M150.365 39.8856C149.736 39.2428 147.925 39.5934 146.952 40.6013C146.53 41.1634 146.268 41.8239 146.191 42.5164C146.115 43.2089 146.228 43.9087 146.517 44.5453C146.81 45.2026 147.24 45.7936 147.778 46.2812C148.317 46.7689 148.953 47.1427 149.647 47.3791C150.711 47.8027 151.877 47.9232 153.008 47.7267C154.14 47.5302 155.191 47.0247 156.04 46.269C158.272 44.0779 157.403 40.7328 157.163 39.8125C156.64 37.8642 155.517 36.1194 153.945 34.8134C152.373 33.5074 150.429 32.7031 148.374 32.5089C142.384 32.0853 139 37.6068 138.791 37.9428C137.377 40.5091 137.049 43.5136 137.877 46.3128C138.494 48.1665 139.534 49.8595 140.919 51.2638C142.304 52.6682 143.998 53.7474 145.873 54.4198C147.865 55.1356 149.886 55.121 153.899 55.0772C156.403 55.0607 158.904 54.89 161.386 54.5659V49.541C158.137 50.796 154.706 51.5452 151.219 51.7613C149.391 51.8949 147.56 51.5626 145.903 50.7972L145.769 50.7242C143.716 49.5962 142.168 47.7632 141.426 45.5824C140.796 43.6603 140.918 41.5784 141.771 39.7395C142.144 38.854 142.703 38.0546 143.412 37.3929C144.121 36.7312 144.965 36.2219 145.888 35.8978C146.739 35.645 147.632 35.5601 148.517 35.6479C149.401 35.7356 150.259 35.9944 151.039 36.409C151.799 36.8365 152.458 37.415 152.974 38.107C153.49 38.7991 153.851 39.5891 154.034 40.426C154.197 40.9882 154.216 41.581 154.088 42.1518C153.96 42.7226 153.689 43.2537 153.3 43.6981C152.357 44.5745 150.665 44.7936 150.051 44.1509C149.183 43.1868 151.249 40.7766 150.365 39.8856Z" fill="#DE69A6"/>
<path d="M153.856 89.3896C154.514 89.9885 154.155 91.7706 153.107 92.7201C152.529 93.1276 151.851 93.3799 151.142 93.4517C150.432 93.5235 149.716 93.4122 149.064 93.1291C148.389 92.8445 147.783 92.4261 147.283 91.9006C146.782 91.375 146.4 90.7537 146.159 90.0761C145.733 89.0389 145.614 87.9059 145.815 86.8059C146.017 85.706 146.53 84.6831 147.297 83.8534C149.543 81.677 152.987 82.5242 153.93 82.7579C155.928 83.2685 157.716 84.3643 159.055 85.8975C160.394 87.4308 161.218 89.3277 161.417 91.3324C161.851 97.1753 156.191 100.477 155.847 100.666C153.212 102.049 150.129 102.374 147.252 101.572C145.354 100.966 143.621 99.9482 142.184 98.5946C140.747 97.2409 139.644 95.587 138.957 93.7572C138.208 91.8144 138.238 89.8424 138.268 85.9277C138.287 83.4844 138.467 81.0448 138.807 78.624H143.988C142.718 81.7984 141.951 85.1428 141.712 88.5424C141.581 90.3265 141.927 92.1132 142.715 93.728C142.718 93.7766 142.718 93.8254 142.715 93.874C143.872 95.8667 145.744 97.3707 147.971 98.0955C149.942 98.7066 152.074 98.587 153.96 97.7596C154.869 97.3964 155.689 96.8511 156.367 96.1591C157.045 95.4672 157.567 94.6439 157.898 93.7426C158.157 92.9148 158.243 92.0447 158.151 91.184C158.058 90.3233 157.789 89.4895 157.359 88.7323C156.927 87.9891 156.338 87.3442 155.63 86.8405C154.923 86.3368 154.114 85.9858 153.257 85.8108C152.68 85.658 152.074 85.6432 151.49 85.7678C150.906 85.8924 150.361 86.1527 149.903 86.5266C149.004 87.4614 148.765 89.1121 149.438 89.711C150.472 90.529 152.852 88.5132 153.856 89.3896Z" fill="#C16EC8"/>
<path d="M123.847 89.3896C123.188 89.9885 123.563 91.7706 124.596 92.7201C125.174 93.1276 125.852 93.3799 126.561 93.4517C127.271 93.5235 127.987 93.4122 128.639 93.1291C129.313 92.8445 129.92 92.4261 130.42 91.9006C130.92 91.375 131.303 90.7537 131.544 90.0761C131.969 89.0389 132.088 87.9059 131.887 86.8059C131.686 85.706 131.173 84.6831 130.406 83.8534C128.16 81.677 124.731 82.5242 123.772 82.7579C121.774 83.2666 119.984 84.3618 118.645 85.8954C117.306 87.4291 116.482 89.327 116.285 91.3324C115.836 97.1753 121.496 100.477 121.841 100.666C124.475 102.049 127.559 102.374 130.436 101.572C132.334 100.966 134.067 99.9482 135.504 98.5946C136.941 97.2409 138.044 95.587 138.731 93.7572C139.48 91.8144 139.45 89.8424 139.42 85.9277C139.401 83.4844 139.221 81.0448 138.881 78.624H133.7C134.97 81.7984 135.737 85.1428 135.976 88.5424C136.107 90.3265 135.761 92.1132 134.973 93.728C134.97 93.7766 134.97 93.8254 134.973 93.874C133.82 95.8704 131.946 97.3756 129.717 98.0955C127.746 98.7066 125.613 98.587 123.727 97.7596C122.821 97.3941 122.002 96.848 121.324 96.1563C120.646 95.4646 120.123 94.6425 119.789 93.7426C119.534 92.9143 119.45 92.0448 119.542 91.1845C119.635 90.3243 119.902 89.4907 120.328 88.7323C120.763 87.9909 121.353 87.3474 122.06 86.8439C122.767 86.3405 123.575 85.9884 124.431 85.8108C125.01 85.658 125.619 85.6432 126.205 85.7678C126.792 85.8923 127.339 86.1526 127.8 86.5266C128.684 87.4614 128.923 89.1121 128.249 89.711C127.231 90.529 124.791 88.5132 123.847 89.3896Z" fill="#C16EC8"/>
<path d="M153.856 111.841C154.514 111.227 154.155 109.445 153.107 108.496C152.529 108.088 151.851 107.836 151.142 107.764C150.432 107.692 149.716 107.804 149.064 108.087C148.389 108.371 147.783 108.79 147.283 109.315C146.782 109.841 146.4 110.462 146.159 111.14C145.734 112.18 145.615 113.315 145.816 114.417C146.017 115.519 146.53 116.544 147.297 117.377C149.543 119.539 152.987 118.706 153.93 118.473C155.928 117.957 157.716 116.858 159.054 115.323C160.392 113.788 161.217 111.89 161.417 109.884C161.851 104.041 156.191 100.739 155.847 100.55C153.212 99.1672 150.129 98.8422 147.252 99.6439C145.355 100.252 143.623 101.27 142.186 102.624C140.75 103.977 139.646 105.63 138.957 107.459C138.208 109.402 138.238 111.374 138.268 115.288C138.287 117.732 138.467 120.171 138.807 122.592H143.988C142.716 119.418 141.949 116.073 141.712 112.674C141.581 110.89 141.927 109.103 142.715 107.488C142.718 107.439 142.718 107.391 142.715 107.342C143.872 105.349 145.744 103.845 147.971 103.12C149.942 102.509 152.074 102.629 153.96 103.456C154.869 103.82 155.689 104.365 156.367 105.057C157.045 105.749 157.567 106.572 157.898 107.473C158.157 108.301 158.243 109.171 158.151 110.032C158.058 110.893 157.789 111.726 157.359 112.484C156.927 113.227 156.338 113.872 155.63 114.375C154.923 114.879 154.114 115.23 153.257 115.405C152.68 115.558 152.074 115.573 151.49 115.448C150.906 115.324 150.361 115.063 149.903 114.689C149.004 113.755 148.765 112.104 149.438 111.505C150.472 110.687 152.852 112.703 153.856 111.841Z" fill="#C16EC8"/>
<path d="M123.847 111.841C123.188 111.227 123.563 109.445 124.596 108.496C125.174 108.088 125.852 107.836 126.561 107.764C127.271 107.692 127.987 107.804 128.639 108.087C129.313 108.371 129.92 108.79 130.42 109.315C130.92 109.841 131.303 110.462 131.544 111.14C131.969 112.18 132.088 113.315 131.887 114.417C131.686 115.519 131.173 116.544 130.406 117.377C128.16 119.539 124.731 118.706 123.772 118.473C121.774 117.959 119.985 116.861 118.646 115.325C117.308 113.789 116.484 111.89 116.285 109.884C115.836 104.041 121.496 100.739 121.841 100.55C124.475 99.1672 127.559 98.8422 130.436 99.6439C132.333 100.252 134.065 101.27 135.501 102.624C136.938 103.977 138.042 105.63 138.731 107.459C139.48 109.402 139.45 111.374 139.42 115.288C139.401 117.732 139.221 120.171 138.881 122.592H133.7C134.972 119.418 135.739 116.073 135.976 112.674C136.107 110.89 135.761 109.103 134.973 107.488C134.97 107.439 134.97 107.391 134.973 107.342C133.82 105.346 131.946 103.84 129.717 103.12C127.746 102.509 125.613 102.629 123.727 103.456C122.821 103.822 122.002 104.368 121.324 105.06C120.646 105.751 120.123 106.573 119.789 107.473C119.534 108.302 119.45 109.171 119.542 110.031C119.635 110.892 119.902 111.725 120.328 112.484C120.763 113.225 121.353 113.869 122.06 114.372C122.767 114.876 123.575 115.228 124.431 115.405C125.01 115.558 125.619 115.573 126.205 115.448C126.792 115.324 127.339 115.063 127.8 114.689C128.684 113.755 128.923 112.104 128.249 111.505C127.231 110.687 124.791 112.703 123.847 111.841Z" fill="#C16EC8"/>
<path d="M102.09 116.735C101.477 117.377 99.6497 117.027 98.6765 116.004C98.2557 115.444 97.9952 114.785 97.9216 114.095C97.8479 113.404 97.9638 112.707 98.2573 112.075C98.5387 111.4 98.9628 110.791 99.5021 110.288C100.041 109.785 100.684 109.398 101.387 109.153C102.451 108.736 103.614 108.621 104.742 108.82C105.87 109.019 106.918 109.524 107.766 110.278C109.997 112.455 109.128 115.814 108.889 116.735C108.365 118.683 107.242 120.428 105.67 121.734C104.098 123.04 102.154 123.844 100.099 124.038C94.1096 124.462 90.7255 118.94 90.5309 118.604C89.1147 116.039 88.7816 113.036 89.6025 110.234C90.2216 108.38 91.2642 106.686 92.6519 105.282C94.0396 103.877 95.7361 102.799 97.6134 102.127C99.6049 101.397 101.611 101.426 105.639 101.455C108.143 101.482 110.644 101.658 113.126 101.981V107.094C109.872 105.855 106.444 105.106 102.959 104.873C101.13 104.744 99.298 105.081 97.6434 105.852H97.4937C95.4482 106.984 93.9061 108.816 93.1663 110.994C92.5352 112.915 92.6524 114.995 93.4956 116.837C93.8703 117.721 94.4302 118.52 95.1392 119.181C95.8483 119.843 96.6909 120.353 97.6134 120.679C98.4645 120.931 99.3588 121.014 100.243 120.924C101.128 120.833 101.985 120.571 102.764 120.153C103.526 119.731 104.187 119.156 104.704 118.466C105.22 117.776 105.58 116.987 105.759 116.15C105.916 115.587 105.93 114.994 105.8 114.424C105.669 113.854 105.398 113.323 105.01 112.878C104.067 112.002 102.375 111.768 101.761 112.425C100.923 113.433 102.974 115.814 102.09 116.735Z" fill="#DE69A6"/>
<path d="M102.092 87.5198C101.478 86.8771 99.6508 87.2423 98.6775 88.2502C98.2569 88.813 97.9967 89.4743 97.923 90.1671C97.8494 90.8598 97.9651 91.5592 98.2584 92.1942C98.5478 92.8539 98.9758 93.4469 99.5149 93.9351C100.054 94.4232 100.692 94.7956 101.388 95.028C102.451 95.4434 103.613 95.5595 104.74 95.3633C105.868 95.167 106.916 94.6663 107.767 93.9178C109.998 91.7267 109.129 88.3817 108.89 87.4468C108.368 85.4975 107.245 83.7516 105.673 82.4453C104.101 81.1389 102.156 80.3353 100.1 80.1432C94.1107 79.7049 90.7266 85.2265 90.532 85.5771C89.1143 88.1418 88.7811 91.1458 89.6036 93.9471C90.2246 95.7991 91.2682 97.4896 92.6557 98.8913C94.0433 100.293 95.7388 101.369 97.6145 102.039C99.606 102.77 101.612 102.741 105.64 102.711C108.145 102.692 110.646 102.516 113.127 102.186V97.1022C109.873 98.341 106.445 99.0897 102.96 99.3225C101.131 99.4522 99.2991 99.1149 97.6445 98.3439H97.4948C95.4484 97.2199 93.9053 95.3916 93.1674 93.2167C92.5405 91.2953 92.6577 89.2165 93.4967 87.3738C93.8738 86.4906 94.4343 85.6933 95.1431 85.0321C95.8518 84.3709 96.6933 83.8601 97.6145 83.5321C98.4661 83.2831 99.3599 83.2015 100.244 83.2917C101.128 83.382 101.985 83.6424 102.766 84.0579C103.525 84.4816 104.185 85.0572 104.701 85.747C105.217 86.4367 105.578 87.225 105.76 88.0603C105.917 88.6264 105.931 89.2212 105.801 89.7936C105.671 90.3661 105.4 90.8992 105.012 91.347C104.068 92.2088 102.376 92.4425 101.762 91.7852C100.924 90.7627 102.975 88.3817 102.092 87.5198Z" fill="#DE69A6"/>
<path d="M79.0762 116.735C79.7051 117.377 81.517 117.027 82.4903 116.004C82.912 115.445 83.1744 114.787 83.2506 114.097C83.3269 113.406 83.2144 112.709 82.9246 112.075C82.6416 111.401 82.2167 110.793 81.6776 110.29C81.1385 109.787 80.4971 109.4 79.7949 109.153C78.7283 108.737 77.5632 108.622 76.4326 108.82C75.302 109.019 74.2515 109.524 73.4012 110.278C71.1701 112.455 72.0386 115.814 72.2781 116.735C72.8044 118.684 73.9306 120.429 75.5048 121.735C77.0791 123.041 79.0257 123.845 81.0826 124.038C87.0721 124.462 90.4412 118.94 90.6508 118.604C92.067 116.039 92.4001 113.036 91.5792 110.234C90.9581 108.381 89.9149 106.688 88.5274 105.284C87.14 103.88 85.4445 102.801 83.5683 102.127C81.5768 101.397 79.5554 101.426 75.5425 101.455C73.0382 101.481 70.5379 101.657 68.0557 101.981V107.094C71.309 105.853 74.7377 105.104 78.2228 104.873C80.0516 104.746 81.883 105.083 83.5383 105.852H83.6882C85.7337 106.984 87.2756 108.816 88.0154 110.994C88.6461 112.916 88.5234 114.998 87.6711 116.837C87.2964 117.721 86.7367 118.52 86.0277 119.181C85.3186 119.843 84.4759 120.353 83.5533 120.679C82.7048 120.931 81.8129 121.015 80.9306 120.924C80.0483 120.834 79.1937 120.572 78.4175 120.153C77.6557 119.731 76.9945 119.156 76.4781 118.466C75.9618 117.776 75.6021 116.987 75.4228 116.15C75.2622 115.588 75.2452 114.996 75.373 114.425C75.5009 113.855 75.7698 113.324 76.1564 112.878C77.0998 112.002 78.7917 111.768 79.4056 112.425C80.2591 113.433 78.1928 115.814 79.0762 116.735Z" fill="#DE69A6"/>
<path d="M79.0762 87.5198C79.7051 86.8771 81.517 87.2423 82.4903 88.2502C82.9119 88.8122 83.174 89.4728 83.2503 90.1653C83.3265 90.8578 83.2142 91.5576 82.9246 92.1942C82.6329 92.8524 82.2039 93.4442 81.6652 93.9321C81.1264 94.4199 80.4895 94.7931 79.7949 95.028C78.7294 95.4446 77.5656 95.5614 76.4354 95.3652C75.3052 95.1689 74.2539 94.6675 73.4012 93.9178C71.1701 91.7267 72.0386 88.3817 72.2781 87.4468C72.8024 85.4964 73.928 83.75 75.5026 82.4438C77.0773 81.1376 79.025 80.3345 81.0826 80.1432C87.0721 79.7049 90.4412 85.2265 90.6508 85.5771C92.0685 88.1418 92.4017 91.1458 91.5792 93.9471C90.9562 95.7981 89.912 97.4876 88.5247 98.8891C87.1374 100.291 85.4429 101.368 83.5683 102.039C81.5768 102.77 79.5554 102.741 75.5425 102.711C73.0379 102.693 70.5372 102.517 68.0557 102.186V97.1022C71.309 98.343 74.7377 99.0917 78.2228 99.3225C80.0516 99.4502 81.883 99.113 83.5383 98.3439H83.6882C85.7346 97.2199 87.2775 95.3916 88.0154 93.2167C88.6418 91.2941 88.5192 89.2137 87.6711 87.3738C87.294 86.4906 86.7335 85.6933 86.0247 85.0321C85.316 84.3709 84.4745 83.8601 83.5533 83.5321C82.7043 83.2827 81.8129 83.2008 80.9311 83.2911C80.0493 83.3814 79.1949 83.6421 78.4175 84.0579C77.6575 84.4816 76.9977 85.0572 76.4816 85.747C75.9655 86.4367 75.6048 87.225 75.4228 88.0603C75.2622 88.6251 75.245 89.2195 75.3729 89.7921C75.5007 90.3648 75.7697 90.8985 76.1564 91.347C77.0998 92.2088 78.7917 92.4425 79.4056 91.7852C80.2591 90.7627 78.1928 88.3817 79.0762 87.5198Z" fill="#DE69A6"/>
<g opacity="0.5">
<path opacity="0.5" d="M77.1603 40.017C76.5015 40.6305 76.8609 42.3979 77.894 43.3474C78.4702 43.7587 79.1475 44.0145 79.8573 44.0889C80.5671 44.1632 81.2845 44.0536 81.937 43.771C82.6108 43.485 83.2165 43.0661 83.7164 42.5407C84.2163 42.0153 84.5995 41.3948 84.8418 40.7181C85.276 39.6798 85.3997 38.5428 85.1982 37.4388C84.9968 36.3348 84.4785 35.3092 83.7038 34.4808C81.4578 32.3043 78.0289 33.1515 77.0856 33.3852C75.0884 33.8958 73.2998 34.9916 71.9611 36.5249C70.6223 38.0581 69.7978 39.955 69.5988 41.9597C69.1496 47.8027 74.8095 51.1039 75.1689 51.3084C77.7995 52.688 80.8794 53.0079 83.7488 52.1994C85.6489 51.6009 87.3838 50.5872 88.8214 49.2354C90.259 47.8836 91.3613 46.2295 92.0442 44.3991C92.7929 42.4564 92.7629 40.4844 92.7329 36.5696C92.7161 34.1268 92.5411 31.6873 92.2089 29.266H86.9681C88.2473 32.4376 89.0151 35.7834 89.2442 39.1843C89.3811 40.9672 89.0405 42.7542 88.2558 44.3699C88.2331 44.418 88.2028 44.4624 88.1661 44.5014C87.0179 46.5041 85.143 48.0153 82.9103 48.7375C80.9401 49.3527 78.8059 49.233 76.9209 48.4016C76.0132 48.0376 75.1938 47.4921 74.5155 46.8002C73.8372 46.1083 73.3151 45.2854 72.9828 44.3845C72.7237 43.555 72.6366 42.6834 72.7266 41.8206C72.8165 40.9579 73.0818 40.1213 73.5069 39.3596C73.9434 38.62 74.5341 37.9778 75.2407 37.4746C75.9474 36.9714 76.7544 36.6184 77.6096 36.4382C78.1882 36.2777 78.7984 36.2591 79.3861 36.3839C79.9738 36.5088 80.5209 36.7733 80.9787 37.1539C81.8771 38.0742 82.1018 39.7248 81.443 40.3237C80.5445 41.1709 78.0887 39.1551 77.1603 40.017Z" fill="#C16EC8"/>
<path opacity="0.5" d="M107.152 40.017C107.811 40.6305 107.451 42.3979 106.418 43.3474C105.842 43.7587 105.165 44.0145 104.455 44.0889C103.745 44.1632 103.028 44.0536 102.375 43.771C101.701 43.485 101.096 43.0661 100.596 42.5407C100.096 42.0153 99.7126 41.3948 99.4702 40.7181C99.0361 39.6798 98.9126 38.5428 99.114 37.4388C99.3154 36.3348 99.8335 35.3092 100.608 34.4808C102.854 32.3043 106.283 33.1515 107.227 33.3852C109.224 33.8958 111.012 34.9916 112.351 36.5249C113.69 38.0581 114.514 39.955 114.713 41.9597C115.148 47.8027 109.488 51.1039 109.143 51.3084C106.513 52.688 103.433 53.0079 100.563 52.1994C98.663 51.598 96.9277 50.5834 95.4881 49.2321C94.0485 47.8809 92.9424 46.2283 92.253 44.3991C91.5193 42.4564 91.5342 40.4844 91.5791 36.5696C91.5959 34.1268 91.7711 31.6873 92.1033 29.266H97.2991C96.02 32.4376 95.2522 35.7834 95.0231 39.1843C94.8862 40.9672 95.2268 42.7542 96.0114 44.3699L96.1012 44.5014C97.2494 46.5041 99.1242 48.0153 101.357 48.7375C103.327 49.3527 105.461 49.233 107.346 48.4016C108.254 48.0376 109.074 47.4921 109.752 46.8002C110.43 46.1083 110.952 45.2854 111.284 44.3845C111.544 43.555 111.631 42.6834 111.541 41.8206C111.451 40.9579 111.185 40.1213 110.76 39.3596C110.324 38.62 109.733 37.9778 109.027 37.4746C108.32 36.9714 107.513 36.6184 106.658 36.4382C106.079 36.2777 105.469 36.2591 104.881 36.3839C104.293 36.5088 103.746 36.7733 103.289 37.1539C102.39 38.0742 102.165 39.7248 102.824 40.3237C103.768 41.1709 106.223 39.1551 107.152 40.017Z" fill="#C16EC8"/>
<path opacity="0.5" d="M77.1595 62.4683C76.5007 61.8548 76.8601 60.0874 77.8932 59.1379C78.4707 58.7293 79.1476 58.4752 79.8569 58.4009C80.5661 58.3266 81.283 58.4346 81.9362 58.7143C82.6124 59.0004 83.22 59.4211 83.7202 59.9492C84.2204 60.4774 84.6021 61.1016 84.841 61.7818C85.2831 62.8163 85.4109 63.9529 85.2092 65.0562C85.0074 66.1596 84.4845 67.183 83.703 68.0045C81.457 70.181 78.0281 69.3338 77.0848 69.1001C75.0876 68.5895 73.299 67.4937 71.9603 65.9604C70.6215 64.4272 69.797 62.5303 69.598 60.5256C69.1488 54.6827 74.8088 51.3814 75.1681 51.1915C77.7972 49.8085 80.8765 49.4835 83.748 50.2859C85.6507 50.8839 87.3877 51.8992 88.8257 53.2539C90.2637 54.6086 91.3644 56.2666 92.0434 58.1008C92.7921 60.0435 92.7621 62.0009 92.7322 65.9303C92.7155 68.3732 92.5405 70.8126 92.2081 73.2339H86.9673C88.2455 70.0569 89.0132 66.7065 89.2434 63.301C89.3818 61.5227 89.0411 59.7401 88.2551 58.13C88.2319 58.0776 88.2018 58.0285 88.1653 57.9839C87.0115 55.9857 85.1387 54.4763 82.9096 53.7478C80.9382 53.1409 78.8071 53.2604 76.9201 54.0838C76.0124 54.4477 75.193 54.9933 74.5147 55.6851C73.8364 56.377 73.3143 57.1999 72.982 58.1008C72.7221 58.9302 72.6345 59.8019 72.7245 60.6648C72.8145 61.5277 73.0802 62.3643 73.5061 63.1257C73.9404 63.8671 74.5304 64.5106 75.2374 65.014C75.9444 65.5175 76.7526 65.8695 77.6088 66.0471C78.1891 66.2005 78.7988 66.2142 79.3857 66.087C79.9725 65.9597 80.5189 65.6954 80.9779 65.3168C81.8763 64.3965 82.101 62.7459 81.4422 62.147C80.5437 61.3144 78.0879 63.3302 77.1595 62.4683Z" fill="#C16EC8"/>
<path opacity="0.5" d="M107.152 62.4683C107.811 61.8548 107.451 60.0874 106.418 59.1379C105.841 58.7293 105.164 58.4752 104.454 58.4009C103.745 58.3266 103.028 58.4346 102.375 58.7143C101.699 59.0004 101.091 59.4211 100.591 59.9492C100.091 60.4774 99.7092 61.1016 99.4703 61.7818C99.0282 62.8163 98.9005 63.9529 99.1023 65.0562C99.3041 66.1596 99.8268 67.183 100.608 68.0045C102.854 70.181 106.283 69.3338 107.227 69.1001C109.224 68.5895 111.012 67.4937 112.351 65.9604C113.69 64.4272 114.514 62.5303 114.713 60.5256C115.148 54.6827 109.488 51.3814 109.143 51.1915C106.514 49.8085 103.435 49.4835 100.563 50.2859C98.661 50.8879 96.9241 51.9044 95.4843 53.2584C94.0445 54.6124 92.9395 56.2683 92.2531 58.1008C91.5193 60.0435 91.5342 62.0009 91.5791 65.9303C91.5958 68.3732 91.771 70.8126 92.1034 73.2339H97.2992C96.021 70.0569 95.2533 66.7065 95.0231 63.301C94.8847 61.5227 95.2254 59.7401 96.0115 58.13C96.0346 58.0776 96.0647 58.0285 96.1012 57.9839C97.255 55.9857 99.1278 54.4763 101.357 53.7478C103.328 53.1409 105.459 53.2604 107.346 54.0838C108.254 54.4477 109.074 54.9933 109.752 55.6851C110.43 56.377 110.952 57.1999 111.284 58.1008C111.544 58.9302 111.632 59.8019 111.542 60.6648C111.452 61.5277 111.186 62.3643 110.76 63.1257C110.326 63.8671 109.736 64.5106 109.029 65.014C108.322 65.5175 107.514 65.8695 106.658 66.0471C106.077 66.2005 105.468 66.2142 104.881 66.087C104.294 65.9597 103.748 65.6954 103.289 65.3168C102.39 64.3965 102.166 62.7459 102.824 62.147C103.768 61.3144 106.223 63.3302 107.152 62.4683Z" fill="#C16EC8"/>
</g>
<g opacity="0.5">
<path opacity="0.5" d="M128.892 67.3763C129.521 68.0191 131.333 67.6539 132.306 66.646C132.728 66.084 132.99 65.4234 133.066 64.7309C133.143 64.0384 133.03 63.3386 132.741 62.702C132.447 62.0448 132.018 61.4537 131.479 60.9661C130.941 60.4784 130.305 60.1046 129.611 59.8682C128.546 59.4516 127.382 59.3348 126.252 59.531C125.121 59.7272 124.07 60.2287 123.217 60.9784C120.986 63.1695 121.855 66.5145 122.094 67.4348C122.619 69.3852 123.744 71.1316 125.319 72.4378C126.893 73.744 128.841 74.5471 130.899 74.7384C136.888 75.1766 140.257 69.6551 140.467 69.3045C141.885 66.7397 142.218 63.7358 141.395 60.9345C140.777 59.0809 139.735 57.389 138.347 55.9869C136.959 54.5847 135.262 53.5093 133.384 52.8421C131.393 52.1117 129.372 52.1409 125.359 52.1702C122.854 52.1889 120.353 52.3646 117.872 52.696V57.7501C121.125 56.5094 124.554 55.7606 128.039 55.5298C129.868 55.4021 131.699 55.7394 133.354 56.5085L133.504 56.5816C135.551 57.7056 137.094 59.5338 137.832 61.7087C138.458 63.6313 138.335 65.7118 137.487 67.5516C137.11 68.4348 136.55 69.2321 135.841 69.8933C135.132 70.5545 134.291 71.0653 133.369 71.3934C132.52 71.6427 131.629 71.7246 130.747 71.6343C129.865 71.544 129.011 71.2834 128.234 70.8675C127.474 70.4438 126.814 69.8682 126.298 69.1784C125.782 68.4887 125.421 67.7004 125.239 66.8651C125.078 66.3003 125.061 65.7059 125.189 65.1333C125.317 64.5606 125.586 64.027 125.973 63.5785C126.916 62.7166 128.608 62.4829 129.222 63.1402C130.09 64.1481 128.024 66.4561 128.892 67.3763Z" fill="#DE69A6"/>
<path opacity="0.5" d="M128.893 38.1033C129.522 37.4606 131.334 37.8112 132.307 38.8337C132.729 39.3928 132.991 40.051 133.068 40.7412C133.144 41.4314 133.031 42.129 132.741 42.763C132.456 43.4351 132.031 44.0419 131.492 44.5449C130.953 45.0478 130.313 45.4359 129.612 45.6845C128.545 46.1009 127.38 46.2163 126.25 46.0174C125.119 45.8185 124.069 45.3134 123.218 44.5597C120.987 42.3832 121.856 39.0236 122.095 38.1033C122.62 36.1529 123.745 34.4065 125.32 33.1003C126.894 31.7941 128.842 30.991 130.9 30.7997C136.889 30.376 140.258 35.8976 140.468 36.2336C141.884 38.7988 142.217 41.8022 141.396 44.6036C140.775 46.4573 139.732 48.1497 138.344 49.5538C136.957 50.9579 135.262 52.0372 133.385 52.7106C131.394 53.441 129.372 53.4118 125.36 53.3825C122.855 53.3564 120.355 53.1808 117.873 52.8567V47.7441C121.126 48.9849 124.555 49.7336 128.04 49.9644C129.869 50.0921 131.7 49.7549 133.355 48.9857H133.505C135.551 47.8538 137.093 46.0216 137.833 43.844C138.463 41.9219 138.34 39.8399 137.488 38.0011C137.115 37.1156 136.556 36.3162 135.847 35.6545C135.137 34.9928 134.294 34.4835 133.37 34.1593C132.522 33.9067 131.63 33.8231 130.748 33.9134C129.865 34.0038 129.011 34.2662 128.235 34.6852C127.471 35.1045 126.808 35.6788 126.292 36.3692C125.775 37.0597 125.416 37.8503 125.24 38.6876C125.079 39.25 125.062 39.8422 125.19 40.4125C125.318 40.9828 125.587 41.514 125.974 41.9596C126.917 42.8361 128.609 43.0698 129.223 42.4125C130.091 41.4046 128.025 39.0236 128.893 38.1033Z" fill="#DE69A6"/>
<path opacity="0.5" d="M151.923 67.3763C151.309 68.0191 149.482 67.6539 148.509 66.646C148.088 66.0832 147.828 65.4219 147.754 64.7291C147.68 64.0364 147.796 63.337 148.089 62.702C148.379 62.0423 148.807 61.4492 149.346 60.9611C149.885 60.473 150.523 60.1006 151.219 59.8682C152.282 59.4528 153.443 59.3367 154.571 59.5329C155.698 59.7292 156.747 60.2299 157.598 60.9784C159.829 63.1695 158.96 66.5145 158.721 67.4348C158.201 69.3851 157.079 71.1321 155.506 72.4388C153.934 73.7454 151.988 74.5483 149.931 74.7384C143.942 75.1766 140.558 69.6551 140.363 69.3045C138.945 66.7397 138.612 63.7358 139.435 60.9345C140.05 59.0794 141.091 57.3859 142.479 55.9834C143.868 54.5809 145.566 53.5064 147.445 52.8421C149.437 52.1117 151.443 52.1409 155.471 52.1702C157.976 52.1895 160.477 52.3651 162.958 52.696V57.7501C159.704 56.5113 156.276 55.7627 152.791 55.5298C150.962 55.4001 149.13 55.7374 147.475 56.5085L147.326 56.5816C145.275 57.7 143.73 59.5303 142.998 61.7087C142.372 63.6301 142.489 65.7089 143.328 67.5516C143.705 68.4348 144.265 69.2321 144.974 69.8933C145.683 70.5545 146.524 71.0653 147.445 71.3934C148.297 71.6423 149.191 71.724 150.075 71.6337C150.959 71.5434 151.816 71.283 152.596 70.8675C153.356 70.4438 154.016 69.8682 154.532 69.1784C155.048 68.4887 155.409 67.7004 155.591 66.8651C155.748 66.2991 155.762 65.7043 155.632 65.1318C155.502 64.5593 155.231 64.0263 154.842 63.5785C153.899 62.7166 152.207 62.4829 151.593 63.1402C150.755 64.1481 152.851 66.4561 151.923 67.3763Z" fill="#DE69A6"/>
<path opacity="0.5" d="M151.921 38.1033C151.308 37.4606 149.481 37.8112 148.507 38.8337C148.087 39.3935 147.826 40.0525 147.753 40.743C147.679 41.4335 147.795 42.1306 148.088 42.763C148.369 43.4375 148.794 44.0464 149.333 44.5498C149.872 45.0533 150.515 45.4399 151.218 45.6845C152.282 46.1014 153.445 46.217 154.573 46.0181C155.701 45.8191 156.749 45.3136 157.597 44.5597C159.828 42.3832 158.959 39.0236 158.72 38.1033C158.2 36.153 157.078 34.4059 155.505 33.0993C153.933 31.7927 151.986 30.9898 149.93 30.7997C143.941 30.376 140.557 35.8976 140.362 36.2336C138.946 38.7988 138.613 41.8022 139.434 44.6036C140.053 46.4583 141.095 48.1517 142.483 49.5561C143.871 50.9604 145.567 52.039 147.444 52.7106C149.436 53.441 151.442 53.4118 155.47 53.3825C157.974 53.3558 160.475 53.1802 162.957 52.8567V47.7441C159.703 48.9829 156.275 49.7316 152.79 49.9644C150.961 50.0941 149.129 49.7568 147.474 48.9857H147.325C145.274 47.8593 143.731 46.0251 142.997 43.844C142.366 41.9232 142.483 39.8428 143.327 38.0011C143.7 37.1156 144.259 36.3162 144.968 35.6545C145.677 34.9928 146.521 34.4835 147.444 34.1593C148.295 33.9072 149.19 33.8238 150.074 33.9141C150.959 34.0044 151.816 34.2666 152.595 34.6852C153.359 35.1045 154.021 35.6788 154.538 36.3692C155.055 37.0597 155.413 37.8503 155.59 38.6876C155.747 39.2513 155.761 39.8439 155.631 40.414C155.5 40.9842 155.229 41.5147 154.841 41.9596C153.898 42.8361 152.206 43.0698 151.592 42.4125C150.754 41.4046 152.85 39.0236 151.921 38.1033Z" fill="#DE69A6"/>
</g>
<g opacity="0.5">
<path opacity="0.5" d="M155.414 87.6075C156.072 88.2064 155.713 89.9885 154.68 90.938C154.103 91.3483 153.425 91.6023 152.715 91.6741C152.005 91.746 151.288 91.6331 150.637 91.347C149.961 91.0647 149.353 90.6471 148.852 90.1213C148.352 89.5954 147.97 88.9729 147.732 88.294C147.29 87.2596 147.162 86.1229 147.364 85.0196C147.566 83.9163 148.089 82.8928 148.87 82.0713C151.116 79.8948 154.545 80.7421 155.488 80.9758C157.488 81.4826 159.278 82.5773 160.618 84.1113C161.957 85.6452 162.78 87.5442 162.975 89.5503C163.409 95.3932 157.75 98.6944 157.405 98.8843C154.776 100.267 151.697 100.592 148.825 99.79C146.924 99.1861 145.188 98.1689 143.748 96.8151C142.309 95.4614 141.203 93.8064 140.515 91.9751C139.781 90.0323 139.811 88.0749 139.841 84.1456C139.857 81.7027 140.032 79.2632 140.365 76.8419H145.561C144.285 80.0144 143.517 83.3598 143.285 86.7603C143.144 88.5434 143.485 90.3314 144.273 91.9459L144.363 92.0919C145.515 94.0882 147.389 95.5935 149.619 96.3134C151.588 96.9277 153.72 96.8133 155.608 95.9921C156.516 95.6281 157.335 95.0826 158.014 94.3907C158.692 93.6988 159.214 92.8759 159.546 91.9751C159.806 91.1456 159.894 90.2739 159.804 89.4111C159.714 88.5482 159.448 87.7115 159.022 86.9502C158.588 86.2088 157.998 85.5653 157.291 85.0618C156.584 84.5583 155.776 84.2063 154.919 84.0287C154.339 83.8753 153.729 83.8617 153.143 83.9889C152.556 84.1161 152.009 84.3804 151.55 84.7591C150.652 85.6793 150.427 87.33 151.086 87.9289C152.029 88.7469 154.485 86.7457 155.414 87.6075Z" fill="#C16EC8"/>
<path opacity="0.5" d="M125.421 87.6075C124.762 88.2064 125.121 89.9885 126.154 90.938C126.731 91.3483 127.409 91.6023 128.119 91.6741C128.829 91.746 129.546 91.6331 130.197 91.347C130.873 91.0647 131.481 90.6471 131.982 90.1213C132.482 89.5954 132.864 88.9729 133.102 88.294C133.544 87.2596 133.672 86.1229 133.47 85.0196C133.268 83.9163 132.745 82.8928 131.964 82.0713C129.718 79.8948 126.289 80.7421 125.346 80.9758C123.346 81.4826 121.556 82.5773 120.216 84.1113C118.877 85.6452 118.054 87.5442 117.859 89.5503C117.41 95.3932 123.085 98.6944 123.429 98.8843C126.058 100.267 129.137 100.592 132.009 99.79C133.91 99.1861 135.646 98.1689 137.086 96.8151C138.525 95.4614 139.631 93.8064 140.319 91.9751C141.053 90.0323 141.023 88.0749 140.993 84.1456C140.977 81.7027 140.802 79.2632 140.469 76.8419H135.273C136.549 80.0144 137.317 83.3598 137.549 86.7603C137.69 88.5434 137.349 90.3314 136.561 91.9459L136.471 92.0919C135.319 94.0883 133.445 95.5935 131.215 96.3134C129.246 96.9277 127.114 96.8133 125.226 95.9921C124.333 95.6068 123.532 95.044 122.875 94.3398C122.217 93.6355 121.718 92.8053 121.408 91.902C121.148 91.0726 121.06 90.2009 121.15 89.338C121.24 88.4752 121.506 87.6385 121.932 86.8771C122.366 86.1357 122.956 85.4922 123.663 84.9888C124.37 84.4853 125.178 84.1333 126.034 83.9557C126.615 83.8023 127.224 83.7886 127.811 83.9158C128.398 84.0431 128.944 84.3074 129.403 84.686C130.302 85.6063 130.526 87.2569 129.868 87.8558C128.805 88.7469 126.349 86.7457 125.421 87.6075Z" fill="#C16EC8"/>
<path opacity="0.5" d="M155.414 110.059C156.072 109.445 155.713 107.678 154.68 106.728C154.104 106.317 153.427 106.061 152.717 105.987C152.007 105.913 151.29 106.022 150.637 106.305C149.962 106.589 149.356 107.008 148.855 107.533C148.355 108.059 147.973 108.68 147.732 109.358C147.298 110.396 147.174 111.533 147.376 112.637C147.577 113.741 148.095 114.767 148.87 115.595C151.116 117.772 154.545 116.924 155.488 116.691C157.488 116.179 159.278 115.081 160.617 113.545C161.956 112.009 162.779 110.109 162.975 108.101C163.409 102.259 157.75 98.9719 157.405 98.7674C154.776 97.3844 151.697 97.0594 148.825 97.8618C146.925 98.4676 145.19 99.4855 143.751 100.839C142.312 102.192 141.205 103.846 140.515 105.677C139.781 107.619 139.811 109.591 139.841 113.506C139.857 115.949 140.032 118.389 140.365 120.81H145.561C144.277 117.639 143.504 114.293 143.27 110.891C143.133 109.109 143.474 107.322 144.258 105.706L144.348 105.56C145.5 103.564 147.374 102.058 149.604 101.338C151.574 100.723 153.708 100.843 155.593 101.674C156.501 102.038 157.32 102.584 157.999 103.276C158.677 103.968 159.199 104.79 159.531 105.691C159.792 106.518 159.879 107.388 159.789 108.248C159.699 109.109 159.433 109.943 159.007 110.702C158.573 111.443 157.983 112.086 157.276 112.59C156.569 113.093 155.761 113.445 154.904 113.623C154.326 113.78 153.716 113.796 153.129 113.672C152.542 113.547 151.995 113.285 151.535 112.907C150.637 111.987 150.412 110.336 151.071 109.738C152.03 108.905 154.485 110.891 155.414 110.059Z" fill="#C16EC8"/>
<path opacity="0.5" d="M125.42 110.059C124.761 109.445 125.121 107.678 126.154 106.728C126.73 106.317 127.407 106.061 128.117 105.987C128.827 105.913 129.544 106.022 130.197 106.305C130.871 106.589 131.478 107.008 131.978 107.533C132.478 108.059 132.861 108.68 133.101 109.358C133.536 110.396 133.659 111.533 133.458 112.637C133.256 113.741 132.738 114.767 131.963 115.595C129.717 117.772 126.288 116.924 125.345 116.691C123.346 116.179 121.556 115.081 120.217 113.545C118.878 112.009 118.054 110.109 117.858 108.101C117.409 102.259 123.084 98.9719 123.428 98.7674C126.057 97.3844 129.137 97.0594 132.008 97.8618C133.908 98.4676 135.643 99.4855 137.083 100.839C138.522 102.192 139.628 103.846 140.319 105.677C141.052 107.619 141.022 109.591 140.992 113.506C140.977 115.949 140.802 118.389 140.468 120.81H135.273C136.552 117.638 137.32 114.292 137.549 110.891C137.686 109.109 137.345 107.322 136.56 105.706L136.471 105.56C135.318 103.564 133.444 102.058 131.215 101.338C129.245 100.723 127.11 100.843 125.225 101.674C124.318 102.038 123.498 102.584 122.82 103.276C122.142 103.968 121.62 104.79 121.287 105.691C121.027 106.518 120.939 107.388 121.029 108.248C121.119 109.109 121.385 109.943 121.811 110.702C122.246 111.443 122.836 112.086 123.543 112.59C124.25 113.093 125.058 113.445 125.914 113.623C126.493 113.78 127.102 113.796 127.689 113.672C128.276 113.547 128.823 113.285 129.283 112.907C130.182 111.987 130.406 110.336 129.747 109.738C128.804 108.905 126.348 110.891 125.42 110.059Z" fill="#C16EC8"/>
</g>
<g opacity="0.5">
<path opacity="0.5" d="M103.664 114.952C103.035 115.595 101.224 115.244 100.25 114.236C99.8286 113.674 99.5664 113.014 99.4902 112.321C99.414 111.629 99.5263 110.929 99.8159 110.293C100.108 109.634 100.537 109.042 101.075 108.555C101.614 108.067 102.251 107.694 102.946 107.459C104.01 107.035 105.175 106.915 106.307 107.111C107.439 107.308 108.49 107.813 109.339 108.569C111.57 110.745 110.702 114.105 110.462 115.025C109.938 116.976 108.812 118.722 107.238 120.028C105.663 121.335 103.715 122.138 101.658 122.329C95.6684 122.753 92.2993 117.231 92.0897 116.895C90.672 114.33 90.3388 111.326 91.1613 108.525C91.7824 106.671 92.8256 104.979 94.2131 103.575C95.6005 102.171 97.296 101.091 99.1722 100.418C101.164 99.7022 103.185 99.7168 107.198 99.7607C109.702 99.7758 112.203 99.9465 114.685 100.272V105.341C111.436 104.086 108.005 103.336 104.518 103.12C102.69 102.987 100.858 103.319 99.2021 104.084H99.0523C97.0068 105.216 95.4649 107.049 94.725 109.226C94.0944 111.148 94.2171 113.23 95.0694 115.069C95.4425 115.955 96.0017 116.754 96.711 117.416C97.4202 118.077 98.2637 118.587 99.1871 118.911C100.036 119.163 100.928 119.247 101.81 119.157C102.692 119.066 103.547 118.804 104.323 118.385C105.087 117.966 105.749 117.391 106.266 116.701C106.782 116.01 107.141 115.22 107.318 114.383C107.478 113.82 107.495 113.228 107.367 112.658C107.24 112.087 106.971 111.556 106.584 111.111C105.641 110.234 103.949 110 103.335 110.658C102.481 111.651 104.548 114.032 103.664 114.952Z" fill="#DE69A6"/>
<path opacity="0.5" d="M103.664 85.6939C103.035 85.0512 101.223 85.4018 100.25 86.4097C99.8286 86.9717 99.5664 87.6323 99.4902 88.3248C99.4139 89.0172 99.5262 89.7171 99.8159 90.3536C100.108 91.0119 100.537 91.6037 101.075 92.0916C101.614 92.5794 102.251 92.9526 102.946 93.1875C104.01 93.611 105.175 93.7315 106.307 93.535C107.439 93.3385 108.49 92.8331 109.339 92.0773C111.57 89.8862 110.702 86.5411 110.462 85.6209C109.938 83.6704 108.812 81.9241 107.238 80.6178C105.663 79.3116 103.715 78.5086 101.658 78.3172C95.6684 77.879 92.2993 83.4006 92.0896 83.7511C90.6719 86.3159 90.3387 89.3199 91.1613 92.1211C91.7793 93.9747 92.8218 95.6667 94.2097 97.0688C95.5977 98.4709 97.2948 99.5463 99.1721 100.214C101.164 100.944 103.185 100.915 107.198 100.886C109.702 100.87 112.203 100.7 114.685 100.374V95.3201C111.434 96.568 108.004 97.317 104.518 97.5404C102.688 97.6736 100.856 97.3361 99.2021 96.5617H99.0522C97.0058 95.4377 95.463 93.6095 94.725 91.4346C94.0987 89.512 94.2212 87.4316 95.0694 85.5917C95.445 84.7094 96.0052 83.9132 96.7142 83.2542C97.4233 82.5952 98.2656 82.0879 99.1871 81.7646C100.035 81.5106 100.926 81.4249 101.808 81.5127C102.69 81.6006 103.545 81.86 104.323 82.2758C105.083 82.6995 105.743 83.2751 106.259 83.9649C106.775 84.6546 107.136 85.4429 107.318 86.2782C107.478 86.843 107.495 87.4374 107.368 88.01C107.24 88.5827 106.971 89.1164 106.584 89.5649C105.641 90.4413 103.949 90.6604 103.335 90.0177C102.481 88.9806 104.548 86.5996 103.664 85.6939Z" fill="#DE69A6"/>
<path opacity="0.5" d="M80.6507 114.952C81.2646 115.595 83.0915 115.244 84.0648 114.236C84.4854 113.674 84.7456 113.012 84.8193 112.32C84.8929 111.627 84.7772 110.927 84.4839 110.293C84.1946 109.633 83.7665 109.04 83.2274 108.552C82.6884 108.063 82.0503 107.691 81.3544 107.459C80.294 107.027 79.1288 106.903 77.9978 107.1C76.8668 107.297 75.8178 107.807 74.9757 108.569C72.7446 110.745 73.6131 114.105 73.8526 115.025C74.3721 116.976 75.4942 118.723 77.0667 120.029C78.6392 121.336 80.5858 122.139 82.6422 122.329C88.6316 122.753 92.0157 117.231 92.2103 116.895C93.628 114.33 93.9612 111.326 93.1387 108.525C92.5196 106.67 91.477 104.977 90.0893 103.573C88.7016 102.168 87.0051 101.09 85.1278 100.418C83.1363 99.7022 81.1299 99.7168 77.102 99.7607C74.5978 99.7764 72.0972 99.9471 69.6152 100.272V105.341C72.865 104.088 76.2952 103.339 79.7821 103.12C81.61 102.983 83.4429 103.315 85.0979 104.084H85.2476C87.293 105.216 88.8351 107.049 89.575 109.226C90.2046 111.147 90.0874 113.227 89.2456 115.069C88.8725 115.955 88.3132 116.754 87.604 117.416C86.8948 118.077 86.0513 118.587 85.1278 118.911C84.2767 119.163 83.3824 119.246 82.4978 119.156C81.6131 119.066 80.7559 118.804 79.9768 118.385C79.2132 117.966 78.5508 117.391 78.0342 116.701C77.5176 116.01 77.1587 115.22 76.9821 114.383C76.8248 113.819 76.8109 113.226 76.9413 112.656C77.0718 112.086 77.3427 111.555 77.7308 111.111C78.6741 110.234 80.3662 110 80.9801 110.658C81.8186 111.651 79.7673 114.032 80.6507 114.952Z" fill="#DE69A6"/>
<path opacity="0.5" d="M80.6498 85.6939C81.2637 85.0512 83.0905 85.4018 84.0638 86.4097C84.4844 86.9724 84.7447 87.6338 84.8183 88.3265C84.892 89.0193 84.7762 89.7187 84.4829 90.3536C84.1936 91.0133 83.7656 91.6064 83.2265 92.0945C82.6874 92.5827 82.0494 92.955 81.3535 93.1875C80.2931 93.6187 79.1279 93.7433 77.9969 93.5465C76.8659 93.3497 75.8168 92.8397 74.9747 92.0773C72.7436 89.8862 73.6121 86.5411 73.8517 85.6209C74.3712 83.6706 75.4933 81.9235 77.0658 80.6169C78.6382 79.3102 80.5848 78.5073 82.6412 78.3172C88.6307 77.879 92.0147 83.4006 92.2094 83.7511C93.6271 86.3159 93.9603 89.3199 93.1377 92.1211C92.5227 93.9762 91.4811 95.6697 90.0927 97.0722C88.7044 98.4748 87.0059 99.5492 85.1269 100.214C83.1354 100.944 81.1289 100.915 77.101 100.886C74.5969 100.87 72.0962 100.699 69.6142 100.374V95.3201C72.8663 96.5651 76.2954 97.314 79.7812 97.5404C81.6106 97.6777 83.4447 97.34 85.0969 96.5617H85.2466C87.293 95.4377 88.836 93.6095 89.574 91.4346C90.2008 89.5132 90.0837 87.4344 89.2446 85.5917C88.869 84.7094 88.3088 83.9132 87.5998 83.2542C86.8907 82.5952 86.0484 82.0879 85.1269 81.7646C84.2766 81.511 83.383 81.4256 82.4985 81.5134C81.6139 81.6012 80.7563 81.8604 79.9759 82.2758C79.2159 82.6995 78.5563 83.2751 78.0402 83.9649C77.5241 84.6546 77.1632 85.4429 76.9811 86.2782C76.8239 86.8442 76.81 87.4391 76.9404 88.0115C77.0708 88.584 77.3416 89.1171 77.7298 89.5649C78.6732 90.4413 80.3652 90.6604 80.9792 90.0177C81.8177 88.9806 79.7663 86.5996 80.6498 85.6939Z" fill="#DE69A6"/>
</g>
</svg>
