<svg width="158" height="34" viewBox="0 0 158 34" fill="none" xmlns="http://www.w3.org/2000/svg">
<circle cx="17" cy="17" r="17"/>
<path d="M45.9 13.54C46.4 13.54 46.8533 13.6567 47.26 13.89C47.6733 14.1167 47.9967 14.44 48.23 14.86C48.4633 15.2733 48.58 15.7567 48.58 16.31C48.58 16.8633 48.4633 17.35 48.23 17.77C47.9967 18.1833 47.6733 18.5067 47.26 18.74C46.8533 18.9667 46.4 19.08 45.9 19.08C45.16 19.08 44.5967 18.8467 44.21 18.38V19H42.72V11.58H44.28V14.19C44.6733 13.7567 45.2133 13.54 45.9 13.54ZM45.63 17.8C46.03 17.8 46.3567 17.6667 46.61 17.4C46.87 17.1267 47 16.7633 47 16.31C47 15.8567 46.87 15.4967 46.61 15.23C46.3567 14.9567 46.03 14.82 45.63 14.82C45.23 14.82 44.9 14.9567 44.64 15.23C44.3867 15.4967 44.26 15.8567 44.26 16.31C44.26 16.7633 44.3867 17.1267 44.64 17.4C44.9 17.6667 45.23 17.8 45.63 17.8ZM54.8178 13.62L52.3878 19.33C52.1411 19.95 51.8345 20.3867 51.4678 20.64C51.1078 20.8933 50.6711 21.02 50.1578 21.02C49.8778 21.02 49.6011 20.9767 49.3278 20.89C49.0545 20.8033 48.8311 20.6833 48.6578 20.53L49.2278 19.42C49.3478 19.5267 49.4845 19.61 49.6378 19.67C49.7978 19.73 49.9545 19.76 50.1078 19.76C50.3211 19.76 50.4945 19.7067 50.6278 19.6C50.7611 19.5 50.8811 19.33 50.9878 19.09L51.0078 19.04L48.6778 13.62H50.2878L51.7978 17.27L53.3178 13.62H54.8178ZM63.5364 15.36C63.9364 15.4867 64.2497 15.7 64.4764 16C64.7031 16.2933 64.8164 16.6567 64.8164 17.09C64.8164 17.7033 64.5764 18.1767 64.0964 18.51C63.6231 18.8367 62.9297 19 62.0164 19H58.3964V12H61.8164C62.6697 12 63.3231 12.1633 63.7764 12.49C64.2364 12.8167 64.4664 13.26 64.4664 13.82C64.4664 14.16 64.3831 14.4633 64.2164 14.73C64.0564 14.9967 63.8297 15.2067 63.5364 15.36ZM60.0064 13.22V14.87H61.6164C62.0164 14.87 62.3197 14.8 62.5264 14.66C62.7331 14.52 62.8364 14.3133 62.8364 14.04C62.8364 13.7667 62.7331 13.5633 62.5264 13.43C62.3197 13.29 62.0164 13.22 61.6164 13.22H60.0064ZM61.8964 17.78C62.3231 17.78 62.6431 17.71 62.8564 17.57C63.0764 17.43 63.1864 17.2133 63.1864 16.92C63.1864 16.34 62.7564 16.05 61.8964 16.05H60.0064V17.78H61.8964ZM68.4929 19.08C67.9262 19.08 67.4162 18.9633 66.9629 18.73C66.5162 18.49 66.1662 18.16 65.9129 17.74C65.6596 17.32 65.5329 16.8433 65.5329 16.31C65.5329 15.7767 65.6596 15.3 65.9129 14.88C66.1662 14.46 66.5162 14.1333 66.9629 13.9C67.4162 13.66 67.9262 13.54 68.4929 13.54C69.0596 13.54 69.5662 13.66 70.0129 13.9C70.4596 14.1333 70.8096 14.46 71.0629 14.88C71.3162 15.3 71.4429 15.7767 71.4429 16.31C71.4429 16.8433 71.3162 17.32 71.0629 17.74C70.8096 18.16 70.4596 18.49 70.0129 18.73C69.5662 18.9633 69.0596 19.08 68.4929 19.08ZM68.4929 17.8C68.8929 17.8 69.2196 17.6667 69.4729 17.4C69.7329 17.1267 69.8629 16.7633 69.8629 16.31C69.8629 15.8567 69.7329 15.4967 69.4729 15.23C69.2196 14.9567 68.8929 14.82 68.4929 14.82C68.0929 14.82 67.7629 14.9567 67.5029 15.23C67.2429 15.4967 67.1129 15.8567 67.1129 16.31C67.1129 16.7633 67.2429 17.1267 67.5029 17.4C67.7629 17.6667 68.0929 17.8 68.4929 17.8ZM75.7556 13.54C76.4223 13.54 76.959 13.74 77.3656 14.14C77.779 14.54 77.9856 15.1333 77.9856 15.92V19H76.4256V16.16C76.4256 15.7333 76.3323 15.4167 76.1456 15.21C75.959 14.9967 75.689 14.89 75.3356 14.89C74.9423 14.89 74.629 15.0133 74.3956 15.26C74.1623 15.5 74.0456 15.86 74.0456 16.34V19H72.4856V13.62H73.9756V14.25C74.1823 14.0233 74.439 13.85 74.7456 13.73C75.0523 13.6033 75.389 13.54 75.7556 13.54ZM85.0083 13.62V18.1C85.0083 19.0867 84.7516 19.82 84.2383 20.3C83.7249 20.78 82.9749 21.02 81.9883 21.02C81.4683 21.02 80.9749 20.9567 80.5083 20.83C80.0416 20.7033 79.6549 20.52 79.3483 20.28L79.9683 19.16C80.1949 19.3467 80.4816 19.4933 80.8283 19.6C81.1749 19.7133 81.5216 19.77 81.8683 19.77C82.4083 19.77 82.8049 19.6467 83.0583 19.4C83.3183 19.16 83.4483 18.7933 83.4483 18.3V18.07C83.0416 18.5167 82.4749 18.74 81.7483 18.74C81.2549 18.74 80.8016 18.6333 80.3883 18.42C79.9816 18.2 79.6583 17.8933 79.4183 17.5C79.1783 17.1067 79.0583 16.6533 79.0583 16.14C79.0583 15.6267 79.1783 15.1733 79.4183 14.78C79.6583 14.3867 79.9816 14.0833 80.3883 13.87C80.8016 13.65 81.2549 13.54 81.7483 13.54C82.5283 13.54 83.1216 13.7967 83.5283 14.31V13.62H85.0083ZM82.0583 17.46C82.4716 17.46 82.8083 17.34 83.0683 17.1C83.3349 16.8533 83.4683 16.5333 83.4683 16.14C83.4683 15.7467 83.3349 15.43 83.0683 15.19C82.8083 14.9433 82.4716 14.82 82.0583 14.82C81.6449 14.82 81.3049 14.9433 81.0383 15.19C80.7716 15.43 80.6383 15.7467 80.6383 16.14C80.6383 16.5333 80.7716 16.8533 81.0383 17.1C81.3049 17.34 81.6449 17.46 82.0583 17.46ZM86.4602 13.62H88.0202V19H86.4602V13.62ZM87.2402 12.87C86.9536 12.87 86.7202 12.7867 86.5402 12.62C86.3602 12.4533 86.2702 12.2467 86.2702 12C86.2702 11.7533 86.3602 11.5467 86.5402 11.38C86.7202 11.2133 86.9536 11.13 87.2402 11.13C87.5269 11.13 87.7602 11.21 87.9402 11.37C88.1202 11.53 88.2102 11.73 88.2102 11.97C88.2102 12.23 88.1202 12.4467 87.9402 12.62C87.7602 12.7867 87.5269 12.87 87.2402 12.87ZM94.0301 13.3V15.15H97.2701V16.45H94.0301V19H92.4101V12H97.7001V13.3H94.0301ZM98.6868 11.58H100.247V19H98.6868V11.58ZM106.965 16.33C106.965 16.35 106.955 16.49 106.935 16.75H102.865C102.938 17.0833 103.111 17.3467 103.385 17.54C103.658 17.7333 103.998 17.83 104.405 17.83C104.685 17.83 104.931 17.79 105.145 17.71C105.365 17.6233 105.568 17.49 105.755 17.31L106.585 18.21C106.078 18.79 105.338 19.08 104.365 19.08C103.758 19.08 103.221 18.9633 102.755 18.73C102.288 18.49 101.928 18.16 101.675 17.74C101.421 17.32 101.295 16.8433 101.295 16.31C101.295 15.7833 101.418 15.31 101.665 14.89C101.918 14.4633 102.261 14.1333 102.695 13.9C103.135 13.66 103.625 13.54 104.165 13.54C104.691 13.54 105.168 13.6533 105.595 13.88C106.021 14.1067 106.355 14.4333 106.595 14.86C106.841 15.28 106.965 15.77 106.965 16.33ZM104.175 14.72C103.821 14.72 103.525 14.82 103.285 15.02C103.045 15.22 102.898 15.4933 102.845 15.84H105.495C105.441 15.5 105.295 15.23 105.055 15.03C104.815 14.8233 104.521 14.72 104.175 14.72ZM108.003 13.62H109.563V19H108.003V13.62ZM108.783 12.87C108.497 12.87 108.263 12.7867 108.083 12.62C107.903 12.4533 107.813 12.2467 107.813 12C107.813 11.7533 107.903 11.5467 108.083 11.38C108.263 11.2133 108.497 11.13 108.783 11.13C109.07 11.13 109.303 11.21 109.483 11.37C109.663 11.53 109.753 11.73 109.753 11.97C109.753 12.23 109.663 12.4467 109.483 12.62C109.303 12.7867 109.07 12.87 108.783 12.87ZM112.821 19.08C112.374 19.08 111.938 19.0267 111.511 18.92C111.084 18.8067 110.744 18.6667 110.491 18.5L111.011 17.38C111.251 17.5333 111.541 17.66 111.881 17.76C112.221 17.8533 112.554 17.9 112.881 17.9C113.541 17.9 113.871 17.7367 113.871 17.41C113.871 17.2567 113.781 17.1467 113.601 17.08C113.421 17.0133 113.144 16.9567 112.771 16.91C112.331 16.8433 111.968 16.7667 111.681 16.68C111.394 16.5933 111.144 16.44 110.931 16.22C110.724 16 110.621 15.6867 110.621 15.28C110.621 14.94 110.718 14.64 110.911 14.38C111.111 14.1133 111.398 13.9067 111.771 13.76C112.151 13.6133 112.598 13.54 113.111 13.54C113.491 13.54 113.868 13.5833 114.241 13.67C114.621 13.75 114.934 13.8633 115.181 14.01L114.661 15.12C114.188 14.8533 113.671 14.72 113.111 14.72C112.778 14.72 112.528 14.7667 112.361 14.86C112.194 14.9533 112.111 15.0733 112.111 15.22C112.111 15.3867 112.201 15.5033 112.381 15.57C112.561 15.6367 112.848 15.7 113.241 15.76C113.681 15.8333 114.041 15.9133 114.321 16C114.601 16.08 114.844 16.23 115.051 16.45C115.258 16.67 115.361 16.9767 115.361 17.37C115.361 17.7033 115.261 18 115.061 18.26C114.861 18.52 114.568 18.7233 114.181 18.87C113.801 19.01 113.348 19.08 112.821 19.08ZM118.924 19.08C118.35 19.08 117.834 18.9633 117.374 18.73C116.92 18.49 116.564 18.16 116.304 17.74C116.05 17.32 115.924 16.8433 115.924 16.31C115.924 15.7767 116.05 15.3 116.304 14.88C116.564 14.46 116.92 14.1333 117.374 13.9C117.834 13.66 118.35 13.54 118.924 13.54C119.49 13.54 119.984 13.66 120.404 13.9C120.83 14.1333 121.14 14.47 121.334 14.91L120.124 15.56C119.844 15.0667 119.44 14.82 118.914 14.82C118.507 14.82 118.17 14.9533 117.904 15.22C117.637 15.4867 117.504 15.85 117.504 16.31C117.504 16.77 117.637 17.1333 117.904 17.4C118.17 17.6667 118.507 17.8 118.914 17.8C119.447 17.8 119.85 17.5533 120.124 17.06L121.334 17.72C121.14 18.1467 120.83 18.48 120.404 18.72C119.984 18.96 119.49 19.08 118.924 19.08ZM125.463 13.54C126.129 13.54 126.666 13.74 127.073 14.14C127.486 14.54 127.693 15.1333 127.693 15.92V19H126.133V16.16C126.133 15.7333 126.039 15.4167 125.853 15.21C125.666 14.9967 125.396 14.89 125.043 14.89C124.649 14.89 124.336 15.0133 124.103 15.26C123.869 15.5 123.753 15.86 123.753 16.34V19H122.193V11.58H123.753V14.18C123.959 13.9733 124.209 13.8167 124.503 13.71C124.796 13.5967 125.116 13.54 125.463 13.54ZM134.435 16.33C134.435 16.35 134.425 16.49 134.405 16.75H130.335C130.409 17.0833 130.582 17.3467 130.855 17.54C131.129 17.7333 131.469 17.83 131.875 17.83C132.155 17.83 132.402 17.79 132.615 17.71C132.835 17.6233 133.039 17.49 133.225 17.31L134.055 18.21C133.549 18.79 132.809 19.08 131.835 19.08C131.229 19.08 130.692 18.9633 130.225 18.73C129.759 18.49 129.399 18.16 129.145 17.74C128.892 17.32 128.765 16.8433 128.765 16.31C128.765 15.7833 128.889 15.31 129.135 14.89C129.389 14.4633 129.732 14.1333 130.165 13.9C130.605 13.66 131.095 13.54 131.635 13.54C132.162 13.54 132.639 13.6533 133.065 13.88C133.492 14.1067 133.825 14.4333 134.065 14.86C134.312 15.28 134.435 15.77 134.435 16.33ZM131.645 14.72C131.292 14.72 130.995 14.82 130.755 15.02C130.515 15.22 130.369 15.4933 130.315 15.84H132.965C132.912 15.5 132.765 15.23 132.525 15.03C132.285 14.8233 131.992 14.72 131.645 14.72ZM136.964 14.33C137.151 14.07 137.401 13.8733 137.714 13.74C138.034 13.6067 138.401 13.54 138.814 13.54V14.98C138.641 14.9667 138.524 14.96 138.464 14.96C138.017 14.96 137.667 15.0867 137.414 15.34C137.161 15.5867 137.034 15.96 137.034 16.46V19H135.474V13.62H136.964V14.33ZM143.711 13.681C143.795 13.729 143.861 13.798 143.909 13.888C143.963 13.972 143.99 14.068 143.99 14.176C143.99 14.362 143.927 14.518 143.801 14.644C143.681 14.77 143.534 14.833 143.36 14.833C143.198 14.833 143.06 14.779 142.946 14.671C142.838 14.563 142.784 14.425 142.784 14.257C142.784 14.167 142.799 14.083 142.829 14.005C142.859 13.921 142.913 13.81 142.991 13.672L143.747 12.322H144.314L143.711 13.681ZM145.412 13.681C145.496 13.729 145.562 13.798 145.61 13.888C145.664 13.972 145.691 14.068 145.691 14.176C145.691 14.362 145.628 14.518 145.502 14.644C145.382 14.77 145.235 14.833 145.061 14.833C144.899 14.833 144.761 14.779 144.647 14.671C144.539 14.563 144.485 14.425 144.485 14.257C144.485 14.167 144.5 14.083 144.53 14.005C144.56 13.921 144.614 13.81 144.692 13.672L145.448 12.322H146.015L145.412 13.681ZM149.318 15.787L151.082 19H150.119L148.724 16.426L146.357 19H145.277L148.337 15.724L146.681 12.7H147.626L148.931 15.103L151.172 12.7H152.198L149.318 15.787ZM153.545 12.268C153.707 12.268 153.842 12.322 153.95 12.43C154.058 12.538 154.112 12.676 154.112 12.844C154.112 12.94 154.097 13.03 154.067 13.114C154.037 13.192 153.986 13.297 153.914 13.429L153.158 14.779H152.591L153.194 13.429C153.104 13.381 153.032 13.312 152.978 13.222C152.93 13.126 152.906 13.024 152.906 12.916C152.906 12.73 152.969 12.577 153.095 12.457C153.221 12.331 153.371 12.268 153.545 12.268ZM155.246 12.268C155.408 12.268 155.543 12.322 155.651 12.43C155.759 12.538 155.813 12.676 155.813 12.844C155.813 12.94 155.798 13.03 155.768 13.114C155.738 13.192 155.687 13.297 155.615 13.429L154.859 14.779H154.292L154.895 13.429C154.805 13.381 154.733 13.312 154.679 13.222C154.631 13.126 154.607 13.024 154.607 12.916C154.607 12.73 154.67 12.577 154.796 12.457C154.922 12.331 155.072 12.268 155.246 12.268Z" fill="white"/>
</svg>
