<svg width="222" height="29" viewBox="0 0 222 29" fill="none" xmlns="http://www.w3.org/2000/svg">
<path d="M0.324 3.4H4.86V23H0.324V3.4ZM17.7995 7.712C19.6662 7.712 21.1688 8.272 22.3075 9.392C23.4648 10.512 24.0435 12.1733 24.0435 14.376V23H19.6755V15.048C19.6755 13.8533 19.4142 12.9667 18.8915 12.388C18.3688 11.7907 17.6128 11.492 16.6235 11.492C15.5222 11.492 14.6448 11.8373 13.9915 12.528C13.3382 13.2 13.0115 14.208 13.0115 15.552V23H8.6435V7.936H12.8155V9.7C13.3942 9.06533 14.1128 8.58 14.9715 8.244C15.8302 7.88933 16.7728 7.712 17.7995 7.712ZM42.1214 7.936L35.7654 23H31.2574L24.9294 7.936H29.4374L33.6094 18.184L37.9214 7.936H42.1214ZM57.6897 15.524C57.6897 15.58 57.6617 15.972 57.6057 16.7H46.2097C46.415 17.6333 46.9003 18.3707 47.6657 18.912C48.431 19.4533 49.383 19.724 50.5217 19.724C51.3057 19.724 51.9963 19.612 52.5937 19.388C53.2097 19.1453 53.779 18.772 54.3017 18.268L56.6257 20.788C55.207 22.412 53.135 23.224 50.4097 23.224C48.711 23.224 47.2083 22.8973 45.9017 22.244C44.595 21.572 43.587 20.648 42.8777 19.472C42.1683 18.296 41.8137 16.9613 41.8137 15.468C41.8137 13.9933 42.159 12.668 42.8497 11.492C43.559 10.2973 44.5203 9.37333 45.7337 8.72C46.9657 8.048 48.3377 7.712 49.8497 7.712C51.3243 7.712 52.659 8.02933 53.8537 8.664C55.0483 9.29867 55.9817 10.2133 56.6537 11.408C57.3443 12.584 57.6897 13.956 57.6897 15.524ZM49.8777 11.016C48.8883 11.016 48.0577 11.296 47.3857 11.856C46.7137 12.416 46.303 13.1813 46.1537 14.152H53.5737C53.4243 13.2 53.0137 12.444 52.3417 11.884C51.6697 11.3053 50.8483 11.016 49.8777 11.016ZM69.1937 7.712C71.0604 7.712 72.5631 8.272 73.7017 9.392C74.8591 10.512 75.4377 12.1733 75.4377 14.376V23H71.0697V15.048C71.0697 13.8533 70.8084 12.9667 70.2857 12.388C69.7631 11.7907 69.0071 11.492 68.0177 11.492C66.9164 11.492 66.0391 11.8373 65.3857 12.528C64.7324 13.2 64.4057 14.208 64.4057 15.552V23H60.0377V7.936H64.2097V9.7C64.7884 9.06533 65.5071 8.58 66.3657 8.244C67.2244 7.88933 68.1671 7.712 69.1937 7.712ZM88.5531 22.272C88.1238 22.5893 87.5918 22.832 86.9571 23C86.3411 23.1493 85.6878 23.224 84.9971 23.224C83.2051 23.224 81.8144 22.7667 80.8251 21.852C79.8544 20.9373 79.3691 19.5933 79.3691 17.82V11.632H77.0451V8.272H79.3691V4.604H83.7371V8.272H87.4891V11.632H83.7371V17.764C83.7371 18.3987 83.8958 18.8933 84.2131 19.248C84.5491 19.584 85.0158 19.752 85.6131 19.752C86.3038 19.752 86.8918 19.5653 87.3771 19.192L88.5531 22.272ZM90.4451 7.936H94.8131V23H90.4451V7.936ZM92.6291 5.836C91.8264 5.836 91.1731 5.60267 90.6691 5.136C90.1651 4.66933 89.9131 4.09067 89.9131 3.4C89.9131 2.70933 90.1651 2.13067 90.6691 1.664C91.1731 1.19733 91.8264 0.963998 92.6291 0.963998C93.4317 0.963998 94.0851 1.188 94.5891 1.636C95.0931 2.084 95.3451 2.644 95.3451 3.316C95.3451 4.044 95.0931 4.65067 94.5891 5.136C94.0851 5.60267 93.4317 5.836 92.6291 5.836ZM105.475 23.224C103.888 23.224 102.46 22.8973 101.191 22.244C99.9403 21.572 98.9603 20.648 98.2509 19.472C97.5416 18.296 97.1869 16.9613 97.1869 15.468C97.1869 13.9747 97.5416 12.64 98.2509 11.464C98.9603 10.288 99.9403 9.37333 101.191 8.72C102.46 8.048 103.888 7.712 105.475 7.712C107.062 7.712 108.48 8.048 109.731 8.72C110.982 9.37333 111.962 10.288 112.671 11.464C113.38 12.64 113.735 13.9747 113.735 15.468C113.735 16.9613 113.38 18.296 112.671 19.472C111.962 20.648 110.982 21.572 109.731 22.244C108.48 22.8973 107.062 23.224 105.475 23.224ZM105.475 19.64C106.595 19.64 107.51 19.2667 108.219 18.52C108.947 17.7547 109.311 16.7373 109.311 15.468C109.311 14.1987 108.947 13.1907 108.219 12.444C107.51 11.6787 106.595 11.296 105.475 11.296C104.355 11.296 103.431 11.6787 102.703 12.444C101.975 13.1907 101.611 14.1987 101.611 15.468C101.611 16.7373 101.975 17.7547 102.703 18.52C103.431 19.2667 104.355 19.64 105.475 19.64ZM125.251 7.712C127.117 7.712 128.62 8.272 129.759 9.392C130.916 10.512 131.495 12.1733 131.495 14.376V23H127.127V15.048C127.127 13.8533 126.865 12.9667 126.343 12.388C125.82 11.7907 125.064 11.492 124.075 11.492C122.973 11.492 122.096 11.8373 121.443 12.528C120.789 13.2 120.463 14.208 120.463 15.552V23H116.095V7.936H120.267V9.7C120.845 9.06533 121.564 8.58 122.423 8.244C123.281 7.88933 124.224 7.712 125.251 7.712ZM151.952 23.336C149.954 23.336 148.144 22.9067 146.52 22.048C144.914 21.1707 143.645 19.9667 142.712 18.436C141.797 16.8867 141.34 15.1413 141.34 13.2C141.34 11.2587 141.797 9.52267 142.712 7.992C143.645 6.44267 144.914 5.23867 146.52 4.38C148.144 3.50267 149.964 3.064 151.98 3.064C153.678 3.064 155.209 3.36267 156.572 3.96C157.953 4.55733 159.11 5.416 160.044 6.536L157.132 9.224C155.806 7.69333 154.164 6.928 152.204 6.928C150.99 6.928 149.908 7.19867 148.956 7.74C148.004 8.26267 147.257 9 146.716 9.952C146.193 10.904 145.932 11.9867 145.932 13.2C145.932 14.4133 146.193 15.496 146.716 16.448C147.257 17.4 148.004 18.1467 148.956 18.688C149.908 19.2107 150.99 19.472 152.204 19.472C154.164 19.472 155.806 18.6973 157.132 17.148L160.044 19.836C159.11 20.9747 157.953 21.8427 156.572 22.44C155.19 23.0373 153.65 23.336 151.952 23.336ZM168.887 23.224C167.301 23.224 165.873 22.8973 164.603 22.244C163.353 21.572 162.373 20.648 161.663 19.472C160.954 18.296 160.599 16.9613 160.599 15.468C160.599 13.9747 160.954 12.64 161.663 11.464C162.373 10.288 163.353 9.37333 164.603 8.72C165.873 8.048 167.301 7.712 168.887 7.712C170.474 7.712 171.893 8.048 173.143 8.72C174.394 9.37333 175.374 10.288 176.083 11.464C176.793 12.64 177.147 13.9747 177.147 15.468C177.147 16.9613 176.793 18.296 176.083 19.472C175.374 20.648 174.394 21.572 173.143 22.244C171.893 22.8973 170.474 23.224 168.887 23.224ZM168.887 19.64C170.007 19.64 170.922 19.2667 171.631 18.52C172.359 17.7547 172.723 16.7373 172.723 15.468C172.723 14.1987 172.359 13.1907 171.631 12.444C170.922 11.6787 170.007 11.296 168.887 11.296C167.767 11.296 166.843 11.6787 166.115 12.444C165.387 13.1907 165.023 14.1987 165.023 15.468C165.023 16.7373 165.387 17.7547 166.115 18.52C166.843 19.2667 167.767 19.64 168.887 19.64ZM183.679 9.924C184.202 9.196 184.902 8.64533 185.779 8.272C186.675 7.89867 187.702 7.712 188.859 7.712V11.744C188.374 11.7067 188.047 11.688 187.879 11.688C186.628 11.688 185.648 12.0427 184.939 12.752C184.23 13.4427 183.875 14.488 183.875 15.888V23H179.507V7.936H183.679V9.924ZM199.8 7.712C201.2 7.712 202.469 8.03867 203.608 8.692C204.765 9.32667 205.671 10.232 206.324 11.408C206.977 12.5653 207.304 13.9187 207.304 15.468C207.304 17.0173 206.977 18.38 206.324 19.556C205.671 20.7133 204.765 21.6187 203.608 22.272C202.469 22.9067 201.2 23.224 199.8 23.224C197.877 23.224 196.365 22.6173 195.264 21.404V28.432H190.896V7.936H195.068V9.672C196.151 8.36533 197.728 7.712 199.8 7.712ZM199.044 19.64C200.164 19.64 201.079 19.2667 201.788 18.52C202.516 17.7547 202.88 16.7373 202.88 15.468C202.88 14.1987 202.516 13.1907 201.788 12.444C201.079 11.6787 200.164 11.296 199.044 11.296C197.924 11.296 197 11.6787 196.272 12.444C195.563 13.1907 195.208 14.1987 195.208 15.468C195.208 16.7373 195.563 17.7547 196.272 18.52C197 19.2667 197.924 19.64 199.044 19.64ZM214.736 23.224C213.486 23.224 212.263 23.0747 211.068 22.776C209.874 22.4587 208.922 22.0667 208.212 21.6L209.668 18.464C210.34 18.8933 211.152 19.248 212.104 19.528C213.056 19.7893 213.99 19.92 214.904 19.92C216.752 19.92 217.676 19.4627 217.676 18.548C217.676 18.1187 217.424 17.8107 216.92 17.624C216.416 17.4373 215.642 17.2787 214.596 17.148C213.364 16.9613 212.347 16.7467 211.544 16.504C210.742 16.2613 210.042 15.832 209.444 15.216C208.866 14.6 208.576 13.7227 208.576 12.584C208.576 11.632 208.847 10.792 209.388 10.064C209.948 9.31733 210.751 8.73867 211.796 8.328C212.86 7.91733 214.111 7.712 215.548 7.712C216.612 7.712 217.667 7.83333 218.712 8.076C219.776 8.3 220.654 8.61733 221.344 9.028L219.888 12.136C218.563 11.3893 217.116 11.016 215.548 11.016C214.615 11.016 213.915 11.1467 213.448 11.408C212.982 11.6693 212.748 12.0053 212.748 12.416C212.748 12.8827 213 13.2093 213.504 13.396C214.008 13.5827 214.811 13.76 215.912 13.928C217.144 14.1333 218.152 14.3573 218.936 14.6C219.72 14.824 220.402 15.244 220.98 15.86C221.559 16.476 221.848 17.3347 221.848 18.436C221.848 19.3693 221.568 20.2 221.008 20.928C220.448 21.656 219.627 22.2253 218.544 22.636C217.48 23.028 216.211 23.224 214.736 23.224Z" fill="#343434"/>
</svg>
