<?xml version="1.0" encoding="utf-8"?>
<!-- Generator: Adobe Illustrator 23.0.2, SVG Export Plug-In . SVG Version: 6.00 Build 0)  -->
<svg version="1.1" id="Layer_1" xmlns="http://www.w3.org/2000/svg" xmlns:xlink="http://www.w3.org/1999/xlink" x="0px" y="0px"
	 viewBox="0 0 432 432" style="enable-background:new 0 0 432 432;" xml:space="preserve">
<style type="text/css">
	.st0{fill:#FF5450;stroke:#FF5450;stroke-miterlimit:10;}
	.st1{fill:#FFFFFF;}
	.st2{fill:#FFD86C;stroke:#FFD86C;stroke-width:1.015;stroke-miterlimit:10;}
	.st3{fill:#63C996;stroke:#63C996;stroke-width:0.5;stroke-miterlimit:10;}
	.st4{fill:#48A5E5;stroke:#48A5E5;stroke-miterlimit:10;}
</style>
<circle cx="215.5" cy="216.44" r="163.07"/>
<path class="st0" d="M309.02,128.51c-1.4,0-2.77,0.09-4.12,0.26c0.03,0,0.34-0.01,0.38-0.01c-42.9,0.04-61.45-35.79-61.45-35.79l0,0
	c-5.07-11.53-16.59-19.59-30-19.59c-18.09,0-32.76,14.67-32.76,32.76c0,18.09,14.67,32.76,32.76,32.76
	c47.48-0.89,65.38,35.97,65.38,35.97s-0.05-0.13-0.14-0.36c5.09,11.49,16.58,19.51,29.95,19.51c18.09,0,32.76-14.67,32.76-32.76
	S327.11,128.51,309.02,128.51z"/>
<path class="st1" d="M309.57,239.23c-1.4,0-2.77,0.09-4.12,0.26c0.03,0,0.06-0.01,0.09-0.01c-42.9,0.04-61.16-35.79-61.16-35.79l0,0
	c-5.07-11.53-16.59-19.59-30-19.59c-18.09,0-32.76,14.67-32.76,32.76c0,18.09,14.67,32.76,32.76,32.76
	c47.48-0.89,65.38,35.97,65.38,35.97s-0.05-0.13-0.14-0.36c5.09,11.49,16.58,19.51,29.95,19.51c18.09,0,32.76-14.67,32.76-32.76
	S327.66,239.23,309.57,239.23z"/>
<path class="st2" d="M157.71,161.87c9.73-10.52,27.55-23.51,55.96-22.97c18.09,0,32.76-14.67,32.76-32.76
	c0-18.09-14.67-32.76-32.76-32.76c-13.41,0-24.92,8.06-30,19.59l0,0c0,0-18.27,35.83-61.16,35.79c0.03,0,0.06,0.01,0.09,0.01
	c-1.35-0.17-2.73-0.26-4.12-0.26c-18.09,0-32.76,14.67-32.76,32.76s14.67,32.76,32.76,32.76c8.98,0,17.11-3.62,23.03-9.48
	C145.48,176.01,151,168.33,157.71,161.87z"/>
<path class="st3" d="M138.97,240.06c-5.19-14.06-4.81-27.14-2.71-37.45c2-11.21,6.46-21.56,12.81-30.49
	c3.15-8.76,2.58-18.79-2.44-27.49c-9.05-15.67-29.08-21.04-44.75-11.99c-15.67,9.05-21.04,29.08-11.99,44.75
	C114.4,218.06,91.42,252,91.42,252s0.08-0.11,0.24-0.3c-7.41,10.15-8.61,24.11-1.92,35.7c9.05,15.67,29.08,21.04,44.75,11.99
	c14.1-8.14,19.85-25.17,14.28-39.91C144.62,253.56,141.3,247.04,138.97,240.06z"/>
<path class="st4" d="M212.41,293.98c-1.4,0-2.77,0.09-4.12,0.26c0.03,0,0.06-0.01,0.09-0.01c-42.9,0.04-61.16-35.79-61.16-35.79l0,0
	c-5.07-11.53-16.59-19.59-30-19.59c-18.09,0-32.76,14.67-32.76,32.76s14.67,32.76,32.76,32.76c50.54-0.95,64.24,33.62,65.38,35.97
	c0,0-0.05-0.13-0.14-0.36c5.09,11.49,16.58,19.51,29.95,19.51c18.09,0,32.76-14.67,32.76-32.76
	C245.17,308.65,230.5,293.98,212.41,293.98z"/>
</svg>
