<svg width="38" height="39" viewBox="0 0 38 39" fill="none" xmlns="http://www.w3.org/2000/svg">
<path d="M37.5 19.6465C37.5 29.8638 29.2173 38.1465 19 38.1465C8.78273 38.1465 0.5 29.8638 0.5 19.6465C0.5 9.42922 8.78273 1.14648 19 1.14648C29.2173 1.14648 37.5 9.42922 37.5 19.6465Z" stroke="#202020"/>
<path d="M14.5743 23.32L13.7129 22.812L13.7089 22.819L14.5743 23.32ZM15.8543 21.9L16.4696 22.6883L16.4716 22.6867L15.8543 21.9ZM19.7543 18.84L19.1476 18.045L19.137 18.0533L19.7543 18.84ZM20.7943 17.66L19.8941 17.2244L19.8881 17.2371L20.7943 17.66ZM20.6143 15.1L19.855 15.7508L19.8609 15.7576L19.8669 15.7644L20.6143 15.1ZM17.8743 14.9L18.4366 15.727L18.4435 15.7222L17.8743 14.9ZM17.1343 15.72L18.0287 16.1672L18.0287 16.1672L17.1343 15.72ZM16.9143 17.1V18.1H18.0316L17.9082 16.9896L16.9143 17.1ZM14.1743 17.1L13.182 17.224L13.2915 18.1H14.1743V17.1ZM14.6343 14.6L15.5423 15.0191L15.5453 15.0125L14.6343 14.6ZM16.2743 12.82L16.8017 13.6697L16.8121 13.6631L16.2743 12.82ZM22.0743 12.68L21.5673 13.542L21.5746 13.5462L22.0743 12.68ZM23.6343 14.26L22.7509 14.7287L22.755 14.7363L23.6343 14.26ZM23.6943 18.42L22.7998 17.9728L22.7959 17.9808L23.6943 18.42ZM22.1543 20.24L21.5127 19.4729L21.5105 19.4748L22.1543 20.24ZM19.1143 22.64L18.5129 21.8411L18.5011 21.8499L18.4896 21.8591L19.1143 22.64ZM18.6143 23.08L17.932 22.3489L17.932 22.3489L18.6143 23.08ZM18.3143 23.44H17.3143V24.44H18.3143V23.44ZM24.1943 23.44H25.1943V22.44H24.1943V23.44ZM24.1943 26V27H25.1943V26H24.1943ZM14.1343 26H13.1343V27H14.1343V26ZM15.1343 25.4C15.1343 24.614 15.2681 24.1175 15.4397 23.821L13.7089 22.819C13.2938 23.5358 13.1343 24.426 13.1343 25.4H15.1343ZM15.4357 23.828C15.6699 23.4309 16.0073 23.0492 16.4696 22.6883L15.239 21.1117C14.608 21.6042 14.0921 22.1691 13.7129 22.812L15.4357 23.828ZM16.4716 22.6867L20.3716 19.6267L19.137 18.0533L15.237 21.1133L16.4716 22.6867ZM20.361 19.635C20.9429 19.1908 21.4219 18.6798 21.7005 18.0829L19.8881 17.2371C19.7933 17.4402 19.579 17.7158 19.1476 18.045L20.361 19.635ZM21.6945 18.0956C21.9572 17.5525 22.0943 16.9775 22.0943 16.38H20.0943C20.0943 16.6625 20.0314 16.9408 19.8941 17.2244L21.6945 18.0956ZM22.0943 16.38C22.0943 15.6483 21.8487 14.9835 21.3617 14.4356L19.8669 15.7644C20.0199 15.9365 20.0943 16.1251 20.0943 16.38H22.0943ZM21.3736 14.4492C20.8099 13.7916 20.0122 13.54 19.1743 13.54V15.54C19.6164 15.54 19.7787 15.6617 19.855 15.7508L21.3736 14.4492ZM19.1743 13.54C18.4988 13.54 17.8545 13.6975 17.3051 14.0778L18.4435 15.7222C18.5874 15.6225 18.8098 15.54 19.1743 15.54V13.54ZM17.312 14.0731C16.8555 14.3835 16.4856 14.7813 16.2399 15.2728L18.0287 16.1672C18.103 16.0187 18.2264 15.8699 18.4366 15.7269L17.312 14.0731ZM16.2399 15.2728C16.0417 15.6691 15.8943 16.1074 15.8943 16.56H17.8943C17.8943 16.5326 17.9069 16.4109 18.0287 16.1672L16.2399 15.2728ZM15.8943 16.56C15.8943 16.8084 15.9008 17.0335 15.9204 17.2104L17.9082 16.9896C17.9012 16.9265 17.8943 16.7916 17.8943 16.56H15.8943ZM16.9143 16.1H14.1743V18.1H16.9143V16.1ZM15.1666 16.976C15.1599 16.9222 15.1543 16.839 15.1543 16.72H13.1543C13.1543 16.8943 13.1621 17.0645 13.182 17.224L15.1666 16.976ZM15.1543 16.72C15.1543 16.1534 15.2792 15.5891 15.5423 15.0191L13.7263 14.1809C13.3495 14.9975 13.1543 15.8466 13.1543 16.72H15.1543ZM15.5453 15.0125C15.7701 14.5159 16.1668 14.0637 16.8017 13.6696L15.7469 11.9704C14.8351 12.5363 14.1385 13.2708 13.7233 14.1875L15.5453 15.0125ZM16.8121 13.6631C17.376 13.3033 18.184 13.08 19.3143 13.08V11.08C17.9379 11.08 16.7192 11.35 15.7365 11.9769L16.8121 13.6631ZM19.3143 13.08H19.6143V11.08H19.3143V13.08ZM19.6143 13.08C20.4346 13.08 21.0711 13.2501 21.5673 13.5419L22.5813 11.8181C21.7175 11.3099 20.714 11.08 19.6143 11.08V13.08ZM21.5746 13.5462C22.1192 13.8604 22.4995 14.2549 22.751 14.7287L24.5177 13.7913C24.0757 12.9584 23.4161 12.2996 22.574 11.8138L21.5746 13.5462ZM22.755 14.7363C23.0218 15.2289 23.1543 15.7517 23.1543 16.32H25.1543C25.1543 15.4216 24.9401 14.5711 24.5136 13.7837L22.755 14.7363ZM23.1543 16.32C23.1543 16.9743 23.0275 17.5175 22.7999 17.9728L24.5887 18.8672C24.9744 18.0959 25.1543 17.239 25.1543 16.32H23.1543ZM22.7959 17.9808C22.5848 18.4126 22.1814 18.9137 21.5127 19.4729L22.7959 21.0071C23.5939 20.3396 24.2171 19.6274 24.5927 18.8592L22.7959 17.9808ZM21.5105 19.4748C20.6882 20.1666 19.6898 20.9551 18.5129 21.8411L19.7157 23.4389C20.9122 22.5382 21.9404 21.7267 22.7981 21.0052L21.5105 19.4748ZM18.4896 21.8591C18.3283 21.9882 18.141 22.1539 17.932 22.3489L19.2966 23.8111C19.4877 23.6328 19.6336 23.5052 19.739 23.4209L18.4896 21.8591ZM17.932 22.3489C17.8205 22.453 17.7104 22.5626 17.6211 22.6698C17.5774 22.7223 17.5192 22.7971 17.4669 22.8878C17.4313 22.9494 17.3143 23.1561 17.3143 23.44H19.3143C19.3143 23.5833 19.2821 23.6933 19.2607 23.7532C19.2381 23.8167 19.2135 23.8626 19.1992 23.8872C19.1719 23.9345 19.1512 23.9577 19.1575 23.9502C19.1682 23.9374 19.2081 23.8936 19.2966 23.8111L17.932 22.3489ZM18.3143 24.44H24.1943V22.44H18.3143V24.44ZM23.1943 23.44V26H25.1943V23.44H23.1943ZM24.1943 25H14.1343V27H24.1943V25ZM15.1343 26V25.4H13.1343V26H15.1343Z" fill="#202020"/>
</svg>
