<svg width="38" height="39" viewBox="0 0 38 39" fill="none" xmlns="http://www.w3.org/2000/svg">
<path d="M14.5743 23.58V22.58H13.5743V23.58H14.5743ZM17.8943 23.58V24.58H18.8943V23.58H17.8943ZM17.8943 15.72H18.8943V14.72H17.8943V15.72ZM14.5543 15.72H13.5543V16.72H14.5543V15.72ZM14.5543 13.94L14.4831 12.9425L13.5543 13.0089V13.94H14.5543ZM17.0943 13.38L17.4146 14.3274L17.4264 14.3232L17.0943 13.38ZM19.7743 12.18V11.18H19.5152L19.2887 11.3058L19.7743 12.18ZM20.8343 12.18H21.8343V11.18H20.8343V12.18ZM20.8343 23.58H19.8343V24.58H20.8343V23.58ZM24.0943 23.58H25.0943V22.58H24.0943V23.58ZM24.0943 26V27H25.0943V26H24.0943ZM14.5743 26H13.5743V27H14.5743V26ZM14.5743 24.58H17.8943V22.58H14.5743V24.58ZM18.8943 23.58V15.72H16.8943V23.58H18.8943ZM17.8943 14.72H14.5543V16.72H17.8943V14.72ZM15.5543 15.72V13.94H13.5543V15.72H15.5543ZM14.6255 14.9375C15.4799 14.8764 16.4124 14.6661 17.4145 14.3273L16.7741 12.4327C15.8829 12.7339 15.1221 12.8969 14.4831 12.9425L14.6255 14.9375ZM17.4264 14.3232C18.4238 13.9721 19.3687 13.5493 20.2599 13.0542L19.2887 11.3058C18.4999 11.744 17.6582 12.1213 16.7622 12.4368L17.4264 14.3232ZM19.7743 13.18H20.8343V11.18H19.7743V13.18ZM19.8343 12.18V23.58H21.8343V12.18H19.8343ZM20.8343 24.58H24.0943V22.58H20.8343V24.58ZM23.0943 23.58V26H25.0943V23.58H23.0943ZM24.0943 25H14.5743V27H24.0943V25ZM15.5743 26V23.58H13.5743V26H15.5743Z" fill="#202020"/>
<path d="M37.5 19.6465C37.5 29.8638 29.2173 38.1465 19 38.1465C8.78273 38.1465 0.5 29.8638 0.5 19.6465C0.5 9.42922 8.78273 1.14648 19 1.14648C29.2173 1.14648 37.5 9.42922 37.5 19.6465Z" stroke="#202020"/>
</svg>
