<svg width="38" height="39" viewBox="0 0 38 39" fill="none" xmlns="http://www.w3.org/2000/svg">
<path d="M37.5 19.6465C37.5 29.8638 29.2173 38.1465 19 38.1465C8.78273 38.1465 0.5 29.8638 0.5 19.6465C0.5 9.42922 8.78273 1.14648 19 1.14648C29.2173 1.14648 37.5 9.42922 37.5 19.6465Z" stroke="#202020"/>
<path d="M18.6743 17.44L17.8423 16.8853L17.6743 17.1372V17.44H18.6743ZM19.5743 15.68L18.6533 15.2904L18.6501 15.2979L18.6471 15.3055L19.5743 15.68ZM20.2543 13.76V12.76H19.4905L19.2895 13.4969L20.2543 13.76ZM21.5343 13.76H22.5343V12.76H21.5343V13.76ZM21.5343 20.44H20.5343V21.44H21.5343V20.44ZM23.3743 20.44H24.3743V19.44H23.3743V20.44ZM23.3743 22.8V23.8H24.3743V22.8H23.3743ZM21.5343 22.8V21.8H20.5343V22.8H21.5343ZM21.5343 26V27H22.5343V26H21.5343ZM18.6743 26H17.6743V27H18.6743V26ZM18.6743 22.8H19.6743V21.8H18.6743V22.8ZM12.6343 22.8H11.6343V23.8H12.6343V22.8ZM12.6343 20.42L11.7881 19.8872L11.6343 20.1314V20.42H12.6343ZM14.7143 16.4L13.8011 15.9925L13.7996 15.996L14.7143 16.4ZM16.3343 12.08V11.08H15.5789L15.3724 11.8066L16.3343 12.08ZM19.1543 12.08L20.1308 12.2954L20.3989 11.08H19.1543V12.08ZM18.0743 15.12L18.9794 15.5453L18.9813 15.5411L18.0743 15.12ZM16.3943 18.24L15.543 17.7152L15.5378 17.7238L16.3943 18.24ZM14.8743 20.44L14.1179 19.7858L12.6873 21.44H14.8743V20.44ZM18.6743 20.44V21.44H19.6743V20.44H18.6743ZM19.5064 17.9947C19.8733 17.4442 20.2031 16.7935 20.5015 16.0545L18.6471 15.3055C18.3855 15.9532 18.1153 16.4758 17.8423 16.8853L19.5064 17.9947ZM20.4953 16.0696C20.8021 15.3444 21.0449 14.6616 21.2191 14.0231L19.2895 13.4969C19.1437 14.0317 18.9332 14.6289 18.6533 15.2904L20.4953 16.0696ZM20.2543 14.76H21.5343V12.76H20.2543V14.76ZM20.5343 13.76V20.44H22.5343V13.76H20.5343ZM21.5343 21.44H23.3743V19.44H21.5343V21.44ZM22.3743 20.44V22.8H24.3743V20.44H22.3743ZM23.3743 21.8H21.5343V23.8H23.3743V21.8ZM20.5343 22.8V26H22.5343V22.8H20.5343ZM21.5343 25H18.6743V27H21.5343V25ZM19.6743 26V22.8H17.6743V26H19.6743ZM18.6743 21.8H12.6343V23.8H18.6743V21.8ZM13.6343 22.8V20.42H11.6343V22.8H13.6343ZM13.4805 20.9528C14.194 19.8197 14.9094 18.4335 15.6291 16.804L13.7996 15.996C13.1059 17.5665 12.4346 18.8603 11.7881 19.8872L13.4805 20.9528ZM15.6275 16.8075C16.3608 15.1644 16.9196 13.6783 17.2962 12.3534L15.3724 11.8066C15.029 13.015 14.5078 14.409 13.8011 15.9925L15.6275 16.8075ZM16.3343 13.08H19.1543V11.08H16.3343V13.08ZM18.1778 11.8646C17.9976 12.6815 17.6661 13.6246 17.1673 14.6989L18.9813 15.5411C19.5225 14.3754 19.911 13.2918 20.1308 12.2954L18.1778 11.8646ZM17.1692 14.6947C16.6642 15.7696 16.1219 16.7762 15.543 17.7153L17.2456 18.7647C17.8667 17.7572 18.4444 16.6838 18.9794 15.5453L17.1692 14.6947ZM15.5378 17.7238C14.9624 18.6785 14.4899 19.3558 14.1179 19.7858L15.6307 21.0942C16.1121 20.5375 16.6529 19.7482 17.2508 18.7562L15.5378 17.7238ZM14.8743 21.44H18.6743V19.44H14.8743V21.44ZM19.6743 20.44V17.44H17.6743V20.44H19.6743Z" fill="#202020"/>
</svg>
