<svg width="38" height="39" viewBox="0 0 38 39" fill="none" xmlns="http://www.w3.org/2000/svg">
<path d="M37.5 19.6465C37.5 29.8638 29.2173 38.1465 19 38.1465C8.78273 38.1465 0.5 29.8638 0.5 19.6465C0.5 9.42922 8.78273 1.14648 19 1.14648C29.2173 1.14648 37.5 9.42922 37.5 19.6465Z" stroke="#202020"/>
<path d="M16.4543 21.9H17.4543V20.9H16.4543V21.9ZM20.6143 23.34L20.0143 22.54L20.0082 22.5446L20.0021 22.5493L20.6143 23.34ZM20.5543 20.44L21.0117 19.5507L21.0117 19.5507L20.5543 20.44ZM17.2343 20.08H16.2343V21.08H17.2343V20.08ZM17.2343 17.94V16.94H16.2343V17.94H17.2343ZM20.3143 14.9L19.7229 15.7064L19.738 15.7174L19.7535 15.7279L20.3143 14.9ZM17.3543 14.94L17.9627 15.7336L17.9709 15.7273L17.979 15.7209L17.3543 14.94ZM16.7543 16.24V17.24H17.7543V16.24H16.7543ZM14.0943 16.24H13.0943V17.24H14.0943V16.24ZM14.6943 13.9L13.8831 13.3152L13.8786 13.3215L13.8742 13.3278L14.6943 13.9ZM16.3943 12.56L15.9882 11.6462L15.9882 11.6462L16.3943 12.56ZM21.6143 12.56L21.1952 13.468L21.2018 13.471L21.6143 12.56ZM23.2743 13.9L22.4541 14.4722L22.4606 14.4812L23.2743 13.9ZM23.3143 17.64L22.5092 17.0468L22.5041 17.0538L22.4991 17.0608L23.3143 17.64ZM21.8343 18.82L21.4264 17.907L20.8343 18.1715V18.82H21.8343ZM21.8343 18.92H20.8343V19.6367L21.513 19.867L21.8343 18.92ZM23.5943 20.16L22.792 20.757L22.7989 20.766L23.5943 20.16ZM23.6143 24.3L22.7908 23.7327L22.7908 23.7327L23.6143 24.3ZM21.8543 25.7L21.4526 24.7842L21.4467 24.7869L21.8543 25.7ZM15.9943 25.68L15.5732 26.587L15.5793 26.5898L15.9943 25.68ZM14.2943 24.26L13.4483 24.7933L13.4537 24.8017L14.2943 24.26ZM13.7143 21.9V20.9H12.7143V21.9H13.7143ZM15.4543 21.9C15.4543 22.7549 15.7271 23.5575 16.4132 24.1157C17.0599 24.6418 17.9178 24.82 18.8143 24.82V22.82C18.1375 22.82 17.8154 22.6782 17.6754 22.5643C17.5749 22.4825 17.4543 22.3251 17.4543 21.9H15.4543ZM18.8143 24.82C19.716 24.82 20.569 24.6397 21.2265 24.1307L20.0021 22.5493C19.8329 22.6803 19.486 22.82 18.8143 22.82V24.82ZM21.2143 24.14C21.9445 23.5924 22.2543 22.784 22.2543 21.9H20.2543C20.2543 22.296 20.1375 22.4476 20.0143 22.54L21.2143 24.14ZM22.2543 21.9C22.2543 20.9622 21.9398 20.028 21.0117 19.5507L20.097 21.3293C20.1304 21.3465 20.1523 21.3647 20.1776 21.4173C20.2107 21.4864 20.2543 21.6321 20.2543 21.9H22.2543ZM21.0117 19.5507C20.3505 19.2107 19.5472 19.08 18.6743 19.08V21.08C19.3747 21.08 19.8248 21.1893 20.097 21.3293L21.0117 19.5507ZM18.6743 19.08H17.2343V21.08H18.6743V19.08ZM18.2343 20.08V17.94H16.2343V20.08H18.2343ZM17.2343 18.94H18.8743V16.94H17.2343V18.94ZM18.8743 18.94C19.6497 18.94 20.3766 18.7387 20.9757 18.2635L19.7329 16.6965C19.5587 16.8347 19.2989 16.94 18.8743 16.94V18.94ZM20.9757 18.2635C21.6419 17.7351 21.9343 16.9831 21.9343 16.16H19.9343C19.9343 16.4836 19.84 16.6115 19.7329 16.6965L20.9757 18.2635ZM21.9343 16.16C21.9343 15.3155 21.6 14.5631 20.8751 14.0721L19.7535 15.7279C19.8552 15.7969 19.9343 15.8845 19.9343 16.16H21.9343ZM20.9057 14.0936C20.3007 13.65 19.5814 13.46 18.8143 13.46V15.46C19.2472 15.46 19.5279 15.5634 19.7229 15.7064L20.9057 14.0936ZM18.8143 13.46C18.0426 13.46 17.3281 13.6804 16.7296 14.1591L17.979 15.7209C18.1805 15.5596 18.4394 15.46 18.8143 15.46V13.46ZM16.7459 14.1464C16.0692 14.6652 15.7543 15.4086 15.7543 16.24H17.7543C17.7543 15.9514 17.8394 15.8282 17.9627 15.7336L16.7459 14.1464ZM16.7543 15.24H14.0943V17.24H16.7543V15.24ZM15.0943 16.24V15.82H13.0943V16.24H15.0943ZM15.0943 15.82C15.0943 15.3156 15.2329 14.8757 15.5144 14.4722L13.8742 13.3278C13.3557 14.0709 13.0943 14.9111 13.0943 15.82H15.0943ZM15.5055 14.4848C15.8038 14.071 16.2232 13.7304 16.8004 13.4738L15.9882 11.6462C15.1254 12.0296 14.4115 12.5823 13.8831 13.3152L15.5055 14.4848ZM16.8004 13.4738C17.3729 13.2194 18.051 13.08 18.8543 13.08V11.08C17.8176 11.08 16.8557 11.2606 15.9882 11.6462L16.8004 13.4738ZM18.8543 13.08H19.2343V11.08H18.8543V13.08ZM19.2343 13.08C20.0073 13.08 20.6538 13.218 21.1952 13.468L22.0334 11.652C21.1882 11.262 20.2479 11.08 19.2343 11.08V13.08ZM21.2018 13.471C21.7631 13.7251 22.1681 14.0622 22.4542 14.4722L24.0944 13.3278C23.5805 12.5912 22.8789 12.0349 22.0268 11.649L21.2018 13.471ZM22.4606 14.4812C22.736 14.8668 22.8743 15.2958 22.8743 15.8H24.8743C24.8743 14.8909 24.6126 14.0532 24.088 13.3188L22.4606 14.4812ZM22.8743 15.8C22.8743 16.3385 22.7382 16.7361 22.5092 17.0468L24.1194 18.2332C24.6371 17.5306 24.8743 16.7015 24.8743 15.8H22.8743ZM22.4991 17.0608C22.2532 17.4069 21.9074 17.6921 21.4264 17.907L22.2422 19.733C23.0145 19.3879 23.6554 18.8864 24.1295 18.2192L22.4991 17.0608ZM20.8343 18.82V18.92H22.8343V18.82H20.8343ZM21.513 19.867C22.0883 20.0622 22.4989 20.3631 22.7921 20.757L24.3965 19.563C23.8363 18.8102 23.0736 18.2845 22.1556 17.973L21.513 19.867ZM22.7989 20.766C23.0666 21.1174 23.2343 21.5979 23.2343 22.28H25.2343C25.2343 21.2554 24.9754 20.3226 24.3897 19.554L22.7989 20.766ZM23.2343 22.28C23.2343 22.8294 23.0862 23.3039 22.7908 23.7327L24.4378 24.8673C24.9691 24.0961 25.2343 23.2239 25.2343 22.28H23.2343ZM22.7908 23.7327C22.497 24.1592 22.0666 24.5149 21.4526 24.7842L22.256 26.6158C23.162 26.2184 23.9049 25.6408 24.4378 24.8673L22.7908 23.7327ZM21.4467 24.7869C20.8535 25.0517 20.1244 25.2 19.2343 25.2V27.2C20.3442 27.2 21.3617 27.015 22.262 26.6131L21.4467 24.7869ZM19.2343 25.2H18.6943V27.2H19.2343V25.2ZM18.6943 25.2C17.7634 25.2 17.0112 25.0447 16.4093 24.7702L15.5793 26.5898C16.4974 27.0086 17.5452 27.2 18.6943 27.2V25.2ZM16.4154 24.773C15.8134 24.4935 15.4041 24.1361 15.1349 23.7183L13.4537 24.8017C13.9578 25.5839 14.6818 26.1732 15.5732 26.587L16.4154 24.773ZM15.1402 23.7267C14.861 23.2838 14.7143 22.7777 14.7143 22.18H12.7143C12.7143 23.1289 12.9543 24.0095 13.4484 24.7933L15.1402 23.7267ZM14.7143 22.18V21.9H12.7143V22.18H14.7143ZM13.7143 22.9H16.4543V20.9H13.7143V22.9Z" fill="#202020"/>
</svg>
