<svg width="163" height="80" viewBox="0 0 163 80" fill="none" xmlns="http://www.w3.org/2000/svg">
<path d="M14.0322 37.6204C14.0322 37.6204 17.7422 47.6204 22.0322 45.8604C22.0322 45.8604 16.2622 42.1604 16.3122 36.7204C16.3122 36.4404 15.8122 36.7804 15.6122 36.9804C15.4164 37.2022 15.1718 37.3754 14.8976 37.4865C14.6234 37.5975 14.3272 37.6434 14.0322 37.6204Z" fill="#331800"/>
<path d="M27.6023 10.1704C27.6023 10.1704 14.4323 10.3804 14.2223 28.9804C14.2223 28.9804 7.11225 27.7304 13.1722 36.9804C13.1722 36.9804 13.7722 38.5604 15.6422 36.9804C17.5122 35.4004 13.8923 40.7604 22.3923 46.1404C22.3923 46.1404 22.5122 54.7604 20.3923 56.1404C18.2723 57.5204 32.0023 62.2604 34.2523 56.1404C32.8261 54.3748 32.0746 52.1594 32.1323 49.8904C32.1323 49.8904 41.5723 49.4204 41.6223 33.1504C41.6823 16.9804 37.1823 9.23042 27.6023 10.1704Z" fill="#EDD2B8"/>
<path d="M26.5426 8.41041C26.5426 8.41041 22.4626 -2.37959 13.1426 2.08041C3.82263 6.54041 13.2026 21.6604 12.7726 18.3304C12.0226 12.5204 5.27265 23.8104 11.9426 29.1904C11.9426 28.1104 24.8826 31.9404 30.5126 16.1904C30.5126 16.1904 39.9426 26.0604 41.2626 24.5904C42.5826 23.1204 40.8226 7.53041 26.5426 8.41041Z" fill="#7C420D"/>
<path d="M33.7809 55.7277C28.0716 60.2952 22.5205 57.6308 20.4587 55.7277C10.3626 55.3065 2.61285 70.936 0 78.8034H56.6185C51.3849 69.2084 39.4902 51.1602 33.7809 55.7277Z" fill="#A2A7CA"/>
<path d="M28 32C28.7143 31.327 31.4286 30.3174 34 31.6635" stroke="#545454"/>
<circle cx="23.5" cy="32.5" r="5.5" fill="#202020"/>
<circle cx="38.5" cy="31.5" r="5.5" fill="#202020"/>
<ellipse cx="92.7982" cy="22.5311" rx="4.76817" ry="7.42886" transform="rotate(-0.231627 92.7982 22.5311)" fill="#545454"/>
<path d="M80.8541 3.21586C80.8541 3.21586 67.6841 3.42586 67.4741 22.0659C67.4741 22.0659 60.3741 20.8159 66.4741 30.0659C66.4741 30.0659 67.0641 31.6459 68.9341 30.0659C70.8041 28.4859 67.1841 33.8459 75.6841 39.2259C75.6841 39.2259 75.8041 47.8459 73.6841 49.2259C71.5641 50.6059 85.3041 55.3459 87.5541 49.2259C86.1228 47.4625 85.3675 45.2463 85.4241 42.9759C85.4241 42.9759 94.8641 42.5059 94.9241 26.2359C94.9341 10.0659 90.4341 2.27586 80.8541 3.21586Z" fill="#D2AE8D"/>
<path d="M79.1638 1.63586C79.1638 1.63586 76.3238 -0.174134 73.0538 2.75587C69.7838 5.68587 67.8838 3.75586 66.5038 8.26586C65.1238 12.7759 64.7438 18.4159 65.4338 20.0659C66.1238 21.7159 72.3038 22.4459 73.8238 19.8159C75.1738 17.4759 75.5138 23.4059 78.5638 19.5559C81.2138 16.2059 82.1738 23.7159 84.8438 20.7859C87.5138 17.8559 87.2538 21.7859 88.1938 20.8759C88.4938 20.5959 92.4638 17.0559 94.0438 19.2059C95.6238 21.3559 96.0438 20.4359 96.2238 16.2759C96.3838 12.6559 96.9738 -1.80414 79.1638 1.63586Z" fill="#36210C"/>
<path d="M86.7809 48.8107C81.0716 53.3782 75.5205 50.7139 73.4587 48.8107C63.3626 48.3895 55.6129 64.019 53 71.8864H109.618C104.385 62.2914 92.4902 44.2432 86.7809 48.8107Z" fill="#9AC1C0"/>
<path d="M71.4918 71.8896C69.0631 56.6683 68.7499 51.8751 68.4216 50.4122C68.2114 49.4759 67.9367 49.1407 68.8903 49.0332L72.8857 48.5825C77.2598 60.5343 77.214 59.2973 77.4888 66.7194C77.7342 73.3497 72.5241 72.7624 71.4918 71.8896Z" fill="#545454"/>
<path d="M91.4527 48.3792L86.6973 47.9609C88.9094 48.1555 88.019 54.4564 89.5 61.5828C90.2264 65.0781 90.2698 68.1544 92.7591 71.5764C93.2387 72.2356 94.2238 71.9676 94.3647 71.1647C95.9911 61.8996 95.6402 52.6782 92.0681 48.6776C91.9104 48.501 91.6885 48.3999 91.4527 48.3792Z" fill="#545454"/>
<path d="M86.5 1.08301C74.9 -3.71699 67.6667 8.58327 66 15.5833L71.5 17.5831C72.5 6.58311 82 2.41632 86.5 1.08301Z" fill="#C4C4C4"/>
<ellipse cx="68.2547" cy="22.8142" rx="4.76817" ry="7.42886" transform="rotate(-3.83786 68.2547 22.8142)" fill="#545454"/>
<ellipse cx="66.2547" cy="22.9573" rx="4.76817" ry="7.42886" transform="rotate(-3.83786 66.2547 22.9573)" fill="#C4C4C4"/>
<path d="M135.446 18.5C135.446 18.5 123.196 18.3235 123 35C123 35 116.35 34.2356 122.001 42.4797C122.001 42.4797 122.551 43.8956 124.304 42.4797C126.057 41.0639 122.672 45.876 130.588 50.688C130.588 50.688 130.71 58.4125 128.724 59.6491C126.737 60.8857 139.558 65.1422 141.656 59.6491C140.326 58.0708 139.625 56.088 139.68 54.0574C139.68 54.0574 148.944 53.5348 149 39C149.056 24.4652 144.416 17.6666 135.446 18.5Z" fill="#704837"/>
<path d="M149.754 29.9409C148.393 29.9409 151.507 20.5946 146.64 19.8419C146.64 19.8419 143.041 13.3809 140.906 13.5691C138.77 13.7573 138.472 14.2143 136.132 13.5691C136.132 13.5691 129.81 8.24627 127.963 12.9239C127.963 12.9239 124.075 11.3289 120.569 17.037C117.063 22.7452 114.835 17.3148 116.094 24.7883C116.094 24.7883 112.793 28.0681 113.958 32.459C113.958 32.459 109.678 34.5111 112.69 39.6278C115.702 44.7446 107.152 41.3125 113.082 49.7269C113.082 49.7269 110.163 56.2237 112.205 57.4155C114.247 58.6073 109.287 62.9086 112.494 64.4051C115.702 65.9016 110.63 67.4877 115.292 68.9842C115.292 68.9842 115.096 74.782 119.021 69.6383C119.021 69.6383 120.774 70.857 124.178 69.0738C127.581 67.2906 130.602 66.4572 132.159 67.9537C133.717 69.4502 137.502 68.9842 139.843 67.4877C142.183 65.9912 143.05 72.0668 144.412 68.6078C145.773 65.1489 144.402 65.6686 147.75 64.7725C151.097 63.8764 153.587 60.6594 152.608 58.4998C151.998 57.334 151.699 56.0413 151.736 54.7371C151.773 53.4329 152.147 52.158 152.822 51.0263C154.463 47.8451 151.545 45.0582 154.165 41.3573C156.785 37.6564 151.116 29.9409 149.754 29.9409ZM146.23 49.1176C142.136 54.6286 140.691 51.8059 139.703 53.6608C138.714 55.5157 141.5 59.5 141.5 59.5C136.493 65.4412 129.213 59.7364 129.213 59.7364C129.213 59.7364 132.215 50.7754 130.518 50.0764C127.152 48.6606 124.569 42.128 125.008 41.653C122.714 44.0725 120.607 40.4433 120.056 36.9306C119.674 34.5111 123.096 35.5147 123.096 35.5147C122.928 32.3604 125.082 32.5486 124.765 31.4374C124.523 30.6041 123.982 23.9102 127.273 24.2686C130.565 24.627 127.348 19.4924 131.525 20.6842C135.703 21.876 135.628 18.8203 135.628 18.8203C136.514 18.435 137.073 19.4386 138.36 20.2899C139.647 21.1412 141.81 20.6752 141.81 20.6752C149.615 22.6556 150.594 43.266 146.23 49.1176Z" fill="black"/>
<path d="M140.498 59.1456C135.175 63.2386 129.999 60.851 128.076 59.1456C118.662 58.7682 111.436 72.7738 109 79.8238H161.793C156.913 71.2257 145.822 55.0527 140.498 59.1456Z" fill="#8E1B00"/>
<path d="M109 80C114.595 63.8702 123.453 58.4936 128.115 58.9416C132.964 60.3754 129.514 73.2793 129.98 80H109Z" fill="#C4C4C4"/>
<path d="M162.148 80C155.142 65.6624 147.074 58.9416 142.101 58.4935C137.252 59.9273 141.635 73.2792 141.181 80H162.148Z" fill="#C4C4C4"/>
</svg>
