<svg id="Default" xmlns="http://www.w3.org/2000/svg" viewBox="0 0 904.6 827.07"><defs><style>.cls-1{fill:#e3e4e5;}.cls-2{fill:#abc4dd;}.cls-2,.cls-3,.cls-4,.cls-6,.cls-7,.cls-8{stroke:#000;stroke-linejoin:round;}.cls-2,.cls-3,.cls-4,.cls-5,.cls-6,.cls-7,.cls-8{stroke-linecap:round;}.cls-3{fill:#8daad3;}.cls-4{fill:#6792c6;}.cls-5{fill:#fff;stroke:#231f20;}.cls-6{fill:#e07373;}.cls-7{fill:#e05a5a;}.cls-8{fill:#c94b4b;}</style></defs><path class="cls-1" d="M194.58,599.25c-28.63,21.46-56,22.75-87.77,56.3C91,672.26,72.93,691.32,76.74,707.62c6.71,28.71,76.81,30.22,226.86,41.71,124.85,9.57,219.2,19.23,321.32,0,39.86-7.5,76.67-18.6,103.72-48.8,21.93-24.5,17.1-38.83,40.67-63,22.41-23,38.24-21.84,103.72-48.81C928.18,566,981.7,543.53,980.81,519.53c-.69-18.87-34.82-31.93-58.87-40.87-84.09-31.24-159.84-22.73-164.83-22.17C504.83,484.68,318.63,398.78,254,495.77,231.12,530.16,236.76,567.64,194.58,599.25Z" transform="translate(-76.22 66.65)"/><path class="cls-2" d="M541.92,4.76,464,126.73,751.44,55.24l73-121.31Z" transform="translate(-76.22 66.65)"/><rect class="cls-3" x="493.72" y="86.77" width="296.51" height="282.65" transform="translate(-112.3 228.34) rotate(-13.97)"/><path class="cls-4" d="M751.44,55.24,824.72-66.15q33.94,138.5,67.9,277L820,329.46Z" transform="translate(-76.22 66.65)"/><ellipse class="cls-5" cx="597.42" cy="17.88" rx="33.07" ry="8.18" transform="translate(-62.88 211.37) rotate(-13.97)"/><ellipse class="cls-5" cx="710.6" cy="-10.27" rx="33.07" ry="8.18" transform="translate(-52.74 237.85) rotate(-13.97)"/><ellipse class="cls-5" cx="569.32" cy="66.92" rx="33.07" ry="8.18" transform="translate(-75.54 206.04) rotate(-13.97)"/><ellipse class="cls-5" cx="682.49" cy="38.77" rx="33.07" ry="8.18" transform="translate(-65.4 232.52) rotate(-13.97)"/><ellipse class="cls-5" cx="797.15" cy="101.54" rx="7.45" ry="30.12" transform="translate(-77.16 262.05) rotate(-13.97)"/><ellipse class="cls-5" cx="826.58" cy="213.23" rx="7.45" ry="30.12" transform="translate(-103.25 272.46) rotate(-13.97)"/><ellipse class="cls-5" cx="830.86" cy="56.44" rx="7.45" ry="30.12" transform="translate(-65.28 268.85) rotate(-13.97)"/><ellipse class="cls-5" cx="859.36" cy="171.05" rx="7.45" ry="30.12" transform="translate(-92.1 279.12) rotate(-13.97)"/><ellipse class="cls-5" cx="829.22" cy="138.19" rx="7.45" ry="30.12" transform="translate(-85.06 270.87) rotate(-13.97)"/><circle class="cls-5" cx="477.05" cy="240.59" r="28.88"/><circle class="cls-5" cx="564.58" cy="300.17" r="28.88"/><circle class="cls-5" cx="649.39" cy="353.46" r="28.88"/><path class="cls-6" d="M340.27,220.49l-131,124.13H578.58L703.39,219.81Z" transform="translate(-76.22 66.65)"/><rect class="cls-7" x="133.07" y="411.27" width="369.67" height="352.39"/><path class="cls-8" d="M578.58,344.62,703.77,219.81q-.6,177.78-1.21,355.55L579,697Z" transform="translate(-76.22 66.65)"/><ellipse class="cls-5" cx="327.26" cy="319.71" rx="41.22" ry="10.2"/><ellipse class="cls-5" cx="472.65" cy="319.71" rx="41.22" ry="10.2"/><ellipse class="cls-5" cx="278.5" cy="370.59" rx="41.22" ry="10.2"/><ellipse class="cls-5" cx="423.89" cy="370.59" rx="41.22" ry="10.2"/><ellipse class="cls-5" cx="543.73" cy="481.04" rx="9.29" ry="37.56"/><ellipse class="cls-5" cx="545.73" cy="625.02" rx="9.29" ry="37.56"/><ellipse class="cls-5" cx="598.08" cy="436.61" rx="9.29" ry="37.56"/><ellipse class="cls-5" cx="598.08" cy="583.85" rx="9.29" ry="37.56"/><ellipse class="cls-5" cx="571.5" cy="535.03" rx="9.29" ry="37.56"/><circle class="cls-5" cx="226.88" cy="495.26" r="36"/><circle class="cls-5" cx="314.85" cy="593.67" r="36"/><circle class="cls-5" cx="401.43" cy="683.66" r="36"/></svg>