<svg width="58" height="62" viewBox="0 0 58 62" fill="none" xmlns="http://www.w3.org/2000/svg">
<rect y="20.5" width="47" height="41" fill="#E06B65"/>
<path d="M12 9H58L47 20.5H0L12 9Z" fill="#D65E58"/>
<path d="M30 9H39L28 20.5H18L30 9Z" fill="#84BDF5"/>
<path d="M47 20.4994V61.4994L58 50.1089V9L47 20.4994Z" fill="#B44E49"/>
<path d="M18 20.5H28V61.5H18V20.5Z" fill="#99CCFF"/>
<path d="M0 45L0 37H47V45H0Z" fill="#99CCFF"/>
<path d="M58 33.5V26L47 37V44.9482L58 33.5Z" fill="#7AB3EB"/>
<path d="M15.5 5C20.3416 6.20684 25.0345 14.0867 25.0345 14.0867C25.0345 14.0867 19.5734 15.0866 17.035 15.0866C14.3013 15.0866 12.501 14.9979 11.4983 14.4979C6.65879 12.0847 7.46991 7.33103 10 5.49824C11.501 4.41093 13.5023 4.50203 15.5 5Z" stroke="#7DBAF7" stroke-width="5"/>
<path d="M36.4995 3.05473C31.5334 3.53918 29.9995 14.0547 29.9995 14.0547H36.4995C39.2332 14.0547 41.4423 15.8549 43.4995 14.0547C45.8507 11.9974 45.2615 8.6347 43.4995 6.05473C41.8222 3.59868 39.4596 2.76598 36.4995 3.05473Z" stroke="#7DBAF7" stroke-width="5"/>
<ellipse cx="27" cy="13.5" rx="4" ry="3.5" fill="#6CB1F7"/>
</svg>
