<svg width="95" height="288" viewBox="0 0 95 288" fill="none" xmlns="http://www.w3.org/2000/svg">
<path d="M95 7.5C95 3.35786 91.7658 0 87.7762 0C83.7866 0 80.5523 3.35786 80.5523 7.5C80.5523 11.6421 83.7866 15 87.7762 15C91.7658 15 95 11.6421 95 7.5Z" fill="black"/>
<path d="M87.1676 159.974C91.1572 159.974 94.3915 163.331 94.3915 167.474C94.3915 171.616 91.1572 174.974 87.1676 174.974C83.1779 174.974 79.9438 171.616 79.9438 167.474C79.9438 163.331 83.1779 159.974 87.1676 159.974Z" fill="black"/>
<path d="M87.0925 288V8" stroke="black" stroke-width="4.41953"/>
<path d="M11.1827 4.9375V22H7.23349V9.39062L3.34287 10.5273V7.52734L10.8194 4.9375H11.1827ZM23.6163 4.9375L17.7804 23.4648H14.9679L20.8038 4.9375H23.6163ZM36.7062 18.9531V22H24.7999V19.4219L30.2843 13.6562C30.7687 13.1016 31.1593 12.6055 31.4562 12.168C31.753 11.7227 31.9679 11.3203 32.1007 10.9609C32.2413 10.6016 32.3116 10.2773 32.3116 9.98828C32.3116 9.49609 32.2374 9.08594 32.089 8.75781C31.9483 8.42188 31.7374 8.16797 31.4562 7.99609C31.1827 7.82422 30.8429 7.73828 30.4366 7.73828C30.0304 7.73828 29.6749 7.85547 29.3702 8.08984C29.0655 8.32422 28.8272 8.64453 28.6554 9.05078C28.4913 9.45703 28.4093 9.91406 28.4093 10.4219H24.4483C24.4483 9.375 24.7022 8.41797 25.2101 7.55078C25.7257 6.68359 26.4405 5.99219 27.3546 5.47656C28.2687 4.95312 29.3272 4.69141 30.5304 4.69141C31.7882 4.69141 32.8429 4.88672 33.6944 5.27734C34.546 5.66797 35.1866 6.23438 35.6163 6.97656C36.0538 7.71094 36.2726 8.59766 36.2726 9.63672C36.2726 10.2305 36.1788 10.8008 35.9913 11.3477C35.8038 11.8945 35.5343 12.4375 35.1827 12.9766C34.8312 13.5078 34.4015 14.0547 33.8937 14.6172C33.3937 15.1797 32.8233 15.7773 32.1827 16.4102L29.9796 18.9531H36.7062ZM50.8741 15.332V18.3789H38.5929L38.3585 15.9648L45.214 4.9375H48.3312L44.9444 10.4805L42.1319 15.332H50.8741ZM49.1515 4.9375V22H45.2022V4.9375H49.1515ZM21.9991 41.0352L25.6202 38.7734C26.1046 38.4609 26.4015 38.168 26.5108 37.8945C26.628 37.6133 26.6866 37.3398 26.6866 37.0742C26.6866 36.7539 26.5694 36.4531 26.3351 36.1719C26.1085 35.8828 25.7882 35.7383 25.3741 35.7383C25.0694 35.7383 24.8116 35.8086 24.6007 35.9492C24.3976 36.082 24.2413 36.2617 24.1319 36.4883C24.0304 36.7148 23.9796 36.9688 23.9796 37.25C23.9796 37.6016 24.0772 37.957 24.2726 38.3164C24.4679 38.6758 24.7257 39.0547 25.046 39.4531C25.3741 39.8516 25.7374 40.2891 26.1358 40.7656L34.1632 50H29.7569L23.2179 42.5703C22.6788 41.8828 22.2101 41.25 21.8116 40.6719C21.421 40.0938 21.1163 39.5312 20.8976 38.9844C20.6788 38.4375 20.5694 37.875 20.5694 37.2969C20.5694 36.3984 20.7647 35.6055 21.1554 34.918C21.5538 34.2227 22.1124 33.6797 22.8312 33.2891C23.5577 32.8906 24.4093 32.6914 25.3858 32.6914C26.2921 32.6914 27.0772 32.8789 27.7413 33.2539C28.4132 33.6289 28.9327 34.1289 29.2999 34.7539C29.6671 35.3711 29.8507 36.0508 29.8507 36.793C29.8507 37.3086 29.753 37.7969 29.5577 38.2578C29.3624 38.7188 29.0929 39.1406 28.7491 39.5234C28.4132 39.9062 28.0265 40.2539 27.589 40.5664L23.6749 43.2969C23.5187 43.4922 23.3897 43.6914 23.2882 43.8945C23.1944 44.0898 23.1241 44.2891 23.0772 44.4922C23.0382 44.6953 23.0187 44.9141 23.0187 45.1484C23.0187 45.5547 23.1046 45.9141 23.2765 46.2266C23.4483 46.5312 23.6749 46.7695 23.9562 46.9414C24.2452 47.1133 24.5577 47.1992 24.8937 47.1992C25.5265 47.1992 26.1358 47.0625 26.7218 46.7891C27.3155 46.5078 27.8468 46.1133 28.3155 45.6055C28.7843 45.0977 29.1554 44.4922 29.4288 43.7891C29.7022 43.0859 29.839 42.3125 29.839 41.4688H33.1437C33.1437 42.3906 33.0499 43.2695 32.8624 44.1055C32.6827 44.9336 32.3819 45.6992 31.9601 46.4023C31.546 47.1055 30.9874 47.7227 30.2843 48.2539C30.2452 48.2773 30.171 48.3242 30.0616 48.3945C29.9601 48.457 29.8858 48.5 29.839 48.5234C29.0187 49.1094 28.2101 49.543 27.4132 49.8242C26.6163 50.1055 25.6866 50.2461 24.6241 50.2461C23.4757 50.2461 22.4835 50.0391 21.6476 49.625C20.8194 49.2109 20.1788 48.6406 19.7257 47.9141C19.2726 47.1875 19.046 46.3555 19.046 45.418C19.046 44.7539 19.171 44.1758 19.421 43.6836C19.671 43.1836 20.0187 42.7227 20.464 42.3008C20.9093 41.8789 21.421 41.457 21.9991 41.0352ZM11.1827 60.9375V78H7.23349V65.3906L3.34287 66.5273V63.5273L10.8194 60.9375H11.1827ZM23.6163 60.9375L17.7804 79.4648H14.9679L20.8038 60.9375H23.6163ZM36.7062 74.9531V78H24.7999V75.4219L30.2843 69.6562C30.7687 69.1016 31.1593 68.6055 31.4562 68.168C31.753 67.7227 31.9679 67.3203 32.1007 66.9609C32.2413 66.6016 32.3116 66.2773 32.3116 65.9883C32.3116 65.4961 32.2374 65.0859 32.089 64.7578C31.9483 64.4219 31.7374 64.168 31.4562 63.9961C31.1827 63.8242 30.8429 63.7383 30.4366 63.7383C30.0304 63.7383 29.6749 63.8555 29.3702 64.0898C29.0655 64.3242 28.8272 64.6445 28.6554 65.0508C28.4913 65.457 28.4093 65.9141 28.4093 66.4219H24.4483C24.4483 65.375 24.7022 64.418 25.2101 63.5508C25.7257 62.6836 26.4405 61.9922 27.3546 61.4766C28.2687 60.9531 29.3272 60.6914 30.5304 60.6914C31.7882 60.6914 32.8429 60.8867 33.6944 61.2773C34.546 61.668 35.1866 62.2344 35.6163 62.9766C36.0538 63.7109 36.2726 64.5977 36.2726 65.6367C36.2726 66.2305 36.1788 66.8008 35.9913 67.3477C35.8038 67.8945 35.5343 68.4375 35.1827 68.9766C34.8312 69.5078 34.4015 70.0547 33.8937 70.6172C33.3937 71.1797 32.8233 71.7773 32.1827 72.4102L29.9796 74.9531H36.7062ZM47.6163 60.6914H48.2491V63.7969H48.0382C47.2804 63.7969 46.5694 63.9023 45.9054 64.1133C45.2491 64.3242 44.671 64.6445 44.171 65.0742C43.6788 65.4961 43.2921 66.0312 43.0108 66.6797C42.7374 67.3281 42.6007 68.0898 42.6007 68.9648V71.9531C42.6007 72.5 42.6476 72.9766 42.7413 73.3828C42.8351 73.7891 42.9757 74.125 43.1632 74.3906C43.3507 74.6562 43.5812 74.8555 43.8546 74.9883C44.1358 75.1211 44.4601 75.1875 44.8272 75.1875C45.1319 75.1875 45.4132 75.1172 45.671 74.9766C45.9288 74.8359 46.1515 74.6367 46.339 74.3789C46.5343 74.1211 46.6827 73.8203 46.7843 73.4766C46.8858 73.1328 46.9366 72.7578 46.9366 72.3516C46.9366 71.9141 46.8819 71.5195 46.7726 71.168C46.6632 70.8164 46.5069 70.5195 46.3038 70.2773C46.1085 70.0273 45.8702 69.8398 45.589 69.7148C45.3155 69.582 45.0147 69.5156 44.6866 69.5156C44.1866 69.5156 43.7608 69.6289 43.4093 69.8555C43.0655 70.0742 42.8038 70.3555 42.6241 70.6992C42.4522 71.043 42.3663 71.3906 42.3663 71.7422L41.4171 70.7812C41.4015 70.3125 41.4913 69.8281 41.6866 69.3281C41.8819 68.8281 42.1749 68.3633 42.5655 67.9336C42.9562 67.5039 43.4444 67.1562 44.0304 66.8906C44.6163 66.625 45.296 66.4922 46.0694 66.4922C46.8507 66.4922 47.5382 66.6406 48.1319 66.9375C48.7335 67.2344 49.2374 67.6484 49.6437 68.1797C50.0577 68.7109 50.3702 69.332 50.5812 70.043C50.7921 70.7539 50.8976 71.5234 50.8976 72.3516C50.8976 73.1875 50.7491 73.9648 50.4522 74.6836C50.1632 75.3945 49.753 76.0156 49.2218 76.5469C48.6905 77.0781 48.0616 77.4922 47.3351 77.7891C46.6085 78.0859 45.8077 78.2344 44.9327 78.2344C44.0343 78.2344 43.2022 78.082 42.4366 77.7773C41.6788 77.4648 41.0147 77.0156 40.4444 76.4297C39.8819 75.8359 39.4405 75.1133 39.1202 74.2617C38.8077 73.4102 38.6515 72.4453 38.6515 71.3672V69.9258C38.6515 68.4648 38.8897 67.1641 39.3663 66.0234C39.8507 64.8828 40.5069 63.918 41.3351 63.1289C42.171 62.332 43.128 61.7266 44.2062 61.3125C45.2843 60.8984 46.421 60.6914 47.6163 60.6914Z" fill="black"/>
<path d="M11.1827 164.938V182H7.23349V169.391L3.34287 170.527V167.527L10.8194 164.938H11.1827ZM23.6163 164.938L17.7804 183.465H14.9679L20.8038 164.938H23.6163ZM36.7062 178.953V182H24.7999V179.422L30.2843 173.656C30.7687 173.102 31.1593 172.605 31.4562 172.168C31.753 171.723 31.9679 171.32 32.1007 170.961C32.2413 170.602 32.3116 170.277 32.3116 169.988C32.3116 169.496 32.2374 169.086 32.089 168.758C31.9483 168.422 31.7374 168.168 31.4562 167.996C31.1827 167.824 30.8429 167.738 30.4366 167.738C30.0304 167.738 29.6749 167.855 29.3702 168.09C29.0655 168.324 28.8272 168.645 28.6554 169.051C28.4913 169.457 28.4093 169.914 28.4093 170.422H24.4483C24.4483 169.375 24.7022 168.418 25.2101 167.551C25.7257 166.684 26.4405 165.992 27.3546 165.477C28.2687 164.953 29.3272 164.691 30.5304 164.691C31.7882 164.691 32.8429 164.887 33.6944 165.277C34.546 165.668 35.1866 166.234 35.6163 166.977C36.0538 167.711 36.2726 168.598 36.2726 169.637C36.2726 170.23 36.1788 170.801 35.9913 171.348C35.8038 171.895 35.5343 172.438 35.1827 172.977C34.8312 173.508 34.4015 174.055 33.8937 174.617C33.3937 175.18 32.8233 175.777 32.1827 176.41L29.9796 178.953H36.7062ZM47.6163 164.691H48.2491V167.797H48.0382C47.2804 167.797 46.5694 167.902 45.9054 168.113C45.2491 168.324 44.671 168.645 44.171 169.074C43.6788 169.496 43.2921 170.031 43.0108 170.68C42.7374 171.328 42.6007 172.09 42.6007 172.965V175.953C42.6007 176.5 42.6476 176.977 42.7413 177.383C42.8351 177.789 42.9757 178.125 43.1632 178.391C43.3507 178.656 43.5812 178.855 43.8546 178.988C44.1358 179.121 44.4601 179.188 44.8272 179.188C45.1319 179.188 45.4132 179.117 45.671 178.977C45.9288 178.836 46.1515 178.637 46.339 178.379C46.5343 178.121 46.6827 177.82 46.7843 177.477C46.8858 177.133 46.9366 176.758 46.9366 176.352C46.9366 175.914 46.8819 175.52 46.7726 175.168C46.6632 174.816 46.5069 174.52 46.3038 174.277C46.1085 174.027 45.8702 173.84 45.589 173.715C45.3155 173.582 45.0147 173.516 44.6866 173.516C44.1866 173.516 43.7608 173.629 43.4093 173.855C43.0655 174.074 42.8038 174.355 42.6241 174.699C42.4522 175.043 42.3663 175.391 42.3663 175.742L41.4171 174.781C41.4015 174.312 41.4913 173.828 41.6866 173.328C41.8819 172.828 42.1749 172.363 42.5655 171.934C42.9562 171.504 43.4444 171.156 44.0304 170.891C44.6163 170.625 45.296 170.492 46.0694 170.492C46.8507 170.492 47.5382 170.641 48.1319 170.938C48.7335 171.234 49.2374 171.648 49.6437 172.18C50.0577 172.711 50.3702 173.332 50.5812 174.043C50.7921 174.754 50.8976 175.523 50.8976 176.352C50.8976 177.188 50.7491 177.965 50.4522 178.684C50.1632 179.395 49.753 180.016 49.2218 180.547C48.6905 181.078 48.0616 181.492 47.3351 181.789C46.6085 182.086 45.8077 182.234 44.9327 182.234C44.0343 182.234 43.2022 182.082 42.4366 181.777C41.6788 181.465 41.0147 181.016 40.4444 180.43C39.8819 179.836 39.4405 179.113 39.1202 178.262C38.8077 177.41 38.6515 176.445 38.6515 175.367V173.926C38.6515 172.465 38.8897 171.164 39.3663 170.023C39.8507 168.883 40.5069 167.918 41.3351 167.129C42.171 166.332 43.128 165.727 44.2062 165.312C45.2843 164.898 46.421 164.691 47.6163 164.691ZM29.9093 201.117V204.176H22.8663V201.117H29.9093ZM11.1827 220.938V238H7.23349V225.391L3.34287 226.527V223.527L10.8194 220.938H11.1827ZM23.6163 220.938L17.7804 239.465H14.9679L20.8038 220.938H23.6163ZM28.3976 227.816H30.3194C30.8116 227.816 31.214 227.73 31.5265 227.559C31.8468 227.379 32.0851 227.129 32.2413 226.809C32.3976 226.48 32.4757 226.094 32.4757 225.648C32.4757 225.305 32.4015 224.988 32.253 224.699C32.1124 224.41 31.8937 224.18 31.5968 224.008C31.2999 223.828 30.921 223.738 30.4601 223.738C30.1476 223.738 29.8429 223.805 29.546 223.938C29.2491 224.062 29.003 224.242 28.8077 224.477C28.6202 224.711 28.5265 224.996 28.5265 225.332H24.5655C24.5655 224.363 24.8312 223.535 25.3624 222.848C25.9015 222.152 26.6085 221.621 27.4835 221.254C28.3663 220.879 29.3155 220.691 30.3312 220.691C31.5421 220.691 32.6046 220.879 33.5187 221.254C34.4327 221.621 35.1437 222.168 35.6515 222.895C36.1671 223.613 36.4249 224.504 36.4249 225.566C36.4249 226.152 36.2882 226.703 36.0147 227.219C35.7413 227.734 35.3585 228.188 34.8663 228.578C34.3741 228.969 33.796 229.277 33.1319 229.504C32.4757 229.723 31.7569 229.832 30.9757 229.832H28.3976V227.816ZM28.3976 230.758V228.789H30.9757C31.8272 228.789 32.6046 228.887 33.3077 229.082C34.0108 229.27 34.6163 229.551 35.1241 229.926C35.6319 230.301 36.0226 230.766 36.296 231.32C36.5694 231.867 36.7062 232.496 36.7062 233.207C36.7062 234.004 36.546 234.715 36.2257 235.34C35.9054 235.965 35.4562 236.492 34.878 236.922C34.2999 237.352 33.6241 237.68 32.8507 237.906C32.0772 238.125 31.2374 238.234 30.3312 238.234C29.6202 238.234 28.9093 238.141 28.1983 237.953C27.4874 237.758 26.839 237.461 26.253 237.062C25.6671 236.656 25.1944 236.141 24.8351 235.516C24.4835 234.883 24.3077 234.129 24.3077 233.254H28.2687C28.2687 233.613 28.3663 233.941 28.5616 234.238C28.7647 234.527 29.0343 234.758 29.3702 234.93C29.7062 235.102 30.0694 235.188 30.4601 235.188C30.9444 235.188 31.3546 235.098 31.6905 234.918C32.0343 234.73 32.296 234.48 32.4757 234.168C32.6554 233.855 32.7452 233.508 32.7452 233.125C32.7452 232.547 32.6476 232.086 32.4522 231.742C32.2647 231.398 31.9874 231.148 31.6202 230.992C31.2608 230.836 30.8272 230.758 30.3194 230.758H28.3976ZM47.464 220.938V238H43.5147V225.391L39.6241 226.527V223.527L47.1007 220.938H47.464Z" fill="black"/>
</svg>
