<svg width="100" height="300" viewBox="0 0 100 300" fill="none" xmlns="http://www.w3.org/2000/svg">
<path d="M95.0571 7.5C95.0571 3.35786 91.8229 0 87.8333 0C83.8437 0 80.6094 3.35786 80.6094 7.5C80.6094 11.6421 83.8437 15 87.8333 15C91.8229 15 95.0571 11.6421 95.0571 7.5Z" fill="black"/>
<path d="M87.2238 159.974C91.2134 159.974 94.4477 163.331 94.4477 167.474C94.4477 171.616 91.2134 174.974 87.2238 174.974C83.2341 174.974 80 171.616 80 167.474C80 163.331 83.2341 159.974 87.2238 159.974Z" fill="black"/>
<path d="M87.1494 288V8" stroke="black" stroke-width="4.41953"/>
<path d="M10.8835 22V6.64L12.5635 8.32H7.52347V5.2H14.7715V22H10.8835ZM15.9619 24.4L23.8819 1.792H27.2179L19.2979 24.4H15.9619ZM32.5363 22.288C31.3683 22.288 30.2083 22.136 29.0563 21.832C27.9043 21.512 26.9283 21.064 26.1283 20.488L27.6403 17.512C28.2803 17.976 29.0243 18.344 29.8723 18.616C30.7203 18.888 31.5763 19.024 32.4403 19.024C33.4163 19.024 34.1843 18.832 34.7443 18.448C35.3043 18.064 35.5843 17.536 35.5843 16.864C35.5843 16.224 35.3363 15.72 34.8403 15.352C34.3443 14.984 33.5443 14.8 32.4403 14.8H30.6643V12.232L35.3443 6.928L35.7763 8.32H26.9683V5.2H38.7283V7.72L34.0723 13.024L32.1043 11.896H33.2323C35.2963 11.896 36.8563 12.36 37.9123 13.288C38.9683 14.216 39.4963 15.408 39.4963 16.864C39.4963 17.808 39.2483 18.696 38.7523 19.528C38.2563 20.344 37.4963 21.008 36.4723 21.52C35.4483 22.032 34.1363 22.288 32.5363 22.288ZM48.4915 22.288C47.1155 22.288 45.8835 21.952 44.7955 21.28C43.7075 20.592 42.8515 19.6 42.2275 18.304C41.6035 17.008 41.2915 15.44 41.2915 13.6C41.2915 11.76 41.6035 10.192 42.2275 8.896C42.8515 7.6 43.7075 6.616 44.7955 5.944C45.8835 5.256 47.1155 4.912 48.4915 4.912C49.8835 4.912 51.1155 5.256 52.1875 5.944C53.2755 6.616 54.1315 7.6 54.7555 8.896C55.3795 10.192 55.6915 11.76 55.6915 13.6C55.6915 15.44 55.3795 17.008 54.7555 18.304C54.1315 19.6 53.2755 20.592 52.1875 21.28C51.1155 21.952 49.8835 22.288 48.4915 22.288ZM48.4915 19C49.1475 19 49.7155 18.816 50.1955 18.448C50.6915 18.08 51.0755 17.496 51.3475 16.696C51.6355 15.896 51.7795 14.864 51.7795 13.6C51.7795 12.336 51.6355 11.304 51.3475 10.504C51.0755 9.704 50.6915 9.12 50.1955 8.752C49.7155 8.384 49.1475 8.2 48.4915 8.2C47.8515 8.2 47.2835 8.384 46.7875 8.752C46.3075 9.12 45.9235 9.704 45.6355 10.504C45.3635 11.304 45.2275 12.336 45.2275 13.6C45.2275 14.864 45.3635 15.896 45.6355 16.696C45.9235 17.496 46.3075 18.08 46.7875 18.448C47.2835 18.816 47.8515 19 48.4915 19Z" fill="black"/>
<path d="M15.835 182V179.48L22.315 173.36C22.827 172.896 23.203 172.48 23.443 172.112C23.683 171.744 23.843 171.408 23.923 171.104C24.019 170.8 24.067 170.52 24.067 170.264C24.067 169.592 23.835 169.08 23.371 168.728C22.923 168.36 22.259 168.176 21.379 168.176C20.675 168.176 20.019 168.312 19.411 168.584C18.819 168.856 18.315 169.28 17.899 169.856L15.067 168.032C15.707 167.072 16.603 166.312 17.755 165.752C18.907 165.192 20.235 164.912 21.739 164.912C22.987 164.912 24.075 165.12 25.003 165.536C25.947 165.936 26.675 166.504 27.187 167.24C27.715 167.976 27.979 168.856 27.979 169.88C27.979 170.424 27.907 170.968 27.763 171.512C27.635 172.04 27.363 172.6 26.947 173.192C26.547 173.784 25.955 174.448 25.171 175.184L19.795 180.248L19.051 178.832H28.531V182H15.835ZM28.6416 184.4L36.5616 161.792H39.8976L31.9776 184.4H28.6416ZM43.0866 182V166.64L44.7666 168.32H39.7266V165.2H46.9746V182H43.0866ZM28.6191 202.744V199.744H35.4111V202.744H28.6191ZM13.7959 234V231.48L20.2759 225.36C20.7879 224.896 21.1639 224.48 21.4039 224.112C21.6439 223.744 21.8039 223.408 21.8839 223.104C21.9799 222.8 22.0279 222.52 22.0279 222.264C22.0279 221.592 21.7959 221.08 21.3319 220.728C20.8839 220.36 20.2199 220.176 19.3399 220.176C18.6359 220.176 17.9799 220.312 17.3719 220.584C16.7799 220.856 16.2759 221.28 15.8599 221.856L13.0279 220.032C13.6679 219.072 14.5639 218.312 15.7159 217.752C16.8679 217.192 18.1959 216.912 19.6999 216.912C20.9479 216.912 22.0359 217.12 22.9639 217.536C23.9079 217.936 24.6359 218.504 25.1479 219.24C25.6759 219.976 25.9399 220.856 25.9399 221.88C25.9399 222.424 25.8679 222.968 25.7239 223.512C25.5959 224.04 25.3239 224.6 24.9079 225.192C24.5079 225.784 23.9159 226.448 23.1319 227.184L17.7559 232.248L17.0119 230.832H26.4919V234H13.7959ZM26.6025 236.4L34.5225 213.792H37.8585L29.9385 236.4H26.6025ZM43.177 234.288C42.009 234.288 40.849 234.136 39.697 233.832C38.545 233.512 37.569 233.064 36.769 232.488L38.281 229.512C38.921 229.976 39.665 230.344 40.513 230.616C41.361 230.888 42.217 231.024 43.081 231.024C44.057 231.024 44.825 230.832 45.385 230.448C45.945 230.064 46.225 229.536 46.225 228.864C46.225 228.224 45.977 227.72 45.481 227.352C44.985 226.984 44.185 226.8 43.081 226.8H41.305V224.232L45.985 218.928L46.417 220.32H37.609V217.2H49.369V219.72L44.713 225.024L42.745 223.896H43.873C45.937 223.896 47.497 224.36 48.553 225.288C49.609 226.216 50.137 227.408 50.137 228.864C50.137 229.808 49.889 230.696 49.393 231.528C48.897 232.344 48.137 233.008 47.113 233.52C46.089 234.032 44.777 234.288 43.177 234.288Z" fill="black"/>
</svg>
