<svg width="79" height="289" viewBox="0 0 79 289" fill="none" xmlns="http://www.w3.org/2000/svg">
<g clip-path="url(#clip0_192_41)">
<path d="M7.65006 5.19691C9.20206 5.19691 10.5381 5.51691 11.6581 6.15691C12.7781 6.79691 13.6421 7.73291 14.2501 8.96491C14.8581 10.1809 15.1621 11.7009 15.1621 13.5249C15.1621 15.4609 14.7941 17.1009 14.0581 18.4449C13.3381 19.7889 12.3381 20.8129 11.0581 21.5169C9.77806 22.2209 8.29006 22.5729 6.59406 22.5729C5.71406 22.5729 4.86606 22.4769 4.05006 22.2849C3.23406 22.0929 2.53006 21.8049 1.93806 21.4209L3.37806 18.5649C3.84206 18.8849 4.33806 19.1089 4.86606 19.2369C5.39406 19.3489 5.94606 19.4049 6.52206 19.4049C7.96206 19.4049 9.10606 18.9649 9.95406 18.0849C10.8181 17.2049 11.2501 15.9009 11.2501 14.1729C11.2501 13.8849 11.2421 13.5649 11.2261 13.2129C11.2101 12.8609 11.1701 12.5089 11.1061 12.1569L12.1621 13.1649C11.8901 13.7889 11.5061 14.3169 11.0101 14.7489C10.5141 15.1649 9.93806 15.4849 9.28206 15.7089C8.62606 15.9169 7.89006 16.0209 7.07406 16.0209C6.00206 16.0209 5.02606 15.8049 4.14606 15.3729C3.28206 14.9409 2.58606 14.3329 2.05806 13.5489C1.54606 12.7649 1.29006 11.8449 1.29006 10.7889C1.29006 9.63691 1.57006 8.64491 2.13006 7.81291C2.70606 6.98091 3.47406 6.34091 4.43406 5.89291C5.41006 5.42891 6.48206 5.19691 7.65006 5.19691ZM7.89006 8.10091C7.33006 8.10091 6.84206 8.20491 6.42606 8.41291C6.01006 8.60491 5.68206 8.89291 5.44206 9.27691C5.20206 9.64491 5.08206 10.0849 5.08206 10.5969C5.08206 11.3649 5.33806 11.9809 5.85006 12.4449C6.37806 12.8929 7.07406 13.1169 7.93806 13.1169C8.49806 13.1169 8.99406 13.0129 9.42606 12.8049C9.87406 12.5809 10.2181 12.2769 10.4581 11.8929C10.6981 11.5089 10.8181 11.0769 10.8181 10.5969C10.8181 10.1169 10.6981 9.69291 10.4581 9.32491C10.2341 8.94091 9.90606 8.64491 9.47406 8.43691C9.04206 8.21291 8.51406 8.10091 7.89006 8.10091ZM14.8306 24.6849L22.7506 2.07691H26.0866L18.1666 24.6849H14.8306ZM31.669 22.5729C30.501 22.5729 29.341 22.4209 28.189 22.1169C27.053 21.7969 26.077 21.3489 25.261 20.7729L26.797 17.7969C27.437 18.2609 28.173 18.6289 29.005 18.9009C29.853 19.1729 30.709 19.3089 31.573 19.3089C32.549 19.3089 33.317 19.1169 33.877 18.7329C34.437 18.3489 34.717 17.8129 34.717 17.1249C34.717 16.6929 34.605 16.3089 34.381 15.9729C34.157 15.6369 33.757 15.3809 33.181 15.2049C32.621 15.0289 31.829 14.9409 30.805 14.9409H26.509L27.373 5.48491H37.621V8.60491H28.765L30.781 6.82891L30.181 13.5729L28.165 11.7969H31.717C33.381 11.7969 34.717 12.0289 35.725 12.4929C36.749 12.9409 37.493 13.5569 37.957 14.3409C38.421 15.1249 38.653 16.0129 38.653 17.0049C38.653 17.9969 38.405 18.9169 37.909 19.7649C37.413 20.5969 36.645 21.2769 35.605 21.8049C34.581 22.3169 33.269 22.5729 31.669 22.5729Z" fill="black"/>
<path d="M7.77506 174.912C9.32706 174.912 10.6631 175.232 11.7831 175.872C12.9031 176.512 13.7671 177.448 14.3751 178.68C14.9831 179.896 15.2871 181.416 15.2871 183.24C15.2871 185.176 14.9191 186.816 14.1831 188.16C13.4631 189.504 12.4631 190.528 11.1831 191.232C9.90306 191.936 8.41506 192.288 6.71906 192.288C5.83906 192.288 4.99106 192.192 4.17506 192C3.35906 191.808 2.65506 191.52 2.06306 191.136L3.50306 188.28C3.96706 188.6 4.46306 188.824 4.99106 188.952C5.51906 189.064 6.07106 189.12 6.64706 189.12C8.08706 189.12 9.23106 188.68 10.0791 187.8C10.9431 186.92 11.3751 185.616 11.3751 183.888C11.3751 183.6 11.3671 183.28 11.3511 182.928C11.3351 182.576 11.2951 182.224 11.2311 181.872L12.2871 182.88C12.0151 183.504 11.6311 184.032 11.1351 184.464C10.6391 184.88 10.0631 185.2 9.40706 185.424C8.75106 185.632 8.01506 185.736 7.19906 185.736C6.12706 185.736 5.15106 185.52 4.27106 185.088C3.40706 184.656 2.71106 184.048 2.18306 183.264C1.67106 182.48 1.41506 181.56 1.41506 180.504C1.41506 179.352 1.69506 178.36 2.25506 177.528C2.83106 176.696 3.59906 176.056 4.55906 175.608C5.53506 175.144 6.60706 174.912 7.77506 174.912ZM8.01506 177.816C7.45506 177.816 6.96706 177.92 6.55106 178.128C6.13506 178.32 5.80706 178.608 5.56706 178.992C5.32706 179.36 5.20706 179.8 5.20706 180.312C5.20706 181.08 5.46306 181.696 5.97506 182.16C6.50306 182.608 7.19906 182.832 8.06306 182.832C8.62306 182.832 9.11906 182.728 9.55106 182.52C9.99906 182.296 10.3431 181.992 10.5831 181.608C10.8231 181.224 10.9431 180.792 10.9431 180.312C10.9431 179.832 10.8231 179.408 10.5831 179.04C10.3591 178.656 10.0311 178.36 9.59906 178.152C9.16706 177.928 8.63906 177.816 8.01506 177.816ZM14.9556 194.4L22.8756 171.792H26.2116L18.2916 194.4H14.9556ZM28.9106 192L35.6786 176.688L36.6866 178.368H27.6386L29.3666 176.544V181.104H25.9106V175.2H39.3746V177.72L33.1346 192H28.9106ZM17.1713 212.744V209.744H23.9633V212.744H17.1713ZM7.64615 226.912C9.19815 226.912 10.5342 227.232 11.6542 227.872C12.7742 228.512 13.6382 229.448 14.2462 230.68C14.8542 231.896 15.1582 233.416 15.1582 235.24C15.1582 237.176 14.7902 238.816 14.0542 240.16C13.3342 241.504 12.3342 242.528 11.0542 243.232C9.77415 243.936 8.28615 244.288 6.59015 244.288C5.71015 244.288 4.86215 244.192 4.04615 244C3.23015 243.808 2.52615 243.52 1.93415 243.136L3.37415 240.28C3.83815 240.6 4.33415 240.824 4.86215 240.952C5.39015 241.064 5.94215 241.12 6.51815 241.12C7.95815 241.12 9.10215 240.68 9.95015 239.8C10.8142 238.92 11.2462 237.616 11.2462 235.888C11.2462 235.6 11.2382 235.28 11.2222 234.928C11.2062 234.576 11.1662 234.224 11.1022 233.872L12.1582 234.88C11.8862 235.504 11.5022 236.032 11.0062 236.464C10.5102 236.88 9.93415 237.2 9.27815 237.424C8.62215 237.632 7.88615 237.736 7.07015 237.736C5.99815 237.736 5.02215 237.52 4.14215 237.088C3.27815 236.656 2.58215 236.048 2.05415 235.264C1.54215 234.48 1.28615 233.56 1.28615 232.504C1.28615 231.352 1.56615 230.36 2.12615 229.528C2.70215 228.696 3.47015 228.056 4.43015 227.608C5.40615 227.144 6.47815 226.912 7.64615 226.912ZM7.88615 229.816C7.32615 229.816 6.83815 229.92 6.42215 230.128C6.00615 230.32 5.67815 230.608 5.43815 230.992C5.19815 231.36 5.07815 231.8 5.07815 232.312C5.07815 233.08 5.33415 233.696 5.84615 234.16C6.37415 234.608 7.07015 234.832 7.93415 234.832C8.49415 234.832 8.99015 234.728 9.42215 234.52C9.87015 234.296 10.2142 233.992 10.4542 233.608C10.6942 233.224 10.8142 232.792 10.8142 232.312C10.8142 231.832 10.6942 231.408 10.4542 231.04C10.2302 230.656 9.90215 230.36 9.47015 230.152C9.03815 229.928 8.51015 229.816 7.88615 229.816ZM14.8267 246.4L22.7467 223.792H26.0827L18.1627 246.4H14.8267ZM31.8571 226.912C33.4091 226.912 34.7451 227.232 35.8651 227.872C36.9851 228.512 37.8491 229.448 38.4571 230.68C39.0651 231.896 39.3691 233.416 39.3691 235.24C39.3691 237.176 39.0011 238.816 38.2651 240.16C37.5451 241.504 36.5451 242.528 35.2651 243.232C33.9851 243.936 32.4971 244.288 30.8011 244.288C29.9211 244.288 29.0731 244.192 28.2571 244C27.4411 243.808 26.7371 243.52 26.1451 243.136L27.5851 240.28C28.0491 240.6 28.5451 240.824 29.0731 240.952C29.6011 241.064 30.1531 241.12 30.7291 241.12C32.1691 241.12 33.3131 240.68 34.1611 239.8C35.0251 238.92 35.4571 237.616 35.4571 235.888C35.4571 235.6 35.4491 235.28 35.4331 234.928C35.4171 234.576 35.3771 234.224 35.3131 233.872L36.3691 234.88C36.0971 235.504 35.7131 236.032 35.2171 236.464C34.7211 236.88 34.1451 237.2 33.4891 237.424C32.8331 237.632 32.0971 237.736 31.2811 237.736C30.2091 237.736 29.2331 237.52 28.3531 237.088C27.4891 236.656 26.7931 236.048 26.2651 235.264C25.7531 234.48 25.4971 233.56 25.4971 232.504C25.4971 231.352 25.7771 230.36 26.3371 229.528C26.9131 228.696 27.6811 228.056 28.6411 227.608C29.6171 227.144 30.6891 226.912 31.8571 226.912ZM32.0971 229.816C31.5371 229.816 31.0491 229.92 30.6331 230.128C30.2171 230.32 29.8891 230.608 29.6491 230.992C29.4091 231.36 29.2891 231.8 29.2891 232.312C29.2891 233.08 29.5451 233.696 30.0571 234.16C30.5851 234.608 31.2811 234.832 32.1451 234.832C32.7051 234.832 33.2011 234.728 33.6331 234.52C34.0811 234.296 34.4251 233.992 34.6651 233.608C34.9051 233.224 35.0251 232.792 35.0251 232.312C35.0251 231.832 34.9051 231.408 34.6651 231.04C34.4411 230.656 34.1131 230.36 33.6811 230.152C33.2491 229.928 32.7211 229.816 32.0971 229.816Z" fill="black"/>
<path d="M78.4478 7.78491C78.4478 3.64277 75.2136 0.284912 71.224 0.284912C67.2344 0.284912 64.0001 3.64277 64.0001 7.78491C64.0001 11.927 67.2344 15.2849 71.224 15.2849C75.2136 15.2849 78.4478 11.927 78.4478 7.78491Z" fill="black"/>
<path d="M70.776 174C74.7656 174 77.9999 177.357 77.9999 181.5C77.9999 185.642 74.7656 189 70.776 189C66.7863 189 63.5522 185.642 63.5522 181.5C63.5522 177.357 66.7863 174 70.776 174Z" fill="black"/>
<path d="M71 288.785V5.5" stroke="black" stroke-width="4.41953"/>
</g>
<defs>
<clipPath id="clip0_192_41">
<rect width="77.8955" height="288.5" fill="white" transform="translate(0.552246 0.284912)"/>
</clipPath>
</defs>
</svg>
