<svg width="90" height="482" viewBox="0 0 90 482" fill="none" xmlns="http://www.w3.org/2000/svg">
<circle cx="81.8384" cy="25.1904" r="7.5" transform="rotate(-90 81.8384 25.1904)" fill="black"/>
<circle cx="81.8384" cy="211.795" r="7.5" transform="rotate(-90 81.8384 211.795)" fill="black"/>
<line x1="81.7902" y1="482" x2="81.7903" y2="25" stroke="black" stroke-width="4.41953"/>
<path d="M13.1024 15.488C15.6504 15.488 17.6437 16.268 19.0824 17.828C20.5211 19.3707 21.2404 21.598 21.2404 24.51C21.2404 26.5727 20.8504 28.3407 20.0704 29.814C19.3077 31.2873 18.2244 32.4053 16.8204 33.168C15.4164 33.9307 13.7957 34.312 11.9584 34.312C10.9877 34.312 10.0604 34.208 9.17638 34C8.29238 33.7747 7.53838 33.4627 6.91438 33.064L8.47438 29.97C9.35838 30.5767 10.4937 30.88 11.8804 30.88C13.423 30.88 14.645 30.4293 15.5464 29.528C16.4477 28.6093 16.9331 27.292 17.0024 25.576C15.9104 26.668 14.4024 27.214 12.4784 27.214C11.317 27.214 10.2597 26.98 9.30638 26.512C8.35305 26.044 7.59905 25.3853 7.04438 24.536C6.48972 23.6693 6.21238 22.6727 6.21238 21.546C6.21238 20.3327 6.51572 19.2667 7.12238 18.348C7.72905 17.4293 8.55238 16.7273 9.59238 16.242C10.6497 15.7393 11.8197 15.488 13.1024 15.488ZM13.4144 24.068C14.3331 24.068 15.0784 23.8167 15.6504 23.314C16.2397 22.794 16.5344 22.1353 16.5344 21.338C16.5344 20.5407 16.2484 19.8907 15.6764 19.388C15.1217 18.8853 14.3504 18.634 13.3624 18.634C12.461 18.634 11.7244 18.8767 11.1524 19.362C10.5977 19.8473 10.3204 20.506 10.3204 21.338C10.3204 22.17 10.5977 22.8373 11.1524 23.34C11.7244 23.8253 12.4784 24.068 13.4144 24.068ZM29.4613 12.108H33.0753L24.4953 36.6H20.8813L29.4613 12.108ZM41.4369 23.21C43.0316 23.47 44.2536 24.068 45.1029 25.004C45.9522 25.9227 46.3769 27.0667 46.3769 28.436C46.3769 29.4933 46.0996 30.4727 45.5449 31.374C44.9902 32.258 44.1409 32.9687 42.9969 33.506C41.8702 34.0433 40.4836 34.312 38.8369 34.312C37.5542 34.312 36.2889 34.1473 35.0409 33.818C33.8102 33.4713 32.7616 32.986 31.8949 32.362L33.5329 29.138C34.2262 29.658 35.0236 30.0653 35.9249 30.36C36.8436 30.6373 37.7796 30.776 38.7329 30.776C39.7902 30.776 40.6222 30.5767 41.2289 30.178C41.8356 29.762 42.1389 29.1813 42.1389 28.436C42.1389 26.9453 41.0036 26.2 38.7329 26.2H36.8089V23.418L40.5529 19.18H32.8049V15.8H45.5449V18.53L41.4369 23.21ZM33.188 66.312L31.004 64.284C29.2707 65.636 27.2427 66.312 24.92 66.312C23.6027 66.312 22.4153 66.104 21.358 65.688C20.3007 65.2547 19.4687 64.6567 18.862 63.894C18.2727 63.1313 17.978 62.2733 17.978 61.32C17.978 60.1933 18.29 59.2053 18.914 58.356C19.5553 57.4893 20.578 56.666 21.982 55.886C21.3233 55.21 20.8467 54.5687 20.552 53.962C20.2573 53.338 20.11 52.6967 20.11 52.038C20.11 51.154 20.344 50.374 20.812 49.698C21.28 49.022 21.9387 48.502 22.788 48.138C23.6547 47.7567 24.6513 47.566 25.778 47.566C27.3553 47.566 28.6207 47.9473 29.574 48.71C30.5273 49.4553 31.004 50.4693 31.004 51.752C31.004 52.688 30.718 53.52 30.146 54.248C29.5913 54.976 28.69 55.678 27.442 56.354L30.77 59.448C31.1687 58.616 31.472 57.6713 31.68 56.614L34.93 57.628C34.5833 59.24 34.0287 60.618 33.266 61.762L35.398 63.738L33.188 66.312ZM25.778 50.322C25.1713 50.322 24.686 50.478 24.322 50.79C23.9753 51.102 23.802 51.5007 23.802 51.986C23.802 52.35 23.8973 52.6967 24.088 53.026C24.2787 53.338 24.6513 53.7627 25.206 54.3C26.09 53.832 26.7053 53.416 27.052 53.052C27.3987 52.6707 27.572 52.2633 27.572 51.83C27.572 51.3793 27.416 51.0153 27.104 50.738C26.792 50.4607 26.35 50.322 25.778 50.322ZM25.206 63.14C26.4713 63.14 27.6067 62.7847 28.612 62.074L24.218 57.966C23.4033 58.434 22.8227 58.8933 22.476 59.344C22.1293 59.7947 21.956 60.306 21.956 60.878C21.956 61.554 22.2507 62.1 22.84 62.516C23.4293 62.932 24.218 63.14 25.206 63.14ZM12.5565 79.488C15.1045 79.488 17.0978 80.268 18.5365 81.828C19.9752 83.3707 20.6945 85.598 20.6945 88.51C20.6945 90.5727 20.3045 92.3407 19.5245 93.814C18.7618 95.2873 17.6785 96.4053 16.2745 97.168C14.8705 97.9307 13.2498 98.312 11.4125 98.312C10.4418 98.312 9.51448 98.208 8.63048 98C7.74648 97.7747 6.99248 97.4627 6.36848 97.064L7.92848 93.97C8.81248 94.5767 9.94782 94.88 11.3345 94.88C12.8772 94.88 14.0992 94.4293 15.0005 93.528C15.9018 92.6093 16.3872 91.292 16.4565 89.576C15.3645 90.668 13.8565 91.214 11.9325 91.214C10.7712 91.214 9.71382 90.98 8.76048 90.512C7.80715 90.044 7.05315 89.3853 6.49848 88.536C5.94382 87.6693 5.66648 86.6727 5.66648 85.546C5.66648 84.3327 5.96982 83.2667 6.57648 82.348C7.18315 81.4293 8.00648 80.7273 9.04648 80.242C10.1038 79.7393 11.2738 79.488 12.5565 79.488ZM12.8685 88.068C13.7872 88.068 14.5325 87.8167 15.1045 87.314C15.6938 86.794 15.9885 86.1353 15.9885 85.338C15.9885 84.5407 15.7025 83.8907 15.1305 83.388C14.5758 82.8853 13.8045 82.634 12.8165 82.634C11.9152 82.634 11.1785 82.8767 10.6065 83.362C10.0518 83.8473 9.77448 84.506 9.77448 85.338C9.77448 86.17 10.0518 86.8373 10.6065 87.34C11.1785 87.8253 11.9325 88.068 12.8685 88.068ZM28.9154 76.108H32.5294L23.9494 100.6H20.3354L28.9154 76.108ZM44.1575 88.432C45.0588 88.8827 45.7435 89.472 46.2115 90.2C46.6968 90.928 46.9395 91.7687 46.9395 92.722C46.9395 93.8487 46.6188 94.8367 45.9775 95.686C45.3361 96.518 44.4348 97.168 43.2735 97.636C42.1121 98.0867 40.7688 98.312 39.2435 98.312C37.7181 98.312 36.3748 98.0867 35.2135 97.636C34.0695 97.168 33.1768 96.518 32.5355 95.686C31.9115 94.8367 31.5995 93.8487 31.5995 92.722C31.5995 91.7687 31.8335 90.928 32.3015 90.2C32.7868 89.472 33.4715 88.8827 34.3555 88.432C33.6795 88.016 33.1595 87.496 32.7955 86.872C32.4315 86.2307 32.2495 85.5027 32.2495 84.688C32.2495 83.6307 32.5441 82.712 33.1335 81.932C33.7228 81.152 34.5461 80.554 35.6035 80.138C36.6608 79.7047 37.8741 79.488 39.2435 79.488C40.6301 79.488 41.8521 79.7047 42.9095 80.138C43.9841 80.554 44.8161 81.152 45.4055 81.932C45.9948 82.712 46.2895 83.6307 46.2895 84.688C46.2895 85.5027 46.1075 86.2307 45.7435 86.872C45.3795 87.496 44.8508 88.016 44.1575 88.432ZM39.2435 82.582C38.3941 82.582 37.7095 82.79 37.1895 83.206C36.6868 83.6047 36.4355 84.1593 36.4355 84.87C36.4355 85.5633 36.6868 86.1093 37.1895 86.508C37.6921 86.9067 38.3768 87.106 39.2435 87.106C40.1101 87.106 40.8035 86.9067 41.3235 86.508C41.8435 86.1093 42.1035 85.5633 42.1035 84.87C42.1035 84.1593 41.8435 83.6047 41.3235 83.206C40.8035 82.79 40.1101 82.582 39.2435 82.582ZM39.2435 95.218C40.3008 95.218 41.1328 94.984 41.7395 94.516C42.3635 94.0307 42.6755 93.3893 42.6755 92.592C42.6755 91.7947 42.3635 91.162 41.7395 90.694C41.1328 90.226 40.3008 89.992 39.2435 89.992C38.2035 89.992 37.3801 90.226 36.7735 90.694C36.1668 91.162 35.8635 91.7947 35.8635 92.592C35.8635 93.4067 36.1668 94.048 36.7735 94.516C37.3801 94.984 38.2035 95.218 39.2435 95.218Z" fill="#202020"/>
<path d="M12.5184 206.488C15.0664 206.488 17.0597 207.268 18.4984 208.828C19.9371 210.371 20.6564 212.598 20.6564 215.51C20.6564 217.573 20.2664 219.341 19.4864 220.814C18.7237 222.287 17.6404 223.405 16.2364 224.168C14.8324 224.931 13.2117 225.312 11.3744 225.312C10.4037 225.312 9.4764 225.208 8.5924 225C7.7084 224.775 6.9544 224.463 6.3304 224.064L7.8904 220.97C8.7744 221.577 9.90973 221.88 11.2964 221.88C12.8391 221.88 14.0611 221.429 14.9624 220.528C15.8637 219.609 16.3491 218.292 16.4184 216.576C15.3264 217.668 13.8184 218.214 11.8944 218.214C10.7331 218.214 9.67573 217.98 8.7224 217.512C7.76907 217.044 7.01507 216.385 6.4604 215.536C5.90573 214.669 5.6284 213.673 5.6284 212.546C5.6284 211.333 5.93173 210.267 6.5384 209.348C7.14507 208.429 7.9684 207.727 9.0084 207.242C10.0657 206.739 11.2357 206.488 12.5184 206.488ZM12.8304 215.068C13.7491 215.068 14.4944 214.817 15.0664 214.314C15.6557 213.794 15.9504 213.135 15.9504 212.338C15.9504 211.541 15.6644 210.891 15.0924 210.388C14.5377 209.885 13.7664 209.634 12.7784 209.634C11.8771 209.634 11.1404 209.877 10.5684 210.362C10.0137 210.847 9.7364 211.506 9.7364 212.338C9.7364 213.17 10.0137 213.837 10.5684 214.34C11.1404 214.825 11.8944 215.068 12.8304 215.068ZM28.8773 203.108H32.4913L23.9113 227.6H20.2973L28.8773 203.108ZM38.7469 206.488C41.2949 206.488 43.2882 207.268 44.7269 208.828C46.1656 210.371 46.8849 212.598 46.8849 215.51C46.8849 217.573 46.4949 219.341 45.7149 220.814C44.9522 222.287 43.8689 223.405 42.4649 224.168C41.0609 224.931 39.4402 225.312 37.6029 225.312C36.6322 225.312 35.7049 225.208 34.8209 225C33.9369 224.775 33.1829 224.463 32.5589 224.064L34.1189 220.97C35.0029 221.577 36.1382 221.88 37.5249 221.88C39.0676 221.88 40.2896 221.429 41.1909 220.528C42.0922 219.609 42.5776 218.292 42.6469 216.576C41.5549 217.668 40.0469 218.214 38.1229 218.214C36.9616 218.214 35.9042 217.98 34.9509 217.512C33.9976 217.044 33.2436 216.385 32.6889 215.536C32.1342 214.669 31.8569 213.673 31.8569 212.546C31.8569 211.333 32.1602 210.267 32.7669 209.348C33.3736 208.429 34.1969 207.727 35.2369 207.242C36.2942 206.739 37.4642 206.488 38.7469 206.488ZM39.0589 215.068C39.9776 215.068 40.7229 214.817 41.2949 214.314C41.8842 213.794 42.1789 213.135 42.1789 212.338C42.1789 211.541 41.8929 210.891 41.3209 210.388C40.7662 209.885 39.9949 209.634 39.0069 209.634C38.1056 209.634 37.3689 209.877 36.7969 210.362C36.2422 210.847 35.9649 211.506 35.9649 212.338C35.9649 213.17 36.2422 213.837 36.7969 214.34C37.3689 214.825 38.1229 215.068 39.0589 215.068ZM22.8374 242.056H30.1954V245.306H22.8374V242.056ZM7.61801 258.488C10.166 258.488 12.1593 259.268 13.598 260.828C15.0367 262.371 15.756 264.598 15.756 267.51C15.756 269.573 15.366 271.341 14.586 272.814C13.8233 274.287 12.74 275.405 11.336 276.168C9.93201 276.931 8.31134 277.312 6.47401 277.312C5.50334 277.312 4.57601 277.208 3.69201 277C2.80801 276.775 2.05401 276.463 1.43001 276.064L2.99001 272.97C3.87401 273.577 5.00934 273.88 6.39601 273.88C7.93867 273.88 9.16067 273.429 10.062 272.528C10.9633 271.609 11.4487 270.292 11.518 268.576C10.426 269.668 8.91801 270.214 6.99401 270.214C5.83267 270.214 4.77534 269.98 3.82201 269.512C2.86867 269.044 2.11467 268.385 1.56001 267.536C1.00534 266.669 0.728008 265.673 0.728008 264.546C0.728008 263.333 1.03134 262.267 1.63801 261.348C2.24467 260.429 3.06801 259.727 4.10801 259.242C5.16534 258.739 6.33534 258.488 7.61801 258.488ZM7.93001 267.068C8.84868 267.068 9.59401 266.817 10.166 266.314C10.7553 265.794 11.05 265.135 11.05 264.338C11.05 263.541 10.764 262.891 10.192 262.388C9.63734 261.885 8.86601 261.634 7.87801 261.634C6.97667 261.634 6.24001 261.877 5.66801 262.362C5.11334 262.847 4.83601 263.506 4.83601 264.338C4.83601 265.17 5.11334 265.837 5.66801 266.34C6.24001 266.825 6.99401 267.068 7.93001 267.068ZM23.9769 255.108H27.5909L19.0109 279.6H15.3969L23.9769 255.108ZM35.2576 258.8V277H31.0456V262.18H27.4056V258.8H35.2576ZM46.9213 266.21C48.5159 266.47 49.7379 267.068 50.5873 268.004C51.4366 268.923 51.8613 270.067 51.8613 271.436C51.8613 272.493 51.5839 273.473 51.0293 274.374C50.4746 275.258 49.6253 275.969 48.4813 276.506C47.3546 277.043 45.9679 277.312 44.3213 277.312C43.0386 277.312 41.7733 277.147 40.5253 276.818C39.2946 276.471 38.2459 275.986 37.3793 275.362L39.0173 272.138C39.7106 272.658 40.5079 273.065 41.4093 273.36C42.3279 273.637 43.2639 273.776 44.2173 273.776C45.2746 273.776 46.1066 273.577 46.7133 273.178C47.3199 272.762 47.6233 272.181 47.6233 271.436C47.6233 269.945 46.4879 269.2 44.2173 269.2H42.2933V266.418L46.0373 262.18H38.2893V258.8H51.0293V261.53L46.9213 266.21Z" fill="#202020"/>
</svg>
