<svg width="90" height="381" viewBox="0 0 90 381" fill="none" xmlns="http://www.w3.org/2000/svg">
<circle cx="81.8384" cy="13.1904" r="7.5" transform="rotate(-90 81.8384 13.1904)" fill="#202020"/>
<circle cx="81.8384" cy="218.795" r="7.5" transform="rotate(-90 81.8384 218.795)" fill="#202020"/>
<line x1="81.7902" y1="381" x2="81.7903" y2="8" stroke="#202020" stroke-width="4.41953"/>
<path d="M12.5184 213.488C15.0664 213.488 17.0597 214.268 18.4984 215.828C19.9371 217.371 20.6564 219.598 20.6564 222.51C20.6564 224.573 20.2664 226.341 19.4864 227.814C18.7237 229.287 17.6404 230.405 16.2364 231.168C14.8324 231.931 13.2117 232.312 11.3744 232.312C10.4037 232.312 9.4764 232.208 8.5924 232C7.7084 231.775 6.9544 231.463 6.3304 231.064L7.8904 227.97C8.7744 228.577 9.90973 228.88 11.2964 228.88C12.8391 228.88 14.0611 228.429 14.9624 227.528C15.8637 226.609 16.3491 225.292 16.4184 223.576C15.3264 224.668 13.8184 225.214 11.8944 225.214C10.7331 225.214 9.67573 224.98 8.7224 224.512C7.76907 224.044 7.01507 223.385 6.4604 222.536C5.90573 221.669 5.6284 220.673 5.6284 219.546C5.6284 218.333 5.93173 217.267 6.5384 216.348C7.14507 215.429 7.9684 214.727 9.0084 214.242C10.0657 213.739 11.2357 213.488 12.5184 213.488ZM12.8304 222.068C13.7491 222.068 14.4944 221.817 15.0664 221.314C15.6557 220.794 15.9504 220.135 15.9504 219.338C15.9504 218.541 15.6644 217.891 15.0924 217.388C14.5377 216.885 13.7664 216.634 12.7784 216.634C11.8771 216.634 11.1404 216.877 10.5684 217.362C10.0137 217.847 9.7364 218.506 9.7364 219.338C9.7364 220.17 10.0137 220.837 10.5684 221.34C11.1404 221.825 11.8944 222.068 12.8304 222.068ZM28.8773 210.108H32.4913L23.9113 234.6H20.2973L28.8773 210.108ZM38.7469 213.488C41.2949 213.488 43.2882 214.268 44.7269 215.828C46.1656 217.371 46.8849 219.598 46.8849 222.51C46.8849 224.573 46.4949 226.341 45.7149 227.814C44.9522 229.287 43.8689 230.405 42.4649 231.168C41.0609 231.931 39.4402 232.312 37.6029 232.312C36.6322 232.312 35.7049 232.208 34.8209 232C33.9369 231.775 33.1829 231.463 32.5589 231.064L34.1189 227.97C35.0029 228.577 36.1382 228.88 37.5249 228.88C39.0676 228.88 40.2896 228.429 41.1909 227.528C42.0922 226.609 42.5776 225.292 42.6469 223.576C41.5549 224.668 40.0469 225.214 38.1229 225.214C36.9616 225.214 35.9042 224.98 34.9509 224.512C33.9976 224.044 33.2436 223.385 32.6889 222.536C32.1342 221.669 31.8569 220.673 31.8569 219.546C31.8569 218.333 32.1602 217.267 32.7669 216.348C33.3736 215.429 34.1969 214.727 35.2369 214.242C36.2942 213.739 37.4642 213.488 38.7469 213.488ZM39.0589 222.068C39.9776 222.068 40.7229 221.817 41.2949 221.314C41.8842 220.794 42.1789 220.135 42.1789 219.338C42.1789 218.541 41.8929 217.891 41.3209 217.388C40.7662 216.885 39.9949 216.634 39.0069 216.634C38.1056 216.634 37.3689 216.877 36.7969 217.362C36.2422 217.847 35.9649 218.506 35.9649 219.338C35.9649 220.17 36.2422 220.837 36.7969 221.34C37.3689 221.825 38.1229 222.068 39.0589 222.068ZM22.8374 249.056H30.1954V252.306H22.8374V249.056ZM7.61801 265.488C10.166 265.488 12.1593 266.268 13.598 267.828C15.0367 269.371 15.756 271.598 15.756 274.51C15.756 276.573 15.366 278.341 14.586 279.814C13.8233 281.287 12.74 282.405 11.336 283.168C9.93201 283.931 8.31134 284.312 6.47401 284.312C5.50334 284.312 4.57601 284.208 3.69201 284C2.80801 283.775 2.05401 283.463 1.43001 283.064L2.99001 279.97C3.87401 280.577 5.00934 280.88 6.39601 280.88C7.93867 280.88 9.16067 280.429 10.062 279.528C10.9633 278.609 11.4487 277.292 11.518 275.576C10.426 276.668 8.91801 277.214 6.99401 277.214C5.83267 277.214 4.77534 276.98 3.82201 276.512C2.86867 276.044 2.11467 275.385 1.56001 274.536C1.00534 273.669 0.728008 272.673 0.728008 271.546C0.728008 270.333 1.03134 269.267 1.63801 268.348C2.24467 267.429 3.06801 266.727 4.10801 266.242C5.16534 265.739 6.33534 265.488 7.61801 265.488ZM7.93001 274.068C8.84868 274.068 9.59401 273.817 10.166 273.314C10.7553 272.794 11.05 272.135 11.05 271.338C11.05 270.541 10.764 269.891 10.192 269.388C9.63734 268.885 8.86601 268.634 7.87801 268.634C6.97667 268.634 6.24001 268.877 5.66801 269.362C5.11334 269.847 4.83601 270.506 4.83601 271.338C4.83601 272.17 5.11334 272.837 5.66801 273.34C6.24001 273.825 6.99401 274.068 7.93001 274.068ZM23.9769 262.108H27.5909L19.0109 286.6H15.3969L23.9769 262.108ZM35.2576 265.8V284H31.0456V269.18H27.4056V265.8H35.2576ZM46.9213 273.21C48.5159 273.47 49.7379 274.068 50.5873 275.004C51.4366 275.923 51.8613 277.067 51.8613 278.436C51.8613 279.493 51.5839 280.473 51.0293 281.374C50.4746 282.258 49.6253 282.969 48.4813 283.506C47.3546 284.043 45.9679 284.312 44.3213 284.312C43.0386 284.312 41.7733 284.147 40.5253 283.818C39.2946 283.471 38.2459 282.986 37.3793 282.362L39.0173 279.138C39.7106 279.658 40.5079 280.065 41.4093 280.36C42.3279 280.637 43.2639 280.776 44.2173 280.776C45.2746 280.776 46.1066 280.577 46.7133 280.178C47.3199 279.762 47.6233 279.181 47.6233 278.436C47.6233 276.945 46.4879 276.2 44.2173 276.2H42.2933V273.418L46.0373 269.18H38.2893V265.8H51.0293V268.53L46.9213 273.21Z" fill="#202020"/>
<path d="M14.1024 6.488C16.6504 6.488 18.6437 7.268 20.0824 8.828C21.5211 10.3707 22.2404 12.598 22.2404 15.51C22.2404 17.5727 21.8504 19.3407 21.0704 20.814C20.3077 22.2873 19.2244 23.4053 17.8204 24.168C16.4164 24.9307 14.7957 25.312 12.9584 25.312C11.9877 25.312 11.0604 25.208 10.1764 25C9.29238 24.7747 8.53838 24.4627 7.91438 24.064L9.47438 20.97C10.3584 21.5767 11.4937 21.88 12.8804 21.88C14.423 21.88 15.645 21.4293 16.5464 20.528C17.4477 19.6093 17.9331 18.292 18.0024 16.576C16.9104 17.668 15.4024 18.214 13.4784 18.214C12.317 18.214 11.2597 17.98 10.3064 17.512C9.35305 17.044 8.59905 16.3853 8.04438 15.536C7.48972 14.6693 7.21238 13.6727 7.21238 12.546C7.21238 11.3327 7.51572 10.2667 8.12238 9.348C8.72905 8.42933 9.55238 7.72733 10.5924 7.242C11.6497 6.73933 12.8197 6.488 14.1024 6.488ZM14.4144 15.068C15.3331 15.068 16.0784 14.8167 16.6504 14.314C17.2397 13.794 17.5344 13.1353 17.5344 12.338C17.5344 11.5407 17.2484 10.8907 16.6764 10.388C16.1217 9.88533 15.3504 9.634 14.3624 9.634C13.461 9.634 12.7244 9.87667 12.1524 10.362C11.5977 10.8473 11.3204 11.506 11.3204 12.338C11.3204 13.17 11.5977 13.8373 12.1524 14.34C12.7244 14.8253 13.4784 15.068 14.4144 15.068ZM30.4613 3.108H34.0753L25.4953 27.6H21.8813L30.4613 3.108ZM42.4369 14.21C44.0316 14.47 45.2536 15.068 46.1029 16.004C46.9522 16.9227 47.3769 18.0667 47.3769 19.436C47.3769 20.4933 47.0996 21.4727 46.5449 22.374C45.9902 23.258 45.1409 23.9687 43.9969 24.506C42.8702 25.0433 41.4836 25.312 39.8369 25.312C38.5542 25.312 37.2889 25.1473 36.0409 24.818C34.8102 24.4713 33.7616 23.986 32.8949 23.362L34.5329 20.138C35.2262 20.658 36.0236 21.0653 36.9249 21.36C37.8436 21.6373 38.7796 21.776 39.7329 21.776C40.7902 21.776 41.6222 21.5767 42.2289 21.178C42.8356 20.762 43.1389 20.1813 43.1389 19.436C43.1389 17.9453 42.0036 17.2 39.7329 17.2H37.8089V14.418L41.5529 10.18H33.8049V6.8H46.5449V9.53L42.4369 14.21ZM34.188 57.312L32.004 55.284C30.2707 56.636 28.2427 57.312 25.92 57.312C24.6027 57.312 23.4153 57.104 22.358 56.688C21.3007 56.2547 20.4687 55.6567 19.862 54.894C19.2727 54.1313 18.978 53.2733 18.978 52.32C18.978 51.1933 19.29 50.2053 19.914 49.356C20.5553 48.4893 21.578 47.666 22.982 46.886C22.3233 46.21 21.8467 45.5687 21.552 44.962C21.2573 44.338 21.11 43.6967 21.11 43.038C21.11 42.154 21.344 41.374 21.812 40.698C22.28 40.022 22.9387 39.502 23.788 39.138C24.6547 38.7567 25.6513 38.566 26.778 38.566C28.3553 38.566 29.6207 38.9473 30.574 39.71C31.5273 40.4553 32.004 41.4693 32.004 42.752C32.004 43.688 31.718 44.52 31.146 45.248C30.5913 45.976 29.69 46.678 28.442 47.354L31.77 50.448C32.1687 49.616 32.472 48.6713 32.68 47.614L35.93 48.628C35.5833 50.24 35.0287 51.618 34.266 52.762L36.398 54.738L34.188 57.312ZM26.778 41.322C26.1713 41.322 25.686 41.478 25.322 41.79C24.9753 42.102 24.802 42.5007 24.802 42.986C24.802 43.35 24.8973 43.6967 25.088 44.026C25.2787 44.338 25.6513 44.7627 26.206 45.3C27.09 44.832 27.7053 44.416 28.052 44.052C28.3987 43.6707 28.572 43.2633 28.572 42.83C28.572 42.3793 28.416 42.0153 28.104 41.738C27.792 41.4607 27.35 41.322 26.778 41.322ZM26.206 54.14C27.4713 54.14 28.6067 53.7847 29.612 53.074L25.218 48.966C24.4033 49.434 23.8227 49.8933 23.476 50.344C23.1293 50.7947 22.956 51.306 22.956 51.878C22.956 52.554 23.2507 53.1 23.84 53.516C24.4293 53.932 25.218 54.14 26.206 54.14ZM13.5565 70.488C16.1045 70.488 18.0978 71.268 19.5365 72.828C20.9752 74.3707 21.6945 76.598 21.6945 79.51C21.6945 81.5727 21.3045 83.3407 20.5245 84.814C19.7618 86.2873 18.6785 87.4053 17.2745 88.168C15.8705 88.9307 14.2498 89.312 12.4125 89.312C11.4418 89.312 10.5145 89.208 9.63048 89C8.74648 88.7747 7.99248 88.4627 7.36848 88.064L8.92848 84.97C9.81248 85.5767 10.9478 85.88 12.3345 85.88C13.8772 85.88 15.0992 85.4293 16.0005 84.528C16.9018 83.6093 17.3872 82.292 17.4565 80.576C16.3645 81.668 14.8565 82.214 12.9325 82.214C11.7712 82.214 10.7138 81.98 9.76048 81.512C8.80715 81.044 8.05315 80.3853 7.49848 79.536C6.94382 78.6693 6.66648 77.6727 6.66648 76.546C6.66648 75.3327 6.96982 74.2667 7.57648 73.348C8.18315 72.4293 9.00648 71.7273 10.0465 71.242C11.1038 70.7393 12.2738 70.488 13.5565 70.488ZM13.8685 79.068C14.7872 79.068 15.5325 78.8167 16.1045 78.314C16.6938 77.794 16.9885 77.1353 16.9885 76.338C16.9885 75.5407 16.7025 74.8907 16.1305 74.388C15.5758 73.8853 14.8045 73.634 13.8165 73.634C12.9152 73.634 12.1785 73.8767 11.6065 74.362C11.0518 74.8473 10.7745 75.506 10.7745 76.338C10.7745 77.17 11.0518 77.8373 11.6065 78.34C12.1785 78.8253 12.9325 79.068 13.8685 79.068ZM29.9154 67.108H33.5294L24.9494 91.6H21.3354L29.9154 67.108ZM45.1575 79.432C46.0588 79.8827 46.7435 80.472 47.2115 81.2C47.6968 81.928 47.9395 82.7687 47.9395 83.722C47.9395 84.8487 47.6188 85.8367 46.9775 86.686C46.3361 87.518 45.4348 88.168 44.2735 88.636C43.1121 89.0867 41.7688 89.312 40.2435 89.312C38.7181 89.312 37.3748 89.0867 36.2135 88.636C35.0695 88.168 34.1768 87.518 33.5355 86.686C32.9115 85.8367 32.5995 84.8487 32.5995 83.722C32.5995 82.7687 32.8335 81.928 33.3015 81.2C33.7868 80.472 34.4715 79.8827 35.3555 79.432C34.6795 79.016 34.1595 78.496 33.7955 77.872C33.4315 77.2307 33.2495 76.5027 33.2495 75.688C33.2495 74.6307 33.5441 73.712 34.1335 72.932C34.7228 72.152 35.5461 71.554 36.6035 71.138C37.6608 70.7047 38.8741 70.488 40.2435 70.488C41.6301 70.488 42.8521 70.7047 43.9095 71.138C44.9841 71.554 45.8161 72.152 46.4055 72.932C46.9948 73.712 47.2895 74.6307 47.2895 75.688C47.2895 76.5027 47.1075 77.2307 46.7435 77.872C46.3795 78.496 45.8508 79.016 45.1575 79.432ZM40.2435 73.582C39.3941 73.582 38.7095 73.79 38.1895 74.206C37.6868 74.6047 37.4355 75.1593 37.4355 75.87C37.4355 76.5633 37.6868 77.1093 38.1895 77.508C38.6921 77.9067 39.3768 78.106 40.2435 78.106C41.1101 78.106 41.8035 77.9067 42.3235 77.508C42.8435 77.1093 43.1035 76.5633 43.1035 75.87C43.1035 75.1593 42.8435 74.6047 42.3235 74.206C41.8035 73.79 41.1101 73.582 40.2435 73.582ZM40.2435 86.218C41.3008 86.218 42.1328 85.984 42.7395 85.516C43.3635 85.0307 43.6755 84.3893 43.6755 83.592C43.6755 82.7947 43.3635 82.162 42.7395 81.694C42.1328 81.226 41.3008 80.992 40.2435 80.992C39.2035 80.992 38.3801 81.226 37.7735 81.694C37.1668 82.162 36.8635 82.7947 36.8635 83.592C36.8635 84.4067 37.1668 85.048 37.7735 85.516C38.3801 85.984 39.2035 86.218 40.2435 86.218Z" fill="#202020"/>
</svg>
