<svg width="95" height="288" viewBox="0 0 95 288" fill="none" xmlns="http://www.w3.org/2000/svg">
<circle cx="87.5" cy="7.5" r="7.5" transform="rotate(-90 87.5 7.5)" fill="black"/>
<path d="M86.8682 159.974C91.0103 159.974 94.3682 163.331 94.3682 167.474C94.3682 171.616 91.0103 174.974 86.8682 174.974C82.726 174.974 79.3682 171.616 79.3682 167.474C79.3682 163.331 82.726 159.974 86.8682 159.974Z" fill="black"/>
<line x1="86.7902" y1="288" x2="86.7902" y2="8" stroke="black" stroke-width="4.41953"/>
<path d="M8.11801 3.488C10.666 3.488 12.6593 4.268 14.098 5.828C15.5367 7.37067 16.256 9.598 16.256 12.51C16.256 14.5727 15.866 16.3407 15.086 17.814C14.3233 19.2873 13.24 20.4053 11.836 21.168C10.432 21.9307 8.81134 22.312 6.97401 22.312C6.00334 22.312 5.07601 22.208 4.19201 22C3.30801 21.7747 2.55401 21.4627 1.93001 21.064L3.49001 17.97C4.37401 18.5767 5.50934 18.88 6.89601 18.88C8.43867 18.88 9.66067 18.4293 10.562 17.528C11.4633 16.6093 11.9487 15.292 12.018 13.576C10.926 14.668 9.41801 15.214 7.49401 15.214C6.33267 15.214 5.27534 14.98 4.32201 14.512C3.36867 14.044 2.61467 13.3853 2.06001 12.536C1.50534 11.6693 1.22801 10.6727 1.22801 9.546C1.22801 8.33267 1.53134 7.26667 2.13801 6.348C2.74467 5.42933 3.56801 4.72733 4.60801 4.242C5.66534 3.73933 6.83534 3.488 8.11801 3.488ZM8.43001 12.068C9.34868 12.068 10.094 11.8167 10.666 11.314C11.2553 10.794 11.55 10.1353 11.55 9.338C11.55 8.54067 11.264 7.89067 10.692 7.388C10.1373 6.88533 9.36601 6.634 8.37801 6.634C7.47667 6.634 6.74001 6.87667 6.16801 7.362C5.61334 7.84733 5.33601 8.506 5.33601 9.338C5.33601 10.17 5.61334 10.8373 6.16801 11.34C6.74001 11.8253 7.49401 12.068 8.43001 12.068ZM24.4769 0.107998H28.0909L19.5109 24.6H15.8969L24.4769 0.107998ZM35.7576 3.8V22H31.5456V7.18H27.9056V3.8H35.7576ZM47.4213 11.21C49.0159 11.47 50.2379 12.068 51.0873 13.004C51.9366 13.9227 52.3613 15.0667 52.3613 16.436C52.3613 17.4933 52.0839 18.4727 51.5293 19.374C50.9746 20.258 50.1253 20.9687 48.9813 21.506C47.8546 22.0433 46.4679 22.312 44.8213 22.312C43.5386 22.312 42.2733 22.1473 41.0253 21.818C39.7946 21.4713 38.7459 20.986 37.8793 20.362L39.5173 17.138C40.2106 17.658 41.0079 18.0653 41.9093 18.36C42.8279 18.6373 43.7639 18.776 44.7173 18.776C45.7746 18.776 46.6066 18.5767 47.2133 18.178C47.8199 17.762 48.1233 17.1813 48.1233 16.436C48.1233 14.9453 46.9879 14.2 44.7173 14.2H42.7933V11.418L46.5373 7.18H38.7893V3.8H51.5293V6.53L47.4213 11.21ZM27.019 39.056H34.377V42.306H27.019V39.056ZM7.53402 55.488C10.082 55.488 12.0754 56.268 13.514 57.828C14.9527 59.3707 15.672 61.598 15.672 64.51C15.672 66.5727 15.282 68.3407 14.502 69.814C13.7394 71.2873 12.656 72.4053 11.252 73.168C9.84802 73.9307 8.22736 74.312 6.39002 74.312C5.41936 74.312 4.49202 74.208 3.60802 74C2.72402 73.7747 1.97002 73.4627 1.34602 73.064L2.90602 69.97C3.79002 70.5767 4.92536 70.88 6.31202 70.88C7.85469 70.88 9.07669 70.4293 9.97802 69.528C10.8794 68.6093 11.3647 67.292 11.434 65.576C10.342 66.668 8.83402 67.214 6.91002 67.214C5.74869 67.214 4.69136 66.98 3.73802 66.512C2.78469 66.044 2.03069 65.3853 1.47602 64.536C0.921357 63.6693 0.644023 62.6727 0.644023 61.546C0.644023 60.3327 0.947357 59.2667 1.55402 58.348C2.16069 57.4293 2.98402 56.7273 4.02402 56.242C5.08136 55.7393 6.25136 55.488 7.53402 55.488ZM7.84602 64.068C8.76469 64.068 9.51002 63.8167 10.082 63.314C10.6714 62.794 10.966 62.1353 10.966 61.338C10.966 60.5407 10.68 59.8907 10.108 59.388C9.55336 58.8853 8.78202 58.634 7.79402 58.634C6.89269 58.634 6.15602 58.8767 5.58402 59.362C5.02936 59.8473 4.75202 60.506 4.75202 61.338C4.75202 62.17 5.02936 62.8373 5.58402 63.34C6.15602 63.8253 6.91002 64.068 7.84602 64.068ZM23.8929 52.108H27.5069L18.9269 76.6H15.3129L23.8929 52.108ZM35.1736 55.8V74H30.9616V59.18H27.3216V55.8H35.1736ZM47.0973 62.586C48.2586 62.586 49.316 62.82 50.2693 63.288C51.2226 63.756 51.9766 64.4233 52.5313 65.29C53.086 66.1393 53.3633 67.1273 53.3633 68.254C53.3633 69.4673 53.06 70.5333 52.4533 71.452C51.8466 72.3707 51.0146 73.0813 49.9573 73.584C48.9173 74.0693 47.756 74.312 46.4733 74.312C43.9253 74.312 41.932 73.532 40.4933 71.972C39.0546 70.412 38.3353 68.1847 38.3353 65.29C38.3353 63.2273 38.7253 61.4593 39.5053 59.986C40.2853 58.5127 41.3686 57.3947 42.7553 56.632C44.1593 55.8693 45.78 55.488 47.6173 55.488C48.588 55.488 49.5153 55.6007 50.3993 55.826C51.3006 56.034 52.0633 56.3373 52.6873 56.736L51.1273 59.83C50.226 59.2233 49.0906 58.92 47.7213 58.92C46.1786 58.92 44.9566 59.3707 44.0553 60.272C43.154 61.1733 42.6686 62.482 42.5993 64.198C43.674 63.1233 45.1733 62.586 47.0973 62.586ZM46.2393 71.166C47.1406 71.166 47.8686 70.9233 48.4233 70.438C48.9953 69.9527 49.2813 69.294 49.2813 68.462C49.2813 67.63 48.9953 66.9713 48.4233 66.486C47.8686 65.9833 47.1233 65.732 46.1873 65.732C45.2686 65.732 44.5146 65.992 43.9253 66.512C43.336 67.0147 43.0413 67.6647 43.0413 68.462C43.0413 69.2593 43.3273 69.9093 43.8993 70.412C44.4713 70.9147 45.2513 71.166 46.2393 71.166Z" fill="#202020"/>
<path d="M7.74984 162.488C10.2978 162.488 12.2912 163.268 13.7298 164.828C15.1685 166.371 15.8878 168.598 15.8878 171.51C15.8878 173.573 15.4978 175.341 14.7178 176.814C13.9552 178.287 12.8718 179.405 11.4678 180.168C10.0638 180.931 8.44318 181.312 6.60584 181.312C5.63518 181.312 4.70784 181.208 3.82384 181C2.93984 180.775 2.18584 180.463 1.56184 180.064L3.12184 176.97C4.00584 177.577 5.14118 177.88 6.52784 177.88C8.07051 177.88 9.29251 177.429 10.1938 176.528C11.0952 175.609 11.5805 174.292 11.6498 172.576C10.5578 173.668 9.04984 174.214 7.12584 174.214C5.96451 174.214 4.90718 173.98 3.95384 173.512C3.00051 173.044 2.24651 172.385 1.69184 171.536C1.13718 170.669 0.859844 169.673 0.859844 168.546C0.859844 167.333 1.16318 166.267 1.76984 165.348C2.37651 164.429 3.19984 163.727 4.23984 163.242C5.29718 162.739 6.46718 162.488 7.74984 162.488ZM8.06184 171.068C8.98051 171.068 9.72584 170.817 10.2978 170.314C10.8872 169.794 11.1818 169.135 11.1818 168.338C11.1818 167.541 10.8958 166.891 10.3238 166.388C9.76918 165.885 8.99784 165.634 8.00984 165.634C7.10851 165.634 6.37184 165.877 5.79984 166.362C5.24518 166.847 4.96784 167.506 4.96784 168.338C4.96784 169.17 5.24518 169.837 5.79984 170.34C6.37184 170.825 7.12584 171.068 8.06184 171.068ZM24.1087 159.108H27.7227L19.1427 183.6H15.5287L24.1087 159.108ZM35.3895 162.8V181H31.1775V166.18H27.5375V162.8H35.3895ZM52.7991 162.8V165.53L46.0391 181H41.4631L47.9891 166.232H41.9571V169.196H38.2131V162.8H52.7991ZM23.3374 198.056H30.6954V201.306H23.3374V198.056ZM7.53402 214.488C10.082 214.488 12.0754 215.268 13.514 216.828C14.9527 218.371 15.672 220.598 15.672 223.51C15.672 225.573 15.282 227.341 14.502 228.814C13.7394 230.287 12.656 231.405 11.252 232.168C9.84802 232.931 8.22736 233.312 6.39002 233.312C5.41936 233.312 4.49202 233.208 3.60802 233C2.72402 232.775 1.97002 232.463 1.34602 232.064L2.90602 228.97C3.79002 229.577 4.92536 229.88 6.31202 229.88C7.85469 229.88 9.07669 229.429 9.97802 228.528C10.8794 227.609 11.3647 226.292 11.434 224.576C10.342 225.668 8.83402 226.214 6.91002 226.214C5.74869 226.214 4.69136 225.98 3.73802 225.512C2.78469 225.044 2.03069 224.385 1.47602 223.536C0.921357 222.669 0.644023 221.673 0.644023 220.546C0.644023 219.333 0.947357 218.267 1.55402 217.348C2.16069 216.429 2.98402 215.727 4.02402 215.242C5.08136 214.739 6.25136 214.488 7.53402 214.488ZM7.84602 223.068C8.76469 223.068 9.51002 222.817 10.082 222.314C10.6714 221.794 10.966 221.135 10.966 220.338C10.966 219.541 10.68 218.891 10.108 218.388C9.55336 217.885 8.78202 217.634 7.79402 217.634C6.89269 217.634 6.15602 217.877 5.58402 218.362C5.02936 218.847 4.75202 219.506 4.75202 220.338C4.75202 221.17 5.02936 221.837 5.58402 222.34C6.15602 222.825 6.91002 223.068 7.84602 223.068ZM23.8929 211.108H27.5069L18.9269 235.6H15.3129L23.8929 211.108ZM35.1736 214.8V233H30.9616V218.18H27.3216V214.8H35.1736ZM44.7313 214.488C47.2793 214.488 49.2726 215.268 50.7113 216.828C52.15 218.371 52.8693 220.598 52.8693 223.51C52.8693 225.573 52.4793 227.341 51.6993 228.814C50.9366 230.287 49.8533 231.405 48.4493 232.168C47.0453 232.931 45.4246 233.312 43.5873 233.312C42.6166 233.312 41.6893 233.208 40.8053 233C39.9213 232.775 39.1673 232.463 38.5433 232.064L40.1033 228.97C40.9873 229.577 42.1226 229.88 43.5093 229.88C45.052 229.88 46.274 229.429 47.1753 228.528C48.0766 227.609 48.562 226.292 48.6313 224.576C47.5393 225.668 46.0313 226.214 44.1073 226.214C42.946 226.214 41.8886 225.98 40.9353 225.512C39.982 225.044 39.228 224.385 38.6733 223.536C38.1186 222.669 37.8413 221.673 37.8413 220.546C37.8413 219.333 38.1446 218.267 38.7513 217.348C39.358 216.429 40.1813 215.727 41.2213 215.242C42.2786 214.739 43.4486 214.488 44.7313 214.488ZM45.0433 223.068C45.962 223.068 46.7073 222.817 47.2793 222.314C47.8686 221.794 48.1633 221.135 48.1633 220.338C48.1633 219.541 47.8773 218.891 47.3053 218.388C46.7506 217.885 45.9793 217.634 44.9913 217.634C44.09 217.634 43.3533 217.877 42.7813 218.362C42.2266 218.847 41.9493 219.506 41.9493 220.338C41.9493 221.17 42.2266 221.837 42.7813 222.34C43.3533 222.825 44.1073 223.068 45.0433 223.068Z" fill="#202020"/>
</svg>
