<svg width="90" height="626" viewBox="0 0 90 626" fill="none" xmlns="http://www.w3.org/2000/svg">
<circle cx="81.8379" cy="27.1904" r="7.5" transform="rotate(-90 81.8379 27.1904)" fill="black"/>
<circle cx="81.8379" cy="291.795" r="7.5" transform="rotate(-90 81.8379 291.795)" fill="black"/>
<line x1="81.7902" y1="626" x2="81.7903" y2="27" stroke="black" stroke-width="4.41953"/>
<path d="M13.1024 25.488C15.6504 25.488 17.6437 26.268 19.0824 27.828C20.5211 29.3707 21.2404 31.598 21.2404 34.51C21.2404 36.5727 20.8504 38.3407 20.0704 39.814C19.3077 41.2873 18.2244 42.4053 16.8204 43.168C15.4164 43.9307 13.7957 44.312 11.9584 44.312C10.9877 44.312 10.0604 44.208 9.17638 44C8.29238 43.7747 7.53838 43.4627 6.91438 43.064L8.47438 39.97C9.35838 40.5767 10.4937 40.88 11.8804 40.88C13.423 40.88 14.645 40.4293 15.5464 39.528C16.4477 38.6093 16.9331 37.292 17.0024 35.576C15.9104 36.668 14.4024 37.214 12.4784 37.214C11.317 37.214 10.2597 36.98 9.30638 36.512C8.35305 36.044 7.59905 35.3853 7.04438 34.536C6.48972 33.6693 6.21238 32.6727 6.21238 31.546C6.21238 30.3327 6.51572 29.2667 7.12238 28.348C7.72905 27.4293 8.55238 26.7273 9.59238 26.242C10.6497 25.7393 11.8197 25.488 13.1024 25.488ZM13.4144 34.068C14.3331 34.068 15.0784 33.8167 15.6504 33.314C16.2397 32.794 16.5344 32.1353 16.5344 31.338C16.5344 30.5407 16.2484 29.8907 15.6764 29.388C15.1217 28.8853 14.3504 28.634 13.3624 28.634C12.461 28.634 11.7244 28.8767 11.1524 29.362C10.5977 29.8473 10.3204 30.506 10.3204 31.338C10.3204 32.17 10.5977 32.8373 11.1524 33.34C11.7244 33.8253 12.4784 34.068 13.4144 34.068ZM29.4613 22.108H33.0753L24.4953 46.6H20.8813L29.4613 22.108ZM41.4369 33.21C43.0316 33.47 44.2536 34.068 45.1029 35.004C45.9522 35.9227 46.3769 37.0667 46.3769 38.436C46.3769 39.4933 46.0996 40.4727 45.5449 41.374C44.9902 42.258 44.1409 42.9687 42.9969 43.506C41.8702 44.0433 40.4836 44.312 38.8369 44.312C37.5542 44.312 36.2889 44.1473 35.0409 43.818C33.8102 43.4713 32.7616 42.986 31.8949 42.362L33.5329 39.138C34.2262 39.658 35.0236 40.0653 35.9249 40.36C36.8436 40.6373 37.7796 40.776 38.7329 40.776C39.7902 40.776 40.6222 40.5767 41.2289 40.178C41.8356 39.762 42.1389 39.1813 42.1389 38.436C42.1389 36.9453 41.0036 36.2 38.7329 36.2H36.8089V33.418L40.5529 29.18H32.8049V25.8H45.5449V28.53L41.4369 33.21ZM33.188 76.312L31.004 74.284C29.2707 75.636 27.2427 76.312 24.92 76.312C23.6027 76.312 22.4153 76.104 21.358 75.688C20.3007 75.2547 19.4687 74.6567 18.862 73.894C18.2727 73.1313 17.978 72.2733 17.978 71.32C17.978 70.1933 18.29 69.2053 18.914 68.356C19.5553 67.4893 20.578 66.666 21.982 65.886C21.3233 65.21 20.8467 64.5687 20.552 63.962C20.2573 63.338 20.11 62.6967 20.11 62.038C20.11 61.154 20.344 60.374 20.812 59.698C21.28 59.022 21.9387 58.502 22.788 58.138C23.6547 57.7567 24.6513 57.566 25.778 57.566C27.3553 57.566 28.6207 57.9473 29.574 58.71C30.5273 59.4553 31.004 60.4693 31.004 61.752C31.004 62.688 30.718 63.52 30.146 64.248C29.5913 64.976 28.69 65.678 27.442 66.354L30.77 69.448C31.1687 68.616 31.472 67.6713 31.68 66.614L34.93 67.628C34.5833 69.24 34.0287 70.618 33.266 71.762L35.398 73.738L33.188 76.312ZM25.778 60.322C25.1713 60.322 24.686 60.478 24.322 60.79C23.9753 61.102 23.802 61.5007 23.802 61.986C23.802 62.35 23.8973 62.6967 24.088 63.026C24.2787 63.338 24.6513 63.7627 25.206 64.3C26.09 63.832 26.7053 63.416 27.052 63.052C27.3987 62.6707 27.572 62.2633 27.572 61.83C27.572 61.3793 27.416 61.0153 27.104 60.738C26.792 60.4607 26.35 60.322 25.778 60.322ZM25.206 73.14C26.4713 73.14 27.6067 72.7847 28.612 72.074L24.218 67.966C23.4033 68.434 22.8227 68.8933 22.476 69.344C22.1293 69.7947 21.956 70.306 21.956 70.878C21.956 71.554 22.2507 72.1 22.84 72.516C23.4293 72.932 24.218 73.14 25.206 73.14ZM12.5565 89.488C15.1045 89.488 17.0978 90.268 18.5365 91.828C19.9752 93.3707 20.6945 95.598 20.6945 98.51C20.6945 100.573 20.3045 102.341 19.5245 103.814C18.7618 105.287 17.6785 106.405 16.2745 107.168C14.8705 107.931 13.2498 108.312 11.4125 108.312C10.4418 108.312 9.51448 108.208 8.63048 108C7.74648 107.775 6.99248 107.463 6.36848 107.064L7.92848 103.97C8.81248 104.577 9.94782 104.88 11.3345 104.88C12.8772 104.88 14.0992 104.429 15.0005 103.528C15.9018 102.609 16.3872 101.292 16.4565 99.576C15.3645 100.668 13.8565 101.214 11.9325 101.214C10.7712 101.214 9.71382 100.98 8.76048 100.512C7.80715 100.044 7.05315 99.3853 6.49848 98.536C5.94382 97.6693 5.66648 96.6727 5.66648 95.546C5.66648 94.3327 5.96982 93.2667 6.57648 92.348C7.18315 91.4293 8.00648 90.7273 9.04648 90.242C10.1038 89.7393 11.2738 89.488 12.5565 89.488ZM12.8685 98.068C13.7872 98.068 14.5325 97.8167 15.1045 97.314C15.6938 96.794 15.9885 96.1353 15.9885 95.338C15.9885 94.5407 15.7025 93.8907 15.1305 93.388C14.5758 92.8853 13.8045 92.634 12.8165 92.634C11.9152 92.634 11.1785 92.8767 10.6065 93.362C10.0518 93.8473 9.77448 94.506 9.77448 95.338C9.77448 96.17 10.0518 96.8373 10.6065 97.34C11.1785 97.8253 11.9325 98.068 12.8685 98.068ZM28.9154 86.108H32.5294L23.9494 110.6H20.3354L28.9154 86.108ZM44.1575 98.432C45.0588 98.8827 45.7435 99.472 46.2115 100.2C46.6968 100.928 46.9395 101.769 46.9395 102.722C46.9395 103.849 46.6188 104.837 45.9775 105.686C45.3361 106.518 44.4348 107.168 43.2735 107.636C42.1121 108.087 40.7688 108.312 39.2435 108.312C37.7181 108.312 36.3748 108.087 35.2135 107.636C34.0695 107.168 33.1768 106.518 32.5355 105.686C31.9115 104.837 31.5995 103.849 31.5995 102.722C31.5995 101.769 31.8335 100.928 32.3015 100.2C32.7868 99.472 33.4715 98.8827 34.3555 98.432C33.6795 98.016 33.1595 97.496 32.7955 96.872C32.4315 96.2307 32.2495 95.5027 32.2495 94.688C32.2495 93.6307 32.5441 92.712 33.1335 91.932C33.7228 91.152 34.5461 90.554 35.6035 90.138C36.6608 89.7047 37.8741 89.488 39.2435 89.488C40.6301 89.488 41.8521 89.7047 42.9095 90.138C43.9841 90.554 44.8161 91.152 45.4055 91.932C45.9948 92.712 46.2895 93.6307 46.2895 94.688C46.2895 95.5027 46.1075 96.2307 45.7435 96.872C45.3795 97.496 44.8508 98.016 44.1575 98.432ZM39.2435 92.582C38.3941 92.582 37.7095 92.79 37.1895 93.206C36.6868 93.6047 36.4355 94.1593 36.4355 94.87C36.4355 95.5633 36.6868 96.1093 37.1895 96.508C37.6921 96.9067 38.3768 97.106 39.2435 97.106C40.1101 97.106 40.8035 96.9067 41.3235 96.508C41.8435 96.1093 42.1035 95.5633 42.1035 94.87C42.1035 94.1593 41.8435 93.6047 41.3235 93.206C40.8035 92.79 40.1101 92.582 39.2435 92.582ZM39.2435 105.218C40.3008 105.218 41.1328 104.984 41.7395 104.516C42.3635 104.031 42.6755 103.389 42.6755 102.592C42.6755 101.795 42.3635 101.162 41.7395 100.694C41.1328 100.226 40.3008 99.992 39.2435 99.992C38.2035 99.992 37.3801 100.226 36.7735 100.694C36.1668 101.162 35.8635 101.795 35.8635 102.592C35.8635 103.407 36.1668 104.048 36.7735 104.516C37.3801 104.984 38.2035 105.218 39.2435 105.218Z" fill="#202020"/>
<path d="M12.5184 286.488C15.0664 286.488 17.0597 287.268 18.4984 288.828C19.9371 290.371 20.6564 292.598 20.6564 295.51C20.6564 297.573 20.2664 299.341 19.4864 300.814C18.7237 302.287 17.6404 303.405 16.2364 304.168C14.8324 304.931 13.2117 305.312 11.3744 305.312C10.4037 305.312 9.4764 305.208 8.5924 305C7.7084 304.775 6.9544 304.463 6.3304 304.064L7.8904 300.97C8.7744 301.577 9.90973 301.88 11.2964 301.88C12.8391 301.88 14.0611 301.429 14.9624 300.528C15.8637 299.609 16.3491 298.292 16.4184 296.576C15.3264 297.668 13.8184 298.214 11.8944 298.214C10.7331 298.214 9.67573 297.98 8.7224 297.512C7.76907 297.044 7.01507 296.385 6.4604 295.536C5.90573 294.669 5.6284 293.673 5.6284 292.546C5.6284 291.333 5.93173 290.267 6.5384 289.348C7.14507 288.429 7.9684 287.727 9.0084 287.242C10.0657 286.739 11.2357 286.488 12.5184 286.488ZM12.8304 295.068C13.7491 295.068 14.4944 294.817 15.0664 294.314C15.6557 293.794 15.9504 293.135 15.9504 292.338C15.9504 291.541 15.6644 290.891 15.0924 290.388C14.5377 289.885 13.7664 289.634 12.7784 289.634C11.8771 289.634 11.1404 289.877 10.5684 290.362C10.0137 290.847 9.7364 291.506 9.7364 292.338C9.7364 293.17 10.0137 293.837 10.5684 294.34C11.1404 294.825 11.8944 295.068 12.8304 295.068ZM28.8773 283.108H32.4913L23.9113 307.6H20.2973L28.8773 283.108ZM38.7469 286.488C41.2949 286.488 43.2882 287.268 44.7269 288.828C46.1656 290.371 46.8849 292.598 46.8849 295.51C46.8849 297.573 46.4949 299.341 45.7149 300.814C44.9522 302.287 43.8689 303.405 42.4649 304.168C41.0609 304.931 39.4402 305.312 37.6029 305.312C36.6322 305.312 35.7049 305.208 34.8209 305C33.9369 304.775 33.1829 304.463 32.5589 304.064L34.1189 300.97C35.0029 301.577 36.1382 301.88 37.5249 301.88C39.0676 301.88 40.2896 301.429 41.1909 300.528C42.0922 299.609 42.5776 298.292 42.6469 296.576C41.5549 297.668 40.0469 298.214 38.1229 298.214C36.9616 298.214 35.9042 297.98 34.9509 297.512C33.9976 297.044 33.2436 296.385 32.6889 295.536C32.1342 294.669 31.8569 293.673 31.8569 292.546C31.8569 291.333 32.1602 290.267 32.7669 289.348C33.3736 288.429 34.1969 287.727 35.2369 287.242C36.2942 286.739 37.4642 286.488 38.7469 286.488ZM39.0589 295.068C39.9776 295.068 40.7229 294.817 41.2949 294.314C41.8842 293.794 42.1789 293.135 42.1789 292.338C42.1789 291.541 41.8929 290.891 41.3209 290.388C40.7662 289.885 39.9949 289.634 39.0069 289.634C38.1056 289.634 37.3689 289.877 36.7969 290.362C36.2422 290.847 35.9649 291.506 35.9649 292.338C35.9649 293.17 36.2422 293.837 36.7969 294.34C37.3689 294.825 38.1229 295.068 39.0589 295.068ZM22.8374 322.056H30.1954V325.306H22.8374V322.056ZM7.61801 338.488C10.166 338.488 12.1593 339.268 13.598 340.828C15.0367 342.371 15.756 344.598 15.756 347.51C15.756 349.573 15.366 351.341 14.586 352.814C13.8233 354.287 12.74 355.405 11.336 356.168C9.93201 356.931 8.31134 357.312 6.47401 357.312C5.50334 357.312 4.57601 357.208 3.69201 357C2.80801 356.775 2.05401 356.463 1.43001 356.064L2.99001 352.97C3.87401 353.577 5.00934 353.88 6.39601 353.88C7.93867 353.88 9.16067 353.429 10.062 352.528C10.9633 351.609 11.4487 350.292 11.518 348.576C10.426 349.668 8.91801 350.214 6.99401 350.214C5.83267 350.214 4.77534 349.98 3.82201 349.512C2.86867 349.044 2.11467 348.385 1.56001 347.536C1.00534 346.669 0.728008 345.673 0.728008 344.546C0.728008 343.333 1.03134 342.267 1.63801 341.348C2.24467 340.429 3.06801 339.727 4.10801 339.242C5.16534 338.739 6.33534 338.488 7.61801 338.488ZM7.93001 347.068C8.84868 347.068 9.59401 346.817 10.166 346.314C10.7553 345.794 11.05 345.135 11.05 344.338C11.05 343.541 10.764 342.891 10.192 342.388C9.63734 341.885 8.86601 341.634 7.87801 341.634C6.97667 341.634 6.24001 341.877 5.66801 342.362C5.11334 342.847 4.83601 343.506 4.83601 344.338C4.83601 345.17 5.11334 345.837 5.66801 346.34C6.24001 346.825 6.99401 347.068 7.93001 347.068ZM23.9769 335.108H27.5909L19.0109 359.6H15.3969L23.9769 335.108ZM35.2576 338.8V357H31.0456V342.18H27.4056V338.8H35.2576ZM46.9213 346.21C48.5159 346.47 49.7379 347.068 50.5873 348.004C51.4366 348.923 51.8613 350.067 51.8613 351.436C51.8613 352.493 51.5839 353.473 51.0293 354.374C50.4746 355.258 49.6253 355.969 48.4813 356.506C47.3546 357.043 45.9679 357.312 44.3213 357.312C43.0386 357.312 41.7733 357.147 40.5253 356.818C39.2946 356.471 38.2459 355.986 37.3793 355.362L39.0173 352.138C39.7106 352.658 40.5079 353.065 41.4093 353.36C42.3279 353.637 43.2639 353.776 44.2173 353.776C45.2746 353.776 46.1066 353.577 46.7133 353.178C47.3199 352.762 47.6233 352.181 47.6233 351.436C47.6233 349.945 46.4879 349.2 44.2173 349.2H42.2933V346.418L46.0373 342.18H38.2893V338.8H51.0293V341.53L46.9213 346.21Z" fill="#202020"/>
</svg>
