<svg width="96" height="277" viewBox="0 0 96 277" fill="none" xmlns="http://www.w3.org/2000/svg">
<circle cx="87.8384" cy="11.0308" r="7.5" transform="rotate(-90 87.8384 11.0308)" fill="#202020"/>
<circle cx="88.5" cy="171.5" r="7.5" transform="rotate(-90 88.5 171.5)" fill="#202020"/>
<line x1="87.7902" y1="277" x2="87.7902" y2="11" stroke="#202020" stroke-width="4.41953"/>
<path d="M9.57992 3.488C12.1279 3.488 14.1213 4.268 15.5599 5.828C16.9986 7.37067 17.7179 9.598 17.7179 12.51C17.7179 14.5727 17.3279 16.3407 16.5479 17.814C15.7853 19.2873 14.7019 20.4053 13.2979 21.168C11.8939 21.9307 10.2733 22.312 8.43592 22.312C7.46526 22.312 6.53792 22.208 5.65392 22C4.76992 21.7747 4.01592 21.4627 3.39192 21.064L4.95192 17.97C5.83592 18.5767 6.97126 18.88 8.35792 18.88C9.90059 18.88 11.1226 18.4293 12.0239 17.528C12.9253 16.6093 13.4106 15.292 13.4799 13.576C12.3879 14.668 10.8799 15.214 8.95592 15.214C7.79459 15.214 6.73726 14.98 5.78392 14.512C4.83059 14.044 4.07659 13.3853 3.52192 12.536C2.96726 11.6693 2.68992 10.6727 2.68992 9.546C2.68992 8.33267 2.99326 7.26667 3.59992 6.348C4.20659 5.42933 5.02992 4.72733 6.06992 4.242C7.12726 3.73933 8.29726 3.488 9.57992 3.488ZM9.89192 12.068C10.8106 12.068 11.5559 11.8167 12.1279 11.314C12.7173 10.794 13.0119 10.1353 13.0119 9.338C13.0119 8.54067 12.7259 7.89067 12.1539 7.388C11.5993 6.88533 10.8279 6.634 9.83992 6.634C8.93859 6.634 8.20192 6.87667 7.62992 7.362C7.07526 7.84733 6.79792 8.506 6.79792 9.338C6.79792 10.17 7.07526 10.8373 7.62992 11.34C8.20192 11.8253 8.95592 12.068 9.89192 12.068ZM25.9388 0.107998H29.5528L20.9728 24.6H17.3588L25.9388 0.107998ZM37.2195 3.8V22H33.0075V7.18H29.3675V3.8H37.2195ZM46.6212 10.638C49.1865 10.638 51.0759 11.1493 52.2892 12.172C53.5199 13.1947 54.1352 14.564 54.1352 16.28C54.1352 17.3893 53.8579 18.4033 53.3032 19.322C52.7485 20.2233 51.8992 20.9513 50.7552 21.506C49.6285 22.0433 48.2332 22.312 46.5692 22.312C45.2865 22.312 44.0212 22.1473 42.7732 21.818C41.5425 21.4713 40.4939 20.986 39.6272 20.362L41.2912 17.138C41.9845 17.658 42.7819 18.0653 43.6832 18.36C44.5845 18.6373 45.5119 18.776 46.4652 18.776C47.5225 18.776 48.3545 18.568 48.9612 18.152C49.5679 17.736 49.8712 17.1553 49.8712 16.41C49.8712 15.63 49.5505 15.0407 48.9092 14.642C48.2852 14.2433 47.1932 14.044 45.6332 14.044H40.9792L41.9152 3.8H53.0172V7.18H45.4252L45.1392 10.638H46.6212ZM24.8374 39.056H32.1954V42.306H24.8374V39.056ZM8.72934 55.488C11.2773 55.488 13.2707 56.268 14.7093 57.828C16.148 59.3707 16.8673 61.598 16.8673 64.51C16.8673 66.5727 16.4773 68.3407 15.6973 69.814C14.9347 71.2873 13.8513 72.4053 12.4473 73.168C11.0433 73.9307 9.42267 74.312 7.58534 74.312C6.61467 74.312 5.68734 74.208 4.80334 74C3.91934 73.7747 3.16534 73.4627 2.54134 73.064L4.10134 69.97C4.98534 70.5767 6.12067 70.88 7.50734 70.88C9.05 70.88 10.272 70.4293 11.1733 69.528C12.0747 68.6093 12.56 67.292 12.6293 65.576C11.5373 66.668 10.0293 67.214 8.10534 67.214C6.944 67.214 5.88667 66.98 4.93334 66.512C3.98 66.044 3.226 65.3853 2.67134 64.536C2.11667 63.6693 1.83934 62.6727 1.83934 61.546C1.83934 60.3327 2.14267 59.2667 2.74934 58.348C3.356 57.4293 4.17934 56.7273 5.21934 56.242C6.27667 55.7393 7.44667 55.488 8.72934 55.488ZM9.04134 64.068C9.96 64.068 10.7053 63.8167 11.2773 63.314C11.8667 62.794 12.1613 62.1353 12.1613 61.338C12.1613 60.5407 11.8753 59.8907 11.3033 59.388C10.7487 58.8853 9.97734 58.634 8.98934 58.634C8.088 58.634 7.35134 58.8767 6.77934 59.362C6.22467 59.8473 5.94734 60.506 5.94734 61.338C5.94734 62.17 6.22467 62.8373 6.77934 63.34C7.35134 63.8253 8.10534 64.068 9.04134 64.068ZM25.0882 52.108H28.7022L20.1222 76.6H16.5082L25.0882 52.108ZM36.369 55.8V74H32.157V59.18H28.517V55.8H36.369ZM51.9846 64.432C52.8859 64.8827 53.5706 65.472 54.0386 66.2C54.5239 66.928 54.7666 67.7687 54.7666 68.722C54.7666 69.8487 54.4459 70.8367 53.8046 71.686C53.1633 72.518 52.2619 73.168 51.1006 73.636C49.9393 74.0867 48.5959 74.312 47.0706 74.312C45.5453 74.312 44.2019 74.0867 43.0406 73.636C41.8966 73.168 41.0039 72.518 40.3626 71.686C39.7386 70.8367 39.4266 69.8487 39.4266 68.722C39.4266 67.7687 39.6606 66.928 40.1286 66.2C40.6139 65.472 41.2986 64.8827 42.1826 64.432C41.5066 64.016 40.9866 63.496 40.6226 62.872C40.2586 62.2307 40.0766 61.5027 40.0766 60.688C40.0766 59.6307 40.3713 58.712 40.9606 57.932C41.5499 57.152 42.3733 56.554 43.4306 56.138C44.4879 55.7047 45.7013 55.488 47.0706 55.488C48.4573 55.488 49.6793 55.7047 50.7366 56.138C51.8113 56.554 52.6433 57.152 53.2326 57.932C53.8219 58.712 54.1166 59.6307 54.1166 60.688C54.1166 61.5027 53.9346 62.2307 53.5706 62.872C53.2066 63.496 52.6779 64.016 51.9846 64.432ZM47.0706 58.582C46.2213 58.582 45.5366 58.79 45.0166 59.206C44.5139 59.6047 44.2626 60.1593 44.2626 60.87C44.2626 61.5633 44.5139 62.1093 45.0166 62.508C45.5193 62.9067 46.2039 63.106 47.0706 63.106C47.9373 63.106 48.6306 62.9067 49.1506 62.508C49.6706 62.1093 49.9306 61.5633 49.9306 60.87C49.9306 60.1593 49.6706 59.6047 49.1506 59.206C48.6306 58.79 47.9373 58.582 47.0706 58.582ZM47.0706 71.218C48.1279 71.218 48.9599 70.984 49.5666 70.516C50.1906 70.0307 50.5026 69.3893 50.5026 68.592C50.5026 67.7947 50.1906 67.162 49.5666 66.694C48.9599 66.226 48.1279 65.992 47.0706 65.992C46.0306 65.992 45.2073 66.226 44.6006 66.694C43.9939 67.162 43.6906 67.7947 43.6906 68.592C43.6906 69.4067 43.9939 70.048 44.6006 70.516C45.2073 70.984 46.0306 71.218 47.0706 71.218Z" fill="#202020"/>
<path d="M9.03402 166.488C11.582 166.488 13.5754 167.268 15.014 168.828C16.4527 170.371 17.172 172.598 17.172 175.51C17.172 177.573 16.782 179.341 16.002 180.814C15.2394 182.287 14.156 183.405 12.752 184.168C11.348 184.931 9.72736 185.312 7.89002 185.312C6.91936 185.312 5.99202 185.208 5.10802 185C4.22402 184.775 3.47002 184.463 2.84602 184.064L4.40602 180.97C5.29002 181.577 6.42536 181.88 7.81202 181.88C9.35469 181.88 10.5767 181.429 11.478 180.528C12.3794 179.609 12.8647 178.292 12.934 176.576C11.842 177.668 10.334 178.214 8.41002 178.214C7.24869 178.214 6.19136 177.98 5.23802 177.512C4.28469 177.044 3.53069 176.385 2.97602 175.536C2.42136 174.669 2.14402 173.673 2.14402 172.546C2.14402 171.333 2.44736 170.267 3.05402 169.348C3.66069 168.429 4.48402 167.727 5.52402 167.242C6.58136 166.739 7.75136 166.488 9.03402 166.488ZM9.34602 175.068C10.2647 175.068 11.01 174.817 11.582 174.314C12.1714 173.794 12.466 173.135 12.466 172.338C12.466 171.541 12.18 170.891 11.608 170.388C11.0534 169.885 10.282 169.634 9.29402 169.634C8.39269 169.634 7.65602 169.877 7.08402 170.362C6.52936 170.847 6.25202 171.506 6.25202 172.338C6.25202 173.17 6.52936 173.837 7.08402 174.34C7.65602 174.825 8.41002 175.068 9.34602 175.068ZM25.3929 163.108H29.0069L20.4269 187.6H16.8129L25.3929 163.108ZM36.6736 166.8V185H32.4616V170.18H28.8216V166.8H36.6736ZM46.2313 166.488C48.7793 166.488 50.7726 167.268 52.2113 168.828C53.65 170.371 54.3693 172.598 54.3693 175.51C54.3693 177.573 53.9793 179.341 53.1993 180.814C52.4366 182.287 51.3533 183.405 49.9493 184.168C48.5453 184.931 46.9246 185.312 45.0873 185.312C44.1166 185.312 43.1893 185.208 42.3053 185C41.4213 184.775 40.6673 184.463 40.0433 184.064L41.6033 180.97C42.4873 181.577 43.6226 181.88 45.0093 181.88C46.552 181.88 47.774 181.429 48.6753 180.528C49.5766 179.609 50.062 178.292 50.1313 176.576C49.0393 177.668 47.5313 178.214 45.6073 178.214C44.446 178.214 43.3886 177.98 42.4353 177.512C41.482 177.044 40.728 176.385 40.1733 175.536C39.6186 174.669 39.3413 173.673 39.3413 172.546C39.3413 171.333 39.6446 170.267 40.2513 169.348C40.858 168.429 41.6813 167.727 42.7213 167.242C43.7786 166.739 44.9486 166.488 46.2313 166.488ZM46.5433 175.068C47.462 175.068 48.2073 174.817 48.7793 174.314C49.3686 173.794 49.6633 173.135 49.6633 172.338C49.6633 171.541 49.3773 170.891 48.8053 170.388C48.2506 169.885 47.4793 169.634 46.4913 169.634C45.59 169.634 44.8533 169.877 44.2813 170.362C43.7266 170.847 43.4493 171.506 43.4493 172.338C43.4493 173.17 43.7266 173.837 44.2813 174.34C44.8533 174.825 45.6073 175.068 46.5433 175.068ZM24.8374 202.056H32.1954V205.306H24.8374V202.056ZM7.43441 218.488C9.98241 218.488 11.9757 219.268 13.4144 220.828C14.8531 222.371 15.5724 224.598 15.5724 227.51C15.5724 229.573 15.1824 231.341 14.4024 232.814C13.6397 234.287 12.5564 235.405 11.1524 236.168C9.74841 236.931 8.12775 237.312 6.29041 237.312C5.31975 237.312 4.39241 237.208 3.50841 237C2.62441 236.775 1.87041 236.463 1.24641 236.064L2.80641 232.97C3.69041 233.577 4.82575 233.88 6.21241 233.88C7.75508 233.88 8.97708 233.429 9.87841 232.528C10.7797 231.609 11.2651 230.292 11.3344 228.576C10.2424 229.668 8.73441 230.214 6.81041 230.214C5.64908 230.214 4.59175 229.98 3.63841 229.512C2.68508 229.044 1.93108 228.385 1.37641 227.536C0.821747 226.669 0.544414 225.673 0.544414 224.546C0.544414 223.333 0.847747 222.267 1.45441 221.348C2.06108 220.429 2.88441 219.727 3.92441 219.242C4.98175 218.739 6.15175 218.488 7.43441 218.488ZM7.74641 227.068C8.66508 227.068 9.41041 226.817 9.98241 226.314C10.5717 225.794 10.8664 225.135 10.8664 224.338C10.8664 223.541 10.5804 222.891 10.0084 222.388C9.45375 221.885 8.68241 221.634 7.69441 221.634C6.79308 221.634 6.05641 221.877 5.48441 222.362C4.92975 222.847 4.65241 223.506 4.65241 224.338C4.65241 225.17 4.92975 225.837 5.48441 226.34C6.05641 226.825 6.81041 227.068 7.74641 227.068ZM23.7933 215.108H27.4073L18.8273 239.6H15.2133L23.7933 215.108ZM40.8649 233.568V237H27.1109V234.27L34.1309 227.64C34.8763 226.929 35.3789 226.323 35.6389 225.82C35.8989 225.3 36.0289 224.789 36.0289 224.286C36.0289 223.558 35.7776 223.003 35.2749 222.622C34.7896 222.223 34.0703 222.024 33.1169 222.024C32.3196 222.024 31.6003 222.18 30.9589 222.492C30.3176 222.787 29.7803 223.237 29.3469 223.844L26.2789 221.868C26.9896 220.811 27.9689 219.987 29.2169 219.398C30.4649 218.791 31.8949 218.488 33.5069 218.488C34.8589 218.488 36.0376 218.713 37.0429 219.164C38.0656 219.597 38.8543 220.221 39.4089 221.036C39.9809 221.833 40.2669 222.778 40.2669 223.87C40.2669 224.858 40.0589 225.785 39.6429 226.652C39.2269 227.519 38.4209 228.507 37.2249 229.616L33.0389 233.568H40.8649ZM51.1049 226.21C52.6995 226.47 53.9215 227.068 54.7709 228.004C55.6202 228.923 56.0449 230.067 56.0449 231.436C56.0449 232.493 55.7675 233.473 55.2129 234.374C54.6582 235.258 53.8089 235.969 52.6649 236.506C51.5382 237.043 50.1515 237.312 48.5049 237.312C47.2222 237.312 45.9569 237.147 44.7089 236.818C43.4782 236.471 42.4295 235.986 41.5629 235.362L43.2009 232.138C43.8942 232.658 44.6915 233.065 45.5929 233.36C46.5115 233.637 47.4475 233.776 48.4009 233.776C49.4582 233.776 50.2902 233.577 50.8969 233.178C51.5035 232.762 51.8069 232.181 51.8069 231.436C51.8069 229.945 50.6715 229.2 48.4009 229.2H46.4769V226.418L50.2209 222.18H42.4729V218.8H55.2129V221.53L51.1049 226.21Z" fill="#202020"/>
</svg>
