<svg width="100" height="300" viewBox="0 0 100 300" fill="none" xmlns="http://www.w3.org/2000/svg">
<path d="M95.0571 7.5C95.0571 3.35786 91.8229 0 87.8333 0C83.8437 0 80.6094 3.35786 80.6094 7.5C80.6094 11.6421 83.8437 15 87.8333 15C91.8229 15 95.0571 11.6421 95.0571 7.5Z" fill="black"/>
<path d="M87.2238 159.974C91.2134 159.974 94.4477 163.331 94.4477 167.474C94.4477 171.616 91.2134 174.974 87.2238 174.974C83.2341 174.974 80 171.616 80 167.474C80 163.331 83.2341 159.974 87.2238 159.974Z" fill="black"/>
<path d="M87.1494 288V8" stroke="black" stroke-width="4.41953"/>
<path d="M11.9733 22V6.64L13.6533 8.32H8.61331V5.2H15.8613V22H11.9733ZM17.0518 24.4L24.9718 1.792H28.3078L20.3878 24.4H17.0518ZM28.0342 22V19.48L34.5142 13.36C35.0262 12.896 35.4022 12.48 35.6422 12.112C35.8822 11.744 36.0422 11.408 36.1222 11.104C36.2182 10.8 36.2662 10.52 36.2662 10.264C36.2662 9.592 36.0342 9.08 35.5702 8.728C35.1222 8.36 34.4582 8.176 33.5782 8.176C32.8742 8.176 32.2182 8.312 31.6102 8.584C31.0182 8.856 30.5142 9.28 30.0982 9.856L27.2662 8.032C27.9062 7.072 28.8022 6.312 29.9542 5.752C31.1062 5.192 32.4342 4.912 33.9382 4.912C35.1862 4.912 36.2742 5.12 37.2022 5.536C38.1462 5.936 38.8742 6.504 39.3862 7.24C39.9142 7.976 40.1782 8.856 40.1782 9.88C40.1782 10.424 40.1062 10.968 39.9622 11.512C39.8342 12.04 39.5622 12.6 39.1462 13.192C38.7462 13.784 38.1542 14.448 37.3702 15.184L31.9942 20.248L31.2502 18.832H40.7302V22H28.0342ZM42.1904 22V19.48L48.6704 13.36C49.1824 12.896 49.5584 12.48 49.7984 12.112C50.0384 11.744 50.1984 11.408 50.2784 11.104C50.3744 10.8 50.4224 10.52 50.4224 10.264C50.4224 9.592 50.1904 9.08 49.7264 8.728C49.2784 8.36 48.6144 8.176 47.7344 8.176C47.0304 8.176 46.3744 8.312 45.7664 8.584C45.1744 8.856 44.6704 9.28 44.2544 9.856L41.4224 8.032C42.0624 7.072 42.9584 6.312 44.1104 5.752C45.2624 5.192 46.5904 4.912 48.0944 4.912C49.3424 4.912 50.4304 5.12 51.3584 5.536C52.3024 5.936 53.0304 6.504 53.5424 7.24C54.0704 7.976 54.3344 8.856 54.3344 9.88C54.3344 10.424 54.2624 10.968 54.1184 11.512C53.9904 12.04 53.7184 12.6 53.3024 13.192C52.9024 13.784 52.3104 14.448 51.5264 15.184L46.1504 20.248L45.4064 18.832H54.8864V22H42.1904ZM30.5415 48.288C29.3095 48.288 28.2135 48.088 27.2535 47.688C26.2935 47.288 25.5335 46.744 24.9735 46.056C24.4135 45.368 24.1335 44.576 24.1335 43.68C24.1335 42.848 24.3175 42.104 24.6855 41.448C25.0535 40.776 25.6375 40.152 26.4375 39.576C27.2375 38.984 28.2535 38.408 29.4855 37.848C30.3815 37.432 31.0855 37.064 31.5975 36.744C32.1095 36.424 32.4695 36.12 32.6775 35.832C32.8855 35.528 32.9895 35.224 32.9895 34.92C32.9895 34.504 32.8455 34.168 32.5575 33.912C32.2855 33.656 31.8775 33.528 31.3335 33.528C30.7575 33.528 30.3095 33.672 29.9895 33.96C29.6695 34.248 29.5095 34.616 29.5095 35.064C29.5095 35.304 29.5575 35.544 29.6535 35.784C29.7495 36.008 29.9335 36.272 30.2055 36.576C30.4775 36.864 30.8615 37.24 31.3575 37.704L40.2135 45.912L38.1735 48.288L28.4055 39.216C27.8455 38.704 27.3975 38.224 27.0615 37.776C26.7255 37.328 26.4775 36.888 26.3175 36.456C26.1735 36.024 26.1015 35.576 26.1015 35.112C26.1015 34.296 26.3175 33.576 26.7495 32.952C27.1815 32.328 27.7895 31.848 28.5735 31.512C29.3575 31.16 30.2775 30.984 31.3335 30.984C32.3095 30.984 33.1495 31.144 33.8535 31.464C34.5735 31.768 35.1335 32.208 35.5335 32.784C35.9495 33.36 36.1575 34.048 36.1575 34.848C36.1575 35.552 35.9815 36.2 35.6295 36.792C35.2775 37.368 34.7255 37.912 33.9735 38.424C33.2375 38.936 32.2695 39.456 31.0695 39.984C30.2535 40.352 29.6055 40.712 29.1255 41.064C28.6615 41.4 28.3255 41.744 28.1175 42.096C27.9095 42.448 27.8055 42.84 27.8055 43.272C27.8055 43.672 27.9255 44.032 28.1655 44.352C28.4215 44.672 28.7735 44.92 29.2215 45.096C29.6695 45.272 30.1975 45.36 30.8055 45.36C31.7815 45.36 32.6775 45.136 33.4935 44.688C34.3095 44.224 34.9975 43.544 35.5575 42.648C36.1335 41.736 36.5415 40.632 36.7815 39.336L39.7815 40.272C39.4455 41.904 38.8455 43.32 37.9815 44.52C37.1175 45.72 36.0535 46.648 34.7895 47.304C33.5255 47.96 32.1095 48.288 30.5415 48.288ZM11.9499 74V58.64L13.6299 60.32H8.58988V57.2H15.8379V74H11.9499ZM17.0283 76.4L24.9483 53.792H28.2843L20.3643 76.4H17.0283ZM28.0107 74V71.48L34.4908 65.36C35.0028 64.896 35.3788 64.48 35.6188 64.112C35.8588 63.744 36.0188 63.408 36.0988 63.104C36.1948 62.8 36.2428 62.52 36.2428 62.264C36.2428 61.592 36.0108 61.08 35.5468 60.728C35.0988 60.36 34.4348 60.176 33.5547 60.176C32.8508 60.176 32.1948 60.312 31.5868 60.584C30.9948 60.856 30.4908 61.28 30.0748 61.856L27.2428 60.032C27.8828 59.072 28.7788 58.312 29.9308 57.752C31.0828 57.192 32.4108 56.912 33.9148 56.912C35.1628 56.912 36.2508 57.12 37.1788 57.536C38.1228 57.936 38.8508 58.504 39.3628 59.24C39.8908 59.976 40.1548 60.856 40.1548 61.88C40.1548 62.424 40.0828 62.968 39.9388 63.512C39.8108 64.04 39.5388 64.6 39.1228 65.192C38.7228 65.784 38.1308 66.448 37.3468 67.184L31.9708 72.248L31.2268 70.832H40.7068V74H28.0107ZM47.759 74.288C46.591 74.288 45.431 74.136 44.279 73.832C43.127 73.512 42.151 73.064 41.351 72.488L42.863 69.512C43.503 69.976 44.247 70.344 45.095 70.616C45.943 70.888 46.799 71.024 47.663 71.024C48.639 71.024 49.407 70.832 49.967 70.448C50.527 70.064 50.807 69.536 50.807 68.864C50.807 68.224 50.559 67.72 50.063 67.352C49.567 66.984 48.767 66.8 47.663 66.8H45.887V64.232L50.567 58.928L50.999 60.32H42.191V57.2H53.951V59.72L49.295 65.024L47.327 63.896H48.455C50.519 63.896 52.079 64.36 53.135 65.288C54.191 66.216 54.719 67.408 54.719 68.864C54.719 69.808 54.471 70.696 53.975 71.528C53.479 72.344 52.719 73.008 51.695 73.52C50.671 74.032 49.359 74.288 47.759 74.288Z" fill="black"/>
<path d="M10.9069 182V166.64L12.5869 168.32H7.54691V165.2H14.7949V182H10.9069ZM15.9853 184.4L23.9053 161.792H27.2413L19.3213 184.4H15.9853ZM26.9678 182V179.48L33.4478 173.36C33.9598 172.896 34.3358 172.48 34.5758 172.112C34.8158 171.744 34.9758 171.408 35.0558 171.104C35.1518 170.8 35.1998 170.52 35.1998 170.264C35.1998 169.592 34.9678 169.08 34.5038 168.728C34.0558 168.36 33.3918 168.176 32.5118 168.176C31.8078 168.176 31.1518 168.312 30.5438 168.584C29.9518 168.856 29.4478 169.28 29.0318 169.856L26.1998 168.032C26.8398 167.072 27.7358 166.312 28.8878 165.752C30.0398 165.192 31.3678 164.912 32.8718 164.912C34.1198 164.912 35.2078 165.12 36.1358 165.536C37.0798 165.936 37.8078 166.504 38.3198 167.24C38.8478 167.976 39.1118 168.856 39.1118 169.88C39.1118 170.424 39.0398 170.968 38.8958 171.512C38.7678 172.04 38.4958 172.6 38.0798 173.192C37.6798 173.784 37.0878 174.448 36.3038 175.184L30.9278 180.248L30.1838 178.832H39.6638V182H26.9678ZM40.8182 178.472V175.856L48.7382 165.2H52.8182L45.0662 175.856L43.1702 175.304H56.3942V178.472H40.8182ZM49.8662 182V178.472L49.9862 175.304V172.16H53.6582V182H49.8662ZM28.6191 202.744V199.744H35.4111V202.744H28.6191ZM11.61 234V218.64L13.29 220.32H8.25003V217.2H15.498V234H11.61ZM16.6885 236.4L24.6085 213.792H27.9445L20.0245 236.4H16.6885ZM27.6709 234V231.48L34.1509 225.36C34.6629 224.896 35.0389 224.48 35.2789 224.112C35.5189 223.744 35.6789 223.408 35.7589 223.104C35.8549 222.8 35.9029 222.52 35.9029 222.264C35.9029 221.592 35.6709 221.08 35.2069 220.728C34.7589 220.36 34.0949 220.176 33.2149 220.176C32.5109 220.176 31.8549 220.312 31.2469 220.584C30.6549 220.856 30.1509 221.28 29.7349 221.856L26.9029 220.032C27.5429 219.072 28.4389 218.312 29.5909 217.752C30.7429 217.192 32.0709 216.912 33.5749 216.912C34.8229 216.912 35.9109 217.12 36.8389 217.536C37.7829 217.936 38.5109 218.504 39.0229 219.24C39.5509 219.976 39.8149 220.856 39.8149 221.88C39.8149 222.424 39.7429 222.968 39.5989 223.512C39.4709 224.04 39.1989 224.6 38.7829 225.192C38.3829 225.784 37.7909 226.448 37.0069 227.184L31.6309 232.248L30.8869 230.832H40.3669V234H27.6709ZM44.6592 234L51.4272 218.688L52.4352 220.368H43.3872L45.1152 218.544V223.104H41.6592V217.2H55.1232V219.72L48.8832 234H44.6592Z" fill="black"/>
</svg>
