<svg width="95" height="657" viewBox="0 0 95 657" fill="none" xmlns="http://www.w3.org/2000/svg">
<g clip-path="url(#clip0_165_51)">
<path d="M8.82709 22.703C7.41909 22.703 6.18709 22.495 5.13109 22.079C4.07509 21.647 3.25109 21.047 2.65909 20.279C2.06709 19.495 1.77109 18.583 1.77109 17.543C1.77109 16.503 2.05909 15.623 2.63509 14.903C3.22709 14.167 4.05109 13.615 5.10709 13.247C6.16309 12.863 7.40309 12.671 8.82709 12.671C10.2671 12.671 11.5151 12.863 12.5711 13.247C13.6431 13.615 14.4671 14.167 15.0431 14.903C15.6351 15.623 15.9311 16.503 15.9311 17.543C15.9311 18.583 15.6351 19.495 15.0431 20.279C14.4511 21.047 13.6191 21.647 12.5471 22.079C11.4911 22.495 10.2511 22.703 8.82709 22.703ZM8.82709 19.847C9.80309 19.847 10.5711 19.631 11.1311 19.199C11.7071 18.767 11.9951 18.175 11.9951 17.423C11.9951 16.671 11.7071 16.087 11.1311 15.671C10.5711 15.239 9.80309 15.023 8.82709 15.023C7.86709 15.023 7.10709 15.239 6.54709 15.671C5.98709 16.087 5.70709 16.671 5.70709 17.423C5.70709 18.175 5.98709 18.767 6.54709 19.199C7.10709 19.631 7.86709 19.847 8.82709 19.847ZM8.82709 14.639C7.53109 14.639 6.39509 14.463 5.41909 14.111C4.45909 13.759 3.70709 13.247 3.16309 12.575C2.63509 11.887 2.37109 11.071 2.37109 10.127C2.37109 9.13504 2.64309 8.28704 3.18709 7.58304C3.73109 6.86304 4.49109 6.31104 5.46709 5.92704C6.44309 5.52704 7.56309 5.32704 8.82709 5.32704C10.1231 5.32704 11.2511 5.52704 12.2111 5.92704C13.1871 6.31104 13.9471 6.86304 14.4911 7.58304C15.0511 8.28704 15.3311 9.13504 15.3311 10.127C15.3311 11.071 15.0591 11.887 14.5151 12.575C13.9871 13.247 13.2351 13.759 12.2591 14.111C11.2831 14.463 10.1391 14.639 8.82709 14.639ZM8.82709 12.359C9.64309 12.359 10.2831 12.175 10.7471 11.807C11.2271 11.439 11.4671 10.935 11.4671 10.295C11.4671 9.62304 11.2191 9.10304 10.7231 8.73504C10.2431 8.36704 9.61109 8.18304 8.82709 8.18304C8.05909 8.18304 7.43509 8.36704 6.95509 8.73504C6.47509 9.10304 6.23509 9.62304 6.23509 10.295C6.23509 10.935 6.46709 11.439 6.93109 11.807C7.39509 12.175 8.02709 12.359 8.82709 12.359ZM15.9828 24.815L23.9028 2.20704H27.2388L19.3188 24.815H15.9828ZM26.9653 22.415V19.895L33.4453 13.775C33.9573 13.311 34.3333 12.895 34.5733 12.527C34.8133 12.159 34.9733 11.823 35.0533 11.519C35.1493 11.215 35.1973 10.935 35.1973 10.679C35.1973 10.007 34.9653 9.49504 34.5013 9.14304C34.0533 8.77504 33.3893 8.59104 32.5093 8.59104C31.8053 8.59104 31.1493 8.72704 30.5413 8.99904C29.9493 9.27104 29.4453 9.69504 29.0293 10.271L26.1973 8.44704C26.8373 7.48704 27.7333 6.72704 28.8853 6.16704C30.0373 5.60704 31.3653 5.32704 32.8693 5.32704C34.1173 5.32704 35.2053 5.53504 36.1333 5.95104C37.0773 6.35104 37.8053 6.91904 38.3173 7.65504C38.8453 8.39104 39.1093 9.27104 39.1093 10.295C39.1093 10.839 39.0373 11.383 38.8933 11.927C38.7653 12.455 38.4933 13.015 38.0773 13.607C37.6773 14.199 37.0853 14.863 36.3013 15.599L30.9253 20.663L30.1813 19.247H39.6613V22.415H26.9653ZM48.2255 22.703C46.8175 22.703 45.5855 22.495 44.5295 22.079C43.4735 21.647 42.6495 21.047 42.0575 20.279C41.4655 19.495 41.1695 18.583 41.1695 17.543C41.1695 16.503 41.4575 15.623 42.0335 14.903C42.6255 14.167 43.4495 13.615 44.5055 13.247C45.5615 12.863 46.8015 12.671 48.2255 12.671C49.6655 12.671 50.9135 12.863 51.9695 13.247C53.0415 13.615 53.8655 14.167 54.4415 14.903C55.0335 15.623 55.3295 16.503 55.3295 17.543C55.3295 18.583 55.0335 19.495 54.4415 20.279C53.8495 21.047 53.0175 21.647 51.9455 22.079C50.8895 22.495 49.6495 22.703 48.2255 22.703ZM48.2255 19.847C49.2015 19.847 49.9695 19.631 50.5295 19.199C51.1055 18.767 51.3935 18.175 51.3935 17.423C51.3935 16.671 51.1055 16.087 50.5295 15.671C49.9695 15.239 49.2015 15.023 48.2255 15.023C47.2655 15.023 46.5055 15.239 45.9455 15.671C45.3855 16.087 45.1055 16.671 45.1055 17.423C45.1055 18.175 45.3855 18.767 45.9455 19.199C46.5055 19.631 47.2655 19.847 48.2255 19.847ZM48.2255 14.639C46.9295 14.639 45.7935 14.463 44.8175 14.111C43.8575 13.759 43.1055 13.247 42.5615 12.575C42.0335 11.887 41.7695 11.071 41.7695 10.127C41.7695 9.13504 42.0415 8.28704 42.5855 7.58304C43.1295 6.86304 43.8895 6.31104 44.8655 5.92704C45.8415 5.52704 46.9615 5.32704 48.2255 5.32704C49.5215 5.32704 50.6495 5.52704 51.6095 5.92704C52.5855 6.31104 53.3455 6.86304 53.8895 7.58304C54.4495 8.28704 54.7295 9.13504 54.7295 10.127C54.7295 11.071 54.4575 11.887 53.9135 12.575C53.3855 13.247 52.6335 13.759 51.6575 14.111C50.6815 14.463 49.5375 14.639 48.2255 14.639ZM48.2255 12.359C49.0415 12.359 49.6815 12.175 50.1455 11.807C50.6255 11.439 50.8655 10.935 50.8655 10.295C50.8655 9.62304 50.6175 9.10304 50.1215 8.73504C49.6415 8.36704 49.0095 8.18304 48.2255 8.18304C47.4575 8.18304 46.8335 8.36704 46.3535 8.73504C45.8735 9.10304 45.6335 9.62304 45.6335 10.295C45.6335 10.935 45.8655 11.439 46.3295 11.807C46.7935 12.175 47.4255 12.359 48.2255 12.359ZM27.0937 48.703C25.8617 48.703 24.7657 48.503 23.8057 48.103C22.8457 47.703 22.0857 47.159 21.5257 46.471C20.9657 45.783 20.6857 44.991 20.6857 44.095C20.6857 43.263 20.8697 42.519 21.2377 41.863C21.6057 41.191 22.1897 40.567 22.9897 39.991C23.7897 39.399 24.8057 38.823 26.0377 38.263C26.9337 37.847 27.6377 37.479 28.1497 37.159C28.6617 36.839 29.0217 36.535 29.2297 36.247C29.4377 35.943 29.5417 35.639 29.5417 35.335C29.5417 34.919 29.3977 34.583 29.1097 34.327C28.8377 34.071 28.4297 33.943 27.8857 33.943C27.3097 33.943 26.8617 34.087 26.5417 34.375C26.2217 34.663 26.0617 35.031 26.0617 35.479C26.0617 35.719 26.1097 35.959 26.2057 36.199C26.3017 36.423 26.4857 36.687 26.7577 36.991C27.0297 37.279 27.4137 37.655 27.9097 38.119L36.7657 46.327L34.7257 48.703L24.9577 39.631C24.3977 39.119 23.9497 38.639 23.6137 38.191C23.2777 37.743 23.0297 37.303 22.8697 36.871C22.7257 36.439 22.6537 35.991 22.6537 35.527C22.6537 34.711 22.8697 33.991 23.3017 33.367C23.7337 32.743 24.3417 32.263 25.1257 31.927C25.9097 31.575 26.8297 31.399 27.8857 31.399C28.8617 31.399 29.7017 31.559 30.4057 31.879C31.1257 32.183 31.6857 32.623 32.0857 33.199C32.5017 33.775 32.7097 34.463 32.7097 35.263C32.7097 35.967 32.5337 36.615 32.1817 37.207C31.8297 37.783 31.2777 38.327 30.5257 38.839C29.7897 39.351 28.8217 39.871 27.6217 40.399C26.8057 40.767 26.1577 41.127 25.6777 41.479C25.2137 41.815 24.8777 42.159 24.6697 42.511C24.4617 42.863 24.3577 43.255 24.3577 43.687C24.3577 44.087 24.4777 44.447 24.7177 44.767C24.9737 45.087 25.3257 45.335 25.7737 45.511C26.2217 45.687 26.7497 45.775 27.3577 45.775C28.3337 45.775 29.2297 45.551 30.0457 45.103C30.8617 44.639 31.5497 43.959 32.1097 43.063C32.6857 42.151 33.0937 41.047 33.3337 39.751L36.3337 40.687C35.9977 42.319 35.3977 43.735 34.5337 44.935C33.6697 46.135 32.6057 47.063 31.3417 47.719C30.0777 48.375 28.6617 48.703 27.0937 48.703ZM9.10834 74.703C7.70034 74.703 6.46834 74.495 5.41234 74.079C4.35634 73.647 3.53234 73.047 2.94034 72.279C2.34834 71.495 2.05234 70.583 2.05234 69.543C2.05234 68.503 2.34034 67.623 2.91634 66.903C3.50834 66.167 4.33234 65.615 5.38834 65.247C6.44434 64.863 7.68434 64.671 9.10834 64.671C10.5483 64.671 11.7963 64.863 12.8523 65.247C13.9243 65.615 14.7483 66.167 15.3243 66.903C15.9163 67.623 16.2123 68.503 16.2123 69.543C16.2123 70.583 15.9163 71.495 15.3243 72.279C14.7323 73.047 13.9003 73.647 12.8283 74.079C11.7723 74.495 10.5323 74.703 9.10834 74.703ZM9.10834 71.847C10.0843 71.847 10.8523 71.631 11.4123 71.199C11.9883 70.767 12.2763 70.175 12.2763 69.423C12.2763 68.671 11.9883 68.087 11.4123 67.671C10.8523 67.239 10.0843 67.023 9.10834 67.023C8.14834 67.023 7.38834 67.239 6.82834 67.671C6.26834 68.087 5.98834 68.671 5.98834 69.423C5.98834 70.175 6.26834 70.767 6.82834 71.199C7.38834 71.631 8.14834 71.847 9.10834 71.847ZM9.10834 66.639C7.81234 66.639 6.67634 66.463 5.70034 66.111C4.74034 65.759 3.98834 65.247 3.44434 64.575C2.91634 63.887 2.65234 63.071 2.65234 62.127C2.65234 61.135 2.92434 60.287 3.46834 59.583C4.01234 58.863 4.77234 58.311 5.74834 57.927C6.72434 57.527 7.84434 57.327 9.10834 57.327C10.4043 57.327 11.5323 57.527 12.4923 57.927C13.4683 58.311 14.2283 58.863 14.7723 59.583C15.3323 60.287 15.6123 61.135 15.6123 62.127C15.6123 63.071 15.3403 63.887 14.7963 64.575C14.2683 65.247 13.5163 65.759 12.5403 66.111C11.5643 66.463 10.4203 66.639 9.10834 66.639ZM9.10834 64.359C9.92434 64.359 10.5643 64.175 11.0283 63.807C11.5083 63.439 11.7483 62.935 11.7483 62.295C11.7483 61.623 11.5003 61.103 11.0043 60.735C10.5243 60.367 9.89234 60.183 9.10834 60.183C8.34034 60.183 7.71634 60.367 7.23634 60.735C6.75634 61.103 6.51634 61.623 6.51634 62.295C6.51634 62.935 6.74834 63.439 7.21234 63.807C7.67634 64.175 8.30834 64.359 9.10834 64.359ZM16.2641 76.815L24.1841 54.207H27.5201L19.6001 76.815H16.2641ZM27.2465 74.415V71.895L33.7265 65.775C34.2385 65.311 34.6145 64.895 34.8545 64.527C35.0945 64.159 35.2545 63.823 35.3345 63.519C35.4305 63.215 35.4785 62.935 35.4785 62.679C35.4785 62.007 35.2465 61.495 34.7825 61.143C34.3345 60.775 33.6705 60.591 32.7905 60.591C32.0865 60.591 31.4305 60.727 30.8225 60.999C30.2305 61.271 29.7265 61.695 29.3105 62.271L26.4785 60.447C27.1185 59.487 28.0145 58.727 29.1665 58.167C30.3185 57.607 31.6465 57.327 33.1505 57.327C34.3985 57.327 35.4865 57.535 36.4145 57.951C37.3585 58.351 38.0865 58.919 38.5985 59.655C39.1265 60.391 39.3905 61.271 39.3905 62.295C39.3905 62.839 39.3185 63.383 39.1745 63.927C39.0465 64.455 38.7745 65.015 38.3585 65.607C37.9585 66.199 37.3665 66.863 36.5825 67.599L31.2065 72.663L30.4625 71.247H39.9425V74.415H27.2465ZM47.4508 57.327C49.0028 57.327 50.3388 57.647 51.4588 58.287C52.5788 58.927 53.4428 59.863 54.0508 61.095C54.6588 62.311 54.9628 63.831 54.9628 65.655C54.9628 67.591 54.5948 69.231 53.8588 70.575C53.1388 71.919 52.1388 72.943 50.8588 73.647C49.5788 74.351 48.0908 74.703 46.3948 74.703C45.5148 74.703 44.6668 74.607 43.8508 74.415C43.0348 74.223 42.3308 73.935 41.7388 73.551L43.1788 70.695C43.6428 71.015 44.1388 71.239 44.6668 71.367C45.1948 71.479 45.7468 71.535 46.3228 71.535C47.7628 71.535 48.9068 71.095 49.7548 70.215C50.6188 69.335 51.0508 68.031 51.0508 66.303C51.0508 66.015 51.0428 65.695 51.0268 65.343C51.0108 64.991 50.9708 64.639 50.9068 64.287L51.9628 65.295C51.6908 65.919 51.3068 66.447 50.8108 66.879C50.3148 67.295 49.7388 67.615 49.0828 67.839C48.4268 68.047 47.6908 68.151 46.8748 68.151C45.8028 68.151 44.8268 67.935 43.9468 67.503C43.0828 67.071 42.3868 66.463 41.8588 65.679C41.3468 64.895 41.0908 63.975 41.0908 62.919C41.0908 61.767 41.3708 60.775 41.9308 59.943C42.5068 59.111 43.2748 58.471 44.2348 58.023C45.2108 57.559 46.2828 57.327 47.4508 57.327ZM47.6908 60.231C47.1308 60.231 46.6428 60.335 46.2268 60.543C45.8108 60.735 45.4828 61.023 45.2428 61.407C45.0028 61.775 44.8828 62.215 44.8828 62.727C44.8828 63.495 45.1388 64.111 45.6508 64.575C46.1788 65.023 46.8748 65.247 47.7388 65.247C48.2988 65.247 48.7948 65.143 49.2268 64.935C49.6748 64.711 50.0188 64.407 50.2588 64.023C50.4988 63.639 50.6188 63.207 50.6188 62.727C50.6188 62.247 50.4988 61.823 50.2588 61.455C50.0348 61.071 49.7068 60.775 49.2748 60.567C48.8428 60.343 48.3148 60.231 47.6908 60.231Z" fill="black"/>
<path d="M8.581 180.288C7.173 180.288 5.941 180.08 4.885 179.664C3.829 179.232 3.005 178.632 2.413 177.864C1.821 177.08 1.525 176.168 1.525 175.128C1.525 174.088 1.813 173.208 2.389 172.488C2.981 171.752 3.805 171.2 4.861 170.832C5.917 170.448 7.157 170.256 8.581 170.256C10.021 170.256 11.269 170.448 12.325 170.832C13.397 171.2 14.221 171.752 14.797 172.488C15.389 173.208 15.685 174.088 15.685 175.128C15.685 176.168 15.389 177.08 14.797 177.864C14.205 178.632 13.373 179.232 12.301 179.664C11.245 180.08 10.005 180.288 8.581 180.288ZM8.581 177.432C9.557 177.432 10.325 177.216 10.885 176.784C11.461 176.352 11.749 175.76 11.749 175.008C11.749 174.256 11.461 173.672 10.885 173.256C10.325 172.824 9.557 172.608 8.581 172.608C7.621 172.608 6.861 172.824 6.301 173.256C5.741 173.672 5.461 174.256 5.461 175.008C5.461 175.76 5.741 176.352 6.301 176.784C6.861 177.216 7.621 177.432 8.581 177.432ZM8.581 172.224C7.285 172.224 6.149 172.048 5.173 171.696C4.213 171.344 3.461 170.832 2.917 170.16C2.389 169.472 2.125 168.656 2.125 167.712C2.125 166.72 2.397 165.872 2.941 165.168C3.485 164.448 4.245 163.896 5.221 163.512C6.197 163.112 7.317 162.912 8.581 162.912C9.877 162.912 11.005 163.112 11.965 163.512C12.941 163.896 13.701 164.448 14.245 165.168C14.805 165.872 15.085 166.72 15.085 167.712C15.085 168.656 14.813 169.472 14.269 170.16C13.741 170.832 12.989 171.344 12.013 171.696C11.037 172.048 9.893 172.224 8.581 172.224ZM8.581 169.944C9.397 169.944 10.037 169.76 10.501 169.392C10.981 169.024 11.221 168.52 11.221 167.88C11.221 167.208 10.973 166.688 10.477 166.32C9.997 165.952 9.365 165.768 8.581 165.768C7.813 165.768 7.189 165.952 6.709 166.32C6.229 166.688 5.989 167.208 5.989 167.88C5.989 168.52 6.221 169.024 6.685 169.392C7.149 169.76 7.781 169.944 8.581 169.944ZM15.7367 182.4L23.6567 159.792H26.9927L19.0727 182.4H15.7367ZM32.3112 180.288C31.1432 180.288 29.9832 180.136 28.8312 179.832C27.6792 179.512 26.7032 179.064 25.9032 178.488L27.4152 175.512C28.0552 175.976 28.7992 176.344 29.6472 176.616C30.4952 176.888 31.3512 177.024 32.2152 177.024C33.1912 177.024 33.9592 176.832 34.5192 176.448C35.0792 176.064 35.3592 175.536 35.3592 174.864C35.3592 174.224 35.1112 173.72 34.6152 173.352C34.1192 172.984 33.3192 172.8 32.2152 172.8H30.4392V170.232L35.1192 164.928L35.5512 166.32H26.7432V163.2H38.5032V165.72L33.8472 171.024L31.8792 169.896H33.0072C35.0712 169.896 36.6312 170.36 37.6872 171.288C38.7432 172.216 39.2712 173.408 39.2712 174.864C39.2712 175.808 39.0232 176.696 38.5272 177.528C38.0312 178.344 37.2712 179.008 36.2472 179.52C35.2232 180.032 33.9112 180.288 32.3112 180.288ZM48.2663 180.288C46.8903 180.288 45.6583 179.952 44.5703 179.28C43.4823 178.592 42.6263 177.6 42.0023 176.304C41.3783 175.008 41.0663 173.44 41.0663 171.6C41.0663 169.76 41.3783 168.192 42.0023 166.896C42.6263 165.6 43.4823 164.616 44.5703 163.944C45.6583 163.256 46.8903 162.912 48.2663 162.912C49.6583 162.912 50.8903 163.256 51.9623 163.944C53.0503 164.616 53.9063 165.6 54.5303 166.896C55.1543 168.192 55.4663 169.76 55.4663 171.6C55.4663 173.44 55.1543 175.008 54.5303 176.304C53.9063 177.6 53.0503 178.592 51.9623 179.28C50.8903 179.952 49.6583 180.288 48.2663 180.288ZM48.2663 177C48.9223 177 49.4903 176.816 49.9703 176.448C50.4663 176.08 50.8503 175.496 51.1223 174.696C51.4103 173.896 51.5543 172.864 51.5543 171.6C51.5543 170.336 51.4103 169.304 51.1223 168.504C50.8503 167.704 50.4663 167.12 49.9703 166.752C49.4903 166.384 48.9223 166.2 48.2663 166.2C47.6263 166.2 47.0583 166.384 46.5623 166.752C46.0823 167.12 45.6983 167.704 45.4103 168.504C45.1383 169.304 45.0023 170.336 45.0023 171.6C45.0023 172.864 45.1383 173.896 45.4103 174.696C45.6983 175.496 46.0823 176.08 46.5623 176.448C47.0583 176.816 47.6263 177 48.2663 177Z" fill="black"/>
<path d="M8.581 378.096C7.173 378.096 5.941 377.888 4.885 377.472C3.829 377.04 3.005 376.44 2.413 375.672C1.821 374.888 1.525 373.976 1.525 372.936C1.525 371.896 1.813 371.016 2.389 370.296C2.981 369.56 3.805 369.008 4.861 368.64C5.917 368.256 7.157 368.064 8.581 368.064C10.021 368.064 11.269 368.256 12.325 368.64C13.397 369.008 14.221 369.56 14.797 370.296C15.389 371.016 15.685 371.896 15.685 372.936C15.685 373.976 15.389 374.888 14.797 375.672C14.205 376.44 13.373 377.04 12.301 377.472C11.245 377.888 10.005 378.096 8.581 378.096ZM8.581 375.24C9.557 375.24 10.325 375.024 10.885 374.592C11.461 374.16 11.749 373.568 11.749 372.816C11.749 372.064 11.461 371.48 10.885 371.064C10.325 370.632 9.557 370.416 8.581 370.416C7.621 370.416 6.861 370.632 6.301 371.064C5.741 371.48 5.461 372.064 5.461 372.816C5.461 373.568 5.741 374.16 6.301 374.592C6.861 375.024 7.621 375.24 8.581 375.24ZM8.581 370.032C7.285 370.032 6.149 369.856 5.173 369.504C4.213 369.152 3.461 368.64 2.917 367.968C2.389 367.28 2.125 366.464 2.125 365.52C2.125 364.528 2.397 363.68 2.941 362.976C3.485 362.256 4.245 361.704 5.221 361.32C6.197 360.92 7.317 360.72 8.581 360.72C9.877 360.72 11.005 360.92 11.965 361.32C12.941 361.704 13.701 362.256 14.245 362.976C14.805 363.68 15.085 364.528 15.085 365.52C15.085 366.464 14.813 367.28 14.269 367.968C13.741 368.64 12.989 369.152 12.013 369.504C11.037 369.856 9.893 370.032 8.581 370.032ZM8.581 367.752C9.397 367.752 10.037 367.568 10.501 367.2C10.981 366.832 11.221 366.328 11.221 365.688C11.221 365.016 10.973 364.496 10.477 364.128C9.997 363.76 9.365 363.576 8.581 363.576C7.813 363.576 7.189 363.76 6.709 364.128C6.229 364.496 5.989 365.016 5.989 365.688C5.989 366.328 6.221 366.832 6.685 367.2C7.149 367.568 7.781 367.752 8.581 367.752ZM15.7367 380.208L23.6567 357.6H26.9927L19.0727 380.208H15.7367ZM32.3112 378.096C31.1432 378.096 29.9832 377.944 28.8312 377.64C27.6792 377.32 26.7032 376.872 25.9032 376.296L27.4152 373.32C28.0552 373.784 28.7992 374.152 29.6472 374.424C30.4952 374.696 31.3512 374.832 32.2152 374.832C33.1912 374.832 33.9592 374.64 34.5192 374.256C35.0792 373.872 35.3592 373.344 35.3592 372.672C35.3592 372.032 35.1112 371.528 34.6152 371.16C34.1192 370.792 33.3192 370.608 32.2152 370.608H30.4392V368.04L35.1192 362.736L35.5512 364.128H26.7432V361.008H38.5032V363.528L33.8472 368.832L31.8792 367.704H33.0072C35.0712 367.704 36.6312 368.168 37.6872 369.096C38.7432 370.024 39.2712 371.216 39.2712 372.672C39.2712 373.616 39.0232 374.504 38.5272 375.336C38.0312 376.152 37.2712 376.816 36.2472 377.328C35.2232 377.84 33.9112 378.096 32.3112 378.096ZM48.2663 378.096C46.8903 378.096 45.6583 377.76 44.5703 377.088C43.4823 376.4 42.6263 375.408 42.0023 374.112C41.3783 372.816 41.0663 371.248 41.0663 369.408C41.0663 367.568 41.3783 366 42.0023 364.704C42.6263 363.408 43.4823 362.424 44.5703 361.752C45.6583 361.064 46.8903 360.72 48.2663 360.72C49.6583 360.72 50.8903 361.064 51.9623 361.752C53.0503 362.424 53.9063 363.408 54.5303 364.704C55.1543 366 55.4663 367.568 55.4663 369.408C55.4663 371.248 55.1543 372.816 54.5303 374.112C53.9063 375.408 53.0503 376.4 51.9623 377.088C50.8903 377.76 49.6583 378.096 48.2663 378.096ZM48.2663 374.808C48.9223 374.808 49.4903 374.624 49.9703 374.256C50.4663 373.888 50.8503 373.304 51.1223 372.504C51.4103 371.704 51.5543 370.672 51.5543 369.408C51.5543 368.144 51.4103 367.112 51.1223 366.312C50.8503 365.512 50.4663 364.928 49.9703 364.56C49.4903 364.192 48.9223 364.008 48.2663 364.008C47.6263 364.008 47.0583 364.192 46.5623 364.56C46.0823 364.928 45.6983 365.512 45.4103 366.312C45.1383 367.112 45.0023 368.144 45.0023 369.408C45.0023 370.672 45.1383 371.704 45.4103 372.504C45.6983 373.304 46.0823 373.888 46.5623 374.256C47.0583 374.624 47.6263 374.808 48.2663 374.808ZM25.1713 398.552V395.552H31.9633V398.552H25.1713ZM16.2086 412.72C17.7606 412.72 19.0966 413.04 20.2166 413.68C21.3366 414.32 22.2006 415.256 22.8086 416.488C23.4166 417.704 23.7206 419.224 23.7206 421.048C23.7206 422.984 23.3526 424.624 22.6166 425.968C21.8966 427.312 20.8966 428.336 19.6166 429.04C18.3366 429.744 16.8486 430.096 15.1526 430.096C14.2726 430.096 13.4246 430 12.6086 429.808C11.7926 429.616 11.0886 429.328 10.4966 428.944L11.9366 426.088C12.4006 426.408 12.8966 426.632 13.4246 426.76C13.9526 426.872 14.5046 426.928 15.0806 426.928C16.5206 426.928 17.6646 426.488 18.5126 425.608C19.3766 424.728 19.8086 423.424 19.8086 421.696C19.8086 421.408 19.8006 421.088 19.7846 420.736C19.7686 420.384 19.7286 420.032 19.6646 419.68L20.7206 420.688C20.4486 421.312 20.0646 421.84 19.5686 422.272C19.0726 422.688 18.4966 423.008 17.8406 423.232C17.1846 423.44 16.4486 423.544 15.6326 423.544C14.5606 423.544 13.5846 423.328 12.7046 422.896C11.8406 422.464 11.1446 421.856 10.6166 421.072C10.1046 420.288 9.84859 419.368 9.84859 418.312C9.84859 417.16 10.1286 416.168 10.6886 415.336C11.2646 414.504 12.0326 413.864 12.9926 413.416C13.9686 412.952 15.0406 412.72 16.2086 412.72ZM16.4486 415.624C15.8886 415.624 15.4006 415.728 14.9846 415.936C14.5686 416.128 14.2406 416.416 14.0006 416.8C13.7606 417.168 13.6406 417.608 13.6406 418.12C13.6406 418.888 13.8966 419.504 14.4086 419.968C14.9366 420.416 15.6326 420.64 16.4966 420.64C17.0566 420.64 17.5526 420.536 17.9846 420.328C18.4326 420.104 18.7766 419.8 19.0166 419.416C19.2566 419.032 19.3766 418.6 19.3766 418.12C19.3766 417.64 19.2566 417.216 19.0166 416.848C18.7926 416.464 18.4646 416.168 18.0326 415.96C17.6006 415.736 17.0726 415.624 16.4486 415.624ZM23.3891 432.208L31.3091 409.6H34.6451L26.7251 432.208H23.3891ZM34.3715 429.808V427.288L40.8515 421.168C41.3635 420.704 41.7395 420.288 41.9795 419.92C42.2195 419.552 42.3795 419.216 42.4595 418.912C42.5555 418.608 42.6035 418.328 42.6035 418.072C42.6035 417.4 42.3715 416.888 41.9075 416.536C41.4595 416.168 40.7955 415.984 39.9155 415.984C39.2115 415.984 38.5555 416.12 37.9475 416.392C37.3555 416.664 36.8515 417.088 36.4355 417.664L33.6035 415.84C34.2435 414.88 35.1395 414.12 36.2915 413.56C37.4435 413 38.7715 412.72 40.2755 412.72C41.5235 412.72 42.6115 412.928 43.5395 413.344C44.4835 413.744 45.2115 414.312 45.7235 415.048C46.2515 415.784 46.5155 416.664 46.5155 417.688C46.5155 418.232 46.4435 418.776 46.2995 419.32C46.1715 419.848 45.8995 420.408 45.4835 421C45.0835 421.592 44.4915 422.256 43.7075 422.992L38.3315 428.056L37.5875 426.64H47.0675V429.808H34.3715Z" fill="black"/>
<path d="M94.4478 22.3301C94.4478 18.1879 91.2136 14.8301 87.224 14.8301C83.2344 14.8301 80.0001 18.1879 80.0001 22.3301C80.0001 26.4722 83.2344 29.8301 87.224 29.8301C91.2136 29.8301 94.4478 26.4722 94.4478 22.3301Z" fill="black"/>
<path d="M86.776 376.223C90.7656 376.223 93.9999 379.58 93.9999 383.723C93.9999 387.865 90.7656 391.223 86.776 391.223C82.7863 391.223 79.5522 387.865 79.5522 383.723C79.5522 379.58 82.7863 376.223 86.776 376.223Z" fill="black"/>
<path d="M86.776 162C90.7656 162 93.9999 165.357 93.9999 169.5C93.9999 173.642 90.7656 177 86.776 177C82.7863 177 79.5522 173.642 79.5522 169.5C79.5522 165.357 82.7863 162 86.776 162Z" fill="black"/>
<path d="M87 598.415L87 0.415039" stroke="black" stroke-width="4.41953"/>
</g>
<defs>
<clipPath id="clip0_165_51">
<rect width="93.8956" height="656" fill="white" transform="translate(0.552185 0.415039)"/>
</clipPath>
</defs>
</svg>
