<svg width="94" height="354" viewBox="0 0 94 354" fill="none" xmlns="http://www.w3.org/2000/svg">
<circle cx="86.5" cy="7.5" r="7.5" transform="rotate(-90 86.5 7.5)" fill="black"/>
<circle cx="86.5" cy="212.5" r="7.5" transform="rotate(-90 86.5 212.5)" fill="black"/>
<line x1="85.7902" y1="354" x2="85.7902" y2="8" stroke="black" stroke-width="4.41953"/>
<path d="M8.45295 3.8V22H4.24095V7.18H0.600945V3.8H8.45295ZM18.3226 0.107998H21.9366L13.3566 24.6H9.74259L18.3226 0.107998ZM35.3942 18.568V22H21.6402V19.27L28.6602 12.64C29.4056 11.9293 29.9082 11.3227 30.1682 10.82C30.4282 10.3 30.5582 9.78867 30.5582 9.286C30.5582 8.558 30.3069 8.00333 29.8042 7.622C29.3189 7.22333 28.5996 7.024 27.6462 7.024C26.8489 7.024 26.1296 7.18 25.4882 7.492C24.8469 7.78667 24.3096 8.23733 23.8762 8.844L20.8082 6.868C21.5189 5.81067 22.4982 4.98733 23.7462 4.398C24.9942 3.79133 26.4242 3.488 28.0362 3.488C29.3882 3.488 30.5669 3.71333 31.5722 4.164C32.5949 4.59733 33.3836 5.22133 33.9382 6.036C34.5102 6.83333 34.7962 7.778 34.7962 8.87C34.7962 9.858 34.5882 10.7853 34.1722 11.652C33.7562 12.5187 32.9502 13.5067 31.7542 14.616L27.5682 18.568H35.3942ZM43.3722 10.638C45.9375 10.638 47.8268 11.1493 49.0402 12.172C50.2708 13.1947 50.8862 14.564 50.8862 16.28C50.8862 17.3893 50.6088 18.4033 50.0542 19.322C49.4995 20.2233 48.6502 20.9513 47.5062 21.506C46.3795 22.0433 44.9842 22.312 43.3202 22.312C42.0375 22.312 40.7722 22.1473 39.5242 21.818C38.2935 21.4713 37.2448 20.986 36.3782 20.362L38.0422 17.138C38.7355 17.658 39.5328 18.0653 40.4342 18.36C41.3355 18.6373 42.2628 18.776 43.2162 18.776C44.2735 18.776 45.1055 18.568 45.7122 18.152C46.3188 17.736 46.6222 17.1553 46.6222 16.41C46.6222 15.63 46.3015 15.0407 45.6602 14.642C45.0362 14.2433 43.9442 14.044 42.3842 14.044H37.7302L38.6662 3.8H49.7682V7.18H42.1762L41.8902 10.638H43.3722ZM32.688 48.312L30.504 46.284C28.7707 47.636 26.7427 48.312 24.42 48.312C23.1027 48.312 21.9153 48.104 20.858 47.688C19.8007 47.2547 18.9687 46.6567 18.362 45.894C17.7727 45.1313 17.478 44.2733 17.478 43.32C17.478 42.1933 17.79 41.2053 18.414 40.356C19.0553 39.4893 20.078 38.666 21.482 37.886C20.8233 37.21 20.3467 36.5687 20.052 35.962C19.7573 35.338 19.61 34.6967 19.61 34.038C19.61 33.154 19.844 32.374 20.312 31.698C20.78 31.022 21.4387 30.502 22.288 30.138C23.1547 29.7567 24.1513 29.566 25.278 29.566C26.8553 29.566 28.1207 29.9473 29.074 30.71C30.0273 31.4553 30.504 32.4693 30.504 33.752C30.504 34.688 30.218 35.52 29.646 36.248C29.0913 36.976 28.19 37.678 26.942 38.354L30.27 41.448C30.6687 40.616 30.972 39.6713 31.18 38.614L34.43 39.628C34.0833 41.24 33.5287 42.618 32.766 43.762L34.898 45.738L32.688 48.312ZM25.278 32.322C24.6713 32.322 24.186 32.478 23.822 32.79C23.4753 33.102 23.302 33.5007 23.302 33.986C23.302 34.35 23.3973 34.6967 23.588 35.026C23.7787 35.338 24.1513 35.7627 24.706 36.3C25.59 35.832 26.2053 35.416 26.552 35.052C26.8987 34.6707 27.072 34.2633 27.072 33.83C27.072 33.3793 26.916 33.0153 26.604 32.738C26.292 32.4607 25.85 32.322 25.278 32.322ZM24.706 45.14C25.9713 45.14 27.1067 44.7847 28.112 44.074L23.718 39.966C22.9033 40.434 22.3227 40.8933 21.976 41.344C21.6293 41.7947 21.456 42.306 21.456 42.878C21.456 43.554 21.7507 44.1 22.34 44.516C22.9293 44.932 23.718 45.14 24.706 45.14ZM8.14826 55.8V74H3.93626V59.18H0.296258V55.8H8.14826ZM18.0179 52.108H21.6319L13.0519 76.6H9.4379L18.0179 52.108ZM35.0895 70.568V74H21.3355V71.27L28.3555 64.64C29.1009 63.9293 29.6035 63.3227 29.8635 62.82C30.1235 62.3 30.2535 61.7887 30.2535 61.286C30.2535 60.558 30.0022 60.0033 29.4995 59.622C29.0142 59.2233 28.2949 59.024 27.3415 59.024C26.5442 59.024 25.8249 59.18 25.1835 59.492C24.5422 59.7867 24.0049 60.2373 23.5715 60.844L20.5035 58.868C21.2142 57.8107 22.1935 56.9873 23.4415 56.398C24.6895 55.7913 26.1195 55.488 27.7315 55.488C29.0835 55.488 30.2622 55.7133 31.2675 56.164C32.2902 56.5973 33.0789 57.2213 33.6335 58.036C34.2055 58.8333 34.4915 59.778 34.4915 60.87C34.4915 61.858 34.2835 62.7853 33.8675 63.652C33.4515 64.5187 32.6455 65.5067 31.4495 66.616L27.2635 70.568H35.0895ZM51.0247 55.8V58.53L44.2647 74H39.6887L46.2147 59.232H40.1827V62.196H36.4387V55.8H51.0247Z" fill="#202020"/>
<path d="M8.14826 207.8V226H3.93626V211.18H0.296258V207.8H8.14826ZM18.0179 204.108H21.6319L13.0519 228.6H9.4379L18.0179 204.108ZM35.0895 222.568V226H21.3355V223.27L28.3555 216.64C29.1009 215.929 29.6035 215.323 29.8635 214.82C30.1235 214.3 30.2535 213.789 30.2535 213.286C30.2535 212.558 30.0022 212.003 29.4995 211.622C29.0142 211.223 28.2949 211.024 27.3415 211.024C26.5442 211.024 25.8249 211.18 25.1835 211.492C24.5422 211.787 24.0049 212.237 23.5715 212.844L20.5035 210.868C21.2142 209.811 22.1935 208.987 23.4415 208.398C24.6895 207.791 26.1195 207.488 27.7315 207.488C29.0835 207.488 30.2622 207.713 31.2675 208.164C32.2902 208.597 33.0789 209.221 33.6335 210.036C34.2055 210.833 34.4915 211.778 34.4915 212.87C34.4915 213.858 34.2835 214.785 33.8675 215.652C33.4515 216.519 32.6455 217.507 31.4495 218.616L27.2635 222.568H35.0895ZM51.0247 207.8V210.53L44.2647 226H39.6887L46.2147 211.232H40.1827V214.196H36.4387V207.8H51.0247ZM22.3374 243.056H29.6954V246.306H22.3374V243.056ZM11.0682 259.8V278H6.85618V263.18H3.21618V259.8H11.0682ZM20.9378 256.108H24.5518L15.9718 280.6H12.3578L20.9378 256.108ZM32.9135 267.21C34.5081 267.47 35.7301 268.068 36.5795 269.004C37.4288 269.923 37.8535 271.067 37.8535 272.436C37.8535 273.493 37.5761 274.473 37.0215 275.374C36.4668 276.258 35.6175 276.969 34.4735 277.506C33.3468 278.043 31.9601 278.312 30.3135 278.312C29.0308 278.312 27.7655 278.147 26.5175 277.818C25.2868 277.471 24.2381 276.986 23.3715 276.362L25.0095 273.138C25.7028 273.658 26.5001 274.065 27.4015 274.36C28.3201 274.637 29.2561 274.776 30.2095 274.776C31.2668 274.776 32.0988 274.577 32.7055 274.178C33.3121 273.762 33.6155 273.181 33.6155 272.436C33.6155 270.945 32.4801 270.2 30.2095 270.2H28.2855V267.418L32.0295 263.18H24.2815V259.8H37.0215V262.53L32.9135 267.21ZM46.8182 259.8V278H42.6062V263.18H38.9662V259.8H46.8182Z" fill="#202020"/>
</svg>
