<svg width="89" height="568" viewBox="0 0 89 568" fill="none" xmlns="http://www.w3.org/2000/svg">
<g clip-path="url(#clip0_801_736)">
<path d="M88.0571 7.5C88.0571 3.35786 84.8229 0 80.8333 0C76.8437 0 73.6094 3.35786 73.6094 7.5C73.6094 11.6421 76.8437 15 80.8333 15C84.8229 15 88.0571 11.6421 88.0571 7.5Z" fill="black"/>
<path d="M80.2238 315C84.2134 315 87.4477 318.357 87.4477 322.5C87.4477 326.642 84.2134 330 80.2238 330C76.2341 330 73 326.642 73 322.5C73 318.357 76.2341 315 80.2238 315Z" fill="black"/>
<path d="M80.1494 568V8" stroke="black" stroke-width="4.41953"/>
<path d="M3.90691 22V6.64L5.58691 8.32H0.546906V5.2H7.79491V22H3.90691ZM8.98534 24.4L16.9053 1.792H20.2413L12.3213 24.4H8.98534ZM19.9678 22V19.48L26.4478 13.36C26.9598 12.896 27.3358 12.48 27.5758 12.112C27.8158 11.744 27.9758 11.408 28.0558 11.104C28.1518 10.8 28.1998 10.52 28.1998 10.264C28.1998 9.592 27.9678 9.08 27.5038 8.728C27.0558 8.36 26.3918 8.176 25.5118 8.176C24.8078 8.176 24.1518 8.312 23.5438 8.584C22.9518 8.856 22.4478 9.28 22.0318 9.856L19.1998 8.032C19.8398 7.072 20.7358 6.312 21.8878 5.752C23.0398 5.192 24.3678 4.912 25.8718 4.912C27.1198 4.912 28.2078 5.12 29.1358 5.536C30.0798 5.936 30.8078 6.504 31.3198 7.24C31.8478 7.976 32.1118 8.856 32.1118 9.88C32.1118 10.424 32.0398 10.968 31.8958 11.512C31.7678 12.04 31.4958 12.6 31.0798 13.192C30.6798 13.784 30.0878 14.448 29.3038 15.184L23.9278 20.248L23.1838 18.832H32.6638V22H19.9678ZM33.8182 18.472V15.856L41.7382 5.2H45.8182L38.0662 15.856L36.1702 15.304H49.3942V18.472H33.8182ZM42.8662 22V18.472L42.9862 15.304V12.16H46.6582V22H42.8662ZM23.5415 48.288C22.3095 48.288 21.2135 48.088 20.2535 47.688C19.2935 47.288 18.5335 46.744 17.9735 46.056C17.4135 45.368 17.1335 44.576 17.1335 43.68C17.1335 42.848 17.3175 42.104 17.6855 41.448C18.0535 40.776 18.6375 40.152 19.4375 39.576C20.2375 38.984 21.2535 38.408 22.4855 37.848C23.3815 37.432 24.0855 37.064 24.5975 36.744C25.1095 36.424 25.4695 36.12 25.6775 35.832C25.8855 35.528 25.9895 35.224 25.9895 34.92C25.9895 34.504 25.8455 34.168 25.5575 33.912C25.2855 33.656 24.8775 33.528 24.3335 33.528C23.7575 33.528 23.3095 33.672 22.9895 33.96C22.6695 34.248 22.5095 34.616 22.5095 35.064C22.5095 35.304 22.5575 35.544 22.6535 35.784C22.7495 36.008 22.9335 36.272 23.2055 36.576C23.4775 36.864 23.8615 37.24 24.3575 37.704L33.2135 45.912L31.1735 48.288L21.4055 39.216C20.8455 38.704 20.3975 38.224 20.0615 37.776C19.7255 37.328 19.4775 36.888 19.3175 36.456C19.1735 36.024 19.1015 35.576 19.1015 35.112C19.1015 34.296 19.3175 33.576 19.7495 32.952C20.1815 32.328 20.7895 31.848 21.5735 31.512C22.3575 31.16 23.2775 30.984 24.3335 30.984C25.3095 30.984 26.1495 31.144 26.8535 31.464C27.5735 31.768 28.1335 32.208 28.5335 32.784C28.9495 33.36 29.1575 34.048 29.1575 34.848C29.1575 35.552 28.9815 36.2 28.6295 36.792C28.2775 37.368 27.7255 37.912 26.9735 38.424C26.2375 38.936 25.2695 39.456 24.0695 39.984C23.2535 40.352 22.6055 40.712 22.1255 41.064C21.6615 41.4 21.3255 41.744 21.1175 42.096C20.9095 42.448 20.8055 42.84 20.8055 43.272C20.8055 43.672 20.9255 44.032 21.1655 44.352C21.4215 44.672 21.7735 44.92 22.2215 45.096C22.6695 45.272 23.1975 45.36 23.8055 45.36C24.7815 45.36 25.6775 45.136 26.4935 44.688C27.3095 44.224 27.9975 43.544 28.5575 42.648C29.1335 41.736 29.5415 40.632 29.7815 39.336L32.7815 40.272C32.4455 41.904 31.8455 43.32 30.9815 44.52C30.1175 45.72 29.0535 46.648 27.7895 47.304C26.5255 47.96 25.1095 48.288 23.5415 48.288ZM4.91472 74V58.64L6.59472 60.32H1.55472V57.2H8.80272V74H4.91472ZM9.99316 76.4L17.9132 53.792H21.2492L13.3292 76.4H9.99316ZM20.9756 74V71.48L27.4556 65.36C27.9676 64.896 28.3436 64.48 28.5836 64.112C28.8236 63.744 28.9836 63.408 29.0636 63.104C29.1596 62.8 29.2076 62.52 29.2076 62.264C29.2076 61.592 28.9756 61.08 28.5116 60.728C28.0636 60.36 27.3996 60.176 26.5196 60.176C25.8156 60.176 25.1596 60.312 24.5516 60.584C23.9596 60.856 23.4556 61.28 23.0396 61.856L20.2076 60.032C20.8476 59.072 21.7436 58.312 22.8956 57.752C24.0476 57.192 25.3756 56.912 26.8796 56.912C28.1276 56.912 29.2156 57.12 30.1436 57.536C31.0876 57.936 31.8156 58.504 32.3276 59.24C32.8556 59.976 33.1196 60.856 33.1196 61.88C33.1196 62.424 33.0476 62.968 32.9036 63.512C32.7756 64.04 32.5036 64.6 32.0876 65.192C31.6876 65.784 31.0956 66.448 30.3116 67.184L24.9356 72.248L24.1916 70.832H33.6716V74H20.9756ZM40.9878 74.288C39.8198 74.288 38.6598 74.136 37.5078 73.832C36.3718 73.512 35.3958 73.064 34.5798 72.488L36.1158 69.512C36.7558 69.976 37.4918 70.344 38.3238 70.616C39.1718 70.888 40.0278 71.024 40.8918 71.024C41.8678 71.024 42.6358 70.832 43.1958 70.448C43.7558 70.064 44.0358 69.528 44.0358 68.84C44.0358 68.408 43.9238 68.024 43.6998 67.688C43.4758 67.352 43.0758 67.096 42.4998 66.92C41.9398 66.744 41.1478 66.656 40.1238 66.656H35.8278L36.6918 57.2H46.9398V60.32H38.0838L40.0998 58.544L39.4998 65.288L37.4838 63.512H41.0358C42.6998 63.512 44.0358 63.744 45.0438 64.208C46.0678 64.656 46.8118 65.272 47.2758 66.056C47.7398 66.84 47.9718 67.728 47.9718 68.72C47.9718 69.712 47.7238 70.632 47.2278 71.48C46.7318 72.312 45.9638 72.992 44.9238 73.52C43.8998 74.032 42.5878 74.288 40.9878 74.288Z" fill="black"/>
<path d="M5.41472 337V321.64L7.09472 323.32H2.05472V320.2H9.30272V337H5.41472ZM10.4932 339.4L18.4132 316.792H21.7492L13.8292 339.4H10.4932ZM21.4756 337V334.48L27.9556 328.36C28.4676 327.896 28.8436 327.48 29.0836 327.112C29.3236 326.744 29.4836 326.408 29.5636 326.104C29.6596 325.8 29.7076 325.52 29.7076 325.264C29.7076 324.592 29.4756 324.08 29.0116 323.728C28.5636 323.36 27.8996 323.176 27.0196 323.176C26.3156 323.176 25.6596 323.312 25.0516 323.584C24.4596 323.856 23.9556 324.28 23.5396 324.856L20.7076 323.032C21.3476 322.072 22.2436 321.312 23.3956 320.752C24.5476 320.192 25.8756 319.912 27.3796 319.912C28.6276 319.912 29.7156 320.12 30.6436 320.536C31.5876 320.936 32.3156 321.504 32.8276 322.24C33.3556 322.976 33.6196 323.856 33.6196 324.88C33.6196 325.424 33.5476 325.968 33.4036 326.512C33.2756 327.04 33.0036 327.6 32.5876 328.192C32.1876 328.784 31.5956 329.448 30.8116 330.184L25.4356 335.248L24.6916 333.832H34.1716V337H21.4756ZM41.4878 337.288C40.3198 337.288 39.1598 337.136 38.0078 336.832C36.8718 336.512 35.8958 336.064 35.0798 335.488L36.6158 332.512C37.2558 332.976 37.9918 333.344 38.8238 333.616C39.6718 333.888 40.5278 334.024 41.3918 334.024C42.3678 334.024 43.1358 333.832 43.6958 333.448C44.2558 333.064 44.5358 332.528 44.5358 331.84C44.5358 331.408 44.4238 331.024 44.1998 330.688C43.9758 330.352 43.5758 330.096 42.9998 329.92C42.4398 329.744 41.6478 329.656 40.6238 329.656H36.3278L37.1918 320.2H47.4398V323.32H38.5838L40.5998 321.544L39.9998 328.288L37.9838 326.512H41.5358C43.1998 326.512 44.5358 326.744 45.5438 327.208C46.5678 327.656 47.3118 328.272 47.7758 329.056C48.2398 329.84 48.4718 330.728 48.4718 331.72C48.4718 332.712 48.2238 333.632 47.7278 334.48C47.2318 335.312 46.4638 335.992 45.4238 336.52C44.3998 337.032 43.0878 337.288 41.4878 337.288ZM22.1191 357.744V354.744H28.9111V357.744H22.1191ZM4.62956 389V373.64L6.30956 375.32H1.26956V372.2H8.51756V389H4.62956ZM9.708 391.4L17.628 368.792H20.964L13.044 391.4H9.708ZM20.6904 389V386.48L27.1704 380.36C27.6824 379.896 28.0584 379.48 28.2984 379.112C28.5384 378.744 28.6984 378.408 28.7784 378.104C28.8744 377.8 28.9224 377.52 28.9224 377.264C28.9224 376.592 28.6904 376.08 28.2264 375.728C27.7784 375.36 27.1144 375.176 26.2344 375.176C25.5304 375.176 24.8744 375.312 24.2664 375.584C23.6744 375.856 23.1704 376.28 22.7544 376.856L19.9224 375.032C20.5624 374.072 21.4584 373.312 22.6104 372.752C23.7624 372.192 25.0904 371.912 26.5944 371.912C27.8424 371.912 28.9304 372.12 29.8584 372.536C30.8024 372.936 31.5304 373.504 32.0424 374.24C32.5704 374.976 32.8344 375.856 32.8344 376.88C32.8344 377.424 32.7624 377.968 32.6184 378.512C32.4904 379.04 32.2184 379.6 31.8024 380.192C31.4024 380.784 30.8104 381.448 30.0264 382.184L24.6504 387.248L23.9064 385.832H33.3864V389H20.6904ZM41.9507 389.288C40.5427 389.288 39.3107 389.08 38.2547 388.664C37.1987 388.232 36.3747 387.632 35.7827 386.864C35.1907 386.08 34.8947 385.168 34.8947 384.128C34.8947 383.088 35.1827 382.208 35.7587 381.488C36.3507 380.752 37.1747 380.2 38.2307 379.832C39.2867 379.448 40.5267 379.256 41.9507 379.256C43.3907 379.256 44.6387 379.448 45.6947 379.832C46.7667 380.2 47.5907 380.752 48.1667 381.488C48.7587 382.208 49.0547 383.088 49.0547 384.128C49.0547 385.168 48.7587 386.08 48.1667 386.864C47.5747 387.632 46.7427 388.232 45.6707 388.664C44.6147 389.08 43.3747 389.288 41.9507 389.288ZM41.9507 386.432C42.9267 386.432 43.6947 386.216 44.2547 385.784C44.8307 385.352 45.1187 384.76 45.1187 384.008C45.1187 383.256 44.8307 382.672 44.2547 382.256C43.6947 381.824 42.9267 381.608 41.9507 381.608C40.9907 381.608 40.2307 381.824 39.6707 382.256C39.1107 382.672 38.8307 383.256 38.8307 384.008C38.8307 384.76 39.1107 385.352 39.6707 385.784C40.2307 386.216 40.9907 386.432 41.9507 386.432ZM41.9507 381.224C40.6547 381.224 39.5187 381.048 38.5427 380.696C37.5827 380.344 36.8307 379.832 36.2867 379.16C35.7587 378.472 35.4947 377.656 35.4947 376.712C35.4947 375.72 35.7667 374.872 36.3107 374.168C36.8547 373.448 37.6147 372.896 38.5907 372.512C39.5667 372.112 40.6867 371.912 41.9507 371.912C43.2467 371.912 44.3747 372.112 45.3347 372.512C46.3107 372.896 47.0707 373.448 47.6147 374.168C48.1747 374.872 48.4547 375.72 48.4547 376.712C48.4547 377.656 48.1827 378.472 47.6387 379.16C47.1107 379.832 46.3587 380.344 45.3827 380.696C44.4067 381.048 43.2627 381.224 41.9507 381.224ZM41.9507 378.944C42.7667 378.944 43.4067 378.76 43.8707 378.392C44.3507 378.024 44.5907 377.52 44.5907 376.88C44.5907 376.208 44.3427 375.688 43.8467 375.32C43.3667 374.952 42.7347 374.768 41.9507 374.768C41.1827 374.768 40.5587 374.952 40.0787 375.32C39.5987 375.688 39.3587 376.208 39.3587 376.88C39.3587 377.52 39.5907 378.024 40.0547 378.392C40.5187 378.76 41.1507 378.944 41.9507 378.944Z" fill="black"/>
</g>
<defs>
<clipPath id="clip0_801_736">
<rect width="89" height="568" fill="white"/>
</clipPath>
</defs>
</svg>
