<svg width="92" height="354" viewBox="0 0 92 354" fill="none" xmlns="http://www.w3.org/2000/svg">
<circle cx="84.5" cy="7.5" r="7.5" transform="rotate(-90 84.5 7.5)" fill="black"/>
<path d="M83.8682 204.974C88.0103 204.974 91.3682 208.331 91.3682 212.474C91.3682 216.616 88.0103 219.974 83.8682 219.974C79.726 219.974 76.3682 216.616 76.3682 212.474C76.3682 208.331 79.726 204.974 83.8682 204.974Z" fill="black"/>
<line x1="83.7902" y1="354" x2="83.7902" y2="8" stroke="black" stroke-width="4.41953"/>
<path d="M13.3114 3.488C15.8594 3.488 17.8527 4.268 19.2914 5.828C20.73 7.37067 21.4494 9.598 21.4494 12.51C21.4494 14.5727 21.0594 16.3407 20.2794 17.814C19.5167 19.2873 18.4334 20.4053 17.0294 21.168C15.6254 21.9307 14.0047 22.312 12.1674 22.312C11.1967 22.312 10.2694 22.208 9.38537 22C8.50137 21.7747 7.74737 21.4627 7.12337 21.064L8.68337 17.97C9.56737 18.5767 10.7027 18.88 12.0894 18.88C13.632 18.88 14.854 18.4293 15.7554 17.528C16.6567 16.6093 17.142 15.292 17.2114 13.576C16.1194 14.668 14.6114 15.214 12.6874 15.214C11.526 15.214 10.4687 14.98 9.51537 14.512C8.56203 14.044 7.80803 13.3853 7.25337 12.536C6.6987 11.6693 6.42137 10.6727 6.42137 9.546C6.42137 8.33267 6.7247 7.26667 7.33137 6.348C7.93803 5.42933 8.76137 4.72733 9.80137 4.242C10.8587 3.73933 12.0287 3.488 13.3114 3.488ZM13.6234 12.068C14.542 12.068 15.2874 11.8167 15.8594 11.314C16.4487 10.794 16.7434 10.1353 16.7434 9.338C16.7434 8.54067 16.4574 7.89067 15.8854 7.388C15.3307 6.88533 14.5594 6.634 13.5714 6.634C12.67 6.634 11.9334 6.87667 11.3614 7.362C10.8067 7.84733 10.5294 8.506 10.5294 9.338C10.5294 10.17 10.8067 10.8373 11.3614 11.34C11.9334 11.8253 12.6874 12.068 13.6234 12.068ZM29.6702 0.107998H33.2842L24.7042 24.6H21.0902L29.6702 0.107998ZM40.951 3.8V22H36.739V7.18H33.099V3.8H40.951ZM31.188 48.312L29.004 46.284C27.2707 47.636 25.2427 48.312 22.92 48.312C21.6027 48.312 20.4153 48.104 19.358 47.688C18.3007 47.2547 17.4687 46.6567 16.862 45.894C16.2727 45.1313 15.978 44.2733 15.978 43.32C15.978 42.1933 16.29 41.2053 16.914 40.356C17.5553 39.4893 18.578 38.666 19.982 37.886C19.3233 37.21 18.8467 36.5687 18.552 35.962C18.2573 35.338 18.11 34.6967 18.11 34.038C18.11 33.154 18.344 32.374 18.812 31.698C19.28 31.022 19.9387 30.502 20.788 30.138C21.6547 29.7567 22.6513 29.566 23.778 29.566C25.3553 29.566 26.6207 29.9473 27.574 30.71C28.5273 31.4553 29.004 32.4693 29.004 33.752C29.004 34.688 28.718 35.52 28.146 36.248C27.5913 36.976 26.69 37.678 25.442 38.354L28.77 41.448C29.1687 40.616 29.472 39.6713 29.68 38.614L32.93 39.628C32.5833 41.24 32.0287 42.618 31.266 43.762L33.398 45.738L31.188 48.312ZM23.778 32.322C23.1713 32.322 22.686 32.478 22.322 32.79C21.9753 33.102 21.802 33.5007 21.802 33.986C21.802 34.35 21.8973 34.6967 22.088 35.026C22.2787 35.338 22.6513 35.7627 23.206 36.3C24.09 35.832 24.7053 35.416 25.052 35.052C25.3987 34.6707 25.572 34.2633 25.572 33.83C25.572 33.3793 25.416 33.0153 25.104 32.738C24.792 32.4607 24.35 32.322 23.778 32.322ZM23.206 45.14C24.4713 45.14 25.6067 44.7847 26.612 44.074L22.218 39.966C21.4033 40.434 20.8227 40.8933 20.476 41.344C20.1293 41.7947 19.956 42.306 19.956 42.878C19.956 43.554 20.2507 44.1 20.84 44.516C21.4293 44.932 22.218 45.14 23.206 45.14ZM10.6454 55.488C13.1934 55.488 15.1867 56.268 16.6254 57.828C18.064 59.3707 18.7834 61.598 18.7834 64.51C18.7834 66.5727 18.3934 68.3407 17.6134 69.814C16.8507 71.2873 15.7674 72.4053 14.3634 73.168C12.9594 73.9307 11.3387 74.312 9.50135 74.312C8.53069 74.312 7.60335 74.208 6.71935 74C5.83535 73.7747 5.08135 73.4627 4.45735 73.064L6.01735 69.97C6.90135 70.5767 8.03669 70.88 9.42335 70.88C10.966 70.88 12.188 70.4293 13.0894 69.528C13.9907 68.6093 14.476 67.292 14.5454 65.576C13.4534 66.668 11.9454 67.214 10.0214 67.214C8.86002 67.214 7.80269 66.98 6.84935 66.512C5.89602 66.044 5.14202 65.3853 4.58735 64.536C4.03268 63.6693 3.75535 62.6727 3.75535 61.546C3.75535 60.3327 4.05868 59.2667 4.66535 58.348C5.27202 57.4293 6.09535 56.7273 7.13535 56.242C8.19269 55.7393 9.36269 55.488 10.6454 55.488ZM10.9574 64.068C11.876 64.068 12.6214 63.8167 13.1934 63.314C13.7827 62.794 14.0774 62.1353 14.0774 61.338C14.0774 60.5407 13.7914 59.8907 13.2194 59.388C12.6647 58.8853 11.8934 58.634 10.9054 58.634C10.004 58.634 9.26735 58.8767 8.69535 59.362C8.14069 59.8473 7.86335 60.506 7.86335 61.338C7.86335 62.17 8.14069 62.8373 8.69535 63.34C9.26735 63.8253 10.0214 64.068 10.9574 64.068ZM27.0042 52.108H30.6182L22.0382 76.6H18.4242L27.0042 52.108ZM44.9036 55.8V58.53L38.1436 74H33.5676L40.0936 59.232H34.0616V62.196H30.3176V55.8H44.9036Z" fill="#202020"/>
<path d="M10.1454 207.488C12.6934 207.488 14.6867 208.268 16.1254 209.828C17.564 211.371 18.2834 213.598 18.2834 216.51C18.2834 218.573 17.8934 220.341 17.1134 221.814C16.3507 223.287 15.2674 224.405 13.8634 225.168C12.4594 225.931 10.8387 226.312 9.00135 226.312C8.03069 226.312 7.10335 226.208 6.21935 226C5.33535 225.775 4.58135 225.463 3.95735 225.064L5.51735 221.97C6.40135 222.577 7.53669 222.88 8.92335 222.88C10.466 222.88 11.688 222.429 12.5894 221.528C13.4907 220.609 13.976 219.292 14.0454 217.576C12.9534 218.668 11.4454 219.214 9.52135 219.214C8.36002 219.214 7.30269 218.98 6.34935 218.512C5.39602 218.044 4.64202 217.385 4.08735 216.536C3.53268 215.669 3.25535 214.673 3.25535 213.546C3.25535 212.333 3.55868 211.267 4.16535 210.348C4.77202 209.429 5.59535 208.727 6.63535 208.242C7.69269 207.739 8.86269 207.488 10.1454 207.488ZM10.4574 216.068C11.376 216.068 12.1214 215.817 12.6934 215.314C13.2827 214.794 13.5774 214.135 13.5774 213.338C13.5774 212.541 13.2914 211.891 12.7194 211.388C12.1647 210.885 11.3934 210.634 10.4054 210.634C9.50402 210.634 8.76735 210.877 8.19535 211.362C7.64069 211.847 7.36335 212.506 7.36335 213.338C7.36335 214.17 7.64069 214.837 8.19535 215.34C8.76735 215.825 9.52135 216.068 10.4574 216.068ZM26.5042 204.108H30.1182L21.5382 228.6H17.9242L26.5042 204.108ZM44.4036 207.8V210.53L37.6436 226H33.0676L39.5936 211.232H33.5616V214.196H29.8176V207.8H44.4036ZM20.3374 243.056H27.6954V246.306H20.3374V243.056ZM7.72055 259.488C10.2685 259.488 12.2619 260.268 13.7005 261.828C15.1392 263.371 15.8585 265.598 15.8585 268.51C15.8585 270.573 15.4685 272.341 14.6885 273.814C13.9259 275.287 12.8425 276.405 11.4385 277.168C10.0345 277.931 8.41388 278.312 6.57655 278.312C5.60588 278.312 4.67855 278.208 3.79455 278C2.91055 277.775 2.15655 277.463 1.53255 277.064L3.09255 273.97C3.97655 274.577 5.11188 274.88 6.49855 274.88C8.04121 274.88 9.26321 274.429 10.1645 273.528C11.0659 272.609 11.5512 271.292 11.6205 269.576C10.5285 270.668 9.02055 271.214 7.09655 271.214C5.93521 271.214 4.87788 270.98 3.92455 270.512C2.97121 270.044 2.21721 269.385 1.66255 268.536C1.10788 267.669 0.830547 266.673 0.830547 265.546C0.830547 264.333 1.13388 263.267 1.74055 262.348C2.34721 261.429 3.17055 260.727 4.21055 260.242C5.26788 259.739 6.43788 259.488 7.72055 259.488ZM8.03255 268.068C8.95121 268.068 9.69655 267.817 10.2685 267.314C10.8579 266.794 11.1525 266.135 11.1525 265.338C11.1525 264.541 10.8665 263.891 10.2945 263.388C9.73988 262.885 8.96855 262.634 7.98055 262.634C7.07921 262.634 6.34255 262.877 5.77055 263.362C5.21588 263.847 4.93855 264.506 4.93855 265.338C4.93855 266.17 5.21588 266.837 5.77055 267.34C6.34255 267.825 7.09655 268.068 8.03255 268.068ZM24.0794 256.108H27.6934L19.1134 280.6H15.4994L24.0794 256.108ZM35.3602 259.8V278H31.1482V263.18H27.5082V259.8H35.3602ZM45.5418 259.8V278H41.3298V263.18H37.6898V259.8H45.5418Z" fill="#202020"/>
</svg>
