<svg width="100" height="300" viewBox="0 0 100 300" fill="none" xmlns="http://www.w3.org/2000/svg">
<path d="M95.0571 7.5C95.0571 3.35786 91.8229 0 87.8333 0C83.8437 0 80.6094 3.35786 80.6094 7.5C80.6094 11.6421 83.8437 15 87.8333 15C91.8229 15 95.0571 11.6421 95.0571 7.5Z" fill="black"/>
<path d="M87.2238 159.974C91.2134 159.974 94.4477 163.331 94.4477 167.474C94.4477 171.616 91.2134 174.974 87.2238 174.974C83.2341 174.974 80 171.616 80 167.474C80 163.331 83.2341 159.974 87.2238 159.974Z" fill="black"/>
<path d="M87.1494 288V8" stroke="black" stroke-width="4.41953"/>
<path d="M14.8288 22V6.64L16.5088 8.32H11.4688V5.2H18.7168V22H14.8288ZM19.9072 24.4L27.8272 1.792H31.1632L23.2432 24.4H19.9072ZM36.4817 22.288C35.3137 22.288 34.1537 22.136 33.0017 21.832C31.8497 21.512 30.8737 21.064 30.0737 20.488L31.5857 17.512C32.2257 17.976 32.9697 18.344 33.8177 18.616C34.6657 18.888 35.5217 19.024 36.3857 19.024C37.3617 19.024 38.1297 18.832 38.6897 18.448C39.2497 18.064 39.5297 17.536 39.5297 16.864C39.5297 16.224 39.2817 15.72 38.7857 15.352C38.2897 14.984 37.4897 14.8 36.3857 14.8H34.6097V12.232L39.2897 6.928L39.7217 8.32H30.9137V5.2H42.6737V7.72L38.0177 13.024L36.0497 11.896H37.1777C39.2417 11.896 40.8017 12.36 41.8577 13.288C42.9137 14.216 43.4417 15.408 43.4417 16.864C43.4417 17.808 43.1937 18.696 42.6977 19.528C42.2017 20.344 41.4417 21.008 40.4177 21.52C39.3937 22.032 38.0817 22.288 36.4817 22.288ZM47.8288 22V6.64L49.5088 8.32H44.4688V5.2H51.7168V22H47.8288Z" fill="black"/>
<path d="M14.3193 182V179.48L20.7993 173.36C21.3113 172.896 21.6873 172.48 21.9273 172.112C22.1673 171.744 22.3273 171.408 22.4073 171.104C22.5033 170.8 22.5513 170.52 22.5513 170.264C22.5513 169.592 22.3193 169.08 21.8553 168.728C21.4073 168.36 20.7433 168.176 19.8633 168.176C19.1593 168.176 18.5033 168.312 17.8953 168.584C17.3033 168.856 16.7993 169.28 16.3833 169.856L13.5513 168.032C14.1913 167.072 15.0873 166.312 16.2393 165.752C17.3913 165.192 18.7193 164.912 20.2233 164.912C21.4713 164.912 22.5593 165.12 23.4873 165.536C24.4313 165.936 25.1593 166.504 25.6713 167.24C26.1993 167.976 26.4633 168.856 26.4633 169.88C26.4633 170.424 26.3913 170.968 26.2473 171.512C26.1193 172.04 25.8473 172.6 25.4313 173.192C25.0313 173.784 24.4393 174.448 23.6553 175.184L18.2793 180.248L17.5353 178.832H27.0153V182H14.3193ZM27.126 184.4L35.046 161.792H38.382L30.462 184.4H27.126ZM38.1084 182V179.48L44.5884 173.36C45.1004 172.896 45.4764 172.48 45.7164 172.112C45.9564 171.744 46.1164 171.408 46.1964 171.104C46.2924 170.8 46.3404 170.52 46.3404 170.264C46.3404 169.592 46.1084 169.08 45.6444 168.728C45.1964 168.36 44.5324 168.176 43.6524 168.176C42.9484 168.176 42.2924 168.312 41.6844 168.584C41.0924 168.856 40.5884 169.28 40.1724 169.856L37.3404 168.032C37.9804 167.072 38.8764 166.312 40.0284 165.752C41.1804 165.192 42.5084 164.912 44.0124 164.912C45.2604 164.912 46.3484 165.12 47.2764 165.536C48.2204 165.936 48.9484 166.504 49.4604 167.24C49.9884 167.976 50.2524 168.856 50.2524 169.88C50.2524 170.424 50.1804 170.968 50.0364 171.512C49.9084 172.04 49.6364 172.6 49.2204 173.192C48.8204 173.784 48.2284 174.448 47.4444 175.184L42.0684 180.248L41.3244 178.832H50.8044V182H38.1084ZM29.1191 202.744V199.744H35.9111V202.744H29.1191ZM13.8857 234V231.48L20.3658 225.36C20.8778 224.896 21.2538 224.48 21.4938 224.112C21.7338 223.744 21.8938 223.408 21.9738 223.104C22.0698 222.8 22.1178 222.52 22.1178 222.264C22.1178 221.592 21.8858 221.08 21.4218 220.728C20.9738 220.36 20.3098 220.176 19.4297 220.176C18.7258 220.176 18.0698 220.312 17.4618 220.584C16.8698 220.856 16.3658 221.28 15.9498 221.856L13.1178 220.032C13.7578 219.072 14.6538 218.312 15.8058 217.752C16.9578 217.192 18.2858 216.912 19.7898 216.912C21.0378 216.912 22.1258 217.12 23.0538 217.536C23.9978 217.936 24.7258 218.504 25.2378 219.24C25.7658 219.976 26.0298 220.856 26.0298 221.88C26.0298 222.424 25.9578 222.968 25.8138 223.512C25.6858 224.04 25.4138 224.6 24.9978 225.192C24.5978 225.784 24.0058 226.448 23.2218 227.184L17.8458 232.248L17.1018 230.832H26.5818V234H13.8857ZM26.6924 236.4L34.6124 213.792H37.9484L30.0284 236.4H26.6924ZM36.1034 230.472V227.856L44.0234 217.2H48.1034L40.3514 227.856L38.4554 227.304H51.6794V230.472H36.1034ZM45.1514 234V230.472L45.2714 227.304V224.16H48.9434V234H45.1514Z" fill="black"/>
</svg>
