<svg width="95" height="288" viewBox="0 0 95 288" fill="none" xmlns="http://www.w3.org/2000/svg">
<path d="M95 7.5C95 3.35786 91.7658 0 87.7762 0C83.7866 0 80.5523 3.35786 80.5523 7.5C80.5523 11.6421 83.7866 15 87.7762 15C91.7658 15 95 11.6421 95 7.5Z" fill="black"/>
<path d="M87.1676 159.974C91.1572 159.974 94.3915 163.331 94.3915 167.474C94.3915 171.616 91.1572 174.974 87.1676 174.974C83.1779 174.974 79.9438 171.616 79.9438 167.474C79.9438 163.331 83.1779 159.974 87.1676 159.974Z" fill="black"/>
<path d="M87.0925 288V8" stroke="black" stroke-width="4.41953"/>
<path d="M20.8761 20.6992V24H7.97763V21.207L13.919 14.9609C14.4438 14.36 14.867 13.8226 15.1886 13.3486C15.5102 12.8662 15.7429 12.4303 15.8868 12.041C16.0392 11.6517 16.1153 11.3005 16.1153 10.9873C16.1153 10.4541 16.0349 10.0098 15.8741 9.6543C15.7218 9.29036 15.4933 9.0153 15.1886 8.8291C14.8923 8.6429 14.5242 8.5498 14.0841 8.5498C13.644 8.5498 13.2589 8.67676 12.9288 8.93066C12.5987 9.18457 12.3406 9.53158 12.1544 9.97168C11.9767 10.4118 11.8878 10.9069 11.8878 11.457H7.59678C7.59678 10.3229 7.87184 9.28613 8.42197 8.34668C8.98056 7.40723 9.75498 6.6582 10.7452 6.09961C11.7354 5.53255 12.8823 5.24902 14.1856 5.24902C15.5483 5.24902 16.6909 5.46061 17.6134 5.88379C18.5359 6.30697 19.2299 6.92057 19.6954 7.72461C20.1694 8.52018 20.4063 9.48079 20.4063 10.6064C20.4063 11.2497 20.3048 11.8675 20.1017 12.46C19.8985 13.0524 19.6065 13.6406 19.2257 14.2246C18.8448 14.8001 18.3793 15.3926 17.8292 16.002C17.2875 16.6113 16.6697 17.2588 15.9757 17.9443L13.589 20.6992H20.8761ZM30.9181 5.51562L24.5958 25.5869H21.5489L27.8712 5.51562H30.9181ZM41.671 5.51562V24H37.3927V10.3398L33.1778 11.5713V8.32129L41.2774 5.51562H41.671ZM30.1944 44.377V47.6904H22.5645V44.377H30.1944ZM20.8761 80.6992V84H7.97763V81.207L13.919 74.9609C14.4438 74.36 14.867 73.8226 15.1886 73.3486C15.5102 72.8662 15.7429 72.4303 15.8868 72.041C16.0392 71.6517 16.1153 71.3005 16.1153 70.9873C16.1153 70.4541 16.0349 70.0098 15.8741 69.6543C15.7218 69.2904 15.4933 69.0153 15.1886 68.8291C14.8923 68.6429 14.5242 68.5498 14.0841 68.5498C13.644 68.5498 13.2589 68.6768 12.9288 68.9307C12.5987 69.1846 12.3406 69.5316 12.1544 69.9717C11.9767 70.4118 11.8878 70.9069 11.8878 71.457H7.59678C7.59678 70.3229 7.87184 69.2861 8.42197 68.3467C8.98056 67.4072 9.75498 66.6582 10.7452 66.0996C11.7354 65.5326 12.8823 65.249 14.1856 65.249C15.5483 65.249 16.6909 65.4606 17.6134 65.8838C18.5359 66.307 19.2299 66.9206 19.6954 67.7246C20.1694 68.5202 20.4063 69.4808 20.4063 70.6064C20.4063 71.2497 20.3048 71.8675 20.1017 72.46C19.8985 73.0524 19.6065 73.6406 19.2257 74.2246C18.8448 74.8001 18.3793 75.3926 17.8292 76.002C17.2875 76.6113 16.6697 77.2588 15.9757 77.9443L13.589 80.6992H20.8761ZM30.9181 65.5156L24.5958 85.5869H21.5489L27.8712 65.5156H30.9181ZM45.3653 76.7764V80.0771H32.0606L31.8067 77.4619L39.2335 65.5156H42.6104L38.9415 71.5205L35.8946 76.7764H45.3653ZM43.4991 65.5156V84H39.2208V65.5156H43.4991Z" fill="black"/>
<path d="M20.8761 180.699V184H7.97763V181.207L13.919 174.961C14.4438 174.36 14.867 173.823 15.1886 173.349C15.5102 172.866 15.7429 172.43 15.8868 172.041C16.0392 171.652 16.1153 171.3 16.1153 170.987C16.1153 170.454 16.0349 170.01 15.8741 169.654C15.7218 169.29 15.4933 169.015 15.1886 168.829C14.8923 168.643 14.5242 168.55 14.0841 168.55C13.644 168.55 13.2589 168.677 12.9288 168.931C12.5987 169.185 12.3406 169.532 12.1544 169.972C11.9767 170.412 11.8878 170.907 11.8878 171.457H7.59678C7.59678 170.323 7.87184 169.286 8.42197 168.347C8.98056 167.407 9.75498 166.658 10.7452 166.1C11.7354 165.533 12.8823 165.249 14.1856 165.249C15.5483 165.249 16.6909 165.461 17.6134 165.884C18.5359 166.307 19.2299 166.921 19.6954 167.725C20.1694 168.52 20.4063 169.481 20.4063 170.606C20.4063 171.25 20.3048 171.868 20.1017 172.46C19.8985 173.052 19.6065 173.641 19.2257 174.225C18.8448 174.8 18.3793 175.393 17.8292 176.002C17.2875 176.611 16.6697 177.259 15.9757 177.944L13.589 180.699H20.8761ZM30.9181 165.516L24.5958 185.587H21.5489L27.8712 165.516H30.9181ZM45.3653 176.776V180.077H32.0606L31.8067 177.462L39.2335 165.516H42.6104L38.9415 171.521L35.8946 176.776H45.3653ZM43.4991 165.516V184H39.2208V165.516H43.4991ZM30.1944 204.377V207.69H22.5645V204.377H30.1944ZM20.8761 240.699V244H7.97763V241.207L13.919 234.961C14.4438 234.36 14.867 233.823 15.1886 233.349C15.5102 232.866 15.7429 232.43 15.8868 232.041C16.0392 231.652 16.1153 231.3 16.1153 230.987C16.1153 230.454 16.0349 230.01 15.8741 229.654C15.7218 229.29 15.4933 229.015 15.1886 228.829C14.8923 228.643 14.5242 228.55 14.0841 228.55C13.644 228.55 13.2589 228.677 12.9288 228.931C12.5987 229.185 12.3406 229.532 12.1544 229.972C11.9767 230.412 11.8878 230.907 11.8878 231.457H7.59678C7.59678 230.323 7.87184 229.286 8.42197 228.347C8.98056 227.407 9.75498 226.658 10.7452 226.1C11.7354 225.533 12.8823 225.249 14.1856 225.249C15.5483 225.249 16.6909 225.461 17.6134 225.884C18.5359 226.307 19.2299 226.921 19.6954 227.725C20.1694 228.52 20.4063 229.481 20.4063 230.606C20.4063 231.25 20.3048 231.868 20.1017 232.46C19.8985 233.052 19.6065 233.641 19.2257 234.225C18.8448 234.8 18.3793 235.393 17.8292 236.002C17.2875 236.611 16.6697 237.259 15.9757 237.944L13.589 240.699H20.8761ZM30.9181 225.516L24.5958 245.587H21.5489L27.8712 225.516H30.9181ZM41.836 225.249H42.5216V228.613H42.2931C41.4721 228.613 40.7019 228.728 39.9825 228.956C39.2716 229.185 38.6453 229.532 38.1036 229.997C37.5704 230.454 37.1515 231.034 36.8468 231.736C36.5506 232.439 36.4024 233.264 36.4024 234.212V237.449C36.4024 238.042 36.4532 238.558 36.5548 238.998C36.6563 239.438 36.8087 239.802 37.0118 240.09C37.2149 240.378 37.4646 240.593 37.7608 240.737C38.0655 240.881 38.4168 240.953 38.8145 240.953C39.1446 240.953 39.4493 240.877 39.7286 240.725C40.0079 240.572 40.2491 240.356 40.4522 240.077C40.6638 239.798 40.8246 239.472 40.9347 239.1C41.0447 238.727 41.0997 238.321 41.0997 237.881C41.0997 237.407 41.0405 236.979 40.922 236.599C40.8035 236.218 40.6342 235.896 40.4142 235.634C40.2026 235.363 39.9444 235.16 39.6397 235.024C39.3435 234.881 39.0177 234.809 38.6622 234.809C38.1205 234.809 37.6593 234.931 37.2784 235.177C36.906 235.414 36.6225 235.718 36.4278 236.091C36.2416 236.463 36.1485 236.84 36.1485 237.221L35.1202 236.18C35.1033 235.672 35.2006 235.147 35.4122 234.605C35.6238 234.064 35.9412 233.56 36.3644 233.095C36.7875 232.629 37.3165 232.253 37.9513 231.965C38.586 231.677 39.3224 231.533 40.1603 231.533C41.0066 231.533 41.7514 231.694 42.3946 232.016C43.0463 232.337 43.5922 232.786 44.0323 233.361C44.4809 233.937 44.8194 234.61 45.0479 235.38C45.2765 236.15 45.3907 236.984 45.3907 237.881C45.3907 238.786 45.2299 239.629 44.9083 240.407C44.5951 241.177 44.1508 241.85 43.5753 242.426C42.9998 243.001 42.3185 243.45 41.5313 243.771C40.7442 244.093 39.8767 244.254 38.9288 244.254C37.9555 244.254 37.0541 244.089 36.2247 243.759C35.4037 243.42 34.6843 242.934 34.0665 242.299C33.4571 241.656 32.9789 240.873 32.6319 239.95C32.2934 239.028 32.1241 237.982 32.1241 236.814V235.253C32.1241 233.67 32.3823 232.261 32.8985 231.025C33.4233 229.79 34.1342 228.744 35.0313 227.89C35.9369 227.026 36.9737 226.37 38.1417 225.922C39.3097 225.473 40.5411 225.249 41.836 225.249Z" fill="black"/>
</svg>
