<svg width="100" height="300" viewBox="0 0 100 300" fill="none" xmlns="http://www.w3.org/2000/svg">
<path d="M95.0571 7.5C95.0571 3.35786 91.8229 0 87.8333 0C83.8437 0 80.6094 3.35786 80.6094 7.5C80.6094 11.6421 83.8437 15 87.8333 15C91.8229 15 95.0571 11.6421 95.0571 7.5Z" fill="black"/>
<path d="M87.2238 159.974C91.2134 159.974 94.4477 163.331 94.4477 167.474C94.4477 171.616 91.2134 174.974 87.2238 174.974C83.2341 174.974 80 171.616 80 167.474C80 163.331 83.2341 159.974 87.2238 159.974Z" fill="black"/>
<path d="M87.1494 288V8" stroke="black" stroke-width="4.41953"/>
<path d="M19.5978 4.912C21.1498 4.912 22.4858 5.232 23.6058 5.872C24.7258 6.512 25.5898 7.448 26.1978 8.68C26.8058 9.896 27.1098 11.416 27.1098 13.24C27.1098 15.176 26.7418 16.816 26.0058 18.16C25.2858 19.504 24.2858 20.528 23.0058 21.232C21.7258 21.936 20.2378 22.288 18.5418 22.288C17.6618 22.288 16.8138 22.192 15.9978 22C15.1818 21.808 14.4778 21.52 13.8858 21.136L15.3258 18.28C15.7898 18.6 16.2858 18.824 16.8138 18.952C17.3418 19.064 17.8938 19.12 18.4698 19.12C19.9098 19.12 21.0538 18.68 21.9018 17.8C22.7658 16.92 23.1978 15.616 23.1978 13.888C23.1978 13.6 23.1898 13.28 23.1738 12.928C23.1578 12.576 23.1178 12.224 23.0538 11.872L24.1098 12.88C23.8378 13.504 23.4538 14.032 22.9578 14.464C22.4618 14.88 21.8858 15.2 21.2298 15.424C20.5738 15.632 19.8378 15.736 19.0218 15.736C17.9498 15.736 16.9738 15.52 16.0938 15.088C15.2298 14.656 14.5338 14.048 14.0058 13.264C13.4938 12.48 13.2378 11.56 13.2378 10.504C13.2378 9.352 13.5178 8.36 14.0778 7.528C14.6538 6.696 15.4218 6.056 16.3818 5.608C17.3578 5.144 18.4298 4.912 19.5978 4.912ZM19.8378 7.816C19.2778 7.816 18.7898 7.92 18.3738 8.128C17.9578 8.32 17.6298 8.608 17.3898 8.992C17.1498 9.36 17.0298 9.8 17.0298 10.312C17.0298 11.08 17.2858 11.696 17.7978 12.16C18.3258 12.608 19.0218 12.832 19.8858 12.832C20.4458 12.832 20.9418 12.728 21.3738 12.52C21.8218 12.296 22.1658 11.992 22.4058 11.608C22.6458 11.224 22.7658 10.792 22.7658 10.312C22.7658 9.832 22.6458 9.408 22.4058 9.04C22.1818 8.656 21.8538 8.36 21.4218 8.152C20.9898 7.928 20.4618 7.816 19.8378 7.816ZM26.7783 24.4L34.6983 1.792H38.0343L30.1143 24.4H26.7783ZM43.6168 22.288C42.4488 22.288 41.2888 22.136 40.1367 21.832C39.0008 21.512 38.0248 21.064 37.2088 20.488L38.7448 17.512C39.3848 17.976 40.1208 18.344 40.9528 18.616C41.8008 18.888 42.6568 19.024 43.5208 19.024C44.4968 19.024 45.2648 18.832 45.8248 18.448C46.3848 18.064 46.6648 17.528 46.6648 16.84C46.6648 16.408 46.5528 16.024 46.3288 15.688C46.1048 15.352 45.7048 15.096 45.1288 14.92C44.5688 14.744 43.7768 14.656 42.7528 14.656H38.4568L39.3208 5.2H49.5688V8.32H40.7128L42.7288 6.544L42.1288 13.288L40.1128 11.512H43.6648C45.3288 11.512 46.6648 11.744 47.6728 12.208C48.6968 12.656 49.4408 13.272 49.9048 14.056C50.3688 14.84 50.6008 15.728 50.6008 16.72C50.6008 17.712 50.3528 18.632 49.8568 19.48C49.3608 20.312 48.5928 20.992 47.5528 21.52C46.5288 22.032 45.2168 22.288 43.6168 22.288ZM30.5415 48.288C29.3095 48.288 28.2135 48.088 27.2535 47.688C26.2935 47.288 25.5335 46.744 24.9735 46.056C24.4135 45.368 24.1335 44.576 24.1335 43.68C24.1335 42.848 24.3175 42.104 24.6855 41.448C25.0535 40.776 25.6375 40.152 26.4375 39.576C27.2375 38.984 28.2535 38.408 29.4855 37.848C30.3815 37.432 31.0855 37.064 31.5975 36.744C32.1095 36.424 32.4695 36.12 32.6775 35.832C32.8855 35.528 32.9895 35.224 32.9895 34.92C32.9895 34.504 32.8455 34.168 32.5575 33.912C32.2855 33.656 31.8775 33.528 31.3335 33.528C30.7575 33.528 30.3095 33.672 29.9895 33.96C29.6695 34.248 29.5095 34.616 29.5095 35.064C29.5095 35.304 29.5575 35.544 29.6535 35.784C29.7495 36.008 29.9335 36.272 30.2055 36.576C30.4775 36.864 30.8615 37.24 31.3575 37.704L40.2135 45.912L38.1735 48.288L28.4055 39.216C27.8455 38.704 27.3975 38.224 27.0615 37.776C26.7255 37.328 26.4775 36.888 26.3175 36.456C26.1735 36.024 26.1015 35.576 26.1015 35.112C26.1015 34.296 26.3175 33.576 26.7495 32.952C27.1815 32.328 27.7895 31.848 28.5735 31.512C29.3575 31.16 30.2775 30.984 31.3335 30.984C32.3095 30.984 33.1495 31.144 33.8535 31.464C34.5735 31.768 35.1335 32.208 35.5335 32.784C35.9495 33.36 36.1575 34.048 36.1575 34.848C36.1575 35.552 35.9815 36.2 35.6295 36.792C35.2775 37.368 34.7255 37.912 33.9735 38.424C33.2375 38.936 32.2695 39.456 31.0695 39.984C30.2535 40.352 29.6055 40.712 29.1255 41.064C28.6615 41.4 28.3255 41.744 28.1175 42.096C27.9095 42.448 27.8055 42.84 27.8055 43.272C27.8055 43.672 27.9255 44.032 28.1655 44.352C28.4215 44.672 28.7735 44.92 29.2215 45.096C29.6695 45.272 30.1975 45.36 30.8055 45.36C31.7815 45.36 32.6775 45.136 33.4935 44.688C34.3095 44.224 34.9975 43.544 35.5575 42.648C36.1335 41.736 36.5415 40.632 36.7815 39.336L39.7815 40.272C39.4455 41.904 38.8455 43.32 37.9815 44.52C37.1175 45.72 36.0535 46.648 34.7895 47.304C33.5255 47.96 32.1095 48.288 30.5415 48.288ZM19.1291 56.912C20.6811 56.912 22.0171 57.232 23.1371 57.872C24.2571 58.512 25.1211 59.448 25.7291 60.68C26.3371 61.896 26.6411 63.416 26.6411 65.24C26.6411 67.176 26.2731 68.816 25.5371 70.16C24.8171 71.504 23.8171 72.528 22.5371 73.232C21.2571 73.936 19.7691 74.288 18.0731 74.288C17.1931 74.288 16.3451 74.192 15.5291 74C14.7131 73.808 14.0091 73.52 13.4171 73.136L14.8571 70.28C15.3211 70.6 15.8171 70.824 16.3451 70.952C16.8731 71.064 17.4251 71.12 18.0011 71.12C19.4411 71.12 20.5851 70.68 21.4331 69.8C22.2971 68.92 22.7291 67.616 22.7291 65.888C22.7291 65.6 22.7211 65.28 22.7051 64.928C22.6891 64.576 22.6491 64.224 22.5851 63.872L23.6411 64.88C23.3691 65.504 22.9851 66.032 22.4891 66.464C21.9931 66.88 21.4171 67.2 20.7611 67.424C20.1051 67.632 19.3691 67.736 18.5531 67.736C17.4811 67.736 16.5051 67.52 15.6251 67.088C14.7611 66.656 14.0651 66.048 13.5371 65.264C13.0251 64.48 12.7691 63.56 12.7691 62.504C12.7691 61.352 13.0491 60.36 13.6091 59.528C14.1851 58.696 14.9531 58.056 15.9131 57.608C16.8891 57.144 17.9611 56.912 19.1291 56.912ZM19.3691 59.816C18.8091 59.816 18.3211 59.92 17.9051 60.128C17.4891 60.32 17.1611 60.608 16.9211 60.992C16.6811 61.36 16.5611 61.8 16.5611 62.312C16.5611 63.08 16.8171 63.696 17.3291 64.16C17.8571 64.608 18.5531 64.832 19.4171 64.832C19.9771 64.832 20.4731 64.728 20.9051 64.52C21.3531 64.296 21.6971 63.992 21.9371 63.608C22.1771 63.224 22.2971 62.792 22.2971 62.312C22.2971 61.832 22.1771 61.408 21.9371 61.04C21.7131 60.656 21.3851 60.36 20.9531 60.152C20.5211 59.928 19.9931 59.816 19.3691 59.816ZM26.3096 76.4L34.2296 53.792H37.5656L29.6456 76.4H26.3096ZM43.7632 74.288C42.3552 74.288 41.1232 74.08 40.0672 73.664C39.0112 73.232 38.1872 72.632 37.5952 71.864C37.0032 71.08 36.7072 70.168 36.7072 69.128C36.7072 68.088 36.9952 67.208 37.5712 66.488C38.1632 65.752 38.9872 65.2 40.0432 64.832C41.0992 64.448 42.3392 64.256 43.7632 64.256C45.2032 64.256 46.4512 64.448 47.5072 64.832C48.5792 65.2 49.4032 65.752 49.9792 66.488C50.5712 67.208 50.8672 68.088 50.8672 69.128C50.8672 70.168 50.5712 71.08 49.9792 71.864C49.3872 72.632 48.5552 73.232 47.4832 73.664C46.4272 74.08 45.1872 74.288 43.7632 74.288ZM43.7632 71.432C44.7392 71.432 45.5072 71.216 46.0672 70.784C46.6432 70.352 46.9312 69.76 46.9312 69.008C46.9312 68.256 46.6432 67.672 46.0672 67.256C45.5072 66.824 44.7392 66.608 43.7632 66.608C42.8032 66.608 42.0432 66.824 41.4832 67.256C40.9232 67.672 40.6432 68.256 40.6432 69.008C40.6432 69.76 40.9232 70.352 41.4832 70.784C42.0432 71.216 42.8032 71.432 43.7632 71.432ZM43.7632 66.224C42.4672 66.224 41.3312 66.048 40.3552 65.696C39.3952 65.344 38.6432 64.832 38.0992 64.16C37.5712 63.472 37.3072 62.656 37.3072 61.712C37.3072 60.72 37.5792 59.872 38.1232 59.168C38.6672 58.448 39.4272 57.896 40.4032 57.512C41.3792 57.112 42.4992 56.912 43.7632 56.912C45.0592 56.912 46.1872 57.112 47.1472 57.512C48.1232 57.896 48.8832 58.448 49.4272 59.168C49.9872 59.872 50.2672 60.72 50.2672 61.712C50.2672 62.656 49.9952 63.472 49.4512 64.16C48.9232 64.832 48.1712 65.344 47.1952 65.696C46.2192 66.048 45.0752 66.224 43.7632 66.224ZM43.7632 63.944C44.5792 63.944 45.2192 63.76 45.6832 63.392C46.1632 63.024 46.4032 62.52 46.4032 61.88C46.4032 61.208 46.1552 60.688 45.6592 60.32C45.1792 59.952 44.5472 59.768 43.7632 59.768C42.9952 59.768 42.3712 59.952 41.8912 60.32C41.4112 60.688 41.1712 61.208 41.1712 61.88C41.1712 62.52 41.4032 63.024 41.8672 63.392C42.3312 63.76 42.9632 63.944 43.7632 63.944Z" fill="black"/>
<path d="M19.0939 164.912C20.6459 164.912 21.9819 165.232 23.1019 165.872C24.2219 166.512 25.0859 167.448 25.6939 168.68C26.3019 169.896 26.6059 171.416 26.6059 173.24C26.6059 175.176 26.2379 176.816 25.5019 178.16C24.7819 179.504 23.7819 180.528 22.5019 181.232C21.2219 181.936 19.7339 182.288 18.0379 182.288C17.1579 182.288 16.3099 182.192 15.4939 182C14.6779 181.808 13.9739 181.52 13.3819 181.136L14.8219 178.28C15.2859 178.6 15.7819 178.824 16.3099 178.952C16.8379 179.064 17.3899 179.12 17.9659 179.12C19.4059 179.12 20.5499 178.68 21.3979 177.8C22.2619 176.92 22.6939 175.616 22.6939 173.888C22.6939 173.6 22.6859 173.28 22.6699 172.928C22.6539 172.576 22.6139 172.224 22.5499 171.872L23.6059 172.88C23.3339 173.504 22.9499 174.032 22.4539 174.464C21.9579 174.88 21.3819 175.2 20.7259 175.424C20.0699 175.632 19.3339 175.736 18.5179 175.736C17.4459 175.736 16.4699 175.52 15.5899 175.088C14.7259 174.656 14.0299 174.048 13.5019 173.264C12.9899 172.48 12.7339 171.56 12.7339 170.504C12.7339 169.352 13.0139 168.36 13.5739 167.528C14.1499 166.696 14.9179 166.056 15.8779 165.608C16.8539 165.144 17.9259 164.912 19.0939 164.912ZM19.3339 167.816C18.7739 167.816 18.2859 167.92 17.8699 168.128C17.4539 168.32 17.1259 168.608 16.8859 168.992C16.6459 169.36 16.5259 169.8 16.5259 170.312C16.5259 171.08 16.7819 171.696 17.2939 172.16C17.8219 172.608 18.5179 172.832 19.3819 172.832C19.9419 172.832 20.4379 172.728 20.8699 172.52C21.3179 172.296 21.6619 171.992 21.9019 171.608C22.1419 171.224 22.2619 170.792 22.2619 170.312C22.2619 169.832 22.1419 169.408 21.9019 169.04C21.6779 168.656 21.3499 168.36 20.9179 168.152C20.4859 167.928 19.9579 167.816 19.3339 167.816ZM26.2744 184.4L34.1944 161.792H37.5304L29.6104 184.4H26.2744ZM43.3048 164.912C44.8568 164.912 46.1928 165.232 47.3128 165.872C48.4328 166.512 49.2968 167.448 49.9048 168.68C50.5128 169.896 50.8168 171.416 50.8168 173.24C50.8168 175.176 50.4488 176.816 49.7128 178.16C48.9928 179.504 47.9928 180.528 46.7128 181.232C45.4328 181.936 43.9448 182.288 42.2488 182.288C41.3688 182.288 40.5208 182.192 39.7048 182C38.8888 181.808 38.1848 181.52 37.5928 181.136L39.0328 178.28C39.4968 178.6 39.9928 178.824 40.5208 178.952C41.0488 179.064 41.6008 179.12 42.1768 179.12C43.6168 179.12 44.7608 178.68 45.6088 177.8C46.4728 176.92 46.9048 175.616 46.9048 173.888C46.9048 173.6 46.8968 173.28 46.8808 172.928C46.8648 172.576 46.8248 172.224 46.7608 171.872L47.8168 172.88C47.5448 173.504 47.1608 174.032 46.6648 174.464C46.1688 174.88 45.5928 175.2 44.9368 175.424C44.2808 175.632 43.5448 175.736 42.7288 175.736C41.6568 175.736 40.6808 175.52 39.8008 175.088C38.9368 174.656 38.2408 174.048 37.7128 173.264C37.2008 172.48 36.9448 171.56 36.9448 170.504C36.9448 169.352 37.2248 168.36 37.7848 167.528C38.3608 166.696 39.1288 166.056 40.0888 165.608C41.0648 165.144 42.1368 164.912 43.3048 164.912ZM43.5448 167.816C42.9848 167.816 42.4968 167.92 42.0808 168.128C41.6648 168.32 41.3368 168.608 41.0968 168.992C40.8568 169.36 40.7368 169.8 40.7368 170.312C40.7368 171.08 40.9928 171.696 41.5048 172.16C42.0328 172.608 42.7288 172.832 43.5928 172.832C44.1528 172.832 44.6488 172.728 45.0808 172.52C45.5288 172.296 45.8728 171.992 46.1128 171.608C46.3528 171.224 46.4728 170.792 46.4728 170.312C46.4728 169.832 46.3528 169.408 46.1128 169.04C45.8888 168.656 45.5608 168.36 45.1288 168.152C44.6968 167.928 44.1688 167.816 43.5448 167.816ZM28.6191 202.744V199.744H35.4111V202.744H28.6191ZM16.9728 216.912C18.5248 216.912 19.8608 217.232 20.9808 217.872C22.1008 218.512 22.9648 219.448 23.5728 220.68C24.1808 221.896 24.4848 223.416 24.4848 225.24C24.4848 227.176 24.1168 228.816 23.3808 230.16C22.6608 231.504 21.6608 232.528 20.3808 233.232C19.1008 233.936 17.6128 234.288 15.9168 234.288C15.0368 234.288 14.1888 234.192 13.3728 234C12.5568 233.808 11.8528 233.52 11.2608 233.136L12.7008 230.28C13.1648 230.6 13.6608 230.824 14.1888 230.952C14.7168 231.064 15.2688 231.12 15.8448 231.12C17.2848 231.12 18.4288 230.68 19.2768 229.8C20.1408 228.92 20.5728 227.616 20.5728 225.888C20.5728 225.6 20.5648 225.28 20.5488 224.928C20.5328 224.576 20.4928 224.224 20.4288 223.872L21.4848 224.88C21.2128 225.504 20.8288 226.032 20.3328 226.464C19.8368 226.88 19.2608 227.2 18.6048 227.424C17.9488 227.632 17.2128 227.736 16.3968 227.736C15.3248 227.736 14.3488 227.52 13.4688 227.088C12.6048 226.656 11.9088 226.048 11.3808 225.264C10.8688 224.48 10.6128 223.56 10.6128 222.504C10.6128 221.352 10.8928 220.36 11.4528 219.528C12.0288 218.696 12.7968 218.056 13.7568 217.608C14.7328 217.144 15.8048 216.912 16.9728 216.912ZM17.2128 219.816C16.6528 219.816 16.1648 219.92 15.7488 220.128C15.3328 220.32 15.0048 220.608 14.7648 220.992C14.5248 221.36 14.4048 221.8 14.4048 222.312C14.4048 223.08 14.6608 223.696 15.1728 224.16C15.7008 224.608 16.3968 224.832 17.2608 224.832C17.8208 224.832 18.3168 224.728 18.7488 224.52C19.1968 224.296 19.5408 223.992 19.7808 223.608C20.0208 223.224 20.1408 222.792 20.1408 222.312C20.1408 221.832 20.0208 221.408 19.7808 221.04C19.5568 220.656 19.2288 220.36 18.7968 220.152C18.3648 219.928 17.8368 219.816 17.2128 219.816ZM24.1533 236.4L32.0733 213.792H35.4093L27.4893 236.4H24.1533ZM38.5983 234V218.64L40.2783 220.32H35.2383V217.2H42.4863V234H38.5983ZM47.9967 234V218.64L49.6768 220.32H44.6368V217.2H51.8848V234H47.9967Z" fill="black"/>
</svg>
