<svg width="95" height="288" viewBox="0 0 95 288" fill="none" xmlns="http://www.w3.org/2000/svg">
<circle cx="87.5" cy="7.5" r="7.5" transform="rotate(-90 87.5 7.5)" fill="black"/>
<path d="M86.8682 159.974C91.0103 159.974 94.3682 163.331 94.3682 167.474C94.3682 171.616 91.0103 174.974 86.8682 174.974C82.726 174.974 79.3682 171.616 79.3682 167.474C79.3682 163.331 82.726 159.974 86.8682 159.974Z" fill="black"/>
<line x1="86.7902" y1="288" x2="86.7902" y2="8" stroke="black" stroke-width="4.41953"/>
<path d="M16.3114 3.488C18.8594 3.488 20.8527 4.268 22.2914 5.828C23.73 7.37067 24.4494 9.598 24.4494 12.51C24.4494 14.5727 24.0594 16.3407 23.2794 17.814C22.5167 19.2873 21.4334 20.4053 20.0294 21.168C18.6254 21.9307 17.0047 22.312 15.1674 22.312C14.1967 22.312 13.2694 22.208 12.3854 22C11.5014 21.7747 10.7474 21.4627 10.1234 21.064L11.6834 17.97C12.5674 18.5767 13.7027 18.88 15.0894 18.88C16.632 18.88 17.854 18.4293 18.7554 17.528C19.6567 16.6093 20.142 15.292 20.2114 13.576C19.1194 14.668 17.6114 15.214 15.6874 15.214C14.526 15.214 13.4687 14.98 12.5154 14.512C11.562 14.044 10.808 13.3853 10.2534 12.536C9.6987 11.6693 9.42137 10.6727 9.42137 9.546C9.42137 8.33267 9.7247 7.26667 10.3314 6.348C10.938 5.42933 11.7614 4.72733 12.8014 4.242C13.8587 3.73933 15.0287 3.488 16.3114 3.488ZM16.6234 12.068C17.542 12.068 18.2874 11.8167 18.8594 11.314C19.4487 10.794 19.7434 10.1353 19.7434 9.338C19.7434 8.54067 19.4574 7.89067 18.8854 7.388C18.3307 6.88533 17.5594 6.634 16.5714 6.634C15.67 6.634 14.9334 6.87667 14.3614 7.362C13.8067 7.84733 13.5294 8.506 13.5294 9.338C13.5294 10.17 13.8067 10.8373 14.3614 11.34C14.9334 11.8253 15.6874 12.068 16.6234 12.068ZM32.6702 0.107998H36.2842L27.7042 24.6H24.0902L32.6702 0.107998ZM43.951 3.8V22H39.739V7.18H36.099V3.8H43.951ZM37.8696 48.312L35.6856 46.284C33.9523 47.636 31.9243 48.312 29.6016 48.312C28.2843 48.312 27.097 48.104 26.0396 47.688C24.9823 47.2547 24.1503 46.6567 23.5436 45.894C22.9543 45.1313 22.6596 44.2733 22.6596 43.32C22.6596 42.1933 22.9716 41.2053 23.5956 40.356C24.237 39.4893 25.2596 38.666 26.6636 37.886C26.005 37.21 25.5283 36.5687 25.2336 35.962C24.939 35.338 24.7916 34.6967 24.7916 34.038C24.7916 33.154 25.0256 32.374 25.4936 31.698C25.9616 31.022 26.6203 30.502 27.4696 30.138C28.3363 29.7567 29.333 29.566 30.4596 29.566C32.037 29.566 33.3023 29.9473 34.2556 30.71C35.209 31.4553 35.6856 32.4693 35.6856 33.752C35.6856 34.688 35.3996 35.52 34.8276 36.248C34.273 36.976 33.3716 37.678 32.1236 38.354L35.4516 41.448C35.8503 40.616 36.1536 39.6713 36.3616 38.614L39.6116 39.628C39.265 41.24 38.7103 42.618 37.9476 43.762L40.0796 45.738L37.8696 48.312ZM30.4596 32.322C29.853 32.322 29.3676 32.478 29.0036 32.79C28.657 33.102 28.4836 33.5007 28.4836 33.986C28.4836 34.35 28.579 34.6967 28.7696 35.026C28.9603 35.338 29.333 35.7627 29.8876 36.3C30.7716 35.832 31.387 35.416 31.7336 35.052C32.0803 34.6707 32.2536 34.2633 32.2536 33.83C32.2536 33.3793 32.0976 33.0153 31.7856 32.738C31.4736 32.4607 31.0316 32.322 30.4596 32.322ZM29.8876 45.14C31.153 45.14 32.2883 44.7847 33.2936 44.074L28.8996 39.966C28.085 40.434 27.5043 40.8933 27.1576 41.344C26.811 41.7947 26.6376 42.306 26.6376 42.878C26.6376 43.554 26.9323 44.1 27.5216 44.516C28.111 44.932 28.8996 45.14 29.8876 45.14ZM13.6454 55.488C16.1934 55.488 18.1867 56.268 19.6254 57.828C21.064 59.3707 21.7834 61.598 21.7834 64.51C21.7834 66.5727 21.3934 68.3407 20.6134 69.814C19.8507 71.2873 18.7674 72.4053 17.3634 73.168C15.9594 73.9307 14.3387 74.312 12.5014 74.312C11.5307 74.312 10.6034 74.208 9.71935 74C8.83535 73.7747 8.08135 73.4627 7.45735 73.064L9.01735 69.97C9.90135 70.5767 11.0367 70.88 12.4234 70.88C13.966 70.88 15.188 70.4293 16.0894 69.528C16.9907 68.6093 17.476 67.292 17.5454 65.576C16.4534 66.668 14.9454 67.214 13.0214 67.214C11.86 67.214 10.8027 66.98 9.84935 66.512C8.89602 66.044 8.14202 65.3853 7.58735 64.536C7.03268 63.6693 6.75535 62.6727 6.75535 61.546C6.75535 60.3327 7.05868 59.2667 7.66535 58.348C8.27202 57.4293 9.09535 56.7273 10.1354 56.242C11.1927 55.7393 12.3627 55.488 13.6454 55.488ZM13.9574 64.068C14.876 64.068 15.6214 63.8167 16.1934 63.314C16.7827 62.794 17.0774 62.1353 17.0774 61.338C17.0774 60.5407 16.7914 59.8907 16.2194 59.388C15.6647 58.8853 14.8934 58.634 13.9054 58.634C13.004 58.634 12.2674 58.8767 11.6954 59.362C11.1407 59.8473 10.8634 60.506 10.8634 61.338C10.8634 62.17 11.1407 62.8373 11.6954 63.34C12.2674 63.8253 13.0214 64.068 13.9574 64.068ZM30.0042 52.108H33.6182L25.0382 76.6H21.4242L30.0042 52.108ZM47.9036 55.8V58.53L41.1436 74H36.5676L43.0936 59.232H37.0616V62.196H33.3176V55.8H47.9036Z" fill="#202020"/>
<path d="M7.74984 162.488C10.2978 162.488 12.2912 163.268 13.7298 164.828C15.1685 166.371 15.8878 168.598 15.8878 171.51C15.8878 173.573 15.4978 175.341 14.7178 176.814C13.9552 178.287 12.8718 179.405 11.4678 180.168C10.0638 180.931 8.44318 181.312 6.60584 181.312C5.63518 181.312 4.70784 181.208 3.82384 181C2.93984 180.775 2.18584 180.463 1.56184 180.064L3.12184 176.97C4.00584 177.577 5.14118 177.88 6.52784 177.88C8.07051 177.88 9.29251 177.429 10.1938 176.528C11.0952 175.609 11.5805 174.292 11.6498 172.576C10.5578 173.668 9.04984 174.214 7.12584 174.214C5.96451 174.214 4.90718 173.98 3.95384 173.512C3.00051 173.044 2.24651 172.385 1.69184 171.536C1.13718 170.669 0.859844 169.673 0.859844 168.546C0.859844 167.333 1.16318 166.267 1.76984 165.348C2.37651 164.429 3.19984 163.727 4.23984 163.242C5.29718 162.739 6.46718 162.488 7.74984 162.488ZM8.06184 171.068C8.98051 171.068 9.72584 170.817 10.2978 170.314C10.8872 169.794 11.1818 169.135 11.1818 168.338C11.1818 167.541 10.8958 166.891 10.3238 166.388C9.76918 165.885 8.99784 165.634 8.00984 165.634C7.10851 165.634 6.37184 165.877 5.79984 166.362C5.24518 166.847 4.96784 167.506 4.96784 168.338C4.96784 169.17 5.24518 169.837 5.79984 170.34C6.37184 170.825 7.12584 171.068 8.06184 171.068ZM24.1087 159.108H27.7227L19.1427 183.6H15.5287L24.1087 159.108ZM35.3895 162.8V181H31.1775V166.18H27.5375V162.8H35.3895ZM52.7991 162.8V165.53L46.0391 181H41.4631L47.9891 166.232H41.9571V169.196H38.2131V162.8H52.7991ZM23.3374 198.056H30.6954V201.306H23.3374V198.056ZM8.1434 214.488C10.6914 214.488 12.6847 215.268 14.1234 216.828C15.5621 218.371 16.2814 220.598 16.2814 223.51C16.2814 225.573 15.8914 227.341 15.1114 228.814C14.3487 230.287 13.2654 231.405 11.8614 232.168C10.4574 232.931 8.83673 233.312 6.9994 233.312C6.02873 233.312 5.1014 233.208 4.2174 233C3.3334 232.775 2.5794 232.463 1.9554 232.064L3.5154 228.97C4.3994 229.577 5.53473 229.88 6.9214 229.88C8.46407 229.88 9.68607 229.429 10.5874 228.528C11.4887 227.609 11.9741 226.292 12.0434 224.576C10.9514 225.668 9.4434 226.214 7.5194 226.214C6.35807 226.214 5.30073 225.98 4.3474 225.512C3.39407 225.044 2.64007 224.385 2.0854 223.536C1.53073 222.669 1.2534 221.673 1.2534 220.546C1.2534 219.333 1.55673 218.267 2.1634 217.348C2.77007 216.429 3.5934 215.727 4.6334 215.242C5.69073 214.739 6.86073 214.488 8.1434 214.488ZM8.4554 223.068C9.37407 223.068 10.1194 222.817 10.6914 222.314C11.2807 221.794 11.5754 221.135 11.5754 220.338C11.5754 219.541 11.2894 218.891 10.7174 218.388C10.1627 217.885 9.3914 217.634 8.4034 217.634C7.50207 217.634 6.7654 217.877 6.1934 218.362C5.63873 218.847 5.3614 219.506 5.3614 220.338C5.3614 221.17 5.63873 221.837 6.1934 222.34C6.7654 222.825 7.5194 223.068 8.4554 223.068ZM24.5023 211.108H28.1163L19.5363 235.6H15.9223L24.5023 211.108ZM35.783 214.8V233H31.571V218.18H27.931V214.8H35.783ZM52.5427 229.568V233H38.7887V230.27L45.8087 223.64C46.554 222.929 47.0567 222.323 47.3167 221.82C47.5767 221.3 47.7067 220.789 47.7067 220.286C47.7067 219.558 47.4553 219.003 46.9527 218.622C46.4673 218.223 45.748 218.024 44.7947 218.024C43.9973 218.024 43.278 218.18 42.6367 218.492C41.9953 218.787 41.458 219.237 41.0247 219.844L37.9567 217.868C38.6673 216.811 39.6467 215.987 40.8947 215.398C42.1427 214.791 43.5727 214.488 45.1847 214.488C46.5367 214.488 47.7153 214.713 48.7207 215.164C49.7433 215.597 50.532 216.221 51.0867 217.036C51.6587 217.833 51.9447 218.778 51.9447 219.87C51.9447 220.858 51.7367 221.785 51.3207 222.652C50.9047 223.519 50.0987 224.507 48.9027 225.616L44.7167 229.568H52.5427Z" fill="#202020"/>
</svg>
