<svg width="89" height="277" viewBox="0 0 89 277" fill="none" xmlns="http://www.w3.org/2000/svg">
<circle cx="80.8384" cy="11.0312" r="7.5" transform="rotate(-90 80.8384 11.0312)" fill="black"/>
<circle cx="81.5" cy="171.5" r="7.5" transform="rotate(-90 81.5 171.5)" fill="black"/>
<line x1="80.7902" y1="277" x2="80.7902" y2="11" stroke="black" stroke-width="4.41953"/>
<path d="M17.2419 18.568V22H3.48788V19.27L10.5079 12.64C11.2532 11.9293 11.7559 11.3227 12.0159 10.82C12.2759 10.3 12.4059 9.78867 12.4059 9.286C12.4059 8.558 12.1545 8.00333 11.6519 7.622C11.1665 7.22333 10.4472 7.024 9.49388 7.024C8.69655 7.024 7.97722 7.18 7.33588 7.492C6.69455 7.78667 6.15722 8.23733 5.72388 8.844L2.65588 6.868C3.36655 5.81067 4.34588 4.98733 5.59388 4.398C6.84188 3.79133 8.27188 3.488 9.88388 3.488C11.2359 3.488 12.4146 3.71333 13.4199 4.164C14.4426 4.59733 15.2312 5.22133 15.7859 6.036C16.3579 6.83333 16.6439 7.778 16.6439 8.87C16.6439 9.858 16.4359 10.7853 16.0199 11.652C15.6039 12.5187 14.7979 13.5067 13.6019 14.616L9.41588 18.568H17.2419ZM25.9417 0.107998H29.5557L20.9757 24.6H17.3617L25.9417 0.107998ZM37.2225 3.8V22H33.0105V7.18H29.3705V3.8H37.2225ZM17.3374 39.056H24.6954V42.306H17.3374V39.056ZM14.9948 70.568V74H1.24081V71.27L8.26081 64.64C9.00615 63.9293 9.50881 63.3227 9.76881 62.82C10.0288 62.3 10.1588 61.7887 10.1588 61.286C10.1588 60.558 9.90748 60.0033 9.40481 59.622C8.91948 59.2233 8.20015 59.024 7.24681 59.024C6.44948 59.024 5.73015 59.18 5.08881 59.492C4.44748 59.7867 3.91015 60.2373 3.47681 60.844L0.408813 58.868C1.11948 57.8107 2.09881 56.9873 3.34681 56.398C4.59481 55.7913 6.02481 55.488 7.63681 55.488C8.98881 55.488 10.1675 55.7133 11.1728 56.164C12.1955 56.5973 12.9841 57.2213 13.5388 58.036C14.1108 58.8333 14.3968 59.778 14.3968 60.87C14.3968 61.858 14.1888 62.7853 13.7728 63.652C13.3568 64.5187 12.5508 65.5067 11.3548 66.616L7.16881 70.568H14.9948ZM23.6947 52.108H27.3087L18.7287 76.6H15.1147L23.6947 52.108ZM33.4083 62.638C35.9736 62.638 37.863 63.1493 39.0763 64.172C40.307 65.1947 40.9223 66.564 40.9223 68.28C40.9223 69.3893 40.645 70.4033 40.0903 71.322C39.5356 72.2233 38.6863 72.9513 37.5423 73.506C36.4156 74.0433 35.0203 74.312 33.3563 74.312C32.0736 74.312 30.8083 74.1473 29.5603 73.818C28.3296 73.4713 27.281 72.986 26.4143 72.362L28.0783 69.138C28.7716 69.658 29.569 70.0653 30.4703 70.36C31.3716 70.6373 32.299 70.776 33.2523 70.776C34.3096 70.776 35.1416 70.568 35.7483 70.152C36.355 69.736 36.6583 69.1553 36.6583 68.41C36.6583 67.63 36.3376 67.0407 35.6963 66.642C35.0723 66.2433 33.9803 66.044 32.4203 66.044H27.7663L28.7023 55.8H39.8043V59.18H32.2123L31.9263 62.638H33.4083Z" fill="#202020"/>
<path d="M15.2028 181.568V185H1.44882V182.27L8.46882 175.64C9.21415 174.929 9.71682 174.323 9.97682 173.82C10.2368 173.3 10.3668 172.789 10.3668 172.286C10.3668 171.558 10.1155 171.003 9.61282 170.622C9.12749 170.223 8.40815 170.024 7.45482 170.024C6.65749 170.024 5.93815 170.18 5.29682 170.492C4.65549 170.787 4.11815 171.237 3.68482 171.844L0.61682 169.868C1.32749 168.811 2.30682 167.987 3.55482 167.398C4.80282 166.791 6.23282 166.488 7.84482 166.488C9.19682 166.488 10.3755 166.713 11.3808 167.164C12.4035 167.597 13.1922 168.221 13.7468 169.036C14.3188 169.833 14.6048 170.778 14.6048 171.87C14.6048 172.858 14.3968 173.785 13.9808 174.652C13.5648 175.519 12.7588 176.507 11.5628 177.616L7.37682 181.568H15.2028ZM23.9027 163.108H27.5167L18.9367 187.6H15.3227L23.9027 163.108ZM35.6305 173.586C36.7918 173.586 37.8492 173.82 38.8025 174.288C39.7558 174.756 40.5098 175.423 41.0645 176.29C41.6192 177.139 41.8965 178.127 41.8965 179.254C41.8965 180.467 41.5932 181.533 40.9865 182.452C40.3798 183.371 39.5478 184.081 38.4905 184.584C37.4505 185.069 36.2892 185.312 35.0065 185.312C32.4585 185.312 30.4652 184.532 29.0265 182.972C27.5878 181.412 26.8685 179.185 26.8685 176.29C26.8685 174.227 27.2585 172.459 28.0385 170.986C28.8185 169.513 29.9018 168.395 31.2885 167.632C32.6925 166.869 34.3132 166.488 36.1505 166.488C37.1212 166.488 38.0485 166.601 38.9325 166.826C39.8338 167.034 40.5965 167.337 41.2205 167.736L39.6605 170.83C38.7592 170.223 37.6238 169.92 36.2545 169.92C34.7118 169.92 33.4898 170.371 32.5885 171.272C31.6872 172.173 31.2018 173.482 31.1325 175.198C32.2072 174.123 33.7065 173.586 35.6305 173.586ZM34.7725 182.166C35.6738 182.166 36.4018 181.923 36.9565 181.438C37.5285 180.953 37.8145 180.294 37.8145 179.462C37.8145 178.63 37.5285 177.971 36.9565 177.486C36.4018 176.983 35.6565 176.732 34.7205 176.732C33.8018 176.732 33.0478 176.992 32.4585 177.512C31.8692 178.015 31.5745 178.665 31.5745 179.462C31.5745 180.259 31.8605 180.909 32.4325 181.412C33.0045 181.915 33.7845 182.166 34.7725 182.166ZM17.8374 202.056H25.1954V205.306H17.8374V202.056ZM14.9489 233.568V237H1.19491V234.27L8.21491 227.64C8.96025 226.929 9.46291 226.323 9.72291 225.82C9.98291 225.3 10.1129 224.789 10.1129 224.286C10.1129 223.558 9.86158 223.003 9.35891 222.622C8.87358 222.223 8.15425 222.024 7.20091 222.024C6.40358 222.024 5.68425 222.18 5.04291 222.492C4.40158 222.787 3.86425 223.237 3.43091 223.844L0.362914 221.868C1.07358 220.811 2.05291 219.987 3.30091 219.398C4.54891 218.791 5.97891 218.488 7.59091 218.488C8.94291 218.488 10.1216 218.713 11.1269 219.164C12.1496 219.597 12.9382 220.221 13.4929 221.036C14.0649 221.833 14.3509 222.778 14.3509 223.87C14.3509 224.858 14.1429 225.785 13.7269 226.652C13.3109 227.519 12.5049 228.507 11.3089 229.616L7.12291 233.568H14.9489ZM23.6488 215.108H27.2628L18.6828 239.6H15.0688L23.6488 215.108ZM33.5184 218.488C36.0664 218.488 38.0597 219.268 39.4984 220.828C40.9371 222.371 41.6564 224.598 41.6564 227.51C41.6564 229.573 41.2664 231.341 40.4864 232.814C39.7237 234.287 38.6404 235.405 37.2364 236.168C35.8324 236.931 34.2117 237.312 32.3744 237.312C31.4037 237.312 30.4764 237.208 29.5924 237C28.7084 236.775 27.9544 236.463 27.3304 236.064L28.8904 232.97C29.7744 233.577 30.9097 233.88 32.2964 233.88C33.8391 233.88 35.0611 233.429 35.9624 232.528C36.8637 231.609 37.3491 230.292 37.4184 228.576C36.3264 229.668 34.8184 230.214 32.8944 230.214C31.7331 230.214 30.6757 229.98 29.7224 229.512C28.7691 229.044 28.0151 228.385 27.4604 227.536C26.9057 226.669 26.6284 225.673 26.6284 224.546C26.6284 223.333 26.9317 222.267 27.5384 221.348C28.1451 220.429 28.9684 219.727 30.0084 219.242C31.0657 218.739 32.2357 218.488 33.5184 218.488ZM33.8304 227.068C34.7491 227.068 35.4944 226.817 36.0664 226.314C36.6557 225.794 36.9504 225.135 36.9504 224.338C36.9504 223.541 36.6644 222.891 36.0924 222.388C35.5377 221.885 34.7664 221.634 33.7784 221.634C32.8771 221.634 32.1404 221.877 31.5684 222.362C31.0137 222.847 30.7364 223.506 30.7364 224.338C30.7364 225.17 31.0137 225.837 31.5684 226.34C32.1404 226.825 32.8944 227.068 33.8304 227.068Z" fill="#202020"/>
</svg>
