<svg width="100" height="300" viewBox="0 0 100 300" fill="none" xmlns="http://www.w3.org/2000/svg">
<path d="M95.0571 7.5C95.0571 3.35786 91.8229 0 87.8333 0C83.8437 0 80.6094 3.35786 80.6094 7.5C80.6094 11.6421 83.8437 15 87.8333 15C91.8229 15 95.0571 11.6421 95.0571 7.5Z" fill="black"/>
<path d="M87.2238 159.974C91.2134 159.974 94.4477 163.331 94.4477 167.474C94.4477 171.616 91.2134 174.974 87.2238 174.974C83.2341 174.974 80 171.616 80 167.474C80 163.331 83.2341 159.974 87.2238 159.974Z" fill="black"/>
<path d="M87.1494 288V8" stroke="black" stroke-width="4.41953"/>
<path d="M15.9741 22.288C14.5661 22.288 13.3341 22.08 12.2781 21.664C11.2221 21.232 10.3981 20.632 9.80613 19.864C9.21413 19.08 8.91813 18.168 8.91813 17.128C8.91813 16.088 9.20613 15.208 9.78213 14.488C10.3741 13.752 11.1981 13.2 12.2541 12.832C13.3101 12.448 14.5501 12.256 15.9741 12.256C17.4141 12.256 18.6621 12.448 19.7181 12.832C20.7901 13.2 21.6141 13.752 22.1901 14.488C22.7821 15.208 23.0781 16.088 23.0781 17.128C23.0781 18.168 22.7821 19.08 22.1901 19.864C21.5981 20.632 20.7661 21.232 19.6941 21.664C18.6381 22.08 17.3981 22.288 15.9741 22.288ZM15.9741 19.432C16.9501 19.432 17.7181 19.216 18.2781 18.784C18.8541 18.352 19.1421 17.76 19.1421 17.008C19.1421 16.256 18.8541 15.672 18.2781 15.256C17.7181 14.824 16.9501 14.608 15.9741 14.608C15.0141 14.608 14.2541 14.824 13.6941 15.256C13.1341 15.672 12.8541 16.256 12.8541 17.008C12.8541 17.76 13.1341 18.352 13.6941 18.784C14.2541 19.216 15.0141 19.432 15.9741 19.432ZM15.9741 14.224C14.6781 14.224 13.5421 14.048 12.5661 13.696C11.6061 13.344 10.8541 12.832 10.3101 12.16C9.78213 11.472 9.51813 10.656 9.51813 9.712C9.51813 8.72 9.79013 7.872 10.3341 7.168C10.8781 6.448 11.6381 5.896 12.6141 5.512C13.5901 5.112 14.7101 4.912 15.9741 4.912C17.2701 4.912 18.3981 5.112 19.3581 5.512C20.3341 5.896 21.0941 6.448 21.6381 7.168C22.1981 7.872 22.4781 8.72 22.4781 9.712C22.4781 10.656 22.2061 11.472 21.6621 12.16C21.1341 12.832 20.3821 13.344 19.4061 13.696C18.4301 14.048 17.2861 14.224 15.9741 14.224ZM15.9741 11.944C16.7901 11.944 17.4301 11.76 17.8941 11.392C18.3741 11.024 18.6141 10.52 18.6141 9.88C18.6141 9.208 18.3661 8.688 17.8701 8.32C17.3901 7.952 16.7581 7.768 15.9741 7.768C15.2061 7.768 14.5821 7.952 14.1021 8.32C13.6221 8.688 13.3821 9.208 13.3821 9.88C13.3821 10.52 13.6141 11.024 14.0781 11.392C14.5421 11.76 15.1741 11.944 15.9741 11.944ZM23.1299 24.4L31.0499 1.792H34.3859L26.4659 24.4H23.1299ZM39.7043 22.288C38.5363 22.288 37.3763 22.136 36.2243 21.832C35.0723 21.512 34.0963 21.064 33.2963 20.488L34.8083 17.512C35.4483 17.976 36.1923 18.344 37.0403 18.616C37.8883 18.888 38.7443 19.024 39.6083 19.024C40.5843 19.024 41.3523 18.832 41.9123 18.448C42.4723 18.064 42.7523 17.536 42.7523 16.864C42.7523 16.224 42.5043 15.72 42.0083 15.352C41.5123 14.984 40.7123 14.8 39.6083 14.8H37.8323V12.232L42.5123 6.928L42.9443 8.32H34.1363V5.2H45.8963V7.72L41.2403 13.024L39.2723 11.896H40.4003C42.4643 11.896 44.0243 12.36 45.0803 13.288C46.1363 14.216 46.6643 15.408 46.6643 16.864C46.6643 17.808 46.4163 18.696 45.9203 19.528C45.4243 20.344 44.6643 21.008 43.6403 21.52C42.6163 22.032 41.3043 22.288 39.7043 22.288ZM51.0514 22V6.64L52.7314 8.32H47.6914V5.2H54.9394V22H51.0514ZM31.0415 48.288C29.8095 48.288 28.7135 48.088 27.7535 47.688C26.7935 47.288 26.0335 46.744 25.4735 46.056C24.9135 45.368 24.6335 44.576 24.6335 43.68C24.6335 42.848 24.8175 42.104 25.1855 41.448C25.5535 40.776 26.1375 40.152 26.9375 39.576C27.7375 38.984 28.7535 38.408 29.9855 37.848C30.8815 37.432 31.5855 37.064 32.0975 36.744C32.6095 36.424 32.9695 36.12 33.1775 35.832C33.3855 35.528 33.4895 35.224 33.4895 34.92C33.4895 34.504 33.3455 34.168 33.0575 33.912C32.7855 33.656 32.3775 33.528 31.8335 33.528C31.2575 33.528 30.8095 33.672 30.4895 33.96C30.1695 34.248 30.0095 34.616 30.0095 35.064C30.0095 35.304 30.0575 35.544 30.1535 35.784C30.2495 36.008 30.4335 36.272 30.7055 36.576C30.9775 36.864 31.3615 37.24 31.8575 37.704L40.7135 45.912L38.6735 48.288L28.9055 39.216C28.3455 38.704 27.8975 38.224 27.5615 37.776C27.2255 37.328 26.9775 36.888 26.8175 36.456C26.6735 36.024 26.6015 35.576 26.6015 35.112C26.6015 34.296 26.8175 33.576 27.2495 32.952C27.6815 32.328 28.2895 31.848 29.0735 31.512C29.8575 31.16 30.7775 30.984 31.8335 30.984C32.8095 30.984 33.6495 31.144 34.3535 31.464C35.0735 31.768 35.6335 32.208 36.0335 32.784C36.4495 33.36 36.6575 34.048 36.6575 34.848C36.6575 35.552 36.4815 36.2 36.1295 36.792C35.7775 37.368 35.2255 37.912 34.4735 38.424C33.7375 38.936 32.7695 39.456 31.5695 39.984C30.7535 40.352 30.1055 40.712 29.6255 41.064C29.1615 41.4 28.8255 41.744 28.6175 42.096C28.4095 42.448 28.3055 42.84 28.3055 43.272C28.3055 43.672 28.4255 44.032 28.6655 44.352C28.9215 44.672 29.2735 44.92 29.7215 45.096C30.1695 45.272 30.6975 45.36 31.3055 45.36C32.2815 45.36 33.1775 45.136 33.9935 44.688C34.8095 44.224 35.4975 43.544 36.0575 42.648C36.6335 41.736 37.0415 40.632 37.2815 39.336L40.2815 40.272C39.9455 41.904 39.3455 43.32 38.4815 44.52C37.6175 45.72 36.5535 46.648 35.2895 47.304C34.0255 47.96 32.6095 48.288 31.0415 48.288ZM22.172 56.912C23.724 56.912 25.06 57.232 26.18 57.872C27.3 58.512 28.164 59.448 28.772 60.68C29.38 61.896 29.684 63.416 29.684 65.24C29.684 67.176 29.316 68.816 28.58 70.16C27.86 71.504 26.86 72.528 25.58 73.232C24.3 73.936 22.812 74.288 21.116 74.288C20.236 74.288 19.388 74.192 18.572 74C17.756 73.808 17.052 73.52 16.46 73.136L17.9 70.28C18.364 70.6 18.86 70.824 19.388 70.952C19.916 71.064 20.468 71.12 21.044 71.12C22.484 71.12 23.628 70.68 24.476 69.8C25.34 68.92 25.772 67.616 25.772 65.888C25.772 65.6 25.764 65.28 25.748 64.928C25.732 64.576 25.692 64.224 25.628 63.872L26.684 64.88C26.412 65.504 26.028 66.032 25.532 66.464C25.036 66.88 24.46 67.2 23.804 67.424C23.148 67.632 22.412 67.736 21.596 67.736C20.524 67.736 19.548 67.52 18.668 67.088C17.804 66.656 17.108 66.048 16.58 65.264C16.068 64.48 15.812 63.56 15.812 62.504C15.812 61.352 16.092 60.36 16.652 59.528C17.228 58.696 17.996 58.056 18.956 57.608C19.932 57.144 21.004 56.912 22.172 56.912ZM22.412 59.816C21.852 59.816 21.364 59.92 20.948 60.128C20.532 60.32 20.204 60.608 19.964 60.992C19.724 61.36 19.604 61.8 19.604 62.312C19.604 63.08 19.86 63.696 20.372 64.16C20.9 64.608 21.596 64.832 22.46 64.832C23.02 64.832 23.516 64.728 23.948 64.52C24.396 64.296 24.74 63.992 24.98 63.608C25.22 63.224 25.34 62.792 25.34 62.312C25.34 61.832 25.22 61.408 24.98 61.04C24.756 60.656 24.428 60.36 23.996 60.152C23.564 59.928 23.036 59.816 22.412 59.816ZM29.3525 76.4L37.2725 53.792H40.6085L32.6885 76.4H29.3525ZM43.7975 74V58.64L45.4775 60.32H40.4375V57.2H47.6855V74H43.7975Z" fill="black"/>
<path d="M21.672 164.912C23.224 164.912 24.56 165.232 25.68 165.872C26.8 166.512 27.664 167.448 28.272 168.68C28.88 169.896 29.184 171.416 29.184 173.24C29.184 175.176 28.816 176.816 28.08 178.16C27.36 179.504 26.36 180.528 25.08 181.232C23.8 181.936 22.312 182.288 20.616 182.288C19.736 182.288 18.888 182.192 18.072 182C17.256 181.808 16.552 181.52 15.96 181.136L17.4 178.28C17.864 178.6 18.36 178.824 18.888 178.952C19.416 179.064 19.968 179.12 20.544 179.12C21.984 179.12 23.128 178.68 23.976 177.8C24.84 176.92 25.272 175.616 25.272 173.888C25.272 173.6 25.264 173.28 25.248 172.928C25.232 172.576 25.192 172.224 25.128 171.872L26.184 172.88C25.912 173.504 25.528 174.032 25.032 174.464C24.536 174.88 23.96 175.2 23.304 175.424C22.648 175.632 21.912 175.736 21.096 175.736C20.024 175.736 19.048 175.52 18.168 175.088C17.304 174.656 16.608 174.048 16.08 173.264C15.568 172.48 15.312 171.56 15.312 170.504C15.312 169.352 15.592 168.36 16.152 167.528C16.728 166.696 17.496 166.056 18.456 165.608C19.432 165.144 20.504 164.912 21.672 164.912ZM21.912 167.816C21.352 167.816 20.864 167.92 20.448 168.128C20.032 168.32 19.704 168.608 19.464 168.992C19.224 169.36 19.104 169.8 19.104 170.312C19.104 171.08 19.36 171.696 19.872 172.16C20.4 172.608 21.096 172.832 21.96 172.832C22.52 172.832 23.016 172.728 23.448 172.52C23.896 172.296 24.24 171.992 24.48 171.608C24.72 171.224 24.84 170.792 24.84 170.312C24.84 169.832 24.72 169.408 24.48 169.04C24.256 168.656 23.928 168.36 23.496 168.152C23.064 167.928 22.536 167.816 21.912 167.816ZM28.8525 184.4L36.7725 161.792H40.1085L32.1885 184.4H28.8525ZM43.2975 182V166.64L44.9775 168.32H39.9375V165.2H47.1855V182H43.2975ZM28.6191 202.744V199.744H35.4111V202.744H28.6191ZM19.2228 216.912C20.7748 216.912 22.1108 217.232 23.2308 217.872C24.3508 218.512 25.2148 219.448 25.8228 220.68C26.4308 221.896 26.7348 223.416 26.7348 225.24C26.7348 227.176 26.3668 228.816 25.6308 230.16C24.9108 231.504 23.9108 232.528 22.6308 233.232C21.3508 233.936 19.8628 234.288 18.1668 234.288C17.2868 234.288 16.4388 234.192 15.6228 234C14.8068 233.808 14.1028 233.52 13.5108 233.136L14.9508 230.28C15.4148 230.6 15.9108 230.824 16.4388 230.952C16.9668 231.064 17.5188 231.12 18.0948 231.12C19.5348 231.12 20.6788 230.68 21.5268 229.8C22.3908 228.92 22.8228 227.616 22.8228 225.888C22.8228 225.6 22.8148 225.28 22.7988 224.928C22.7828 224.576 22.7428 224.224 22.6788 223.872L23.7348 224.88C23.4628 225.504 23.0788 226.032 22.5828 226.464C22.0868 226.88 21.5108 227.2 20.8548 227.424C20.1988 227.632 19.4628 227.736 18.6468 227.736C17.5748 227.736 16.5988 227.52 15.7188 227.088C14.8548 226.656 14.1588 226.048 13.6308 225.264C13.1188 224.48 12.8628 223.56 12.8628 222.504C12.8628 221.352 13.1428 220.36 13.7028 219.528C14.2788 218.696 15.0468 218.056 16.0068 217.608C16.9828 217.144 18.0548 216.912 19.2228 216.912ZM19.4628 219.816C18.9028 219.816 18.4148 219.92 17.9988 220.128C17.5828 220.32 17.2548 220.608 17.0148 220.992C16.7748 221.36 16.6548 221.8 16.6548 222.312C16.6548 223.08 16.9108 223.696 17.4228 224.16C17.9508 224.608 18.6468 224.832 19.5108 224.832C20.0708 224.832 20.5668 224.728 20.9988 224.52C21.4468 224.296 21.7908 223.992 22.0308 223.608C22.2708 223.224 22.3908 222.792 22.3908 222.312C22.3908 221.832 22.2708 221.408 22.0308 221.04C21.8068 220.656 21.4788 220.36 21.0468 220.152C20.6148 219.928 20.0868 219.816 19.4628 219.816ZM26.4033 236.4L34.3233 213.792H37.6593L29.7393 236.4H26.4033ZM35.8143 230.472V227.856L43.7343 217.2H47.8143L40.0623 227.856L38.1663 227.304H51.3903V230.472H35.8143ZM44.8623 234V230.472L44.9823 227.304V224.16H48.6543V234H44.8623Z" fill="black"/>
</svg>
