<svg width="94" height="277" viewBox="0 0 94 277" fill="none" xmlns="http://www.w3.org/2000/svg">
<circle cx="85.8384" cy="11.0312" r="7.5" transform="rotate(-90 85.8384 11.0312)" fill="black"/>
<circle cx="86.5" cy="171.5" r="7.5" transform="rotate(-90 86.5 171.5)" fill="black"/>
<line x1="85.7902" y1="277" x2="85.7902" y2="11" stroke="black" stroke-width="4.41953"/>
<path d="M10.4529 3.8V22H6.24095V7.18H2.60095V3.8H10.4529ZM20.3226 0.107998H23.9366L15.3566 24.6H11.7426L20.3226 0.107998ZM37.3942 18.568V22H23.6402V19.27L30.6602 12.64C31.4056 11.9293 31.9082 11.3227 32.1682 10.82C32.4282 10.3 32.5582 9.78867 32.5582 9.286C32.5582 8.558 32.3069 8.00333 31.8042 7.622C31.3189 7.22333 30.5996 7.024 29.6462 7.024C28.8489 7.024 28.1296 7.18 27.4882 7.492C26.8469 7.78667 26.3096 8.23733 25.8762 8.844L22.8082 6.868C23.5189 5.81067 24.4982 4.98733 25.7462 4.398C26.9942 3.79133 28.4242 3.488 30.0362 3.488C31.3882 3.488 32.5669 3.71333 33.5722 4.164C34.5949 4.59733 35.3836 5.22133 35.9382 6.036C36.5102 6.83333 36.7962 7.778 36.7962 8.87C36.7962 9.858 36.5882 10.7853 36.1722 11.652C35.7562 12.5187 34.9502 13.5067 33.7542 14.616L29.5682 18.568H37.3942ZM45.3722 10.638C47.9375 10.638 49.8268 11.1493 51.0402 12.172C52.2708 13.1947 52.8862 14.564 52.8862 16.28C52.8862 17.3893 52.6088 18.4033 52.0542 19.322C51.4995 20.2233 50.6502 20.9513 49.5062 21.506C48.3795 22.0433 46.9842 22.312 45.3202 22.312C44.0375 22.312 42.7722 22.1473 41.5242 21.818C40.2935 21.4713 39.2448 20.986 38.3782 20.362L40.0422 17.138C40.7355 17.658 41.5328 18.0653 42.4342 18.36C43.3355 18.6373 44.2628 18.776 45.2162 18.776C46.2735 18.776 47.1055 18.568 47.7122 18.152C48.3188 17.736 48.6222 17.1553 48.6222 16.41C48.6222 15.63 48.3015 15.0407 47.6602 14.642C47.0362 14.2433 45.9442 14.044 44.3842 14.044H39.7302L40.6662 3.8H51.7682V7.18H44.1762L43.8902 10.638H45.3722ZM34.688 48.312L32.504 46.284C30.7707 47.636 28.7427 48.312 26.42 48.312C25.1027 48.312 23.9153 48.104 22.858 47.688C21.8007 47.2547 20.9687 46.6567 20.362 45.894C19.7727 45.1313 19.478 44.2733 19.478 43.32C19.478 42.1933 19.79 41.2053 20.414 40.356C21.0553 39.4893 22.078 38.666 23.482 37.886C22.8233 37.21 22.3467 36.5687 22.052 35.962C21.7573 35.338 21.61 34.6967 21.61 34.038C21.61 33.154 21.844 32.374 22.312 31.698C22.78 31.022 23.4387 30.502 24.288 30.138C25.1547 29.7567 26.1513 29.566 27.278 29.566C28.8553 29.566 30.1207 29.9473 31.074 30.71C32.0273 31.4553 32.504 32.4693 32.504 33.752C32.504 34.688 32.218 35.52 31.646 36.248C31.0913 36.976 30.19 37.678 28.942 38.354L32.27 41.448C32.6687 40.616 32.972 39.6713 33.18 38.614L36.43 39.628C36.0833 41.24 35.5287 42.618 34.766 43.762L36.898 45.738L34.688 48.312ZM27.278 32.322C26.6713 32.322 26.186 32.478 25.822 32.79C25.4753 33.102 25.302 33.5007 25.302 33.986C25.302 34.35 25.3973 34.6967 25.588 35.026C25.7787 35.338 26.1513 35.7627 26.706 36.3C27.59 35.832 28.2053 35.416 28.552 35.052C28.8987 34.6707 29.072 34.2633 29.072 33.83C29.072 33.3793 28.916 33.0153 28.604 32.738C28.292 32.4607 27.85 32.322 27.278 32.322ZM26.706 45.14C27.9713 45.14 29.1067 44.7847 30.112 44.074L25.718 39.966C24.9033 40.434 24.3227 40.8933 23.976 41.344C23.6293 41.7947 23.456 42.306 23.456 42.878C23.456 43.554 23.7507 44.1 24.34 44.516C24.9293 44.932 25.718 45.14 26.706 45.14ZM10.1483 55.8V74H5.93626V59.18H2.29626V55.8H10.1483ZM20.0179 52.108H23.6319L15.0519 76.6H11.4379L20.0179 52.108ZM37.0895 70.568V74H23.3355V71.27L30.3555 64.64C31.1009 63.9293 31.6035 63.3227 31.8635 62.82C32.1235 62.3 32.2535 61.7887 32.2535 61.286C32.2535 60.558 32.0022 60.0033 31.4995 59.622C31.0142 59.2233 30.2949 59.024 29.3415 59.024C28.5442 59.024 27.8249 59.18 27.1835 59.492C26.5422 59.7867 26.0049 60.2373 25.5715 60.844L22.5035 58.868C23.2142 57.8107 24.1935 56.9873 25.4415 56.398C26.6895 55.7913 28.1195 55.488 29.7315 55.488C31.0835 55.488 32.2622 55.7133 33.2675 56.164C34.2902 56.5973 35.0789 57.2213 35.6335 58.036C36.2055 58.8333 36.4915 59.778 36.4915 60.87C36.4915 61.858 36.2835 62.7853 35.8675 63.652C35.4515 64.5187 34.6455 65.5067 33.4495 66.616L29.2635 70.568H37.0895ZM53.0247 55.8V58.53L46.2647 74H41.6887L48.2147 59.232H42.1827V62.196H38.4387V55.8H53.0247Z" fill="#202020"/>
<path d="M8.14826 166.8V185H3.93626V170.18H0.296258V166.8H8.14826ZM18.0179 163.108H21.6319L13.0519 187.6H9.4379L18.0179 163.108ZM35.0895 181.568V185H21.3355V182.27L28.3555 175.64C29.1009 174.929 29.6035 174.323 29.8635 173.82C30.1235 173.3 30.2535 172.789 30.2535 172.286C30.2535 171.558 30.0022 171.003 29.4995 170.622C29.0142 170.223 28.2949 170.024 27.3415 170.024C26.5442 170.024 25.8249 170.18 25.1835 170.492C24.5422 170.787 24.0049 171.237 23.5715 171.844L20.5035 169.868C21.2142 168.811 22.1935 167.987 23.4415 167.398C24.6895 166.791 26.1195 166.488 27.7315 166.488C29.0835 166.488 30.2622 166.713 31.2675 167.164C32.2902 167.597 33.0789 168.221 33.6335 169.036C34.2055 169.833 34.4915 170.778 34.4915 171.87C34.4915 172.858 34.2835 173.785 33.8675 174.652C33.4515 175.519 32.6455 176.507 31.4495 177.616L27.2635 181.568H35.0895ZM51.0247 166.8V169.53L44.2647 185H39.6887L46.2147 170.232H40.1827V173.196H36.4387V166.8H51.0247ZM22.3374 202.056H29.6954V205.306H22.3374V202.056ZM11.0682 218.8V237H6.85618V222.18H3.21618V218.8H11.0682ZM20.9378 215.108H24.5518L15.9718 239.6H12.3578L20.9378 215.108ZM32.9135 226.21C34.5081 226.47 35.7301 227.068 36.5795 228.004C37.4288 228.923 37.8535 230.067 37.8535 231.436C37.8535 232.493 37.5761 233.473 37.0215 234.374C36.4668 235.258 35.6175 235.969 34.4735 236.506C33.3468 237.043 31.9601 237.312 30.3135 237.312C29.0308 237.312 27.7655 237.147 26.5175 236.818C25.2868 236.471 24.2381 235.986 23.3715 235.362L25.0095 232.138C25.7028 232.658 26.5001 233.065 27.4015 233.36C28.3201 233.637 29.2561 233.776 30.2095 233.776C31.2668 233.776 32.0988 233.577 32.7055 233.178C33.3121 232.762 33.6155 232.181 33.6155 231.436C33.6155 229.945 32.4801 229.2 30.2095 229.2H28.2855V226.418L32.0295 222.18H24.2815V218.8H37.0215V221.53L32.9135 226.21ZM46.8182 218.8V237H42.6062V222.18H38.9662V218.8H46.8182Z" fill="#202020"/>
</svg>
