<svg width="1152" height="1185" viewBox="0 0 1152 1185" fill="none" xmlns="http://www.w3.org/2000/svg">
<path fill-rule="evenodd" clip-rule="evenodd" d="M1144 4.79802C1142.76 5.22402 1141.54 5.77552 1141.28 6.02402C1141.01 6.27252 1140.41 6.47602 1139.94 6.47602C1139.46 6.47602 1138.76 6.78452 1138.39 7.16102C1138.01 7.53802 1136.99 8.21302 1136.13 8.66052C1135.26 9.10852 1133.48 10.4875 1132.17 11.7255C1130.86 12.9635 1129.67 13.976 1129.52 13.976C1129.04 13.976 1125 17.8475 1125 18.308C1125 18.554 1124.52 19.086 1123.93 19.4905C1123.34 19.895 1122.34 20.7325 1121.7 21.351C1121.07 21.9695 1120.2 22.476 1119.77 22.476C1119.35 22.476 1119 22.701 1119 22.976C1119 23.251 1118.61 23.4795 1118.12 23.484C1117.64 23.4885 1116.46 24.161 1115.5 24.9785C1113.53 26.6565 1113.57 26.6205 1110.5 28.9895C1109.26 29.9445 1108.18 30.895 1108.08 31.101C1107.99 31.307 1107.65 31.4765 1107.33 31.4765C1106.54 31.4775 1104 33.7085 1104 34.409C1104 34.721 1103.83 34.9795 1103.62 34.984C1103.28 34.9915 1102.23 35.853 1098.25 39.395C1097.43 40.1295 1096.17 41.1 1095.47 41.552C1094.26 42.3325 1091.74 44.694 1089.91 46.772C1088.95 47.8615 1088.32 48.366 1086.34 49.6375C1085.57 50.1345 1084.08 51.4265 1083.03 52.5085C1081.98 53.5905 1080.97 54.476 1080.79 54.476C1080.6 54.476 1079.93 54.982 1079.29 55.601C1078.65 56.22 1076.97 57.779 1075.56 59.0655C1074.15 60.352 1073 61.5895 1073 61.8155C1072.99 62.0415 1072.27 62.7885 1071.4 63.476C1068.6 65.666 1061.85 72.938 1056.83 79.183C1054.23 82.4005 1051.83 85.1425 1050.38 86.5505C1049.62 87.2805 1049 88.1245 1049 88.4265C1049 88.729 1048.78 88.976 1048.5 88.976C1048.22 88.976 1048 89.3135 1048 89.726C1048 90.1385 1047.78 90.476 1047.5 90.476C1047.22 90.476 1047 90.764 1047 91.1155C1047 91.4675 1046.55 92.0795 1046 92.476C1045.45 92.8725 1045 93.57 1045 94.026C1045 94.482 1043.88 95.879 1042.5 97.1305C1041.12 98.382 1040 99.538 1040 99.7C1040 99.862 1038.59 101.433 1036.88 103.19C1033.08 107.068 1031 109.4 1031 109.77C1031 109.922 1029.83 111.1 1028.41 112.386C1024.16 116.224 1022.65 117.83 1017.26 124.226C1016.57 125.051 1016 126.008 1016 126.351C1016 126.695 1015.78 126.976 1015.5 126.976C1015.22 126.976 1015 127.197 1015 127.468C1015 127.738 1014.44 128.582 1013.75 129.343C1011.09 132.303 1010 133.751 1010 134.351C1010 134.695 1009.78 134.976 1009.5 134.976C1009.22 134.976 1009 135.264 1009 135.616C1009 135.968 1008.55 136.58 1008 136.976C1007.45 137.373 1007 137.983 1007 138.332C1007 138.682 1006.55 139.249 1006 139.592C1005.45 139.936 1005 140.498 1005 140.841C1005 141.394 1004.4 142.279 1002.75 144.157C1002.47 144.47 1001.93 145.345 1001.54 146.101C1001.15 146.857 1000.64 147.476 1000.42 147.476C1000.19 147.476 1000 147.701 1000 147.976C1000 148.25 999.1 149.402 998 150.536C996.9 151.669 995.999 152.738 995.997 152.912C995.995 153.085 995.151 153.789 994.122 154.476C991.858 155.988 991.276 156.432 989.851 157.728C988.547 158.915 983.692 161.476 982.745 161.476C982.381 161.476 982.008 161.645 981.917 161.851C981.825 162.057 979.725 162.877 977.25 163.672C974.775 164.467 972.3 165.285 971.75 165.49C969.57 166.302 963.373 167.774 960.125 168.252C958.956 168.423 958 168.769 958 169.02C958 169.271 956.875 169.476 955.5 169.476C954.125 169.476 953 169.701 953 169.976C953 170.251 952.49 170.476 951.868 170.476C951.245 170.476 949.501 170.945 947.993 171.518C946.484 172.092 944.81 172.692 944.273 172.853C943.736 173.014 941.31 174.12 938.881 175.311C936.452 176.502 934.136 177.476 933.733 177.476C933.33 177.476 933 177.701 933 177.976C933 178.251 932.563 178.476 932.029 178.476C931.495 178.476 930.92 178.701 930.75 178.976C930.58 179.251 929.986 179.476 929.43 179.476C928.044 179.476 921.99 182.57 920.286 184.15C919.52 184.859 918.242 185.728 917.447 186.08C916.651 186.432 916 186.89 916 187.098C916 187.306 915.655 187.476 915.234 187.476C914.812 187.476 913.357 188.039 912 188.726C910.643 189.414 909.188 189.976 908.766 189.976C908.345 189.976 908 190.201 908 190.476C908 190.751 907.569 190.976 907.042 190.976C906.515 190.976 906.008 191.147 905.917 191.356C905.679 191.898 900.545 194.476 899.704 194.476C899.316 194.476 899 194.701 899 194.976C899 195.251 898.667 195.476 898.26 195.476C897.854 195.476 895.845 196.039 893.797 196.726C891.75 197.414 889.762 197.976 889.381 197.976C889 197.976 887.756 198.426 886.618 198.976C885.479 199.526 884.291 199.976 883.977 199.976C883.268 199.976 880.31 201.59 880.083 202.101C879.992 202.307 879.498 202.476 878.988 202.476C878.477 202.476 877.92 202.701 877.75 202.976C877.58 203.251 876.892 203.476 876.221 203.476C875.549 203.476 875 203.671 875 203.91C875 204.148 873.031 204.621 870.625 204.961C865.387 205.702 862.517 206.222 859.5 206.976C858.263 207.286 856.237 207.73 855 207.965C853.763 208.199 851.287 208.774 849.5 209.243C847.606 209.74 842.808 210.272 838 210.516C828.133 211.019 824.413 211.413 823.775 212.022C823.514 212.272 822.501 212.48 821.525 212.485C819.898 212.493 817.628 213.025 810 215.185C808.487 215.614 806.35 215.975 805.25 215.988C804.15 216.001 802.688 216.333 802 216.726C801.312 217.119 800.131 217.449 799.375 217.459C798.619 217.468 798 217.672 798 217.91C798 218.365 796.102 218.764 790.25 219.54C788.325 219.795 778.537 220.212 768.5 220.466C758.463 220.72 748.112 221.158 745.5 221.439C724.229 223.731 717.239 224.096 700.5 223.792C691.838 223.634 682.612 223.361 680 223.186C674.089 222.79 666.904 223.731 661.75 225.574C660.925 225.87 659.405 226.217 658.372 226.347C657.339 226.476 656.37 226.783 656.218 227.029C656.066 227.275 655.28 227.476 654.471 227.476C653.661 227.476 653 227.701 653 227.976C653 228.251 652.654 228.476 652.23 228.476C650.962 228.476 641.131 231.935 638.654 233.252C637.387 233.925 636.047 234.476 635.675 234.476C635.304 234.476 635 234.701 635 234.976C635 235.251 634.451 235.476 633.779 235.476C633.108 235.476 632.432 235.682 632.277 235.933C632.121 236.184 631.096 236.541 629.997 236.727C628.899 236.912 628 237.233 628 237.44C628 237.647 626.706 238.115 625.125 238.48C623.544 238.845 621.575 239.483 620.75 239.899C619.189 240.686 612.077 242.702 607.75 243.585C605.098 244.126 580.331 245.071 572.75 244.92C570.275 244.871 565.775 244.863 562.75 244.903C541.526 245.182 534.372 245.102 530.75 244.544C528.55 244.205 525.4 243.811 523.75 243.669C522.1 243.527 520.188 243.219 519.5 242.986C518.812 242.753 516 242.183 513.25 241.718C510.5 241.254 506.112 240.469 503.5 239.974C499.204 239.161 492.526 238.298 486.5 237.779C479.072 237.139 472 236.207 472 235.869C472 235.653 471.277 235.476 470.392 235.476C469.507 235.476 467.876 235.153 466.767 234.759C464.964 234.117 460.543 233.104 452.587 231.51C451.122 231.216 448.518 230.976 446.799 230.976C444.754 230.976 442.439 230.545 440.096 229.726C438.129 229.039 436.177 228.476 435.759 228.476C435.341 228.476 435 228.251 435 227.976C435 227.701 434.344 227.476 433.542 227.476C432.74 227.476 432.009 227.293 431.917 227.068C431.676 226.477 419.723 220.476 418.788 220.476C418.354 220.476 417.998 220.308 417.996 220.101C417.992 219.652 415.57 218.476 414.651 218.476C414.293 218.476 414 218.277 414 218.035C414 217.792 413.493 217.476 412.875 217.334C412.257 217.191 410.175 216.46 408.25 215.71C403.425 213.83 400.871 213.548 384.192 213.051C376.185 212.813 369.322 212.423 368.942 212.184C368.173 211.701 364.417 211.13 358 210.52C355.663 210.298 352.4 209.884 350.75 209.6C349.1 209.316 345.388 208.828 342.5 208.517C339.612 208.206 335.999 207.732 334.47 207.464C332.941 207.196 331.118 206.976 330.419 206.976C329.72 206.976 326.875 206.414 324.097 205.726C321.318 205.039 318.36 204.476 317.522 204.476C316.685 204.476 316 204.251 316 203.976C316 203.701 315.226 203.476 314.28 203.476C313.333 203.476 312.42 203.251 312.25 202.976C312.08 202.701 311.399 202.476 310.737 202.476C309.527 202.476 305.086 200.433 297.874 196.559C295.742 195.413 293.548 194.476 292.999 194.476C292.449 194.476 292 194.283 292 194.047C292 192.045 281.966 190.489 265.75 189.977C231.742 188.901 228.273 188.366 215.75 182.26C212.45 180.651 208.738 178.863 207.5 178.287C206.262 177.711 205.135 177.086 204.995 176.898C204.854 176.709 204.123 176.401 203.37 176.212C202.617 176.023 202 175.667 202 175.422C202 175.177 201.55 174.976 201 174.976C200.45 174.976 200 174.806 200 174.598C200 174.39 199.269 173.926 198.375 173.565C197.482 173.205 196.011 172.588 195.108 172.193C194.205 171.799 193.155 171.476 192.775 171.476C192.395 171.476 192.008 171.307 191.917 171.101C191.825 170.895 190.77 170.218 189.572 169.598C186.392 167.951 184.285 166.764 184 166.458C183.863 166.311 182.062 165.316 180 164.247C177.938 163.179 175.462 161.856 174.5 161.309C173.538 160.761 172.132 159.996 171.375 159.608C170.619 159.22 170 158.722 170 158.5C170 158.279 169.325 157.818 168.5 157.476C167.675 157.135 167 156.706 167 156.523C167 156.341 165.653 155.525 164.008 154.709C162.363 153.894 161.013 153.058 161.008 152.851C161.003 152.645 160.55 152.476 160 152.476C159.45 152.476 159 152.273 159 152.024C159 151.59 152.415 146.476 151.857 146.476C151.708 146.476 150.805 145.745 149.851 144.851C146.497 141.709 144.236 139.874 142.797 139.125C141.998 138.71 140.887 137.944 140.328 137.423C139.769 136.902 139.12 136.476 138.885 136.476C138.65 136.476 138.186 136.248 137.854 135.969C136.732 135.027 133.453 132.973 131.4 131.925C130.277 131.353 129.109 130.672 128.805 130.413C127.595 129.387 121.817 126.174 113.162 121.715C104.757 117.385 99.988 115.441 92.25 113.192C90.6 112.712 89.036 112.13 88.775 111.898C88.5135 111.666 87.814 111.476 87.22 111.476C86.6255 111.476 85.377 110.968 84.445 110.347C82.208 108.856 80.179 107.976 78.9765 107.976C78.4395 107.976 78 107.804 78 107.595C78 107.163 73.705 105.965 70.875 105.608C69.8435 105.478 69 105.193 69 104.974C69 104.756 68.044 104.455 66.875 104.306C64.2145 103.967 60.6955 103.259 56.5 102.22C49.8635 100.576 43.61 99.4215 38.75 98.9435C36 98.6725 31.6125 98.2375 29 97.9765C26.3875 97.7155 17.894 97.496 10.125 97.489H0V229.709V1185H562.75H1152V183.5C1152 85.1875 1152 0 1152 0C1151.79 0.013 1145.24 4.37202 1144 4.79802Z" fill="#0D202E"/>
</svg>
