<svg width="1152" height="1185" viewBox="0 0 1152 1185" fill="none" xmlns="http://www.w3.org/2000/svg">
<path fill-rule="evenodd" clip-rule="evenodd" d="M1144 4.79802C1142.76 5.22402 1141.54 5.77552 1141.28 6.02402C1141.01 6.27252 1140.41 6.47602 1139.94 6.47602C1139.46 6.47602 1138.76 6.78452 1138.39 7.16102C1138.01 7.53802 1136.99 8.21302 1136.13 8.66052C1135.26 9.10852 1133.48 10.4875 1132.17 11.7255C1130.86 12.9635 1129.67 13.976 1129.52 13.976C1129.04 13.976 1125 17.8475 1125 18.308C1125 18.554 1124.52 19.086 1123.93 19.4905C1123.34 19.895 1122.34 20.7325 1121.7 21.351C1121.07 21.9695 1120.2 22.476 1119.77 22.476C1119.35 22.476 1119 22.701 1119 22.976C1119 23.251 1118.61 23.4795 1118.12 23.484C1117.64 23.4885 1116.46 24.161 1115.5 24.9785C1113.53 26.6565 1113.57 26.6205 1110.5 28.9895C1109.26 29.9445 1108.18 30.895 1108.08 31.101C1107.99 31.307 1107.65 31.4765 1107.33 31.4765C1106.54 31.4775 1104 33.7085 1104 34.409C1104 34.721 1103.83 34.9795 1103.62 34.984C1103.28 34.9915 1102.23 35.853 1098.25 39.395C1097.43 40.1295 1096.17 41.1 1095.47 41.552C1094.26 42.3325 1091.74 44.694 1089.91 46.772C1088.95 47.8615 1088.32 48.366 1086.34 49.6375C1085.57 50.1345 1084.08 51.4265 1083.03 52.5085C1081.98 53.5905 1080.97 54.476 1080.79 54.476C1080.6 54.476 1079.93 54.982 1079.29 55.601C1078.65 56.22 1076.97 57.779 1075.56 59.0655C1074.15 60.352 1073 61.5895 1073 61.8155C1072.99 62.0415 1072.27 62.7885 1071.4 63.476C1068.6 65.666 1061.85 72.938 1056.83 79.183C1054.23 82.4005 1051.83 85.1425 1050.38 86.5505C1049.62 87.2805 1049 88.1245 1049 88.4265C1049 88.729 1048.78 88.976 1048.5 88.976C1048.22 88.976 1048 89.3135 1048 89.726C1048 90.1385 1047.78 90.476 1047.5 90.476C1047.22 90.476 1047 90.764 1047 91.1155C1047 91.4675 1046.55 92.0795 1046 92.476C1045.45 92.8725 1045 93.57 1045 94.026C1045 94.482 1043.88 95.879 1042.5 97.1305C1041.12 98.382 1040 99.538 1040 99.7C1040 99.862 1038.59 101.433 1036.88 103.19C1033.08 107.068 1031 109.4 1031 109.77C1031 109.922 1029.83 111.1 1028.41 112.386C1024.16 116.224 1022.65 117.83 1017.26 124.226C1016.57 125.051 1016 126.008 1016 126.351C1016 126.695 1015.78 126.976 1015.5 126.976C1015.22 126.976 1015 127.197 1015 127.468C1015 127.738 1014.44 128.582 1013.75 129.343C1011.09 132.303 1010 133.751 1010 134.351C1010 134.695 1009.78 134.976 1009.5 134.976C1009.22 134.976 1009 135.264 1009 135.616C1009 135.968 1008.55 136.58 1008 136.976C1007.45 137.373 1007 137.983 1007 138.332C1007 138.682 1006.55 139.249 1006 139.592C1005.45 139.936 1005 140.498 1005 140.841C1005 141.394 1004.4 142.279 1002.75 144.157C1002.47 144.47 1001.93 145.345 1001.54 146.101C1001.15 146.857 1000.64 147.476 1000.42 147.476C1000.19 147.476 1000 147.701 1000 147.976C1000 148.25 999.1 149.402 998 150.536C996.9 151.669 995.999 152.738 995.997 152.912C995.995 153.085 995.151 153.789 994.122 154.476C991.858 155.988 991.276 156.432 989.851 157.728C988.547 158.915 983.692 161.476 982.745 161.476C982.381 161.476 982.008 161.645 981.917 161.851C981.825 162.057 979.725 162.877 977.25 163.672C974.775 164.467 972.3 165.285 971.75 165.49C969.57 166.302 963.373 167.774 960.125 168.252C958.956 168.423 958 168.769 958 169.02C958 169.271 956.875 169.476 955.5 169.476C954.125 169.476 953 169.701 953 169.976C953 170.251 952.49 170.476 951.868 170.476C951.245 170.476 949.501 170.945 947.993 171.518C946.484 172.092 944.81 172.692 944.273 172.853C943.736 173.014 941.31 174.12 938.881 175.311C936.452 176.502 934.136 177.476 933.733 177.476C933.33 177.476 933 177.701 933 177.976C933 178.251 932.563 178.476 932.029 178.476C931.495 178.476 930.92 178.701 930.75 178.976C930.58 179.251 929.986 179.476 929.43 179.476C928.044 179.476 921.99 182.57 920.286 184.15C919.52 184.859 918.242 185.728 917.447 186.08C916.651 186.432 916 186.89 916 187.098C916 187.306 915.655 187.476 915.234 187.476C914.812 187.476 913.357 188.039 912 188.726C910.643 189.414 909.188 189.976 908.766 189.976C908.345 189.976 908 190.201 908 190.476C908 190.751 907.569 190.976 907.042 190.976C906.515 190.976 906.008 191.147 905.917 191.356C905.679 191.898 900.545 194.476 899.704 194.476C899.316 194.476 899 194.701 899 194.976C899 195.251 898.667 195.476 898.26 195.476C897.854 195.476 895.845 196.039 893.797 196.726C891.75 197.414 889.762 197.976 889.381 197.976C889 197.976 887.756 198.426 886.618 198.976C885.479 199.526 884.291 199.976 883.977 199.976C883.268 199.976 880.31 201.59 880.083 202.101C879.992 202.307 879.498 202.476 878.988 202.476C878.477 202.476 877.92 202.701 877.75 202.976C877.58 203.251 876.892 203.476 876.221 203.476C875.549 203.476 875 203.671 875 203.91C875 204.148 873.031 204.621 870.625 204.961C865.387 205.702 862.517 206.222 859.5 206.976C858.263 207.286 856.237 207.73 855 207.965C853.763 208.199 851.287 208.774 849.5 209.243C847.606 209.74 842.808 210.272 838 210.516C828.133 211.019 824.413 211.413 823.775 212.022C823.514 212.272 822.501 212.48 821.525 212.485C819.898 212.493 817.628 213.025 810 215.185C808.487 215.614 806.35 215.975 805.25 215.988C804.15 216.001 802.688 216.333 802 216.726C801.312 217.119 800.131 217.449 799.375 217.459C798.619 217.468 798 217.672 798 217.91C798 218.365 796.102 218.764 790.25 219.54C788.325 219.795 778.537 220.212 768.5 220.466C758.463 220.72 748.112 221.158 745.5 221.439C724.229 223.731 717.239 224.096 700.5 223.792C691.838 223.634 682.612 223.361 680 223.186C674.089 222.79 666.904 223.731 661.75 225.574C660.925 225.87 659.405 226.217 658.372 226.347C657.339 226.476 656.37 226.783 656.218 227.029C656.066 227.275 655.28 227.476 654.471 227.476C653.661 227.476 653 227.701 653 227.976C653 228.251 652.654 228.476 652.23 228.476C650.962 228.476 641.131 231.935 638.654 233.252C637.387 233.925 636.047 234.476 635.675 234.476C635.304 234.476 635 234.701 635 234.976C635 235.251 634.451 235.476 633.779 235.476C633.108 235.476 632.432 235.682 632.277 235.933C632.121 236.184 631.096 236.541 629.997 236.727C628.899 236.912 628 237.233 628 237.44C628 237.647 626.706 238.115 625.125 238.48C623.544 238.845 621.575 239.483 620.75 239.899C619.189 240.686 612.077 242.702 607.75 243.585C605.098 244.126 580.331 245.071 572.75 244.92C570.275 244.871 565.775 244.863 562.75 244.903C541.526 245.182 534.372 245.102 530.75 244.544C528.55 244.205 525.4 243.811 523.75 243.669C522.1 243.527 520.188 243.219 519.5 242.986C518.812 242.753 516 242.183 513.25 241.718C510.5 241.254 506.112 240.469 503.5 239.974C499.204 239.161 492.526 238.298 486.5 237.779C479.072 237.139 472 236.207 472 235.869C472 235.653 471.277 235.476 470.392 235.476C469.507 235.476 467.876 235.153 466.767 234.759C464.964 234.117 460.543 233.104 452.587 231.51C451.122 231.216 448.518 230.976 446.799 230.976C444.754 230.976 442.439 230.545 440.096 229.726C438.129 229.039 436.177 228.476 435.759 228.476C435.341 228.476 435 228.251 435 227.976C435 227.701 434.344 227.476 433.542 227.476C432.74 227.476 432.009 227.293 431.917 227.068C431.676 226.477 419.723 220.476 418.788 220.476C418.354 220.476 417.998 220.308 417.996 220.101C417.992 219.652 415.57 218.476 414.651 218.476C414.293 218.476 414 218.277 414 218.035C414 217.792 413.493 217.476 412.875 217.334C412.257 217.191 410.175 216.46 408.25 215.71C403.425 213.83 400.871 213.548 384.192 213.051C376.185 212.813 369.322 212.423 368.942 212.184C368.173 211.701 364.417 211.13 358 210.52C355.663 210.298 352.4 209.884 350.75 209.6C349.1 209.316 345.388 208.828 342.5 208.517C339.612 208.206 335.999 207.732 334.47 207.464C332.941 207.196 331.118 206.976 330.419 206.976C329.72 206.976 326.875 206.414 324.097 205.726C321.318 205.039 318.36 204.476 317.522 204.476C316.685 204.476 316 204.251 316 203.976C316 203.701 315.226 203.476 314.28 203.476C313.333 203.476 312.42 203.251 312.25 202.976C312.08 202.701 311.399 202.476 310.737 202.476C309.527 202.476 305.086 200.433 297.874 196.559C295.742 195.413 293.548 194.476 292.999 194.476C292.449 194.476 292 194.283 292 194.047C292 192.045 281.966 190.489 265.75 189.977C231.742 188.901 228.273 188.366 215.75 182.26C212.45 180.651 208.738 178.863 207.5 178.287C206.262 177.711 205.135 177.086 204.995 176.898C204.854 176.709 204.123 176.401 203.37 176.212C202.617 176.023 202 175.667 202 175.422C202 175.177 201.55 174.976 201 174.976C200.45 174.976 200 174.806 200 174.598C200 174.39 199.269 173.926 198.375 173.565C197.482 173.205 196.011 172.588 195.108 172.193C194.205 171.799 193.155 171.476 192.775 171.476C192.395 171.476 192.008 171.307 191.917 171.101C191.825 170.895 190.77 170.218 189.572 169.598C186.392 167.951 184.285 166.764 184 166.458C183.863 166.311 182.062 165.316 180 164.247C177.938 163.179 175.462 161.856 174.5 161.309C173.538 160.761 172.132 159.996 171.375 159.608C170.619 159.22 170 158.722 170 158.5C170 158.279 169.325 157.818 168.5 157.476C167.675 157.135 167 156.706 167 156.523C167 156.341 165.653 155.525 164.008 154.709C162.363 153.894 161.013 153.058 161.008 152.851C161.003 152.645 160.55 152.476 160 152.476C159.45 152.476 159 152.273 159 152.024C159 151.59 152.415 146.476 151.857 146.476C151.708 146.476 150.805 145.745 149.851 144.851C146.497 141.709 144.236 139.874 142.797 139.125C141.998 138.71 140.887 137.944 140.328 137.423C139.769 136.902 139.12 136.476 138.885 136.476C138.65 136.476 138.186 136.248 137.854 135.969C136.732 135.027 133.453 132.973 131.4 131.925C130.277 131.353 129.109 130.672 128.805 130.413C127.595 129.387 121.817 126.174 113.162 121.715C104.757 117.385 99.988 115.441 92.25 113.192C90.6 112.712 89.036 112.13 88.775 111.898C88.5135 111.666 87.814 111.476 87.22 111.476C86.6255 111.476 85.377 110.968 84.445 110.347C82.208 108.856 80.179 107.976 78.9765 107.976C78.4395 107.976 78 107.804 78 107.595C78 107.163 73.705 105.965 70.875 105.608C69.8435 105.478 69 105.193 69 104.974C69 104.756 68.044 104.455 66.875 104.306C64.2145 103.967 60.6955 103.259 56.5 102.22C49.8635 100.576 43.61 99.4215 38.75 98.9435C36 98.6725 31.6125 98.2375 29 97.9765C26.3875 97.7155 17.894 97.496 10.125 97.489H0V229.709V1185H562.75H1152V183.5C1152 85.1875 1152 0 1152 0C1151.79 0.013 1145.24 4.37202 1144 4.79802Z" fill="#0D202E"/>
<path d="M1000.67 396.362C1000.67 395.56 1000.44 394.774 999.994 394.1C999.574 393.509 998.98 393.057 998.291 392.802C998.797 392.479 999.236 392.063 999.582 391.578C1000.08 390.851 1000.37 390.009 1000.42 389.138C1000.43 389.98 1000.7 390.8 1001.18 391.495C1001.56 392.052 1002.08 392.505 1002.69 392.811C1002.27 393.137 1001.9 393.523 1001.6 393.958C1001.1 394.678 1000.78 395.501 1000.67 396.362Z" fill="#F8E324" fill-opacity="0.75"/>
<path d="M1097.61 409.632C1097.55 408.743 1097.19 407.901 1096.57 407.245C1095.95 406.619 1095.16 406.187 1094.29 406.005C1094.89 405.601 1095.42 405.093 1095.84 404.506C1096.4 403.675 1096.7 402.705 1096.7 401.712C1096.78 402.651 1097.19 403.532 1097.86 404.205C1098.42 404.76 1099.11 405.167 1099.87 405.385C1099.35 405.789 1098.9 406.257 1098.51 406.778C1097.96 407.639 1097.65 408.623 1097.61 409.632Z" fill="#F8E324" fill-opacity="0.75"/>
<path d="M1099.56 373.218C1099.59 372.538 1099.35 371.876 1098.89 371.367C1098.4 370.856 1097.78 370.49 1097.09 370.313C1097.61 370.051 1098.09 369.697 1098.49 369.268C1099.03 368.712 1099.37 368 1099.46 367.24C1099.46 367.956 1099.74 368.643 1100.23 369.17C1100.67 369.622 1101.22 369.961 1101.83 370.156C1101.39 370.422 1100.98 370.748 1100.63 371.122C1100.08 371.707 1099.71 372.435 1099.56 373.218Z" fill="#F8E324" fill-opacity="0.75"/>
<path d="M1022.04 392.002C1022.07 390.938 1021.74 389.897 1021.11 389.033C1020.51 388.217 1019.66 387.604 1018.68 387.279C1019.41 386.858 1020.04 386.299 1020.53 385.634C1021.23 384.69 1021.64 383.574 1021.72 382.414C1021.72 383.535 1022.1 384.622 1022.79 385.516C1023.34 386.234 1024.07 386.799 1024.91 387.153C1024.31 387.573 1023.79 388.084 1023.35 388.667C1022.63 389.653 1022.18 390.801 1022.04 392.002Z" fill="#F8E324" fill-opacity="0.75"/>
<path d="M1011.65 373.516C1011.68 372.885 1011.47 372.266 1011.07 371.771C1010.66 371.284 1010.1 370.934 1009.48 370.771C1009.93 370.525 1010.33 370.198 1010.66 369.806C1011.11 369.267 1011.39 368.607 1011.45 367.913C1011.46 368.574 1011.69 369.212 1012.12 369.722C1012.47 370.147 1012.94 370.475 1013.46 370.674C1012.96 370.997 1012.54 371.416 1012.21 371.907C1011.89 372.397 1011.67 372.948 1011.58 373.523L1011.65 373.516Z" fill="#F8E324" fill-opacity="0.75"/>
<path d="M1011.74 411.443C1011.76 410.543 1011.49 409.66 1010.97 408.922C1010.44 408.184 1009.69 407.629 1008.82 407.337C1009.59 406.882 1010.24 406.249 1010.7 405.494C1011.16 404.738 1011.43 403.884 1011.47 403.007C1011.48 403.987 1011.81 404.939 1012.4 405.727C1012.9 406.354 1013.56 406.836 1014.32 407.121C1013.8 407.494 1013.34 407.944 1012.95 408.455C1012.3 409.336 1011.88 410.365 1011.74 411.443Z" fill="#F8E324" fill-opacity="0.75"/>
<path d="M1133.69 386.66C1133.71 385.882 1133.46 385.122 1132.98 384.504C1132.51 383.902 1131.87 383.454 1131.13 383.22C1131.66 382.912 1132.13 382.509 1132.51 382.031C1133.06 381.356 1133.39 380.539 1133.47 379.683C1133.48 380.5 1133.76 381.291 1134.28 381.932C1134.7 382.454 1135.26 382.863 1135.89 383.121C1135.44 383.428 1135.03 383.798 1134.68 384.22C1134.14 384.938 1133.8 385.778 1133.69 386.66Z" fill="#F8E324" fill-opacity="0.75"/>
<path d="M1065.26 405.066C1065.25 404.422 1065.03 403.798 1064.63 403.283C1064.23 402.787 1063.67 402.432 1063.03 402.268C1063.48 402.006 1063.86 401.659 1064.17 401.249C1064.59 400.673 1064.83 399.987 1064.86 399.278C1064.88 399.958 1065.13 400.611 1065.57 401.142C1065.92 401.569 1066.38 401.897 1066.9 402.094C1066.54 402.36 1066.23 402.677 1065.96 403.036C1065.56 403.646 1065.32 404.344 1065.26 405.066Z" fill="#F8E324" fill-opacity="0.75"/>
<path d="M1122.5 368.866C1122.53 367.931 1122.24 367.014 1121.69 366.251C1121.16 365.542 1120.43 365.007 1119.58 364.716C1120.35 364.273 1120.99 363.656 1121.46 362.916C1121.93 362.176 1122.21 361.336 1122.27 360.47C1122.27 361.452 1122.6 362.405 1123.2 363.19C1123.67 363.822 1124.32 364.316 1125.06 364.618C1124.54 364.992 1124.07 365.442 1123.69 365.953C1123.06 366.815 1122.65 367.815 1122.5 368.866Z" fill="#F8E324" fill-opacity="0.75"/>
<path d="M978.348 390.244C978.376 389.313 978.092 388.4 977.538 387.643C977.017 386.907 976.276 386.345 975.415 386.036C976.182 385.593 976.829 384.976 977.298 384.236C977.767 383.496 978.044 382.656 978.106 381.79C978.109 382.669 978.374 383.527 978.87 384.258C979.365 384.99 980.069 385.564 980.895 385.909C980.371 386.283 979.909 386.733 979.525 387.244C978.874 388.129 978.469 389.163 978.348 390.244Z" fill="#F8E324" fill-opacity="0.75"/>
<path d="M1112.69 384.673C1112.69 384.026 1112.47 383.398 1112.06 382.889C1111.68 382.404 1111.15 382.047 1110.55 381.865C1110.99 381.602 1111.37 381.257 1111.67 380.848C1112.09 380.27 1112.34 379.585 1112.37 378.876C1112.4 379.556 1112.65 380.209 1113.08 380.739C1113.44 381.161 1113.9 381.488 1114.42 381.692C1114.06 381.958 1113.74 382.275 1113.48 382.633C1113.04 383.238 1112.77 383.939 1112.69 384.673Z" fill="#F8E324" fill-opacity="0.75"/>
<path d="M776.657 728.054C776.921 728.812 776.953 729.632 776.749 730.412C776.542 731.107 776.126 731.726 775.555 732.189C776.138 732.333 776.687 732.585 777.171 732.933C777.875 733.462 778.421 734.165 778.754 734.971C778.491 734.171 778.476 733.311 778.711 732.497C778.891 731.847 779.237 731.251 779.716 730.765C779.213 730.592 778.741 730.344 778.317 730.03C777.612 729.509 777.043 728.832 776.657 728.054Z" fill="#FFE680" fill-opacity="0.75"/>
<path d="M864.173 684.283C864.403 685.144 864.326 686.06 863.953 686.879C863.571 687.671 862.958 688.336 862.191 688.789C862.895 688.975 863.555 689.287 864.141 689.709C864.938 690.315 865.536 691.137 865.861 692.074C865.632 691.161 865.736 690.194 866.156 689.341C866.502 688.637 867.025 688.03 867.676 687.578C867.058 687.362 866.473 687.066 865.936 686.699C865.143 686.059 864.535 685.226 864.173 684.283Z" fill="#FFE680" fill-opacity="0.75"/>
<path d="M877.74 718.132C877.982 718.767 877.966 719.472 877.695 720.103C877.401 720.742 876.928 721.289 876.331 721.68C876.915 721.758 877.478 721.941 877.992 722.218C878.683 722.57 879.235 723.134 879.565 723.825C879.341 723.146 879.38 722.407 879.677 721.749C879.949 721.179 880.359 720.682 880.872 720.301C880.367 720.192 879.881 720.013 879.428 719.771C878.714 719.397 878.128 718.827 877.74 718.132Z" fill="#FFE680" fill-opacity="0.75"/>
<path d="M798.299 725.302C798.664 726.301 798.689 727.392 798.369 728.413C798.062 729.38 797.458 730.232 796.639 730.854C797.46 731.019 798.237 731.347 798.921 731.816C799.886 732.485 800.635 733.409 801.08 734.483C800.724 733.42 800.729 732.27 801.094 731.202C801.382 730.345 801.894 729.575 802.58 728.968C801.876 728.763 801.212 728.449 800.613 728.037C799.613 727.336 798.817 726.394 798.299 725.302Z" fill="#FFE680" fill-opacity="0.75"/>
<path d="M794.411 746.149C794.642 746.737 794.647 747.389 794.428 747.986C794.194 748.58 793.777 749.091 793.236 749.447C793.744 749.534 794.229 749.715 794.665 749.981C795.268 750.345 795.741 750.881 796.023 751.518C795.817 750.89 795.836 750.21 796.077 749.59C796.275 749.073 796.606 748.614 797.038 748.257C796.462 748.112 795.925 747.851 795.46 747.491C794.996 747.131 794.614 746.68 794.339 746.166L794.411 746.149Z" fill="#FFE680" fill-opacity="0.75"/>
<path d="M782.29 710.21C782.601 711.056 782.628 711.979 782.368 712.846C782.109 713.714 781.575 714.482 780.844 715.039C781.722 715.221 782.537 715.612 783.219 716.179C783.9 716.745 784.426 717.468 784.75 718.285C784.444 717.353 784.444 716.348 784.752 715.411C785.021 714.657 785.496 713.987 786.123 713.473C785.506 713.288 784.924 713.01 784.396 712.65C783.492 712.027 782.767 711.187 782.29 710.21Z" fill="#FFE680" fill-opacity="0.75"/>
<path d="M905.722 694.42C905.995 695.149 906.004 695.95 905.747 696.69C905.497 697.41 905.03 698.042 904.407 698.5C905.012 698.62 905.587 698.851 906.101 699.181C906.837 699.644 907.415 700.31 907.762 701.096C907.504 700.321 907.517 699.481 907.801 698.708C908.038 698.075 908.432 697.509 908.949 697.062C908.417 696.918 907.911 696.699 907.446 696.411C906.705 695.905 906.111 695.219 905.722 694.42Z" fill="#FFE680" fill-opacity="0.75"/>
<path d="M835.011 699.021C835.208 699.635 835.202 700.296 834.993 700.911C834.765 701.512 834.349 702.028 833.805 702.387C834.309 702.492 834.785 702.696 835.204 702.987C835.792 703.396 836.241 703.968 836.494 704.63C836.299 703.978 836.323 703.28 836.564 702.638C836.761 702.12 837.092 701.661 837.525 701.305C837.098 701.17 836.695 700.972 836.329 700.718C835.751 700.269 835.298 699.686 835.011 699.021Z" fill="#FFE680" fill-opacity="0.75"/>
<path d="M900.862 714.867C901.186 715.745 901.211 716.704 900.936 717.604C900.662 718.446 900.136 719.19 899.427 719.739C900.296 719.911 901.107 720.287 901.789 720.837C902.471 721.386 903.004 722.092 903.342 722.892C903.027 721.962 903.027 720.955 903.343 720.018C903.592 719.266 904.044 718.592 904.65 718.066C904.033 717.881 903.45 717.603 902.923 717.243C902.044 716.632 901.336 715.816 900.862 714.867Z" fill="#FFE680" fill-opacity="0.75"/>
<path d="M757.497 741.031C757.823 741.904 757.848 742.86 757.567 743.754C757.311 744.619 756.79 745.389 756.074 745.96C756.943 746.131 757.754 746.508 758.436 747.058C759.119 747.607 759.652 748.313 759.989 749.113C759.709 748.28 759.684 747.382 759.917 746.53C760.151 745.678 760.633 744.908 761.304 744.315C760.687 744.13 760.105 743.852 759.577 743.492C758.676 742.864 757.959 742.016 757.497 741.031Z" fill="#FFE680" fill-opacity="0.75"/>
<path d="M886.479 703.062C886.687 703.674 886.681 704.339 886.461 704.952C886.254 705.534 885.87 706.042 885.36 706.408C885.859 706.515 886.33 706.721 886.745 707.011C887.333 707.422 887.786 707.991 888.049 708.651C887.854 707.999 887.879 707.301 888.119 706.659C888.322 706.144 888.653 705.686 889.08 705.326C888.653 705.191 888.25 704.992 887.884 704.738C887.277 704.306 886.794 703.729 886.479 703.062Z" fill="#FFE680" fill-opacity="0.75"/>
<path d="M722.976 636.189C722.949 636.941 722.699 637.668 722.256 638.281C721.839 638.818 721.264 639.218 720.608 639.428C721.07 639.752 721.463 640.159 721.768 640.627C722.203 641.328 722.441 642.128 722.458 642.946C722.501 642.158 722.78 641.4 723.261 640.769C723.64 640.262 724.145 639.859 724.728 639.597C724.347 639.275 724.019 638.898 723.755 638.48C723.316 637.785 723.049 637.001 722.976 636.189Z" fill="#FFE680" fill-opacity="0.75"/>
<path d="M814.316 627.672C814.224 628.503 813.846 629.277 813.242 629.866C812.639 630.428 811.877 630.8 811.054 630.936C811.605 631.338 812.076 631.835 812.444 632.402C812.935 633.203 813.179 634.124 813.144 635.053C813.254 634.177 813.674 633.368 814.331 632.765C814.871 632.268 815.535 631.915 816.258 631.741C815.791 631.342 815.38 630.885 815.036 630.382C814.56 629.553 814.312 628.619 814.316 627.672Z" fill="#FFE680" fill-opacity="0.75"/>
<path d="M814.671 661.857C814.667 662.495 814.414 663.106 813.963 663.564C813.488 664.023 812.889 664.34 812.235 664.479C812.718 664.745 813.148 665.096 813.503 665.514C813.987 666.056 814.278 666.737 814.332 667.452C814.366 666.782 814.652 666.15 815.135 665.676C815.566 665.27 816.094 664.975 816.671 664.817C816.267 664.55 815.903 664.229 815.589 663.863C815.093 663.293 814.774 662.597 814.671 661.857Z" fill="#FFE680" fill-opacity="0.75"/>
<path d="M742.822 641.136C742.802 642.133 742.452 643.095 741.826 643.879C741.23 644.619 740.412 645.159 739.486 645.424C740.147 645.847 740.714 646.397 741.152 647.04C741.769 647.952 742.109 649.014 742.133 650.103C742.183 649.054 742.578 648.05 743.259 647.241C743.802 646.59 744.512 646.091 745.317 645.794C744.772 645.376 744.298 644.876 743.914 644.312C743.28 643.36 742.904 642.266 742.822 641.136Z" fill="#FFE680" fill-opacity="0.75"/>
<path d="M732.343 658.031C732.344 658.623 732.128 659.195 731.733 659.642C731.327 660.082 730.789 660.387 730.195 660.514C730.61 660.763 730.972 661.086 731.263 661.466C731.666 661.989 731.897 662.618 731.927 663.271C731.96 662.652 732.208 662.064 732.63 661.604C732.978 661.22 733.423 660.931 733.922 660.766C733.468 660.444 733.087 660.033 732.803 659.561C732.52 659.088 732.339 658.564 732.274 658.021L732.343 658.031Z" fill="#FFE680" fill-opacity="0.75"/>
<path d="M733.959 622.511C733.943 623.355 733.654 624.171 733.132 624.841C732.61 625.511 731.883 626 731.055 626.239C731.76 626.696 732.34 627.315 732.743 628.041C733.146 628.767 733.36 629.578 733.366 630.402C733.414 629.484 733.756 628.606 734.343 627.891C734.835 627.324 735.477 626.899 736.2 626.664C735.724 626.293 735.309 625.852 734.97 625.358C734.392 624.506 734.044 623.527 733.959 622.511Z" fill="#FFE680" fill-opacity="0.75"/>
<path d="M847.178 650.645C847.169 651.374 846.905 652.076 846.43 652.636C845.967 653.181 845.344 653.574 844.644 653.763C845.131 654.073 845.555 654.47 845.892 654.933C846.378 655.588 846.657 656.366 846.693 657.171C846.731 656.406 847.028 655.676 847.538 655.097C847.96 654.625 848.497 654.264 849.101 654.049C848.685 653.743 848.317 653.379 848.009 652.97C847.533 652.276 847.247 651.475 847.178 650.645Z" fill="#FFE680" fill-opacity="0.75"/>
<path d="M783.827 630.643C783.79 631.246 783.561 631.822 783.17 632.288C782.767 632.736 782.227 633.046 781.63 633.174C782.035 633.438 782.381 633.778 782.648 634.174C783.023 634.731 783.222 635.383 783.218 636.048C783.269 635.412 783.527 634.81 783.956 634.331C784.303 633.945 784.749 633.656 785.248 633.493C784.921 633.229 784.636 632.919 784.402 632.573C784.05 631.985 783.852 631.322 783.827 630.643Z" fill="#FFE680" fill-opacity="0.75"/>
<path d="M835.984 666.859C835.969 667.736 835.665 668.583 835.119 669.276C834.594 669.918 833.881 670.389 833.075 670.628C833.776 671.074 834.357 671.678 834.766 672.39C835.176 673.102 835.402 673.9 835.424 674.714C835.465 673.794 835.808 672.914 836.402 672.203C836.875 671.63 837.499 671.194 838.207 670.941C837.731 670.57 837.316 670.129 836.978 669.635C836.417 668.803 836.076 667.849 835.984 666.859Z" fill="#FFE680" fill-opacity="0.75"/>
<path d="M701.825 641.019C701.814 641.893 701.511 642.736 700.962 643.422C700.444 644.091 699.727 644.587 698.908 644.842C699.609 645.288 700.19 645.892 700.599 646.604C701.009 647.316 701.235 648.114 701.258 648.928C701.296 648.105 701.579 647.312 702.072 646.646C702.566 645.981 703.249 645.472 704.037 645.182C703.561 644.811 703.146 644.37 702.807 643.876C702.233 643.021 701.895 642.037 701.825 641.019Z" fill="#FFE680" fill-opacity="0.75"/>
<path d="M827.427 651.659C827.402 652.264 827.171 652.843 826.77 653.304C826.391 653.742 825.883 654.056 825.314 654.202C825.713 654.466 826.055 654.805 826.318 655.199C826.693 655.758 826.896 656.41 826.901 657.076C826.952 656.44 827.211 655.838 827.639 655.359C827.991 654.978 828.435 654.69 828.932 654.521C828.604 654.257 828.319 653.947 828.086 653.601C827.703 653.017 827.476 652.349 827.427 651.659Z" fill="#FFE680" fill-opacity="0.75"/>
<path d="M53.5398 302.404C53.4459 303.202 53.1166 303.952 52.5921 304.566C52.1023 305.1 51.457 305.475 50.7412 305.641C51.2035 306.026 51.5868 306.493 51.87 307.017C52.2716 307.8 52.4552 308.672 52.4021 309.542C52.5156 308.708 52.8783 307.927 53.4451 307.298C53.8913 306.792 54.4631 306.407 55.1066 306.179C54.7294 305.804 54.4131 305.375 54.169 304.907C53.7627 304.13 53.5472 303.273 53.5398 302.404Z" fill="#F0D97B" fill-opacity="0.75"/>
<path d="M151.386 301.291C151.217 302.166 150.747 302.956 150.053 303.53C149.364 304.075 148.522 304.405 147.634 304.477C148.185 304.952 148.643 305.522 148.985 306.157C149.438 307.05 149.616 308.051 149.499 309.036C149.692 308.115 150.208 307.291 150.959 306.707C151.577 306.225 152.313 305.908 153.097 305.786C152.635 305.321 152.238 304.799 151.916 304.234C151.482 303.312 151.299 302.298 151.386 301.291Z" fill="#F0D97B" fill-opacity="0.75"/>
<path d="M148.791 337.665C148.732 338.342 148.409 338.97 147.89 339.418C147.346 339.865 146.681 340.15 145.974 340.24C146.465 340.566 146.891 340.976 147.232 341.45C147.7 342.069 147.95 342.818 147.944 343.583C148.039 342.874 148.398 342.227 148.953 341.764C149.446 341.371 150.033 341.103 150.66 340.985C150.254 340.666 149.895 340.293 149.593 339.877C149.115 339.228 148.836 338.46 148.791 337.665Z" fill="#F0D97B" fill-opacity="0.75"/>
<path d="M74.2086 309.389C74.1003 310.447 73.6452 311.439 72.911 312.218C72.2132 312.953 71.297 313.456 70.2888 313.657C70.955 314.165 71.51 314.799 71.9201 315.52C72.4965 316.543 72.7657 317.702 72.6965 318.862C72.8409 317.751 73.348 316.718 74.1427 315.917C74.7766 315.273 75.5743 314.804 76.456 314.558C75.9127 314.066 75.4527 313.493 75.0936 312.86C74.5015 311.793 74.1969 310.598 74.2086 309.389Z" fill="#F0D97B" fill-opacity="0.75"/>
<path d="M61.5995 326.439C61.5493 327.069 61.2696 327.658 60.8111 328.099C60.3407 328.531 59.7429 328.809 59.1005 328.893C59.5191 329.193 59.8763 329.567 60.1527 329.997C60.5353 330.588 60.7267 331.277 60.7017 331.973C60.791 331.319 61.1054 330.715 61.5935 330.262C61.9975 329.884 62.496 329.616 63.0404 329.484C62.5859 329.102 62.2166 328.633 61.9559 328.106C61.6953 327.579 61.5491 327.006 61.5266 326.423L61.5995 326.439Z" fill="#F0D97B" fill-opacity="0.75"/>
<path d="M66.4058 288.818C66.3158 289.714 65.937 290.556 65.3241 291.223C64.7111 291.89 63.8956 292.347 62.9948 292.529C63.7045 293.076 64.267 293.784 64.6324 294.591C64.9977 295.398 65.1546 296.279 65.0891 297.155C65.2206 296.184 65.6603 295.28 66.3467 294.571C66.919 294.011 67.6383 293.615 68.4273 293.427C67.9535 292.992 67.5509 292.487 67.2336 291.933C66.6931 290.977 66.4082 289.905 66.4058 288.818Z" fill="#F0D97B" fill-opacity="0.75"/>
<path d="M184.323 328.57C184.25 329.345 183.909 330.069 183.355 330.622C182.815 331.161 182.118 331.525 181.358 331.665C181.849 332.037 182.265 332.496 182.584 333.018C183.043 333.756 183.272 334.607 183.24 335.466C183.347 334.656 183.727 333.906 184.319 333.335C184.809 332.87 185.411 332.533 186.072 332.356C185.656 331.995 185.297 331.576 185.004 331.114C184.559 330.335 184.325 329.459 184.323 328.57Z" fill="#F0D97B" fill-opacity="0.75"/>
<path d="M118.714 301.799C118.623 302.437 118.329 303.029 117.873 303.491C117.405 303.932 116.805 304.215 116.159 304.299C116.566 304.614 116.905 305.006 117.155 305.45C117.505 306.075 117.659 306.786 117.597 307.492C117.706 306.821 118.033 306.203 118.531 305.731C118.933 305.351 119.432 305.083 119.978 304.953C119.652 304.644 119.376 304.289 119.158 303.901C118.835 303.245 118.683 302.523 118.714 301.799Z" fill="#F0D97B" fill-opacity="0.75"/>
<path d="M171.015 344.836C170.922 345.767 170.526 346.641 169.885 347.33C169.271 347.967 168.473 348.406 167.595 348.59C168.301 349.124 168.866 349.818 169.239 350.61C169.613 351.402 169.784 352.27 169.737 353.137C169.861 352.163 170.302 351.257 170.995 350.553C171.548 349.986 172.249 349.576 173.024 349.368C172.55 348.932 172.147 348.428 171.83 347.873C171.307 346.94 171.027 345.896 171.015 344.836Z" fill="#F0D97B" fill-opacity="0.75"/>
<path d="M30.6344 305.701C30.5466 306.628 30.151 307.499 29.5077 308.18C28.8991 308.846 28.0938 309.311 27.2008 309.511C27.9076 310.046 28.4722 310.739 28.8456 311.532C29.219 312.324 29.39 313.192 29.3436 314.059C29.4555 313.187 29.8254 312.369 30.408 311.704C30.9906 311.04 31.7605 310.558 32.6235 310.318C32.1497 309.882 31.747 309.378 31.4297 308.823C30.8942 307.864 30.6201 306.788 30.6344 305.701Z" fill="#F0D97B" fill-opacity="0.75"/>
<path d="M163.239 327.931C163.159 328.573 162.863 329.168 162.397 329.623C161.956 330.056 161.388 330.345 160.771 330.451C161.172 330.766 161.506 331.157 161.752 331.599C162.102 332.226 162.261 332.936 162.209 333.644C162.318 332.973 162.645 332.355 163.142 331.883C163.55 331.509 164.047 331.241 164.589 331.104C164.264 330.796 163.988 330.441 163.77 330.053C163.413 329.399 163.231 328.669 163.239 327.931Z" fill="#F0D97B" fill-opacity="0.75"/>
<path d="M33.1255 526.645C33.2095 527.443 33.0538 528.248 32.6773 528.962C32.3172 529.591 31.7704 530.099 31.1089 530.419C31.6445 530.692 32.1213 531.063 32.513 531.512C33.0774 532.188 33.4485 532.997 33.5885 533.858C33.5153 533.019 33.6972 532.178 34.1113 531.439C34.4351 530.848 34.9081 530.346 35.4856 529.982C35.035 529.699 34.6319 529.35 34.2906 528.947C33.7231 528.279 33.3241 527.491 33.1255 526.645Z" fill="#F8E324" fill-opacity="0.75"/>
<path d="M128.322 504C128.35 504.891 128.065 505.765 127.515 506.477C126.963 507.161 126.214 507.668 125.364 507.934C126.006 508.277 126.578 508.731 127.052 509.275C127.691 510.047 128.085 510.984 128.187 511.971C128.173 511.029 128.495 510.112 129.099 509.377C129.595 508.771 130.244 508.299 130.981 508.007C130.428 507.656 129.926 507.234 129.487 506.754C128.861 505.95 128.459 505.001 128.322 504Z" fill="#F8E324" fill-opacity="0.75"/>
<path d="M133.805 540.051C133.897 540.726 133.72 541.409 133.312 541.96C132.88 542.516 132.295 542.94 131.625 543.184C132.175 543.394 132.681 543.7 133.118 544.088C133.711 544.588 134.12 545.263 134.283 546.011C134.22 545.299 134.427 544.588 134.866 544.015C135.261 543.522 135.774 543.132 136.36 542.878C135.893 542.657 135.461 542.372 135.075 542.033C134.465 541.505 134.025 540.817 133.805 540.051Z" fill="#F8E324" fill-opacity="0.75"/>
<path d="M54.8253 528.904C54.9529 529.96 54.7276 531.028 54.183 531.949C53.6643 532.82 52.8815 533.513 51.9424 533.931C52.704 534.279 53.3851 534.775 53.944 535.388C54.7317 536.259 55.2497 537.331 55.4378 538.478C55.3338 537.362 55.6009 536.243 56.1996 535.286C56.6758 534.518 57.3506 533.885 58.1564 533.45C57.5181 533.09 56.9431 532.633 56.4535 532.095C55.6407 531.184 55.0803 530.086 54.8253 528.904Z" fill="#F8E324" fill-opacity="0.75"/>
<path d="M46.2828 548.314C46.3726 548.939 46.2295 549.575 45.8795 550.106C45.5158 550.631 44.9939 551.034 44.3857 551.257C44.8602 551.458 45.2912 551.744 45.6554 552.102C46.159 552.595 46.4975 553.225 46.6264 553.909C46.5692 553.251 46.743 552.593 47.1193 552.044C47.4301 551.586 47.8573 551.215 48.3591 550.966C47.8316 550.693 47.368 550.317 46.9977 549.86C46.6273 549.404 46.3585 548.877 46.2081 548.314H46.2828Z" fill="#F8E324" fill-opacity="0.75"/>
<path d="M42.6819 510.557C42.7915 511.451 42.6076 512.356 42.1566 513.142C41.7057 513.927 41.011 514.553 40.1724 514.929C40.9852 515.306 41.69 515.873 42.2241 516.58C42.7583 517.287 43.1054 518.111 43.2346 518.98C43.1487 518.003 43.3785 517.025 43.8918 516.182C44.3266 515.51 44.9412 514.966 45.6694 514.609C45.1112 514.288 44.6073 513.885 44.1756 513.414C43.4378 512.6 42.9238 511.618 42.6819 510.557Z" fill="#F8E324" fill-opacity="0.75"/>
<path d="M166.461 523.351C166.56 524.123 166.386 524.905 165.968 525.566C165.56 526.211 164.961 526.719 164.25 527.024C164.811 527.278 165.318 527.634 165.744 528.073C166.355 528.692 166.765 529.472 166.924 530.317C166.849 529.503 167.054 528.688 167.506 528C167.882 527.438 168.395 526.977 169 526.659C168.515 526.398 168.073 526.069 167.686 525.683C167.08 525.021 166.658 524.218 166.461 523.351Z" fill="#F8E324" fill-opacity="0.75"/>
<path d="M96.5654 511.694C96.6171 512.337 96.4603 512.979 96.1173 513.53C95.7582 514.063 95.2353 514.471 94.6235 514.696C95.09 514.914 95.5067 515.221 95.8484 515.599C96.3277 516.132 96.6344 516.791 96.7297 517.494C96.6883 516.815 96.8716 516.14 97.2525 515.57C97.5617 515.111 97.9893 514.739 98.4924 514.492C98.1071 514.263 97.7596 513.978 97.4617 513.647C97.0017 513.078 96.6938 512.407 96.5654 511.694Z" fill="#F8E324" fill-opacity="0.75"/>
<path d="M157.063 542.15C157.178 543.078 156.984 544.018 156.511 544.831C156.052 545.588 155.37 546.192 154.554 546.565C155.361 546.931 156.064 547.483 156.603 548.173C157.142 548.864 157.5 549.673 157.646 550.529C157.552 549.552 157.782 548.571 158.303 547.731C158.717 547.056 159.311 546.502 160.021 546.128C159.463 545.807 158.959 545.404 158.527 544.933C157.811 544.138 157.308 543.181 157.063 542.15Z" fill="#F8E324" fill-opacity="0.75"/>
<path d="M11.5095 534.907C11.6283 535.831 11.4342 536.768 10.9568 537.574C10.51 538.358 9.82684 538.989 9 539.381C9.80711 539.746 10.5106 540.298 11.0495 540.989C11.5883 541.68 11.9462 542.488 12.0921 543.345C12.0092 542.47 12.1897 541.59 12.6115 540.813C13.0334 540.037 13.6783 539.397 14.4671 538.973C13.909 538.652 13.4051 538.249 12.9734 537.778C12.2396 536.96 11.7353 535.971 11.5095 534.907Z" fill="#F8E324" fill-opacity="0.75"/>
<path d="M145.753 527.374C145.817 528.017 145.659 528.663 145.305 529.21C144.97 529.729 144.48 530.136 143.901 530.376C144.362 530.595 144.774 530.902 145.111 531.279C145.59 531.813 145.902 532.471 146.007 533.174C145.966 532.494 146.149 531.82 146.53 531.25C146.845 530.795 147.271 530.425 147.77 530.172C147.384 529.942 147.037 529.657 146.739 529.327C146.247 528.767 145.908 528.095 145.753 527.374Z" fill="#F8E324" fill-opacity="0.75"/>
<path d="M69.4048 377C69.4291 377.78 69.1802 378.544 68.699 379.168C68.2158 379.766 67.5604 380.21 66.8169 380.443C67.3787 380.742 67.8793 381.14 68.2939 381.616C68.8525 382.291 69.1976 383.111 69.2872 383.975C69.2744 383.151 69.5564 382.348 70.0845 381.705C70.5192 381.174 71.0862 380.762 71.7313 380.506C71.2479 380.199 70.8084 379.83 70.4243 379.41C69.8762 378.706 69.5249 377.876 69.4048 377Z" fill="#F8E324" fill-opacity="0.75"/>
<path d="M74.2047 408.545C74.2845 409.135 74.1302 409.732 73.7733 410.215C73.3948 410.701 72.8827 411.073 72.2964 411.286C72.778 411.469 73.221 411.737 73.6034 412.077C74.122 412.514 74.48 413.105 74.6229 413.76C74.5673 413.136 74.7487 412.514 75.1326 412.013C75.4783 411.582 75.9271 411.24 76.4397 411.018C76.0313 410.824 75.653 410.575 75.3156 410.279C74.7822 409.817 74.3965 409.215 74.2047 408.545Z" fill="#F8E324" fill-opacity="0.75"/>
<path d="M5.0963 398.791C5.20789 399.715 5.01078 400.649 4.53428 401.456C4.08043 402.218 3.39543 402.823 2.57373 403.19C3.24017 403.494 3.83607 403.928 4.32516 404.465C5.01436 405.227 5.46761 406.164 5.63219 407.168C5.54119 406.191 5.77492 405.212 6.29877 404.375C6.71549 403.703 7.30592 403.149 8.01099 402.769C7.45245 402.454 6.94937 402.054 6.52097 401.583C5.80979 400.786 5.31937 399.825 5.0963 398.791Z" fill="#F8E324" fill-opacity="0.75"/>
<path d="M102.778 393.933C102.865 394.608 102.712 395.292 102.346 395.871C101.99 396.435 101.465 396.879 100.843 397.146C101.334 397.369 101.778 397.68 102.15 398.064C102.685 398.605 103.044 399.288 103.183 400.027C103.118 399.315 103.297 398.602 103.693 398C104.021 397.509 104.47 397.105 105 396.827C104.575 396.599 104.188 396.311 103.849 395.973C103.319 395.393 102.95 394.691 102.778 393.933Z" fill="#F8E324" fill-opacity="0.75"/>
<path d="M41.6191 383.732C41.6643 384.295 41.5271 384.857 41.227 385.339C40.9128 385.805 40.4552 386.162 39.9199 386.359C40.3281 386.55 40.6927 386.818 40.9917 387.15C41.411 387.616 41.6794 388.192 41.7628 388.807C41.7266 388.213 41.887 387.623 42.2203 387.124C42.4908 386.722 42.865 386.397 43.3051 386.181C42.9681 385.98 42.664 385.73 42.4033 385.441C42.0009 384.944 41.7314 384.357 41.6191 383.732Z" fill="#F8E324" fill-opacity="0.75"/>
<path d="M94.5537 410.381C94.6539 411.194 94.4844 412.016 94.0701 412.727C93.6688 413.39 93.0721 413.918 92.3579 414.245C93.0641 414.564 93.6797 415.047 94.1512 415.652C94.6227 416.256 94.9358 416.964 95.0635 417.713C94.981 416.858 95.1827 415.999 95.6386 415.265C96.001 414.674 96.5203 414.189 97.1417 413.862C96.6533 413.582 96.2124 413.229 95.8346 412.817C95.2081 412.12 94.768 411.284 94.5537 410.381Z" fill="#F8E324" fill-opacity="0.75"/>
<path d="M84.6578 397.452C84.7134 398.015 84.5755 398.581 84.2657 399.059C83.9727 399.513 83.5439 399.869 83.0371 400.079C83.4408 400.27 83.8008 400.539 84.0958 400.869C84.5154 401.337 84.7877 401.912 84.88 402.527C84.8438 401.933 85.0042 401.343 85.3375 400.844C85.6129 400.446 85.9858 400.122 86.4223 399.9C86.0852 399.7 85.7812 399.45 85.5205 399.161C85.0899 398.671 84.7931 398.084 84.6578 397.452Z" fill="#F8E324" fill-opacity="0.75"/>
<path d="M278.736 563.651C278.317 564.336 277.704 564.88 276.971 565.217C276.302 565.497 275.559 565.567 274.839 565.419C275.098 565.961 275.251 566.546 275.288 567.14C275.325 568.02 275.127 568.888 274.714 569.657C275.166 568.946 275.823 568.389 276.601 568.055C277.218 567.783 277.898 567.673 278.578 567.735C278.393 567.237 278.285 566.715 278.26 566.187C278.216 565.312 278.379 564.443 278.736 563.651Z" fill="#F8E324" fill-opacity="0.75"/>
<path d="M368.054 603.618C367.534 604.343 366.776 604.863 365.906 605.093C365.052 605.3 364.149 605.247 363.313 604.94C363.614 605.603 363.791 606.312 363.836 607.031C363.873 608.033 363.616 609.016 363.096 609.861C363.658 609.105 364.471 608.574 365.398 608.358C366.161 608.179 366.962 608.199 367.725 608.416C367.5 607.801 367.358 607.161 367.302 606.513C367.295 605.494 367.554 604.496 368.054 603.618Z" fill="#F8E324" fill-opacity="0.75"/>
<path d="M350.465 635.562C350.127 636.153 349.571 636.587 348.912 636.777C348.231 636.954 347.508 636.935 346.828 636.721C347.137 637.222 347.352 637.773 347.463 638.347C347.629 639.104 347.542 639.889 347.217 640.582C347.6 639.978 348.197 639.54 348.894 639.352C349.507 639.202 350.152 639.205 350.771 639.36C350.536 638.9 350.366 638.411 350.266 637.907C350.104 637.117 350.173 636.303 350.465 635.562Z" fill="#F8E324" fill-opacity="0.75"/>
<path d="M294.58 578.65C294.038 579.565 293.209 580.276 292.216 580.675C291.275 581.051 290.232 581.124 289.232 580.884C289.625 581.624 289.863 582.432 289.934 583.259C290.029 584.429 289.788 585.595 289.239 586.619C289.836 585.67 290.729 584.945 291.786 584.551C292.631 584.231 293.552 584.139 294.456 584.285C294.168 583.611 293.991 582.898 293.929 582.173C293.839 580.955 294.063 579.743 294.58 578.65Z" fill="#F8E324" fill-opacity="0.75"/>
<path d="M275.989 588.852C275.679 589.403 275.179 589.821 274.578 590.029C273.97 590.225 273.311 590.226 272.692 590.033C272.947 590.481 273.114 590.971 273.185 591.477C273.285 592.174 273.17 592.88 272.856 593.501C273.211 592.944 273.749 592.528 274.382 592.321C274.907 592.147 275.472 592.112 276.022 592.22C275.769 591.683 275.631 591.102 275.615 590.515C275.599 589.927 275.706 589.345 275.929 588.807L275.989 588.852Z" fill="#F8E324" fill-opacity="0.75"/>
<path d="M296.11 556.702C295.653 557.478 294.956 558.084 294.12 558.433C293.284 558.782 292.352 558.856 291.458 558.643C291.874 559.437 292.088 560.316 292.081 561.202C292.075 562.088 291.849 562.953 291.422 563.722C291.949 562.894 292.727 562.258 293.647 561.901C294.401 561.632 295.22 561.575 296.015 561.735C295.767 561.14 295.613 560.514 295.557 559.877C295.466 558.783 295.657 557.69 296.11 556.702Z" fill="#F8E324" fill-opacity="0.75"/>
<path d="M386.539 642.185C386.149 642.857 385.535 643.372 384.8 643.642C384.084 643.906 383.3 643.944 382.55 643.753C382.841 644.297 383.026 644.888 383.097 645.495C383.205 646.357 383.056 647.226 382.668 647.993C383.104 647.302 383.763 646.78 384.54 646.509C385.18 646.292 385.868 646.239 386.541 646.355C386.315 645.853 386.164 645.322 386.092 644.78C386.014 643.886 386.168 642.992 386.539 642.185Z" fill="#F8E324" fill-opacity="0.75"/>
<path d="M338.174 590.397C337.823 590.938 337.308 591.353 336.701 591.581C336.091 591.785 335.428 591.791 334.806 591.597C335.044 592.054 335.187 592.551 335.228 593.059C335.284 593.774 335.126 594.483 334.774 595.099C335.155 594.535 335.711 594.111 336.36 593.891C336.885 593.715 337.45 593.68 338 593.79C337.834 593.373 337.732 592.936 337.696 592.492C337.677 591.761 337.841 591.041 338.174 590.397Z" fill="#F8E324" fill-opacity="0.75"/>
<path d="M367.642 651.382C367.168 652.188 366.442 652.816 365.572 653.173C364.747 653.494 363.838 653.559 362.964 653.358C363.382 654.139 363.604 655.005 363.611 655.881C363.618 656.757 363.41 657.616 363.005 658.385C363.525 657.552 364.305 656.914 365.229 656.565C365.969 656.281 366.777 656.203 367.568 656.338C367.32 655.744 367.166 655.118 367.11 654.481C367.026 653.414 367.209 652.349 367.642 651.382Z" fill="#F8E324" fill-opacity="0.75"/>
<path d="M256.556 557.052C256.088 557.857 255.364 558.482 254.494 558.831C253.663 559.181 252.737 559.266 251.842 559.074C252.26 559.855 252.482 560.721 252.489 561.597C252.497 562.473 252.288 563.333 251.883 564.101C252.35 563.356 253.028 562.768 253.836 562.409C254.643 562.049 255.544 561.934 256.428 562.078C256.18 561.483 256.026 560.857 255.97 560.22C255.886 559.125 256.087 558.033 256.556 557.052Z" fill="#F8E324" fill-opacity="0.75"/>
<path d="M367.66 632.774C367.319 633.323 366.801 633.74 366.187 633.958C365.605 634.166 364.969 634.191 364.364 634.029C364.596 634.483 364.736 634.977 364.774 635.482C364.829 636.197 364.676 636.909 364.332 637.53C364.713 636.966 365.268 636.543 365.917 636.322C366.444 636.153 367.008 636.118 367.558 636.221C367.391 635.805 367.289 635.367 367.254 634.923C367.204 634.18 367.344 633.44 367.66 632.774Z" fill="#F8E324" fill-opacity="0.75"/>
<path d="M218.543 484.573C218.378 485.359 217.982 486.077 217.404 486.64C216.868 487.128 216.192 487.443 215.464 487.544C215.89 487.969 216.229 488.468 216.464 489.016C216.793 489.833 216.897 490.717 216.766 491.579C216.954 490.758 217.386 490.014 218.007 489.438C218.497 488.975 219.101 488.643 219.763 488.474C219.421 488.067 219.145 487.611 218.944 487.122C218.609 486.312 218.472 485.439 218.543 484.573Z" fill="#F8E324" fill-opacity="0.75"/>
<path d="M316.09 492.302C315.843 493.159 315.303 493.903 314.561 494.411C313.825 494.892 312.956 495.145 312.066 495.136C312.572 495.66 312.976 496.268 313.26 496.931C313.63 497.862 313.717 498.875 313.511 499.846C313.787 498.945 314.375 498.171 315.176 497.658C315.835 497.233 316.596 496.984 317.388 496.933C316.97 496.429 316.622 495.873 316.352 495.281C316.003 494.323 315.913 493.297 316.09 492.302Z" fill="#F8E324" fill-opacity="0.75"/>
<path d="M310.221 528.293C310.1 528.963 309.722 529.558 309.165 529.958C308.582 530.353 307.895 530.577 307.182 530.603C307.641 530.972 308.029 531.419 308.325 531.922C308.736 532.581 308.917 533.349 308.843 534.111C309.001 533.413 309.417 532.801 310.011 532.39C310.538 532.043 311.146 531.83 311.782 531.768C311.406 531.414 311.082 531.01 310.819 530.569C310.402 529.879 310.194 529.089 310.221 528.293Z" fill="#F8E324" fill-opacity="0.75"/>
<path d="M238.497 493.396C238.293 494.44 237.75 495.387 236.949 496.096C236.187 496.766 235.23 497.184 234.207 497.293C234.825 497.859 235.32 498.54 235.664 499.295C236.145 500.366 236.309 501.545 236.135 502.694C236.379 501.6 236.978 500.618 237.841 499.892C238.531 499.307 239.368 498.912 240.268 498.747C239.771 498.208 239.365 497.596 239.064 496.933C238.571 495.817 238.376 494.599 238.497 493.396Z" fill="#F8E324" fill-opacity="0.75"/>
<path d="M224.399 509.238C224.292 509.861 223.96 510.422 223.464 510.819C222.956 511.207 222.336 511.43 221.688 511.455C222.078 511.792 222.4 512.197 222.637 512.65C222.964 513.274 223.093 513.977 223.005 514.668C223.153 514.024 223.521 513.452 224.048 513.045C224.484 512.705 225.005 512.482 225.559 512.4C225.141 511.979 224.815 511.478 224.603 510.93C224.391 510.381 224.298 509.797 224.328 509.215L224.399 509.238Z" fill="#F8E324" fill-opacity="0.75"/>
<path d="M232.584 472.204C232.414 473.089 231.96 473.893 231.29 474.502C230.619 475.111 229.765 475.492 228.852 475.592C229.509 476.201 230.005 476.957 230.296 477.794C230.587 478.631 230.664 479.522 230.52 480.389C230.738 479.433 231.258 478.573 232.006 477.929C232.626 477.422 233.378 477.094 234.181 476.978C233.749 476.501 233.393 475.962 233.127 475.381C232.675 474.381 232.488 473.287 232.584 472.204Z" fill="#F8E324" fill-opacity="0.75"/>
<path d="M346.429 522.445C346.287 523.21 345.881 523.9 345.279 524.401C344.693 524.889 343.966 525.188 343.196 525.259C343.652 525.674 344.025 526.169 344.295 526.717C344.686 527.494 344.836 528.363 344.728 529.215C344.907 528.418 345.353 527.706 345.995 527.19C346.524 526.771 347.155 526.49 347.828 526.374C347.447 525.976 347.127 525.527 346.878 525.04C346.505 524.224 346.35 523.33 346.429 522.445Z" fill="#F8E324" fill-opacity="0.75"/>
<path d="M283.506 489.857C283.358 490.485 283.011 491.048 282.515 491.466C282.01 491.863 281.387 492.091 280.736 492.116C281.112 492.467 281.414 492.887 281.623 493.353C281.915 494.007 282.005 494.728 281.879 495.426C282.049 494.767 282.43 494.182 282.968 493.757C283.404 493.415 283.925 493.192 284.48 493.112C284.184 492.775 283.941 492.397 283.759 491.991C283.496 491.308 283.409 490.575 283.506 489.857Z" fill="#F8E324" fill-opacity="0.75"/>
<path d="M331.706 537.442C331.529 538.361 331.056 539.196 330.355 539.824C329.686 540.403 328.851 540.768 327.96 540.872C328.616 541.468 329.115 542.209 329.416 543.032C329.716 543.855 329.808 544.735 329.683 545.594C329.894 544.636 330.415 543.773 331.169 543.134C331.771 542.619 332.506 542.275 333.297 542.137C332.864 541.661 332.509 541.122 332.243 540.541C331.806 539.564 331.622 538.499 331.706 537.442Z" fill="#F8E324" fill-opacity="0.75"/>
<path d="M195.434 485.787C195.263 486.703 194.79 487.534 194.088 488.155C193.422 488.763 192.577 489.153 191.67 489.272C192.326 489.868 192.825 490.61 193.126 491.433C193.426 492.256 193.518 493.135 193.393 493.995C193.584 493.136 194.026 492.355 194.666 491.746C195.306 491.137 196.117 490.726 196.998 490.565C196.565 490.089 196.21 489.55 195.944 488.969C195.497 487.965 195.321 486.869 195.434 485.787Z" fill="#F8E324" fill-opacity="0.75"/>
<path d="M325.488 519.904C325.351 520.536 325.002 521.102 324.497 521.513C324.019 521.905 323.427 522.141 322.802 522.191C323.174 522.541 323.471 522.96 323.676 523.423C323.968 524.078 324.062 524.8 323.946 525.501C324.116 524.842 324.497 524.257 325.035 523.831C325.474 523.496 325.994 523.274 326.546 523.187C326.25 522.85 326.007 522.472 325.826 522.065C325.529 521.382 325.413 520.638 325.488 519.904Z" fill="#F8E324" fill-opacity="0.75"/>
<path d="M1066.27 412.699C1065.87 412.003 1065.69 411.204 1065.74 410.399C1065.82 409.678 1066.11 408.992 1066.59 408.432C1065.99 408.399 1065.4 408.253 1064.86 408.001C1064.07 407.612 1063.4 407.022 1062.93 406.292C1063.33 407.029 1063.51 407.872 1063.43 408.715C1063.37 409.387 1063.14 410.037 1062.76 410.604C1063.29 410.68 1063.8 410.836 1064.28 411.066C1065.06 411.447 1065.75 412.006 1066.27 412.699Z" fill="#F8E324" fill-opacity="0.75"/>
<path d="M988.406 471.96C988.02 471.156 987.926 470.242 988.14 469.368C988.368 468.519 988.848 467.752 989.517 467.165C988.791 467.112 988.084 466.928 987.431 466.623C986.534 466.175 985.794 465.479 985.301 464.618C985.695 465.473 985.772 466.442 985.518 467.358C985.309 468.114 984.908 468.808 984.352 469.373C985 469.471 985.629 469.653 986.225 469.914C987.124 470.395 987.875 471.1 988.406 471.96Z" fill="#F8E324" fill-opacity="0.75"/>
<path d="M968.791 441.219C968.434 440.639 968.319 439.944 968.468 439.274C968.639 438.591 969.002 437.966 969.516 437.471C968.928 437.503 968.341 437.428 967.784 437.25C967.04 437.033 966.392 436.581 965.94 435.963C966.286 436.589 966.385 437.323 966.216 438.025C966.054 438.635 965.743 439.2 965.31 439.669C965.827 439.683 966.337 439.768 966.827 439.921C967.598 440.157 968.28 440.608 968.791 441.219Z" fill="#F8E324" fill-opacity="0.75"/>
<path d="M1045.52 419.423C1044.97 418.509 1044.75 417.441 1044.87 416.378C1044.99 415.372 1045.43 414.421 1046.12 413.658C1045.28 413.649 1044.46 413.471 1043.7 413.137C1042.62 412.659 1041.72 411.89 1041.08 410.917C1041.63 411.896 1041.84 413.027 1041.68 414.144C1041.55 415.039 1041.19 415.891 1040.63 416.615C1041.36 416.685 1042.07 416.871 1042.74 417.164C1043.85 417.668 1044.81 418.445 1045.52 419.423Z" fill="#F8E324" fill-opacity="0.75"/>
<path d="M1045.47 398.216C1045.13 397.681 1045.01 397.042 1045.11 396.414C1045.23 395.787 1045.54 395.207 1046.01 394.757C1045.49 394.766 1044.98 394.678 1044.51 394.498C1043.85 394.252 1043.28 393.813 1042.89 393.239C1043.21 393.818 1043.31 394.49 1043.19 395.144C1043.09 395.689 1042.85 396.202 1042.49 396.632C1043.09 396.668 1043.66 396.824 1044.19 397.092C1044.71 397.359 1045.17 397.732 1045.54 398.186L1045.47 398.216Z" fill="#F8E324" fill-opacity="0.75"/>
<path d="M1064.05 431.279C1063.59 430.506 1063.39 429.604 1063.48 428.703C1063.58 427.802 1063.96 426.949 1064.58 426.265C1063.68 426.25 1062.81 426.017 1062.03 425.587C1061.26 425.157 1060.6 424.544 1060.13 423.802C1060.61 424.66 1060.79 425.647 1060.67 426.626C1060.54 427.417 1060.2 428.163 1059.68 428.785C1060.32 428.852 1060.94 429.016 1061.53 429.272C1062.53 429.717 1063.4 430.407 1064.05 431.279Z" fill="#F8E324" fill-opacity="0.75"/>
<path d="M945.698 469.714C945.295 469.049 945.137 468.264 945.252 467.489C945.363 466.735 945.705 466.027 946.232 465.461C945.616 465.455 945.008 465.335 944.441 465.107C943.632 464.788 942.941 464.241 942.453 463.533C942.851 464.247 942.994 465.075 942.859 465.887C942.744 466.553 942.461 467.182 942.036 467.718C942.585 467.76 943.123 467.882 943.634 468.078C944.456 468.438 945.167 469.001 945.698 469.714Z" fill="#F8E324" fill-opacity="0.75"/>
<path d="M1014.33 452.063C1014.02 451.497 1013.9 450.846 1013.99 450.203C1014.1 449.57 1014.42 448.985 1014.88 448.532C1014.37 448.522 1013.86 448.41 1013.4 448.202C1012.75 447.909 1012.2 447.431 1011.83 446.827C1012.14 447.431 1012.24 448.122 1012.13 448.798C1012.03 449.343 1011.79 449.856 1011.43 450.286C1011.88 450.339 1012.31 450.459 1012.71 450.641C1013.37 450.974 1013.92 451.463 1014.33 452.063Z" fill="#F8E324" fill-opacity="0.75"/>
<path d="M946.676 448.72C946.196 447.918 945.992 446.98 946.096 446.045C946.208 445.167 946.587 444.338 947.182 443.667C946.296 443.66 945.43 443.44 944.657 443.027C943.885 442.613 943.23 442.019 942.75 441.295C943.232 442.15 943.418 443.141 943.282 444.119C943.177 444.905 942.859 445.651 942.361 446.281C943.001 446.348 943.625 446.512 944.211 446.768C945.187 447.206 946.035 447.876 946.676 448.72Z" fill="#F8E324" fill-opacity="0.75"/>
<path d="M1082.69 396.39C1082.21 395.593 1082.01 394.658 1082.12 393.728C1082.21 392.83 1082.58 391.977 1083.17 391.283C1082.29 391.276 1081.42 391.056 1080.65 390.643C1079.88 390.23 1079.22 389.635 1078.74 388.912C1079.17 389.678 1079.36 390.556 1079.29 391.436C1079.22 392.317 1078.89 393.163 1078.34 393.871C1078.98 393.938 1079.6 394.102 1080.19 394.358C1081.19 394.808 1082.05 395.508 1082.69 396.39Z" fill="#F8E324" fill-opacity="0.75"/>
<path d="M963.002 457.649C962.683 457.086 962.566 456.432 962.668 455.789C962.764 455.178 963.047 454.608 963.479 454.154C962.969 454.141 962.468 454.027 962.007 453.818C961.353 453.524 960.802 453.049 960.421 452.449C960.734 453.054 960.839 453.744 960.722 454.42C960.618 454.963 960.378 455.474 960.025 455.908C960.47 455.962 960.903 456.081 961.31 456.263C961.986 456.575 962.568 457.052 963.002 457.649Z" fill="#F8E324" fill-opacity="0.75"/>
<path d="M1096.71 460.556C1096.61 461.353 1096.28 462.101 1095.75 462.71C1095.26 463.24 1094.61 463.609 1093.89 463.77C1094.35 464.158 1094.73 464.628 1095.01 465.155C1095.4 465.942 1095.58 466.814 1095.52 467.685C1095.64 466.851 1096.01 466.074 1096.58 465.449C1097.03 464.947 1097.61 464.567 1098.25 464.344C1097.88 463.966 1097.56 463.534 1097.32 463.064C1096.92 462.284 1096.71 461.425 1096.71 460.556Z" fill="#F8E324" fill-opacity="0.75"/>
<path d="M1117.32 467.711C1117.21 468.768 1116.74 469.757 1116 470.529C1115.3 471.259 1114.38 471.754 1113.37 471.947C1114.03 472.46 1114.58 473.098 1114.99 473.823C1115.55 474.851 1115.81 476.012 1115.73 477.172C1115.89 476.061 1116.4 475.033 1117.21 474.239C1117.84 473.599 1118.65 473.137 1119.53 472.898C1118.99 472.402 1118.54 471.825 1118.18 471.19C1117.6 470.117 1117.3 468.92 1117.32 467.711Z" fill="#F8E324" fill-opacity="0.75"/>
<path d="M1104.58 484.657C1104.52 485.286 1104.24 485.873 1103.77 486.31C1103.3 486.738 1102.7 487.011 1102.06 487.089C1102.47 487.393 1102.83 487.771 1103.1 488.202C1103.48 488.797 1103.66 489.488 1103.63 490.183C1103.73 489.529 1104.05 488.929 1104.54 488.48C1104.95 488.105 1105.45 487.841 1105.99 487.713C1105.54 487.328 1105.17 486.855 1104.92 486.326C1104.66 485.797 1104.52 485.223 1104.5 484.64L1104.58 484.657Z" fill="#F8E324" fill-opacity="0.75"/>
<path d="M1109.69 447.076C1109.59 447.972 1109.21 448.811 1108.59 449.472C1107.97 450.134 1107.15 450.585 1106.25 450.759C1106.96 451.312 1107.51 452.025 1107.87 452.835C1108.23 453.645 1108.38 454.527 1108.31 455.402C1108.45 454.432 1108.89 453.532 1109.59 452.829C1110.16 452.273 1110.89 451.884 1111.68 451.702C1111.21 451.263 1110.81 450.755 1110.49 450.198C1109.96 449.238 1109.69 448.164 1109.69 447.076Z" fill="#F8E324" fill-opacity="0.75"/>
<path d="M1073.78 463.664C1073.69 464.59 1073.28 465.458 1072.64 466.134C1072.02 466.795 1071.21 467.253 1070.32 467.446C1071.02 467.986 1071.58 468.684 1071.95 469.48C1072.31 470.275 1072.48 471.144 1072.42 472.011C1072.54 471.14 1072.92 470.325 1073.51 469.665C1074.1 469.006 1074.87 468.53 1075.73 468.297C1075.26 467.858 1074.87 467.35 1074.55 466.793C1074.02 465.829 1073.76 464.751 1073.78 463.664Z" fill="#F8E324" fill-opacity="0.75"/>
<path d="M893.657 514.054C893.921 514.812 893.953 515.632 893.749 516.412C893.542 517.107 893.126 517.726 892.555 518.189C893.138 518.333 893.687 518.585 894.171 518.933C894.875 519.462 895.421 520.165 895.754 520.971C895.491 520.171 895.476 519.311 895.711 518.497C895.891 517.847 896.237 517.251 896.716 516.765C896.213 516.592 895.741 516.344 895.317 516.03C894.612 515.509 894.043 514.832 893.657 514.054Z" fill="#FFE680" fill-opacity="0.75"/>
<path d="M981.173 470.283C981.403 471.144 981.326 472.06 980.953 472.879C980.571 473.671 979.958 474.336 979.191 474.789C979.895 474.975 980.555 475.287 981.141 475.709C981.938 476.315 982.536 477.137 982.861 478.074C982.632 477.161 982.736 476.194 983.156 475.341C983.502 474.637 984.025 474.03 984.676 473.578C984.058 473.362 983.473 473.066 982.936 472.699C982.143 472.059 981.535 471.226 981.173 470.283Z" fill="#FFE680" fill-opacity="0.75"/>
<path d="M994.74 504.132C994.982 504.767 994.966 505.472 994.695 506.103C994.401 506.742 993.928 507.289 993.331 507.68C993.915 507.758 994.478 507.941 994.992 508.218C995.683 508.57 996.235 509.134 996.565 509.825C996.341 509.146 996.38 508.407 996.677 507.749C996.949 507.179 997.359 506.682 997.872 506.301C997.367 506.192 996.881 506.013 996.428 505.771C995.714 505.397 995.128 504.827 994.74 504.132Z" fill="#FFE680" fill-opacity="0.75"/>
<path d="M915.299 511.302C915.664 512.301 915.689 513.392 915.369 514.413C915.062 515.38 914.458 516.232 913.639 516.854C914.46 517.019 915.237 517.347 915.921 517.816C916.886 518.485 917.635 519.409 918.08 520.483C917.724 519.42 917.729 518.27 918.094 517.202C918.382 516.345 918.894 515.575 919.58 514.968C918.876 514.763 918.212 514.449 917.613 514.037C916.613 513.336 915.817 512.394 915.299 511.302Z" fill="#FFE680" fill-opacity="0.75"/>
<path d="M911.411 532.149C911.642 532.737 911.647 533.389 911.428 533.986C911.194 534.58 910.777 535.091 910.236 535.447C910.744 535.534 911.229 535.715 911.665 535.981C912.268 536.345 912.741 536.881 913.023 537.518C912.817 536.89 912.836 536.21 913.077 535.59C913.275 535.073 913.606 534.614 914.038 534.257C913.462 534.112 912.925 533.851 912.46 533.491C911.996 533.131 911.614 532.68 911.339 532.166L911.411 532.149Z" fill="#FFE680" fill-opacity="0.75"/>
<path d="M899.29 496.21C899.601 497.056 899.628 497.979 899.368 498.846C899.109 499.714 898.575 500.482 897.844 501.039C898.722 501.221 899.537 501.612 900.219 502.179C900.9 502.745 901.426 503.468 901.75 504.285C901.444 503.353 901.444 502.348 901.752 501.411C902.021 500.657 902.496 499.987 903.123 499.473C902.506 499.288 901.924 499.01 901.396 498.65C900.492 498.027 899.767 497.187 899.29 496.21Z" fill="#FFE680" fill-opacity="0.75"/>
<path d="M1022.72 480.42C1022.99 481.149 1023 481.95 1022.75 482.69C1022.5 483.41 1022.03 484.042 1021.41 484.5C1022.01 484.62 1022.59 484.851 1023.1 485.181C1023.84 485.644 1024.41 486.31 1024.76 487.096C1024.5 486.321 1024.52 485.481 1024.8 484.708C1025.04 484.075 1025.43 483.509 1025.95 483.062C1025.42 482.918 1024.91 482.699 1024.45 482.411C1023.71 481.905 1023.11 481.219 1022.72 480.42Z" fill="#FFE680" fill-opacity="0.75"/>
<path d="M952.011 485.021C952.208 485.635 952.202 486.296 951.993 486.911C951.765 487.512 951.349 488.028 950.805 488.387C951.309 488.492 951.785 488.696 952.204 488.987C952.792 489.396 953.241 489.968 953.494 490.63C953.299 489.978 953.323 489.28 953.564 488.638C953.761 488.12 954.092 487.661 954.525 487.305C954.098 487.17 953.695 486.972 953.329 486.718C952.751 486.269 952.298 485.686 952.011 485.021Z" fill="#FFE680" fill-opacity="0.75"/>
<path d="M1017.86 500.867C1018.19 501.745 1018.21 502.704 1017.94 503.604C1017.66 504.446 1017.14 505.19 1016.43 505.739C1017.3 505.911 1018.11 506.287 1018.79 506.837C1019.47 507.386 1020 508.092 1020.34 508.892C1020.03 507.962 1020.03 506.955 1020.34 506.018C1020.59 505.266 1021.04 504.592 1021.65 504.066C1021.03 503.881 1020.45 503.603 1019.92 503.243C1019.04 502.632 1018.34 501.816 1017.86 500.867Z" fill="#FFE680" fill-opacity="0.75"/>
<path d="M874.497 527.031C874.823 527.904 874.848 528.86 874.567 529.754C874.311 530.619 873.79 531.389 873.074 531.96C873.943 532.131 874.754 532.508 875.436 533.058C876.119 533.607 876.652 534.313 876.989 535.113C876.709 534.28 876.684 533.382 876.917 532.53C877.151 531.678 877.633 530.908 878.304 530.315C877.687 530.13 877.105 529.852 876.577 529.492C875.676 528.864 874.959 528.016 874.497 527.031Z" fill="#FFE680" fill-opacity="0.75"/>
<path d="M1003.48 489.062C1003.69 489.674 1003.68 490.339 1003.46 490.952C1003.25 491.534 1002.87 492.042 1002.36 492.408C1002.86 492.515 1003.33 492.721 1003.74 493.011C1004.33 493.422 1004.79 493.991 1005.05 494.651C1004.85 493.999 1004.88 493.301 1005.12 492.659C1005.32 492.144 1005.65 491.686 1006.08 491.326C1005.65 491.191 1005.25 490.992 1004.88 490.738C1004.28 490.306 1003.79 489.729 1003.48 489.062Z" fill="#FFE680" fill-opacity="0.75"/>
</svg>
