<svg width="334" height="196" viewBox="0 0 334 196" fill="none" xmlns="http://www.w3.org/2000/svg">
<path d="M3.57227 51H13.4723V86H3.57227V51ZM55.3156 51V86H47.1656L31.7156 67.35V86H22.0156V51H30.1656L45.6156 69.65V51H55.3156ZM99.2012 51L84.2012 86H74.4512L59.5012 51H70.2012L79.7012 73.8L89.4012 51H99.2012ZM130.85 78.35V86H102.75V51H130.2V58.65H112.55V64.55H128.1V71.95H112.55V78.35H130.85ZM171.144 51V86H162.994L147.544 67.35V86H137.844V51H145.994L161.444 69.65V51H171.144ZM187.077 58.85H176.327V51H207.677V58.85H196.977V86H187.077V58.85ZM212.865 51H222.765V86H212.865V51ZM248.959 86.7C245.259 86.7 241.925 85.9167 238.959 84.35C236.025 82.7833 233.709 80.6167 232.009 77.85C230.342 75.0833 229.509 71.9667 229.509 68.5C229.509 65.0333 230.342 61.9167 232.009 59.15C233.709 56.3833 236.025 54.2167 238.959 52.65C241.925 51.0833 245.259 50.3 248.959 50.3C252.659 50.3 255.975 51.0833 258.909 52.65C261.875 54.2167 264.192 56.3833 265.859 59.15C267.559 61.9167 268.409 65.0333 268.409 68.5C268.409 71.9667 267.559 75.0833 265.859 77.85C264.192 80.6167 261.875 82.7833 258.909 84.35C255.975 85.9167 252.659 86.7 248.959 86.7ZM248.959 78.5C250.725 78.5 252.325 78.0833 253.759 77.25C255.192 76.4167 256.325 75.25 257.159 73.75C257.992 72.2167 258.409 70.4667 258.409 68.5C258.409 66.5333 257.992 64.8 257.159 63.3C256.325 61.7667 255.192 60.5833 253.759 59.75C252.325 58.9167 250.725 58.5 248.959 58.5C247.192 58.5 245.592 58.9167 244.159 59.75C242.725 60.5833 241.592 61.7667 240.759 63.3C239.925 64.8 239.509 66.5333 239.509 68.5C239.509 70.4667 239.925 72.2167 240.759 73.75C241.592 75.25 242.725 76.4167 244.159 77.25C245.592 78.0833 247.192 78.5 248.959 78.5ZM308.394 51V86H300.244L284.794 67.35V86H275.094V51H283.244L298.694 69.65V51H308.394ZM89.5916 147.7C85.9249 147.7 82.6249 146.933 79.6916 145.4C76.7916 143.833 74.5083 141.667 72.8416 138.9C71.1749 136.133 70.3416 133 70.3416 129.5C70.3416 126 71.1749 122.867 72.8416 120.1C74.5083 117.333 76.7916 115.183 79.6916 113.65C82.6249 112.083 85.9249 111.3 89.5916 111.3C92.7916 111.3 95.6749 111.867 98.2416 113C100.808 114.133 102.942 115.767 104.642 117.9L98.3416 123.6C96.0749 120.867 93.3249 119.5 90.0916 119.5C88.1916 119.5 86.4916 119.917 84.9916 120.75C83.5249 121.583 82.3749 122.767 81.5416 124.3C80.7416 125.8 80.3416 127.533 80.3416 129.5C80.3416 131.467 80.7416 133.217 81.5416 134.75C82.3749 136.25 83.5249 137.417 84.9916 138.25C86.4916 139.083 88.1916 139.5 90.0916 139.5C93.3249 139.5 96.0749 138.133 98.3416 135.4L104.642 141.1C102.942 143.233 100.808 144.867 98.2416 146C95.6749 147.133 92.7916 147.7 89.5916 147.7ZM127.473 147.7C123.773 147.7 120.44 146.917 117.473 145.35C114.54 143.783 112.223 141.617 110.523 138.85C108.857 136.083 108.023 132.967 108.023 129.5C108.023 126.033 108.857 122.917 110.523 120.15C112.223 117.383 114.54 115.217 117.473 113.65C120.44 112.083 123.773 111.3 127.473 111.3C131.173 111.3 134.49 112.083 137.423 113.65C140.39 115.217 142.707 117.383 144.373 120.15C146.073 122.917 146.923 126.033 146.923 129.5C146.923 132.967 146.073 136.083 144.373 138.85C142.707 141.617 140.39 143.783 137.423 145.35C134.49 146.917 131.173 147.7 127.473 147.7ZM127.473 139.5C129.24 139.5 130.84 139.083 132.273 138.25C133.707 137.417 134.84 136.25 135.673 134.75C136.507 133.217 136.923 131.467 136.923 129.5C136.923 127.533 136.507 125.8 135.673 124.3C134.84 122.767 133.707 121.583 132.273 120.75C130.84 119.917 129.24 119.5 127.473 119.5C125.707 119.5 124.107 119.917 122.673 120.75C121.24 121.583 120.107 122.767 119.273 124.3C118.44 125.8 118.023 127.533 118.023 129.5C118.023 131.467 118.44 133.217 119.273 134.75C120.107 136.25 121.24 137.417 122.673 138.25C124.107 139.083 125.707 139.5 127.473 139.5ZM168.908 137.7H163.508V147H153.608V112H169.608C172.775 112 175.525 112.533 177.858 113.6C180.192 114.633 181.992 116.133 183.258 118.1C184.525 120.033 185.158 122.317 185.158 124.95C185.158 127.483 184.558 129.7 183.358 131.6C182.192 133.467 180.508 134.933 178.308 136L185.858 147H175.258L168.908 137.7ZM175.158 124.95C175.158 123.317 174.642 122.05 173.608 121.15C172.575 120.25 171.042 119.8 169.008 119.8H163.508V130.05H169.008C171.042 130.05 172.575 129.617 173.608 128.75C174.642 127.85 175.158 126.583 175.158 124.95ZM208.12 112C211.287 112 214.037 112.533 216.37 113.6C218.703 114.633 220.503 116.133 221.77 118.1C223.037 120.033 223.67 122.317 223.67 124.95C223.67 127.583 223.037 129.867 221.77 131.8C220.503 133.733 218.703 135.233 216.37 136.3C214.037 137.333 211.287 137.85 208.12 137.85H202.02V147H192.12V112H208.12ZM207.52 130.05C209.553 130.05 211.087 129.617 212.12 128.75C213.153 127.85 213.67 126.583 213.67 124.95C213.67 123.317 213.153 122.05 212.12 121.15C211.087 120.25 209.553 119.8 207.52 119.8H202.02V130.05H207.52ZM242.785 147.7C239.952 147.7 237.202 147.35 234.535 146.65C231.869 145.95 229.702 145.017 228.035 143.85L231.285 136.55C232.852 137.583 234.669 138.417 236.735 139.05C238.802 139.683 240.835 140 242.835 140C246.635 140 248.535 139.05 248.535 137.15C248.535 136.15 247.985 135.417 246.885 134.95C245.819 134.45 244.085 133.933 241.685 133.4C239.052 132.833 236.852 132.233 235.085 131.6C233.319 130.933 231.802 129.883 230.535 128.45C229.269 127.017 228.635 125.083 228.635 122.65C228.635 120.517 229.219 118.6 230.385 116.9C231.552 115.167 233.285 113.8 235.585 112.8C237.919 111.8 240.769 111.3 244.135 111.3C246.435 111.3 248.702 111.567 250.935 112.1C253.169 112.6 255.135 113.35 256.835 114.35L253.785 121.7C250.452 119.9 247.219 119 244.085 119C242.119 119 240.685 119.3 239.785 119.9C238.885 120.467 238.435 121.217 238.435 122.15C238.435 123.083 238.969 123.783 240.035 124.25C241.102 124.717 242.819 125.2 245.185 125.7C247.852 126.267 250.052 126.883 251.785 127.55C253.552 128.183 255.069 129.217 256.335 130.65C257.635 132.05 258.285 133.967 258.285 136.4C258.285 138.5 257.702 140.4 256.535 142.1C255.369 143.8 253.619 145.167 251.285 146.2C248.952 147.2 246.119 147.7 242.785 147.7Z" fill="black"/>
<path d="M6.65723 48H16.5572V83H6.65723V48ZM58.4006 48V83H50.2506L34.8006 64.35V83H25.1006V48H33.2506L48.7006 66.65V48H58.4006ZM134.765 75.35V83H106.665V48H134.115V55.65H116.465V61.55H132.015V68.95H116.465V75.35H134.765ZM175.059 48V83H166.909L151.459 64.35V83H141.759V48H149.909L165.359 66.65V48H175.059ZM216.78 48H226.68V83H216.78V48ZM312.309 48V83H304.159L288.709 64.35V83H279.009V48H287.159L302.609 66.65V48H312.309ZM93.0916 144.7C89.4249 144.7 86.1249 143.933 83.1916 142.4C80.2916 140.833 78.0083 138.667 76.3416 135.9C74.6749 133.133 73.8416 130 73.8416 126.5C73.8416 123 74.6749 119.867 76.3416 117.1C78.0083 114.333 80.2916 112.183 83.1916 110.65C86.1249 109.083 89.4249 108.3 93.0916 108.3C96.2916 108.3 99.1749 108.867 101.742 110C104.308 111.133 106.442 112.767 108.142 114.9L101.842 120.6C99.5749 117.867 96.8249 116.5 93.5916 116.5C91.6916 116.5 89.9916 116.917 88.4916 117.75C87.0249 118.583 85.8749 119.767 85.0416 121.3C84.2416 122.8 83.8416 124.533 83.8416 126.5C83.8416 128.467 84.2416 130.217 85.0416 131.75C85.8749 133.25 87.0249 134.417 88.4916 135.25C89.9916 136.083 91.6916 136.5 93.5916 136.5C96.8249 136.5 99.5749 135.133 101.842 132.4L108.142 138.1C106.442 140.233 104.308 141.867 101.742 143C99.1749 144.133 96.2916 144.7 93.0916 144.7ZM130.973 144.7C127.273 144.7 123.94 143.917 120.973 142.35C118.04 140.783 115.723 138.617 114.023 135.85C112.357 133.083 111.523 129.967 111.523 126.5C111.523 123.033 112.357 119.917 114.023 117.15C115.723 114.383 118.04 112.217 120.973 110.65C123.94 109.083 127.273 108.3 130.973 108.3C134.673 108.3 137.99 109.083 140.923 110.65C143.89 112.217 146.207 114.383 147.873 117.15C149.573 119.917 150.423 123.033 150.423 126.5C150.423 129.967 149.573 133.083 147.873 135.85C146.207 138.617 143.89 140.783 140.923 142.35C137.99 143.917 134.673 144.7 130.973 144.7ZM130.973 136.5C132.74 136.5 134.34 136.083 135.773 135.25C137.207 134.417 138.34 133.25 139.173 131.75C140.007 130.217 140.423 128.467 140.423 126.5C140.423 124.533 140.007 122.8 139.173 121.3C138.34 119.767 137.207 118.583 135.773 117.75C134.34 116.917 132.74 116.5 130.973 116.5C129.207 116.5 127.607 116.917 126.173 117.75C124.74 118.583 123.607 119.767 122.773 121.3C121.94 122.8 121.523 124.533 121.523 126.5C121.523 128.467 121.94 130.217 122.773 131.75C123.607 133.25 124.74 134.417 126.173 135.25C127.607 136.083 129.207 136.5 130.973 136.5ZM211.62 109C214.787 109 217.537 109.533 219.87 110.6C222.203 111.633 224.003 113.133 225.27 115.1C226.537 117.033 227.17 119.317 227.17 121.95C227.17 124.583 226.537 126.867 225.27 128.8C224.003 130.733 222.203 132.233 219.87 133.3C217.537 134.333 214.787 134.85 211.62 134.85H205.52V144H195.62V109H211.62ZM211.02 127.05C213.053 127.05 214.587 126.617 215.62 125.75C216.653 124.85 217.17 123.583 217.17 121.95C217.17 120.317 216.653 119.05 215.62 118.15C214.587 117.25 213.053 116.8 211.02 116.8H205.52V127.05H211.02ZM246.285 144.7C243.452 144.7 240.702 144.35 238.035 143.65C235.369 142.95 233.202 142.017 231.535 140.85L234.785 133.55C236.352 134.583 238.169 135.417 240.235 136.05C242.302 136.683 244.335 137 246.335 137C250.135 137 252.035 136.05 252.035 134.15C252.035 133.15 251.485 132.417 250.385 131.95C249.319 131.45 247.585 130.933 245.185 130.4C242.552 129.833 240.352 129.233 238.585 128.6C236.819 127.933 235.302 126.883 234.035 125.45C232.769 124.017 232.135 122.083 232.135 119.65C232.135 117.517 232.719 115.6 233.885 113.9C235.052 112.167 236.785 110.8 239.085 109.8C241.419 108.8 244.269 108.3 247.635 108.3C249.935 108.3 252.202 108.567 254.435 109.1C256.669 109.6 258.635 110.35 260.335 111.35L257.285 118.7C253.952 116.9 250.719 116 247.585 116C245.619 116 244.185 116.3 243.285 116.9C242.385 117.467 241.935 118.217 241.935 119.15C241.935 120.083 242.469 120.783 243.535 121.25C244.602 121.717 246.319 122.2 248.685 122.7C251.352 123.267 253.552 123.883 255.285 124.55C257.052 125.183 258.569 126.217 259.835 127.65C261.135 129.05 261.785 130.967 261.785 133.4C261.785 135.5 261.202 137.4 260.035 139.1C258.869 140.8 257.119 142.167 254.785 143.2C252.452 144.2 249.619 144.7 246.285 144.7Z" fill="white"/>
<path d="M102.384 48L87.3838 83H77.6338L62.6838 48H73.3838L82.8838 70.8L92.5838 48H102.384Z" fill="#B2D4F5"/>
<path d="M190.992 55.85H180.242V48H211.592V55.85H200.892V83H190.992V55.85Z" fill="#FFDF5A"/>
<path d="M252.874 83.7C249.174 83.7 245.84 82.9167 242.874 81.35C239.94 79.7833 237.624 77.6167 235.924 74.85C234.257 72.0833 233.424 68.9667 233.424 65.5C233.424 62.0333 234.257 58.9167 235.924 56.15C237.624 53.3833 239.94 51.2167 242.874 49.65C245.84 48.0833 249.174 47.3 252.874 47.3C256.574 47.3 259.89 48.0833 262.824 49.65C265.79 51.2167 268.107 53.3833 269.774 56.15C271.474 58.9167 272.324 62.0333 272.324 65.5C272.324 68.9667 271.474 72.0833 269.774 74.85C268.107 77.6167 265.79 79.7833 262.824 81.35C259.89 82.9167 256.574 83.7 252.874 83.7ZM252.874 75.5C254.64 75.5 256.24 75.0833 257.674 74.25C259.107 73.4167 260.24 72.25 261.074 70.75C261.907 69.2167 262.324 67.4667 262.324 65.5C262.324 63.5333 261.907 61.8 261.074 60.3C260.24 58.7667 259.107 57.5833 257.674 56.75C256.24 55.9167 254.64 55.5 252.874 55.5C251.107 55.5 249.507 55.9167 248.074 56.75C246.64 57.5833 245.507 58.7667 244.674 60.3C243.84 61.8 243.424 63.5333 243.424 65.5C243.424 67.4667 243.84 69.2167 244.674 70.75C245.507 72.25 246.64 73.4167 248.074 74.25C249.507 75.0833 251.107 75.5 252.874 75.5Z" fill="#B1E9B1"/>
<path d="M172.408 134.7H167.008V144H157.108V109H173.108C176.275 109 179.025 109.533 181.358 110.6C183.692 111.633 185.492 113.133 186.758 115.1C188.025 117.033 188.658 119.317 188.658 121.95C188.658 124.483 188.058 126.7 186.858 128.6C185.692 130.467 184.008 131.933 181.808 133L189.358 144H178.758L172.408 134.7ZM178.658 121.95C178.658 120.317 178.142 119.05 177.108 118.15C176.075 117.25 174.542 116.8 172.508 116.8H167.008V127.05H172.508C174.542 127.05 176.075 126.617 177.108 125.75C178.142 124.85 178.658 123.583 178.658 121.95Z" fill="#E06B65"/>
<path d="M9.57227 46V44.8H8.37227V46H9.57227ZM19.4723 46H20.6723V44.8H19.4723V46ZM19.4723 81V82.2H20.6723V81H19.4723ZM9.57227 81H8.37227V82.2H9.57227V81ZM9.57227 47.2H19.4723V44.8H9.57227V47.2ZM18.2723 46V81H20.6723V46H18.2723ZM19.4723 79.8H9.57227V82.2H19.4723V79.8ZM10.7723 81V46H8.37227V81H10.7723ZM61.3156 46H62.5156V44.8H61.3156V46ZM61.3156 81V82.2H62.5156V81H61.3156ZM53.1656 81L52.2415 81.7655L52.6014 82.2H53.1656V81ZM37.7156 62.35L38.6397 61.5845L36.5156 59.0204V62.35H37.7156ZM37.7156 81V82.2H38.9156V81H37.7156ZM28.0156 81H26.8156V82.2H28.0156V81ZM28.0156 46V44.8H26.8156V46H28.0156ZM36.1656 46L37.0897 45.2345L36.7298 44.8H36.1656V46ZM51.6156 64.65L50.6915 65.4155L52.8156 67.9796V64.65H51.6156ZM51.6156 46V44.8H50.4156V46H51.6156ZM60.1156 46V81H62.5156V46H60.1156ZM61.3156 79.8H53.1656V82.2H61.3156V79.8ZM54.0897 80.2345L38.6397 61.5845L36.7915 63.1155L52.2415 81.7655L54.0897 80.2345ZM36.5156 62.35V81H38.9156V62.35H36.5156ZM37.7156 79.8H28.0156V82.2H37.7156V79.8ZM29.2156 81V46H26.8156V81H29.2156ZM28.0156 47.2H36.1656V44.8H28.0156V47.2ZM35.2415 46.7655L50.6915 65.4155L52.5397 63.8845L37.0897 45.2345L35.2415 46.7655ZM52.8156 64.65V46H50.4156V64.65H52.8156ZM51.6156 47.2H61.3156V44.8H51.6156V47.2ZM105.201 46L106.304 46.4727L107.021 44.8H105.201V46ZM90.2012 81V82.2H90.9924L91.3041 81.4727L90.2012 81ZM80.4512 81L79.3476 81.4714L79.6589 82.2H80.4512V81ZM65.5012 46V44.8H63.6837L64.3976 46.4714L65.5012 46ZM76.2012 46L77.3089 45.5385L77.0012 44.8H76.2012V46ZM85.7012 68.8L84.5935 69.2615L85.6897 71.8923L86.8054 69.2698L85.7012 68.8ZM95.4012 46V44.8H94.6076L94.297 45.5302L95.4012 46ZM104.098 45.5273L89.0982 80.5273L91.3041 81.4727L106.304 46.4727L104.098 45.5273ZM90.2012 79.8H80.4512V82.2H90.2012V79.8ZM81.5547 80.5286L66.6047 45.5286L64.3976 46.4714L79.3476 81.4714L81.5547 80.5286ZM65.5012 47.2H76.2012V44.8H65.5012V47.2ZM75.0935 46.4615L84.5935 69.2615L86.8089 68.3385L77.3089 45.5385L75.0935 46.4615ZM86.8054 69.2698L96.5054 46.4698L94.297 45.5302L84.5969 68.3302L86.8054 69.2698ZM95.4012 47.2H105.201V44.8H95.4012V47.2ZM136.85 73.35H138.05V72.15H136.85V73.35ZM136.85 81V82.2H138.05V81H136.85ZM108.75 81H107.55V82.2H108.75V81ZM108.75 46V44.8H107.55V46H108.75ZM136.2 46H137.4V44.8H136.2V46ZM136.2 53.65V54.85H137.4V53.65H136.2ZM118.55 53.65V52.45H117.35V53.65H118.55ZM118.55 59.55H117.35V60.75H118.55V59.55ZM134.1 59.55H135.3V58.35H134.1V59.55ZM134.1 66.95V68.15H135.3V66.95H134.1ZM118.55 66.95V65.75H117.35V66.95H118.55ZM118.55 73.35H117.35V74.55H118.55V73.35ZM135.65 73.35V81H138.05V73.35H135.65ZM136.85 79.8H108.75V82.2H136.85V79.8ZM109.95 81V46H107.55V81H109.95ZM108.75 47.2H136.2V44.8H108.75V47.2ZM135 46V53.65H137.4V46H135ZM136.2 52.45H118.55V54.85H136.2V52.45ZM117.35 53.65V59.55H119.75V53.65H117.35ZM118.55 60.75H134.1V58.35H118.55V60.75ZM132.9 59.55V66.95H135.3V59.55H132.9ZM134.1 65.75H118.55V68.15H134.1V65.75ZM117.35 66.95V73.35H119.75V66.95H117.35ZM118.55 74.55H136.85V72.15H118.55V74.55ZM177.144 46H178.344V44.8H177.144V46ZM177.144 81V82.2H178.344V81H177.144ZM168.994 81L168.07 81.7655L168.43 82.2H168.994V81ZM153.544 62.35L154.468 61.5845L152.344 59.0204V62.35H153.544ZM153.544 81V82.2H154.744V81H153.544ZM143.844 81H142.644V82.2H143.844V81ZM143.844 46V44.8H142.644V46H143.844ZM151.994 46L152.918 45.2345L152.558 44.8H151.994V46ZM167.444 64.65L166.52 65.4155L168.644 67.9796V64.65H167.444ZM167.444 46V44.8H166.244V46H167.444ZM175.944 46V81H178.344V46H175.944ZM177.144 79.8H168.994V82.2H177.144V79.8ZM169.918 80.2345L154.468 61.5845L152.62 63.1155L168.07 81.7655L169.918 80.2345ZM152.344 62.35V81H154.744V62.35H152.344ZM153.544 79.8H143.844V82.2H153.544V79.8ZM145.044 81V46H142.644V81H145.044ZM143.844 47.2H151.994V44.8H143.844V47.2ZM151.07 46.7655L166.52 65.4155L168.368 63.8845L152.918 45.2345L151.07 46.7655ZM168.644 64.65V46H166.244V64.65H168.644ZM167.444 47.2H177.144V44.8H167.444V47.2ZM193.077 53.85H194.277V52.65H193.077V53.85ZM182.327 53.85H181.127V55.05H182.327V53.85ZM182.327 46V44.8H181.127V46H182.327ZM213.677 46H214.877V44.8H213.677V46ZM213.677 53.85V55.05H214.877V53.85H213.677ZM202.977 53.85V52.65H201.777V53.85H202.977ZM202.977 81V82.2H204.177V81H202.977ZM193.077 81H191.877V82.2H193.077V81ZM193.077 52.65H182.327V55.05H193.077V52.65ZM183.527 53.85V46H181.127V53.85H183.527ZM182.327 47.2H213.677V44.8H182.327V47.2ZM212.477 46V53.85H214.877V46H212.477ZM213.677 52.65H202.977V55.05H213.677V52.65ZM201.777 53.85V81H204.177V53.85H201.777ZM202.977 79.8H193.077V82.2H202.977V79.8ZM194.277 81V53.85H191.877V81H194.277ZM218.865 46V44.8H217.665V46H218.865ZM228.765 46H229.965V44.8H228.765V46ZM228.765 81V82.2H229.965V81H228.765ZM218.865 81H217.665V82.2H218.865V81ZM218.865 47.2H228.765V44.8H218.865V47.2ZM227.565 46V81H229.965V46H227.565ZM228.765 79.8H218.865V82.2H228.765V79.8ZM220.065 81V46H217.665V81H220.065ZM244.959 79.35L244.393 80.4085L244.398 80.4111L244.959 79.35ZM238.009 72.85L236.981 73.4692L236.986 73.4782L238.009 72.85ZM238.009 54.15L236.986 53.5217L236.981 53.5308L238.009 54.15ZM244.959 47.65L244.398 46.5889L244.393 46.5915L244.959 47.65ZM264.909 47.65L264.343 48.7085L264.348 48.7111L264.909 47.65ZM271.859 54.15L270.831 54.7692L270.836 54.7782L271.859 54.15ZM271.859 72.85L270.836 72.2217L270.831 72.2308L271.859 72.85ZM264.909 79.35L264.348 78.2889L264.343 78.2915L264.909 79.35ZM259.759 72.25L260.362 73.2874L260.362 73.2874L259.759 72.25ZM263.159 68.75L264.208 69.3328L264.213 69.323L263.159 68.75ZM263.159 58.3L262.104 58.873L262.11 58.8828L263.159 58.3ZM259.759 54.75L260.362 53.7126L260.362 53.7126L259.759 54.75ZM250.159 54.75L249.555 53.7126L249.555 53.7126L250.159 54.75ZM246.759 58.3L247.808 58.8828L247.813 58.873L246.759 58.3ZM246.759 68.75L245.704 69.323L245.71 69.3328L246.759 68.75ZM250.159 72.25L250.762 71.2126L250.762 71.2126L250.159 72.25ZM254.959 80.5C251.433 80.5 248.296 79.7552 245.519 78.2889L244.398 80.4111C247.555 82.0781 251.084 82.9 254.959 82.9V80.5ZM245.524 78.2915C242.774 76.8226 240.617 74.8025 239.031 72.2218L236.986 73.4782C238.8 76.4309 241.277 78.744 244.393 80.4085L245.524 78.2915ZM239.036 72.2308C237.491 69.6648 236.709 66.7651 236.709 63.5H234.309C234.309 67.1683 235.193 70.5019 236.981 73.4692L239.036 72.2308ZM236.709 63.5C236.709 60.2349 237.491 57.3352 239.036 54.7692L236.981 53.5308C235.193 56.4981 234.309 59.8317 234.309 63.5H236.709ZM239.031 54.7782C240.617 52.1975 242.774 50.1774 245.524 48.7085L244.393 46.5915C241.277 48.256 238.8 50.5691 236.986 53.5218L239.031 54.7782ZM245.519 48.7111C248.296 47.2448 251.433 46.5 254.959 46.5V44.1C251.084 44.1 247.555 44.9219 244.398 46.5889L245.519 48.7111ZM254.959 46.5C258.484 46.5 261.603 47.2448 264.343 48.7085L265.474 46.5915C262.348 44.9218 258.833 44.1 254.959 44.1V46.5ZM264.348 48.7111C267.13 50.1799 269.281 52.1971 270.831 54.7692L272.886 53.5308C271.103 50.5696 268.621 48.2534 265.469 46.5889L264.348 48.7111ZM270.836 54.7782C272.412 57.343 273.209 60.2395 273.209 63.5H275.609C275.609 59.8271 274.705 56.4903 272.881 53.5218L270.836 54.7782ZM273.209 63.5C273.209 66.7605 272.412 69.657 270.836 72.2218L272.881 73.4782C274.705 70.5097 275.609 67.1729 275.609 63.5H273.209ZM270.831 72.2308C269.281 74.8029 267.13 76.8201 264.348 78.2889L265.469 80.4111C268.621 78.7466 271.103 76.4304 272.886 73.4692L270.831 72.2308ZM264.343 78.2915C261.603 79.7552 258.484 80.5 254.959 80.5V82.9C258.833 82.9 262.348 82.0782 265.474 80.4085L264.343 78.2915ZM254.959 74.7C256.923 74.7 258.733 74.2342 260.362 73.2874L259.155 71.2126C257.917 71.9324 256.528 72.3 254.959 72.3V74.7ZM260.362 73.2874C261.989 72.3415 263.273 71.0148 264.208 69.3328L262.11 68.1672C261.377 69.4852 260.395 70.4918 259.155 71.2126L260.362 73.2874ZM264.213 69.323C265.153 67.5925 265.609 65.641 265.609 63.5H263.209C263.209 65.2923 262.83 66.8409 262.104 68.177L264.213 69.323ZM265.609 63.5C265.609 61.3595 265.154 59.4201 264.208 57.7172L262.11 58.8828C262.83 60.1799 263.209 61.7071 263.209 63.5H265.609ZM264.213 57.727C263.28 56.011 261.995 54.6624 260.362 53.7126L259.155 55.7874C260.388 56.5043 261.37 57.5223 262.104 58.873L264.213 57.727ZM260.362 53.7126C258.733 52.7658 256.923 52.3 254.959 52.3V54.7C256.528 54.7 257.917 55.0676 259.155 55.7874L260.362 53.7126ZM254.959 52.3C252.994 52.3 251.184 52.7658 249.555 53.7126L250.762 55.7874C252 55.0676 253.389 54.7 254.959 54.7V52.3ZM249.555 53.7126C247.922 54.6624 246.637 56.011 245.704 57.727L247.813 58.873C248.547 57.5223 249.529 56.5043 250.762 55.7874L249.555 53.7126ZM245.71 57.7172C244.764 59.4201 244.309 61.3595 244.309 63.5H246.709C246.709 61.7071 247.087 60.1799 247.808 58.8828L245.71 57.7172ZM244.309 63.5C244.309 65.641 244.764 67.5925 245.704 69.323L247.813 68.177C247.087 66.8409 246.709 65.2923 246.709 63.5H244.309ZM245.71 69.3328C246.644 71.0148 247.929 72.3415 249.555 73.2874L250.762 71.2126C249.522 70.4918 248.54 69.4852 247.808 68.1672L245.71 69.3328ZM249.555 73.2874C251.184 74.2342 252.994 74.7 254.959 74.7V72.3C253.389 72.3 252 71.9324 250.762 71.2126L249.555 73.2874ZM314.394 46H315.594V44.8H314.394V46ZM314.394 81V82.2H315.594V81H314.394ZM306.244 81L305.32 81.7655L305.68 82.2H306.244V81ZM290.794 62.35L291.718 61.5845L289.594 59.0204V62.35H290.794ZM290.794 81V82.2H291.994V81H290.794ZM281.094 81H279.894V82.2H281.094V81ZM281.094 46V44.8H279.894V46H281.094ZM289.244 46L290.168 45.2345L289.808 44.8H289.244V46ZM304.694 64.65L303.77 65.4155L305.894 67.9796V64.65H304.694ZM304.694 46V44.8H303.494V46H304.694ZM313.194 46V81H315.594V46H313.194ZM314.394 79.8H306.244V82.2H314.394V79.8ZM307.168 80.2345L291.718 61.5845L289.87 63.1155L305.32 81.7655L307.168 80.2345ZM289.594 62.35V81H291.994V62.35H289.594ZM290.794 79.8H281.094V82.2H290.794V79.8ZM282.294 81V46H279.894V81H282.294ZM281.094 47.2H289.244V44.8H281.094V47.2ZM288.32 46.7655L303.77 65.4155L305.618 63.8845L290.168 45.2345L288.32 46.7655ZM305.894 64.65V46H303.494V64.65H305.894ZM304.694 47.2H314.394V44.8H304.694V47.2ZM85.6916 140.4L85.1212 141.456L85.1284 141.46L85.1357 141.463L85.6916 140.4ZM78.8416 133.9L79.8695 133.281L79.8695 133.281L78.8416 133.9ZM78.8416 115.1L77.8137 114.481L77.8137 114.481L78.8416 115.1ZM85.6916 108.65L86.2525 109.711L86.2569 109.708L85.6916 108.65ZM104.242 108L103.757 109.098L103.757 109.098L104.242 108ZM110.642 112.9L111.447 113.79L112.283 113.034L111.58 112.152L110.642 112.9ZM104.342 118.6L103.418 119.366L104.218 120.33L105.147 119.49L104.342 118.6ZM90.9916 115.75L90.4088 114.701L90.3988 114.707L90.9916 115.75ZM87.5416 119.3L86.4872 118.727L86.4828 118.735L87.5416 119.3ZM87.5416 129.75L86.4777 130.305L86.485 130.319L86.4926 130.333L87.5416 129.75ZM90.9916 133.25L90.3988 134.293L90.4088 134.299L90.9916 133.25ZM104.342 130.4L105.147 129.51L104.218 128.67L103.418 129.634L104.342 130.4ZM110.642 136.1L111.58 136.848L112.283 135.966L111.447 135.21L110.642 136.1ZM104.242 141L103.757 139.902L103.757 139.902L104.242 141ZM95.5916 141.5C92.0973 141.5 88.9914 140.771 86.2475 139.337L85.1357 141.463C88.2585 143.096 91.7526 143.9 95.5916 143.9V141.5ZM86.262 139.344C83.5467 137.877 81.4231 135.86 79.8695 133.281L77.8137 134.519C79.5935 137.474 82.0365 139.789 85.1212 141.456L86.262 139.344ZM79.8695 133.281C78.3248 130.717 77.5416 127.801 77.5416 124.5H75.1416C75.1416 128.199 76.0251 131.55 77.8137 134.519L79.8695 133.281ZM77.5416 124.5C77.5416 121.199 78.3248 118.283 79.8695 115.719L77.8137 114.481C76.0251 117.45 75.1416 120.801 75.1416 124.5H77.5416ZM79.8695 115.719C81.4217 113.143 83.5423 111.144 86.2525 109.711L85.1307 107.589C82.041 109.223 79.5948 111.524 77.8137 114.481L79.8695 115.719ZM86.2569 109.708C88.999 108.244 92.1015 107.5 95.5916 107.5V105.1C91.7484 105.1 88.2509 105.923 85.1263 107.592L86.2569 109.708ZM95.5916 107.5C98.6481 107.5 101.363 108.041 103.757 109.098L104.726 106.902C101.987 105.693 98.9351 105.1 95.5916 105.1V107.5ZM103.757 109.098C106.152 110.155 108.127 111.671 109.703 113.648L111.58 112.152C109.756 109.863 107.465 108.112 104.726 106.902L103.757 109.098ZM109.837 112.01L103.537 117.71L105.147 119.49L111.447 113.79L109.837 112.01ZM105.265 117.834C102.796 114.856 99.72 113.3 96.0916 113.3V115.7C98.9298 115.7 101.354 116.877 103.418 119.366L105.265 117.834ZM96.0916 113.3C94.01 113.3 92.1057 113.758 90.4088 114.701L91.5744 116.799C92.8775 116.075 94.3732 115.7 96.0916 115.7V113.3ZM90.3988 114.707C88.7304 115.655 87.4236 117.004 86.4873 118.727L88.596 119.873C89.3262 118.529 90.3194 117.512 91.5844 116.793L90.3988 114.707ZM86.4828 118.735C85.5765 120.435 85.1416 122.367 85.1416 124.5H87.5416C87.5416 122.699 87.9067 121.165 88.6004 119.865L86.4828 118.735ZM85.1416 124.5C85.1416 126.633 85.5767 128.578 86.4777 130.305L88.6055 129.195C87.9065 127.855 87.5416 126.3 87.5416 124.5H85.1416ZM86.4926 130.333C87.4309 132.022 88.7372 133.349 90.3988 134.293L91.5844 132.207C90.3126 131.484 89.3189 130.478 88.5906 129.167L86.4926 130.333ZM90.4088 134.299C92.1057 135.242 94.01 135.7 96.0916 135.7V133.3C94.3732 133.3 92.8775 132.925 91.5744 132.201L90.4088 134.299ZM96.0916 135.7C99.72 135.7 102.796 134.144 105.265 131.166L103.418 129.634C101.354 132.123 98.9298 133.3 96.0916 133.3V135.7ZM103.537 131.29L109.837 136.99L111.447 135.21L105.147 129.51L103.537 131.29ZM109.703 135.352C108.127 137.329 106.152 138.845 103.757 139.902L104.726 142.098C107.465 140.888 109.756 139.137 111.58 136.848L109.703 135.352ZM103.757 139.902C101.363 140.959 98.6481 141.5 95.5916 141.5V143.9C98.9351 143.9 101.987 143.307 104.726 142.098L103.757 139.902ZM123.473 140.35L122.908 141.409L122.913 141.411L123.473 140.35ZM116.523 133.85L115.495 134.469L115.501 134.478L116.523 133.85ZM116.523 115.15L115.501 114.522L115.495 114.531L116.523 115.15ZM123.473 108.65L122.913 107.589L122.908 107.592L123.473 108.65ZM143.423 108.65L142.858 109.708L142.863 109.711L143.423 108.65ZM150.373 115.15L149.345 115.769L149.351 115.778L150.373 115.15ZM150.373 133.85L149.351 133.222L149.345 133.231L150.373 133.85ZM143.423 140.35L142.863 139.289L142.858 139.292L143.423 140.35ZM138.273 133.25L138.876 134.287L138.876 134.287L138.273 133.25ZM141.673 129.75L142.722 130.333L142.728 130.323L141.673 129.75ZM141.673 119.3L140.619 119.873L140.624 119.883L141.673 119.3ZM138.273 115.75L138.876 114.713L138.876 114.713L138.273 115.75ZM128.673 115.75L128.07 114.713L128.07 114.713L128.673 115.75ZM125.273 119.3L126.322 119.883L126.328 119.873L125.273 119.3ZM125.273 129.75L124.219 130.323L124.224 130.333L125.273 129.75ZM128.673 133.25L129.276 132.213L129.276 132.213L128.673 133.25ZM133.473 141.5C129.948 141.5 126.81 140.755 124.034 139.289L122.913 141.411C126.069 143.078 129.598 143.9 133.473 143.9V141.5ZM124.039 139.292C121.288 137.823 119.131 135.802 117.546 133.222L115.501 134.478C117.315 137.431 119.791 139.744 122.908 141.408L124.039 139.292ZM117.551 133.231C116.005 130.665 115.223 127.765 115.223 124.5H112.823C112.823 128.168 113.708 131.502 115.495 134.469L117.551 133.231ZM115.223 124.5C115.223 121.235 116.005 118.335 117.551 115.769L115.495 114.531C113.708 117.498 112.823 120.832 112.823 124.5H115.223ZM117.546 115.778C119.131 113.198 121.288 111.177 124.039 109.708L122.908 107.592C119.791 109.256 117.315 111.569 115.501 114.522L117.546 115.778ZM124.034 109.711C126.81 108.245 129.948 107.5 133.473 107.5V105.1C129.598 105.1 126.069 105.922 122.913 107.589L124.034 109.711ZM133.473 107.5C136.999 107.5 140.117 108.245 142.858 109.708L143.989 107.592C140.862 105.922 137.348 105.1 133.473 105.1V107.5ZM142.863 109.711C145.644 111.18 147.796 113.197 149.345 115.769L151.401 114.531C149.617 111.57 147.136 109.253 143.984 107.589L142.863 109.711ZM149.351 115.778C150.927 118.343 151.723 121.24 151.723 124.5H154.123C154.123 120.827 153.22 117.49 151.396 114.522L149.351 115.778ZM151.723 124.5C151.723 127.76 150.927 130.657 149.351 133.222L151.396 134.478C153.22 131.51 154.123 128.173 154.123 124.5H151.723ZM149.345 133.231C147.796 135.803 145.644 137.82 142.863 139.289L143.984 141.411C147.136 139.747 149.617 137.43 151.401 134.469L149.345 133.231ZM142.858 139.292C140.117 140.755 136.999 141.5 133.473 141.5V143.9C137.348 143.9 140.862 143.078 143.989 141.408L142.858 139.292ZM133.473 135.7C135.437 135.7 137.248 135.234 138.876 134.287L137.67 132.213C136.432 132.932 135.042 133.3 133.473 133.3V135.7ZM138.876 134.287C140.503 133.342 141.788 132.015 142.722 130.333L140.624 129.167C139.892 130.485 138.91 131.492 137.67 132.213L138.876 134.287ZM142.728 130.323C143.668 128.592 144.123 126.641 144.123 124.5H141.723C141.723 126.292 141.345 127.841 140.619 129.177L142.728 130.323ZM144.123 124.5C144.123 122.36 143.668 120.42 142.722 118.717L140.624 119.883C141.345 121.18 141.723 122.707 141.723 124.5H144.123ZM142.728 118.727C141.795 117.011 140.51 115.662 138.876 114.713L137.67 116.787C138.903 117.504 139.885 118.522 140.619 119.873L142.728 118.727ZM138.876 114.713C137.248 113.766 135.437 113.3 133.473 113.3V115.7C135.042 115.7 136.432 116.068 137.67 116.787L138.876 114.713ZM133.473 113.3C131.509 113.3 129.699 113.766 128.07 114.713L129.276 116.787C130.514 116.068 131.904 115.7 133.473 115.7V113.3ZM128.07 114.713C126.436 115.662 125.151 117.011 124.219 118.727L126.328 119.873C127.062 118.522 128.043 117.504 129.276 116.787L128.07 114.713ZM124.224 118.717C123.278 120.42 122.823 122.36 122.823 124.5H125.223C125.223 122.707 125.602 121.18 126.322 119.883L124.224 118.717ZM122.823 124.5C122.823 126.641 123.278 128.592 124.219 130.323L126.328 129.177C125.601 127.841 125.223 126.292 125.223 124.5H122.823ZM124.224 130.333C125.159 132.015 126.443 133.342 128.07 134.287L129.276 132.213C128.037 131.492 127.054 130.485 126.322 129.167L124.224 130.333ZM128.07 134.287C129.699 135.234 131.509 135.7 133.473 135.7V133.3C131.904 133.3 130.514 132.932 129.276 132.213L128.07 134.287ZM174.908 132.7L175.899 132.023L175.542 131.5H174.908V132.7ZM169.508 132.7V131.5H168.308V132.7H169.508ZM169.508 142V143.2H170.708V142H169.508ZM159.608 142H158.408V143.2H159.608V142ZM159.608 107V105.8H158.408V107H159.608ZM183.858 108.6L183.359 109.691L183.366 109.694L183.372 109.697L183.858 108.6ZM189.258 113.1L188.25 113.75L188.255 113.758L189.258 113.1ZM189.358 126.6L188.344 125.959L188.341 125.964L189.358 126.6ZM184.308 131L183.785 129.92L182.53 130.529L183.319 131.679L184.308 131ZM191.858 142V143.2H194.138L192.848 141.321L191.858 142ZM181.258 142L180.267 142.677L180.625 143.2H181.258V142ZM169.508 114.8V113.6H168.308V114.8H169.508ZM169.508 125.05H168.308V126.25H169.508V125.05ZM179.608 123.75L180.38 124.669L180.388 124.662L180.397 124.655L179.608 123.75ZM174.908 131.5H169.508V133.9H174.908V131.5ZM168.308 132.7V142H170.708V132.7H168.308ZM169.508 140.8H159.608V143.2H169.508V140.8ZM160.808 142V107H158.408V142H160.808ZM159.608 108.2H175.608V105.8H159.608V108.2ZM175.608 108.2C178.642 108.2 181.215 108.711 183.359 109.691L184.357 107.509C181.835 106.356 178.908 105.8 175.608 105.8V108.2ZM183.372 109.697C185.512 110.645 187.121 111.998 188.25 113.75L190.267 112.45C188.862 110.269 186.872 108.622 184.344 107.503L183.372 109.697ZM188.255 113.758C189.376 115.469 189.958 117.517 189.958 119.95H192.358C192.358 117.117 191.674 114.597 190.262 112.442L188.255 113.758ZM189.958 119.95C189.958 122.286 189.408 124.275 188.344 125.959L190.373 127.241C191.709 125.125 192.358 122.68 192.358 119.95H189.958ZM188.341 125.964C187.307 127.618 185.805 128.941 183.785 129.92L184.832 132.08C187.212 130.926 189.077 129.315 190.376 127.236L188.341 125.964ZM183.319 131.679L190.869 142.679L192.848 141.321L185.298 130.321L183.319 131.679ZM191.858 140.8H181.258V143.2H191.858V140.8ZM182.249 141.323L175.899 132.023L173.917 133.377L180.267 142.677L182.249 141.323ZM182.358 119.95C182.358 118.043 181.742 116.417 180.397 115.245L178.82 117.055C179.541 117.683 179.958 118.591 179.958 119.95H182.358ZM180.397 115.245C179.06 114.081 177.195 113.6 175.008 113.6V116C176.888 116 178.09 116.419 178.82 117.055L180.397 115.245ZM175.008 113.6H169.508V116H175.008V113.6ZM168.308 114.8V125.05H170.708V114.8H168.308ZM169.508 126.25H175.008V123.85H169.508V126.25ZM175.008 126.25C177.186 126.25 179.044 125.79 180.38 124.669L178.837 122.831C178.106 123.444 176.897 123.85 175.008 123.85V126.25ZM180.397 124.655C181.742 123.483 182.358 121.857 182.358 119.95H179.958C179.958 121.309 179.541 122.217 178.82 122.845L180.397 124.655ZM222.37 108.6L221.871 109.691L221.878 109.694L221.884 109.697L222.37 108.6ZM227.77 113.1L226.761 113.75L226.766 113.758L227.77 113.1ZM227.77 126.8L228.774 127.458L228.774 127.458L227.77 126.8ZM222.37 131.3L222.856 132.397L222.863 132.394L222.869 132.391L222.37 131.3ZM208.02 132.85V131.65H206.82V132.85H208.02ZM208.02 142V143.2H209.22V142H208.02ZM198.12 142H196.92V143.2H198.12V142ZM198.12 107V105.8H196.92V107H198.12ZM218.12 123.75L218.891 124.669L218.9 124.662L218.908 124.655L218.12 123.75ZM208.02 114.8V113.6H206.82V114.8H208.02ZM208.02 125.05H206.82V126.25H208.02V125.05ZM214.12 108.2C217.154 108.2 219.727 108.711 221.871 109.691L222.869 107.509C220.347 106.356 217.42 105.8 214.12 105.8V108.2ZM221.884 109.697C224.024 110.645 225.633 111.998 226.761 113.75L228.779 112.45C227.374 110.269 225.383 108.622 222.856 107.503L221.884 109.697ZM226.766 113.758C227.888 115.469 228.47 117.517 228.47 119.95H230.87C230.87 117.117 230.186 114.597 228.774 112.442L226.766 113.758ZM228.47 119.95C228.47 122.383 227.888 124.431 226.766 126.142L228.774 127.458C230.186 125.303 230.87 122.783 230.87 119.95H228.47ZM226.766 126.142C225.637 127.866 224.022 129.225 221.871 130.209L222.869 132.391C225.385 131.241 227.37 129.601 228.774 127.458L226.766 126.142ZM221.884 130.203C219.736 131.154 217.159 131.65 214.12 131.65V134.05C217.415 134.05 220.337 133.513 222.856 132.397L221.884 130.203ZM214.12 131.65H208.02V134.05H214.12V131.65ZM206.82 132.85V142H209.22V132.85H206.82ZM208.02 140.8H198.12V143.2H208.02V140.8ZM199.32 142V107H196.92V142H199.32ZM198.12 108.2H214.12V105.8H198.12V108.2ZM213.52 126.25C215.698 126.25 217.556 125.79 218.891 124.669L217.349 122.831C216.618 123.444 215.409 123.85 213.52 123.85V126.25ZM218.908 124.655C220.254 123.483 220.87 121.857 220.87 119.95H218.47C218.47 121.309 218.053 122.217 217.332 122.845L218.908 124.655ZM220.87 119.95C220.87 118.043 220.254 116.417 218.908 115.245L217.332 117.055C218.053 117.683 218.47 118.591 218.47 119.95H220.87ZM218.908 115.245C217.572 114.081 215.707 113.6 213.52 113.6V116C215.4 116 216.602 116.419 217.332 117.055L218.908 115.245ZM213.52 113.6H208.02V116H213.52V113.6ZM206.82 114.8V125.05H209.22V114.8H206.82ZM208.02 126.25H213.52V123.85H208.02V126.25ZM240.535 141.65L240.84 140.489L240.84 140.489L240.535 141.65ZM234.035 138.85L232.939 138.362L232.537 139.266L233.347 139.833L234.035 138.85ZM237.285 131.55L237.946 130.548L236.765 129.769L236.189 131.062L237.285 131.55ZM242.735 134.05L243.087 132.903L243.087 132.903L242.735 134.05ZM252.885 129.95L252.376 131.037L252.396 131.046L252.417 131.055L252.885 129.95ZM247.685 128.4L247.946 127.229L247.938 127.227L247.685 128.4ZM241.085 126.6L240.662 127.723L240.671 127.726L240.68 127.73L241.085 126.6ZM236.385 111.9L237.375 112.579L237.381 112.57L236.385 111.9ZM241.585 107.8L241.113 106.697L241.107 106.7L241.585 107.8ZM256.935 107.1L256.657 108.267L256.665 108.269L256.673 108.271L256.935 107.1ZM262.835 109.35L263.944 109.81L264.344 108.845L263.444 108.316L262.835 109.35ZM259.785 116.7L259.215 117.756L260.384 118.387L260.894 117.16L259.785 116.7ZM245.785 114.9L246.425 115.915L246.438 115.907L246.451 115.898L245.785 114.9ZM246.035 119.25L245.554 120.349L245.554 120.349L246.035 119.25ZM251.185 120.7L251.435 119.526L251.433 119.526L251.185 120.7ZM257.785 122.55L257.355 123.67L257.367 123.675L257.38 123.68L257.785 122.55ZM262.335 125.65L261.436 126.445L261.446 126.456L261.456 126.467L262.335 125.65ZM262.535 137.1L261.546 136.421L261.546 136.421L262.535 137.1ZM257.285 141.2L257.758 142.303L257.765 142.3L257.771 142.297L257.285 141.2ZM248.785 141.5C246.052 141.5 243.405 141.162 240.84 140.489L240.231 142.811C243 143.538 245.852 143.9 248.785 143.9V141.5ZM240.84 140.489C238.265 139.813 236.241 138.929 234.724 137.867L233.347 139.833C235.163 141.104 237.472 142.087 240.231 142.811L240.84 140.489ZM235.132 139.338L238.382 132.038L236.189 131.062L232.939 138.362L235.132 139.338ZM236.625 132.552C238.3 133.657 240.224 134.535 242.384 135.197L243.087 132.903C241.114 132.298 239.404 131.51 237.946 130.548L236.625 132.552ZM242.384 135.197C244.555 135.863 246.707 136.2 248.835 136.2V133.8C246.964 133.8 245.049 133.504 243.087 132.903L242.384 135.197ZM248.835 136.2C250.797 136.2 252.446 135.961 253.647 135.361C254.264 135.052 254.799 134.63 255.178 134.063C255.561 133.488 255.735 132.835 255.735 132.15H253.335C253.335 132.415 253.273 132.593 253.181 132.731C253.084 132.877 252.906 133.048 252.574 133.214C251.874 133.564 250.674 133.8 248.835 133.8V136.2ZM255.735 132.15C255.735 131.415 255.528 130.724 255.083 130.13C254.648 129.55 254.041 129.137 253.354 128.845L252.417 131.055C252.83 131.23 253.048 131.417 253.163 131.57C253.268 131.71 253.335 131.885 253.335 132.15H255.735ZM253.395 128.863C252.202 128.304 250.36 127.765 247.946 127.229L247.425 129.571C249.811 130.102 251.436 130.596 252.376 131.037L253.395 128.863ZM247.938 127.227C245.336 126.667 243.191 126.08 241.49 125.47L240.68 127.73C242.513 128.387 244.768 129 247.433 129.573L247.938 127.227ZM241.509 125.477C239.928 124.881 238.574 123.944 237.435 122.655L235.636 124.245C237.03 125.822 238.71 126.986 240.662 127.723L241.509 125.477ZM237.435 122.655C236.41 121.496 235.835 119.873 235.835 117.65H233.435C233.435 120.294 234.127 122.537 235.636 124.245L237.435 122.655ZM235.835 117.65C235.835 115.75 236.35 114.072 237.375 112.579L235.396 111.221C234.087 113.128 233.435 115.283 233.435 117.65H235.835ZM237.381 112.57C238.396 111.062 239.931 109.828 242.064 108.9L241.107 106.7C238.639 107.772 236.708 109.272 235.39 111.23L237.381 112.57ZM242.058 108.903C244.202 107.984 246.881 107.5 250.135 107.5V105.1C246.656 105.1 243.636 105.616 241.113 106.697L242.058 108.903ZM250.135 107.5C252.342 107.5 254.515 107.756 256.657 108.267L257.214 105.933C254.889 105.378 252.529 105.1 250.135 105.1V107.5ZM256.673 108.271C258.804 108.748 260.65 109.457 262.227 110.384L263.444 108.316C261.621 107.243 259.534 106.452 257.198 105.929L256.673 108.271ZM261.727 108.89L258.677 116.24L260.894 117.16L263.944 109.81L261.727 108.89ZM260.356 115.644C256.883 113.769 253.455 112.8 250.085 112.8V115.2C252.982 115.2 256.021 116.031 259.215 117.756L260.356 115.644ZM250.085 112.8C248.049 112.8 246.321 113.101 245.12 113.902L246.451 115.898C247.05 115.499 248.188 115.2 250.085 115.2V112.8ZM245.146 113.885C243.954 114.635 243.235 115.741 243.235 117.15H245.635C245.635 116.693 245.816 116.299 246.425 115.915L245.146 113.885ZM243.235 117.15C243.235 117.862 243.445 118.53 243.881 119.102C244.305 119.659 244.892 120.06 245.554 120.349L246.516 118.151C246.112 117.974 245.899 117.791 245.79 117.648C245.692 117.52 245.635 117.371 245.635 117.15H243.235ZM245.554 120.349C246.74 120.868 248.557 121.371 250.937 121.874L251.433 119.526C249.08 119.029 247.465 118.565 246.516 118.151L245.554 120.349ZM250.936 121.874C253.567 122.433 255.701 123.034 257.355 123.67L258.216 121.43C256.404 120.733 254.137 120.101 251.435 119.526L250.936 121.874ZM257.38 123.68C258.953 124.243 260.301 125.16 261.436 126.445L263.235 124.855C261.837 123.274 260.151 122.123 258.19 121.42L257.38 123.68ZM261.456 126.467C262.498 127.589 263.085 129.184 263.085 131.4H265.485C265.485 128.75 264.773 126.511 263.215 124.833L261.456 126.467ZM263.085 131.4C263.085 133.262 262.573 134.925 261.546 136.421L263.525 137.779C264.831 135.875 265.485 133.738 265.485 131.4H263.085ZM261.546 136.421C260.532 137.899 258.978 139.138 256.799 140.103L257.771 142.297C260.26 141.195 262.205 139.701 263.525 137.779L261.546 136.421ZM256.813 140.097C254.668 141.016 252.005 141.5 248.785 141.5V143.9C252.233 143.9 255.236 143.384 257.758 142.303L256.813 140.097Z" fill="black"/>
<path d="M139.368 8.8L133.466 27H127.954L124.47 15.924L120.83 27H115.318L109.416 8.8H114.72L118.386 20.422L122.234 8.8H126.966L130.632 20.526L134.454 8.8H139.368ZM154.342 19.98C154.342 20.0147 154.316 20.422 154.264 21.202H144.02C144.228 21.93 144.626 22.4933 145.216 22.892C145.822 23.2733 146.576 23.464 147.478 23.464C148.154 23.464 148.734 23.3687 149.22 23.178C149.722 22.9873 150.225 22.6753 150.728 22.242L153.328 24.946C151.958 26.4713 149.956 27.234 147.322 27.234C145.675 27.234 144.228 26.922 142.98 26.298C141.732 25.674 140.761 24.8073 140.068 23.698C139.392 22.5887 139.054 21.332 139.054 19.928C139.054 18.5413 139.383 17.302 140.042 16.21C140.718 15.1007 141.645 14.234 142.824 13.61C144.002 12.986 145.328 12.674 146.802 12.674C148.206 12.674 149.48 12.9687 150.624 13.558C151.768 14.13 152.669 14.9707 153.328 16.08C154.004 17.172 154.342 18.472 154.342 19.98ZM146.828 16.184C146.065 16.184 145.424 16.4007 144.904 16.834C144.401 17.2673 144.08 17.8567 143.942 18.602H149.714C149.575 17.8567 149.246 17.2673 148.726 16.834C148.223 16.4007 147.59 16.184 146.828 16.184ZM170.192 12.674C172.532 12.674 174.317 13.2113 175.548 14.286C176.778 15.3433 177.394 16.9727 177.394 19.174V27H172.792V25.18C172.081 26.5493 170.694 27.234 168.632 27.234C167.54 27.234 166.595 27.0433 165.798 26.662C165 26.2807 164.394 25.7693 163.978 25.128C163.579 24.4693 163.38 23.724 163.38 22.892C163.38 21.5573 163.891 20.526 164.914 19.798C165.936 19.0527 167.514 18.68 169.646 18.68H172.454C172.367 17.1893 171.37 16.444 169.464 16.444C168.788 16.444 168.103 16.5567 167.41 16.782C166.716 16.99 166.127 17.2847 165.642 17.666L163.978 14.312C164.758 13.792 165.702 13.3933 166.812 13.116C167.938 12.8213 169.065 12.674 170.192 12.674ZM170.01 24.114C170.582 24.114 171.084 23.9753 171.518 23.698C171.951 23.4207 172.263 23.0133 172.454 22.476V21.254H170.322C168.883 21.254 168.164 21.7307 168.164 22.684C168.164 23.1173 168.328 23.464 168.658 23.724C168.987 23.984 169.438 24.114 170.01 24.114ZM185.218 14.598C185.72 13.9567 186.37 13.48 187.168 13.168C187.982 12.8387 188.91 12.674 189.95 12.674V17.12C189.499 17.068 189.126 17.042 188.832 17.042C187.774 17.042 186.942 17.328 186.336 17.9C185.746 18.472 185.452 19.3473 185.452 20.526V27H180.512V12.908H185.218V14.598ZM206.265 19.98C206.265 20.0147 206.239 20.422 206.187 21.202H195.943C196.151 21.93 196.55 22.4933 197.139 22.892C197.746 23.2733 198.5 23.464 199.401 23.464C200.077 23.464 200.658 23.3687 201.143 23.178C201.646 22.9873 202.149 22.6753 202.651 22.242L205.251 24.946C203.882 26.4713 201.88 27.234 199.245 27.234C197.599 27.234 196.151 26.922 194.903 26.298C193.655 25.674 192.685 24.8073 191.991 23.698C191.315 22.5887 190.977 21.332 190.977 19.928C190.977 18.5413 191.307 17.302 191.965 16.21C192.641 15.1007 193.569 14.234 194.747 13.61C195.926 12.986 197.252 12.674 198.725 12.674C200.129 12.674 201.403 12.9687 202.547 13.558C203.691 14.13 204.593 14.9707 205.251 16.08C205.927 17.172 206.265 18.472 206.265 19.98ZM198.751 16.184C197.989 16.184 197.347 16.4007 196.827 16.834C196.325 17.2673 196.004 17.8567 195.865 18.602H201.637C201.499 17.8567 201.169 17.2673 200.649 16.834C200.147 16.4007 199.514 16.184 198.751 16.184Z" fill="white"/>
<path d="M141.368 6.8L135.466 25H129.954L126.47 13.924L122.83 25H117.318L111.416 6.8H116.72L120.386 18.422L124.234 6.8H128.966L132.632 18.526L136.454 6.8H141.368ZM156.342 17.98C156.342 18.0147 156.316 18.422 156.264 19.202H146.02C146.228 19.93 146.626 20.4933 147.216 20.892C147.822 21.2733 148.576 21.464 149.478 21.464C150.154 21.464 150.734 21.3687 151.22 21.178C151.722 20.9873 152.225 20.6753 152.728 20.242L155.328 22.946C153.958 24.4713 151.956 25.234 149.322 25.234C147.675 25.234 146.228 24.922 144.98 24.298C143.732 23.674 142.761 22.8073 142.068 21.698C141.392 20.5887 141.054 19.332 141.054 17.928C141.054 16.5413 141.383 15.302 142.042 14.21C142.718 13.1007 143.645 12.234 144.824 11.61C146.002 10.986 147.328 10.674 148.802 10.674C150.206 10.674 151.48 10.9687 152.624 11.558C153.768 12.13 154.669 12.9707 155.328 14.08C156.004 15.172 156.342 16.472 156.342 17.98ZM148.828 14.184C148.065 14.184 147.424 14.4007 146.904 14.834C146.401 15.2673 146.08 15.8567 145.942 16.602H151.714C151.575 15.8567 151.246 15.2673 150.726 14.834C150.223 14.4007 149.59 14.184 148.828 14.184ZM172.192 10.674C174.532 10.674 176.317 11.2113 177.548 12.286C178.778 13.3433 179.394 14.9727 179.394 17.174V25H174.792V23.18C174.081 24.5493 172.694 25.234 170.632 25.234C169.54 25.234 168.595 25.0433 167.798 24.662C167 24.2807 166.394 23.7693 165.978 23.128C165.579 22.4693 165.38 21.724 165.38 20.892C165.38 19.5573 165.891 18.526 166.914 17.798C167.936 17.0527 169.514 16.68 171.646 16.68H174.454C174.367 15.1893 173.37 14.444 171.464 14.444C170.788 14.444 170.103 14.5567 169.41 14.782C168.716 14.99 168.127 15.2847 167.642 15.666L165.978 12.312C166.758 11.792 167.702 11.3933 168.812 11.116C169.938 10.8213 171.065 10.674 172.192 10.674ZM172.01 22.114C172.582 22.114 173.084 21.9753 173.518 21.698C173.951 21.4207 174.263 21.0133 174.454 20.476V19.254H172.322C170.883 19.254 170.164 19.7307 170.164 20.684C170.164 21.1173 170.328 21.464 170.658 21.724C170.987 21.984 171.438 22.114 172.01 22.114ZM187.218 12.598C187.72 11.9567 188.37 11.48 189.168 11.168C189.982 10.8387 190.91 10.674 191.95 10.674V15.12C191.499 15.068 191.126 15.042 190.832 15.042C189.774 15.042 188.942 15.328 188.336 15.9C187.746 16.472 187.452 17.3473 187.452 18.526V25H182.512V10.908H187.218V12.598ZM208.265 17.98C208.265 18.0147 208.239 18.422 208.187 19.202H197.943C198.151 19.93 198.55 20.4933 199.139 20.892C199.746 21.2733 200.5 21.464 201.401 21.464C202.077 21.464 202.658 21.3687 203.143 21.178C203.646 20.9873 204.149 20.6753 204.651 20.242L207.251 22.946C205.882 24.4713 203.88 25.234 201.245 25.234C199.599 25.234 198.151 24.922 196.903 24.298C195.655 23.674 194.685 22.8073 193.991 21.698C193.315 20.5887 192.977 19.332 192.977 17.928C192.977 16.5413 193.307 15.302 193.965 14.21C194.641 13.1007 195.569 12.234 196.747 11.61C197.926 10.986 199.252 10.674 200.725 10.674C202.129 10.674 203.403 10.9687 204.547 11.558C205.691 12.13 206.593 12.9707 207.251 14.08C207.927 15.172 208.265 16.472 208.265 17.98ZM200.751 14.184C199.989 14.184 199.347 14.4007 198.827 14.834C198.325 15.2673 198.004 15.8567 197.865 16.602H203.637C203.499 15.8567 203.169 15.2673 202.649 14.834C202.147 14.4007 201.514 14.184 200.751 14.184Z" fill="black"/>
<path d="M105.574 182.058C106.234 182.322 106.74 182.718 107.092 183.246C107.459 183.759 107.642 184.39 107.642 185.138C107.642 186.737 107.011 187.947 105.75 188.768C104.489 189.589 102.809 190 100.712 190H92.638L95.718 174.6H103.154C104.811 174.6 106.087 174.908 106.982 175.524C107.877 176.125 108.324 176.991 108.324 178.12C108.324 179.059 108.075 179.865 107.576 180.54C107.092 181.2 106.425 181.706 105.574 182.058ZM98.71 177.284L97.984 180.914H101.614C102.553 180.914 103.279 180.731 103.792 180.364C104.32 179.983 104.584 179.44 104.584 178.736C104.584 177.768 103.829 177.284 102.318 177.284H98.71ZM100.932 187.316C101.929 187.316 102.707 187.125 103.264 186.744C103.821 186.363 104.1 185.813 104.1 185.094C104.1 184.038 103.33 183.51 101.79 183.51H97.478L96.73 187.316H100.932ZM122.088 183.202C122.088 183.745 122.022 184.346 121.89 185.006H112.826C112.944 186.619 113.963 187.426 115.884 187.426C116.486 187.426 117.058 187.331 117.6 187.14C118.158 186.949 118.642 186.678 119.052 186.326L120.482 188.592C119.822 189.12 119.067 189.516 118.216 189.78C117.366 190.044 116.471 190.176 115.532 190.176C114.315 190.176 113.244 189.963 112.32 189.538C111.411 189.098 110.707 188.475 110.208 187.668C109.724 186.861 109.482 185.93 109.482 184.874C109.482 183.569 109.776 182.395 110.362 181.354C110.964 180.298 111.792 179.477 112.848 178.89C113.904 178.289 115.107 177.988 116.456 177.988C117.6 177.988 118.59 178.201 119.426 178.626C120.277 179.051 120.93 179.66 121.384 180.452C121.854 181.244 122.088 182.161 122.088 183.202ZM116.302 180.562C115.496 180.562 114.814 180.782 114.256 181.222C113.699 181.647 113.303 182.241 113.068 183.004H118.942C118.942 182.241 118.7 181.647 118.216 181.222C117.747 180.782 117.109 180.562 116.302 180.562ZM128.379 179.572C128.892 179.015 129.508 178.611 130.227 178.362C130.96 178.113 131.818 177.988 132.801 177.988L132.185 181.156C131.774 181.127 131.51 181.112 131.393 181.112C130.351 181.112 129.515 181.369 128.885 181.882C128.269 182.395 127.851 183.195 127.631 184.28L126.487 190H123.055L125.409 178.164H128.665L128.379 179.572ZM141.265 183.312L145.335 190H141.353L138.537 185.402L136.447 187.14L135.875 190H132.443L135.699 173.676H139.131L137.305 182.806L142.981 178.164H147.447L141.265 183.312ZM158.955 183.202C158.955 183.745 158.889 184.346 158.757 185.006H149.693C149.811 186.619 150.83 187.426 152.751 187.426C153.353 187.426 153.925 187.331 154.467 187.14C155.025 186.949 155.509 186.678 155.919 186.326L157.349 188.592C156.689 189.12 155.934 189.516 155.083 189.78C154.233 190.044 153.338 190.176 152.399 190.176C151.182 190.176 150.111 189.963 149.187 189.538C148.278 189.098 147.574 188.475 147.075 187.668C146.591 186.861 146.349 185.93 146.349 184.874C146.349 183.569 146.643 182.395 147.229 181.354C147.831 180.298 148.659 179.477 149.715 178.89C150.771 178.289 151.974 177.988 153.323 177.988C154.467 177.988 155.457 178.201 156.293 178.626C157.144 179.051 157.797 179.66 158.251 180.452C158.721 181.244 158.955 182.161 158.955 183.202ZM153.169 180.562C152.363 180.562 151.681 180.782 151.123 181.222C150.566 181.647 150.17 182.241 149.935 183.004H155.809C155.809 182.241 155.567 181.647 155.083 181.222C154.614 180.782 153.976 180.562 153.169 180.562ZM163.178 173.676H166.61L163.354 190H159.922L163.178 173.676ZM179.387 183.202C179.387 183.745 179.321 184.346 179.189 185.006H170.125C170.242 186.619 171.262 187.426 173.183 187.426C173.784 187.426 174.356 187.331 174.899 187.14C175.456 186.949 175.94 186.678 176.351 186.326L177.781 188.592C177.121 189.12 176.366 189.516 175.515 189.78C174.664 190.044 173.77 190.176 172.831 190.176C171.614 190.176 170.543 189.963 169.619 189.538C168.71 189.098 168.006 188.475 167.507 187.668C167.023 186.861 166.781 185.93 166.781 184.874C166.781 183.569 167.074 182.395 167.661 181.354C168.262 180.298 169.091 179.477 170.147 178.89C171.203 178.289 172.406 177.988 173.755 177.988C174.899 177.988 175.889 178.201 176.725 178.626C177.576 179.051 178.228 179.66 178.683 180.452C179.152 181.244 179.387 182.161 179.387 183.202ZM173.601 180.562C172.794 180.562 172.112 180.782 171.555 181.222C170.998 181.647 170.602 182.241 170.367 183.004H176.241C176.241 182.241 175.999 181.647 175.515 181.222C175.046 180.782 174.408 180.562 173.601 180.562ZM194.241 178.164L186.365 190.792C185.514 192.171 184.685 193.124 183.879 193.652C183.087 194.18 182.111 194.444 180.953 194.444C180.337 194.444 179.735 194.349 179.149 194.158C178.547 193.967 178.078 193.718 177.741 193.41L179.325 190.946C179.853 191.43 180.483 191.672 181.217 191.672C181.657 191.672 182.038 191.562 182.361 191.342C182.683 191.122 183.013 190.748 183.351 190.22L183.461 190.022L180.733 178.164H184.165L185.925 186.216L190.853 178.164H194.241ZM194.404 185.908C194.991 185.908 195.467 186.091 195.834 186.458C196.215 186.825 196.406 187.301 196.406 187.888C196.406 188.196 196.347 188.489 196.23 188.768C196.127 189.032 195.929 189.391 195.636 189.846L193.436 193.388H191.28L192.974 189.846C192.71 189.67 192.497 189.443 192.336 189.164C192.189 188.871 192.116 188.548 192.116 188.196C192.116 187.521 192.336 186.971 192.776 186.546C193.216 186.121 193.759 185.908 194.404 185.908ZM212.882 190.264C211.342 190.264 209.993 189.985 208.834 189.428C207.69 188.871 206.81 188.086 206.194 187.074C205.578 186.062 205.27 184.896 205.27 183.576C205.27 181.831 205.666 180.261 206.458 178.868C207.265 177.46 208.394 176.353 209.846 175.546C211.298 174.739 212.963 174.336 214.84 174.336C216.219 174.336 217.436 174.571 218.492 175.04C219.548 175.509 220.348 176.184 220.89 177.064L218.316 179.176C217.495 177.973 216.256 177.372 214.598 177.372C213.469 177.372 212.472 177.636 211.606 178.164C210.741 178.692 210.066 179.411 209.582 180.32C209.113 181.229 208.878 182.241 208.878 183.356C208.878 184.544 209.252 185.49 210 186.194C210.763 186.883 211.826 187.228 213.19 187.228C214.818 187.228 216.182 186.634 217.282 185.446L219.394 187.602C217.869 189.377 215.698 190.264 212.882 190.264ZM231.576 186.7H224.404L222.402 190H218.596L228.562 174.6H232.082L235.866 190H232.302L231.576 186.7ZM230.982 183.994L229.684 178.054L226.054 183.994H230.982Z" fill="white"/>
<path d="M109.574 179.058C110.234 179.322 110.74 179.718 111.092 180.246C111.459 180.759 111.642 181.39 111.642 182.138C111.642 183.737 111.011 184.947 109.75 185.768C108.489 186.589 106.809 187 104.712 187H96.638L99.718 171.6H107.154C108.811 171.6 110.087 171.908 110.982 172.524C111.877 173.125 112.324 173.991 112.324 175.12C112.324 176.059 112.075 176.865 111.576 177.54C111.092 178.2 110.425 178.706 109.574 179.058ZM102.71 174.284L101.984 177.914H105.614C106.553 177.914 107.279 177.731 107.792 177.364C108.32 176.983 108.584 176.44 108.584 175.736C108.584 174.768 107.829 174.284 106.318 174.284H102.71ZM104.932 184.316C105.929 184.316 106.707 184.125 107.264 183.744C107.821 183.363 108.1 182.813 108.1 182.094C108.1 181.038 107.33 180.51 105.79 180.51H101.478L100.73 184.316H104.932ZM126.088 180.202C126.088 180.745 126.022 181.346 125.89 182.006H116.826C116.944 183.619 117.963 184.426 119.884 184.426C120.486 184.426 121.058 184.331 121.6 184.14C122.158 183.949 122.642 183.678 123.052 183.326L124.482 185.592C123.822 186.12 123.067 186.516 122.216 186.78C121.366 187.044 120.471 187.176 119.532 187.176C118.315 187.176 117.244 186.963 116.32 186.538C115.411 186.098 114.707 185.475 114.208 184.668C113.724 183.861 113.482 182.93 113.482 181.874C113.482 180.569 113.776 179.395 114.362 178.354C114.964 177.298 115.792 176.477 116.848 175.89C117.904 175.289 119.107 174.988 120.456 174.988C121.6 174.988 122.59 175.201 123.426 175.626C124.277 176.051 124.93 176.66 125.384 177.452C125.854 178.244 126.088 179.161 126.088 180.202ZM120.302 177.562C119.496 177.562 118.814 177.782 118.256 178.222C117.699 178.647 117.303 179.241 117.068 180.004H122.942C122.942 179.241 122.7 178.647 122.216 178.222C121.747 177.782 121.109 177.562 120.302 177.562ZM132.379 176.572C132.892 176.015 133.508 175.611 134.227 175.362C134.96 175.113 135.818 174.988 136.801 174.988L136.185 178.156C135.774 178.127 135.51 178.112 135.393 178.112C134.351 178.112 133.515 178.369 132.885 178.882C132.269 179.395 131.851 180.195 131.631 181.28L130.487 187H127.055L129.409 175.164H132.665L132.379 176.572ZM145.265 180.312L149.335 187H145.353L142.537 182.402L140.447 184.14L139.875 187H136.443L139.699 170.676H143.131L141.305 179.806L146.981 175.164H151.447L145.265 180.312ZM162.955 180.202C162.955 180.745 162.889 181.346 162.757 182.006H153.693C153.811 183.619 154.83 184.426 156.751 184.426C157.353 184.426 157.925 184.331 158.467 184.14C159.025 183.949 159.509 183.678 159.919 183.326L161.349 185.592C160.689 186.12 159.934 186.516 159.083 186.78C158.233 187.044 157.338 187.176 156.399 187.176C155.182 187.176 154.111 186.963 153.187 186.538C152.278 186.098 151.574 185.475 151.075 184.668C150.591 183.861 150.349 182.93 150.349 181.874C150.349 180.569 150.643 179.395 151.229 178.354C151.831 177.298 152.659 176.477 153.715 175.89C154.771 175.289 155.974 174.988 157.323 174.988C158.467 174.988 159.457 175.201 160.293 175.626C161.144 176.051 161.797 176.66 162.251 177.452C162.721 178.244 162.955 179.161 162.955 180.202ZM157.169 177.562C156.363 177.562 155.681 177.782 155.123 178.222C154.566 178.647 154.17 179.241 153.935 180.004H159.809C159.809 179.241 159.567 178.647 159.083 178.222C158.614 177.782 157.976 177.562 157.169 177.562ZM167.178 170.676H170.61L167.354 187H163.922L167.178 170.676ZM183.387 180.202C183.387 180.745 183.321 181.346 183.189 182.006H174.125C174.242 183.619 175.262 184.426 177.183 184.426C177.784 184.426 178.356 184.331 178.899 184.14C179.456 183.949 179.94 183.678 180.351 183.326L181.781 185.592C181.121 186.12 180.366 186.516 179.515 186.78C178.664 187.044 177.77 187.176 176.831 187.176C175.614 187.176 174.543 186.963 173.619 186.538C172.71 186.098 172.006 185.475 171.507 184.668C171.023 183.861 170.781 182.93 170.781 181.874C170.781 180.569 171.074 179.395 171.661 178.354C172.262 177.298 173.091 176.477 174.147 175.89C175.203 175.289 176.406 174.988 177.755 174.988C178.899 174.988 179.889 175.201 180.725 175.626C181.576 176.051 182.228 176.66 182.683 177.452C183.152 178.244 183.387 179.161 183.387 180.202ZM177.601 177.562C176.794 177.562 176.112 177.782 175.555 178.222C174.998 178.647 174.602 179.241 174.367 180.004H180.241C180.241 179.241 179.999 178.647 179.515 178.222C179.046 177.782 178.408 177.562 177.601 177.562ZM198.241 175.164L190.365 187.792C189.514 189.171 188.685 190.124 187.879 190.652C187.087 191.18 186.111 191.444 184.953 191.444C184.337 191.444 183.735 191.349 183.149 191.158C182.547 190.967 182.078 190.718 181.741 190.41L183.325 187.946C183.853 188.43 184.483 188.672 185.217 188.672C185.657 188.672 186.038 188.562 186.361 188.342C186.683 188.122 187.013 187.748 187.351 187.22L187.461 187.022L184.733 175.164H188.165L189.925 183.216L194.853 175.164H198.241ZM198.404 182.908C198.991 182.908 199.467 183.091 199.834 183.458C200.215 183.825 200.406 184.301 200.406 184.888C200.406 185.196 200.347 185.489 200.23 185.768C200.127 186.032 199.929 186.391 199.636 186.846L197.436 190.388H195.28L196.974 186.846C196.71 186.67 196.497 186.443 196.336 186.164C196.189 185.871 196.116 185.548 196.116 185.196C196.116 184.521 196.336 183.971 196.776 183.546C197.216 183.121 197.759 182.908 198.404 182.908ZM216.882 187.264C215.342 187.264 213.993 186.985 212.834 186.428C211.69 185.871 210.81 185.086 210.194 184.074C209.578 183.062 209.27 181.896 209.27 180.576C209.27 178.831 209.666 177.261 210.458 175.868C211.265 174.46 212.394 173.353 213.846 172.546C215.298 171.739 216.963 171.336 218.84 171.336C220.219 171.336 221.436 171.571 222.492 172.04C223.548 172.509 224.348 173.184 224.89 174.064L222.316 176.176C221.495 174.973 220.256 174.372 218.598 174.372C217.469 174.372 216.472 174.636 215.606 175.164C214.741 175.692 214.066 176.411 213.582 177.32C213.113 178.229 212.878 179.241 212.878 180.356C212.878 181.544 213.252 182.49 214 183.194C214.763 183.883 215.826 184.228 217.19 184.228C218.818 184.228 220.182 183.634 221.282 182.446L223.394 184.602C221.869 186.377 219.698 187.264 216.882 187.264ZM235.576 183.7H228.404L226.402 187H222.596L232.562 171.6H236.082L239.866 187H236.302L235.576 183.7ZM234.982 180.994L233.684 175.054L230.054 180.994H234.982Z" fill="black"/>
</svg>
