<svg width="1152" height="486" viewBox="0 0 1152 486" fill="none" xmlns="http://www.w3.org/2000/svg">
<path d="M999.665 121.362C999.671 120.56 999.438 119.774 998.994 119.1C998.574 118.509 997.981 118.057 997.291 117.802C997.798 117.479 998.236 117.063 998.582 116.578C999.078 115.851 999.369 115.009 999.424 114.138C999.433 114.98 999.696 115.8 1000.18 116.495C1000.56 117.052 1001.08 117.505 1001.69 117.811C1001.27 118.137 1000.9 118.523 1000.6 118.958C1000.1 119.678 999.781 120.501 999.665 121.362Z" fill="#F8E324" fill-opacity="0.75"/>
<path d="M1096.61 134.632C1096.55 133.743 1096.19 132.901 1095.57 132.245C1094.95 131.619 1094.16 131.187 1093.29 131.005C1093.89 130.601 1094.42 130.093 1094.84 129.506C1095.4 128.675 1095.7 127.705 1095.7 126.712C1095.78 127.651 1096.19 128.532 1096.86 129.205C1097.42 129.76 1098.11 130.167 1098.87 130.385C1098.35 130.789 1097.9 131.257 1097.51 131.778C1096.96 132.639 1096.65 133.623 1096.61 134.632Z" fill="#F8E324" fill-opacity="0.75"/>
<path d="M1098.56 98.2184C1098.59 97.5384 1098.35 96.8759 1097.89 96.3666C1097.4 95.8557 1096.78 95.4902 1096.09 95.3126C1096.61 95.0507 1097.09 94.6966 1097.49 94.2681C1098.03 93.7124 1098.37 93.0004 1098.46 92.2402C1098.46 92.9557 1098.74 93.6427 1099.23 94.1704C1099.67 94.6221 1100.22 94.9607 1100.83 95.1562C1100.39 95.4223 1099.98 95.7475 1099.63 96.1224C1099.08 96.7072 1098.71 97.4349 1098.56 98.2184Z" fill="#F8E324" fill-opacity="0.75"/>
<path d="M1021.04 117.002C1021.07 115.938 1020.74 114.897 1020.11 114.033C1019.51 113.217 1018.66 112.604 1017.68 112.279C1018.41 111.858 1019.04 111.299 1019.53 110.634C1020.23 109.69 1020.64 108.574 1020.72 107.414C1020.72 108.535 1021.1 109.622 1021.79 110.516C1022.34 111.234 1023.07 111.799 1023.91 112.153C1023.31 112.573 1022.79 113.084 1022.35 113.667C1021.63 114.653 1021.18 115.801 1021.04 117.002Z" fill="#F8E324" fill-opacity="0.75"/>
<path d="M1010.65 98.5159C1010.68 97.8848 1010.47 97.2658 1010.07 96.7713C1009.66 96.2838 1009.1 95.9342 1008.48 95.771C1008.93 95.5254 1009.33 95.1979 1009.66 94.8062C1010.11 94.2669 1010.39 93.6069 1010.45 92.9133C1010.46 93.574 1010.69 94.2117 1011.12 94.7217C1011.47 95.1472 1011.94 95.4754 1012.46 95.6742C1011.96 95.9966 1011.54 96.4164 1011.21 96.9068C1010.89 97.3973 1010.67 97.9477 1010.58 98.5231L1010.65 98.5159Z" fill="#F8E324" fill-opacity="0.75"/>
<path d="M1010.74 136.443C1010.76 135.543 1010.49 134.66 1009.97 133.922C1009.44 133.184 1008.69 132.629 1007.82 132.337C1008.59 131.882 1009.24 131.249 1009.7 130.494C1010.16 129.738 1010.43 128.884 1010.47 128.007C1010.48 128.987 1010.81 129.939 1011.4 130.727C1011.9 131.354 1012.56 131.836 1013.32 132.121C1012.8 132.494 1012.33 132.944 1011.95 133.455C1011.3 134.336 1010.88 135.365 1010.74 136.443Z" fill="#F8E324" fill-opacity="0.75"/>
<path d="M1132.69 111.66C1132.71 110.882 1132.46 110.122 1131.98 109.504C1131.51 108.902 1130.87 108.454 1130.13 108.22C1130.66 107.912 1131.13 107.509 1131.51 107.031C1132.06 106.356 1132.39 105.539 1132.47 104.682C1132.48 105.5 1132.76 106.291 1133.28 106.932C1133.7 107.454 1134.26 107.863 1134.89 108.121C1134.44 108.428 1134.03 108.798 1133.68 109.22C1133.14 109.938 1132.8 110.778 1132.69 111.66Z" fill="#F8E324" fill-opacity="0.75"/>
<path d="M1064.26 130.066C1064.25 129.422 1064.03 128.798 1063.63 128.283C1063.23 127.787 1062.67 127.432 1062.03 127.268C1062.48 127.006 1062.86 126.659 1063.17 126.249C1063.59 125.673 1063.83 124.987 1063.86 124.278C1063.88 124.958 1064.13 125.611 1064.57 126.142C1064.92 126.569 1065.38 126.897 1065.9 127.094C1065.54 127.36 1065.23 127.677 1064.96 128.036C1064.56 128.646 1064.32 129.344 1064.26 130.066Z" fill="#F8E324" fill-opacity="0.75"/>
<path d="M1121.5 93.8657C1121.53 92.9305 1121.24 92.0141 1120.69 91.2509C1120.16 90.5423 1119.43 90.0073 1118.58 89.7156C1119.34 89.2734 1119.99 88.6556 1120.46 87.9157C1120.93 87.1758 1121.21 86.3362 1121.27 85.4698C1121.27 86.4516 1121.59 87.4054 1122.2 88.1904C1122.67 88.8223 1123.32 89.3156 1124.06 89.6184C1123.54 89.9919 1123.07 90.4422 1122.69 90.9531C1122.06 91.8147 1121.65 92.8153 1121.5 93.8657Z" fill="#F8E324" fill-opacity="0.75"/>
<path d="M977.348 115.244C977.376 114.313 977.092 113.4 976.538 112.643C976.017 111.907 975.276 111.345 974.415 111.036C975.182 110.593 975.829 109.976 976.298 109.236C976.767 108.496 977.044 107.656 977.106 106.79C977.109 107.669 977.374 108.527 977.87 109.258C978.365 109.99 979.069 110.564 979.895 110.909C979.371 111.283 978.909 111.733 978.525 112.244C977.874 113.129 977.469 114.163 977.348 115.244Z" fill="#F8E324" fill-opacity="0.75"/>
<path d="M1111.69 109.673C1111.69 109.026 1111.47 108.398 1111.06 107.889C1110.68 107.404 1110.15 107.047 1109.55 106.865C1109.99 106.602 1110.37 106.257 1110.67 105.848C1111.09 105.27 1111.34 104.585 1111.38 103.876C1111.4 104.556 1111.65 105.209 1112.08 105.739C1112.44 106.161 1112.9 106.488 1113.42 106.692C1113.06 106.958 1112.74 107.275 1112.48 107.633C1112.04 108.238 1111.77 108.939 1111.69 109.673Z" fill="#F8E324" fill-opacity="0.75"/>
<path d="M775.657 453.054C775.921 453.812 775.953 454.632 775.749 455.412C775.542 456.107 775.126 456.726 774.555 457.189C775.138 457.333 775.687 457.585 776.171 457.933C776.875 458.462 777.421 459.165 777.754 459.971C777.491 459.171 777.476 458.311 777.711 457.497C777.891 456.847 778.237 456.251 778.716 455.765C778.213 455.592 777.741 455.344 777.317 455.03C776.612 454.509 776.043 453.832 775.657 453.054Z" fill="#FFE680" fill-opacity="0.75"/>
<path d="M863.173 409.283C863.403 410.144 863.326 411.06 862.953 411.879C862.571 412.671 861.958 413.336 861.191 413.789C861.895 413.975 862.555 414.287 863.141 414.709C863.938 415.315 864.536 416.137 864.861 417.074C864.632 416.161 864.736 415.194 865.156 414.341C865.502 413.637 866.025 413.03 866.676 412.578C866.058 412.362 865.473 412.066 864.936 411.699C864.143 411.059 863.535 410.226 863.173 409.283Z" fill="#FFE680" fill-opacity="0.75"/>
<path d="M876.74 443.132C876.982 443.767 876.966 444.472 876.695 445.103C876.401 445.742 875.928 446.289 875.331 446.68C875.915 446.758 876.478 446.941 876.992 447.218C877.683 447.57 878.235 448.134 878.565 448.825C878.341 448.146 878.38 447.407 878.677 446.749C878.949 446.179 879.359 445.682 879.872 445.301C879.367 445.192 878.881 445.013 878.428 444.771C877.714 444.397 877.128 443.827 876.74 443.132Z" fill="#FFE680" fill-opacity="0.75"/>
<path d="M797.299 450.302C797.664 451.301 797.689 452.392 797.369 453.413C797.062 454.38 796.458 455.232 795.639 455.854C796.46 456.019 797.237 456.347 797.921 456.816C798.886 457.485 799.635 458.409 800.08 459.483C799.724 458.42 799.729 457.27 800.094 456.202C800.382 455.345 800.894 454.575 801.58 453.968C800.876 453.763 800.212 453.449 799.613 453.037C798.613 452.336 797.817 451.394 797.299 450.302Z" fill="#FFE680" fill-opacity="0.75"/>
<path d="M793.411 471.149C793.642 471.737 793.647 472.389 793.428 472.986C793.194 473.58 792.777 474.091 792.236 474.447C792.744 474.534 793.229 474.715 793.665 474.981C794.268 475.345 794.741 475.881 795.023 476.518C794.817 475.89 794.836 475.21 795.077 474.59C795.275 474.073 795.606 473.614 796.038 473.257C795.462 473.112 794.925 472.851 794.46 472.491C793.996 472.131 793.614 471.68 793.339 471.166L793.411 471.149Z" fill="#FFE680" fill-opacity="0.75"/>
<path d="M781.29 435.21C781.601 436.056 781.628 436.979 781.368 437.846C781.109 438.714 780.575 439.482 779.844 440.039C780.722 440.221 781.537 440.612 782.219 441.179C782.9 441.745 783.426 442.468 783.75 443.285C783.444 442.353 783.444 441.348 783.752 440.411C784.021 439.657 784.496 438.987 785.123 438.473C784.506 438.288 783.924 438.01 783.396 437.65C782.492 437.027 781.767 436.187 781.29 435.21Z" fill="#FFE680" fill-opacity="0.75"/>
<path d="M904.722 419.42C904.995 420.149 905.004 420.95 904.747 421.69C904.497 422.41 904.03 423.042 903.407 423.5C904.012 423.62 904.587 423.851 905.101 424.181C905.837 424.644 906.415 425.31 906.762 426.096C906.504 425.321 906.517 424.481 906.801 423.708C907.038 423.075 907.432 422.509 907.949 422.062C907.417 421.918 906.911 421.699 906.446 421.411C905.705 420.905 905.111 420.219 904.722 419.42Z" fill="#FFE680" fill-opacity="0.75"/>
<path d="M834.011 424.021C834.208 424.635 834.202 425.296 833.993 425.911C833.765 426.512 833.349 427.028 832.805 427.387C833.309 427.492 833.785 427.696 834.204 427.987C834.792 428.396 835.241 428.968 835.494 429.63C835.299 428.978 835.323 428.28 835.564 427.638C835.761 427.12 836.092 426.661 836.525 426.305C836.098 426.17 835.695 425.972 835.329 425.718C834.751 425.269 834.298 424.686 834.011 424.021Z" fill="#FFE680" fill-opacity="0.75"/>
<path d="M899.862 439.867C900.186 440.745 900.211 441.704 899.936 442.604C899.662 443.446 899.136 444.19 898.427 444.739C899.296 444.911 900.107 445.287 900.789 445.837C901.471 446.386 902.004 447.092 902.342 447.892C902.027 446.962 902.027 445.955 902.343 445.018C902.592 444.266 903.044 443.592 903.65 443.066C903.033 442.881 902.45 442.603 901.923 442.243C901.044 441.632 900.336 440.816 899.862 439.867Z" fill="#FFE680" fill-opacity="0.75"/>
<path d="M756.497 466.031C756.823 466.904 756.848 467.86 756.567 468.754C756.311 469.619 755.79 470.389 755.074 470.96C755.943 471.131 756.754 471.508 757.436 472.058C758.119 472.607 758.652 473.313 758.989 474.113C758.709 473.28 758.684 472.382 758.917 471.53C759.151 470.678 759.633 469.908 760.304 469.315C759.687 469.13 759.105 468.852 758.577 468.492C757.676 467.864 756.959 467.016 756.497 466.031Z" fill="#FFE680" fill-opacity="0.75"/>
<path d="M885.479 428.062C885.687 428.674 885.681 429.339 885.461 429.952C885.254 430.534 884.87 431.042 884.36 431.408C884.859 431.515 885.33 431.721 885.745 432.011C886.333 432.422 886.786 432.991 887.049 433.651C886.854 432.999 886.879 432.301 887.119 431.659C887.322 431.144 887.653 430.686 888.08 430.326C887.653 430.191 887.25 429.992 886.884 429.738C886.277 429.306 885.794 428.729 885.479 428.062Z" fill="#FFE680" fill-opacity="0.75"/>
<path d="M721.976 361.189C721.949 361.941 721.699 362.668 721.256 363.281C720.839 363.818 720.264 364.218 719.608 364.428C720.07 364.752 720.463 365.159 720.768 365.627C721.203 366.328 721.441 367.128 721.458 367.946C721.501 367.158 721.78 366.4 722.261 365.769C722.64 365.262 723.145 364.859 723.728 364.597C723.347 364.275 723.019 363.898 722.755 363.48C722.316 362.785 722.049 362.001 721.976 361.189Z" fill="#FFE680" fill-opacity="0.75"/>
<path d="M813.316 352.672C813.224 353.503 812.846 354.277 812.242 354.866C811.639 355.428 810.877 355.8 810.054 355.936C810.605 356.338 811.076 356.835 811.444 357.402C811.935 358.203 812.179 359.124 812.144 360.053C812.254 359.177 812.674 358.368 813.331 357.765C813.871 357.268 814.535 356.915 815.258 356.741C814.791 356.342 814.38 355.885 814.036 355.382C813.56 354.553 813.312 353.619 813.316 352.672Z" fill="#FFE680" fill-opacity="0.75"/>
<path d="M813.671 386.857C813.667 387.495 813.414 388.106 812.963 388.564C812.488 389.023 811.889 389.34 811.235 389.479C811.718 389.745 812.148 390.096 812.503 390.514C812.987 391.056 813.278 391.737 813.332 392.452C813.366 391.782 813.652 391.15 814.135 390.676C814.566 390.27 815.094 389.975 815.671 389.817C815.267 389.55 814.903 389.229 814.589 388.863C814.093 388.293 813.774 387.597 813.671 386.857Z" fill="#FFE680" fill-opacity="0.75"/>
<path d="M741.822 366.136C741.802 367.133 741.452 368.095 740.826 368.879C740.23 369.619 739.412 370.159 738.486 370.424C739.147 370.847 739.714 371.397 740.152 372.04C740.769 372.952 741.109 374.014 741.133 375.103C741.183 374.054 741.578 373.05 742.259 372.241C742.802 371.59 743.512 371.091 744.317 370.794C743.772 370.376 743.298 369.876 742.914 369.312C742.28 368.36 741.904 367.266 741.822 366.136Z" fill="#FFE680" fill-opacity="0.75"/>
<path d="M731.343 383.031C731.344 383.623 731.128 384.195 730.733 384.642C730.327 385.082 729.789 385.387 729.195 385.514C729.61 385.763 729.972 386.086 730.263 386.466C730.666 386.989 730.897 387.618 730.927 388.271C730.96 387.652 731.208 387.064 731.63 386.604C731.978 386.22 732.423 385.931 732.922 385.766C732.468 385.444 732.087 385.033 731.803 384.561C731.52 384.088 731.339 383.564 731.274 383.021L731.343 383.031Z" fill="#FFE680" fill-opacity="0.75"/>
<path d="M732.959 347.511C732.943 348.355 732.654 349.171 732.132 349.841C731.61 350.511 730.883 351 730.055 351.239C730.76 351.696 731.34 352.315 731.743 353.041C732.146 353.767 732.36 354.578 732.366 355.402C732.414 354.484 732.756 353.606 733.343 352.891C733.835 352.324 734.477 351.899 735.2 351.664C734.724 351.293 734.309 350.852 733.97 350.358C733.392 349.506 733.044 348.527 732.959 347.511Z" fill="#FFE680" fill-opacity="0.75"/>
<path d="M846.178 375.645C846.169 376.374 845.905 377.076 845.43 377.636C844.967 378.181 844.344 378.574 843.644 378.763C844.131 379.073 844.555 379.47 844.892 379.933C845.378 380.588 845.657 381.366 845.693 382.171C845.731 381.406 846.028 380.676 846.538 380.097C846.96 379.625 847.497 379.264 848.101 379.049C847.685 378.743 847.317 378.379 847.009 377.97C846.533 377.276 846.247 376.475 846.178 375.645Z" fill="#FFE680" fill-opacity="0.75"/>
<path d="M782.827 355.643C782.79 356.246 782.561 356.822 782.17 357.288C781.767 357.736 781.227 358.046 780.63 358.174C781.035 358.438 781.381 358.778 781.648 359.174C782.023 359.731 782.222 360.383 782.218 361.048C782.269 360.412 782.527 359.81 782.956 359.331C783.303 358.945 783.749 358.656 784.248 358.493C783.921 358.229 783.636 357.919 783.402 357.573C783.05 356.985 782.852 356.322 782.827 355.643Z" fill="#FFE680" fill-opacity="0.75"/>
<path d="M834.984 391.859C834.969 392.736 834.665 393.583 834.119 394.276C833.594 394.918 832.881 395.389 832.075 395.628C832.776 396.074 833.357 396.678 833.766 397.39C834.176 398.102 834.402 398.9 834.424 399.714C834.465 398.794 834.808 397.914 835.402 397.203C835.875 396.63 836.499 396.194 837.207 395.941C836.731 395.57 836.316 395.129 835.978 394.635C835.417 393.803 835.076 392.849 834.984 391.859Z" fill="#FFE680" fill-opacity="0.75"/>
<path d="M700.825 366.019C700.814 366.893 700.511 367.736 699.962 368.422C699.444 369.091 698.727 369.587 697.908 369.842C698.609 370.288 699.19 370.892 699.599 371.604C700.009 372.316 700.235 373.114 700.258 373.928C700.296 373.105 700.579 372.312 701.072 371.646C701.566 370.981 702.249 370.472 703.037 370.182C702.561 369.811 702.146 369.37 701.807 368.876C701.233 368.021 700.895 367.037 700.825 366.019Z" fill="#FFE680" fill-opacity="0.75"/>
<path d="M826.427 376.659C826.402 377.264 826.171 377.843 825.77 378.304C825.391 378.742 824.883 379.056 824.314 379.202C824.713 379.466 825.055 379.805 825.318 380.199C825.693 380.758 825.896 381.41 825.901 382.076C825.952 381.44 826.211 380.838 826.639 380.359C826.991 379.978 827.435 379.69 827.932 379.521C827.604 379.257 827.319 378.947 827.086 378.601C826.703 378.017 826.476 377.349 826.427 376.659Z" fill="#FFE680" fill-opacity="0.75"/>
<path d="M52.5403 27.4043C52.4464 28.2015 52.1171 28.9525 51.5926 29.5656C51.1028 30.0998 50.4575 30.4748 49.7417 30.6414C50.204 31.0257 50.5872 31.4926 50.8705 32.0168C51.2721 32.8003 51.4557 33.6716 51.4026 34.5422C51.5161 33.7078 51.8788 32.9272 52.4456 32.2979C52.8918 31.7921 53.4636 31.4071 54.1071 31.1793C53.7299 30.8042 53.4136 30.375 53.1694 29.9068C52.7631 29.1301 52.5476 28.273 52.5403 27.4043Z" fill="#F0D97B" fill-opacity="0.75"/>
<path d="M150.386 26.2909C150.217 27.1663 149.747 27.956 149.054 28.5295C148.364 29.0749 147.522 29.4048 146.635 29.477C147.185 29.9523 147.643 30.5216 147.986 31.1566C148.438 32.0505 148.617 33.051 148.499 34.0363C148.692 33.1146 149.209 32.291 149.959 31.707C150.577 31.2251 151.314 30.9078 152.097 30.7856C151.636 30.3209 151.238 29.7992 150.916 29.2341C150.482 28.3117 150.3 27.2975 150.386 26.2909Z" fill="#F0D97B" fill-opacity="0.75"/>
<path d="M147.792 62.6645C147.732 63.3424 147.41 63.9697 146.89 64.4179C146.346 64.8646 145.682 65.1496 144.974 65.24C145.465 65.5655 145.891 65.9758 146.232 66.4504C146.7 67.069 146.95 67.8179 146.945 68.5834C147.04 67.8742 147.399 67.2268 147.953 66.7644C148.447 66.371 149.033 66.1033 149.66 65.9848C149.254 65.6658 148.895 65.293 148.594 64.8774C148.115 64.2282 147.837 63.4599 147.792 62.6645Z" fill="#F0D97B" fill-opacity="0.75"/>
<path d="M73.2091 34.3888C73.1007 35.4471 72.6457 36.4393 71.9115 37.218C71.2137 37.9532 70.2975 38.4561 69.2893 38.6574C69.9555 39.1649 70.5105 39.7986 70.9206 40.5198C71.497 41.543 71.7662 42.7021 71.697 43.8623C71.8414 42.7509 72.3485 41.7182 73.1432 40.9173C73.7771 40.2726 74.5748 39.8036 75.4565 39.5575C74.9132 39.0658 74.4532 38.4928 74.0941 37.8604C73.502 36.7928 73.1973 35.5977 73.2091 34.3888Z" fill="#F0D97B" fill-opacity="0.75"/>
<path d="M60.6 51.4393C60.5498 52.069 60.2701 52.6579 59.8116 53.0988C59.3411 53.5312 58.7434 53.8085 58.1009 53.8926C58.5196 54.1925 58.8768 54.5673 59.1532 54.9967C59.5358 55.5882 59.7272 56.2774 59.7021 56.9732C59.7914 56.3185 60.1059 55.7153 60.5939 55.2624C60.998 54.8842 61.4965 54.6159 62.0409 54.4838C61.5864 54.1019 61.217 53.6326 60.9564 53.1056C60.6958 52.5786 60.5496 52.0056 60.5271 51.4229L60.6 51.4393Z" fill="#F0D97B" fill-opacity="0.75"/>
<path d="M65.4063 13.8177C65.3163 14.7138 64.9375 15.5559 64.3246 16.2228C63.7116 16.8897 62.8961 17.347 61.9953 17.5289C62.705 18.0759 63.2675 18.7844 63.6329 19.5914C63.9982 20.3984 64.1551 21.2791 64.0896 22.1551C64.221 21.1835 64.6608 20.2798 65.3472 19.5709C65.9195 19.0107 66.6388 18.6153 67.4278 18.4274C66.954 17.9916 66.5513 17.4874 66.2341 16.9327C65.6935 15.9769 65.4087 14.905 65.4063 13.8177Z" fill="#F0D97B" fill-opacity="0.75"/>
<path d="M183.324 53.5702C183.251 54.3447 182.909 55.0687 182.355 55.6221C181.815 56.161 181.119 56.5248 180.358 56.665C180.85 57.0372 181.266 57.4961 181.584 58.0175C182.044 58.7556 182.272 59.6074 182.241 60.4665C182.348 59.6561 182.727 58.9063 183.32 58.3348C183.809 57.8696 184.412 57.5331 185.072 57.3563C184.657 56.9949 184.297 56.5765 184.005 56.1143C183.56 55.3349 183.325 54.4589 183.324 53.5702Z" fill="#F0D97B" fill-opacity="0.75"/>
<path d="M117.715 26.7989C117.624 27.4372 117.329 28.0292 116.873 28.4911C116.406 28.9318 115.806 29.2146 115.159 29.2991C115.566 29.6142 115.905 30.0057 116.155 30.4503C116.505 31.0754 116.659 31.786 116.597 32.4923C116.707 31.8206 117.034 31.2033 117.531 30.7312C117.934 30.3514 118.433 30.0828 118.978 29.9526C118.653 29.6438 118.377 29.2893 118.159 28.9011C117.836 28.2453 117.683 27.5229 117.715 26.7989Z" fill="#F0D97B" fill-opacity="0.75"/>
<path d="M170.016 69.836C169.923 70.7668 169.527 71.6408 168.886 72.3296C168.272 72.9668 167.473 73.406 166.595 73.5899C167.302 74.1241 167.866 74.8175 168.24 75.61C168.613 76.4025 168.784 77.2701 168.738 78.1374C168.861 77.1634 169.302 76.2574 169.995 75.5531C170.548 74.9856 171.249 74.5762 172.024 74.3681C171.55 73.9323 171.148 73.4281 170.83 72.8734C170.307 71.9396 170.027 70.8961 170.016 69.836Z" fill="#F0D97B" fill-opacity="0.75"/>
<path d="M29.6348 30.7007C29.5471 31.628 29.1515 32.4987 28.5082 33.1801C27.8996 33.8462 27.0942 34.311 26.2013 34.5114C26.9081 35.0456 27.4727 35.7391 27.8461 36.5315C28.2195 37.324 28.3904 38.1916 28.3441 39.0589C28.456 38.1871 28.8259 37.3688 29.4085 36.7044C29.9911 36.0399 30.761 35.5581 31.624 35.3181C31.1502 34.8823 30.7475 34.3781 30.4302 33.8234C29.8946 32.8642 29.6206 31.7884 29.6348 30.7007Z" fill="#F0D97B" fill-opacity="0.75"/>
<path d="M162.239 52.9311C162.16 53.5728 161.863 54.1682 161.398 54.6233C160.957 55.0562 160.389 55.3451 159.771 55.4511C160.173 55.7663 160.507 56.1566 160.752 56.5989C161.102 57.2255 161.261 57.9358 161.209 58.6442C161.318 57.9725 161.646 57.3552 162.143 56.8832C162.55 56.5091 163.047 56.2415 163.59 56.1045C163.265 55.7958 162.989 55.4413 162.771 55.053C162.414 54.3989 162.231 53.669 162.239 52.9311Z" fill="#F0D97B" fill-opacity="0.75"/>
<path d="M32.1255 251.645C32.2095 252.443 32.0538 253.248 31.6773 253.962C31.3172 254.591 30.7704 255.099 30.1089 255.419C30.6445 255.692 31.1213 256.063 31.513 256.512C32.0774 257.188 32.4485 257.997 32.5885 258.858C32.5153 258.019 32.6972 257.178 33.1113 256.439C33.4351 255.848 33.9081 255.346 34.4856 254.982C34.035 254.699 33.6319 254.35 33.2906 253.947C32.7231 253.279 32.3241 252.491 32.1255 251.645Z" fill="#F8E324" fill-opacity="0.75"/>
<path d="M127.322 229C127.35 229.891 127.065 230.765 126.515 231.477C125.963 232.161 125.214 232.668 124.364 232.934C125.006 233.277 125.578 233.731 126.052 234.275C126.691 235.047 127.085 235.984 127.187 236.971C127.173 236.029 127.495 235.112 128.099 234.377C128.595 233.771 129.244 233.299 129.981 233.007C129.428 232.656 128.926 232.234 128.487 231.754C127.861 230.95 127.459 230.001 127.322 229Z" fill="#F8E324" fill-opacity="0.75"/>
<path d="M132.805 265.051C132.897 265.726 132.72 266.409 132.312 266.96C131.88 267.516 131.295 267.94 130.625 268.184C131.175 268.394 131.681 268.7 132.118 269.088C132.711 269.588 133.12 270.263 133.283 271.011C133.22 270.299 133.427 269.588 133.866 269.015C134.261 268.522 134.774 268.132 135.36 267.878C134.893 267.657 134.461 267.372 134.075 267.033C133.465 266.505 133.025 265.817 132.805 265.051Z" fill="#F8E324" fill-opacity="0.75"/>
<path d="M53.8253 253.904C53.9529 254.96 53.7276 256.028 53.183 256.949C52.6643 257.82 51.8815 258.513 50.9424 258.931C51.704 259.279 52.3851 259.775 52.944 260.388C53.7317 261.259 54.2497 262.331 54.4378 263.478C54.3338 262.362 54.6009 261.243 55.1996 260.286C55.6758 259.518 56.3506 258.885 57.1564 258.45C56.5181 258.09 55.9431 257.633 55.4535 257.095C54.6407 256.184 54.0803 255.086 53.8253 253.904Z" fill="#F8E324" fill-opacity="0.75"/>
<path d="M45.2828 273.314C45.3726 273.939 45.2295 274.575 44.8795 275.106C44.5158 275.631 43.9939 276.034 43.3857 276.257C43.8602 276.458 44.2912 276.744 44.6554 277.102C45.159 277.595 45.4975 278.225 45.6264 278.909C45.5692 278.251 45.743 277.593 46.1193 277.044C46.4301 276.586 46.8573 276.215 47.3591 275.966C46.8316 275.693 46.368 275.317 45.9977 274.86C45.6273 274.404 45.3585 273.877 45.2081 273.314H45.2828Z" fill="#F8E324" fill-opacity="0.75"/>
<path d="M41.6819 235.557C41.7915 236.451 41.6076 237.356 41.1566 238.142C40.7057 238.927 40.011 239.553 39.1724 239.929C39.9852 240.306 40.69 240.873 41.2241 241.58C41.7583 242.287 42.1054 243.111 42.2346 243.98C42.1487 243.003 42.3785 242.025 42.8918 241.182C43.3266 240.51 43.9412 239.966 44.6694 239.609C44.1112 239.288 43.6073 238.885 43.1756 238.414C42.4378 237.6 41.9238 236.618 41.6819 235.557Z" fill="#F8E324" fill-opacity="0.75"/>
<path d="M165.461 248.351C165.56 249.123 165.386 249.905 164.968 250.566C164.56 251.211 163.961 251.719 163.25 252.024C163.811 252.278 164.318 252.634 164.744 253.073C165.355 253.692 165.765 254.472 165.924 255.317C165.849 254.503 166.054 253.688 166.506 253C166.882 252.438 167.395 251.977 168 251.659C167.515 251.398 167.073 251.069 166.686 250.683C166.08 250.021 165.658 249.218 165.461 248.351Z" fill="#F8E324" fill-opacity="0.75"/>
<path d="M95.5654 236.694C95.6171 237.337 95.4603 237.979 95.1173 238.53C94.7582 239.063 94.2353 239.471 93.6235 239.696C94.09 239.914 94.5067 240.221 94.8484 240.599C95.3277 241.132 95.6344 241.791 95.7297 242.494C95.6883 241.815 95.8716 241.14 96.2525 240.57C96.5617 240.111 96.9893 239.739 97.4924 239.492C97.1071 239.263 96.7596 238.978 96.4617 238.647C96.0017 238.078 95.6938 237.407 95.5654 236.694Z" fill="#F8E324" fill-opacity="0.75"/>
<path d="M156.063 267.15C156.178 268.078 155.984 269.018 155.511 269.831C155.052 270.588 154.37 271.192 153.554 271.565C154.361 271.931 155.064 272.483 155.603 273.173C156.142 273.864 156.5 274.673 156.646 275.529C156.552 274.552 156.782 273.571 157.303 272.731C157.717 272.056 158.311 271.502 159.021 271.128C158.463 270.807 157.959 270.404 157.527 269.933C156.811 269.138 156.308 268.181 156.063 267.15Z" fill="#F8E324" fill-opacity="0.75"/>
<path d="M10.5095 259.907C10.6283 260.831 10.4342 261.768 9.95682 262.574C9.51 263.358 8.82684 263.989 8 264.381C8.80711 264.746 9.51063 265.298 10.0495 265.989C10.5883 266.68 10.9462 267.488 11.0921 268.345C11.0092 267.47 11.1897 266.59 11.6115 265.813C12.0334 265.037 12.6783 264.397 13.4671 263.973C12.909 263.652 12.4051 263.249 11.9734 262.778C11.2396 261.96 10.7353 260.971 10.5095 259.907Z" fill="#F8E324" fill-opacity="0.75"/>
<path d="M144.753 252.374C144.817 253.017 144.659 253.663 144.305 254.21C143.97 254.729 143.48 255.136 142.901 255.376C143.362 255.595 143.774 255.902 144.111 256.279C144.59 256.813 144.902 257.471 145.007 258.174C144.966 257.494 145.149 256.82 145.53 256.25C145.845 255.795 146.271 255.425 146.77 255.172C146.384 254.942 146.037 254.657 145.739 254.327C145.247 253.767 144.908 253.095 144.753 252.374Z" fill="#F8E324" fill-opacity="0.75"/>
<path d="M68.4048 102C68.4291 102.78 68.1802 103.544 67.699 104.168C67.2158 104.766 66.5604 105.21 65.8169 105.443C66.3787 105.742 66.8793 106.14 67.2939 106.616C67.8525 107.291 68.1976 108.111 68.2872 108.975C68.2744 108.151 68.5564 107.348 69.0845 106.705C69.5192 106.174 70.0862 105.762 70.7313 105.506C70.2479 105.199 69.8084 104.83 69.4243 104.41C68.8762 103.706 68.5249 102.876 68.4048 102Z" fill="#F8E324" fill-opacity="0.75"/>
<path d="M73.2051 133.545C73.285 134.135 73.1307 134.732 72.7738 135.215C72.3953 135.701 71.8832 136.073 71.2969 136.286C71.7785 136.469 72.2215 136.737 72.6039 137.077C73.1225 137.514 73.4804 138.105 73.6234 138.76C73.5678 138.136 73.7492 137.514 74.1331 137.013C74.4787 136.582 74.9276 136.24 75.4402 136.018C75.0318 135.824 74.6535 135.575 74.3161 135.279C73.7827 134.817 73.397 134.215 73.2051 133.545Z" fill="#F8E324" fill-opacity="0.75"/>
<path d="M4.0963 123.791C4.20789 124.715 4.01078 125.649 3.53428 126.456C3.08043 127.218 2.39543 127.823 1.57373 128.19C2.24017 128.494 2.83607 128.928 3.32516 129.465C4.01436 130.227 4.46761 131.164 4.63219 132.168C4.54119 131.191 4.77492 130.212 5.29877 129.375C5.71549 128.703 6.30592 128.149 7.01099 127.769C6.45245 127.454 5.94937 127.054 5.52097 126.583C4.80979 125.786 4.31937 124.825 4.0963 123.791Z" fill="#F8E324" fill-opacity="0.75"/>
<path d="M101.778 118.933C101.865 119.608 101.713 120.292 101.347 120.871C100.99 121.435 100.466 121.879 99.8438 122.146C100.335 122.369 100.778 122.68 101.151 123.064C101.685 123.605 102.044 124.288 102.183 125.027C102.118 124.315 102.298 123.602 102.693 123C103.021 122.509 103.471 122.105 104 121.827C103.576 121.599 103.188 121.311 102.85 120.973C102.32 120.393 101.951 119.691 101.778 118.933Z" fill="#F8E324" fill-opacity="0.75"/>
<path d="M40.6191 108.732C40.6643 109.295 40.5271 109.857 40.227 110.339C39.9128 110.805 39.4552 111.162 38.9199 111.359C39.3281 111.55 39.6927 111.818 39.9917 112.15C40.411 112.616 40.6794 113.192 40.7628 113.807C40.7266 113.213 40.887 112.623 41.2203 112.124C41.4908 111.722 41.865 111.397 42.3051 111.181C41.9681 110.98 41.664 110.73 41.4033 110.441C41.0009 109.944 40.7314 109.357 40.6191 108.732Z" fill="#F8E324" fill-opacity="0.75"/>
<path d="M93.5537 135.381C93.6539 136.194 93.4844 137.016 93.0701 137.727C92.6688 138.39 92.0721 138.918 91.3579 139.245C92.0641 139.564 92.6797 140.047 93.1512 140.652C93.6227 141.256 93.9358 141.964 94.0635 142.713C93.981 141.858 94.1827 140.999 94.6386 140.265C95.001 139.674 95.5203 139.189 96.1417 138.862C95.6533 138.582 95.2124 138.229 94.8346 137.817C94.2081 137.12 93.768 136.284 93.5537 135.381Z" fill="#F8E324" fill-opacity="0.75"/>
<path d="M83.6583 122.452C83.7139 123.015 83.576 123.581 83.2662 124.059C82.9732 124.513 82.5444 124.869 82.0376 125.079C82.4413 125.27 82.8013 125.539 83.0963 125.869C83.5159 126.337 83.7882 126.912 83.8805 127.527C83.8443 126.933 84.0046 126.343 84.338 125.844C84.6134 125.446 84.9863 125.122 85.4228 124.9C85.0857 124.7 84.7817 124.45 84.521 124.161C84.0903 123.671 83.7936 123.084 83.6583 122.452Z" fill="#F8E324" fill-opacity="0.75"/>
<path d="M277.736 288.651C277.317 289.336 276.704 289.88 275.971 290.217C275.302 290.497 274.559 290.567 273.839 290.419C274.098 290.961 274.251 291.546 274.288 292.14C274.325 293.02 274.127 293.888 273.714 294.657C274.166 293.946 274.823 293.389 275.601 293.055C276.218 292.783 276.898 292.673 277.578 292.735C277.393 292.237 277.285 291.715 277.26 291.187C277.216 290.312 277.379 289.443 277.736 288.651Z" fill="#F8E324" fill-opacity="0.75"/>
<path d="M367.054 328.618C366.534 329.343 365.776 329.863 364.906 330.093C364.052 330.3 363.149 330.247 362.313 329.94C362.614 330.603 362.791 331.312 362.836 332.031C362.873 333.033 362.616 334.016 362.096 334.861C362.658 334.105 363.471 333.574 364.398 333.358C365.161 333.179 365.962 333.199 366.725 333.416C366.5 332.801 366.358 332.161 366.302 331.513C366.295 330.494 366.554 329.496 367.054 328.618Z" fill="#F8E324" fill-opacity="0.75"/>
<path d="M349.465 360.562C349.127 361.153 348.571 361.587 347.912 361.777C347.231 361.954 346.508 361.935 345.828 361.721C346.137 362.222 346.352 362.773 346.463 363.347C346.629 364.104 346.542 364.889 346.217 365.582C346.6 364.978 347.197 364.54 347.894 364.352C348.507 364.202 349.152 364.205 349.771 364.36C349.536 363.9 349.366 363.411 349.266 362.907C349.104 362.117 349.173 361.303 349.465 360.562Z" fill="#F8E324" fill-opacity="0.75"/>
<path d="M293.58 303.65C293.038 304.565 292.209 305.276 291.216 305.675C290.275 306.051 289.232 306.124 288.232 305.884C288.625 306.624 288.863 307.432 288.934 308.259C289.029 309.429 288.788 310.595 288.239 311.619C288.836 310.67 289.729 309.945 290.786 309.551C291.631 309.231 292.552 309.139 293.456 309.285C293.168 308.611 292.991 307.898 292.929 307.173C292.839 305.955 293.063 304.743 293.58 303.65Z" fill="#F8E324" fill-opacity="0.75"/>
<path d="M274.989 313.852C274.679 314.403 274.179 314.821 273.578 315.029C272.97 315.225 272.311 315.226 271.692 315.033C271.947 315.481 272.114 315.971 272.185 316.477C272.285 317.174 272.17 317.88 271.856 318.501C272.211 317.944 272.749 317.528 273.382 317.321C273.907 317.147 274.472 317.112 275.022 317.22C274.769 316.683 274.631 316.102 274.615 315.515C274.599 314.927 274.706 314.345 274.929 313.807L274.989 313.852Z" fill="#F8E324" fill-opacity="0.75"/>
<path d="M295.11 281.702C294.653 282.478 293.956 283.084 293.12 283.433C292.284 283.782 291.352 283.856 290.458 283.643C290.874 284.437 291.088 285.316 291.081 286.202C291.075 287.088 290.849 287.953 290.422 288.722C290.949 287.894 291.727 287.258 292.647 286.901C293.401 286.632 294.22 286.575 295.015 286.735C294.767 286.14 294.613 285.514 294.557 284.877C294.466 283.783 294.657 282.69 295.11 281.702Z" fill="#F8E324" fill-opacity="0.75"/>
<path d="M385.539 367.185C385.149 367.857 384.535 368.372 383.8 368.642C383.084 368.906 382.3 368.944 381.55 368.753C381.841 369.297 382.026 369.888 382.097 370.495C382.205 371.357 382.056 372.226 381.668 372.993C382.104 372.302 382.763 371.78 383.54 371.509C384.18 371.292 384.868 371.239 385.541 371.355C385.315 370.853 385.164 370.322 385.092 369.78C385.014 368.886 385.168 367.992 385.539 367.185Z" fill="#F8E324" fill-opacity="0.75"/>
<path d="M337.174 315.397C336.823 315.938 336.308 316.353 335.701 316.581C335.091 316.785 334.428 316.791 333.806 316.597C334.044 317.054 334.187 317.551 334.228 318.059C334.284 318.774 334.126 319.483 333.774 320.099C334.155 319.535 334.711 319.111 335.36 318.891C335.885 318.715 336.45 318.68 337 318.79C336.834 318.373 336.732 317.936 336.696 317.492C336.677 316.761 336.841 316.041 337.174 315.397Z" fill="#F8E324" fill-opacity="0.75"/>
<path d="M366.642 376.382C366.168 377.188 365.442 377.816 364.572 378.173C363.747 378.494 362.838 378.559 361.964 378.358C362.382 379.139 362.604 380.005 362.611 380.881C362.618 381.757 362.41 382.616 362.005 383.385C362.525 382.552 363.305 381.914 364.229 381.565C364.969 381.281 365.777 381.203 366.568 381.338C366.32 380.744 366.166 380.118 366.11 379.481C366.026 378.414 366.209 377.349 366.642 376.382Z" fill="#F8E324" fill-opacity="0.75"/>
<path d="M255.556 282.052C255.088 282.857 254.364 283.482 253.494 283.831C252.663 284.181 251.737 284.266 250.842 284.074C251.26 284.855 251.482 285.721 251.489 286.597C251.497 287.473 251.288 288.333 250.883 289.101C251.35 288.356 252.028 287.768 252.836 287.409C253.643 287.049 254.544 286.934 255.428 287.078C255.18 286.484 255.026 285.857 254.97 285.22C254.886 284.125 255.087 283.033 255.556 282.052Z" fill="#F8E324" fill-opacity="0.75"/>
<path d="M366.66 357.774C366.319 358.323 365.801 358.74 365.187 358.958C364.605 359.166 363.969 359.191 363.364 359.029C363.596 359.483 363.736 359.977 363.774 360.482C363.829 361.197 363.676 361.909 363.332 362.53C363.713 361.966 364.268 361.543 364.917 361.322C365.444 361.153 366.008 361.118 366.558 361.221C366.391 360.805 366.289 360.367 366.254 359.923C366.204 359.18 366.344 358.44 366.66 357.774Z" fill="#F8E324" fill-opacity="0.75"/>
<path d="M217.543 209.573C217.378 210.359 216.982 211.077 216.404 211.64C215.868 212.128 215.192 212.443 214.464 212.544C214.89 212.969 215.229 213.468 215.464 214.016C215.793 214.833 215.897 215.717 215.766 216.579C215.954 215.758 216.386 215.014 217.007 214.438C217.497 213.975 218.101 213.643 218.763 213.474C218.421 213.067 218.145 212.611 217.944 212.122C217.609 211.312 217.472 210.439 217.543 209.573Z" fill="#F8E324" fill-opacity="0.75"/>
<path d="M315.09 217.302C314.843 218.159 314.303 218.903 313.561 219.411C312.825 219.892 311.956 220.145 311.066 220.136C311.572 220.66 311.976 221.268 312.26 221.931C312.63 222.862 312.717 223.875 312.511 224.845C312.787 223.945 313.375 223.171 314.176 222.658C314.835 222.233 315.596 221.984 316.388 221.933C315.97 221.429 315.622 220.873 315.352 220.281C315.003 219.323 314.913 218.297 315.09 217.302Z" fill="#F8E324" fill-opacity="0.75"/>
<path d="M309.221 253.293C309.1 253.963 308.722 254.558 308.165 254.958C307.582 255.353 306.895 255.577 306.182 255.603C306.641 255.972 307.029 256.419 307.325 256.922C307.736 257.581 307.917 258.349 307.843 259.111C308.001 258.413 308.417 257.801 309.011 257.39C309.538 257.043 310.146 256.83 310.782 256.768C310.406 256.414 310.082 256.01 309.819 255.569C309.402 254.879 309.194 254.089 309.221 253.293Z" fill="#F8E324" fill-opacity="0.75"/>
<path d="M237.497 218.396C237.293 219.44 236.75 220.387 235.949 221.096C235.187 221.766 234.23 222.184 233.207 222.293C233.825 222.859 234.32 223.54 234.664 224.295C235.145 225.366 235.309 226.545 235.135 227.694C235.379 226.6 235.978 225.618 236.841 224.892C237.531 224.307 238.368 223.912 239.268 223.747C238.771 223.208 238.365 222.596 238.064 221.933C237.571 220.817 237.376 219.599 237.497 218.396Z" fill="#F8E324" fill-opacity="0.75"/>
<path d="M223.399 234.238C223.292 234.861 222.96 235.422 222.464 235.819C221.956 236.207 221.336 236.43 220.688 236.455C221.078 236.792 221.4 237.197 221.637 237.65C221.964 238.274 222.093 238.977 222.005 239.668C222.153 239.024 222.521 238.452 223.048 238.045C223.484 237.705 224.005 237.482 224.559 237.4C224.141 236.979 223.815 236.478 223.603 235.93C223.391 235.381 223.298 234.797 223.328 234.215L223.399 234.238Z" fill="#F8E324" fill-opacity="0.75"/>
<path d="M231.584 197.204C231.414 198.089 230.96 198.893 230.29 199.502C229.619 200.111 228.765 200.492 227.852 200.592C228.509 201.201 229.005 201.957 229.296 202.794C229.587 203.631 229.664 204.522 229.52 205.389C229.738 204.433 230.258 203.573 231.006 202.929C231.626 202.422 232.378 202.094 233.181 201.978C232.749 201.501 232.393 200.962 232.127 200.381C231.675 199.381 231.488 198.287 231.584 197.204Z" fill="#F8E324" fill-opacity="0.75"/>
<path d="M345.429 247.445C345.287 248.21 344.881 248.9 344.279 249.401C343.693 249.889 342.966 250.188 342.196 250.259C342.652 250.674 343.025 251.169 343.295 251.717C343.686 252.494 343.836 253.363 343.728 254.215C343.907 253.418 344.353 252.706 344.995 252.19C345.524 251.771 346.155 251.49 346.828 251.374C346.447 250.976 346.127 250.527 345.878 250.04C345.505 249.224 345.35 248.33 345.429 247.445Z" fill="#F8E324" fill-opacity="0.75"/>
<path d="M282.506 214.857C282.358 215.485 282.011 216.048 281.515 216.466C281.01 216.863 280.387 217.091 279.736 217.116C280.112 217.467 280.414 217.887 280.623 218.353C280.915 219.007 281.005 219.728 280.879 220.426C281.049 219.767 281.43 219.182 281.968 218.757C282.404 218.415 282.925 218.192 283.48 218.112C283.184 217.775 282.941 217.397 282.759 216.991C282.496 216.308 282.409 215.575 282.506 214.857Z" fill="#F8E324" fill-opacity="0.75"/>
<path d="M330.706 262.442C330.529 263.361 330.056 264.196 329.355 264.824C328.686 265.403 327.851 265.768 326.96 265.872C327.616 266.468 328.115 267.209 328.416 268.032C328.716 268.855 328.808 269.735 328.683 270.594C328.894 269.636 329.415 268.773 330.169 268.134C330.771 267.619 331.506 267.275 332.297 267.137C331.864 266.661 331.509 266.122 331.243 265.541C330.806 264.564 330.622 263.499 330.706 262.442Z" fill="#F8E324" fill-opacity="0.75"/>
<path d="M194.434 210.787C194.263 211.703 193.79 212.534 193.088 213.155C192.422 213.763 191.577 214.153 190.67 214.272C191.326 214.868 191.825 215.61 192.126 216.433C192.426 217.256 192.518 218.135 192.393 218.995C192.584 218.136 193.026 217.355 193.666 216.746C194.306 216.137 195.117 215.726 195.998 215.565C195.565 215.089 195.21 214.55 194.944 213.969C194.497 212.965 194.321 211.869 194.434 210.787Z" fill="#F8E324" fill-opacity="0.75"/>
<path d="M324.488 244.904C324.351 245.536 324.002 246.102 323.497 246.513C323.019 246.905 322.427 247.141 321.802 247.191C322.174 247.541 322.471 247.96 322.676 248.423C322.968 249.078 323.062 249.8 322.946 250.501C323.116 249.842 323.497 249.257 324.035 248.831C324.474 248.496 324.994 248.274 325.546 248.187C325.25 247.85 325.007 247.472 324.826 247.065C324.529 246.382 324.413 245.638 324.488 244.904Z" fill="#F8E324" fill-opacity="0.75"/>
<path d="M1065.27 137.699C1064.87 137.003 1064.69 136.204 1064.74 135.399C1064.82 134.678 1065.11 133.992 1065.59 133.432C1064.99 133.399 1064.4 133.253 1063.86 133.001C1063.07 132.612 1062.41 132.022 1061.93 131.292C1062.34 132.029 1062.51 132.872 1062.43 133.715C1062.37 134.387 1062.14 135.037 1061.76 135.604C1062.29 135.68 1062.8 135.836 1063.28 136.066C1064.07 136.447 1064.75 137.006 1065.27 137.699Z" fill="#F8E324" fill-opacity="0.75"/>
<path d="M987.407 196.96C987.02 196.156 986.927 195.242 987.141 194.368C987.369 193.519 987.848 192.752 988.517 192.165C987.792 192.112 987.084 191.928 986.431 191.623C985.535 191.175 984.795 190.479 984.301 189.618C984.696 190.473 984.773 191.442 984.519 192.358C984.31 193.114 983.908 193.808 983.353 194.373C984 194.471 984.63 194.653 985.226 194.914C986.124 195.395 986.876 196.1 987.407 196.96Z" fill="#F8E324" fill-opacity="0.75"/>
<path d="M967.791 166.219C967.435 165.639 967.319 164.944 967.469 164.274C967.639 163.591 968.002 162.966 968.516 162.471C967.928 162.503 967.341 162.428 966.785 162.25C966.04 162.033 965.392 161.581 964.94 160.963C965.287 161.589 965.385 162.323 965.216 163.025C965.054 163.635 964.744 164.2 964.311 164.669C964.827 164.683 965.338 164.768 965.828 164.921C966.599 165.157 967.28 165.608 967.791 166.219Z" fill="#F8E324" fill-opacity="0.75"/>
<path d="M1044.52 144.423C1043.97 143.509 1043.75 142.441 1043.87 141.378C1043.99 140.372 1044.43 139.421 1045.12 138.658C1044.28 138.649 1043.46 138.471 1042.7 138.137C1041.62 137.659 1040.72 136.89 1040.08 135.917C1040.63 136.896 1040.84 138.027 1040.68 139.144C1040.55 140.039 1040.19 140.891 1039.63 141.615C1040.36 141.685 1041.07 141.871 1041.74 142.164C1042.85 142.668 1043.81 143.445 1044.52 144.423Z" fill="#F8E324" fill-opacity="0.75"/>
<path d="M1044.47 123.216C1044.13 122.681 1044.01 122.042 1044.11 121.414C1044.23 120.787 1044.54 120.207 1045.01 119.757C1044.49 119.766 1043.98 119.678 1043.51 119.498C1042.85 119.252 1042.28 118.813 1041.89 118.239C1042.21 118.818 1042.31 119.49 1042.19 120.144C1042.09 120.689 1041.85 121.202 1041.49 121.632C1042.09 121.668 1042.66 121.824 1043.19 122.092C1043.71 122.359 1044.17 122.732 1044.54 123.186L1044.47 123.216Z" fill="#F8E324" fill-opacity="0.75"/>
<path d="M1063.05 156.279C1062.59 155.506 1062.39 154.604 1062.49 153.703C1062.58 152.802 1062.96 151.949 1063.58 151.265C1062.68 151.25 1061.81 151.017 1061.03 150.587C1060.26 150.157 1059.61 149.544 1059.14 148.802C1059.61 149.66 1059.8 150.647 1059.67 151.626C1059.54 152.417 1059.2 153.163 1058.68 153.785C1059.32 153.852 1059.94 154.016 1060.53 154.272C1061.53 154.717 1062.4 155.407 1063.05 156.279Z" fill="#F8E324" fill-opacity="0.75"/>
<path d="M944.698 194.714C944.295 194.049 944.137 193.264 944.252 192.489C944.363 191.735 944.705 191.027 945.232 190.461C944.616 190.455 944.008 190.335 943.441 190.107C942.632 189.788 941.941 189.241 941.454 188.533C941.851 189.247 941.994 190.075 941.859 190.887C941.744 191.553 941.461 192.182 941.037 192.718C941.586 192.76 942.124 192.882 942.634 193.078C943.456 193.438 944.167 194.001 944.698 194.714Z" fill="#F8E324" fill-opacity="0.75"/>
<path d="M1013.33 177.063C1013.02 176.497 1012.9 175.846 1012.99 175.203C1013.1 174.57 1013.42 173.985 1013.89 173.532C1013.37 173.522 1012.86 173.41 1012.4 173.202C1011.75 172.909 1011.2 172.431 1010.83 171.827C1011.14 172.431 1011.24 173.122 1011.13 173.798C1011.03 174.343 1010.79 174.856 1010.43 175.286C1010.88 175.339 1011.31 175.459 1011.72 175.641C1012.37 175.974 1012.92 176.463 1013.33 177.063Z" fill="#F8E324" fill-opacity="0.75"/>
<path d="M945.677 173.72C945.196 172.918 944.993 171.98 945.096 171.045C945.209 170.167 945.588 169.338 946.183 168.667C945.297 168.66 944.43 168.44 943.658 168.027C942.885 167.613 942.231 167.019 941.75 166.295C942.232 167.15 942.419 168.141 942.283 169.119C942.178 169.905 941.859 170.651 941.361 171.281C942.002 171.348 942.625 171.512 943.211 171.768C944.188 172.206 945.035 172.876 945.677 173.72Z" fill="#F8E324" fill-opacity="0.75"/>
<path d="M1081.69 121.39C1081.21 120.593 1081.01 119.658 1081.12 118.728C1081.21 117.83 1081.58 116.977 1082.17 116.283C1081.29 116.276 1080.42 116.056 1079.65 115.643C1078.88 115.23 1078.22 114.635 1077.74 113.912C1078.17 114.678 1078.36 115.556 1078.29 116.436C1078.22 117.317 1077.89 118.163 1077.34 118.871C1077.98 118.938 1078.6 119.102 1079.19 119.358C1080.19 119.808 1081.05 120.508 1081.69 121.39Z" fill="#F8E324" fill-opacity="0.75"/>
<path d="M962.002 182.649C961.683 182.086 961.566 181.432 961.668 180.789C961.764 180.178 962.047 179.608 962.48 179.154C961.969 179.141 961.469 179.027 961.008 178.818C960.353 178.524 959.802 178.049 959.421 177.449C959.734 178.054 959.839 178.744 959.722 179.42C959.618 179.963 959.379 180.474 959.025 180.908C959.47 180.962 959.903 181.081 960.31 181.263C960.986 181.575 961.568 182.052 962.002 182.649Z" fill="#F8E324" fill-opacity="0.75"/>
<path d="M1095.71 185.556C1095.61 186.353 1095.28 187.101 1094.75 187.71C1094.25 188.24 1093.61 188.609 1092.89 188.77C1093.35 189.158 1093.73 189.628 1094.01 190.155C1094.4 190.942 1094.58 191.814 1094.52 192.685C1094.64 191.851 1095.01 191.073 1095.58 190.449C1096.03 189.947 1096.6 189.567 1097.25 189.344C1096.88 188.966 1096.56 188.534 1096.32 188.064C1095.92 187.284 1095.71 186.425 1095.71 185.556Z" fill="#F8E324" fill-opacity="0.75"/>
<path d="M1116.33 192.711C1116.21 193.768 1115.74 194.757 1115 195.529C1114.3 196.259 1113.38 196.754 1112.37 196.947C1113.03 197.46 1113.58 198.098 1113.99 198.823C1114.55 199.851 1114.81 201.012 1114.73 202.172C1114.89 201.061 1115.4 200.033 1116.21 199.239C1116.84 198.599 1117.65 198.137 1118.53 197.898C1117.99 197.402 1117.54 196.825 1117.18 196.19C1116.6 195.117 1116.3 193.92 1116.33 192.711Z" fill="#F8E324" fill-opacity="0.75"/>
<path d="M1103.58 209.657C1103.52 210.286 1103.24 210.873 1102.77 211.31C1102.3 211.738 1101.7 212.011 1101.06 212.089C1101.47 212.393 1101.83 212.771 1102.1 213.202C1102.48 213.797 1102.66 214.488 1102.63 215.183C1102.73 214.529 1103.05 213.929 1103.54 213.48C1103.95 213.105 1104.45 212.841 1104.99 212.713C1104.54 212.328 1104.17 211.855 1103.92 211.326C1103.66 210.797 1103.52 210.223 1103.5 209.64L1103.58 209.657Z" fill="#F8E324" fill-opacity="0.75"/>
<path d="M1108.69 172.076C1108.6 172.972 1108.21 173.81 1107.59 174.472C1106.97 175.134 1106.15 175.585 1105.25 175.759C1105.96 176.312 1106.51 177.025 1106.87 177.835C1107.23 178.645 1107.38 179.527 1107.31 180.402C1107.45 179.432 1107.89 178.532 1108.59 177.829C1109.16 177.273 1109.89 176.884 1110.68 176.702C1110.21 176.263 1109.81 175.755 1109.49 175.198C1108.96 174.238 1108.69 173.164 1108.69 172.076Z" fill="#F8E324" fill-opacity="0.75"/>
<path d="M1072.78 188.664C1072.69 189.59 1072.28 190.458 1071.64 191.134C1071.02 191.795 1070.21 192.253 1069.32 192.446C1070.02 192.986 1070.58 193.684 1070.95 194.48C1071.31 195.275 1071.48 196.144 1071.42 197.011C1071.54 196.14 1071.92 195.325 1072.51 194.665C1073.09 194.006 1073.87 193.53 1074.73 193.297C1074.26 192.858 1073.87 192.35 1073.55 191.793C1073.02 190.829 1072.76 189.751 1072.78 188.664Z" fill="#F8E324" fill-opacity="0.75"/>
<path d="M892.657 239.054C892.921 239.812 892.953 240.632 892.749 241.412C892.542 242.107 892.126 242.726 891.555 243.189C892.138 243.333 892.687 243.585 893.171 243.933C893.875 244.462 894.421 245.165 894.754 245.971C894.491 245.171 894.476 244.311 894.711 243.497C894.891 242.847 895.237 242.251 895.716 241.765C895.213 241.592 894.741 241.344 894.317 241.03C893.612 240.509 893.043 239.832 892.657 239.054Z" fill="#FFE680" fill-opacity="0.75"/>
<path d="M980.173 195.283C980.404 196.144 980.326 197.06 979.953 197.879C979.572 198.671 978.958 199.336 978.192 199.789C978.895 199.975 979.556 200.287 980.141 200.709C980.939 201.315 981.536 202.137 981.861 203.074C981.632 202.161 981.737 201.194 982.157 200.341C982.502 199.637 983.025 199.03 983.677 198.578C983.058 198.362 982.473 198.066 981.936 197.699C981.143 197.059 980.535 196.226 980.173 195.283Z" fill="#FFE680" fill-opacity="0.75"/>
<path d="M993.739 229.132C993.982 229.767 993.966 230.472 993.695 231.103C993.401 231.742 992.928 232.289 992.331 232.68C992.915 232.758 993.477 232.94 993.991 233.218C994.683 233.57 995.235 234.134 995.565 234.825C995.34 234.146 995.38 233.407 995.676 232.749C995.949 232.179 996.359 231.682 996.871 231.301C996.366 231.192 995.88 231.013 995.428 230.771C994.714 230.397 994.128 229.827 993.739 229.132Z" fill="#FFE680" fill-opacity="0.75"/>
<path d="M914.299 236.302C914.664 237.301 914.689 238.392 914.369 239.413C914.062 240.38 913.458 241.232 912.639 241.854C913.46 242.019 914.237 242.347 914.921 242.816C915.886 243.485 916.635 244.409 917.08 245.483C916.724 244.42 916.729 243.27 917.094 242.202C917.382 241.345 917.894 240.575 918.58 239.968C917.876 239.763 917.212 239.449 916.613 239.037C915.613 238.336 914.817 237.394 914.299 236.302Z" fill="#FFE680" fill-opacity="0.75"/>
<path d="M910.411 257.149C910.642 257.737 910.647 258.389 910.428 258.986C910.194 259.58 909.777 260.091 909.236 260.447C909.744 260.534 910.229 260.715 910.665 260.981C911.268 261.345 911.741 261.881 912.023 262.518C911.817 261.89 911.836 261.21 912.077 260.59C912.275 260.073 912.606 259.614 913.038 259.257C912.462 259.112 911.925 258.851 911.46 258.491C910.996 258.131 910.614 257.68 910.339 257.166L910.411 257.149Z" fill="#FFE680" fill-opacity="0.75"/>
<path d="M898.29 221.21C898.601 222.056 898.628 222.979 898.368 223.846C898.109 224.714 897.575 225.482 896.844 226.039C897.722 226.221 898.537 226.612 899.219 227.179C899.9 227.745 900.426 228.468 900.75 229.285C900.444 228.353 900.444 227.348 900.752 226.411C901.021 225.657 901.496 224.987 902.123 224.473C901.506 224.288 900.924 224.01 900.396 223.65C899.492 223.027 898.767 222.187 898.29 221.21Z" fill="#FFE680" fill-opacity="0.75"/>
<path d="M1021.72 205.421C1021.99 206.149 1022 206.95 1021.75 207.69C1021.5 208.41 1021.03 209.042 1020.41 209.5C1021.01 209.62 1021.59 209.851 1022.1 210.181C1022.84 210.644 1023.41 211.31 1023.76 212.097C1023.5 211.321 1023.52 210.481 1023.8 209.708C1024.04 209.075 1024.43 208.509 1024.95 208.062C1024.42 207.918 1023.91 207.699 1023.45 207.411C1022.71 206.905 1022.11 206.219 1021.72 205.421Z" fill="#FFE680" fill-opacity="0.75"/>
<path d="M951.011 210.021C951.208 210.635 951.202 211.296 950.993 211.911C950.765 212.512 950.349 213.028 949.805 213.387C950.309 213.492 950.785 213.696 951.204 213.987C951.792 214.396 952.241 214.968 952.494 215.63C952.299 214.978 952.323 214.28 952.564 213.638C952.761 213.12 953.092 212.661 953.525 212.305C953.098 212.17 952.695 211.972 952.329 211.718C951.751 211.269 951.298 210.686 951.011 210.021Z" fill="#FFE680" fill-opacity="0.75"/>
<path d="M1016.86 225.867C1017.19 226.745 1017.21 227.704 1016.94 228.604C1016.66 229.446 1016.14 230.19 1015.43 230.739C1016.3 230.91 1017.11 231.287 1017.79 231.837C1018.47 232.386 1019 233.092 1019.34 233.892C1019.03 232.962 1019.03 231.955 1019.34 231.018C1019.59 230.266 1020.04 229.592 1020.65 229.066C1020.03 228.881 1019.45 228.603 1018.92 228.243C1018.04 227.632 1017.34 226.816 1016.86 225.867Z" fill="#FFE680" fill-opacity="0.75"/>
<path d="M873.497 252.031C873.823 252.904 873.848 253.86 873.567 254.754C873.311 255.619 872.79 256.389 872.074 256.96C872.943 257.131 873.754 257.508 874.436 258.058C875.119 258.607 875.652 259.313 875.989 260.113C875.709 259.28 875.684 258.382 875.917 257.53C876.151 256.678 876.633 255.908 877.304 255.315C876.687 255.13 876.105 254.852 875.577 254.492C874.676 253.864 873.959 253.016 873.497 252.031Z" fill="#FFE680" fill-opacity="0.75"/>
<path d="M1002.48 214.062C1002.69 214.674 1002.68 215.339 1002.46 215.952C1002.25 216.534 1001.87 217.042 1001.36 217.408C1001.86 217.515 1002.33 217.721 1002.74 218.011C1003.33 218.422 1003.79 218.991 1004.05 219.651C1003.85 218.999 1003.88 218.301 1004.12 217.659C1004.32 217.144 1004.65 216.686 1005.08 216.326C1004.65 216.191 1004.25 215.992 1003.88 215.738C1003.28 215.306 1002.79 214.729 1002.48 214.062Z" fill="#FFE680" fill-opacity="0.75"/>
</svg>
