<svg width="81" height="84" viewBox="0 0 81 84" fill="none" xmlns="http://www.w3.org/2000/svg">
<path fill-rule="evenodd" clip-rule="evenodd" d="M42.6893 1.04792C51.3229 0.574466 60.0462 3.63377 66.597 9.13367C72.8554 14.3882 75.2202 22.4415 77.4138 30.2021C79.5092 37.6153 81.1937 45.3014 78.8996 52.6586C76.5779 60.1039 70.905 65.8226 64.7575 70.7898C58.222 76.0705 51.1555 81.2927 42.6893 81.9165C33.8761 82.5659 25.1444 79.3736 18.0551 74.231C11.0221 69.1292 6.30292 61.6971 3.60886 53.5672C0.918763 45.4493 -0.288722 36.5408 2.9374 28.6105C6.0649 20.9226 13.7448 16.4476 20.6601 11.6528C27.5007 6.90974 34.3066 1.50762 42.6893 1.04792Z" fill="white" stroke="#DADADA" stroke-width="2"/>
<path d="M40.0104 14.4658C40.0104 14.4658 26.8404 14.6758 26.6304 33.3158C26.6304 33.3158 19.5304 32.0658 25.6304 41.3158C25.6304 41.3158 26.2204 42.8958 28.0904 41.3158C29.9604 39.7358 26.3404 45.0958 34.8404 50.4758C34.8404 50.4758 34.9604 59.0958 32.8404 60.4758C30.7204 61.8558 44.4604 66.5958 46.7104 60.4758C45.279 58.7124 44.5238 56.4963 44.5804 54.2258C44.5804 54.2258 54.0304 53.7558 54.0804 37.4858C54.0904 21.3158 49.6004 13.5258 40.0104 14.4658Z" fill="#EAC4AF"/>
<path d="M45.9723 60.6645C40.263 65.232 34.7119 62.5676 32.6501 60.6645C22.554 60.2432 14.8043 75.8727 12.1914 83.7401H68.8099C63.5763 74.1451 51.6816 56.097 45.9723 60.6645Z" fill="#DADADA"/>
<path d="M26.8198 35.46C24.8676 33.1413 23.5191 30.3757 22.8945 27.4097C22.2699 24.4436 22.3885 21.3691 23.2398 18.46C26.0398 8.03 39.9198 6.79 46.0798 8.25C52.2398 9.71 53.4698 5 53.4698 5C53.4698 5 60.0798 19.56 53.4698 22.58C46.8598 25.6 27.2698 17.94 26.8198 35.46Z" fill="#202020" stroke="#202020" stroke-miterlimit="10"/>
</svg>
