<svg width="428" height="402" viewBox="0 0 428 402" fill="none" xmlns="http://www.w3.org/2000/svg">
<rect width="428" height="402" fill="url(#paint0_linear)"/>
<path fill-rule="evenodd" clip-rule="evenodd" d="M237.648 82.7085C236.087 83.6485 233.176 85.757 231.177 87.395C225.691 91.892 226.355 91.726 216.812 90.987C207.59 90.2725 206.281 90.5015 204.835 93.08C204.169 94.269 204.185 94.986 204.986 99.83C206.006 106 205.843 106.867 203.015 110.318C200.929 112.865 198.336 114.536 195.732 115.012C194.664 115.207 190.685 115.15 186.89 114.886C181.031 114.478 179.709 114.522 178.138 115.179C175.385 116.329 175.021 117.745 176.001 123.5C176.446 126.113 176.807 128.91 176.802 129.717C176.783 133.282 172.525 138.524 167.997 140.559C166.87 141.065 163.72 141.719 160.997 142.012C150.767 143.115 149.533 144.299 151.845 150.797C152.503 152.645 152.911 155.06 152.937 157.25C152.976 160.478 152.753 161.256 150.077 167.25C142.324 184.617 142.56 197.767 150.879 211.898C152.972 215.453 160.514 223.119 164.794 226.041C169.024 228.929 169.75 230.435 170.265 237.391C170.485 240.371 170.561 258.546 170.434 277.78C170.306 297.094 170.4 313.646 170.643 314.75C171.004 316.388 171.318 316.778 172.375 316.902C173.903 317.082 180.436 313.78 186.135 309.948C198.648 301.532 226.943 279.593 241.794 266.79C254.087 256.193 272.453 236.888 277.556 229.2C287.409 214.356 288.089 197.156 279.407 182.412C273.312 172.061 262.98 164.525 247.581 159.198C245.677 158.539 243.565 157.637 242.888 157.194C241.723 156.431 241.673 156.201 241.929 152.817C242.415 146.387 244.213 143.562 252.418 136.341C254.552 134.463 256.433 132.371 256.606 131.683C257.133 129.581 254.791 127.681 249.808 126.171C244.274 124.494 243.6 123.743 243.929 119.623C244.242 115.709 245.377 114.124 250.846 109.961C255.298 106.572 256.224 105.238 255.31 103.53C254.446 101.915 250.52 99.6095 246.692 98.4695C243.529 97.5275 243.303 97.3605 242.816 95.6095C242.532 94.587 242.299 91.4585 242.297 88.6575C242.294 83.772 241.789 81 240.902 81C240.673 81 239.209 81.769 237.648 82.7085ZM98.9997 141.751C85.2747 156.829 78.0872 173.66 76.2792 194.955C75.0472 209.468 77.9657 227.207 83.5867 239.377C84.5257 241.41 85.2942 243.148 85.2942 243.24C85.2942 243.881 90.9982 252.941 93.3277 256C96.5172 260.188 102.873 267 103.591 267C103.847 267 107.368 263.681 111.416 259.625L118.775 252.25L117.132 250.5C112.195 245.243 107.407 237.666 104.336 230.25C100.432 220.822 99.0827 213.538 99.1032 202C99.1197 192.952 99.6477 188.935 101.864 181C104.219 172.571 110.244 161.557 116.01 155.144C117.266 153.747 118.294 152.408 118.294 152.17C118.294 151.512 104.116 137.5 103.451 137.5C103.131 137.5 101.128 139.413 98.9997 141.751ZM308.413 144.632C304.498 148.554 301.294 151.953 301.294 152.186C301.294 152.419 302.411 153.832 303.776 155.326C310.865 163.082 317.006 175.592 319.439 187.231C321.004 194.717 320.968 210.107 319.368 217.479C316.793 229.342 310.846 241.475 303.88 249.07C302.458 250.621 301.294 252.087 301.294 252.327C301.294 252.958 315.455 267 316.091 267C316.385 267 318.193 265.369 320.11 263.375C337.982 244.781 346.345 218.333 343.074 190.75C342.683 187.45 342.114 183.625 341.809 182.25C339.231 170.602 333.116 157.114 326.458 148.387C323.334 144.292 316.841 137.5 316.05 137.5C315.765 137.5 312.328 140.709 308.413 144.632ZM236.794 178.243C244.782 180.366 252.392 186.274 255.662 192.889C257.495 196.599 257.544 196.843 257.544 202.224C257.544 208.294 257.009 210.446 253.917 216.824C251.308 222.203 246.366 228.444 238.303 236.537C229.803 245.071 219.845 253.728 209.751 261.361C201.922 267.281 197.949 269.823 197.397 269.267C197.203 269.072 197.057 255.376 197.073 238.832C197.101 209.558 197.13 208.69 198.132 206.5C200.423 201.491 209.666 192.717 224.544 181.427C230.052 177.247 231.567 176.854 236.794 178.243Z" fill="#FACD33"/>
<defs>
<linearGradient id="paint0_linear" x1="1.8465e-06" y1="211.5" x2="428" y2="211.5" gradientUnits="userSpaceOnUse">
<stop stop-color="#202020"/>
<stop offset="0.630208" stop-color="#353535"/>
<stop offset="1" stop-color="#373737"/>
</linearGradient>
</defs>
</svg>
