<svg width="314" height="49" viewBox="0 0 314 49" fill="none" xmlns="http://www.w3.org/2000/svg">
<rect x="-0.000976562" y="28" width="211" height="20" rx="10" fill="#FFCF35" fill-opacity="0.7"/>
<path d="M31.7313 17.3265L22.7553 34.1265H20.2113L18.3393 20.7825L11.0193 34.1265H8.47528L6.21928 17.3265H8.57128L10.3953 31.0305L17.8353 17.3265H20.0673L21.9393 31.0545L29.3313 17.3265H31.7313ZM32.2422 28.4865V28.6305C32.2422 29.8145 32.5782 30.7185 33.2502 31.3425C33.9222 31.9505 34.9302 32.2545 36.2742 32.2545C37.0582 32.2545 37.7942 32.1265 38.4822 31.8705C39.1702 31.5985 39.7462 31.2385 40.2102 30.7905L41.1942 32.4465C40.5702 33.0225 39.8102 33.4705 38.9142 33.7905C38.0182 34.1105 37.0742 34.2705 36.0822 34.2705C34.8342 34.2705 33.7542 34.0465 32.8422 33.5985C31.9302 33.1505 31.2262 32.5105 30.7302 31.6785C30.2342 30.8465 29.9862 29.8705 29.9862 28.7505C29.9862 27.3265 30.2902 26.0465 30.8982 24.9105C31.5222 23.7745 32.3782 22.8865 33.4662 22.2465C34.5702 21.6065 35.8022 21.2865 37.1622 21.2865C38.8902 21.2865 40.2662 21.7825 41.2902 22.7745C42.3302 23.7505 42.8502 25.0865 42.8502 26.7825C42.8502 27.2945 42.7942 27.8625 42.6822 28.4865H32.2422ZM37.0662 23.2065C35.9302 23.2065 34.9542 23.5265 34.1382 24.1665C33.3222 24.8065 32.7702 25.6865 32.4822 26.8065H40.6902C40.7542 25.6705 40.4502 24.7905 39.7782 24.1665C39.1222 23.5265 38.2182 23.2065 37.0662 23.2065ZM53.5861 21.2865C54.6741 21.2865 55.6421 21.5105 56.4901 21.9585C57.3381 22.3905 58.0021 23.0225 58.4821 23.8545C58.9621 24.6705 59.2021 25.6385 59.2021 26.7585C59.2021 28.1985 58.8901 29.4865 58.2661 30.6225C57.6421 31.7585 56.7781 32.6545 55.6741 33.3105C54.5861 33.9505 53.3621 34.2705 52.0021 34.2705C50.8821 34.2705 49.9221 34.0625 49.1221 33.6465C48.3381 33.2305 47.7461 32.6225 47.3461 31.8225L46.8661 34.1265H44.6821L48.2341 16.3185H50.5381L49.2181 22.8705C50.4021 21.8145 51.8581 21.2865 53.5861 21.2865ZM51.9061 32.2545C52.8501 32.2545 53.6981 32.0305 54.4501 31.5825C55.2021 31.1185 55.7941 30.4785 56.2261 29.6625C56.6581 28.8465 56.8741 27.9185 56.8741 26.8785C56.8741 25.7425 56.5461 24.8625 55.8901 24.2385C55.2341 23.6145 54.2981 23.3025 53.0821 23.3025C52.1381 23.3025 51.2821 23.5345 50.5141 23.9985C49.7621 24.4465 49.1701 25.0785 48.7381 25.8945C48.3221 26.7105 48.1141 27.6385 48.1141 28.6785C48.1141 29.7985 48.4421 30.6785 49.0981 31.3185C49.7701 31.9425 50.7061 32.2545 51.9061 32.2545ZM79.4868 29.9265H70.5108L67.8468 34.1265H65.2548L76.2468 17.3265H78.6228L82.8708 34.1265H80.4948L79.4868 29.9265ZM79.0068 28.0065L77.0148 19.7265L71.7348 28.0065H79.0068ZM93.9689 21.2865C95.0569 21.2865 96.0249 21.5105 96.8729 21.9585C97.7209 22.3905 98.3849 23.0225 98.8649 23.8545C99.3449 24.6705 99.5849 25.6385 99.5849 26.7585C99.5849 28.1985 99.2729 29.4865 98.6489 30.6225C98.0249 31.7585 97.1609 32.6545 96.0569 33.3105C94.9689 33.9505 93.7449 34.2705 92.3849 34.2705C91.2969 34.2705 90.3609 34.0785 89.5769 33.6945C88.7929 33.2945 88.1929 32.7185 87.7769 31.9665L86.4329 38.7825H84.1289L87.5849 21.4065H89.7929L89.4809 22.9905C90.6649 21.8545 92.1609 21.2865 93.9689 21.2865ZM92.2889 32.2545C93.2329 32.2545 94.0809 32.0305 94.8329 31.5825C95.5849 31.1185 96.1769 30.4785 96.6089 29.6625C97.0409 28.8465 97.2569 27.9185 97.2569 26.8785C97.2569 25.7425 96.9289 24.8625 96.2729 24.2385C95.6169 23.6145 94.6809 23.3025 93.4649 23.3025C92.5209 23.3025 91.6649 23.5345 90.8969 23.9985C90.1449 24.4465 89.5529 25.0785 89.1209 25.8945C88.7049 26.7105 88.4969 27.6385 88.4969 28.6785C88.4969 29.7985 88.8249 30.6785 89.4809 31.3185C90.1529 31.9425 91.0889 32.2545 92.2889 32.2545ZM110.328 21.2865C111.416 21.2865 112.384 21.5105 113.232 21.9585C114.08 22.3905 114.744 23.0225 115.224 23.8545C115.704 24.6705 115.944 25.6385 115.944 26.7585C115.944 28.1985 115.632 29.4865 115.008 30.6225C114.384 31.7585 113.52 32.6545 112.416 33.3105C111.328 33.9505 110.104 34.2705 108.744 34.2705C107.656 34.2705 106.72 34.0785 105.936 33.6945C105.152 33.2945 104.552 32.7185 104.136 31.9665L102.792 38.7825H100.488L103.944 21.4065H106.152L105.84 22.9905C107.024 21.8545 108.52 21.2865 110.328 21.2865ZM108.648 32.2545C109.592 32.2545 110.44 32.0305 111.192 31.5825C111.944 31.1185 112.536 30.4785 112.968 29.6625C113.4 28.8465 113.616 27.9185 113.616 26.8785C113.616 25.7425 113.288 24.8625 112.632 24.2385C111.976 23.6145 111.04 23.3025 109.824 23.3025C108.88 23.3025 108.024 23.5345 107.256 23.9985C106.504 24.4465 105.912 25.0785 105.48 25.8945C105.064 26.7105 104.856 27.6385 104.856 28.6785C104.856 29.7985 105.184 30.6785 105.84 31.3185C106.512 31.9425 107.448 32.2545 108.648 32.2545ZM121.336 16.3185H123.64L120.088 34.1265H117.784L121.336 16.3185ZM127.007 21.4065H129.311L126.791 34.1265H124.487L127.007 21.4065ZM128.831 18.9585C128.415 18.9585 128.071 18.8225 127.799 18.5505C127.527 18.2785 127.391 17.9505 127.391 17.5665C127.391 17.1185 127.543 16.7425 127.847 16.4385C128.167 16.1185 128.567 15.9585 129.047 15.9585C129.463 15.9585 129.807 16.0945 130.079 16.3665C130.367 16.6225 130.511 16.9345 130.511 17.3025C130.511 17.7985 130.351 18.1985 130.031 18.5025C129.727 18.8065 129.327 18.9585 128.831 18.9585ZM137.214 34.2705C135.998 34.2705 134.934 34.0465 134.022 33.5985C133.11 33.1345 132.406 32.4945 131.91 31.6785C131.414 30.8465 131.166 29.8785 131.166 28.7745C131.166 27.3505 131.486 26.0705 132.126 24.9345C132.766 23.7985 133.654 22.9105 134.79 22.2705C135.926 21.6145 137.214 21.2865 138.654 21.2865C141.166 21.2865 142.91 22.2065 143.886 24.0465L141.942 25.1265C141.27 23.9105 140.118 23.3025 138.486 23.3025C137.542 23.3025 136.686 23.5345 135.918 23.9985C135.166 24.4465 134.574 25.0785 134.142 25.8945C133.71 26.7105 133.494 27.6385 133.494 28.6785C133.494 29.7985 133.822 30.6785 134.478 31.3185C135.15 31.9425 136.094 32.2545 137.31 32.2545C138.078 32.2545 138.79 32.1025 139.446 31.7985C140.118 31.4945 140.67 31.0465 141.102 30.4545L142.782 31.6545C142.19 32.4705 141.398 33.1105 140.406 33.5745C139.414 34.0385 138.35 34.2705 137.214 34.2705ZM159.209 21.4065L156.689 34.1265H154.481L154.793 32.5665C154.217 33.1105 153.545 33.5345 152.777 33.8385C152.025 34.1265 151.201 34.2705 150.305 34.2705C149.217 34.2705 148.249 34.0545 147.401 33.6225C146.553 33.1745 145.889 32.5345 145.409 31.7025C144.929 30.8705 144.689 29.8945 144.689 28.7745C144.689 27.3345 145.001 26.0465 145.625 24.9105C146.249 23.7745 147.105 22.8865 148.193 22.2465C149.297 21.6065 150.529 21.2865 151.889 21.2865C152.977 21.2865 153.905 21.4785 154.673 21.8625C155.457 22.2465 156.057 22.8145 156.473 23.5665L156.905 21.4065H159.209ZM150.809 32.2545C151.753 32.2545 152.601 32.0305 153.353 31.5825C154.121 31.1185 154.713 30.4785 155.129 29.6625C155.561 28.8465 155.777 27.9185 155.777 26.8785C155.777 25.7425 155.449 24.8625 154.793 24.2385C154.137 23.6145 153.201 23.3025 151.985 23.3025C151.041 23.3025 150.193 23.5345 149.441 23.9985C148.689 24.4465 148.097 25.0785 147.665 25.8945C147.233 26.7105 147.017 27.6385 147.017 28.6785C147.017 29.7985 147.345 30.6785 148.001 31.3185C148.673 31.9425 149.609 32.2545 150.809 32.2545ZM164.481 30.0705C164.433 30.3105 164.409 30.5345 164.409 30.7425C164.409 31.2545 164.545 31.6465 164.817 31.9185C165.105 32.1905 165.529 32.3265 166.089 32.3265C166.761 32.3265 167.369 32.1265 167.913 31.7265L168.393 33.4785C167.625 34.0065 166.641 34.2705 165.441 34.2705C164.433 34.2705 163.617 33.9905 162.993 33.4305C162.385 32.8545 162.081 32.0705 162.081 31.0785C162.081 30.7425 162.113 30.4225 162.177 30.1185L163.545 23.3025H161.385L161.745 21.4065H163.929L164.481 18.6225H166.785L166.233 21.4065H169.881L169.497 23.3025H165.849L164.481 30.0705ZM173.53 21.4065H175.834L173.314 34.1265H171.01L173.53 21.4065ZM175.354 18.9585C174.938 18.9585 174.594 18.8225 174.322 18.5505C174.05 18.2785 173.914 17.9505 173.914 17.5665C173.914 17.1185 174.066 16.7425 174.37 16.4385C174.69 16.1185 175.09 15.9585 175.57 15.9585C175.986 15.9585 176.33 16.0945 176.602 16.3665C176.89 16.6225 177.034 16.9345 177.034 17.3025C177.034 17.7985 176.874 18.1985 176.554 18.5025C176.25 18.8065 175.85 18.9585 175.354 18.9585ZM183.665 34.2705C182.465 34.2705 181.417 34.0465 180.521 33.5985C179.625 33.1345 178.929 32.4865 178.433 31.6545C177.937 30.8225 177.689 29.8625 177.689 28.7745C177.689 27.3505 178.009 26.0705 178.649 24.9345C179.289 23.7985 180.177 22.9105 181.313 22.2705C182.449 21.6145 183.729 21.2865 185.153 21.2865C186.353 21.2865 187.401 21.5105 188.297 21.9585C189.193 22.4065 189.881 23.0465 190.361 23.8785C190.857 24.6945 191.105 25.6545 191.105 26.7585C191.105 28.1825 190.785 29.4705 190.145 30.6225C189.505 31.7585 188.617 32.6545 187.481 33.3105C186.361 33.9505 185.089 34.2705 183.665 34.2705ZM183.809 32.2545C184.753 32.2545 185.601 32.0305 186.353 31.5825C187.121 31.1185 187.713 30.4785 188.129 29.6625C188.561 28.8465 188.777 27.9185 188.777 26.8785C188.777 25.7425 188.449 24.8625 187.793 24.2385C187.137 23.6145 186.201 23.3025 184.985 23.3025C184.041 23.3025 183.193 23.5345 182.441 23.9985C181.689 24.4465 181.097 25.0785 180.665 25.8945C180.233 26.7105 180.017 27.6385 180.017 28.6785C180.017 29.7985 180.345 30.6785 181.001 31.3185C181.673 31.9425 182.609 32.2545 183.809 32.2545ZM201.972 21.2865C203.428 21.2865 204.556 21.6545 205.356 22.3905C206.172 23.1265 206.58 24.1665 206.58 25.5105C206.58 25.9745 206.532 26.4705 206.436 26.9985L205.02 34.1265H202.716L204.132 26.9985C204.212 26.5665 204.252 26.2145 204.252 25.9425C204.252 25.1105 204.004 24.4705 203.508 24.0225C203.012 23.5745 202.276 23.3505 201.3 23.3505C200.052 23.3505 199.02 23.6945 198.204 24.3825C197.404 25.0545 196.868 26.0625 196.596 27.4065L195.252 34.1265H192.948L195.468 21.4065H197.676L197.364 23.0385C198.516 21.8705 200.052 21.2865 201.972 21.2865Z" fill="#202020"/>
<circle cx="289.242" cy="24.2425" r="24.2425" fill="#99CC99"/>
<path d="M286.733 30.6403L284.159 26.9503C284.051 26.9623 283.889 26.9683 283.673 26.9683H280.829V30.6403H278.489V18.0403H283.673C284.765 18.0403 285.713 18.2203 286.517 18.5803C287.333 18.9403 287.957 19.4563 288.389 20.1283C288.821 20.8003 289.037 21.5983 289.037 22.5223C289.037 23.4703 288.803 24.2863 288.335 24.9703C287.879 25.6543 287.219 26.1643 286.355 26.5003L289.253 30.6403H286.733ZM286.679 22.5223C286.679 21.7183 286.415 21.1003 285.887 20.6683C285.359 20.2363 284.585 20.0203 283.565 20.0203H280.829V25.0423H283.565C284.585 25.0423 285.359 24.8263 285.887 24.3943C286.415 23.9503 286.679 23.3263 286.679 22.5223ZM296.916 26.1943V30.6403H294.576V26.2303L289.626 18.0403H292.128L295.818 24.1783L299.544 18.0403H301.848L296.916 26.1943Z" fill="#202020"/>
<circle cx="251.242" cy="24.2425" r="24.2425" fill="#99CCFF"/>
<path d="M243.895 30.8203C242.923 30.8203 241.981 30.6823 241.069 30.4063C240.169 30.1303 239.455 29.7643 238.927 29.3083L239.737 27.4903C240.253 27.8983 240.883 28.2343 241.627 28.4983C242.383 28.7503 243.139 28.8763 243.895 28.8763C244.831 28.8763 245.527 28.7263 245.983 28.4263C246.451 28.1263 246.685 27.7303 246.685 27.2383C246.685 26.8783 246.553 26.5843 246.289 26.3563C246.037 26.1163 245.713 25.9303 245.317 25.7983C244.921 25.6663 244.381 25.5163 243.697 25.3483C242.737 25.1203 241.957 24.8923 241.357 24.6643C240.769 24.4363 240.259 24.0823 239.827 23.6023C239.407 23.1103 239.197 22.4503 239.197 21.6223C239.197 20.9263 239.383 20.2963 239.755 19.7323C240.139 19.1563 240.709 18.7003 241.465 18.3643C242.233 18.0283 243.169 17.8603 244.273 17.8603C245.041 17.8603 245.797 17.9563 246.541 18.1483C247.285 18.3403 247.927 18.6163 248.467 18.9763L247.729 20.7943C247.177 20.4703 246.601 20.2243 246.001 20.0563C245.401 19.8883 244.819 19.8043 244.255 19.8043C243.331 19.8043 242.641 19.9603 242.185 20.2723C241.741 20.5843 241.519 20.9983 241.519 21.5143C241.519 21.8743 241.645 22.1683 241.897 22.3963C242.161 22.6243 242.491 22.8043 242.887 22.9363C243.283 23.0683 243.823 23.2183 244.507 23.3863C245.443 23.6023 246.211 23.8303 246.811 24.0703C247.411 24.2983 247.921 24.6523 248.341 25.1323C248.773 25.6123 248.989 26.2603 248.989 27.0763C248.989 27.7723 248.797 28.4023 248.413 28.9663C248.041 29.5303 247.471 29.9803 246.703 30.3163C245.935 30.6523 244.999 30.8203 243.895 30.8203ZM262.505 18.0403V30.6403H260.165V25.2403H253.649V30.6403H251.309V18.0403H253.649V23.2423H260.165V18.0403H262.505Z" fill="#202020"/>
</svg>
