<svg width="491" height="49" viewBox="0 0 491 49" fill="none" xmlns="http://www.w3.org/2000/svg">
<path d="M0.995117 38.0001C0.995117 32.4773 5.47227 27.9205 10.9951 27.9205H240.115C245.637 27.9205 250.115 32.4773 250.115 38.0001C250.115 43.523 245.637 48.0798 240.115 48.0798H10.9951C5.47226 48.0798 0.995117 43.523 0.995117 38.0001Z" fill="#FFCF35" fill-opacity="0.7"/>
<path d="M101.001 38C101.001 32.4772 105.478 27.9204 111.001 27.9204H340.12C345.643 27.9204 350.12 32.4772 350.12 38C350.12 43.5229 345.643 48.0797 340.12 48.0797H111.001C105.478 48.0797 101.001 43.5229 101.001 38Z" fill="#FFCF35" fill-opacity="0.7"/>
<path d="M9.16269 17.2H11.5627L8.20269 34H5.80269L9.16269 17.2ZM16.3284 29.944C16.2804 30.184 16.2564 30.408 16.2564 30.616C16.2564 31.128 16.3924 31.52 16.6644 31.792C16.9524 32.064 17.3764 32.2 17.9364 32.2C18.6084 32.2 19.2164 32 19.7604 31.6L20.2404 33.352C19.4724 33.88 18.4884 34.144 17.2884 34.144C16.2804 34.144 15.4644 33.864 14.8404 33.304C14.2324 32.728 13.9284 31.944 13.9284 30.952C13.9284 30.616 13.9604 30.296 14.0244 29.992L15.3924 23.176H13.2324L13.5924 21.28H15.7764L16.3284 18.496H18.6324L18.0804 21.28H21.7284L21.3444 23.176H17.6964L16.3284 29.944ZM24.668 28.36V28.504C24.668 29.688 25.004 30.592 25.676 31.216C26.348 31.824 27.356 32.128 28.7 32.128C29.484 32.128 30.22 32 30.908 31.744C31.596 31.472 32.172 31.112 32.636 30.664L33.62 32.32C32.996 32.896 32.236 33.344 31.34 33.664C30.444 33.984 29.5 34.144 28.508 34.144C27.26 34.144 26.18 33.92 25.268 33.472C24.356 33.024 23.652 32.384 23.156 31.552C22.66 30.72 22.412 29.744 22.412 28.624C22.412 27.2 22.716 25.92 23.324 24.784C23.948 23.648 24.804 22.76 25.892 22.12C26.996 21.48 28.228 21.16 29.588 21.16C31.316 21.16 32.692 21.656 33.716 22.648C34.756 23.624 35.276 24.96 35.276 26.656C35.276 27.168 35.22 27.736 35.108 28.36H24.668ZM29.492 23.08C28.356 23.08 27.38 23.4 26.564 24.04C25.748 24.68 25.196 25.56 24.908 26.68H33.116C33.18 25.544 32.876 24.664 32.204 24.04C31.548 23.4 30.644 23.08 29.492 23.08ZM41.4759 23.176C42.0359 22.472 42.7239 21.96 43.5399 21.64C44.3559 21.32 45.3479 21.16 46.5159 21.16L46.0839 23.392C45.9399 23.376 45.7399 23.368 45.4839 23.368C42.8439 23.368 41.2439 24.792 40.6839 27.64L39.4119 34H37.1079L39.6279 21.28H41.8359L41.4759 23.176ZM61.1664 21.28L58.6464 34H56.4384L56.7504 32.44C56.1744 32.984 55.5024 33.408 54.7344 33.712C53.9824 34 53.1584 34.144 52.2624 34.144C51.1744 34.144 50.2064 33.928 49.3584 33.496C48.5104 33.048 47.8464 32.408 47.3664 31.576C46.8864 30.744 46.6464 29.768 46.6464 28.648C46.6464 27.208 46.9584 25.92 47.5824 24.784C48.2064 23.648 49.0624 22.76 50.1504 22.12C51.2544 21.48 52.4864 21.16 53.8464 21.16C54.9344 21.16 55.8624 21.352 56.6304 21.736C57.4144 22.12 58.0144 22.688 58.4304 23.44L58.8624 21.28H61.1664ZM52.7664 32.128C53.7104 32.128 54.5584 31.904 55.3104 31.456C56.0784 30.992 56.6704 30.352 57.0864 29.536C57.5184 28.72 57.7344 27.792 57.7344 26.752C57.7344 25.616 57.4064 24.736 56.7504 24.112C56.0944 23.488 55.1584 23.176 53.9424 23.176C52.9984 23.176 52.1504 23.408 51.3984 23.872C50.6464 24.32 50.0544 24.952 49.6224 25.768C49.1904 26.584 48.9744 27.512 48.9744 28.552C48.9744 29.672 49.3024 30.552 49.9584 31.192C50.6304 31.816 51.5664 32.128 52.7664 32.128ZM66.4378 29.944C66.3898 30.184 66.3658 30.408 66.3658 30.616C66.3658 31.128 66.5018 31.52 66.7738 31.792C67.0618 32.064 67.4858 32.2 68.0458 32.2C68.7178 32.2 69.3258 32 69.8698 31.6L70.3498 33.352C69.5818 33.88 68.5978 34.144 67.3978 34.144C66.3898 34.144 65.5738 33.864 64.9498 33.304C64.3418 32.728 64.0378 31.944 64.0378 30.952C64.0378 30.616 64.0698 30.296 64.1338 29.992L65.5018 23.176H63.3418L63.7018 21.28H65.8858L66.4378 18.496H68.7418L68.1898 21.28H71.8378L71.4538 23.176H67.8058L66.4378 29.944ZM75.4873 21.28H77.7913L75.2713 34H72.9673L75.4873 21.28ZM77.3113 18.832C76.8953 18.832 76.5513 18.696 76.2793 18.424C76.0073 18.152 75.8713 17.824 75.8713 17.44C75.8713 16.992 76.0233 16.616 76.3273 16.312C76.6473 15.992 77.0473 15.832 77.5273 15.832C77.9433 15.832 78.2873 15.968 78.5593 16.24C78.8473 16.496 78.9913 16.808 78.9913 17.176C78.9913 17.672 78.8313 18.072 78.5113 18.376C78.2073 18.68 77.8073 18.832 77.3113 18.832ZM85.6224 34.144C84.4224 34.144 83.3744 33.92 82.4784 33.472C81.5824 33.008 80.8864 32.36 80.3904 31.528C79.8944 30.696 79.6464 29.736 79.6464 28.648C79.6464 27.224 79.9664 25.944 80.6064 24.808C81.2464 23.672 82.1344 22.784 83.2704 22.144C84.4064 21.488 85.6864 21.16 87.1104 21.16C88.3104 21.16 89.3584 21.384 90.2544 21.832C91.1504 22.28 91.8384 22.92 92.3184 23.752C92.8144 24.568 93.0624 25.528 93.0624 26.632C93.0624 28.056 92.7424 29.344 92.1024 30.496C91.4624 31.632 90.5744 32.528 89.4384 33.184C88.3184 33.824 87.0464 34.144 85.6224 34.144ZM85.7664 32.128C86.7104 32.128 87.5584 31.904 88.3104 31.456C89.0784 30.992 89.6704 30.352 90.0864 29.536C90.5184 28.72 90.7344 27.792 90.7344 26.752C90.7344 25.616 90.4064 24.736 89.7504 24.112C89.0944 23.488 88.1584 23.176 86.9424 23.176C85.9984 23.176 85.1504 23.408 84.3984 23.872C83.6464 24.32 83.0544 24.952 82.6224 25.768C82.1904 26.584 81.9744 27.512 81.9744 28.552C81.9744 29.672 82.3024 30.552 82.9584 31.192C83.6304 31.816 84.5664 32.128 85.7664 32.128ZM103.929 21.16C105.385 21.16 106.513 21.528 107.313 22.264C108.129 23 108.537 24.04 108.537 25.384C108.537 25.848 108.489 26.344 108.393 26.872L106.977 34H104.673L106.089 26.872C106.169 26.44 106.209 26.088 106.209 25.816C106.209 24.984 105.961 24.344 105.465 23.896C104.969 23.448 104.233 23.224 103.257 23.224C102.009 23.224 100.977 23.568 100.161 24.256C99.3608 24.928 98.8248 25.936 98.5528 27.28L97.2088 34H94.9048L97.4248 21.28H99.6328L99.3208 22.912C100.473 21.744 102.009 21.16 103.929 21.16ZM132.182 21.28L129.662 34H127.454L127.766 32.44C127.19 32.984 126.518 33.408 125.75 33.712C124.998 34 124.174 34.144 123.278 34.144C122.19 34.144 121.222 33.928 120.374 33.496C119.526 33.048 118.862 32.408 118.382 31.576C117.902 30.744 117.662 29.768 117.662 28.648C117.662 27.208 117.974 25.92 118.598 24.784C119.222 23.648 120.078 22.76 121.166 22.12C122.27 21.48 123.502 21.16 124.862 21.16C125.95 21.16 126.878 21.352 127.646 21.736C128.43 22.12 129.03 22.688 129.446 23.44L129.878 21.28H132.182ZM123.782 32.128C124.726 32.128 125.574 31.904 126.326 31.456C127.094 30.992 127.686 30.352 128.102 29.536C128.534 28.72 128.75 27.792 128.75 26.752C128.75 25.616 128.422 24.736 127.766 24.112C127.11 23.488 126.174 23.176 124.958 23.176C124.014 23.176 123.166 23.408 122.414 23.872C121.662 24.32 121.07 24.952 120.638 25.768C120.206 26.584 119.99 27.512 119.99 28.552C119.99 29.672 120.318 30.552 120.974 31.192C121.646 31.816 122.582 32.128 123.782 32.128ZM143.069 21.16C144.525 21.16 145.653 21.528 146.453 22.264C147.269 23 147.677 24.04 147.677 25.384C147.677 25.848 147.629 26.344 147.533 26.872L146.117 34H143.813L145.229 26.872C145.309 26.44 145.349 26.088 145.349 25.816C145.349 24.984 145.101 24.344 144.605 23.896C144.109 23.448 143.373 23.224 142.397 23.224C141.149 23.224 140.117 23.568 139.301 24.256C138.501 24.928 137.965 25.936 137.693 27.28L136.349 34H134.045L136.565 21.28H138.773L138.461 22.912C139.613 21.744 141.149 21.16 143.069 21.16ZM165.98 16.192L162.428 34H160.22L160.532 32.44C159.956 32.984 159.284 33.408 158.516 33.712C157.764 34 156.94 34.144 156.044 34.144C154.956 34.144 153.988 33.928 153.14 33.496C152.292 33.048 151.628 32.408 151.148 31.576C150.668 30.744 150.428 29.768 150.428 28.648C150.428 27.208 150.74 25.92 151.364 24.784C151.988 23.648 152.844 22.76 153.932 22.12C155.036 21.48 156.268 21.16 157.628 21.16C158.716 21.16 159.652 21.36 160.436 21.76C161.236 22.144 161.836 22.712 162.236 23.464L163.676 16.192H165.98ZM156.548 32.128C157.492 32.128 158.34 31.904 159.092 31.456C159.86 30.992 160.452 30.352 160.868 29.536C161.3 28.72 161.516 27.792 161.516 26.752C161.516 25.616 161.188 24.736 160.532 24.112C159.876 23.488 158.94 23.176 157.724 23.176C156.78 23.176 155.932 23.408 155.18 23.872C154.428 24.32 153.836 24.952 153.404 25.768C152.972 26.584 152.756 27.512 152.756 28.552C152.756 29.672 153.084 30.552 153.74 31.192C154.412 31.816 155.348 32.128 156.548 32.128ZM181.008 34.192C179.024 34.192 177.472 33.696 176.352 32.704C175.248 31.712 174.696 30.336 174.696 28.576C174.696 28.048 174.76 27.44 174.888 26.752L176.784 17.2H179.184L177.264 26.728C177.152 27.272 177.096 27.8 177.096 28.312C177.096 29.544 177.448 30.48 178.152 31.12C178.856 31.744 179.88 32.056 181.224 32.056C182.728 32.056 183.928 31.624 184.824 30.76C185.736 29.896 186.376 28.544 186.744 26.704L188.64 17.2H190.992L189.072 26.872C188.576 29.304 187.648 31.136 186.288 32.368C184.944 33.584 183.184 34.192 181.008 34.192ZM196.249 34.144C195.193 34.144 194.185 34.008 193.225 33.736C192.281 33.464 191.545 33.112 191.017 32.68L192.049 30.856C192.545 31.256 193.185 31.576 193.969 31.816C194.769 32.04 195.601 32.152 196.465 32.152C197.553 32.152 198.377 31.992 198.937 31.672C199.513 31.336 199.801 30.872 199.801 30.28C199.801 29.8 199.569 29.456 199.105 29.248C198.657 29.04 197.953 28.832 196.993 28.624C196.097 28.432 195.361 28.24 194.785 28.048C194.225 27.84 193.745 27.52 193.345 27.088C192.945 26.64 192.745 26.04 192.745 25.288C192.745 24.456 192.977 23.728 193.441 23.104C193.921 22.48 194.593 22 195.457 21.664C196.337 21.328 197.353 21.16 198.505 21.16C199.353 21.16 200.177 21.264 200.977 21.472C201.777 21.68 202.433 21.96 202.945 22.312L202.033 24.136C201.537 23.8 200.961 23.552 200.305 23.392C199.649 23.216 198.977 23.128 198.289 23.128C197.249 23.128 196.449 23.304 195.889 23.656C195.329 23.992 195.049 24.448 195.049 25.024C195.049 25.536 195.281 25.904 195.745 26.128C196.209 26.336 196.929 26.544 197.905 26.752C198.785 26.944 199.505 27.136 200.065 27.328C200.625 27.52 201.097 27.832 201.481 28.264C201.881 28.696 202.081 29.28 202.081 30.016C202.081 31.312 201.545 32.328 200.473 33.064C199.417 33.784 198.009 34.144 196.249 34.144ZM206.496 28.36V28.504C206.496 29.688 206.832 30.592 207.504 31.216C208.176 31.824 209.184 32.128 210.528 32.128C211.312 32.128 212.048 32 212.736 31.744C213.424 31.472 214 31.112 214.464 30.664L215.448 32.32C214.824 32.896 214.064 33.344 213.168 33.664C212.272 33.984 211.328 34.144 210.336 34.144C209.088 34.144 208.008 33.92 207.096 33.472C206.184 33.024 205.48 32.384 204.984 31.552C204.488 30.72 204.24 29.744 204.24 28.624C204.24 27.2 204.544 25.92 205.152 24.784C205.776 23.648 206.632 22.76 207.72 22.12C208.824 21.48 210.056 21.16 211.416 21.16C213.144 21.16 214.52 21.656 215.544 22.648C216.584 23.624 217.104 24.96 217.104 26.656C217.104 27.168 217.048 27.736 216.936 28.36H206.496ZM211.32 23.08C210.184 23.08 209.208 23.4 208.392 24.04C207.576 24.68 207.024 25.56 206.736 26.68H214.944C215.008 25.544 214.704 24.664 214.032 24.04C213.376 23.4 212.472 23.08 211.32 23.08ZM223.304 23.176C223.864 22.472 224.552 21.96 225.368 21.64C226.184 21.32 227.176 21.16 228.344 21.16L227.912 23.392C227.768 23.376 227.568 23.368 227.312 23.368C224.672 23.368 223.072 24.792 222.512 27.64L221.24 34H218.936L221.456 21.28H223.664L223.304 23.176ZM251.353 22.12C251.353 23.768 250.913 25.144 250.033 26.248C249.153 27.352 247.913 28.112 246.313 28.528L249.385 34H246.841L243.913 28.864H243.457H238.969L237.961 34H235.537L238.897 17.2H245.161C247.129 17.2 248.649 17.632 249.721 18.496C250.809 19.344 251.353 20.552 251.353 22.12ZM243.529 26.824C245.257 26.824 246.593 26.44 247.537 25.672C248.481 24.904 248.953 23.792 248.953 22.336C248.953 21.328 248.609 20.568 247.921 20.056C247.233 19.544 246.241 19.288 244.945 19.288H240.889L239.377 26.824H243.529ZM254.895 28.36V28.504C254.895 29.688 255.231 30.592 255.903 31.216C256.575 31.824 257.583 32.128 258.927 32.128C259.711 32.128 260.447 32 261.135 31.744C261.823 31.472 262.399 31.112 262.863 30.664L263.847 32.32C263.223 32.896 262.463 33.344 261.567 33.664C260.671 33.984 259.727 34.144 258.735 34.144C257.487 34.144 256.407 33.92 255.495 33.472C254.583 33.024 253.879 32.384 253.383 31.552C252.887 30.72 252.639 29.744 252.639 28.624C252.639 27.2 252.943 25.92 253.551 24.784C254.175 23.648 255.031 22.76 256.119 22.12C257.223 21.48 258.455 21.16 259.815 21.16C261.543 21.16 262.919 21.656 263.943 22.648C264.983 23.624 265.503 24.96 265.503 26.656C265.503 27.168 265.447 27.736 265.335 28.36H254.895ZM259.719 23.08C258.583 23.08 257.607 23.4 256.791 24.04C255.975 24.68 255.423 25.56 255.135 26.68H263.343C263.407 25.544 263.103 24.664 262.431 24.04C261.775 23.4 260.871 23.08 259.719 23.08ZM271.342 34.144C270.286 34.144 269.278 34.008 268.318 33.736C267.374 33.464 266.638 33.112 266.11 32.68L267.142 30.856C267.638 31.256 268.278 31.576 269.062 31.816C269.862 32.04 270.694 32.152 271.558 32.152C272.646 32.152 273.47 31.992 274.03 31.672C274.606 31.336 274.894 30.872 274.894 30.28C274.894 29.8 274.662 29.456 274.198 29.248C273.75 29.04 273.046 28.832 272.086 28.624C271.19 28.432 270.454 28.24 269.878 28.048C269.318 27.84 268.838 27.52 268.438 27.088C268.038 26.64 267.838 26.04 267.838 25.288C267.838 24.456 268.07 23.728 268.534 23.104C269.014 22.48 269.686 22 270.55 21.664C271.43 21.328 272.446 21.16 273.598 21.16C274.446 21.16 275.27 21.264 276.07 21.472C276.87 21.68 277.526 21.96 278.038 22.312L277.126 24.136C276.63 23.8 276.054 23.552 275.398 23.392C274.742 23.216 274.07 23.128 273.382 23.128C272.342 23.128 271.542 23.304 270.982 23.656C270.422 23.992 270.142 24.448 270.142 25.024C270.142 25.536 270.374 25.904 270.838 26.128C271.302 26.336 272.022 26.544 272.998 26.752C273.878 26.944 274.598 27.136 275.158 27.328C275.718 27.52 276.19 27.832 276.574 28.264C276.974 28.696 277.174 29.28 277.174 30.016C277.174 31.312 276.638 32.328 275.566 33.064C274.51 33.784 273.102 34.144 271.342 34.144ZM281.59 28.36V28.504C281.59 29.688 281.926 30.592 282.598 31.216C283.27 31.824 284.278 32.128 285.622 32.128C286.406 32.128 287.142 32 287.83 31.744C288.518 31.472 289.094 31.112 289.558 30.664L290.542 32.32C289.918 32.896 289.158 33.344 288.262 33.664C287.366 33.984 286.422 34.144 285.43 34.144C284.182 34.144 283.102 33.92 282.19 33.472C281.278 33.024 280.574 32.384 280.078 31.552C279.582 30.72 279.334 29.744 279.334 28.624C279.334 27.2 279.638 25.92 280.246 24.784C280.87 23.648 281.726 22.76 282.814 22.12C283.918 21.48 285.15 21.16 286.51 21.16C288.238 21.16 289.614 21.656 290.638 22.648C291.678 23.624 292.198 24.96 292.198 26.656C292.198 27.168 292.142 27.736 292.03 28.36H281.59ZM286.414 23.08C285.278 23.08 284.302 23.4 283.486 24.04C282.67 24.68 282.118 25.56 281.83 26.68H290.038C290.102 25.544 289.798 24.664 289.126 24.04C288.47 23.4 287.566 23.08 286.414 23.08ZM308.526 21.28L306.006 34H303.798L304.11 32.44C303.534 32.984 302.862 33.408 302.094 33.712C301.342 34 300.518 34.144 299.622 34.144C298.534 34.144 297.566 33.928 296.718 33.496C295.87 33.048 295.206 32.408 294.726 31.576C294.246 30.744 294.006 29.768 294.006 28.648C294.006 27.208 294.318 25.92 294.942 24.784C295.566 23.648 296.422 22.76 297.51 22.12C298.614 21.48 299.846 21.16 301.206 21.16C302.294 21.16 303.222 21.352 303.99 21.736C304.774 22.12 305.374 22.688 305.79 23.44L306.222 21.28H308.526ZM300.126 32.128C301.07 32.128 301.918 31.904 302.67 31.456C303.438 30.992 304.03 30.352 304.446 29.536C304.878 28.72 305.094 27.792 305.094 26.752C305.094 25.616 304.766 24.736 304.11 24.112C303.454 23.488 302.518 23.176 301.302 23.176C300.358 23.176 299.51 23.408 298.758 23.872C298.006 24.32 297.414 24.952 296.982 25.768C296.55 26.584 296.334 27.512 296.334 28.552C296.334 29.672 296.662 30.552 297.318 31.192C297.99 31.816 298.926 32.128 300.126 32.128ZM314.757 23.176C315.317 22.472 316.005 21.96 316.821 21.64C317.637 21.32 318.629 21.16 319.797 21.16L319.365 23.392C319.221 23.376 319.021 23.368 318.765 23.368C316.125 23.368 314.525 24.792 313.965 27.64L312.693 34H310.389L312.909 21.28H315.117L314.757 23.176ZM325.976 34.144C324.76 34.144 323.696 33.92 322.784 33.472C321.872 33.008 321.168 32.368 320.672 31.552C320.176 30.72 319.928 29.752 319.928 28.648C319.928 27.224 320.248 25.944 320.888 24.808C321.528 23.672 322.416 22.784 323.552 22.144C324.688 21.488 325.976 21.16 327.416 21.16C329.928 21.16 331.672 22.08 332.648 23.92L330.704 25C330.032 23.784 328.88 23.176 327.248 23.176C326.304 23.176 325.448 23.408 324.68 23.872C323.928 24.32 323.336 24.952 322.904 25.768C322.472 26.584 322.256 27.512 322.256 28.552C322.256 29.672 322.584 30.552 323.24 31.192C323.912 31.816 324.856 32.128 326.072 32.128C326.84 32.128 327.552 31.976 328.208 31.672C328.88 31.368 329.432 30.92 329.864 30.328L331.544 31.528C330.952 32.344 330.16 32.984 329.168 33.448C328.176 33.912 327.112 34.144 325.976 34.144ZM342.523 21.16C343.979 21.16 345.107 21.528 345.907 22.264C346.723 23 347.131 24.04 347.131 25.384C347.131 25.848 347.083 26.344 346.987 26.872L345.571 34H343.267L344.682 26.872C344.763 26.44 344.803 26.088 344.803 25.816C344.803 24.984 344.555 24.344 344.059 23.896C343.563 23.448 342.827 23.224 341.851 23.224C340.603 23.224 339.571 23.568 338.755 24.256C337.955 24.928 337.419 25.936 337.147 27.28L335.803 34H333.499L337.051 16.192H339.355L338.035 22.768C339.171 21.696 340.667 21.16 342.523 21.16Z" fill="#202020"/>
<circle cx="466.242" cy="24.2425" r="24.2425" fill="#E06B65"/>
<path d="M458.545 20.0201H454.369V18.0401H465.061V20.0201H460.885V30.6401H458.545V20.0201ZM472.002 18.0401C473.094 18.0401 474.042 18.2201 474.846 18.5801C475.662 18.9401 476.286 19.4561 476.718 20.1281C477.15 20.8001 477.366 21.5981 477.366 22.5221C477.366 23.4341 477.15 24.2321 476.718 24.9161C476.286 25.5881 475.662 26.1041 474.846 26.4641C474.042 26.8241 473.094 27.0041 472.002 27.0041H469.158V30.6401H466.818V18.0401H472.002ZM471.894 25.0241C472.914 25.0241 473.688 24.8081 474.216 24.3761C474.744 23.9441 475.008 23.3261 475.008 22.5221C475.008 21.7181 474.744 21.1001 474.216 20.6681C473.688 20.2361 472.914 20.0201 471.894 20.0201H469.158V25.0241H471.894Z" fill="#202020"/>
<circle cx="427.242" cy="24.2425" r="23.2425" fill="white" stroke="#C4C4C4" stroke-width="2"/>
<path d="M425.355 24.0881C426.051 24.3161 426.603 24.7001 427.011 25.2401C427.419 25.7681 427.623 26.4281 427.623 27.2201C427.623 28.3121 427.203 29.1581 426.363 29.7581C425.523 30.3461 424.299 30.6401 422.691 30.6401H416.427V18.0401H422.331C423.819 18.0401 424.965 18.3341 425.769 18.9221C426.573 19.4981 426.975 20.2961 426.975 21.3161C426.975 21.9401 426.831 22.4921 426.543 22.9721C426.255 23.4521 425.859 23.8241 425.355 24.0881ZM418.767 19.8761V23.3501H422.079C422.895 23.3501 423.519 23.2061 423.951 22.9181C424.395 22.6181 424.617 22.1861 424.617 21.6221C424.617 21.0461 424.395 20.6141 423.951 20.3261C423.519 20.0261 422.895 19.8761 422.079 19.8761H418.767ZM422.547 28.8041C424.359 28.8041 425.265 28.1981 425.265 26.9861C425.265 25.7741 424.359 25.1681 422.547 25.1681H418.767V28.8041H422.547ZM434.026 30.8201C433.054 30.8201 432.112 30.6821 431.2 30.4061C430.3 30.1301 429.586 29.7641 429.058 29.3081L429.868 27.4901C430.384 27.8981 431.014 28.2341 431.758 28.4981C432.514 28.7501 433.27 28.8761 434.026 28.8761C434.962 28.8761 435.658 28.7261 436.114 28.4261C436.582 28.1261 436.816 27.7301 436.816 27.2381C436.816 26.8781 436.684 26.5841 436.42 26.3561C436.168 26.1161 435.844 25.9301 435.448 25.7981C435.052 25.6661 434.512 25.5161 433.828 25.3481C432.868 25.1201 432.088 24.8921 431.488 24.6641C430.9 24.4361 430.39 24.0821 429.958 23.6021C429.538 23.1101 429.328 22.4501 429.328 21.6221C429.328 20.9261 429.514 20.2961 429.886 19.7321C430.27 19.1561 430.84 18.7001 431.596 18.3641C432.364 18.0281 433.3 17.8601 434.404 17.8601C435.172 17.8601 435.928 17.9561 436.672 18.1481C437.416 18.3401 438.058 18.6161 438.598 18.9761L437.86 20.7941C437.308 20.4701 436.732 20.2241 436.132 20.0561C435.532 19.8881 434.95 19.8041 434.386 19.8041C433.462 19.8041 432.772 19.9601 432.316 20.2721C431.872 20.5841 431.65 20.9981 431.65 21.5141C431.65 21.8741 431.776 22.1681 432.028 22.3961C432.292 22.6241 432.622 22.8041 433.018 22.9361C433.414 23.0681 433.954 23.2181 434.638 23.3861C435.574 23.6021 436.342 23.8301 436.942 24.0701C437.542 24.2981 438.052 24.6521 438.472 25.1321C438.904 25.6121 439.12 26.2601 439.12 27.0761C439.12 27.7721 438.928 28.4021 438.544 28.9661C438.172 29.5301 437.602 29.9801 436.834 30.3161C436.066 30.6521 435.13 30.8201 434.026 30.8201Z" fill="#202020"/>
<circle cx="389.242" cy="24.2425" r="24.2425" fill="#FFF599"/>
<path d="M379.121 18.0401H381.461V28.6601H388.049V30.6401H379.121V18.0401ZM395.5 30.8201C394.228 30.8201 393.076 30.5441 392.044 29.9921C391.024 29.4281 390.22 28.6541 389.632 27.6701C389.056 26.6861 388.768 25.5761 388.768 24.3401C388.768 23.1041 389.062 21.9941 389.65 21.0101C390.238 20.0261 391.042 19.2581 392.062 18.7061C393.094 18.1421 394.246 17.8601 395.518 17.8601C396.55 17.8601 397.492 18.0401 398.344 18.4001C399.196 18.7601 399.916 19.2821 400.504 19.9661L398.992 21.3881C398.08 20.4041 396.958 19.9121 395.626 19.9121C394.762 19.9121 393.988 20.1041 393.304 20.4881C392.62 20.8601 392.086 21.3821 391.702 22.0541C391.318 22.7261 391.126 23.4881 391.126 24.3401C391.126 25.1921 391.318 25.9541 391.702 26.6261C392.086 27.2981 392.62 27.8261 393.304 28.2101C393.988 28.5821 394.762 28.7681 395.626 28.7681C396.958 28.7681 398.08 28.2701 398.992 27.2741L400.504 28.7141C399.916 29.3981 399.19 29.9201 398.326 30.2801C397.474 30.6401 396.532 30.8201 395.5 30.8201Z" fill="#202020"/>
</svg>
