<svg width="87" height="49" viewBox="0 0 87 49" fill="none" xmlns="http://www.w3.org/2000/svg">
<circle cx="62.2425" cy="24.2425" r="24.2425" fill="#99CC99"/>
<path d="M59.7335 30.6403L57.1595 26.9503C57.0515 26.9623 56.8895 26.9683 56.6735 26.9683H53.8295V30.6403H51.4895V18.0403H56.6735C57.7655 18.0403 58.7135 18.2203 59.5175 18.5803C60.3335 18.9403 60.9575 19.4563 61.3895 20.1283C61.8215 20.8003 62.0375 21.5983 62.0375 22.5223C62.0375 23.4703 61.8035 24.2863 61.3355 24.9703C60.8795 25.6543 60.2195 26.1643 59.3555 26.5003L62.2535 30.6403H59.7335ZM59.6795 22.5223C59.6795 21.7183 59.4155 21.1003 58.8875 20.6683C58.3595 20.2363 57.5855 20.0203 56.5655 20.0203H53.8295V25.0423H56.5655C57.5855 25.0423 58.3595 24.8263 58.8875 24.3943C59.4155 23.9503 59.6795 23.3263 59.6795 22.5223ZM69.9157 26.1943V30.6403H67.5757V26.2303L62.6257 18.0403H65.1277L68.8177 24.1783L72.5437 18.0403H74.8477L69.9157 26.1943Z" fill="#202020"/>
<circle cx="24.2425" cy="24.2425" r="24.2425" fill="#99CCFF"/>
<path d="M16.8945 30.8203C15.9225 30.8203 14.9805 30.6823 14.0685 30.4063C13.1685 30.1303 12.4545 29.7643 11.9265 29.3083L12.7365 27.4903C13.2525 27.8983 13.8825 28.2343 14.6265 28.4983C15.3825 28.7503 16.1385 28.8763 16.8945 28.8763C17.8305 28.8763 18.5265 28.7263 18.9825 28.4263C19.4505 28.1263 19.6845 27.7303 19.6845 27.2383C19.6845 26.8783 19.5525 26.5843 19.2885 26.3563C19.0365 26.1163 18.7125 25.9303 18.3165 25.7983C17.9205 25.6663 17.3805 25.5163 16.6965 25.3483C15.7365 25.1203 14.9565 24.8923 14.3565 24.6643C13.7685 24.4363 13.2585 24.0823 12.8265 23.6023C12.4065 23.1103 12.1965 22.4503 12.1965 21.6223C12.1965 20.9263 12.3825 20.2963 12.7545 19.7323C13.1385 19.1563 13.7085 18.7003 14.4645 18.3643C15.2325 18.0283 16.1685 17.8603 17.2725 17.8603C18.0405 17.8603 18.7965 17.9563 19.5405 18.1483C20.2845 18.3403 20.9265 18.6163 21.4665 18.9763L20.7285 20.7943C20.1765 20.4703 19.6005 20.2243 19.0005 20.0563C18.4005 19.8883 17.8185 19.8043 17.2545 19.8043C16.3305 19.8043 15.6405 19.9603 15.1845 20.2723C14.7405 20.5843 14.5185 20.9983 14.5185 21.5143C14.5185 21.8743 14.6445 22.1683 14.8965 22.3963C15.1605 22.6243 15.4905 22.8043 15.8865 22.9363C16.2825 23.0683 16.8225 23.2183 17.5065 23.3863C18.4425 23.6023 19.2105 23.8303 19.8105 24.0703C20.4105 24.2983 20.9205 24.6523 21.3405 25.1323C21.7725 25.6123 21.9885 26.2603 21.9885 27.0763C21.9885 27.7723 21.7965 28.4023 21.4125 28.9663C21.0405 29.5303 20.4705 29.9803 19.7025 30.3163C18.9345 30.6523 17.9985 30.8203 16.8945 30.8203ZM35.5048 18.0403V30.6403H33.1648V25.2403H26.6488V30.6403H24.3088V18.0403H26.6488V23.2423H33.1648V18.0403H35.5048Z" fill="#202020"/>
</svg>
