<svg width="126" height="49" viewBox="0 0 126 49" fill="none" xmlns="http://www.w3.org/2000/svg">
<circle cx="101.242" cy="24.2425" r="24.2425" fill="#E06B65"/>
<path d="M93.5455 20.0201H89.3695V18.0401H100.061V20.0201H95.8855V30.6401H93.5455V20.0201ZM107.002 18.0401C108.094 18.0401 109.042 18.2201 109.846 18.5801C110.662 18.9401 111.286 19.4561 111.718 20.1281C112.15 20.8001 112.366 21.5981 112.366 22.5221C112.366 23.4341 112.15 24.2321 111.718 24.9161C111.286 25.5881 110.662 26.1041 109.846 26.4641C109.042 26.8241 108.094 27.0041 107.002 27.0041H104.158V30.6401H101.818V18.0401H107.002ZM106.894 25.0241C107.914 25.0241 108.688 24.8081 109.216 24.3761C109.744 23.9441 110.008 23.3261 110.008 22.5221C110.008 21.7181 109.744 21.1001 109.216 20.6681C108.688 20.2361 107.914 20.0201 106.894 20.0201H104.158V25.0241H106.894Z" fill="#202020"/>
<circle cx="62.2425" cy="24.2425" r="23.2425" fill="white" stroke="#C4C4C4" stroke-width="2"/>
<path d="M60.355 24.0881C61.051 24.3161 61.603 24.7001 62.011 25.2401C62.419 25.7681 62.623 26.4281 62.623 27.2201C62.623 28.3121 62.203 29.1581 61.363 29.7581C60.523 30.3461 59.299 30.6401 57.691 30.6401H51.427V18.0401H57.331C58.819 18.0401 59.965 18.3341 60.769 18.9221C61.573 19.4981 61.975 20.2961 61.975 21.3161C61.975 21.9401 61.831 22.4921 61.543 22.9721C61.255 23.4521 60.859 23.8241 60.355 24.0881ZM53.767 19.8761V23.3501H57.079C57.895 23.3501 58.519 23.2061 58.951 22.9181C59.395 22.6181 59.617 22.1861 59.617 21.6221C59.617 21.0461 59.395 20.6141 58.951 20.3261C58.519 20.0261 57.895 19.8761 57.079 19.8761H53.767ZM57.547 28.8041C59.359 28.8041 60.265 28.1981 60.265 26.9861C60.265 25.7741 59.359 25.1681 57.547 25.1681H53.767V28.8041H57.547ZM69.0263 30.8201C68.0543 30.8201 67.1123 30.6821 66.2003 30.4061C65.3003 30.1301 64.5863 29.7641 64.0583 29.3081L64.8683 27.4901C65.3843 27.8981 66.0143 28.2341 66.7583 28.4981C67.5143 28.7501 68.2703 28.8761 69.0263 28.8761C69.9623 28.8761 70.6583 28.7261 71.1143 28.4261C71.5823 28.1261 71.8163 27.7301 71.8163 27.2381C71.8163 26.8781 71.6843 26.5841 71.4203 26.3561C71.1683 26.1161 70.8443 25.9301 70.4483 25.7981C70.0523 25.6661 69.5123 25.5161 68.8283 25.3481C67.8683 25.1201 67.0883 24.8921 66.4883 24.6641C65.9003 24.4361 65.3903 24.0821 64.9583 23.6021C64.5383 23.1101 64.3283 22.4501 64.3283 21.6221C64.3283 20.9261 64.5143 20.2961 64.8863 19.7321C65.2703 19.1561 65.8403 18.7001 66.5963 18.3641C67.3643 18.0281 68.3003 17.8601 69.4043 17.8601C70.1723 17.8601 70.9283 17.9561 71.6723 18.1481C72.4163 18.3401 73.0583 18.6161 73.5983 18.9761L72.8603 20.7941C72.3083 20.4701 71.7323 20.2241 71.1323 20.0561C70.5323 19.8881 69.9503 19.8041 69.3863 19.8041C68.4623 19.8041 67.7723 19.9601 67.3163 20.2721C66.8723 20.5841 66.6503 20.9981 66.6503 21.5141C66.6503 21.8741 66.7763 22.1681 67.0283 22.3961C67.2923 22.6241 67.6223 22.8041 68.0183 22.9361C68.4143 23.0681 68.9543 23.2181 69.6383 23.3861C70.5743 23.6021 71.3423 23.8301 71.9423 24.0701C72.5423 24.2981 73.0523 24.6521 73.4723 25.1321C73.9043 25.6121 74.1203 26.2601 74.1203 27.0761C74.1203 27.7721 73.9283 28.4021 73.5443 28.9661C73.1723 29.5301 72.6023 29.9801 71.8343 30.3161C71.0663 30.6521 70.1303 30.8201 69.0263 30.8201Z" fill="#202020"/>
<circle cx="24.2425" cy="24.2425" r="24.2425" fill="#FFF599"/>
<path d="M14.1213 18.0401H16.4613V28.6601H23.0493V30.6401H14.1213V18.0401ZM30.5002 30.8201C29.2282 30.8201 28.0762 30.5441 27.0442 29.9921C26.0242 29.4281 25.2202 28.6541 24.6322 27.6701C24.0562 26.6861 23.7682 25.5761 23.7682 24.3401C23.7682 23.1041 24.0622 21.9941 24.6502 21.0101C25.2382 20.0261 26.0422 19.2581 27.0622 18.7061C28.0942 18.1421 29.2462 17.8601 30.5182 17.8601C31.5502 17.8601 32.4922 18.0401 33.3442 18.4001C34.1962 18.7601 34.9162 19.2821 35.5042 19.9661L33.9922 21.3881C33.0802 20.4041 31.9582 19.9121 30.6262 19.9121C29.7622 19.9121 28.9882 20.1041 28.3042 20.4881C27.6202 20.8601 27.0862 21.3821 26.7022 22.0541C26.3182 22.7261 26.1262 23.4881 26.1262 24.3401C26.1262 25.1921 26.3182 25.9541 26.7022 26.6261C27.0862 27.2981 27.6202 27.8261 28.3042 28.2101C28.9882 28.5821 29.7622 28.7681 30.6262 28.7681C31.9582 28.7681 33.0802 28.2701 33.9922 27.2741L35.5042 28.7141C34.9162 29.3981 34.1902 29.9201 33.3262 30.2801C32.4742 30.6401 31.5322 30.8201 30.5002 30.8201Z" fill="#202020"/>
</svg>
