<svg width="79" height="83" viewBox="0 0 79 83" fill="none" xmlns="http://www.w3.org/2000/svg">
<path fill-rule="evenodd" clip-rule="evenodd" d="M37.6216 0.0215064C45.9681 -0.157107 54.5686 0.696525 61.4588 5.63606C68.4622 10.6567 72.6344 18.7487 75.4467 27.1381C78.3171 35.701 80.6105 45.1222 77.5401 53.6086C74.5278 61.9344 66.5407 66.5995 59.4148 71.4496C52.6689 76.0411 45.6402 80.1094 37.6216 80.7785C29.0994 81.4895 19.9829 80.6967 13.152 75.3097C6.37006 69.9612 3.60525 60.9309 1.52122 52.3085C-0.443095 44.1815 -0.618067 35.8093 1.66246 27.7734C3.98989 19.5723 7.90693 11.7152 14.4813 6.64136C21.0809 1.54805 29.427 0.196867 37.6216 0.0215064Z" fill="#FFFF99"/>
<path d="M40.4962 15.6845C40.4962 15.6845 27.3262 15.8945 27.1162 34.4945C27.1162 34.4945 20.0062 33.2445 26.1162 42.4945C26.1162 42.4945 26.7162 44.0745 28.5862 42.4945C30.4562 40.9145 26.8362 46.2845 35.3362 51.6545C35.3362 51.6545 35.4562 60.2745 33.3362 61.6545C31.2162 63.0345 44.9562 67.7745 47.1962 61.6545C45.7471 59.8804 44.9841 57.6444 45.0462 55.3545C45.0462 55.3545 54.4862 54.8745 54.5362 38.6145C54.5862 22.3545 50.0462 14.7445 40.4962 15.6845Z" fill="#E8C0B6"/>
<path d="M65.0457 66.1345C65.0457 66.1345 62.3857 50.0245 63.6257 43.0045C64.8657 35.9845 51.4358 15.6445 51.4358 15.6445C51.4358 15.6445 52.6658 6.85453 46.4358 9.49453C46.4358 9.49453 42.1658 12.5945 34.4358 10.8445C26.7058 9.09453 22.0457 19.5745 22.5957 23.0645C22.5957 23.0645 9.79575 27.7245 13.6758 48.0645C17.5558 68.4045 15.7437 78.5245 21.3637 81.4345C26.9837 84.3445 37.1958 82.6499 42.6758 74.4999C48.1558 66.3499 53.6758 81.4345 53.6758 81.4345C53.6758 81.4345 66.6257 86.3045 65.0457 66.1345ZM52.3358 49.6145C49.8558 53.4545 48.1857 54.9345 45.7257 54.9345C43.2657 54.9345 46.8257 61.2045 46.8257 61.2045C40.2957 64.4045 34.0257 60.6745 34.0257 60.6745C36.8557 58.6745 36.0258 51.6745 36.0258 51.6745C32.5758 51.4545 29.1158 42.2045 29.1158 42.2045C26.2858 44.4245 25.0058 40.6445 25.0058 40.6445C22.5558 32.9745 27.1557 34.5145 27.1557 34.5145C26.5357 25.5145 36.6357 23.3445 42.6758 22.1145C48.7158 20.8845 49.2057 18.2945 49.2057 18.2945C56.6357 26.9545 54.8558 45.7145 52.3358 49.6145Z" fill="#202020"/>
<path d="M46.7243 59.7438C41.015 64.3113 35.4639 61.647 33.402 59.7438C23.3059 59.3226 15.5562 74.9521 12.9434 82.8195H69.5619C64.3282 73.2245 52.4336 55.1763 46.7243 59.7438Z" fill="#F8F8C8"/>
</svg>
