<svg width="81" height="83" viewBox="0 0 81 83" fill="none" xmlns="http://www.w3.org/2000/svg">
<path fill-rule="evenodd" clip-rule="evenodd" d="M42.6893 1.04792C51.3229 0.574466 60.0462 3.63377 66.597 9.13367C72.8554 14.3882 75.2202 22.4415 77.4138 30.2021C79.5092 37.6153 81.1937 45.3014 78.8996 52.6586C76.5779 60.1039 70.905 65.8226 64.7575 70.7898C58.222 76.0705 51.1555 81.2927 42.6893 81.9165C33.8761 82.5659 25.1444 79.3736 18.0551 74.231C11.0221 69.1292 6.30292 61.6971 3.60886 53.5672C0.918764 45.4493 -0.288722 36.5408 2.9374 28.6105C6.0649 20.9226 13.7448 16.4476 20.6601 11.6528C27.5007 6.90974 34.3066 1.50762 42.6893 1.04792Z" fill="#373737" stroke="#373737" stroke-width="2"/>
<path d="M43.3766 14.9804C43.3766 14.9804 30.2066 15.1904 29.9966 33.8004C29.9966 33.8004 22.8966 32.5404 28.9966 41.7404C28.9966 41.7404 29.5866 43.3204 31.4566 41.7404C33.3266 40.1604 29.6866 45.4904 38.1666 50.8604C38.1666 50.8604 38.2866 59.4804 36.1666 60.8604C34.0466 62.2404 47.7866 66.9804 50.0366 60.8604C48.6044 59.1014 47.8488 56.888 47.9066 54.6204C47.9066 54.6204 57.3466 54.1404 57.4066 37.8804C57.4666 21.6204 52.9566 13.9804 43.3766 14.9804Z" fill="#E8C8B6"/>
<path d="M57.768 14.5905C57.768 14.5905 53.058 11.5905 53.198 10.1605C53.338 8.73049 49.918 6.98049 47.058 8.31049C47.058 8.31049 42.058 4.16049 37.208 8.45049C37.208 8.45049 30.778 7.88049 28.638 12.0205C28.638 12.0205 23.638 11.5905 25.638 18.5905C25.638 18.5905 20.638 21.0205 24.498 26.4405C24.498 26.4405 21.638 30.7305 25.498 33.3005C29.358 35.8705 29.638 32.7305 30.498 37.3005C31.358 41.8705 32.778 33.0105 32.638 31.3005C32.498 29.5905 32.638 25.8705 34.918 26.8705C37.198 27.8705 34.068 21.9805 38.688 24.3005C43.308 26.6205 45.538 19.8005 47.398 22.5505C49.258 25.3005 53.248 26.5505 54.248 23.7305C55.248 20.9105 57.108 24.9405 59.108 22.5505C61.108 20.1605 62.338 18.9805 57.768 14.5905Z" fill="#69512B"/>
<path d="M48.4411 59.9245C42.7318 64.492 37.1807 61.8276 35.1188 59.9245C25.0227 59.5033 17.273 75.1328 14.6602 83.0002H71.2787C66.045 73.4051 54.1504 55.357 48.4411 59.9245Z" fill="#202020"/>
</svg>
