<svg width="79" height="81" viewBox="0 0 79 81" fill="none" xmlns="http://www.w3.org/2000/svg">
<path fill-rule="evenodd" clip-rule="evenodd" d="M39.9408 0.00223137C47.6403 -0.0987379 54.984 3.23544 61.2201 8.2716C67.4636 13.3136 72.0672 20.2711 74.9248 28.2544C77.9459 36.6945 80.6172 46.1165 77.8221 54.6529C75.0605 63.0869 67.2948 67.6716 60.4626 72.4234C54.1088 76.8425 47.4292 81.0453 39.9408 80.9996C32.477 80.9541 25.9694 76.4789 19.5815 72.174C12.5738 67.4515 4.20986 63.4601 1.26984 54.939C-1.71448 46.2895 1.07414 36.5516 4.35254 28.0355C7.40231 20.1133 12.7071 13.7994 19.0221 8.82498C25.2637 3.90836 32.2992 0.102441 39.9408 0.00223137Z" fill="#99CC99"/>
<path d="M40.0748 12.3287C40.0748 12.3287 26.9048 12.5387 26.6948 31.1787C26.6948 31.1787 19.5948 29.9287 25.6948 39.1787C25.6948 39.1787 26.2848 40.7587 28.1548 39.1787C30.0248 37.5987 26.4048 42.9587 34.9048 48.3387C34.9048 48.3387 35.0248 56.9587 32.9048 58.3387C30.7848 59.7187 44.5248 64.4587 46.7748 58.3387C45.3435 56.5753 44.5882 54.3592 44.6448 52.0887C44.6448 52.0887 54.0848 51.6187 54.1448 35.3487C54.1548 19.1787 49.6548 11.3887 40.0748 12.3287Z" fill="#E8C0B6"/>
<path d="M38.3845 10.7487C38.3845 10.7487 35.5445 8.93872 32.2745 11.8687C29.0045 14.7987 27.1045 12.8687 25.7245 17.3787C24.3445 21.8887 23.9645 27.5287 24.6545 29.1787C25.3445 30.8287 31.5245 31.5587 33.0445 28.9287C34.3945 26.5887 34.7345 32.5187 37.7845 28.6687C40.4345 25.3187 41.3945 32.8287 44.0645 29.8987C46.7345 26.9687 46.4745 30.8987 47.4145 29.9887C47.7145 29.7087 51.6845 26.1687 53.2645 28.3187C54.8445 30.4687 55.2645 29.5487 55.4445 25.3887C55.6045 21.7687 56.1945 7.30872 38.3845 10.7487Z" fill="#202020"/>
<path d="M46.5983 57.9243C40.889 62.4918 35.3379 59.8275 33.276 57.9243C23.18 57.5031 15.4302 73.1326 12.8174 81H69.4359C64.2022 71.405 52.3076 53.3568 46.5983 57.9243Z" fill="#CBF4CB"/>
</svg>
