<svg width="79" height="83" viewBox="0 0 79 83" fill="none" xmlns="http://www.w3.org/2000/svg">
<path fill-rule="evenodd" clip-rule="evenodd" d="M39.0416 0.0617201C46.9611 -0.308693 55.072 0.913959 61.6484 5.75561C68.3706 10.7046 72.641 18.5405 75.4406 26.8593C78.3339 35.4566 80.4721 44.8957 77.7341 53.5537C75.0192 62.1389 67.8947 67.8147 60.9267 72.7552C54.2906 77.4603 46.9457 81.2464 39.0416 80.9875C31.2788 80.7331 24.1823 76.6195 18.0886 71.3517C12.194 66.256 8.18605 59.3803 5.27936 51.801C2.12818 43.5842 -1.65043 34.7018 0.770336 26.1937C3.20005 17.6542 10.862 12.5419 17.7969 7.80667C24.2881 3.37441 31.397 0.41928 39.0416 0.0617201Z" fill="#99CCFF"/>
<path d="M42.921 15.5105C42.921 15.5105 29.751 15.7126 29.541 33.6074C29.541 33.6074 22.431 32.4048 28.541 41.3041C28.541 41.3041 29.131 42.8242 31.001 41.3041C32.871 39.784 29.251 44.9408 37.751 50.1168C37.751 50.1168 37.871 58.41 35.751 59.7377C33.631 61.0654 47.371 65.6257 49.611 59.7377C48.1849 58.039 47.4334 55.9076 47.491 53.7247C47.491 53.7247 56.931 53.2725 56.991 37.6193C57.001 22.0624 52.501 14.6062 42.921 15.5105Z" fill="#E8C0B6"/>
<path d="M47.6706 15.27C47.6706 15.27 38.0806 11.4217 34.1706 14.1829C30.2606 16.944 30.8906 19.5802 27.4206 19.4647C23.9506 19.3493 14.3506 20.7539 17.1606 36.8881C17.1606 36.8881 26.3106 28.3833 25.4306 21.2831C25.4306 21.2831 26.2506 30.7596 23.8506 33.6651C21.4506 36.5706 16.3406 50.7325 25.6806 55.1004C35.0206 59.4683 37.8006 55.6488 37.8006 55.6488L38.3006 50.1841C38.3006 50.1841 32.0906 45.0081 31.5206 41.0636C31.0706 41.0636 28.2306 43.2667 26.9206 38.514C25.6606 33.9249 27.3806 32.3759 30.3506 34.4636C30.3506 34.4636 30.1606 37.9849 30.9206 37.6193C31.6806 37.2537 33.0706 27.0363 35.4606 26.3244C37.8506 25.6124 48.1606 24.6023 47.6706 15.27Z" fill="#202020"/>
<path d="M47.6411 17.4442C47.6411 17.4442 54.961 22.678 56.491 29.4127C56.491 29.4127 59.231 18.5121 51.221 15.9433C51.221 15.9433 46.2711 14.0191 47.6411 17.4442Z" fill="#202020"/>
<path d="M49.4411 59.6236C43.7318 64.1911 38.1807 61.5267 36.1188 59.6236C26.0227 59.2023 18.273 74.8318 15.6602 82.6992H72.2787C67.045 73.1042 55.1504 55.0561 49.4411 59.6236Z" fill="#C3DDF6"/>
</svg>
