<svg width="79" height="84" viewBox="0 0 79 84" fill="none" xmlns="http://www.w3.org/2000/svg">
<path fill-rule="evenodd" clip-rule="evenodd" d="M38.2771 0.121239C46.5944 -0.578627 54.94 1.76903 61.9189 6.7106C69.1418 11.8249 75.1578 19.1217 77.7068 28.0403C80.2348 36.8854 78.7786 46.3968 75.7346 55.0498C72.8062 63.3739 67.8978 70.8439 60.9598 75.6451C54.2798 80.2678 46.2079 80.8814 38.2771 80.971C30.2629 81.0615 21.7365 81.2468 15.2473 76.1615C8.75497 71.0737 6.32806 62.23 3.84403 53.9873C1.35793 45.7378 -1.55175 37.0229 0.970142 28.786C3.48632 20.5679 10.6392 15.4911 17.1659 10.4764C23.6227 5.5153 30.3797 0.785774 38.2771 0.121239Z" fill="#E06B65"/>
<path d="M38.1873 16.8105C38.1873 16.8105 25.0173 17.0125 24.7773 34.9459C24.7773 34.9459 17.6673 33.7337 23.7773 42.5849C23.7773 42.5849 24.3673 44.1146 26.2373 42.5849C28.1073 41.0552 24.4873 46.2312 32.9873 51.3976C32.9873 51.3976 33.1073 59.6908 30.9873 61.0185C28.8673 62.3462 42.6073 66.9065 44.8473 61.0185C43.4212 59.3198 42.6697 57.1884 42.7273 55.0055C42.7273 55.0055 52.1673 54.5437 52.2173 38.9001C52.2673 23.2565 47.7773 15.9061 38.1873 16.8105Z" fill="#EAC4AF"/>
<path d="M19.6875 22.6697C19.6875 22.6697 16.2575 26.2775 20.5875 31.5402C20.3998 31.914 20.298 32.3223 20.2892 32.7374C20.2805 33.1525 20.3649 33.5645 20.5367 33.9453C20.7085 34.3261 20.9637 34.6668 21.2848 34.9441C21.606 35.2214 21.9855 35.4288 22.3975 35.5521C22.3975 35.5521 24.5175 37.8804 25.3175 36.0331C26.1175 34.1859 27.5375 27.2204 30.7575 27.1242C30.7575 27.1242 29.9475 21.1207 34.8875 21.9C34.8875 21.9 35.8875 19.6679 38.0075 20.6396C40.1275 21.6114 41.6975 22.8909 43.6175 21.2458C45.5375 19.6006 47.0675 26.2005 49.8275 25.5463C51.3775 25.1711 51.1875 35.071 52.1975 34.0993C53.2075 33.1276 55.3175 22.7659 49.9775 16.9645C49.9775 16.9645 45.7575 14.3476 44.2475 16.0024C44.2475 16.0024 42.8375 12.9044 39.5175 12.9044C36.1975 12.9044 34.5175 14.3572 32.8675 14.0686C31.2175 13.7799 28.3375 13.5779 26.9275 15.0307C26.9275 15.021 18.6975 19.4178 19.6875 22.6697Z" fill="#202020"/>
<path d="M44.7773 15.6273C44.9719 14.995 45.3856 14.4459 45.9496 14.0713C46.5136 13.6967 47.1939 13.5192 47.8773 13.5683" fill="#202020"/>
<path d="M43.6172 15.0009C43.6273 14.5275 43.8134 14.0733 44.1418 13.7205C44.4701 13.3677 44.9191 13.1397 45.4072 13.0777" fill="#202020"/>
<path d="M44.236 60.6645C38.5267 65.232 32.9756 62.5676 30.9137 60.6645C20.8177 60.2432 13.0679 75.8727 10.4551 83.7401H67.0736C61.8399 74.1451 49.9453 56.097 44.236 60.6645Z" fill="#FFB6B2"/>
</svg>
