<svg width="79" height="83" viewBox="0 0 79 83" fill="none" xmlns="http://www.w3.org/2000/svg">
<path fill-rule="evenodd" clip-rule="evenodd" d="M39.3169 0.0352434C47.2623 -0.268719 55.182 1.36897 61.9484 5.90302C69.1041 10.6979 75.7599 17.2777 78.1267 26.0411C80.4643 34.6963 77.7253 43.8511 74.4341 52.1324C71.394 59.7822 66.371 66.0126 60.2472 71.0303C54.0222 76.1311 47.0976 80.3509 39.3169 80.9073C31.1841 81.4889 22.9002 79.3438 16.2834 74.1745C9.64715 68.99 5.63435 60.9616 3.01805 52.5494C0.375489 44.0528 -1.36667 34.8056 1.41273 26.3607C4.15315 18.0342 10.9561 12.3549 17.8147 7.59142C24.3206 3.07289 31.5995 0.330481 39.3169 0.0352434Z" fill="#98E0BE"/>
<path d="M39.0519 16.7723C39.0519 16.7723 25.8819 16.9743 25.6719 34.8692C25.6719 34.8692 18.5619 33.6666 24.6719 42.5659C24.6719 42.5659 25.2719 44.086 27.1419 42.5659C29.0119 41.0458 25.3919 46.2122 33.8919 51.3787C33.8919 51.3787 34.0119 59.6719 31.8919 60.9995C29.7719 62.3272 44.76 66.7388 47 60.8508C45.551 59.1439 43.5398 57.1415 43.6019 54.9384C43.6019 54.9384 53.0419 54.4766 53.0919 38.833C53.1419 23.1894 48.6019 15.8679 39.0519 16.7723Z" fill="#CC9587"/>
<path d="M63.6024 65.3097C63.6024 65.3097 60.9424 49.8105 62.1824 43.0566C63.4224 36.3027 49.9924 16.7338 49.9924 16.7338C49.9924 16.7338 51.2224 8.27705 44.9924 10.817C44.9924 10.817 40.7224 13.7994 32.9924 12.1158C25.2624 10.4321 20.6024 20.5148 21.1524 23.8725C21.1524 23.8725 8.35239 28.3559 12.2324 47.9248C16.1124 67.4937 17.9424 77.23 23.5624 80.0297C29.1824 82.8294 35.7524 82.6805 41.2324 74.8395C46.7124 66.9985 52.2324 80.0297 52.2324 80.0297C52.2324 80.0297 65.1824 84.7151 63.6024 65.3097ZM50.8924 49.416C48.4124 53.1104 46.7424 54.5343 44.2824 54.5343C41.8224 54.5343 46 59.8888 46 59.8888C39.5 65.1803 32.5824 60.0567 32.5824 60.0567C35 58.4457 34.5824 51.3979 34.5824 51.3979C31.1324 51.1863 27.6724 42.2869 27.6724 42.2869C24.8424 44.4228 23.5624 40.7861 23.5624 40.7861C21.1124 33.4068 25.7124 34.8885 25.7124 34.8885C25.0924 26.2297 35.1924 24.1419 41.2324 22.9585C47.2724 21.7752 47.7624 19.2834 47.7624 19.2834C55.1924 27.6151 53.4124 45.6639 50.8924 49.416Z" fill="#202020"/>
<path d="M44.9718 59.3469C39.2625 63.9144 33.7114 61.25 31.6496 59.3469C21.5535 58.9256 13.8038 74.5551 11.1909 82.4225H67.8094C62.5758 72.8275 50.6812 54.7794 44.9718 59.3469Z" fill="#CAFFE6"/>
</svg>
