<svg width="81" height="84" viewBox="0 0 81 84" fill="none" xmlns="http://www.w3.org/2000/svg">
<path fill-rule="evenodd" clip-rule="evenodd" d="M40.0416 1.06172C47.9611 0.691307 56.072 1.91396 62.6484 6.75561C69.3706 11.7046 73.641 19.5405 76.4406 27.8593C79.3339 36.4566 81.4721 45.8957 78.7341 54.5537C76.0192 63.1389 68.8947 68.8147 61.9267 73.7552C55.2906 78.4603 47.9457 82.2464 40.0416 81.9875C32.2788 81.7331 25.1823 77.6195 19.0886 72.3517C13.194 67.256 9.18605 60.3803 6.27936 52.801C3.12818 44.5842 -0.650431 35.7018 1.77034 27.1937C4.20005 18.6542 11.862 13.5419 18.7969 8.80667C25.2881 4.37441 32.397 1.41928 40.0416 1.06172Z" fill="white" stroke="#DADADA" stroke-width="2"/>
<path d="M44.0649 15.7108C44.0649 15.7108 30.9049 15.9208 30.6949 34.5208C30.6949 34.5208 23.5849 33.2708 29.6449 42.5208C29.6449 42.5208 30.2349 44.1008 32.1149 42.5208C33.9949 40.9408 30.3649 46.3008 38.8549 51.6808C38.8549 51.6808 38.9849 60.3008 36.8549 61.6808C34.7249 63.0608 48.4749 67.8008 50.7249 61.6808C49.2987 59.9152 48.5473 57.6998 48.6049 55.4308C48.6049 55.4308 58.0449 54.9608 58.0949 38.6908C58.1449 22.5208 53.6549 14.7708 44.0649 15.7108Z" fill="#EFC3A9"/>
<path d="M58.6562 23.3921C58.6562 23.3921 52.3373 6.80107 28.6046 18.8919C28.6046 18.8919 18.1562 42.0209 27.1562 65.8921C27.1562 65.8921 35.7964 66.3603 36.9064 62.7003C37.7964 59.8603 40.6382 52.5269 38.8244 51.631C37.0105 50.735 35.4675 49.3729 34.3534 47.6842C33.2394 45.9955 32.5943 44.041 32.4844 42.021C32.4844 42.021 29.9344 44.451 28.6044 40.821C27.2144 37.021 26.7844 34.2109 30.7644 34.4309C30.7644 34.4309 31.3544 37.811 33.1144 35.161C34.8744 32.511 36.7644 21.821 38.8244 22.661C40.8844 23.501 50.2044 30.451 56.0944 27.211C56.0944 27.211 60.7544 39.211 55.3344 50.321C55.3344 50.321 52.5295 55.2003 48.4069 55.2003C48.4069 55.2003 49.4069 62.7003 50.9069 62.7003C52.3369 63.0603 60.3563 69.4821 61.1563 65.8921C61.9563 62.3021 64.6562 30.3921 58.6562 23.3921Z" fill="#202020"/>
<path d="M50.4411 60.6235C44.7318 65.191 39.1807 62.5266 37.1188 60.6235C27.0227 60.2022 19.273 75.8317 16.6602 83.6991H73.2787C68.045 74.1041 56.1504 56.056 50.4411 60.6235Z" fill="#DADADA"/>
</svg>
