<svg width="91" height="49" viewBox="0 0 91 49" fill="none" xmlns="http://www.w3.org/2000/svg">
<ellipse cx="64.8279" cy="24.2425" rx="25.2498" ry="24.2425" fill="#99CCFF"/>
<path d="M66.9204 31.9003C66.5004 32.3923 66.0084 32.7643 65.4444 33.0163C64.8924 33.2683 64.2864 33.3943 63.6264 33.3943C62.7624 33.3943 61.9704 33.1963 61.2504 32.8003C60.5304 32.4163 59.7084 31.7443 58.7844 30.7843C57.6204 30.6883 56.5764 30.3523 55.6524 29.7763C54.7284 29.1883 54.0084 28.4263 53.4924 27.4903C52.9764 26.5423 52.7184 25.4923 52.7184 24.3403C52.7184 23.1163 53.0124 22.0123 53.6004 21.0283C54.1884 20.0323 54.9984 19.2583 56.0304 18.7063C57.0624 18.1423 58.2204 17.8603 59.5044 17.8603C60.7884 17.8603 61.9464 18.1423 62.9784 18.7063C64.0104 19.2583 64.8204 20.0263 65.4084 21.0103C65.9964 21.9943 66.2904 23.1043 66.2904 24.3403C66.2904 25.3363 66.0924 26.2603 65.6964 27.1123C65.3004 27.9523 64.7484 28.6723 64.0404 29.2723C63.3324 29.8603 62.5104 30.2863 61.5744 30.5503C61.9224 30.9223 62.2644 31.1923 62.6004 31.3603C62.9364 31.5283 63.2964 31.6123 63.6804 31.6123C64.5084 31.6123 65.2284 31.2763 65.8404 30.6043L66.9204 31.9003ZM55.0764 24.3403C55.0764 25.1803 55.2684 25.9423 55.6524 26.6263C56.0364 27.2983 56.5644 27.8263 57.2364 28.2103C57.9084 28.5823 58.6644 28.7683 59.5044 28.7683C60.3444 28.7683 61.1004 28.5823 61.7724 28.2103C62.4444 27.8263 62.9724 27.2983 63.3564 26.6263C63.7404 25.9423 63.9324 25.1803 63.9324 24.3403C63.9324 23.5003 63.7404 22.7443 63.3564 22.0723C62.9724 21.3883 62.4444 20.8603 61.7724 20.4883C61.1004 20.1043 60.3444 19.9123 59.5044 19.9123C58.6644 19.9123 57.9084 20.1043 57.2364 20.4883C56.5644 20.8603 56.0364 21.3883 55.6524 22.0723C55.2684 22.7443 55.0764 23.5003 55.0764 24.3403ZM71.151 20.0203H66.975V18.0403H77.667V20.0203H73.491V30.6403H71.151V20.0203Z" fill="#202020"/>
<ellipse cx="25.2498" cy="24.2425" rx="25.2498" ry="24.2425" fill="#98E0BE"/>
<path d="M22.7123 27.7243H16.4123L15.1703 30.6403H12.7583L18.4283 18.0403H20.7323L26.4203 30.6403H23.9723L22.7123 27.7243ZM21.9383 25.8883L19.5623 20.3803L17.2043 25.8883H21.9383ZM31.9287 30.8203C30.9567 30.8203 30.0147 30.6823 29.1027 30.4063C28.2027 30.1303 27.4887 29.7643 26.9607 29.3083L27.7707 27.4903C28.2867 27.8983 28.9167 28.2343 29.6607 28.4983C30.4167 28.7503 31.1727 28.8763 31.9287 28.8763C32.8647 28.8763 33.5607 28.7263 34.0167 28.4263C34.4847 28.1263 34.7187 27.7303 34.7187 27.2383C34.7187 26.8783 34.5867 26.5843 34.3227 26.3563C34.0707 26.1163 33.7467 25.9303 33.3507 25.7983C32.9547 25.6663 32.4147 25.5163 31.7307 25.3483C30.7707 25.1203 29.9907 24.8923 29.3907 24.6643C28.8027 24.4363 28.2927 24.0823 27.8607 23.6023C27.4407 23.1103 27.2307 22.4503 27.2307 21.6223C27.2307 20.9263 27.4167 20.2963 27.7887 19.7323C28.1727 19.1563 28.7427 18.7003 29.4987 18.3643C30.2667 18.0283 31.2027 17.8603 32.3067 17.8603C33.0747 17.8603 33.8307 17.9563 34.5747 18.1483C35.3187 18.3403 35.9607 18.6163 36.5007 18.9763L35.7627 20.7943C35.2107 20.4703 34.6347 20.2243 34.0347 20.0563C33.4347 19.8883 32.8527 19.8043 32.2887 19.8043C31.3647 19.8043 30.6747 19.9603 30.2187 20.2723C29.7747 20.5843 29.5527 20.9983 29.5527 21.5143C29.5527 21.8743 29.6787 22.1683 29.9307 22.3963C30.1947 22.6243 30.5247 22.8043 30.9207 22.9363C31.3167 23.0683 31.8567 23.2183 32.5407 23.3863C33.4767 23.6023 34.2447 23.8303 34.8447 24.0703C35.4447 24.2983 35.9547 24.6523 36.3747 25.1323C36.8067 25.6123 37.0227 26.2603 37.0227 27.0763C37.0227 27.7723 36.8307 28.4023 36.4467 28.9663C36.0747 29.5303 35.5047 29.9803 34.7367 30.3163C33.9687 30.6523 33.0327 30.8203 31.9287 30.8203Z" fill="#202020"/>
</svg>
