<svg width="89" height="49" viewBox="0 0 89 49" fill="none" xmlns="http://www.w3.org/2000/svg">
<circle cx="64.2425" cy="24.2425" r="24.2425" fill="#99CCFF"/>
<path d="M66.334 31.9003C65.914 32.3923 65.422 32.7643 64.858 33.0163C64.306 33.2683 63.7 33.3943 63.04 33.3943C62.176 33.3943 61.384 33.1963 60.664 32.8003C59.944 32.4163 59.122 31.7443 58.198 30.7843C57.034 30.6883 55.99 30.3523 55.066 29.7763C54.142 29.1883 53.422 28.4263 52.906 27.4903C52.39 26.5423 52.132 25.4923 52.132 24.3403C52.132 23.1163 52.426 22.0123 53.014 21.0283C53.602 20.0323 54.412 19.2583 55.444 18.7063C56.476 18.1423 57.634 17.8603 58.918 17.8603C60.202 17.8603 61.36 18.1423 62.392 18.7063C63.424 19.2583 64.234 20.0263 64.822 21.0103C65.41 21.9943 65.704 23.1043 65.704 24.3403C65.704 25.3363 65.506 26.2603 65.11 27.1123C64.714 27.9523 64.162 28.6723 63.454 29.2723C62.746 29.8603 61.924 30.2863 60.988 30.5503C61.336 30.9223 61.678 31.1923 62.014 31.3603C62.35 31.5283 62.71 31.6123 63.094 31.6123C63.922 31.6123 64.642 31.2763 65.254 30.6043L66.334 31.9003ZM54.49 24.3403C54.49 25.1803 54.682 25.9423 55.066 26.6263C55.45 27.2983 55.978 27.8263 56.65 28.2103C57.322 28.5823 58.078 28.7683 58.918 28.7683C59.758 28.7683 60.514 28.5823 61.186 28.2103C61.858 27.8263 62.386 27.2983 62.77 26.6263C63.154 25.9423 63.346 25.1803 63.346 24.3403C63.346 23.5003 63.154 22.7443 62.77 22.0723C62.386 21.3883 61.858 20.8603 61.186 20.4883C60.514 20.1043 59.758 19.9123 58.918 19.9123C58.078 19.9123 57.322 20.1043 56.65 20.4883C55.978 20.8603 55.45 21.3883 55.066 22.0723C54.682 22.7443 54.49 23.5003 54.49 24.3403ZM70.5645 20.0203H66.3885V18.0403H77.0805V20.0203H72.9045V30.6403H70.5645V20.0203Z" fill="#202020"/>
<circle cx="24.2425" cy="24.2425" r="23.2425" fill="white" stroke="#C4C4C4" stroke-width="2"/>
<path d="M21.5029 24.0883C22.1989 24.3163 22.7509 24.7003 23.1589 25.2403C23.5669 25.7683 23.7709 26.4283 23.7709 27.2203C23.7709 28.3123 23.3509 29.1583 22.5109 29.7583C21.6709 30.3463 20.4469 30.6403 18.8389 30.6403H12.5749V18.0403H18.4789C19.9669 18.0403 21.1129 18.3343 21.9169 18.9223C22.7209 19.4983 23.1229 20.2963 23.1229 21.3163C23.1229 21.9403 22.9789 22.4923 22.6909 22.9723C22.4029 23.4523 22.0069 23.8243 21.5029 24.0883ZM14.9149 19.8763V23.3503H18.2269C19.0429 23.3503 19.6669 23.2063 20.0989 22.9183C20.5429 22.6183 20.7649 22.1863 20.7649 21.6223C20.7649 21.0463 20.5429 20.6143 20.0989 20.3263C19.6669 20.0263 19.0429 19.8763 18.2269 19.8763H14.9149ZM18.6949 28.8043C20.5069 28.8043 21.4129 28.1983 21.4129 26.9863C21.4129 25.7743 20.5069 25.1683 18.6949 25.1683H14.9149V28.8043H18.6949ZM37.7004 18.0403L32.2104 30.6403H29.9064L24.3984 18.0403H26.9364L31.1304 27.7603L35.3604 18.0403H37.7004Z" fill="#202020"/>
</svg>
