<svg width="49" height="49" viewBox="0 0 49 49" fill="none" xmlns="http://www.w3.org/2000/svg">
<circle cx="24.2425" cy="24.2425" r="23.2425" fill="white" stroke="#C4C4C4" stroke-width="2"/>
<path d="M21.5029 24.0882C22.1989 24.3162 22.7509 24.7002 23.1589 25.2402C23.5669 25.7682 23.7709 26.4282 23.7709 27.2202C23.7709 28.3122 23.3509 29.1582 22.5109 29.7582C21.6709 30.3462 20.4469 30.6402 18.8389 30.6402H12.5749V18.0402H18.4789C19.9669 18.0402 21.1129 18.3342 21.9169 18.9222C22.7209 19.4982 23.1229 20.2962 23.1229 21.3162C23.1229 21.9402 22.9789 22.4922 22.6909 22.9722C22.4029 23.4522 22.0069 23.8242 21.5029 24.0882ZM14.9149 19.8762V23.3502H18.2269C19.0429 23.3502 19.6669 23.2062 20.0989 22.9182C20.5429 22.6182 20.7649 22.1862 20.7649 21.6222C20.7649 21.0462 20.5429 20.6142 20.0989 20.3262C19.6669 20.0262 19.0429 19.8762 18.2269 19.8762H14.9149ZM18.6949 28.8042C20.5069 28.8042 21.4129 28.1982 21.4129 26.9862C21.4129 25.7742 20.5069 25.1682 18.6949 25.1682H14.9149V28.8042H18.6949ZM37.7004 18.0402L32.2104 30.6402H29.9064L24.3984 18.0402H26.9364L31.1304 27.7602L35.3604 18.0402H37.7004Z" fill="#202020"/>
</svg>
