<svg width="79" height="80" viewBox="0 0 79 80" fill="none" xmlns="http://www.w3.org/2000/svg">
<path fill-rule="evenodd" clip-rule="evenodd" d="M38.2771 0.884456C46.5944 0.273892 54.94 2.32199 61.9189 6.63302C69.1418 11.0947 75.1578 17.4605 77.7068 25.2411C80.2348 32.9575 78.7786 41.2553 75.7346 48.8041C72.8062 56.0661 67.8978 62.583 60.9598 66.7715C54.2798 70.8043 46.2079 71.3396 38.2771 71.4178C30.2629 71.4968 21.7365 71.6584 15.2473 67.222C8.75497 62.7834 6.32806 55.0682 3.84403 47.8773C1.35793 40.6804 -1.55175 33.0774 0.970142 25.8916C3.48632 18.7221 10.6392 14.2932 17.1659 9.9183C23.6227 5.59024 30.3797 1.4642 38.2771 0.884456Z" fill="#9FC9F0"/>
<path d="M45.7287 56.3469C40.0194 60.9144 34.4683 58.25 32.4064 56.3469C22.3103 55.9256 14.5606 71.5551 11.9478 79.4225H68.5663C63.3326 69.8275 51.438 51.7794 45.7287 56.3469Z" fill="#D7EAFC"/>
<path d="M39.1135 14.4234C39.1135 14.4234 25.8287 14.6192 25.6167 31.9619C25.6167 31.9619 18.4393 30.7964 24.5568 39.3651C24.5568 39.3651 25.1524 40.8477 27.0502 39.3651C28.948 37.8826 25.2836 42.899 33.8541 47.906C33.8541 47.906 33.9853 55.9433 31.8351 57.23C29.6849 58.5167 43.5653 62.9363 45.8366 57.23C44.3969 55.5837 43.6383 53.518 43.6965 51.4025C43.6965 51.4025 53.226 50.9642 53.2764 35.794C53.3269 20.801 48.7944 13.5749 39.1135 14.4234Z" fill="#E8C0B6"/>
<path d="M38.4169 10.2555C35.3947 8.89181 31.9468 8.5622 28.6863 9.32534C25.4258 10.0885 22.564 11.8949 20.6097 14.4234C12.9175 23.4863 14.7345 49.4724 16.7635 53.1181C18.7926 56.7637 33.5916 52.6519 33.5916 52.6519C33.8422 51.2096 33.9302 49.7472 33.854 48.2882C33.6521 46.6285 30.0584 47.6355 27.6054 39.0388C27.6054 39.0388 25.4249 41.1367 24.2438 38.9828C23.0627 36.829 20.3876 33.5096 23.6987 32.1017C24.9908 31.5516 26.9492 33.2952 29.3114 29.463C31.3303 26.1437 32.6527 17.3418 40.1431 17.9665C47.6334 18.5912 47.7344 17.0341 47.7344 17.0341C47.7344 17.0341 54.084 20.4094 52.9635 39.9339C52.9364 40.5645 52.8314 41.1901 52.6505 41.7987C51.9439 44.2416 49.8846 50.1903 43.7873 50.5167C43.7873 50.5167 43.1008 54.2463 44.5242 53.9852C45.9476 53.7241 56.1332 54.815 57.1427 52.1204C58.1522 49.4257 61.9983 0.539922 38.4169 10.2555Z" fill="#202020"/>
</svg>
