<svg width="79" height="83" viewBox="0 0 79 83" fill="none" xmlns="http://www.w3.org/2000/svg">
<path fill-rule="evenodd" clip-rule="evenodd" d="M37.6216 0.133567C45.9681 -0.045046 54.5686 0.808586 61.4588 5.74812C68.4622 10.7688 72.6344 18.8608 75.4467 27.2501C78.3171 35.813 80.6105 45.2342 77.5401 53.7206C74.5278 62.0465 66.5407 66.7116 59.4148 71.5617C52.6689 76.1532 45.6402 80.2215 37.6216 80.8905C29.0994 81.6016 19.9829 80.8088 13.152 75.4218C6.37006 70.0733 3.60525 61.0429 1.52122 52.4206C-0.443095 44.2935 -0.618067 35.9213 1.66246 27.8855C3.98989 19.6844 7.90693 11.8273 14.4813 6.75342C21.0809 1.66011 29.427 0.308927 37.6216 0.133567Z" fill="#5860A7"/>
<path d="M40.0524 17.5105C40.0524 17.5105 26.8824 17.7125 26.6724 35.6073C26.6724 35.6073 19.5624 34.4047 25.6724 43.304C25.6724 43.304 26.2724 44.8241 28.1424 43.304C30.0124 41.7839 26.3924 46.9504 34.8924 52.1168C34.8924 52.1168 35.0124 60.41 32.8924 61.7376C30.7724 63.0653 44.5124 67.6256 46.7524 61.7376C45.3033 60.0307 44.5402 57.8796 44.6024 55.6765C44.6024 55.6765 54.0424 55.2147 54.0924 39.5711C54.1423 23.9276 49.6024 16.6061 40.0524 17.5105Z" fill="#E8C0B6"/>
<path d="M64.6024 66.0479C64.6024 66.0479 61.9424 50.5486 63.1824 43.7947C64.4224 37.0409 50.9924 17.472 50.9924 17.472C50.9924 17.472 52.2224 9.01521 45.9924 11.5551C45.9924 11.5551 41.7224 14.5376 33.9924 12.8539C26.2624 11.1703 21.6024 21.253 22.1524 24.6107C22.1524 24.6107 9.35239 29.094 13.2324 48.6629C17.1124 68.2318 15.3003 77.9681 20.9203 80.7678C26.5403 83.5675 36.7524 81.9371 42.2324 74.0961C47.7124 66.2551 53.2324 80.7678 53.2324 80.7678C53.2324 80.7678 66.1824 85.4532 64.6024 66.0479ZM51.8924 50.1541C49.4124 53.8486 47.7424 55.2725 45.2824 55.2725C42.8224 55.2725 46.3824 61.3048 46.3824 61.3048C39.8524 64.3834 33.5824 60.7948 33.5824 60.7948C36.4124 58.8707 35.5824 52.136 35.5824 52.136C32.1324 51.9244 28.6724 43.0251 28.6724 43.0251C25.8424 45.1609 24.5624 41.5242 24.5624 41.5242C22.1124 34.145 26.7124 35.6266 26.7124 35.6266C26.0924 26.9678 36.1924 24.8801 42.2324 23.6967C48.2724 22.5133 48.7624 20.0215 48.7624 20.0215C56.1924 28.3532 54.4124 46.402 51.8924 50.1541Z" fill="#202020"/>
<path d="M46.7243 59.8559C41.015 64.4234 35.4639 61.759 33.402 59.8559C23.3059 59.4347 15.5562 75.0642 12.9434 82.9316H69.5619C64.3282 73.3365 52.4336 55.2884 46.7243 59.8559Z" fill="#ADB5FC"/>
</svg>
