<svg width="80" height="82" viewBox="0 0 80 82" fill="none" xmlns="http://www.w3.org/2000/svg">
<path fill-rule="evenodd" clip-rule="evenodd" d="M40.4408 0.851841C48.1403 0.750871 55.484 4.08505 61.7201 9.12121C67.9636 14.1632 72.5672 21.1207 75.4248 29.104C78.4459 37.5441 81.1172 46.9661 78.3221 55.5025C75.5605 63.9365 67.7948 68.5212 60.9626 73.273C54.6088 77.6921 47.9292 81.8949 40.4408 81.8492C32.977 81.8037 26.4694 77.3285 20.0815 73.0236C13.0738 68.3011 4.70986 64.3097 1.76984 55.7886C-1.21448 47.1391 1.57414 37.4012 4.85254 28.8851C7.90231 20.9629 13.2071 14.649 19.5221 9.67459C25.7637 4.75797 32.7992 0.952051 40.4408 0.851841Z" fill="#99CCFF"/>
<path d="M39.7323 14.9061C39.7323 14.9061 26.5623 15.1081 26.3223 33.0415C26.3223 33.0415 19.2123 31.8292 25.3223 40.6805C25.3223 40.6805 25.9123 42.2102 27.7823 40.6805C29.6523 39.1507 26.0323 44.3268 34.5323 49.4932C34.5323 49.4932 34.6523 57.7864 32.5323 59.1141C30.4123 60.4418 44.1523 65.0021 46.3923 59.1141C44.9661 57.4154 44.2146 55.284 44.2723 53.101C44.2723 53.101 53.7123 52.6392 53.7623 36.9957C53.8123 21.3521 49.3223 14.0017 39.7323 14.9061Z" fill="#E8C0B6"/>
<path d="M21.2325 20.7652C21.2325 20.7652 17.8024 24.3731 22.1324 29.6357C21.9447 30.0095 21.8429 30.4179 21.8342 30.833C21.8254 31.248 21.9098 31.66 22.0816 32.0409C22.2534 32.4217 22.5086 32.7624 22.8297 33.0397C23.1509 33.317 23.5304 33.5244 23.9425 33.6477C23.9425 33.6477 26.0624 35.9759 26.8625 34.1287C27.6625 32.2815 29.0825 25.3159 32.3025 25.2197C32.3025 25.2197 31.4925 19.2163 36.4325 19.9956C36.4325 19.9956 37.4324 17.7635 39.5525 18.7352C41.6725 19.7069 43.2425 20.9865 45.1625 19.3414C47.0825 17.6962 48.6125 24.2961 51.3725 23.6419C52.9225 23.2667 52.7325 33.1666 53.7425 32.1949C54.7525 31.2232 56.8625 20.8615 51.5225 15.06C51.5225 15.06 47.3025 12.4431 45.7925 14.0979C45.7925 14.0979 44.3825 11 41.0625 11C37.7425 11 36.0624 12.4528 34.4124 12.1641C32.7624 11.8755 29.8825 11.6735 28.4725 13.1262C28.4725 13.1166 20.2425 17.5134 21.2325 20.7652Z" fill="#202020"/>
<path d="M46.3223 13.7228C46.5168 13.0906 46.9305 12.5414 47.4945 12.1668C48.0585 11.7922 48.7388 11.6147 49.4222 11.6638" fill="#202020"/>
<path d="M45.1626 13.0966C45.1727 12.6232 45.3588 12.1689 45.6872 11.8161C46.0155 11.4633 46.4645 11.2353 46.9526 11.1733" fill="#202020"/>
<path d="M45.7809 58.7601C40.0716 63.3276 34.5205 60.6632 32.4587 58.7601C22.3626 58.3388 14.6129 73.9683 12 81.8357H68.6185C63.3849 72.2407 51.4902 54.1926 45.7809 58.7601Z" fill="#C3DDF7"/>
</svg>
