<svg width="79" height="84" viewBox="0 0 79 84" fill="none" xmlns="http://www.w3.org/2000/svg">
<path fill-rule="evenodd" clip-rule="evenodd" d="M37.6216 0.549338C45.9681 0.370725 54.5686 1.22436 61.4588 6.16389C68.4622 11.1846 72.6344 19.2766 75.4467 27.6659C78.3171 36.2288 80.6105 45.65 77.5401 54.1364C74.5278 62.4623 66.5407 67.1273 59.4148 71.9775C52.6689 76.569 45.6402 80.6373 37.6216 81.3063C29.0994 82.0174 19.9829 81.2246 13.152 75.8375C6.37006 70.489 3.60525 61.4587 1.52122 52.8364C-0.443095 44.7093 -0.618067 36.3371 1.66246 28.3012C3.98989 20.1001 7.90693 12.243 14.4813 7.16919C21.0809 2.07588 29.427 0.724699 37.6216 0.549338Z" fill="#E06B65"/>
<path d="M40.0526 17.9262C40.0526 17.9262 26.8826 18.1283 26.6726 36.0231C26.6726 36.0231 19.5626 34.8205 25.6726 43.7198C25.6726 43.7198 26.2726 45.2399 28.1426 43.7198C30.0126 42.1997 26.3926 47.3661 34.8926 52.5325C34.8926 52.5325 35.0126 60.8257 32.8926 62.1534C30.7726 63.4811 44.5126 68.0414 46.7526 62.1534C45.3035 60.4465 44.5405 58.2953 44.6026 56.0923C44.6026 56.0923 54.0426 55.6305 54.0926 39.9869C54.1426 24.3434 49.6026 17.0219 40.0526 17.9262Z" fill="#F89F69" fill-opacity="0.79"/>
<path d="M64.6026 66.4636C64.6026 66.4636 61.9426 50.9644 63.1826 44.2105C64.4226 37.4566 50.9926 17.8877 50.9926 17.8877C50.9926 17.8877 52.2226 9.43098 45.9926 11.9709C45.9926 11.9709 41.7226 14.9534 33.9926 13.2697C26.2626 11.5861 21.6026 21.6688 22.1526 25.0264C22.1526 25.0264 9.35264 29.5098 13.2326 49.0787C17.1126 68.6476 15.3006 78.3839 20.9206 81.1836C26.5406 83.9833 36.7526 82.3529 42.2326 74.5119C47.7126 66.6709 53.2326 81.1836 53.2326 81.1836C53.2326 81.1836 66.1826 85.869 64.6026 66.4636ZM51.8926 50.5699C49.4126 54.2643 47.7426 55.6882 45.2826 55.6882C42.8226 55.6882 46.3826 61.7205 46.3826 61.7205C39.8526 64.7992 33.5826 61.2106 33.5826 61.2106C36.4126 59.2864 35.5826 52.5518 35.5826 52.5518C32.1326 52.3402 28.6726 43.4408 28.6726 43.4408C25.8426 45.5767 24.5626 41.94 24.5626 41.94C22.1126 34.5608 26.7126 36.0424 26.7126 36.0424C26.0926 27.3836 36.1926 25.2958 42.2326 24.1125C48.2726 22.9291 48.7626 20.4373 48.7626 20.4373C56.1926 28.769 54.4126 46.8178 51.8926 50.5699Z" fill="#202020"/>
<path d="M46.7245 60.2717C41.0152 64.8392 35.4641 62.1748 33.4023 60.2717C23.3062 59.8504 15.5565 75.4799 12.9436 83.3473H69.5621C64.3285 73.7523 52.4338 55.7042 46.7245 60.2717Z" fill="#FFB6B3"/>
</svg>
