<svg width="80" height="83" viewBox="0 0 80 83" fill="none" xmlns="http://www.w3.org/2000/svg">
<path fill-rule="evenodd" clip-rule="evenodd" d="M38.7771 0.792748C47.0944 0.0928822 55.44 2.44054 62.4189 7.38211C69.6418 12.4964 75.6578 19.7933 78.2068 28.7118C80.7348 37.5569 79.2786 47.0683 76.2346 55.7213C73.3062 64.0454 68.3978 71.5154 61.4598 76.3166C54.7798 80.9393 46.7079 81.5529 38.7771 81.6425C30.7629 81.733 22.2365 81.9183 15.7473 76.833C9.25497 71.7452 6.82806 62.9015 4.34403 54.6589C1.85793 46.4093 -1.05175 37.6944 1.47014 29.4575C3.98632 21.2394 11.1392 16.1627 17.6659 11.1479C24.1227 6.18681 30.8797 1.45728 38.7771 0.792748Z" fill="#99CC99"/>
<path d="M39.7325 15.0981C39.7325 15.0981 26.5625 15.3001 26.3225 33.2335C26.3225 33.2335 19.2125 32.0213 25.3225 40.8725C25.3225 40.8725 25.9125 42.4022 27.7825 40.8725C29.6525 39.3428 26.0325 44.5188 34.5325 49.6852C34.5325 49.6852 34.6525 57.9784 32.5325 59.3061C30.4125 60.6338 44.1525 65.1941 46.3925 59.3061C44.9663 57.6074 44.2148 55.476 44.2725 53.2931C44.2725 53.2931 53.7125 52.8313 53.7625 37.1877C53.8125 21.5441 49.3225 14.1937 39.7325 15.0981Z" fill="#E8C0B6"/>
<path d="M21.2325 20.9573C21.2325 20.9573 17.8024 24.5651 22.1324 29.8278C21.9447 30.2015 21.8429 30.6099 21.8342 31.025C21.8254 31.44 21.9098 31.8521 22.0816 32.2329C22.2534 32.6137 22.5086 32.9544 22.8297 33.2317C23.1509 33.509 23.5304 33.7164 23.9425 33.8397C23.9425 33.8397 26.0624 36.1679 26.8625 34.3207C27.6625 32.4735 29.0825 25.508 32.3025 25.4118C32.3025 25.4118 31.4925 19.4083 36.4325 20.1876C36.4325 20.1876 37.4324 17.9555 39.5525 18.9272C41.6725 19.899 43.2425 21.1785 45.1625 19.5334C47.0825 17.8882 48.6125 24.4881 51.3725 23.8339C52.9225 23.4587 52.7325 33.3586 53.7425 32.3869C54.7525 31.4152 56.8625 21.0535 51.5225 15.252C51.5225 15.252 47.3025 12.6352 45.7925 14.29C45.7925 14.29 44.3825 11.192 41.0625 11.192C37.7425 11.192 36.0624 12.6448 34.4124 12.3562C32.7624 12.0675 29.8825 11.8655 28.4725 13.3182C28.4725 13.3086 20.2425 17.7054 21.2325 20.9573Z" fill="#202020"/>
<path d="M46.3225 13.915C46.5171 13.2827 46.9308 12.7336 47.4948 12.359C48.0588 11.9843 48.7391 11.8068 49.4225 11.8559" fill="#202020"/>
<path d="M45.1624 13.2885C45.1725 12.8151 45.3586 12.3608 45.6869 12.008C46.0153 11.6552 46.4642 11.4272 46.9524 11.3652" fill="#202020"/>
<path d="M45.7809 58.9521C40.0716 63.5196 34.5205 60.8552 32.4587 58.9521C22.3626 58.5308 14.6129 74.1603 12 82.0277H68.6185C63.3849 72.4327 51.4902 54.3846 45.7809 58.9521Z" fill="#CBF4CB"/>
</svg>
