<svg width="160" height="50" viewBox="0 0 160 50" fill="none" xmlns="http://www.w3.org/2000/svg">
<circle cx="135.242" cy="25.2425" r="24.2425" fill="#FFF599"/>
<path d="M126.864 31.8202C126.06 31.8202 125.316 31.6642 124.632 31.3522C123.96 31.0282 123.408 30.5782 122.976 30.0022L124.308 28.4002C125.004 29.3602 125.838 29.8402 126.81 29.8402C128.118 29.8402 128.772 29.0662 128.772 27.5182V21.0022H124.29V19.0402H131.112V27.3922C131.112 28.8682 130.752 29.9782 130.032 30.7222C129.312 31.4542 128.256 31.8202 126.864 31.8202ZM145.591 19.0402V31.6402H143.665L136.717 23.1082V31.6402H134.395V19.0402H136.321L143.269 27.5722V19.0402H145.591Z" fill="black"/>
<circle cx="99.2425" cy="25.2425" r="24.2425" fill="#99CCFF"/>
<path d="M96.9776 28.7242H90.6776L89.4356 31.6402H87.0236L92.6936 19.0402H94.9976L100.686 31.6402H98.2376L96.9776 28.7242ZM96.2036 26.8882L93.8276 21.3802L91.4696 26.8882H96.2036ZM102.288 19.0402H104.628V29.6602H111.216V31.6402H102.288V19.0402Z" fill="black"/>
<circle cx="62.2425" cy="25.2425" r="23.2425" fill="white" stroke="#C4C4C4" stroke-width="2"/>
<path d="M59.9607 31.6402L59.9427 23.2882L55.8027 30.2002H54.7587L50.6187 23.3962V31.6402H48.3867V19.0402H50.3127L55.3167 27.3922L60.2307 19.0402H62.1567L62.1747 31.6402H59.9607ZM74.1821 25.1962H76.3961V30.2182C75.7481 30.7342 74.9921 31.1302 74.1281 31.4062C73.2641 31.6822 72.3761 31.8202 71.4641 31.8202C70.1801 31.8202 69.0221 31.5442 67.9901 30.9922C66.9581 30.4282 66.1481 29.6542 65.5601 28.6702C64.9721 27.6862 64.6781 26.5762 64.6781 25.3402C64.6781 24.1042 64.9721 22.9942 65.5601 22.0102C66.1481 21.0262 66.9581 20.2582 67.9901 19.7062C69.0341 19.1422 70.2041 18.8602 71.5001 18.8602C72.5561 18.8602 73.5161 19.0342 74.3801 19.3822C75.2441 19.7302 75.9701 20.2402 76.5581 20.9122L75.0821 22.3522C74.1221 21.3922 72.9641 20.9122 71.6081 20.9122C70.7201 20.9122 69.9281 21.0982 69.2321 21.4702C68.5481 21.8422 68.0081 22.3642 67.6121 23.0362C67.2281 23.7082 67.0361 24.4762 67.0361 25.3402C67.0361 26.1802 67.2281 26.9362 67.6121 27.6082C68.0081 28.2802 68.5481 28.8082 69.2321 29.1922C69.9281 29.5762 70.7141 29.7682 71.5901 29.7682C72.5741 29.7682 73.4381 29.5522 74.1821 29.1202V25.1962Z" fill="#202020"/>
<circle cx="24.2425" cy="24.2425" r="24.2425" fill="#99CC99"/>
<path d="M11.9599 19.0402H17.4679C18.8119 19.0402 20.0059 19.3042 21.0499 19.8322C22.0939 20.3482 22.9039 21.0862 23.4799 22.0462C24.0559 22.9942 24.3439 24.0922 24.3439 25.3402C24.3439 26.5882 24.0559 27.6922 23.4799 28.6522C22.9039 29.6002 22.0939 30.3382 21.0499 30.8662C20.0059 31.3822 18.8119 31.6402 17.4679 31.6402H11.9599V19.0402ZM17.3599 29.6602C18.2839 29.6602 19.0939 29.4862 19.7899 29.1382C20.4979 28.7782 21.0379 28.2742 21.4099 27.6262C21.7939 26.9662 21.9859 26.2042 21.9859 25.3402C21.9859 24.4762 21.7939 23.7202 21.4099 23.0722C21.0379 22.4122 20.4979 21.9082 19.7899 21.5602C19.0939 21.2002 18.2839 21.0202 17.3599 21.0202H14.2999V29.6602H17.3599ZM32.663 31.8202C31.391 31.8202 30.239 31.5442 29.207 30.9922C28.187 30.4282 27.383 29.6542 26.795 28.6702C26.219 27.6862 25.931 26.5762 25.931 25.3402C25.931 24.1042 26.225 22.9942 26.813 22.0102C27.401 21.0262 28.205 20.2582 29.225 19.7062C30.257 19.1422 31.409 18.8602 32.681 18.8602C33.713 18.8602 34.655 19.0402 35.507 19.4002C36.359 19.7602 37.079 20.2822 37.667 20.9662L36.155 22.3882C35.243 21.4042 34.121 20.9122 32.789 20.9122C31.925 20.9122 31.151 21.1042 30.467 21.4882C29.783 21.8602 29.249 22.3822 28.865 23.0542C28.481 23.7262 28.289 24.4882 28.289 25.3402C28.289 26.1922 28.481 26.9542 28.865 27.6262C29.249 28.2982 29.783 28.8262 30.467 29.2102C31.151 29.5822 31.925 29.7682 32.789 29.7682C34.121 29.7682 35.243 29.2702 36.155 28.2742L37.667 29.7142C37.079 30.3982 36.353 30.9202 35.489 31.2802C34.637 31.6402 33.695 31.8202 32.663 31.8202Z" fill="#202020"/>
</svg>
