<svg width="122" height="49" viewBox="0 0 122 49" fill="none" xmlns="http://www.w3.org/2000/svg">
<circle cx="97.2425" cy="24.2425" r="24.2425" fill="#FFF599"/>
<path d="M88.8641 30.8203C88.0601 30.8203 87.3161 30.6643 86.6321 30.3523C85.9601 30.0283 85.4081 29.5783 84.9761 29.0023L86.3081 27.4003C87.0041 28.3603 87.8381 28.8403 88.8101 28.8403C90.1181 28.8403 90.7721 28.0663 90.7721 26.5183V20.0023H86.2901V18.0403H93.1121V26.3923C93.1121 27.8683 92.7521 28.9783 92.0321 29.7223C91.3121 30.4543 90.2561 30.8203 88.8641 30.8203ZM107.59 18.0403V30.6403H105.664L98.7163 22.1083V30.6403H96.3943V18.0403H98.3203L105.268 26.5723V18.0403H107.59Z" fill="black"/>
<circle cx="61.2425" cy="24.2425" r="24.2425" fill="#99CCFF"/>
<path d="M58.9774 27.7243H52.6774L51.4354 30.6403H49.0234L54.6934 18.0403H56.9974L62.6854 30.6403H60.2374L58.9774 27.7243ZM58.2034 25.8883L55.8274 20.3803L53.4694 25.8883H58.2034ZM64.2878 18.0403H66.6278V28.6603H73.2158V30.6403H64.2878V18.0403Z" fill="black"/>
<circle cx="24.2425" cy="24.2425" r="23.2425" fill="white" stroke="#C4C4C4" stroke-width="2"/>
<path d="M21.9605 30.6403L21.9425 22.2883L17.8025 29.2003H16.7585L12.6185 22.3963V30.6403H10.3865V18.0403H12.3125L17.3165 26.3923L22.2305 18.0403H24.1565L24.1745 30.6403H21.9605ZM36.1819 24.1963H38.3959V29.2183C37.7479 29.7343 36.9919 30.1303 36.1279 30.4063C35.2639 30.6823 34.3759 30.8203 33.4639 30.8203C32.1799 30.8203 31.0219 30.5443 29.9899 29.9923C28.9579 29.4283 28.1479 28.6543 27.5599 27.6703C26.9719 26.6863 26.6779 25.5763 26.6779 24.3403C26.6779 23.1043 26.9719 21.9943 27.5599 21.0103C28.1479 20.0263 28.9579 19.2583 29.9899 18.7063C31.0339 18.1423 32.2039 17.8603 33.4999 17.8603C34.5559 17.8603 35.5159 18.0343 36.3799 18.3823C37.2439 18.7303 37.9699 19.2403 38.5579 19.9123L37.0819 21.3523C36.1219 20.3923 34.9639 19.9123 33.6079 19.9123C32.7199 19.9123 31.9279 20.0983 31.2319 20.4703C30.5479 20.8423 30.0079 21.3643 29.6119 22.0363C29.2279 22.7083 29.0359 23.4763 29.0359 24.3403C29.0359 25.1803 29.2279 25.9363 29.6119 26.6083C30.0079 27.2803 30.5479 27.8083 31.2319 28.1923C31.9279 28.5763 32.7139 28.7683 33.5899 28.7683C34.5739 28.7683 35.4379 28.5523 36.1819 28.1203V24.1963Z" fill="#202020"/>
</svg>
