<svg width="160" height="50" viewBox="0 0 160 50" fill="none" xmlns="http://www.w3.org/2000/svg">
<circle cx="135.242" cy="25.2425" r="24.2425" fill="#FFF599"/>
<path d="M126.864 31.8203C126.06 31.8203 125.316 31.6643 124.632 31.3523C123.96 31.0283 123.408 30.5783 122.976 30.0023L124.308 28.4003C125.004 29.3603 125.838 29.8403 126.81 29.8403C128.118 29.8403 128.772 29.0663 128.772 27.5183V21.0023H124.29V19.0403H131.112V27.3923C131.112 28.8683 130.752 29.9783 130.032 30.7223C129.312 31.4543 128.256 31.8203 126.864 31.8203ZM145.591 19.0403V31.6403H143.665L136.717 23.1083V31.6403H134.395V19.0403H136.321L143.269 27.5723V19.0403H145.591Z" fill="black"/>
<circle cx="99.2425" cy="25.2425" r="24.2425" fill="#99CCFF"/>
<path d="M96.9776 28.7243H90.6776L89.4356 31.6403H87.0236L92.6936 19.0403H94.9976L100.686 31.6403H98.2376L96.9776 28.7243ZM96.2036 26.8883L93.8276 21.3803L91.4696 26.8883H96.2036ZM102.288 19.0403H104.628V29.6603H111.216V31.6403H102.288V19.0403Z" fill="black"/>
<circle cx="62.2425" cy="25.2425" r="23.2425" fill="white" stroke="#C4C4C4" stroke-width="2"/>
<path d="M59.9607 31.6403L59.9427 23.2883L55.8027 30.2003H54.7587L50.6187 23.3963V31.6403H48.3867V19.0403H50.3127L55.3167 27.3923L60.2307 19.0403H62.1567L62.1747 31.6403H59.9607ZM74.1821 25.1963H76.3961V30.2183C75.7481 30.7343 74.9921 31.1303 74.1281 31.4063C73.2641 31.6823 72.3761 31.8203 71.4641 31.8203C70.1801 31.8203 69.0221 31.5443 67.9901 30.9923C66.9581 30.4283 66.1481 29.6543 65.5601 28.6703C64.9721 27.6863 64.6781 26.5763 64.6781 25.3403C64.6781 24.1043 64.9721 22.9943 65.5601 22.0103C66.1481 21.0263 66.9581 20.2583 67.9901 19.7063C69.0341 19.1423 70.2041 18.8603 71.5001 18.8603C72.5561 18.8603 73.5161 19.0343 74.3801 19.3823C75.2441 19.7303 75.9701 20.2403 76.5581 20.9123L75.0821 22.3523C74.1221 21.3923 72.9641 20.9123 71.6081 20.9123C70.7201 20.9123 69.9281 21.0983 69.2321 21.4703C68.5481 21.8423 68.0081 22.3643 67.6121 23.0363C67.2281 23.7083 67.0361 24.4763 67.0361 25.3403C67.0361 26.1803 67.2281 26.9363 67.6121 27.6083C68.0081 28.2803 68.5481 28.8083 69.2321 29.1923C69.9281 29.5763 70.7141 29.7683 71.5901 29.7683C72.5741 29.7683 73.4381 29.5523 74.1821 29.1203V25.1963Z" fill="#202020"/>
<circle cx="24.2425" cy="24.2425" r="24.2425" fill="#99CC99"/>
<path d="M11.9599 19.0403H17.4679C18.8119 19.0403 20.0059 19.3043 21.0499 19.8323C22.0939 20.3483 22.9039 21.0863 23.4799 22.0463C24.0559 22.9943 24.3439 24.0923 24.3439 25.3403C24.3439 26.5883 24.0559 27.6923 23.4799 28.6523C22.9039 29.6003 22.0939 30.3383 21.0499 30.8663C20.0059 31.3823 18.8119 31.6403 17.4679 31.6403H11.9599V19.0403ZM17.3599 29.6603C18.2839 29.6603 19.0939 29.4863 19.7899 29.1383C20.4979 28.7783 21.0379 28.2743 21.4099 27.6263C21.7939 26.9663 21.9859 26.2043 21.9859 25.3403C21.9859 24.4763 21.7939 23.7203 21.4099 23.0723C21.0379 22.4123 20.4979 21.9083 19.7899 21.5603C19.0939 21.2003 18.2839 21.0203 17.3599 21.0203H14.2999V29.6603H17.3599ZM32.663 31.8203C31.391 31.8203 30.239 31.5443 29.207 30.9923C28.187 30.4283 27.383 29.6543 26.795 28.6703C26.219 27.6863 25.931 26.5763 25.931 25.3403C25.931 24.1043 26.225 22.9943 26.813 22.0103C27.401 21.0263 28.205 20.2583 29.225 19.7063C30.257 19.1423 31.409 18.8603 32.681 18.8603C33.713 18.8603 34.655 19.0403 35.507 19.4003C36.359 19.7603 37.079 20.2823 37.667 20.9663L36.155 22.3883C35.243 21.4043 34.121 20.9123 32.789 20.9123C31.925 20.9123 31.151 21.1043 30.467 21.4883C29.783 21.8603 29.249 22.3823 28.865 23.0543C28.481 23.7263 28.289 24.4883 28.289 25.3403C28.289 26.1923 28.481 26.9543 28.865 27.6263C29.249 28.2983 29.783 28.8263 30.467 29.2103C31.151 29.5823 31.925 29.7683 32.789 29.7683C34.121 29.7683 35.243 29.2703 36.155 28.2743L37.667 29.7143C37.079 30.3983 36.353 30.9203 35.489 31.2803C34.637 31.6403 33.695 31.8203 32.663 31.8203Z" fill="#202020"/>
</svg>
