<svg width="80" height="83" viewBox="0 0 80 83" fill="none" xmlns="http://www.w3.org/2000/svg">
<path fill-rule="evenodd" clip-rule="evenodd" d="M39.8169 0.173671C47.7623 -0.130291 55.682 1.5074 62.4484 6.04145C69.6041 10.8364 76.2599 17.4162 78.6267 26.1795C80.9643 34.8347 78.2253 43.9895 74.9341 52.2709C71.894 59.9206 66.871 66.151 60.7472 71.1688C54.5222 76.2695 47.5976 80.4893 39.8169 81.0457C31.6841 81.6274 23.4002 79.4822 16.7834 74.3129C10.1471 69.1284 6.13435 61.1001 3.51805 52.6879C0.875489 44.1912 -0.866673 34.9441 1.91273 26.4991C4.65315 18.1726 11.4561 12.4933 18.3147 7.72985C24.8206 3.21131 32.0995 0.468908 39.8169 0.173671Z" fill="#FFFF99"/>
<path d="M38.9847 15.4107C38.9847 15.4107 25.8147 15.6127 25.6047 33.5172C25.6047 33.5172 18.5047 32.3049 24.6047 41.1561C24.6047 41.1561 25.1947 42.6762 27.0647 41.1561C28.9347 39.636 25.2947 44.764 33.7747 49.9304C33.7747 49.9304 33.8947 58.2236 31.7747 59.5512C29.6547 60.8789 43.3947 65.4392 45.6447 59.5512C44.2125 57.8589 43.457 55.7294 43.5147 53.5478C43.5147 53.5478 52.9547 53.086 53.0147 37.4425C53.0747 21.7989 48.5647 14.4486 38.9847 15.4107Z" fill="#CD9F94"/>
<path d="M53.3747 15.0353C53.3747 15.0353 48.6647 12.149 48.8047 10.7732C48.9447 9.39742 45.5247 7.71375 42.6647 8.99334C42.6647 8.99334 37.6647 5.00065 32.8147 9.12803C32.8147 9.12803 26.3847 8.57964 24.2447 12.5627C24.2447 12.5627 19.2447 12.149 21.2447 18.8837C21.2447 18.8837 16.2447 21.2216 20.1047 26.4361C20.1047 26.4361 17.2447 30.5635 21.1047 33.0361C24.9647 35.5086 25.2447 32.4877 26.1047 36.8844C26.9647 41.2812 28.3847 32.7571 28.2447 31.1119C28.1047 29.4667 28.2447 25.8877 30.5247 26.8498C32.8047 27.8119 29.6747 22.1452 34.2947 24.3772C38.9147 26.6093 41.1447 20.0478 43.0047 22.6936C44.8647 25.3393 48.8547 26.5419 49.8547 23.8288C50.8547 21.1157 52.7147 24.993 54.7147 22.6936C56.7147 20.3942 57.9447 19.2589 53.3747 15.0353Z" fill="#202020"/>
<path d="M45.4716 59.4852C39.7623 64.0527 34.2112 61.3883 32.1493 59.4852C22.0533 59.0639 14.3035 74.6934 11.6907 82.5608H68.3092C63.0755 72.9658 51.1809 54.9177 45.4716 59.4852Z" fill="#F8F8C8"/>
</svg>
