<svg width="82" height="84" viewBox="0 0 82 84" fill="none" xmlns="http://www.w3.org/2000/svg">
<path fill-rule="evenodd" clip-rule="evenodd" d="M40.5416 1.06172C48.4611 0.691307 56.572 1.91396 63.1484 6.75561C69.8706 11.7046 74.141 19.5405 76.9406 27.8593C79.8339 36.4566 81.9721 45.8957 79.2341 54.5537C76.5192 63.1389 69.3947 68.8147 62.4267 73.7552C55.7906 78.4603 48.4457 82.2464 40.5416 81.9875C32.7788 81.7331 25.6823 77.6195 19.5886 72.3517C13.694 67.256 9.68605 60.3803 6.77936 52.801C3.62818 44.5842 -0.150431 35.7018 2.27034 27.1937C4.70005 18.6542 12.362 13.5419 19.2969 8.80667C25.7881 4.37441 32.897 1.41928 40.5416 1.06172Z" fill="white" stroke="#DADADA" stroke-opacity="0.66" stroke-width="2"/>
<path d="M44.4205 16.5105C44.4205 16.5105 31.2505 16.7126 31.0405 34.6074C31.0405 34.6074 23.9305 33.4048 30.0405 42.3041C30.0405 42.3041 30.6305 43.8242 32.5005 42.3041C34.3705 40.784 30.7505 45.9408 39.2505 51.1168C39.2505 51.1168 39.3705 59.41 37.2505 60.7377C35.1305 62.0654 48.8705 66.6257 51.1105 60.7377C49.6844 59.039 48.9329 56.9076 48.9905 54.7247C48.9905 54.7247 58.4305 54.2725 58.4905 38.6193C58.5005 23.0624 54.0005 15.6062 44.4205 16.5105Z" fill="#E8C0B6"/>
<path d="M49.1706 16.27C49.1706 16.27 39.5806 12.4217 35.6706 15.1829C31.7606 17.944 32.3906 20.5802 28.9206 20.4647C25.4506 20.3493 15.8506 21.7539 18.6606 37.8881C18.6606 37.8881 27.8106 29.3833 26.9306 22.2831C26.9306 22.2831 27.7506 31.7596 25.3506 34.6651C22.9506 37.5706 17.8406 51.7325 27.1806 56.1004C36.5206 60.4683 39.3006 56.6488 39.3006 56.6488L39.8006 51.1841C39.8006 51.1841 33.5906 46.0081 33.0206 42.0636C32.5706 42.0636 29.7306 44.2667 28.4206 39.514C27.1606 34.9249 28.8806 33.3759 31.8506 35.4636C31.8506 35.4636 31.6606 38.9849 32.4206 38.6193C33.1806 38.2537 34.5706 28.0363 36.9606 27.3244C39.3506 26.6124 49.6606 25.6023 49.1706 16.27Z" fill="#343434"/>
<path d="M49.1406 18.4442C49.1406 18.4442 56.4605 23.678 57.9905 30.4127C57.9905 30.4127 60.7305 19.5121 52.7205 16.9433C52.7205 16.9433 47.7706 15.0191 49.1406 18.4442Z" fill="#343434"/>
<path d="M50.9411 60.6236C45.2318 65.1911 39.6807 62.5267 37.6188 60.6236C27.5227 60.2024 19.773 75.8319 17.1602 83.6993H73.7787C68.545 74.1042 56.6504 56.0561 50.9411 60.6236Z" fill="#DADADA"/>
</svg>
