<svg width="79" height="85" viewBox="0 0 79 85" fill="none" xmlns="http://www.w3.org/2000/svg">
<path fill-rule="evenodd" clip-rule="evenodd" d="M39.3169 0.712001C47.2623 0.408039 55.182 2.04573 61.9484 6.57978C69.1041 11.3747 75.7599 17.9545 78.1267 26.7178C80.4643 35.3731 77.7253 44.5278 74.4341 52.8092C71.394 60.4589 66.371 66.6894 60.2472 71.7071C54.0222 76.8078 47.0976 81.0276 39.3169 81.5841C31.1841 82.1657 22.9002 80.0205 16.2834 74.8513C9.64715 69.6668 5.63435 61.6384 3.01805 53.2262C0.375489 44.7296 -1.36667 35.4824 1.41273 27.0375C4.15315 18.711 10.9561 13.0316 17.8147 8.26818C24.3206 3.74964 31.5995 1.00724 39.3169 0.712001Z" fill="#FFFF99"/>
<path d="M41.6202 16.7666C41.6202 16.7666 28.4502 16.9766 28.2402 35.5866C28.2402 35.5866 21.1302 34.3266 27.2402 43.5266C27.2402 43.5266 27.8402 45.1066 29.7102 43.5266C31.5802 41.9466 27.9602 47.3166 36.4602 52.6866C36.4602 52.6866 36.5802 61.3066 34.4602 62.6866C32.3402 64.0666 46.0702 68.8066 48.3202 62.6866C46.8932 60.9253 46.1415 58.7127 46.2002 56.4466C46.2002 56.4466 55.6402 55.9666 55.6902 39.7066C55.7402 23.4466 51.2002 15.7666 41.6202 16.7666Z" fill="#CD9F94"/>
<path d="M23.0405 24.2664C23.0405 24.2664 14.3805 31.0764 20.0405 36.4364C20.0405 36.4364 15.0905 43.8564 23.0405 47.0164C23.0405 47.0164 23.5905 53.0164 29.6405 50.8664C29.6405 50.8664 35.0005 57.5964 37.8805 51.3464C37.8805 51.3464 33.3505 52.7864 29.6405 43.0264C29.6405 43.0264 26.7505 46.2564 26.0705 40.3164C25.3905 34.3764 27.4405 33.3164 28.9505 36.8464C30.4605 40.3764 31.1505 39.1364 31.1505 39.1364C31.1505 39.1364 31.1505 29.9764 33.0705 30.5264C34.9905 31.0764 34.8605 31.5264 37.2005 26.3964C37.2005 26.3964 40.0805 34.6464 47.3705 25.9864C47.3705 25.9864 48.7405 25.9864 51.0805 28.8764C53.4205 31.7664 52.8605 25.9864 57.2605 26.5364C61.6605 27.0864 61.6605 20.2164 59.3205 18.4264C59.3205 18.4264 61.3805 14.5864 59.1805 12.6564C56.9805 10.7264 50.2305 5.02643 48.0405 8.22643C45.8505 11.4264 42.5405 3.76643 34.0405 11.2864C34.0405 11.2864 21.9205 9.08643 23.0405 24.2664Z" fill="#202020"/>
<path d="M47.4801 61.341C41.7708 65.9085 36.2197 63.2441 34.1579 61.341C24.0618 60.9198 16.3121 76.5493 13.6992 84.4167H70.3177C65.0841 74.8217 53.1895 56.7735 47.4801 61.341Z" fill="#F8F8C8"/>
</svg>
