<svg width="373" height="49" viewBox="0 0 373 49" fill="none" xmlns="http://www.w3.org/2000/svg">
<rect y="28" width="232" height="20" rx="10" fill="#7FADFC" fill-opacity="0.7"/>
<path d="M11.0667 18.9648H5.33069L5.73869 16.8768H19.6347L19.2027 18.9648H13.4667L10.5147 33.6768H8.13869L11.0667 18.9648ZM27.6006 20.8368C29.0566 20.8368 30.1846 21.2048 30.9846 21.9408C31.8006 22.6768 32.2086 23.7168 32.2086 25.0608C32.2086 25.5248 32.1606 26.0208 32.0646 26.5488L30.6486 33.6768H28.3446L29.7606 26.5488C29.8406 26.1168 29.8806 25.7648 29.8806 25.4928C29.8806 24.6608 29.6326 24.0208 29.1366 23.5728C28.6406 23.1248 27.9046 22.9008 26.9286 22.9008C25.6806 22.9008 24.6486 23.2448 23.8326 23.9328C23.0326 24.6048 22.4966 25.6128 22.2246 26.9568L20.8806 33.6768H18.5766L22.1286 15.8688H24.4326L23.1126 22.4448C24.2486 21.3728 25.7446 20.8368 27.6006 20.8368ZM37.2149 28.0368V28.1808C37.2149 29.3648 37.5509 30.2688 38.2229 30.8928C38.8949 31.5008 39.9029 31.8048 41.2469 31.8048C42.0309 31.8048 42.7669 31.6768 43.4549 31.4208C44.1429 31.1488 44.7189 30.7888 45.1829 30.3408L46.1669 31.9968C45.5429 32.5728 44.7829 33.0208 43.8869 33.3408C42.9909 33.6608 42.0469 33.8208 41.0549 33.8208C39.8069 33.8208 38.7269 33.5968 37.8149 33.1488C36.9029 32.7008 36.1989 32.0608 35.7029 31.2288C35.2069 30.3968 34.9589 29.4208 34.9589 28.3008C34.9589 26.8768 35.2629 25.5968 35.8709 24.4608C36.4949 23.3248 37.3509 22.4368 38.4389 21.7968C39.5429 21.1568 40.7749 20.8368 42.1349 20.8368C43.8629 20.8368 45.2389 21.3328 46.2629 22.3248C47.3029 23.3008 47.8229 24.6368 47.8229 26.3328C47.8229 26.8448 47.7669 27.4128 47.6549 28.0368H37.2149ZM42.0389 22.7568C40.9029 22.7568 39.9269 23.0768 39.1109 23.7168C38.2949 24.3568 37.7429 25.2368 37.4549 26.3568H45.6629C45.7269 25.2208 45.4229 24.3408 44.7509 23.7168C44.0949 23.0768 43.1909 22.7568 42.0389 22.7568ZM66.0121 16.8768C67.9641 16.8768 69.4761 17.3088 70.5481 18.1728C71.6361 19.0208 72.1801 20.2288 72.1801 21.7968C72.1801 23.2208 71.8601 24.4448 71.2201 25.4688C70.5961 26.4768 69.6921 27.2528 68.5081 27.7968C67.3241 28.3248 65.9241 28.5888 64.3081 28.5888H59.8201L58.8121 33.6768H56.4121L59.7721 16.8768H66.0121ZM64.3561 26.5008C66.0841 26.5008 67.4201 26.1168 68.3641 25.3488C69.3081 24.5808 69.7801 23.4688 69.7801 22.0128C69.7801 21.0208 69.4361 20.2688 68.7481 19.7568C68.0601 19.2288 67.0761 18.9648 65.7961 18.9648H61.7641L60.2521 26.5008H64.3561ZM75.4951 20.9568H77.7991L75.2791 33.6768H72.9751L75.4951 20.9568ZM77.3191 18.5088C76.9031 18.5088 76.5591 18.3728 76.2871 18.1008C76.0151 17.8288 75.8791 17.5008 75.8791 17.1168C75.8791 16.6688 76.0311 16.2928 76.3351 15.9888C76.6551 15.6688 77.0551 15.5088 77.5351 15.5088C77.9511 15.5088 78.2951 15.6448 78.5671 15.9168C78.8551 16.1728 78.9991 16.4848 78.9991 16.8528C78.9991 17.3488 78.8391 17.7488 78.5191 18.0528C78.2151 18.3568 77.8151 18.5088 77.3191 18.5088ZM83.2302 15.8688H85.5342L81.9822 33.6768H79.6782L83.2302 15.8688ZM92.3333 33.8208C91.1333 33.8208 90.0853 33.5968 89.1893 33.1488C88.2933 32.6848 87.5973 32.0368 87.1013 31.2048C86.6053 30.3728 86.3573 29.4128 86.3573 28.3248C86.3573 26.9008 86.6773 25.6208 87.3173 24.4848C87.9573 23.3488 88.8453 22.4608 89.9813 21.8208C91.1173 21.1648 92.3973 20.8368 93.8213 20.8368C95.0213 20.8368 96.0693 21.0608 96.9653 21.5088C97.8613 21.9568 98.5493 22.5968 99.0293 23.4288C99.5253 24.2448 99.7733 25.2048 99.7733 26.3088C99.7733 27.7328 99.4533 29.0208 98.8133 30.1728C98.1733 31.3088 97.2853 32.2048 96.1493 32.8608C95.0293 33.5008 93.7573 33.8208 92.3333 33.8208ZM92.4773 31.8048C93.4213 31.8048 94.2693 31.5808 95.0213 31.1328C95.7893 30.6688 96.3813 30.0288 96.7973 29.2128C97.2293 28.3968 97.4453 27.4688 97.4453 26.4288C97.4453 25.2928 97.1173 24.4128 96.4613 23.7888C95.8053 23.1648 94.8693 22.8528 93.6533 22.8528C92.7093 22.8528 91.8613 23.0848 91.1093 23.5488C90.3573 23.9968 89.7653 24.6288 89.3333 25.4448C88.9013 26.2608 88.6853 27.1888 88.6853 28.2288C88.6853 29.3488 89.0133 30.2288 89.6693 30.8688C90.3413 31.4928 91.2773 31.8048 92.4773 31.8048ZM105.024 29.6208C104.976 29.8608 104.952 30.0848 104.952 30.2928C104.952 30.8048 105.088 31.1968 105.36 31.4688C105.648 31.7408 106.072 31.8768 106.632 31.8768C107.304 31.8768 107.912 31.6768 108.456 31.2768L108.936 33.0288C108.168 33.5568 107.184 33.8208 105.984 33.8208C104.976 33.8208 104.16 33.5408 103.536 32.9808C102.928 32.4048 102.624 31.6208 102.624 30.6288C102.624 30.2928 102.656 29.9728 102.72 29.6688L104.088 22.8528H101.928L102.288 20.9568H104.472L105.024 18.1728H107.328L106.776 20.9568H110.424L110.04 22.8528H106.392L105.024 29.6208ZM127.911 16.8768C129.863 16.8768 131.375 17.3088 132.447 18.1728C133.535 19.0208 134.079 20.2288 134.079 21.7968C134.079 23.2208 133.759 24.4448 133.119 25.4688C132.495 26.4768 131.591 27.2528 130.407 27.7968C129.223 28.3248 127.823 28.5888 126.207 28.5888H121.719L120.711 33.6768H118.311L121.671 16.8768H127.911ZM126.255 26.5008C127.983 26.5008 129.319 26.1168 130.263 25.3488C131.207 24.5808 131.679 23.4688 131.679 22.0128C131.679 21.0208 131.335 20.2688 130.647 19.7568C129.959 19.2288 128.975 18.9648 127.695 18.9648H123.663L122.151 26.5008H126.255ZM139.242 22.8528C139.802 22.1488 140.49 21.6368 141.306 21.3168C142.122 20.9968 143.114 20.8368 144.282 20.8368L143.85 23.0688C143.706 23.0528 143.506 23.0448 143.25 23.0448C140.61 23.0448 139.01 24.4688 138.45 27.3168L137.178 33.6768H134.874L137.394 20.9568H139.602L139.242 22.8528ZM150.388 33.8208C149.188 33.8208 148.14 33.5968 147.244 33.1488C146.348 32.6848 145.652 32.0368 145.156 31.2048C144.66 30.3728 144.412 29.4128 144.412 28.3248C144.412 26.9008 144.732 25.6208 145.372 24.4848C146.012 23.3488 146.9 22.4608 148.036 21.8208C149.172 21.1648 150.452 20.8368 151.876 20.8368C153.076 20.8368 154.124 21.0608 155.02 21.5088C155.916 21.9568 156.604 22.5968 157.084 23.4288C157.58 24.2448 157.828 25.2048 157.828 26.3088C157.828 27.7328 157.508 29.0208 156.868 30.1728C156.228 31.3088 155.34 32.2048 154.204 32.8608C153.084 33.5008 151.812 33.8208 150.388 33.8208ZM150.532 31.8048C151.476 31.8048 152.324 31.5808 153.076 31.1328C153.844 30.6688 154.436 30.0288 154.852 29.2128C155.284 28.3968 155.5 27.4688 155.5 26.4288C155.5 25.2928 155.172 24.4128 154.516 23.7888C153.86 23.1648 152.924 22.8528 151.708 22.8528C150.764 22.8528 149.916 23.0848 149.164 23.5488C148.412 23.9968 147.82 24.6288 147.388 25.4448C146.956 26.2608 146.74 27.1888 146.74 28.2288C146.74 29.3488 147.068 30.2288 147.724 30.8688C148.396 31.4928 149.332 31.8048 150.532 31.8048ZM174.358 20.9568L172.174 31.9488C171.726 34.2208 170.878 35.8768 169.63 36.9168C168.398 37.9568 166.71 38.4768 164.566 38.4768C163.366 38.4768 162.27 38.3168 161.278 37.9968C160.286 37.6928 159.446 37.2528 158.758 36.6768L160.03 34.9008C160.542 35.3648 161.206 35.7328 162.022 36.0048C162.854 36.2928 163.758 36.4368 164.734 36.4368C166.206 36.4368 167.342 36.1008 168.142 35.4288C168.958 34.7568 169.51 33.7168 169.798 32.3088L169.99 31.3968C168.774 32.5648 167.238 33.1488 165.382 33.1488C164.262 33.1488 163.27 32.9408 162.406 32.5248C161.558 32.1088 160.894 31.5088 160.414 30.7248C159.95 29.9408 159.718 29.0208 159.718 27.9648C159.718 26.6368 160.022 25.4288 160.63 24.3408C161.254 23.2528 162.118 22.3968 163.222 21.7728C164.326 21.1488 165.574 20.8368 166.966 20.8368C168.054 20.8368 169.014 21.0448 169.846 21.4608C170.694 21.8608 171.318 22.4688 171.718 23.2848L172.174 20.9568H174.358ZM165.838 31.1328C166.798 31.1328 167.654 30.9248 168.406 30.5088C169.174 30.0768 169.766 29.4848 170.182 28.7328C170.614 27.9648 170.83 27.1008 170.83 26.1408C170.83 25.1168 170.494 24.3168 169.822 23.7408C169.166 23.1488 168.238 22.8528 167.038 22.8528C166.078 22.8528 165.214 23.0688 164.446 23.5008C163.694 23.9168 163.102 24.5088 162.67 25.2768C162.254 26.0288 162.046 26.8768 162.046 27.8208C162.046 28.8608 162.382 29.6768 163.054 30.2688C163.726 30.8448 164.654 31.1328 165.838 31.1328ZM180.609 22.8528C181.169 22.1488 181.857 21.6368 182.673 21.3168C183.489 20.9968 184.481 20.8368 185.649 20.8368L185.217 23.0688C185.073 23.0528 184.873 23.0448 184.617 23.0448C181.977 23.0448 180.377 24.4688 179.817 27.3168L178.545 33.6768H176.241L178.761 20.9568H180.969L180.609 22.8528ZM200.299 20.9568L197.779 33.6768H195.571L195.883 32.1168C195.307 32.6608 194.635 33.0848 193.867 33.3888C193.115 33.6768 192.291 33.8208 191.395 33.8208C190.307 33.8208 189.339 33.6048 188.491 33.1728C187.643 32.7248 186.979 32.0848 186.499 31.2528C186.019 30.4208 185.779 29.4448 185.779 28.3248C185.779 26.8848 186.091 25.5968 186.715 24.4608C187.339 23.3248 188.195 22.4368 189.283 21.7968C190.387 21.1568 191.619 20.8368 192.979 20.8368C194.067 20.8368 194.995 21.0288 195.763 21.4128C196.547 21.7968 197.147 22.3648 197.563 23.1168L197.995 20.9568H200.299ZM191.899 31.8048C192.843 31.8048 193.691 31.5808 194.443 31.1328C195.211 30.6688 195.803 30.0288 196.219 29.2128C196.651 28.3968 196.867 27.4688 196.867 26.4288C196.867 25.2928 196.539 24.4128 195.883 23.7888C195.227 23.1648 194.291 22.8528 193.075 22.8528C192.131 22.8528 191.283 23.0848 190.531 23.5488C189.779 23.9968 189.187 24.6288 188.755 25.4448C188.323 26.2608 188.107 27.1888 188.107 28.2288C188.107 29.3488 188.435 30.2288 189.091 30.8688C189.763 31.4928 190.699 31.8048 191.899 31.8048ZM220.259 20.8368C221.699 20.8368 222.819 21.2048 223.619 21.9408C224.435 22.6608 224.843 23.6928 224.843 25.0368C224.843 25.4048 224.787 25.9088 224.675 26.5488L223.259 33.6768H220.955L222.371 26.5488C222.451 26.1008 222.491 25.7328 222.491 25.4448C222.491 24.6128 222.259 23.9808 221.795 23.5488C221.331 23.1168 220.627 22.9008 219.683 22.9008C218.499 22.9008 217.523 23.2368 216.755 23.9088C216.003 24.5648 215.491 25.5568 215.219 26.8848L213.851 33.6768H211.547L212.987 26.5488C213.067 26.1168 213.107 25.7568 213.107 25.4688C213.107 24.6368 212.867 24.0048 212.387 23.5728C211.923 23.1248 211.219 22.9008 210.275 22.9008C209.091 22.9008 208.115 23.2368 207.347 23.9088C206.595 24.5808 206.083 25.5968 205.811 26.9568L204.467 33.6768H202.163L204.683 20.9568H206.891L206.579 22.5408C207.699 21.4048 209.171 20.8368 210.995 20.8368C211.987 20.8368 212.835 21.0288 213.539 21.4128C214.243 21.7968 214.755 22.3568 215.075 23.0928C216.371 21.5888 218.099 20.8368 220.259 20.8368Z" fill="#202020"/>
<circle cx="348.242" cy="24.2425" r="24.2425" fill="#99CC99"/>
<path d="M337.26 18.0406H339.6V28.6606H346.188V30.6406H337.26V18.0406ZM359.231 18.0406V30.6406H357.305L350.357 22.1086V30.6406H348.035V18.0406H349.961L356.909 26.5726V18.0406H359.231Z" fill="#202020"/>
<circle cx="311.242" cy="24.2425" r="24.2425" fill="#FFEE52"/>
<path d="M308.704 27.7246H302.404L301.162 30.6406H298.75L304.42 18.0406H306.724L312.412 30.6406H309.964L308.704 27.7246ZM307.93 25.8886L305.554 20.3806L303.196 25.8886H307.93ZM317.921 30.8206C316.949 30.8206 316.007 30.6826 315.095 30.4066C314.195 30.1306 313.481 29.7646 312.953 29.3086L313.763 27.4906C314.279 27.8986 314.909 28.2346 315.653 28.4986C316.409 28.7506 317.165 28.8766 317.921 28.8766C318.857 28.8766 319.553 28.7266 320.009 28.4266C320.477 28.1266 320.711 27.7306 320.711 27.2386C320.711 26.8786 320.579 26.5846 320.315 26.3566C320.063 26.1166 319.739 25.9306 319.343 25.7986C318.947 25.6666 318.407 25.5166 317.723 25.3486C316.763 25.1206 315.983 24.8926 315.383 24.6646C314.795 24.4366 314.285 24.0826 313.853 23.6026C313.433 23.1106 313.223 22.4506 313.223 21.6226C313.223 20.9266 313.409 20.2966 313.781 19.7326C314.165 19.1566 314.735 18.7006 315.491 18.3646C316.259 18.0286 317.195 17.8606 318.299 17.8606C319.067 17.8606 319.823 17.9566 320.567 18.1486C321.311 18.3406 321.953 18.6166 322.493 18.9766L321.755 20.7946C321.203 20.4706 320.627 20.2246 320.027 20.0566C319.427 19.8886 318.845 19.8046 318.281 19.8046C317.357 19.8046 316.667 19.9606 316.211 20.2726C315.767 20.5846 315.545 20.9986 315.545 21.5146C315.545 21.8746 315.671 22.1686 315.923 22.3966C316.187 22.6246 316.517 22.8046 316.913 22.9366C317.309 23.0686 317.849 23.2186 318.533 23.3866C319.469 23.6026 320.237 23.8306 320.837 24.0706C321.437 24.2986 321.947 24.6526 322.367 25.1326C322.799 25.6126 323.015 26.2606 323.015 27.0766C323.015 27.7726 322.823 28.4026 322.439 28.9666C322.067 29.5306 321.497 29.9806 320.729 30.3166C319.961 30.6526 319.025 30.8206 317.921 30.8206Z" fill="#202020"/>
<circle cx="274.242" cy="24.2425" r="24.2425" fill="#99CCFF"/>
<path d="M263.708 18.0406H266.048V28.6606H272.636V30.6406H263.708V18.0406ZM282.859 24.1966H285.073V29.2186C284.425 29.7346 283.669 30.1306 282.805 30.4066C281.941 30.6826 281.053 30.8206 280.141 30.8206C278.857 30.8206 277.699 30.5446 276.667 29.9926C275.635 29.4286 274.825 28.6546 274.237 27.6706C273.649 26.6866 273.355 25.5766 273.355 24.3406C273.355 23.1046 273.649 21.9946 274.237 21.0106C274.825 20.0266 275.635 19.2586 276.667 18.7066C277.711 18.1426 278.881 17.8606 280.177 17.8606C281.233 17.8606 282.193 18.0346 283.057 18.3826C283.921 18.7306 284.647 19.2406 285.235 19.9126L283.759 21.3526C282.799 20.3926 281.641 19.9126 280.285 19.9126C279.397 19.9126 278.605 20.0986 277.909 20.4706C277.225 20.8426 276.685 21.3646 276.289 22.0366C275.905 22.7086 275.713 23.4766 275.713 24.3406C275.713 25.1806 275.905 25.9366 276.289 26.6086C276.685 27.2806 277.225 27.8086 277.909 28.1926C278.605 28.5766 279.391 28.7686 280.267 28.7686C281.251 28.7686 282.115 28.5526 282.859 28.1206V24.1966Z" fill="#202020"/>
</svg>
