<svg width="408" height="49" viewBox="0 0 408 49" fill="none" xmlns="http://www.w3.org/2000/svg">
<rect y="27.6758" width="309" height="20" rx="10" fill="#7FADFC" fill-opacity="0.7"/>
<path d="M31.7313 16.0027L22.7553 32.8027H20.2113L18.3393 19.4587L11.0193 32.8027H8.47528L6.21928 16.0027H8.57128L10.3953 29.7067L17.8353 16.0027H20.0673L21.9393 29.7307L29.3313 16.0027H31.7313ZM32.2422 27.1627V27.3067C32.2422 28.4907 32.5782 29.3947 33.2502 30.0187C33.9222 30.6267 34.9302 30.9307 36.2742 30.9307C37.0582 30.9307 37.7942 30.8027 38.4822 30.5467C39.1702 30.2747 39.7462 29.9147 40.2102 29.4667L41.1942 31.1227C40.5702 31.6987 39.8102 32.1467 38.9142 32.4667C38.0182 32.7867 37.0742 32.9467 36.0822 32.9467C34.8342 32.9467 33.7542 32.7227 32.8422 32.2747C31.9302 31.8267 31.2262 31.1867 30.7302 30.3547C30.2342 29.5227 29.9862 28.5467 29.9862 27.4267C29.9862 26.0027 30.2902 24.7227 30.8982 23.5867C31.5222 22.4507 32.3782 21.5627 33.4662 20.9227C34.5702 20.2827 35.8022 19.9627 37.1622 19.9627C38.8902 19.9627 40.2662 20.4587 41.2902 21.4507C42.3302 22.4267 42.8502 23.7627 42.8502 25.4587C42.8502 25.9707 42.7942 26.5387 42.6822 27.1627H32.2422ZM37.0662 21.8827C35.9302 21.8827 34.9542 22.2027 34.1382 22.8427C33.3222 23.4827 32.7702 24.3627 32.4822 25.4827H40.6902C40.7542 24.3467 40.4502 23.4667 39.7782 22.8427C39.1222 22.2027 38.2182 21.8827 37.0662 21.8827ZM53.5861 19.9627C54.6741 19.9627 55.6421 20.1867 56.4901 20.6347C57.3381 21.0667 58.0021 21.6987 58.4821 22.5307C58.9621 23.3467 59.2021 24.3147 59.2021 25.4347C59.2021 26.8747 58.8901 28.1627 58.2661 29.2987C57.6421 30.4347 56.7781 31.3307 55.6741 31.9867C54.5861 32.6267 53.3621 32.9467 52.0021 32.9467C50.8821 32.9467 49.9221 32.7387 49.1221 32.3227C48.3381 31.9067 47.7461 31.2987 47.3461 30.4987L46.8661 32.8027H44.6821L48.2341 14.9947H50.5381L49.2181 21.5467C50.4021 20.4907 51.8581 19.9627 53.5861 19.9627ZM51.9061 30.9307C52.8501 30.9307 53.6981 30.7067 54.4501 30.2587C55.2021 29.7947 55.7941 29.1547 56.2261 28.3387C56.6581 27.5227 56.8741 26.5947 56.8741 25.5547C56.8741 24.4187 56.5461 23.5387 55.8901 22.9147C55.2341 22.2907 54.2981 21.9787 53.0821 21.9787C52.1381 21.9787 51.2821 22.2107 50.5141 22.6747C49.7621 23.1227 49.1701 23.7547 48.7381 24.5707C48.3221 25.3867 48.1141 26.3147 48.1141 27.3547C48.1141 28.4747 48.4421 29.3547 49.0981 29.9947C49.7701 30.6187 50.7061 30.9307 51.9061 30.9307ZM77.3988 16.0027C79.3508 16.0027 80.8628 16.4347 81.9348 17.2987C83.0228 18.1467 83.5668 19.3547 83.5668 20.9227C83.5668 22.3467 83.2468 23.5707 82.6068 24.5947C81.9828 25.6027 81.0788 26.3787 79.8948 26.9227C78.7108 27.4507 77.3108 27.7147 75.6948 27.7147H71.2068L70.1988 32.8027H67.7988L71.1588 16.0027H77.3988ZM75.7428 25.6267C77.4708 25.6267 78.8068 25.2427 79.7508 24.4747C80.6948 23.7067 81.1668 22.5947 81.1668 21.1387C81.1668 20.1467 80.8228 19.3947 80.1348 18.8827C79.4468 18.3547 78.4628 18.0907 77.1828 18.0907H73.1508L71.6388 25.6267H75.7428ZM88.3591 14.9947H90.6631L87.1111 32.8027H84.8071L88.3591 14.9947ZM106.006 20.0827L103.486 32.8027H101.278L101.59 31.2427C101.014 31.7867 100.342 32.2107 99.5742 32.5147C98.8222 32.8027 97.9982 32.9467 97.1022 32.9467C96.0142 32.9467 95.0462 32.7307 94.1982 32.2987C93.3502 31.8507 92.6862 31.2107 92.2062 30.3787C91.7262 29.5467 91.4862 28.5707 91.4862 27.4507C91.4862 26.0107 91.7982 24.7227 92.4222 23.5867C93.0462 22.4507 93.9022 21.5627 94.9902 20.9227C96.0942 20.2827 97.3262 19.9627 98.6862 19.9627C99.7742 19.9627 100.702 20.1547 101.47 20.5387C102.254 20.9227 102.854 21.4907 103.27 22.2427L103.702 20.0827H106.006ZM97.6062 30.9307C98.5502 30.9307 99.3982 30.7067 100.15 30.2587C100.918 29.7947 101.51 29.1547 101.926 28.3387C102.358 27.5227 102.574 26.5947 102.574 25.5547C102.574 24.4187 102.246 23.5387 101.59 22.9147C100.934 22.2907 99.9982 21.9787 98.7822 21.9787C97.8382 21.9787 96.9902 22.2107 96.2382 22.6747C95.4862 23.1227 94.8942 23.7547 94.4622 24.5707C94.0302 25.3867 93.8142 26.3147 93.8142 27.3547C93.8142 28.4747 94.1422 29.3547 94.7982 29.9947C95.4702 30.6187 96.4062 30.9307 97.6062 30.9307ZM111.278 28.7467C111.23 28.9867 111.206 29.2107 111.206 29.4187C111.206 29.9307 111.342 30.3227 111.614 30.5947C111.902 30.8667 112.326 31.0027 112.886 31.0027C113.558 31.0027 114.166 30.8027 114.71 30.4027L115.19 32.1547C114.422 32.6827 113.438 32.9467 112.238 32.9467C111.23 32.9467 110.414 32.6667 109.79 32.1067C109.182 31.5307 108.878 30.7467 108.878 29.7547C108.878 29.4187 108.91 29.0987 108.974 28.7947L110.342 21.9787H108.182L108.542 20.0827H110.726L111.278 17.2987H113.582L113.03 20.0827H116.678L116.294 21.9787H112.646L111.278 28.7467ZM125.326 16.7467C124.638 16.7467 124.094 16.9387 123.694 17.3227C123.294 17.6907 123.006 18.2747 122.83 19.0747L122.614 20.0827H126.31L125.926 21.9787H122.302L120.118 32.8027H117.814L119.998 21.9787H117.814L118.174 20.0827H120.382L120.622 18.8827C120.878 17.5867 121.398 16.5947 122.182 15.9067C122.982 15.2027 124.03 14.8507 125.326 14.8507C125.854 14.8507 126.35 14.9227 126.814 15.0667C127.294 15.1947 127.686 15.3867 127.99 15.6427L127.03 17.3467C126.582 16.9467 126.014 16.7467 125.326 16.7467ZM131.728 32.9467C130.528 32.9467 129.48 32.7227 128.584 32.2747C127.688 31.8107 126.992 31.1627 126.496 30.3307C126 29.4987 125.752 28.5387 125.752 27.4507C125.752 26.0267 126.072 24.7467 126.712 23.6107C127.352 22.4747 128.24 21.5867 129.376 20.9467C130.512 20.2907 131.792 19.9627 133.216 19.9627C134.416 19.9627 135.464 20.1867 136.36 20.6347C137.256 21.0827 137.944 21.7227 138.424 22.5547C138.92 23.3707 139.168 24.3307 139.168 25.4347C139.168 26.8587 138.848 28.1467 138.208 29.2987C137.568 30.4347 136.68 31.3307 135.544 31.9867C134.424 32.6267 133.152 32.9467 131.728 32.9467ZM131.872 30.9307C132.816 30.9307 133.664 30.7067 134.416 30.2587C135.184 29.7947 135.776 29.1547 136.192 28.3387C136.624 27.5227 136.84 26.5947 136.84 25.5547C136.84 24.4187 136.512 23.5387 135.856 22.9147C135.2 22.2907 134.264 21.9787 133.048 21.9787C132.104 21.9787 131.256 22.2107 130.504 22.6747C129.752 23.1227 129.16 23.7547 128.728 24.5707C128.296 25.3867 128.08 26.3147 128.08 27.3547C128.08 28.4747 128.408 29.3547 129.064 29.9947C129.736 30.6187 130.672 30.9307 131.872 30.9307ZM145.378 21.9787C145.938 21.2747 146.626 20.7627 147.442 20.4427C148.258 20.1227 149.25 19.9627 150.418 19.9627L149.986 22.1947C149.842 22.1787 149.642 22.1707 149.386 22.1707C146.746 22.1707 145.146 23.5947 144.586 26.4427L143.314 32.8027H141.01L143.53 20.0827H145.738L145.378 21.9787ZM168.786 19.9627C170.226 19.9627 171.346 20.3307 172.146 21.0667C172.962 21.7867 173.37 22.8187 173.37 24.1627C173.37 24.5307 173.314 25.0347 173.202 25.6747L171.786 32.8027H169.482L170.898 25.6747C170.978 25.2267 171.018 24.8587 171.018 24.5707C171.018 23.7387 170.786 23.1067 170.322 22.6747C169.858 22.2427 169.154 22.0267 168.21 22.0267C167.026 22.0267 166.05 22.3627 165.282 23.0347C164.53 23.6907 164.018 24.6827 163.746 26.0107L162.378 32.8027H160.074L161.514 25.6747C161.594 25.2427 161.634 24.8827 161.634 24.5947C161.634 23.7627 161.394 23.1307 160.914 22.6987C160.45 22.2507 159.746 22.0267 158.802 22.0267C157.618 22.0267 156.642 22.3627 155.874 23.0347C155.122 23.7067 154.61 24.7227 154.338 26.0827L152.994 32.8027H150.69L153.21 20.0827H155.418L155.106 21.6667C156.226 20.5307 157.698 19.9627 159.522 19.9627C160.514 19.9627 161.362 20.1547 162.066 20.5387C162.77 20.9227 163.282 21.4827 163.602 22.2187C164.898 20.7147 166.626 19.9627 168.786 19.9627ZM192.407 16.0027C194.359 16.0027 195.871 16.4347 196.943 17.2987C198.031 18.1467 198.575 19.3547 198.575 20.9227C198.575 22.3467 198.255 23.5707 197.615 24.5947C196.991 25.6027 196.087 26.3787 194.903 26.9227C193.719 27.4507 192.319 27.7147 190.703 27.7147H186.215L185.207 32.8027H182.807L186.167 16.0027H192.407ZM190.751 25.6267C192.479 25.6267 193.815 25.2427 194.759 24.4747C195.703 23.7067 196.175 22.5947 196.175 21.1387C196.175 20.1467 195.831 19.3947 195.143 18.8827C194.455 18.3547 193.471 18.0907 192.191 18.0907H188.159L186.647 25.6267H190.751ZM203.738 21.9787C204.298 21.2747 204.986 20.7627 205.802 20.4427C206.618 20.1227 207.61 19.9627 208.778 19.9627L208.346 22.1947C208.202 22.1787 208.002 22.1707 207.746 22.1707C205.106 22.1707 203.506 23.5947 202.946 26.4427L201.674 32.8027H199.37L201.89 20.0827H204.098L203.738 21.9787ZM214.884 32.9467C213.684 32.9467 212.636 32.7227 211.74 32.2747C210.844 31.8107 210.148 31.1627 209.652 30.3307C209.156 29.4987 208.908 28.5387 208.908 27.4507C208.908 26.0267 209.228 24.7467 209.868 23.6107C210.508 22.4747 211.396 21.5867 212.532 20.9467C213.668 20.2907 214.948 19.9627 216.372 19.9627C217.572 19.9627 218.62 20.1867 219.516 20.6347C220.412 21.0827 221.1 21.7227 221.58 22.5547C222.076 23.3707 222.324 24.3307 222.324 25.4347C222.324 26.8587 222.004 28.1467 221.364 29.2987C220.724 30.4347 219.836 31.3307 218.7 31.9867C217.58 32.6267 216.308 32.9467 214.884 32.9467ZM215.028 30.9307C215.972 30.9307 216.82 30.7067 217.572 30.2587C218.34 29.7947 218.932 29.1547 219.348 28.3387C219.78 27.5227 219.996 26.5947 219.996 25.5547C219.996 24.4187 219.668 23.5387 219.012 22.9147C218.356 22.2907 217.42 21.9787 216.204 21.9787C215.26 21.9787 214.412 22.2107 213.66 22.6747C212.908 23.1227 212.316 23.7547 211.884 24.5707C211.452 25.3867 211.236 26.3147 211.236 27.3547C211.236 28.4747 211.564 29.3547 212.22 29.9947C212.892 30.6187 213.828 30.9307 215.028 30.9307ZM227.574 28.7467C227.526 28.9867 227.502 29.2107 227.502 29.4187C227.502 29.9307 227.638 30.3227 227.91 30.5947C228.198 30.8667 228.622 31.0027 229.182 31.0027C229.854 31.0027 230.462 30.8027 231.006 30.4027L231.486 32.1547C230.718 32.6827 229.734 32.9467 228.534 32.9467C227.526 32.9467 226.71 32.6667 226.086 32.1067C225.478 31.5307 225.174 30.7467 225.174 29.7547C225.174 29.4187 225.206 29.0987 225.27 28.7947L226.638 21.9787H224.478L224.838 20.0827H227.022L227.574 17.2987H229.878L229.326 20.0827H232.974L232.59 21.9787H228.942L227.574 28.7467ZM239.634 32.9467C238.434 32.9467 237.386 32.7227 236.49 32.2747C235.594 31.8107 234.898 31.1627 234.402 30.3307C233.906 29.4987 233.658 28.5387 233.658 27.4507C233.658 26.0267 233.978 24.7467 234.618 23.6107C235.258 22.4747 236.146 21.5867 237.282 20.9467C238.418 20.2907 239.698 19.9627 241.122 19.9627C242.322 19.9627 243.37 20.1867 244.266 20.6347C245.162 21.0827 245.85 21.7227 246.33 22.5547C246.826 23.3707 247.074 24.3307 247.074 25.4347C247.074 26.8587 246.754 28.1467 246.114 29.2987C245.474 30.4347 244.586 31.3307 243.45 31.9867C242.33 32.6267 241.058 32.9467 239.634 32.9467ZM239.778 30.9307C240.722 30.9307 241.57 30.7067 242.322 30.2587C243.09 29.7947 243.682 29.1547 244.098 28.3387C244.53 27.5227 244.746 26.5947 244.746 25.5547C244.746 24.4187 244.418 23.5387 243.762 22.9147C243.106 22.2907 242.17 21.9787 240.954 21.9787C240.01 21.9787 239.162 22.2107 238.41 22.6747C237.658 23.1227 237.066 23.7547 236.634 24.5707C236.202 25.3867 235.986 26.3147 235.986 27.3547C235.986 28.4747 236.314 29.3547 236.97 29.9947C237.642 30.6187 238.578 30.9307 239.778 30.9307ZM252.324 28.7467C252.276 28.9867 252.252 29.2107 252.252 29.4187C252.252 29.9307 252.388 30.3227 252.66 30.5947C252.948 30.8667 253.372 31.0027 253.932 31.0027C254.604 31.0027 255.212 30.8027 255.756 30.4027L256.236 32.1547C255.468 32.6827 254.484 32.9467 253.284 32.9467C252.276 32.9467 251.46 32.6667 250.836 32.1067C250.228 31.5307 249.924 30.7467 249.924 29.7547C249.924 29.4187 249.956 29.0987 250.02 28.7947L251.388 21.9787H249.228L249.588 20.0827H251.772L252.324 17.2987H254.628L254.076 20.0827H257.724L257.34 21.9787H253.692L252.324 28.7467ZM272.396 20.0827L263.372 34.1947C262.556 35.4747 261.78 36.3627 261.044 36.8587C260.308 37.3547 259.436 37.6027 258.428 37.6027C257.804 37.6027 257.196 37.4987 256.604 37.2907C256.012 37.0987 255.556 36.8267 255.236 36.4747L256.436 34.7707C257.012 35.3467 257.732 35.6347 258.596 35.6347C259.14 35.6347 259.62 35.4907 260.036 35.2027C260.452 34.9147 260.884 34.4267 261.332 33.7387L261.98 32.7307L258.908 20.0827H261.212L263.66 30.2587L270.068 20.0827H272.396ZM280.93 19.9627C282.018 19.9627 282.986 20.1867 283.834 20.6347C284.682 21.0667 285.346 21.6987 285.826 22.5307C286.306 23.3467 286.546 24.3147 286.546 25.4347C286.546 26.8747 286.234 28.1627 285.61 29.2987C284.986 30.4347 284.122 31.3307 283.018 31.9867C281.93 32.6267 280.706 32.9467 279.346 32.9467C278.258 32.9467 277.322 32.7547 276.538 32.3707C275.754 31.9707 275.154 31.3947 274.738 30.6427L273.394 37.4587H271.09L274.546 20.0827H276.754L276.442 21.6667C277.626 20.5307 279.122 19.9627 280.93 19.9627ZM279.25 30.9307C280.194 30.9307 281.042 30.7067 281.794 30.2587C282.546 29.7947 283.138 29.1547 283.57 28.3387C284.002 27.5227 284.218 26.5947 284.218 25.5547C284.218 24.4187 283.89 23.5387 283.234 22.9147C282.578 22.2907 281.642 21.9787 280.426 21.9787C279.482 21.9787 278.626 22.2107 277.858 22.6747C277.106 23.1227 276.514 23.7547 276.082 24.5707C275.666 25.3867 275.458 26.3147 275.458 27.3547C275.458 28.4747 275.786 29.3547 276.442 29.9947C277.114 30.6187 278.05 30.9307 279.25 30.9307ZM290.617 27.1627V27.3067C290.617 28.4907 290.953 29.3947 291.625 30.0187C292.297 30.6267 293.305 30.9307 294.649 30.9307C295.433 30.9307 296.169 30.8027 296.857 30.5467C297.545 30.2747 298.121 29.9147 298.585 29.4667L299.569 31.1227C298.945 31.6987 298.185 32.1467 297.289 32.4667C296.393 32.7867 295.449 32.9467 294.457 32.9467C293.209 32.9467 292.129 32.7227 291.217 32.2747C290.305 31.8267 289.601 31.1867 289.105 30.3547C288.609 29.5227 288.361 28.5467 288.361 27.4267C288.361 26.0027 288.665 24.7227 289.273 23.5867C289.897 22.4507 290.753 21.5627 291.841 20.9227C292.945 20.2827 294.177 19.9627 295.537 19.9627C297.265 19.9627 298.641 20.4587 299.665 21.4507C300.705 22.4267 301.225 23.7627 301.225 25.4587C301.225 25.9707 301.169 26.5387 301.057 27.1627H290.617ZM295.441 21.8827C294.305 21.8827 293.329 22.2027 292.513 22.8427C291.697 23.4827 291.145 24.3627 290.857 25.4827H299.065C299.129 24.3467 298.825 23.4667 298.153 22.8427C297.497 22.2027 296.593 21.8827 295.441 21.8827Z" fill="#202020"/>
<circle cx="383.242" cy="24.2425" r="24.2425" fill="#E06B65"/>
<path d="M374.624 18.0406H376.964V30.6406H374.624V18.0406ZM380.372 18.0406H385.88C387.224 18.0406 388.418 18.3046 389.462 18.8326C390.506 19.3486 391.316 20.0866 391.892 21.0466C392.468 21.9946 392.756 23.0926 392.756 24.3406C392.756 25.5886 392.468 26.6926 391.892 27.6526C391.316 28.6006 390.506 29.3386 389.462 29.8666C388.418 30.3826 387.224 30.6406 385.88 30.6406H380.372V18.0406ZM385.772 28.6606C386.696 28.6606 387.506 28.4866 388.202 28.1386C388.91 27.7786 389.45 27.2746 389.822 26.6266C390.206 25.9666 390.398 25.2046 390.398 24.3406C390.398 23.4766 390.206 22.7206 389.822 22.0726C389.45 21.4126 388.91 20.9086 388.202 20.5606C387.506 20.2006 386.696 20.0206 385.772 20.0206H382.712V28.6606H385.772Z" fill="#202020"/>
<circle cx="347.242" cy="24.2425" r="23.2425" fill="white" stroke="#C4C4C4" stroke-width="2"/>
<path d="M345.373 30.6406L345.355 22.2886L341.215 29.2006H340.171L336.031 22.3966V30.6406H333.799V18.0406H335.725L340.729 26.3926L345.643 18.0406H347.569L347.587 30.6406H345.373ZM356.822 30.8206C355.55 30.8206 354.398 30.5446 353.366 29.9926C352.346 29.4286 351.542 28.6546 350.954 27.6706C350.378 26.6866 350.09 25.5766 350.09 24.3406C350.09 23.1046 350.384 21.9946 350.972 21.0106C351.56 20.0266 352.364 19.2586 353.384 18.7066C354.416 18.1426 355.568 17.8606 356.84 17.8606C357.872 17.8606 358.814 18.0406 359.666 18.4006C360.518 18.7606 361.238 19.2826 361.826 19.9666L360.314 21.3886C359.402 20.4046 358.28 19.9126 356.948 19.9126C356.084 19.9126 355.31 20.1046 354.626 20.4886C353.942 20.8606 353.408 21.3826 353.024 22.0546C352.64 22.7266 352.448 23.4886 352.448 24.3406C352.448 25.1926 352.64 25.9546 353.024 26.6266C353.408 27.2986 353.942 27.8266 354.626 28.2106C355.31 28.5826 356.084 28.7686 356.948 28.7686C358.28 28.7686 359.402 28.2706 360.314 27.2746L361.826 28.7146C361.238 29.3986 360.512 29.9206 359.648 30.2806C358.796 30.6406 357.854 30.8206 356.822 30.8206Z" fill="#202020"/>
</svg>
