<svg width="123" height="49" viewBox="0 0 123 49" fill="none" xmlns="http://www.w3.org/2000/svg">
<circle cx="98.2425" cy="24.2425" r="24.2425" fill="#99CC99"/>
<path d="M87.26 18.0406H89.6V28.6606H96.188V30.6406H87.26V18.0406ZM109.231 18.0406V30.6406H107.305L100.357 22.1086V30.6406H98.0354V18.0406H99.9614L106.909 26.5726V18.0406H109.231Z" fill="#202020"/>
<circle cx="61.2425" cy="24.2425" r="24.2425" fill="#FFEE52"/>
<path d="M58.7045 27.7246H52.4045L51.1625 30.6406H48.7505L54.4205 18.0406H56.7245L62.4125 30.6406H59.9645L58.7045 27.7246ZM57.9305 25.8886L55.5545 20.3806L53.1965 25.8886H57.9305ZM67.9209 30.8206C66.9489 30.8206 66.0069 30.6826 65.0949 30.4066C64.1949 30.1306 63.4809 29.7646 62.9529 29.3086L63.7629 27.4906C64.2789 27.8986 64.9089 28.2346 65.6529 28.4986C66.4089 28.7506 67.1649 28.8766 67.9209 28.8766C68.8569 28.8766 69.5529 28.7266 70.0089 28.4266C70.4769 28.1266 70.7109 27.7306 70.7109 27.2386C70.7109 26.8786 70.5789 26.5846 70.3149 26.3566C70.0629 26.1166 69.7389 25.9306 69.3429 25.7986C68.9469 25.6666 68.4069 25.5166 67.7229 25.3486C66.7629 25.1206 65.9829 24.8926 65.3829 24.6646C64.7949 24.4366 64.2849 24.0826 63.8529 23.6026C63.4329 23.1106 63.2229 22.4506 63.2229 21.6226C63.2229 20.9266 63.4089 20.2966 63.7809 19.7326C64.1649 19.1566 64.7349 18.7006 65.4909 18.3646C66.2589 18.0286 67.1949 17.8606 68.2989 17.8606C69.0669 17.8606 69.8229 17.9566 70.5669 18.1486C71.3109 18.3406 71.9529 18.6166 72.4929 18.9766L71.7549 20.7946C71.2029 20.4706 70.6269 20.2246 70.0269 20.0566C69.4269 19.8886 68.8449 19.8046 68.2809 19.8046C67.3569 19.8046 66.6669 19.9606 66.2109 20.2726C65.7669 20.5846 65.5449 20.9986 65.5449 21.5146C65.5449 21.8746 65.6709 22.1686 65.9229 22.3966C66.1869 22.6246 66.5169 22.8046 66.9129 22.9366C67.3089 23.0686 67.8489 23.2186 68.5329 23.3866C69.4689 23.6026 70.2369 23.8306 70.8369 24.0706C71.4369 24.2986 71.9469 24.6526 72.3669 25.1326C72.7989 25.6126 73.0149 26.2606 73.0149 27.0766C73.0149 27.7726 72.8229 28.4026 72.4389 28.9666C72.0669 29.5306 71.4969 29.9806 70.7289 30.3166C69.9609 30.6526 69.0249 30.8206 67.9209 30.8206Z" fill="#202020"/>
<circle cx="24.2425" cy="24.2425" r="24.2425" fill="#99CCFF"/>
<path d="M13.7082 18.0406H16.0482V28.6606H22.6362V30.6406H13.7082V18.0406ZM32.8591 24.1966H35.0731V29.2186C34.4251 29.7346 33.6691 30.1306 32.8051 30.4066C31.9411 30.6826 31.0531 30.8206 30.1411 30.8206C28.8571 30.8206 27.6991 30.5446 26.6671 29.9926C25.6351 29.4286 24.8251 28.6546 24.2371 27.6706C23.6491 26.6866 23.3551 25.5766 23.3551 24.3406C23.3551 23.1046 23.6491 21.9946 24.2371 21.0106C24.8251 20.0266 25.6351 19.2586 26.6671 18.7066C27.7111 18.1426 28.8811 17.8606 30.1771 17.8606C31.2331 17.8606 32.1931 18.0346 33.0571 18.3826C33.9211 18.7306 34.6471 19.2406 35.2351 19.9126L33.7591 21.3526C32.7991 20.3926 31.6411 19.9126 30.2851 19.9126C29.3971 19.9126 28.6051 20.0986 27.9091 20.4706C27.2251 20.8426 26.6851 21.3646 26.2891 22.0366C25.9051 22.7086 25.7131 23.4766 25.7131 24.3406C25.7131 25.1806 25.9051 25.9366 26.2891 26.6086C26.6851 27.2806 27.2251 27.8086 27.9091 28.1926C28.6051 28.5766 29.3911 28.7686 30.2671 28.7686C31.2511 28.7686 32.1151 28.5526 32.8591 28.1206V24.1966Z" fill="#202020"/>
</svg>
