<svg width="85" height="49" viewBox="0 0 85 49" fill="none" xmlns="http://www.w3.org/2000/svg">
<circle cx="60.2425" cy="24.2425" r="24.2425" fill="#E06B65"/>
<path d="M51.6243 18.0406H53.9643V30.6406H51.6243V18.0406ZM57.3723 18.0406H62.8803C64.2243 18.0406 65.4183 18.3046 66.4623 18.8326C67.5063 19.3486 68.3163 20.0866 68.8923 21.0466C69.4683 21.9946 69.7563 23.0926 69.7563 24.3406C69.7563 25.5886 69.4683 26.6926 68.8923 27.6526C68.3163 28.6006 67.5063 29.3386 66.4623 29.8666C65.4183 30.3826 64.2243 30.6406 62.8803 30.6406H57.3723V18.0406ZM62.7723 28.6606C63.6963 28.6606 64.5063 28.4866 65.2023 28.1386C65.9103 27.7786 66.4503 27.2746 66.8223 26.6266C67.2063 25.9666 67.3983 25.2046 67.3983 24.3406C67.3983 23.4766 67.2063 22.7206 66.8223 22.0726C66.4503 21.4126 65.9103 20.9086 65.2023 20.5606C64.5063 20.2006 63.6963 20.0206 62.7723 20.0206H59.7123V28.6606H62.7723Z" fill="#202020"/>
<circle cx="24.2425" cy="24.2425" r="23.2425" fill="white" stroke="#C4C4C4" stroke-width="2"/>
<path d="M22.3731 30.6406L22.3551 22.2886L18.2151 29.2006H17.1711L13.0311 22.3966V30.6406H10.7991V18.0406H12.7251L17.7291 26.3926L22.6431 18.0406H24.5691L24.5871 30.6406H22.3731ZM33.8225 30.8206C32.5505 30.8206 31.3985 30.5446 30.3665 29.9926C29.3465 29.4286 28.5425 28.6546 27.9545 27.6706C27.3785 26.6866 27.0905 25.5766 27.0905 24.3406C27.0905 23.1046 27.3845 21.9946 27.9725 21.0106C28.5605 20.0266 29.3645 19.2586 30.3845 18.7066C31.4165 18.1426 32.5685 17.8606 33.8405 17.8606C34.8725 17.8606 35.8145 18.0406 36.6665 18.4006C37.5185 18.7606 38.2385 19.2826 38.8265 19.9666L37.3145 21.3886C36.4025 20.4046 35.2805 19.9126 33.9485 19.9126C33.0845 19.9126 32.3105 20.1046 31.6265 20.4886C30.9425 20.8606 30.4085 21.3826 30.0245 22.0546C29.6405 22.7266 29.4485 23.4886 29.4485 24.3406C29.4485 25.1926 29.6405 25.9546 30.0245 26.6266C30.4085 27.2986 30.9425 27.8266 31.6265 28.2106C32.3105 28.5826 33.0845 28.7686 33.9485 28.7686C35.2805 28.7686 36.4025 28.2706 37.3145 27.2746L38.8265 28.7146C38.2385 29.3986 37.5125 29.9206 36.6485 30.2806C35.7965 30.6406 34.8545 30.8206 33.8225 30.8206Z" fill="#202020"/>
</svg>
