<svg width="79" height="85" viewBox="0 0 79 85" fill="none" xmlns="http://www.w3.org/2000/svg">
<path fill-rule="evenodd" clip-rule="evenodd" d="M37.6216 0.701682C45.9681 0.523069 54.5686 1.3767 61.4588 6.31623C68.4622 11.3369 72.6344 19.4289 75.4467 27.8182C78.3171 36.3811 80.6105 45.8023 77.5401 54.2887C74.5278 62.6146 66.5407 67.2797 59.4148 72.1298C52.6689 76.7213 45.6402 80.7896 37.6216 81.4587C29.0994 82.1697 19.9829 81.3769 13.152 75.9899C6.37006 70.6414 3.60525 61.611 1.52122 52.9887C-0.443095 44.8616 -0.618067 36.4894 1.66246 28.4536C3.98989 20.2525 7.90693 12.3954 14.4813 7.32154C21.0809 2.22822 29.427 0.877042 37.6216 0.701682Z" fill="#E06B65"/>
<path d="M41.7589 16.9588C41.7589 16.9588 28.5889 17.1688 28.3789 35.7688C28.3789 35.7688 21.2689 34.5188 27.3789 43.7688C27.3789 43.7688 27.9789 45.3488 29.8489 43.7688C31.7189 42.1888 28.0989 47.5588 36.5989 52.9288C36.5989 52.9288 36.7189 61.5488 34.5989 62.9288C32.4789 64.3088 46.2189 69.0488 48.4589 62.9288C47.0098 61.1547 46.2468 58.9187 46.3089 56.6288C46.3089 56.6288 55.7489 56.1488 55.7989 39.8888C55.8489 23.6288 51.3089 16.0188 41.7589 16.9588Z" fill="#F4D8BD"/>
<path d="M66.3094 67.4089C66.3094 67.4089 63.6494 51.2989 64.8894 44.2789C66.1294 37.2589 52.6994 16.9189 52.6994 16.9189C52.6994 16.9189 53.9294 8.12894 47.6994 10.7689C47.6994 10.7689 43.4294 13.8689 35.6994 12.1189C27.9694 10.3689 23.3094 20.8489 23.8594 24.3389C23.8594 24.3389 11.0594 28.9989 14.9394 49.3389C18.8194 69.6789 17.345 79.7989 22.965 82.7089C28.585 85.6189 36.985 80.5109 42.465 72.3609C47.945 64.2109 54.9394 82.7089 54.9394 82.7089C54.9394 82.7089 67.8894 87.5789 66.3094 67.4089ZM53.5994 50.8889C51.1194 54.7289 49.4494 56.2089 46.9894 56.2089C44.5294 56.2089 48.0894 62.4789 48.0894 62.4789C41.5594 65.6789 35.2894 61.9489 35.2894 61.9489C38.1194 59.9489 37.2894 52.9489 37.2894 52.9489C33.8394 52.7289 30.3794 43.4789 30.3794 43.4789C27.5494 45.6989 26.2694 41.9189 26.2694 41.9189C23.8194 34.2489 28.4194 35.7889 28.4194 35.7889C27.7994 26.7889 37.8994 24.6189 43.9394 23.3889C49.9794 22.1589 50.4694 19.5689 50.4694 19.5689C57.8994 28.2289 56.1194 46.9889 53.5994 50.8889Z" fill="#DDB374"/>
<path d="M48.7321 61.3449C43.0228 65.9124 37.4717 63.248 35.4098 61.3449C25.3137 60.9237 17.564 76.5532 14.9512 84.4206H71.5697C66.336 74.8256 54.4414 56.7774 48.7321 61.3449Z" fill="#FFB6B3"/>
</svg>
