<svg width="79" height="89" viewBox="0 0 79 89" fill="none" xmlns="http://www.w3.org/2000/svg">
<path fill-rule="evenodd" clip-rule="evenodd" d="M38.2771 0.801415C46.5944 0.101549 54.94 2.44921 61.9189 7.39078C69.1418 12.5051 75.1578 19.8019 77.7068 28.7205C80.2348 37.5656 78.7786 47.077 75.7346 55.73C72.8062 64.0541 67.8978 71.5241 60.9598 76.3253C54.2798 80.948 46.2079 81.5616 38.2771 81.6511C30.2629 81.7417 21.7365 81.927 15.2473 76.8417C8.75497 71.7539 6.32806 62.9102 3.84403 54.6675C1.35793 46.418 -1.55175 37.703 0.970142 29.4662C3.48632 21.248 10.6392 16.1713 17.1659 11.1566C23.6227 6.19548 30.3797 1.46595 38.2771 0.801415Z" fill="#99CC99"/>
<path d="M28.2207 46.5213C28.2207 46.5213 31.9307 56.5213 36.2207 54.7613C36.2207 54.7613 30.4507 51.0613 30.5007 45.6213C30.5007 45.3413 30.0007 45.6813 29.8007 45.8813C29.6049 46.103 29.3602 46.2763 29.0861 46.3873C28.8119 46.4984 28.5156 46.5443 28.2207 46.5213Z" fill="#F0DAB8"/>
<path d="M41.7898 19.0714C41.7898 19.0714 28.6198 19.2814 28.4098 37.8814C28.4098 37.8814 21.2997 36.6314 27.3597 45.8814C27.3597 45.8814 27.9597 47.4614 29.8297 45.8814C31.6997 44.3014 28.0798 49.6614 36.5798 55.0414C36.5798 55.0414 36.6997 63.6614 34.5798 65.0414C32.4598 66.4214 46.1898 71.1614 48.4398 65.0414C47.0136 63.2758 46.2621 61.0604 46.3198 58.7914C46.3198 58.7914 55.7598 58.3214 55.8098 42.0514C55.8698 25.8814 51.3698 18.1314 41.7898 19.0714Z" fill="#E8C8B6"/>
<path d="M40.7301 17.3113C40.7301 17.3113 36.6501 6.52129 27.3301 10.9813C18.0101 15.4413 27.3901 30.5613 26.9601 27.2313C26.2101 21.4213 19.4601 32.7113 26.1301 38.0913C26.1301 37.0113 39.0701 40.8413 44.7001 25.0913C44.7001 25.0913 54.1301 34.9613 55.4501 33.4913C56.7701 32.0213 55.0101 16.4313 40.7301 17.3113Z" fill="#F0DAB8"/>
<path d="M47.2575 65.1642C41.5482 69.7317 35.9971 67.0674 33.9352 65.1642C23.8391 64.743 16.0894 80.3725 13.4766 88.2399H70.0951C64.8614 78.6449 52.9668 60.5967 47.2575 65.1642Z" fill="#CBF4CB"/>
</svg>
