<svg width="79" height="84" viewBox="0 0 79 84" fill="none" xmlns="http://www.w3.org/2000/svg">
<path fill-rule="evenodd" clip-rule="evenodd" d="M38.2771 0.801415C46.5944 0.101549 54.94 2.44921 61.9189 7.39078C69.1418 12.5051 75.1578 19.8019 77.7068 28.7205C80.2348 37.5656 78.7786 47.077 75.7346 55.73C72.8062 64.0541 67.8978 71.5241 60.9598 76.3253C54.2798 80.948 46.2079 81.5616 38.2771 81.6511C30.2629 81.7417 21.7365 81.927 15.2473 76.8417C8.75497 71.7539 6.32806 62.9102 3.84403 54.6675C1.35793 46.418 -1.55175 37.703 0.970142 29.4662C3.48632 21.248 10.6392 16.1713 17.1659 11.1566C23.6227 6.19548 30.3797 1.46595 38.2771 0.801415Z" fill="#99CCFF"/>
<path d="M38.6288 15.6783C38.6288 15.6783 25.4588 15.8883 25.2188 34.5283C25.2188 34.5283 18.1088 33.2683 24.2188 42.4683C24.2188 42.4683 24.8087 44.0583 26.6787 42.4683C28.5487 40.8783 24.9288 46.2583 33.4288 51.6283C33.4288 51.6283 33.5487 60.2483 31.4288 61.6283C29.3088 63.0083 43.0488 67.7483 45.2888 61.6283C43.8626 59.8627 43.1111 57.6473 43.1687 55.3783C43.1687 55.3783 52.6088 54.8983 52.6588 38.6383C52.7088 22.3783 48.2188 14.7383 38.6288 15.6783Z" fill="#E8C0B6"/>
<path d="M20.1289 21.7682C20.1289 21.7682 16.6989 25.5182 21.0289 30.9882C20.8412 31.3767 20.7394 31.8011 20.7306 32.2326C20.7219 32.664 20.8063 33.0922 20.9781 33.4881C21.1499 33.8839 21.4051 34.238 21.7262 34.5262C22.0474 34.8144 22.4269 35.03 22.8389 35.1582C22.8389 35.1582 24.9589 37.5782 25.7589 35.6582C26.5589 33.7382 27.9789 26.4982 31.1989 26.3982C31.1989 26.3982 30.3889 20.1582 35.3289 20.9682C35.3289 20.9682 36.3289 18.6482 38.4489 19.6582C40.5689 20.6682 42.1389 21.9982 44.0589 20.2882C45.9789 18.5782 47.5089 25.4382 50.2689 24.7582C51.8189 24.3682 51.6289 34.6582 52.6389 33.6482C53.6489 32.6382 55.7589 21.8682 50.4189 15.8382C50.4189 15.8382 46.1989 13.1182 44.6889 14.8382C44.6889 14.8382 43.2789 11.6182 39.9589 11.6182C36.6389 11.6182 34.9589 13.1282 33.3089 12.8282C31.6589 12.5282 28.7789 12.3182 27.3689 13.8282C27.3689 13.8182 19.1389 18.3882 20.1289 21.7682Z" fill="#202020"/>
<path d="M45.2188 14.4481C45.4133 13.791 45.827 13.2203 46.391 12.8309C46.955 12.4416 47.6353 12.2571 48.3188 12.3081" fill="#202020"/>
<path d="M44.0586 13.7983C44.0687 13.3061 44.2548 12.8337 44.5832 12.4668C44.9115 12.0999 45.3605 11.8628 45.8486 11.7983" fill="#202020"/>
<path d="M45.5231 60.4084C39.8138 64.9759 34.2627 62.3115 32.2008 60.4084C22.1048 59.9871 14.355 75.6166 11.7422 83.484H68.3607C63.127 73.889 51.2324 55.8409 45.5231 60.4084Z" fill="#C3DDF6"/>
</svg>
