<svg width="81" height="85" viewBox="0 0 81 85" fill="none" xmlns="http://www.w3.org/2000/svg">
<path fill-rule="evenodd" clip-rule="evenodd" d="M40.0416 1.7419C47.9611 1.37148 56.072 2.59413 62.6484 7.43579C69.3706 12.3848 73.641 20.2206 76.4406 28.5395C79.3339 37.1368 81.4721 46.5759 78.7341 55.2339C76.0192 63.819 68.8947 69.4949 61.9267 74.4354C55.2906 79.1404 47.9457 82.9266 40.0416 82.6676C32.2788 82.4133 25.1823 78.2996 19.0886 73.0318C13.194 67.9361 9.18605 61.0605 6.27936 53.4812C3.12818 45.2644 -0.650431 36.382 1.77034 27.8739C4.20005 19.3344 11.862 14.222 18.7969 9.48684C25.2881 5.05459 32.397 2.09946 40.0416 1.7419Z" fill="white" stroke="#DADADA" stroke-width="2"/>
<path d="M44.3644 15.3629C44.3644 15.3629 31.1944 15.5729 30.9844 34.1729C30.9844 34.1729 23.8744 32.9229 29.9844 42.1729C29.9844 42.1729 30.5744 43.7529 32.4444 42.1729C34.3144 40.5929 30.6944 45.9529 39.1944 51.3329C39.1944 51.3329 39.3144 59.9529 37.1944 61.3329C35.0744 62.7129 48.8144 67.4529 51.0544 61.3329C49.6282 59.5673 48.8767 57.3519 48.9344 55.0829C48.9344 55.0829 58.3744 54.6129 58.4344 38.3429C58.4444 22.1729 53.9444 14.4229 44.3644 15.3629Z" fill="#E8C0B6"/>
<path d="M49.114 15.1129C49.114 15.1129 39.5239 11.1129 35.6139 13.9829C31.7039 16.8529 32.3339 19.5929 28.8639 19.4729C25.3939 19.3529 15.7939 20.8129 18.6039 37.5829C18.6039 37.5829 27.754 28.7429 26.874 21.3629C26.874 21.3629 27.6939 31.2129 25.2939 34.2329C22.8939 37.2529 17.7839 51.9729 27.124 56.5129C36.464 61.0529 39.244 57.0829 39.244 57.0829L39.744 51.4029C39.744 51.4029 33.5339 46.0229 32.9639 41.9229C32.5139 41.9229 29.6739 44.2129 28.3639 39.2729C27.1039 34.5029 28.8239 32.8929 31.7939 35.0629C31.7939 35.0629 31.6039 38.7229 32.3639 38.3429C33.1239 37.9629 34.514 27.3429 36.9039 26.6029C39.2939 25.8629 49.604 24.8129 49.114 15.1129Z" fill="#202020"/>
<path d="M49.0834 17.3728C49.0834 17.3728 56.4034 22.8128 57.9334 29.8128C57.9334 29.8128 60.6734 18.4828 52.6634 15.8128C52.6634 15.8128 47.7134 13.8128 49.0834 17.3728Z" fill="#202020"/>
<path d="M50.4411 61.3039C44.7318 65.8714 39.1807 63.207 37.1188 61.3039C27.0227 60.8827 19.273 76.5121 16.6602 84.3796H73.2787C68.045 74.7845 56.1504 56.7364 50.4411 61.3039Z" fill="#DADADA"/>
</svg>
