<svg width="80" height="83" viewBox="0 0 80 83" fill="none" xmlns="http://www.w3.org/2000/svg">
<path fill-rule="evenodd" clip-rule="evenodd" d="M39.7993 0.0352434C47.7447 -0.268719 55.6644 1.36897 62.4308 5.90302C69.5865 10.6979 76.2423 17.2777 78.6091 26.0411C80.9467 34.6963 78.2077 43.8511 74.9165 52.1324C71.8764 59.7822 66.8534 66.0126 60.7297 71.0303C54.5046 76.1311 47.58 80.3509 39.7993 80.9073C31.6665 81.4889 23.3826 79.3438 16.7659 74.1745C10.1296 68.99 6.11677 60.9616 3.50047 52.5494C0.85791 44.0528 -0.884251 34.8056 1.89516 26.3607C4.63557 18.0342 11.4385 12.3549 18.2971 7.59142C24.803 3.07289 32.0819 0.330481 39.7993 0.0352434Z" fill="#A2A7CA"/>
<path d="M38.9674 15.272C38.9674 15.272 25.7974 15.474 25.5874 33.3785C25.5874 33.3785 18.4874 32.1663 24.5874 41.0175C24.5874 41.0175 25.1774 42.5376 27.0474 41.0175C28.9174 39.4974 25.2774 44.6253 33.7574 49.7917C33.7574 49.7917 33.8774 58.0849 31.7574 59.4126C29.6374 60.7403 43.3774 65.3006 45.6274 59.4126C44.1952 57.7203 43.4396 55.5908 43.4974 53.4091C43.4974 53.4091 52.9374 52.9473 52.9974 37.3038C53.0574 21.6603 48.5474 14.3099 38.9674 15.272Z" fill="#F0CEBB"/>
<path d="M53.3578 14.8969C53.3578 14.8969 48.6478 12.0106 48.7878 10.6348C48.9278 9.25899 45.5078 7.57533 42.6478 8.85491C42.6478 8.85491 37.6478 4.86222 32.7978 8.98961C32.7978 8.98961 26.3678 8.44121 24.2278 12.4243C24.2278 12.4243 19.2278 12.0106 21.2278 18.7452C21.2278 18.7452 16.2278 21.0831 20.0878 26.2977C20.0878 26.2977 17.2278 30.4251 21.0878 32.8976C24.9478 35.3702 25.2278 32.3492 26.0878 36.746C26.9478 41.1428 28.3678 32.6186 28.2278 30.9735C28.0878 29.3283 28.2278 25.7493 30.5078 26.7114C32.7878 27.6735 29.6578 22.0067 34.2778 24.2388C38.8978 26.4709 41.1278 19.9094 42.9878 22.5551C44.8478 25.2009 48.8378 26.4035 49.8378 23.6904C50.8378 20.9773 52.6978 24.8545 54.6978 22.5551C56.6978 20.2557 57.9278 19.1205 53.3578 14.8969Z" fill="#202020"/>
<path d="M45.4548 59.3469C39.7454 63.9144 34.1944 61.25 32.1325 59.3469C22.0364 58.9256 14.2867 74.5551 11.6738 82.4225H68.2923C63.0587 72.8275 51.1641 54.7794 45.4548 59.3469Z" fill="#253272"/>
</svg>
