<svg width="79" height="85" viewBox="0 0 79 85" fill="none" xmlns="http://www.w3.org/2000/svg">
<path fill-rule="evenodd" clip-rule="evenodd" d="M39.3169 0.0352434C47.2623 -0.268719 55.182 1.36897 61.9484 5.90302C69.1041 10.6979 75.7599 17.2777 78.1267 26.0411C80.4643 34.6963 77.7253 43.8511 74.4341 52.1324C71.394 59.7822 66.371 66.0126 60.2472 71.0303C54.0222 76.1311 47.0976 80.3509 39.3169 80.9073C31.1841 81.4889 22.9002 79.3438 16.2834 74.1745C9.64715 68.99 5.63435 60.9616 3.01805 52.5494C0.375489 44.0528 -1.36667 34.8056 1.41273 26.3607C4.15315 18.0342 10.9561 12.3549 17.8147 7.59142C24.3206 3.07289 31.5995 0.330481 39.3169 0.0352434Z" fill="#E06B65"/>
<path d="M47.7145 61.4846C42.0052 66.0521 36.4541 63.3877 34.3923 61.4846C24.2962 61.0633 16.5464 76.6928 13.9336 84.5602H70.5521C65.3185 74.9652 53.4238 56.9171 47.7145 61.4846Z" fill="#FFB6B2"/>
<path d="M42.1577 15.7033C42.1577 15.7033 28.9977 15.9133 28.7877 34.5133C28.7877 34.5133 21.6777 33.2633 27.7377 42.5133C27.7377 42.5133 28.3277 44.0933 30.2077 42.5133C32.0877 40.9333 28.4577 46.2933 36.9477 51.6733C36.9477 51.6733 37.0777 60.2933 34.9477 61.6733C32.8177 63.0533 46.5677 67.7933 48.8177 61.6733C47.3915 59.9076 46.64 57.6922 46.6977 55.4233C46.6977 55.4233 56.1377 54.9533 56.1877 38.6833C56.2377 22.5133 51.7477 14.7633 42.1577 15.7033Z" fill="#E8C0B6"/>
<path d="M56.3978 24.3906C56.3978 24.3906 47.3978 0.450632 28.7678 16.5906C28.7678 16.5906 16.7678 37.5906 22.5978 61.0006C22.5978 61.0006 34.4878 64.6606 35.5978 61.0006C36.4878 58.1606 38.0278 52.4906 36.9178 51.9306C35.1039 51.0347 33.5609 49.6726 32.4468 47.9839C31.3328 46.2952 30.6877 44.3407 30.5778 42.3206C30.5778 42.3206 28.0278 44.7506 26.6978 41.1206C25.3078 37.3206 24.8778 34.5106 28.8578 34.7306C28.8578 34.7306 29.4478 38.1106 31.2078 35.4606C32.9678 32.8106 34.8578 22.1207 36.9178 22.9607C38.9778 23.8007 48.2978 30.7506 54.1878 27.5106C54.1878 27.5106 58.8478 39.5106 53.4278 50.6206C53.4278 50.6206 50.7578 55.5406 46.3778 55.4906C46.3778 55.4906 47.1878 60.6406 48.0378 60.8506C49.4678 61.2106 55.6778 61.1906 56.4778 57.6006C57.2778 54.0106 59.7678 34.5206 56.3978 24.3906Z" fill="#202020"/>
</svg>
