<svg width="343" height="49" viewBox="0 0 343 49" fill="none" xmlns="http://www.w3.org/2000/svg">
<rect y="28" width="242" height="20" rx="10" fill="#38849A" fill-opacity="0.5"/>
<path d="M31.9227 15.5232L22.9467 32.3232H20.4027L18.5307 18.9792L11.2107 32.3232H8.66669L6.41069 15.5232H8.76269L10.5867 29.2272L18.0267 15.5232H20.2587L22.1307 29.2512L29.5227 15.5232H31.9227ZM44.6976 19.6032L42.1776 32.3232H39.9696L40.2816 30.7632C39.7056 31.3072 39.0336 31.7312 38.2656 32.0352C37.5136 32.3232 36.6896 32.4672 35.7936 32.4672C34.7056 32.4672 33.7376 32.2512 32.8896 31.8192C32.0416 31.3712 31.3776 30.7312 30.8976 29.8992C30.4176 29.0672 30.1776 28.0912 30.1776 26.9712C30.1776 25.5312 30.4896 24.2432 31.1136 23.1072C31.7376 21.9712 32.5936 21.0832 33.6816 20.4432C34.7856 19.8032 36.0176 19.4832 37.3776 19.4832C38.4656 19.4832 39.3936 19.6752 40.1616 20.0592C40.9456 20.4432 41.5456 21.0112 41.9616 21.7632L42.3936 19.6032H44.6976ZM36.2976 30.4512C37.2416 30.4512 38.0896 30.2272 38.8416 29.7792C39.6096 29.3152 40.2016 28.6752 40.6176 27.8592C41.0496 27.0432 41.2656 26.1152 41.2656 25.0752C41.2656 23.9392 40.9376 23.0592 40.2816 22.4352C39.6256 21.8112 38.6896 21.4992 37.4736 21.4992C36.5296 21.4992 35.6816 21.7312 34.9296 22.1952C34.1776 22.6432 33.5856 23.2752 33.1536 24.0912C32.7216 24.9072 32.5056 25.8352 32.5056 26.8752C32.5056 27.9952 32.8336 28.8752 33.4896 29.5152C34.1616 30.1392 35.0976 30.4512 36.2976 30.4512ZM49.969 28.2672C49.921 28.5072 49.897 28.7312 49.897 28.9392C49.897 29.4512 50.033 29.8432 50.305 30.1152C50.593 30.3872 51.017 30.5232 51.577 30.5232C52.249 30.5232 52.857 30.3232 53.401 29.9232L53.881 31.6752C53.113 32.2032 52.129 32.4672 50.929 32.4672C49.921 32.4672 49.105 32.1872 48.481 31.6272C47.873 31.0512 47.569 30.2672 47.569 29.2752C47.569 28.9392 47.601 28.6192 47.665 28.3152L49.033 21.4992H46.873L47.233 19.6032H49.417L49.969 16.8192H52.273L51.721 19.6032H55.369L54.985 21.4992H51.337L49.969 28.2672ZM58.3086 26.6832V26.8272C58.3086 28.0112 58.6446 28.9152 59.3166 29.5392C59.9886 30.1472 60.9966 30.4512 62.3406 30.4512C63.1246 30.4512 63.8606 30.3232 64.5486 30.0672C65.2366 29.7952 65.8126 29.4352 66.2766 28.9872L67.2606 30.6432C66.6366 31.2192 65.8766 31.6672 64.9806 31.9872C64.0846 32.3072 63.1406 32.4672 62.1486 32.4672C60.9006 32.4672 59.8206 32.2432 58.9086 31.7952C57.9966 31.3472 57.2926 30.7072 56.7966 29.8752C56.3006 29.0432 56.0526 28.0672 56.0526 26.9472C56.0526 25.5232 56.3566 24.2432 56.9646 23.1072C57.5886 21.9712 58.4446 21.0832 59.5326 20.4432C60.6366 19.8032 61.8686 19.4832 63.2286 19.4832C64.9566 19.4832 66.3326 19.9792 67.3566 20.9712C68.3966 21.9472 68.9166 23.2832 68.9166 24.9792C68.9166 25.4912 68.8606 26.0592 68.7486 26.6832H58.3086ZM63.1326 21.4032C61.9966 21.4032 61.0206 21.7232 60.2046 22.3632C59.3886 23.0032 58.8366 23.8832 58.5486 25.0032H66.7566C66.8206 23.8672 66.5166 22.9872 65.8446 22.3632C65.1886 21.7232 64.2846 21.4032 63.1326 21.4032ZM75.1165 21.4992C75.6765 20.7952 76.3645 20.2832 77.1805 19.9632C77.9965 19.6432 78.9885 19.4832 80.1565 19.4832L79.7245 21.7152C79.5805 21.6992 79.3805 21.6912 79.1245 21.6912C76.4845 21.6912 74.8845 23.1152 74.3245 25.9632L73.0525 32.3232H70.7485L73.2685 19.6032H75.4765L75.1165 21.4992ZM96.0376 23.3712L102.11 32.3232H99.4216L94.3096 24.7872L90.6136 27.9552L89.7496 32.3232H87.3496L90.7096 15.5232H93.1096L91.2616 24.8112L102.014 15.5232H105.134L96.0856 23.3232L96.0376 23.3712ZM106.573 19.6032H108.877L106.357 32.3232H104.053L106.573 19.6032ZM108.397 17.1552C107.981 17.1552 107.637 17.0192 107.365 16.7472C107.093 16.4752 106.957 16.1472 106.957 15.7632C106.957 15.3152 107.109 14.9392 107.413 14.6352C107.733 14.3152 108.133 14.1552 108.613 14.1552C109.029 14.1552 109.373 14.2912 109.645 14.5632C109.933 14.8192 110.077 15.1312 110.077 15.4992C110.077 15.9952 109.917 16.3952 109.597 16.6992C109.293 17.0032 108.893 17.1552 108.397 17.1552ZM116.708 32.4672C115.508 32.4672 114.46 32.2432 113.564 31.7952C112.668 31.3312 111.972 30.6832 111.476 29.8512C110.98 29.0192 110.732 28.0592 110.732 26.9712C110.732 25.5472 111.052 24.2672 111.692 23.1312C112.332 21.9952 113.22 21.1072 114.356 20.4672C115.492 19.8112 116.772 19.4832 118.196 19.4832C119.396 19.4832 120.444 19.7072 121.34 20.1552C122.236 20.6032 122.924 21.2432 123.404 22.0752C123.9 22.8912 124.148 23.8512 124.148 24.9552C124.148 26.3792 123.828 27.6672 123.188 28.8192C122.548 29.9552 121.66 30.8512 120.524 31.5072C119.404 32.1472 118.132 32.4672 116.708 32.4672ZM116.852 30.4512C117.796 30.4512 118.644 30.2272 119.396 29.7792C120.164 29.3152 120.756 28.6752 121.172 27.8592C121.604 27.0432 121.82 26.1152 121.82 25.0752C121.82 23.9392 121.492 23.0592 120.836 22.4352C120.18 21.8112 119.244 21.4992 118.028 21.4992C117.084 21.4992 116.236 21.7312 115.484 22.1952C114.732 22.6432 114.14 23.2752 113.708 24.0912C113.276 24.9072 113.06 25.8352 113.06 26.8752C113.06 27.9952 113.388 28.8752 114.044 29.5152C114.716 30.1392 115.652 30.4512 116.852 30.4512ZM129.999 32.4672C128.943 32.4672 127.935 32.3312 126.975 32.0592C126.031 31.7872 125.295 31.4352 124.767 31.0032L125.799 29.1792C126.295 29.5792 126.935 29.8992 127.719 30.1392C128.519 30.3632 129.351 30.4752 130.215 30.4752C131.303 30.4752 132.127 30.3152 132.687 29.9952C133.263 29.6592 133.551 29.1952 133.551 28.6032C133.551 28.1232 133.319 27.7792 132.855 27.5712C132.407 27.3632 131.703 27.1552 130.743 26.9472C129.847 26.7552 129.111 26.5632 128.535 26.3712C127.975 26.1632 127.495 25.8432 127.095 25.4112C126.695 24.9632 126.495 24.3632 126.495 23.6112C126.495 22.7792 126.727 22.0512 127.191 21.4272C127.671 20.8032 128.343 20.3232 129.207 19.9872C130.087 19.6512 131.103 19.4832 132.255 19.4832C133.103 19.4832 133.927 19.5872 134.727 19.7952C135.527 20.0032 136.183 20.2832 136.695 20.6352L135.783 22.4592C135.287 22.1232 134.711 21.8752 134.055 21.7152C133.399 21.5392 132.727 21.4512 132.039 21.4512C130.999 21.4512 130.199 21.6272 129.639 21.9792C129.079 22.3152 128.799 22.7712 128.799 23.3472C128.799 23.8592 129.031 24.2272 129.495 24.4512C129.959 24.6592 130.679 24.8672 131.655 25.0752C132.535 25.2672 133.255 25.4592 133.815 25.6512C134.375 25.8432 134.847 26.1552 135.231 26.5872C135.631 27.0192 135.831 27.6032 135.831 28.3392C135.831 29.6352 135.295 30.6512 134.223 31.3872C133.167 32.1072 131.759 32.4672 129.999 32.4672ZM145.958 24.9552L150.494 32.3232H147.83L144.158 26.3232L141.038 28.7472L140.318 32.3232H138.014L141.566 14.5152H143.87L141.614 25.8432L149.51 19.6032H152.75L145.958 24.9552ZM180.566 15.5232L177.206 32.3232H174.902L177.35 20.1792L169.406 30.2832H168.302L164.102 19.9392L161.63 32.3232H159.326L162.686 15.5232H164.63L169.31 27.3552L178.502 15.5232H180.566ZM187.888 32.4672C186.688 32.4672 185.64 32.2432 184.744 31.7952C183.848 31.3312 183.152 30.6832 182.656 29.8512C182.16 29.0192 181.912 28.0592 181.912 26.9712C181.912 25.5472 182.232 24.2672 182.872 23.1312C183.512 21.9952 184.4 21.1072 185.536 20.4672C186.672 19.8112 187.952 19.4832 189.376 19.4832C190.576 19.4832 191.624 19.7072 192.52 20.1552C193.416 20.6032 194.104 21.2432 194.584 22.0752C195.08 22.8912 195.328 23.8512 195.328 24.9552C195.328 26.3792 195.008 27.6672 194.368 28.8192C193.728 29.9552 192.84 30.8512 191.704 31.5072C190.584 32.1472 189.312 32.4672 187.888 32.4672ZM188.032 30.4512C188.976 30.4512 189.824 30.2272 190.576 29.7792C191.344 29.3152 191.936 28.6752 192.352 27.8592C192.784 27.0432 193 26.1152 193 25.0752C193 23.9392 192.672 23.0592 192.016 22.4352C191.36 21.8112 190.424 21.4992 189.208 21.4992C188.264 21.4992 187.416 21.7312 186.664 22.1952C185.912 22.6432 185.32 23.2752 184.888 24.0912C184.456 24.9072 184.24 25.8352 184.24 26.8752C184.24 27.9952 184.568 28.8752 185.224 29.5152C185.896 30.1392 186.832 30.4512 188.032 30.4512ZM212.698 14.5152L209.146 32.3232H206.938L207.25 30.7632C206.674 31.3072 206.002 31.7312 205.234 32.0352C204.482 32.3232 203.658 32.4672 202.762 32.4672C201.674 32.4672 200.706 32.2512 199.858 31.8192C199.01 31.3712 198.346 30.7312 197.866 29.8992C197.386 29.0672 197.146 28.0912 197.146 26.9712C197.146 25.5312 197.458 24.2432 198.082 23.1072C198.706 21.9712 199.562 21.0832 200.65 20.4432C201.754 19.8032 202.986 19.4832 204.346 19.4832C205.434 19.4832 206.37 19.6832 207.154 20.0832C207.954 20.4672 208.554 21.0352 208.954 21.7872L210.394 14.5152H212.698ZM203.266 30.4512C204.21 30.4512 205.058 30.2272 205.81 29.7792C206.578 29.3152 207.17 28.6752 207.586 27.8592C208.018 27.0432 208.234 26.1152 208.234 25.0752C208.234 23.9392 207.906 23.0592 207.25 22.4352C206.594 21.8112 205.658 21.4992 204.442 21.4992C203.498 21.4992 202.65 21.7312 201.898 22.1952C201.146 22.6432 200.554 23.2752 200.122 24.0912C199.69 24.9072 199.474 25.8352 199.474 26.8752C199.474 27.9952 199.802 28.8752 200.458 29.5152C201.13 30.1392 202.066 30.4512 203.266 30.4512ZM215.762 26.6832V26.8272C215.762 28.0112 216.098 28.9152 216.77 29.5392C217.442 30.1472 218.45 30.4512 219.794 30.4512C220.578 30.4512 221.314 30.3232 222.002 30.0672C222.69 29.7952 223.266 29.4352 223.73 28.9872L224.714 30.6432C224.09 31.2192 223.33 31.6672 222.434 31.9872C221.538 32.3072 220.594 32.4672 219.602 32.4672C218.354 32.4672 217.274 32.2432 216.362 31.7952C215.45 31.3472 214.746 30.7072 214.25 29.8752C213.754 29.0432 213.506 28.0672 213.506 26.9472C213.506 25.5232 213.81 24.2432 214.418 23.1072C215.042 21.9712 215.898 21.0832 216.986 20.4432C218.09 19.8032 219.322 19.4832 220.682 19.4832C222.41 19.4832 223.786 19.9792 224.81 20.9712C225.85 21.9472 226.37 23.2832 226.37 24.9792C226.37 25.4912 226.314 26.0592 226.202 26.6832H215.762ZM220.586 21.4032C219.45 21.4032 218.474 21.7232 217.658 22.3632C216.842 23.0032 216.29 23.8832 216.002 25.0032H224.21C224.274 23.8672 223.97 22.9872 223.298 22.3632C222.642 21.7232 221.738 21.4032 220.586 21.4032ZM231.754 14.5152H234.058L230.506 32.3232H228.202L231.754 14.5152Z" fill="#202020"/>
<circle cx="318.242" cy="24.2425" r="24.2425" fill="#FFB6B2"/>
<path d="M317.306 18.0401V30.6401H315.38L308.432 22.1081V30.6401H306.11V18.0401H308.036L314.984 26.5721V18.0401H317.306ZM326.514 30.8201C325.242 30.8201 324.09 30.5441 323.058 29.9921C322.038 29.4281 321.234 28.6541 320.646 27.6701C320.07 26.6861 319.782 25.5761 319.782 24.3401C319.782 23.1041 320.076 21.9941 320.664 21.0101C321.252 20.0261 322.056 19.2581 323.076 18.7061C324.108 18.1421 325.26 17.8601 326.532 17.8601C327.564 17.8601 328.506 18.0401 329.358 18.4001C330.21 18.7601 330.93 19.2821 331.518 19.9661L330.006 21.3881C329.094 20.4041 327.972 19.9121 326.64 19.9121C325.776 19.9121 325.002 20.1041 324.318 20.4881C323.634 20.8601 323.1 21.3821 322.716 22.0541C322.332 22.7261 322.14 23.4881 322.14 24.3401C322.14 25.1921 322.332 25.9541 322.716 26.6261C323.1 27.2981 323.634 27.8261 324.318 28.2101C325.002 28.5821 325.776 28.7681 326.64 28.7681C327.972 28.7681 329.094 28.2701 330.006 27.2741L331.518 28.7141C330.93 29.3981 330.204 29.9201 329.34 30.2801C328.488 30.6401 327.546 30.8201 326.514 30.8201Z" fill="#202020"/>
<circle cx="280.242" cy="24.2425" r="24.2425" fill="#D9A38D"/>
<path d="M273.491 30.8201C272.687 30.8201 271.943 30.6641 271.259 30.3521C270.587 30.0281 270.035 29.5781 269.603 29.0021L270.935 27.4001C271.631 28.3601 272.465 28.8401 273.437 28.8401C274.745 28.8401 275.399 28.0661 275.399 26.5181V20.0021H270.917V18.0401H277.739V26.3921C277.739 27.8681 277.379 28.9781 276.659 29.7221C275.939 30.4541 274.883 30.8201 273.491 30.8201ZM284.927 30.8201C283.955 30.8201 283.013 30.6821 282.101 30.4061C281.201 30.1301 280.487 29.7641 279.959 29.3081L280.769 27.4901C281.285 27.8981 281.915 28.2341 282.659 28.4981C283.415 28.7501 284.171 28.8761 284.927 28.8761C285.863 28.8761 286.559 28.7261 287.015 28.4261C287.483 28.1261 287.717 27.7301 287.717 27.2381C287.717 26.8781 287.585 26.5841 287.321 26.3561C287.069 26.1161 286.745 25.9301 286.349 25.7981C285.953 25.6661 285.413 25.5161 284.729 25.3481C283.769 25.1201 282.989 24.8921 282.389 24.6641C281.801 24.4361 281.291 24.0821 280.859 23.6021C280.439 23.1101 280.229 22.4501 280.229 21.6221C280.229 20.9261 280.415 20.2961 280.787 19.7321C281.171 19.1561 281.741 18.7001 282.497 18.3641C283.265 18.0281 284.201 17.8601 285.305 17.8601C286.073 17.8601 286.829 17.9561 287.573 18.1481C288.317 18.3401 288.959 18.6161 289.499 18.9761L288.761 20.7941C288.209 20.4701 287.633 20.2241 287.033 20.0561C286.433 19.8881 285.851 19.8041 285.287 19.8041C284.363 19.8041 283.673 19.9601 283.217 20.2721C282.773 20.5841 282.551 20.9981 282.551 21.5141C282.551 21.8741 282.677 22.1681 282.929 22.3961C283.193 22.6241 283.523 22.8041 283.919 22.9361C284.315 23.0681 284.855 23.2181 285.539 23.3861C286.475 23.6021 287.243 23.8301 287.843 24.0701C288.443 24.2981 288.953 24.6521 289.373 25.1321C289.805 25.6121 290.021 26.2601 290.021 27.0761C290.021 27.7721 289.829 28.4021 289.445 28.9661C289.073 29.5301 288.503 29.9801 287.735 30.3161C286.967 30.6521 286.031 30.8201 284.927 30.8201Z" fill="#202020"/>
</svg>
