<svg width="304" height="49" viewBox="0 0 304 49" fill="none" xmlns="http://www.w3.org/2000/svg">
<rect y="27" width="202" height="21" rx="10" fill="#38849A" fill-opacity="0.5"/>
<path d="M10.8763 16.7377H5.14026L5.54826 14.6497H19.4443L19.0123 16.7377H13.2763L10.3243 31.4497H7.94826L10.8763 16.7377ZM27.4102 18.6097C28.8662 18.6097 29.9942 18.9777 30.7942 19.7137C31.6102 20.4497 32.0182 21.4897 32.0182 22.8337C32.0182 23.2977 31.9702 23.7937 31.8742 24.3217L30.4582 31.4497H28.1542L29.5702 24.3217C29.6502 23.8897 29.6902 23.5377 29.6902 23.2657C29.6902 22.4337 29.4422 21.7937 28.9462 21.3457C28.4502 20.8977 27.7142 20.6737 26.7382 20.6737C25.4902 20.6737 24.4582 21.0177 23.6422 21.7057C22.8422 22.3777 22.3062 23.3857 22.0342 24.7297L20.6902 31.4497H18.3862L21.9382 13.6417H24.2422L22.9222 20.2177C24.0582 19.1457 25.5542 18.6097 27.4102 18.6097ZM39.0901 20.6257C39.6501 19.9217 40.3381 19.4097 41.1541 19.0897C41.9701 18.7697 42.9621 18.6097 44.1301 18.6097L43.6981 20.8417C43.5541 20.8257 43.3541 20.8177 43.0981 20.8177C40.4581 20.8177 38.8581 22.2417 38.2981 25.0897L37.0261 31.4497H34.7221L37.2421 18.7297H39.4501L39.0901 20.6257ZM46.9218 18.7297H49.2258L46.7058 31.4497H44.4018L46.9218 18.7297ZM48.7458 16.2817C48.3298 16.2817 47.9858 16.1457 47.7138 15.8737C47.4418 15.6017 47.3058 15.2737 47.3058 14.8897C47.3058 14.4417 47.4578 14.0657 47.7618 13.7617C48.0818 13.4417 48.4818 13.2817 48.9618 13.2817C49.3778 13.2817 49.7218 13.4177 49.9938 13.6897C50.2818 13.9457 50.4258 14.2577 50.4258 14.6257C50.4258 15.1217 50.2658 15.5217 49.9458 15.8257C49.6418 16.1297 49.2418 16.2817 48.7458 16.2817ZM64.8809 18.7297L56.7929 31.4497H54.4409L51.3929 18.7297H53.6969L56.0729 28.9297L62.5529 18.7297H64.8809ZM66.3916 25.8097V25.9537C66.3916 27.1377 66.7276 28.0417 67.3996 28.6657C68.0716 29.2737 69.0796 29.5777 70.4236 29.5777C71.2076 29.5777 71.9436 29.4497 72.6316 29.1937C73.3196 28.9217 73.8956 28.5617 74.3596 28.1137L75.3436 29.7697C74.7196 30.3457 73.9596 30.7937 73.0636 31.1137C72.1676 31.4337 71.2236 31.5937 70.2316 31.5937C68.9836 31.5937 67.9036 31.3697 66.9916 30.9217C66.0796 30.4737 65.3756 29.8337 64.8796 29.0017C64.3836 28.1697 64.1356 27.1937 64.1356 26.0737C64.1356 24.6497 64.4396 23.3697 65.0476 22.2337C65.6716 21.0977 66.5276 20.2097 67.6156 19.5697C68.7196 18.9297 69.9516 18.6097 71.3116 18.6097C73.0396 18.6097 74.4156 19.1057 75.4396 20.0977C76.4796 21.0737 76.9996 22.4097 76.9996 24.1057C76.9996 24.6177 76.9436 25.1857 76.8316 25.8097H66.3916ZM71.2156 20.5297C70.0796 20.5297 69.1036 20.8497 68.2876 21.4897C67.4716 22.1297 66.9196 23.0097 66.6316 24.1297H74.8396C74.9036 22.9937 74.5996 22.1137 73.9276 21.4897C73.2716 20.8497 72.3676 20.5297 71.2156 20.5297ZM88.9488 14.6497H91.3488L87.9888 31.4497H85.5888L88.9488 14.6497ZM101.731 18.6097C103.187 18.6097 104.315 18.9777 105.115 19.7137C105.931 20.4497 106.339 21.4897 106.339 22.8337C106.339 23.2977 106.291 23.7937 106.195 24.3217L104.779 31.4497H102.475L103.891 24.3217C103.971 23.8897 104.011 23.5377 104.011 23.2657C104.011 22.4337 103.763 21.7937 103.267 21.3457C102.771 20.8977 102.035 20.6737 101.059 20.6737C99.8105 20.6737 98.7785 21.0177 97.9625 21.7057C97.1625 22.3777 96.6265 23.3857 96.3545 24.7297L95.0105 31.4497H92.7065L95.2265 18.7297H97.4345L97.1225 20.3617C98.2745 19.1937 99.8105 18.6097 101.731 18.6097ZM112.45 27.3937C112.402 27.6337 112.378 27.8577 112.378 28.0657C112.378 28.5777 112.514 28.9697 112.786 29.2417C113.074 29.5137 113.498 29.6497 114.058 29.6497C114.73 29.6497 115.338 29.4497 115.882 29.0497L116.362 30.8017C115.594 31.3297 114.61 31.5937 113.41 31.5937C112.402 31.5937 111.586 31.3137 110.962 30.7537C110.354 30.1777 110.05 29.3937 110.05 28.4017C110.05 28.0657 110.082 27.7457 110.146 27.4417L111.514 20.6257H109.354L109.714 18.7297H111.898L112.45 15.9457H114.754L114.202 18.7297H117.85L117.466 20.6257H113.818L112.45 27.3937ZM120.79 25.8097V25.9537C120.79 27.1377 121.126 28.0417 121.798 28.6657C122.47 29.2737 123.478 29.5777 124.822 29.5777C125.606 29.5777 126.342 29.4497 127.03 29.1937C127.718 28.9217 128.294 28.5617 128.758 28.1137L129.742 29.7697C129.118 30.3457 128.358 30.7937 127.462 31.1137C126.566 31.4337 125.622 31.5937 124.63 31.5937C123.382 31.5937 122.302 31.3697 121.39 30.9217C120.478 30.4737 119.774 29.8337 119.278 29.0017C118.782 28.1697 118.534 27.1937 118.534 26.0737C118.534 24.6497 118.838 23.3697 119.446 22.2337C120.07 21.0977 120.926 20.2097 122.014 19.5697C123.118 18.9297 124.35 18.6097 125.71 18.6097C127.438 18.6097 128.814 19.1057 129.838 20.0977C130.878 21.0737 131.398 22.4097 131.398 24.1057C131.398 24.6177 131.342 25.1857 131.23 25.8097H120.79ZM125.614 20.5297C124.478 20.5297 123.502 20.8497 122.686 21.4897C121.87 22.1297 121.318 23.0097 121.03 24.1297H129.238C129.302 22.9937 128.998 22.1137 128.326 21.4897C127.67 20.8497 126.766 20.5297 125.614 20.5297ZM137.598 20.6257C138.158 19.9217 138.846 19.4097 139.662 19.0897C140.478 18.7697 141.47 18.6097 142.638 18.6097L142.206 20.8417C142.062 20.8257 141.862 20.8177 141.606 20.8177C138.966 20.8177 137.366 22.2417 136.806 25.0897L135.534 31.4497H133.23L135.75 18.7297H137.958L137.598 20.6257ZM151.249 15.3937C150.561 15.3937 150.017 15.5857 149.617 15.9697C149.217 16.3377 148.929 16.9217 148.753 17.7217L148.537 18.7297H152.233L151.849 20.6257H148.225L146.041 31.4497H143.737L145.921 20.6257H143.737L144.097 18.7297H146.305L146.545 17.5297C146.801 16.2337 147.321 15.2417 148.105 14.5537C148.905 13.8497 149.953 13.4977 151.249 13.4977C151.777 13.4977 152.273 13.5697 152.737 13.7137C153.217 13.8417 153.609 14.0337 153.913 14.2897L152.953 15.9937C152.505 15.5937 151.937 15.3937 151.249 15.3937ZM166.195 18.7297L163.675 31.4497H161.467L161.779 29.8897C161.203 30.4337 160.531 30.8577 159.763 31.1617C159.011 31.4497 158.187 31.5937 157.291 31.5937C156.203 31.5937 155.235 31.3777 154.387 30.9457C153.539 30.4977 152.875 29.8577 152.395 29.0257C151.915 28.1937 151.675 27.2177 151.675 26.0977C151.675 24.6577 151.987 23.3697 152.611 22.2337C153.235 21.0977 154.091 20.2097 155.179 19.5697C156.283 18.9297 157.515 18.6097 158.875 18.6097C159.963 18.6097 160.891 18.8017 161.659 19.1857C162.443 19.5697 163.043 20.1377 163.459 20.8897L163.891 18.7297H166.195ZM157.795 29.5777C158.739 29.5777 159.587 29.3537 160.339 28.9057C161.107 28.4417 161.699 27.8017 162.115 26.9857C162.547 26.1697 162.763 25.2417 162.763 24.2017C162.763 23.0657 162.435 22.1857 161.779 21.5617C161.123 20.9377 160.187 20.6257 158.971 20.6257C158.027 20.6257 157.179 20.8577 156.427 21.3217C155.675 21.7697 155.083 22.4017 154.651 23.2177C154.219 24.0337 154.003 24.9617 154.003 26.0017C154.003 27.1217 154.331 28.0017 154.987 28.6417C155.659 29.2657 156.595 29.5777 157.795 29.5777ZM174.082 31.5937C172.866 31.5937 171.802 31.3697 170.89 30.9217C169.978 30.4577 169.274 29.8177 168.778 29.0017C168.282 28.1697 168.034 27.2017 168.034 26.0977C168.034 24.6737 168.354 23.3937 168.994 22.2577C169.634 21.1217 170.522 20.2337 171.658 19.5937C172.794 18.9377 174.082 18.6097 175.522 18.6097C178.034 18.6097 179.778 19.5297 180.754 21.3697L178.81 22.4497C178.138 21.2337 176.986 20.6257 175.354 20.6257C174.41 20.6257 173.554 20.8577 172.786 21.3217C172.034 21.7697 171.442 22.4017 171.01 23.2177C170.578 24.0337 170.362 24.9617 170.362 26.0017C170.362 27.1217 170.69 28.0017 171.346 28.6417C172.018 29.2657 172.962 29.5777 174.178 29.5777C174.946 29.5777 175.658 29.4257 176.314 29.1217C176.986 28.8177 177.538 28.3697 177.97 27.7777L179.65 28.9777C179.058 29.7937 178.266 30.4337 177.274 30.8977C176.282 31.3617 175.218 31.5937 174.082 31.5937ZM183.814 25.8097V25.9537C183.814 27.1377 184.15 28.0417 184.822 28.6657C185.494 29.2737 186.502 29.5777 187.846 29.5777C188.63 29.5777 189.366 29.4497 190.054 29.1937C190.742 28.9217 191.318 28.5617 191.782 28.1137L192.766 29.7697C192.142 30.3457 191.382 30.7937 190.486 31.1137C189.59 31.4337 188.646 31.5937 187.654 31.5937C186.406 31.5937 185.326 31.3697 184.414 30.9217C183.502 30.4737 182.798 29.8337 182.302 29.0017C181.806 28.1697 181.558 27.1937 181.558 26.0737C181.558 24.6497 181.862 23.3697 182.47 22.2337C183.094 21.0977 183.95 20.2097 185.038 19.5697C186.142 18.9297 187.374 18.6097 188.734 18.6097C190.462 18.6097 191.838 19.1057 192.862 20.0977C193.902 21.0737 194.422 22.4097 194.422 24.1057C194.422 24.6177 194.366 25.1857 194.254 25.8097H183.814ZM188.638 20.5297C187.502 20.5297 186.526 20.8497 185.71 21.4897C184.894 22.1297 184.342 23.0097 184.054 24.1297H192.262C192.326 22.9937 192.022 22.1137 191.35 21.4897C190.694 20.8497 189.79 20.5297 188.638 20.5297Z" fill="#202020"/>
<circle cx="279.242" cy="24.2425" r="24.2425" fill="#D0B3F5"/>
<path d="M277.409 18.0403V30.6403H275.483L268.535 22.1083V30.6403H266.213V18.0403H268.139L275.087 26.5723V18.0403H277.409ZM280.785 18.0403H286.293C287.637 18.0403 288.831 18.3043 289.875 18.8323C290.919 19.3483 291.729 20.0863 292.305 21.0463C292.881 21.9943 293.169 23.0923 293.169 24.3403C293.169 25.5883 292.881 26.6923 292.305 27.6523C291.729 28.6003 290.919 29.3383 289.875 29.8663C288.831 30.3823 287.637 30.6403 286.293 30.6403H280.785V18.0403ZM286.185 28.6603C287.109 28.6603 287.919 28.4863 288.615 28.1383C289.323 27.7783 289.863 27.2743 290.235 26.6263C290.619 25.9663 290.811 25.2043 290.811 24.3403C290.811 23.4763 290.619 22.7203 290.235 22.0723C289.863 21.4123 289.323 20.9083 288.615 20.5603C287.919 20.2003 287.109 20.0203 286.185 20.0203H283.125V28.6603H286.185Z" fill="#202020"/>
<circle cx="240.242" cy="24.2425" r="24.2425" fill="#FFF599"/>
<path d="M231.625 18.0403H233.965V30.6403H231.625V18.0403ZM237.373 18.0403H242.881C244.225 18.0403 245.419 18.3043 246.463 18.8323C247.507 19.3483 248.317 20.0863 248.893 21.0463C249.469 21.9943 249.757 23.0923 249.757 24.3403C249.757 25.5883 249.469 26.6923 248.893 27.6523C248.317 28.6003 247.507 29.3383 246.463 29.8663C245.419 30.3823 244.225 30.6403 242.881 30.6403H237.373V18.0403ZM242.773 28.6603C243.697 28.6603 244.507 28.4863 245.203 28.1383C245.911 27.7783 246.451 27.2743 246.823 26.6263C247.207 25.9663 247.399 25.2043 247.399 24.3403C247.399 23.4763 247.207 22.7203 246.823 22.0723C246.451 21.4123 245.911 20.9083 245.203 20.5603C244.507 20.2003 243.697 20.0203 242.773 20.0203H239.713V28.6603H242.773Z" fill="#202020"/>
</svg>
