<svg width="444" height="49" viewBox="0 0 444 49" fill="none" xmlns="http://www.w3.org/2000/svg">
<rect y="28" width="335" height="20" rx="10" fill="#38849A" fill-opacity="0.5"/>
<path d="M17.8156 23.6592C18.5676 23.9152 19.1516 24.3312 19.5676 24.9072C19.9836 25.4832 20.1916 26.2032 20.1916 27.0672C20.1916 28.7632 19.5356 30.0672 18.2236 30.9792C16.9276 31.8752 15.1516 32.3232 12.8956 32.3232H4.80757L8.16757 15.5232H15.6076C17.3036 15.5232 18.6076 15.8432 19.5196 16.4832C20.4476 17.1072 20.9116 18.0192 20.9116 19.2192C20.9116 20.3072 20.6236 21.2352 20.0476 22.0032C19.4876 22.7552 18.7436 23.3072 17.8156 23.6592ZM10.1596 17.4672L9.07957 22.8432H13.9996C15.3596 22.8432 16.4316 22.5712 17.2156 22.0272C18.0156 21.4672 18.4156 20.6592 18.4156 19.6032C18.4156 18.8832 18.1276 18.3472 17.5516 17.9952C16.9916 17.6432 16.1756 17.4672 15.1036 17.4672H10.1596ZM13.0636 30.3792C14.5836 30.3792 15.7516 30.0992 16.5676 29.5392C17.3996 28.9632 17.8156 28.1472 17.8156 27.0912C17.8156 26.2592 17.5196 25.6672 16.9276 25.3152C16.3516 24.9632 15.4796 24.7872 14.3116 24.7872H8.69557L7.59157 30.3792H13.0636ZM37.0356 19.6032L34.5156 32.3232H32.3076L32.6196 30.6912C32.0436 31.2832 31.3636 31.7312 30.5796 32.0352C29.8116 32.3232 28.9716 32.4672 28.0596 32.4672C26.6516 32.4672 25.5396 32.0912 24.7236 31.3392C23.9076 30.5872 23.4996 29.5392 23.4996 28.1952C23.4996 27.7472 23.5476 27.2592 23.6436 26.7312L25.0596 19.6032H27.3636L25.9476 26.7552C25.8676 27.1872 25.8276 27.5472 25.8276 27.8352C25.8276 28.6672 26.0676 29.3072 26.5476 29.7552C27.0436 30.1872 27.7716 30.4032 28.7316 30.4032C29.9476 30.4032 30.9556 30.0592 31.7556 29.3712C32.5716 28.6832 33.1156 27.6752 33.3876 26.3472L34.7316 19.6032H37.0356ZM42.9098 32.4672C41.8538 32.4672 40.8458 32.3312 39.8858 32.0592C38.9418 31.7872 38.2058 31.4352 37.6778 31.0032L38.7098 29.1792C39.2058 29.5792 39.8458 29.8992 40.6298 30.1392C41.4298 30.3632 42.2618 30.4752 43.1258 30.4752C44.2138 30.4752 45.0378 30.3152 45.5978 29.9952C46.1738 29.6592 46.4618 29.1952 46.4618 28.6032C46.4618 28.1232 46.2298 27.7792 45.7658 27.5712C45.3178 27.3632 44.6138 27.1552 43.6538 26.9472C42.7578 26.7552 42.0218 26.5632 41.4458 26.3712C40.8858 26.1632 40.4058 25.8432 40.0058 25.4112C39.6058 24.9632 39.4058 24.3632 39.4058 23.6112C39.4058 22.7792 39.6378 22.0512 40.1018 21.4272C40.5818 20.8032 41.2538 20.3232 42.1178 19.9872C42.9978 19.6512 44.0138 19.4832 45.1658 19.4832C46.0138 19.4832 46.8378 19.5872 47.6378 19.7952C48.4378 20.0032 49.0938 20.2832 49.6058 20.6352L48.6938 22.4592C48.1978 22.1232 47.6218 21.8752 46.9658 21.7152C46.3098 21.5392 45.6378 21.4512 44.9498 21.4512C43.9098 21.4512 43.1098 21.6272 42.5498 21.9792C41.9898 22.3152 41.7098 22.7712 41.7098 23.3472C41.7098 23.8592 41.9418 24.2272 42.4058 24.4512C42.8698 24.6592 43.5898 24.8672 44.5658 25.0752C45.4458 25.2672 46.1658 25.4592 46.7258 25.6512C47.2858 25.8432 47.7578 26.1552 48.1418 26.5872C48.5418 27.0192 48.7418 27.6032 48.7418 28.3392C48.7418 29.6352 48.2058 30.6512 47.1338 31.3872C46.0778 32.1072 44.6698 32.4672 42.9098 32.4672ZM53.4453 19.6032H55.7493L53.2293 32.3232H50.9253L53.4453 19.6032ZM55.2693 17.1552C54.8533 17.1552 54.5093 17.0192 54.2373 16.7472C53.9653 16.4752 53.8293 16.1472 53.8293 15.7632C53.8293 15.3152 53.9813 14.9392 54.2853 14.6352C54.6053 14.3152 55.0053 14.1552 55.4853 14.1552C55.9013 14.1552 56.2453 14.2912 56.5173 14.5632C56.8053 14.8192 56.9493 15.1312 56.9493 15.4992C56.9493 15.9952 56.7893 16.3952 56.4693 16.6992C56.1653 17.0032 55.7653 17.1552 55.2693 17.1552ZM66.6524 19.4832C68.1084 19.4832 69.2364 19.8512 70.0364 20.5872C70.8524 21.3232 71.2604 22.3632 71.2604 23.7072C71.2604 24.1712 71.2124 24.6672 71.1164 25.1952L69.7004 32.3232H67.3964L68.8124 25.1952C68.8924 24.7632 68.9324 24.4112 68.9324 24.1392C68.9324 23.3072 68.6844 22.6672 68.1884 22.2192C67.6924 21.7712 66.9564 21.5472 65.9804 21.5472C64.7324 21.5472 63.7004 21.8912 62.8844 22.5792C62.0844 23.2512 61.5484 24.2592 61.2764 25.6032L59.9324 32.3232H57.6284L60.1484 19.6032H62.3564L62.0444 21.2352C63.1964 20.0672 64.7324 19.4832 66.6524 19.4832ZM76.2666 26.6832V26.8272C76.2666 28.0112 76.6026 28.9152 77.2746 29.5392C77.9466 30.1472 78.9546 30.4512 80.2986 30.4512C81.0826 30.4512 81.8186 30.3232 82.5066 30.0672C83.1946 29.7952 83.7706 29.4352 84.2346 28.9872L85.2186 30.6432C84.5946 31.2192 83.8346 31.6672 82.9386 31.9872C82.0426 32.3072 81.0986 32.4672 80.1066 32.4672C78.8586 32.4672 77.7786 32.2432 76.8666 31.7952C75.9546 31.3472 75.2506 30.7072 74.7546 29.8752C74.2586 29.0432 74.0106 28.0672 74.0106 26.9472C74.0106 25.5232 74.3146 24.2432 74.9226 23.1072C75.5466 21.9712 76.4026 21.0832 77.4906 20.4432C78.5946 19.8032 79.8266 19.4832 81.1866 19.4832C82.9146 19.4832 84.2906 19.9792 85.3146 20.9712C86.3546 21.9472 86.8746 23.2832 86.8746 24.9792C86.8746 25.4912 86.8186 26.0592 86.7066 26.6832H76.2666ZM81.0906 21.4032C79.9546 21.4032 78.9786 21.7232 78.1626 22.3632C77.3466 23.0032 76.7946 23.8832 76.5066 25.0032H84.7146C84.7786 23.8672 84.4746 22.9872 83.8026 22.3632C83.1466 21.7232 82.2426 21.4032 81.0906 21.4032ZM92.7145 32.4672C91.6585 32.4672 90.6505 32.3312 89.6905 32.0592C88.7465 31.7872 88.0105 31.4352 87.4825 31.0032L88.5145 29.1792C89.0105 29.5792 89.6505 29.8992 90.4345 30.1392C91.2345 30.3632 92.0665 30.4752 92.9305 30.4752C94.0185 30.4752 94.8425 30.3152 95.4025 29.9952C95.9785 29.6592 96.2665 29.1952 96.2665 28.6032C96.2665 28.1232 96.0345 27.7792 95.5705 27.5712C95.1225 27.3632 94.4185 27.1552 93.4585 26.9472C92.5625 26.7552 91.8265 26.5632 91.2505 26.3712C90.6905 26.1632 90.2105 25.8432 89.8105 25.4112C89.4105 24.9632 89.2105 24.3632 89.2105 23.6112C89.2105 22.7792 89.4425 22.0512 89.9065 21.4272C90.3865 20.8032 91.0585 20.3232 91.9225 19.9872C92.8025 19.6512 93.8185 19.4832 94.9705 19.4832C95.8185 19.4832 96.6425 19.5872 97.4425 19.7952C98.2425 20.0032 98.8985 20.2832 99.4105 20.6352L98.4985 22.4592C98.0025 22.1232 97.4265 21.8752 96.7705 21.7152C96.1145 21.5392 95.4425 21.4512 94.7545 21.4512C93.7145 21.4512 92.9145 21.6272 92.3545 21.9792C91.7945 22.3152 91.5145 22.7712 91.5145 23.3472C91.5145 23.8592 91.7465 24.2272 92.2105 24.4512C92.6745 24.6592 93.3945 24.8672 94.3705 25.0752C95.2505 25.2672 95.9705 25.4592 96.5305 25.6512C97.0905 25.8432 97.5625 26.1552 97.9465 26.5872C98.3465 27.0192 98.5465 27.6032 98.5465 28.3392C98.5465 29.6352 98.0105 30.6512 96.9385 31.3872C95.8825 32.1072 94.4745 32.4672 92.7145 32.4672ZM104.738 32.4672C103.682 32.4672 102.674 32.3312 101.714 32.0592C100.77 31.7872 100.034 31.4352 99.5059 31.0032L100.538 29.1792C101.034 29.5792 101.674 29.8992 102.458 30.1392C103.258 30.3632 104.09 30.4752 104.954 30.4752C106.042 30.4752 106.866 30.3152 107.426 29.9952C108.002 29.6592 108.29 29.1952 108.29 28.6032C108.29 28.1232 108.058 27.7792 107.594 27.5712C107.146 27.3632 106.442 27.1552 105.482 26.9472C104.586 26.7552 103.85 26.5632 103.274 26.3712C102.714 26.1632 102.234 25.8432 101.834 25.4112C101.434 24.9632 101.234 24.3632 101.234 23.6112C101.234 22.7792 101.466 22.0512 101.93 21.4272C102.41 20.8032 103.082 20.3232 103.946 19.9872C104.826 19.6512 105.842 19.4832 106.994 19.4832C107.842 19.4832 108.666 19.5872 109.466 19.7952C110.266 20.0032 110.922 20.2832 111.434 20.6352L110.522 22.4592C110.026 22.1232 109.45 21.8752 108.794 21.7152C108.138 21.5392 107.466 21.4512 106.778 21.4512C105.738 21.4512 104.938 21.6272 104.378 21.9792C103.818 22.3152 103.538 22.7712 103.538 23.3472C103.538 23.8592 103.77 24.2272 104.234 24.4512C104.698 24.6592 105.418 24.8672 106.394 25.0752C107.274 25.2672 107.994 25.4592 108.554 25.6512C109.114 25.8432 109.586 26.1552 109.97 26.5872C110.37 27.0192 110.57 27.6032 110.57 28.3392C110.57 29.6352 110.034 30.6512 108.962 31.3872C107.906 32.1072 106.498 32.4672 104.738 32.4672ZM133.815 24.9552C133.239 26.4592 132.495 27.7872 131.583 28.9392L133.311 31.0752L131.775 32.5872L130.071 30.4752C128.423 31.8352 126.511 32.5152 124.335 32.5152C122.671 32.5152 121.343 32.1632 120.351 31.4592C119.375 30.7392 118.887 29.7712 118.887 28.5552C118.887 27.4192 119.295 26.4112 120.111 25.5312C120.927 24.6352 122.207 23.7712 123.951 22.9392C123.535 22.3792 123.223 21.8432 123.015 21.3312C122.807 20.8032 122.703 20.2672 122.703 19.7232C122.703 18.3952 123.167 17.3392 124.095 16.5552C125.023 15.7712 126.207 15.3792 127.647 15.3792C128.815 15.3792 129.759 15.6592 130.479 16.2192C131.199 16.7632 131.559 17.5152 131.559 18.4752C131.559 19.4992 131.199 20.3792 130.479 21.1152C129.775 21.8512 128.631 22.5952 127.047 23.3472L130.359 27.4272C131.031 26.5312 131.583 25.5072 132.015 24.3552L133.815 24.9552ZM127.575 17.0592C126.743 17.0592 126.071 17.2832 125.559 17.7312C125.063 18.1632 124.815 18.7552 124.815 19.5072C124.815 19.8752 124.903 20.2592 125.079 20.6592C125.271 21.0592 125.567 21.5152 125.967 22.0272C126.911 21.5792 127.639 21.1872 128.151 20.8512C128.679 20.4992 129.047 20.1552 129.255 19.8192C129.479 19.4832 129.591 19.0992 129.591 18.6672C129.591 18.2032 129.407 17.8192 129.039 17.5152C128.687 17.2112 128.199 17.0592 127.575 17.0592ZM124.479 30.5952C126.095 30.5952 127.559 30.0592 128.871 28.9872L125.031 24.2832C123.639 24.9552 122.647 25.5792 122.055 26.1552C121.479 26.7312 121.191 27.4032 121.191 28.1712C121.191 28.8912 121.479 29.4752 122.055 29.9232C122.631 30.3712 123.439 30.5952 124.479 30.5952ZM148.673 17.6112H142.937L143.345 15.5232H157.241L156.809 17.6112H151.073L148.121 32.3232H145.745L148.673 17.6112ZM160.246 21.4992C160.806 20.7952 161.494 20.2832 162.31 19.9632C163.126 19.6432 164.118 19.4832 165.286 19.4832L164.854 21.7152C164.71 21.6992 164.51 21.6912 164.254 21.6912C161.614 21.6912 160.014 23.1152 159.454 25.9632L158.182 32.3232H155.878L158.398 19.6032H160.606L160.246 21.4992ZM179.937 19.6032L177.417 32.3232H175.209L175.521 30.7632C174.945 31.3072 174.273 31.7312 173.505 32.0352C172.753 32.3232 171.929 32.4672 171.033 32.4672C169.945 32.4672 168.977 32.2512 168.129 31.8192C167.281 31.3712 166.617 30.7312 166.137 29.8992C165.657 29.0672 165.417 28.0912 165.417 26.9712C165.417 25.5312 165.729 24.2432 166.353 23.1072C166.977 21.9712 167.833 21.0832 168.921 20.4432C170.025 19.8032 171.257 19.4832 172.617 19.4832C173.705 19.4832 174.633 19.6752 175.401 20.0592C176.185 20.4432 176.785 21.0112 177.201 21.7632L177.633 19.6032H179.937ZM171.537 30.4512C172.481 30.4512 173.329 30.2272 174.081 29.7792C174.849 29.3152 175.441 28.6752 175.857 27.8592C176.289 27.0432 176.505 26.1152 176.505 25.0752C176.505 23.9392 176.177 23.0592 175.521 22.4352C174.865 21.8112 173.929 21.4992 172.713 21.4992C171.769 21.4992 170.921 21.7312 170.169 22.1952C169.417 22.6432 168.825 23.2752 168.393 24.0912C167.961 24.9072 167.745 25.8352 167.745 26.8752C167.745 27.9952 168.073 28.8752 168.729 29.5152C169.401 30.1392 170.337 30.4512 171.537 30.4512ZM184.32 19.6032H186.624L184.104 32.3232H181.8L184.32 19.6032ZM186.144 17.1552C185.728 17.1552 185.384 17.0192 185.112 16.7472C184.84 16.4752 184.704 16.1472 184.704 15.7632C184.704 15.3152 184.856 14.9392 185.16 14.6352C185.48 14.3152 185.88 14.1552 186.36 14.1552C186.776 14.1552 187.12 14.2912 187.392 14.5632C187.68 14.8192 187.824 15.1312 187.824 15.4992C187.824 15.9952 187.664 16.3952 187.344 16.6992C187.04 17.0032 186.64 17.1552 186.144 17.1552ZM197.527 19.4832C198.983 19.4832 200.111 19.8512 200.911 20.5872C201.727 21.3232 202.135 22.3632 202.135 23.7072C202.135 24.1712 202.087 24.6672 201.991 25.1952L200.575 32.3232H198.271L199.687 25.1952C199.767 24.7632 199.807 24.4112 199.807 24.1392C199.807 23.3072 199.559 22.6672 199.063 22.2192C198.567 21.7712 197.831 21.5472 196.855 21.5472C195.607 21.5472 194.575 21.8912 193.759 22.5792C192.959 23.2512 192.423 24.2592 192.151 25.6032L190.807 32.3232H188.503L191.023 19.6032H193.231L192.919 21.2352C194.071 20.0672 195.607 19.4832 197.527 19.4832ZM207.359 19.6032H209.663L207.143 32.3232H204.839L207.359 19.6032ZM209.183 17.1552C208.767 17.1552 208.423 17.0192 208.151 16.7472C207.879 16.4752 207.743 16.1472 207.743 15.7632C207.743 15.3152 207.895 14.9392 208.199 14.6352C208.519 14.3152 208.919 14.1552 209.399 14.1552C209.815 14.1552 210.159 14.2912 210.431 14.5632C210.719 14.8192 210.863 15.1312 210.863 15.4992C210.863 15.9952 210.703 16.3952 210.383 16.6992C210.079 17.0032 209.679 17.1552 209.183 17.1552ZM220.566 19.4832C222.022 19.4832 223.15 19.8512 223.95 20.5872C224.766 21.3232 225.174 22.3632 225.174 23.7072C225.174 24.1712 225.126 24.6672 225.03 25.1952L223.614 32.3232H221.31L222.726 25.1952C222.806 24.7632 222.846 24.4112 222.846 24.1392C222.846 23.3072 222.598 22.6672 222.102 22.2192C221.606 21.7712 220.87 21.5472 219.894 21.5472C218.646 21.5472 217.614 21.8912 216.798 22.5792C215.998 23.2512 215.462 24.2592 215.19 25.6032L213.846 32.3232H211.542L214.062 19.6032H216.27L215.958 21.2352C217.11 20.0672 218.646 19.4832 220.566 19.4832ZM242.637 19.6032L240.453 30.5952C240.005 32.8672 239.157 34.5232 237.909 35.5632C236.677 36.6032 234.989 37.1232 232.845 37.1232C231.645 37.1232 230.549 36.9632 229.557 36.6432C228.565 36.3392 227.725 35.8992 227.037 35.3232L228.309 33.5472C228.821 34.0112 229.485 34.3792 230.301 34.6512C231.133 34.9392 232.037 35.0832 233.013 35.0832C234.485 35.0832 235.621 34.7472 236.421 34.0752C237.237 33.4032 237.789 32.3632 238.077 30.9552L238.269 30.0432C237.053 31.2112 235.517 31.7952 233.661 31.7952C232.541 31.7952 231.549 31.5872 230.685 31.1712C229.837 30.7552 229.173 30.1552 228.693 29.3712C228.229 28.5872 227.997 27.6672 227.997 26.6112C227.997 25.2832 228.301 24.0752 228.909 22.9872C229.533 21.8992 230.397 21.0432 231.501 20.4192C232.605 19.7952 233.853 19.4832 235.245 19.4832C236.333 19.4832 237.293 19.6912 238.125 20.1072C238.973 20.5072 239.597 21.1152 239.997 21.9312L240.453 19.6032H242.637ZM234.117 29.7792C235.077 29.7792 235.933 29.5712 236.685 29.1552C237.453 28.7232 238.045 28.1312 238.461 27.3792C238.893 26.6112 239.109 25.7472 239.109 24.7872C239.109 23.7632 238.773 22.9632 238.101 22.3872C237.445 21.7952 236.517 21.4992 235.317 21.4992C234.357 21.4992 233.493 21.7152 232.725 22.1472C231.973 22.5632 231.381 23.1552 230.949 23.9232C230.533 24.6752 230.325 25.5232 230.325 26.4672C230.325 27.5072 230.661 28.3232 231.333 28.9152C232.005 29.4912 232.933 29.7792 234.117 29.7792ZM272.516 15.5232L269.156 32.3232H266.852L269.3 20.1792L261.356 30.2832H260.252L256.052 19.9392L253.58 32.3232H251.276L254.636 15.5232H256.58L261.26 27.3552L270.452 15.5232H272.516ZM279.838 32.4672C278.638 32.4672 277.59 32.2432 276.694 31.7952C275.798 31.3312 275.102 30.6832 274.606 29.8512C274.11 29.0192 273.862 28.0592 273.862 26.9712C273.862 25.5472 274.182 24.2672 274.822 23.1312C275.462 21.9952 276.35 21.1072 277.486 20.4672C278.622 19.8112 279.902 19.4832 281.326 19.4832C282.526 19.4832 283.574 19.7072 284.47 20.1552C285.366 20.6032 286.054 21.2432 286.534 22.0752C287.03 22.8912 287.278 23.8512 287.278 24.9552C287.278 26.3792 286.958 27.6672 286.318 28.8192C285.678 29.9552 284.79 30.8512 283.654 31.5072C282.534 32.1472 281.262 32.4672 279.838 32.4672ZM279.982 30.4512C280.926 30.4512 281.774 30.2272 282.526 29.7792C283.294 29.3152 283.886 28.6752 284.302 27.8592C284.734 27.0432 284.95 26.1152 284.95 25.0752C284.95 23.9392 284.622 23.0592 283.966 22.4352C283.31 21.8112 282.374 21.4992 281.158 21.4992C280.214 21.4992 279.366 21.7312 278.614 22.1952C277.862 22.6432 277.27 23.2752 276.838 24.0912C276.406 24.9072 276.19 25.8352 276.19 26.8752C276.19 27.9952 276.518 28.8752 277.174 29.5152C277.846 30.1392 278.782 30.4512 279.982 30.4512ZM304.649 14.5152L301.097 32.3232H298.889L299.201 30.7632C298.625 31.3072 297.953 31.7312 297.185 32.0352C296.433 32.3232 295.609 32.4672 294.713 32.4672C293.625 32.4672 292.657 32.2512 291.809 31.8192C290.961 31.3712 290.297 30.7312 289.817 29.8992C289.337 29.0672 289.097 28.0912 289.097 26.9712C289.097 25.5312 289.409 24.2432 290.033 23.1072C290.657 21.9712 291.513 21.0832 292.601 20.4432C293.705 19.8032 294.937 19.4832 296.297 19.4832C297.385 19.4832 298.321 19.6832 299.105 20.0832C299.905 20.4672 300.505 21.0352 300.905 21.7872L302.345 14.5152H304.649ZM295.217 30.4512C296.161 30.4512 297.009 30.2272 297.761 29.7792C298.529 29.3152 299.121 28.6752 299.537 27.8592C299.969 27.0432 300.185 26.1152 300.185 25.0752C300.185 23.9392 299.857 23.0592 299.201 22.4352C298.545 21.8112 297.609 21.4992 296.393 21.4992C295.449 21.4992 294.601 21.7312 293.849 22.1952C293.097 22.6432 292.505 23.2752 292.073 24.0912C291.641 24.9072 291.425 25.8352 291.425 26.8752C291.425 27.9952 291.753 28.8752 292.409 29.5152C293.081 30.1392 294.017 30.4512 295.217 30.4512ZM307.712 26.6832V26.8272C307.712 28.0112 308.048 28.9152 308.72 29.5392C309.392 30.1472 310.4 30.4512 311.744 30.4512C312.528 30.4512 313.264 30.3232 313.952 30.0672C314.64 29.7952 315.216 29.4352 315.68 28.9872L316.664 30.6432C316.04 31.2192 315.28 31.6672 314.384 31.9872C313.488 32.3072 312.544 32.4672 311.552 32.4672C310.304 32.4672 309.224 32.2432 308.312 31.7952C307.4 31.3472 306.696 30.7072 306.2 29.8752C305.704 29.0432 305.456 28.0672 305.456 26.9472C305.456 25.5232 305.76 24.2432 306.368 23.1072C306.992 21.9712 307.848 21.0832 308.936 20.4432C310.04 19.8032 311.272 19.4832 312.632 19.4832C314.36 19.4832 315.736 19.9792 316.76 20.9712C317.8 21.9472 318.32 23.2832 318.32 24.9792C318.32 25.4912 318.264 26.0592 318.152 26.6832H307.712ZM312.536 21.4032C311.4 21.4032 310.424 21.7232 309.608 22.3632C308.792 23.0032 308.24 23.8832 307.952 25.0032H316.16C316.224 23.8672 315.92 22.9872 315.248 22.3632C314.592 21.7232 313.688 21.4032 312.536 21.4032ZM323.704 14.5152H326.008L322.456 32.3232H320.152L323.704 14.5152Z" fill="#202020"/>
<circle cx="419.242" cy="24.2425" r="24.2425" fill="#99CC99"/>
<path d="M408.261 18.0401H410.601V28.6601H417.189V30.6401H408.261V18.0401ZM430.232 18.0401V30.6401H428.306L421.358 22.1081V30.6401H419.036V18.0401H420.962L427.91 26.5721V18.0401H430.232Z" fill="#202020"/>
<circle cx="380.242" cy="24.2425" r="24.2425" fill="#E06B65"/>
<path d="M374.821 30.8201C373.549 30.8201 372.397 30.5441 371.365 29.9921C370.345 29.4281 369.541 28.6541 368.953 27.6701C368.377 26.6861 368.089 25.5761 368.089 24.3401C368.089 23.1041 368.383 21.9941 368.971 21.0101C369.559 20.0261 370.363 19.2581 371.383 18.7061C372.415 18.1421 373.567 17.8601 374.839 17.8601C375.871 17.8601 376.813 18.0401 377.665 18.4001C378.517 18.7601 379.237 19.2821 379.825 19.9661L378.313 21.3881C377.401 20.4041 376.279 19.9121 374.947 19.9121C374.083 19.9121 373.309 20.1041 372.625 20.4881C371.941 20.8601 371.407 21.3821 371.023 22.0541C370.639 22.7261 370.447 23.4881 370.447 24.3401C370.447 25.1921 370.639 25.9541 371.023 26.6261C371.407 27.2981 371.941 27.8261 372.625 28.2101C373.309 28.5821 374.083 28.7681 374.947 28.7681C376.279 28.7681 377.401 28.2701 378.313 27.2741L379.825 28.7141C379.237 29.3981 378.511 29.9201 377.647 30.2801C376.795 30.6401 375.853 30.8201 374.821 30.8201ZM387.635 30.8201C386.363 30.8201 385.211 30.5441 384.179 29.9921C383.159 29.4281 382.355 28.6541 381.767 27.6701C381.191 26.6861 380.903 25.5761 380.903 24.3401C380.903 23.1041 381.197 21.9941 381.785 21.0101C382.373 20.0261 383.177 19.2581 384.197 18.7061C385.229 18.1421 386.381 17.8601 387.653 17.8601C388.685 17.8601 389.627 18.0401 390.479 18.4001C391.331 18.7601 392.051 19.2821 392.639 19.9661L391.127 21.3881C390.215 20.4041 389.093 19.9121 387.761 19.9121C386.897 19.9121 386.123 20.1041 385.439 20.4881C384.755 20.8601 384.221 21.3821 383.837 22.0541C383.453 22.7261 383.261 23.4881 383.261 24.3401C383.261 25.1921 383.453 25.9541 383.837 26.6261C384.221 27.2981 384.755 27.8261 385.439 28.2101C386.123 28.5821 386.897 28.7681 387.761 28.7681C389.093 28.7681 390.215 28.2701 391.127 27.2741L392.639 28.7141C392.051 29.3981 391.325 29.9201 390.461 30.2801C389.609 30.6401 388.667 30.8201 387.635 30.8201Z" fill="#202020"/>
</svg>
