<svg width="354" height="49" viewBox="0 0 354 49" fill="none" xmlns="http://www.w3.org/2000/svg">
<rect y="28" width="247" height="20" rx="10" fill="#38849A" fill-opacity="0.5"/>
<path d="M14.848 15.5232C16.8 15.5232 18.312 15.9552 19.384 16.8192C20.472 17.6672 21.016 18.8752 21.016 20.4432C21.016 21.8672 20.696 23.0912 20.056 24.1152C19.432 25.1232 18.528 25.8992 17.344 26.4432C16.16 26.9712 14.76 27.2352 13.144 27.2352H8.656L7.648 32.3232H5.248L8.608 15.5232H14.848ZM13.192 25.1472C14.92 25.1472 16.256 24.7632 17.2 23.9952C18.144 23.2272 18.616 22.1152 18.616 20.6592C18.616 19.6672 18.272 18.9152 17.584 18.4032C16.896 17.8752 15.912 17.6112 14.632 17.6112H10.6L9.088 25.1472H13.192ZM26.179 21.4992C26.739 20.7952 27.427 20.2832 28.243 19.9632C29.059 19.6432 30.051 19.4832 31.219 19.4832L30.787 21.7152C30.643 21.6992 30.443 21.6912 30.187 21.6912C27.547 21.6912 25.947 23.1152 25.387 25.9632L24.115 32.3232H21.811L24.331 19.6032H26.539L26.179 21.4992ZM37.3255 32.4672C36.1255 32.4672 35.0775 32.2432 34.1815 31.7952C33.2855 31.3312 32.5895 30.6832 32.0935 29.8512C31.5975 29.0192 31.3495 28.0592 31.3495 26.9712C31.3495 25.5472 31.6695 24.2672 32.3095 23.1312C32.9495 21.9952 33.8375 21.1072 34.9735 20.4672C36.1095 19.8112 37.3895 19.4832 38.8135 19.4832C40.0135 19.4832 41.0615 19.7072 41.9575 20.1552C42.8535 20.6032 43.5415 21.2432 44.0215 22.0752C44.5175 22.8912 44.7655 23.8512 44.7655 24.9552C44.7655 26.3792 44.4455 27.6672 43.8055 28.8192C43.1655 29.9552 42.2775 30.8512 41.1415 31.5072C40.0215 32.1472 38.7495 32.4672 37.3255 32.4672ZM37.4695 30.4512C38.4135 30.4512 39.2615 30.2272 40.0135 29.7792C40.7815 29.3152 41.3735 28.6752 41.7895 27.8592C42.2215 27.0432 42.4375 26.1152 42.4375 25.0752C42.4375 23.9392 42.1095 23.0592 41.4535 22.4352C40.7975 21.8112 39.8615 21.4992 38.6455 21.4992C37.7015 21.4992 36.8535 21.7312 36.1015 22.1952C35.3495 22.6432 34.7575 23.2752 34.3255 24.0912C33.8935 24.9072 33.6775 25.8352 33.6775 26.8752C33.6775 27.9952 34.0055 28.8752 34.6615 29.5152C35.3335 30.1392 36.2695 30.4512 37.4695 30.4512ZM62.1359 14.5152L58.5839 32.3232H56.3759L56.6879 30.7632C56.1119 31.3072 55.4399 31.7312 54.6719 32.0352C53.9199 32.3232 53.0959 32.4672 52.1999 32.4672C51.1119 32.4672 50.1439 32.2512 49.2959 31.8192C48.4479 31.3712 47.7839 30.7312 47.3039 29.8992C46.8239 29.0672 46.5839 28.0912 46.5839 26.9712C46.5839 25.5312 46.8959 24.2432 47.5199 23.1072C48.1439 21.9712 48.9999 21.0832 50.0879 20.4432C51.1919 19.8032 52.4239 19.4832 53.7839 19.4832C54.8719 19.4832 55.8079 19.6832 56.5919 20.0832C57.3919 20.4672 57.9919 21.0352 58.3919 21.7872L59.8319 14.5152H62.1359ZM52.7039 30.4512C53.6479 30.4512 54.4959 30.2272 55.2479 29.7792C56.0159 29.3152 56.6079 28.6752 57.0239 27.8592C57.4559 27.0432 57.6719 26.1152 57.6719 25.0752C57.6719 23.9392 57.3439 23.0592 56.6879 22.4352C56.0319 21.8112 55.0959 21.4992 53.8799 21.4992C52.9359 21.4992 52.0879 21.7312 51.3359 22.1952C50.5839 22.6432 49.9919 23.2752 49.5599 24.0912C49.1279 24.9072 48.9119 25.8352 48.9119 26.8752C48.9119 27.9952 49.2399 28.8752 49.8959 29.5152C50.5679 30.1392 51.5039 30.4512 52.7039 30.4512ZM77.3433 19.6032L74.8233 32.3232H72.6153L72.9273 30.6912C72.3513 31.2832 71.6713 31.7312 70.8873 32.0352C70.1193 32.3232 69.2793 32.4672 68.3672 32.4672C66.9593 32.4672 65.8473 32.0912 65.0312 31.3392C64.2153 30.5872 63.8073 29.5392 63.8073 28.1952C63.8073 27.7472 63.8553 27.2592 63.9513 26.7312L65.3673 19.6032H67.6713L66.2553 26.7552C66.1753 27.1872 66.1353 27.5472 66.1353 27.8352C66.1353 28.6672 66.3753 29.3072 66.8553 29.7552C67.3513 30.1872 68.0793 30.4032 69.0393 30.4032C70.2553 30.4032 71.2633 30.0592 72.0633 29.3712C72.8793 28.6832 73.4233 27.6752 73.6953 26.3472L75.0393 19.6032H77.3433ZM85.2334 32.4672C84.0174 32.4672 82.9534 32.2432 82.0414 31.7952C81.1294 31.3312 80.4254 30.6912 79.9294 29.8752C79.4334 29.0432 79.1854 28.0752 79.1854 26.9712C79.1854 25.5472 79.5054 24.2672 80.1454 23.1312C80.7854 21.9952 81.6734 21.1072 82.8094 20.4672C83.9454 19.8112 85.2334 19.4832 86.6734 19.4832C89.1854 19.4832 90.9294 20.4032 91.9054 22.2432L89.9614 23.3232C89.2894 22.1072 88.1374 21.4992 86.5054 21.4992C85.5614 21.4992 84.7054 21.7312 83.9374 22.1952C83.1854 22.6432 82.5934 23.2752 82.1614 24.0912C81.7294 24.9072 81.5134 25.8352 81.5134 26.8752C81.5134 27.9952 81.8414 28.8752 82.4974 29.5152C83.1694 30.1392 84.1134 30.4512 85.3294 30.4512C86.0974 30.4512 86.8094 30.2992 87.4654 29.9952C88.1374 29.6912 88.6894 29.2432 89.1214 28.6512L90.8014 29.8512C90.2094 30.6672 89.4174 31.3072 88.4254 31.7712C87.4334 32.2352 86.3694 32.4672 85.2334 32.4672ZM96.4924 28.2672C96.4444 28.5072 96.4204 28.7312 96.4204 28.9392C96.4204 29.4512 96.5564 29.8432 96.8284 30.1152C97.1164 30.3872 97.5404 30.5232 98.1004 30.5232C98.7724 30.5232 99.3804 30.3232 99.9244 29.9232L100.404 31.6752C99.6364 32.2032 98.6524 32.4672 97.4524 32.4672C96.4444 32.4672 95.6284 32.1872 95.0044 31.6272C94.3964 31.0512 94.0924 30.2672 94.0924 29.2752C94.0924 28.9392 94.1244 28.6192 94.1884 28.3152L95.5564 21.4992H93.3964L93.7564 19.6032H95.9404L96.4924 16.8192H98.7964L98.2444 19.6032H101.892L101.508 21.4992H97.8604L96.4924 28.2672ZM119.379 15.5232C121.331 15.5232 122.843 15.9552 123.915 16.8192C125.003 17.6672 125.547 18.8752 125.547 20.4432C125.547 21.8672 125.227 23.0912 124.587 24.1152C123.963 25.1232 123.059 25.8992 121.875 26.4432C120.691 26.9712 119.291 27.2352 117.675 27.2352H113.187L112.179 32.3232H109.779L113.139 15.5232H119.379ZM117.723 25.1472C119.451 25.1472 120.787 24.7632 121.731 23.9952C122.675 23.2272 123.147 22.1152 123.147 20.6592C123.147 19.6672 122.803 18.9152 122.115 18.4032C121.427 17.8752 120.443 17.6112 119.163 17.6112H115.131L113.619 25.1472H117.723ZM141.002 19.6032L138.482 32.3232H136.274L136.586 30.7632C136.01 31.3072 135.338 31.7312 134.57 32.0352C133.818 32.3232 132.994 32.4672 132.098 32.4672C131.01 32.4672 130.042 32.2512 129.194 31.8192C128.346 31.3712 127.682 30.7312 127.202 29.8992C126.722 29.0672 126.482 28.0912 126.482 26.9712C126.482 25.5312 126.794 24.2432 127.418 23.1072C128.042 21.9712 128.898 21.0832 129.986 20.4432C131.09 19.8032 132.322 19.4832 133.682 19.4832C134.77 19.4832 135.698 19.6752 136.466 20.0592C137.25 20.4432 137.85 21.0112 138.266 21.7632L138.698 19.6032H141.002ZM132.602 30.4512C133.546 30.4512 134.394 30.2272 135.146 29.7792C135.914 29.3152 136.506 28.6752 136.922 27.8592C137.354 27.0432 137.57 26.1152 137.57 25.0752C137.57 23.9392 137.242 23.0592 136.586 22.4352C135.93 21.8112 134.994 21.4992 133.778 21.4992C132.834 21.4992 131.986 21.7312 131.234 22.1952C130.482 22.6432 129.89 23.2752 129.458 24.0912C129.026 24.9072 128.81 25.8352 128.81 26.8752C128.81 27.9952 129.138 28.8752 129.794 29.5152C130.466 30.1392 131.402 30.4512 132.602 30.4512ZM148.89 32.4672C147.674 32.4672 146.61 32.2432 145.698 31.7952C144.786 31.3312 144.082 30.6912 143.586 29.8752C143.09 29.0432 142.842 28.0752 142.842 26.9712C142.842 25.5472 143.162 24.2672 143.802 23.1312C144.442 21.9952 145.33 21.1072 146.466 20.4672C147.602 19.8112 148.89 19.4832 150.33 19.4832C152.842 19.4832 154.586 20.4032 155.562 22.2432L153.618 23.3232C152.946 22.1072 151.794 21.4992 150.162 21.4992C149.218 21.4992 148.362 21.7312 147.594 22.1952C146.842 22.6432 146.25 23.2752 145.818 24.0912C145.386 24.9072 145.17 25.8352 145.17 26.8752C145.17 27.9952 145.498 28.8752 146.154 29.5152C146.826 30.1392 147.77 30.4512 148.986 30.4512C149.754 30.4512 150.466 30.2992 151.122 29.9952C151.794 29.6912 152.346 29.2432 152.778 28.6512L154.458 29.8512C153.866 30.6672 153.074 31.3072 152.082 31.7712C151.09 32.2352 150.026 32.4672 148.89 32.4672ZM164.357 24.9552L168.893 32.3232H166.229L162.557 26.3232L159.437 28.7472L158.717 32.3232H156.413L159.965 14.5152H162.269L160.013 25.8432L167.909 19.6032H171.149L164.357 24.9552ZM184.924 19.6032L182.404 32.3232H180.196L180.508 30.7632C179.932 31.3072 179.26 31.7312 178.492 32.0352C177.74 32.3232 176.916 32.4672 176.02 32.4672C174.932 32.4672 173.964 32.2512 173.116 31.8192C172.268 31.3712 171.604 30.7312 171.124 29.8992C170.644 29.0672 170.404 28.0912 170.404 26.9712C170.404 25.5312 170.716 24.2432 171.34 23.1072C171.964 21.9712 172.82 21.0832 173.908 20.4432C175.012 19.8032 176.244 19.4832 177.604 19.4832C178.692 19.4832 179.62 19.6752 180.388 20.0592C181.172 20.4432 181.772 21.0112 182.188 21.7632L182.62 19.6032H184.924ZM176.524 30.4512C177.468 30.4512 178.316 30.2272 179.068 29.7792C179.836 29.3152 180.428 28.6752 180.844 27.8592C181.276 27.0432 181.492 26.1152 181.492 25.0752C181.492 23.9392 181.164 23.0592 180.508 22.4352C179.852 21.8112 178.916 21.4992 177.7 21.4992C176.756 21.4992 175.908 21.7312 175.156 22.1952C174.404 22.6432 173.812 23.2752 173.38 24.0912C172.948 24.9072 172.732 25.8352 172.732 26.8752C172.732 27.9952 173.06 28.8752 173.716 29.5152C174.388 30.1392 175.324 30.4512 176.524 30.4512ZM201.476 19.6032L199.292 30.5952C198.844 32.8672 197.996 34.5232 196.748 35.5632C195.516 36.6032 193.828 37.1232 191.684 37.1232C190.484 37.1232 189.388 36.9632 188.396 36.6432C187.404 36.3392 186.564 35.8992 185.876 35.3232L187.148 33.5472C187.66 34.0112 188.324 34.3792 189.14 34.6512C189.972 34.9392 190.876 35.0832 191.852 35.0832C193.324 35.0832 194.46 34.7472 195.26 34.0752C196.076 33.4032 196.628 32.3632 196.916 30.9552L197.108 30.0432C195.892 31.2112 194.356 31.7952 192.5 31.7952C191.38 31.7952 190.388 31.5872 189.524 31.1712C188.676 30.7552 188.012 30.1552 187.532 29.3712C187.068 28.5872 186.836 27.6672 186.836 26.6112C186.836 25.2832 187.14 24.0752 187.748 22.9872C188.372 21.8992 189.236 21.0432 190.34 20.4192C191.444 19.7952 192.692 19.4832 194.084 19.4832C195.172 19.4832 196.132 19.6912 196.964 20.1072C197.812 20.5072 198.436 21.1152 198.836 21.9312L199.292 19.6032H201.476ZM192.956 29.7792C193.916 29.7792 194.772 29.5712 195.524 29.1552C196.292 28.7232 196.884 28.1312 197.3 27.3792C197.732 26.6112 197.948 25.7472 197.948 24.7872C197.948 23.7632 197.612 22.9632 196.94 22.3872C196.284 21.7952 195.356 21.4992 194.156 21.4992C193.196 21.4992 192.332 21.7152 191.564 22.1472C190.812 22.5632 190.22 23.1552 189.788 23.9232C189.372 24.6752 189.164 25.5232 189.164 26.4672C189.164 27.5072 189.5 28.3232 190.172 28.9152C190.844 29.4912 191.772 29.7792 192.956 29.7792ZM205.878 19.6032H208.182L205.662 32.3232H203.358L205.878 19.6032ZM207.702 17.1552C207.286 17.1552 206.942 17.0192 206.67 16.7472C206.398 16.4752 206.262 16.1472 206.262 15.7632C206.262 15.3152 206.414 14.9392 206.718 14.6352C207.038 14.3152 207.438 14.1552 207.918 14.1552C208.334 14.1552 208.678 14.2912 208.95 14.5632C209.238 14.8192 209.382 15.1312 209.382 15.4992C209.382 15.9952 209.222 16.3952 208.902 16.6992C208.598 17.0032 208.198 17.1552 207.702 17.1552ZM219.085 19.4832C220.541 19.4832 221.669 19.8512 222.469 20.5872C223.285 21.3232 223.693 22.3632 223.693 23.7072C223.693 24.1712 223.645 24.6672 223.549 25.1952L222.133 32.3232H219.829L221.245 25.1952C221.325 24.7632 221.365 24.4112 221.365 24.1392C221.365 23.3072 221.117 22.6672 220.621 22.2192C220.125 21.7712 219.389 21.5472 218.413 21.5472C217.165 21.5472 216.133 21.8912 215.317 22.5792C214.517 23.2512 213.981 24.2592 213.709 25.6032L212.365 32.3232H210.061L212.581 19.6032H214.789L214.477 21.2352C215.629 20.0672 217.165 19.4832 219.085 19.4832ZM241.155 19.6032L238.971 30.5952C238.523 32.8672 237.675 34.5232 236.427 35.5632C235.195 36.6032 233.507 37.1232 231.363 37.1232C230.163 37.1232 229.067 36.9632 228.075 36.6432C227.083 36.3392 226.243 35.8992 225.555 35.3232L226.827 33.5472C227.339 34.0112 228.003 34.3792 228.819 34.6512C229.651 34.9392 230.555 35.0832 231.531 35.0832C233.003 35.0832 234.139 34.7472 234.939 34.0752C235.755 33.4032 236.307 32.3632 236.595 30.9552L236.787 30.0432C235.571 31.2112 234.035 31.7952 232.179 31.7952C231.059 31.7952 230.067 31.5872 229.203 31.1712C228.355 30.7552 227.691 30.1552 227.211 29.3712C226.747 28.5872 226.515 27.6672 226.515 26.6112C226.515 25.2832 226.819 24.0752 227.427 22.9872C228.051 21.8992 228.915 21.0432 230.019 20.4192C231.123 19.7952 232.371 19.4832 233.763 19.4832C234.851 19.4832 235.811 19.6912 236.643 20.1072C237.491 20.5072 238.115 21.1152 238.515 21.9312L238.971 19.6032H241.155ZM232.635 29.7792C233.595 29.7792 234.451 29.5712 235.203 29.1552C235.971 28.7232 236.563 28.1312 236.979 27.3792C237.411 26.6112 237.627 25.7472 237.627 24.7872C237.627 23.7632 237.291 22.9632 236.619 22.3872C235.963 21.7952 235.035 21.4992 233.835 21.4992C232.875 21.4992 232.011 21.7152 231.243 22.1472C230.491 22.5632 229.899 23.1552 229.467 23.9232C229.051 24.6752 228.843 25.5232 228.843 26.4672C228.843 27.5072 229.179 28.3232 229.851 28.9152C230.523 29.4912 231.451 29.7792 232.635 29.7792Z" fill="#202020"/>
<circle cx="329.242" cy="24.2425" r="24.2425" fill="#838EBF"/>
<path d="M328.253 30.6401L328.235 22.2881L324.095 29.2001H323.051L318.911 22.3961V30.6401H316.679V18.0401H318.605L323.609 26.3921L328.523 18.0401H330.449L330.467 30.6401H328.253ZM337.776 30.8201C336.804 30.8201 335.862 30.6821 334.95 30.4061C334.05 30.1301 333.336 29.7641 332.808 29.3081L333.618 27.4901C334.134 27.8981 334.764 28.2341 335.508 28.4981C336.264 28.7501 337.02 28.8761 337.776 28.8761C338.712 28.8761 339.408 28.7261 339.864 28.4261C340.332 28.1261 340.566 27.7301 340.566 27.2381C340.566 26.8781 340.434 26.5841 340.17 26.3561C339.918 26.1161 339.594 25.9301 339.198 25.7981C338.802 25.6661 338.262 25.5161 337.578 25.3481C336.618 25.1201 335.838 24.8921 335.238 24.6641C334.65 24.4361 334.14 24.0821 333.708 23.6021C333.288 23.1101 333.078 22.4501 333.078 21.6221C333.078 20.9261 333.264 20.2961 333.636 19.7321C334.02 19.1561 334.59 18.7001 335.346 18.3641C336.114 18.0281 337.05 17.8601 338.154 17.8601C338.922 17.8601 339.678 17.9561 340.422 18.1481C341.166 18.3401 341.808 18.6161 342.348 18.9761L341.61 20.7941C341.058 20.4701 340.482 20.2241 339.882 20.0561C339.282 19.8881 338.7 19.8041 338.136 19.8041C337.212 19.8041 336.522 19.9601 336.066 20.2721C335.622 20.5841 335.4 20.9981 335.4 21.5141C335.4 21.8741 335.526 22.1681 335.778 22.3961C336.042 22.6241 336.372 22.8041 336.768 22.9361C337.164 23.0681 337.704 23.2181 338.388 23.3861C339.324 23.6021 340.092 23.8301 340.692 24.0701C341.292 24.2981 341.802 24.6521 342.222 25.1321C342.654 25.6121 342.87 26.2601 342.87 27.0761C342.87 27.7721 342.678 28.4021 342.294 28.9661C341.922 29.5301 341.352 29.9801 340.584 30.3161C339.816 30.6521 338.88 30.8201 337.776 30.8201Z" fill="#202020"/>
<circle cx="290.242" cy="24.2425" r="24.2425" fill="#99CCFF"/>
<path d="M283.763 30.8201C282.959 30.8201 282.215 30.6641 281.531 30.3521C280.859 30.0281 280.307 29.5781 279.875 29.0021L281.207 27.4001C281.903 28.3601 282.737 28.8401 283.709 28.8401C285.017 28.8401 285.671 28.0661 285.671 26.5181V20.0021H281.189V18.0401H288.011V26.3921C288.011 27.8681 287.651 28.9781 286.931 29.7221C286.211 30.4541 285.155 30.8201 283.763 30.8201ZM291.293 18.0401H293.633V28.6601H300.221V30.6401H291.293V18.0401Z" fill="#202020"/>
</svg>
