<svg width="88" height="49" viewBox="0 0 88 49" fill="none" xmlns="http://www.w3.org/2000/svg">
<circle cx="63.2425" cy="24.2425" r="24.2425" fill="#D0B3F5"/>
<path d="M61.4091 18.0403V30.6403H59.4831L52.5351 22.1083V30.6403H50.2131V18.0403H52.1391L59.0871 26.5723V18.0403H61.4091ZM64.7854 18.0403H70.2934C71.6374 18.0403 72.8314 18.3043 73.8754 18.8323C74.9194 19.3483 75.7294 20.0863 76.3054 21.0463C76.8814 21.9943 77.1694 23.0923 77.1694 24.3403C77.1694 25.5883 76.8814 26.6923 76.3054 27.6523C75.7294 28.6003 74.9194 29.3383 73.8754 29.8663C72.8314 30.3823 71.6374 30.6403 70.2934 30.6403H64.7854V18.0403ZM70.1854 28.6603C71.1094 28.6603 71.9194 28.4863 72.6154 28.1383C73.3234 27.7783 73.8634 27.2743 74.2354 26.6263C74.6194 25.9663 74.8114 25.2043 74.8114 24.3403C74.8114 23.4763 74.6194 22.7203 74.2354 22.0723C73.8634 21.4123 73.3234 20.9083 72.6154 20.5603C71.9194 20.2003 71.1094 20.0203 70.1854 20.0203H67.1254V28.6603H70.1854Z" fill="#202020"/>
<circle cx="24.2425" cy="24.2425" r="24.2425" fill="#FFF599"/>
<path d="M15.6252 18.0403H17.9652V30.6403H15.6252V18.0403ZM21.3733 18.0403H26.8813C28.2253 18.0403 29.4193 18.3043 30.4633 18.8323C31.5073 19.3483 32.3173 20.0863 32.8933 21.0463C33.4693 21.9943 33.7573 23.0923 33.7573 24.3403C33.7573 25.5883 33.4693 26.6923 32.8933 27.6523C32.3173 28.6003 31.5073 29.3383 30.4633 29.8663C29.4193 30.3823 28.2253 30.6403 26.8813 30.6403H21.3733V18.0403ZM26.7733 28.6603C27.6973 28.6603 28.5073 28.4863 29.2033 28.1383C29.9113 27.7783 30.4513 27.2743 30.8233 26.6263C31.2073 25.9663 31.3993 25.2043 31.3993 24.3403C31.3993 23.4763 31.2073 22.7203 30.8233 22.0723C30.4513 21.4123 29.9113 20.9083 29.2033 20.5603C28.5073 20.2003 27.6973 20.0203 26.7733 20.0203H23.7133V28.6603H26.7733Z" fill="#202020"/>
</svg>
