<svg width="88" height="49" viewBox="0 0 88 49" fill="none" xmlns="http://www.w3.org/2000/svg">
<circle cx="63.2425" cy="24.2425" r="24.2425" fill="#838EBF"/>
<path d="M62.2529 30.6401L62.2349 22.2881L58.0949 29.2001H57.0509L52.9109 22.3961V30.6401H50.6789V18.0401H52.6049L57.6089 26.3921L62.5229 18.0401H64.4489L64.4669 30.6401H62.2529ZM71.7763 30.8201C70.8043 30.8201 69.8623 30.6821 68.9503 30.4061C68.0503 30.1301 67.3363 29.7641 66.8083 29.3081L67.6183 27.4901C68.1343 27.8981 68.7643 28.2341 69.5083 28.4981C70.2643 28.7501 71.0203 28.8761 71.7763 28.8761C72.7123 28.8761 73.4083 28.7261 73.8643 28.4261C74.3323 28.1261 74.5663 27.7301 74.5663 27.2381C74.5663 26.8781 74.4343 26.5841 74.1703 26.3561C73.9183 26.1161 73.5943 25.9301 73.1983 25.7981C72.8023 25.6661 72.2623 25.5161 71.5783 25.3481C70.6183 25.1201 69.8383 24.8921 69.2383 24.6641C68.6503 24.4361 68.1403 24.0821 67.7083 23.6021C67.2883 23.1101 67.0783 22.4501 67.0783 21.6221C67.0783 20.9261 67.2643 20.2961 67.6363 19.7321C68.0203 19.1561 68.5903 18.7001 69.3463 18.3641C70.1143 18.0281 71.0503 17.8601 72.1543 17.8601C72.9223 17.8601 73.6783 17.9561 74.4223 18.1481C75.1663 18.3401 75.8083 18.6161 76.3483 18.9761L75.6103 20.7941C75.0583 20.4701 74.4823 20.2241 73.8823 20.0561C73.2823 19.8881 72.7003 19.8041 72.1363 19.8041C71.2123 19.8041 70.5223 19.9601 70.0663 20.2721C69.6223 20.5841 69.4003 20.9981 69.4003 21.5141C69.4003 21.8741 69.5263 22.1681 69.7783 22.3961C70.0423 22.6241 70.3723 22.8041 70.7683 22.9361C71.1643 23.0681 71.7043 23.2181 72.3883 23.3861C73.3243 23.6021 74.0923 23.8301 74.6923 24.0701C75.2923 24.2981 75.8023 24.6521 76.2223 25.1321C76.6543 25.6121 76.8703 26.2601 76.8703 27.0761C76.8703 27.7721 76.6783 28.4021 76.2943 28.9661C75.9223 29.5301 75.3523 29.9801 74.5843 30.3161C73.8163 30.6521 72.8803 30.8201 71.7763 30.8201Z" fill="#202020"/>
<circle cx="24.2425" cy="24.2425" r="24.2425" fill="#99CCFF"/>
<path d="M17.763 30.8201C16.959 30.8201 16.215 30.6641 15.531 30.3521C14.859 30.0281 14.307 29.5781 13.875 29.0021L15.207 27.4001C15.903 28.3601 16.737 28.8401 17.709 28.8401C19.017 28.8401 19.671 28.0661 19.671 26.5181V20.0021H15.189V18.0401H22.011V26.3921C22.011 27.8681 21.651 28.9781 20.931 29.7221C20.211 30.4541 19.155 30.8201 17.763 30.8201ZM25.2932 18.0401H27.6332V28.6601H34.2212V30.6401H25.2932V18.0401Z" fill="#202020"/>
</svg>
