<svg width="88" height="49" viewBox="0 0 88 49" fill="none" xmlns="http://www.w3.org/2000/svg">
<circle cx="63.2425" cy="24.2425" r="24.2425" fill="#99CC99"/>
<path d="M52.261 18.0401H54.601V28.6601H61.189V30.6401H52.261V18.0401ZM74.2324 18.0401V30.6401H72.3064L65.3584 22.1081V30.6401H63.0364V18.0401H64.9624L71.9104 26.5721V18.0401H74.2324Z" fill="#202020"/>
<circle cx="24.2425" cy="24.2425" r="24.2425" fill="#E06B65"/>
<path d="M18.8205 30.8201C17.5485 30.8201 16.3965 30.5441 15.3645 29.9921C14.3445 29.4281 13.5405 28.6541 12.9525 27.6701C12.3765 26.6861 12.0885 25.5761 12.0885 24.3401C12.0885 23.1041 12.3825 21.9941 12.9705 21.0101C13.5585 20.0261 14.3625 19.2581 15.3825 18.7061C16.4145 18.1421 17.5665 17.8601 18.8385 17.8601C19.8705 17.8601 20.8125 18.0401 21.6645 18.4001C22.5165 18.7601 23.2365 19.2821 23.8245 19.9661L22.3125 21.3881C21.4005 20.4041 20.2785 19.9121 18.9465 19.9121C18.0825 19.9121 17.3085 20.1041 16.6245 20.4881C15.9405 20.8601 15.4065 21.3821 15.0225 22.0541C14.6385 22.7261 14.4465 23.4881 14.4465 24.3401C14.4465 25.1921 14.6385 25.9541 15.0225 26.6261C15.4065 27.2981 15.9405 27.8261 16.6245 28.2101C17.3085 28.5821 18.0825 28.7681 18.9465 28.7681C20.2785 28.7681 21.4005 28.2701 22.3125 27.2741L23.8245 28.7141C23.2365 29.3981 22.5105 29.9201 21.6465 30.2801C20.7945 30.6401 19.8525 30.8201 18.8205 30.8201ZM31.635 30.8201C30.363 30.8201 29.211 30.5441 28.179 29.9921C27.159 29.4281 26.355 28.6541 25.767 27.6701C25.191 26.6861 24.903 25.5761 24.903 24.3401C24.903 23.1041 25.197 21.9941 25.785 21.0101C26.373 20.0261 27.177 19.2581 28.197 18.7061C29.229 18.1421 30.381 17.8601 31.653 17.8601C32.685 17.8601 33.627 18.0401 34.479 18.4001C35.331 18.7601 36.051 19.2821 36.639 19.9661L35.127 21.3881C34.215 20.4041 33.093 19.9121 31.761 19.9121C30.897 19.9121 30.123 20.1041 29.439 20.4881C28.755 20.8601 28.221 21.3821 27.837 22.0541C27.453 22.7261 27.261 23.4881 27.261 24.3401C27.261 25.1921 27.453 25.9541 27.837 26.6261C28.221 27.2981 28.755 27.8261 29.439 28.2101C30.123 28.5821 30.897 28.7681 31.761 28.7681C33.093 28.7681 34.215 28.2701 35.127 27.2741L36.639 28.7141C36.051 29.3981 35.325 29.9201 34.461 30.2801C33.609 30.6401 32.667 30.8201 31.635 30.8201Z" fill="#202020"/>
</svg>
