<svg width="87" height="49" viewBox="0 0 87 49" fill="none" xmlns="http://www.w3.org/2000/svg">
<circle cx="62.2425" cy="24.2425" r="24.2425" fill="#FFB6B2"/>
<path d="M61.3056 18.0401V30.6401H59.3796L52.4316 22.1081V30.6401H50.1096V18.0401H52.0356L58.9836 26.5721V18.0401H61.3056ZM70.5139 30.8201C69.2419 30.8201 68.0899 30.5441 67.0579 29.9921C66.0379 29.4281 65.2339 28.6541 64.6459 27.6701C64.0699 26.6861 63.7819 25.5761 63.7819 24.3401C63.7819 23.1041 64.0759 21.9941 64.6639 21.0101C65.2519 20.0261 66.0559 19.2581 67.0759 18.7061C68.1079 18.1421 69.2599 17.8601 70.5319 17.8601C71.5639 17.8601 72.5059 18.0401 73.3579 18.4001C74.2099 18.7601 74.9299 19.2821 75.5179 19.9661L74.0059 21.3881C73.0939 20.4041 71.9719 19.9121 70.6399 19.9121C69.7759 19.9121 69.0019 20.1041 68.3179 20.4881C67.6339 20.8601 67.0999 21.3821 66.7159 22.0541C66.3319 22.7261 66.1399 23.4881 66.1399 24.3401C66.1399 25.1921 66.3319 25.9541 66.7159 26.6261C67.0999 27.2981 67.6339 27.8261 68.3179 28.2101C69.0019 28.5821 69.7759 28.7681 70.6399 28.7681C71.9719 28.7681 73.0939 28.2701 74.0059 27.2741L75.5179 28.7141C74.9299 29.3981 74.2039 29.9201 73.3399 30.2801C72.4879 30.6401 71.5459 30.8201 70.5139 30.8201Z" fill="#202020"/>
<circle cx="24.2425" cy="24.2425" r="24.2425" fill="#D9A38D"/>
<path d="M17.4905 30.8201C16.6865 30.8201 15.9425 30.6641 15.2585 30.3521C14.5865 30.0281 14.0345 29.5781 13.6025 29.0021L14.9345 27.4001C15.6305 28.3601 16.4645 28.8401 17.4365 28.8401C18.7445 28.8401 19.3985 28.0661 19.3985 26.5181V20.0021H14.9165V18.0401H21.7385V26.3921C21.7385 27.8681 21.3785 28.9781 20.6585 29.7221C19.9385 30.4541 18.8825 30.8201 17.4905 30.8201ZM28.9267 30.8201C27.9547 30.8201 27.0127 30.6821 26.1007 30.4061C25.2007 30.1301 24.4867 29.7641 23.9587 29.3081L24.7687 27.4901C25.2847 27.8981 25.9147 28.2341 26.6587 28.4981C27.4147 28.7501 28.1707 28.8761 28.9267 28.8761C29.8627 28.8761 30.5587 28.7261 31.0147 28.4261C31.4827 28.1261 31.7167 27.7301 31.7167 27.2381C31.7167 26.8781 31.5847 26.5841 31.3207 26.3561C31.0687 26.1161 30.7447 25.9301 30.3487 25.7981C29.9527 25.6661 29.4127 25.5161 28.7287 25.3481C27.7687 25.1201 26.9887 24.8921 26.3887 24.6641C25.8007 24.4361 25.2907 24.0821 24.8587 23.6021C24.4387 23.1101 24.2287 22.4501 24.2287 21.6221C24.2287 20.9261 24.4147 20.2961 24.7867 19.7321C25.1707 19.1561 25.7407 18.7001 26.4967 18.3641C27.2647 18.0281 28.2007 17.8601 29.3047 17.8601C30.0727 17.8601 30.8287 17.9561 31.5727 18.1481C32.3167 18.3401 32.9587 18.6161 33.4987 18.9761L32.7607 20.7941C32.2087 20.4701 31.6327 20.2241 31.0327 20.0561C30.4327 19.8881 29.8507 19.8041 29.2867 19.8041C28.3627 19.8041 27.6727 19.9601 27.2167 20.2721C26.7727 20.5841 26.5507 20.9981 26.5507 21.5141C26.5507 21.8741 26.6767 22.1681 26.9287 22.3961C27.1927 22.6241 27.5227 22.8041 27.9187 22.9361C28.3147 23.0681 28.8547 23.2181 29.5387 23.3861C30.4747 23.6021 31.2427 23.8301 31.8427 24.0701C32.4427 24.2981 32.9527 24.6521 33.3727 25.1321C33.8047 25.6121 34.0207 26.2601 34.0207 27.0761C34.0207 27.7721 33.8287 28.4021 33.4447 28.9661C33.0727 29.5301 32.5027 29.9801 31.7347 30.3161C30.9667 30.6521 30.0307 30.8201 28.9267 30.8201Z" fill="#202020"/>
</svg>
