<svg width="79" height="84" viewBox="0 0 79 84" fill="none" xmlns="http://www.w3.org/2000/svg">
<path fill-rule="evenodd" clip-rule="evenodd" d="M37.6216 0.0215064C45.9681 -0.157107 54.5686 0.696525 61.4588 5.63606C68.4622 10.6567 72.6344 18.7487 75.4467 27.1381C78.3171 35.701 80.6105 45.1222 77.5401 53.6086C74.5278 61.9344 66.5407 66.5995 59.4148 71.4496C52.6689 76.0411 45.6402 80.1094 37.6216 80.7785C29.0994 81.4895 19.9829 80.6967 13.152 75.3097C6.37006 69.9612 3.60525 60.9309 1.52122 52.3085C-0.443095 44.1815 -0.618067 35.8093 1.66246 27.7734C3.98989 19.5723 7.90693 11.7152 14.4813 6.64136C21.0809 1.54805 29.427 0.196867 37.6216 0.0215064Z" fill="#FFFF99"/>
<path d="M41.7599 16.2785C41.7599 16.2785 28.5899 16.4885 28.3799 35.0885C28.3799 35.0885 21.2699 33.8385 27.3799 43.0885C27.3799 43.0885 27.9799 44.6685 29.8499 43.0885C31.7199 41.5085 28.0999 46.8785 36.5999 52.2485C36.5999 52.2485 36.7199 60.8685 34.5999 62.2485C32.4799 63.6285 46.2199 68.3685 48.4599 62.2485C47.0108 60.4744 46.2478 58.2384 46.3099 55.9485C46.3099 55.9485 55.7499 55.4685 55.7999 39.2085C55.8499 22.9485 51.3099 15.3385 41.7599 16.2785Z" fill="#F4D8BD"/>
<path d="M66.3094 66.7285C66.3094 66.7285 63.6494 50.6185 64.8894 43.5985C66.1294 36.5785 52.6994 16.2385 52.6994 16.2385C52.6994 16.2385 53.9294 7.44852 47.6994 10.0885C47.6994 10.0885 43.4294 13.1885 35.6994 11.4385C27.9694 9.68852 23.3094 20.1685 23.8594 23.6585C23.8594 23.6585 11.0594 28.3185 14.9394 48.6585C18.8194 68.9985 17.345 79.1185 22.965 82.0285C28.585 84.9385 36.985 79.8305 42.465 71.6805C47.945 63.5305 54.9394 82.0285 54.9394 82.0285C54.9394 82.0285 67.8894 86.8985 66.3094 66.7285ZM53.5994 50.2085C51.1194 54.0485 49.4494 55.5285 46.9894 55.5285C44.5294 55.5285 48.0894 61.7985 48.0894 61.7985C41.5594 64.9985 35.2894 61.2685 35.2894 61.2685C38.1194 59.2685 37.2894 52.2685 37.2894 52.2685C33.8394 52.0485 30.3794 42.7985 30.3794 42.7985C27.5494 45.0185 26.2694 41.2385 26.2694 41.2385C23.8194 33.5685 28.4194 35.1085 28.4194 35.1085C27.7994 26.1085 37.8994 23.9385 43.9394 22.7085C49.9794 21.4785 50.4694 18.8885 50.4694 18.8885C57.8994 27.5485 56.1194 46.3085 53.5994 50.2085Z" fill="#DDB374"/>
<path d="M48.7321 60.6645C43.0228 65.232 37.4717 62.5676 35.4098 60.6645C25.3137 60.2432 17.564 75.8727 14.9512 83.7401H71.5697C66.336 74.1451 54.4414 56.097 48.7321 60.6645Z" fill="#F8F8C8"/>
</svg>
