<svg width="80" height="83" viewBox="0 0 80 83" fill="none" xmlns="http://www.w3.org/2000/svg">
<path fill-rule="evenodd" clip-rule="evenodd" d="M42.1893 0.047923C50.8229 -0.425534 59.5462 2.63377 66.097 8.13367C72.3554 13.3882 74.7202 21.4415 76.9138 29.2021C79.0092 36.6153 80.6937 44.3014 78.3996 51.6586C76.0779 59.1039 70.405 64.8226 64.2575 69.7898C57.722 75.0705 50.6555 80.2927 42.1893 80.9165C33.3761 81.5659 24.6444 78.3736 17.5551 73.231C10.5221 68.1292 5.80292 60.6971 3.10886 52.5672C0.418763 44.4493 -0.788722 35.5408 2.4374 27.6105C5.5649 19.9226 13.2448 15.4476 20.1601 10.6528C27.0007 5.90974 33.8066 0.507617 42.1893 0.047923Z" fill="#D9A38D"/>
<path d="M39.5104 13.4658C39.5104 13.4658 26.3404 13.6758 26.1304 32.3158C26.1304 32.3158 19.0304 31.0658 25.1304 40.3158C25.1304 40.3158 25.7204 41.8958 27.5904 40.3158C29.4604 38.7358 25.8404 44.0958 34.3404 49.4758C34.3404 49.4758 34.4604 58.0958 32.3404 59.4758C30.2204 60.8558 43.9604 65.5958 46.2104 59.4758C44.779 57.7124 44.0238 55.4963 44.0804 53.2258C44.0804 53.2258 53.5304 52.7558 53.5804 36.4858C53.5904 20.3158 49.1004 12.5258 39.5104 13.4658Z" fill="#EAC4AF"/>
<path d="M45.4723 59.6645C39.763 64.232 34.2119 61.5676 32.1501 59.6645C22.054 59.2432 14.3043 74.8727 11.6914 82.7401H68.3099C63.0763 73.1451 51.1816 55.097 45.4723 59.6645Z" fill="#F2E4D7"/>
<path d="M27.3198 35.46C25.3676 33.1413 24.0191 30.3757 23.3945 27.4097C22.7699 24.4436 22.8885 21.3691 23.7398 18.46C26.5398 8.03 40.4198 6.79 46.5798 8.25C52.7398 9.71 53.9698 5 53.9698 5C53.9698 5 60.5798 19.56 53.9698 22.58C47.3598 25.6 27.7698 17.94 27.3198 35.46Z" fill="#202020" stroke="#202020" stroke-miterlimit="10"/>
</svg>
