<svg width="80" height="83" viewBox="0 0 80 83" fill="none" xmlns="http://www.w3.org/2000/svg">
<path fill-rule="evenodd" clip-rule="evenodd" d="M39.24 0.121239C47.5573 -0.578627 55.9029 1.76903 62.8818 6.7106C70.1047 11.8249 76.1207 19.1217 78.6697 28.0403C81.1977 36.8854 79.7415 46.3968 76.6975 55.0498C73.7691 63.3739 68.8607 70.8439 61.9227 75.6451C55.2427 80.2678 47.1708 80.8814 39.24 80.971C31.2258 81.0615 22.6994 81.2468 16.2102 76.1615C9.71786 71.0737 7.29095 62.23 4.80692 53.9873C2.32082 45.7378 -0.588857 37.0229 1.93303 28.786C4.44921 20.5679 11.6021 15.4911 18.1288 10.4764C24.5856 5.5153 31.3426 0.785774 39.24 0.121239Z" fill="#99CCFF"/>
<path d="M39.5936 14.9978C39.5936 14.9978 26.4236 15.2078 26.1836 33.8478C26.1836 33.8478 19.0736 32.5878 25.1836 41.7878C25.1836 41.7878 25.7736 43.3778 27.6436 41.7878C29.5136 40.1978 25.8936 45.5778 34.3936 50.9478C34.3936 50.9478 34.5136 59.5678 32.3936 60.9478C30.2736 62.3278 44.0136 67.0678 46.2536 60.9478C44.8274 59.1821 44.0759 56.9667 44.1336 54.6978C44.1336 54.6978 53.5736 54.2178 53.6236 37.9578C53.6736 21.6978 49.1836 14.0578 39.5936 14.9978Z" fill="#E8C0B6"/>
<path d="M21.0938 21.0877C21.0938 21.0877 17.6638 24.8377 21.9938 30.3077C21.806 30.6963 21.7043 31.1207 21.6955 31.5521C21.6867 31.9836 21.7711 32.4118 21.9429 32.8076C22.1147 33.2035 22.3699 33.5576 22.6911 33.8458C23.0122 34.134 23.3917 34.3496 23.8038 34.4777C23.8038 34.4777 25.9238 36.8977 26.7238 34.9777C27.5238 33.0577 28.9438 25.8178 32.1638 25.7178C32.1638 25.7178 31.3538 19.4777 36.2938 20.2878C36.2938 20.2878 37.2938 17.9677 39.4138 18.9777C41.5338 19.9877 43.1038 21.3177 45.0238 19.6077C46.9438 17.8977 48.4738 24.7578 51.2338 24.0778C52.7838 23.6878 52.5938 33.9778 53.6038 32.9678C54.6138 31.9578 56.7238 21.1877 51.3838 15.1577C51.3838 15.1577 47.1638 12.4377 45.6538 14.1577C45.6538 14.1577 44.2438 10.9377 40.9238 10.9377C37.6038 10.9377 35.9238 12.4478 34.2738 12.1478C32.6238 11.8478 29.7438 11.6378 28.3338 13.1478C28.3338 13.1378 20.1038 17.7077 21.0938 21.0877Z" fill="#202020"/>
<path d="M46.1836 13.7677C46.3782 13.1106 46.7918 12.5399 47.3559 12.1506C47.9199 11.7612 48.6002 11.5767 49.2836 11.6278" fill="#202020"/>
<path d="M45.0234 13.1177C45.0335 12.6255 45.2196 12.1531 45.548 11.7862C45.8764 11.4193 46.3253 11.1822 46.8134 11.1177" fill="#202020"/>
<path d="M46.487 59.7277C40.7777 64.2952 35.2266 61.6308 33.1647 59.7277C23.0686 59.3065 15.3189 74.936 12.7061 82.8034H69.3246C64.0909 73.2084 52.1963 55.1602 46.487 59.7277Z" fill="#C3DDF6"/>
</svg>
