<svg width="79" height="88" viewBox="0 0 79 88" fill="none" xmlns="http://www.w3.org/2000/svg">
<path fill-rule="evenodd" clip-rule="evenodd" d="M38.2771 0.121239C46.5944 -0.578627 54.94 1.76903 61.9189 6.7106C69.1418 11.8249 75.1578 19.1217 77.7068 28.0403C80.2348 36.8854 78.7786 46.3968 75.7346 55.0498C72.8062 63.3739 67.8978 70.8439 60.9598 75.6451C54.2798 80.2678 46.2079 80.8814 38.2771 80.971C30.2629 81.0615 21.7365 81.2468 15.2473 76.1615C8.75497 71.0737 6.32806 62.23 3.84403 53.9873C1.35793 45.7378 -1.55175 37.0229 0.970142 28.786C3.48632 20.5679 10.6392 15.4911 17.1659 10.4764C23.6227 5.5153 30.3797 0.785774 38.2771 0.121239Z" fill="#99CC99"/>
<path d="M28.2207 45.8411C28.2207 45.8411 31.9307 55.8411 36.2207 54.0811C36.2207 54.0811 30.4507 50.3811 30.5007 44.9411C30.5007 44.6611 30.0007 45.0011 29.8007 45.2011C29.6049 45.4228 29.3602 45.596 29.0861 45.7071C28.8119 45.8182 28.5156 45.864 28.2207 45.8411Z" fill="#F0DAB8"/>
<path d="M41.7907 18.3911C41.7907 18.3911 28.6207 18.6011 28.4107 37.2011C28.4107 37.2011 21.3007 35.9511 27.3607 45.2011C27.3607 45.2011 27.9607 46.7811 29.8307 45.2011C31.7007 43.6211 28.0807 48.9811 36.5807 54.3611C36.5807 54.3611 36.7007 62.9811 34.5807 64.3611C32.4607 65.7411 46.1907 70.4811 48.4407 64.3611C47.0146 62.5954 46.2631 60.38 46.3207 58.1111C46.3207 58.1111 55.7607 57.6411 55.8107 41.3711C55.8707 25.2011 51.3707 17.4511 41.7907 18.3911Z" fill="#E8C8B6"/>
<path d="M40.7311 16.6311C40.7311 16.6311 36.6511 5.84105 27.3311 10.3011C18.0111 14.7611 27.3911 29.8811 26.9611 26.5511C26.2111 20.7411 19.4611 32.0311 26.1311 37.4111C26.1311 36.3311 39.0711 40.1611 44.7011 24.4111C44.7011 24.4111 54.1311 34.2811 55.4511 32.8111C56.7711 31.3411 55.0111 15.7511 40.7311 16.6311Z" fill="#F0DAB8"/>
<path d="M47.2575 64.484C41.5482 69.0515 35.9971 66.3871 33.9352 64.484C23.8391 64.0627 16.0894 79.6922 13.4766 87.5596H70.0951C64.8614 77.9646 52.9668 59.9165 47.2575 64.484Z" fill="#CBF4CB"/>
</svg>
