<svg width="80" height="83" viewBox="0 0 80 83" fill="none" xmlns="http://www.w3.org/2000/svg">
<path fill-rule="evenodd" clip-rule="evenodd" d="M40.3783 0.00223137C48.0778 -0.0987379 55.4215 3.23544 61.6576 8.2716C67.9011 13.3136 72.5047 20.2711 75.3623 28.2544C78.3834 36.6945 81.0547 46.1165 78.2596 54.6529C75.498 63.0869 67.7323 67.6716 60.9001 72.4234C54.5463 76.8425 47.8667 81.0453 40.3783 80.9996C32.9145 80.9541 26.4069 76.4789 20.019 72.174C13.0113 67.4515 4.64736 63.4601 1.70734 54.939C-1.27698 46.2895 1.51164 36.5516 4.79004 28.0355C7.83981 20.1133 13.1446 13.7994 19.4596 8.82498C25.7012 3.90836 32.7367 0.102441 40.3783 0.00223137Z" fill="#FFB6B3"/>
<path d="M39.9152 15.1731C39.9152 15.1731 26.7452 15.3831 26.5352 33.9831C26.5352 33.9831 19.4252 32.7331 25.5352 41.9831C25.5352 41.9831 26.1351 43.5631 28.0051 41.9831C29.8751 40.4031 26.2552 45.7731 34.7552 51.1431C34.7552 51.1431 34.8751 59.7631 32.7551 61.1431C30.6351 62.5231 45.6233 67.1085 47.8633 60.9885C46.4142 59.2143 44.403 57.133 44.4651 54.8431C44.4651 54.8431 53.9051 54.3631 53.9551 38.1031C54.0051 21.8431 49.4652 14.2331 39.9152 15.1731Z" fill="#E8C0B6"/>
<path d="M64.4657 65.6231C64.4657 65.6231 61.8057 49.5131 63.0457 42.4931C64.2857 35.4731 50.8557 15.1331 50.8557 15.1331C50.8557 15.1331 52.0857 6.34306 45.8557 8.98306C45.8557 8.98306 41.5857 12.0831 33.8557 10.3331C26.1257 8.58306 21.4657 19.0631 22.0157 22.5531C22.0157 22.5531 9.21567 27.2131 13.0957 47.5531C16.9757 67.8931 18.8057 78.0131 24.4257 80.9231C30.0457 83.8331 36.6157 83.6783 42.0957 75.5283C47.5757 67.3783 53.0957 80.9231 53.0957 80.9231C53.0957 80.9231 66.0457 85.7931 64.4657 65.6231ZM51.7557 49.1031C49.2757 52.9431 47.6057 54.4231 45.1457 54.4231C42.6857 54.4231 46.8633 59.9885 46.8633 59.9885C40.3633 65.4885 33.4457 60.1631 33.4457 60.1631C35.8633 58.4885 35.4457 51.1631 35.4457 51.1631C31.9957 50.9431 28.5357 41.6931 28.5357 41.6931C25.7057 43.9131 24.4257 40.1331 24.4257 40.1331C21.9757 32.4631 26.5757 34.0031 26.5757 34.0031C25.9557 25.0031 36.0557 22.8331 42.0957 21.6031C48.1357 20.3731 48.6257 17.7831 48.6257 17.7831C56.0557 26.4431 54.2757 45.2031 51.7557 49.1031Z" fill="#202020"/>
<path d="M46.1442 59.6645C40.4349 64.232 34.8838 61.5676 32.8219 59.6645C22.7259 59.2432 14.9761 74.8727 12.3633 82.7401H68.9818C63.7481 73.1451 51.8535 55.097 46.1442 59.6645Z" fill="#F2D4D3"/>
</svg>
