<svg width="82" height="84" viewBox="0 0 82 84" fill="none" xmlns="http://www.w3.org/2000/svg">
<path fill-rule="evenodd" clip-rule="evenodd" d="M40.2994 1.06172C48.2189 0.691307 56.3298 1.91396 62.9062 6.75561C69.6284 11.7046 73.8988 19.5405 76.6984 27.8593C79.5917 36.4566 81.7299 45.8957 78.992 54.5537C76.277 63.1389 69.1525 68.8147 62.1845 73.7552C55.5485 78.4603 48.2035 82.2464 40.2994 81.9875C32.5366 81.7331 25.4401 77.6195 19.3464 72.3517C13.4518 67.256 9.44386 60.3803 6.53718 52.801C3.386 44.5842 -0.392619 35.7018 2.02815 27.1937C4.45786 18.6542 12.1198 13.5419 19.0547 8.80667C25.5459 4.37441 32.6548 1.41928 40.2994 1.06172Z" fill="#D0B3F5" stroke="#D0B3F5" stroke-width="2"/>
<path d="M44.6241 14.6827C44.6241 14.6827 31.4541 14.8927 31.2441 33.4927C31.2441 33.4927 24.1341 32.2427 30.2441 41.4927C30.2441 41.4927 30.8341 43.0727 32.7041 41.4927C34.5741 39.9127 30.9541 45.2727 39.4541 50.6527C39.4541 50.6527 39.5741 59.2727 37.4541 60.6527C35.3341 62.0327 49.0741 66.7727 51.3141 60.6527C49.888 58.8871 49.1365 56.6717 49.1941 54.4027C49.1941 54.4027 58.6341 53.9327 58.6941 37.6627C58.7041 21.4927 54.2041 13.7427 44.6241 14.6827Z" fill="#E8C0B6"/>
<path d="M49.3737 14.4327C49.3737 14.4327 39.7837 10.4327 35.8737 13.3027C31.9637 16.1727 32.5937 18.9127 29.1237 18.7927C25.6537 18.6727 16.0537 20.1327 18.8637 36.9027C18.8637 36.9027 28.0137 28.0627 27.1337 20.6827C27.1337 20.6827 27.9537 30.5327 25.5537 33.5527C23.1537 36.5727 18.0437 51.2927 27.3837 55.8327C36.7237 60.3727 39.5037 56.4027 39.5037 56.4027L40.0037 50.7227C40.0037 50.7227 33.7937 45.3427 33.2237 41.2427C32.7737 41.2427 29.9337 43.5327 28.6237 38.5927C27.3637 33.8227 29.0837 32.2127 32.0537 34.3827C32.0537 34.3827 31.8637 38.0427 32.6237 37.6627C33.3837 37.2827 34.7737 26.6627 37.1637 25.9227C39.5537 25.1827 49.8637 24.1327 49.3737 14.4327Z" fill="#202020"/>
<path d="M49.3432 16.6926C49.3432 16.6926 56.6632 22.1327 58.1932 29.1327C58.1932 29.1327 60.9332 17.8026 52.9232 15.1326C52.9232 15.1326 47.9732 13.1326 49.3432 16.6926Z" fill="#202020"/>
<path d="M50.6989 60.6237C44.9896 65.1912 39.4385 62.5268 37.3766 60.6237C27.2805 60.2025 19.5308 75.832 16.918 83.6994H73.5365C68.3028 74.1044 56.4082 56.0562 50.6989 60.6237Z" fill="#EFE2FF"/>
</svg>
