<svg width="444" height="269" viewBox="0 0 444 269" fill="none" xmlns="http://www.w3.org/2000/svg">
<path d="M220.67 8.268C221.173 8.43267 221.571 8.71 221.866 9.1C222.161 9.48133 222.308 9.958 222.308 10.53C222.308 11.3187 222.005 11.9297 221.398 12.363C220.791 12.7877 219.907 13 218.746 13H214.222V3.9H218.486C219.561 3.9 220.388 4.11233 220.969 4.537C221.55 4.953 221.84 5.52933 221.84 6.266C221.84 6.71667 221.736 7.11533 221.528 7.462C221.32 7.80867 221.034 8.07733 220.67 8.268ZM215.912 5.226V7.735H218.304C218.893 7.735 219.344 7.631 219.656 7.423C219.977 7.20633 220.137 6.89433 220.137 6.487C220.137 6.071 219.977 5.759 219.656 5.551C219.344 5.33433 218.893 5.226 218.304 5.226H215.912ZM218.642 11.674C219.951 11.674 220.605 11.2363 220.605 10.361C220.605 9.48567 219.951 9.048 218.642 9.048H215.912V11.674H218.642ZM228.025 13.13C226.768 13.13 225.789 12.779 225.087 12.077C224.385 11.3663 224.034 10.3523 224.034 9.035V3.9H225.724V8.97C225.724 10.7553 226.495 11.648 228.038 11.648C229.572 11.648 230.339 10.7553 230.339 8.97V3.9H232.003V9.035C232.003 10.3523 231.652 11.3663 230.95 12.077C230.256 12.779 229.281 13.13 228.025 13.13ZM237.19 13.13C236.488 13.13 235.808 13.0303 235.149 12.831C234.499 12.6317 233.984 12.3673 233.602 12.038L234.187 10.725C234.56 11.0197 235.015 11.2623 235.552 11.453C236.098 11.635 236.644 11.726 237.19 11.726C237.866 11.726 238.369 11.6177 238.698 11.401C239.036 11.1843 239.205 10.8983 239.205 10.543C239.205 10.283 239.11 10.0707 238.919 9.906C238.737 9.73267 238.503 9.59833 238.217 9.503C237.931 9.40767 237.541 9.29933 237.047 9.178C236.354 9.01333 235.791 8.84867 235.357 8.684C234.933 8.51933 234.564 8.26367 234.252 7.917C233.949 7.56167 233.797 7.085 233.797 6.487C233.797 5.98433 233.932 5.52933 234.2 5.122C234.478 4.706 234.889 4.37667 235.435 4.134C235.99 3.89133 236.666 3.77 237.463 3.77C238.018 3.77 238.564 3.83933 239.101 3.978C239.639 4.11667 240.102 4.316 240.492 4.576L239.959 5.889C239.561 5.655 239.145 5.47733 238.711 5.356C238.278 5.23467 237.858 5.174 237.45 5.174C236.783 5.174 236.285 5.28667 235.955 5.512C235.635 5.73733 235.474 6.03633 235.474 6.409C235.474 6.669 235.565 6.88133 235.747 7.046C235.938 7.21067 236.176 7.34067 236.462 7.436C236.748 7.53133 237.138 7.63967 237.632 7.761C238.308 7.917 238.863 8.08167 239.296 8.255C239.73 8.41967 240.098 8.67533 240.401 9.022C240.713 9.36867 240.869 9.83667 240.869 10.426C240.869 10.9287 240.731 11.3837 240.453 11.791C240.185 12.1983 239.773 12.5233 239.218 12.766C238.664 13.0087 237.988 13.13 237.19 13.13ZM242.545 3.9H244.235V13H242.545V3.9ZM254.783 3.9V13H253.392L248.374 6.838V13H246.697V3.9H248.088L253.106 10.062V3.9H254.783ZM264.046 11.583V13H257.221V3.9H263.864V5.317H258.911V7.683H263.305V9.074H258.911V11.583H264.046ZM268.751 13.13C268.049 13.13 267.369 13.0303 266.71 12.831C266.06 12.6317 265.544 12.3673 265.163 12.038L265.748 10.725C266.121 11.0197 266.576 11.2623 267.113 11.453C267.659 11.635 268.205 11.726 268.751 11.726C269.427 11.726 269.93 11.6177 270.259 11.401C270.597 11.1843 270.766 10.8983 270.766 10.543C270.766 10.283 270.671 10.0707 270.48 9.906C270.298 9.73267 270.064 9.59833 269.778 9.503C269.492 9.40767 269.102 9.29933 268.608 9.178C267.915 9.01333 267.351 8.84867 266.918 8.684C266.493 8.51933 266.125 8.26367 265.813 7.917C265.51 7.56167 265.358 7.085 265.358 6.487C265.358 5.98433 265.492 5.52933 265.761 5.122C266.038 4.706 266.45 4.37667 266.996 4.134C267.551 3.89133 268.227 3.77 269.024 3.77C269.579 3.77 270.125 3.83933 270.662 3.978C271.199 4.11667 271.663 4.316 272.053 4.576L271.52 5.889C271.121 5.655 270.705 5.47733 270.272 5.356C269.839 5.23467 269.418 5.174 269.011 5.174C268.344 5.174 267.845 5.28667 267.516 5.512C267.195 5.73733 267.035 6.03633 267.035 6.409C267.035 6.669 267.126 6.88133 267.308 7.046C267.499 7.21067 267.737 7.34067 268.023 7.436C268.309 7.53133 268.699 7.63967 269.193 7.761C269.869 7.917 270.424 8.08167 270.857 8.255C271.29 8.41967 271.659 8.67533 271.962 9.022C272.274 9.36867 272.43 9.83667 272.43 10.426C272.43 10.9287 272.291 11.3837 272.014 11.791C271.745 12.1983 271.334 12.5233 270.779 12.766C270.224 13.0087 269.548 13.13 268.751 13.13ZM276.927 13.13C276.225 13.13 275.544 13.0303 274.886 12.831C274.236 12.6317 273.72 12.3673 273.339 12.038L273.924 10.725C274.296 11.0197 274.751 11.2623 275.289 11.453C275.835 11.635 276.381 11.726 276.927 11.726C277.603 11.726 278.105 11.6177 278.435 11.401C278.773 11.1843 278.942 10.8983 278.942 10.543C278.942 10.283 278.846 10.0707 278.656 9.906C278.474 9.73267 278.24 9.59833 277.954 9.503C277.668 9.40767 277.278 9.29933 276.784 9.178C276.09 9.01333 275.527 8.84867 275.094 8.684C274.669 8.51933 274.301 8.26367 273.989 7.917C273.685 7.56167 273.534 7.085 273.534 6.487C273.534 5.98433 273.668 5.52933 273.937 5.122C274.214 4.706 274.626 4.37667 275.172 4.134C275.726 3.89133 276.402 3.77 277.2 3.77C277.754 3.77 278.3 3.83933 278.838 3.978C279.375 4.11667 279.839 4.316 280.229 4.576L279.696 5.889C279.297 5.655 278.881 5.47733 278.448 5.356C278.014 5.23467 277.594 5.174 277.187 5.174C276.519 5.174 276.021 5.28667 275.692 5.512C275.371 5.73733 275.211 6.03633 275.211 6.409C275.211 6.669 275.302 6.88133 275.484 7.046C275.674 7.21067 275.913 7.34067 276.199 7.436C276.485 7.53133 276.875 7.63967 277.369 7.761C278.045 7.917 278.599 8.08167 279.033 8.255C279.466 8.41967 279.834 8.67533 280.138 9.022C280.45 9.36867 280.606 9.83667 280.606 10.426C280.606 10.9287 280.467 11.3837 280.19 11.791C279.921 12.1983 279.509 12.5233 278.955 12.766C278.4 13.0087 277.724 13.13 276.927 13.13ZM291.776 10.894H287.226L286.329 13H284.587L288.682 3.9H290.346L294.454 13H292.686L291.776 10.894ZM291.217 9.568L289.501 5.59L287.798 9.568H291.217ZM295.612 3.9H299.59C300.56 3.9 301.423 4.09067 302.177 4.472C302.931 4.84467 303.516 5.37767 303.932 6.071C304.348 6.75567 304.556 7.54867 304.556 8.45C304.556 9.35133 304.348 10.1487 303.932 10.842C303.516 11.5267 302.931 12.0597 302.177 12.441C301.423 12.8137 300.56 13 299.59 13H295.612V3.9ZM299.512 11.57C300.179 11.57 300.764 11.4443 301.267 11.193C301.778 10.933 302.168 10.569 302.437 10.101C302.714 9.62433 302.853 9.074 302.853 8.45C302.853 7.826 302.714 7.28 302.437 6.812C302.168 6.33533 301.778 5.97133 301.267 5.72C300.764 5.46 300.179 5.33 299.512 5.33H297.302V11.57H299.512ZM314.711 13L314.698 6.968L311.708 11.96H310.954L307.964 7.046V13H306.352V3.9H307.743L311.357 9.932L314.906 3.9H316.297L316.31 13H314.711ZM318.768 3.9H320.458V13H318.768V3.9ZM331.005 3.9V13H329.614L324.596 6.838V13H322.919V3.9H324.31L329.328 10.062V3.9H331.005ZM333.444 3.9H335.134V13H333.444V3.9ZM340.416 13.13C339.714 13.13 339.034 13.0303 338.375 12.831C337.725 12.6317 337.209 12.3673 336.828 12.038L337.413 10.725C337.786 11.0197 338.241 11.2623 338.778 11.453C339.324 11.635 339.87 11.726 340.416 11.726C341.092 11.726 341.595 11.6177 341.924 11.401C342.262 11.1843 342.431 10.8983 342.431 10.543C342.431 10.283 342.336 10.0707 342.145 9.906C341.963 9.73267 341.729 9.59833 341.443 9.503C341.157 9.40767 340.767 9.29933 340.273 9.178C339.58 9.01333 339.016 8.84867 338.583 8.684C338.158 8.51933 337.79 8.26367 337.478 7.917C337.175 7.56167 337.023 7.085 337.023 6.487C337.023 5.98433 337.157 5.52933 337.426 5.122C337.703 4.706 338.115 4.37667 338.661 4.134C339.216 3.89133 339.892 3.77 340.689 3.77C341.244 3.77 341.79 3.83933 342.327 3.978C342.864 4.11667 343.328 4.316 343.718 4.576L343.185 5.889C342.786 5.655 342.37 5.47733 341.937 5.356C341.504 5.23467 341.083 5.174 340.676 5.174C340.009 5.174 339.51 5.28667 339.181 5.512C338.86 5.73733 338.7 6.03633 338.7 6.409C338.7 6.669 338.791 6.88133 338.973 7.046C339.164 7.21067 339.402 7.34067 339.688 7.436C339.974 7.53133 340.364 7.63967 340.858 7.761C341.534 7.917 342.089 8.08167 342.522 8.255C342.955 8.41967 343.324 8.67533 343.627 9.022C343.939 9.36867 344.095 9.83667 344.095 10.426C344.095 10.9287 343.956 11.3837 343.679 11.791C343.41 12.1983 342.999 12.5233 342.444 12.766C341.889 13.0087 341.213 13.13 340.416 13.13ZM347.49 5.33H344.474V3.9H352.196V5.33H349.18V13H347.49V5.33ZM359.418 13L357.559 10.335C357.481 10.3437 357.364 10.348 357.208 10.348H355.154V13H353.464V3.9H357.208C357.997 3.9 358.682 4.03 359.262 4.29C359.852 4.55 360.302 4.92267 360.614 5.408C360.926 5.89333 361.082 6.46967 361.082 7.137C361.082 7.82167 360.913 8.411 360.575 8.905C360.246 9.399 359.769 9.76733 359.145 10.01L361.238 13H359.418ZM359.379 7.137C359.379 6.55633 359.189 6.11 358.807 5.798C358.426 5.486 357.867 5.33 357.13 5.33H355.154V8.957H357.13C357.867 8.957 358.426 8.801 358.807 8.489C359.189 8.16833 359.379 7.71767 359.379 7.137ZM368.875 10.894H364.325L363.428 13H361.686L365.781 3.9H367.445L371.553 13H369.785L368.875 10.894ZM368.316 9.568L366.6 5.59L364.897 9.568H368.316ZM374.099 5.33H371.083V3.9H378.805V5.33H375.789V13H374.099V5.33ZM380.074 3.9H381.764V13H380.074V3.9ZM388.476 13.13C387.549 13.13 386.712 12.9307 385.967 12.532C385.222 12.1247 384.637 11.5657 384.212 10.855C383.787 10.1357 383.575 9.334 383.575 8.45C383.575 7.566 383.787 6.76867 384.212 6.058C384.637 5.33867 385.222 4.77967 385.967 4.381C386.712 3.97367 387.549 3.77 388.476 3.77C389.403 3.77 390.24 3.97367 390.985 4.381C391.73 4.77967 392.315 5.33433 392.74 6.045C393.165 6.75567 393.377 7.55733 393.377 8.45C393.377 9.34267 393.165 10.1443 392.74 10.855C392.315 11.5657 391.73 12.1247 390.985 12.532C390.24 12.9307 389.403 13.13 388.476 13.13ZM388.476 11.648C389.083 11.648 389.629 11.5137 390.114 11.245C390.599 10.9677 390.981 10.5863 391.258 10.101C391.535 9.607 391.674 9.05667 391.674 8.45C391.674 7.84333 391.535 7.29733 391.258 6.812C390.981 6.318 390.599 5.93667 390.114 5.668C389.629 5.39067 389.083 5.252 388.476 5.252C387.869 5.252 387.323 5.39067 386.838 5.668C386.353 5.93667 385.971 6.318 385.694 6.812C385.417 7.29733 385.278 7.84333 385.278 8.45C385.278 9.05667 385.417 9.607 385.694 10.101C385.971 10.5863 386.353 10.9677 386.838 11.245C387.323 11.5137 387.869 11.648 388.476 11.648ZM403.254 3.9V13H401.863L396.845 6.838V13H395.168V3.9H396.559L401.577 10.062V3.9H403.254Z" fill="#202020"/>
<path d="M264.124 160.894H259.574L258.677 163H256.935L261.03 153.9H262.694L266.802 163H265.034L264.124 160.894ZM263.565 159.568L261.849 155.59L260.146 159.568H263.565ZM273.913 163L272.054 160.335C271.976 160.344 271.859 160.348 271.703 160.348H269.649V163H267.959V153.9H271.703C272.492 153.9 273.177 154.03 273.757 154.29C274.347 154.55 274.797 154.923 275.109 155.408C275.421 155.893 275.577 156.47 275.577 157.137C275.577 157.822 275.408 158.411 275.07 158.905C274.741 159.399 274.264 159.767 273.64 160.01L275.733 163H273.913ZM273.874 157.137C273.874 156.556 273.684 156.11 273.302 155.798C272.921 155.486 272.362 155.33 271.625 155.33H269.649V158.957H271.625C272.362 158.957 272.921 158.801 273.302 158.489C273.684 158.168 273.874 157.718 273.874 157.137ZM281.68 163.13C280.761 163.13 279.929 162.931 279.184 162.532C278.447 162.125 277.867 161.566 277.442 160.855C277.026 160.144 276.818 159.343 276.818 158.45C276.818 157.557 277.03 156.756 277.455 156.045C277.88 155.334 278.46 154.78 279.197 154.381C279.942 153.974 280.774 153.77 281.693 153.77C282.438 153.77 283.119 153.9 283.734 154.16C284.349 154.42 284.869 154.797 285.294 155.291L284.202 156.318C283.543 155.607 282.733 155.252 281.771 155.252C281.147 155.252 280.588 155.391 280.094 155.668C279.6 155.937 279.214 156.314 278.937 156.799C278.66 157.284 278.521 157.835 278.521 158.45C278.521 159.065 278.66 159.616 278.937 160.101C279.214 160.586 279.6 160.968 280.094 161.245C280.588 161.514 281.147 161.648 281.771 161.648C282.733 161.648 283.543 161.288 284.202 160.569L285.294 161.609C284.869 162.103 284.345 162.48 283.721 162.74C283.106 163 282.425 163.13 281.68 163.13ZM294.999 153.9V163H293.309V159.1H288.603V163H286.913V153.9H288.603V157.657H293.309V153.9H294.999ZM297.438 153.9H299.128V163H297.438V153.9ZM303.435 155.33H300.419V153.9H308.141V155.33H305.125V163H303.435V155.33ZM316.235 161.583V163H309.41V153.9H316.053V155.317H311.1V157.683H315.494V159.074H311.1V161.583H316.235ZM322.292 163.13C321.374 163.13 320.542 162.931 319.796 162.532C319.06 162.125 318.479 161.566 318.054 160.855C317.638 160.144 317.43 159.343 317.43 158.45C317.43 157.557 317.643 156.756 318.067 156.045C318.492 155.334 319.073 154.78 319.809 154.381C320.555 153.974 321.387 153.77 322.305 153.77C323.051 153.77 323.731 153.9 324.346 154.16C324.962 154.42 325.482 154.797 325.906 155.291L324.814 156.318C324.156 155.607 323.345 155.252 322.383 155.252C321.759 155.252 321.2 155.391 320.706 155.668C320.212 155.937 319.827 156.314 319.549 156.799C319.272 157.284 319.133 157.835 319.133 158.45C319.133 159.065 319.272 159.616 319.549 160.101C319.827 160.586 320.212 160.968 320.706 161.245C321.2 161.514 321.759 161.648 322.383 161.648C323.345 161.648 324.156 161.288 324.814 160.569L325.906 161.609C325.482 162.103 324.957 162.48 324.333 162.74C323.718 163 323.038 163.13 322.292 163.13ZM329.27 155.33H326.254V153.9H333.976V155.33H330.96V163H329.27V155.33ZM338.992 163.13C337.736 163.13 336.756 162.779 336.054 162.077C335.352 161.366 335.001 160.352 335.001 159.035V153.9H336.691V158.97C336.691 160.755 337.463 161.648 339.005 161.648C340.539 161.648 341.306 160.755 341.306 158.97V153.9H342.97V159.035C342.97 160.352 342.619 161.366 341.917 162.077C341.224 162.779 340.249 163.13 338.992 163.13ZM351.291 163L349.432 160.335C349.354 160.344 349.237 160.348 349.081 160.348H347.027V163H345.337V153.9H349.081C349.87 153.9 350.555 154.03 351.135 154.29C351.725 154.55 352.175 154.923 352.487 155.408C352.799 155.893 352.955 156.47 352.955 157.137C352.955 157.822 352.786 158.411 352.448 158.905C352.119 159.399 351.642 159.767 351.018 160.01L353.111 163H351.291ZM351.252 157.137C351.252 156.556 351.062 156.11 350.68 155.798C350.299 155.486 349.74 155.33 349.003 155.33H347.027V158.957H349.003C349.74 158.957 350.299 158.801 350.68 158.489C351.062 158.168 351.252 157.718 351.252 157.137ZM361.671 161.583V163H354.846V153.9H361.489V155.317H356.536V157.683H360.93V159.074H356.536V161.583H361.671Z" fill="#202020"/>
<path d="M247.666 72.474V74H240.316V64.2H247.47V65.726H242.136V68.274H246.868V69.772H242.136V72.474H247.666ZM254.19 74.14C253.201 74.14 252.305 73.9253 251.502 73.496C250.709 73.0573 250.083 72.4553 249.626 71.69C249.178 70.9247 248.954 70.0613 248.954 69.1C248.954 68.1387 249.183 67.2753 249.64 66.51C250.097 65.7447 250.723 65.1473 251.516 64.718C252.319 64.2793 253.215 64.06 254.204 64.06C255.007 64.06 255.739 64.2 256.402 64.48C257.065 64.76 257.625 65.166 258.082 65.698L256.906 66.804C256.197 66.0387 255.324 65.656 254.288 65.656C253.616 65.656 253.014 65.8053 252.482 66.104C251.95 66.3933 251.535 66.7993 251.236 67.322C250.937 67.8447 250.788 68.4373 250.788 69.1C250.788 69.7627 250.937 70.3553 251.236 70.878C251.535 71.4007 251.95 71.8113 252.482 72.11C253.014 72.3993 253.616 72.544 254.288 72.544C255.324 72.544 256.197 72.1567 256.906 71.382L258.082 72.502C257.625 73.034 257.06 73.44 256.388 73.72C255.725 74 254.993 74.14 254.19 74.14ZM264.199 74.14C263.2 74.14 262.299 73.9253 261.497 73.496C260.694 73.0573 260.064 72.4553 259.607 71.69C259.149 70.9153 258.921 70.052 258.921 69.1C258.921 68.148 259.149 67.2893 259.607 66.524C260.064 65.7493 260.694 65.1473 261.497 64.718C262.299 64.2793 263.2 64.06 264.199 64.06C265.197 64.06 266.098 64.2793 266.901 64.718C267.703 65.1473 268.333 65.7447 268.791 66.51C269.248 67.2753 269.477 68.1387 269.477 69.1C269.477 70.0613 269.248 70.9247 268.791 71.69C268.333 72.4553 267.703 73.0573 266.901 73.496C266.098 73.9253 265.197 74.14 264.199 74.14ZM264.199 72.544C264.852 72.544 265.44 72.3993 265.963 72.11C266.485 71.8113 266.896 71.4007 267.195 70.878C267.493 70.346 267.643 69.7533 267.643 69.1C267.643 68.4467 267.493 67.8587 267.195 67.336C266.896 66.804 266.485 66.3933 265.963 66.104C265.44 65.8053 264.852 65.656 264.199 65.656C263.545 65.656 262.957 65.8053 262.435 66.104C261.912 66.3933 261.501 66.804 261.203 67.336C260.904 67.8587 260.755 68.4467 260.755 69.1C260.755 69.7533 260.904 70.346 261.203 70.878C261.501 71.4007 261.912 71.8113 262.435 72.11C262.957 72.3993 263.545 72.544 264.199 72.544ZM280.114 64.2V74H278.616L273.212 67.364V74H271.406V64.2H272.904L278.308 70.836V64.2H280.114ZM287.318 74.14C286.319 74.14 285.418 73.9253 284.616 73.496C283.813 73.0573 283.183 72.4553 282.726 71.69C282.268 70.9153 282.04 70.052 282.04 69.1C282.04 68.148 282.268 67.2893 282.726 66.524C283.183 65.7493 283.813 65.1473 284.616 64.718C285.418 64.2793 286.319 64.06 287.318 64.06C288.316 64.06 289.217 64.2793 290.02 64.718C290.822 65.1473 291.452 65.7447 291.91 66.51C292.367 67.2753 292.596 68.1387 292.596 69.1C292.596 70.0613 292.367 70.9247 291.91 71.69C291.452 72.4553 290.822 73.0573 290.02 73.496C289.217 73.9253 288.316 74.14 287.318 74.14ZM287.318 72.544C287.971 72.544 288.559 72.3993 289.082 72.11C289.604 71.8113 290.015 71.4007 290.314 70.878C290.612 70.346 290.762 69.7533 290.762 69.1C290.762 68.4467 290.612 67.8587 290.314 67.336C290.015 66.804 289.604 66.3933 289.082 66.104C288.559 65.8053 287.971 65.656 287.318 65.656C286.664 65.656 286.076 65.8053 285.554 66.104C285.031 66.3933 284.62 66.804 284.322 67.336C284.023 67.8587 283.874 68.4467 283.874 69.1C283.874 69.7533 284.023 70.346 284.322 70.878C284.62 71.4007 285.031 71.8113 285.554 72.11C286.076 72.3993 286.664 72.544 287.318 72.544ZM303.527 74L303.513 67.504L300.293 72.88H299.481L296.261 67.588V74H294.525V64.2H296.023L299.915 70.696L303.737 64.2H305.235L305.249 74H303.527ZM307.896 64.2H309.716V74H307.896V64.2ZM316.903 74.14C315.913 74.14 315.017 73.9253 314.215 73.496C313.421 73.0573 312.796 72.4553 312.339 71.69C311.891 70.9247 311.667 70.0613 311.667 69.1C311.667 68.1387 311.895 67.2753 312.353 66.51C312.81 65.7447 313.435 65.1473 314.229 64.718C315.031 64.2793 315.927 64.06 316.917 64.06C317.719 64.06 318.452 64.2 319.115 64.48C319.777 64.76 320.337 65.166 320.795 65.698L319.619 66.804C318.909 66.0387 318.037 65.656 317.001 65.656C316.329 65.656 315.727 65.8053 315.195 66.104C314.663 66.3933 314.247 66.7993 313.949 67.322C313.65 67.8447 313.501 68.4373 313.501 69.1C313.501 69.7627 313.65 70.3553 313.949 70.878C314.247 71.4007 314.663 71.8113 315.195 72.11C315.727 72.3993 316.329 72.544 317.001 72.544C318.037 72.544 318.909 72.1567 319.619 71.382L320.795 72.502C320.337 73.034 319.773 73.44 319.101 73.72C318.438 74 317.705 74.14 316.903 74.14ZM325.522 74.14C324.766 74.14 324.033 74.0327 323.324 73.818C322.624 73.6033 322.069 73.3187 321.658 72.964L322.288 71.55C322.689 71.8673 323.179 72.1287 323.758 72.334C324.346 72.53 324.934 72.628 325.522 72.628C326.25 72.628 326.791 72.5113 327.146 72.278C327.51 72.0447 327.692 71.7367 327.692 71.354C327.692 71.074 327.589 70.8453 327.384 70.668C327.188 70.4813 326.936 70.3367 326.628 70.234C326.32 70.1313 325.9 70.0147 325.368 69.884C324.621 69.7067 324.015 69.5293 323.548 69.352C323.091 69.1747 322.694 68.8993 322.358 68.526C322.031 68.1433 321.868 67.63 321.868 66.986C321.868 66.4447 322.013 65.9547 322.302 65.516C322.601 65.068 323.044 64.7133 323.632 64.452C324.229 64.1907 324.957 64.06 325.816 64.06C326.413 64.06 327.001 64.1347 327.58 64.284C328.159 64.4333 328.658 64.648 329.078 64.928L328.504 66.342C328.075 66.09 327.627 65.8987 327.16 65.768C326.693 65.6373 326.241 65.572 325.802 65.572C325.083 65.572 324.547 65.6933 324.192 65.936C323.847 66.1787 323.674 66.5007 323.674 66.902C323.674 67.182 323.772 67.4107 323.968 67.588C324.173 67.7653 324.43 67.9053 324.738 68.008C325.046 68.1107 325.466 68.2273 325.998 68.358C326.726 68.526 327.323 68.7033 327.79 68.89C328.257 69.0673 328.653 69.3427 328.98 69.716C329.316 70.0893 329.484 70.5933 329.484 71.228C329.484 71.7693 329.335 72.2593 329.036 72.698C328.747 73.1367 328.303 73.4867 327.706 73.748C327.109 74.0093 326.381 74.14 325.522 74.14Z" fill="#202020"/>
<path d="M256.966 93.9C257.755 93.9 258.439 94.03 259.02 94.29C259.609 94.55 260.06 94.9227 260.372 95.408C260.684 95.8933 260.84 96.4697 260.84 97.137C260.84 97.7957 260.684 98.372 260.372 98.866C260.06 99.3513 259.609 99.724 259.02 99.984C258.439 100.244 257.755 100.374 256.966 100.374H254.912V103H253.222V93.9H256.966ZM256.888 98.944C257.625 98.944 258.184 98.788 258.565 98.476C258.946 98.164 259.137 97.7177 259.137 97.137C259.137 96.5563 258.946 96.11 258.565 95.798C258.184 95.486 257.625 95.33 256.888 95.33H254.912V98.944H256.888ZM266.441 103.13C265.184 103.13 264.205 102.779 263.503 102.077C262.801 101.366 262.45 100.352 262.45 99.035V93.9H264.14V98.97C264.14 100.755 264.911 101.648 266.454 101.648C267.988 101.648 268.755 100.755 268.755 98.97V93.9H270.419V99.035C270.419 100.352 270.068 101.366 269.366 102.077C268.672 102.779 267.697 103.13 266.441 103.13ZM279.233 98.268C279.736 98.4327 280.135 98.71 280.429 99.1C280.724 99.4813 280.871 99.958 280.871 100.53C280.871 101.319 280.568 101.93 279.961 102.363C279.355 102.788 278.471 103 277.309 103H272.785V93.9H277.049C278.124 93.9 278.952 94.1123 279.532 94.537C280.113 94.953 280.403 95.5293 280.403 96.266C280.403 96.7167 280.299 97.1153 280.091 97.462C279.883 97.8087 279.597 98.0773 279.233 98.268ZM274.475 95.226V97.735H276.867C277.457 97.735 277.907 97.631 278.219 97.423C278.54 97.2063 278.7 96.8943 278.7 96.487C278.7 96.071 278.54 95.759 278.219 95.551C277.907 95.3343 277.457 95.226 276.867 95.226H274.475ZM277.205 101.674C278.514 101.674 279.168 101.236 279.168 100.361C279.168 99.4857 278.514 99.048 277.205 99.048H274.475V101.674H277.205ZM282.675 93.9H284.365V101.57H289.123V103H282.675V93.9ZM290.457 93.9H292.147V103H290.457V93.9ZM298.821 103.13C297.902 103.13 297.07 102.931 296.325 102.532C295.588 102.125 295.007 101.566 294.583 100.855C294.167 100.144 293.959 99.3427 293.959 98.45C293.959 97.5573 294.171 96.7557 294.596 96.045C295.02 95.3343 295.601 94.7797 296.338 94.381C297.083 93.9737 297.915 93.77 298.834 93.77C299.579 93.77 300.259 93.9 300.875 94.16C301.49 94.42 302.01 94.797 302.435 95.291L301.343 96.318C300.684 95.6073 299.874 95.252 298.912 95.252C298.288 95.252 297.729 95.3907 297.235 95.668C296.741 95.9367 296.355 96.3137 296.078 96.799C295.8 97.2843 295.662 97.8347 295.662 98.45C295.662 99.0653 295.8 99.6157 296.078 100.101C296.355 100.586 296.741 100.968 297.235 101.245C297.729 101.514 298.288 101.648 298.912 101.648C299.874 101.648 300.684 101.288 301.343 100.569L302.435 101.609C302.01 102.103 301.486 102.48 300.862 102.74C300.246 103 299.566 103.13 298.821 103.13ZM315.733 93.9V103H314.043V99.1H309.337V103H307.647V93.9H309.337V97.657H314.043V93.9H315.733ZM324.996 101.583V103H318.171V93.9H324.814V95.317H319.861V97.683H324.255V99.074H319.861V101.583H324.996ZM332.782 100.894H328.232L327.335 103H325.593L329.688 93.9H331.352L335.46 103H333.692L332.782 100.894ZM332.223 99.568L330.507 95.59L328.804 99.568H332.223ZM336.618 93.9H338.308V101.57H343.066V103H336.618V93.9ZM345.395 95.33H342.379V93.9H350.101V95.33H347.085V103H345.395V95.33ZM359.455 93.9V103H357.765V99.1H353.059V103H351.369V93.9H353.059V97.657H357.765V93.9H359.455Z" fill="#202020"/>
<path d="M264.966 123.9C265.755 123.9 266.439 124.03 267.02 124.29C267.609 124.55 268.06 124.923 268.372 125.408C268.684 125.893 268.84 126.47 268.84 127.137C268.84 127.796 268.684 128.372 268.372 128.866C268.06 129.351 267.609 129.724 267.02 129.984C266.439 130.244 265.755 130.374 264.966 130.374H262.912V133H261.222V123.9H264.966ZM264.888 128.944C265.625 128.944 266.184 128.788 266.565 128.476C266.946 128.164 267.137 127.718 267.137 127.137C267.137 126.556 266.946 126.11 266.565 125.798C266.184 125.486 265.625 125.33 264.888 125.33H262.912V128.944H264.888ZM274.906 133.13C273.978 133.13 273.142 132.931 272.397 132.532C271.651 132.125 271.066 131.566 270.642 130.855C270.217 130.136 270.005 129.334 270.005 128.45C270.005 127.566 270.217 126.769 270.642 126.058C271.066 125.339 271.651 124.78 272.397 124.381C273.142 123.974 273.978 123.77 274.906 123.77C275.833 123.77 276.669 123.974 277.415 124.381C278.16 124.78 278.745 125.334 279.17 126.045C279.594 126.756 279.807 127.557 279.807 128.45C279.807 129.343 279.594 130.144 279.17 130.855C278.745 131.566 278.16 132.125 277.415 132.532C276.669 132.931 275.833 133.13 274.906 133.13ZM274.906 131.648C275.512 131.648 276.058 131.514 276.544 131.245C277.029 130.968 277.41 130.586 277.688 130.101C277.965 129.607 278.104 129.057 278.104 128.45C278.104 127.843 277.965 127.297 277.688 126.812C277.41 126.318 277.029 125.937 276.544 125.668C276.058 125.391 275.512 125.252 274.906 125.252C274.299 125.252 273.753 125.391 273.268 125.668C272.782 125.937 272.401 126.318 272.124 126.812C271.846 127.297 271.708 127.843 271.708 128.45C271.708 129.057 271.846 129.607 272.124 130.101C272.401 130.586 272.782 130.968 273.268 131.245C273.753 131.514 274.299 131.648 274.906 131.648ZM281.598 123.9H283.288V131.57H288.046V133H281.598V123.9ZM289.38 123.9H291.07V133H289.38V123.9ZM295.378 125.33H292.362V123.9H300.084V125.33H297.068V133H295.378V125.33ZM301.352 123.9H303.042V133H301.352V123.9ZM309.715 133.13C308.797 133.13 307.965 132.931 307.219 132.532C306.483 132.125 305.902 131.566 305.477 130.855C305.061 130.144 304.853 129.343 304.853 128.45C304.853 127.557 305.066 126.756 305.49 126.045C305.915 125.334 306.496 124.78 307.232 124.381C307.978 123.974 308.81 123.77 309.728 123.77C310.474 123.77 311.154 123.9 311.769 124.16C312.385 124.42 312.905 124.797 313.329 125.291L312.237 126.318C311.579 125.607 310.768 125.252 309.806 125.252C309.182 125.252 308.623 125.391 308.129 125.668C307.635 125.937 307.25 126.314 306.972 126.799C306.695 127.284 306.556 127.835 306.556 128.45C306.556 129.065 306.695 129.616 306.972 130.101C307.25 130.586 307.635 130.968 308.129 131.245C308.623 131.514 309.182 131.648 309.806 131.648C310.768 131.648 311.579 131.288 312.237 130.569L313.329 131.609C312.905 132.103 312.38 132.48 311.756 132.74C311.141 133 310.461 133.13 309.715 133.13ZM320.66 130.894H316.11L315.213 133H313.471L317.566 123.9H319.23L323.338 133H321.57L320.66 130.894ZM320.101 129.568L318.385 125.59L316.682 129.568H320.101ZM324.495 123.9H326.185V131.57H330.943V133H324.495V123.9ZM338.691 133.13C337.989 133.13 337.309 133.03 336.65 132.831C336 132.632 335.485 132.367 335.103 132.038L335.688 130.725C336.061 131.02 336.516 131.262 337.053 131.453C337.599 131.635 338.145 131.726 338.691 131.726C339.367 131.726 339.87 131.618 340.199 131.401C340.537 131.184 340.706 130.898 340.706 130.543C340.706 130.283 340.611 130.071 340.42 129.906C340.238 129.733 340.004 129.598 339.718 129.503C339.432 129.408 339.042 129.299 338.548 129.178C337.855 129.013 337.292 128.849 336.858 128.684C336.434 128.519 336.065 128.264 335.753 127.917C335.45 127.562 335.298 127.085 335.298 126.487C335.298 125.984 335.433 125.529 335.701 125.122C335.979 124.706 336.39 124.377 336.936 124.134C337.491 123.891 338.167 123.77 338.964 123.77C339.519 123.77 340.065 123.839 340.602 123.978C341.14 124.117 341.603 124.316 341.993 124.576L341.46 125.889C341.062 125.655 340.646 125.477 340.212 125.356C339.779 125.235 339.359 125.174 338.951 125.174C338.284 125.174 337.786 125.287 337.456 125.512C337.136 125.737 336.975 126.036 336.975 126.409C336.975 126.669 337.066 126.881 337.248 127.046C337.439 127.211 337.677 127.341 337.963 127.436C338.249 127.531 338.639 127.64 339.133 127.761C339.809 127.917 340.364 128.082 340.797 128.255C341.231 128.42 341.599 128.675 341.902 129.022C342.214 129.369 342.37 129.837 342.37 130.426C342.37 130.929 342.232 131.384 341.954 131.791C341.686 132.198 341.274 132.523 340.719 132.766C340.165 133.009 339.489 133.13 338.691 133.13ZM348.258 133.13C347.34 133.13 346.508 132.931 345.762 132.532C345.026 132.125 344.445 131.566 344.02 130.855C343.604 130.144 343.396 129.343 343.396 128.45C343.396 127.557 343.609 126.756 344.033 126.045C344.458 125.334 345.039 124.78 345.775 124.381C346.521 123.974 347.353 123.77 348.271 123.77C349.017 123.77 349.697 123.9 350.312 124.16C350.928 124.42 351.448 124.797 351.872 125.291L350.78 126.318C350.122 125.607 349.311 125.252 348.349 125.252C347.725 125.252 347.166 125.391 346.672 125.668C346.178 125.937 345.793 126.314 345.515 126.799C345.238 127.284 345.099 127.835 345.099 128.45C345.099 129.065 345.238 129.616 345.515 130.101C345.793 130.586 346.178 130.968 346.672 131.245C347.166 131.514 347.725 131.648 348.349 131.648C349.311 131.648 350.122 131.288 350.78 130.569L351.872 131.609C351.448 132.103 350.923 132.48 350.299 132.74C349.684 133 349.004 133.13 348.258 133.13ZM353.492 123.9H355.182V133H353.492V123.9ZM364.468 131.583V133H357.643V123.9H364.286V125.317H359.333V127.683H363.727V129.074H359.333V131.583H364.468ZM374.438 123.9V133H373.047L368.029 126.838V133H366.352V123.9H367.743L372.761 130.062V123.9H374.438ZM381.088 133.13C380.17 133.13 379.338 132.931 378.592 132.532C377.856 132.125 377.275 131.566 376.85 130.855C376.434 130.144 376.226 129.343 376.226 128.45C376.226 127.557 376.439 126.756 376.863 126.045C377.288 125.334 377.869 124.78 378.605 124.381C379.351 123.974 380.183 123.77 381.101 123.77C381.847 123.77 382.527 123.9 383.142 124.16C383.758 124.42 384.278 124.797 384.702 125.291L383.61 126.318C382.952 125.607 382.141 125.252 381.179 125.252C380.555 125.252 379.996 125.391 379.502 125.668C379.008 125.937 378.623 126.314 378.345 126.799C378.068 127.284 377.929 127.835 377.929 128.45C377.929 129.065 378.068 129.616 378.345 130.101C378.623 130.586 379.008 130.968 379.502 131.245C379.996 131.514 380.555 131.648 381.179 131.648C382.141 131.648 382.952 131.288 383.61 130.569L384.702 131.609C384.278 132.103 383.753 132.48 383.129 132.74C382.514 133 381.834 133.13 381.088 133.13ZM393.147 131.583V133H386.322V123.9H392.965V125.317H388.012V127.683H392.406V129.074H388.012V131.583H393.147Z" fill="#202020"/>
<path d="M221.436 248.346H223.035V251.973C222.567 252.346 222.021 252.632 221.397 252.831C220.773 253.03 220.132 253.13 219.473 253.13C218.546 253.13 217.709 252.931 216.964 252.532C216.219 252.125 215.634 251.566 215.209 250.855C214.784 250.144 214.572 249.343 214.572 248.45C214.572 247.557 214.784 246.756 215.209 246.045C215.634 245.334 216.219 244.78 216.964 244.381C217.718 243.974 218.563 243.77 219.499 243.77C220.262 243.77 220.955 243.896 221.579 244.147C222.203 244.398 222.727 244.767 223.152 245.252L222.086 246.292C221.393 245.599 220.556 245.252 219.577 245.252C218.936 245.252 218.364 245.386 217.861 245.655C217.367 245.924 216.977 246.301 216.691 246.786C216.414 247.271 216.275 247.826 216.275 248.45C216.275 249.057 216.414 249.603 216.691 250.088C216.977 250.573 217.367 250.955 217.861 251.232C218.364 251.509 218.931 251.648 219.564 251.648C220.275 251.648 220.899 251.492 221.436 251.18V248.346ZM225.264 243.9H226.954V251.57H231.712V253H225.264V243.9ZM237.132 253.13C236.205 253.13 235.369 252.931 234.623 252.532C233.878 252.125 233.293 251.566 232.868 250.855C232.444 250.136 232.231 249.334 232.231 248.45C232.231 247.566 232.444 246.769 232.868 246.058C233.293 245.339 233.878 244.78 234.623 244.381C235.369 243.974 236.205 243.77 237.132 243.77C238.06 243.77 238.896 243.974 239.641 244.381C240.387 244.78 240.972 245.334 241.396 246.045C241.821 246.756 242.033 247.557 242.033 248.45C242.033 249.343 241.821 250.144 241.396 250.855C240.972 251.566 240.387 252.125 239.641 252.532C238.896 252.931 238.06 253.13 237.132 253.13ZM237.132 251.648C237.739 251.648 238.285 251.514 238.77 251.245C239.256 250.968 239.637 250.586 239.914 250.101C240.192 249.607 240.33 249.057 240.33 248.45C240.33 247.843 240.192 247.297 239.914 246.812C239.637 246.318 239.256 245.937 238.77 245.668C238.285 245.391 237.739 245.252 237.132 245.252C236.526 245.252 235.98 245.391 235.494 245.668C235.009 245.937 234.628 246.318 234.35 246.812C234.073 247.297 233.934 247.843 233.934 248.45C233.934 249.057 234.073 249.607 234.35 250.101C234.628 250.586 235.009 250.968 235.494 251.245C235.98 251.514 236.526 251.648 237.132 251.648ZM250.273 248.268C250.775 248.433 251.174 248.71 251.469 249.1C251.763 249.481 251.911 249.958 251.911 250.53C251.911 251.319 251.607 251.93 251.001 252.363C250.394 252.788 249.51 253 248.349 253H243.825V243.9H248.089C249.163 243.9 249.991 244.112 250.572 244.537C251.152 244.953 251.443 245.529 251.443 246.266C251.443 246.717 251.339 247.115 251.131 247.462C250.923 247.809 250.637 248.077 250.273 248.268ZM245.515 245.226V247.735H247.907C248.496 247.735 248.947 247.631 249.259 247.423C249.579 247.206 249.74 246.894 249.74 246.487C249.74 246.071 249.579 245.759 249.259 245.551C248.947 245.334 248.496 245.226 247.907 245.226H245.515ZM248.245 251.674C249.553 251.674 250.208 251.236 250.208 250.361C250.208 249.486 249.553 249.048 248.245 249.048H245.515V251.674H248.245ZM259.616 250.894H255.066L254.169 253H252.427L256.522 243.9H258.186L262.294 253H260.526L259.616 250.894ZM259.057 249.568L257.341 245.59L255.638 249.568H259.057ZM263.451 243.9H265.141V251.57H269.899V253H263.451V243.9ZM278.57 243.9C279.359 243.9 280.044 244.03 280.624 244.29C281.214 244.55 281.664 244.923 281.976 245.408C282.288 245.893 282.444 246.47 282.444 247.137C282.444 247.796 282.288 248.372 281.976 248.866C281.664 249.351 281.214 249.724 280.624 249.984C280.044 250.244 279.359 250.374 278.57 250.374H276.516V253H274.826V243.9H278.57ZM278.492 248.944C279.229 248.944 279.788 248.788 280.169 248.476C280.551 248.164 280.741 247.718 280.741 247.137C280.741 246.556 280.551 246.11 280.169 245.798C279.788 245.486 279.229 245.33 278.492 245.33H276.516V248.944H278.492ZM288.51 253.13C287.583 253.13 286.746 252.931 286.001 252.532C285.256 252.125 284.671 251.566 284.246 250.855C283.821 250.136 283.609 249.334 283.609 248.45C283.609 247.566 283.821 246.769 284.246 246.058C284.671 245.339 285.256 244.78 286.001 244.381C286.746 243.974 287.583 243.77 288.51 243.77C289.437 243.77 290.274 243.974 291.019 244.381C291.764 244.78 292.349 245.334 292.774 246.045C293.199 246.756 293.411 247.557 293.411 248.45C293.411 249.343 293.199 250.144 292.774 250.855C292.349 251.566 291.764 252.125 291.019 252.532C290.274 252.931 289.437 253.13 288.51 253.13ZM288.51 251.648C289.117 251.648 289.663 251.514 290.148 251.245C290.633 250.968 291.015 250.586 291.292 250.101C291.569 249.607 291.708 249.057 291.708 248.45C291.708 247.843 291.569 247.297 291.292 246.812C291.015 246.318 290.633 245.937 290.148 245.668C289.663 245.391 289.117 245.252 288.51 245.252C287.903 245.252 287.357 245.391 286.872 245.668C286.387 245.937 286.005 246.318 285.728 246.812C285.451 247.297 285.312 247.843 285.312 248.45C285.312 249.057 285.451 249.607 285.728 250.101C286.005 250.586 286.387 250.968 286.872 251.245C287.357 251.514 287.903 251.648 288.51 251.648ZM303.23 243.9L299.265 253H297.601L293.623 243.9H295.456L298.485 250.92L301.54 243.9H303.23ZM311.016 251.583V253H304.191V243.9H310.834V245.317H305.881V247.683H310.275V249.074H305.881V251.583H311.016ZM318.854 253L316.995 250.335C316.917 250.344 316.8 250.348 316.644 250.348H314.59V253H312.9V243.9H316.644C317.432 243.9 318.117 244.03 318.698 244.29C319.287 244.55 319.738 244.923 320.05 245.408C320.362 245.893 320.518 246.47 320.518 247.137C320.518 247.822 320.349 248.411 320.011 248.905C319.681 249.399 319.205 249.767 318.581 250.01L320.674 253H318.854ZM318.815 247.137C318.815 246.556 318.624 246.11 318.243 245.798C317.861 245.486 317.302 245.33 316.566 245.33H314.59V248.957H316.566C317.302 248.957 317.861 248.801 318.243 248.489C318.624 248.168 318.815 247.718 318.815 247.137ZM324.128 245.33H321.112V243.9H328.834V245.33H325.818V253H324.128V245.33ZM333.901 249.789V253H332.211V249.815L328.636 243.9H330.443L333.108 248.333L335.799 243.9H337.463L333.901 249.789ZM348.987 253.143L347.843 252.038C346.994 252.766 345.976 253.13 344.788 253.13C344.156 253.13 343.588 253.026 343.085 252.818C342.583 252.61 342.188 252.324 341.902 251.96C341.616 251.587 341.473 251.167 341.473 250.699C341.473 250.136 341.638 249.642 341.967 249.217C342.297 248.784 342.834 248.359 343.579 247.943C343.215 247.579 342.955 247.241 342.799 246.929C342.643 246.608 342.565 246.279 342.565 245.941C342.565 245.3 342.804 244.784 343.28 244.394C343.766 243.995 344.407 243.796 345.204 243.796C345.941 243.796 346.53 243.978 346.972 244.342C347.414 244.697 347.635 245.183 347.635 245.798C347.635 246.266 347.488 246.682 347.193 247.046C346.907 247.41 346.435 247.778 345.776 248.151L347.739 250.023C347.956 249.598 348.125 249.087 348.246 248.489L349.559 248.918C349.386 249.724 349.113 250.417 348.74 250.998L349.884 252.09L348.987 253.143ZM345.204 244.953C344.849 244.953 344.567 245.044 344.359 245.226C344.151 245.399 344.047 245.629 344.047 245.915C344.047 246.123 344.104 246.322 344.216 246.513C344.329 246.695 344.546 246.946 344.866 247.267C345.386 246.981 345.746 246.734 345.945 246.526C346.153 246.309 346.257 246.075 346.257 245.824C346.257 245.555 346.162 245.343 345.971 245.187C345.789 245.031 345.534 244.953 345.204 244.953ZM344.905 251.804C345.659 251.804 346.318 251.574 346.881 251.115L344.476 248.814C343.956 249.1 343.588 249.377 343.371 249.646C343.163 249.906 343.059 250.201 343.059 250.53C343.059 250.911 343.228 251.219 343.566 251.453C343.904 251.687 344.351 251.804 344.905 251.804ZM358.678 243.9C359.467 243.9 360.151 244.03 360.732 244.29C361.321 244.55 361.772 244.923 362.084 245.408C362.396 245.893 362.552 246.47 362.552 247.137C362.552 247.796 362.396 248.372 362.084 248.866C361.772 249.351 361.321 249.724 360.732 249.984C360.151 250.244 359.467 250.374 358.678 250.374H356.624V253H354.934V243.9H358.678ZM358.6 248.944C359.337 248.944 359.896 248.788 360.277 248.476C360.658 248.164 360.849 247.718 360.849 247.137C360.849 246.556 360.658 246.11 360.277 245.798C359.896 245.486 359.337 245.33 358.6 245.33H356.624V248.944H358.6ZM370.194 253L368.335 250.335C368.257 250.344 368.14 250.348 367.984 250.348H365.93V253H364.24V243.9H367.984C368.772 243.9 369.457 244.03 370.038 244.29C370.627 244.55 371.078 244.923 371.39 245.408C371.702 245.893 371.858 246.47 371.858 247.137C371.858 247.822 371.689 248.411 371.351 248.905C371.021 249.399 370.545 249.767 369.921 250.01L372.014 253H370.194ZM370.155 247.137C370.155 246.556 369.964 246.11 369.583 245.798C369.201 245.486 368.642 245.33 367.906 245.33H365.93V248.957H367.906C368.642 248.957 369.201 248.801 369.583 248.489C369.964 248.168 370.155 247.718 370.155 247.137ZM379.65 250.894H375.1L374.203 253H372.461L376.556 243.9H378.22L382.328 253H380.56L379.65 250.894ZM379.091 249.568L377.375 245.59L375.672 249.568H379.091ZM387.571 253.13C386.652 253.13 385.82 252.931 385.075 252.532C384.338 252.125 383.757 251.566 383.333 250.855C382.917 250.144 382.709 249.343 382.709 248.45C382.709 247.557 382.921 246.756 383.346 246.045C383.77 245.334 384.351 244.78 385.088 244.381C385.833 243.974 386.665 243.77 387.584 243.77C388.329 243.77 389.009 243.9 389.625 244.16C390.24 244.42 390.76 244.797 391.185 245.291L390.093 246.318C389.434 245.607 388.624 245.252 387.662 245.252C387.038 245.252 386.479 245.391 385.985 245.668C385.491 245.937 385.105 246.314 384.828 246.799C384.55 247.284 384.412 247.835 384.412 248.45C384.412 249.065 384.55 249.616 384.828 250.101C385.105 250.586 385.491 250.968 385.985 251.245C386.479 251.514 387.038 251.648 387.662 251.648C388.624 251.648 389.434 251.288 390.093 250.569L391.185 251.609C390.76 252.103 390.236 252.48 389.612 252.74C388.996 253 388.316 253.13 387.571 253.13ZM394.548 245.33H391.532V243.9H399.254V245.33H396.238V253H394.548V245.33ZM400.523 243.9H402.213V253H400.523V243.9ZM408.886 253.13C407.967 253.13 407.135 252.931 406.39 252.532C405.653 252.125 405.073 251.566 404.648 250.855C404.232 250.144 404.024 249.343 404.024 248.45C404.024 247.557 404.236 246.756 404.661 246.045C405.086 245.334 405.666 244.78 406.403 244.381C407.148 243.974 407.98 243.77 408.899 243.77C409.644 243.77 410.325 243.9 410.94 244.16C411.555 244.42 412.075 244.797 412.5 245.291L411.408 246.318C410.749 245.607 409.939 245.252 408.977 245.252C408.353 245.252 407.794 245.391 407.3 245.668C406.806 245.937 406.42 246.314 406.143 246.799C405.866 247.284 405.727 247.835 405.727 248.45C405.727 249.065 405.866 249.616 406.143 250.101C406.42 250.586 406.806 250.968 407.3 251.245C407.794 251.514 408.353 251.648 408.977 251.648C409.939 251.648 410.749 251.288 411.408 250.569L412.5 251.609C412.075 252.103 411.551 252.48 410.927 252.74C410.312 253 409.631 253.13 408.886 253.13ZM420.944 251.583V253H414.119V243.9H420.762V245.317H415.809V247.683H420.203V249.074H415.809V251.583H420.944Z" fill="#202020"/>
<path d="M227.043 43.13C226.341 43.13 225.661 43.0303 225.002 42.831C224.352 42.6317 223.836 42.3673 223.455 42.038L224.04 40.725C224.413 41.0197 224.868 41.2623 225.405 41.453C225.951 41.635 226.497 41.726 227.043 41.726C227.719 41.726 228.222 41.6177 228.551 41.401C228.889 41.1843 229.058 40.8983 229.058 40.543C229.058 40.283 228.963 40.0707 228.772 39.906C228.59 39.7327 228.356 39.5983 228.07 39.503C227.784 39.4077 227.394 39.2993 226.9 39.178C226.207 39.0133 225.643 38.8487 225.21 38.684C224.785 38.5193 224.417 38.2637 224.105 37.917C223.802 37.5617 223.65 37.085 223.65 36.487C223.65 35.9843 223.784 35.5293 224.053 35.122C224.33 34.706 224.742 34.3767 225.288 34.134C225.843 33.8913 226.519 33.77 227.316 33.77C227.871 33.77 228.417 33.8393 228.954 33.978C229.491 34.1167 229.955 34.316 230.345 34.576L229.812 35.889C229.413 35.655 228.997 35.4773 228.564 35.356C228.131 35.2347 227.71 35.174 227.303 35.174C226.636 35.174 226.137 35.2867 225.808 35.512C225.487 35.7373 225.327 36.0363 225.327 36.409C225.327 36.669 225.418 36.8813 225.6 37.046C225.791 37.2107 226.029 37.3407 226.315 37.436C226.601 37.5313 226.991 37.6397 227.485 37.761C228.161 37.917 228.716 38.0817 229.149 38.255C229.582 38.4197 229.951 38.6753 230.254 39.022C230.566 39.3687 230.722 39.8367 230.722 40.426C230.722 40.9287 230.583 41.3837 230.306 41.791C230.037 42.1983 229.626 42.5233 229.071 42.766C228.516 43.0087 227.84 43.13 227.043 43.13ZM236.311 43.13C235.054 43.13 234.075 42.779 233.373 42.077C232.671 41.3663 232.32 40.3523 232.32 39.035V33.9H234.01V38.97C234.01 40.7553 234.781 41.648 236.324 41.648C237.858 41.648 238.625 40.7553 238.625 38.97V33.9H240.289V39.035C240.289 40.3523 239.938 41.3663 239.236 42.077C238.542 42.779 237.567 43.13 236.311 43.13ZM245.477 43.13C244.775 43.13 244.094 43.0303 243.436 42.831C242.786 42.6317 242.27 42.3673 241.889 42.038L242.474 40.725C242.846 41.0197 243.301 41.2623 243.839 41.453C244.385 41.635 244.931 41.726 245.477 41.726C246.153 41.726 246.655 41.6177 246.985 41.401C247.323 41.1843 247.492 40.8983 247.492 40.543C247.492 40.283 247.396 40.0707 247.206 39.906C247.024 39.7327 246.79 39.5983 246.504 39.503C246.218 39.4077 245.828 39.2993 245.334 39.178C244.64 39.0133 244.077 38.8487 243.644 38.684C243.219 38.5193 242.851 38.2637 242.539 37.917C242.235 37.5617 242.084 37.085 242.084 36.487C242.084 35.9843 242.218 35.5293 242.487 35.122C242.764 34.706 243.176 34.3767 243.722 34.134C244.276 33.8913 244.952 33.77 245.75 33.77C246.304 33.77 246.85 33.8393 247.388 33.978C247.925 34.1167 248.389 34.316 248.779 34.576L248.246 35.889C247.847 35.655 247.431 35.4773 246.998 35.356C246.564 35.2347 246.144 35.174 245.737 35.174C245.069 35.174 244.571 35.2867 244.242 35.512C243.921 35.7373 243.761 36.0363 243.761 36.409C243.761 36.669 243.852 36.8813 244.034 37.046C244.224 37.2107 244.463 37.3407 244.749 37.436C245.035 37.5313 245.425 37.6397 245.919 37.761C246.595 37.917 247.149 38.0817 247.583 38.255C248.016 38.4197 248.384 38.6753 248.688 39.022C249 39.3687 249.156 39.8367 249.156 40.426C249.156 40.9287 249.017 41.3837 248.74 41.791C248.471 42.1983 248.059 42.5233 247.505 42.766C246.95 43.0087 246.274 43.13 245.477 43.13ZM252.55 35.33H249.534V33.9H257.256V35.33H254.24V43H252.55V35.33ZM263.97 40.894H259.42L258.523 43H256.781L260.876 33.9H262.54L266.648 43H264.88L263.97 40.894ZM263.411 39.568L261.695 35.59L259.992 39.568H263.411ZM267.805 33.9H269.495V43H267.805V33.9ZM280.042 33.9V43H278.651L273.633 36.838V43H271.956V33.9H273.347L278.365 40.062V33.9H280.042ZM288.383 40.894H283.833L282.936 43H281.194L285.289 33.9H286.953L291.061 43H289.293L288.383 40.894ZM287.824 39.568L286.108 35.59L284.405 39.568H287.824ZM298.666 38.268C299.169 38.4327 299.567 38.71 299.862 39.1C300.157 39.4813 300.304 39.958 300.304 40.53C300.304 41.3187 300.001 41.9297 299.394 42.363C298.787 42.7877 297.903 43 296.742 43H292.218V33.9H296.482C297.557 33.9 298.384 34.1123 298.965 34.537C299.546 34.953 299.836 35.5293 299.836 36.266C299.836 36.7167 299.732 37.1153 299.524 37.462C299.316 37.8087 299.03 38.0773 298.666 38.268ZM293.908 35.226V37.735H296.3C296.889 37.735 297.34 37.631 297.652 37.423C297.973 37.2063 298.133 36.8943 298.133 36.487C298.133 36.071 297.973 35.759 297.652 35.551C297.34 35.3343 296.889 35.226 296.3 35.226H293.908ZM296.638 41.674C297.947 41.674 298.601 41.2363 298.601 40.361C298.601 39.4857 297.947 39.048 296.638 39.048H293.908V41.674H296.638ZM302.108 33.9H303.798V41.57H308.556V43H302.108V33.9ZM316.715 41.583V43H309.89V33.9H316.533V35.317H311.58V37.683H315.974V39.074H311.58V41.583H316.715ZM329.017 41.583V43H322.192V33.9H328.835V35.317H323.882V37.683H328.276V39.074H323.882V41.583H329.017ZM338.987 33.9V43H337.596L332.578 36.838V43H330.901V33.9H332.292L337.31 40.062V33.9H338.987ZM349.682 33.9L345.717 43H344.053L340.075 33.9H341.908L344.937 40.92L347.992 33.9H349.682ZM350.642 33.9H352.332V43H350.642V33.9ZM360.747 43L358.888 40.335C358.81 40.3437 358.693 40.348 358.537 40.348H356.483V43H354.793V33.9H358.537C359.326 33.9 360.011 34.03 360.591 34.29C361.181 34.55 361.631 34.9227 361.943 35.408C362.255 35.8933 362.411 36.4697 362.411 37.137C362.411 37.8217 362.242 38.411 361.904 38.905C361.575 39.399 361.098 39.7673 360.474 40.01L362.567 43H360.747ZM360.708 37.137C360.708 36.5563 360.518 36.11 360.136 35.798C359.755 35.486 359.196 35.33 358.459 35.33H356.483V38.957H358.459C359.196 38.957 359.755 38.801 360.136 38.489C360.518 38.1683 360.708 37.7177 360.708 37.137ZM368.553 43.13C367.626 43.13 366.789 42.9307 366.044 42.532C365.299 42.1247 364.714 41.5657 364.289 40.855C363.864 40.1357 363.652 39.334 363.652 38.45C363.652 37.566 363.864 36.7687 364.289 36.058C364.714 35.3387 365.299 34.7797 366.044 34.381C366.789 33.9737 367.626 33.77 368.553 33.77C369.48 33.77 370.317 33.9737 371.062 34.381C371.807 34.7797 372.392 35.3343 372.817 36.045C373.242 36.7557 373.454 37.5573 373.454 38.45C373.454 39.3427 373.242 40.1443 372.817 40.855C372.392 41.5657 371.807 42.1247 371.062 42.532C370.317 42.9307 369.48 43.13 368.553 43.13ZM368.553 41.648C369.16 41.648 369.706 41.5137 370.191 41.245C370.676 40.9677 371.058 40.5863 371.335 40.101C371.612 39.607 371.751 39.0567 371.751 38.45C371.751 37.8433 371.612 37.2973 371.335 36.812C371.058 36.318 370.676 35.9367 370.191 35.668C369.706 35.3907 369.16 35.252 368.553 35.252C367.946 35.252 367.4 35.3907 366.915 35.668C366.43 35.9367 366.048 36.318 365.771 36.812C365.494 37.2973 365.355 37.8433 365.355 38.45C365.355 39.0567 365.494 39.607 365.771 40.101C366.048 40.5863 366.43 40.9677 366.915 41.245C367.4 41.5137 367.946 41.648 368.553 41.648ZM383.331 33.9V43H381.94L376.922 36.838V43H375.245V33.9H376.636L381.654 40.062V33.9H383.331ZM386.134 43.091C385.839 43.091 385.588 42.9913 385.38 42.792C385.172 42.584 385.068 42.324 385.068 42.012C385.068 41.6913 385.168 41.4313 385.367 41.232C385.575 41.0327 385.831 40.933 386.134 40.933C386.437 40.933 386.689 41.0327 386.888 41.232C387.096 41.4313 387.2 41.6913 387.2 42.012C387.2 42.324 387.096 42.584 386.888 42.792C386.68 42.9913 386.429 43.091 386.134 43.091ZM392.536 33.9H396.514C397.485 33.9 398.347 34.0907 399.101 34.472C399.855 34.8447 400.44 35.3777 400.856 36.071C401.272 36.7557 401.48 37.5487 401.48 38.45C401.48 39.3513 401.272 40.1487 400.856 40.842C400.44 41.5267 399.855 42.0597 399.101 42.441C398.347 42.8137 397.485 43 396.514 43H392.536V33.9ZM396.436 41.57C397.104 41.57 397.689 41.4443 398.191 41.193C398.703 40.933 399.093 40.569 399.361 40.101C399.639 39.6243 399.777 39.074 399.777 38.45C399.777 37.826 399.639 37.28 399.361 36.812C399.093 36.3353 398.703 35.9713 398.191 35.72C397.689 35.46 397.104 35.33 396.436 35.33H394.226V41.57H396.436ZM410.102 41.583V43H403.277V33.9H409.92V35.317H404.967V37.683H409.361V39.074H404.967V41.583H410.102ZM414.807 43.13C414.105 43.13 413.424 43.0303 412.766 42.831C412.116 42.6317 411.6 42.3673 411.219 42.038L411.804 40.725C412.176 41.0197 412.631 41.2623 413.169 41.453C413.715 41.635 414.261 41.726 414.807 41.726C415.483 41.726 415.985 41.6177 416.315 41.401C416.653 41.1843 416.822 40.8983 416.822 40.543C416.822 40.283 416.726 40.0707 416.536 39.906C416.354 39.7327 416.12 39.5983 415.834 39.503C415.548 39.4077 415.158 39.2993 414.664 39.178C413.97 39.0133 413.407 38.8487 412.974 38.684C412.549 38.5193 412.181 38.2637 411.869 37.917C411.565 37.5617 411.414 37.085 411.414 36.487C411.414 35.9843 411.548 35.5293 411.817 35.122C412.094 34.706 412.506 34.3767 413.052 34.134C413.606 33.8913 414.282 33.77 415.08 33.77C415.634 33.77 416.18 33.8393 416.718 33.978C417.255 34.1167 417.719 34.316 418.109 34.576L417.576 35.889C417.177 35.655 416.761 35.4773 416.328 35.356C415.894 35.2347 415.474 35.174 415.067 35.174C414.399 35.174 413.901 35.2867 413.572 35.512C413.251 35.7373 413.091 36.0363 413.091 36.409C413.091 36.669 413.182 36.8813 413.364 37.046C413.554 37.2107 413.793 37.3407 414.079 37.436C414.365 37.5313 414.755 37.6397 415.249 37.761C415.925 37.917 416.479 38.0817 416.913 38.255C417.346 38.4197 417.714 38.6753 418.018 39.022C418.33 39.3687 418.486 39.8367 418.486 40.426C418.486 40.9287 418.347 41.3837 418.07 41.791C417.801 42.1983 417.389 42.5233 416.835 42.766C416.28 43.0087 415.604 43.13 414.807 43.13ZM420.161 33.9H421.851V43H420.161V33.9ZM430.527 38.346H432.126V41.973C431.658 42.3457 431.112 42.6317 430.488 42.831C429.864 43.0303 429.222 43.13 428.564 43.13C427.636 43.13 426.8 42.9307 426.055 42.532C425.309 42.1247 424.724 41.5657 424.3 40.855C423.875 40.1443 423.663 39.3427 423.663 38.45C423.663 37.5573 423.875 36.7557 424.3 36.045C424.724 35.3343 425.309 34.7797 426.055 34.381C426.809 33.9737 427.654 33.77 428.59 33.77C429.352 33.77 430.046 33.8957 430.67 34.147C431.294 34.3983 431.818 34.7667 432.243 35.252L431.177 36.292C430.483 35.5987 429.647 35.252 428.668 35.252C428.026 35.252 427.454 35.3863 426.952 35.655C426.458 35.9237 426.068 36.3007 425.782 36.786C425.504 37.2713 425.366 37.826 425.366 38.45C425.366 39.0567 425.504 39.6027 425.782 40.088C426.068 40.5733 426.458 40.9547 426.952 41.232C427.454 41.5093 428.022 41.648 428.655 41.648C429.365 41.648 429.989 41.492 430.527 41.18V38.346ZM442.441 33.9V43H441.05L436.032 36.838V43H434.355V33.9H435.746L440.764 40.062V33.9H442.441Z" fill="#202020"/>
<path d="M254.434 193.13C253.515 193.13 252.683 192.931 251.938 192.532C251.201 192.125 250.621 191.566 250.196 190.855C249.78 190.144 249.572 189.343 249.572 188.45C249.572 187.557 249.784 186.756 250.209 186.045C250.634 185.334 251.214 184.78 251.951 184.381C252.696 183.974 253.528 183.77 254.447 183.77C255.192 183.77 255.873 183.9 256.488 184.16C257.103 184.42 257.623 184.797 258.048 185.291L256.956 186.318C256.297 185.607 255.487 185.252 254.525 185.252C253.901 185.252 253.342 185.391 252.848 185.668C252.354 185.937 251.968 186.314 251.691 186.799C251.414 187.284 251.275 187.835 251.275 188.45C251.275 189.065 251.414 189.616 251.691 190.101C251.968 190.586 252.354 190.968 252.848 191.245C253.342 191.514 253.901 191.648 254.525 191.648C255.487 191.648 256.297 191.288 256.956 190.569L258.048 191.609C257.623 192.103 257.099 192.48 256.475 192.74C255.86 193 255.179 193.13 254.434 193.13ZM263.728 193.13C262.801 193.13 261.964 192.931 261.219 192.532C260.474 192.125 259.889 191.566 259.464 190.855C259.039 190.136 258.827 189.334 258.827 188.45C258.827 187.566 259.039 186.769 259.464 186.058C259.889 185.339 260.474 184.78 261.219 184.381C261.964 183.974 262.801 183.77 263.728 183.77C264.655 183.77 265.492 183.974 266.237 184.381C266.982 184.78 267.567 185.334 267.992 186.045C268.417 186.756 268.629 187.557 268.629 188.45C268.629 189.343 268.417 190.144 267.992 190.855C267.567 191.566 266.982 192.125 266.237 192.532C265.492 192.931 264.655 193.13 263.728 193.13ZM263.728 191.648C264.335 191.648 264.881 191.514 265.366 191.245C265.851 190.968 266.233 190.586 266.51 190.101C266.787 189.607 266.926 189.057 266.926 188.45C266.926 187.843 266.787 187.297 266.51 186.812C266.233 186.318 265.851 185.937 265.366 185.668C264.881 185.391 264.335 185.252 263.728 185.252C263.121 185.252 262.575 185.391 262.09 185.668C261.605 185.937 261.223 186.318 260.946 186.812C260.669 187.297 260.53 187.843 260.53 188.45C260.53 189.057 260.669 189.607 260.946 190.101C261.223 190.586 261.605 190.968 262.09 191.245C262.575 191.514 263.121 191.648 263.728 191.648ZM276.634 188.346H278.233V191.973C277.765 192.346 277.219 192.632 276.595 192.831C275.971 193.03 275.33 193.13 274.671 193.13C273.744 193.13 272.908 192.931 272.162 192.532C271.417 192.125 270.832 191.566 270.407 190.855C269.983 190.144 269.77 189.343 269.77 188.45C269.77 187.557 269.983 186.756 270.407 186.045C270.832 185.334 271.417 184.78 272.162 184.381C272.916 183.974 273.761 183.77 274.697 183.77C275.46 183.77 276.153 183.896 276.777 184.147C277.401 184.398 277.926 184.767 278.35 185.252L277.284 186.292C276.591 185.599 275.755 185.252 274.775 185.252C274.134 185.252 273.562 185.386 273.059 185.655C272.565 185.924 272.175 186.301 271.889 186.786C271.612 187.271 271.473 187.826 271.473 188.45C271.473 189.057 271.612 189.603 271.889 190.088C272.175 190.573 272.565 190.955 273.059 191.232C273.562 191.509 274.13 191.648 274.762 191.648C275.473 191.648 276.097 191.492 276.634 191.18V188.346ZM288.548 183.9V193H287.157L282.139 186.838V193H280.462V183.9H281.853L286.871 190.062V183.9H288.548ZM290.987 183.9H292.677V193H290.987V183.9ZM296.984 185.33H293.968V183.9H301.69V185.33H298.674V193H296.984V185.33ZM302.958 183.9H304.648V193H302.958V183.9ZM315.366 183.9L311.401 193H309.737L305.759 183.9H307.592L310.621 190.92L313.676 183.9H315.366ZM323.151 191.583V193H316.326V183.9H322.969V185.317H318.016V187.683H322.41V189.074H318.016V191.583H323.151ZM331.449 193.13C330.747 193.13 330.067 193.03 329.408 192.831C328.758 192.632 328.243 192.367 327.861 192.038L328.446 190.725C328.819 191.02 329.274 191.262 329.811 191.453C330.357 191.635 330.903 191.726 331.449 191.726C332.125 191.726 332.628 191.618 332.957 191.401C333.295 191.184 333.464 190.898 333.464 190.543C333.464 190.283 333.369 190.071 333.178 189.906C332.996 189.733 332.762 189.598 332.476 189.503C332.19 189.408 331.8 189.299 331.306 189.178C330.613 189.013 330.05 188.849 329.616 188.684C329.192 188.519 328.823 188.264 328.511 187.917C328.208 187.562 328.056 187.085 328.056 186.487C328.056 185.984 328.191 185.529 328.459 185.122C328.737 184.706 329.148 184.377 329.694 184.134C330.249 183.891 330.925 183.77 331.722 183.77C332.277 183.77 332.823 183.839 333.36 183.978C333.898 184.117 334.361 184.316 334.751 184.576L334.218 185.889C333.82 185.655 333.404 185.477 332.97 185.356C332.537 185.235 332.117 185.174 331.709 185.174C331.042 185.174 330.544 185.287 330.214 185.512C329.894 185.737 329.733 186.036 329.733 186.409C329.733 186.669 329.824 186.881 330.006 187.046C330.197 187.211 330.435 187.341 330.721 187.436C331.007 187.531 331.397 187.64 331.891 187.761C332.567 187.917 333.122 188.082 333.555 188.255C333.989 188.42 334.357 188.675 334.66 189.022C334.972 189.369 335.128 189.837 335.128 190.426C335.128 190.929 334.99 191.384 334.712 191.791C334.444 192.198 334.032 192.523 333.477 192.766C332.923 193.009 332.247 193.13 331.449 193.13ZM341.016 193.13C340.097 193.13 339.265 192.931 338.52 192.532C337.783 192.125 337.203 191.566 336.778 190.855C336.362 190.144 336.154 189.343 336.154 188.45C336.154 187.557 336.366 186.756 336.791 186.045C337.216 185.334 337.796 184.78 338.533 184.381C339.278 183.974 340.11 183.77 341.029 183.77C341.774 183.77 342.455 183.9 343.07 184.16C343.685 184.42 344.205 184.797 344.63 185.291L343.538 186.318C342.879 185.607 342.069 185.252 341.107 185.252C340.483 185.252 339.924 185.391 339.43 185.668C338.936 185.937 338.55 186.314 338.273 186.799C337.996 187.284 337.857 187.835 337.857 188.45C337.857 189.065 337.996 189.616 338.273 190.101C338.55 190.586 338.936 190.968 339.43 191.245C339.924 191.514 340.483 191.648 341.107 191.648C342.069 191.648 342.879 191.288 343.538 190.569L344.63 191.609C344.205 192.103 343.681 192.48 343.057 192.74C342.442 193 341.761 193.13 341.016 193.13ZM346.249 183.9H347.939V193H346.249V183.9ZM357.226 191.583V193H350.401V183.9H357.044V185.317H352.091V187.683H356.485V189.074H352.091V191.583H357.226ZM367.196 183.9V193H365.805L360.787 186.838V193H359.11V183.9H360.501L365.519 190.062V183.9H367.196ZM373.846 193.13C372.927 193.13 372.095 192.931 371.35 192.532C370.613 192.125 370.033 191.566 369.608 190.855C369.192 190.144 368.984 189.343 368.984 188.45C368.984 187.557 369.196 186.756 369.621 186.045C370.046 185.334 370.626 184.78 371.363 184.381C372.108 183.974 372.94 183.77 373.859 183.77C374.604 183.77 375.285 183.9 375.9 184.16C376.515 184.42 377.035 184.797 377.46 185.291L376.368 186.318C375.709 185.607 374.899 185.252 373.937 185.252C373.313 185.252 372.754 185.391 372.26 185.668C371.766 185.937 371.38 186.314 371.103 186.799C370.826 187.284 370.687 187.835 370.687 188.45C370.687 189.065 370.826 189.616 371.103 190.101C371.38 190.586 371.766 190.968 372.26 191.245C372.754 191.514 373.313 191.648 373.937 191.648C374.899 191.648 375.709 191.288 376.368 190.569L377.46 191.609C377.035 192.103 376.511 192.48 375.887 192.74C375.272 193 374.591 193.13 373.846 193.13ZM385.904 191.583V193H379.079V183.9H385.722V185.317H380.769V187.683H385.163V189.074H380.769V191.583H385.904Z" fill="#202020"/>
<path d="M234.222 213.9H235.912V223H234.222V213.9ZM246.459 213.9V223H245.068L240.05 216.838V223H238.373V213.9H239.764L244.782 220.062V213.9H246.459ZM250.744 215.33H247.728V213.9H255.45V215.33H252.434V223H250.744V215.33ZM263.543 221.583V223H256.718V213.9H263.361V215.317H258.408V217.683H262.802V219.074H258.408V221.583H263.543ZM271.381 223L269.522 220.335C269.444 220.344 269.327 220.348 269.171 220.348H267.117V223H265.427V213.9H269.171C269.96 213.9 270.644 214.03 271.225 214.29C271.814 214.55 272.265 214.923 272.577 215.408C272.889 215.893 273.045 216.47 273.045 217.137C273.045 217.822 272.876 218.411 272.538 218.905C272.209 219.399 271.732 219.767 271.108 220.01L273.201 223H271.381ZM271.342 217.137C271.342 216.556 271.151 216.11 270.77 215.798C270.389 215.486 269.83 215.33 269.093 215.33H267.117V218.957H269.093C269.83 218.957 270.389 218.801 270.77 218.489C271.151 218.168 271.342 217.718 271.342 217.137ZM274.936 213.9H278.914C279.885 213.9 280.747 214.091 281.501 214.472C282.255 214.845 282.84 215.378 283.256 216.071C283.672 216.756 283.88 217.549 283.88 218.45C283.88 219.351 283.672 220.149 283.256 220.842C282.84 221.527 282.255 222.06 281.501 222.441C280.747 222.814 279.885 223 278.914 223H274.936V213.9ZM278.836 221.57C279.503 221.57 280.088 221.444 280.591 221.193C281.102 220.933 281.492 220.569 281.761 220.101C282.038 219.624 282.177 219.074 282.177 218.45C282.177 217.826 282.038 217.28 281.761 216.812C281.492 216.335 281.102 215.971 280.591 215.72C280.088 215.46 279.503 215.33 278.836 215.33H276.626V221.57H278.836ZM285.676 213.9H287.366V223H285.676V213.9ZM292.648 223.13C291.946 223.13 291.266 223.03 290.607 222.831C289.957 222.632 289.442 222.367 289.06 222.038L289.645 220.725C290.018 221.02 290.473 221.262 291.01 221.453C291.556 221.635 292.102 221.726 292.648 221.726C293.324 221.726 293.827 221.618 294.156 221.401C294.494 221.184 294.663 220.898 294.663 220.543C294.663 220.283 294.568 220.071 294.377 219.906C294.195 219.733 293.961 219.598 293.675 219.503C293.389 219.408 292.999 219.299 292.505 219.178C291.812 219.013 291.249 218.849 290.815 218.684C290.391 218.519 290.022 218.264 289.71 217.917C289.407 217.562 289.255 217.085 289.255 216.487C289.255 215.984 289.39 215.529 289.658 215.122C289.936 214.706 290.347 214.377 290.893 214.134C291.448 213.891 292.124 213.77 292.921 213.77C293.476 213.77 294.022 213.839 294.559 213.978C295.097 214.117 295.56 214.316 295.95 214.576L295.417 215.889C295.019 215.655 294.603 215.477 294.169 215.356C293.736 215.235 293.316 215.174 292.908 215.174C292.241 215.174 291.743 215.287 291.413 215.512C291.093 215.737 290.932 216.036 290.932 216.409C290.932 216.669 291.023 216.881 291.205 217.046C291.396 217.211 291.634 217.341 291.92 217.436C292.206 217.531 292.596 217.64 293.09 217.761C293.766 217.917 294.321 218.082 294.754 218.255C295.188 218.42 295.556 218.675 295.859 219.022C296.171 219.369 296.327 219.837 296.327 220.426C296.327 220.929 296.189 221.384 295.911 221.791C295.643 222.198 295.231 222.523 294.676 222.766C294.122 223.009 293.446 223.13 292.648 223.13ZM302.215 223.13C301.297 223.13 300.465 222.931 299.719 222.532C298.983 222.125 298.402 221.566 297.977 220.855C297.561 220.144 297.353 219.343 297.353 218.45C297.353 217.557 297.566 216.756 297.99 216.045C298.415 215.334 298.996 214.78 299.732 214.381C300.478 213.974 301.31 213.77 302.228 213.77C302.974 213.77 303.654 213.9 304.269 214.16C304.885 214.42 305.405 214.797 305.829 215.291L304.737 216.318C304.079 215.607 303.268 215.252 302.306 215.252C301.682 215.252 301.123 215.391 300.629 215.668C300.135 215.937 299.75 216.314 299.472 216.799C299.195 217.284 299.056 217.835 299.056 218.45C299.056 219.065 299.195 219.616 299.472 220.101C299.75 220.586 300.135 220.968 300.629 221.245C301.123 221.514 301.682 221.648 302.306 221.648C303.268 221.648 304.079 221.288 304.737 220.569L305.829 221.609C305.405 222.103 304.88 222.48 304.256 222.74C303.641 223 302.961 223.13 302.215 223.13ZM307.449 213.9H309.139V223H307.449V213.9ZM315.344 213.9C316.133 213.9 316.817 214.03 317.398 214.29C317.987 214.55 318.438 214.923 318.75 215.408C319.062 215.893 319.218 216.47 319.218 217.137C319.218 217.796 319.062 218.372 318.75 218.866C318.438 219.351 317.987 219.724 317.398 219.984C316.817 220.244 316.133 220.374 315.344 220.374H313.29V223H311.6V213.9H315.344ZM315.266 218.944C316.003 218.944 316.562 218.788 316.943 218.476C317.324 218.164 317.515 217.718 317.515 217.137C317.515 216.556 317.324 216.11 316.943 215.798C316.562 215.486 316.003 215.33 315.266 215.33H313.29V218.944H315.266ZM320.906 213.9H322.596V221.57H327.354V223H320.906V213.9ZM328.688 213.9H330.378V223H328.688V213.9ZM340.925 213.9V223H339.534L334.516 216.838V223H332.839V213.9H334.23L339.248 220.062V213.9H340.925ZM349.266 220.894H344.716L343.819 223H342.077L346.172 213.9H347.836L351.944 223H350.176L349.266 220.894ZM348.707 219.568L346.991 215.59L345.288 219.568H348.707ZM359.055 223L357.196 220.335C357.118 220.344 357.001 220.348 356.845 220.348H354.791V223H353.101V213.9H356.845C357.634 213.9 358.318 214.03 358.899 214.29C359.488 214.55 359.939 214.923 360.251 215.408C360.563 215.893 360.719 216.47 360.719 217.137C360.719 217.822 360.55 218.411 360.212 218.905C359.883 219.399 359.406 219.767 358.782 220.01L360.875 223H359.055ZM359.016 217.137C359.016 216.556 358.825 216.11 358.444 215.798C358.063 215.486 357.504 215.33 356.767 215.33H354.791V218.957H356.767C357.504 218.957 358.063 218.801 358.444 218.489C358.825 218.168 359.016 217.718 359.016 217.137ZM366.409 219.789V223H364.719V219.815L361.144 213.9H362.951L365.616 218.333L368.307 213.9H369.971L366.409 219.789ZM377.491 223.13C376.789 223.13 376.109 223.03 375.45 222.831C374.8 222.632 374.285 222.367 373.903 222.038L374.488 220.725C374.861 221.02 375.316 221.262 375.853 221.453C376.399 221.635 376.945 221.726 377.491 221.726C378.167 221.726 378.67 221.618 378.999 221.401C379.337 221.184 379.506 220.898 379.506 220.543C379.506 220.283 379.411 220.071 379.22 219.906C379.038 219.733 378.804 219.598 378.518 219.503C378.232 219.408 377.842 219.299 377.348 219.178C376.655 219.013 376.092 218.849 375.658 218.684C375.234 218.519 374.865 218.264 374.553 217.917C374.25 217.562 374.098 217.085 374.098 216.487C374.098 215.984 374.233 215.529 374.501 215.122C374.779 214.706 375.19 214.377 375.736 214.134C376.291 213.891 376.967 213.77 377.764 213.77C378.319 213.77 378.865 213.839 379.402 213.978C379.94 214.117 380.403 214.316 380.793 214.576L380.26 215.889C379.862 215.655 379.446 215.477 379.012 215.356C378.579 215.235 378.159 215.174 377.751 215.174C377.084 215.174 376.586 215.287 376.256 215.512C375.936 215.737 375.775 216.036 375.775 216.409C375.775 216.669 375.866 216.881 376.048 217.046C376.239 217.211 376.477 217.341 376.763 217.436C377.049 217.531 377.439 217.64 377.933 217.761C378.609 217.917 379.164 218.082 379.597 218.255C380.031 218.42 380.399 218.675 380.702 219.022C381.014 219.369 381.17 219.837 381.17 220.426C381.17 220.929 381.032 221.384 380.754 221.791C380.486 222.198 380.074 222.523 379.519 222.766C378.965 223.009 378.289 223.13 377.491 223.13ZM384.565 215.33H381.549V213.9H389.271V215.33H386.255V223H384.565V215.33ZM394.287 223.13C393.031 223.13 392.051 222.779 391.349 222.077C390.647 221.366 390.296 220.352 390.296 219.035V213.9H391.986V218.97C391.986 220.755 392.758 221.648 394.3 221.648C395.834 221.648 396.601 220.755 396.601 218.97V213.9H398.265V219.035C398.265 220.352 397.914 221.366 397.212 222.077C396.519 222.779 395.544 223.13 394.287 223.13ZM400.632 213.9H404.61C405.581 213.9 406.443 214.091 407.197 214.472C407.951 214.845 408.536 215.378 408.952 216.071C409.368 216.756 409.576 217.549 409.576 218.45C409.576 219.351 409.368 220.149 408.952 220.842C408.536 221.527 407.951 222.06 407.197 222.441C406.443 222.814 405.581 223 404.61 223H400.632V213.9ZM404.532 221.57C405.199 221.57 405.784 221.444 406.287 221.193C406.798 220.933 407.188 220.569 407.457 220.101C407.734 219.624 407.873 219.074 407.873 218.45C407.873 217.826 407.734 217.28 407.457 216.812C407.188 216.335 406.798 215.971 406.287 215.72C405.784 215.46 405.199 215.33 404.532 215.33H402.322V221.57H404.532ZM411.372 213.9H413.062V223H411.372V213.9ZM422.349 221.583V223H415.524V213.9H422.167V215.317H417.214V217.683H421.608V219.074H417.214V221.583H422.349ZM427.054 223.13C426.352 223.13 425.671 223.03 425.013 222.831C424.363 222.632 423.847 222.367 423.466 222.038L424.051 220.725C424.423 221.02 424.878 221.262 425.416 221.453C425.962 221.635 426.508 221.726 427.054 221.726C427.73 221.726 428.232 221.618 428.562 221.401C428.9 221.184 429.069 220.898 429.069 220.543C429.069 220.283 428.973 220.071 428.783 219.906C428.601 219.733 428.367 219.598 428.081 219.503C427.795 219.408 427.405 219.299 426.911 219.178C426.217 219.013 425.654 218.849 425.221 218.684C424.796 218.519 424.428 218.264 424.116 217.917C423.812 217.562 423.661 217.085 423.661 216.487C423.661 215.984 423.795 215.529 424.064 215.122C424.341 214.706 424.753 214.377 425.299 214.134C425.853 213.891 426.529 213.77 427.327 213.77C427.881 213.77 428.427 213.839 428.965 213.978C429.502 214.117 429.966 214.316 430.356 214.576L429.823 215.889C429.424 215.655 429.008 215.477 428.575 215.356C428.141 215.235 427.721 215.174 427.314 215.174C426.646 215.174 426.148 215.287 425.819 215.512C425.498 215.737 425.338 216.036 425.338 216.409C425.338 216.669 425.429 216.881 425.611 217.046C425.801 217.211 426.04 217.341 426.326 217.436C426.612 217.531 427.002 217.64 427.496 217.761C428.172 217.917 428.726 218.082 429.16 218.255C429.593 218.42 429.961 218.675 430.265 219.022C430.577 219.369 430.733 219.837 430.733 220.426C430.733 220.929 430.594 221.384 430.317 221.791C430.048 222.198 429.636 222.523 429.082 222.766C428.527 223.009 427.851 223.13 427.054 223.13Z" fill="#202020"/>
<path d="M39.4269 7.61853C38.6055 4.97647 37.934 2.63157 37.934 2.40715C37.934 2.16189 64.6698 2 105.294 2H172.654L173.155 3.88497C174.246 7.99552 176.872 15.7456 178.523 19.7293C181.065 25.865 182.028 29.9334 182.048 34.6237C182.066 38.7764 182.092 38.6699 178.96 47.2392C176.636 53.5966 177.199 57.7458 181.233 63.9994C186.081 71.5136 196.091 86.2265 199.228 90.4489C204.608 97.6902 206.025 101.717 204.342 104.975C202.964 107.642 199.348 110.129 194.432 111.793C185.827 114.706 184.509 117.159 187.351 124.965C189.217 130.091 188.866 131.428 184.562 135.592C182.848 137.249 181.272 138.605 181.057 138.605C180.217 138.605 180.746 139.602 182.44 141.215C185.106 143.752 184.829 145.595 180.872 151.666C180.069 152.898 179.058 154.928 178.625 156.178C177.846 158.432 177.849 158.488 179.031 163.275C180.769 170.312 180.853 171.347 180.024 175.44C178.414 183.392 174.786 187.915 167.625 190.898C163.27 192.712 157.864 193.506 146.314 194.03C128.487 194.838 121.76 196.602 117.59 201.559C115.548 203.988 115.348 205.424 115.673 215.32C115.989 224.909 117.007 241.199 117.712 247.933C117.943 250.128 118.348 255.417 118.614 259.686C118.88 263.955 119.2 267.797 119.326 268.224C119.544 268.96 116.7 269 63.9526 269H8.35011L8.10542 267.115C7.97111 266.079 7.3563 262.436 6.73971 259.02C4.88107 248.729 2.14785 230.717 1.08578 221.765C-0.617711 207.401 -0.334898 191.655 2.06275 167.434C3.46393 153.282 6.67984 141.527 12.3767 129.734C14.832 124.652 18.1929 118.736 20.5037 115.431C28.7755 103.597 29.8443 102.001 31.8634 98.466C36.8648 89.7108 42.7865 72.9905 44.5671 62.5939C45.9421 54.568 45.8468 40.7846 44.345 30.3854C43.7284 26.1165 42.9451 21.4262 42.6047 19.9626C42.2638 18.499 41.7452 16.2038 41.4522 14.8621C41.1592 13.5205 40.2478 10.261 39.4269 7.61853Z" fill="#373737"/>
</svg>
