<svg width="419" height="269" viewBox="0 0 419 269" fill="none" xmlns="http://www.w3.org/2000/svg">
<path d="M71.581 43L71.568 36.968L68.578 41.96H67.824L64.834 37.046V43H63.222V33.9H64.613L68.227 39.932L71.776 33.9H73.167L73.18 43H71.581ZM81.54 40.894H76.99L76.093 43H74.351L78.446 33.9H80.11L84.218 43H82.45L81.54 40.894ZM80.981 39.568L79.265 35.59L77.562 39.568H80.981ZM86.7643 35.33H83.7483V33.9H91.4703V35.33H88.4543V43H86.7643V35.33ZM100.825 33.9V43H99.1346V39.1H94.4286V43H92.7386V33.9H94.4286V37.657H99.1346V33.9H100.825ZM113.681 43.143L112.537 42.038C111.687 42.766 110.669 43.13 109.482 43.13C108.849 43.13 108.281 43.026 107.779 42.818C107.276 42.61 106.882 42.324 106.596 41.96C106.31 41.5873 106.167 41.167 106.167 40.699C106.167 40.1357 106.331 39.6417 106.661 39.217C106.99 38.7837 107.527 38.359 108.273 37.943C107.909 37.579 107.649 37.241 107.493 36.929C107.337 36.6083 107.259 36.279 107.259 35.941C107.259 35.2997 107.497 34.784 107.974 34.394C108.459 33.9953 109.1 33.796 109.898 33.796C110.634 33.796 111.224 33.978 111.666 34.342C112.108 34.6973 112.329 35.1827 112.329 35.798C112.329 36.266 112.181 36.682 111.887 37.046C111.601 37.41 111.128 37.7783 110.47 38.151L112.433 40.023C112.649 39.5983 112.818 39.087 112.94 38.489L114.253 38.918C114.079 39.724 113.806 40.4173 113.434 40.998L114.578 42.09L113.681 43.143ZM109.898 34.953C109.542 34.953 109.261 35.044 109.053 35.226C108.845 35.3993 108.741 35.629 108.741 35.915C108.741 36.123 108.797 36.3223 108.91 36.513C109.022 36.695 109.239 36.9463 109.56 37.267C110.08 36.981 110.439 36.734 110.639 36.526C110.847 36.3093 110.951 36.0753 110.951 35.824C110.951 35.5553 110.855 35.343 110.665 35.187C110.483 35.031 110.227 34.953 109.898 34.953ZM109.599 41.804C110.353 41.804 111.011 41.5743 111.575 41.115L109.17 38.814C108.65 39.1 108.281 39.3773 108.065 39.646C107.857 39.906 107.753 40.2007 107.753 40.53C107.753 40.9113 107.922 41.219 108.26 41.453C108.598 41.687 109.044 41.804 109.599 41.804ZM122.448 43.13C121.746 43.13 121.066 43.0303 120.407 42.831C119.757 42.6317 119.242 42.3673 118.86 42.038L119.445 40.725C119.818 41.0197 120.273 41.2623 120.81 41.453C121.356 41.635 121.902 41.726 122.448 41.726C123.124 41.726 123.627 41.6177 123.956 41.401C124.294 41.1843 124.463 40.8983 124.463 40.543C124.463 40.283 124.368 40.0707 124.177 39.906C123.995 39.7327 123.761 39.5983 123.475 39.503C123.189 39.4077 122.799 39.2993 122.305 39.178C121.612 39.0133 121.049 38.8487 120.615 38.684C120.191 38.5193 119.822 38.2637 119.51 37.917C119.207 37.5617 119.055 37.085 119.055 36.487C119.055 35.9843 119.19 35.5293 119.458 35.122C119.736 34.706 120.147 34.3767 120.693 34.134C121.248 33.8913 121.924 33.77 122.721 33.77C123.276 33.77 123.822 33.8393 124.359 33.978C124.897 34.1167 125.36 34.316 125.75 34.576L125.217 35.889C124.819 35.655 124.403 35.4773 123.969 35.356C123.536 35.2347 123.116 35.174 122.708 35.174C122.041 35.174 121.543 35.2867 121.213 35.512C120.893 35.7373 120.732 36.0363 120.732 36.409C120.732 36.669 120.823 36.8813 121.005 37.046C121.196 37.2107 121.434 37.3407 121.72 37.436C122.006 37.5313 122.396 37.6397 122.89 37.761C123.566 37.917 124.121 38.0817 124.554 38.255C124.988 38.4197 125.356 38.6753 125.659 39.022C125.971 39.3687 126.127 39.8367 126.127 40.426C126.127 40.9287 125.989 41.3837 125.711 41.791C125.443 42.1983 125.031 42.5233 124.476 42.766C123.922 43.0087 123.246 43.13 122.448 43.13ZM129.522 35.33H126.506V33.9H134.228V35.33H131.212V43H129.522V35.33ZM140.941 40.894H136.391L135.494 43H133.752L137.847 33.9H139.511L143.619 43H141.851L140.941 40.894ZM140.382 39.568L138.666 35.59L136.963 39.568H140.382ZM146.166 35.33H143.15V33.9H150.872V35.33H147.856V43H146.166V35.33ZM152.14 33.9H153.83V43H152.14V33.9ZM159.112 43.13C158.41 43.13 157.73 43.0303 157.071 42.831C156.421 42.6317 155.906 42.3673 155.524 42.038L156.109 40.725C156.482 41.0197 156.937 41.2623 157.474 41.453C158.02 41.635 158.566 41.726 159.112 41.726C159.788 41.726 160.291 41.6177 160.62 41.401C160.958 41.1843 161.127 40.8983 161.127 40.543C161.127 40.283 161.032 40.0707 160.841 39.906C160.659 39.7327 160.425 39.5983 160.139 39.503C159.853 39.4077 159.463 39.2993 158.969 39.178C158.276 39.0133 157.713 38.8487 157.279 38.684C156.855 38.5193 156.486 38.2637 156.174 37.917C155.871 37.5617 155.719 37.085 155.719 36.487C155.719 35.9843 155.854 35.5293 156.122 35.122C156.4 34.706 156.811 34.3767 157.357 34.134C157.912 33.8913 158.588 33.77 159.385 33.77C159.94 33.77 160.486 33.8393 161.023 33.978C161.561 34.1167 162.024 34.316 162.414 34.576L161.881 35.889C161.483 35.655 161.067 35.4773 160.633 35.356C160.2 35.2347 159.78 35.174 159.372 35.174C158.705 35.174 158.207 35.2867 157.877 35.512C157.557 35.7373 157.396 36.0363 157.396 36.409C157.396 36.669 157.487 36.8813 157.669 37.046C157.86 37.2107 158.098 37.3407 158.384 37.436C158.67 37.5313 159.06 37.6397 159.554 37.761C160.23 37.917 160.785 38.0817 161.218 38.255C161.652 38.4197 162.02 38.6753 162.323 39.022C162.635 39.3687 162.791 39.8367 162.791 40.426C162.791 40.9287 162.653 41.3837 162.375 41.791C162.107 42.1983 161.695 42.5233 161.14 42.766C160.586 43.0087 159.91 43.13 159.112 43.13ZM166.186 35.33H163.17V33.9H170.892V35.33H167.876V43H166.186V35.33ZM172.16 33.9H173.85V43H172.16V33.9ZM180.524 43.13C179.605 43.13 178.773 42.9307 178.028 42.532C177.291 42.1247 176.711 41.5657 176.286 40.855C175.87 40.1443 175.662 39.3427 175.662 38.45C175.662 37.5573 175.874 36.7557 176.299 36.045C176.724 35.3343 177.304 34.7797 178.041 34.381C178.786 33.9737 179.618 33.77 180.537 33.77C181.282 33.77 181.963 33.9 182.578 34.16C183.193 34.42 183.713 34.797 184.138 35.291L183.046 36.318C182.387 35.6073 181.577 35.252 180.615 35.252C179.991 35.252 179.432 35.3907 178.938 35.668C178.444 35.9367 178.058 36.3137 177.781 36.799C177.504 37.2843 177.365 37.8347 177.365 38.45C177.365 39.0653 177.504 39.6157 177.781 40.101C178.058 40.5863 178.444 40.9677 178.938 41.245C179.432 41.5137 179.991 41.648 180.615 41.648C181.577 41.648 182.387 41.2883 183.046 40.569L184.138 41.609C183.713 42.103 183.189 42.48 182.565 42.74C181.95 43 181.269 43.13 180.524 43.13ZM188.527 43.13C187.825 43.13 187.145 43.0303 186.486 42.831C185.836 42.6317 185.321 42.3673 184.939 42.038L185.524 40.725C185.897 41.0197 186.352 41.2623 186.889 41.453C187.435 41.635 187.981 41.726 188.527 41.726C189.203 41.726 189.706 41.6177 190.035 41.401C190.373 41.1843 190.542 40.8983 190.542 40.543C190.542 40.283 190.447 40.0707 190.256 39.906C190.074 39.7327 189.84 39.5983 189.554 39.503C189.268 39.4077 188.878 39.2993 188.384 39.178C187.691 39.0133 187.128 38.8487 186.694 38.684C186.27 38.5193 185.901 38.2637 185.589 37.917C185.286 37.5617 185.134 37.085 185.134 36.487C185.134 35.9843 185.269 35.5293 185.537 35.122C185.815 34.706 186.226 34.3767 186.772 34.134C187.327 33.8913 188.003 33.77 188.8 33.77C189.355 33.77 189.901 33.8393 190.438 33.978C190.976 34.1167 191.439 34.316 191.829 34.576L191.296 35.889C190.898 35.655 190.482 35.4773 190.048 35.356C189.615 35.2347 189.195 35.174 188.787 35.174C188.12 35.174 187.622 35.2867 187.292 35.512C186.972 35.7373 186.811 36.0363 186.811 36.409C186.811 36.669 186.902 36.8813 187.084 37.046C187.275 37.2107 187.513 37.3407 187.799 37.436C188.085 37.5313 188.475 37.6397 188.969 37.761C189.645 37.917 190.2 38.0817 190.633 38.255C191.067 38.4197 191.435 38.6753 191.738 39.022C192.05 39.3687 192.206 39.8367 192.206 40.426C192.206 40.9287 192.068 41.3837 191.79 41.791C191.522 42.1983 191.11 42.5233 190.555 42.766C190.001 43.0087 189.325 43.13 188.527 43.13Z" fill="#202020"/>
<path d="M19.434 73.13C18.5153 73.13 17.6833 72.9307 16.938 72.532C16.2013 72.1247 15.6207 71.5657 15.196 70.855C14.78 70.1443 14.572 69.3427 14.572 68.45C14.572 67.5573 14.7843 66.7557 15.209 66.045C15.6337 65.3343 16.2143 64.7797 16.951 64.381C17.6963 63.9737 18.5283 63.77 19.447 63.77C20.1923 63.77 20.8727 63.9 21.488 64.16C22.1033 64.42 22.6233 64.797 23.048 65.291L21.956 66.318C21.2973 65.6073 20.487 65.252 19.525 65.252C18.901 65.252 18.342 65.3907 17.848 65.668C17.354 65.9367 16.9683 66.3137 16.691 66.799C16.4137 67.2843 16.275 67.8347 16.275 68.45C16.275 69.0653 16.4137 69.6157 16.691 70.101C16.9683 70.5863 17.354 70.9677 17.848 71.245C18.342 71.5137 18.901 71.648 19.525 71.648C20.487 71.648 21.2973 71.2883 21.956 70.569L23.048 71.609C22.6233 72.103 22.099 72.48 21.475 72.74C20.8597 73 20.1793 73.13 19.434 73.13ZM32.7533 63.9V73H31.0633V69.1H26.3573V73H24.6673V63.9H26.3573V67.657H31.0633V63.9H32.7533ZM42.0167 71.583V73H35.1917V63.9H41.8347V65.317H36.8817V67.683H41.2757V69.074H36.8817V71.583H42.0167ZM52.2597 73L52.2467 66.968L49.2567 71.96H48.5027L45.5127 67.046V73H43.9007V63.9H45.2917L48.9057 69.932L52.4547 63.9H53.8457L53.8587 73H52.2597ZM56.3167 63.9H58.0067V73H56.3167V63.9ZM64.6801 73.13C63.7614 73.13 62.9294 72.9307 62.1841 72.532C61.4474 72.1247 60.8668 71.5657 60.4421 70.855C60.0261 70.1443 59.8181 69.3427 59.8181 68.45C59.8181 67.5573 60.0304 66.7557 60.4551 66.045C60.8798 65.3343 61.4604 64.7797 62.1971 64.381C62.9424 63.9737 63.7744 63.77 64.6931 63.77C65.4384 63.77 66.1188 63.9 66.7341 64.16C67.3494 64.42 67.8694 64.797 68.2941 65.291L67.2021 66.318C66.5434 65.6073 65.7331 65.252 64.7711 65.252C64.1471 65.252 63.5881 65.3907 63.0941 65.668C62.6001 65.9367 62.2144 66.3137 61.9371 66.799C61.6598 67.2843 61.5211 67.8347 61.5211 68.45C61.5211 69.0653 61.6598 69.6157 61.9371 70.101C62.2144 70.5863 62.6001 70.9677 63.0941 71.245C63.5881 71.5137 64.1471 71.648 64.7711 71.648C65.7331 71.648 66.5434 71.2883 67.2021 70.569L68.2941 71.609C67.8694 72.103 67.3451 72.48 66.7211 72.74C66.1058 73 65.4254 73.13 64.6801 73.13ZM75.625 70.894H71.075L70.178 73H68.436L72.531 63.9H74.195L78.303 73H76.535L75.625 70.894ZM75.066 69.568L73.35 65.59L71.647 69.568H75.066ZM79.4603 63.9H81.1503V71.57H85.9083V73H79.4603V63.9ZM97.6603 71.583V73H90.8353V63.9H97.4783V65.317H92.5253V67.683H96.9193V69.074H92.5253V71.583H97.6603ZM107.63 63.9V73H106.239L101.221 66.838V73H99.5443V63.9H100.935L105.953 70.062V63.9H107.63ZM116.283 68.346H117.882V71.973C117.414 72.3457 116.868 72.6317 116.244 72.831C115.62 73.0303 114.978 73.13 114.32 73.13C113.392 73.13 112.556 72.9307 111.811 72.532C111.065 72.1247 110.48 71.5657 110.056 70.855C109.631 70.1443 109.419 69.3427 109.419 68.45C109.419 67.5573 109.631 66.7557 110.056 66.045C110.48 65.3343 111.065 64.7797 111.811 64.381C112.565 63.9737 113.41 63.77 114.346 63.77C115.108 63.77 115.802 63.8957 116.426 64.147C117.05 64.3983 117.574 64.7667 117.999 65.252L116.933 66.292C116.239 65.5987 115.403 65.252 114.424 65.252C113.782 65.252 113.21 65.3863 112.708 65.655C112.214 65.9237 111.824 66.3007 111.538 66.786C111.26 67.2713 111.122 67.826 111.122 68.45C111.122 69.0567 111.26 69.6027 111.538 70.088C111.824 70.5733 112.214 70.9547 112.708 71.232C113.21 71.5093 113.778 71.648 114.411 71.648C115.121 71.648 115.745 71.492 116.283 71.18V68.346ZM120.111 63.9H121.801V73H120.111V63.9ZM132.348 63.9V73H130.957L125.939 66.838V73H124.262V63.9H125.653L130.671 70.062V63.9H132.348ZM141.611 71.583V73H134.786V63.9H141.429V65.317H136.476V67.683H140.87V69.074H136.476V71.583H141.611ZM150.32 71.583V73H143.495V63.9H150.138V65.317H145.185V67.683H149.579V69.074H145.185V71.583H150.32ZM158.158 73L156.299 70.335C156.221 70.3437 156.104 70.348 155.948 70.348H153.894V73H152.204V63.9H155.948C156.737 63.9 157.422 64.03 158.002 64.29C158.592 64.55 159.042 64.9227 159.354 65.408C159.666 65.8933 159.822 66.4697 159.822 67.137C159.822 67.8217 159.653 68.411 159.315 68.905C158.986 69.399 158.509 69.7673 157.885 70.01L159.978 73H158.158ZM158.119 67.137C158.119 66.5563 157.929 66.11 157.547 65.798C157.166 65.486 156.607 65.33 155.87 65.33H153.894V68.957H155.87C156.607 68.957 157.166 68.801 157.547 68.489C157.929 68.1683 158.119 67.7177 158.119 67.137ZM161.713 63.9H163.403V73H161.713V63.9ZM173.951 63.9V73H172.56L167.542 66.838V73H165.865V63.9H167.256L172.274 70.062V63.9H173.951ZM182.603 68.346H184.202V71.973C183.734 72.3457 183.188 72.6317 182.564 72.831C181.94 73.0303 181.299 73.13 180.64 73.13C179.713 73.13 178.876 72.9307 178.131 72.532C177.386 72.1247 176.801 71.5657 176.376 70.855C175.951 70.1443 175.739 69.3427 175.739 68.45C175.739 67.5573 175.951 66.7557 176.376 66.045C176.801 65.3343 177.386 64.7797 178.131 64.381C178.885 63.9737 179.73 63.77 180.666 63.77C181.429 63.77 182.122 63.8957 182.746 64.147C183.37 64.3983 183.894 64.7667 184.319 65.252L183.253 66.292C182.56 65.5987 181.723 65.252 180.744 65.252C180.103 65.252 179.531 65.3863 179.028 65.655C178.534 65.9237 178.144 66.3007 177.858 66.786C177.581 67.2713 177.442 67.826 177.442 68.45C177.442 69.0567 177.581 69.6027 177.858 70.088C178.144 70.5733 178.534 70.9547 179.028 71.232C179.531 71.5093 180.098 71.648 180.731 71.648C181.442 71.648 182.066 71.492 182.603 71.18V68.346Z" fill="#202020"/>
<path d="M32.581 13L32.568 6.968L29.578 11.96H28.824L25.834 7.046V13H24.222V3.9H25.613L29.227 9.932L32.776 3.9H34.167L34.18 13H32.581ZM43.463 11.583V13H36.638V3.9H43.281V5.317H38.328V7.683H42.722V9.074H38.328V11.583H43.463ZM49.5209 13.13C48.6022 13.13 47.7702 12.9307 47.0249 12.532C46.2882 12.1247 45.7076 11.5657 45.2829 10.855C44.8669 10.1443 44.6589 9.34267 44.6589 8.45C44.6589 7.55733 44.8712 6.75567 45.2959 6.045C45.7206 5.33433 46.3012 4.77967 47.0379 4.381C47.7832 3.97367 48.6152 3.77 49.5339 3.77C50.2792 3.77 50.9596 3.9 51.5749 4.16C52.1902 4.42 52.7102 4.797 53.1349 5.291L52.0429 6.318C51.3842 5.60733 50.5739 5.252 49.6119 5.252C48.9879 5.252 48.4289 5.39067 47.9349 5.668C47.4409 5.93667 47.0552 6.31367 46.7779 6.799C46.5006 7.28433 46.3619 7.83467 46.3619 8.45C46.3619 9.06533 46.5006 9.61567 46.7779 10.101C47.0552 10.5863 47.4409 10.9677 47.9349 11.245C48.4289 11.5137 48.9879 11.648 49.6119 11.648C50.5739 11.648 51.3842 11.2883 52.0429 10.569L53.1349 11.609C52.7102 12.103 52.1859 12.48 51.5619 12.74C50.9466 13 50.2662 13.13 49.5209 13.13ZM62.8402 3.9V13H61.1502V9.1H56.4442V13H54.7542V3.9H56.4442V7.657H61.1502V3.9H62.8402ZM71.1806 10.894H66.6306L65.7336 13H63.9916L68.0866 3.9H69.7506L73.8586 13H72.0906L71.1806 10.894ZM70.6216 9.568L68.9056 5.59L67.2026 9.568H70.6216ZM83.1019 3.9V13H81.7109L76.6929 6.838V13H75.0159V3.9H76.4069L81.4249 10.062V3.9H83.1019ZM85.5404 3.9H87.2304V13H85.5404V3.9ZM93.9037 13.13C92.9851 13.13 92.1531 12.9307 91.4077 12.532C90.6711 12.1247 90.0904 11.5657 89.6657 10.855C89.2497 10.1443 89.0417 9.34267 89.0417 8.45C89.0417 7.55733 89.2541 6.75567 89.6787 6.045C90.1034 5.33433 90.6841 4.77967 91.4207 4.381C92.1661 3.97367 92.9981 3.77 93.9167 3.77C94.6621 3.77 95.3424 3.9 95.9577 4.16C96.5731 4.42 97.0931 4.797 97.5177 5.291L96.4257 6.318C95.7671 5.60733 94.9567 5.252 93.9947 5.252C93.3707 5.252 92.8117 5.39067 92.3177 5.668C91.8237 5.93667 91.4381 6.31367 91.1607 6.799C90.8834 7.28433 90.7447 7.83467 90.7447 8.45C90.7447 9.06533 90.8834 9.61567 91.1607 10.101C91.4381 10.5863 91.8237 10.9677 92.3177 11.245C92.8117 11.5137 93.3707 11.648 93.9947 11.648C94.9567 11.648 95.7671 11.2883 96.4257 10.569L97.5177 11.609C97.0931 12.103 96.5687 12.48 95.9447 12.74C95.3294 13 94.6491 13.13 93.9037 13.13ZM104.849 10.894H100.299L99.4016 13H97.6596L101.755 3.9H103.419L107.527 13H105.759L104.849 10.894ZM104.29 9.568L102.574 5.59L100.871 9.568H104.29ZM108.684 3.9H110.374V11.57H115.132V13H108.684V3.9ZM126.884 11.583V13H120.059V3.9H126.702V5.317H121.749V7.683H126.143V9.074H121.749V11.583H126.884ZM136.854 3.9V13H135.463L130.445 6.838V13H128.768V3.9H130.159L135.177 10.062V3.9H136.854ZM145.506 8.346H147.105V11.973C146.637 12.3457 146.091 12.6317 145.467 12.831C144.843 13.0303 144.202 13.13 143.543 13.13C142.616 13.13 141.78 12.9307 141.034 12.532C140.289 12.1247 139.704 11.5657 139.279 10.855C138.855 10.1443 138.642 9.34267 138.642 8.45C138.642 7.55733 138.855 6.75567 139.279 6.045C139.704 5.33433 140.289 4.77967 141.034 4.381C141.788 3.97367 142.633 3.77 143.569 3.77C144.332 3.77 145.025 3.89567 145.649 4.147C146.273 4.39833 146.798 4.76667 147.222 5.252L146.156 6.292C145.463 5.59867 144.627 5.252 143.647 5.252C143.006 5.252 142.434 5.38633 141.931 5.655C141.437 5.92367 141.047 6.30067 140.761 6.786C140.484 7.27133 140.345 7.826 140.345 8.45C140.345 9.05667 140.484 9.60267 140.761 10.088C141.047 10.5733 141.437 10.9547 141.931 11.232C142.434 11.5093 143.002 11.648 143.634 11.648C144.345 11.648 144.969 11.492 145.506 11.18V8.346ZM149.334 3.9H151.024V13H149.334V3.9ZM161.572 3.9V13H160.181L155.163 6.838V13H153.486V3.9H154.877L159.895 10.062V3.9H161.572ZM170.835 11.583V13H164.01V3.9H170.653V5.317H165.7V7.683H170.094V9.074H165.7V11.583H170.835ZM179.544 11.583V13H172.719V3.9H179.362V5.317H174.409V7.683H178.803V9.074H174.409V11.583H179.544ZM187.382 13L185.523 10.335C185.445 10.3437 185.328 10.348 185.172 10.348H183.118V13H181.428V3.9H185.172C185.961 3.9 186.645 4.03 187.226 4.29C187.815 4.55 188.266 4.92267 188.578 5.408C188.89 5.89333 189.046 6.46967 189.046 7.137C189.046 7.82167 188.877 8.411 188.539 8.905C188.21 9.399 187.733 9.76733 187.109 10.01L189.202 13H187.382ZM187.343 7.137C187.343 6.55633 187.152 6.11 186.771 5.798C186.39 5.486 185.831 5.33 185.094 5.33H183.118V8.957H185.094C185.831 8.957 186.39 8.801 186.771 8.489C187.152 8.16833 187.343 7.71767 187.343 7.137ZM190.937 3.9H192.627V13H190.937V3.9ZM203.174 3.9V13H201.783L196.765 6.838V13H195.088V3.9H196.479L201.497 10.062V3.9H203.174ZM211.827 8.346H213.426V11.973C212.958 12.3457 212.412 12.6317 211.788 12.831C211.164 13.0303 210.522 13.13 209.864 13.13C208.936 13.13 208.1 12.9307 207.355 12.532C206.609 12.1247 206.024 11.5657 205.6 10.855C205.175 10.1443 204.963 9.34267 204.963 8.45C204.963 7.55733 205.175 6.75567 205.6 6.045C206.024 5.33433 206.609 4.77967 207.355 4.381C208.109 3.97367 208.954 3.77 209.89 3.77C210.652 3.77 211.346 3.89567 211.97 4.147C212.594 4.39833 213.118 4.76667 213.543 5.252L212.477 6.292C211.783 5.59867 210.947 5.252 209.968 5.252C209.326 5.252 208.754 5.38633 208.252 5.655C207.758 5.92367 207.368 6.30067 207.082 6.786C206.804 7.27133 206.666 7.826 206.666 8.45C206.666 9.05667 206.804 9.60267 207.082 10.088C207.368 10.5733 207.758 10.9547 208.252 11.232C208.754 11.5093 209.322 11.648 209.955 11.648C210.665 11.648 211.289 11.492 211.827 11.18V8.346Z" fill="#202020"/>
<path d="M38.434 103.13C37.5153 103.13 36.6833 102.931 35.938 102.532C35.2013 102.125 34.6207 101.566 34.196 100.855C33.78 100.144 33.572 99.3427 33.572 98.45C33.572 97.5573 33.7843 96.7557 34.209 96.045C34.6337 95.3343 35.2143 94.7797 35.951 94.381C36.6963 93.9737 37.5283 93.77 38.447 93.77C39.1923 93.77 39.8727 93.9 40.488 94.16C41.1033 94.42 41.6233 94.797 42.048 95.291L40.956 96.318C40.2973 95.6073 39.487 95.252 38.525 95.252C37.901 95.252 37.342 95.3907 36.848 95.668C36.354 95.9367 35.9683 96.3137 35.691 96.799C35.4137 97.2843 35.275 97.8347 35.275 98.45C35.275 99.0653 35.4137 99.6157 35.691 100.101C35.9683 100.586 36.354 100.968 36.848 101.245C37.342 101.514 37.901 101.648 38.525 101.648C39.487 101.648 40.2973 101.288 40.956 100.569L42.048 101.609C41.6233 102.103 41.099 102.48 40.475 102.74C39.8597 103 39.1793 103.13 38.434 103.13ZM47.7279 103.13C46.8005 103.13 45.9642 102.931 45.2189 102.532C44.4735 102.125 43.8885 101.566 43.4639 100.855C43.0392 100.136 42.8269 99.334 42.8269 98.45C42.8269 97.566 43.0392 96.7687 43.4639 96.058C43.8885 95.3387 44.4735 94.7797 45.2189 94.381C45.9642 93.9737 46.8005 93.77 47.7279 93.77C48.6552 93.77 49.4915 93.9737 50.2369 94.381C50.9822 94.7797 51.5672 95.3343 51.9919 96.045C52.4165 96.7557 52.6289 97.5573 52.6289 98.45C52.6289 99.3427 52.4165 100.144 51.9919 100.855C51.5672 101.566 50.9822 102.125 50.2369 102.532C49.4915 102.931 48.6552 103.13 47.7279 103.13ZM47.7279 101.648C48.3345 101.648 48.8805 101.514 49.3659 101.245C49.8512 100.968 50.2326 100.586 50.5099 100.101C50.7872 99.607 50.9259 99.0567 50.9259 98.45C50.9259 97.8433 50.7872 97.2973 50.5099 96.812C50.2326 96.318 49.8512 95.9367 49.3659 95.668C48.8805 95.3907 48.3345 95.252 47.7279 95.252C47.1212 95.252 46.5752 95.3907 46.0899 95.668C45.6045 95.9367 45.2232 96.318 44.9459 96.812C44.6685 97.2973 44.5299 97.8433 44.5299 98.45C44.5299 99.0567 44.6685 99.607 44.9459 100.101C45.2232 100.586 45.6045 100.968 46.0899 101.245C46.5752 101.514 47.1212 101.648 47.7279 101.648ZM62.7792 103L62.7662 96.968L59.7762 101.96H59.0222L56.0322 97.046V103H54.4202V93.9H55.8112L59.4252 99.932L62.9742 93.9H64.3652L64.3782 103H62.7792ZM70.5803 93.9C71.3689 93.9 72.0536 94.03 72.6343 94.29C73.2236 94.55 73.6743 94.9227 73.9863 95.408C74.2983 95.8933 74.4543 96.4697 74.4543 97.137C74.4543 97.7957 74.2983 98.372 73.9863 98.866C73.6743 99.3513 73.2236 99.724 72.6343 99.984C72.0536 100.244 71.3689 100.374 70.5803 100.374H68.5263V103H66.8363V93.9H70.5803ZM70.5023 98.944C71.2389 98.944 71.7979 98.788 72.1793 98.476C72.5606 98.164 72.7513 97.7177 72.7513 97.137C72.7513 96.5563 72.5606 96.11 72.1793 95.798C71.7979 95.486 71.2389 95.33 70.5023 95.33H68.5263V98.944H70.5023ZM80.0549 103.13C78.7983 103.13 77.8189 102.779 77.1169 102.077C76.4149 101.366 76.0639 100.352 76.0639 99.035V93.9H77.7539V98.97C77.7539 100.755 78.5253 101.648 80.0679 101.648C81.6019 101.648 82.3689 100.755 82.3689 98.97V93.9H84.0329V99.035C84.0329 100.352 83.6819 101.366 82.9799 102.077C82.2866 102.779 81.3116 103.13 80.0549 103.13ZM88.0807 95.33H85.0647V93.9H92.7867V95.33H89.7707V103H88.0807V95.33ZM100.88 101.583V103H94.055V93.9H100.698V95.317H95.745V97.683H100.139V99.074H95.745V101.583H100.88ZM108.718 103L106.859 100.335C106.781 100.344 106.664 100.348 106.508 100.348H104.454V103H102.764V93.9H106.508C107.297 93.9 107.981 94.03 108.562 94.29C109.151 94.55 109.602 94.9227 109.914 95.408C110.226 95.8933 110.382 96.4697 110.382 97.137C110.382 97.8217 110.213 98.411 109.875 98.905C109.546 99.399 109.069 99.7673 108.445 100.01L110.538 103H108.718ZM108.679 97.137C108.679 96.5563 108.488 96.11 108.107 95.798C107.726 95.486 107.167 95.33 106.43 95.33H104.454V98.957H106.43C107.167 98.957 107.726 98.801 108.107 98.489C108.488 98.1683 108.679 97.7177 108.679 97.137ZM118.687 103.13C117.985 103.13 117.304 103.03 116.646 102.831C115.996 102.632 115.48 102.367 115.099 102.038L115.684 100.725C116.056 101.02 116.511 101.262 117.049 101.453C117.595 101.635 118.141 101.726 118.687 101.726C119.363 101.726 119.865 101.618 120.195 101.401C120.533 101.184 120.702 100.898 120.702 100.543C120.702 100.283 120.606 100.071 120.416 99.906C120.234 99.7327 120 99.5983 119.714 99.503C119.428 99.4077 119.038 99.2993 118.544 99.178C117.85 99.0133 117.287 98.8487 116.854 98.684C116.429 98.5193 116.061 98.2637 115.749 97.917C115.445 97.5617 115.294 97.085 115.294 96.487C115.294 95.9843 115.428 95.5293 115.697 95.122C115.974 94.706 116.386 94.3767 116.932 94.134C117.486 93.8913 118.162 93.77 118.96 93.77C119.514 93.77 120.06 93.8393 120.598 93.978C121.135 94.1167 121.599 94.316 121.989 94.576L121.456 95.889C121.057 95.655 120.641 95.4773 120.208 95.356C119.774 95.2347 119.354 95.174 118.947 95.174C118.279 95.174 117.781 95.2867 117.452 95.512C117.131 95.7373 116.971 96.0363 116.971 96.409C116.971 96.669 117.062 96.8813 117.244 97.046C117.434 97.2107 117.673 97.3407 117.959 97.436C118.245 97.5313 118.635 97.6397 119.129 97.761C119.805 97.917 120.359 98.0817 120.793 98.255C121.226 98.4197 121.594 98.6753 121.898 99.022C122.21 99.3687 122.366 99.8367 122.366 100.426C122.366 100.929 122.227 101.384 121.95 101.791C121.681 102.198 121.269 102.523 120.715 102.766C120.16 103.009 119.484 103.13 118.687 103.13ZM128.253 103.13C127.335 103.13 126.503 102.931 125.757 102.532C125.021 102.125 124.44 101.566 124.015 100.855C123.599 100.144 123.391 99.3427 123.391 98.45C123.391 97.5573 123.604 96.7557 124.028 96.045C124.453 95.3343 125.034 94.7797 125.77 94.381C126.516 93.9737 127.348 93.77 128.266 93.77C129.012 93.77 129.692 93.9 130.307 94.16C130.923 94.42 131.443 94.797 131.867 95.291L130.775 96.318C130.117 95.6073 129.306 95.252 128.344 95.252C127.72 95.252 127.161 95.3907 126.667 95.668C126.173 95.9367 125.788 96.3137 125.51 96.799C125.233 97.2843 125.094 97.8347 125.094 98.45C125.094 99.0653 125.233 99.6157 125.51 100.101C125.788 100.586 126.173 100.968 126.667 101.245C127.161 101.514 127.72 101.648 128.344 101.648C129.306 101.648 130.117 101.288 130.775 100.569L131.867 101.609C131.443 102.103 130.918 102.48 130.294 102.74C129.679 103 128.999 103.13 128.253 103.13ZM133.487 93.9H135.177V103H133.487V93.9ZM144.463 101.583V103H137.638V93.9H144.281V95.317H139.328V97.683H143.722V99.074H139.328V101.583H144.463ZM154.433 93.9V103H153.042L148.024 96.838V103H146.347V93.9H147.738L152.756 100.062V93.9H154.433ZM161.083 103.13C160.165 103.13 159.333 102.931 158.587 102.532C157.851 102.125 157.27 101.566 156.845 100.855C156.429 100.144 156.221 99.3427 156.221 98.45C156.221 97.5573 156.434 96.7557 156.858 96.045C157.283 95.3343 157.864 94.7797 158.6 94.381C159.346 93.9737 160.178 93.77 161.096 93.77C161.842 93.77 162.522 93.9 163.137 94.16C163.753 94.42 164.273 94.797 164.697 95.291L163.605 96.318C162.947 95.6073 162.136 95.252 161.174 95.252C160.55 95.252 159.991 95.3907 159.497 95.668C159.003 95.9367 158.618 96.3137 158.34 96.799C158.063 97.2843 157.924 97.8347 157.924 98.45C157.924 99.0653 158.063 99.6157 158.34 100.101C158.618 100.586 159.003 100.968 159.497 101.245C159.991 101.514 160.55 101.648 161.174 101.648C162.136 101.648 162.947 101.288 163.605 100.569L164.697 101.609C164.273 102.103 163.748 102.48 163.124 102.74C162.509 103 161.829 103.13 161.083 103.13ZM173.142 101.583V103H166.317V93.9H172.96V95.317H168.007V97.683H172.401V99.074H168.007V101.583H173.142Z" fill="#202020"/>
<path d="M45.434 133.13C44.5153 133.13 43.6833 132.931 42.938 132.532C42.2013 132.125 41.6207 131.566 41.196 130.855C40.78 130.144 40.572 129.343 40.572 128.45C40.572 127.557 40.7843 126.756 41.209 126.045C41.6337 125.334 42.2143 124.78 42.951 124.381C43.6963 123.974 44.5283 123.77 45.447 123.77C46.1923 123.77 46.8727 123.9 47.488 124.16C48.1033 124.42 48.6233 124.797 49.048 125.291L47.956 126.318C47.2973 125.607 46.487 125.252 45.525 125.252C44.901 125.252 44.342 125.391 43.848 125.668C43.354 125.937 42.9683 126.314 42.691 126.799C42.4137 127.284 42.275 127.835 42.275 128.45C42.275 129.065 42.4137 129.616 42.691 130.101C42.9683 130.586 43.354 130.968 43.848 131.245C44.342 131.514 44.901 131.648 45.525 131.648C46.487 131.648 47.2973 131.288 47.956 130.569L49.048 131.609C48.6233 132.103 48.099 132.48 47.475 132.74C46.8597 133 46.1793 133.13 45.434 133.13ZM50.6673 123.9H52.3573V133H50.6673V123.9ZM63.0752 123.9L59.1102 133H57.4462L53.4682 123.9H55.3012L58.3302 130.92L61.3852 123.9H63.0752ZM64.0355 123.9H65.7255V133H64.0355V123.9ZM68.1868 123.9H69.8768V131.57H74.6348V133H68.1868V123.9ZM86.3868 131.583V133H79.5618V123.9H86.2048V125.317H81.2518V127.683H85.6458V129.074H81.2518V131.583H86.3868ZM96.3568 123.9V133H94.9658L89.9478 126.838V133H88.2708V123.9H89.6618L94.6798 130.062V123.9H96.3568ZM105.009 128.346H106.608V131.973C106.14 132.346 105.594 132.632 104.97 132.831C104.346 133.03 103.705 133.13 103.046 133.13C102.119 133.13 101.283 132.931 100.537 132.532C99.7919 132.125 99.2069 131.566 98.7822 130.855C98.3576 130.144 98.1452 129.343 98.1452 128.45C98.1452 127.557 98.3576 126.756 98.7822 126.045C99.2069 125.334 99.7919 124.78 100.537 124.381C101.291 123.974 102.136 123.77 103.072 123.77C103.835 123.77 104.528 123.896 105.152 124.147C105.776 124.398 106.301 124.767 106.725 125.252L105.659 126.292C104.966 125.599 104.13 125.252 103.15 125.252C102.509 125.252 101.937 125.386 101.434 125.655C100.94 125.924 100.55 126.301 100.264 126.786C99.9869 127.271 99.8482 127.826 99.8482 128.45C99.8482 129.057 99.9869 129.603 100.264 130.088C100.55 130.573 100.94 130.955 101.434 131.232C101.937 131.509 102.505 131.648 103.137 131.648C103.848 131.648 104.472 131.492 105.009 131.18V128.346ZM108.837 123.9H110.527V133H108.837V123.9ZM121.075 123.9V133H119.684L114.666 126.838V133H112.989V123.9H114.38L119.398 130.062V123.9H121.075ZM130.338 131.583V133H123.513V123.9H130.156V125.317H125.203V127.683H129.597V129.074H125.203V131.583H130.338ZM139.047 131.583V133H132.222V123.9H138.865V125.317H133.912V127.683H138.306V129.074H133.912V131.583H139.047ZM146.885 133L145.026 130.335C144.948 130.344 144.831 130.348 144.675 130.348H142.621V133H140.931V123.9H144.675C145.464 123.9 146.148 124.03 146.729 124.29C147.318 124.55 147.769 124.923 148.081 125.408C148.393 125.893 148.549 126.47 148.549 127.137C148.549 127.822 148.38 128.411 148.042 128.905C147.713 129.399 147.236 129.767 146.612 130.01L148.705 133H146.885ZM146.846 127.137C146.846 126.556 146.655 126.11 146.274 125.798C145.893 125.486 145.334 125.33 144.597 125.33H142.621V128.957H144.597C145.334 128.957 145.893 128.801 146.274 128.489C146.655 128.168 146.846 127.718 146.846 127.137ZM150.44 123.9H152.13V133H150.44V123.9ZM162.677 123.9V133H161.286L156.268 126.838V133H154.591V123.9H155.982L161 130.062V123.9H162.677ZM171.33 128.346H172.929V131.973C172.461 132.346 171.915 132.632 171.291 132.831C170.667 133.03 170.025 133.13 169.367 133.13C168.439 133.13 167.603 132.931 166.858 132.532C166.112 132.125 165.527 131.566 165.103 130.855C164.678 130.144 164.466 129.343 164.466 128.45C164.466 127.557 164.678 126.756 165.103 126.045C165.527 125.334 166.112 124.78 166.858 124.381C167.612 123.974 168.457 123.77 169.393 123.77C170.155 123.77 170.849 123.896 171.473 124.147C172.097 124.398 172.621 124.767 173.046 125.252L171.98 126.292C171.286 125.599 170.45 125.252 169.471 125.252C168.829 125.252 168.257 125.386 167.755 125.655C167.261 125.924 166.871 126.301 166.585 126.786C166.307 127.271 166.169 127.826 166.169 128.45C166.169 129.057 166.307 129.603 166.585 130.088C166.871 130.573 167.261 130.955 167.755 131.232C168.257 131.509 168.825 131.648 169.458 131.648C170.168 131.648 170.792 131.492 171.33 131.18V128.346Z" fill="#202020"/>
<path d="M37.047 251.583V253H30.222V243.9H36.865V245.317H31.912V247.683H36.306V249.074H31.912V251.583H37.047ZM38.931 243.9H40.621V251.57H45.379V253H38.931V243.9ZM53.5382 251.583V253H46.7132V243.9H53.3562V245.317H48.4032V247.683H52.7972V249.074H48.4032V251.583H53.5382ZM59.5961 253.13C58.6774 253.13 57.8454 252.931 57.1001 252.532C56.3634 252.125 55.7828 251.566 55.3581 250.855C54.9421 250.144 54.7341 249.343 54.7341 248.45C54.7341 247.557 54.9464 246.756 55.3711 246.045C55.7958 245.334 56.3764 244.78 57.1131 244.381C57.8584 243.974 58.6904 243.77 59.6091 243.77C60.3544 243.77 61.0348 243.9 61.6501 244.16C62.2654 244.42 62.7854 244.797 63.2101 245.291L62.1181 246.318C61.4594 245.607 60.6491 245.252 59.6871 245.252C59.0631 245.252 58.5041 245.391 58.0101 245.668C57.5161 245.937 57.1304 246.314 56.8531 246.799C56.5758 247.284 56.4371 247.835 56.4371 248.45C56.4371 249.065 56.5758 249.616 56.8531 250.101C57.1304 250.586 57.5161 250.968 58.0101 251.245C58.5041 251.514 59.0631 251.648 59.6871 251.648C60.6491 251.648 61.4594 251.288 62.1181 250.569L63.2101 251.609C62.7854 252.103 62.2611 252.48 61.6371 252.74C61.0218 253 60.3414 253.13 59.5961 253.13ZM66.5739 245.33H63.5579V243.9H71.2799V245.33H68.2639V253H66.5739V245.33ZM78.5022 253L76.6432 250.335C76.5652 250.344 76.4482 250.348 76.2922 250.348H74.2382V253H72.5482V243.9H76.2922C77.0808 243.9 77.7655 244.03 78.3462 244.29C78.9355 244.55 79.3862 244.923 79.6982 245.408C80.0102 245.893 80.1662 246.47 80.1662 247.137C80.1662 247.822 79.9972 248.411 79.6592 248.905C79.3298 249.399 78.8532 249.767 78.2292 250.01L80.3222 253H78.5022ZM78.4632 247.137C78.4632 246.556 78.2725 246.11 77.8912 245.798C77.5098 245.486 76.9508 245.33 76.2142 245.33H74.2382V248.957H76.2142C76.9508 248.957 77.5098 248.801 77.8912 248.489C78.2725 248.168 78.4632 247.718 78.4632 247.137ZM82.057 243.9H83.747V253H82.057V243.9ZM90.4203 253.13C89.5017 253.13 88.6697 252.931 87.9243 252.532C87.1877 252.125 86.607 251.566 86.1823 250.855C85.7663 250.144 85.5583 249.343 85.5583 248.45C85.5583 247.557 85.7707 246.756 86.1953 246.045C86.62 245.334 87.2007 244.78 87.9373 244.381C88.6827 243.974 89.5147 243.77 90.4333 243.77C91.1787 243.77 91.859 243.9 92.4743 244.16C93.0897 244.42 93.6097 244.797 94.0343 245.291L92.9423 246.318C92.2837 245.607 91.4733 245.252 90.5113 245.252C89.8873 245.252 89.3283 245.391 88.8343 245.668C88.3403 245.937 87.9547 246.314 87.6773 246.799C87.4 247.284 87.2613 247.835 87.2613 248.45C87.2613 249.065 87.4 249.616 87.6773 250.101C87.9547 250.586 88.3403 250.968 88.8343 251.245C89.3283 251.514 89.8873 251.648 90.5113 251.648C91.4733 251.648 92.2837 251.288 92.9423 250.569L94.0343 251.609C93.6097 252.103 93.0853 252.48 92.4613 252.74C91.846 253 91.1657 253.13 90.4203 253.13ZM101.365 250.894H96.8152L95.9182 253H94.1762L98.2712 243.9H99.9352L104.043 253H102.275L101.365 250.894ZM100.806 249.568L99.0902 245.59L97.3872 249.568H100.806ZM105.201 243.9H106.891V251.57H111.649V253H105.201V243.9ZM123.401 251.583V253H116.576V243.9H123.219V245.317H118.266V247.683H122.66V249.074H118.266V251.583H123.401ZM133.371 243.9V253H131.98L126.962 246.838V253H125.285V243.9H126.676L131.694 250.062V243.9H133.371ZM142.023 248.346H143.622V251.973C143.154 252.346 142.608 252.632 141.984 252.831C141.36 253.03 140.719 253.13 140.06 253.13C139.133 253.13 138.296 252.931 137.551 252.532C136.806 252.125 136.221 251.566 135.796 250.855C135.371 250.144 135.159 249.343 135.159 248.45C135.159 247.557 135.371 246.756 135.796 246.045C136.221 245.334 136.806 244.78 137.551 244.381C138.305 243.974 139.15 243.77 140.086 243.77C140.849 243.77 141.542 243.896 142.166 244.147C142.79 244.398 143.314 244.767 143.739 245.252L142.673 246.292C141.98 245.599 141.143 245.252 140.164 245.252C139.523 245.252 138.951 245.386 138.448 245.655C137.954 245.924 137.564 246.301 137.278 246.786C137.001 247.271 136.862 247.826 136.862 248.45C136.862 249.057 137.001 249.603 137.278 250.088C137.564 250.573 137.954 250.955 138.448 251.232C138.951 251.509 139.518 251.648 140.151 251.648C140.862 251.648 141.486 251.492 142.023 251.18V248.346ZM145.851 243.9H147.541V253H145.851V243.9ZM158.088 243.9V253H156.697L151.679 246.838V253H150.002V243.9H151.393L156.411 250.062V243.9H158.088ZM167.352 251.583V253H160.527V243.9H167.17V245.317H162.217V247.683H166.611V249.074H162.217V251.583H167.352ZM176.061 251.583V253H169.236V243.9H175.879V245.317H170.926V247.683H175.32V249.074H170.926V251.583H176.061ZM183.899 253L182.04 250.335C181.962 250.344 181.845 250.348 181.689 250.348H179.635V253H177.945V243.9H181.689C182.477 243.9 183.162 244.03 183.743 244.29C184.332 244.55 184.783 244.923 185.095 245.408C185.407 245.893 185.563 246.47 185.563 247.137C185.563 247.822 185.394 248.411 185.056 248.905C184.726 249.399 184.25 249.767 183.626 250.01L185.719 253H183.899ZM183.86 247.137C183.86 246.556 183.669 246.11 183.288 245.798C182.906 245.486 182.347 245.33 181.611 245.33H179.635V248.957H181.611C182.347 248.957 182.906 248.801 183.288 248.489C183.669 248.168 183.86 247.718 183.86 247.137ZM187.453 243.9H189.143V253H187.453V243.9ZM199.691 243.9V253H198.3L193.282 246.838V253H191.605V243.9H192.996L198.014 250.062V243.9H199.691ZM208.343 248.346H209.942V251.973C209.474 252.346 208.928 252.632 208.304 252.831C207.68 253.03 207.039 253.13 206.38 253.13C205.453 253.13 204.617 252.931 203.871 252.532C203.126 252.125 202.541 251.566 202.116 250.855C201.692 250.144 201.479 249.343 201.479 248.45C201.479 247.557 201.692 246.756 202.116 246.045C202.541 245.334 203.126 244.78 203.871 244.381C204.625 243.974 205.47 243.77 206.406 243.77C207.169 243.77 207.862 243.896 208.486 244.147C209.11 244.398 209.635 244.767 210.059 245.252L208.993 246.292C208.3 245.599 207.464 245.252 206.484 245.252C205.843 245.252 205.271 245.386 204.768 245.655C204.274 245.924 203.884 246.301 203.598 246.786C203.321 247.271 203.182 247.826 203.182 248.45C203.182 249.057 203.321 249.603 203.598 250.088C203.884 250.573 204.274 250.955 204.768 251.232C205.271 251.509 205.839 251.648 206.471 251.648C207.182 251.648 207.806 251.492 208.343 251.18V248.346Z" fill="#202020"/>
<path d="M74.222 153.9H78.2C79.1707 153.9 80.033 154.091 80.787 154.472C81.541 154.845 82.126 155.378 82.542 156.071C82.958 156.756 83.166 157.549 83.166 158.45C83.166 159.351 82.958 160.149 82.542 160.842C82.126 161.527 81.541 162.06 80.787 162.441C80.033 162.814 79.1707 163 78.2 163H74.222V153.9ZM78.122 161.57C78.7893 161.57 79.3743 161.444 79.877 161.193C80.3883 160.933 80.7783 160.569 81.047 160.101C81.3243 159.624 81.463 159.074 81.463 158.45C81.463 157.826 81.3243 157.28 81.047 156.812C80.7783 156.335 80.3883 155.971 79.877 155.72C79.3743 155.46 78.7893 155.33 78.122 155.33H75.912V161.57H78.122ZM90.7373 160.894H86.1873L85.2903 163H83.5483L87.6433 153.9H89.3073L93.4153 163H91.6473L90.7373 160.894ZM90.1783 159.568L88.4623 155.59L86.7593 159.568H90.1783ZM95.9616 155.33H92.9456V153.9H100.668V155.33H97.6516V163H95.9616V155.33ZM107.381 160.894H102.831L101.934 163H100.192L104.287 153.9H105.951L110.059 163H108.291L107.381 160.894ZM106.822 159.568L105.106 155.59L103.403 159.568H106.822ZM117.63 163.13C116.928 163.13 116.248 163.03 115.589 162.831C114.939 162.632 114.423 162.367 114.042 162.038L114.627 160.725C115 161.02 115.455 161.262 115.992 161.453C116.538 161.635 117.084 161.726 117.63 161.726C118.306 161.726 118.809 161.618 119.138 161.401C119.476 161.184 119.645 160.898 119.645 160.543C119.645 160.283 119.55 160.071 119.359 159.906C119.177 159.733 118.943 159.598 118.657 159.503C118.371 159.408 117.981 159.299 117.487 159.178C116.794 159.013 116.23 158.849 115.797 158.684C115.372 158.519 115.004 158.264 114.692 157.917C114.389 157.562 114.237 157.085 114.237 156.487C114.237 155.984 114.371 155.529 114.64 155.122C114.917 154.706 115.329 154.377 115.875 154.134C116.43 153.891 117.106 153.77 117.903 153.77C118.458 153.77 119.004 153.839 119.541 153.978C120.078 154.117 120.542 154.316 120.932 154.576L120.399 155.889C120 155.655 119.584 155.477 119.151 155.356C118.718 155.235 118.297 155.174 117.89 155.174C117.223 155.174 116.724 155.287 116.395 155.512C116.074 155.737 115.914 156.036 115.914 156.409C115.914 156.669 116.005 156.881 116.187 157.046C116.378 157.211 116.616 157.341 116.902 157.436C117.188 157.531 117.578 157.64 118.072 157.761C118.748 157.917 119.303 158.082 119.736 158.255C120.169 158.42 120.538 158.675 120.841 159.022C121.153 159.369 121.309 159.837 121.309 160.426C121.309 160.929 121.17 161.384 120.893 161.791C120.624 162.198 120.213 162.523 119.658 162.766C119.103 163.009 118.427 163.13 117.63 163.13ZM127.197 163.13C126.278 163.13 125.446 162.931 124.701 162.532C123.964 162.125 123.383 161.566 122.959 160.855C122.543 160.144 122.335 159.343 122.335 158.45C122.335 157.557 122.547 156.756 122.972 156.045C123.396 155.334 123.977 154.78 124.714 154.381C125.459 153.974 126.291 153.77 127.21 153.77C127.955 153.77 128.635 153.9 129.251 154.16C129.866 154.42 130.386 154.797 130.811 155.291L129.719 156.318C129.06 155.607 128.25 155.252 127.288 155.252C126.664 155.252 126.105 155.391 125.611 155.668C125.117 155.937 124.731 156.314 124.454 156.799C124.176 157.284 124.038 157.835 124.038 158.45C124.038 159.065 124.176 159.616 124.454 160.101C124.731 160.586 125.117 160.968 125.611 161.245C126.105 161.514 126.664 161.648 127.288 161.648C128.25 161.648 129.06 161.288 129.719 160.569L130.811 161.609C130.386 162.103 129.862 162.48 129.238 162.74C128.622 163 127.942 163.13 127.197 163.13ZM132.43 153.9H134.12V163H132.43V153.9ZM143.406 161.583V163H136.581V153.9H143.224V155.317H138.271V157.683H142.665V159.074H138.271V161.583H143.406ZM153.376 153.9V163H151.985L146.967 156.838V163H145.29V153.9H146.681L151.699 160.062V153.9H153.376ZM160.027 163.13C159.108 163.13 158.276 162.931 157.531 162.532C156.794 162.125 156.213 161.566 155.789 160.855C155.373 160.144 155.165 159.343 155.165 158.45C155.165 157.557 155.377 156.756 155.802 156.045C156.226 155.334 156.807 154.78 157.544 154.381C158.289 153.974 159.121 153.77 160.04 153.77C160.785 153.77 161.465 153.9 162.081 154.16C162.696 154.42 163.216 154.797 163.641 155.291L162.549 156.318C161.89 155.607 161.08 155.252 160.118 155.252C159.494 155.252 158.935 155.391 158.441 155.668C157.947 155.937 157.561 156.314 157.284 156.799C157.006 157.284 156.868 157.835 156.868 158.45C156.868 159.065 157.006 159.616 157.284 160.101C157.561 160.586 157.947 160.968 158.441 161.245C158.935 161.514 159.494 161.648 160.118 161.648C161.08 161.648 161.89 161.288 162.549 160.569L163.641 161.609C163.216 162.103 162.692 162.48 162.068 162.74C161.452 163 160.772 163.13 160.027 163.13ZM172.085 161.583V163H165.26V153.9H171.903V155.317H166.95V157.683H171.344V159.074H166.95V161.583H172.085Z" fill="#202020"/>
<path d="M71.67 188.268C72.1727 188.433 72.5713 188.71 72.866 189.1C73.1607 189.481 73.308 189.958 73.308 190.53C73.308 191.319 73.0047 191.93 72.398 192.363C71.7913 192.788 70.9073 193 69.746 193H65.222V183.9H69.486C70.5607 183.9 71.3883 184.112 71.969 184.537C72.5497 184.953 72.84 185.529 72.84 186.266C72.84 186.717 72.736 187.115 72.528 187.462C72.32 187.809 72.034 188.077 71.67 188.268ZM66.912 185.226V187.735H69.304C69.8933 187.735 70.344 187.631 70.656 187.423C70.9767 187.206 71.137 186.894 71.137 186.487C71.137 186.071 70.9767 185.759 70.656 185.551C70.344 185.334 69.8933 185.226 69.304 185.226H66.912ZM69.642 191.674C70.9507 191.674 71.605 191.236 71.605 190.361C71.605 189.486 70.9507 189.048 69.642 189.048H66.912V191.674H69.642ZM75.1116 183.9H76.8016V193H75.1116V183.9ZM83.514 193.13C82.5867 193.13 81.7503 192.931 81.005 192.532C80.2597 192.125 79.6747 191.566 79.25 190.855C78.8253 190.136 78.613 189.334 78.613 188.45C78.613 187.566 78.8253 186.769 79.25 186.058C79.6747 185.339 80.2597 184.78 81.005 184.381C81.7503 183.974 82.5867 183.77 83.514 183.77C84.4413 183.77 85.2777 183.974 86.023 184.381C86.7683 184.78 87.3533 185.334 87.778 186.045C88.2027 186.756 88.415 187.557 88.415 188.45C88.415 189.343 88.2027 190.144 87.778 190.855C87.3533 191.566 86.7683 192.125 86.023 192.532C85.2777 192.931 84.4413 193.13 83.514 193.13ZM83.514 191.648C84.1207 191.648 84.6667 191.514 85.152 191.245C85.6373 190.968 86.0187 190.586 86.296 190.101C86.5733 189.607 86.712 189.057 86.712 188.45C86.712 187.843 86.5733 187.297 86.296 186.812C86.0187 186.318 85.6373 185.937 85.152 185.668C84.6667 185.391 84.1207 185.252 83.514 185.252C82.9073 185.252 82.3613 185.391 81.876 185.668C81.3907 185.937 81.0093 186.318 80.732 186.812C80.4547 187.297 80.316 187.843 80.316 188.45C80.316 189.057 80.4547 189.607 80.732 190.101C81.0093 190.586 81.3907 190.968 81.876 191.245C82.3613 191.514 82.9073 191.648 83.514 191.648ZM97.0314 191.583V193H90.2064V183.9H96.8494V185.317H91.8964V187.683H96.2904V189.074H91.8964V191.583H97.0314ZM107.001 183.9V193H105.61L100.592 186.838V193H98.9154V183.9H100.306L105.324 190.062V183.9H107.001ZM115.654 188.346H117.253V191.973C116.785 192.346 116.239 192.632 115.615 192.831C114.991 193.03 114.349 193.13 113.691 193.13C112.763 193.13 111.927 192.931 111.182 192.532C110.436 192.125 109.851 191.566 109.427 190.855C109.002 190.144 108.79 189.343 108.79 188.45C108.79 187.557 109.002 186.756 109.427 186.045C109.851 185.334 110.436 184.78 111.182 184.381C111.936 183.974 112.781 183.77 113.717 183.77C114.479 183.77 115.173 183.896 115.797 184.147C116.421 184.398 116.945 184.767 117.37 185.252L116.304 186.292C115.61 185.599 114.774 185.252 113.795 185.252C113.153 185.252 112.581 185.386 112.079 185.655C111.585 185.924 111.195 186.301 110.909 186.786C110.631 187.271 110.493 187.826 110.493 188.45C110.493 189.057 110.631 189.603 110.909 190.088C111.195 190.573 111.585 190.955 112.079 191.232C112.581 191.509 113.149 191.648 113.782 191.648C114.492 191.648 115.116 191.492 115.654 191.18V188.346ZM119.482 183.9H121.172V193H119.482V183.9ZM131.719 183.9V193H130.328L125.31 186.838V193H123.633V183.9H125.024L130.042 190.062V183.9H131.719ZM140.983 191.583V193H134.158V183.9H140.801V185.317H135.848V187.683H140.242V189.074H135.848V191.583H140.983ZM149.692 191.583V193H142.867V183.9H149.51V185.317H144.557V187.683H148.951V189.074H144.557V191.583H149.692ZM157.53 193L155.671 190.335C155.593 190.344 155.476 190.348 155.32 190.348H153.266V193H151.576V183.9H155.32C156.108 183.9 156.793 184.03 157.374 184.29C157.963 184.55 158.414 184.923 158.726 185.408C159.038 185.893 159.194 186.47 159.194 187.137C159.194 187.822 159.025 188.411 158.687 188.905C158.357 189.399 157.881 189.767 157.257 190.01L159.35 193H157.53ZM157.491 187.137C157.491 186.556 157.3 186.11 156.919 185.798C156.537 185.486 155.978 185.33 155.242 185.33H153.266V188.957H155.242C155.978 188.957 156.537 188.801 156.919 188.489C157.3 188.168 157.491 187.718 157.491 187.137ZM161.084 183.9H162.774V193H161.084V183.9ZM173.322 183.9V193H171.931L166.913 186.838V193H165.236V183.9H166.627L171.645 190.062V183.9H173.322ZM181.974 188.346H183.573V191.973C183.105 192.346 182.559 192.632 181.935 192.831C181.311 193.03 180.67 193.13 180.011 193.13C179.084 193.13 178.247 192.931 177.502 192.532C176.757 192.125 176.172 191.566 175.747 190.855C175.322 190.144 175.11 189.343 175.11 188.45C175.11 187.557 175.322 186.756 175.747 186.045C176.172 185.334 176.757 184.78 177.502 184.381C178.256 183.974 179.101 183.77 180.037 183.77C180.8 183.77 181.493 183.896 182.117 184.147C182.741 184.398 183.265 184.767 183.69 185.252L182.624 186.292C181.931 185.599 181.094 185.252 180.115 185.252C179.474 185.252 178.902 185.386 178.399 185.655C177.905 185.924 177.515 186.301 177.229 186.786C176.952 187.271 176.813 187.826 176.813 188.45C176.813 189.057 176.952 189.603 177.229 190.088C177.515 190.573 177.905 190.955 178.399 191.232C178.902 191.509 179.469 191.648 180.102 191.648C180.813 191.648 181.437 191.492 181.974 191.18V188.346Z" fill="#202020"/>
<path d="M9.581 223L9.568 216.968L6.578 221.96H5.824L2.834 217.046V223H1.222V213.9H2.613L6.227 219.932L9.776 213.9H11.167L11.18 223H9.581ZM17.889 223.13C16.9617 223.13 16.1253 222.931 15.38 222.532C14.6347 222.125 14.0497 221.566 13.625 220.855C13.2003 220.136 12.988 219.334 12.988 218.45C12.988 217.566 13.2003 216.769 13.625 216.058C14.0497 215.339 14.6347 214.78 15.38 214.381C16.1253 213.974 16.9617 213.77 17.889 213.77C18.8163 213.77 19.6527 213.974 20.398 214.381C21.1433 214.78 21.7283 215.334 22.153 216.045C22.5777 216.756 22.79 217.557 22.79 218.45C22.79 219.343 22.5777 220.144 22.153 220.855C21.7283 221.566 21.1433 222.125 20.398 222.532C19.6527 222.931 18.8163 223.13 17.889 223.13ZM17.889 221.648C18.4957 221.648 19.0417 221.514 19.527 221.245C20.0123 220.968 20.3937 220.586 20.671 220.101C20.9483 219.607 21.087 219.057 21.087 218.45C21.087 217.843 20.9483 217.297 20.671 216.812C20.3937 216.318 20.0123 215.937 19.527 215.668C19.0417 215.391 18.4957 215.252 17.889 215.252C17.2823 215.252 16.7363 215.391 16.251 215.668C15.7657 215.937 15.3843 216.318 15.107 216.812C14.8297 217.297 14.691 217.843 14.691 218.45C14.691 219.057 14.8297 219.607 15.107 220.101C15.3843 220.586 15.7657 220.968 16.251 221.245C16.7363 221.514 17.2823 221.648 17.889 221.648ZM24.5814 213.9H26.2714V221.57H31.0294V223H24.5814V213.9ZM39.1886 221.583V223H32.3636V213.9H39.0066V215.317H34.0536V217.683H38.4476V219.074H34.0536V221.583H39.1886ZM45.2465 223.13C44.3278 223.13 43.4958 222.931 42.7505 222.532C42.0138 222.125 41.4332 221.566 41.0085 220.855C40.5925 220.144 40.3845 219.343 40.3845 218.45C40.3845 217.557 40.5968 216.756 41.0215 216.045C41.4462 215.334 42.0268 214.78 42.7635 214.381C43.5088 213.974 44.3408 213.77 45.2595 213.77C46.0048 213.77 46.6852 213.9 47.3005 214.16C47.9158 214.42 48.4358 214.797 48.8605 215.291L47.7685 216.318C47.1098 215.607 46.2995 215.252 45.3375 215.252C44.7135 215.252 44.1545 215.391 43.6605 215.668C43.1665 215.937 42.7808 216.314 42.5035 216.799C42.2262 217.284 42.0875 217.835 42.0875 218.45C42.0875 219.065 42.2262 219.616 42.5035 220.101C42.7808 220.586 43.1665 220.968 43.6605 221.245C44.1545 221.514 44.7135 221.648 45.3375 221.648C46.2995 221.648 47.1098 221.288 47.7685 220.569L48.8605 221.609C48.4358 222.103 47.9115 222.48 47.2875 222.74C46.6722 223 45.9918 223.13 45.2465 223.13ZM54.3293 223.13C53.0727 223.13 52.0933 222.779 51.3913 222.077C50.6893 221.366 50.3383 220.352 50.3383 219.035V213.9H52.0283V218.97C52.0283 220.755 52.7997 221.648 54.3423 221.648C55.8763 221.648 56.6433 220.755 56.6433 218.97V213.9H58.3073V219.035C58.3073 220.352 57.9563 221.366 57.2543 222.077C56.561 222.779 55.586 223.13 54.3293 223.13ZM60.6741 213.9H62.3641V221.57H67.1221V223H60.6741V213.9ZM74.4219 220.894H69.8719L68.9749 223H67.2329L71.3279 213.9H72.9919L77.0999 223H75.3319L74.4219 220.894ZM73.8629 219.568L72.1469 215.59L70.4439 219.568H73.8629ZM84.2112 223L82.3522 220.335C82.2742 220.344 82.1572 220.348 82.0012 220.348H79.9472V223H78.2572V213.9H82.0012C82.7898 213.9 83.4745 214.03 84.0552 214.29C84.6445 214.55 85.0952 214.923 85.4072 215.408C85.7192 215.893 85.8752 216.47 85.8752 217.137C85.8752 217.822 85.7062 218.411 85.3682 218.905C85.0388 219.399 84.5622 219.767 83.9382 220.01L86.0312 223H84.2112ZM84.1722 217.137C84.1722 216.556 83.9815 216.11 83.6002 215.798C83.2188 215.486 82.6598 215.33 81.9232 215.33H79.9472V218.957H81.9232C82.6598 218.957 83.2188 218.801 83.6002 218.489C83.9815 218.168 84.1722 217.718 84.1722 217.137ZM98.1837 223.143L97.0397 222.038C96.1904 222.766 95.1721 223.13 93.9847 223.13C93.3521 223.13 92.7844 223.026 92.2817 222.818C91.7791 222.61 91.3847 222.324 91.0987 221.96C90.8127 221.587 90.6697 221.167 90.6697 220.699C90.6697 220.136 90.8344 219.642 91.1637 219.217C91.4931 218.784 92.0304 218.359 92.7757 217.943C92.4117 217.579 92.1517 217.241 91.9957 216.929C91.8397 216.608 91.7617 216.279 91.7617 215.941C91.7617 215.3 92.0001 214.784 92.4767 214.394C92.9621 213.995 93.6034 213.796 94.4007 213.796C95.1374 213.796 95.7267 213.978 96.1687 214.342C96.6107 214.697 96.8317 215.183 96.8317 215.798C96.8317 216.266 96.6844 216.682 96.3897 217.046C96.1037 217.41 95.6314 217.778 94.9727 218.151L96.9357 220.023C97.1524 219.598 97.3214 219.087 97.4427 218.489L98.7557 218.918C98.5824 219.724 98.3094 220.417 97.9367 220.998L99.0807 222.09L98.1837 223.143ZM94.4007 214.953C94.0454 214.953 93.7637 215.044 93.5557 215.226C93.3477 215.399 93.2437 215.629 93.2437 215.915C93.2437 216.123 93.3001 216.322 93.4127 216.513C93.5254 216.695 93.7421 216.946 94.0627 217.267C94.5827 216.981 94.9424 216.734 95.1417 216.526C95.3497 216.309 95.4537 216.075 95.4537 215.824C95.4537 215.555 95.3584 215.343 95.1677 215.187C94.9857 215.031 94.7301 214.953 94.4007 214.953ZM94.1017 221.804C94.8557 221.804 95.5144 221.574 96.0777 221.115L93.6727 218.814C93.1527 219.1 92.7844 219.377 92.5677 219.646C92.3597 219.906 92.2557 220.201 92.2557 220.53C92.2557 220.911 92.4247 221.219 92.7627 221.453C93.1007 221.687 93.5471 221.804 94.1017 221.804ZM108.342 223.13C107.424 223.13 106.592 222.931 105.846 222.532C105.11 222.125 104.529 221.566 104.104 220.855C103.688 220.144 103.48 219.343 103.48 218.45C103.48 217.557 103.693 216.756 104.117 216.045C104.542 215.334 105.123 214.78 105.859 214.381C106.605 213.974 107.437 213.77 108.355 213.77C109.101 213.77 109.781 213.9 110.396 214.16C111.012 214.42 111.532 214.797 111.956 215.291L110.864 216.318C110.206 215.607 109.395 215.252 108.433 215.252C107.809 215.252 107.25 215.391 106.756 215.668C106.262 215.937 105.877 216.314 105.599 216.799C105.322 217.284 105.183 217.835 105.183 218.45C105.183 219.065 105.322 219.616 105.599 220.101C105.877 220.586 106.262 220.968 106.756 221.245C107.25 221.514 107.809 221.648 108.433 221.648C109.395 221.648 110.206 221.288 110.864 220.569L111.956 221.609C111.532 222.103 111.007 222.48 110.383 222.74C109.768 223 109.088 223.13 108.342 223.13ZM120.401 221.583V223H113.576V213.9H120.219V215.317H115.266V217.683H119.66V219.074H115.266V221.583H120.401ZM122.285 213.9H123.975V221.57H128.733V223H122.285V213.9ZM130.067 213.9H131.757V221.57H136.515V223H130.067V213.9ZM147.89 218.268C148.392 218.433 148.791 218.71 149.086 219.1C149.38 219.481 149.528 219.958 149.528 220.53C149.528 221.319 149.224 221.93 148.618 222.363C148.011 222.788 147.127 223 145.966 223H141.442V213.9H145.706C146.78 213.9 147.608 214.112 148.189 214.537C148.769 214.953 149.06 215.529 149.06 216.266C149.06 216.717 148.956 217.115 148.748 217.462C148.54 217.809 148.254 218.077 147.89 218.268ZM143.132 215.226V217.735H145.524C146.113 217.735 146.564 217.631 146.876 217.423C147.196 217.206 147.357 216.894 147.357 216.487C147.357 216.071 147.196 215.759 146.876 215.551C146.564 215.334 146.113 215.226 145.524 215.226H143.132ZM145.862 221.674C147.17 221.674 147.825 221.236 147.825 220.361C147.825 219.486 147.17 219.048 145.862 219.048H143.132V221.674H145.862ZM151.331 213.9H153.021V223H151.331V213.9ZM159.734 223.13C158.806 223.13 157.97 222.931 157.225 222.532C156.479 222.125 155.894 221.566 155.47 220.855C155.045 220.136 154.833 219.334 154.833 218.45C154.833 217.566 155.045 216.769 155.47 216.058C155.894 215.339 156.479 214.78 157.225 214.381C157.97 213.974 158.806 213.77 159.734 213.77C160.661 213.77 161.497 213.974 162.243 214.381C162.988 214.78 163.573 215.334 163.998 216.045C164.422 216.756 164.635 217.557 164.635 218.45C164.635 219.343 164.422 220.144 163.998 220.855C163.573 221.566 162.988 222.125 162.243 222.532C161.497 222.931 160.661 223.13 159.734 223.13ZM159.734 221.648C160.34 221.648 160.886 221.514 161.372 221.245C161.857 220.968 162.238 220.586 162.516 220.101C162.793 219.607 162.932 219.057 162.932 218.45C162.932 217.843 162.793 217.297 162.516 216.812C162.238 216.318 161.857 215.937 161.372 215.668C160.886 215.391 160.34 215.252 159.734 215.252C159.127 215.252 158.581 215.391 158.096 215.668C157.61 215.937 157.229 216.318 156.952 216.812C156.674 217.297 156.536 217.843 156.536 218.45C156.536 219.057 156.674 219.607 156.952 220.101C157.229 220.586 157.61 220.968 158.096 221.245C158.581 221.514 159.127 221.648 159.734 221.648ZM166.426 213.9H168.116V221.57H172.874V223H166.426V213.9ZM178.294 223.13C177.367 223.13 176.531 222.931 175.785 222.532C175.04 222.125 174.455 221.566 174.03 220.855C173.606 220.136 173.393 219.334 173.393 218.45C173.393 217.566 173.606 216.769 174.03 216.058C174.455 215.339 175.04 214.78 175.785 214.381C176.531 213.974 177.367 213.77 178.294 213.77C179.222 213.77 180.058 213.974 180.803 214.381C181.549 214.78 182.134 215.334 182.558 216.045C182.983 216.756 183.195 217.557 183.195 218.45C183.195 219.343 182.983 220.144 182.558 220.855C182.134 221.566 181.549 222.125 180.803 222.532C180.058 222.931 179.222 223.13 178.294 223.13ZM178.294 221.648C178.901 221.648 179.447 221.514 179.932 221.245C180.418 220.968 180.799 220.586 181.076 220.101C181.354 219.607 181.492 219.057 181.492 218.45C181.492 217.843 181.354 217.297 181.076 216.812C180.799 216.318 180.418 215.937 179.932 215.668C179.447 215.391 178.901 215.252 178.294 215.252C177.688 215.252 177.142 215.391 176.656 215.668C176.171 215.937 175.79 216.318 175.512 216.812C175.235 217.297 175.096 217.843 175.096 218.45C175.096 219.057 175.235 219.607 175.512 220.101C175.79 220.586 176.171 220.968 176.656 221.245C177.142 221.514 177.688 221.648 178.294 221.648ZM191.201 218.346H192.8V221.973C192.332 222.346 191.786 222.632 191.162 222.831C190.538 223.03 189.896 223.13 189.238 223.13C188.31 223.13 187.474 222.931 186.729 222.532C185.983 222.125 185.398 221.566 184.974 220.855C184.549 220.144 184.337 219.343 184.337 218.45C184.337 217.557 184.549 216.756 184.974 216.045C185.398 215.334 185.983 214.78 186.729 214.381C187.483 213.974 188.328 213.77 189.264 213.77C190.026 213.77 190.72 213.896 191.344 214.147C191.968 214.398 192.492 214.767 192.917 215.252L191.851 216.292C191.157 215.599 190.321 215.252 189.342 215.252C188.7 215.252 188.128 215.386 187.626 215.655C187.132 215.924 186.742 216.301 186.456 216.786C186.178 217.271 186.04 217.826 186.04 218.45C186.04 219.057 186.178 219.603 186.456 220.088C186.742 220.573 187.132 220.955 187.626 221.232C188.128 221.509 188.696 221.648 189.329 221.648C190.039 221.648 190.663 221.492 191.201 221.18V218.346ZM198.955 219.789V223H197.265V219.815L193.69 213.9H195.497L198.162 218.333L200.853 213.9H202.517L198.955 219.789Z" fill="#202020"/>
<path d="M368.311 10.8607V6.43034V2H372.744H377.177V4.88289C377.177 6.50928 377.37 7.76578 377.62 7.76578C377.87 7.76578 378.063 6.50928 378.063 4.88289V2H379.393C380.124 2 380.723 2.16233 380.723 2.36014C380.723 2.55839 380.155 4.40477 379.46 6.46271C378.765 8.5211 377.728 12.1509 377.156 14.5295C376.584 16.9076 375.905 18.8414 375.649 18.8259C375.392 18.8104 373.636 17.0119 371.747 14.8293L368.311 10.8607Z" fill="#373737"/>
<path d="M351.22 12.5088C349.907 11.0004 349.886 10.6779 351.024 9.53987C352.14 8.42264 353.326 8.40933 354.315 9.5035C355.377 10.6771 355.036 12.2595 353.547 13.0734C352.353 13.7258 352.258 13.7028 351.22 12.5088Z" fill="#373737"/>
<path d="M361.995 56.8046C361.278 56.0085 361.219 54.2978 361.219 34.515C361.219 13.3839 361.206 13.088 360.332 13.088C359.458 13.088 359.446 13.3839 359.446 34.8858V56.6836L360.948 58.5033C361.774 59.5044 362.894 60.8221 363.436 61.4319C363.978 62.0417 364.898 63.1581 365.48 63.913L366.538 65.2857V86.8714V108.458L364.296 110.564C362.667 112.094 362.134 112.882 362.348 113.441C362.511 113.865 362.772 114.208 362.929 114.204C363.085 114.201 364.36 113.132 365.762 111.831L368.311 109.464V86.8665V64.2695L365.541 60.9684C364.017 59.1526 362.421 57.2792 361.995 56.8046Z" fill="#373737"/>
<path d="M320.558 25.4618C317.101 22.3244 312.854 20.0243 307.14 18.1956C304.021 17.1977 302.379 16.9635 297.61 16.8358C291.389 16.669 289.247 16.9289 284.635 18.4103C278.663 20.3276 271.539 24.8556 268.457 28.692C267.709 29.6234 266.769 30.3854 266.369 30.3854C265.969 30.3854 264.584 29.4828 263.292 28.3793C262.001 27.2763 260.572 26.1746 260.118 25.9311C259.484 25.5922 259.354 25.1789 259.559 24.1552C260.069 21.6019 256.864 19.9591 255.124 21.8826C253.557 23.6146 254.865 25.9475 257.408 25.9555C258.741 25.9595 259.684 26.4673 262.484 28.6885L265.923 31.4161L265.17 32.564C261.417 38.2796 258.972 44.932 258.535 50.6144L258.252 54.3005L262.417 54.4291L266.581 54.5573L266.895 57.662C267.069 59.3695 267.493 61.698 267.838 62.8365C268.184 63.9751 268.375 65.3841 268.264 65.9682C267.89 67.9255 270.378 68.7926 271.084 66.9511C271.259 66.4956 270.882 65.8072 270.032 65.0311C268.996 64.0837 268.598 63.2002 268.199 60.9631C267.565 57.4012 267.329 55.7247 267.282 54.4464C267.247 53.4929 267.079 53.4485 263.478 53.4485H259.71V51.7033C259.71 48.9512 260.857 44.2086 262.398 40.5864C263.847 37.1828 266.545 32.603 267.101 32.603C267.433 32.603 269.263 34.0045 278.881 41.6247C282.234 44.28 284.976 46.5926 284.976 46.7629C284.976 46.9332 284.566 47.9213 284.065 48.9587C280.956 55.3982 283.996 63.6406 290.631 66.7613C295.543 69.0711 301.054 68.2005 305.134 64.47C308.336 61.5419 309.568 58.6998 309.526 54.3356C309.489 50.3501 308.218 47.4299 305.421 44.9018C302.303 42.0837 300.294 41.2911 296.28 41.2973C292.285 41.3031 289.433 42.3618 287.29 44.634C286.628 45.3352 285.971 45.9086 285.83 45.9086C285.202 45.9086 268.34 32.2389 268.223 31.6348C268.05 30.7402 271.701 27.0519 275.255 24.5313C281.338 20.2177 288.547 17.9668 296.28 17.9668C302.56 17.9668 306.736 18.9771 312.681 21.9341C318.146 24.6524 321.214 27.1827 321.408 29.132C321.652 31.5776 323.704 31.9532 325.06 29.8013C325.71 28.7705 324.927 27.6236 323.175 27.0395C322.411 26.7844 321.233 26.0748 320.558 25.4618Z" fill="#373737"/>
<path d="M318.665 18.9128C318.665 18.4901 318.426 17.9047 318.133 17.612C317.84 17.3192 317.182 17.0797 316.67 17.0797C316.158 17.0797 315.5 17.3192 315.207 17.612C313.911 18.9088 315.328 21.3375 317.119 20.8878C318.378 20.5716 320.987 22.4153 324.922 26.4003C332.549 34.126 336.396 43.5012 336.396 54.3635C336.396 65.9638 332.727 74.9247 324.681 82.9746C319.649 88.0095 314.861 90.8857 307.583 93.2453C303.441 94.5882 294.419 95.0983 289.499 94.2676C286.792 93.8107 286.171 93.5344 285.391 92.4385C284.886 91.7289 284.187 91.1478 283.838 91.1478C282.765 91.1478 281.473 92.768 281.738 93.781C281.986 94.7306 283.625 95.4132 284.682 95.0069C285.009 94.8819 286.455 95.0566 287.897 95.3959C291.287 96.1938 300.743 96.1938 304.48 95.3959C320.932 91.8819 333.413 79.4198 337.027 62.8968C337.941 58.7184 337.935 50.5638 337.014 46.1091C335.347 38.0446 331.658 31.4081 325.281 25.0055C322.699 22.4126 320.153 20.1538 319.625 19.9861C319.097 19.8185 318.665 19.3355 318.665 18.9128Z" fill="#373737"/>
<path d="M265.397 23.4421C264.311 22.4588 264.371 20.8288 265.523 20.0212C267.782 18.4378 270.149 21.3038 268.285 23.3649C267.375 24.3712 266.45 24.3961 265.397 23.4421Z" fill="#373737"/>
<path d="M355.456 59.3101V39.969C355.456 20.9237 355.443 20.6279 354.57 20.6279C353.697 20.6279 353.683 20.9237 353.683 40.3739V60.1204L355.9 62.9421L358.116 65.7642V71.8617C358.116 77.3113 358.015 78.1221 357.171 79.4894C356.34 80.8342 356.304 81.0985 356.876 81.6702C357.448 82.2419 357.674 82.0973 358.748 80.4736C359.958 78.6445 359.969 78.5589 359.911 71.7322L359.852 64.8377L357.655 62.0741L355.456 59.3101Z" fill="#373737"/>
<path d="M301.31 22.3816C299.519 22.1137 297.707 21.7092 297.283 21.483C295.744 20.6603 294.728 21.0608 294.728 22.4898C294.728 23.6115 295.884 23.9756 297.203 23.2695C298.699 22.4685 303.709 23.2757 307.944 24.9997C320.381 30.0643 327.974 41.2938 327.974 54.6256C327.974 64.0402 324.408 71.997 317.311 78.4237C313.961 81.4565 307.696 84.6795 303.366 85.5972C299.455 86.4261 293.168 86.4399 289.337 85.6273C283.929 84.4804 276.554 80.5149 276.554 78.7541C276.554 78.3048 276.255 77.8222 275.889 77.6816C274.818 77.2705 273.895 77.8582 273.895 78.951C273.895 79.9432 274.638 80.5033 275.955 80.5033C276.317 80.5033 277.263 80.9987 278.056 81.6046C282.795 85.2211 290.895 87.4209 298.035 87.0306C312.615 86.2336 324.337 76.4016 328.019 61.8798C329.235 57.0858 329.03 50.0454 327.535 45.2434C323.796 33.2332 313.425 24.1925 301.31 22.3816Z" fill="#373737"/>
<path d="M324.128 44.8761C321.358 36.3357 313.999 29.1635 305.145 26.3746C298.515 24.2861 289.579 24.9141 283.487 27.8963C279.388 29.9024 274.345 33.9336 275.932 33.9336C276.078 33.9336 277.111 33.1286 278.228 32.1444C284.526 26.5977 295.188 24.3637 303.815 26.7831C308.831 28.1895 312.573 30.4226 316.479 34.3394C321.187 39.0602 323.949 44.3044 324.696 49.9411C324.855 51.1382 325.176 52.1179 325.41 52.1179C326.014 52.1179 325.458 48.98 324.128 44.8761Z" fill="#373737"/>
<path d="M318.459 48.7627C316.145 40.7429 310.219 34.7523 302.294 32.4234C296.878 30.8316 289.599 31.8539 284.533 34.9182C281.118 36.9837 280.409 37.6893 280.73 38.7014C281.24 40.3074 282.274 40.2222 284.873 38.3603C288.051 36.0829 292.107 34.8188 296.215 34.8259C304.272 34.8392 310.713 38.9081 314.334 46.271C315.732 49.1144 315.783 49.4094 315.767 54.5493C315.751 59.3491 315.633 60.1306 314.584 62.4028L313.418 64.926L314.564 65.6768C315.648 66.3874 315.742 66.3843 316.3 65.6196C318.747 62.2719 319.857 53.606 318.459 48.7627Z" fill="#373737"/>
<path d="M236.8 38.2073C234.451 38.7968 233.244 35.2468 235.502 34.3926C236.453 34.0325 237.706 34.4458 238.228 35.2916C238.81 36.2337 237.99 37.9084 236.8 38.2073Z" fill="#373737"/>
<path d="M329.839 40.8081C329.457 40.0763 329.028 38.779 328.886 37.9253C328.7 36.8125 328.372 36.3361 327.728 36.2434C327.233 36.172 326.688 36.2554 326.515 36.4279C325.848 37.0954 326.247 38.4082 327.23 38.7821C328.453 39.2478 330.906 45.0278 331.55 48.9645C332.577 55.2315 331.831 62.3358 329.563 67.9144C325.323 78.3425 316.562 85.8846 305.646 88.5031C301.494 89.4993 299.923 89.5809 298.77 88.8602C297.599 88.1283 296.408 88.708 296.581 89.9264C296.737 91.0246 296.715 91.0228 301.377 90.267C310.608 88.771 317.313 85.4344 322.901 79.5573C327.821 74.3836 330.397 69.6681 332.025 62.8552C333.635 56.1181 332.652 46.2045 329.839 40.8081Z" fill="#373737"/>
<path d="M369.938 45.651C370.118 45.1795 369.355 44.0884 367.611 42.3245C364.8 39.482 364.855 39.5148 363.878 40.1349C363.338 40.4777 363.75 41.0986 366.082 43.4546C367.66 45.0482 369.112 46.3522 369.309 46.3522C369.507 46.3522 369.79 46.0364 369.938 45.651Z" fill="#373737"/>
<path d="M248.712 42.804C254.646 42.804 255.72 42.702 255.72 42.1387C255.72 41.5745 254.617 41.4734 248.45 41.4734H241.18L238.488 43.7514C236.098 45.7738 235.481 46.7957 236.65 46.7957C236.859 46.7957 238.082 45.8976 239.368 44.7998L241.704 42.804H248.712Z" fill="#373737"/>
<path d="M278.817 44.8389L277.797 44.0529C277.235 43.621 276.651 43.2626 276.498 43.2573C276.144 43.2449 274.575 46.9137 273.941 49.2351C273.23 51.8372 273.344 57.8026 274.158 60.575C275.833 66.2791 279.834 71.5216 284.601 74.2568C287.511 75.9262 288.417 75.9776 288.789 74.4949C288.945 73.874 288.999 73.3107 288.908 73.2433C288.818 73.1764 287.747 72.5612 286.528 71.8764C283.316 70.0721 279.798 66.2614 278.171 62.825C276.845 60.0251 276.776 59.617 276.786 54.5573C276.795 49.9704 276.936 48.9312 277.807 47.037L278.817 44.8389Z" fill="#373737"/>
<path d="M243.974 46.7957C244.86 46.7957 245.082 46.5739 245.082 45.6869C245.082 44.9072 244.841 44.5781 244.269 44.5781C243.242 44.5781 242.866 44.9542 242.866 45.9827C242.866 46.5544 243.195 46.7957 243.974 46.7957Z" fill="#373737"/>
<path d="M247.52 46.7957C248.407 46.7957 248.628 46.5739 248.628 45.6869C248.628 44.7998 248.407 44.5781 247.52 44.5781C246.633 44.5781 246.412 44.7998 246.412 45.6869C246.412 46.5739 246.633 46.7957 247.52 46.7957Z" fill="#373737"/>
<path d="M251.097 46.7957C252.025 46.7957 252.21 46.6103 252.095 45.7978C252.003 45.1564 251.596 44.7493 250.955 44.6579C250.143 44.5426 249.958 44.728 249.958 45.6558C249.958 46.5841 250.169 46.7957 251.097 46.7957Z" fill="#373737"/>
<path d="M254.643 46.7957C255.571 46.7957 255.756 46.6103 255.641 45.7978C255.549 45.1564 255.142 44.7493 254.501 44.6579C253.689 44.5426 253.504 44.728 253.504 45.6558C253.504 46.5841 253.716 46.7957 254.643 46.7957Z" fill="#373737"/>
<path d="M365.896 49.9238C368.503 52.5588 369.32 52.997 369.893 52.0683C370.067 51.788 368.963 50.339 367.338 48.713C364.785 46.1588 364.414 45.9286 363.883 46.5686C363.364 47.1944 363.621 47.6233 365.896 49.9238Z" fill="#373737"/>
<path d="M242.98 54.6318C248.244 54.5595 248.411 54.5276 248.548 53.5594C248.688 52.5699 248.643 52.5615 243.104 52.5615C238.63 52.5615 237.469 52.6896 237.272 53.2055C236.776 54.4983 237.605 54.7059 242.98 54.6318Z" fill="#373737"/>
<path d="M369.641 58.1764C369.641 57.878 368.488 56.4928 367.079 55.098C365.671 53.7026 364.398 52.5615 364.252 52.5615C364.106 52.5615 363.77 52.8231 363.504 53.1434C363.133 53.5904 363.675 54.3732 365.844 56.5234C368.429 59.0874 369.641 59.6152 369.641 58.1764Z" fill="#373737"/>
<path d="M322.211 67.8865C322.211 68.8143 323.154 67.1711 323.95 64.8572C324.43 63.461 324.661 62.3189 324.463 62.3189C324.127 62.3189 322.211 67.0562 322.211 67.8865Z" fill="#373737"/>
<path d="M261.066 72.0179L258.099 68.9425L255.132 65.8671H243.901H232.67V66.9759V68.0847H243.672H254.674L257.628 71.1628L260.581 74.2412L263.917 74.2066C266.974 74.1752 267.343 74.2701 268.336 75.3421C270.551 77.7335 274.515 76.3803 274.515 73.2327C274.515 69.8113 270.438 68.3069 268.331 70.9512C267.371 72.1549 267.156 72.2152 264.193 72.1194L261.066 72.0179Z" fill="#373737"/>
<path d="M307.189 74.7123C309.333 73.6181 309.619 73.1023 308.666 72.0485C307.705 70.9854 307.539 71.0089 304.259 72.6703C302.018 73.8048 300.957 74.047 297.524 74.2071L293.449 74.3978L292.979 75.7483C292.72 76.4912 292.588 77.1787 292.685 77.2763C292.782 77.3734 294.459 77.4497 296.411 77.4457C300.031 77.4377 303.646 76.5209 307.189 74.7123Z" fill="#373737"/>
<path d="M302.841 83.3459C308.476 82.0996 315.175 78.146 318.365 74.1854C320.457 71.5881 319.535 71.8351 316.867 74.5872C313.7 77.8524 310.811 79.7653 306.475 81.4667C303.459 82.6504 302.182 82.8899 297.934 83.0678C292.105 83.3117 288.662 82.752 284.569 80.8945C282.996 80.1809 281.497 79.6793 281.237 79.7795C280.463 80.0775 286.39 82.618 289.595 83.3618C293.412 84.2475 298.794 84.2413 302.841 83.3459Z" fill="#373737"/>
<path d="M226.284 81.0187C227.437 78.5886 226.411 75.6893 223.926 74.3592C220.74 72.6525 216.713 75.1363 216.713 78.8077C216.713 79.8757 217.021 81.1903 217.398 81.7288C218.048 82.6575 217.907 83.0256 214.684 88.8131C211.449 94.6215 211.273 95.0819 211.063 98.297C210.795 102.414 211.339 104.249 213.486 106.46C215.155 108.18 216.043 108.635 222.586 111.123C226.087 112.455 226.465 112.711 226.465 113.749C226.465 115.346 228.671 117.634 230.552 117.987C233.873 118.61 236.66 116.169 236.66 112.636C236.66 110.225 234.322 108.002 231.786 108.002C230.763 108.002 229.344 108.345 228.633 108.766C227.39 109.5 227.224 109.49 224.294 108.492C216.002 105.667 213.814 103.697 213.877 99.1108C213.906 96.9158 214.273 95.98 217.269 90.4613C220.399 84.695 220.729 84.256 222.106 84.0222C224.182 83.6692 225.464 82.748 226.284 81.0187Z" fill="#373737"/>
<path d="M288.482 90.4759C283.639 89.6572 275.716 85.52 271.543 81.6316L269.856 80.0598H251.263C235.032 80.0598 232.67 80.1445 232.67 80.7251C232.67 81.3056 234.992 81.3904 250.907 81.3904H269.145L271.409 83.2864C275.79 86.9552 279.752 89.1147 285.332 90.8742C289.541 92.2021 290.296 92.2833 290.296 91.4086C290.296 91.0214 289.604 90.6653 288.482 90.4759Z" fill="#373737"/>
<path d="M265.029 89.2646C265.029 88.2144 264.214 86.6572 263.295 85.9507C260.406 83.7322 256.457 87.9496 258.581 90.9842C259.089 91.7093 259.241 93.8582 259.294 101.103L259.362 110.3L262.196 113.551L265.029 116.802V123.231V129.66L263.137 131.693C261.534 133.415 260.988 133.726 259.57 133.726C256.619 133.726 254.647 136.947 256.289 139.087C256.999 140.013 258.553 140.822 259.62 140.822C260.871 140.822 262.813 138.687 262.813 137.31C262.813 136.465 263.556 135.402 265.472 133.504L268.132 130.871V123.131V115.391L265.251 112.405L262.37 109.418V101.25V93.0816L263.699 91.5914C264.431 90.7717 265.029 89.7246 265.029 89.2646Z" fill="#373737"/>
<path d="M275.424 96.4701L272.122 93.1437C269.16 90.1601 267.689 89.1702 267.689 90.1597C267.689 90.3482 269.339 92.1444 271.355 94.1514L275.021 97.8007H278.131H281.24L285.1 101.662C288.169 104.734 289.072 105.412 289.509 104.975C289.945 104.538 289.243 103.613 286.077 100.458L282.095 96.4905L278.759 96.4803L275.424 96.4701Z" fill="#373737"/>
<path d="M233.931 96.6768C232.751 98.034 232.227 97.7581 232.227 95.7786C232.227 94.7177 232.025 94.2525 231.562 94.2525C231.018 94.2525 230.897 95.0162 230.897 98.466C230.897 101.916 231.018 102.679 231.562 102.679C231.995 102.679 232.227 102.246 232.227 101.439C232.227 99.5211 235.112 96.9136 237.233 96.9136C238.398 96.9136 238.876 96.7203 238.876 96.2483C238.876 95.7556 238.359 95.5831 236.878 95.5831C235.307 95.5831 234.678 95.8168 233.931 96.6768Z" fill="#373737"/>
<path d="M275.424 100.905L272.122 97.5789C269.16 94.5953 267.689 93.6054 267.689 94.5949C267.689 94.7834 269.339 96.5797 271.355 98.5866L275.021 102.236H278.258H281.494L285.313 106.006C287.413 108.079 289.294 109.776 289.492 109.776C290.532 109.776 289.464 108.261 285.965 104.777L282.077 100.905H278.751H275.424Z" fill="#373737"/>
<path d="M348.032 104.817C349 104.679 349.029 104.526 349.029 99.581C349.029 95.3338 348.915 94.4645 348.342 94.3541C347.965 94.2813 347.516 94.3616 347.345 94.5328C347.174 94.704 347.034 97.1199 347.034 99.9012C347.034 104.892 347.048 104.957 348.032 104.817Z" fill="#373737"/>
<path d="M352.353 104.897C353.191 104.897 353.24 104.601 353.24 99.5748C353.24 95.4354 353.109 94.2525 352.649 94.2525C351.58 94.2525 351.467 94.7914 351.467 99.8706C351.467 104.601 351.519 104.897 352.353 104.897Z" fill="#373737"/>
<path d="M356.786 104.897C357.624 104.897 357.673 104.601 357.673 99.5748C357.673 95.4354 357.542 94.2525 357.082 94.2525C356.013 94.2525 355.9 94.7914 355.9 99.8706C355.9 104.601 355.952 104.897 356.786 104.897Z" fill="#373737"/>
<path d="M361.233 104.897C362.094 104.897 362.128 104.669 362.009 99.691C361.9 95.144 361.786 94.4663 361.108 94.3363C360.404 94.201 360.332 94.6814 360.332 99.5424C360.332 104.629 360.378 104.897 361.233 104.897Z" fill="#373737"/>
<path d="M282.114 105.341H278.837H275.56L271.892 101.759C269.487 99.4107 268.114 98.3577 267.902 98.701C267.703 99.023 269.003 100.656 271.281 102.948L274.983 106.671L278.318 106.676L281.652 106.68L285.402 110.441C287.912 112.957 289.3 114.054 289.598 113.756C289.895 113.458 288.731 111.992 286.078 109.326L282.114 105.341Z" fill="#373737"/>
<path d="M282.202 109.864L278.72 109.706L275.239 109.548L271.74 106.067C269.389 103.729 268.133 102.763 267.91 103.123C267.701 103.462 268.94 105.028 271.281 107.383L274.983 111.106L278.318 111.111L281.652 111.115L285.402 114.876C287.912 117.392 289.3 118.489 289.598 118.191C289.895 117.894 288.745 116.442 286.122 113.805L282.202 109.864Z" fill="#373737"/>
<path d="M253.726 117.537L253.85 112.104C253.955 107.52 253.871 106.671 253.311 106.671C252.771 106.671 252.624 107.557 252.522 111.439L252.396 116.207L246.966 116.331C242.494 116.434 241.536 116.573 241.536 117.12C241.536 117.684 242.458 117.765 247.631 117.661L253.726 117.537Z" fill="#373737"/>
<path d="M281.67 113.767H278.346H275.022L271.632 110.395C269.353 108.128 268.133 107.198 267.91 107.558C267.702 107.896 268.865 109.387 271.059 111.596L274.539 115.098H277.822H281.106L285.21 119.125C287.904 121.768 289.425 122.971 289.638 122.626C289.839 122.299 288.39 120.52 285.816 117.934L281.67 113.767Z" fill="#373737"/>
<path d="M375.785 121.294L375.705 114.543C375.638 108.843 375.518 107.772 374.939 107.66C374.561 107.587 374.112 107.667 373.941 107.838C373.771 108.01 373.632 111.26 373.634 115.061L373.637 121.973L377.617 125.673L381.598 129.373L381.714 144.966L381.831 160.559L382.828 160.701L383.826 160.842V144.918V128.994L379.805 125.144L375.785 121.294Z" fill="#373737"/>
<path d="M353.24 111.993V110.441V108.889H341.272H329.303V110.441V111.993H341.272H353.24Z" fill="#373737"/>
<path d="M275.157 118.203L271.886 114.876C270.086 113.047 268.518 111.55 268.399 111.55C268.281 111.55 268.047 111.772 267.88 112.043C267.706 112.324 269.071 114.03 271.067 116.027L274.559 119.518L277.893 119.526L281.227 119.533L285.191 123.518C287.836 126.177 289.304 127.356 289.6 127.06C289.895 126.764 288.649 125.216 285.856 122.409L281.67 118.203H278.413H275.157Z" fill="#373737"/>
<path d="M250.401 120.864C259.168 120.864 260.596 120.771 260.596 120.199C260.596 119.626 259.168 119.533 250.401 119.533C241.634 119.533 240.206 119.626 240.206 120.199C240.206 120.771 241.634 120.864 250.401 120.864Z" fill="#373737"/>
<path d="M331.192 123.428C330.031 122.17 328.732 120.779 328.306 120.337C327.591 119.596 326.493 119.533 314.306 119.533C307.033 119.533 300.954 119.661 300.798 119.817C299.931 120.685 302.195 120.864 314.007 120.864H327.028L329.828 123.964L332.628 127.065L338.316 127.069C342.672 127.072 343.962 126.943 343.821 126.519C343.692 126.128 342.117 125.927 338.47 125.839L333.302 125.715L331.192 123.428Z" fill="#373737"/>
<path d="M349.694 151.464V135.747C349.694 127.102 349.544 119.944 349.361 119.841C348.01 119.076 347.921 120.109 347.941 136.313L347.961 152.576L350.319 155.132C352.351 157.335 352.755 157.596 353.235 157.017C353.851 156.274 353.788 156.156 351.146 153.129L349.694 151.464Z" fill="#373737"/>
<path d="M251.139 124.838C259.017 124.799 260.596 124.686 260.596 124.158C260.596 123.628 258.94 123.525 250.401 123.525C241.119 123.525 238.823 123.786 240.944 124.6C241.35 124.756 245.938 124.863 251.139 124.838Z" fill="#373737"/>
<path d="M370.084 134.667C371.599 130.844 371.857 129.705 371.857 126.858C371.857 123.821 371.779 123.525 370.971 123.525C370.174 123.525 370.084 123.821 370.084 126.441C370.084 128.792 369.74 130.238 368.311 133.895L366.538 138.433V153.377C366.538 168.025 366.556 168.321 367.425 168.321C368.293 168.321 368.311 168.025 368.311 153.731V139.142L370.084 134.667Z" fill="#373737"/>
<path d="M333.376 131.508L330.503 128.404L327.63 125.299H314.023C303.335 125.299 300.457 125.418 300.602 125.853C300.742 126.277 303.888 126.436 313.901 126.525L327.016 126.643L329.883 129.741L332.75 132.839H338.34C343.015 132.839 343.931 132.73 343.931 132.174C343.931 131.62 343.049 131.508 338.654 131.508H333.376Z" fill="#373737"/>
<path d="M241.878 139.713L241.818 135.538C241.776 132.638 241.588 131.306 241.203 131.177C240.781 131.035 240.649 132.215 240.649 136.128V141.266H243.087C244.916 141.266 245.525 141.106 245.525 140.626C245.525 140.194 244.932 139.942 243.702 139.85L241.878 139.713Z" fill="#373737"/>
<path d="M249.736 139.713L249.61 135.389C249.508 131.947 249.35 131.065 248.834 131.065C248.302 131.065 248.185 131.983 248.185 136.165V141.266H250.623C252.449 141.266 253.061 141.106 253.061 140.627C253.061 140.21 252.486 139.941 251.399 139.851L249.736 139.713Z" fill="#373737"/>
<path d="M338.644 137.274C332.703 137.274 333.485 137.614 329.667 133.371L327.593 131.065H314.337C307.047 131.065 300.949 131.198 300.786 131.361C300.624 131.523 300.491 131.822 300.491 132.026C300.491 132.229 306.458 132.395 313.752 132.395H327.013L330.09 135.736L333.167 139.077L338.433 138.952C343.037 138.842 343.718 138.729 343.848 138.05C343.983 137.345 343.503 137.274 338.644 137.274Z" fill="#373737"/>
<path d="M312.681 142.596C321.029 142.596 321.325 142.566 321.325 141.709C321.325 140.852 321.029 140.822 312.681 140.822C304.333 140.822 304.037 140.852 304.037 141.709C304.037 142.566 304.333 142.596 312.681 142.596Z" fill="#373737"/>
<path d="M388.702 162.978V152.565C388.702 142.449 388.676 142.153 387.815 142.153C386.955 142.153 386.929 142.449 386.929 152.03V161.908L380.953 166.112L374.977 170.316L374.969 175.084C374.961 179.53 375.019 179.852 375.831 179.852C376.627 179.852 376.712 179.487 376.828 175.57L376.955 171.288L379.224 169.694C380.472 168.816 383.115 166.947 385.097 165.538L388.702 162.978Z" fill="#373737"/>
<path d="M405.103 153.019C406.614 149.302 406.876 148.179 406.876 145.406C406.876 142.449 406.795 142.153 405.989 142.153C405.502 142.153 405.098 142.203 405.092 142.264C405.086 142.324 405.02 143.871 404.946 145.701C404.839 148.34 404.475 149.824 403.184 152.883L401.556 156.739V171.843C401.556 186.653 401.574 186.949 402.443 186.949C403.312 186.949 403.33 186.653 403.33 172.164V157.379L405.103 153.019Z" fill="#373737"/>
<path d="M276.117 148.142C274.567 147.65 274.219 145.073 275.561 144.038C276.592 143.243 277.629 143.353 278.533 144.353C280.031 146.009 278.24 148.817 276.117 148.142Z" fill="#373737"/>
<path d="M245.728 149.494C245.307 148.606 244.401 147.589 243.715 147.234C241.515 146.095 239.422 146.396 237.724 148.096C236.432 149.388 236.217 149.906 236.217 151.713C236.217 153.596 236.406 154.002 237.99 155.509L239.763 157.197V168.217V179.237L246.079 185.531L252.396 191.823L268.664 191.825C281.601 191.827 285.005 191.946 285.287 192.408C287.16 195.48 292.439 194.968 294.056 191.558C294.9 189.78 294.9 188.996 294.056 187.218C292.641 184.232 288.799 183.365 286.302 185.468C285.531 186.117 284.723 187.115 284.506 187.685L284.112 188.723H268.86H253.608L248.237 183.434L242.866 178.144V167.453V156.762L244.403 155.411C246.34 153.71 246.785 151.722 245.728 149.494Z" fill="#373737"/>
<path d="M325.847 150.912C324.232 149.388 322.639 147.891 322.308 147.586C321.867 147.181 319.321 147.032 312.871 147.032C305.314 147.032 304.037 147.128 304.037 147.697C304.037 148.265 305.286 148.362 312.62 148.362H321.203L324.83 151.705L328.458 155.046L332.723 154.92C335.647 154.833 337.046 154.619 337.172 154.239C337.311 153.821 336.301 153.684 333.07 153.684H328.783L325.847 150.912Z" fill="#373737"/>
<path d="M252.95 152.437C254.032 152.332 254.391 152.084 254.391 151.439C254.391 150.692 254.068 150.58 251.937 150.58H249.483L249.61 154.899C249.717 158.557 249.852 159.24 250.493 159.363C251.145 159.488 251.267 159.031 251.38 156.042L251.509 152.576L252.95 152.437Z" fill="#373737"/>
<path d="M261.945 152.354C262.96 152.354 263.256 152.154 263.256 151.467C263.256 150.698 262.96 150.58 261.04 150.58H258.823L258.774 153.906C258.747 155.736 258.703 157.681 258.676 158.23C258.64 158.945 258.875 159.228 259.501 159.228C260.284 159.228 260.388 158.873 260.504 155.791L260.634 152.354H261.945Z" fill="#373737"/>
<path d="M271.124 152.437C272.206 152.332 272.565 152.084 272.565 151.439C272.565 150.693 272.243 150.58 270.127 150.58H267.689V155.047C267.689 159.063 267.767 159.5 268.465 159.368C269.096 159.247 269.281 158.603 269.462 155.898L269.684 152.576L271.124 152.437Z" fill="#373737"/>
<path d="M287.525 153.227C294.821 153.239 296.058 153.144 296.058 152.576C296.058 152.007 294.784 151.91 287.254 151.91H278.45L268.449 162.111L258.448 172.312H255.939C252.439 172.312 252.846 173.372 256.419 173.557L259.041 173.693L269.017 163.453L278.992 153.213L287.525 153.227Z" fill="#373737"/>
<path d="M328.431 157.898L325.131 154.904L321.831 151.91H312.934C305.321 151.91 304.037 152.006 304.037 152.576C304.037 153.144 305.311 153.243 312.792 153.255L321.546 153.27L324.789 156.36L328.031 159.45H332.694C336.226 159.45 337.312 159.316 337.173 158.896C337.05 158.525 335.574 158.268 332.711 158.12L328.431 157.898Z" fill="#373737"/>
<path d="M328.638 162.961L325.138 159.653L321.637 156.346H312.837C305.311 156.346 304.037 156.442 304.037 157.011C304.037 157.579 305.267 157.676 312.444 157.676H320.85L322.528 159.114C323.451 159.904 325.103 161.403 326.201 162.444L328.195 164.337L332.592 164.222C335.63 164.143 337.046 163.936 337.172 163.553C337.311 163.135 336.28 162.993 332.997 162.979L328.638 162.961Z" fill="#373737"/>
<path d="M351.024 160.728L349.378 158.758C347.583 156.609 347.458 156.542 346.69 157.311C346.29 157.711 346.528 158.272 347.71 159.714L349.251 161.595V168.506C349.251 175.121 349.289 175.417 350.137 175.417C350.988 175.417 351.024 175.121 351.024 168.072V160.728Z" fill="#373737"/>
<path d="M281.044 161.668C284.244 161.668 284.976 161.544 284.976 161.003C284.976 160.455 284.211 160.341 280.654 160.36L276.333 160.382L266.691 170.02C261.389 175.321 257.05 179.801 257.05 179.977C257.05 180.869 258.634 180.065 260.655 178.146L262.919 175.996L265.012 178.146C266.163 179.328 267.336 180.296 267.618 180.296C268.703 180.296 268.047 179.007 265.978 177.07L263.823 175.054L270.468 168.361L277.112 161.668H281.044Z" fill="#373737"/>
<path d="M295.65 165.235L293.803 163.229C292.129 161.412 290.739 160.663 290.739 161.578C290.739 161.772 291.537 162.711 292.512 163.664L294.285 165.396V169.113C294.285 171.889 294.426 172.783 294.839 172.646C295.207 172.524 295.436 171.249 295.522 168.849L295.65 165.235Z" fill="#373737"/>
<path d="M363.214 195.375L363.121 178.411C363.029 161.713 363.013 161.444 362.123 161.304C361.226 161.163 361.219 161.3 361.219 178.269V195.375H362.216H363.214Z" fill="#373737"/>
<path d="M339.965 171.879L341.837 170.127C343.219 168.834 343.58 168.244 343.215 167.875C342.849 167.505 342.334 167.729 341.232 168.735C340.414 169.483 339.539 170.098 339.289 170.102C339.039 170.107 331.254 170.156 321.989 170.213C307.358 170.303 305.145 170.404 305.145 170.982C305.145 171.56 307.427 171.662 322.555 171.763L339.965 171.879Z" fill="#373737"/>
<path d="M275.668 175.619C276.544 175.619 276.805 175.366 276.916 174.409C277.042 173.32 276.919 173.199 275.668 173.199C274.417 173.199 274.293 173.32 274.419 174.409C274.53 175.366 274.791 175.619 275.668 175.619Z" fill="#373737"/>
<path d="M281.828 175.531C283.205 175.829 284.09 175.33 284.09 174.256C284.09 173.387 283.863 173.199 282.812 173.199C281.807 173.199 281.489 173.432 281.326 174.288C281.182 175.043 281.335 175.424 281.828 175.531Z" fill="#373737"/>
<path d="M289.409 175.636C290.287 175.633 290.546 175.379 290.657 174.416C290.784 173.319 290.662 173.199 289.409 173.199C288.155 173.199 288.034 173.318 288.161 174.419C288.272 175.388 288.529 175.638 289.409 175.636Z" fill="#373737"/>
<path d="M411.308 204.505V189.961C411.308 176.153 411.267 175.417 410.496 175.417C410.049 175.417 409.55 175.55 409.388 175.713C409.225 175.875 409.092 182.324 409.092 190.044V204.08L407.762 205.355C406.293 206.763 406.264 206.841 406.866 207.792C407.21 208.338 407.643 208.104 409.296 206.48L411.308 204.505Z" fill="#373737"/>
<path d="M311.24 178.442C311.971 178.338 312.237 178.003 312.237 177.191C312.237 176.379 311.971 176.045 311.24 175.94C310.388 175.819 310.243 176.001 310.243 177.191C310.243 178.381 310.388 178.563 311.24 178.442Z" fill="#373737"/>
<path d="M317.765 178.522C318.469 178.522 318.665 178.233 318.665 177.191C318.665 176.149 318.469 175.86 317.765 175.86C316.771 175.86 316.213 176.824 316.609 177.856C316.749 178.222 317.269 178.522 317.765 178.522Z" fill="#373737"/>
<path d="M323.176 177.045C323.369 178.734 325.092 178.866 325.092 177.191C325.092 176.368 324.826 176.045 324.062 175.936C323.166 175.809 323.051 175.954 323.176 177.045Z" fill="#373737"/>
<path d="M330.619 178.522C331.324 178.522 331.52 178.233 331.52 177.191C331.52 176.149 331.324 175.86 330.619 175.86C329.626 175.86 329.068 176.824 329.464 177.856C329.604 178.222 330.124 178.522 330.619 178.522Z" fill="#373737"/>
<path d="M381.609 191.193L375.071 184.645C371.475 181.044 368.408 178.093 368.254 178.088C368.102 178.083 367.748 178.354 367.469 178.69C367.062 179.181 368.239 180.566 373.394 185.664L379.827 192.026L379.943 211.325C380.05 229.299 380.111 230.634 380.834 230.773C381.563 230.913 381.609 229.738 381.609 211.058V191.193Z" fill="#373737"/>
<path d="M338.612 197.172V190.064V182.957H331.728C326.498 182.957 324.79 183.095 324.622 183.532C324.501 183.848 324.458 186.991 324.525 190.517L324.649 196.928L331.631 197.05L338.612 197.172Z" fill="#373737"/>
<path d="M303.416 189.077C302.466 188.94 302.004 187.823 302.434 186.701C302.816 185.706 304.814 185.904 305.152 186.97C305.521 188.133 304.603 189.247 303.416 189.077Z" fill="#373737"/>
<path d="M320.438 208.681V199.589V190.497L319.441 190.496H318.443V198.59V206.685L310.569 206.806L302.695 206.927L302.812 221.437C302.92 234.848 302.987 235.957 303.705 236.095C304.429 236.234 304.48 235.383 304.48 223.164C304.48 215.97 304.601 209.769 304.749 209.383C304.98 208.78 306.107 208.681 312.728 208.681H320.438Z" fill="#373737"/>
<path d="M353.216 205.203L353.175 197.85L353.135 190.497H352.08H351.024V197.959V205.421L353.018 207.992L355.013 210.562V228.249C355.013 245.641 355.028 245.937 355.9 245.937C356.772 245.937 356.786 245.641 356.786 227.703V209.47L355.001 207.336L353.216 205.203Z" fill="#373737"/>
<path d="M403.826 194.625C403.907 194.069 403.915 192.575 403.84 191.716C403.787 191.101 403.355 190.94 401.753 190.94H399.732L399.869 192.825C400.005 194.701 400.014 194.711 401.889 194.846C402.925 194.922 403.797 194.822 403.826 194.625Z" fill="#373737"/>
<path d="M315.119 195.426V193.405V191.384H313.332C311.375 191.384 310.974 191.859 311.207 193.897C311.337 195.031 311.534 195.167 313.235 195.29L315.119 195.426Z" fill="#373737"/>
<path d="M363.842 203.947C365.894 201.794 368.378 199.185 369.362 198.149C370.62 196.826 371.012 196.127 370.683 195.797C370.354 195.468 368.485 197.148 364.397 201.45L358.579 207.572L358.569 211.933C358.561 215.228 358.695 216.25 359.113 216.112C359.479 215.991 359.743 214.561 359.889 211.896L360.111 207.863L363.842 203.947Z" fill="#373737"/>
<path d="M403.773 202.523V200.501V198.48H401.986C400.029 198.48 399.628 198.955 399.861 200.993C399.991 202.128 400.188 202.263 401.889 202.386L403.773 202.523Z" fill="#373737"/>
<path d="M315.17 202.915L315.033 201.03C314.903 199.223 314.832 199.14 313.33 199.013C311.376 198.849 311.129 199.096 311.129 201.215V202.915H313.149H315.17Z" fill="#373737"/>
<path d="M336.839 212.673C337.668 212.673 337.726 212.377 337.726 208.103V203.533L336.244 202.096C334.924 200.816 334.7 200.736 334.182 201.36C333.689 201.954 333.78 202.247 334.777 203.288C335.874 204.435 335.952 204.786 335.952 208.595C335.952 212.377 336.017 212.673 336.839 212.673Z" fill="#373737"/>
<path d="M329.437 208.164C332.943 208.466 334.436 203.921 331.558 201.71C330.385 200.809 328.468 201.049 327.271 202.248C326.407 203.112 326.187 203.743 326.269 205.127C326.352 206.533 326.126 207.158 325.179 208.147L323.984 209.395V232.81V256.226L322.654 257.468C320.959 259.053 320.865 261.041 322.413 262.589C324.16 264.337 326.668 264.001 327.768 261.872C328.691 260.087 328.589 259.47 327.087 257.758L325.757 256.243V233.204V210.166L326.887 209.104C327.686 208.353 328.434 208.078 329.437 208.164Z" fill="#373737"/>
<path d="M345.056 212.663C348.323 209.416 348.823 208.721 348.713 207.576C348.516 205.525 346.591 205.497 346.591 207.545C346.591 208.128 345.168 209.892 342.807 212.239L339.023 215.999L339.15 228.049C339.22 234.676 339.418 240.239 339.59 240.411C339.763 240.584 340.211 240.606 340.588 240.462C341.181 240.234 341.272 238.617 341.272 228.311V216.423L345.056 212.663Z" fill="#373737"/>
<path d="M370.971 235.327V220.674C370.971 206.316 370.953 206.02 370.084 206.02C369.216 206.02 369.198 206.316 369.198 220.115V234.209L367.574 235.882C366.114 237.386 366.019 237.624 366.63 238.236C367.242 238.848 367.496 238.736 369.141 237.122L370.971 235.327Z" fill="#373737"/>
<path d="M403.34 239.927L403.224 223.09C403.122 208.301 403.025 206.238 402.421 206.122C402.044 206.049 401.595 206.129 401.424 206.3C401.253 206.471 401.12 214.212 401.128 223.502C401.144 242.19 400.889 240.486 404.115 243.454C405.306 244.55 405.618 244.655 406.216 244.158C406.841 243.639 406.721 243.373 405.13 241.751L403.34 239.927Z" fill="#373737"/>
<path d="M319.551 219.156C319.551 217.937 319.196 217.165 318.111 216.024C317.318 215.192 316.072 214.401 315.34 214.269C313.82 213.993 311.719 214.799 310.556 216.105C308.626 218.273 309.394 222.362 312.023 223.916L313.346 224.698V232.97V241.243L311.741 242.887C310.202 244.464 310.041 244.521 307.807 244.291C305.616 244.064 305.377 244.142 303.796 245.591C302.298 246.965 302.116 247.362 302.116 249.263C302.116 251.15 302.302 251.566 303.735 252.879C307.535 256.364 313.091 253.293 312.247 248.174C312.006 246.711 312.143 246.47 314.218 244.693L316.449 242.783V233.48C316.449 225.676 316.554 224.136 317.105 223.924C318.2 223.504 319.551 220.871 319.551 219.156Z" fill="#373737"/>
<path d="M330.644 248.354L330.528 231.517C330.42 215.888 330.356 214.67 329.636 214.531C328.908 214.391 328.86 215.454 328.86 231.875V249.368L330.932 251.441C332.795 253.306 333.071 253.445 333.685 252.831C334.299 252.217 334.18 251.959 332.505 250.251L330.644 248.354Z" fill="#373737"/>
<path d="M297.81 266.567C296.006 267.14 294.748 264.651 296.379 263.737C297.464 263.13 298.718 263.923 298.718 265.216C298.718 265.898 298.392 266.382 297.81 266.567Z" fill="#373737"/>
</svg>
