<svg width="792" height="280" viewBox="0 0 792 280" fill="none" xmlns="http://www.w3.org/2000/svg">
<rect opacity="0.6" x="171" y="5" width="487" height="13" fill="#E06B65"/>
<rect opacity="0.6" x="171" y="150" width="582" height="13" fill="#FEEB96"/>
<rect opacity="0.6" x="171" y="34" width="249" height="13" fill="#FEEB96"/>
<rect opacity="0.6" x="171" y="179" width="468" height="13" fill="#99CC99"/>
<rect opacity="0.6" x="171" y="63" width="249" height="13" fill="#99CC99"/>
<rect opacity="0.6" x="171" y="208" width="571" height="13" fill="#99CCFF"/>
<rect opacity="0.6" x="171" y="92" width="123" height="13" fill="#99CCFF"/>
<rect opacity="0.6" x="171" y="237" width="363" height="13" fill="#E06B65"/>
<rect opacity="0.6" x="171" y="121" width="376" height="13" fill="#E06B65"/>
<rect opacity="0.6" x="171" y="266" width="421" height="13" fill="#FEEB96"/>
<path d="M5.348 4.2C6.19733 4.2 6.93467 4.34 7.56 4.62C8.19467 4.9 8.68 5.30133 9.016 5.824C9.352 6.34667 9.52 6.96733 9.52 7.686C9.52 8.39533 9.352 9.016 9.016 9.548C8.68 10.0707 8.19467 10.472 7.56 10.752C6.93467 11.032 6.19733 11.172 5.348 11.172H3.136V14H1.316V4.2H5.348ZM5.264 9.632C6.05733 9.632 6.65933 9.464 7.07 9.128C7.48067 8.792 7.686 8.31133 7.686 7.686C7.686 7.06067 7.48067 6.58 7.07 6.244C6.65933 5.908 6.05733 5.74 5.264 5.74H3.136V9.632H5.264ZM17.7495 14L15.7475 11.13C15.6635 11.1393 15.5375 11.144 15.3695 11.144H13.1575V14H11.3375V4.2H15.3695C16.2188 4.2 16.9562 4.34 17.5815 4.62C18.2162 4.9 18.7015 5.30133 19.0375 5.824C19.3735 6.34667 19.5415 6.96733 19.5415 7.686C19.5415 8.42333 19.3595 9.058 18.9955 9.59C18.6408 10.122 18.1275 10.5187 17.4555 10.78L19.7095 14H17.7495ZM17.7075 7.686C17.7075 7.06067 17.5022 6.58 17.0915 6.244C16.6808 5.908 16.0788 5.74 15.2855 5.74H13.1575V9.646H15.2855C16.0788 9.646 16.6808 9.478 17.0915 9.142C17.5022 8.79667 17.7075 8.31133 17.7075 7.686ZM26.1557 14.14C25.1571 14.14 24.2564 13.9253 23.4537 13.496C22.6511 13.0573 22.0211 12.4553 21.5637 11.69C21.1064 10.9153 20.8777 10.052 20.8777 9.1C20.8777 8.148 21.1064 7.28933 21.5637 6.524C22.0211 5.74933 22.6511 5.14733 23.4537 4.718C24.2564 4.27933 25.1571 4.06 26.1557 4.06C27.1544 4.06 28.0551 4.27933 28.8577 4.718C29.6604 5.14733 30.2904 5.74467 30.7477 6.51C31.2051 7.27533 31.4337 8.13867 31.4337 9.1C31.4337 10.0613 31.2051 10.9247 30.7477 11.69C30.2904 12.4553 29.6604 13.0573 28.8577 13.496C28.0551 13.9253 27.1544 14.14 26.1557 14.14ZM26.1557 12.544C26.8091 12.544 27.3971 12.3993 27.9197 12.11C28.4424 11.8113 28.8531 11.4007 29.1517 10.878C29.4504 10.346 29.5997 9.75333 29.5997 9.1C29.5997 8.44667 29.4504 7.85867 29.1517 7.336C28.8531 6.804 28.4424 6.39333 27.9197 6.104C27.3971 5.80533 26.8091 5.656 26.1557 5.656C25.5024 5.656 24.9144 5.80533 24.3917 6.104C23.8691 6.39333 23.4584 6.804 23.1597 7.336C22.8611 7.85867 22.7117 8.44667 22.7117 9.1C22.7117 9.75333 22.8611 10.346 23.1597 10.878C23.4584 11.4007 23.8691 11.8113 24.3917 12.11C24.9144 12.3993 25.5024 12.544 26.1557 12.544ZM40.0549 8.988H41.7769V12.894C41.2729 13.2953 40.6849 13.6033 40.0129 13.818C39.3409 14.0327 38.6502 14.14 37.9409 14.14C36.9422 14.14 36.0415 13.9253 35.2389 13.496C34.4362 13.0573 33.8062 12.4553 33.3489 11.69C32.8915 10.9247 32.6629 10.0613 32.6629 9.1C32.6629 8.13867 32.8915 7.27533 33.3489 6.51C33.8062 5.74467 34.4362 5.14733 35.2389 4.718C36.0509 4.27933 36.9609 4.06 37.9689 4.06C38.7902 4.06 39.5369 4.19533 40.2089 4.466C40.8809 4.73667 41.4455 5.13333 41.9029 5.656L40.7549 6.776C40.0082 6.02933 39.1075 5.656 38.0529 5.656C37.3622 5.656 36.7462 5.80067 36.2049 6.09C35.6729 6.37933 35.2529 6.78533 34.9449 7.308C34.6462 7.83067 34.4969 8.428 34.4969 9.1C34.4969 9.75333 34.6462 10.3413 34.9449 10.864C35.2529 11.3867 35.6729 11.7973 36.2049 12.096C36.7462 12.3947 37.3575 12.544 38.0389 12.544C38.8042 12.544 39.4762 12.376 40.0549 12.04V8.988ZM50.5893 14L48.5873 11.13C48.5033 11.1393 48.3773 11.144 48.2093 11.144H45.9973V14H44.1773V4.2H48.2093C49.0587 4.2 49.796 4.34 50.4213 4.62C51.056 4.9 51.5413 5.30133 51.8773 5.824C52.2133 6.34667 52.3813 6.96733 52.3813 7.686C52.3813 8.42333 52.1993 9.058 51.8353 9.59C51.4807 10.122 50.9673 10.5187 50.2953 10.78L52.5493 14H50.5893ZM50.5473 7.686C50.5473 7.06067 50.342 6.58 49.9313 6.244C49.5207 5.908 48.9187 5.74 48.1253 5.74H45.9973V9.646H48.1253C48.9187 9.646 49.5207 9.478 49.9313 9.142C50.342 8.79667 50.5473 8.31133 50.5473 7.686ZM60.7736 11.732H55.8736L54.9076 14H53.0316L57.4416 4.2H59.2336L63.6576 14H61.7536L60.7736 11.732ZM60.1716 10.304L58.3236 6.02L56.4896 10.304H60.1716ZM73.9059 14L73.8919 7.504L70.6719 12.88H69.8599L66.6399 7.588V14H64.9039V4.2H66.4019L70.2939 10.696L74.1159 4.2H75.6139L75.6279 14H73.9059ZM87.277 14L87.263 7.504L84.043 12.88H83.231L80.011 7.588V14H78.275V4.2H79.773L83.665 10.696L87.487 4.2H88.985L88.999 14H87.277ZM91.6461 4.2H93.4661V14H91.6461V4.2ZM104.825 4.2V14H103.327L97.9228 7.364V14H96.1168V4.2H97.6148L103.019 10.836V4.2H104.825ZM114.143 8.988H115.865V12.894C115.361 13.2953 114.773 13.6033 114.101 13.818C113.429 14.0327 112.738 14.14 112.029 14.14C111.03 14.14 110.129 13.9253 109.327 13.496C108.524 13.0573 107.894 12.4553 107.437 11.69C106.979 10.9247 106.751 10.0613 106.751 9.1C106.751 8.13867 106.979 7.27533 107.437 6.51C107.894 5.74467 108.524 5.14733 109.327 4.718C110.139 4.27933 111.049 4.06 112.057 4.06C112.878 4.06 113.625 4.19533 114.297 4.466C114.969 4.73667 115.533 5.13333 115.991 5.656L114.843 6.776C114.096 6.02933 113.195 5.656 112.141 5.656C111.45 5.656 110.834 5.80067 110.293 6.09C109.761 6.37933 109.341 6.78533 109.033 7.308C108.734 7.83067 108.585 8.428 108.585 9.1C108.585 9.75333 108.734 10.3413 109.033 10.864C109.341 11.3867 109.761 11.7973 110.293 12.096C110.834 12.3947 111.445 12.544 112.127 12.544C112.892 12.544 113.564 12.376 114.143 12.04V8.988Z" fill="#202020"/>
<path d="M10.318 72L10.304 65.504L7.084 70.88H6.272L3.052 65.588V72H1.316V62.2H2.814L6.706 68.696L10.528 62.2H12.026L12.04 72H10.318ZM19.2651 72.14C18.2664 72.14 17.3658 71.9253 16.5631 71.496C15.7604 71.0573 15.1304 70.4553 14.6731 69.69C14.2158 68.9153 13.9871 68.052 13.9871 67.1C13.9871 66.148 14.2158 65.2893 14.6731 64.524C15.1304 63.7493 15.7604 63.1473 16.5631 62.718C17.3658 62.2793 18.2664 62.06 19.2651 62.06C20.2638 62.06 21.1644 62.2793 21.9671 62.718C22.7698 63.1473 23.3998 63.7447 23.8571 64.51C24.3144 65.2753 24.5431 66.1387 24.5431 67.1C24.5431 68.0613 24.3144 68.9247 23.8571 69.69C23.3998 70.4553 22.7698 71.0573 21.9671 71.496C21.1644 71.9253 20.2638 72.14 19.2651 72.14ZM19.2651 70.544C19.9184 70.544 20.5064 70.3993 21.0291 70.11C21.5518 69.8113 21.9624 69.4007 22.2611 68.878C22.5598 68.346 22.7091 67.7533 22.7091 67.1C22.7091 66.4467 22.5598 65.8587 22.2611 65.336C21.9624 64.804 21.5518 64.3933 21.0291 64.104C20.5064 63.8053 19.9184 63.656 19.2651 63.656C18.6118 63.656 18.0238 63.8053 17.5011 64.104C16.9784 64.3933 16.5678 64.804 16.2691 65.336C15.9704 65.8587 15.8211 66.4467 15.8211 67.1C15.8211 67.7533 15.9704 68.346 16.2691 68.878C16.5678 69.4007 16.9784 69.8113 17.5011 70.11C18.0238 70.3993 18.6118 70.544 19.2651 70.544ZM33.4163 66.904C33.9576 67.0813 34.3869 67.38 34.7043 67.8C35.0216 68.2107 35.1803 68.724 35.1803 69.34C35.1803 70.1893 34.8536 70.8473 34.2003 71.314C33.5469 71.7713 32.5949 72 31.3443 72H26.4723V62.2H31.0643C32.2216 62.2 33.1129 62.4287 33.7383 62.886C34.3636 63.334 34.6763 63.9547 34.6763 64.748C34.6763 65.2333 34.5643 65.6627 34.3403 66.036C34.1163 66.4093 33.8083 66.6987 33.4163 66.904ZM28.2923 63.628V66.33H30.8683C31.5029 66.33 31.9883 66.218 32.3243 65.994C32.6696 65.7607 32.8423 65.4247 32.8423 64.986C32.8423 64.538 32.6696 64.202 32.3243 63.978C31.9883 63.7447 31.5029 63.628 30.8683 63.628H28.2923ZM31.2323 70.572C32.6416 70.572 33.3463 70.1007 33.3463 69.158C33.3463 68.2153 32.6416 67.744 31.2323 67.744H28.2923V70.572H31.2323ZM37.1226 62.2H38.9426V72H37.1226V62.2ZM41.5933 62.2H43.4133V70.46H48.5373V72H41.5933V62.2ZM57.3242 70.474V72H49.9742V62.2H57.1282V63.726H51.7942V66.274H56.5262V67.772H51.7942V70.474H57.3242ZM63.2223 62.2H67.5063C68.5516 62.2 69.4803 62.4053 70.2923 62.816C71.1043 63.2173 71.7343 63.7913 72.1823 64.538C72.6303 65.2753 72.8543 66.1293 72.8543 67.1C72.8543 68.0707 72.6303 68.9293 72.1823 69.676C71.7343 70.4133 71.1043 70.9873 70.2923 71.398C69.4803 71.7993 68.5516 72 67.5063 72H63.2223V62.2ZM67.4223 70.46C68.1409 70.46 68.7709 70.3247 69.3123 70.054C69.8629 69.774 70.2829 69.382 70.5723 68.878C70.8709 68.3647 71.0203 67.772 71.0203 67.1C71.0203 66.428 70.8709 65.84 70.5723 65.336C70.2829 64.8227 69.8629 64.4307 69.3123 64.16C68.7709 63.88 68.1409 63.74 67.4223 63.74H65.0423V70.46H67.4223ZM82.1387 70.474V72H74.7887V62.2H81.9427V63.726H76.6087V66.274H81.3407V67.772H76.6087V70.474H82.1387ZM92.9908 62.2L88.7208 72H86.9288L82.6448 62.2H84.6188L87.8808 69.76L91.1708 62.2H92.9908Z" fill="#202020"/>
<path d="M15.638 33.2L12.39 43H10.458L8.036 35.748L5.572 43H3.626L0.378 33.2H2.268L4.704 40.648L7.238 33.2H8.918L11.396 40.69L13.902 33.2H15.638ZM24.4707 41.474V43H17.1207V33.2H24.2747V34.726H18.9407V37.274H23.6727V38.772H18.9407V41.474H24.4707ZM33.4436 37.904C33.9849 38.0813 34.4143 38.38 34.7316 38.8C35.0489 39.2107 35.2076 39.724 35.2076 40.34C35.2076 41.1893 34.8809 41.8473 34.2276 42.314C33.5743 42.7713 32.6223 43 31.3716 43H26.4996V33.2H31.0916C32.2489 33.2 33.1403 33.4287 33.7656 33.886C34.3909 34.334 34.7036 34.9547 34.7036 35.748C34.7036 36.2333 34.5916 36.6627 34.3676 37.036C34.1436 37.4093 33.8356 37.6987 33.4436 37.904ZM28.3196 34.628V37.33H30.8956C31.5303 37.33 32.0156 37.218 32.3516 36.994C32.6969 36.7607 32.8696 36.4247 32.8696 35.986C32.8696 35.538 32.6969 35.202 32.3516 34.978C32.0156 34.7447 31.5303 34.628 30.8956 34.628H28.3196ZM31.2596 41.572C32.6689 41.572 33.3736 41.1007 33.3736 40.158C33.3736 39.2153 32.6689 38.744 31.2596 38.744H28.3196V41.572H31.2596ZM41.0191 33.2H45.3031C46.3485 33.2 47.2771 33.4053 48.0891 33.816C48.9011 34.2173 49.5311 34.7913 49.9791 35.538C50.4271 36.2753 50.6511 37.1293 50.6511 38.1C50.6511 39.0707 50.4271 39.9293 49.9791 40.676C49.5311 41.4133 48.9011 41.9873 48.0891 42.398C47.2771 42.7993 46.3485 43 45.3031 43H41.0191V33.2ZM45.2191 41.46C45.9378 41.46 46.5678 41.3247 47.1091 41.054C47.6598 40.774 48.0798 40.382 48.3691 39.878C48.6678 39.3647 48.8171 38.772 48.8171 38.1C48.8171 37.428 48.6678 36.84 48.3691 36.336C48.0798 35.8227 47.6598 35.4307 47.1091 35.16C46.5678 34.88 45.9378 34.74 45.2191 34.74H42.8391V41.46H45.2191ZM59.9355 41.474V43H52.5855V33.2H59.7395V34.726H54.4055V37.274H59.1375V38.772H54.4055V41.474H59.9355ZM70.7877 33.2L66.5177 43H64.7257L60.4417 33.2H62.4157L65.6777 40.76L68.9677 33.2H70.7877Z" fill="#202020"/>
<path d="M1.316 91.2H5.6C6.64533 91.2 7.574 91.4053 8.386 91.816C9.198 92.2173 9.828 92.7913 10.276 93.538C10.724 94.2753 10.948 95.1293 10.948 96.1C10.948 97.0707 10.724 97.9293 10.276 98.676C9.828 99.4133 9.198 99.9873 8.386 100.398C7.574 100.799 6.64533 101 5.6 101H1.316V91.2ZM5.516 99.46C6.23467 99.46 6.86467 99.3247 7.406 99.054C7.95667 98.774 8.37667 98.382 8.666 97.878C8.96467 97.3647 9.114 96.772 9.114 96.1C9.114 95.428 8.96467 94.84 8.666 94.336C8.37667 93.8227 7.95667 93.4307 7.406 93.16C6.86467 92.88 6.23467 92.74 5.516 92.74H3.136V99.46H5.516ZM19.1017 98.732H14.2017L13.2357 101H11.3597L15.7697 91.2H17.5617L21.9857 101H20.0817L19.1017 98.732ZM18.4997 97.304L16.6517 93.02L14.8177 97.304H18.4997ZM24.7278 92.74H21.4798V91.2H29.7958V92.74H26.5478V101H24.7278V92.74ZM37.0255 98.732H32.1255L31.1595 101H29.2835L33.6935 91.2H35.4855L39.9095 101H38.0055L37.0255 98.732ZM36.4235 97.304L34.5755 93.02L32.7415 97.304H36.4235ZM54.027 101L54.013 94.504L50.793 99.88H49.981L46.761 94.588V101H45.025V91.2H46.523L50.415 97.696L54.237 91.2H55.735L55.749 101H54.027ZM64.7521 98.732H59.8521L58.8861 101H57.0101L61.4201 91.2H63.2121L67.6361 101H65.7321L64.7521 98.732ZM64.1501 97.304L62.3021 93.02L60.4681 97.304H64.1501ZM72.9144 91.2C73.7637 91.2 74.5011 91.34 75.1264 91.62C75.7611 91.9 76.2464 92.3013 76.5824 92.824C76.9184 93.3467 77.0864 93.9673 77.0864 94.686C77.0864 95.3953 76.9184 96.016 76.5824 96.548C76.2464 97.0707 75.7611 97.472 75.1264 97.752C74.5011 98.032 73.7637 98.172 72.9144 98.172H70.7024V101H68.8824V91.2H72.9144ZM72.8304 96.632C73.6237 96.632 74.2257 96.464 74.6364 96.128C75.0471 95.792 75.2524 95.3113 75.2524 94.686C75.2524 94.0607 75.0471 93.58 74.6364 93.244C74.2257 92.908 73.6237 92.74 72.8304 92.74H70.7024V96.632H72.8304ZM82.9359 91.2C83.7852 91.2 84.5226 91.34 85.1479 91.62C85.7826 91.9 86.2679 92.3013 86.6039 92.824C86.9399 93.3467 87.1079 93.9673 87.1079 94.686C87.1079 95.3953 86.9399 96.016 86.6039 96.548C86.2679 97.0707 85.7826 97.472 85.1479 97.752C84.5226 98.032 83.7852 98.172 82.9359 98.172H80.7239V101H78.9039V91.2H82.9359ZM82.8519 96.632C83.6452 96.632 84.2472 96.464 84.6579 96.128C85.0686 95.792 85.2739 95.3113 85.2739 94.686C85.2739 94.0607 85.0686 93.58 84.6579 93.244C84.2472 92.908 83.6452 92.74 82.8519 92.74H80.7239V96.632H82.8519ZM88.9254 91.2H90.7454V101H88.9254V91.2ZM102.104 91.2V101H100.606L95.2021 94.364V101H93.3961V91.2H94.8941L100.298 97.836V91.2H102.104ZM111.422 95.988H113.144V99.894C112.64 100.295 112.052 100.603 111.38 100.818C110.708 101.033 110.017 101.14 109.308 101.14C108.309 101.14 107.409 100.925 106.606 100.496C105.803 100.057 105.173 99.4553 104.716 98.69C104.259 97.9247 104.03 97.0613 104.03 96.1C104.03 95.1387 104.259 94.2753 104.716 93.51C105.173 92.7447 105.803 92.1473 106.606 91.718C107.418 91.2793 108.328 91.06 109.336 91.06C110.157 91.06 110.904 91.1953 111.576 91.466C112.248 91.7367 112.813 92.1333 113.27 92.656L112.122 93.776C111.375 93.0293 110.475 92.656 109.42 92.656C108.729 92.656 108.113 92.8007 107.572 93.09C107.04 93.3793 106.62 93.7853 106.312 94.308C106.013 94.8307 105.864 95.428 105.864 96.1C105.864 96.7533 106.013 97.3413 106.312 97.864C106.62 98.3867 107.04 98.7973 107.572 99.096C108.113 99.3947 108.725 99.544 109.406 99.544C110.171 99.544 110.843 99.376 111.422 99.04V95.988Z" fill="#202020"/>
<path d="M5.852 130.14C4.86267 130.14 3.96667 129.925 3.164 129.496C2.37067 129.057 1.74533 128.455 1.288 127.69C0.84 126.925 0.616 126.061 0.616 125.1C0.616 124.139 0.844667 123.275 1.302 122.51C1.75933 121.745 2.38467 121.147 3.178 120.718C3.98067 120.279 4.87667 120.06 5.866 120.06C6.66867 120.06 7.40133 120.2 8.064 120.48C8.72667 120.76 9.28667 121.166 9.744 121.698L8.568 122.804C7.85867 122.039 6.986 121.656 5.95 121.656C5.278 121.656 4.676 121.805 4.144 122.104C3.612 122.393 3.19667 122.799 2.898 123.322C2.59933 123.845 2.45 124.437 2.45 125.1C2.45 125.763 2.59933 126.355 2.898 126.878C3.19667 127.401 3.612 127.811 4.144 128.11C4.676 128.399 5.278 128.544 5.95 128.544C6.986 128.544 7.85867 128.157 8.568 127.382L9.744 128.502C9.28667 129.034 8.722 129.44 8.05 129.72C7.38733 130 6.65467 130.14 5.852 130.14ZM17.6388 127.732H12.7388L11.7728 130H9.8968L14.3068 120.2H16.0988L20.5228 130H18.6188L17.6388 127.732ZM17.0368 126.304L15.1888 122.02L13.3548 126.304H17.0368ZM21.7691 120.2H26.0531C27.0985 120.2 28.0271 120.405 28.8391 120.816C29.6511 121.217 30.2811 121.791 30.7291 122.538C31.1771 123.275 31.4011 124.129 31.4011 125.1C31.4011 126.071 31.1771 126.929 30.7291 127.676C30.2811 128.413 29.6511 128.987 28.8391 129.398C28.0271 129.799 27.0985 130 26.0531 130H21.7691V120.2ZM25.9691 128.46C26.6878 128.46 27.3178 128.325 27.8591 128.054C28.4098 127.774 28.8298 127.382 29.1191 126.878C29.4178 126.365 29.5671 125.772 29.5671 125.1C29.5671 124.428 29.4178 123.84 29.1191 123.336C28.8298 122.823 28.4098 122.431 27.8591 122.16C27.3178 121.88 26.6878 121.74 25.9691 121.74H23.5891V128.46H25.9691Z" fill="#202020"/>
<path d="M8.008 153.988H9.73V157.894C9.226 158.295 8.638 158.603 7.966 158.818C7.294 159.033 6.60333 159.14 5.894 159.14C4.89533 159.14 3.99467 158.925 3.192 158.496C2.38933 158.057 1.75933 157.455 1.302 156.69C0.844667 155.925 0.616 155.061 0.616 154.1C0.616 153.139 0.844667 152.275 1.302 151.51C1.75933 150.745 2.38933 150.147 3.192 149.718C4.004 149.279 4.914 149.06 5.922 149.06C6.74333 149.06 7.49 149.195 8.162 149.466C8.834 149.737 9.39867 150.133 9.856 150.656L8.708 151.776C7.96133 151.029 7.06067 150.656 6.006 150.656C5.31533 150.656 4.69933 150.801 4.158 151.09C3.626 151.379 3.206 151.785 2.898 152.308C2.59933 152.831 2.45 153.428 2.45 154.1C2.45 154.753 2.59933 155.341 2.898 155.864C3.206 156.387 3.626 156.797 4.158 157.096C4.69933 157.395 5.31067 157.544 5.992 157.544C6.75733 157.544 7.42933 157.376 8.008 157.04V153.988ZM18.5425 159L16.5405 156.13C16.4565 156.139 16.3305 156.144 16.1625 156.144H13.9505V159H12.1305V149.2H16.1625C17.0118 149.2 17.7491 149.34 18.3745 149.62C19.0091 149.9 19.4945 150.301 19.8305 150.824C20.1665 151.347 20.3345 151.967 20.3345 152.686C20.3345 153.423 20.1525 154.058 19.7885 154.59C19.4338 155.122 18.9205 155.519 18.2485 155.78L20.5025 159H18.5425ZM18.5005 152.686C18.5005 152.061 18.2951 151.58 17.8845 151.244C17.4738 150.908 16.8718 150.74 16.0785 150.74H13.9505V154.646H16.0785C16.8718 154.646 17.4738 154.478 17.8845 154.142C18.2951 153.797 18.5005 153.311 18.5005 152.686ZM28.7267 156.732H23.8267L22.8607 159H20.9847L25.3947 149.2H27.1867L31.6107 159H29.7067L28.7267 156.732ZM28.1247 155.304L26.2767 151.02L24.4427 155.304H28.1247ZM36.889 149.2C37.7383 149.2 38.4757 149.34 39.101 149.62C39.7357 149.9 40.221 150.301 40.557 150.824C40.893 151.347 41.061 151.967 41.061 152.686C41.061 153.395 40.893 154.016 40.557 154.548C40.221 155.071 39.7357 155.472 39.101 155.752C38.4757 156.032 37.7383 156.172 36.889 156.172H34.677V159H32.857V149.2H36.889ZM36.805 154.632C37.5983 154.632 38.2003 154.464 38.611 154.128C39.0217 153.792 39.227 153.311 39.227 152.686C39.227 152.061 39.0217 151.58 38.611 151.244C38.2003 150.908 37.5983 150.74 36.805 150.74H34.677V154.632H36.805ZM51.5865 149.2V159H49.7665V154.8H44.6985V159H42.8785V149.2H44.6985V153.246H49.7665V149.2H51.5865ZM54.2125 149.2H56.0325V159H54.2125V149.2ZM63.2192 159.14C62.2299 159.14 61.3339 158.925 60.5312 158.496C59.7379 158.057 59.1125 157.455 58.6552 156.69C58.2072 155.925 57.9832 155.061 57.9832 154.1C57.9832 153.139 58.2119 152.275 58.6692 151.51C59.1265 150.745 59.7519 150.147 60.5452 149.718C61.3479 149.279 62.2439 149.06 63.2332 149.06C64.0359 149.06 64.7685 149.2 65.4312 149.48C66.0939 149.76 66.6539 150.166 67.1112 150.698L65.9352 151.804C65.2259 151.039 64.3532 150.656 63.3172 150.656C62.6452 150.656 62.0432 150.805 61.5112 151.104C60.9792 151.393 60.5639 151.799 60.2652 152.322C59.9665 152.845 59.8172 153.437 59.8172 154.1C59.8172 154.763 59.9665 155.355 60.2652 155.878C60.5639 156.401 60.9792 156.811 61.5112 157.11C62.0432 157.399 62.6452 157.544 63.3172 157.544C64.3532 157.544 65.2259 157.157 65.9352 156.382L67.1112 157.502C66.6539 158.034 66.0892 158.44 65.4172 158.72C64.7545 159 64.0219 159.14 63.2192 159.14ZM72.7242 149.2H77.0082C78.0535 149.2 78.9822 149.405 79.7942 149.816C80.6062 150.217 81.2362 150.791 81.6842 151.538C82.1322 152.275 82.3562 153.129 82.3562 154.1C82.3562 155.071 82.1322 155.929 81.6842 156.676C81.2362 157.413 80.6062 157.987 79.7942 158.398C78.9822 158.799 78.0535 159 77.0082 159H72.7242V149.2ZM76.9242 157.46C77.6429 157.46 78.2729 157.325 78.8142 157.054C79.3649 156.774 79.7849 156.382 80.0742 155.878C80.3729 155.365 80.5222 154.772 80.5222 154.1C80.5222 153.428 80.3729 152.84 80.0742 152.336C79.7849 151.823 79.3649 151.431 78.8142 151.16C78.2729 150.88 77.6429 150.74 76.9242 150.74H74.5442V157.46H76.9242ZM91.6406 157.474V159H84.2906V149.2H91.4446V150.726H86.1106V153.274H90.8426V154.772H86.1106V157.474H91.6406ZM96.7075 159.14C95.9515 159.14 95.2188 159.033 94.5095 158.818C93.8095 158.603 93.2542 158.319 92.8435 157.964L93.4735 156.55C93.8748 156.867 94.3648 157.129 94.9435 157.334C95.5315 157.53 96.1195 157.628 96.7075 157.628C97.4355 157.628 97.9768 157.511 98.3315 157.278C98.6955 157.045 98.8775 156.737 98.8775 156.354C98.8775 156.074 98.7748 155.845 98.5695 155.668C98.3735 155.481 98.1215 155.337 97.8135 155.234C97.5055 155.131 97.0855 155.015 96.5535 154.884C95.8068 154.707 95.2002 154.529 94.7335 154.352C94.2762 154.175 93.8795 153.899 93.5435 153.526C93.2168 153.143 93.0535 152.63 93.0535 151.986C93.0535 151.445 93.1982 150.955 93.4875 150.516C93.7862 150.068 94.2295 149.713 94.8175 149.452C95.4148 149.191 96.1428 149.06 97.0015 149.06C97.5988 149.06 98.1868 149.135 98.7655 149.284C99.3442 149.433 99.8435 149.648 100.264 149.928L99.6895 151.342C99.2602 151.09 98.8122 150.899 98.3455 150.768C97.8788 150.637 97.4262 150.572 96.9875 150.572C96.2688 150.572 95.7322 150.693 95.3775 150.936C95.0322 151.179 94.8595 151.501 94.8595 151.902C94.8595 152.182 94.9575 152.411 95.1535 152.588C95.3588 152.765 95.6155 152.905 95.9235 153.008C96.2315 153.111 96.6515 153.227 97.1835 153.358C97.9115 153.526 98.5088 153.703 98.9755 153.89C99.4422 154.067 99.8388 154.343 100.166 154.716C100.502 155.089 100.67 155.593 100.67 156.228C100.67 156.769 100.52 157.259 100.222 157.698C99.9322 158.137 99.4888 158.487 98.8915 158.748C98.2942 159.009 97.5662 159.14 96.7075 159.14ZM102.474 149.2H104.294V159H102.474V149.2ZM113.637 153.988H115.359V157.894C114.855 158.295 114.267 158.603 113.595 158.818C112.923 159.033 112.232 159.14 111.523 159.14C110.524 159.14 109.624 158.925 108.821 158.496C108.018 158.057 107.388 157.455 106.931 156.69C106.474 155.925 106.245 155.061 106.245 154.1C106.245 153.139 106.474 152.275 106.931 151.51C107.388 150.745 108.018 150.147 108.821 149.718C109.633 149.279 110.543 149.06 111.551 149.06C112.372 149.06 113.119 149.195 113.791 149.466C114.463 149.737 115.028 150.133 115.485 150.656L114.337 151.776C113.59 151.029 112.69 150.656 111.635 150.656C110.944 150.656 110.328 150.801 109.787 151.09C109.255 151.379 108.835 151.785 108.527 152.308C108.228 152.831 108.079 153.428 108.079 154.1C108.079 154.753 108.228 155.341 108.527 155.864C108.835 156.387 109.255 156.797 109.787 157.096C110.328 157.395 110.94 157.544 111.621 157.544C112.386 157.544 113.058 157.376 113.637 157.04V153.988ZM126.467 149.2V159H124.969L119.565 152.364V159H117.759V149.2H119.257L124.661 155.836V149.2H126.467Z" fill="#202020"/>
<path d="M5.53 188.14C4.17667 188.14 3.122 187.762 2.366 187.006C1.61 186.241 1.232 185.149 1.232 183.73V178.2H3.052V183.66C3.052 185.583 3.88267 186.544 5.544 186.544C7.196 186.544 8.022 185.583 8.022 183.66V178.2H9.814V183.73C9.814 185.149 9.436 186.241 8.68 187.006C7.93333 187.762 6.88333 188.14 5.53 188.14ZM12.3629 178.2H14.1829V188H12.3629V178.2ZM19.7176 176.212H21.2856L16.6656 189.4H15.0976L19.7176 176.212ZM26.2429 188.14C24.8896 188.14 23.8349 187.762 23.0789 187.006C22.3229 186.241 21.9449 185.149 21.9449 183.73V178.2H23.7649V183.66C23.7649 185.583 24.5956 186.544 26.2569 186.544C27.9089 186.544 28.7349 185.583 28.7349 183.66V178.2H30.5269V183.73C30.5269 185.149 30.1489 186.241 29.3929 187.006C28.6462 187.762 27.5962 188.14 26.2429 188.14ZM39.113 188L36.453 184.276L33.821 188H31.749L35.389 183.002L31.945 178.2H34.003L36.509 181.686L38.987 178.2H40.961L37.531 182.932L41.213 188H39.113Z" fill="#202020"/>
<path d="M5.53 217.14C4.17667 217.14 3.122 216.762 2.366 216.006C1.61 215.241 1.232 214.149 1.232 212.73V207.2H3.052V212.66C3.052 214.583 3.88267 215.544 5.544 215.544C7.196 215.544 8.022 214.583 8.022 212.66V207.2H9.814V212.73C9.814 214.149 9.436 215.241 8.68 216.006C7.93333 216.762 6.88333 217.14 5.53 217.14ZM15.4009 217.14C14.6449 217.14 13.9122 217.033 13.2029 216.818C12.5029 216.603 11.9475 216.319 11.5369 215.964L12.1669 214.55C12.5682 214.867 13.0582 215.129 13.6369 215.334C14.2249 215.53 14.8129 215.628 15.4009 215.628C16.1289 215.628 16.6702 215.511 17.0249 215.278C17.3889 215.045 17.5709 214.737 17.5709 214.354C17.5709 214.074 17.4682 213.845 17.2629 213.668C17.0669 213.481 16.8149 213.337 16.5069 213.234C16.1989 213.131 15.7789 213.015 15.2469 212.884C14.5002 212.707 13.8935 212.529 13.4269 212.352C12.9695 212.175 12.5729 211.899 12.2369 211.526C11.9102 211.143 11.7469 210.63 11.7469 209.986C11.7469 209.445 11.8915 208.955 12.1809 208.516C12.4795 208.068 12.9229 207.713 13.5109 207.452C14.1082 207.191 14.8362 207.06 15.6949 207.06C16.2922 207.06 16.8802 207.135 17.4589 207.284C18.0375 207.433 18.5369 207.648 18.9569 207.928L18.3829 209.342C17.9535 209.09 17.5055 208.899 17.0389 208.768C16.5722 208.637 16.1195 208.572 15.6809 208.572C14.9622 208.572 14.4255 208.693 14.0709 208.936C13.7255 209.179 13.5529 209.501 13.5529 209.902C13.5529 210.182 13.6509 210.411 13.8469 210.588C14.0522 210.765 14.3089 210.905 14.6169 211.008C14.9249 211.111 15.3449 211.227 15.8769 211.358C16.6049 211.526 17.2022 211.703 17.6689 211.89C18.1355 212.067 18.5322 212.343 18.8589 212.716C19.1949 213.089 19.3629 213.593 19.3629 214.228C19.3629 214.769 19.2135 215.259 18.9149 215.698C18.6255 216.137 18.1822 216.487 17.5849 216.748C16.9875 217.009 16.2595 217.14 15.4009 217.14ZM28.5176 215.474V217H21.1676V207.2H28.3216V208.726H22.9876V211.274H27.7196V212.772H22.9876V215.474H28.5176ZM36.9585 217L34.9565 214.13C34.8725 214.139 34.7465 214.144 34.5785 214.144H32.3665V217H30.5465V207.2H34.5785C35.4278 207.2 36.1651 207.34 36.7905 207.62C37.4251 207.9 37.9105 208.301 38.2465 208.824C38.5825 209.347 38.7505 209.967 38.7505 210.686C38.7505 211.423 38.5685 212.058 38.2045 212.59C37.8498 213.122 37.3365 213.519 36.6645 213.78L38.9185 217H36.9585ZM36.9165 210.686C36.9165 210.061 36.7111 209.58 36.3005 209.244C35.8898 208.908 35.2878 208.74 34.4945 208.74H32.3665V212.646H34.4945C35.2878 212.646 35.8898 212.478 36.3005 212.142C36.7111 211.797 36.9165 211.311 36.9165 210.686ZM51.0678 217L49.0658 214.13C48.9818 214.139 48.8558 214.144 48.6878 214.144H46.4758V217H44.6558V207.2H48.6878C49.5372 207.2 50.2745 207.34 50.8998 207.62C51.5345 207.9 52.0198 208.301 52.3558 208.824C52.6918 209.347 52.8598 209.967 52.8598 210.686C52.8598 211.423 52.6778 212.058 52.3138 212.59C51.9592 213.122 51.4458 213.519 50.7738 213.78L53.0278 217H51.0678ZM51.0258 210.686C51.0258 210.061 50.8205 209.58 50.4098 209.244C49.9992 208.908 49.3972 208.74 48.6038 208.74H46.4758V212.646H48.6038C49.3972 212.646 49.9992 212.478 50.4098 212.142C50.8205 211.797 51.0258 211.311 51.0258 210.686ZM62.2461 215.474V217H54.8961V207.2H62.0501V208.726H56.7161V211.274H61.4481V212.772H56.7161V215.474H62.2461ZM67.313 217.14C66.557 217.14 65.8243 217.033 65.115 216.818C64.415 216.603 63.8597 216.319 63.449 215.964L64.079 214.55C64.4803 214.867 64.9703 215.129 65.549 215.334C66.137 215.53 66.725 215.628 67.313 215.628C68.041 215.628 68.5823 215.511 68.937 215.278C69.301 215.045 69.483 214.737 69.483 214.354C69.483 214.074 69.3803 213.845 69.175 213.668C68.979 213.481 68.727 213.337 68.419 213.234C68.111 213.131 67.691 213.015 67.159 212.884C66.4123 212.707 65.8057 212.529 65.339 212.352C64.8817 212.175 64.485 211.899 64.149 211.526C63.8223 211.143 63.659 210.63 63.659 209.986C63.659 209.445 63.8037 208.955 64.093 208.516C64.3917 208.068 64.835 207.713 65.423 207.452C66.0203 207.191 66.7483 207.06 67.607 207.06C68.2043 207.06 68.7923 207.135 69.371 207.284C69.9497 207.433 70.449 207.648 70.869 207.928L70.295 209.342C69.8657 209.09 69.4177 208.899 68.951 208.768C68.4843 208.637 68.0317 208.572 67.593 208.572C66.8743 208.572 66.3377 208.693 65.983 208.936C65.6377 209.179 65.465 209.501 65.465 209.902C65.465 210.182 65.563 210.411 65.759 210.588C65.9643 210.765 66.221 210.905 66.529 211.008C66.837 211.111 67.257 211.227 67.789 211.358C68.517 211.526 69.1143 211.703 69.581 211.89C70.0477 212.067 70.4443 212.343 70.771 212.716C71.107 213.089 71.275 213.593 71.275 214.228C71.275 214.769 71.1257 215.259 70.827 215.698C70.5377 216.137 70.0943 216.487 69.497 216.748C68.8997 217.009 68.1717 217.14 67.313 217.14ZM80.4297 215.474V217H73.0797V207.2H80.2337V208.726H74.8997V211.274H79.6317V212.772H74.8997V215.474H80.4297ZM88.8146 214.732H83.9146L82.9486 217H81.0726L85.4826 207.2H87.2746L91.6986 217H89.7946L88.8146 214.732ZM88.2126 213.304L86.3646 209.02L84.5306 213.304H88.2126ZM99.3569 217L97.3549 214.13C97.2709 214.139 97.1449 214.144 96.9769 214.144H94.7649V217H92.9449V207.2H96.9769C97.8262 207.2 98.5636 207.34 99.1889 207.62C99.8236 207.9 100.309 208.301 100.645 208.824C100.981 209.347 101.149 209.967 101.149 210.686C101.149 211.423 100.967 212.058 100.603 212.59C100.248 213.122 99.7349 213.519 99.0629 213.78L101.317 217H99.3569ZM99.3149 210.686C99.3149 210.061 99.1096 209.58 98.6989 209.244C98.2882 208.908 97.6862 208.74 96.8929 208.74H94.7649V212.646H96.8929C97.6862 212.646 98.2882 212.478 98.6989 212.142C99.1096 211.797 99.3149 211.311 99.3149 210.686ZM107.721 217.14C106.732 217.14 105.836 216.925 105.033 216.496C104.24 216.057 103.614 215.455 103.157 214.69C102.709 213.925 102.485 213.061 102.485 212.1C102.485 211.139 102.714 210.275 103.171 209.51C103.628 208.745 104.254 208.147 105.047 207.718C105.85 207.279 106.746 207.06 107.735 207.06C108.538 207.06 109.27 207.2 109.933 207.48C110.596 207.76 111.156 208.166 111.613 208.698L110.437 209.804C109.728 209.039 108.855 208.656 107.819 208.656C107.147 208.656 106.545 208.805 106.013 209.104C105.481 209.393 105.066 209.799 104.767 210.322C104.468 210.845 104.319 211.437 104.319 212.1C104.319 212.763 104.468 213.355 104.767 213.878C105.066 214.401 105.481 214.811 106.013 215.11C106.545 215.399 107.147 215.544 107.819 215.544C108.855 215.544 109.728 215.157 110.437 214.382L111.613 215.502C111.156 216.034 110.591 216.44 109.919 216.72C109.256 217 108.524 217.14 107.721 217.14ZM122.065 207.2V217H120.245V212.8H115.177V217H113.357V207.2H115.177V211.246H120.245V207.2H122.065Z" fill="#202020"/>
<path d="M5.348 236.2C6.19733 236.2 6.93467 236.34 7.56 236.62C8.19467 236.9 8.68 237.301 9.016 237.824C9.352 238.347 9.52 238.967 9.52 239.686C9.52 240.395 9.352 241.016 9.016 241.548C8.68 242.071 8.19467 242.472 7.56 242.752C6.93467 243.032 6.19733 243.172 5.348 243.172H3.136V246H1.316V236.2H5.348ZM5.264 241.632C6.05733 241.632 6.65933 241.464 7.07 241.128C7.48067 240.792 7.686 240.311 7.686 239.686C7.686 239.061 7.48067 238.58 7.07 238.244C6.65933 237.908 6.05733 237.74 5.264 237.74H3.136V241.632H5.264ZM17.7495 246L15.7475 243.13C15.6635 243.139 15.5375 243.144 15.3695 243.144H13.1575V246H11.3375V236.2H15.3695C16.2188 236.2 16.9562 236.34 17.5815 236.62C18.2162 236.9 18.7015 237.301 19.0375 237.824C19.3735 238.347 19.5415 238.967 19.5415 239.686C19.5415 240.423 19.3595 241.058 18.9955 241.59C18.6408 242.122 18.1275 242.519 17.4555 242.78L19.7095 246H17.7495ZM17.7075 239.686C17.7075 239.061 17.5022 238.58 17.0915 238.244C16.6808 237.908 16.0788 237.74 15.2855 237.74H13.1575V241.646H15.2855C16.0788 241.646 16.6808 241.478 17.0915 241.142C17.5022 240.797 17.7075 240.311 17.7075 239.686ZM26.1557 246.14C25.1571 246.14 24.2564 245.925 23.4537 245.496C22.6511 245.057 22.0211 244.455 21.5637 243.69C21.1064 242.915 20.8777 242.052 20.8777 241.1C20.8777 240.148 21.1064 239.289 21.5637 238.524C22.0211 237.749 22.6511 237.147 23.4537 236.718C24.2564 236.279 25.1571 236.06 26.1557 236.06C27.1544 236.06 28.0551 236.279 28.8577 236.718C29.6604 237.147 30.2904 237.745 30.7477 238.51C31.2051 239.275 31.4337 240.139 31.4337 241.1C31.4337 242.061 31.2051 242.925 30.7477 243.69C30.2904 244.455 29.6604 245.057 28.8577 245.496C28.0551 245.925 27.1544 246.14 26.1557 246.14ZM26.1557 244.544C26.8091 244.544 27.3971 244.399 27.9197 244.11C28.4424 243.811 28.8531 243.401 29.1517 242.878C29.4504 242.346 29.5997 241.753 29.5997 241.1C29.5997 240.447 29.4504 239.859 29.1517 239.336C28.8531 238.804 28.4424 238.393 27.9197 238.104C27.3971 237.805 26.8091 237.656 26.1557 237.656C25.5024 237.656 24.9144 237.805 24.3917 238.104C23.8691 238.393 23.4584 238.804 23.1597 239.336C22.8611 239.859 22.7117 240.447 22.7117 241.1C22.7117 241.753 22.8611 242.346 23.1597 242.878C23.4584 243.401 23.8691 243.811 24.3917 244.11C24.9144 244.399 25.5024 244.544 26.1557 244.544ZM33.3629 236.2H37.6469C38.6922 236.2 39.6209 236.405 40.4329 236.816C41.2449 237.217 41.8749 237.791 42.3229 238.538C42.7709 239.275 42.9949 240.129 42.9949 241.1C42.9949 242.071 42.7709 242.929 42.3229 243.676C41.8749 244.413 41.2449 244.987 40.4329 245.398C39.6209 245.799 38.6922 246 37.6469 246H33.3629V236.2ZM37.5629 244.46C38.2815 244.46 38.9115 244.325 39.4529 244.054C40.0035 243.774 40.4235 243.382 40.7129 242.878C41.0115 242.365 41.1609 241.772 41.1609 241.1C41.1609 240.428 41.0115 239.84 40.7129 239.336C40.4235 238.823 40.0035 238.431 39.4529 238.16C38.9115 237.88 38.2815 237.74 37.5629 237.74H35.1829V244.46H37.5629ZM49.1433 246.14C47.7899 246.14 46.7353 245.762 45.9793 245.006C45.2233 244.241 44.8453 243.149 44.8453 241.73V236.2H46.6653V241.66C46.6653 243.583 47.4959 244.544 49.1573 244.544C50.8093 244.544 51.6353 243.583 51.6353 241.66V236.2H53.4273V241.73C53.4273 243.149 53.0493 244.241 52.2933 245.006C51.5466 245.762 50.4966 246.14 49.1433 246.14ZM60.5122 246.14C59.5228 246.14 58.6268 245.925 57.8242 245.496C57.0308 245.057 56.4055 244.455 55.9482 243.69C55.5002 242.925 55.2762 242.061 55.2762 241.1C55.2762 240.139 55.5048 239.275 55.9622 238.51C56.4195 237.745 57.0448 237.147 57.8382 236.718C58.6408 236.279 59.5368 236.06 60.5262 236.06C61.3288 236.06 62.0615 236.2 62.7242 236.48C63.3868 236.76 63.9468 237.166 64.4042 237.698L63.2282 238.804C62.5188 238.039 61.6462 237.656 60.6102 237.656C59.9382 237.656 59.3362 237.805 58.8042 238.104C58.2722 238.393 57.8568 238.799 57.5582 239.322C57.2595 239.845 57.1102 240.437 57.1102 241.1C57.1102 241.763 57.2595 242.355 57.5582 242.878C57.8568 243.401 58.2722 243.811 58.8042 244.11C59.3362 244.399 59.9382 244.544 60.6102 244.544C61.6462 244.544 62.5188 244.157 63.2282 243.382L64.4042 244.502C63.9468 245.034 63.3822 245.44 62.7102 245.72C62.0475 246 61.3148 246.14 60.5122 246.14ZM68.0267 237.74H64.7787V236.2H73.0947V237.74H69.8467V246H68.0267V237.74ZM78.3297 236.2H82.6137C83.659 236.2 84.5877 236.405 85.3997 236.816C86.2117 237.217 86.8417 237.791 87.2897 238.538C87.7377 239.275 87.9617 240.129 87.9617 241.1C87.9617 242.071 87.7377 242.929 87.2897 243.676C86.8417 244.413 86.2117 244.987 85.3997 245.398C84.5877 245.799 83.659 246 82.6137 246H78.3297V236.2ZM82.5297 244.46C83.2483 244.46 83.8783 244.325 84.4197 244.054C84.9703 243.774 85.3903 243.382 85.6797 242.878C85.9783 242.365 86.1277 241.772 86.1277 241.1C86.1277 240.428 85.9783 239.84 85.6797 239.336C85.3903 238.823 84.9703 238.431 84.4197 238.16C83.8783 237.88 83.2483 237.74 82.5297 237.74H80.1497V244.46H82.5297ZM97.2461 244.474V246H89.8961V236.2H97.0501V237.726H91.7161V240.274H96.4481V241.772H91.7161V244.474H97.2461ZM102.313 246.14C101.557 246.14 100.824 246.033 100.115 245.818C99.415 245.603 98.8597 245.319 98.449 244.964L99.079 243.55C99.4803 243.867 99.9703 244.129 100.549 244.334C101.137 244.53 101.725 244.628 102.313 244.628C103.041 244.628 103.582 244.511 103.937 244.278C104.301 244.045 104.483 243.737 104.483 243.354C104.483 243.074 104.38 242.845 104.175 242.668C103.979 242.481 103.727 242.337 103.419 242.234C103.111 242.131 102.691 242.015 102.159 241.884C101.412 241.707 100.806 241.529 100.339 241.352C99.8817 241.175 99.485 240.899 99.149 240.526C98.8223 240.143 98.659 239.63 98.659 238.986C98.659 238.445 98.8037 237.955 99.093 237.516C99.3917 237.068 99.835 236.713 100.423 236.452C101.02 236.191 101.748 236.06 102.607 236.06C103.204 236.06 103.792 236.135 104.371 236.284C104.95 236.433 105.449 236.648 105.869 236.928L105.295 238.342C104.866 238.09 104.418 237.899 103.951 237.768C103.484 237.637 103.032 237.572 102.593 237.572C101.874 237.572 101.338 237.693 100.983 237.936C100.638 238.179 100.465 238.501 100.465 238.902C100.465 239.182 100.563 239.411 100.759 239.588C100.964 239.765 101.221 239.905 101.529 240.008C101.837 240.111 102.257 240.227 102.789 240.358C103.517 240.526 104.114 240.703 104.581 240.89C105.048 241.067 105.444 241.343 105.771 241.716C106.107 242.089 106.275 242.593 106.275 243.228C106.275 243.769 106.126 244.259 105.827 244.698C105.538 245.137 105.094 245.487 104.497 245.748C103.9 246.009 103.172 246.14 102.313 246.14ZM108.08 236.2H109.9V246H108.08V236.2ZM119.242 240.988H120.964V244.894C120.46 245.295 119.872 245.603 119.2 245.818C118.528 246.033 117.838 246.14 117.128 246.14C116.13 246.14 115.229 245.925 114.426 245.496C113.624 245.057 112.994 244.455 112.536 243.69C112.079 242.925 111.85 242.061 111.85 241.1C111.85 240.139 112.079 239.275 112.536 238.51C112.994 237.745 113.624 237.147 114.426 236.718C115.238 236.279 116.148 236.06 117.156 236.06C117.978 236.06 118.724 236.195 119.396 236.466C120.068 236.737 120.633 237.133 121.09 237.656L119.942 238.776C119.196 238.029 118.295 237.656 117.24 237.656C116.55 237.656 115.934 237.801 115.392 238.09C114.86 238.379 114.44 238.785 114.132 239.308C113.834 239.831 113.684 240.428 113.684 241.1C113.684 241.753 113.834 242.341 114.132 242.864C114.44 243.387 114.86 243.797 115.392 244.096C115.934 244.395 116.545 244.544 117.226 244.544C117.992 244.544 118.664 244.376 119.242 244.04V240.988ZM132.073 236.2V246H130.575L125.171 239.364V246H123.365V236.2H124.863L130.267 242.836V236.2H132.073Z" fill="#202020"/>
<path d="M4.354 275.14C3.598 275.14 2.86533 275.033 2.156 274.818C1.456 274.603 0.900667 274.319 0.49 273.964L1.12 272.55C1.52133 272.867 2.01133 273.129 2.59 273.334C3.178 273.53 3.766 273.628 4.354 273.628C5.082 273.628 5.62333 273.511 5.978 273.278C6.342 273.045 6.524 272.737 6.524 272.354C6.524 272.074 6.42133 271.845 6.216 271.668C6.02 271.481 5.768 271.337 5.46 271.234C5.152 271.131 4.732 271.015 4.2 270.884C3.45333 270.707 2.84667 270.529 2.38 270.352C1.92267 270.175 1.526 269.899 1.19 269.526C0.863333 269.143 0.7 268.63 0.7 267.986C0.7 267.445 0.844667 266.955 1.134 266.516C1.43267 266.068 1.876 265.713 2.464 265.452C3.06133 265.191 3.78933 265.06 4.648 265.06C5.24533 265.06 5.83333 265.135 6.412 265.284C6.99067 265.433 7.49 265.648 7.91 265.928L7.336 267.342C6.90667 267.09 6.45867 266.899 5.992 266.768C5.52533 266.637 5.07267 266.572 4.634 266.572C3.91533 266.572 3.37867 266.693 3.024 266.936C2.67867 267.179 2.506 267.501 2.506 267.902C2.506 268.182 2.604 268.411 2.8 268.588C3.00533 268.765 3.262 268.905 3.57 269.008C3.878 269.111 4.298 269.227 4.83 269.358C5.558 269.526 6.15533 269.703 6.622 269.89C7.08867 270.067 7.48533 270.343 7.812 270.716C8.148 271.089 8.316 271.593 8.316 272.228C8.316 272.769 8.16667 273.259 7.868 273.698C7.57867 274.137 7.13533 274.487 6.538 274.748C5.94067 275.009 5.21267 275.14 4.354 275.14ZM11.972 266.74H8.72397V265.2H17.04V266.74H13.792V275H11.972V266.74ZM22.8471 275.14C21.8485 275.14 20.9478 274.925 20.1451 274.496C19.3425 274.057 18.7125 273.455 18.2551 272.69C17.7978 271.915 17.5691 271.052 17.5691 270.1C17.5691 269.148 17.7978 268.289 18.2551 267.524C18.7125 266.749 19.3425 266.147 20.1451 265.718C20.9478 265.279 21.8485 265.06 22.8471 265.06C23.8458 265.06 24.7465 265.279 25.5491 265.718C26.3518 266.147 26.9818 266.745 27.4391 267.51C27.8965 268.275 28.1251 269.139 28.1251 270.1C28.1251 271.061 27.8965 271.925 27.4391 272.69C26.9818 273.455 26.3518 274.057 25.5491 274.496C24.7465 274.925 23.8458 275.14 22.8471 275.14ZM22.8471 273.544C23.5005 273.544 24.0885 273.399 24.6111 273.11C25.1338 272.811 25.5445 272.401 25.8431 271.878C26.1418 271.346 26.2911 270.753 26.2911 270.1C26.2911 269.447 26.1418 268.859 25.8431 268.336C25.5445 267.804 25.1338 267.393 24.6111 267.104C24.0885 266.805 23.5005 266.656 22.8471 266.656C22.1938 266.656 21.6058 266.805 21.0831 267.104C20.5605 267.393 20.1498 267.804 19.8511 268.336C19.5525 268.859 19.4031 269.447 19.4031 270.1C19.4031 270.753 19.5525 271.346 19.8511 271.878C20.1498 272.401 20.5605 272.811 21.0831 273.11C21.6058 273.399 22.1938 273.544 22.8471 273.544ZM36.4663 275L34.4643 272.13C34.3803 272.139 34.2543 272.144 34.0863 272.144H31.8743V275H30.0543V265.2H34.0863C34.9356 265.2 35.6729 265.34 36.2983 265.62C36.9329 265.9 37.4183 266.301 37.7543 266.824C38.0903 267.347 38.2583 267.967 38.2583 268.686C38.2583 269.423 38.0763 270.058 37.7123 270.59C37.3576 271.122 36.8443 271.519 36.1723 271.78L38.4263 275H36.4663ZM36.4243 268.686C36.4243 268.061 36.2189 267.58 35.8083 267.244C35.3976 266.908 34.7956 266.74 34.0023 266.74H31.8743V270.646H34.0023C34.7956 270.646 35.3976 270.478 35.8083 270.142C36.2189 269.797 36.4243 269.311 36.4243 268.686ZM44.3858 271.542V275H42.5658V271.57L38.7158 265.2H40.6618L43.5318 269.974L46.4298 265.2H48.2218L44.3858 271.542ZM51.2649 266.74H48.0169V265.2H56.3329V266.74H53.0849V275H51.2649V266.74ZM65.0488 273.474V275H57.6988V265.2H64.8528V266.726H59.5188V269.274H64.2508V270.772H59.5188V273.474H65.0488ZM67.0777 265.2H68.8977V273.46H74.0217V275H67.0777V265.2ZM75.4586 265.2H77.2786V273.46H82.4026V275H75.4586V265.2ZM83.8394 265.2H85.6594V275H83.8394V265.2ZM97.0181 265.2V275H95.5201L90.1161 268.364V275H88.3101V265.2H89.8081L95.2121 271.836V265.2H97.0181ZM106.336 269.988H108.058V273.894C107.554 274.295 106.966 274.603 106.294 274.818C105.622 275.033 104.931 275.14 104.222 275.14C103.223 275.14 102.323 274.925 101.52 274.496C100.717 274.057 100.087 273.455 99.6301 272.69C99.1728 271.925 98.9441 271.061 98.9441 270.1C98.9441 269.139 99.1728 268.275 99.6301 267.51C100.087 266.745 100.717 266.147 101.52 265.718C102.332 265.279 103.242 265.06 104.25 265.06C105.071 265.06 105.818 265.195 106.49 265.466C107.162 265.737 107.727 266.133 108.184 266.656L107.036 267.776C106.289 267.029 105.389 266.656 104.334 266.656C103.643 266.656 103.027 266.801 102.486 267.09C101.954 267.379 101.534 267.785 101.226 268.308C100.927 268.831 100.778 269.428 100.778 270.1C100.778 270.753 100.927 271.341 101.226 271.864C101.534 272.387 101.954 272.797 102.486 273.096C103.027 273.395 103.639 273.544 104.32 273.544C105.085 273.544 105.757 273.376 106.336 273.04V269.988Z" fill="#202020"/>
<path d="M672.344 10.816C672.896 10.816 673.392 10.924 673.832 11.14C674.272 11.348 674.616 11.648 674.864 12.04C675.112 12.432 675.236 12.884 675.236 13.396C675.236 13.94 675.1 14.42 674.828 14.836C674.556 15.244 674.188 15.56 673.724 15.784C673.26 16.008 672.74 16.12 672.164 16.12C671.012 16.12 670.116 15.76 669.476 15.04C668.844 14.32 668.528 13.288 668.528 11.944C668.528 11 668.7 10.196 669.044 9.532C669.388 8.86 669.868 8.352 670.484 8.008C671.108 7.656 671.828 7.48 672.644 7.48C673.076 7.48 673.48 7.528 673.856 7.624C674.24 7.712 674.572 7.844 674.852 8.02L674.276 9.196C673.86 8.924 673.328 8.788 672.68 8.788C671.872 8.788 671.24 9.036 670.784 9.532C670.328 10.028 670.1 10.744 670.1 11.68V11.692C670.348 11.404 670.664 11.188 671.048 11.044C671.432 10.892 671.864 10.816 672.344 10.816ZM672.08 14.896C672.568 14.896 672.964 14.768 673.268 14.512C673.572 14.248 673.724 13.9 673.724 13.468C673.724 13.028 673.572 12.68 673.268 12.424C672.964 12.168 672.556 12.04 672.044 12.04C671.54 12.04 671.128 12.176 670.808 12.448C670.496 12.72 670.34 13.064 670.34 13.48C670.34 13.888 670.492 14.228 670.796 14.5C671.108 14.764 671.536 14.896 672.08 14.896ZM678.955 7.6V16H677.395V8.908H675.619V7.6H678.955ZM682.494 12.124C681.894 12.124 681.41 11.912 681.042 11.488C680.674 11.064 680.49 10.508 680.49 9.82C680.49 9.132 680.674 8.576 681.042 8.152C681.41 7.728 681.894 7.516 682.494 7.516C683.094 7.516 683.578 7.728 683.946 8.152C684.322 8.568 684.51 9.124 684.51 9.82C684.51 10.516 684.322 11.076 683.946 11.5C683.578 11.916 683.094 12.124 682.494 12.124ZM687.534 7.6H688.71L682.974 16H681.798L687.534 7.6ZM682.494 11.284C682.822 11.284 683.074 11.156 683.25 10.9C683.434 10.644 683.526 10.284 683.526 9.82C683.526 9.356 683.434 8.996 683.25 8.74C683.074 8.484 682.822 8.356 682.494 8.356C682.182 8.356 681.93 8.488 681.738 8.752C681.554 9.008 681.462 9.364 681.462 9.82C681.462 10.276 681.554 10.636 681.738 10.9C681.93 11.156 682.182 11.284 682.494 11.284ZM688.002 16.084C687.402 16.084 686.918 15.872 686.55 15.448C686.182 15.024 685.998 14.468 685.998 13.78C685.998 13.092 686.182 12.536 686.55 12.112C686.918 11.688 687.402 11.476 688.002 11.476C688.602 11.476 689.086 11.688 689.454 12.112C689.83 12.536 690.018 13.092 690.018 13.78C690.018 14.468 689.83 15.024 689.454 15.448C689.086 15.872 688.602 16.084 688.002 16.084ZM688.002 15.244C688.322 15.244 688.574 15.116 688.758 14.86C688.942 14.596 689.034 14.236 689.034 13.78C689.034 13.324 688.942 12.968 688.758 12.712C688.574 12.448 688.322 12.316 688.002 12.316C687.682 12.316 687.43 12.444 687.246 12.7C687.062 12.956 686.97 13.316 686.97 13.78C686.97 14.244 687.062 14.604 687.246 14.86C687.43 15.116 687.682 15.244 688.002 15.244ZM697.598 16.084C696.95 16.084 696.366 15.944 695.846 15.664C695.326 15.384 694.918 14.996 694.622 14.5C694.334 13.996 694.19 13.428 694.19 12.796C694.19 12.164 694.334 11.6 694.622 11.104C694.918 10.608 695.326 10.22 695.846 9.94C696.366 9.66 696.95 9.52 697.598 9.52C698.254 9.52 698.842 9.66 699.362 9.94C699.882 10.22 700.286 10.608 700.574 11.104C700.87 11.6 701.018 12.164 701.018 12.796C701.018 13.428 700.87 13.996 700.574 14.5C700.286 14.996 699.882 15.384 699.362 15.664C698.842 15.944 698.254 16.084 697.598 16.084ZM697.598 14.8C698.15 14.8 698.606 14.616 698.966 14.248C699.326 13.88 699.506 13.396 699.506 12.796C699.506 12.196 699.326 11.712 698.966 11.344C698.606 10.976 698.15 10.792 697.598 10.792C697.046 10.792 696.59 10.976 696.23 11.344C695.878 11.712 695.702 12.196 695.702 12.796C695.702 13.396 695.878 13.88 696.23 14.248C696.59 14.616 697.046 14.8 697.598 14.8ZM705.057 8.224C704.425 8.224 704.109 8.568 704.109 9.256V9.64H705.873V10.84H704.157V16H702.657V10.84H701.601V9.64H702.657V9.232C702.657 8.544 702.857 8.004 703.257 7.612C703.657 7.212 704.221 7.012 704.949 7.012C705.525 7.012 705.977 7.128 706.305 7.36L705.885 8.488C705.629 8.312 705.353 8.224 705.057 8.224ZM718.287 9.52C719.095 9.52 719.735 9.756 720.207 10.228C720.679 10.692 720.915 11.392 720.915 12.328V16H719.415V12.52C719.415 11.96 719.291 11.54 719.043 11.26C718.795 10.972 718.439 10.828 717.975 10.828C717.471 10.828 717.067 10.996 716.763 11.332C716.459 11.66 716.307 12.132 716.307 12.748V16H714.807V12.52C714.807 11.96 714.683 11.54 714.435 11.26C714.187 10.972 713.831 10.828 713.367 10.828C712.855 10.828 712.447 10.992 712.143 11.32C711.847 11.648 711.699 12.124 711.699 12.748V16H710.199V9.592H711.627V10.408C711.867 10.12 712.167 9.9 712.527 9.748C712.887 9.596 713.287 9.52 713.727 9.52C714.207 9.52 714.631 9.612 714.999 9.796C715.375 9.972 715.671 10.236 715.887 10.588C716.151 10.252 716.491 9.992 716.907 9.808C717.323 9.616 717.783 9.52 718.287 9.52ZM728.914 12.832C728.914 12.936 728.906 13.084 728.89 13.276H723.862C723.95 13.748 724.178 14.124 724.546 14.404C724.922 14.676 725.386 14.812 725.938 14.812C726.642 14.812 727.222 14.58 727.678 14.116L728.482 15.04C728.194 15.384 727.83 15.644 727.39 15.82C726.95 15.996 726.454 16.084 725.902 16.084C725.198 16.084 724.578 15.944 724.042 15.664C723.506 15.384 723.09 14.996 722.794 14.5C722.506 13.996 722.362 13.428 722.362 12.796C722.362 12.172 722.502 11.612 722.782 11.116C723.07 10.612 723.466 10.22 723.97 9.94C724.474 9.66 725.042 9.52 725.674 9.52C726.298 9.52 726.854 9.66 727.342 9.94C727.838 10.212 728.222 10.6 728.494 11.104C728.774 11.6 728.914 12.176 728.914 12.832ZM725.674 10.72C725.194 10.72 724.786 10.864 724.45 11.152C724.122 11.432 723.922 11.808 723.85 12.28H727.486C727.422 11.816 727.226 11.44 726.898 11.152C726.57 10.864 726.162 10.72 725.674 10.72ZM738.443 9.52C739.251 9.52 739.891 9.756 740.363 10.228C740.835 10.692 741.071 11.392 741.071 12.328V16H739.571V12.52C739.571 11.96 739.447 11.54 739.199 11.26C738.951 10.972 738.595 10.828 738.131 10.828C737.627 10.828 737.223 10.996 736.919 11.332C736.615 11.66 736.463 12.132 736.463 12.748V16H734.963V12.52C734.963 11.96 734.839 11.54 734.591 11.26C734.343 10.972 733.987 10.828 733.523 10.828C733.011 10.828 732.603 10.992 732.299 11.32C732.003 11.648 731.855 12.124 731.855 12.748V16H730.355V9.592H731.783V10.408C732.023 10.12 732.323 9.9 732.683 9.748C733.043 9.596 733.443 9.52 733.883 9.52C734.363 9.52 734.787 9.612 735.155 9.796C735.531 9.972 735.827 10.236 736.043 10.588C736.307 10.252 736.647 9.992 737.063 9.808C737.479 9.616 737.939 9.52 738.443 9.52ZM746.54 9.52C747.164 9.52 747.72 9.656 748.208 9.928C748.704 10.2 749.092 10.584 749.372 11.08C749.652 11.576 749.792 12.148 749.792 12.796C749.792 13.444 749.652 14.02 749.372 14.524C749.092 15.02 748.704 15.404 748.208 15.676C747.72 15.948 747.164 16.084 746.54 16.084C746.1 16.084 745.696 16.008 745.328 15.856C744.968 15.704 744.664 15.476 744.416 15.172V16H742.988V7.096H744.488V10.372C744.744 10.092 745.044 9.88 745.388 9.736C745.74 9.592 746.124 9.52 746.54 9.52ZM746.372 14.8C746.924 14.8 747.376 14.616 747.728 14.248C748.088 13.88 748.268 13.396 748.268 12.796C748.268 12.196 748.088 11.712 747.728 11.344C747.376 10.976 746.924 10.792 746.372 10.792C746.012 10.792 745.688 10.876 745.4 11.044C745.112 11.204 744.884 11.436 744.716 11.74C744.548 12.044 744.464 12.396 744.464 12.796C744.464 13.196 744.548 13.548 744.716 13.852C744.884 14.156 745.112 14.392 745.4 14.56C745.688 14.72 746.012 14.8 746.372 14.8ZM757.238 12.832C757.238 12.936 757.23 13.084 757.214 13.276H752.186C752.274 13.748 752.502 14.124 752.87 14.404C753.246 14.676 753.71 14.812 754.262 14.812C754.966 14.812 755.546 14.58 756.002 14.116L756.806 15.04C756.518 15.384 756.154 15.644 755.714 15.82C755.274 15.996 754.778 16.084 754.226 16.084C753.522 16.084 752.902 15.944 752.366 15.664C751.83 15.384 751.414 14.996 751.118 14.5C750.83 13.996 750.686 13.428 750.686 12.796C750.686 12.172 750.826 11.612 751.106 11.116C751.394 10.612 751.79 10.22 752.294 9.94C752.798 9.66 753.366 9.52 753.998 9.52C754.622 9.52 755.178 9.66 755.666 9.94C756.162 10.212 756.546 10.6 756.818 11.104C757.098 11.6 757.238 12.176 757.238 12.832ZM753.998 10.72C753.518 10.72 753.11 10.864 752.774 11.152C752.446 11.432 752.246 11.808 752.174 12.28H755.81C755.746 11.816 755.55 11.44 755.222 11.152C754.894 10.864 754.486 10.72 753.998 10.72ZM760.107 10.528C760.539 9.856 761.299 9.52 762.387 9.52V10.948C762.259 10.924 762.143 10.912 762.039 10.912C761.455 10.912 760.999 11.084 760.671 11.428C760.343 11.764 760.179 12.252 760.179 12.892V16H758.679V9.592H760.107V10.528ZM765.663 16.084C765.143 16.084 764.635 16.016 764.139 15.88C763.643 15.744 763.247 15.572 762.951 15.364L763.527 14.224C763.815 14.416 764.159 14.572 764.559 14.692C764.967 14.804 765.367 14.86 765.759 14.86C766.655 14.86 767.103 14.624 767.103 14.152C767.103 13.928 766.987 13.772 766.755 13.684C766.531 13.596 766.167 13.512 765.663 13.432C765.135 13.352 764.703 13.26 764.367 13.156C764.039 13.052 763.751 12.872 763.503 12.616C763.263 12.352 763.143 11.988 763.143 11.524C763.143 10.916 763.395 10.432 763.899 10.072C764.411 9.704 765.099 9.52 765.963 9.52C766.403 9.52 766.843 9.572 767.283 9.676C767.723 9.772 768.083 9.904 768.363 10.072L767.787 11.212C767.243 10.892 766.631 10.732 765.951 10.732C765.511 10.732 765.175 10.8 764.943 10.936C764.719 11.064 764.607 11.236 764.607 11.452C764.607 11.692 764.727 11.864 764.967 11.968C765.215 12.064 765.595 12.156 766.107 12.244C766.619 12.324 767.039 12.416 767.367 12.52C767.695 12.624 767.975 12.8 768.207 13.048C768.447 13.296 768.567 13.648 768.567 14.104C768.567 14.704 768.307 15.184 767.787 15.544C767.267 15.904 766.559 16.084 765.663 16.084Z" fill="black"/>
<path d="M435.104 40.068C435.88 40.164 436.472 40.428 436.88 40.86C437.288 41.292 437.492 41.832 437.492 42.48C437.492 42.968 437.368 43.412 437.12 43.812C436.872 44.212 436.496 44.532 435.992 44.772C435.496 45.004 434.888 45.12 434.168 45.12C433.568 45.12 432.988 45.036 432.428 44.868C431.876 44.692 431.404 44.452 431.012 44.148L431.684 42.936C431.988 43.192 432.356 43.396 432.788 43.548C433.228 43.692 433.68 43.764 434.144 43.764C434.696 43.764 435.128 43.652 435.44 43.428C435.76 43.196 435.92 42.884 435.92 42.492C435.92 42.1 435.768 41.796 435.464 41.58C435.168 41.356 434.712 41.244 434.096 41.244H433.328V40.176L435.236 37.908H431.42V36.6H437.144V37.644L435.104 40.068ZM444.538 43.68V45H438.346V43.956L441.682 40.788C442.058 40.428 442.31 40.116 442.438 39.852C442.574 39.58 442.642 39.312 442.642 39.048C442.642 38.656 442.51 38.356 442.246 38.148C441.982 37.94 441.594 37.836 441.082 37.836C440.226 37.836 439.57 38.128 439.114 38.712L438.022 37.872C438.35 37.432 438.79 37.092 439.342 36.852C439.902 36.604 440.526 36.48 441.214 36.48C442.126 36.48 442.854 36.696 443.398 37.128C443.942 37.56 444.214 38.148 444.214 38.892C444.214 39.348 444.118 39.776 443.926 40.176C443.734 40.576 443.366 41.032 442.822 41.544L440.578 43.68H444.538ZM447.427 41.124C446.827 41.124 446.343 40.912 445.975 40.488C445.607 40.064 445.423 39.508 445.423 38.82C445.423 38.132 445.607 37.576 445.975 37.152C446.343 36.728 446.827 36.516 447.427 36.516C448.027 36.516 448.511 36.728 448.879 37.152C449.255 37.568 449.443 38.124 449.443 38.82C449.443 39.516 449.255 40.076 448.879 40.5C448.511 40.916 448.027 41.124 447.427 41.124ZM452.467 36.6H453.643L447.907 45H446.731L452.467 36.6ZM447.427 40.284C447.755 40.284 448.007 40.156 448.183 39.9C448.367 39.644 448.459 39.284 448.459 38.82C448.459 38.356 448.367 37.996 448.183 37.74C448.007 37.484 447.755 37.356 447.427 37.356C447.115 37.356 446.863 37.488 446.671 37.752C446.487 38.008 446.395 38.364 446.395 38.82C446.395 39.276 446.487 39.636 446.671 39.9C446.863 40.156 447.115 40.284 447.427 40.284ZM452.935 45.084C452.335 45.084 451.851 44.872 451.483 44.448C451.115 44.024 450.931 43.468 450.931 42.78C450.931 42.092 451.115 41.536 451.483 41.112C451.851 40.688 452.335 40.476 452.935 40.476C453.535 40.476 454.019 40.688 454.387 41.112C454.763 41.536 454.951 42.092 454.951 42.78C454.951 43.468 454.763 44.024 454.387 44.448C454.019 44.872 453.535 45.084 452.935 45.084ZM452.935 44.244C453.255 44.244 453.507 44.116 453.691 43.86C453.875 43.596 453.967 43.236 453.967 42.78C453.967 42.324 453.875 41.968 453.691 41.712C453.507 41.448 453.255 41.316 452.935 41.316C452.615 41.316 452.363 41.444 452.179 41.7C451.995 41.956 451.903 42.316 451.903 42.78C451.903 43.244 451.995 43.604 452.179 43.86C452.363 44.116 452.615 44.244 452.935 44.244Z" fill="black"/>
<path d="M307.432 94.6V103H305.872V95.908H304.096V94.6H307.432ZM312.914 97.816C313.466 97.816 313.962 97.924 314.402 98.14C314.842 98.348 315.186 98.648 315.434 99.04C315.682 99.432 315.806 99.884 315.806 100.396C315.806 100.94 315.67 101.42 315.398 101.836C315.126 102.244 314.758 102.56 314.294 102.784C313.83 103.008 313.31 103.12 312.734 103.12C311.582 103.12 310.686 102.76 310.046 102.04C309.414 101.32 309.098 100.288 309.098 98.944C309.098 98 309.27 97.196 309.614 96.532C309.958 95.86 310.438 95.352 311.054 95.008C311.678 94.656 312.398 94.48 313.214 94.48C313.646 94.48 314.05 94.528 314.426 94.624C314.81 94.712 315.142 94.844 315.422 95.02L314.846 96.196C314.43 95.924 313.898 95.788 313.25 95.788C312.442 95.788 311.81 96.036 311.354 96.532C310.898 97.028 310.67 97.744 310.67 98.68V98.692C310.918 98.404 311.234 98.188 311.618 98.044C312.002 97.892 312.434 97.816 312.914 97.816ZM312.65 101.896C313.138 101.896 313.534 101.768 313.838 101.512C314.142 101.248 314.294 100.9 314.294 100.468C314.294 100.028 314.142 99.68 313.838 99.424C313.534 99.168 313.126 99.04 312.614 99.04C312.11 99.04 311.698 99.176 311.378 99.448C311.066 99.72 310.91 100.064 310.91 100.48C310.91 100.888 311.062 101.228 311.366 101.5C311.678 101.764 312.106 101.896 312.65 101.896ZM318.259 99.124C317.659 99.124 317.175 98.912 316.807 98.488C316.439 98.064 316.255 97.508 316.255 96.82C316.255 96.132 316.439 95.576 316.807 95.152C317.175 94.728 317.659 94.516 318.259 94.516C318.859 94.516 319.343 94.728 319.711 95.152C320.087 95.568 320.275 96.124 320.275 96.82C320.275 97.516 320.087 98.076 319.711 98.5C319.343 98.916 318.859 99.124 318.259 99.124ZM323.299 94.6H324.475L318.739 103H317.563L323.299 94.6ZM318.259 98.284C318.587 98.284 318.839 98.156 319.015 97.9C319.199 97.644 319.291 97.284 319.291 96.82C319.291 96.356 319.199 95.996 319.015 95.74C318.839 95.484 318.587 95.356 318.259 95.356C317.947 95.356 317.695 95.488 317.503 95.752C317.319 96.008 317.227 96.364 317.227 96.82C317.227 97.276 317.319 97.636 317.503 97.9C317.695 98.156 317.947 98.284 318.259 98.284ZM323.767 103.084C323.167 103.084 322.683 102.872 322.315 102.448C321.947 102.024 321.763 101.468 321.763 100.78C321.763 100.092 321.947 99.536 322.315 99.112C322.683 98.688 323.167 98.476 323.767 98.476C324.367 98.476 324.851 98.688 325.219 99.112C325.595 99.536 325.783 100.092 325.783 100.78C325.783 101.468 325.595 102.024 325.219 102.448C324.851 102.872 324.367 103.084 323.767 103.084ZM323.767 102.244C324.087 102.244 324.339 102.116 324.523 101.86C324.707 101.596 324.799 101.236 324.799 100.78C324.799 100.324 324.707 99.968 324.523 99.712C324.339 99.448 324.087 99.316 323.767 99.316C323.447 99.316 323.195 99.444 323.011 99.7C322.827 99.956 322.735 100.316 322.735 100.78C322.735 101.244 322.827 101.604 323.011 101.86C323.195 102.116 323.447 102.244 323.767 102.244Z" fill="black"/>
<path d="M564.016 130.092H562.528V132H561.016V130.092H556.408V129.012L560.548 123.6H562.216L558.316 128.772H561.064V127.08H562.528V128.772H564.016V130.092ZM570.238 127.584C570.678 127.784 571.014 128.056 571.246 128.4C571.486 128.736 571.606 129.132 571.606 129.588C571.606 130.1 571.462 130.548 571.174 130.932C570.894 131.316 570.494 131.612 569.974 131.82C569.454 132.02 568.85 132.12 568.162 132.12C567.474 132.12 566.87 132.02 566.35 131.82C565.838 131.612 565.442 131.316 565.162 130.932C564.882 130.548 564.742 130.1 564.742 129.588C564.742 129.132 564.858 128.736 565.09 128.4C565.322 128.056 565.654 127.784 566.086 127.584C565.75 127.4 565.49 127.16 565.306 126.864C565.13 126.56 565.042 126.212 565.042 125.82C565.042 125.348 565.17 124.936 565.426 124.584C565.69 124.232 566.058 123.96 566.53 123.768C567.002 123.576 567.546 123.48 568.162 123.48C568.786 123.48 569.334 123.576 569.806 123.768C570.278 123.96 570.646 124.232 570.91 124.584C571.174 124.936 571.306 125.348 571.306 125.82C571.306 126.212 571.214 126.556 571.03 126.852C570.846 127.148 570.582 127.392 570.238 127.584ZM568.162 124.704C567.674 124.704 567.286 124.808 566.998 125.016C566.718 125.224 566.578 125.516 566.578 125.892C566.578 126.252 566.718 126.54 566.998 126.756C567.286 126.964 567.674 127.068 568.162 127.068C568.658 127.068 569.05 126.964 569.338 126.756C569.626 126.54 569.77 126.252 569.77 125.892C569.77 125.516 569.622 125.224 569.326 125.016C569.038 124.808 568.65 124.704 568.162 124.704ZM568.162 130.896C568.738 130.896 569.194 130.776 569.53 130.536C569.866 130.296 570.034 129.964 570.034 129.54C570.034 129.124 569.866 128.796 569.53 128.556C569.194 128.316 568.738 128.196 568.162 128.196C567.586 128.196 567.134 128.316 566.806 128.556C566.478 128.796 566.314 129.124 566.314 129.54C566.314 129.964 566.478 130.296 566.806 130.536C567.134 130.776 567.586 130.896 568.162 130.896ZM574.373 128.124C573.773 128.124 573.289 127.912 572.921 127.488C572.553 127.064 572.369 126.508 572.369 125.82C572.369 125.132 572.553 124.576 572.921 124.152C573.289 123.728 573.773 123.516 574.373 123.516C574.973 123.516 575.457 123.728 575.825 124.152C576.201 124.568 576.389 125.124 576.389 125.82C576.389 126.516 576.201 127.076 575.825 127.5C575.457 127.916 574.973 128.124 574.373 128.124ZM579.413 123.6H580.589L574.853 132H573.677L579.413 123.6ZM574.373 127.284C574.701 127.284 574.953 127.156 575.129 126.9C575.313 126.644 575.405 126.284 575.405 125.82C575.405 125.356 575.313 124.996 575.129 124.74C574.953 124.484 574.701 124.356 574.373 124.356C574.061 124.356 573.809 124.488 573.617 124.752C573.433 125.008 573.341 125.364 573.341 125.82C573.341 126.276 573.433 126.636 573.617 126.9C573.809 127.156 574.061 127.284 574.373 127.284ZM579.881 132.084C579.281 132.084 578.797 131.872 578.429 131.448C578.061 131.024 577.877 130.468 577.877 129.78C577.877 129.092 578.061 128.536 578.429 128.112C578.797 127.688 579.281 127.476 579.881 127.476C580.481 127.476 580.965 127.688 581.333 128.112C581.709 128.536 581.897 129.092 581.897 129.78C581.897 130.468 581.709 131.024 581.333 131.448C580.965 131.872 580.481 132.084 579.881 132.084ZM579.881 131.244C580.201 131.244 580.453 131.116 580.637 130.86C580.821 130.596 580.913 130.236 580.913 129.78C580.913 129.324 580.821 128.968 580.637 128.712C580.453 128.448 580.201 128.316 579.881 128.316C579.561 128.316 579.309 128.444 579.125 128.7C578.941 128.956 578.849 129.316 578.849 129.78C578.849 130.244 578.941 130.604 579.125 130.86C579.309 131.116 579.561 131.244 579.881 131.244Z" fill="black"/>
<path d="M606.156 271.852C607.34 271.852 608.216 272.084 608.784 272.548C609.352 273.004 609.636 273.628 609.636 274.42C609.636 274.924 609.512 275.38 609.264 275.788C609.016 276.196 608.644 276.52 608.148 276.76C607.652 277 607.04 277.12 606.312 277.12C605.712 277.12 605.132 277.036 604.572 276.868C604.012 276.692 603.54 276.452 603.156 276.148L603.816 274.936C604.128 275.192 604.5 275.396 604.932 275.548C605.372 275.692 605.824 275.764 606.288 275.764C606.84 275.764 607.272 275.652 607.584 275.428C607.904 275.196 608.064 274.88 608.064 274.48C608.064 274.048 607.892 273.724 607.548 273.508C607.212 273.284 606.632 273.172 605.808 273.172H603.78L604.212 268.6H609.144V269.908H605.532L605.352 271.852H606.156ZM616.561 275.68V277H610.369V275.956L613.705 272.788C614.081 272.428 614.333 272.116 614.461 271.852C614.597 271.58 614.665 271.312 614.665 271.048C614.665 270.656 614.533 270.356 614.269 270.148C614.005 269.94 613.617 269.836 613.105 269.836C612.249 269.836 611.593 270.128 611.137 270.712L610.045 269.872C610.373 269.432 610.813 269.092 611.365 268.852C611.925 268.604 612.549 268.48 613.237 268.48C614.149 268.48 614.877 268.696 615.421 269.128C615.965 269.56 616.237 270.148 616.237 270.892C616.237 271.348 616.141 271.776 615.949 272.176C615.757 272.576 615.389 273.032 614.845 273.544L612.601 275.68H616.561ZM619.451 273.124C618.851 273.124 618.367 272.912 617.999 272.488C617.631 272.064 617.447 271.508 617.447 270.82C617.447 270.132 617.631 269.576 617.999 269.152C618.367 268.728 618.851 268.516 619.451 268.516C620.051 268.516 620.535 268.728 620.903 269.152C621.279 269.568 621.467 270.124 621.467 270.82C621.467 271.516 621.279 272.076 620.903 272.5C620.535 272.916 620.051 273.124 619.451 273.124ZM624.491 268.6H625.667L619.931 277H618.755L624.491 268.6ZM619.451 272.284C619.779 272.284 620.031 272.156 620.207 271.9C620.391 271.644 620.483 271.284 620.483 270.82C620.483 270.356 620.391 269.996 620.207 269.74C620.031 269.484 619.779 269.356 619.451 269.356C619.139 269.356 618.887 269.488 618.695 269.752C618.511 270.008 618.419 270.364 618.419 270.82C618.419 271.276 618.511 271.636 618.695 271.9C618.887 272.156 619.139 272.284 619.451 272.284ZM624.959 277.084C624.359 277.084 623.875 276.872 623.507 276.448C623.139 276.024 622.955 275.468 622.955 274.78C622.955 274.092 623.139 273.536 623.507 273.112C623.875 272.688 624.359 272.476 624.959 272.476C625.559 272.476 626.043 272.688 626.411 273.112C626.787 273.536 626.975 274.092 626.975 274.78C626.975 275.468 626.787 276.024 626.411 276.448C626.043 276.872 625.559 277.084 624.959 277.084ZM624.959 276.244C625.279 276.244 625.531 276.116 625.715 275.86C625.899 275.596 625.991 275.236 625.991 274.78C625.991 274.324 625.899 273.968 625.715 273.712C625.531 273.448 625.279 273.316 624.959 273.316C624.639 273.316 624.387 273.444 624.203 273.7C624.019 273.956 623.927 274.316 623.927 274.78C623.927 275.244 624.019 275.604 624.203 275.86C624.387 276.116 624.639 276.244 624.959 276.244Z" fill="black"/>
<path d="M552.016 246.092H550.528V248H549.016V246.092H544.408V245.012L548.548 239.6H550.216L546.316 244.772H549.064V243.08H550.528V244.772H552.016V246.092ZM555.265 242.852C556.449 242.852 557.325 243.084 557.893 243.548C558.461 244.004 558.745 244.628 558.745 245.42C558.745 245.924 558.621 246.38 558.373 246.788C558.125 247.196 557.753 247.52 557.257 247.76C556.761 248 556.149 248.12 555.421 248.12C554.821 248.12 554.241 248.036 553.681 247.868C553.121 247.692 552.649 247.452 552.265 247.148L552.925 245.936C553.237 246.192 553.609 246.396 554.041 246.548C554.481 246.692 554.933 246.764 555.397 246.764C555.949 246.764 556.381 246.652 556.693 246.428C557.013 246.196 557.173 245.88 557.173 245.48C557.173 245.048 557.001 244.724 556.657 244.508C556.321 244.284 555.741 244.172 554.917 244.172H552.889L553.321 239.6H558.253V240.908H554.641L554.461 242.852H555.265ZM561.4 244.124C560.8 244.124 560.316 243.912 559.948 243.488C559.58 243.064 559.396 242.508 559.396 241.82C559.396 241.132 559.58 240.576 559.948 240.152C560.316 239.728 560.8 239.516 561.4 239.516C562 239.516 562.484 239.728 562.852 240.152C563.228 240.568 563.416 241.124 563.416 241.82C563.416 242.516 563.228 243.076 562.852 243.5C562.484 243.916 562 244.124 561.4 244.124ZM566.44 239.6H567.616L561.88 248H560.704L566.44 239.6ZM561.4 243.284C561.728 243.284 561.98 243.156 562.156 242.9C562.34 242.644 562.432 242.284 562.432 241.82C562.432 241.356 562.34 240.996 562.156 240.74C561.98 240.484 561.728 240.356 561.4 240.356C561.088 240.356 560.836 240.488 560.644 240.752C560.46 241.008 560.368 241.364 560.368 241.82C560.368 242.276 560.46 242.636 560.644 242.9C560.836 243.156 561.088 243.284 561.4 243.284ZM566.908 248.084C566.308 248.084 565.824 247.872 565.456 247.448C565.088 247.024 564.904 246.468 564.904 245.78C564.904 245.092 565.088 244.536 565.456 244.112C565.824 243.688 566.308 243.476 566.908 243.476C567.508 243.476 567.992 243.688 568.36 244.112C568.736 244.536 568.924 245.092 568.924 245.78C568.924 246.468 568.736 247.024 568.36 247.448C567.992 247.872 567.508 248.084 566.908 248.084ZM566.908 247.244C567.228 247.244 567.48 247.116 567.664 246.86C567.848 246.596 567.94 246.236 567.94 245.78C567.94 245.324 567.848 244.968 567.664 244.712C567.48 244.448 567.228 244.316 566.908 244.316C566.588 244.316 566.336 244.444 566.152 244.7C565.968 244.956 565.876 245.316 565.876 245.78C565.876 246.244 565.968 246.604 566.152 246.86C566.336 247.116 566.588 247.244 566.908 247.244Z" fill="black"/>
<path d="M757.864 210.6V211.644L754.6 219H752.932L756.088 211.92H752.788V213.348H751.336V210.6H757.864ZM761.85 210.6V219H760.29V211.908H758.514V210.6H761.85ZM765.388 215.124C764.788 215.124 764.304 214.912 763.936 214.488C763.568 214.064 763.384 213.508 763.384 212.82C763.384 212.132 763.568 211.576 763.936 211.152C764.304 210.728 764.788 210.516 765.388 210.516C765.988 210.516 766.472 210.728 766.84 211.152C767.216 211.568 767.404 212.124 767.404 212.82C767.404 213.516 767.216 214.076 766.84 214.5C766.472 214.916 765.988 215.124 765.388 215.124ZM770.428 210.6H771.604L765.868 219H764.692L770.428 210.6ZM765.388 214.284C765.716 214.284 765.968 214.156 766.144 213.9C766.328 213.644 766.42 213.284 766.42 212.82C766.42 212.356 766.328 211.996 766.144 211.74C765.968 211.484 765.716 211.356 765.388 211.356C765.076 211.356 764.824 211.488 764.632 211.752C764.448 212.008 764.356 212.364 764.356 212.82C764.356 213.276 764.448 213.636 764.632 213.9C764.824 214.156 765.076 214.284 765.388 214.284ZM770.896 219.084C770.296 219.084 769.812 218.872 769.444 218.448C769.076 218.024 768.892 217.468 768.892 216.78C768.892 216.092 769.076 215.536 769.444 215.112C769.812 214.688 770.296 214.476 770.896 214.476C771.496 214.476 771.98 214.688 772.348 215.112C772.724 215.536 772.912 216.092 772.912 216.78C772.912 217.468 772.724 218.024 772.348 218.448C771.98 218.872 771.496 219.084 770.896 219.084ZM770.896 218.244C771.216 218.244 771.468 218.116 771.652 217.86C771.836 217.596 771.928 217.236 771.928 216.78C771.928 216.324 771.836 215.968 771.652 215.712C771.468 215.448 771.216 215.316 770.896 215.316C770.576 215.316 770.324 215.444 770.14 215.7C769.956 215.956 769.864 216.316 769.864 216.78C769.864 217.244 769.956 217.604 770.14 217.86C770.324 218.116 770.576 218.244 770.896 218.244Z" fill="black"/>
<path d="M652.156 184.852C653.34 184.852 654.216 185.084 654.784 185.548C655.352 186.004 655.636 186.628 655.636 187.42C655.636 187.924 655.512 188.38 655.264 188.788C655.016 189.196 654.644 189.52 654.148 189.76C653.652 190 653.04 190.12 652.312 190.12C651.712 190.12 651.132 190.036 650.572 189.868C650.012 189.692 649.54 189.452 649.156 189.148L649.816 187.936C650.128 188.192 650.5 188.396 650.932 188.548C651.372 188.692 651.824 188.764 652.288 188.764C652.84 188.764 653.272 188.652 653.584 188.428C653.904 188.196 654.064 187.88 654.064 187.48C654.064 187.048 653.892 186.724 653.548 186.508C653.212 186.284 652.632 186.172 651.808 186.172H649.78L650.212 181.6H655.144V182.908H651.532L651.352 184.852H652.156ZM661.984 185.584C662.424 185.784 662.76 186.056 662.992 186.4C663.232 186.736 663.352 187.132 663.352 187.588C663.352 188.1 663.208 188.548 662.92 188.932C662.64 189.316 662.24 189.612 661.72 189.82C661.2 190.02 660.596 190.12 659.908 190.12C659.22 190.12 658.616 190.02 658.096 189.82C657.584 189.612 657.188 189.316 656.908 188.932C656.628 188.548 656.488 188.1 656.488 187.588C656.488 187.132 656.604 186.736 656.836 186.4C657.068 186.056 657.4 185.784 657.832 185.584C657.496 185.4 657.236 185.16 657.052 184.864C656.876 184.56 656.788 184.212 656.788 183.82C656.788 183.348 656.916 182.936 657.172 182.584C657.436 182.232 657.804 181.96 658.276 181.768C658.748 181.576 659.292 181.48 659.908 181.48C660.532 181.48 661.08 181.576 661.552 181.768C662.024 181.96 662.392 182.232 662.656 182.584C662.92 182.936 663.052 183.348 663.052 183.82C663.052 184.212 662.96 184.556 662.776 184.852C662.592 185.148 662.328 185.392 661.984 185.584ZM659.908 182.704C659.42 182.704 659.032 182.808 658.744 183.016C658.464 183.224 658.324 183.516 658.324 183.892C658.324 184.252 658.464 184.54 658.744 184.756C659.032 184.964 659.42 185.068 659.908 185.068C660.404 185.068 660.796 184.964 661.084 184.756C661.372 184.54 661.516 184.252 661.516 183.892C661.516 183.516 661.368 183.224 661.072 183.016C660.784 182.808 660.396 182.704 659.908 182.704ZM659.908 188.896C660.484 188.896 660.94 188.776 661.276 188.536C661.612 188.296 661.78 187.964 661.78 187.54C661.78 187.124 661.612 186.796 661.276 186.556C660.94 186.316 660.484 186.196 659.908 186.196C659.332 186.196 658.88 186.316 658.552 186.556C658.224 186.796 658.06 187.124 658.06 187.54C658.06 187.964 658.224 188.296 658.552 188.536C658.88 188.776 659.332 188.896 659.908 188.896ZM666.119 186.124C665.519 186.124 665.035 185.912 664.667 185.488C664.299 185.064 664.115 184.508 664.115 183.82C664.115 183.132 664.299 182.576 664.667 182.152C665.035 181.728 665.519 181.516 666.119 181.516C666.719 181.516 667.203 181.728 667.571 182.152C667.947 182.568 668.135 183.124 668.135 183.82C668.135 184.516 667.947 185.076 667.571 185.5C667.203 185.916 666.719 186.124 666.119 186.124ZM671.159 181.6H672.335L666.599 190H665.423L671.159 181.6ZM666.119 185.284C666.447 185.284 666.699 185.156 666.875 184.9C667.059 184.644 667.151 184.284 667.151 183.82C667.151 183.356 667.059 182.996 666.875 182.74C666.699 182.484 666.447 182.356 666.119 182.356C665.807 182.356 665.555 182.488 665.363 182.752C665.179 183.008 665.087 183.364 665.087 183.82C665.087 184.276 665.179 184.636 665.363 184.9C665.555 185.156 665.807 185.284 666.119 185.284ZM671.627 190.084C671.027 190.084 670.543 189.872 670.175 189.448C669.807 189.024 669.623 188.468 669.623 187.78C669.623 187.092 669.807 186.536 670.175 186.112C670.543 185.688 671.027 185.476 671.627 185.476C672.227 185.476 672.711 185.688 673.079 186.112C673.455 186.536 673.643 187.092 673.643 187.78C673.643 188.468 673.455 189.024 673.079 189.448C672.711 189.872 672.227 190.084 671.627 190.084ZM671.627 189.244C671.947 189.244 672.199 189.116 672.383 188.86C672.567 188.596 672.659 188.236 672.659 187.78C672.659 187.324 672.567 186.968 672.383 186.712C672.199 186.448 671.947 186.316 671.627 186.316C671.307 186.316 671.055 186.444 670.871 186.7C670.687 186.956 670.595 187.316 670.595 187.78C670.595 188.244 670.687 188.604 670.871 188.86C671.055 189.116 671.307 189.244 671.627 189.244Z" fill="black"/>
<path d="M769.864 152.6V153.644L766.6 161H764.932L768.088 153.92H764.788V155.348H763.336V152.6H769.864ZM777.532 159.092H776.044V161H774.532V159.092H769.924V158.012L774.064 152.6H775.732L771.832 157.772H774.58V156.08H776.044V157.772H777.532V159.092ZM779.697 157.124C779.097 157.124 778.613 156.912 778.245 156.488C777.877 156.064 777.693 155.508 777.693 154.82C777.693 154.132 777.877 153.576 778.245 153.152C778.613 152.728 779.097 152.516 779.697 152.516C780.297 152.516 780.781 152.728 781.149 153.152C781.525 153.568 781.713 154.124 781.713 154.82C781.713 155.516 781.525 156.076 781.149 156.5C780.781 156.916 780.297 157.124 779.697 157.124ZM784.737 152.6H785.913L780.177 161H779.001L784.737 152.6ZM779.697 156.284C780.025 156.284 780.277 156.156 780.453 155.9C780.637 155.644 780.729 155.284 780.729 154.82C780.729 154.356 780.637 153.996 780.453 153.74C780.277 153.484 780.025 153.356 779.697 153.356C779.385 153.356 779.133 153.488 778.941 153.752C778.757 154.008 778.665 154.364 778.665 154.82C778.665 155.276 778.757 155.636 778.941 155.9C779.133 156.156 779.385 156.284 779.697 156.284ZM785.205 161.084C784.605 161.084 784.121 160.872 783.753 160.448C783.385 160.024 783.201 159.468 783.201 158.78C783.201 158.092 783.385 157.536 783.753 157.112C784.121 156.688 784.605 156.476 785.205 156.476C785.805 156.476 786.289 156.688 786.657 157.112C787.033 157.536 787.221 158.092 787.221 158.78C787.221 159.468 787.033 160.024 786.657 160.448C786.289 160.872 785.805 161.084 785.205 161.084ZM785.205 160.244C785.525 160.244 785.777 160.116 785.961 159.86C786.145 159.596 786.237 159.236 786.237 158.78C786.237 158.324 786.145 157.968 785.961 157.712C785.777 157.448 785.525 157.316 785.205 157.316C784.885 157.316 784.633 157.444 784.449 157.7C784.265 157.956 784.173 158.316 784.173 158.78C784.173 159.244 784.265 159.604 784.449 159.86C784.633 160.116 784.885 160.244 785.205 160.244Z" fill="black"/>
<path d="M435.104 69.068C435.88 69.164 436.472 69.428 436.88 69.86C437.288 70.292 437.492 70.832 437.492 71.48C437.492 71.968 437.368 72.412 437.12 72.812C436.872 73.212 436.496 73.532 435.992 73.772C435.496 74.004 434.888 74.12 434.168 74.12C433.568 74.12 432.988 74.036 432.428 73.868C431.876 73.692 431.404 73.452 431.012 73.148L431.684 71.936C431.988 72.192 432.356 72.396 432.788 72.548C433.228 72.692 433.68 72.764 434.144 72.764C434.696 72.764 435.128 72.652 435.44 72.428C435.76 72.196 435.92 71.884 435.92 71.492C435.92 71.1 435.768 70.796 435.464 70.58C435.168 70.356 434.712 70.244 434.096 70.244H433.328V69.176L435.236 66.908H431.42V65.6H437.144V66.644L435.104 69.068ZM444.538 72.68V74H438.346V72.956L441.682 69.788C442.058 69.428 442.31 69.116 442.438 68.852C442.574 68.58 442.642 68.312 442.642 68.048C442.642 67.656 442.51 67.356 442.246 67.148C441.982 66.94 441.594 66.836 441.082 66.836C440.226 66.836 439.57 67.128 439.114 67.712L438.022 66.872C438.35 66.432 438.79 66.092 439.342 65.852C439.902 65.604 440.526 65.48 441.214 65.48C442.126 65.48 442.854 65.696 443.398 66.128C443.942 66.56 444.214 67.148 444.214 67.892C444.214 68.348 444.118 68.776 443.926 69.176C443.734 69.576 443.366 70.032 442.822 70.544L440.578 72.68H444.538ZM447.427 70.124C446.827 70.124 446.343 69.912 445.975 69.488C445.607 69.064 445.423 68.508 445.423 67.82C445.423 67.132 445.607 66.576 445.975 66.152C446.343 65.728 446.827 65.516 447.427 65.516C448.027 65.516 448.511 65.728 448.879 66.152C449.255 66.568 449.443 67.124 449.443 67.82C449.443 68.516 449.255 69.076 448.879 69.5C448.511 69.916 448.027 70.124 447.427 70.124ZM452.467 65.6H453.643L447.907 74H446.731L452.467 65.6ZM447.427 69.284C447.755 69.284 448.007 69.156 448.183 68.9C448.367 68.644 448.459 68.284 448.459 67.82C448.459 67.356 448.367 66.996 448.183 66.74C448.007 66.484 447.755 66.356 447.427 66.356C447.115 66.356 446.863 66.488 446.671 66.752C446.487 67.008 446.395 67.364 446.395 67.82C446.395 68.276 446.487 68.636 446.671 68.9C446.863 69.156 447.115 69.284 447.427 69.284ZM452.935 74.084C452.335 74.084 451.851 73.872 451.483 73.448C451.115 73.024 450.931 72.468 450.931 71.78C450.931 71.092 451.115 70.536 451.483 70.112C451.851 69.688 452.335 69.476 452.935 69.476C453.535 69.476 454.019 69.688 454.387 70.112C454.763 70.536 454.951 71.092 454.951 71.78C454.951 72.468 454.763 73.024 454.387 73.448C454.019 73.872 453.535 74.084 452.935 74.084ZM452.935 73.244C453.255 73.244 453.507 73.116 453.691 72.86C453.875 72.596 453.967 72.236 453.967 71.78C453.967 71.324 453.875 70.968 453.691 70.712C453.507 70.448 453.255 70.316 452.935 70.316C452.615 70.316 452.363 70.444 452.179 70.7C451.995 70.956 451.903 71.316 451.903 71.78C451.903 72.244 451.995 72.604 452.179 72.86C452.363 73.116 452.615 73.244 452.935 73.244Z" fill="black"/>
</svg>
