<svg width="307" height="532" viewBox="0 0 307 532" fill="none" xmlns="http://www.w3.org/2000/svg">
<rect opacity="0.6" x="17" y="382" width="306" height="13" transform="rotate(-90 17 382)" fill="#E06B65"/>
<rect opacity="0.6" x="162" y="382" width="365" height="13" transform="rotate(-90 162 382)" fill="#FEEB96"/>
<rect opacity="0.6" x="46" y="382" width="156" height="13" transform="rotate(-90 46 382)" fill="#FEEB96"/>
<rect opacity="0.6" x="191" y="382" width="293" height="13" transform="rotate(-90 191 382)" fill="#99CC99"/>
<rect opacity="0.6" x="75" y="382" width="156" height="13" transform="rotate(-90 75 382)" fill="#99CC99"/>
<rect opacity="0.6" x="220" y="382" width="358" height="13" transform="rotate(-90 220 382)" fill="#99CCFF"/>
<rect opacity="0.6" x="104" y="382" width="77" height="13" transform="rotate(-90 104 382)" fill="#99CCFF"/>
<rect opacity="0.6" x="249" y="382" width="228" height="13" transform="rotate(-90 249 382)" fill="#E06B65"/>
<rect opacity="0.6" x="133" y="382" width="236" height="13" transform="rotate(-90 133 382)" fill="#E06B65"/>
<rect opacity="0.6" x="278" y="382" width="264" height="13" transform="rotate(-90 278 382)" fill="#FEEB96"/>
<path d="M17.2 526.652C17.2 525.803 17.34 525.065 17.62 524.44C17.9 523.805 18.3013 523.32 18.824 522.984C19.3467 522.648 19.9673 522.48 20.686 522.48C21.3953 522.48 22.016 522.648 22.548 522.984C23.0707 523.32 23.472 523.805 23.752 524.44C24.032 525.065 24.172 525.803 24.172 526.652V528.864H27V530.684H17.2V526.652ZM22.632 526.736C22.632 525.943 22.464 525.341 22.128 524.93C21.792 524.519 21.3113 524.314 20.686 524.314C20.0607 524.314 19.58 524.519 19.244 524.93C18.908 525.341 18.74 525.943 18.74 526.736V528.864H22.632V526.736ZM27 514.251L24.13 516.253C24.1393 516.337 24.144 516.463 24.144 516.631V518.843H27V520.663H17.2V516.631C17.2 515.781 17.34 515.044 17.62 514.419C17.9 513.784 18.3013 513.299 18.824 512.963C19.3467 512.627 19.9673 512.459 20.686 512.459C21.4233 512.459 22.058 512.641 22.59 513.005C23.122 513.359 23.5187 513.873 23.78 514.545L27 512.291V514.251ZM20.686 514.293C20.0607 514.293 19.58 514.498 19.244 514.909C18.908 515.319 18.74 515.921 18.74 516.715V518.843H22.646V516.715C22.646 515.921 22.478 515.319 22.142 514.909C21.7967 514.498 21.3113 514.293 20.686 514.293ZM27.14 505.844C27.14 506.843 26.9253 507.744 26.496 508.546C26.0573 509.349 25.4553 509.979 24.69 510.436C23.9153 510.894 23.052 511.122 22.1 511.122C21.148 511.122 20.2893 510.894 19.524 510.436C18.7493 509.979 18.1473 509.349 17.718 508.546C17.2793 507.744 17.06 506.843 17.06 505.844C17.06 504.846 17.2793 503.945 17.718 503.142C18.1473 502.34 18.7447 501.71 19.51 501.252C20.2753 500.795 21.1387 500.566 22.1 500.566C23.0613 500.566 23.9247 500.795 24.69 501.252C25.4553 501.71 26.0573 502.34 26.496 503.142C26.9253 503.945 27.14 504.846 27.14 505.844ZM25.544 505.844C25.544 505.191 25.3993 504.603 25.11 504.08C24.8113 503.558 24.4007 503.147 23.878 502.848C23.346 502.55 22.7533 502.4 22.1 502.4C21.4467 502.4 20.8587 502.55 20.336 502.848C19.804 503.147 19.3933 503.558 19.104 504.08C18.8053 504.603 18.656 505.191 18.656 505.844C18.656 506.498 18.8053 507.086 19.104 507.608C19.3933 508.131 19.804 508.542 20.336 508.84C20.8587 509.139 21.4467 509.288 22.1 509.288C22.7533 509.288 23.346 509.139 23.878 508.84C24.4007 508.542 24.8113 508.131 25.11 507.608C25.3993 507.086 25.544 506.498 25.544 505.844ZM21.988 491.945V490.223H25.894C26.2953 490.727 26.6033 491.315 26.818 491.987C27.0327 492.659 27.14 493.35 27.14 494.059C27.14 495.058 26.9253 495.958 26.496 496.761C26.0573 497.564 25.4553 498.194 24.69 498.651C23.9247 499.108 23.0613 499.337 22.1 499.337C21.1387 499.337 20.2753 499.108 19.51 498.651C18.7447 498.194 18.1473 497.564 17.718 496.761C17.2793 495.949 17.06 495.039 17.06 494.031C17.06 493.21 17.1953 492.463 17.466 491.791C17.7367 491.119 18.1333 490.554 18.656 490.097L19.776 491.245C19.0293 491.992 18.656 492.892 18.656 493.947C18.656 494.638 18.8007 495.254 19.09 495.795C19.3793 496.327 19.7853 496.747 20.308 497.055C20.8307 497.354 21.428 497.503 22.1 497.503C22.7533 497.503 23.3413 497.354 23.864 497.055C24.3867 496.747 24.7973 496.327 25.096 495.795C25.3947 495.254 25.544 494.642 25.544 493.961C25.544 493.196 25.376 492.524 25.04 491.945H21.988ZM27 481.411L24.13 483.413C24.1393 483.497 24.144 483.623 24.144 483.791V486.003H27V487.823H17.2V483.791C17.2 482.941 17.34 482.204 17.62 481.579C17.9 480.944 18.3013 480.459 18.824 480.123C19.3467 479.787 19.9673 479.619 20.686 479.619C21.4233 479.619 22.058 479.801 22.59 480.165C23.122 480.519 23.5187 481.033 23.78 481.705L27 479.451V481.411ZM20.686 481.453C20.0607 481.453 19.58 481.658 19.244 482.069C18.908 482.479 18.74 483.081 18.74 483.875V486.003H22.646V483.875C22.646 483.081 22.478 482.479 22.142 482.069C21.7967 481.658 21.3113 481.453 20.686 481.453ZM24.732 471.226V476.126L27 477.092V478.968L17.2 474.558V472.766L27 468.342V470.246L24.732 471.226ZM23.304 471.828L19.02 473.676L23.304 475.51V471.828ZM27 458.094L20.504 458.108L25.88 461.328V462.14L20.588 465.36H27V467.096H17.2V465.598L23.696 461.706L17.2 457.884V456.386L27 456.372V458.094ZM27 444.723L20.504 444.737L25.88 447.957V448.769L20.588 451.989H27V453.725H17.2V452.227L23.696 448.335L17.2 444.513V443.015L27 443.001V444.723ZM17.2 440.354V438.534H27V440.354H17.2ZM17.2 427.175H27V428.673L20.364 434.077H27V435.883H17.2V434.385L23.836 428.981H17.2V427.175ZM21.988 417.857V416.135H25.894C26.2953 416.639 26.6033 417.227 26.818 417.899C27.0327 418.571 27.14 419.262 27.14 419.971C27.14 420.97 26.9253 421.871 26.496 422.673C26.0573 423.476 25.4553 424.106 24.69 424.563C23.9247 425.021 23.0613 425.249 22.1 425.249C21.1387 425.249 20.2753 425.021 19.51 424.563C18.7447 424.106 18.1473 423.476 17.718 422.673C17.2793 421.861 17.06 420.951 17.06 419.943C17.06 419.122 17.1953 418.375 17.466 417.703C17.7367 417.031 18.1333 416.467 18.656 416.009L19.776 417.157C19.0293 417.904 18.656 418.805 18.656 419.859C18.656 420.55 18.8007 421.166 19.09 421.707C19.3793 422.239 19.7853 422.659 20.308 422.967C20.8307 423.266 21.428 423.415 22.1 423.415C22.7533 423.415 23.3413 423.266 23.864 422.967C24.3867 422.659 24.7973 422.239 25.096 421.707C25.3947 421.166 25.544 420.555 25.544 419.873C25.544 419.108 25.376 418.436 25.04 417.857H21.988Z" fill="#202020"/>
<path d="M3 217.18C3 216.573 3.1 216.047 3.3 215.6C3.5 215.147 3.78667 214.8 4.16 214.56C4.53333 214.32 4.97667 214.2 5.49 214.2C5.99667 214.2 6.44 214.32 6.82 214.56C7.19333 214.8 7.48 215.147 7.68 215.6C7.88 216.047 7.98 216.573 7.98 217.18V218.76H10V220.06H3L3 217.18ZM6.88 217.24C6.88 216.673 6.76 216.243 6.52 215.95C6.28 215.657 5.93667 215.51 5.49 215.51C5.04333 215.51 4.7 215.657 4.46 215.95C4.22 216.243 4.1 216.673 4.1 217.24V218.76H6.88V217.24ZM8.91 207.652H10V212.902H3L3 207.792H4.09V211.602H5.91V208.222H6.98V211.602H8.91V207.652ZM10 201.623L7.95 203.053C7.95667 203.113 7.96 203.203 7.96 203.323V204.903H10V206.203H3V203.323C3 202.716 3.1 202.189 3.3 201.743C3.5 201.289 3.78667 200.943 4.16 200.703C4.53333 200.463 4.97667 200.343 5.49 200.343C6.01667 200.343 6.47 200.473 6.85 200.733C7.23 200.986 7.51333 201.353 7.7 201.833L10 200.223V201.623ZM5.49 201.653C5.04333 201.653 4.7 201.799 4.46 202.093C4.22 202.386 4.1 202.816 4.1 203.383V204.903H6.89V203.383C6.89 202.816 6.77 202.386 6.53 202.093C6.28333 201.799 5.93667 201.653 5.49 201.653ZM10.1 195.648C10.1 196.355 9.94667 196.995 9.64 197.568C9.32667 198.135 8.89667 198.581 8.35 198.908C7.80333 199.228 7.18667 199.388 6.5 199.388C5.81333 199.388 5.19667 199.225 4.65 198.898C4.10333 198.571 3.67667 198.125 3.37 197.558C3.05667 196.985 2.9 196.345 2.9 195.638C2.9 195.065 3 194.541 3.2 194.068C3.4 193.595 3.69 193.195 4.07 192.868L4.86 193.708C4.31333 194.215 4.04 194.838 4.04 195.578C4.04 196.058 4.14667 196.488 4.36 196.868C4.56667 197.248 4.85667 197.545 5.23 197.758C5.60333 197.971 6.02667 198.078 6.5 198.078C6.97333 198.078 7.39667 197.971 7.77 197.758C8.14333 197.545 8.43667 197.248 8.65 196.868C8.85667 196.488 8.96 196.058 8.96 195.578C8.96 194.838 8.68333 194.215 8.13 193.708L8.93 192.868C9.31 193.195 9.6 193.598 9.8 194.078C10 194.551 10.1 195.075 10.1 195.648ZM8.91 186.372H10V191.622H3L3 186.512H4.09V190.322H5.91V186.942H6.98V190.322H8.91V186.372ZM3 178.703H10V179.773L5.26 183.633H10V184.923H3V183.853L7.74 179.993H3V178.703ZM4.1 175.408V177.728H3L3 171.788H4.1V174.108H10V175.408H4.1ZM8.38 166.624V170.124L10 170.814V172.154L3 169.004V167.724L10 164.564V165.924L8.38 166.624ZM7.36 167.054L4.3 168.374L7.36 169.684V167.054ZM6.42 158.991V157.761H9.21C9.49667 158.121 9.71667 158.541 9.87 159.021C10.0233 159.501 10.1 159.994 10.1 160.501C10.1 161.214 9.94667 161.858 9.64 162.431C9.32667 163.004 8.89667 163.454 8.35 163.781C7.80333 164.108 7.18667 164.271 6.5 164.271C5.81333 164.271 5.19667 164.108 4.65 163.781C4.10333 163.454 3.67667 163.004 3.37 162.431C3.05667 161.851 2.9 161.201 2.9 160.481C2.9 159.894 2.99667 159.361 3.19 158.881C3.38333 158.401 3.66667 157.998 4.04 157.671L4.84 158.491C4.30667 159.024 4.04 159.668 4.04 160.421C4.04 160.914 4.14333 161.354 4.35 161.741C4.55667 162.121 4.84667 162.421 5.22 162.641C5.59333 162.854 6.02 162.961 6.5 162.961C6.96667 162.961 7.38667 162.854 7.76 162.641C8.13333 162.421 8.42667 162.121 8.64 161.741C8.85333 161.354 8.96 160.918 8.96 160.431C8.96 159.884 8.84 159.404 8.6 158.991H6.42ZM8.91 150.796H10V156.046H3L3 150.936H4.09V154.746H5.91V151.366H6.98V154.746H8.91V150.796ZM10.1 143.313C10.1 144.027 9.94667 144.67 9.64 145.243C9.32667 145.817 8.89667 146.267 8.35 146.593C7.79667 146.92 7.18 147.083 6.5 147.083C5.82 147.083 5.20667 146.92 4.66 146.593C4.10667 146.267 3.67667 145.817 3.37 145.243C3.05667 144.67 2.9 144.027 2.9 143.313C2.9 142.6 3.05667 141.957 3.37 141.383C3.67667 140.81 4.10333 140.36 4.65 140.033C5.19667 139.707 5.81333 139.543 6.5 139.543C7.18667 139.543 7.80333 139.707 8.35 140.033C8.89667 140.36 9.32667 140.81 9.64 141.383C9.94667 141.957 10.1 142.6 10.1 143.313ZM8.96 143.313C8.96 142.847 8.85667 142.427 8.65 142.053C8.43667 141.68 8.14333 141.387 7.77 141.173C7.39 140.96 6.96667 140.853 6.5 140.853C6.03333 140.853 5.61333 140.96 5.24 141.173C4.86 141.387 4.56667 141.68 4.36 142.053C4.14667 142.427 4.04 142.847 4.04 143.313C4.04 143.78 4.14667 144.2 4.36 144.573C4.56667 144.947 4.86 145.24 5.24 145.453C5.61333 145.667 6.03333 145.773 6.5 145.773C6.96667 145.773 7.39 145.667 7.77 145.453C8.14333 145.24 8.43667 144.947 8.65 144.573C8.85667 144.2 8.96 143.78 8.96 143.313ZM4.09 136.865H6.22V133.485H7.32V136.865H10V138.165H3L3 133.055H4.09V136.865ZM10 122.605L5.36 122.615L9.2 124.915V125.495L5.42 127.795H10V129.035H3V127.965L7.64 125.185L3 122.455V121.385L10 121.375V122.605ZM8.91 114.234H10L10 119.484H3L3 114.374H4.09V118.184H5.91V114.804H6.98V118.184H8.91V114.234ZM10 106.355L5.36 106.365L9.2 108.665V109.245L5.42 111.545H10V112.785H3V111.715L7.64 108.935L3 106.205V105.135L10 105.125V106.355ZM6.36 98.2738C6.48667 97.8872 6.7 97.5805 7 97.3538C7.29333 97.1272 7.66 97.0138 8.1 97.0138C8.70667 97.0138 9.17667 97.2472 9.51 97.7138C9.83667 98.1805 10 98.8605 10 99.7538V103.234H3L3 99.9538C3 99.1272 3.16333 98.4905 3.49 98.0438C3.81 97.5972 4.25333 97.3738 4.82 97.3738C5.16667 97.3738 5.47333 97.4538 5.74 97.6138C6.00667 97.7738 6.21333 97.9938 6.36 98.2738ZM4.02 101.934H5.95V100.094C5.95 99.6405 5.87 99.2938 5.71 99.0538C5.54333 98.8072 5.30333 98.6838 4.99 98.6838C4.67 98.6838 4.43 98.8072 4.27 99.0538C4.10333 99.2938 4.02 99.6405 4.02 100.094V101.934ZM8.98 99.8338C8.98 98.8272 8.64333 98.3238 7.97 98.3238C7.29667 98.3238 6.96 98.8272 6.96 99.8338V101.934H8.98V99.8338ZM8.91 90.3764H10L10 95.6264H3L3 90.5164H4.09V94.3264H5.91V90.9464H6.98V94.3264H8.91L8.91 90.3764ZM10 84.3472L7.95 85.7772C7.95667 85.8372 7.96 85.9272 7.96 86.0472V87.6272H10V88.9272H3L3 86.0472C3 85.4405 3.1 84.9139 3.3 84.4672C3.5 84.0139 3.78667 83.6672 4.16 83.4272C4.53333 83.1872 4.97667 83.0672 5.49 83.0672C6.01667 83.0672 6.47 83.1972 6.85 83.4572C7.23 83.7105 7.51333 84.0772 7.7 84.5572L10 82.9472V84.3472ZM5.49 84.3772C5.04333 84.3772 4.7 84.5239 4.46 84.8172C4.22 85.1105 4.1 85.5405 4.1 86.1072V87.6272H6.89V86.1072C6.89 85.5405 6.77 85.1105 6.53 84.8172C6.28333 84.5239 5.93667 84.3772 5.49 84.3772ZM10.1 79.4427C10.1 79.9827 10.0233 80.5061 9.87 81.0127C9.71667 81.5127 9.51333 81.9094 9.26 82.2027L8.25 81.7527C8.47667 81.4661 8.66333 81.1161 8.81 80.7027C8.95 80.2827 9.02 79.8627 9.02 79.4427C9.02 78.9227 8.93667 78.5361 8.77 78.2827C8.60333 78.0227 8.38333 77.8927 8.11 77.8927C7.91 77.8927 7.74667 77.9661 7.62 78.1127C7.48667 78.2527 7.38333 78.4327 7.31 78.6527C7.23667 78.8727 7.15333 79.1727 7.06 79.5527C6.93333 80.0861 6.80667 80.5194 6.68 80.8527C6.55333 81.1794 6.35667 81.4627 6.09 81.7027C5.81667 81.9361 5.45 82.0527 4.99 82.0527C4.60333 82.0527 4.25333 81.9494 3.94 81.7427C3.62 81.5294 3.36667 81.2127 3.18 80.7927C2.99333 80.3661 2.9 79.8461 2.9 79.2327C2.9 78.8061 2.95333 78.3861 3.06 77.9727C3.16667 77.5594 3.32 77.2027 3.52 76.9027L4.53 77.3127C4.35 77.6194 4.21333 77.9394 4.12 78.2727C4.02667 78.6061 3.98 78.9294 3.98 79.2427C3.98 79.7561 4.06667 80.1394 4.24 80.3927C4.41333 80.6394 4.64333 80.7627 4.93 80.7627C5.13 80.7627 5.29333 80.6927 5.42 80.5527C5.54667 80.4061 5.64667 80.2227 5.72 80.0027C5.79333 79.7827 5.87667 79.4827 5.97 79.1027C6.09 78.5827 6.21667 78.1561 6.35 77.8227C6.47667 77.4894 6.67333 77.2061 6.94 76.9727C7.20667 76.7327 7.56667 76.6127 8.02 76.6127C8.40667 76.6127 8.75667 76.7194 9.07 76.9327C9.38333 77.1394 9.63333 77.4561 9.82 77.8827C10.0067 78.3094 10.1 78.8294 10.1 79.4427Z" fill="#202020"/>
<path d="M85 521.682L78.504 521.696L83.88 524.916V525.728L78.588 528.948H85V530.684H75.2V529.186L81.696 525.294L75.2 521.472V519.974L85 519.96V521.682ZM85.14 512.735C85.14 513.734 84.9253 514.634 84.496 515.437C84.0573 516.24 83.4553 516.87 82.69 517.327C81.9153 517.784 81.052 518.013 80.1 518.013C79.148 518.013 78.2893 517.784 77.524 517.327C76.7493 516.87 76.1473 516.24 75.718 515.437C75.2793 514.634 75.06 513.734 75.06 512.735C75.06 511.736 75.2793 510.836 75.718 510.033C76.1473 509.23 76.7447 508.6 77.51 508.143C78.2753 507.686 79.1387 507.457 80.1 507.457C81.0613 507.457 81.9247 507.686 82.69 508.143C83.4553 508.6 84.0573 509.23 84.496 510.033C84.9253 510.836 85.14 511.736 85.14 512.735ZM83.544 512.735C83.544 512.082 83.3993 511.494 83.11 510.971C82.8113 510.448 82.4007 510.038 81.878 509.739C81.346 509.44 80.7533 509.291 80.1 509.291C79.4467 509.291 78.8587 509.44 78.336 509.739C77.804 510.038 77.3933 510.448 77.104 510.971C76.8053 511.494 76.656 512.082 76.656 512.735C76.656 513.388 76.8053 513.976 77.104 514.499C77.3933 515.022 77.804 515.432 78.336 515.731C78.8587 516.03 79.4467 516.179 80.1 516.179C80.7533 516.179 81.346 516.03 81.878 515.731C82.4007 515.432 82.8113 515.022 83.11 514.499C83.3993 513.976 83.544 513.388 83.544 512.735ZM79.904 498.584C80.0813 498.042 80.38 497.613 80.8 497.296C81.2107 496.978 81.724 496.82 82.34 496.82C83.1893 496.82 83.8473 497.146 84.314 497.8C84.7713 498.453 85 499.405 85 500.656V505.528H75.2V500.936C75.2 499.778 75.4287 498.887 75.886 498.262C76.334 497.636 76.9547 497.324 77.748 497.324C78.2333 497.324 78.6627 497.436 79.036 497.66C79.4093 497.884 79.6987 498.192 79.904 498.584ZM76.628 503.708H79.33V501.132C79.33 500.497 79.218 500.012 78.994 499.676C78.7607 499.33 78.4247 499.158 77.986 499.158C77.538 499.158 77.202 499.33 76.978 499.676C76.7447 500.012 76.628 500.497 76.628 501.132V503.708ZM83.572 500.768C83.572 499.358 83.1007 498.654 82.158 498.654C81.2153 498.654 80.744 499.358 80.744 500.768V503.708H83.572V500.768ZM75.2 494.877V493.057H85V494.877H75.2ZM75.2 490.407V488.587H83.46V483.463H85V490.407H75.2ZM83.474 474.676H85V482.026H75.2V474.872H76.726V480.206H79.274V475.474H80.772V480.206H83.474V474.676ZM75.2 468.778V464.494C75.2 463.448 75.4053 462.52 75.816 461.708C76.2173 460.896 76.7913 460.266 77.538 459.818C78.2753 459.37 79.1293 459.146 80.1 459.146C81.0707 459.146 81.9293 459.37 82.676 459.818C83.4133 460.266 83.9873 460.896 84.398 461.708C84.7993 462.52 85 463.448 85 464.494V468.778H75.2ZM83.46 464.578C83.46 463.859 83.3247 463.229 83.054 462.688C82.774 462.137 82.382 461.717 81.878 461.428C81.3647 461.129 80.772 460.98 80.1 460.98C79.428 460.98 78.84 461.129 78.336 461.428C77.8227 461.717 77.4307 462.137 77.16 462.688C76.88 463.229 76.74 463.859 76.74 464.578V466.958H83.46V464.578ZM83.474 449.861H85V457.211H75.2V450.057H76.726V455.391H79.274V450.659H80.772V455.391H83.474V449.861ZM75.2 439.009L85 443.279V445.071L75.2 449.355V447.381L82.76 444.119L75.2 440.829V439.009Z" fill="#202020"/>
<path d="M46.2 516.362L56 519.61V521.542L48.748 523.964L56 526.428V528.374L46.2 531.622V529.732L53.648 527.296L46.2 524.762V523.082L53.69 520.604L46.2 518.098V516.362ZM54.474 507.529H56V514.879H46.2V507.725H47.726V513.059H50.274V508.327H51.772V513.059H54.474V507.529ZM50.904 498.556C51.0813 498.015 51.38 497.586 51.8 497.268C52.2107 496.951 52.724 496.792 53.34 496.792C54.1893 496.792 54.8473 497.119 55.314 497.772C55.7713 498.426 56 499.378 56 500.628V505.5H46.2V500.908C46.2 499.751 46.4287 498.86 46.886 498.234C47.334 497.609 47.9547 497.296 48.748 497.296C49.2333 497.296 49.6627 497.408 50.036 497.632C50.4093 497.856 50.6987 498.164 50.904 498.556ZM47.628 503.68H50.33V501.104C50.33 500.47 50.218 499.984 49.994 499.648C49.7607 499.303 49.4247 499.13 48.986 499.13C48.538 499.13 48.202 499.303 47.978 499.648C47.7447 499.984 47.628 500.47 47.628 501.104V503.68ZM54.572 500.74C54.572 499.331 54.1007 498.626 53.158 498.626C52.2153 498.626 51.744 499.331 51.744 500.74V503.68H54.572V500.74ZM46.2 490.981V486.697C46.2 485.652 46.4053 484.723 46.816 483.911C47.2173 483.099 47.7913 482.469 48.538 482.021C49.2753 481.573 50.1293 481.349 51.1 481.349C52.0707 481.349 52.9293 481.573 53.676 482.021C54.4133 482.469 54.9873 483.099 55.398 483.911C55.7993 484.723 56 485.652 56 486.697V490.981H46.2ZM54.46 486.781C54.46 486.062 54.3247 485.432 54.054 484.891C53.774 484.34 53.382 483.92 52.878 483.631C52.3647 483.332 51.772 483.183 51.1 483.183C50.428 483.183 49.84 483.332 49.336 483.631C48.8227 483.92 48.4307 484.34 48.16 484.891C47.88 485.432 47.74 486.062 47.74 486.781V489.161H54.46V486.781ZM54.474 472.064H56V479.414H46.2V472.26H47.726V477.594H50.274V472.862H51.772V477.594H54.474V472.064ZM46.2 461.212L56 465.482V467.274L46.2 471.558V469.584L53.76 466.322L46.2 463.032V461.212Z" fill="#202020"/>
<path d="M104.2 530.684V526.4C104.2 525.355 104.405 524.426 104.816 523.614C105.217 522.802 105.791 522.172 106.538 521.724C107.275 521.276 108.129 521.052 109.1 521.052C110.071 521.052 110.929 521.276 111.676 521.724C112.413 522.172 112.987 522.802 113.398 523.614C113.799 524.426 114 525.355 114 526.4V530.684H104.2ZM112.46 526.484C112.46 525.765 112.325 525.135 112.054 524.594C111.774 524.043 111.382 523.623 110.878 523.334C110.365 523.035 109.772 522.886 109.1 522.886C108.428 522.886 107.84 523.035 107.336 523.334C106.823 523.623 106.431 524.043 106.16 524.594C105.88 525.135 105.74 525.765 105.74 526.484V528.864H112.46V526.484ZM111.732 512.898V517.798L114 518.764V520.64L104.2 516.23V514.438L114 510.014V511.918L111.732 512.898ZM110.304 513.5L106.02 515.348L110.304 517.182V513.5ZM105.74 507.272V510.52H104.2V502.204H105.74V505.452H114V507.272H105.74ZM111.732 494.974V499.874L114 500.84V502.716L104.2 498.306V496.514L114 492.09V493.994L111.732 494.974ZM110.304 495.576L106.02 497.424L110.304 499.258V495.576ZM114 477.973L107.504 477.987L112.88 481.207V482.019L107.588 485.239H114V486.975H104.2V485.477L110.696 481.585L104.2 477.763V476.265L114 476.251V477.973ZM111.732 467.248V472.148L114 473.114V474.99L104.2 470.58V468.788L114 464.364V466.268L111.732 467.248ZM110.304 467.85L106.02 469.698L110.304 471.532V467.85ZM104.2 459.086C104.2 458.236 104.34 457.499 104.62 456.874C104.9 456.239 105.301 455.754 105.824 455.418C106.347 455.082 106.967 454.914 107.686 454.914C108.395 454.914 109.016 455.082 109.548 455.418C110.071 455.754 110.472 456.239 110.752 456.874C111.032 457.499 111.172 458.236 111.172 459.086V461.298H114V463.118H104.2V459.086ZM109.632 459.17C109.632 458.376 109.464 457.774 109.128 457.364C108.792 456.953 108.311 456.748 107.686 456.748C107.061 456.748 106.58 456.953 106.244 457.364C105.908 457.774 105.74 458.376 105.74 459.17V461.298H109.632V459.17ZM104.2 449.064C104.2 448.215 104.34 447.477 104.62 446.852C104.9 446.217 105.301 445.732 105.824 445.396C106.347 445.06 106.967 444.892 107.686 444.892C108.395 444.892 109.016 445.06 109.548 445.396C110.071 445.732 110.472 446.217 110.752 446.852C111.032 447.477 111.172 448.215 111.172 449.064V451.276H114V453.096H104.2V449.064ZM109.632 449.148C109.632 448.355 109.464 447.753 109.128 447.342C108.792 446.931 108.311 446.726 107.686 446.726C107.061 446.726 106.58 446.931 106.244 447.342C105.908 447.753 105.74 448.355 105.74 449.148V451.276H109.632V449.148ZM104.2 443.075V441.255H114V443.075H104.2ZM104.2 429.896H114V431.394L107.364 436.798H114V438.604H104.2V437.106L110.836 431.702H104.2V429.896ZM108.988 420.578V418.856H112.894C113.295 419.36 113.603 419.948 113.818 420.62C114.033 421.292 114.14 421.983 114.14 422.692C114.14 423.691 113.925 424.591 113.496 425.394C113.057 426.197 112.455 426.827 111.69 427.284C110.925 427.741 110.061 427.97 109.1 427.97C108.139 427.97 107.275 427.741 106.51 427.284C105.745 426.827 105.147 426.197 104.718 425.394C104.279 424.582 104.06 423.672 104.06 422.664C104.06 421.843 104.195 421.096 104.466 420.424C104.737 419.752 105.133 419.187 105.656 418.73L106.776 419.878C106.029 420.625 105.656 421.525 105.656 422.58C105.656 423.271 105.801 423.887 106.09 424.428C106.379 424.96 106.785 425.38 107.308 425.688C107.831 425.987 108.428 426.136 109.1 426.136C109.753 426.136 110.341 425.987 110.864 425.688C111.387 425.38 111.797 424.96 112.096 424.428C112.395 423.887 112.544 423.275 112.544 422.594C112.544 421.829 112.376 421.157 112.04 420.578H108.988Z" fill="#202020"/>
<path d="M143.14 526.148C143.14 527.137 142.925 528.033 142.496 528.836C142.057 529.629 141.455 530.255 140.69 530.712C139.925 531.16 139.061 531.384 138.1 531.384C137.139 531.384 136.275 531.155 135.51 530.698C134.745 530.241 134.147 529.615 133.718 528.822C133.279 528.019 133.06 527.123 133.06 526.134C133.06 525.331 133.2 524.599 133.48 523.936C133.76 523.273 134.166 522.713 134.698 522.256L135.804 523.432C135.039 524.141 134.656 525.014 134.656 526.05C134.656 526.722 134.805 527.324 135.104 527.856C135.393 528.388 135.799 528.803 136.322 529.102C136.845 529.401 137.437 529.55 138.1 529.55C138.763 529.55 139.355 529.401 139.878 529.102C140.401 528.803 140.811 528.388 141.11 527.856C141.399 527.324 141.544 526.722 141.544 526.05C141.544 525.014 141.157 524.141 140.382 523.432L141.502 522.256C142.034 522.713 142.44 523.278 142.72 523.95C143 524.613 143.14 525.345 143.14 526.148ZM140.732 514.361V519.261L143 520.227V522.103L133.2 517.693V515.901L143 511.477V513.381L140.732 514.361ZM139.304 514.963L135.02 516.811L139.304 518.645V514.963ZM133.2 510.231V505.947C133.2 504.902 133.405 503.973 133.816 503.161C134.217 502.349 134.791 501.719 135.538 501.271C136.275 500.823 137.129 500.599 138.1 500.599C139.071 500.599 139.929 500.823 140.676 501.271C141.413 501.719 141.987 502.349 142.398 503.161C142.799 503.973 143 504.902 143 505.947V510.231H133.2ZM141.46 506.031C141.46 505.312 141.325 504.682 141.054 504.141C140.774 503.59 140.382 503.17 139.878 502.881C139.365 502.582 138.772 502.433 138.1 502.433C137.428 502.433 136.84 502.582 136.336 502.881C135.823 503.17 135.431 503.59 135.16 504.141C134.88 504.682 134.74 505.312 134.74 506.031V508.411H141.46V506.031Z" fill="#202020"/>
<path d="M166.988 523.992V522.27H170.894C171.295 522.774 171.603 523.362 171.818 524.034C172.033 524.706 172.14 525.397 172.14 526.106C172.14 527.105 171.925 528.005 171.496 528.808C171.057 529.611 170.455 530.241 169.69 530.698C168.925 531.155 168.061 531.384 167.1 531.384C166.139 531.384 165.275 531.155 164.51 530.698C163.745 530.241 163.147 529.611 162.718 528.808C162.279 527.996 162.06 527.086 162.06 526.078C162.06 525.257 162.195 524.51 162.466 523.838C162.737 523.166 163.133 522.601 163.656 522.144L164.776 523.292C164.029 524.039 163.656 524.939 163.656 525.994C163.656 526.685 163.801 527.301 164.09 527.842C164.379 528.374 164.785 528.794 165.308 529.102C165.831 529.401 166.428 529.55 167.1 529.55C167.753 529.55 168.341 529.401 168.864 529.102C169.387 528.794 169.797 528.374 170.096 527.842C170.395 527.301 170.544 526.689 170.544 526.008C170.544 525.243 170.376 524.571 170.04 523.992H166.988ZM172 513.458L169.13 515.46C169.139 515.544 169.144 515.67 169.144 515.838V518.05H172V519.87H162.2V515.838C162.2 514.988 162.34 514.251 162.62 513.626C162.9 512.991 163.301 512.506 163.824 512.17C164.347 511.834 164.967 511.666 165.686 511.666C166.423 511.666 167.058 511.848 167.59 512.212C168.122 512.566 168.519 513.08 168.78 513.752L172 511.498V513.458ZM165.686 513.5C165.061 513.5 164.58 513.705 164.244 514.116C163.908 514.526 163.74 515.128 163.74 515.922V518.05H167.646V515.922C167.646 515.128 167.478 514.526 167.142 514.116C166.797 513.705 166.311 513.5 165.686 513.5ZM169.732 503.273V508.173L172 509.139V511.015L162.2 506.605V504.813L172 500.389V502.293L169.732 503.273ZM168.304 503.875L164.02 505.723L168.304 507.557V503.875ZM162.2 495.111C162.2 494.262 162.34 493.524 162.62 492.899C162.9 492.264 163.301 491.779 163.824 491.443C164.347 491.107 164.967 490.939 165.686 490.939C166.395 490.939 167.016 491.107 167.548 491.443C168.071 491.779 168.472 492.264 168.752 492.899C169.032 493.524 169.172 494.262 169.172 495.111V497.323H172V499.143H162.2V495.111ZM167.632 495.195C167.632 494.402 167.464 493.8 167.128 493.389C166.792 492.978 166.311 492.773 165.686 492.773C165.061 492.773 164.58 492.978 164.244 493.389C163.908 493.8 163.74 494.402 163.74 495.195V497.323H167.632V495.195ZM162.2 480.413H172V482.233H167.8V487.301H172V489.121H162.2V487.301H166.246V482.233H162.2V480.413ZM162.2 477.788V475.968H172V477.788H162.2ZM172.14 468.781C172.14 469.77 171.925 470.666 171.496 471.469C171.057 472.262 170.455 472.887 169.69 473.345C168.925 473.793 168.061 474.017 167.1 474.017C166.139 474.017 165.275 473.788 164.51 473.331C163.745 472.873 163.147 472.248 162.718 471.455C162.279 470.652 162.06 469.756 162.06 468.767C162.06 467.964 162.2 467.231 162.48 466.569C162.76 465.906 163.166 465.346 163.698 464.889L164.804 466.065C164.039 466.774 163.656 467.647 163.656 468.683C163.656 469.355 163.805 469.957 164.104 470.489C164.393 471.021 164.799 471.436 165.322 471.735C165.845 472.033 166.437 472.183 167.1 472.183C167.763 472.183 168.355 472.033 168.878 471.735C169.401 471.436 169.811 471.021 170.11 470.489C170.399 469.957 170.544 469.355 170.544 468.683C170.544 467.647 170.157 466.774 169.382 466.065L170.502 464.889C171.034 465.346 171.44 465.911 171.72 466.583C172 467.245 172.14 467.978 172.14 468.781ZM162.2 459.276V454.992C162.2 453.946 162.405 453.018 162.816 452.206C163.217 451.394 163.791 450.764 164.538 450.316C165.275 449.868 166.129 449.644 167.1 449.644C168.071 449.644 168.929 449.868 169.676 450.316C170.413 450.764 170.987 451.394 171.398 452.206C171.799 453.018 172 453.946 172 454.992V459.276H162.2ZM170.46 455.076C170.46 454.357 170.325 453.727 170.054 453.186C169.774 452.635 169.382 452.215 168.878 451.926C168.365 451.627 167.772 451.478 167.1 451.478C166.428 451.478 165.84 451.627 165.336 451.926C164.823 452.215 164.431 452.635 164.16 453.186C163.88 453.727 163.74 454.357 163.74 455.076V457.456H170.46V455.076ZM170.474 440.359H172V447.709H162.2V440.555H163.726V445.889H166.274V441.157H167.772V445.889H170.474V440.359ZM172.14 435.292C172.14 436.048 172.033 436.781 171.818 437.49C171.603 438.19 171.319 438.746 170.964 439.156L169.55 438.526C169.867 438.125 170.129 437.635 170.334 437.056C170.53 436.468 170.628 435.88 170.628 435.292C170.628 434.564 170.511 434.023 170.278 433.668C170.045 433.304 169.737 433.122 169.354 433.122C169.074 433.122 168.845 433.225 168.668 433.43C168.481 433.626 168.337 433.878 168.234 434.186C168.131 434.494 168.015 434.914 167.884 435.446C167.707 436.193 167.529 436.8 167.352 437.266C167.175 437.724 166.899 438.12 166.526 438.456C166.143 438.783 165.63 438.946 164.986 438.946C164.445 438.946 163.955 438.802 163.516 438.512C163.068 438.214 162.713 437.77 162.452 437.182C162.191 436.585 162.06 435.857 162.06 434.998C162.06 434.401 162.135 433.813 162.284 433.234C162.433 432.656 162.648 432.156 162.928 431.736L164.342 432.31C164.09 432.74 163.899 433.188 163.768 433.654C163.637 434.121 163.572 434.574 163.572 435.012C163.572 435.731 163.693 436.268 163.936 436.622C164.179 436.968 164.501 437.14 164.902 437.14C165.182 437.14 165.411 437.042 165.588 436.846C165.765 436.641 165.905 436.384 166.008 436.076C166.111 435.768 166.227 435.348 166.358 434.816C166.526 434.088 166.703 433.491 166.89 433.024C167.067 432.558 167.343 432.161 167.716 431.834C168.089 431.498 168.593 431.33 169.228 431.33C169.769 431.33 170.259 431.48 170.698 431.778C171.137 432.068 171.487 432.511 171.748 433.108C172.009 433.706 172.14 434.434 172.14 435.292ZM162.2 429.526V427.706H172V429.526H162.2ZM166.988 418.363V416.641H170.894C171.295 417.145 171.603 417.733 171.818 418.405C172.033 419.077 172.14 419.768 172.14 420.477C172.14 421.476 171.925 422.376 171.496 423.179C171.057 423.982 170.455 424.612 169.69 425.069C168.925 425.526 168.061 425.755 167.1 425.755C166.139 425.755 165.275 425.526 164.51 425.069C163.745 424.612 163.147 423.982 162.718 423.179C162.279 422.367 162.06 421.457 162.06 420.449C162.06 419.628 162.195 418.881 162.466 418.209C162.737 417.537 163.133 416.972 163.656 416.515L164.776 417.663C164.029 418.41 163.656 419.31 163.656 420.365C163.656 421.056 163.801 421.672 164.09 422.213C164.379 422.745 164.785 423.165 165.308 423.473C165.831 423.772 166.428 423.921 167.1 423.921C167.753 423.921 168.341 423.772 168.864 423.473C169.387 423.165 169.797 422.745 170.096 422.213C170.395 421.672 170.544 421.06 170.544 420.379C170.544 419.614 170.376 418.942 170.04 418.363H166.988ZM162.2 405.533H172V407.031L165.364 412.435H172V414.241H162.2V412.743L168.836 407.339H162.2V405.533Z" fill="#202020"/>
<path d="M201.14 526.47C201.14 527.823 200.762 528.878 200.006 529.634C199.241 530.39 198.149 530.768 196.73 530.768H191.2V528.948H196.66C198.583 528.948 199.544 528.117 199.544 526.456C199.544 524.804 198.583 523.978 196.66 523.978H191.2V522.186H196.73C198.149 522.186 199.241 522.564 200.006 523.32C200.762 524.067 201.14 525.117 201.14 526.47ZM191.2 519.637V517.817H201V519.637H191.2ZM189.212 512.282V510.714L202.4 515.334V516.902L189.212 512.282ZM201.14 505.757C201.14 507.11 200.762 508.165 200.006 508.921C199.241 509.677 198.149 510.055 196.73 510.055H191.2V508.235H196.66C198.583 508.235 199.544 507.404 199.544 505.743C199.544 504.091 198.583 503.265 196.66 503.265H191.2V501.473H196.73C198.149 501.473 199.241 501.851 200.006 502.607C200.762 503.354 201.14 504.404 201.14 505.757ZM201 492.887L197.276 495.547L201 498.179V500.251L196.002 496.611L191.2 500.055V497.997L194.686 495.491L191.2 493.013V491.039L195.932 494.469L201 490.787V492.887Z" fill="#202020"/>
<path d="M230.14 526.47C230.14 527.823 229.762 528.878 229.006 529.634C228.241 530.39 227.149 530.768 225.73 530.768H220.2V528.948H225.66C227.583 528.948 228.544 528.117 228.544 526.456C228.544 524.804 227.583 523.978 225.66 523.978H220.2V522.186H225.73C227.149 522.186 228.241 522.564 229.006 523.32C229.762 524.067 230.14 525.117 230.14 526.47ZM230.14 516.599C230.14 517.355 230.033 518.088 229.818 518.797C229.603 519.497 229.319 520.052 228.964 520.463L227.55 519.833C227.867 519.432 228.129 518.942 228.334 518.363C228.53 517.775 228.628 517.187 228.628 516.599C228.628 515.871 228.511 515.33 228.278 514.975C228.045 514.611 227.737 514.429 227.354 514.429C227.074 514.429 226.845 514.532 226.668 514.737C226.481 514.933 226.337 515.185 226.234 515.493C226.131 515.801 226.015 516.221 225.884 516.753C225.707 517.5 225.529 518.106 225.352 518.573C225.175 519.03 224.899 519.427 224.526 519.763C224.143 520.09 223.63 520.253 222.986 520.253C222.445 520.253 221.955 520.108 221.516 519.819C221.068 519.52 220.713 519.077 220.452 518.489C220.191 517.892 220.06 517.164 220.06 516.305C220.06 515.708 220.135 515.12 220.284 514.541C220.433 513.962 220.648 513.463 220.928 513.043L222.342 513.617C222.09 514.046 221.899 514.494 221.768 514.961C221.637 515.428 221.572 515.88 221.572 516.319C221.572 517.038 221.693 517.574 221.936 517.929C222.179 518.274 222.501 518.447 222.902 518.447C223.182 518.447 223.411 518.349 223.588 518.153C223.765 517.948 223.905 517.691 224.008 517.383C224.111 517.075 224.227 516.655 224.358 516.123C224.526 515.395 224.703 514.798 224.89 514.331C225.067 513.864 225.343 513.468 225.716 513.141C226.089 512.805 226.593 512.637 227.228 512.637C227.769 512.637 228.259 512.786 228.698 513.085C229.137 513.374 229.487 513.818 229.748 514.415C230.009 515.012 230.14 515.74 230.14 516.599ZM228.474 503.482H230V510.832H220.2V503.678H221.726V509.012H224.274V504.28H225.772V509.012H228.474V503.482ZM230 495.042L227.13 497.044C227.139 497.128 227.144 497.254 227.144 497.422V499.634H230V501.454H220.2V497.422C220.2 496.572 220.34 495.835 220.62 495.21C220.9 494.575 221.301 494.09 221.824 493.754C222.347 493.418 222.967 493.25 223.686 493.25C224.423 493.25 225.058 493.432 225.59 493.796C226.122 494.15 226.519 494.664 226.78 495.336L230 493.082V495.042ZM223.686 495.084C223.061 495.084 222.58 495.289 222.244 495.7C221.908 496.11 221.74 496.712 221.74 497.506V499.634H225.646V497.506C225.646 496.712 225.478 496.11 225.142 495.7C224.797 495.289 224.311 495.084 223.686 495.084ZM230 480.932L227.13 482.934C227.139 483.018 227.144 483.144 227.144 483.312V485.524H230V487.344H220.2V483.312C220.2 482.463 220.34 481.725 220.62 481.1C220.9 480.465 221.301 479.98 221.824 479.644C222.347 479.308 222.967 479.14 223.686 479.14C224.423 479.14 225.058 479.322 225.59 479.686C226.122 480.041 226.519 480.554 226.78 481.226L230 478.972V480.932ZM223.686 480.974C223.061 480.974 222.58 481.179 222.244 481.59C221.908 482.001 221.74 482.603 221.74 483.396V485.524H225.646V483.396C225.646 482.603 225.478 482.001 225.142 481.59C224.797 481.179 224.311 480.974 223.686 480.974ZM228.474 469.754H230V477.104H220.2V469.95H221.726V475.284H224.274V470.552H225.772V475.284H228.474V469.754ZM230.14 464.687C230.14 465.443 230.033 466.176 229.818 466.885C229.603 467.585 229.319 468.14 228.964 468.551L227.55 467.921C227.867 467.52 228.129 467.03 228.334 466.451C228.53 465.863 228.628 465.275 228.628 464.687C228.628 463.959 228.511 463.418 228.278 463.063C228.045 462.699 227.737 462.517 227.354 462.517C227.074 462.517 226.845 462.62 226.668 462.825C226.481 463.021 226.337 463.273 226.234 463.581C226.131 463.889 226.015 464.309 225.884 464.841C225.707 465.588 225.529 466.194 225.352 466.661C225.175 467.118 224.899 467.515 224.526 467.851C224.143 468.178 223.63 468.341 222.986 468.341C222.445 468.341 221.955 468.196 221.516 467.907C221.068 467.608 220.713 467.165 220.452 466.577C220.191 465.98 220.06 465.252 220.06 464.393C220.06 463.796 220.135 463.208 220.284 462.629C220.433 462.05 220.648 461.551 220.928 461.131L222.342 461.705C222.09 462.134 221.899 462.582 221.768 463.049C221.637 463.516 221.572 463.968 221.572 464.407C221.572 465.126 221.693 465.662 221.936 466.017C222.179 466.362 222.501 466.535 222.902 466.535C223.182 466.535 223.411 466.437 223.588 466.241C223.765 466.036 223.905 465.779 224.008 465.471C224.111 465.163 224.227 464.743 224.358 464.211C224.526 463.483 224.703 462.886 224.89 462.419C225.067 461.952 225.343 461.556 225.716 461.229C226.089 460.893 226.593 460.725 227.228 460.725C227.769 460.725 228.259 460.874 228.698 461.173C229.137 461.462 229.487 461.906 229.748 462.503C230.009 463.1 230.14 463.828 230.14 464.687ZM228.474 451.57H230V458.92H220.2V451.766H221.726V457.1H224.274V452.368H225.772V457.1H228.474V451.57ZM227.732 443.185V448.085L230 449.051V450.927L220.2 446.517V444.725L230 440.301V442.205L227.732 443.185ZM226.304 443.787L222.02 445.635L226.304 447.469V443.787ZM230 432.643L227.13 434.645C227.139 434.729 227.144 434.855 227.144 435.023V437.235H230V439.055H220.2V435.023C220.2 434.174 220.34 433.436 220.62 432.811C220.9 432.176 221.301 431.691 221.824 431.355C222.347 431.019 222.967 430.851 223.686 430.851C224.423 430.851 225.058 431.033 225.59 431.397C226.122 431.752 226.519 432.265 226.78 432.937L230 430.683V432.643ZM223.686 432.685C223.061 432.685 222.58 432.89 222.244 433.301C221.908 433.712 221.74 434.314 221.74 435.107V437.235H225.646V435.107C225.646 434.314 225.478 433.712 225.142 433.301C224.797 432.89 224.311 432.685 223.686 432.685ZM230.14 424.279C230.14 425.268 229.925 426.164 229.496 426.967C229.057 427.76 228.455 428.386 227.69 428.843C226.925 429.291 226.061 429.515 225.1 429.515C224.139 429.515 223.275 429.286 222.51 428.829C221.745 428.372 221.147 427.746 220.718 426.953C220.279 426.15 220.06 425.254 220.06 424.265C220.06 423.462 220.2 422.73 220.48 422.067C220.76 421.404 221.166 420.844 221.698 420.387L222.804 421.563C222.039 422.272 221.656 423.145 221.656 424.181C221.656 424.853 221.805 425.455 222.104 425.987C222.393 426.519 222.799 426.934 223.322 427.233C223.845 427.532 224.437 427.681 225.1 427.681C225.763 427.681 226.355 427.532 226.878 427.233C227.401 426.934 227.811 426.519 228.11 425.987C228.399 425.455 228.544 424.853 228.544 424.181C228.544 423.145 228.157 422.272 227.382 421.563L228.502 420.387C229.034 420.844 229.44 421.409 229.72 422.081C230 422.744 230.14 423.476 230.14 424.279ZM220.2 409.935H230V411.755H225.8V416.823H230V418.643H220.2V416.823H224.246V411.755H220.2V409.935Z" fill="#202020"/>
<path d="M249.2 526.652C249.2 525.803 249.34 525.065 249.62 524.44C249.9 523.805 250.301 523.32 250.824 522.984C251.347 522.648 251.967 522.48 252.686 522.48C253.395 522.48 254.016 522.648 254.548 522.984C255.071 523.32 255.472 523.805 255.752 524.44C256.032 525.065 256.172 525.803 256.172 526.652V528.864H259V530.684H249.2V526.652ZM254.632 526.736C254.632 525.943 254.464 525.341 254.128 524.93C253.792 524.519 253.311 524.314 252.686 524.314C252.061 524.314 251.58 524.519 251.244 524.93C250.908 525.341 250.74 525.943 250.74 526.736V528.864H254.632V526.736ZM259 514.251L256.13 516.253C256.139 516.337 256.144 516.463 256.144 516.631V518.843H259V520.663H249.2V516.631C249.2 515.781 249.34 515.044 249.62 514.419C249.9 513.784 250.301 513.299 250.824 512.963C251.347 512.627 251.967 512.459 252.686 512.459C253.423 512.459 254.058 512.641 254.59 513.005C255.122 513.359 255.519 513.873 255.78 514.545L259 512.291V514.251ZM252.686 514.293C252.061 514.293 251.58 514.498 251.244 514.909C250.908 515.319 250.74 515.921 250.74 516.715V518.843H254.646V516.715C254.646 515.921 254.478 515.319 254.142 514.909C253.797 514.498 253.311 514.293 252.686 514.293ZM259.14 505.844C259.14 506.843 258.925 507.744 258.496 508.546C258.057 509.349 257.455 509.979 256.69 510.436C255.915 510.894 255.052 511.122 254.1 511.122C253.148 511.122 252.289 510.894 251.524 510.436C250.749 509.979 250.147 509.349 249.718 508.546C249.279 507.744 249.06 506.843 249.06 505.844C249.06 504.846 249.279 503.945 249.718 503.142C250.147 502.34 250.745 501.71 251.51 501.252C252.275 500.795 253.139 500.566 254.1 500.566C255.061 500.566 255.925 500.795 256.69 501.252C257.455 501.71 258.057 502.34 258.496 503.142C258.925 503.945 259.14 504.846 259.14 505.844ZM257.544 505.844C257.544 505.191 257.399 504.603 257.11 504.08C256.811 503.558 256.401 503.147 255.878 502.848C255.346 502.55 254.753 502.4 254.1 502.4C253.447 502.4 252.859 502.55 252.336 502.848C251.804 503.147 251.393 503.558 251.104 504.08C250.805 504.603 250.656 505.191 250.656 505.844C250.656 506.498 250.805 507.086 251.104 507.608C251.393 508.131 251.804 508.542 252.336 508.84C252.859 509.139 253.447 509.288 254.1 509.288C254.753 509.288 255.346 509.139 255.878 508.84C256.401 508.542 256.811 508.131 257.11 507.608C257.399 507.086 257.544 506.498 257.544 505.844ZM249.2 498.637V494.353C249.2 493.308 249.405 492.379 249.816 491.567C250.217 490.755 250.791 490.125 251.538 489.677C252.275 489.229 253.129 489.005 254.1 489.005C255.071 489.005 255.929 489.229 256.676 489.677C257.413 490.125 257.987 490.755 258.398 491.567C258.799 492.379 259 493.308 259 494.353V498.637H249.2ZM257.46 494.437C257.46 493.718 257.325 493.088 257.054 492.547C256.774 491.996 256.382 491.576 255.878 491.287C255.365 490.988 254.772 490.839 254.1 490.839C253.428 490.839 252.84 490.988 252.336 491.287C251.823 491.576 251.431 491.996 251.16 492.547C250.88 493.088 250.74 493.718 250.74 494.437V496.817H257.46V494.437ZM259.14 482.857C259.14 484.21 258.762 485.265 258.006 486.021C257.241 486.777 256.149 487.155 254.73 487.155H249.2V485.335H254.66C256.583 485.335 257.544 484.504 257.544 482.843C257.544 481.191 256.583 480.365 254.66 480.365H249.2V478.573H254.73C256.149 478.573 257.241 478.951 258.006 479.707C258.762 480.453 259.14 481.503 259.14 482.857ZM259.14 471.488C259.14 472.477 258.925 473.373 258.496 474.176C258.057 474.969 257.455 475.595 256.69 476.052C255.925 476.5 255.061 476.724 254.1 476.724C253.139 476.724 252.275 476.495 251.51 476.038C250.745 475.581 250.147 474.955 249.718 474.162C249.279 473.359 249.06 472.463 249.06 471.474C249.06 470.671 249.2 469.939 249.48 469.276C249.76 468.613 250.166 468.053 250.698 467.596L251.804 468.772C251.039 469.481 250.656 470.354 250.656 471.39C250.656 472.062 250.805 472.664 251.104 473.196C251.393 473.728 251.799 474.143 252.322 474.442C252.845 474.741 253.437 474.89 254.1 474.89C254.763 474.89 255.355 474.741 255.878 474.442C256.401 474.143 256.811 473.728 257.11 473.196C257.399 472.664 257.544 472.062 257.544 471.39C257.544 470.354 257.157 469.481 256.382 468.772L257.502 467.596C258.034 468.053 258.44 468.618 258.72 469.29C259 469.953 259.14 470.685 259.14 471.488ZM250.74 463.973V467.221H249.2V458.905H250.74V462.153H259V463.973H250.74ZM249.2 453.67V449.386C249.2 448.341 249.405 447.412 249.816 446.6C250.217 445.788 250.791 445.158 251.538 444.71C252.275 444.262 253.129 444.038 254.1 444.038C255.071 444.038 255.929 444.262 256.676 444.71C257.413 445.158 257.987 445.788 258.398 446.6C258.799 447.412 259 448.341 259 449.386V453.67H249.2ZM257.46 449.47C257.46 448.752 257.325 448.122 257.054 447.58C256.774 447.03 256.382 446.61 255.878 446.32C255.365 446.022 254.772 445.872 254.1 445.872C253.428 445.872 252.84 446.022 252.336 446.32C251.823 446.61 251.431 447.03 251.16 447.58C250.88 448.122 250.74 448.752 250.74 449.47V451.85H257.46V449.47ZM257.474 434.754H259V442.104H249.2V434.95H250.726V440.284H253.274V435.552H254.772V440.284H257.474V434.754ZM259.14 429.687C259.14 430.443 259.033 431.176 258.818 431.885C258.603 432.585 258.319 433.14 257.964 433.551L256.55 432.921C256.867 432.52 257.129 432.03 257.334 431.451C257.53 430.863 257.628 430.275 257.628 429.687C257.628 428.959 257.511 428.418 257.278 428.063C257.045 427.699 256.737 427.517 256.354 427.517C256.074 427.517 255.845 427.62 255.668 427.825C255.481 428.021 255.337 428.273 255.234 428.581C255.131 428.889 255.015 429.309 254.884 429.841C254.707 430.588 254.529 431.194 254.352 431.661C254.175 432.118 253.899 432.515 253.526 432.851C253.143 433.178 252.63 433.341 251.986 433.341C251.445 433.341 250.955 433.196 250.516 432.907C250.068 432.608 249.713 432.165 249.452 431.577C249.191 430.98 249.06 430.252 249.06 429.393C249.06 428.796 249.135 428.208 249.284 427.629C249.433 427.05 249.648 426.551 249.928 426.131L251.342 426.705C251.09 427.134 250.899 427.582 250.768 428.049C250.637 428.516 250.572 428.968 250.572 429.407C250.572 430.126 250.693 430.662 250.936 431.017C251.179 431.362 251.501 431.535 251.902 431.535C252.182 431.535 252.411 431.437 252.588 431.241C252.765 431.036 252.905 430.779 253.008 430.471C253.111 430.163 253.227 429.743 253.358 429.211C253.526 428.483 253.703 427.886 253.89 427.419C254.067 426.952 254.343 426.556 254.716 426.229C255.089 425.893 255.593 425.725 256.228 425.725C256.769 425.725 257.259 425.874 257.698 426.173C258.137 426.462 258.487 426.906 258.748 427.503C259.009 428.1 259.14 428.828 259.14 429.687ZM249.2 423.92V422.1H259V423.92H249.2ZM253.988 412.758V411.036H257.894C258.295 411.54 258.603 412.128 258.818 412.8C259.033 413.472 259.14 414.162 259.14 414.872C259.14 415.87 258.925 416.771 258.496 417.574C258.057 418.376 257.455 419.006 256.69 419.464C255.925 419.921 255.061 420.15 254.1 420.15C253.139 420.15 252.275 419.921 251.51 419.464C250.745 419.006 250.147 418.376 249.718 417.574C249.279 416.762 249.06 415.852 249.06 414.844C249.06 414.022 249.195 413.276 249.466 412.604C249.737 411.932 250.133 411.367 250.656 410.91L251.776 412.058C251.029 412.804 250.656 413.705 250.656 414.76C250.656 415.45 250.801 416.066 251.09 416.608C251.379 417.14 251.785 417.56 252.308 417.868C252.831 418.166 253.428 418.316 254.1 418.316C254.753 418.316 255.341 418.166 255.864 417.868C256.387 417.56 256.797 417.14 257.096 416.608C257.395 416.066 257.544 415.455 257.544 414.774C257.544 414.008 257.376 413.336 257.04 412.758H253.988ZM249.2 399.927H259V401.425L252.364 406.829H259V408.635H249.2V407.137L255.836 401.733H249.2V399.927Z" fill="#202020"/>
<path d="M288.14 527.646C288.14 528.402 288.033 529.135 287.818 529.844C287.603 530.544 287.319 531.099 286.964 531.51L285.55 530.88C285.867 530.479 286.129 529.989 286.334 529.41C286.53 528.822 286.628 528.234 286.628 527.646C286.628 526.918 286.511 526.377 286.278 526.022C286.045 525.658 285.737 525.476 285.354 525.476C285.074 525.476 284.845 525.579 284.668 525.784C284.481 525.98 284.337 526.232 284.234 526.54C284.131 526.848 284.015 527.268 283.884 527.8C283.707 528.547 283.529 529.153 283.352 529.62C283.175 530.077 282.899 530.474 282.526 530.81C282.143 531.137 281.63 531.3 280.986 531.3C280.445 531.3 279.955 531.155 279.516 530.866C279.068 530.567 278.713 530.124 278.452 529.536C278.191 528.939 278.06 528.211 278.06 527.352C278.06 526.755 278.135 526.167 278.284 525.588C278.433 525.009 278.648 524.51 278.928 524.09L280.342 524.664C280.09 525.093 279.899 525.541 279.768 526.008C279.637 526.475 279.572 526.927 279.572 527.366C279.572 528.085 279.693 528.621 279.936 528.976C280.179 529.321 280.501 529.494 280.902 529.494C281.182 529.494 281.411 529.396 281.588 529.2C281.765 528.995 281.905 528.738 282.008 528.43C282.111 528.122 282.227 527.702 282.358 527.17C282.526 526.442 282.703 525.845 282.89 525.378C283.067 524.911 283.343 524.515 283.716 524.188C284.089 523.852 284.593 523.684 285.228 523.684C285.769 523.684 286.259 523.833 286.698 524.132C287.137 524.421 287.487 524.865 287.748 525.462C288.009 526.059 288.14 526.787 288.14 527.646ZM279.74 520.028V523.276H278.2V514.96H279.74V518.208H288V520.028H279.74ZM288.14 509.153C288.14 510.152 287.925 511.052 287.496 511.855C287.057 512.658 286.455 513.288 285.69 513.745C284.915 514.202 284.052 514.431 283.1 514.431C282.148 514.431 281.289 514.202 280.524 513.745C279.749 513.288 279.147 512.658 278.718 511.855C278.279 511.052 278.06 510.152 278.06 509.153C278.06 508.154 278.279 507.254 278.718 506.451C279.147 505.648 279.745 505.018 280.51 504.561C281.275 504.104 282.139 503.875 283.1 503.875C284.061 503.875 284.925 504.104 285.69 504.561C286.455 505.018 287.057 505.648 287.496 506.451C287.925 507.254 288.14 508.154 288.14 509.153ZM286.544 509.153C286.544 508.5 286.399 507.912 286.11 507.389C285.811 506.866 285.401 506.456 284.878 506.157C284.346 505.858 283.753 505.709 283.1 505.709C282.447 505.709 281.859 505.858 281.336 506.157C280.804 506.456 280.393 506.866 280.104 507.389C279.805 507.912 279.656 508.5 279.656 509.153C279.656 509.806 279.805 510.394 280.104 510.917C280.393 511.44 280.804 511.85 281.336 512.149C281.859 512.448 282.447 512.597 283.1 512.597C283.753 512.597 284.346 512.448 284.878 512.149C285.401 511.85 285.811 511.44 286.11 510.917C286.399 510.394 286.544 509.806 286.544 509.153ZM288 495.534L285.13 497.536C285.139 497.62 285.144 497.746 285.144 497.914V500.126H288V501.946H278.2V497.914C278.2 497.064 278.34 496.327 278.62 495.702C278.9 495.067 279.301 494.582 279.824 494.246C280.347 493.91 280.967 493.742 281.686 493.742C282.423 493.742 283.058 493.924 283.59 494.288C284.122 494.642 284.519 495.156 284.78 495.828L288 493.574V495.534ZM281.686 495.576C281.061 495.576 280.58 495.781 280.244 496.192C279.908 496.602 279.74 497.204 279.74 497.998V500.126H283.646V497.998C283.646 497.204 283.478 496.602 283.142 496.192C282.797 495.781 282.311 495.576 281.686 495.576ZM284.542 487.614H288V489.434H284.57L278.2 493.284V491.338L282.974 488.468L278.2 485.57V483.778L284.542 487.614ZM279.74 480.735V483.983H278.2V475.667H279.74V478.915H288V480.735H279.74ZM286.474 466.951H288V474.301H278.2V467.147H279.726V472.481H282.274V467.749H283.772V472.481H286.474V466.951ZM278.2 464.922V463.102H286.46V457.978H288V464.922H278.2ZM278.2 456.541V454.721H286.46V449.597H288V456.541H278.2ZM278.2 448.161V446.341H288V448.161H278.2ZM278.2 434.982H288V436.48L281.364 441.884H288V443.69H278.2V442.192L284.836 436.788H278.2V434.982ZM282.988 425.664V423.942H286.894C287.295 424.446 287.603 425.034 287.818 425.706C288.033 426.378 288.14 427.069 288.14 427.778C288.14 428.777 287.925 429.677 287.496 430.48C287.057 431.283 286.455 431.913 285.69 432.37C284.925 432.827 284.061 433.056 283.1 433.056C282.139 433.056 281.275 432.827 280.51 432.37C279.745 431.913 279.147 431.283 278.718 430.48C278.279 429.668 278.06 428.758 278.06 427.75C278.06 426.929 278.195 426.182 278.466 425.51C278.737 424.838 279.133 424.273 279.656 423.816L280.776 424.964C280.029 425.711 279.656 426.611 279.656 427.666C279.656 428.357 279.801 428.973 280.09 429.514C280.379 430.046 280.785 430.466 281.308 430.774C281.831 431.073 282.428 431.222 283.1 431.222C283.753 431.222 284.341 431.073 284.864 430.774C285.387 430.466 285.797 430.046 286.096 429.514C286.395 428.973 286.544 428.361 286.544 427.68C286.544 426.915 286.376 426.243 286.04 425.664H282.988Z" fill="#202020"/>
<path d="M20.62 64.68C21.08 64.68 21.4933 64.77 21.86 64.95C22.2267 65.1233 22.5133 65.3733 22.72 65.7C22.9267 66.0267 23.03 66.4033 23.03 66.83C23.03 67.2833 22.9167 67.6833 22.69 68.03C22.4633 68.37 22.1567 68.6333 21.77 68.82C21.3833 69.0067 20.95 69.1 20.47 69.1C19.51 69.1 18.7633 68.8 18.23 68.2C17.7033 67.6 17.44 66.74 17.44 65.62C17.44 64.8333 17.5833 64.1633 17.87 63.61C18.1567 63.05 18.5567 62.6267 19.07 62.34C19.59 62.0467 20.19 61.9 20.87 61.9C21.23 61.9 21.5667 61.94 21.88 62.02C22.2 62.0933 22.4767 62.2033 22.71 62.35L22.23 63.33C21.8833 63.1033 21.44 62.99 20.9 62.99C20.2267 62.99 19.7 63.1967 19.32 63.61C18.94 64.0233 18.75 64.62 18.75 65.4V65.41C18.9567 65.17 19.22 64.99 19.54 64.87C19.86 64.7433 20.22 64.68 20.62 64.68ZM20.4 68.08C20.8067 68.08 21.1367 67.9733 21.39 67.76C21.6433 67.54 21.77 67.25 21.77 66.89C21.77 66.5233 21.6433 66.2333 21.39 66.02C21.1367 65.8067 20.7967 65.7 20.37 65.7C19.95 65.7 19.6067 65.8133 19.34 66.04C19.08 66.2667 18.95 66.5533 18.95 66.9C18.95 67.24 19.0767 67.5233 19.33 67.75C19.59 67.97 19.9467 68.08 20.4 68.08ZM26.1295 62V69H24.8295V63.09H23.3495V62H26.1295ZM29.0781 65.77C28.5781 65.77 28.1748 65.5933 27.8681 65.24C27.5615 64.8867 27.4081 64.4233 27.4081 63.85C27.4081 63.2767 27.5615 62.8133 27.8681 62.46C28.1748 62.1067 28.5781 61.93 29.0781 61.93C29.5781 61.93 29.9815 62.1067 30.2881 62.46C30.6015 62.8067 30.7581 63.27 30.7581 63.85C30.7581 64.43 30.6015 64.8967 30.2881 65.25C29.9815 65.5967 29.5781 65.77 29.0781 65.77ZM33.2781 62H34.2581L29.4781 69H28.4981L33.2781 62ZM29.0781 65.07C29.3515 65.07 29.5615 64.9633 29.7081 64.75C29.8615 64.5367 29.9381 64.2367 29.9381 63.85C29.9381 63.4633 29.8615 63.1633 29.7081 62.95C29.5615 62.7367 29.3515 62.63 29.0781 62.63C28.8181 62.63 28.6081 62.74 28.4481 62.96C28.2948 63.1733 28.2181 63.47 28.2181 63.85C28.2181 64.23 28.2948 64.53 28.4481 64.75C28.6081 64.9633 28.8181 65.07 29.0781 65.07ZM33.6681 69.07C33.1681 69.07 32.7648 68.8933 32.4581 68.54C32.1515 68.1867 31.9981 67.7233 31.9981 67.15C31.9981 66.5767 32.1515 66.1133 32.4581 65.76C32.7648 65.4067 33.1681 65.23 33.6681 65.23C34.1681 65.23 34.5715 65.4067 34.8781 65.76C35.1915 66.1133 35.3481 66.5767 35.3481 67.15C35.3481 67.7233 35.1915 68.1867 34.8781 68.54C34.5715 68.8933 34.1681 69.07 33.6681 69.07ZM33.6681 68.37C33.9348 68.37 34.1448 68.2633 34.2981 68.05C34.4515 67.83 34.5281 67.53 34.5281 67.15C34.5281 66.77 34.4515 66.4733 34.2981 66.26C34.1448 66.04 33.9348 65.93 33.6681 65.93C33.4015 65.93 33.1915 66.0367 33.0381 66.25C32.8848 66.4633 32.8081 66.7633 32.8081 67.15C32.8081 67.5367 32.8848 67.8367 33.0381 68.05C33.1915 68.2633 33.4015 68.37 33.6681 68.37Z" fill="black"/>
<path d="M49.42 213.89C50.0667 213.97 50.56 214.19 50.9 214.55C51.24 214.91 51.41 215.36 51.41 215.9C51.41 216.307 51.3067 216.677 51.1 217.01C50.8933 217.343 50.58 217.61 50.16 217.81C49.7467 218.003 49.24 218.1 48.64 218.1C48.14 218.1 47.6567 218.03 47.19 217.89C46.73 217.743 46.3367 217.543 46.01 217.29L46.57 216.28C46.8233 216.493 47.13 216.663 47.49 216.79C47.8567 216.91 48.2333 216.97 48.62 216.97C49.08 216.97 49.44 216.877 49.7 216.69C49.9667 216.497 50.1 216.237 50.1 215.91C50.1 215.583 49.9733 215.33 49.72 215.15C49.4733 214.963 49.0933 214.87 48.58 214.87H47.94V213.98L49.53 212.09H46.35V211H51.12V211.87L49.42 213.89ZM57.2815 216.9V218H52.1215V217.13L54.9015 214.49C55.2148 214.19 55.4248 213.93 55.5315 213.71C55.6448 213.483 55.7015 213.26 55.7015 213.04C55.7015 212.713 55.5915 212.463 55.3715 212.29C55.1515 212.117 54.8282 212.03 54.4015 212.03C53.6882 212.03 53.1415 212.273 52.7615 212.76L51.8515 212.06C52.1248 211.693 52.4915 211.41 52.9515 211.21C53.4182 211.003 53.9382 210.9 54.5115 210.9C55.2715 210.9 55.8782 211.08 56.3315 211.44C56.7848 211.8 57.0115 212.29 57.0115 212.91C57.0115 213.29 56.9315 213.647 56.7715 213.98C56.6115 214.313 56.3048 214.693 55.8515 215.12L53.9815 216.9H57.2815ZM59.6895 214.77C59.1895 214.77 58.7861 214.593 58.4795 214.24C58.1728 213.887 58.0195 213.423 58.0195 212.85C58.0195 212.277 58.1728 211.813 58.4795 211.46C58.7861 211.107 59.1895 210.93 59.6895 210.93C60.1895 210.93 60.5928 211.107 60.8995 211.46C61.2128 211.807 61.3695 212.27 61.3695 212.85C61.3695 213.43 61.2128 213.897 60.8995 214.25C60.5928 214.597 60.1895 214.77 59.6895 214.77ZM63.8895 211H64.8695L60.0895 218H59.1095L63.8895 211ZM59.6895 214.07C59.9628 214.07 60.1728 213.963 60.3195 213.75C60.4728 213.537 60.5495 213.237 60.5495 212.85C60.5495 212.463 60.4728 212.163 60.3195 211.95C60.1728 211.737 59.9628 211.63 59.6895 211.63C59.4295 211.63 59.2195 211.74 59.0595 211.96C58.9061 212.173 58.8295 212.47 58.8295 212.85C58.8295 213.23 58.9061 213.53 59.0595 213.75C59.2195 213.963 59.4295 214.07 59.6895 214.07ZM64.2795 218.07C63.7795 218.07 63.3761 217.893 63.0695 217.54C62.7628 217.187 62.6095 216.723 62.6095 216.15C62.6095 215.577 62.7628 215.113 63.0695 214.76C63.3761 214.407 63.7795 214.23 64.2795 214.23C64.7795 214.23 65.1828 214.407 65.4895 214.76C65.8028 215.113 65.9595 215.577 65.9595 216.15C65.9595 216.723 65.8028 217.187 65.4895 217.54C65.1828 217.893 64.7795 218.07 64.2795 218.07ZM64.2795 217.37C64.5461 217.37 64.7561 217.263 64.9095 217.05C65.0628 216.83 65.1395 216.53 65.1395 216.15C65.1395 215.77 65.0628 215.473 64.9095 215.26C64.7561 215.04 64.5461 214.93 64.2795 214.93C64.0128 214.93 63.8028 215.037 63.6495 215.25C63.4961 215.463 63.4195 215.763 63.4195 216.15C63.4195 216.537 63.4961 216.837 63.6495 217.05C63.8028 217.263 64.0128 217.37 64.2795 217.37Z" fill="black"/>
<path d="M106.86 292V299H105.56V293.09H104.08V292H106.86ZM111.429 294.68C111.889 294.68 112.302 294.77 112.669 294.95C113.035 295.123 113.322 295.373 113.529 295.7C113.735 296.027 113.839 296.403 113.839 296.83C113.839 297.283 113.725 297.683 113.499 298.03C113.272 298.37 112.965 298.633 112.579 298.82C112.192 299.007 111.759 299.1 111.279 299.1C110.319 299.1 109.572 298.8 109.039 298.2C108.512 297.6 108.249 296.74 108.249 295.62C108.249 294.833 108.392 294.163 108.679 293.61C108.965 293.05 109.365 292.627 109.879 292.34C110.399 292.047 110.999 291.9 111.679 291.9C112.039 291.9 112.375 291.94 112.689 292.02C113.009 292.093 113.285 292.203 113.519 292.35L113.039 293.33C112.692 293.103 112.249 292.99 111.709 292.99C111.035 292.99 110.509 293.197 110.129 293.61C109.749 294.023 109.559 294.62 109.559 295.4V295.41C109.765 295.17 110.029 294.99 110.349 294.87C110.669 294.743 111.029 294.68 111.429 294.68ZM111.209 298.08C111.615 298.08 111.945 297.973 112.199 297.76C112.452 297.54 112.579 297.25 112.579 296.89C112.579 296.523 112.452 296.233 112.199 296.02C111.945 295.807 111.605 295.7 111.179 295.7C110.759 295.7 110.415 295.813 110.149 296.04C109.889 296.267 109.759 296.553 109.759 296.9C109.759 297.24 109.885 297.523 110.139 297.75C110.399 297.97 110.755 298.08 111.209 298.08ZM115.883 295.77C115.383 295.77 114.979 295.593 114.673 295.24C114.366 294.887 114.213 294.423 114.213 293.85C114.213 293.277 114.366 292.813 114.673 292.46C114.979 292.107 115.383 291.93 115.883 291.93C116.383 291.93 116.786 292.107 117.093 292.46C117.406 292.807 117.563 293.27 117.563 293.85C117.563 294.43 117.406 294.897 117.093 295.25C116.786 295.597 116.383 295.77 115.883 295.77ZM120.083 292H121.063L116.283 299H115.303L120.083 292ZM115.883 295.07C116.156 295.07 116.366 294.963 116.513 294.75C116.666 294.537 116.743 294.237 116.743 293.85C116.743 293.463 116.666 293.163 116.513 292.95C116.366 292.737 116.156 292.63 115.883 292.63C115.623 292.63 115.413 292.74 115.253 292.96C115.099 293.173 115.023 293.47 115.023 293.85C115.023 294.23 115.099 294.53 115.253 294.75C115.413 294.963 115.623 295.07 115.883 295.07ZM120.473 299.07C119.973 299.07 119.569 298.893 119.263 298.54C118.956 298.187 118.803 297.723 118.803 297.15C118.803 296.577 118.956 296.113 119.263 295.76C119.569 295.407 119.973 295.23 120.473 295.23C120.973 295.23 121.376 295.407 121.683 295.76C121.996 296.113 122.153 296.577 122.153 297.15C122.153 297.723 121.996 298.187 121.683 298.54C121.376 298.893 120.973 299.07 120.473 299.07ZM120.473 298.37C120.739 298.37 120.949 298.263 121.103 298.05C121.256 297.83 121.333 297.53 121.333 297.15C121.333 296.77 121.256 296.473 121.103 296.26C120.949 296.04 120.739 295.93 120.473 295.93C120.206 295.93 119.996 296.037 119.843 296.25C119.689 296.463 119.613 296.763 119.613 297.15C119.613 297.537 119.689 297.837 119.843 298.05C119.996 298.263 120.206 298.37 120.473 298.37Z" fill="black"/>
<path d="M138.68 137.41H137.44V139H136.18V137.41H132.34V136.51L135.79 132H137.18L133.93 136.31H136.22V134.9H137.44V136.31H138.68V137.41ZM143.865 135.32C144.231 135.487 144.511 135.713 144.705 136C144.905 136.28 145.005 136.61 145.005 136.99C145.005 137.417 144.885 137.79 144.645 138.11C144.411 138.43 144.078 138.677 143.645 138.85C143.211 139.017 142.708 139.1 142.135 139.1C141.561 139.1 141.058 139.017 140.625 138.85C140.198 138.677 139.868 138.43 139.635 138.11C139.401 137.79 139.285 137.417 139.285 136.99C139.285 136.61 139.381 136.28 139.575 136C139.768 135.713 140.045 135.487 140.405 135.32C140.125 135.167 139.908 134.967 139.755 134.72C139.608 134.467 139.535 134.177 139.535 133.85C139.535 133.457 139.641 133.113 139.855 132.82C140.075 132.527 140.381 132.3 140.775 132.14C141.168 131.98 141.621 131.9 142.135 131.9C142.655 131.9 143.111 131.98 143.505 132.14C143.898 132.3 144.205 132.527 144.425 132.82C144.645 133.113 144.755 133.457 144.755 133.85C144.755 134.177 144.678 134.463 144.525 134.71C144.371 134.957 144.151 135.16 143.865 135.32ZM142.135 132.92C141.728 132.92 141.405 133.007 141.165 133.18C140.931 133.353 140.815 133.597 140.815 133.91C140.815 134.21 140.931 134.45 141.165 134.63C141.405 134.803 141.728 134.89 142.135 134.89C142.548 134.89 142.875 134.803 143.115 134.63C143.355 134.45 143.475 134.21 143.475 133.91C143.475 133.597 143.351 133.353 143.105 133.18C142.865 133.007 142.541 132.92 142.135 132.92ZM142.135 138.08C142.615 138.08 142.995 137.98 143.275 137.78C143.555 137.58 143.695 137.303 143.695 136.95C143.695 136.603 143.555 136.33 143.275 136.13C142.995 135.93 142.615 135.83 142.135 135.83C141.655 135.83 141.278 135.93 141.005 136.13C140.731 136.33 140.595 136.603 140.595 136.95C140.595 137.303 140.731 137.58 141.005 137.78C141.278 137.98 141.655 138.08 142.135 138.08ZM147.311 135.77C146.811 135.77 146.407 135.593 146.101 135.24C145.794 134.887 145.641 134.423 145.641 133.85C145.641 133.277 145.794 132.813 146.101 132.46C146.407 132.107 146.811 131.93 147.311 131.93C147.811 131.93 148.214 132.107 148.521 132.46C148.834 132.807 148.991 133.27 148.991 133.85C148.991 134.43 148.834 134.897 148.521 135.25C148.214 135.597 147.811 135.77 147.311 135.77ZM151.511 132H152.491L147.711 139H146.731L151.511 132ZM147.311 135.07C147.584 135.07 147.794 134.963 147.941 134.75C148.094 134.537 148.171 134.237 148.171 133.85C148.171 133.463 148.094 133.163 147.941 132.95C147.794 132.737 147.584 132.63 147.311 132.63C147.051 132.63 146.841 132.74 146.681 132.96C146.527 133.173 146.451 133.47 146.451 133.85C146.451 134.23 146.527 134.53 146.681 134.75C146.841 134.963 147.051 135.07 147.311 135.07ZM151.901 139.07C151.401 139.07 150.997 138.893 150.691 138.54C150.384 138.187 150.231 137.723 150.231 137.15C150.231 136.577 150.384 136.113 150.691 135.76C150.997 135.407 151.401 135.23 151.901 135.23C152.401 135.23 152.804 135.407 153.111 135.76C153.424 136.113 153.581 136.577 153.581 137.15C153.581 137.723 153.424 138.187 153.111 138.54C152.804 138.893 152.401 139.07 151.901 139.07ZM151.901 138.37C152.167 138.37 152.377 138.263 152.531 138.05C152.684 137.83 152.761 137.53 152.761 137.15C152.761 136.77 152.684 136.473 152.531 136.26C152.377 136.04 152.167 135.93 151.901 135.93C151.634 135.93 151.424 136.037 151.271 136.25C151.117 136.463 151.041 136.763 151.041 137.15C151.041 137.537 151.117 137.837 151.271 138.05C151.424 138.263 151.634 138.37 151.901 138.37Z" fill="black"/>
<path d="M280.63 104.71C281.617 104.71 282.347 104.903 282.82 105.29C283.293 105.67 283.53 106.19 283.53 106.85C283.53 107.27 283.427 107.65 283.22 107.99C283.013 108.33 282.703 108.6 282.29 108.8C281.877 109 281.367 109.1 280.76 109.1C280.26 109.1 279.777 109.03 279.31 108.89C278.843 108.743 278.45 108.543 278.13 108.29L278.68 107.28C278.94 107.493 279.25 107.663 279.61 107.79C279.977 107.91 280.353 107.97 280.74 107.97C281.2 107.97 281.56 107.877 281.82 107.69C282.087 107.497 282.22 107.233 282.22 106.9C282.22 106.54 282.077 106.27 281.79 106.09C281.51 105.903 281.027 105.81 280.34 105.81H278.65L279.01 102H283.12V103.09H280.11L279.96 104.71H280.63ZM289.301 107.9V109H284.141V108.13L286.921 105.49C287.234 105.19 287.444 104.93 287.551 104.71C287.664 104.483 287.721 104.26 287.721 104.04C287.721 103.713 287.611 103.463 287.391 103.29C287.171 103.117 286.848 103.03 286.421 103.03C285.708 103.03 285.161 103.273 284.781 103.76L283.871 103.06C284.144 102.693 284.511 102.41 284.971 102.21C285.438 102.003 285.958 101.9 286.531 101.9C287.291 101.9 287.898 102.08 288.351 102.44C288.804 102.8 289.031 103.29 289.031 103.91C289.031 104.29 288.951 104.647 288.791 104.98C288.631 105.313 288.324 105.693 287.871 106.12L286.001 107.9H289.301ZM291.709 105.77C291.209 105.77 290.806 105.593 290.499 105.24C290.192 104.887 290.039 104.423 290.039 103.85C290.039 103.277 290.192 102.813 290.499 102.46C290.806 102.107 291.209 101.93 291.709 101.93C292.209 101.93 292.612 102.107 292.919 102.46C293.232 102.807 293.389 103.27 293.389 103.85C293.389 104.43 293.232 104.897 292.919 105.25C292.612 105.597 292.209 105.77 291.709 105.77ZM295.909 102H296.889L292.109 109H291.129L295.909 102ZM291.709 105.07C291.982 105.07 292.192 104.963 292.339 104.75C292.492 104.537 292.569 104.237 292.569 103.85C292.569 103.463 292.492 103.163 292.339 102.95C292.192 102.737 291.982 102.63 291.709 102.63C291.449 102.63 291.239 102.74 291.079 102.96C290.926 103.173 290.849 103.47 290.849 103.85C290.849 104.23 290.926 104.53 291.079 104.75C291.239 104.963 291.449 105.07 291.709 105.07ZM296.299 109.07C295.799 109.07 295.396 108.893 295.089 108.54C294.782 108.187 294.629 107.723 294.629 107.15C294.629 106.577 294.782 106.113 295.089 105.76C295.396 105.407 295.799 105.23 296.299 105.23C296.799 105.23 297.202 105.407 297.509 105.76C297.822 106.113 297.979 106.577 297.979 107.15C297.979 107.723 297.822 108.187 297.509 108.54C297.202 108.893 296.799 109.07 296.299 109.07ZM296.299 108.37C296.566 108.37 296.776 108.263 296.929 108.05C297.082 107.83 297.159 107.53 297.159 107.15C297.159 106.77 297.082 106.473 296.929 106.26C296.776 106.04 296.566 105.93 296.299 105.93C296.032 105.93 295.822 106.037 295.669 106.25C295.516 106.463 295.439 106.763 295.439 107.15C295.439 107.537 295.516 107.837 295.669 108.05C295.822 108.263 296.032 108.37 296.299 108.37Z" fill="black"/>
<path d="M254.68 145.41H253.44V147H252.18V145.41H248.34V144.51L251.79 140H253.18L249.93 144.31H252.22V142.9H253.44V144.31H254.68V145.41ZM257.388 142.71C258.374 142.71 259.104 142.903 259.578 143.29C260.051 143.67 260.288 144.19 260.288 144.85C260.288 145.27 260.184 145.65 259.978 145.99C259.771 146.33 259.461 146.6 259.048 146.8C258.634 147 258.124 147.1 257.518 147.1C257.018 147.1 256.534 147.03 256.068 146.89C255.601 146.743 255.208 146.543 254.888 146.29L255.438 145.28C255.698 145.493 256.008 145.663 256.368 145.79C256.734 145.91 257.111 145.97 257.498 145.97C257.958 145.97 258.318 145.877 258.578 145.69C258.844 145.497 258.978 145.233 258.978 144.9C258.978 144.54 258.834 144.27 258.548 144.09C258.268 143.903 257.784 143.81 257.098 143.81H255.408L255.768 140H259.878V141.09H256.868L256.718 142.71H257.388ZM262.5 143.77C262 143.77 261.597 143.593 261.29 143.24C260.983 142.887 260.83 142.423 260.83 141.85C260.83 141.277 260.983 140.813 261.29 140.46C261.597 140.107 262 139.93 262.5 139.93C263 139.93 263.403 140.107 263.71 140.46C264.023 140.807 264.18 141.27 264.18 141.85C264.18 142.43 264.023 142.897 263.71 143.25C263.403 143.597 263 143.77 262.5 143.77ZM266.7 140H267.68L262.9 147H261.92L266.7 140ZM262.5 143.07C262.773 143.07 262.983 142.963 263.13 142.75C263.283 142.537 263.36 142.237 263.36 141.85C263.36 141.463 263.283 141.163 263.13 140.95C262.983 140.737 262.773 140.63 262.5 140.63C262.24 140.63 262.03 140.74 261.87 140.96C261.717 141.173 261.64 141.47 261.64 141.85C261.64 142.23 261.717 142.53 261.87 142.75C262.03 142.963 262.24 143.07 262.5 143.07ZM267.09 147.07C266.59 147.07 266.187 146.893 265.88 146.54C265.573 146.187 265.42 145.723 265.42 145.15C265.42 144.577 265.573 144.113 265.88 143.76C266.187 143.407 266.59 143.23 267.09 143.23C267.59 143.23 267.993 143.407 268.3 143.76C268.613 144.113 268.77 144.577 268.77 145.15C268.77 145.723 268.613 146.187 268.3 146.54C267.993 146.893 267.59 147.07 267.09 147.07ZM267.09 146.37C267.357 146.37 267.567 146.263 267.72 146.05C267.873 145.83 267.95 145.53 267.95 145.15C267.95 144.77 267.873 144.473 267.72 144.26C267.567 144.04 267.357 143.93 267.09 143.93C266.823 143.93 266.613 144.037 266.46 144.25C266.307 144.463 266.23 144.763 266.23 145.15C266.23 145.537 266.307 145.837 266.46 146.05C266.613 146.263 266.823 146.37 267.09 146.37Z" fill="black"/>
<path d="M224.72 9V9.87L222 16H220.61L223.24 10.1H220.49V11.29H219.28V9H224.72ZM228.042 9V16H226.742V10.09H225.262V9H228.042ZM230.99 12.77C230.49 12.77 230.087 12.5933 229.78 12.24C229.474 11.8867 229.32 11.4233 229.32 10.85C229.32 10.2767 229.474 9.81333 229.78 9.46C230.087 9.10667 230.49 8.93 230.99 8.93C231.49 8.93 231.894 9.10667 232.2 9.46C232.514 9.80667 232.67 10.27 232.67 10.85C232.67 11.43 232.514 11.8967 232.2 12.25C231.894 12.5967 231.49 12.77 230.99 12.77ZM235.19 9H236.17L231.39 16H230.41L235.19 9ZM230.99 12.07C231.264 12.07 231.474 11.9633 231.62 11.75C231.774 11.5367 231.85 11.2367 231.85 10.85C231.85 10.4633 231.774 10.1633 231.62 9.95C231.474 9.73667 231.264 9.63 230.99 9.63C230.73 9.63 230.52 9.74 230.36 9.96C230.207 10.1733 230.13 10.47 230.13 10.85C230.13 11.23 230.207 11.53 230.36 11.75C230.52 11.9633 230.73 12.07 230.99 12.07ZM235.58 16.07C235.08 16.07 234.677 15.8933 234.37 15.54C234.064 15.1867 233.91 14.7233 233.91 14.15C233.91 13.5767 234.064 13.1133 234.37 12.76C234.677 12.4067 235.08 12.23 235.58 12.23C236.08 12.23 236.484 12.4067 236.79 12.76C237.104 13.1133 237.26 13.5767 237.26 14.15C237.26 14.7233 237.104 15.1867 236.79 15.54C236.484 15.8933 236.08 16.07 235.58 16.07ZM235.58 15.37C235.847 15.37 236.057 15.2633 236.21 15.05C236.364 14.83 236.44 14.53 236.44 14.15C236.44 13.77 236.364 13.4733 236.21 13.26C236.057 13.04 235.847 12.93 235.58 12.93C235.314 12.93 235.104 13.0367 234.95 13.25C234.797 13.4633 234.72 13.7633 234.72 14.15C234.72 14.5367 234.797 14.8367 234.95 15.05C235.104 15.2633 235.314 15.37 235.58 15.37Z" fill="black"/>
<path d="M193.63 76.71C194.617 76.71 195.347 76.9033 195.82 77.29C196.293 77.67 196.53 78.19 196.53 78.85C196.53 79.27 196.427 79.65 196.22 79.99C196.013 80.33 195.703 80.6 195.29 80.8C194.877 81 194.367 81.1 193.76 81.1C193.26 81.1 192.777 81.03 192.31 80.89C191.843 80.7433 191.45 80.5433 191.13 80.29L191.68 79.28C191.94 79.4933 192.25 79.6633 192.61 79.79C192.977 79.91 193.353 79.97 193.74 79.97C194.2 79.97 194.56 79.8767 194.82 79.69C195.087 79.4967 195.22 79.2333 195.22 78.9C195.22 78.54 195.077 78.27 194.79 78.09C194.51 77.9033 194.027 77.81 193.34 77.81H191.65L192.01 74H196.12V75.09H193.11L192.96 76.71H193.63ZM201.82 77.32C202.187 77.4867 202.467 77.7133 202.66 78C202.86 78.28 202.96 78.61 202.96 78.99C202.96 79.4167 202.84 79.79 202.6 80.11C202.367 80.43 202.033 80.6767 201.6 80.85C201.167 81.0167 200.663 81.1 200.09 81.1C199.517 81.1 199.013 81.0167 198.58 80.85C198.153 80.6767 197.823 80.43 197.59 80.11C197.357 79.79 197.24 79.4167 197.24 78.99C197.24 78.61 197.337 78.28 197.53 78C197.723 77.7133 198 77.4867 198.36 77.32C198.08 77.1667 197.863 76.9667 197.71 76.72C197.563 76.4667 197.49 76.1767 197.49 75.85C197.49 75.4567 197.597 75.1133 197.81 74.82C198.03 74.5267 198.337 74.3 198.73 74.14C199.123 73.98 199.577 73.9 200.09 73.9C200.61 73.9 201.067 73.98 201.46 74.14C201.853 74.3 202.16 74.5267 202.38 74.82C202.6 75.1133 202.71 75.4567 202.71 75.85C202.71 76.1767 202.633 76.4633 202.48 76.71C202.327 76.9567 202.107 77.16 201.82 77.32ZM200.09 74.92C199.683 74.92 199.36 75.0067 199.12 75.18C198.887 75.3533 198.77 75.5967 198.77 75.91C198.77 76.21 198.887 76.45 199.12 76.63C199.36 76.8033 199.683 76.89 200.09 76.89C200.503 76.89 200.83 76.8033 201.07 76.63C201.31 76.45 201.43 76.21 201.43 75.91C201.43 75.5967 201.307 75.3533 201.06 75.18C200.82 75.0067 200.497 74.92 200.09 74.92ZM200.09 80.08C200.57 80.08 200.95 79.98 201.23 79.78C201.51 79.58 201.65 79.3033 201.65 78.95C201.65 78.6033 201.51 78.33 201.23 78.13C200.95 77.93 200.57 77.83 200.09 77.83C199.61 77.83 199.233 77.93 198.96 78.13C198.687 78.33 198.55 78.6033 198.55 78.95C198.55 79.3033 198.687 79.58 198.96 79.78C199.233 79.98 199.61 80.08 200.09 80.08ZM205.266 77.77C204.766 77.77 204.362 77.5933 204.056 77.24C203.749 76.8867 203.596 76.4233 203.596 75.85C203.596 75.2767 203.749 74.8133 204.056 74.46C204.362 74.1067 204.766 73.93 205.266 73.93C205.766 73.93 206.169 74.1067 206.476 74.46C206.789 74.8067 206.946 75.27 206.946 75.85C206.946 76.43 206.789 76.8967 206.476 77.25C206.169 77.5967 205.766 77.77 205.266 77.77ZM209.466 74H210.446L205.666 81H204.686L209.466 74ZM205.266 77.07C205.539 77.07 205.749 76.9633 205.896 76.75C206.049 76.5367 206.126 76.2367 206.126 75.85C206.126 75.4633 206.049 75.1633 205.896 74.95C205.749 74.7367 205.539 74.63 205.266 74.63C205.006 74.63 204.796 74.74 204.636 74.96C204.482 75.1733 204.406 75.47 204.406 75.85C204.406 76.23 204.482 76.53 204.636 76.75C204.796 76.9633 205.006 77.07 205.266 77.07ZM209.856 81.07C209.356 81.07 208.952 80.8933 208.646 80.54C208.339 80.1867 208.186 79.7233 208.186 79.15C208.186 78.5767 208.339 78.1133 208.646 77.76C208.952 77.4067 209.356 77.23 209.856 77.23C210.356 77.23 210.759 77.4067 211.066 77.76C211.379 78.1133 211.536 78.5767 211.536 79.15C211.536 79.7233 211.379 80.1867 211.066 80.54C210.759 80.8933 210.356 81.07 209.856 81.07ZM209.856 80.37C210.122 80.37 210.332 80.2633 210.486 80.05C210.639 79.83 210.716 79.53 210.716 79.15C210.716 78.77 210.639 78.4733 210.486 78.26C210.332 78.04 210.122 77.93 209.856 77.93C209.589 77.93 209.379 78.0367 209.226 78.25C209.072 78.4633 208.996 78.7633 208.996 79.15C208.996 79.5367 209.072 79.8367 209.226 80.05C209.379 80.2633 209.589 80.37 209.856 80.37Z" fill="black"/>
<path d="M166.72 3V3.87L164 10H162.61L165.24 4.1H162.49V5.29H161.28V3H166.72ZM173.11 8.41H171.87V10H170.61V8.41H166.77V7.51L170.22 3H171.61L168.36 7.31H170.65V5.9H171.87V7.31H173.11V8.41ZM174.914 6.77C174.414 6.77 174.011 6.59333 173.704 6.24C173.397 5.88667 173.244 5.42333 173.244 4.85C173.244 4.27667 173.397 3.81333 173.704 3.46C174.011 3.10667 174.414 2.93 174.914 2.93C175.414 2.93 175.817 3.10667 176.124 3.46C176.437 3.80667 176.594 4.27 176.594 4.85C176.594 5.43 176.437 5.89667 176.124 6.25C175.817 6.59667 175.414 6.77 174.914 6.77ZM179.114 3H180.094L175.314 10H174.334L179.114 3ZM174.914 6.07C175.187 6.07 175.397 5.96333 175.544 5.75C175.697 5.53667 175.774 5.23667 175.774 4.85C175.774 4.46333 175.697 4.16333 175.544 3.95C175.397 3.73667 175.187 3.63 174.914 3.63C174.654 3.63 174.444 3.74 174.284 3.96C174.131 4.17333 174.054 4.47 174.054 4.85C174.054 5.23 174.131 5.53 174.284 5.75C174.444 5.96333 174.654 6.07 174.914 6.07ZM179.504 10.07C179.004 10.07 178.601 9.89333 178.294 9.54C177.987 9.18667 177.834 8.72333 177.834 8.15C177.834 7.57667 177.987 7.11333 178.294 6.76C178.601 6.40667 179.004 6.23 179.504 6.23C180.004 6.23 180.407 6.40667 180.714 6.76C181.027 7.11333 181.184 7.57667 181.184 8.15C181.184 8.72333 181.027 9.18667 180.714 9.54C180.407 9.89333 180.004 10.07 179.504 10.07ZM179.504 9.37C179.771 9.37 179.981 9.26333 180.134 9.05C180.287 8.83 180.364 8.53 180.364 8.15C180.364 7.77 180.287 7.47333 180.134 7.26C179.981 7.04 179.771 6.93 179.504 6.93C179.237 6.93 179.027 7.03667 178.874 7.25C178.721 7.46333 178.644 7.76333 178.644 8.15C178.644 8.53667 178.721 8.83667 178.874 9.05C179.027 9.26333 179.237 9.37 179.504 9.37Z" fill="black"/>
<path d="M78.42 213.89C79.0667 213.97 79.56 214.19 79.9 214.55C80.24 214.91 80.41 215.36 80.41 215.9C80.41 216.307 80.3067 216.677 80.1 217.01C79.8933 217.343 79.58 217.61 79.16 217.81C78.7467 218.003 78.24 218.1 77.64 218.1C77.14 218.1 76.6567 218.03 76.19 217.89C75.73 217.743 75.3367 217.543 75.01 217.29L75.57 216.28C75.8233 216.493 76.13 216.663 76.49 216.79C76.8567 216.91 77.2333 216.97 77.62 216.97C78.08 216.97 78.44 216.877 78.7 216.69C78.9667 216.497 79.1 216.237 79.1 215.91C79.1 215.583 78.9733 215.33 78.72 215.15C78.4733 214.963 78.0933 214.87 77.58 214.87H76.94V213.98L78.53 212.09H75.35V211H80.12V211.87L78.42 213.89ZM86.2815 216.9V218H81.1215V217.13L83.9015 214.49C84.2148 214.19 84.4248 213.93 84.5315 213.71C84.6448 213.483 84.7015 213.26 84.7015 213.04C84.7015 212.713 84.5915 212.463 84.3715 212.29C84.1515 212.117 83.8282 212.03 83.4015 212.03C82.6882 212.03 82.1415 212.273 81.7615 212.76L80.8515 212.06C81.1248 211.693 81.4915 211.41 81.9515 211.21C82.4182 211.003 82.9382 210.9 83.5115 210.9C84.2715 210.9 84.8782 211.08 85.3315 211.44C85.7848 211.8 86.0115 212.29 86.0115 212.91C86.0115 213.29 85.9315 213.647 85.7715 213.98C85.6115 214.313 85.3048 214.693 84.8515 215.12L82.9815 216.9H86.2815ZM88.6895 214.77C88.1895 214.77 87.7861 214.593 87.4795 214.24C87.1728 213.887 87.0195 213.423 87.0195 212.85C87.0195 212.277 87.1728 211.813 87.4795 211.46C87.7861 211.107 88.1895 210.93 88.6895 210.93C89.1895 210.93 89.5928 211.107 89.8995 211.46C90.2128 211.807 90.3695 212.27 90.3695 212.85C90.3695 213.43 90.2128 213.897 89.8995 214.25C89.5928 214.597 89.1895 214.77 88.6895 214.77ZM92.8895 211H93.8695L89.0895 218H88.1095L92.8895 211ZM88.6895 214.07C88.9628 214.07 89.1728 213.963 89.3195 213.75C89.4728 213.537 89.5495 213.237 89.5495 212.85C89.5495 212.463 89.4728 212.163 89.3195 211.95C89.1728 211.737 88.9628 211.63 88.6895 211.63C88.4295 211.63 88.2195 211.74 88.0595 211.96C87.9061 212.173 87.8295 212.47 87.8295 212.85C87.8295 213.23 87.9061 213.53 88.0595 213.75C88.2195 213.963 88.4295 214.07 88.6895 214.07ZM93.2795 218.07C92.7795 218.07 92.3761 217.893 92.0695 217.54C91.7628 217.187 91.6095 216.723 91.6095 216.15C91.6095 215.577 91.7628 215.113 92.0695 214.76C92.3761 214.407 92.7795 214.23 93.2795 214.23C93.7795 214.23 94.1828 214.407 94.4895 214.76C94.8028 215.113 94.9595 215.577 94.9595 216.15C94.9595 216.723 94.8028 217.187 94.4895 217.54C94.1828 217.893 93.7795 218.07 93.2795 218.07ZM93.2795 217.37C93.5461 217.37 93.7561 217.263 93.9095 217.05C94.0628 216.83 94.1395 216.53 94.1395 216.15C94.1395 215.77 94.0628 215.473 93.9095 215.26C93.7561 215.04 93.5461 214.93 93.2795 214.93C93.0128 214.93 92.8028 215.037 92.6495 215.25C92.4961 215.463 92.4195 215.763 92.4195 216.15C92.4195 216.537 92.4961 216.837 92.6495 217.05C92.8028 217.263 93.0128 217.37 93.2795 217.37Z" fill="black"/>
</svg>
