<svg width="85" height="49" viewBox="0 0 85 49" fill="none" xmlns="http://www.w3.org/2000/svg">
<circle cx="60.2425" cy="24.2425" r="24.2425" fill="#23B0E6"/>
<path d="M54.928 18.0403C56.02 18.0403 56.968 18.2203 57.772 18.5803C58.588 18.9403 59.212 19.4563 59.644 20.1283C60.076 20.8003 60.292 21.5983 60.292 22.5223C60.292 23.4343 60.076 24.2323 59.644 24.9163C59.212 25.5883 58.588 26.1043 57.772 26.4643C56.968 26.8243 56.02 27.0043 54.928 27.0043H52.084V30.6403H49.744V18.0403H54.928ZM54.82 25.0243C55.84 25.0243 56.614 24.8083 57.142 24.3763C57.67 23.9443 57.934 23.3263 57.934 22.5223C57.934 21.7183 57.67 21.1003 57.142 20.6683C56.614 20.2363 55.84 20.0203 54.82 20.0203H52.084V25.0243H54.82ZM66.7105 30.8203C65.7385 30.8203 64.7965 30.6823 63.8845 30.4063C62.9845 30.1303 62.2705 29.7643 61.7425 29.3083L62.5525 27.4903C63.0685 27.8983 63.6985 28.2343 64.4425 28.4983C65.1985 28.7503 65.9545 28.8763 66.7105 28.8763C67.6465 28.8763 68.3425 28.7263 68.7985 28.4263C69.2665 28.1263 69.5005 27.7303 69.5005 27.2383C69.5005 26.8783 69.3685 26.5843 69.1045 26.3563C68.8525 26.1163 68.5285 25.9303 68.1325 25.7983C67.7365 25.6663 67.1965 25.5163 66.5125 25.3483C65.5525 25.1203 64.7725 24.8923 64.1725 24.6643C63.5845 24.4363 63.0745 24.0823 62.6425 23.6023C62.2225 23.1103 62.0125 22.4503 62.0125 21.6223C62.0125 20.9263 62.1985 20.2963 62.5705 19.7323C62.9545 19.1563 63.5245 18.7003 64.2805 18.3643C65.0485 18.0283 65.9845 17.8603 67.0885 17.8603C67.8565 17.8603 68.6125 17.9563 69.3565 18.1483C70.1005 18.3403 70.7425 18.6163 71.2825 18.9763L70.5445 20.7943C69.9925 20.4703 69.4165 20.2243 68.8165 20.0563C68.2165 19.8883 67.6345 19.8043 67.0705 19.8043C66.1465 19.8043 65.4565 19.9603 65.0005 20.2723C64.5565 20.5843 64.3345 20.9983 64.3345 21.5143C64.3345 21.8743 64.4605 22.1683 64.7125 22.3963C64.9765 22.6243 65.3065 22.8043 65.7025 22.9363C66.0985 23.0683 66.6385 23.2183 67.3225 23.3863C68.2585 23.6023 69.0265 23.8303 69.6265 24.0703C70.2265 24.2983 70.7365 24.6523 71.1565 25.1323C71.5885 25.6123 71.8045 26.2603 71.8045 27.0763C71.8045 27.7723 71.6125 28.4023 71.2285 28.9663C70.8565 29.5303 70.2865 29.9803 69.5185 30.3163C68.7505 30.6523 67.8145 30.8203 66.7105 30.8203Z" fill="#202020"/>
<circle cx="24.2425" cy="24.2425" r="24.2425" fill="#202020"/>
<path d="M23.7436 18.0403L18.2536 30.6403H15.9496L10.4416 18.0403H12.9796L17.1736 27.7603L21.4036 18.0403H23.7436ZM36.2692 18.0403V30.6403H33.9292V25.2403H27.4132V30.6403H25.0732V18.0403H27.4132V23.2423H33.9292V18.0403H36.2692Z" fill="white"/>
</svg>
