<svg width="125" height="49" viewBox="0 0 125 49" fill="none" xmlns="http://www.w3.org/2000/svg">
<circle cx="100.563" cy="24.2425" r="24.2425" fill="#202020"/>
<path d="M100.064 18.0402L94.5739 30.6402H92.2699L86.7619 18.0402H89.2999L93.4939 27.7602L97.7239 18.0402H100.064ZM112.59 18.0402V30.6402H110.25V25.2402H103.734V30.6402H101.394V18.0402H103.734V23.2422H110.25V18.0402H112.59Z" fill="white"/>
<circle cx="62.8985" cy="24.2425" r="23.2425" fill="#633D89" stroke="#633D89" stroke-width="2"/>
<path d="M55.2674 30.8202C54.4634 30.8202 53.7194 30.6642 53.0354 30.3522C52.3634 30.0282 51.8114 29.5782 51.3794 29.0022L52.7114 27.4002C53.4074 28.3602 54.2414 28.8402 55.2134 28.8402C56.5214 28.8402 57.1754 28.0662 57.1754 26.5182V20.0022H52.6934V18.0402H59.5154V26.3922C59.5154 27.8682 59.1554 28.9782 58.4354 29.7222C57.7154 30.4542 56.6594 30.8202 55.2674 30.8202ZM68.6296 30.8202C67.3576 30.8202 66.2056 30.5442 65.1736 29.9922C64.1536 29.4282 63.3496 28.6542 62.7616 27.6702C62.1856 26.6862 61.8976 25.5762 61.8976 24.3402C61.8976 23.1042 62.1916 21.9942 62.7796 21.0102C63.3676 20.0262 64.1716 19.2582 65.1916 18.7062C66.2236 18.1422 67.3756 17.8602 68.6476 17.8602C69.6796 17.8602 70.6216 18.0402 71.4736 18.4002C72.3256 18.7602 73.0456 19.2822 73.6336 19.9662L72.1216 21.3882C71.2096 20.4042 70.0876 19.9122 68.7556 19.9122C67.8916 19.9122 67.1176 20.1042 66.4336 20.4882C65.7496 20.8602 65.2156 21.3822 64.8316 22.0542C64.4476 22.7262 64.2556 23.4882 64.2556 24.3402C64.2556 25.1922 64.4476 25.9542 64.8316 26.6262C65.2156 27.2982 65.7496 27.8262 66.4336 28.2102C67.1176 28.5822 67.8916 28.7682 68.7556 28.7682C70.0876 28.7682 71.2096 28.2702 72.1216 27.2742L73.6336 28.7142C73.0456 29.3982 72.3196 29.9202 71.4556 30.2802C70.6036 30.6402 69.6616 30.8202 68.6296 30.8202Z" fill="#202020"/>
<circle cx="25.2306" cy="24.2425" r="24.2425" fill="#23B0E6"/>
<path d="M20.2484 18.0402C21.3404 18.0402 22.2884 18.2202 23.0924 18.5802C23.9084 18.9402 24.5324 19.4562 24.9644 20.1282C25.3964 20.8002 25.6124 21.5982 25.6124 22.5222C25.6124 23.4342 25.3964 24.2322 24.9644 24.9162C24.5324 25.5882 23.9084 26.1042 23.0924 26.4642C22.2884 26.8242 21.3404 27.0042 20.2484 27.0042H17.4044V30.6402H15.0644V18.0402H20.2484ZM20.1404 25.0242C21.1604 25.0242 21.9344 24.8082 22.4624 24.3762C22.9904 23.9442 23.2544 23.3262 23.2544 22.5222C23.2544 21.7182 22.9904 21.1002 22.4624 20.6682C21.9344 20.2362 21.1604 20.0202 20.1404 20.0202H17.4044V25.0242H20.1404ZM32.031 30.8202C31.059 30.8202 30.117 30.6822 29.205 30.4062C28.305 30.1302 27.591 29.7642 27.063 29.3082L27.873 27.4902C28.389 27.8982 29.019 28.2342 29.763 28.4982C30.519 28.7502 31.275 28.8762 32.031 28.8762C32.967 28.8762 33.663 28.7262 34.119 28.4262C34.587 28.1262 34.821 27.7302 34.821 27.2382C34.821 26.8782 34.689 26.5842 34.425 26.3562C34.173 26.1162 33.849 25.9302 33.453 25.7982C33.057 25.6662 32.517 25.5162 31.833 25.3482C30.873 25.1202 30.093 24.8922 29.493 24.6642C28.905 24.4362 28.395 24.0822 27.963 23.6022C27.543 23.1102 27.333 22.4502 27.333 21.6222C27.333 20.9262 27.519 20.2962 27.891 19.7322C28.275 19.1562 28.845 18.7002 29.601 18.3642C30.369 18.0282 31.305 17.8602 32.409 17.8602C33.177 17.8602 33.933 17.9562 34.677 18.1482C35.421 18.3402 36.063 18.6162 36.603 18.9762L35.865 20.7942C35.313 20.4702 34.737 20.2242 34.137 20.0562C33.537 19.8882 32.955 19.8042 32.391 19.8042C31.467 19.8042 30.777 19.9602 30.321 20.2722C29.877 20.5842 29.655 20.9982 29.655 21.5142C29.655 21.8742 29.781 22.1682 30.033 22.3962C30.297 22.6242 30.627 22.8042 31.023 22.9362C31.419 23.0682 31.959 23.2182 32.643 23.3862C33.579 23.6022 34.347 23.8302 34.947 24.0702C35.547 24.2982 36.057 24.6522 36.477 25.1322C36.909 25.6122 37.125 26.2602 37.125 27.0762C37.125 27.7722 36.933 28.4022 36.549 28.9662C36.177 29.5302 35.607 29.9802 34.839 30.3162C34.071 30.6522 33.135 30.8202 32.031 30.8202Z" fill="#202020"/>
</svg>
