<svg width="49" height="49" viewBox="0 0 49 49" fill="none" xmlns="http://www.w3.org/2000/svg">
<circle cx="24.282" cy="24.2536" r="24.2425" fill="#23B0E6"/>
<path d="M18.9676 18.0514C20.0596 18.0514 21.0076 18.2314 21.8116 18.5914C22.6276 18.9514 23.2516 19.4674 23.6836 20.1394C24.1156 20.8114 24.3316 21.6094 24.3316 22.5334C24.3316 23.4454 24.1156 24.2434 23.6836 24.9274C23.2516 25.5994 22.6276 26.1154 21.8116 26.4754C21.0076 26.8354 20.0596 27.0154 18.9676 27.0154H16.1236V30.6514H13.7836V18.0514H18.9676ZM18.8596 25.0354C19.8796 25.0354 20.6536 24.8194 21.1816 24.3874C21.7096 23.9554 21.9736 23.3374 21.9736 22.5334C21.9736 21.7294 21.7096 21.1114 21.1816 20.6794C20.6536 20.2474 19.8796 20.0314 18.8596 20.0314H16.1236V25.0354H18.8596ZM30.7501 30.8314C29.7781 30.8314 28.8361 30.6934 27.9241 30.4174C27.0241 30.1414 26.3101 29.7754 25.7821 29.3194L26.5921 27.5014C27.1081 27.9094 27.7381 28.2454 28.4821 28.5094C29.2381 28.7614 29.9941 28.8874 30.7501 28.8874C31.6861 28.8874 32.3821 28.7374 32.8381 28.4374C33.3061 28.1374 33.5401 27.7414 33.5401 27.2494C33.5401 26.8894 33.4081 26.5954 33.1441 26.3674C32.8921 26.1274 32.5681 25.9414 32.1721 25.8094C31.7761 25.6774 31.2361 25.5274 30.5521 25.3594C29.5921 25.1314 28.8121 24.9034 28.2121 24.6754C27.6241 24.4474 27.1141 24.0934 26.6821 23.6134C26.2621 23.1214 26.0521 22.4614 26.0521 21.6334C26.0521 20.9374 26.2381 20.3074 26.6101 19.7434C26.9941 19.1674 27.5641 18.7114 28.3201 18.3754C29.0881 18.0394 30.0241 17.8714 31.1281 17.8714C31.8961 17.8714 32.6521 17.9674 33.3961 18.1594C34.1401 18.3514 34.7821 18.6274 35.3221 18.9874L34.5841 20.8054C34.0321 20.4814 33.4561 20.2354 32.8561 20.0674C32.2561 19.8994 31.6741 19.8154 31.1101 19.8154C30.1861 19.8154 29.4961 19.9714 29.0401 20.2834C28.5961 20.5954 28.3741 21.0094 28.3741 21.5254C28.3741 21.8854 28.5001 22.1794 28.7521 22.4074C29.0161 22.6354 29.3461 22.8154 29.7421 22.9474C30.1381 23.0794 30.6781 23.2294 31.3621 23.3974C32.2981 23.6134 33.0661 23.8414 33.6661 24.0814C34.2661 24.3094 34.7761 24.6634 35.1961 25.1434C35.6281 25.6234 35.8441 26.2714 35.8441 27.0874C35.8441 27.7834 35.6521 28.4134 35.2681 28.9774C34.8961 29.5414 34.3261 29.9914 33.5581 30.3274C32.7901 30.6634 31.8541 30.8314 30.7501 30.8314Z" fill="#202020"/>
</svg>
