<svg width="49" height="49" viewBox="0 0 49 49" fill="none" xmlns="http://www.w3.org/2000/svg">
<circle cx="24.6556" cy="24.2425" r="24.2425" fill="#633D89"/>
<path d="M17.0244 30.8203C16.2204 30.8203 15.4764 30.6643 14.7924 30.3523C14.1204 30.0283 13.5684 29.5783 13.1364 29.0023L14.4684 27.4003C15.1644 28.3603 15.9984 28.8403 16.9704 28.8403C18.2784 28.8403 18.9324 28.0663 18.9324 26.5183V20.0023H14.4504V18.0403H21.2724V26.3923C21.2724 27.8683 20.9124 28.9783 20.1924 29.7223C19.4724 30.4543 18.4164 30.8203 17.0244 30.8203ZM30.3865 30.8203C29.1145 30.8203 27.9625 30.5443 26.9305 29.9923C25.9105 29.4283 25.1065 28.6543 24.5185 27.6703C23.9425 26.6863 23.6545 25.5763 23.6545 24.3403C23.6545 23.1043 23.9485 21.9943 24.5365 21.0103C25.1245 20.0263 25.9285 19.2583 26.9485 18.7063C27.9805 18.1423 29.1325 17.8603 30.4045 17.8603C31.4365 17.8603 32.3785 18.0403 33.2305 18.4003C34.0825 18.7603 34.8025 19.2823 35.3905 19.9663L33.8785 21.3883C32.9665 20.4043 31.8445 19.9123 30.5125 19.9123C29.6485 19.9123 28.8745 20.1043 28.1905 20.4883C27.5065 20.8603 26.9725 21.3823 26.5885 22.0543C26.2045 22.7263 26.0125 23.4883 26.0125 24.3403C26.0125 25.1923 26.2045 25.9543 26.5885 26.6263C26.9725 27.2983 27.5065 27.8263 28.1905 28.2103C28.8745 28.5823 29.6485 28.7683 30.5125 28.7683C31.8445 28.7683 32.9665 28.2703 33.8785 27.2743L35.3905 28.7143C34.8025 29.3983 34.0765 29.9203 33.2125 30.2803C32.3605 30.6403 31.4185 30.8203 30.3865 30.8203Z" fill="#202020"/>
</svg>
