<svg width="80" height="83" viewBox="0 0 80 83" fill="none" xmlns="http://www.w3.org/2000/svg">
<path fill-rule="evenodd" clip-rule="evenodd" d="M40.4408 0.0419042C48.1403 -0.059065 55.484 3.27512 61.7201 8.31128C67.9636 13.3533 72.5672 20.3108 75.4248 28.2941C78.4459 36.7342 81.1172 46.1562 78.3221 54.6926C75.5605 63.1266 67.7948 67.7112 60.9626 72.4631C54.6088 76.8822 47.9292 81.085 40.4408 81.0393C32.977 80.9938 26.4694 76.5185 20.0815 72.2137C13.0738 67.4912 4.70986 63.4998 1.76984 54.9786C-1.21448 46.3291 1.57414 36.5913 4.85254 28.0751C7.90231 20.1529 13.2071 13.839 19.5221 8.86465C25.7637 3.94803 32.7992 0.142114 40.4408 0.0419042Z" fill="#633D89"/>
<path d="M39.5343 16.981C39.5343 16.981 26.3643 17.1831 26.1543 35.0779C26.1543 35.0779 19.0443 33.8753 25.1543 42.7747C25.1543 42.7747 25.7543 44.2948 27.6243 42.7747C29.4943 41.2546 25.8743 46.421 34.3743 51.5874C34.3743 51.5874 34.4943 59.8806 32.3743 61.2083C30.2543 62.536 45.2424 66.9476 47.4824 61.0596C46.0334 59.3527 44.0222 57.3502 44.0843 55.1471C44.0843 55.1471 53.5243 54.6853 53.5743 39.0417C53.6243 23.3982 49.0843 16.0767 39.5343 16.981Z" fill="#E8C0B6"/>
<path d="M64.0848 65.5184C64.0848 65.5184 61.4248 50.0191 62.6648 43.2652C63.9048 36.5114 50.4748 16.9424 50.4748 16.9424C50.4748 16.9424 51.7048 8.48567 45.4748 11.0256C45.4748 11.0256 41.2048 14.0081 33.4748 12.3244C25.7448 10.6408 21.0848 20.7235 21.6348 24.0811C21.6348 24.0811 8.83481 28.5645 12.7148 48.1334C16.5948 67.7023 18.4248 77.4387 24.0448 80.2383C29.6648 83.038 36.2348 82.8892 41.7148 75.0481C47.1948 67.2071 52.7148 80.2383 52.7148 80.2383C52.7148 80.2383 65.6648 84.9237 64.0848 65.5184ZM51.3748 49.6246C48.8948 53.3191 47.2248 54.743 44.7648 54.743C42.3048 54.743 46.4824 60.0974 46.4824 60.0974C39.9824 65.3889 33.0648 60.2654 33.0648 60.2654C35.4824 58.6543 35.0648 51.6065 35.0648 51.6065C31.6148 51.3949 28.1548 42.4955 28.1548 42.4955C25.3248 44.6314 24.0448 40.9947 24.0448 40.9947C21.5948 33.6155 26.1948 35.0971 26.1948 35.0971C25.5748 26.4383 35.6748 24.3505 41.7148 23.1672C47.7548 21.9838 48.2448 19.492 48.2448 19.492C55.6748 27.8237 53.8948 45.8725 51.3748 49.6246Z" fill="#202020"/>
<path d="M46.2067 59.7042C40.4974 64.2717 34.9463 61.6073 32.8844 59.7042C22.7884 59.2829 15.0386 74.9124 12.4258 82.7798H69.0443C63.8106 73.1848 51.916 55.1367 46.2067 59.7042Z" fill="#C3DDF7"/>
</svg>
