<svg width="79" height="83" viewBox="0 0 79 83" fill="none" xmlns="http://www.w3.org/2000/svg">
<path fill-rule="evenodd" clip-rule="evenodd" d="M37.6216 0.133567C45.9681 -0.045046 54.5686 0.808586 61.4588 5.74812C68.4622 10.7688 72.6344 18.8608 75.4467 27.2501C78.3171 35.813 80.6105 45.2342 77.5401 53.7206C74.5278 62.0465 66.5407 66.7116 59.4148 71.5617C52.6689 76.1532 45.6402 80.2215 37.6216 80.8905C29.0994 81.6016 19.9829 80.8088 13.152 75.4218C6.37006 70.0733 3.60525 61.0429 1.52122 52.4206C-0.443095 44.2935 -0.618067 35.9213 1.66246 27.8855C3.98989 19.6844 7.90693 11.8273 14.4813 6.75342C21.0809 1.66011 29.427 0.308927 37.6216 0.133567Z" fill="#C3DDF7"/>
<path d="M40.0526 17.5105C40.0526 17.5105 26.8826 17.7125 26.6726 35.6073C26.6726 35.6073 19.5626 34.4047 25.6726 43.304C25.6726 43.304 26.2726 44.8241 28.1426 43.304C30.0126 41.7839 26.3926 46.9504 34.8926 52.1168C34.8926 52.1168 35.0126 60.41 32.8926 61.7376C30.7726 63.0653 44.5126 67.6256 46.7526 61.7376C45.3035 60.0307 44.5405 57.8796 44.6026 55.6765C44.6026 55.6765 54.0426 55.2147 54.0926 39.5711C54.1426 23.9276 49.6026 16.6061 40.0526 17.5105Z" fill="#FDE6D1"/>
<path d="M64.6026 66.0479C64.6026 66.0479 61.9426 50.5486 63.1826 43.7947C64.4226 37.0409 50.9926 17.472 50.9926 17.472C50.9926 17.472 52.2226 9.01521 45.9926 11.5551C45.9926 11.5551 41.7226 14.5376 33.9926 12.8539C26.2626 11.1703 21.6026 21.253 22.1526 24.6107C22.1526 24.6107 9.35264 29.094 13.2326 48.6629C17.1126 68.2318 15.3006 77.9681 20.9206 80.7678C26.5406 83.5675 36.7526 81.9371 42.2326 74.0961C47.7126 66.2551 53.2326 80.7678 53.2326 80.7678C53.2326 80.7678 66.1826 85.4532 64.6026 66.0479ZM51.8926 50.1541C49.4126 53.8486 47.7426 55.2725 45.2826 55.2725C42.8226 55.2725 46.3826 61.3048 46.3826 61.3048C39.8526 64.3834 33.5826 60.7948 33.5826 60.7948C36.4126 58.8707 35.5826 52.136 35.5826 52.136C32.1326 51.9244 28.6726 43.0251 28.6726 43.0251C25.8426 45.1609 24.5626 41.5242 24.5626 41.5242C22.1126 34.145 26.7126 35.6266 26.7126 35.6266C26.0926 26.9678 36.1926 24.8801 42.2326 23.6967C48.2726 22.5133 48.7626 20.0215 48.7626 20.0215C56.1926 28.3532 54.4126 46.402 51.8926 50.1541Z" fill="#DFCA70"/>
<path d="M46.7245 59.8559C41.0152 64.4234 35.4641 61.759 33.4023 59.8559C23.3062 59.4347 15.5565 75.0642 12.9436 82.9316H69.5621C64.3285 73.3365 52.4338 55.2884 46.7245 59.8559Z" fill="#7FEABD"/>
</svg>
