<svg width="81" height="84" viewBox="0 0 81 84" fill="none" xmlns="http://www.w3.org/2000/svg">
<path fill-rule="evenodd" clip-rule="evenodd" d="M40.0416 1.08357C47.9611 0.713158 56.072 1.93581 62.6484 6.77746C69.3706 11.7265 73.641 19.5623 76.4406 27.8811C79.3339 36.4784 81.4721 45.9175 78.7341 54.5755C76.0192 63.1607 68.8947 68.8366 61.9267 73.777C55.2906 78.4821 47.9457 82.2683 40.0416 82.0093C32.2788 81.755 25.1823 77.6413 19.0886 72.3735C13.194 67.2778 9.18605 60.4021 6.27936 52.8229C3.12818 44.6061 -0.650431 35.7236 1.77034 27.2156C4.20005 18.676 11.862 13.5637 18.7969 8.82852C25.2881 4.39626 32.397 1.44113 40.0416 1.08357Z" fill="white" stroke="#DADADA" stroke-width="2"/>
<path d="M40.0675 13.4806C40.0675 13.4806 26.8975 13.6506 26.6875 32.2606C26.6875 32.2606 19.5875 31.0006 25.6875 40.2006C25.6875 40.2006 26.2775 41.7806 28.1475 40.2006C30.0175 38.6206 26.3975 43.9906 34.8975 49.3606C34.8975 49.3606 35.0175 57.9806 32.8975 59.3606C30.7775 60.7406 44.5175 65.4806 46.7675 59.3606C45.3353 57.6016 44.5798 55.3882 44.6375 53.1206C44.6375 53.1206 54.0775 52.6406 54.1375 36.3806C54.1975 20.1206 49.6575 12.4806 40.0675 13.4806Z" fill="#FDE6D1"/>
<path d="M28.4375 36.2806C26.4852 33.9618 25.1368 31.1963 24.5122 28.2302C23.8875 25.2642 24.0062 22.1897 24.8575 19.2806C27.6575 8.85056 41.5375 7.61056 47.6975 9.07056C53.8575 10.5306 55.0875 5.82056 55.0875 5.82056C55.0875 5.82056 61.6975 20.3806 55.0875 23.4006C48.4775 26.4206 28.8875 18.7606 28.4375 36.2806Z" fill="#CD9F94" stroke="#CD9F94" stroke-miterlimit="10"/>
<path d="M45.9717 58.9462C40.2624 63.5137 34.7113 60.8494 32.6495 58.9462C22.5534 58.525 14.8036 74.1545 12.1908 82.0219H68.8093C63.5757 72.4269 51.681 54.3787 45.9717 58.9462Z" fill="#DADADA"/>
</svg>
