<svg width="80" height="83" viewBox="0 0 80 83" fill="none" xmlns="http://www.w3.org/2000/svg">
<path fill-rule="evenodd" clip-rule="evenodd" d="M38.1216 0.0215064C46.4681 -0.157107 55.0686 0.696525 61.9588 5.63606C68.9622 10.6567 73.1344 18.7487 75.9467 27.1381C78.8171 35.701 81.1105 45.1222 78.0401 53.6086C75.0278 61.9344 67.0407 66.5995 59.9148 71.4496C53.1689 76.0411 46.1402 80.1094 38.1216 80.7785C29.5994 81.4895 20.4829 80.6967 13.652 75.3097C6.87006 69.9612 4.10525 60.9309 2.02122 52.3085C0.056905 44.1815 -0.118067 35.8093 2.16246 27.7734C4.48989 19.5723 8.40693 11.7152 14.9813 6.64136C21.5809 1.54805 29.927 0.196867 38.1216 0.0215064Z" fill="#99CCFF"/>
<path d="M40.9126 14.2074C40.9126 14.2074 27.7526 14.4174 27.5426 33.0174C27.5426 33.0174 20.4326 31.7674 26.4926 40.9574C26.4926 40.9574 27.0826 42.5474 28.9626 40.9574C30.8426 39.3674 27.2126 44.7474 35.7026 50.1174C35.7026 50.1174 35.8326 58.7374 33.7026 60.1174C31.5726 61.4974 45.3226 66.2374 47.5726 60.1174C46.1464 58.3518 45.3949 56.1363 45.4526 53.8674C45.4526 53.8674 54.8926 53.3974 54.9426 37.1274C54.9926 21.0474 50.5026 13.2974 40.9126 14.2074Z" fill="#FDE6D1"/>
<path d="M40.2595 11.6861C37.3029 10.3116 32.3643 10.856 29.4036 12.2226C27.3676 13.1624 25.3826 14.3729 23.4706 16.9214C17.545 22.0902 21.982 55.5363 23.967 59.2107C24.4431 60.0921 25.3893 59.5339 26.9308 59.6806C28.7851 59.8571 30.1571 60.0408 32.3664 59.6806C34.8315 59.2107 35.3252 55.9216 35.3252 55.9216C35.3291 54.5119 35.819 52.1625 35.3291 49.8131C35.3291 48.8733 31.8034 49.0801 29.4036 40.4155C29.4036 40.4155 27.505 42.811 26.3496 40.6401C25.1941 38.4693 22.577 35.1237 25.8163 33.7047C27.0804 33.1502 28.9963 34.9076 31.3072 31.0452C33.2824 27.6996 34.5761 18.8282 41.904 19.4579C49.2318 20.0875 49.3306 18.5181 49.3306 18.5181C49.3306 18.5181 55.1855 21.6766 54.0893 41.3552C54.0628 41.9908 53.7725 43.0913 53.5955 43.7046C52.9042 46.1668 51.166 52.7734 45.201 53.1023C45.201 53.1023 45.0676 55.731 46.1886 57.3312C47.0122 58.5067 46.5379 58.9992 48.1638 58.7408C50.6282 58.3493 55.6144 60.4497 56.065 59.2107C57.0526 56.4948 66.4304 7.0539 40.2595 11.6861Z" fill="#DFCA70"/>
<path d="M47.2245 59.7438C41.5152 64.3113 35.9641 61.647 33.9023 59.7438C23.8062 59.3226 16.0565 74.9521 13.4436 82.8195H70.0621C64.8285 73.2245 52.9338 55.1763 47.2245 59.7438Z" fill="#FFB6B3"/>
</svg>
