<svg width="80" height="82" viewBox="0 0 80 82" fill="none" xmlns="http://www.w3.org/2000/svg">
<path fill-rule="evenodd" clip-rule="evenodd" d="M40.4408 0.912021C48.1403 0.811052 55.484 4.14523 61.7201 9.18139C67.9636 14.2234 72.5672 21.1809 75.4248 29.1642C78.4459 37.6043 81.1172 47.0263 78.3221 55.5627C75.5605 63.9967 67.7948 68.5814 60.9626 73.3332C54.6088 77.7523 47.9292 81.9551 40.4408 81.9094C32.977 81.8639 26.4694 77.3886 20.0815 73.0838C13.0738 68.3613 4.70986 64.3699 1.76984 55.8488C-1.21448 47.1992 1.57414 37.4614 4.85254 28.9453C7.90231 21.0231 13.2071 14.7092 19.5221 9.73477C25.7637 4.81815 32.7992 1.01223 40.4408 0.912021Z" fill="#C4C4C4"/>
<path d="M40.5744 13.2386C40.5744 13.2386 27.4044 13.4486 27.1944 32.0886C27.1944 32.0886 20.0944 30.8386 26.1944 40.0886C26.1944 40.0886 26.7844 41.6686 28.6544 40.0886C30.5244 38.5086 26.9044 43.8686 35.4044 49.2486C35.4044 49.2486 35.5244 57.8686 33.4044 59.2486C31.2844 60.6286 45.0244 65.3686 47.2744 59.2486C45.8431 57.4852 45.0878 55.269 45.1444 52.9986C45.1444 52.9986 54.5844 52.5286 54.6444 36.2586C54.6544 20.0886 50.1544 12.2986 40.5744 13.2386Z" fill="#E8C0B6"/>
<path d="M38.8845 11.6586C38.8845 11.6586 36.0445 9.84857 32.7745 12.7786C29.5045 15.7086 27.6045 13.7786 26.2245 18.2886C24.8445 22.7986 24.4645 28.4386 25.1545 30.0886C25.8445 31.7386 32.0245 32.4686 33.5445 29.8386C34.8945 27.4986 35.2345 33.4286 38.2845 29.5786C40.9345 26.2286 41.8945 33.7386 44.5645 30.8086C47.2345 27.8786 46.9745 31.8086 47.9145 30.8986C48.2145 30.6186 52.1845 27.0786 53.7645 29.2286C55.3445 31.3786 55.7645 30.4586 55.9445 26.2986C56.1045 22.6786 56.6945 8.21857 38.8845 11.6586Z" fill="#202020"/>
<path d="M47.0984 58.8342C41.3891 63.4017 35.838 60.7373 33.7762 58.8342C23.6801 58.4129 15.9304 74.0424 13.3175 81.9098H69.936C64.7024 72.3148 52.8077 54.2667 47.0984 58.8342Z" fill="#C3DDF7"/>
</svg>
