<svg width="90" height="84" viewBox="0 0 90 84" fill="none" xmlns="http://www.w3.org/2000/svg">
<path fill-rule="evenodd" clip-rule="evenodd" d="M39.3169 0.0352434C47.2623 -0.268719 55.182 1.36897 61.9484 5.90302C69.1041 10.6979 75.7599 17.2777 78.1267 26.0411C80.4643 34.6963 77.7253 43.8511 74.4341 52.1324C71.394 59.7822 66.371 66.0126 60.2472 71.0303C54.0222 76.1311 47.0976 80.3509 39.3169 80.9073C31.1841 81.4889 22.9002 79.3438 16.2834 74.1745C9.64715 68.99 5.63435 60.9616 3.01805 52.5494C0.375489 44.0528 -1.36667 34.8056 1.41273 26.3607C4.15315 18.0342 10.9561 12.3549 17.8147 7.59142C24.3206 3.07289 31.5995 0.330481 39.3169 0.0352434Z" fill="#FFFF99"/>
<path d="M56.9745 32.6798C55.5026 32.6798 58.8699 23.4623 53.6073 22.7199C53.6073 22.7199 49.7158 16.3481 47.4071 16.5337C45.0985 16.7193 44.7759 17.17 42.2454 16.5337C42.2454 16.5337 35.4101 11.2842 33.4139 15.8974C33.4139 15.8974 29.2099 14.3243 25.4192 19.9538C21.6286 25.5833 19.2191 20.2278 20.5801 27.5982C20.5801 27.5982 17.0112 30.8328 18.2714 35.1631C18.2714 35.1631 13.6439 37.1869 16.9003 42.2331C20.1566 47.2794 10.9119 43.8946 17.3237 52.193C17.3237 52.193 14.1682 58.6002 16.3761 59.7756C18.5839 60.951 13.2205 65.193 16.6886 66.6688C20.1567 68.1447 14.6723 69.7089 19.7131 71.1848C19.7131 71.1848 19.5014 76.9027 23.7457 71.8299C23.7457 71.8299 25.641 73.0318 29.3208 71.2732C33.0006 69.5145 36.267 68.6926 37.9506 70.1685C39.6342 71.6443 43.7274 71.1848 46.2578 69.7089C48.7883 68.2331 49.7259 74.2249 51.1978 70.8136C52.6697 67.4023 51.1877 67.9149 54.807 67.0312C58.4263 66.1474 61.1181 62.9748 60.0595 60.8449C59.4004 59.6952 59.0766 58.4203 59.1171 57.1341C59.1575 55.8479 59.561 54.5905 60.2914 53.4744C62.0658 50.3371 58.9102 47.5887 61.7431 43.9388C64.5761 40.2889 58.4465 32.6798 56.9745 32.6798ZM53.1637 51.592C48.7379 57.0271 47.1753 54.2433 46.1066 56.0727C45.038 57.902 48.4153 61.5166 48.4153 61.5166C43.0015 67.3758 34.7648 62.0645 34.7648 62.0645C34.7648 62.0645 38.0111 53.227 36.1763 52.5377C32.5368 51.1413 29.7442 44.6988 30.218 44.2304C27.738 46.6165 25.4595 43.0374 24.8647 39.5731C24.4514 37.1869 28.1513 38.1767 28.1513 38.1767C27.9699 35.0659 30.2987 35.2515 29.9559 34.1557C29.6938 33.3338 29.1091 26.7322 32.6679 27.0857C36.2267 27.4392 32.7485 22.3753 37.2651 23.5507C41.7816 24.7261 41.701 21.7125 41.701 21.7125C42.6587 21.3325 43.2636 22.3223 44.6549 23.1618C46.0461 24.0014 48.3851 23.5418 48.3851 23.5418C56.8233 25.4949 57.8819 45.8212 53.1637 51.592Z" fill="#202020"/>
<path d="M41.4513 21.0679C41.4513 21.0679 27.8344 21.2563 27.6171 37.9491C27.6171 37.9491 20.2602 36.8189 26.5306 45.0711C26.5306 45.0711 27.1411 46.4883 29.0864 45.0711C31.0316 43.6538 27.2756 48.4706 36.0604 53.2874C36.0604 53.2874 36.1949 61.0194 33.9909 62.2572C31.787 63.495 47.6719 67.7557 50 62.2572C48.5234 60.6774 46.0881 58.6927 46.1489 56.6601C46.1489 56.6601 55.9373 56.1847 55.9994 41.6356C56.0615 27.0866 51.4052 20.2337 41.4513 21.0679Z" fill="#CD9F94"/>
<path d="M48.0085 60.7337C42.2608 65.339 36.6723 62.6526 34.5965 60.7337C24.4324 60.309 16.6305 76.0676 14 84H71C65.7311 74.3257 53.7563 56.1285 48.0085 60.7337Z" fill="#F8F8C8"/>
</svg>
