<svg width="88" height="49" viewBox="0 0 88 49" fill="none" xmlns="http://www.w3.org/2000/svg">
<circle cx="63.1599" cy="24.242" r="23.2425" fill="#5EAE88" stroke="#C4C4C4" stroke-width="2"/>
<path d="M50.7971 19.8397H52.6171V28.0997H57.7411V29.6397H50.7971V19.8397ZM60.9979 21.3657V24.3477H65.7299V25.8877H60.9979V29.6397H59.1779V19.8397H66.3319V21.3657H60.9979ZM74.0242 27.3717H69.1242L68.1582 29.6397H66.2822L70.6922 19.8397H72.4842L76.9082 29.6397H75.0042L74.0242 27.3717ZM73.4222 25.9437L71.5742 21.6597L69.7402 25.9437H73.4222Z" fill="#202020"/>
<circle cx="25.1599" cy="24.242" r="24.2425" fill="#99CCFF"/>
<path d="M22.6505 30.6397L20.0765 26.9497C19.9685 26.9617 19.8065 26.9677 19.5905 26.9677H16.7465V30.6397H14.4065V18.0397H19.5905C20.6825 18.0397 21.6305 18.2197 22.4345 18.5797C23.2505 18.9397 23.8745 19.4557 24.3065 20.1277C24.7385 20.7997 24.9545 21.5977 24.9545 22.5217C24.9545 23.4697 24.7205 24.2857 24.2525 24.9697C23.7965 25.6537 23.1365 26.1637 22.2725 26.4997L25.1705 30.6397H22.6505ZM22.5965 22.5217C22.5965 21.7177 22.3325 21.0997 21.8045 20.6677C21.2765 20.2357 20.5025 20.0197 19.4825 20.0197H16.7465V25.0417H19.4825C20.5025 25.0417 21.2765 24.8257 21.8045 24.3937C22.3325 23.9497 22.5965 23.3257 22.5965 22.5217ZM32.8327 26.1937V30.6397H30.4927V26.2297L25.5427 18.0397H28.0447L31.7347 24.1777L35.4607 18.0397H37.7647L32.8327 26.1937Z" fill="#202020"/>
</svg>
