<svg width="89" height="48" viewBox="0 0 89 48" fill="none" xmlns="http://www.w3.org/2000/svg">
<path d="M87.0128 24C87.0128 36.6865 76.5457 47 63.5977 47C50.6497 47 40.1826 36.6865 40.1826 24C40.1826 11.3135 50.6497 1 63.5977 1C76.5457 1 87.0128 11.3135 87.0128 24Z" fill="#FFFF99" stroke="#C4C4C4" stroke-width="2"/>
<path d="M60.7012 26.2559H55.8012L54.8352 28.5239H52.9592L57.3692 18.7239H59.1612L63.5852 28.5239H61.6812L60.7012 26.2559ZM60.0992 24.8279L58.2512 20.5439L56.4172 24.8279H60.0992ZM71.7755 23.4279C72.3169 23.6052 72.7462 23.9039 73.0635 24.3239C73.3809 24.7345 73.5395 25.2479 73.5395 25.8639C73.5395 26.7132 73.2129 27.3712 72.5595 27.8379C71.9062 28.2952 70.9542 28.5239 69.7035 28.5239H64.8315V18.7239H69.4235C70.5809 18.7239 71.4722 18.9525 72.0975 19.4099C72.7229 19.8579 73.0355 20.4785 73.0355 21.2719C73.0355 21.7572 72.9235 22.1865 72.6995 22.5599C72.4755 22.9332 72.1675 23.2225 71.7755 23.4279ZM66.6515 20.1519V22.8539H69.2275C69.8622 22.8539 70.3475 22.7419 70.6835 22.5179C71.0289 22.2845 71.2015 21.9485 71.2015 21.5099C71.2015 21.0619 71.0289 20.7259 70.6835 20.5019C70.3475 20.2685 69.8622 20.1519 69.2275 20.1519H66.6515ZM69.5915 27.0959C71.0009 27.0959 71.7055 26.6245 71.7055 25.6819C71.7055 24.7392 71.0009 24.2679 69.5915 24.2679H66.6515V27.0959H69.5915Z" fill="#202020"/>
<ellipse cx="25.3272" cy="24" rx="24.4151" ry="24" fill="#DADADA"/>
<path d="M18.0768 25.2499L16.0788 27.3019V30.5239H13.7388V17.9239H16.0788V24.3859L22.3068 17.9239H24.9348L19.6428 23.5579L25.2588 30.5239H22.5228L18.0768 25.2499ZM34.999 24.0799H37.213V29.1019C36.565 29.6179 35.809 30.0139 34.945 30.2899C34.081 30.5659 33.193 30.7039 32.281 30.7039C30.997 30.7039 29.839 30.4279 28.807 29.8759C27.775 29.3119 26.965 28.5379 26.377 27.5539C25.789 26.5699 25.495 25.4599 25.495 24.2239C25.495 22.9879 25.789 21.8779 26.377 20.8939C26.965 19.9099 27.775 19.1419 28.807 18.5899C29.851 18.0259 31.021 17.7439 32.317 17.7439C33.373 17.7439 34.333 17.9179 35.197 18.2659C36.061 18.6139 36.787 19.1239 37.375 19.7959L35.899 21.2359C34.939 20.2759 33.781 19.7959 32.425 19.7959C31.537 19.7959 30.745 19.9819 30.049 20.3539C29.365 20.7259 28.825 21.2479 28.429 21.9199C28.045 22.5919 27.853 23.3599 27.853 24.2239C27.853 25.0639 28.045 25.8199 28.429 26.4919C28.825 27.1639 29.365 27.6919 30.049 28.0759C30.745 28.4599 31.531 28.6519 32.407 28.6519C33.391 28.6519 34.255 28.4359 34.999 28.0039V24.0799Z" fill="#202020"/>
</svg>
