<svg width="81" height="84" viewBox="0 0 81 84" fill="none" xmlns="http://www.w3.org/2000/svg">
<path fill-rule="evenodd" clip-rule="evenodd" d="M40.0416 1.06172C47.9611 0.691307 56.072 1.91396 62.6484 6.75561C69.3706 11.7046 73.641 19.5405 76.4406 27.8593C79.3339 36.4566 81.4721 45.8957 78.7341 54.5537C76.0192 63.1389 68.8947 68.8147 61.9267 73.7552C55.2906 78.4603 47.9457 82.2464 40.0416 81.9875C32.2788 81.7331 25.1823 77.6195 19.0886 72.3517C13.194 67.256 9.18605 60.3803 6.27936 52.801C3.12818 44.5842 -0.650431 35.7018 1.77034 27.1937C4.20005 18.6542 11.862 13.5419 18.7969 8.80667C25.2881 4.37441 32.397 1.41928 40.0416 1.06172Z" fill="#575555" stroke="#DADADA" stroke-width="2"/>
<path d="M43.9205 16.5105C43.9205 16.5105 30.7505 16.7126 30.5405 34.6074C30.5405 34.6074 23.4305 33.4048 29.5405 42.3041C29.5405 42.3041 30.1305 43.8242 32.0005 42.3041C33.8705 40.784 30.2505 45.9408 38.7505 51.1168C38.7505 51.1168 38.8705 59.41 36.7505 60.7377C34.6305 62.0654 48.3705 66.6257 50.6105 60.7377C49.1844 59.039 48.4329 56.9076 48.4905 54.7247C48.4905 54.7247 57.9305 54.2725 57.9905 38.6193C58.0005 23.0624 53.5005 15.6062 43.9205 16.5105Z" fill="#E8C0B6"/>
<path d="M48.6706 16.27C48.6706 16.27 39.0806 12.4217 35.1706 15.1829C31.2606 17.944 31.8906 20.5802 28.4206 20.4647C24.9506 20.3493 15.3506 21.7539 18.1606 37.8881C18.1606 37.8881 27.3106 29.3833 26.4306 22.2831C26.4306 22.2831 27.2506 31.7596 24.8506 34.6651C22.4506 37.5706 17.3406 51.7325 26.6806 56.1004C36.0206 60.4683 38.8006 56.6488 38.8006 56.6488L39.3006 51.1841C39.3006 51.1841 33.0906 46.0081 32.5206 42.0636C32.0706 42.0636 29.2306 44.2667 27.9206 39.514C26.6606 34.9249 28.3806 33.3759 31.3506 35.4636C31.3506 35.4636 31.1606 38.9849 31.9206 38.6193C32.6806 38.2537 34.0706 28.0363 36.4606 27.3244C38.8506 26.6124 49.1606 25.6023 48.6706 16.27Z" fill="#202020"/>
<path d="M48.6406 18.4442C48.6406 18.4442 55.9605 23.678 57.4905 30.4127C57.4905 30.4127 60.2305 19.5121 52.2205 16.9433C52.2205 16.9433 47.2706 15.0191 48.6406 18.4442Z" fill="#202020"/>
<path d="M50.4411 60.6236C44.7318 65.1911 39.1807 62.5267 37.1188 60.6236C27.0227 60.2024 19.273 75.8319 16.6602 83.6993H73.2787C68.045 74.1042 56.1504 56.0561 50.4411 60.6236Z" fill="#DADADA"/>
</svg>
