<svg width="79" height="82" viewBox="0 0 79 82" fill="none" xmlns="http://www.w3.org/2000/svg">
<path fill-rule="evenodd" clip-rule="evenodd" d="M39.3169 0.0352434C47.2623 -0.268719 55.182 1.36897 61.9484 5.90302C69.1041 10.6979 75.7599 17.2777 78.1267 26.0411C80.4643 34.6963 77.7253 43.8511 74.4341 52.1324C71.394 59.7822 66.371 66.0126 60.2472 71.0303C54.0222 76.1311 47.0976 80.3509 39.3169 80.9073C31.1841 81.4889 22.9002 79.3438 16.2834 74.1745C9.64715 68.99 5.63435 60.9616 3.01805 52.5494C0.375489 44.0528 -1.36667 34.8056 1.41273 26.3607C4.15315 18.0342 10.9561 12.3549 17.8147 7.59142C24.3206 3.07289 31.5995 0.330481 39.3169 0.0352434Z" fill="#5EAE88"/>
<path d="M41.2731 20.1954C41.2731 20.1954 29.1401 20.3791 28.9466 36.6582C28.9466 36.6582 22.9896 35.5431 28.0155 43.6038C28.7652 44.8062 29.3862 46.4312 31.2138 44.9464C32.1276 44.4515 30.7569 48.9057 36.4733 51.5815C36.4733 51.5815 36.5839 59.1219 34.6308 60.329C32.6777 61.5362 45.3359 65.6825 47.4087 60.329C46.0893 58.7903 45.2591 55.7682 45.3333 53C46.3 52 54.5159 57.3248 54.9728 39.0075C55.4297 20.6903 50.0988 19.3206 41.2731 20.1954Z" fill="#EED0BE"/>
<path d="M47.0085 59.6726C41.2608 63.894 37.5 62.5 33.5965 59.6726C29.693 56.8452 15.6305 73.7286 13 81H70C64.7311 72.1319 52.7563 55.4511 47.0085 59.6726Z" fill="#C3EACB"/>
<path d="M61.9594 20.661C61.4784 26.2543 56.1874 27.2712 52.3393 27.2712C48.4913 27.2712 44.1623 26.2543 35.9852 27.2712C27.8082 28.2882 32.4007 40 30.5 40C29.5197 40 27.462 37.5339 26.5 35.5C25.538 33.4661 25.087 31.0444 25.0046 27.3781C24.9222 23.7118 25.9308 19.2812 29.7322 17.1017C33.5336 14.9222 36.645 15.3158 40.7953 14.5593C46.019 13.6072 48.0103 11 53.3014 11C58.5924 11 62.4404 15.0678 61.9594 20.661Z" fill="#846A42"/>
</svg>
