<svg width="79" height="82" viewBox="0 0 79 82" fill="none" xmlns="http://www.w3.org/2000/svg">
<path fill-rule="evenodd" clip-rule="evenodd" d="M37.6216 0.0215064C45.9681 -0.157107 54.5686 0.696526 61.4588 5.63606C68.4622 10.6567 72.6344 18.7487 75.4467 27.1381C78.3171 35.701 80.6105 45.1222 77.5401 53.6086C74.5278 61.9344 66.5407 66.5995 59.4148 71.4496C52.6689 76.0411 45.6402 80.1094 37.6216 80.7785C29.0994 81.4896 19.9829 80.6967 13.152 75.3097C6.37007 69.9612 3.60525 60.9308 1.52122 52.3085C-0.443095 44.1815 -0.618067 35.8093 1.66246 27.7734C3.98989 19.5723 7.90693 11.7152 14.4813 6.64136C21.0809 1.54805 29.427 0.196867 37.6216 0.0215064Z" fill="#E06B65"/>
<path d="M38.794 14.7824C38.794 14.7824 25.624 14.9844 25.414 32.8889C25.414 32.8889 18.314 31.6766 24.414 40.5278C24.414 40.5278 25.004 42.0479 26.874 40.5278C28.744 39.0077 25.104 44.1357 33.584 49.3021C33.584 49.3021 33.704 57.5953 31.584 58.923C29.464 60.2506 43.204 64.8109 45.454 58.923C44.0218 57.2306 43.2663 55.1011 43.324 52.9195C43.324 52.9195 52.764 52.4577 52.824 36.8142C52.884 21.1706 48.374 13.8203 38.794 14.7824Z" fill="#E9BBAF"/>
<path d="M54.5241 12C54.5241 12 50.8601 11.8758 51.0001 10.5C51.1401 9.12419 46.8601 4.2204 44.0001 5.49998C44.0001 5.49998 35.1841 2.37256 30.3341 6.49994C30.3341 6.49994 24.6401 8.01687 22.5001 11.9999C22.5001 11.9999 15.5001 11.7652 17.5001 18.4999C17.5001 18.4999 12.6401 22.7853 16.5001 27.9999C16.5001 27.9999 17.0541 29.9353 20.9141 32.4079C24.7741 34.8804 25.0541 31.8595 25.9141 36.2562C26.7741 40.653 28.1941 32.1288 28.0541 30.4837C27.9141 28.8385 28.0541 25.2595 30.3341 26.2216C32.6141 27.1837 29.4841 21.517 34.1041 23.749C38.7241 25.9811 40.9541 19.4196 42.8141 22.0653C44.6741 24.7111 48.6641 25.9137 49.6641 23.2006C50.6641 20.4875 52.5241 24.3647 54.5241 22.0653C56.5241 19.7659 59.0941 16.2235 54.5241 12Z" fill="#202020"/>
<path d="M45.2809 58.8571C39.5716 63.4246 34.0205 60.7602 31.9587 58.8571C21.8626 58.4359 14.1129 74.0654 11.5 81.9328H68.1185C62.8849 72.3378 50.9902 54.2896 45.2809 58.8571Z" fill="#FFB6B2"/>
</svg>
