<svg width="79" height="84" viewBox="0 0 79 84" fill="none" xmlns="http://www.w3.org/2000/svg">
<path fill-rule="evenodd" clip-rule="evenodd" d="M37.6216 0.606223C45.9681 0.42761 54.5686 1.28124 61.4588 6.22078C68.4622 11.2414 72.6344 19.3334 75.4467 27.7228C78.3171 36.2857 80.6105 45.7069 77.5401 54.1933C74.5278 62.5191 66.5407 67.1842 59.4148 72.0344C52.6689 76.6259 45.6402 80.6941 37.6216 81.3632C29.0994 82.0743 19.9829 81.2815 13.152 75.8944C6.37006 70.5459 3.60525 61.5156 1.52122 52.8932C-0.443095 44.7662 -0.618067 36.394 1.66246 28.3581C3.98989 20.157 7.90693 12.2999 14.4813 7.22608C21.0809 2.13276 29.427 0.781583 37.6216 0.606223Z" fill="#7460EC"/>
<path d="M40.0524 17.9831C40.0524 17.9831 26.8824 18.1852 26.6724 36.08C26.6724 36.08 19.5624 34.8774 25.6724 43.7767C25.6724 43.7767 26.2724 45.2968 28.1424 43.7767C30.0124 42.2566 26.3924 47.423 34.8924 52.5894C34.8924 52.5894 35.0124 60.8826 32.8924 62.2103C30.7724 63.538 44.5124 68.0983 46.7524 62.2103C45.3033 60.5034 44.5402 58.3522 44.6024 56.1492C44.6024 56.1492 54.0424 55.6873 54.0924 40.0438C54.1423 24.4002 49.6024 17.0788 40.0524 17.9831Z" fill="#FFCFB4"/>
<path d="M64.6024 66.5205C64.6024 66.5205 61.9424 51.0213 63.1824 44.2674C64.4224 37.5135 50.9924 17.9446 50.9924 17.9446C50.9924 17.9446 52.2224 9.48787 45.9924 12.0278C45.9924 12.0278 41.7224 15.0103 33.9924 13.3266C26.2624 11.6429 21.6024 21.7256 22.1524 25.0833C22.1524 25.0833 9.35239 29.5667 13.2324 49.1356C17.1124 68.7044 15.3003 78.4408 20.9203 81.2405C26.5403 84.0402 36.7524 82.4098 42.2324 74.5688C47.7124 66.7278 53.2324 81.2405 53.2324 81.2405C53.2324 81.2405 66.1824 85.9258 64.6024 66.5205ZM51.8924 50.6268C49.4124 54.3212 47.7424 55.7451 45.2824 55.7451C42.8224 55.7451 46.3824 61.7774 46.3824 61.7774C39.8524 64.8561 33.5824 61.2675 33.5824 61.2675C36.4124 59.3433 35.5824 52.6087 35.5824 52.6087C32.1324 52.397 28.6724 43.4977 28.6724 43.4977C25.8424 45.6336 24.5624 41.9969 24.5624 41.9969C22.1124 34.6176 26.7124 36.0993 26.7124 36.0993C26.0924 27.4405 36.1924 25.3527 42.2324 24.1693C48.2724 22.986 48.7624 20.4942 48.7624 20.4942C56.1924 28.8259 54.4124 46.8746 51.8924 50.6268Z" fill="#FCC841"/>
<path d="M46.7243 60.3285C41.015 64.896 35.4639 62.2317 33.402 60.3285C23.3059 59.9073 15.5562 75.5368 12.9434 83.4042H69.5619C64.3282 73.8092 52.4336 55.761 46.7243 60.3285Z" fill="#B7A6FC"/>
</svg>
