<svg width="79" height="84" viewBox="0 0 79 84" fill="none" xmlns="http://www.w3.org/2000/svg">
<path fill-rule="evenodd" clip-rule="evenodd" d="M38.2771 0.121239C46.5944 -0.578627 54.94 1.76903 61.9189 6.7106C69.1418 11.8249 75.1578 19.1217 77.7068 28.0403C80.2348 36.8854 78.7786 46.3968 75.7346 55.0498C72.8062 63.3739 67.8978 70.8439 60.9598 75.6451C54.2798 80.2678 46.2079 80.8814 38.2771 80.971C30.2629 81.0615 21.7365 81.2468 15.2473 76.1615C8.75497 71.0737 6.32806 62.23 3.84403 53.9873C1.35793 45.7378 -1.55175 37.0229 0.970142 28.786C3.48632 20.5679 10.6392 15.4911 17.1659 10.4764C23.6227 5.5153 30.3797 0.785774 38.2771 0.121239Z" fill="#99CCFF"/>
<path d="M44.236 60.6645C38.5267 65.232 32.9756 62.5676 30.9137 60.6645C20.8177 60.2432 13.0679 75.8727 10.4551 83.7401H67.0736C61.8399 74.1451 49.9453 56.097 44.236 60.6645Z" fill="#C3DDF6"/>
<path d="M38.2733 15.6484C38.2733 15.6484 25.1033 15.8504 24.8633 33.7838C24.8633 33.7838 17.7533 32.5716 23.8633 41.4228C23.8633 41.4228 24.4533 42.9525 26.3233 41.4228C28.1933 39.8931 24.5733 45.0691 33.0733 50.2355C33.0733 50.2355 33.1933 58.5287 31.0733 59.8564C28.9533 61.1841 42.6933 65.7444 44.9333 59.8564C43.5071 58.1577 42.7556 56.0263 42.8133 53.8434C42.8133 53.8434 52.2533 53.3815 52.3033 37.738C52.3533 22.0944 47.8633 14.744 38.2733 15.6484Z" fill="#E8C0B6"/>
<path d="M30.3848 19.0737C34.3848 23.7403 48.6848 30.2737 51.8848 31.0737C55.8848 32.0737 46.8848 4.5741 30.3848 19.0737Z" fill="#282323"/>
<path d="M38.1599 32.3755C38.0502 32.4996 38.062 32.6892 38.1861 32.7989C38.3103 32.9086 38.4999 32.8969 38.6096 32.7727L38.1599 32.3755ZM42.1599 32.7727C42.2696 32.8969 42.4592 32.9086 42.5834 32.7989C42.7076 32.6892 42.7193 32.4996 42.6096 32.3755L42.1599 32.7727ZM38.6096 32.7727C38.9124 32.4299 39.4566 32.0235 40.0891 31.907C40.6958 31.7952 41.4252 31.941 42.1599 32.7727L42.6096 32.3755C41.7443 31.396 40.807 31.1646 39.9804 31.3169C39.1796 31.4645 38.5238 31.9636 38.1599 32.3755L38.6096 32.7727Z" fill="#FFFAE0"/>
<circle cx="46.3848" cy="32.5741" r="3.65" stroke="white" stroke-width="0.7"/>
<path d="M24.8848 33.5741L30.8848 31.5741" stroke="black"/>
<circle cx="34.3848" cy="32.5741" r="3.65" stroke="white" stroke-width="0.7"/>
<path d="M30.8849 18.5741C37.3849 27.5741 27.4406 34.0741 24.8849 34.0741C23.8849 34.0741 24.9744 22.1638 30.8849 18.5741Z" fill="#282323"/>
</svg>
