<svg width="391" height="49" viewBox="0 0 391 49" fill="none" xmlns="http://www.w3.org/2000/svg">
<rect y="28" width="204" height="20" rx="10" fill="#D86386" fill-opacity="0.65"/>
<path d="M16.848 17.2C18.8 17.2 20.312 17.632 21.384 18.496C22.472 19.344 23.016 20.552 23.016 22.12C23.016 23.544 22.696 24.768 22.056 25.792C21.432 26.8 20.528 27.576 19.344 28.12C18.16 28.648 16.76 28.912 15.144 28.912H10.656L9.648 34H7.248L10.608 17.2H16.848ZM15.192 26.824C16.92 26.824 18.256 26.44 19.2 25.672C20.144 24.904 20.616 23.792 20.616 22.336C20.616 21.344 20.272 20.592 19.584 20.08C18.896 19.552 17.912 19.288 16.632 19.288H12.6L11.088 26.824H15.192ZM33.2803 21.16C34.7363 21.16 35.8643 21.528 36.6643 22.264C37.4803 23 37.8883 24.04 37.8883 25.384C37.8883 25.848 37.8403 26.344 37.7443 26.872L36.3283 34H34.0243L35.4403 26.872C35.5203 26.44 35.5603 26.088 35.5603 25.816C35.5603 24.984 35.3123 24.344 34.8163 23.896C34.3203 23.448 33.5843 23.224 32.6083 23.224C31.3603 23.224 30.3283 23.568 29.5123 24.256C28.7123 24.928 28.1763 25.936 27.9043 27.28L26.5603 34H24.2563L27.8083 16.192H30.1123L28.7923 22.768C29.9283 21.696 31.4243 21.16 33.2803 21.16ZM54.1339 21.28L45.1099 35.392C44.2939 36.672 43.5179 37.56 42.7819 38.056C42.0459 38.552 41.1739 38.8 40.1659 38.8C39.5419 38.8 38.9339 38.696 38.3419 38.488C37.7499 38.296 37.2939 38.024 36.9739 37.672L38.1739 35.968C38.7499 36.544 39.4699 36.832 40.3339 36.832C40.8779 36.832 41.3579 36.688 41.7739 36.4C42.1899 36.112 42.6219 35.624 43.0699 34.936L43.7179 33.928L40.6459 21.28H42.9499L45.3979 31.456L51.8059 21.28H54.1339ZM57.6081 34.144C56.5521 34.144 55.5441 34.008 54.5841 33.736C53.6401 33.464 52.9041 33.112 52.3761 32.68L53.4081 30.856C53.9041 31.256 54.5441 31.576 55.3281 31.816C56.1281 32.04 56.9601 32.152 57.8241 32.152C58.9121 32.152 59.7361 31.992 60.2961 31.672C60.8721 31.336 61.1601 30.872 61.1601 30.28C61.1601 29.8 60.9281 29.456 60.4641 29.248C60.0161 29.04 59.3121 28.832 58.3521 28.624C57.4561 28.432 56.7201 28.24 56.1441 28.048C55.5841 27.84 55.1041 27.52 54.7041 27.088C54.3041 26.64 54.1041 26.04 54.1041 25.288C54.1041 24.456 54.3361 23.728 54.8001 23.104C55.2801 22.48 55.9521 22 56.8161 21.664C57.6961 21.328 58.7121 21.16 59.8641 21.16C60.7121 21.16 61.5361 21.264 62.3361 21.472C63.1361 21.68 63.7921 21.96 64.3041 22.312L63.3921 24.136C62.8961 23.8 62.3201 23.552 61.6641 23.392C61.0081 23.216 60.3361 23.128 59.6481 23.128C58.6081 23.128 57.8081 23.304 57.2481 23.656C56.6881 23.992 56.4081 24.448 56.4081 25.024C56.4081 25.536 56.6401 25.904 57.1041 26.128C57.5681 26.336 58.2881 26.544 59.2641 26.752C60.1441 26.944 60.8641 27.136 61.4241 27.328C61.9841 27.52 62.4561 27.832 62.8401 28.264C63.2401 28.696 63.4401 29.28 63.4401 30.016C63.4401 31.312 62.9041 32.328 61.8321 33.064C60.7761 33.784 59.3681 34.144 57.6081 34.144ZM68.1435 21.28H70.4475L67.9275 34H65.6235L68.1435 21.28ZM69.9675 18.832C69.5515 18.832 69.2075 18.696 68.9355 18.424C68.6635 18.152 68.5275 17.824 68.5275 17.44C68.5275 16.992 68.6795 16.616 68.9835 16.312C69.3035 15.992 69.7035 15.832 70.1835 15.832C70.5995 15.832 70.9435 15.968 71.2155 16.24C71.5035 16.496 71.6475 16.808 71.6475 17.176C71.6475 17.672 71.4875 18.072 71.1675 18.376C70.8635 18.68 70.4635 18.832 69.9675 18.832ZM78.3506 34.144C77.1346 34.144 76.0706 33.92 75.1586 33.472C74.2466 33.008 73.5426 32.368 73.0466 31.552C72.5506 30.72 72.3026 29.752 72.3026 28.648C72.3026 27.224 72.6226 25.944 73.2626 24.808C73.9026 23.672 74.7906 22.784 75.9266 22.144C77.0626 21.488 78.3506 21.16 79.7906 21.16C82.3026 21.16 84.0466 22.08 85.0226 23.92L83.0786 25C82.4066 23.784 81.2546 23.176 79.6226 23.176C78.6786 23.176 77.8226 23.408 77.0546 23.872C76.3026 24.32 75.7106 24.952 75.2786 25.768C74.8466 26.584 74.6306 27.512 74.6306 28.552C74.6306 29.672 74.9586 30.552 75.6146 31.192C76.2866 31.816 77.2306 32.128 78.4466 32.128C79.2146 32.128 79.9266 31.976 80.5826 31.672C81.2546 31.368 81.8066 30.92 82.2386 30.328L83.9186 31.528C83.3266 32.344 82.5346 32.984 81.5426 33.448C80.5506 33.912 79.4866 34.144 78.3506 34.144ZM100.346 21.28L97.8261 34H95.6181L95.9301 32.44C95.3541 32.984 94.6821 33.408 93.9141 33.712C93.1621 34 92.3381 34.144 91.4421 34.144C90.3541 34.144 89.3861 33.928 88.5381 33.496C87.6901 33.048 87.0261 32.408 86.5461 31.576C86.0661 30.744 85.8261 29.768 85.8261 28.648C85.8261 27.208 86.1381 25.92 86.7621 24.784C87.3861 23.648 88.2421 22.76 89.3301 22.12C90.4341 21.48 91.6661 21.16 93.0261 21.16C94.1141 21.16 95.0421 21.352 95.8101 21.736C96.5941 22.12 97.1941 22.688 97.6101 23.44L98.0421 21.28H100.346ZM91.9461 32.128C92.8901 32.128 93.7381 31.904 94.4901 31.456C95.2581 30.992 95.8501 30.352 96.2661 29.536C96.6981 28.72 96.9141 27.792 96.9141 26.752C96.9141 25.616 96.5861 24.736 95.9301 24.112C95.2741 23.488 94.3381 23.176 93.1221 23.176C92.1781 23.176 91.3301 23.408 90.5781 23.872C89.8261 24.32 89.2341 24.952 88.8021 25.768C88.3701 26.584 88.1541 27.512 88.1541 28.552C88.1541 29.672 88.4821 30.552 89.1381 31.192C89.8101 31.816 90.7461 32.128 91.9461 32.128ZM105.761 16.192H108.065L104.513 34H102.209L105.761 16.192ZM119.03 17.2H125.606C127.286 17.2 128.726 17.488 129.926 18.064C131.142 18.624 132.062 19.424 132.686 20.464C133.326 21.488 133.646 22.696 133.646 24.088C133.646 26.04 133.206 27.768 132.326 29.272C131.462 30.776 130.238 31.944 128.654 32.776C127.086 33.592 125.262 34 123.182 34H115.67L119.03 17.2ZM123.254 31.912C124.87 31.912 126.278 31.584 127.478 30.928C128.678 30.272 129.598 29.368 130.238 28.216C130.894 27.048 131.222 25.72 131.222 24.232C131.222 22.68 130.726 21.472 129.734 20.608C128.742 19.728 127.286 19.288 125.366 19.288H120.998L118.478 31.912H123.254ZM137.418 28.36V28.504C137.418 29.688 137.754 30.592 138.426 31.216C139.098 31.824 140.106 32.128 141.45 32.128C142.234 32.128 142.97 32 143.658 31.744C144.346 31.472 144.922 31.112 145.386 30.664L146.37 32.32C145.746 32.896 144.986 33.344 144.09 33.664C143.194 33.984 142.25 34.144 141.258 34.144C140.01 34.144 138.93 33.92 138.018 33.472C137.106 33.024 136.402 32.384 135.906 31.552C135.41 30.72 135.162 29.744 135.162 28.624C135.162 27.2 135.466 25.92 136.074 24.784C136.698 23.648 137.554 22.76 138.642 22.12C139.746 21.48 140.978 21.16 142.338 21.16C144.066 21.16 145.442 21.656 146.466 22.648C147.506 23.624 148.026 24.96 148.026 26.656C148.026 27.168 147.97 27.736 147.858 28.36H137.418ZM142.242 23.08C141.106 23.08 140.13 23.4 139.314 24.04C138.498 24.68 137.946 25.56 137.658 26.68H145.866C145.93 25.544 145.626 24.664 144.954 24.04C144.298 23.4 143.394 23.08 142.242 23.08ZM163.4 21.28L155.312 34H152.96L149.912 21.28H152.215L154.592 31.48L161.072 21.28H163.4ZM165.55 21.28H167.854L165.334 34H163.03L165.55 21.28ZM167.374 18.832C166.958 18.832 166.614 18.696 166.342 18.424C166.07 18.152 165.934 17.824 165.934 17.44C165.934 16.992 166.086 16.616 166.39 16.312C166.71 15.992 167.11 15.832 167.59 15.832C168.006 15.832 168.35 15.968 168.622 16.24C168.91 16.496 169.054 16.808 169.054 17.176C169.054 17.672 168.894 18.072 168.574 18.376C168.27 18.68 167.87 18.832 167.374 18.832ZM175.757 34.144C174.541 34.144 173.477 33.92 172.565 33.472C171.653 33.008 170.949 32.368 170.453 31.552C169.957 30.72 169.709 29.752 169.709 28.648C169.709 27.224 170.029 25.944 170.669 24.808C171.309 23.672 172.197 22.784 173.333 22.144C174.469 21.488 175.757 21.16 177.197 21.16C179.709 21.16 181.453 22.08 182.429 23.92L180.485 25C179.813 23.784 178.661 23.176 177.029 23.176C176.085 23.176 175.229 23.408 174.461 23.872C173.709 24.32 173.117 24.952 172.685 25.768C172.253 26.584 172.037 27.512 172.037 28.552C172.037 29.672 172.365 30.552 173.021 31.192C173.693 31.816 174.637 32.128 175.853 32.128C176.621 32.128 177.333 31.976 177.989 31.672C178.661 31.368 179.213 30.92 179.645 30.328L181.325 31.528C180.733 32.344 179.941 32.984 178.949 33.448C177.957 33.912 176.893 34.144 175.757 34.144ZM185.488 28.36V28.504C185.488 29.688 185.824 30.592 186.496 31.216C187.168 31.824 188.176 32.128 189.52 32.128C190.304 32.128 191.04 32 191.728 31.744C192.416 31.472 192.992 31.112 193.456 30.664L194.44 32.32C193.816 32.896 193.056 33.344 192.16 33.664C191.264 33.984 190.32 34.144 189.328 34.144C188.08 34.144 187 33.92 186.088 33.472C185.176 33.024 184.472 32.384 183.976 31.552C183.48 30.72 183.232 29.744 183.232 28.624C183.232 27.2 183.536 25.92 184.144 24.784C184.768 23.648 185.624 22.76 186.712 22.12C187.816 21.48 189.048 21.16 190.408 21.16C192.136 21.16 193.512 21.656 194.536 22.648C195.576 23.624 196.096 24.96 196.096 26.656C196.096 27.168 196.04 27.736 195.928 28.36H185.488ZM190.312 23.08C189.176 23.08 188.2 23.4 187.384 24.04C186.568 24.68 186.016 25.56 185.728 26.68H193.936C194 25.544 193.696 24.664 193.024 24.04C192.368 23.4 191.464 23.08 190.312 23.08Z" fill="#202020"/>
<circle cx="366.242" cy="24.2425" r="24.2425" fill="#E06B65"/>
<path d="M357.774 18.0401H360.114V30.6401H357.774V18.0401ZM374.718 18.0401V30.6401H372.378V25.2401H365.862V30.6401H363.522V18.0401H365.862V23.2421H372.378V18.0401H374.718Z" fill="#202020"/>
<circle cx="329.242" cy="24.2425" r="24.2425" fill="#8A9BE4"/>
<path d="M323.145 18.0401C324.237 18.0401 325.185 18.2201 325.989 18.5801C326.805 18.9401 327.429 19.4561 327.861 20.1281C328.293 20.8001 328.509 21.5981 328.509 22.5221C328.509 23.4341 328.293 24.2321 327.861 24.9161C327.429 25.5881 326.805 26.1041 325.989 26.4641C325.185 26.8241 324.237 27.0041 323.145 27.0041H320.301V30.6401H317.961V18.0401H323.145ZM323.037 25.0241C324.057 25.0241 324.831 24.8081 325.359 24.3761C325.887 23.9441 326.151 23.3261 326.151 22.5221C326.151 21.7181 325.887 21.1001 325.359 20.6681C324.831 20.2361 324.057 20.0201 323.037 20.0201H320.301V25.0241H323.037ZM336.03 18.0401C337.122 18.0401 338.07 18.2201 338.874 18.5801C339.69 18.9401 340.314 19.4561 340.746 20.1281C341.178 20.8001 341.394 21.5981 341.394 22.5221C341.394 23.4341 341.178 24.2321 340.746 24.9161C340.314 25.5881 339.69 26.1041 338.874 26.4641C338.07 26.8241 337.122 27.0041 336.03 27.0041H333.186V30.6401H330.846V18.0401H336.03ZM335.922 25.0241C336.942 25.0241 337.716 24.8081 338.244 24.3761C338.772 23.9441 339.036 23.3261 339.036 22.5221C339.036 21.7181 338.772 21.1001 338.244 20.6681C337.716 20.2361 336.942 20.0201 335.922 20.0201H333.186V25.0241H335.922Z" fill="#202020"/>
<circle cx="290.242" cy="24.2425" r="24.2425" fill="#99CC99"/>
<path d="M289.729 28.6601V30.6401H278.983V29.0741L286.399 20.0201H279.109V18.0401H289.495V19.6061L282.079 28.6601H289.729ZM301.322 28.6781V30.6401H291.872V18.0401H301.07V20.0021H294.212V23.2781H300.296V25.2041H294.212V28.6781H301.322Z" fill="#202020"/>
<circle cx="252.242" cy="24.2425" r="24.2425" fill="#FEEB96"/>
<path d="M246.854 18.4V31H244.514V25.6H237.998V31H235.658V18.4H237.998V23.602H244.514V18.4H246.854ZM268.556 18.4L264.38 31H261.896L258.782 21.676L255.614 31H253.112L248.936 18.4H251.366L254.498 27.976L257.756 18.4H259.916L263.102 28.03L266.324 18.4H268.556Z" fill="#202020"/>
</svg>
