<svg width="372" height="49" viewBox="0 0 372 49" fill="none" xmlns="http://www.w3.org/2000/svg">
<circle cx="347.242" cy="24.2425" r="24.2425" fill="#E06B65"/>
<path d="M338.774 18.0403H341.114V30.6403H338.774V18.0403ZM355.718 18.0403V30.6403H353.378V25.2403H346.862V30.6403H344.522V18.0403H346.862V23.2423H353.378V18.0403H355.718Z" fill="#202020"/>
<circle cx="310.242" cy="24.2425" r="24.2425" fill="#99CCFF"/>
<path d="M305.288 18.0403C306.38 18.0403 307.328 18.2203 308.132 18.5803C308.948 18.9403 309.572 19.4563 310.004 20.1283C310.436 20.8003 310.652 21.5983 310.652 22.5223C310.652 23.4343 310.436 24.2323 310.004 24.9163C309.572 25.5883 308.948 26.1043 308.132 26.4643C307.328 26.8243 306.38 27.0043 305.288 27.0043H302.444V30.6403H300.104V18.0403H305.288ZM305.18 25.0243C306.2 25.0243 306.974 24.8083 307.502 24.3763C308.03 23.9443 308.294 23.3263 308.294 22.5223C308.294 21.7183 308.03 21.1003 307.502 20.6683C306.974 20.2363 306.2 20.0203 305.18 20.0203H302.444V25.0243H305.18ZM312.989 18.0403H315.329V28.6603H321.917V30.6403H312.989V18.0403Z" fill="#202020"/>
<circle cx="271.242" cy="24.2425" r="24.2425" fill="#202020"/>
<path d="M262.64 20.0203H258.464V18.0403H269.156V20.0203H264.98V30.6403H262.64V20.0203ZM270.912 18.0403H276.42C277.764 18.0403 278.958 18.3043 280.002 18.8323C281.046 19.3483 281.856 20.0863 282.432 21.0463C283.008 21.9943 283.296 23.0923 283.296 24.3403C283.296 25.5883 283.008 26.6923 282.432 27.6523C281.856 28.6003 281.046 29.3383 280.002 29.8663C278.958 30.3823 277.764 30.6403 276.42 30.6403H270.912V18.0403ZM276.312 28.6603C277.236 28.6603 278.046 28.4863 278.742 28.1383C279.45 27.7783 279.99 27.2743 280.362 26.6263C280.746 25.9663 280.938 25.2043 280.938 24.3403C280.938 23.4763 280.746 22.7203 280.362 22.0723C279.99 21.4123 279.45 20.9083 278.742 20.5603C278.046 20.2003 277.236 20.0203 276.312 20.0203H273.252V28.6603H276.312Z" fill="white"/>
<rect y="28" width="226" height="20" rx="10" fill="#D86386" fill-opacity="0.65"/>
<path d="M11.9393 19.4145L10.9073 24.5745H19.3553L18.9473 26.6145H10.4993L9.41928 32.0385H19.2353L18.8273 34.1265H6.61128L9.97128 17.3265H21.8273L21.4193 19.4145H11.9393ZM37.7413 16.3185L34.1893 34.1265H31.9813L32.2933 32.5665C31.7173 33.1105 31.0453 33.5345 30.2773 33.8385C29.5253 34.1265 28.7013 34.2705 27.8053 34.2705C26.7173 34.2705 25.7493 34.0545 24.9013 33.6225C24.0533 33.1745 23.3893 32.5345 22.9093 31.7025C22.4293 30.8705 22.1893 29.8945 22.1893 28.7745C22.1893 27.3345 22.5013 26.0465 23.1253 24.9105C23.7493 23.7745 24.6053 22.8865 25.6933 22.2465C26.7973 21.6065 28.0293 21.2865 29.3893 21.2865C30.4773 21.2865 31.4133 21.4865 32.1973 21.8865C32.9973 22.2705 33.5973 22.8385 33.9973 23.5905L35.4373 16.3185H37.7413ZM28.3093 32.2545C29.2533 32.2545 30.1013 32.0305 30.8533 31.5825C31.6213 31.1185 32.2133 30.4785 32.6293 29.6625C33.0613 28.8465 33.2773 27.9185 33.2773 26.8785C33.2773 25.7425 32.9493 24.8625 32.2933 24.2385C31.6373 23.6145 30.7013 23.3025 29.4853 23.3025C28.5413 23.3025 27.6933 23.5345 26.9413 23.9985C26.1893 24.4465 25.5973 25.0785 25.1653 25.8945C24.7333 26.7105 24.5173 27.6385 24.5173 28.6785C24.5173 29.7985 24.8453 30.6785 25.5013 31.3185C26.1733 31.9425 27.1093 32.2545 28.3093 32.2545ZM52.9487 21.4065L50.4287 34.1265H48.2207L48.5327 32.4945C47.9567 33.0865 47.2767 33.5345 46.4927 33.8385C45.7247 34.1265 44.8847 34.2705 43.9727 34.2705C42.5647 34.2705 41.4527 33.8945 40.6367 33.1425C39.8207 32.3905 39.4127 31.3425 39.4127 29.9985C39.4127 29.5505 39.4607 29.0625 39.5567 28.5345L40.9727 21.4065H43.2767L41.8607 28.5585C41.7807 28.9905 41.7407 29.3505 41.7407 29.6385C41.7407 30.4705 41.9807 31.1105 42.4607 31.5585C42.9567 31.9905 43.6847 32.2065 44.6447 32.2065C45.8607 32.2065 46.8687 31.8625 47.6687 31.1745C48.4847 30.4865 49.0287 29.4785 49.3007 28.1505L50.6447 21.4065H52.9487ZM60.8389 34.2705C59.6229 34.2705 58.5589 34.0465 57.6469 33.5985C56.7349 33.1345 56.0309 32.4945 55.5349 31.6785C55.0389 30.8465 54.7909 29.8785 54.7909 28.7745C54.7909 27.3505 55.1109 26.0705 55.7509 24.9345C56.3909 23.7985 57.2789 22.9105 58.4149 22.2705C59.5509 21.6145 60.8389 21.2865 62.2789 21.2865C64.7909 21.2865 66.5349 22.2065 67.5109 24.0465L65.5669 25.1265C64.8949 23.9105 63.7429 23.3025 62.1109 23.3025C61.1669 23.3025 60.3109 23.5345 59.5429 23.9985C58.7909 24.4465 58.1989 25.0785 57.7669 25.8945C57.3349 26.7105 57.1189 27.6385 57.1189 28.6785C57.1189 29.7985 57.4469 30.6785 58.1029 31.3185C58.7749 31.9425 59.7189 32.2545 60.9349 32.2545C61.7029 32.2545 62.4149 32.1025 63.0709 31.7985C63.7429 31.4945 64.2949 31.0465 64.7269 30.4545L66.4069 31.6545C65.8149 32.4705 65.0229 33.1105 64.0309 33.5745C63.0389 34.0385 61.9749 34.2705 60.8389 34.2705ZM82.8343 21.4065L80.3143 34.1265H78.1063L78.4183 32.5665C77.8423 33.1105 77.1703 33.5345 76.4023 33.8385C75.6503 34.1265 74.8263 34.2705 73.9303 34.2705C72.8423 34.2705 71.8743 34.0545 71.0263 33.6225C70.1783 33.1745 69.5143 32.5345 69.0343 31.7025C68.5543 30.8705 68.3143 29.8945 68.3143 28.7745C68.3143 27.3345 68.6263 26.0465 69.2503 24.9105C69.8743 23.7745 70.7303 22.8865 71.8183 22.2465C72.9223 21.6065 74.1543 21.2865 75.5143 21.2865C76.6023 21.2865 77.5303 21.4785 78.2983 21.8625C79.0823 22.2465 79.6823 22.8145 80.0983 23.5665L80.5303 21.4065H82.8343ZM74.4343 32.2545C75.3783 32.2545 76.2263 32.0305 76.9783 31.5825C77.7463 31.1185 78.3383 30.4785 78.7543 29.6625C79.1863 28.8465 79.4023 27.9185 79.4023 26.8785C79.4023 25.7425 79.0743 24.8625 78.4183 24.2385C77.7623 23.6145 76.8263 23.3025 75.6103 23.3025C74.6663 23.3025 73.8183 23.5345 73.0663 23.9985C72.3143 24.4465 71.7223 25.0785 71.2903 25.8945C70.8583 26.7105 70.6423 27.6385 70.6423 28.6785C70.6423 29.7985 70.9703 30.6785 71.6263 31.3185C72.2983 31.9425 73.2343 32.2545 74.4343 32.2545ZM88.1057 30.0705C88.0577 30.3105 88.0337 30.5345 88.0337 30.7425C88.0337 31.2545 88.1697 31.6465 88.4417 31.9185C88.7297 32.1905 89.1537 32.3265 89.7137 32.3265C90.3857 32.3265 90.9937 32.1265 91.5377 31.7265L92.0177 33.4785C91.2497 34.0065 90.2657 34.2705 89.0657 34.2705C88.0577 34.2705 87.2417 33.9905 86.6177 33.4305C86.0097 32.8545 85.7057 32.0705 85.7057 31.0785C85.7057 30.7425 85.7377 30.4225 85.8017 30.1185L87.1697 23.3025H85.0097L85.3697 21.4065H87.5537L88.1057 18.6225H90.4097L89.8577 21.4065H93.5057L93.1217 23.3025H89.4737L88.1057 30.0705ZM97.1552 21.4065H99.4592L96.9392 34.1265H94.6352L97.1552 21.4065ZM98.9792 18.9585C98.5632 18.9585 98.2192 18.8225 97.9472 18.5505C97.6752 18.2785 97.5392 17.9505 97.5392 17.5665C97.5392 17.1185 97.6912 16.7425 97.9952 16.4385C98.3152 16.1185 98.7152 15.9585 99.1952 15.9585C99.6112 15.9585 99.9552 16.0945 100.227 16.3665C100.515 16.6225 100.659 16.9345 100.659 17.3025C100.659 17.7985 100.499 18.1985 100.179 18.5025C99.8752 18.8065 99.4752 18.9585 98.9792 18.9585ZM107.29 34.2705C106.09 34.2705 105.042 34.0465 104.146 33.5985C103.25 33.1345 102.554 32.4865 102.058 31.6545C101.562 30.8225 101.314 29.8625 101.314 28.7745C101.314 27.3505 101.634 26.0705 102.274 24.9345C102.914 23.7985 103.802 22.9105 104.938 22.2705C106.074 21.6145 107.354 21.2865 108.778 21.2865C109.978 21.2865 111.026 21.5105 111.922 21.9585C112.818 22.4065 113.506 23.0465 113.986 23.8785C114.482 24.6945 114.73 25.6545 114.73 26.7585C114.73 28.1825 114.41 29.4705 113.77 30.6225C113.13 31.7585 112.242 32.6545 111.106 33.3105C109.986 33.9505 108.714 34.2705 107.29 34.2705ZM107.434 32.2545C108.378 32.2545 109.226 32.0305 109.978 31.5825C110.746 31.1185 111.338 30.4785 111.754 29.6625C112.186 28.8465 112.402 27.9185 112.402 26.8785C112.402 25.7425 112.074 24.8625 111.418 24.2385C110.762 23.6145 109.826 23.3025 108.61 23.3025C107.666 23.3025 106.818 23.5345 106.066 23.9985C105.314 24.4465 104.722 25.0785 104.29 25.8945C103.858 26.7105 103.642 27.6385 103.642 28.6785C103.642 29.7985 103.97 30.6785 104.626 31.3185C105.298 31.9425 106.234 32.2545 107.434 32.2545ZM125.597 21.2865C127.053 21.2865 128.181 21.6545 128.981 22.3905C129.797 23.1265 130.205 24.1665 130.205 25.5105C130.205 25.9745 130.157 26.4705 130.061 26.9985L128.645 34.1265H126.341L127.757 26.9985C127.837 26.5665 127.877 26.2145 127.877 25.9425C127.877 25.1105 127.629 24.4705 127.133 24.0225C126.637 23.5745 125.901 23.3505 124.925 23.3505C123.677 23.3505 122.645 23.6945 121.829 24.3825C121.029 25.0545 120.493 26.0625 120.221 27.4065L118.877 34.1265H116.573L119.093 21.4065H121.301L120.989 23.0385C122.141 21.8705 123.677 21.2865 125.597 21.2865ZM147.475 21.4065L144.955 34.1265H142.747L143.059 32.5665C142.483 33.1105 141.811 33.5345 141.043 33.8385C140.291 34.1265 139.467 34.2705 138.571 34.2705C137.483 34.2705 136.515 34.0545 135.667 33.6225C134.819 33.1745 134.155 32.5345 133.675 31.7025C133.195 30.8705 132.955 29.8945 132.955 28.7745C132.955 27.3345 133.267 26.0465 133.891 24.9105C134.515 23.7745 135.371 22.8865 136.459 22.2465C137.563 21.6065 138.795 21.2865 140.155 21.2865C141.243 21.2865 142.171 21.4785 142.939 21.8625C143.723 22.2465 144.323 22.8145 144.739 23.5665L145.171 21.4065H147.475ZM139.075 32.2545C140.019 32.2545 140.867 32.0305 141.619 31.5825C142.387 31.1185 142.979 30.4785 143.395 29.6625C143.827 28.8465 144.043 27.9185 144.043 26.8785C144.043 25.7425 143.715 24.8625 143.059 24.2385C142.403 23.6145 141.467 23.3025 140.251 23.3025C139.307 23.3025 138.459 23.5345 137.707 23.9985C136.955 24.4465 136.363 25.0785 135.931 25.8945C135.499 26.7105 135.283 27.6385 135.283 28.6785C135.283 29.7985 135.611 30.6785 136.267 31.3185C136.939 31.9425 137.875 32.2545 139.075 32.2545ZM152.89 16.3185H155.194L151.642 34.1265H149.338L152.89 16.3185ZM169.063 19.4145H163.327L163.735 17.3265H177.631L177.199 19.4145H171.463L168.511 34.1265H166.135L169.063 19.4145ZM189.756 21.4065L187.236 34.1265H185.028L185.34 32.5665C184.764 33.1105 184.092 33.5345 183.324 33.8385C182.572 34.1265 181.748 34.2705 180.852 34.2705C179.764 34.2705 178.796 34.0545 177.948 33.6225C177.1 33.1745 176.436 32.5345 175.956 31.7025C175.476 30.8705 175.236 29.8945 175.236 28.7745C175.236 27.3345 175.548 26.0465 176.172 24.9105C176.796 23.7745 177.652 22.8865 178.74 22.2465C179.844 21.6065 181.076 21.2865 182.436 21.2865C183.524 21.2865 184.452 21.4785 185.22 21.8625C186.004 22.2465 186.604 22.8145 187.02 23.5665L187.452 21.4065H189.756ZM181.356 32.2545C182.3 32.2545 183.148 32.0305 183.9 31.5825C184.668 31.1185 185.26 30.4785 185.676 29.6625C186.108 28.8465 186.324 27.9185 186.324 26.8785C186.324 25.7425 185.996 24.8625 185.34 24.2385C184.684 23.6145 183.748 23.3025 182.532 23.3025C181.588 23.3025 180.74 23.5345 179.988 23.9985C179.236 24.4465 178.644 25.0785 178.212 25.8945C177.78 26.7105 177.564 27.6385 177.564 28.6785C177.564 29.7985 177.892 30.6785 178.548 31.3185C179.22 31.9425 180.156 32.2545 181.356 32.2545ZM200.524 21.2865C201.612 21.2865 202.58 21.5105 203.428 21.9585C204.276 22.3905 204.94 23.0225 205.42 23.8545C205.9 24.6705 206.14 25.6385 206.14 26.7585C206.14 28.1985 205.828 29.4865 205.204 30.6225C204.58 31.7585 203.716 32.6545 202.612 33.3105C201.524 33.9505 200.3 34.2705 198.94 34.2705C197.82 34.2705 196.86 34.0625 196.06 33.6465C195.276 33.2305 194.684 32.6225 194.284 31.8225L193.804 34.1265H191.62L195.172 16.3185H197.476L196.156 22.8705C197.34 21.8145 198.796 21.2865 200.524 21.2865ZM198.844 32.2545C199.788 32.2545 200.636 32.0305 201.388 31.5825C202.14 31.1185 202.732 30.4785 203.164 29.6625C203.596 28.8465 203.812 27.9185 203.812 26.8785C203.812 25.7425 203.484 24.8625 202.828 24.2385C202.172 23.6145 201.236 23.3025 200.02 23.3025C199.076 23.3025 198.22 23.5345 197.452 23.9985C196.7 24.4465 196.108 25.0785 195.676 25.8945C195.26 26.7105 195.052 27.6385 195.052 28.6785C195.052 29.7985 195.38 30.6785 196.036 31.3185C196.708 31.9425 197.644 32.2545 198.844 32.2545ZM211.987 34.2705C210.931 34.2705 209.923 34.1345 208.963 33.8625C208.019 33.5905 207.283 33.2385 206.755 32.8065L207.787 30.9825C208.283 31.3825 208.923 31.7025 209.707 31.9425C210.507 32.1665 211.339 32.2785 212.203 32.2785C213.291 32.2785 214.115 32.1185 214.675 31.7985C215.251 31.4625 215.539 30.9985 215.539 30.4065C215.539 29.9265 215.307 29.5825 214.843 29.3745C214.395 29.1665 213.691 28.9585 212.731 28.7505C211.835 28.5585 211.099 28.3665 210.523 28.1745C209.963 27.9665 209.483 27.6465 209.083 27.2145C208.683 26.7665 208.483 26.1665 208.483 25.4145C208.483 24.5825 208.715 23.8545 209.179 23.2305C209.659 22.6065 210.331 22.1265 211.195 21.7905C212.075 21.4545 213.091 21.2865 214.243 21.2865C215.091 21.2865 215.915 21.3905 216.715 21.5985C217.515 21.8065 218.171 22.0865 218.683 22.4385L217.771 24.2625C217.275 23.9265 216.699 23.6785 216.043 23.5185C215.387 23.3425 214.715 23.2545 214.027 23.2545C212.987 23.2545 212.187 23.4305 211.627 23.7825C211.067 24.1185 210.787 24.5745 210.787 25.1505C210.787 25.6625 211.019 26.0305 211.483 26.2545C211.947 26.4625 212.667 26.6705 213.643 26.8785C214.523 27.0705 215.243 27.2625 215.803 27.4545C216.363 27.6465 216.835 27.9585 217.219 28.3905C217.619 28.8225 217.819 29.4065 217.819 30.1425C217.819 31.4385 217.283 32.4545 216.211 33.1905C215.155 33.9105 213.747 34.2705 211.987 34.2705Z" fill="#202020"/>
</svg>
