<svg width="395" height="49" viewBox="0 0 395 49" fill="none" xmlns="http://www.w3.org/2000/svg">
<rect y="28" width="288" height="20" rx="10" fill="#D86386" fill-opacity="0.65"/>
<path d="M13.1307 19.288L12.0987 24.448H20.5467L20.1387 26.488H11.6907L10.6107 31.912H20.4267L20.0187 34H7.80269L11.1627 17.2H23.0187L22.6107 19.288H13.1307ZM27.1208 16.192H29.4248L25.8728 34H23.5688L27.1208 16.192ZM32.5039 28.36V28.504C32.5039 29.688 32.8399 30.592 33.5119 31.216C34.1839 31.824 35.1919 32.128 36.5359 32.128C37.3199 32.128 38.0559 32 38.7439 31.744C39.4319 31.472 40.0079 31.112 40.4719 30.664L41.4559 32.32C40.8319 32.896 40.0719 33.344 39.1759 33.664C38.2799 33.984 37.3359 34.144 36.3439 34.144C35.0959 34.144 34.0159 33.92 33.1039 33.472C32.1919 33.024 31.4879 32.384 30.9919 31.552C30.4959 30.72 30.2479 29.744 30.2479 28.624C30.2479 27.2 30.5519 25.92 31.1599 24.784C31.7839 23.648 32.6399 22.76 33.7279 22.12C34.8319 21.48 36.0639 21.16 37.4239 21.16C39.1519 21.16 40.5279 21.656 41.5519 22.648C42.5919 23.624 43.1119 24.96 43.1119 26.656C43.1119 27.168 43.0559 27.736 42.9439 28.36H32.5039ZM37.3279 23.08C36.1919 23.08 35.2159 23.4 34.3999 24.04C33.5839 24.68 33.0319 25.56 32.7439 26.68H40.9519C41.0159 25.544 40.7119 24.664 40.0399 24.04C39.3839 23.4 38.4799 23.08 37.3279 23.08ZM50.9678 34.144C49.7518 34.144 48.6878 33.92 47.7758 33.472C46.8638 33.008 46.1598 32.368 45.6638 31.552C45.1678 30.72 44.9198 29.752 44.9198 28.648C44.9198 27.224 45.2398 25.944 45.8798 24.808C46.5198 23.672 47.4078 22.784 48.5438 22.144C49.6798 21.488 50.9678 21.16 52.4078 21.16C54.9198 21.16 56.6638 22.08 57.6398 23.92L55.6958 25C55.0238 23.784 53.8718 23.176 52.2398 23.176C51.2958 23.176 50.4398 23.408 49.6718 23.872C48.9198 24.32 48.3278 24.952 47.8958 25.768C47.4638 26.584 47.2478 27.512 47.2478 28.552C47.2478 29.672 47.5758 30.552 48.2318 31.192C48.9038 31.816 49.8478 32.128 51.0638 32.128C51.8318 32.128 52.5438 31.976 53.1998 31.672C53.8718 31.368 54.4238 30.92 54.8558 30.328L56.5358 31.528C55.9438 32.344 55.1518 32.984 54.1598 33.448C53.1678 33.912 52.1038 34.144 50.9678 34.144ZM62.2268 29.944C62.1788 30.184 62.1548 30.408 62.1548 30.616C62.1548 31.128 62.2908 31.52 62.5628 31.792C62.8508 32.064 63.2748 32.2 63.8348 32.2C64.5068 32.2 65.1148 32 65.6588 31.6L66.1388 33.352C65.3708 33.88 64.3868 34.144 63.1868 34.144C62.1788 34.144 61.3628 33.864 60.7388 33.304C60.1308 32.728 59.8268 31.944 59.8268 30.952C59.8268 30.616 59.8588 30.296 59.9228 29.992L61.2908 23.176H59.1308L59.4908 21.28H61.6748L62.2268 18.496H64.5308L63.9788 21.28H67.6268L67.2428 23.176H63.5948L62.2268 29.944ZM73.1243 23.176C73.6843 22.472 74.3723 21.96 75.1883 21.64C76.0043 21.32 76.9963 21.16 78.1643 21.16L77.7323 23.392C77.5883 23.376 77.3883 23.368 77.1323 23.368C74.4923 23.368 72.8923 24.792 72.3323 27.64L71.0603 34H68.7563L71.2763 21.28H73.4843L73.1243 23.176ZM84.2708 34.144C83.0708 34.144 82.0228 33.92 81.1268 33.472C80.2308 33.008 79.5348 32.36 79.0388 31.528C78.5428 30.696 78.2948 29.736 78.2948 28.648C78.2948 27.224 78.6148 25.944 79.2548 24.808C79.8948 23.672 80.7828 22.784 81.9188 22.144C83.0548 21.488 84.3348 21.16 85.7588 21.16C86.9588 21.16 88.0068 21.384 88.9028 21.832C89.7988 22.28 90.4868 22.92 90.9668 23.752C91.4628 24.568 91.7108 25.528 91.7108 26.632C91.7108 28.056 91.3908 29.344 90.7508 30.496C90.1108 31.632 89.2228 32.528 88.0868 33.184C86.9668 33.824 85.6948 34.144 84.2708 34.144ZM84.4148 32.128C85.3588 32.128 86.2068 31.904 86.9588 31.456C87.7268 30.992 88.3188 30.352 88.7348 29.536C89.1668 28.72 89.3828 27.792 89.3828 26.752C89.3828 25.616 89.0548 24.736 88.3988 24.112C87.7428 23.488 86.8068 23.176 85.5908 23.176C84.6468 23.176 83.7988 23.408 83.0468 23.872C82.2948 24.32 81.7028 24.952 81.2708 25.768C80.8388 26.584 80.6228 27.512 80.6228 28.552C80.6228 29.672 80.9508 30.552 81.6068 31.192C82.2788 31.816 83.2148 32.128 84.4148 32.128ZM102.577 21.16C104.033 21.16 105.161 21.528 105.961 22.264C106.777 23 107.185 24.04 107.185 25.384C107.185 25.848 107.137 26.344 107.041 26.872L105.625 34H103.321L104.737 26.872C104.817 26.44 104.857 26.088 104.857 25.816C104.857 24.984 104.609 24.344 104.113 23.896C103.617 23.448 102.881 23.224 101.905 23.224C100.657 23.224 99.6252 23.568 98.8092 24.256C98.0092 24.928 97.4732 25.936 97.2012 27.28L95.8572 34H93.5532L96.0732 21.28H98.2812L97.9692 22.912C99.1212 21.744 100.657 21.16 102.577 21.16ZM112.409 21.28H114.713L112.193 34H109.889L112.409 21.28ZM114.233 18.832C113.817 18.832 113.473 18.696 113.201 18.424C112.929 18.152 112.793 17.824 112.793 17.44C112.793 16.992 112.945 16.616 113.249 16.312C113.569 15.992 113.969 15.832 114.449 15.832C114.865 15.832 115.209 15.968 115.481 16.24C115.769 16.496 115.913 16.808 115.913 17.176C115.913 17.672 115.753 18.072 115.433 18.376C115.129 18.68 114.729 18.832 114.233 18.832ZM122.616 34.144C121.4 34.144 120.336 33.92 119.424 33.472C118.512 33.008 117.808 32.368 117.312 31.552C116.816 30.72 116.568 29.752 116.568 28.648C116.568 27.224 116.888 25.944 117.528 24.808C118.168 23.672 119.056 22.784 120.192 22.144C121.328 21.488 122.616 21.16 124.056 21.16C126.568 21.16 128.312 22.08 129.288 23.92L127.344 25C126.672 23.784 125.52 23.176 123.888 23.176C122.944 23.176 122.088 23.408 121.32 23.872C120.568 24.32 119.976 24.952 119.544 25.768C119.112 26.584 118.896 27.512 118.896 28.552C118.896 29.672 119.224 30.552 119.88 31.192C120.552 31.816 121.496 32.128 122.712 32.128C123.48 32.128 124.192 31.976 124.848 31.672C125.52 31.368 126.072 30.92 126.504 30.328L128.184 31.528C127.592 32.344 126.8 32.984 125.808 33.448C124.816 33.912 123.752 34.144 122.616 34.144ZM145.269 34.192C143.605 34.192 142.173 33.896 140.973 33.304C139.773 32.712 138.853 31.888 138.213 30.832C137.573 29.76 137.253 28.52 137.253 27.112C137.253 25.24 137.677 23.536 138.525 22C139.373 20.464 140.573 19.248 142.125 18.352C143.693 17.456 145.501 17.008 147.549 17.008C148.941 17.008 150.173 17.24 151.245 17.704C152.317 18.152 153.141 18.792 153.717 19.624L151.989 21.112C150.981 19.8 149.445 19.144 147.381 19.144C145.829 19.144 144.469 19.496 143.301 20.2C142.133 20.904 141.229 21.856 140.589 23.056C139.965 24.24 139.653 25.544 139.653 26.968C139.653 28.52 140.149 29.76 141.141 30.688C142.149 31.6 143.581 32.056 145.437 32.056C147.501 32.056 149.197 31.392 150.525 30.064L151.917 31.648C151.149 32.48 150.189 33.112 149.036 33.544C147.901 33.976 146.645 34.192 145.269 34.192ZM159.505 34.144C158.305 34.144 157.257 33.92 156.361 33.472C155.465 33.008 154.769 32.36 154.273 31.528C153.777 30.696 153.529 29.736 153.529 28.648C153.529 27.224 153.849 25.944 154.489 24.808C155.129 23.672 156.017 22.784 157.153 22.144C158.289 21.488 159.569 21.16 160.993 21.16C162.193 21.16 163.241 21.384 164.137 21.832C165.033 22.28 165.721 22.92 166.201 23.752C166.697 24.568 166.945 25.528 166.945 26.632C166.945 28.056 166.625 29.344 165.985 30.496C165.345 31.632 164.457 32.528 163.321 33.184C162.201 33.824 160.929 34.144 159.505 34.144ZM159.649 32.128C160.593 32.128 161.441 31.904 162.193 31.456C162.961 30.992 163.553 30.352 163.969 29.536C164.401 28.72 164.617 27.792 164.617 26.752C164.617 25.616 164.289 24.736 163.633 24.112C162.977 23.488 162.041 23.176 160.825 23.176C159.881 23.176 159.033 23.408 158.281 23.872C157.529 24.32 156.937 24.952 156.505 25.768C156.073 26.584 155.857 27.512 155.857 28.552C155.857 29.672 156.185 30.552 156.841 31.192C157.513 31.816 158.449 32.128 159.649 32.128ZM186.884 21.16C188.324 21.16 189.444 21.528 190.244 22.264C191.06 22.984 191.468 24.016 191.468 25.36C191.468 25.728 191.412 26.232 191.3 26.872L189.884 34H187.58L188.996 26.872C189.076 26.424 189.116 26.056 189.116 25.768C189.116 24.936 188.884 24.304 188.42 23.872C187.956 23.44 187.252 23.224 186.308 23.224C185.124 23.224 184.148 23.56 183.38 24.232C182.628 24.888 182.116 25.88 181.844 27.208L180.476 34H178.172L179.612 26.872C179.692 26.44 179.732 26.08 179.732 25.792C179.732 24.96 179.492 24.328 179.012 23.896C178.548 23.448 177.844 23.224 176.9 23.224C175.716 23.224 174.74 23.56 173.972 24.232C173.22 24.904 172.708 25.92 172.436 27.28L171.092 34H168.788L171.308 21.28H173.516L173.204 22.864C174.324 21.728 175.796 21.16 177.62 21.16C178.612 21.16 179.46 21.352 180.164 21.736C180.868 22.12 181.38 22.68 181.7 23.416C182.996 21.912 184.724 21.16 186.884 21.16ZM203.051 21.16C204.139 21.16 205.107 21.384 205.955 21.832C206.803 22.264 207.467 22.896 207.947 23.728C208.427 24.544 208.667 25.512 208.667 26.632C208.667 28.072 208.355 29.36 207.731 30.496C207.107 31.632 206.243 32.528 205.139 33.184C204.051 33.824 202.827 34.144 201.467 34.144C200.379 34.144 199.443 33.952 198.659 33.568C197.875 33.168 197.275 32.592 196.859 31.84L195.515 38.656H193.211L196.667 21.28H198.875L198.563 22.864C199.747 21.728 201.243 21.16 203.051 21.16ZM201.371 32.128C202.315 32.128 203.163 31.904 203.915 31.456C204.667 30.992 205.259 30.352 205.691 29.536C206.123 28.72 206.339 27.792 206.339 26.752C206.339 25.616 206.011 24.736 205.355 24.112C204.699 23.488 203.763 23.176 202.547 23.176C201.603 23.176 200.747 23.408 199.979 23.872C199.227 24.32 198.635 24.952 198.203 25.768C197.787 26.584 197.579 27.512 197.579 28.552C197.579 29.672 197.907 30.552 198.563 31.192C199.235 31.816 200.171 32.128 201.371 32.128ZM216.458 34.144C215.258 34.144 214.21 33.92 213.314 33.472C212.418 33.008 211.722 32.36 211.226 31.528C210.73 30.696 210.482 29.736 210.482 28.648C210.482 27.224 210.802 25.944 211.442 24.808C212.082 23.672 212.97 22.784 214.106 22.144C215.242 21.488 216.522 21.16 217.946 21.16C219.146 21.16 220.194 21.384 221.09 21.832C221.986 22.28 222.674 22.92 223.154 23.752C223.65 24.568 223.898 25.528 223.898 26.632C223.898 28.056 223.578 29.344 222.938 30.496C222.298 31.632 221.41 32.528 220.274 33.184C219.154 33.824 217.882 34.144 216.458 34.144ZM216.602 32.128C217.546 32.128 218.394 31.904 219.146 31.456C219.914 30.992 220.506 30.352 220.922 29.536C221.354 28.72 221.57 27.792 221.57 26.752C221.57 25.616 221.242 24.736 220.586 24.112C219.93 23.488 218.994 23.176 217.778 23.176C216.834 23.176 215.986 23.408 215.234 23.872C214.482 24.32 213.89 24.952 213.458 25.768C213.026 26.584 212.81 27.512 212.81 28.552C212.81 29.672 213.138 30.552 213.794 31.192C214.466 31.816 215.402 32.128 216.602 32.128ZM234.765 21.16C236.221 21.16 237.349 21.528 238.149 22.264C238.965 23 239.373 24.04 239.373 25.384C239.373 25.848 239.325 26.344 239.229 26.872L237.813 34H235.509L236.925 26.872C237.005 26.44 237.045 26.088 237.045 25.816C237.045 24.984 236.797 24.344 236.301 23.896C235.805 23.448 235.069 23.224 234.093 23.224C232.845 23.224 231.813 23.568 230.997 24.256C230.197 24.928 229.661 25.936 229.389 27.28L228.045 34H225.741L228.261 21.28H230.469L230.157 22.912C231.309 21.744 232.845 21.16 234.765 21.16ZM244.379 28.36V28.504C244.379 29.688 244.715 30.592 245.387 31.216C246.059 31.824 247.067 32.128 248.411 32.128C249.195 32.128 249.931 32 250.619 31.744C251.307 31.472 251.883 31.112 252.347 30.664L253.331 32.32C252.707 32.896 251.947 33.344 251.051 33.664C250.155 33.984 249.211 34.144 248.219 34.144C246.971 34.144 245.891 33.92 244.979 33.472C244.067 33.024 243.363 32.384 242.867 31.552C242.371 30.72 242.123 29.744 242.123 28.624C242.123 27.2 242.427 25.92 243.035 24.784C243.659 23.648 244.515 22.76 245.603 22.12C246.707 21.48 247.939 21.16 249.299 21.16C251.027 21.16 252.403 21.656 253.427 22.648C254.467 23.624 254.987 24.96 254.987 26.656C254.987 27.168 254.931 27.736 254.819 28.36H244.379ZM249.203 23.08C248.067 23.08 247.091 23.4 246.275 24.04C245.459 24.68 244.907 25.56 244.619 26.68H252.827C252.891 25.544 252.587 24.664 251.915 24.04C251.259 23.4 250.355 23.08 249.203 23.08ZM265.843 21.16C267.299 21.16 268.427 21.528 269.227 22.264C270.043 23 270.451 24.04 270.451 25.384C270.451 25.848 270.403 26.344 270.307 26.872L268.891 34H266.587L268.003 26.872C268.083 26.44 268.123 26.088 268.123 25.816C268.123 24.984 267.875 24.344 267.379 23.896C266.883 23.448 266.147 23.224 265.171 23.224C263.923 23.224 262.891 23.568 262.075 24.256C261.275 24.928 260.739 25.936 260.467 27.28L259.123 34H256.819L259.339 21.28H261.547L261.235 22.912C262.387 21.744 263.923 21.16 265.843 21.16ZM276.563 29.944C276.515 30.184 276.491 30.408 276.491 30.616C276.491 31.128 276.627 31.52 276.899 31.792C277.187 32.064 277.611 32.2 278.171 32.2C278.843 32.2 279.451 32 279.995 31.6L280.475 33.352C279.707 33.88 278.723 34.144 277.523 34.144C276.515 34.144 275.699 33.864 275.075 33.304C274.467 32.728 274.163 31.944 274.163 30.952C274.163 30.616 274.195 30.296 274.259 29.992L275.627 23.176H273.467L273.827 21.28H276.011L276.563 18.496H278.867L278.315 21.28H281.963L281.579 23.176H277.931L276.563 29.944Z" fill="#202020"/>
<circle cx="370.242" cy="24.2425" r="23.2425" fill="white" stroke="#C4C4C4" stroke-width="2"/>
<path d="M371.017 18.0401L365.527 30.6401H363.223L357.715 18.0401H360.253L364.447 27.7601L368.677 18.0401H371.017ZM382.227 28.6601V30.6401H371.481V29.0741L378.897 20.0201H371.607V18.0401H381.993V19.6061L374.577 28.6601H382.227Z" fill="#202020"/>
<circle cx="332.242" cy="24.2425" r="24.2425" fill="#99CC99"/>
<path d="M331.729 28.6601V30.6401H320.983V29.0741L328.399 20.0201H321.109V18.0401H331.495V19.6061L324.079 28.6601H331.729ZM343.322 28.6781V30.6401H333.872V18.0401H343.07V20.0021H336.212V23.2781H342.296V25.2041H336.212V28.6781H343.322Z" fill="#202020"/>
</svg>
