<svg width="324" height="49" viewBox="0 0 324 49" fill="none" xmlns="http://www.w3.org/2000/svg">
<rect y="28" width="214" height="20" rx="10" fill="#D86386" fill-opacity="0.65"/>
<path d="M11.1627 17.2H13.5627L10.2027 34H7.80269L11.1627 17.2ZM33.0164 21.16C34.4564 21.16 35.5764 21.528 36.3764 22.264C37.1924 22.984 37.6004 24.016 37.6004 25.36C37.6004 25.728 37.5444 26.232 37.4324 26.872L36.0164 34H33.7124L35.1284 26.872C35.2084 26.424 35.2484 26.056 35.2484 25.768C35.2484 24.936 35.0164 24.304 34.5524 23.872C34.0884 23.44 33.3844 23.224 32.4404 23.224C31.2564 23.224 30.2804 23.56 29.5124 24.232C28.7604 24.888 28.2484 25.88 27.9764 27.208L26.6084 34H24.3044L25.7444 26.872C25.8244 26.44 25.8644 26.08 25.8644 25.792C25.8644 24.96 25.6244 24.328 25.1444 23.896C24.6804 23.448 23.9764 23.224 23.0324 23.224C21.8484 23.224 20.8724 23.56 20.1044 24.232C19.3524 24.904 18.8404 25.92 18.5684 27.28L17.2244 34H14.9204L17.4404 21.28H19.6484L19.3364 22.864C20.4564 21.728 21.9284 21.16 23.7524 21.16C24.7444 21.16 25.5924 21.352 26.2964 21.736C27.0004 22.12 27.5124 22.68 27.8324 23.416C29.1284 21.912 30.8564 21.16 33.0164 21.16ZM49.1838 21.16C50.2718 21.16 51.2398 21.384 52.0878 21.832C52.9358 22.264 53.5998 22.896 54.0798 23.728C54.5598 24.544 54.7998 25.512 54.7998 26.632C54.7998 28.072 54.4878 29.36 53.8638 30.496C53.2398 31.632 52.3758 32.528 51.2718 33.184C50.1838 33.824 48.9598 34.144 47.5998 34.144C46.5118 34.144 45.5758 33.952 44.7918 33.568C44.0078 33.168 43.4078 32.592 42.9918 31.84L41.6478 38.656H39.3438L42.7998 21.28H45.0078L44.6958 22.864C45.8798 21.728 47.3758 21.16 49.1838 21.16ZM47.5038 32.128C48.4478 32.128 49.2958 31.904 50.0478 31.456C50.7998 30.992 51.3918 30.352 51.8238 29.536C52.2558 28.72 52.4718 27.792 52.4718 26.752C52.4718 25.616 52.1438 24.736 51.4878 24.112C50.8318 23.488 49.8958 23.176 48.6798 23.176C47.7358 23.176 46.8798 23.408 46.1118 23.872C45.3598 24.32 44.7678 24.952 44.3358 25.768C43.9198 26.584 43.7118 27.512 43.7118 28.552C43.7118 29.672 44.0398 30.552 44.6958 31.192C45.3678 31.816 46.3038 32.128 47.5038 32.128ZM60.1911 16.192H62.4951L58.9431 34H56.6391L60.1911 16.192ZM65.5742 28.36V28.504C65.5742 29.688 65.9103 30.592 66.5823 31.216C67.2543 31.824 68.2623 32.128 69.6063 32.128C70.3903 32.128 71.1263 32 71.8143 31.744C72.5023 31.472 73.0783 31.112 73.5423 30.664L74.5262 32.32C73.9023 32.896 73.1423 33.344 72.2463 33.664C71.3503 33.984 70.4063 34.144 69.4143 34.144C68.1663 34.144 67.0863 33.92 66.1743 33.472C65.2623 33.024 64.5583 32.384 64.0623 31.552C63.5663 30.72 63.3183 29.744 63.3183 28.624C63.3183 27.2 63.6223 25.92 64.2303 24.784C64.8543 23.648 65.7103 22.76 66.7983 22.12C67.9023 21.48 69.1343 21.16 70.4943 21.16C72.2223 21.16 73.5983 21.656 74.6223 22.648C75.6623 23.624 76.1823 24.96 76.1823 26.656C76.1823 27.168 76.1263 27.736 76.0143 28.36H65.5742ZM70.3983 23.08C69.2623 23.08 68.2863 23.4 67.4703 24.04C66.6543 24.68 66.1023 25.56 65.8143 26.68H74.0223C74.0863 25.544 73.7823 24.664 73.1103 24.04C72.4543 23.4 71.5503 23.08 70.3983 23.08ZM96.1101 21.16C97.5501 21.16 98.6701 21.528 99.4701 22.264C100.286 22.984 100.694 24.016 100.694 25.36C100.694 25.728 100.638 26.232 100.526 26.872L99.1101 34H96.8061L98.2221 26.872C98.3021 26.424 98.3421 26.056 98.3421 25.768C98.3421 24.936 98.1101 24.304 97.6461 23.872C97.1821 23.44 96.4781 23.224 95.5341 23.224C94.3501 23.224 93.3741 23.56 92.6061 24.232C91.8541 24.888 91.3421 25.88 91.0701 27.208L89.7021 34H87.3981L88.8381 26.872C88.9181 26.44 88.9581 26.08 88.9581 25.792C88.9581 24.96 88.7181 24.328 88.2381 23.896C87.7741 23.448 87.0701 23.224 86.1261 23.224C84.9421 23.224 83.9661 23.56 83.1981 24.232C82.4461 24.904 81.9341 25.92 81.6621 27.28L80.3181 34H78.0141L80.5341 21.28H82.7421L82.4301 22.864C83.5501 21.728 85.0221 21.16 86.8461 21.16C87.8381 21.16 88.6861 21.352 89.3901 21.736C90.0941 22.12 90.6061 22.68 90.9261 23.416C92.2221 21.912 93.9501 21.16 96.1101 21.16ZM105.676 28.36V28.504C105.676 29.688 106.012 30.592 106.684 31.216C107.356 31.824 108.364 32.128 109.708 32.128C110.492 32.128 111.228 32 111.916 31.744C112.604 31.472 113.18 31.112 113.644 30.664L114.628 32.32C114.004 32.896 113.244 33.344 112.348 33.664C111.452 33.984 110.508 34.144 109.516 34.144C108.268 34.144 107.188 33.92 106.276 33.472C105.364 33.024 104.66 32.384 104.164 31.552C103.668 30.72 103.42 29.744 103.42 28.624C103.42 27.2 103.724 25.92 104.332 24.784C104.956 23.648 105.812 22.76 106.9 22.12C108.004 21.48 109.236 21.16 110.596 21.16C112.324 21.16 113.7 21.656 114.724 22.648C115.764 23.624 116.284 24.96 116.284 26.656C116.284 27.168 116.228 27.736 116.116 28.36H105.676ZM110.5 23.08C109.364 23.08 108.388 23.4 107.572 24.04C106.756 24.68 106.204 25.56 105.916 26.68H114.124C114.188 25.544 113.884 24.664 113.212 24.04C112.556 23.4 111.652 23.08 110.5 23.08ZM127.14 21.16C128.596 21.16 129.724 21.528 130.524 22.264C131.34 23 131.748 24.04 131.748 25.384C131.748 25.848 131.7 26.344 131.604 26.872L130.188 34H127.884L129.3 26.872C129.38 26.44 129.42 26.088 129.42 25.816C129.42 24.984 129.172 24.344 128.676 23.896C128.18 23.448 127.444 23.224 126.468 23.224C125.22 23.224 124.188 23.568 123.372 24.256C122.572 24.928 122.036 25.936 121.764 27.28L120.42 34H118.116L120.636 21.28H122.844L122.532 22.912C123.684 21.744 125.22 21.16 127.14 21.16ZM137.86 29.944C137.812 30.184 137.788 30.408 137.788 30.616C137.788 31.128 137.924 31.52 138.196 31.792C138.484 32.064 138.908 32.2 139.468 32.2C140.14 32.2 140.748 32 141.292 31.6L141.772 33.352C141.004 33.88 140.02 34.144 138.82 34.144C137.812 34.144 136.996 33.864 136.372 33.304C135.764 32.728 135.46 31.944 135.46 30.952C135.46 30.616 135.492 30.296 135.556 29.992L136.924 23.176H134.764L135.124 21.28H137.308L137.86 18.496H140.164L139.612 21.28H143.26L142.876 23.176H139.228L137.86 29.944ZM158.463 21.28L155.943 34H153.735L154.047 32.44C153.471 32.984 152.799 33.408 152.031 33.712C151.279 34 150.455 34.144 149.559 34.144C148.471 34.144 147.503 33.928 146.655 33.496C145.807 33.048 145.143 32.408 144.663 31.576C144.183 30.744 143.943 29.768 143.943 28.648C143.943 27.208 144.255 25.92 144.879 24.784C145.503 23.648 146.359 22.76 147.447 22.12C148.551 21.48 149.783 21.16 151.143 21.16C152.231 21.16 153.159 21.352 153.927 21.736C154.711 22.12 155.311 22.688 155.727 23.44L156.159 21.28H158.463ZM150.063 32.128C151.007 32.128 151.855 31.904 152.607 31.456C153.375 30.992 153.967 30.352 154.383 29.536C154.815 28.72 155.031 27.792 155.031 26.752C155.031 25.616 154.703 24.736 154.047 24.112C153.391 23.488 152.455 23.176 151.239 23.176C150.295 23.176 149.447 23.408 148.695 23.872C147.943 24.32 147.351 24.952 146.919 25.768C146.487 26.584 146.271 27.512 146.271 28.552C146.271 29.672 146.599 30.552 147.255 31.192C147.927 31.816 148.863 32.128 150.063 32.128ZM163.735 29.944C163.687 30.184 163.663 30.408 163.663 30.616C163.663 31.128 163.799 31.52 164.071 31.792C164.359 32.064 164.783 32.2 165.343 32.2C166.015 32.2 166.623 32 167.167 31.6L167.647 33.352C166.879 33.88 165.895 34.144 164.695 34.144C163.687 34.144 162.871 33.864 162.247 33.304C161.639 32.728 161.335 31.944 161.335 30.952C161.335 30.616 161.367 30.296 161.431 29.992L162.799 23.176H160.639L160.999 21.28H163.183L163.735 18.496H166.039L165.487 21.28H169.135L168.751 23.176H165.103L163.735 29.944ZM172.784 21.28H175.088L172.568 34H170.264L172.784 21.28ZM174.608 18.832C174.192 18.832 173.848 18.696 173.576 18.424C173.304 18.152 173.168 17.824 173.168 17.44C173.168 16.992 173.32 16.616 173.624 16.312C173.944 15.992 174.344 15.832 174.824 15.832C175.24 15.832 175.584 15.968 175.856 16.24C176.144 16.496 176.288 16.808 176.288 17.176C176.288 17.672 176.128 18.072 175.808 18.376C175.504 18.68 175.104 18.832 174.608 18.832ZM182.919 34.144C181.719 34.144 180.671 33.92 179.775 33.472C178.879 33.008 178.183 32.36 177.687 31.528C177.191 30.696 176.943 29.736 176.943 28.648C176.943 27.224 177.263 25.944 177.903 24.808C178.543 23.672 179.431 22.784 180.567 22.144C181.703 21.488 182.983 21.16 184.407 21.16C185.607 21.16 186.655 21.384 187.551 21.832C188.447 22.28 189.135 22.92 189.615 23.752C190.111 24.568 190.359 25.528 190.359 26.632C190.359 28.056 190.039 29.344 189.399 30.496C188.759 31.632 187.871 32.528 186.735 33.184C185.615 33.824 184.343 34.144 182.919 34.144ZM183.063 32.128C184.007 32.128 184.855 31.904 185.607 31.456C186.375 30.992 186.967 30.352 187.383 29.536C187.815 28.72 188.031 27.792 188.031 26.752C188.031 25.616 187.703 24.736 187.047 24.112C186.391 23.488 185.455 23.176 184.239 23.176C183.295 23.176 182.447 23.408 181.695 23.872C180.943 24.32 180.351 24.952 179.919 25.768C179.487 26.584 179.271 27.512 179.271 28.552C179.271 29.672 179.599 30.552 180.255 31.192C180.927 31.816 181.863 32.128 183.063 32.128ZM201.226 21.16C202.682 21.16 203.81 21.528 204.61 22.264C205.426 23 205.834 24.04 205.834 25.384C205.834 25.848 205.786 26.344 205.69 26.872L204.274 34H201.97L203.386 26.872C203.466 26.44 203.506 26.088 203.506 25.816C203.506 24.984 203.258 24.344 202.762 23.896C202.266 23.448 201.53 23.224 200.554 23.224C199.306 23.224 198.274 23.568 197.458 24.256C196.658 24.928 196.122 25.936 195.85 27.28L194.506 34H192.202L194.722 21.28H196.93L196.618 22.912C197.77 21.744 199.306 21.16 201.226 21.16Z" fill="#202020"/>
<circle cx="299.242" cy="24.2425" r="24.2425" fill="#FEEB96"/>
<path d="M294.983 17.75V30H292.708V24.75H286.373V30H284.098V17.75H286.373V22.8075H292.708V17.75H294.983ZM316.082 17.75L312.022 30H309.607L306.58 20.935L303.5 30H301.067L297.007 17.75H299.37L302.415 27.06L305.582 17.75H307.682L310.78 27.1125L313.912 17.75H316.082Z" fill="#202020"/>
<circle cx="258.242" cy="24.2425" r="24.2425" fill="#E06B65"/>
<path d="M249.774 18.0401H252.114V30.6401H249.774V18.0401ZM266.718 18.0401V30.6401H264.378V25.2401H257.862V30.6401H255.522V18.0401H257.862V23.2421H264.378V18.0401H266.718Z" fill="#202020"/>
</svg>
