<svg width="79" height="87" viewBox="0 0 79 87" fill="none" xmlns="http://www.w3.org/2000/svg">
<path fill-rule="evenodd" clip-rule="evenodd" d="M39.3169 0.0352434C47.2623 -0.268719 55.182 1.36897 61.9484 5.90302C69.1041 10.6979 75.7599 17.2777 78.1267 26.0411C80.4643 34.6963 77.7253 43.8511 74.4341 52.1324C71.394 59.7822 66.371 66.0126 60.2472 71.0303C54.0222 76.1311 47.0976 80.3509 39.3169 80.9073C31.1841 81.4889 22.9002 79.3438 16.2834 74.1745C9.64715 68.99 5.63435 60.9616 3.01805 52.5494C0.375489 44.0528 -1.36667 34.8056 1.41273 26.3607C4.15315 18.0342 10.9561 12.3549 17.8147 7.59142C24.3206 3.07289 31.5995 0.330481 39.3169 0.0352434Z" fill="#FEEB96"/>
<path d="M41.4848 18.8569C41.4848 18.8569 28.3248 19.0669 28.1148 37.6769C28.1148 37.6769 21.0048 36.4169 27.0648 45.6169C27.0648 45.6169 27.6548 47.1969 29.5348 45.6169C31.4148 44.0369 27.7848 49.4069 36.2748 54.7769C36.2748 54.7769 36.4048 63.3969 34.2748 64.7769C32.1448 66.1569 45.8948 70.9069 48.1448 64.7769C46.7178 63.0157 45.9661 60.803 46.0248 58.5369C46.0248 58.5369 55.4848 58.0069 55.5448 41.7869C55.6048 25.5669 51.1048 17.9269 41.4848 18.8569Z" fill="#F9E2CC"/>
<path d="M56.5489 32.9524C55.0919 32.9524 58.425 23.107 53.2158 22.314C53.2158 22.314 49.3638 15.5081 47.0785 15.7063C44.7933 15.9046 44.4739 16.386 41.9691 15.7063C41.9691 15.7063 35.2031 10.0992 33.2272 15.0267C33.2272 15.0267 29.0658 13.3464 25.3136 19.3594C21.5614 25.3725 19.1763 19.6521 20.5235 27.5247C20.5235 27.5247 16.9908 30.9796 18.2382 35.605C18.2382 35.605 13.6577 37.7666 16.881 43.1566C20.1044 48.5466 10.9533 44.9313 17.3002 53.795C17.3002 53.795 14.1766 60.6387 16.3621 61.8942C18.5476 63.1496 14.8054 62.7626 18.2382 64.339C21.6711 65.9154 20.3239 62.7626 25.3136 64.339C25.3136 64.339 25.8624 68.4547 30.0637 63.0364C30.0637 63.0364 29.8193 64.9148 33.4618 63.0364C34.9587 65.3897 38.7808 67.1171 40.4473 68.6935C42.1139 70.2699 45.3061 65.6288 47.8109 64.0524C50.3157 62.476 51.3198 65.5379 52.7767 61.8942C54.2337 58.2505 52.9663 62.8381 56.5489 61.8942C60.1315 60.9502 58.4101 60.6699 57.9112 59.7259C57.4122 58.782 58.6297 60.4466 58.6697 59.0727C58.7098 57.6989 59.1091 56.3559 59.8321 55.1638C61.5885 51.8127 58.465 48.877 61.2692 44.9785C64.0734 41.0799 58.0059 32.9524 56.5489 32.9524ZM51.5 52.5C47.8109 57.1113 45 54.4401 45.5 56C44.9743 57.7624 47.8109 64.0524 47.8109 64.0524C42.452 70.3108 35 64.616 35 64.616C35 64.616 38.2133 55.1764 36.3971 54.4401C32.7946 52.9487 29.5947 45.7903 30.0637 45.29C27.6088 47.8386 25.3535 44.0156 24.7647 40.3153C24.3556 37.7666 28.018 38.8239 28.018 38.8239C27.8384 35.5011 30.1436 35.6994 29.8043 34.5288C29.5448 33.651 28.4773 29.1224 32 29.5C35.5227 29.8776 32.5293 26.2445 37 27.5C41.4707 28.7555 41 25 41 25C41.948 24.5941 44.1229 25.6032 45.5 26.5C46.8771 27.3968 48.5 25.5 48.5 25.5C54.9535 29.3081 55.5 47.5 51.5 52.5Z" fill="#EAB87F"/>
<path d="M47.9723 63.4839C42.263 68.0514 36.7119 65.3871 34.6501 63.4839C24.554 63.0627 16.8043 78.6922 14.1914 86.5596H70.8099C65.5763 76.9646 53.6816 58.9164 47.9723 63.4839Z" fill="#FFF6CE"/>
</svg>
