<svg width="125" height="49" viewBox="0 0 125 49" fill="none" xmlns="http://www.w3.org/2000/svg">
<circle cx="100.242" cy="24.2425" r="24.2425" fill="#E06B65"/>
<path d="M91.7737 18.0403H94.1137V30.6403H91.7737V18.0403ZM108.718 18.0403V30.6403H106.378V25.2403H99.8617V30.6403H97.5217V18.0403H99.8617V23.2423H106.378V18.0403H108.718Z" fill="#202020"/>
<circle cx="63.2425" cy="24.2425" r="24.2425" fill="#99CCFF"/>
<path d="M58.2877 18.0403C59.3797 18.0403 60.3277 18.2203 61.1317 18.5803C61.9477 18.9403 62.5717 19.4563 63.0037 20.1283C63.4357 20.8003 63.6517 21.5983 63.6517 22.5223C63.6517 23.4343 63.4357 24.2323 63.0037 24.9163C62.5717 25.5883 61.9477 26.1043 61.1317 26.4643C60.3277 26.8243 59.3797 27.0043 58.2877 27.0043H55.4437V30.6403H53.1037V18.0403H58.2877ZM58.1797 25.0243C59.1997 25.0243 59.9737 24.8083 60.5017 24.3763C61.0297 23.9443 61.2937 23.3263 61.2937 22.5223C61.2937 21.7183 61.0297 21.1003 60.5017 20.6683C59.9737 20.2363 59.1997 20.0203 58.1797 20.0203H55.4437V25.0243H58.1797ZM65.9885 18.0403H68.3285V28.6603H74.9165V30.6403H65.9885V18.0403Z" fill="#202020"/>
<circle cx="24.2425" cy="24.2425" r="24.2425" fill="#202020"/>
<path d="M15.6402 20.0203H11.4642V18.0403H22.1562V20.0203H17.9802V30.6403H15.6402V20.0203ZM23.9123 18.0403H29.4203C30.7643 18.0403 31.9583 18.3043 33.0023 18.8323C34.0463 19.3483 34.8563 20.0863 35.4323 21.0463C36.0083 21.9943 36.2963 23.0923 36.2963 24.3403C36.2963 25.5883 36.0083 26.6923 35.4323 27.6523C34.8563 28.6003 34.0463 29.3383 33.0023 29.8663C31.9583 30.3823 30.7643 30.6403 29.4203 30.6403H23.9123V18.0403ZM29.3123 28.6603C30.2363 28.6603 31.0463 28.4863 31.7423 28.1383C32.4503 27.7783 32.9903 27.2743 33.3623 26.6263C33.7463 25.9663 33.9383 25.2043 33.9383 24.3403C33.9383 23.4763 33.7463 22.7203 33.3623 22.0723C32.9903 21.4123 32.4503 20.9083 31.7423 20.5603C31.0463 20.2003 30.2363 20.0203 29.3123 20.0203H26.2523V28.6603H29.3123Z" fill="white"/>
</svg>
