<svg width="163" height="49" viewBox="0 0 163 49" fill="none" xmlns="http://www.w3.org/2000/svg">
<circle cx="138.242" cy="24.2425" r="24.2425" fill="#E06B65"/>
<path d="M129.774 18.0401H132.114V30.6401H129.774V18.0401ZM146.718 18.0401V30.6401H144.378V25.2401H137.862V30.6401H135.522V18.0401H137.862V23.2421H144.378V18.0401H146.718Z" fill="#202020"/>
<circle cx="101.242" cy="24.2425" r="24.2425" fill="#8A9BE4"/>
<path d="M95.1452 18.0401C96.2372 18.0401 97.1852 18.2201 97.9892 18.5801C98.8052 18.9401 99.4292 19.4561 99.8612 20.1281C100.293 20.8001 100.509 21.5981 100.509 22.5221C100.509 23.4341 100.293 24.2321 99.8612 24.9161C99.4292 25.5881 98.8052 26.1041 97.9892 26.4641C97.1852 26.8241 96.2372 27.0041 95.1452 27.0041H92.3012V30.6401H89.9612V18.0401H95.1452ZM95.0372 25.0241C96.0572 25.0241 96.8312 24.8081 97.3592 24.3761C97.8872 23.9441 98.1512 23.3261 98.1512 22.5221C98.1512 21.7181 97.8872 21.1001 97.3592 20.6681C96.8312 20.2361 96.0572 20.0201 95.0372 20.0201H92.3012V25.0241H95.0372ZM108.03 18.0401C109.122 18.0401 110.07 18.2201 110.874 18.5801C111.69 18.9401 112.314 19.4561 112.746 20.1281C113.178 20.8001 113.394 21.5981 113.394 22.5221C113.394 23.4341 113.178 24.2321 112.746 24.9161C112.314 25.5881 111.69 26.1041 110.874 26.4641C110.07 26.8241 109.122 27.0041 108.03 27.0041H105.186V30.6401H102.846V18.0401H108.03ZM107.922 25.0241C108.942 25.0241 109.716 24.8081 110.244 24.3761C110.772 23.9441 111.036 23.3261 111.036 22.5221C111.036 21.7181 110.772 21.1001 110.244 20.6681C109.716 20.2361 108.942 20.0201 107.922 20.0201H105.186V25.0241H107.922Z" fill="#202020"/>
<circle cx="62.2425" cy="24.2425" r="24.2425" fill="#99CC99"/>
<path d="M61.7288 28.6601V30.6401H50.9828V29.0741L58.3988 20.0201H51.1088V18.0401H61.4948V19.6061L54.0788 28.6601H61.7288ZM73.3223 28.6781V30.6401H63.8723V18.0401H73.0703V20.0021H66.2123V23.2781H72.2963V25.2041H66.2123V28.6781H73.3223Z" fill="#202020"/>
<circle cx="24.2425" cy="24.2425" r="24.2425" fill="#FEEB96"/>
<path d="M18.8538 18.4V31H16.5138V25.6H9.99782V31H7.65782V18.4H9.99782V23.602H16.5138V18.4H18.8538ZM40.5562 18.4L36.3802 31H33.8962L30.7822 21.676L27.6142 31H25.1122L20.9362 18.4H23.3662L26.4982 27.976L29.7562 18.4H31.9162L35.1022 28.03L38.3242 18.4H40.5562Z" fill="#202020"/>
</svg>
