<svg width="87" height="49" viewBox="0 0 87 49" fill="none" xmlns="http://www.w3.org/2000/svg">
<circle cx="62.2425" cy="24.2425" r="23.2425" fill="white" stroke="#C4C4C4" stroke-width="2"/>
<path d="M63.0173 18.0401L57.5273 30.6401H55.2233L49.7153 18.0401H52.2533L56.4473 27.7601L60.6773 18.0401H63.0173ZM74.2268 28.6601V30.6401H63.4808V29.0741L70.8968 20.0201H63.6068V18.0401H73.9928V19.6061L66.5768 28.6601H74.2268Z" fill="#202020"/>
<circle cx="24.2425" cy="24.2425" r="24.2425" fill="#99CC99"/>
<path d="M23.7288 28.6601V30.6401H12.9828V29.0741L20.3988 20.0201H13.1088V18.0401H23.4948V19.6061L16.0788 28.6601H23.7288ZM35.3223 28.6781V30.6401H25.8723V18.0401H35.0703V20.0021H28.2123V23.2781H34.2963V25.2041H28.2123V28.6781H35.3223Z" fill="#202020"/>
</svg>
