<svg width="90" height="49" viewBox="0 0 90 49" fill="none" xmlns="http://www.w3.org/2000/svg">
<circle cx="65.2425" cy="24.2425" r="24.2425" fill="#FEEB96"/>
<path d="M60.9829 17.75V30H58.7079V24.75H52.3729V30H50.0979V17.75H52.3729V22.8075H58.7079V17.75H60.9829ZM82.0824 17.75L78.0224 30H75.6074L72.5799 20.935L69.4999 30H67.0674L63.0074 17.75H65.3699L68.4149 27.06L71.5824 17.75H73.6824L76.7799 27.1125L79.9124 17.75H82.0824Z" fill="#202020"/>
<circle cx="24.2425" cy="24.2425" r="24.2425" fill="#E06B65"/>
<path d="M15.7737 18.0401H18.1137V30.6401H15.7737V18.0401ZM32.7177 18.0401V30.6401H30.3777V25.2401H23.8617V30.6401H21.5217V18.0401H23.8617V23.2421H30.3777V18.0401H32.7177Z" fill="#202020"/>
</svg>
