<svg width="79" height="84" viewBox="0 0 79 84" fill="none" xmlns="http://www.w3.org/2000/svg">
<path fill-rule="evenodd" clip-rule="evenodd" d="M37.6216 0.0215064C45.9681 -0.157107 54.5686 0.696525 61.4588 5.63606C68.4622 10.6567 72.6344 18.7487 75.4467 27.1381C78.3171 35.701 80.6105 45.1222 77.5401 53.6086C74.5278 61.9344 66.5407 66.5995 59.4148 71.4496C52.6689 76.0411 45.6402 80.1094 37.6216 80.7785C29.0994 81.4895 19.9829 80.6967 13.152 75.3097C6.37006 69.9612 3.60525 60.9308 1.52122 52.3085C-0.443095 44.1815 -0.618067 35.8093 1.66246 27.7734C3.98989 19.5723 7.90693 11.7152 14.4813 6.64136C21.0809 1.54805 29.427 0.196867 37.6216 0.0215064Z" fill="#E06B65"/>
<path d="M40.1827 16.2285C40.1827 16.2285 27.0127 16.4385 26.8027 35.0385C26.8027 35.0385 19.6927 33.7885 25.8027 43.0385C25.8027 43.0385 26.4027 44.6185 28.2727 43.0385C30.1427 41.4585 26.5227 46.8285 35.0227 52.1985C35.0227 52.1985 35.1427 60.8185 33.0227 62.1985C30.9027 63.5785 44.6427 68.3185 46.8827 62.1985C45.4337 60.4243 44.6706 58.1884 44.7327 55.8985C44.7327 55.8985 54.1727 55.4185 54.2227 39.1585C54.2727 22.8985 49.7327 15.2885 40.1827 16.2285Z" fill="#F0C4AB"/>
<path d="M63.627 68.5347C63.627 68.5347 58 55.4688 60.5 45.0001C61.5 35.0488 56.127 22.0347 56.127 22.0347C56.127 22.0347 53.627 15.5447 41.627 14.0447C41.627 14.0447 54.5 17.5001 45.1272 14.5344C37.3972 12.7844 26.8371 15.2934 20.627 22.6488C20.627 22.6488 13.2475 27.6943 17.1275 48.0343C21.0075 68.3743 16.88 79.0588 22.5 81.9688C28.12 84.8788 38.7704 68.5513 42 81.0001C47.48 72.8501 53.3596 81.9688 53.3596 81.9688C53.3596 81.9688 68.127 80.0347 63.627 68.5347ZM52.0196 50.1488C49.5396 53.9888 47.8696 55.4688 45.4096 55.4688C42.9496 55.4688 46.5096 61.7388 46.5096 61.7388C39.9796 64.9388 33.7096 61.2088 33.7096 61.2088C36.5396 59.2088 35.7096 52.2088 35.7096 52.2088C32.2596 51.9888 28.7996 42.7388 28.7996 42.7388C25.9696 44.9588 24.6896 41.1789 24.6896 41.1789C22.2396 33.5089 26.8396 35.0488 26.8396 35.0488C26.2196 26.0488 36.3196 23.8788 42.3596 22.6488C48.3996 21.4188 48.8896 18.8288 48.8896 18.8288C56.3196 27.4888 54.5396 46.2488 52.0196 50.1488Z" fill="#202020"/>
<path d="M39.1444 14.9339C39.1444 14.9339 37.9216 13.0634 28.6016 17.5234C19.2816 21.9834 25.8044 28.1839 25.3744 24.8539C24.6244 19.0439 17.8744 30.3339 24.5444 35.7139C24.5444 34.6339 37.4844 38.4639 43.1144 22.7139C43.1144 22.7139 52.5444 32.5839 53.8644 31.1139C55.1844 29.6439 53.4244 14.0539 39.1444 14.9339Z" fill="#202020"/>
<path d="M46.8356 60.4839C41.1263 65.0514 35.5752 62.3871 33.5133 60.4839C23.4173 60.0627 15.6675 75.6922 13.0547 83.5596H69.6732C64.4395 73.9646 52.5449 55.9164 46.8356 60.4839Z" fill="#FFB6B3"/>
</svg>
