<svg width="79" height="88" viewBox="0 0 79 88" fill="none" xmlns="http://www.w3.org/2000/svg">
<path fill-rule="evenodd" clip-rule="evenodd" d="M38.2771 0.121239C46.5944 -0.578627 54.94 1.76903 61.9189 6.7106C69.1418 11.8249 75.1578 19.1217 77.7068 28.0403C80.2348 36.8854 78.7786 46.3968 75.7346 55.0498C72.8062 63.3739 67.8978 70.8439 60.9598 75.6451C54.2798 80.2678 46.2079 80.8814 38.2771 80.971C30.2629 81.0615 21.7365 81.2468 15.2473 76.1615C8.75497 71.0737 6.32806 62.23 3.84403 53.9873C1.35793 45.7378 -1.55175 37.0229 0.970142 28.786C3.48632 20.5679 10.6392 15.4911 17.1659 10.4764C23.6227 5.5153 30.3797 0.785774 38.2771 0.121239Z" fill="#8E587C"/>
<path d="M40.421 20.8161C40.421 20.8161 27.251 21.0261 27.041 39.6261C27.041 39.6261 19.931 38.3761 26.041 47.6261C26.041 47.6261 26.641 49.2061 28.511 47.6261C30.381 46.0461 26.761 51.4161 35.261 56.7861C35.261 56.7861 35.381 65.4061 33.261 66.7861C31.141 68.1661 44.881 72.9061 47.121 66.7861C45.6719 65.0119 44.9089 62.776 44.971 60.4861C44.971 60.4861 54.411 60.0061 54.461 43.7461C54.511 27.4861 49.971 19.8761 40.421 20.8161Z" fill="#FDDFC3"/>
<path d="M59.7734 73.225C59.7734 73.225 60.2734 55.2461 60.2734 49.225C60.2734 43.2039 59.2731 32.725 53.7731 24.725C51.4265 21.3117 49.186 18.324 46.2734 17.225C43.3607 16.1261 38.186 15.375 33.2734 16.7251C28.3607 18.0751 23.3885 23.2039 22.2731 26.225C21.1578 29.2461 18.7728 38.225 20.7728 52.725C22.2211 63.225 20.6534 75.815 26.2734 78.725C31.8934 81.635 37.6102 84.875 43.0902 76.725C48.5702 68.575 49.7734 79.225 49.7734 79.225C49.7734 79.225 55.5762 84.6839 59.7734 73.225ZM52.2607 54.7461C49.7807 58.5861 48.1107 60.0661 45.6507 60.0661C43.1907 60.0661 46.7507 66.3361 46.7507 66.3361C40.2207 69.5361 33.9507 65.8061 33.9507 65.8061C36.7807 63.8061 35.9507 56.8061 35.9507 56.8061C32.5007 56.5861 29.0407 47.3361 29.0407 47.3361C26.2107 49.5561 24.9307 45.7761 24.9307 45.7761C22.4807 38.1061 27.0807 39.6461 27.0807 39.6461C26.8268 35.9611 28.8249 31.9846 31.2734 29.725C34.5243 26.725 43.2734 25.225 43.2734 25.225L49.7734 27.225C56.2734 34.725 54.7807 50.8461 52.2607 54.7461Z" fill="#CAA48D"/>
<path d="M47.2575 64.4841C41.5482 69.0516 35.9971 66.3872 33.9352 64.4841C23.8391 64.0628 16.0894 79.6923 13.4766 87.5597H70.0951C64.8614 77.9647 52.9668 59.9166 47.2575 64.4841Z" fill="#E8B5D7"/>
</svg>
