<svg width="79" height="82" viewBox="0 0 79 82" fill="none" xmlns="http://www.w3.org/2000/svg">
<path fill-rule="evenodd" clip-rule="evenodd" d="M41.6893 0.047923C50.3229 -0.425534 59.0462 2.63377 65.597 8.13367C71.8554 13.3882 74.2202 21.4415 76.4138 29.2021C78.5092 36.6153 80.1937 44.3014 77.8996 51.6586C75.5779 59.1039 69.905 64.8226 63.7575 69.7898C57.222 75.0705 50.1555 80.2927 41.6893 80.9165C32.8761 81.5659 24.1444 78.3736 17.0551 73.231C10.0221 68.1292 5.30292 60.6971 2.60886 52.5672C-0.0812364 44.4493 -1.28872 35.5408 1.9374 27.6105C5.0649 19.9226 12.7448 15.4476 19.6601 10.6528C26.5007 5.90974 33.3066 0.507617 41.6893 0.047923Z" fill="#DE7193"/>
<path d="M41.7898 13.3908C41.7898 13.3908 28.6198 13.6008 28.4098 32.2008C28.4098 32.2008 21.2997 30.9508 27.3597 40.2008C27.3597 40.2008 27.9597 41.7808 29.8297 40.2008C31.6997 38.6208 28.0798 43.9808 36.5798 49.3608C36.5798 49.3608 36.6997 57.9808 34.5798 59.3608C32.4598 60.7408 46.1898 65.4808 48.4398 59.3608C47.0136 57.5951 46.2621 55.3797 46.3198 53.1108C46.3198 53.1108 55.7598 52.6408 55.8098 36.3708C55.8698 20.2008 51.3698 12.4508 41.7898 13.3908Z" fill="#FDE6D1"/>
<path d="M30.5037 40.2881C30.5037 40.2881 31.2816 46.559 36.5041 49.2881C36.5041 49.2881 30.0001 47.4999 27.9997 40.9999C27.9997 40.9999 29.9993 38.5002 30.5037 40.2881Z" fill="#F1C493"/>
<path d="M47.4411 58.9245C41.7318 63.492 36.1807 60.8276 34.1188 58.9245C24.0227 58.5033 16.273 74.1328 13.6602 82.0002H70.2787C65.045 72.4051 53.1504 54.357 47.4411 58.9245Z" fill="#F8BACD"/>
<path d="M37.3044 66.8068C37.3044 66.8068 40 63.5 35.4998 60.9998C35.4998 60.9998 31.5143 63.2488 33.8031 66.8066C33.8031 66.8066 35.9998 69.5 37.3044 66.8068Z" fill="#F1C493"/>
<path d="M36.156 72.3921C36.156 72.3921 39.9182 70.4773 37.0145 65.3589C37.0145 65.3589 31.578 68.0903 33.8668 71.6481C33.8668 71.6481 34.4817 73.2087 36.156 72.3921Z" fill="#F1C493"/>
<path d="M38.203 76.4999C38.203 76.4999 38.6064 75.6184 35.7027 70.5C35.7027 70.5 34.5376 74.1725 34.202 77C34.202 77 36.5287 77.3165 38.203 76.4999Z" fill="#F1C493"/>
<path d="M30.0005 44.5C30.0005 44.5 27.549 48.8641 32 53.5C32 53.5 38 50 33.5 47.5C33.5 47.5 31.2938 43.3888 30.0005 44.5Z" fill="#F1C493"/>
<path d="M30.8742 52.1314C30.8742 52.1314 28 56.5 33.4883 59.7047C33.4883 59.7047 37.9997 54.5 33.4996 52.0001C33.4996 52.0001 31.9302 50.9539 30.8742 52.1314Z" fill="#F1C493"/>
<path d="M36.2586 63.4117C36.2586 63.4117 38 58 31.384 56.6778C31.384 56.6778 29.5 61 33.5 64C33.5 64 35.64 64.8292 36.2586 63.4117Z" fill="#F1C493"/>
<path d="M35.6679 18.1409C35.6679 18.1409 32.2842 30.2419 26.3187 34.4238C26.3187 34.4238 22.4633 22.7871 30.5967 17.8765C30.5967 17.8765 36.271 14.1752 35.6679 18.1409Z" fill="#F1C493"/>
<path d="M46.5 15.0002C46.5 15.0002 33.5 25 29.5 36.5001C29.5 36.5001 23 17.5001 36.5946 12.9229C36.5946 12.9229 51.4991 12.0001 46.5 15.0002Z" fill="#F1C493"/>
<path d="M46.0002 15.4998C46.0002 15.4998 45 23.4998 56 28.4998C56 28.4998 57.5007 16.9998 49.5693 13.8663C49.5693 13.8663 46.5007 11.9998 46.0002 15.4998Z" fill="#F1C493"/>
<path d="M47.0006 15.0001C47.0006 15.0001 41.5 27 34.5 28C34.5 28 34.713 16.2299 42.723 13.5599C42.723 13.5599 48.3706 11.4401 47.0006 15.0001Z" fill="#F1C493"/>
</svg>
