<svg width="79" height="82" viewBox="0 0 79 82" fill="none" xmlns="http://www.w3.org/2000/svg">
<path fill-rule="evenodd" clip-rule="evenodd" d="M39.9408 0.00223137C47.6403 -0.0987379 54.984 3.23544 61.2201 8.2716C67.4636 13.3136 72.0672 20.2711 74.9248 28.2544C77.9459 36.6945 80.6172 46.1165 77.8221 54.6529C75.0605 63.0869 67.2948 67.6716 60.4626 72.4234C54.1088 76.8425 47.4292 81.0453 39.9408 80.9996C32.477 80.9541 25.9694 76.4789 19.5815 72.174C12.5738 67.4515 4.20986 63.4601 1.26984 54.939C-1.71448 46.2895 1.07414 36.5516 4.35254 28.0355C7.40231 20.1133 12.7071 13.7994 19.0221 8.82498C25.2637 3.90836 32.2992 0.102441 39.9408 0.00223137Z" fill="#99CCFF"/>
<path d="M41.4126 14.3199C41.4126 14.3199 28.2526 14.5299 28.0426 33.1299C28.0426 33.1299 20.9326 31.8799 26.9926 41.0699C26.9926 41.0699 27.5826 42.6599 29.4626 41.0699C31.3426 39.4799 27.7126 44.8599 36.2026 50.2299C36.2026 50.2299 36.3326 58.8499 34.2026 60.2299C32.0726 61.6099 45.8226 66.3499 48.0726 60.2299C46.6464 58.4643 45.8949 56.2489 45.9526 53.9799C45.9526 53.9799 55.3926 53.5099 55.4426 37.2399C55.4926 21.1599 51.0026 13.4099 41.4126 14.3199Z" fill="#D2AE8D"/>
<path d="M40.7595 11.7986C37.8029 10.4241 32.8643 10.9686 29.9036 12.3352C27.8676 13.2749 25.8826 14.4855 23.9706 17.034C18.045 22.2027 22.482 55.6488 24.467 59.3233C24.9431 60.2047 25.8893 59.6464 27.4308 59.7932C29.2851 59.9697 30.657 60.1533 32.8664 59.7932C35.3315 59.3233 35.8252 56.0341 35.8252 56.0341C35.8291 54.6245 36.319 52.2751 35.8291 49.9257C35.8291 48.9859 32.3034 49.1926 29.9036 40.528C29.9036 40.528 28.005 42.9235 26.8496 40.7527C25.6941 38.5818 23.077 35.2363 26.3163 33.8172C27.5804 33.2628 29.4963 35.0201 31.8072 31.1577C33.7824 27.8122 35.0761 18.9408 42.404 19.5704C49.7318 20.2001 49.8306 18.6307 49.8306 18.6307C49.8306 18.6307 55.6855 21.7892 54.5893 41.4678C54.5628 42.1033 54.2725 43.2038 54.0955 43.8172C53.4042 46.2794 51.666 52.8859 45.701 53.2148C45.701 53.2148 45.5676 55.8436 46.6886 57.4438C47.5122 58.6192 47.0379 59.1117 48.6638 58.8534C51.1282 58.4618 56.1144 60.5623 56.565 59.3233C57.5526 56.6074 66.9304 7.16645 40.7595 11.7986Z" fill="#22160F"/>
<path d="M47.1208 58.783C41.4114 63.3505 35.8604 60.6861 33.7985 58.783C23.7024 58.3618 15.9527 73.9913 13.3398 81.8587H69.9583C64.7247 72.2637 52.8301 54.2155 47.1208 58.783Z" fill="#C3DDF7"/>
</svg>
