<svg width="79" height="83" viewBox="0 0 79 83" fill="none" xmlns="http://www.w3.org/2000/svg">
<path fill-rule="evenodd" clip-rule="evenodd" d="M39.0416 0.0617201C46.9611 -0.308693 55.072 0.913959 61.6484 5.75561C68.3706 10.7046 72.641 18.5405 75.4406 26.8593C78.3339 35.4566 80.4721 44.8957 77.7341 53.5537C75.0192 62.1389 67.8947 67.8147 60.9267 72.7552C54.2906 77.4603 46.9457 81.2464 39.0416 80.9875C31.2788 80.7331 24.1823 76.6195 18.0886 71.3517C12.194 66.256 8.18605 59.3803 5.27936 51.801C2.12818 43.5842 -1.65043 34.7018 0.770336 26.1937C3.20005 17.6542 10.862 12.5419 17.7969 7.80667C24.2881 3.37441 31.397 0.41928 39.0416 0.0617201Z" fill="#8A9BE4"/>
<path d="M41.4848 14.857C41.4848 14.857 28.3248 15.067 28.1148 33.677C28.1148 33.677 21.0048 32.417 27.0648 41.617C27.0648 41.617 27.6548 43.197 29.5348 41.617C31.4148 40.037 27.7848 45.407 36.2748 50.777C36.2748 50.777 36.4048 59.397 34.2748 60.777C32.1448 62.157 45.8948 66.907 48.1448 60.777C46.7178 59.0157 45.9661 56.8031 46.0248 54.537C46.0248 54.537 55.4848 54.007 55.5448 37.787C55.6048 21.567 51.1048 13.927 41.4848 14.857Z" fill="#BA9777"/>
<path d="M56.6349 28.137C55.1749 28.137 58.5149 17.707 53.2949 16.867C53.2949 16.867 49.4349 9.657 47.1449 9.867C44.8549 10.077 44.5349 10.587 42.0249 9.867C42.0249 9.867 35.2449 3.927 33.2649 9.147C33.2649 9.147 29.0949 7.367 25.3349 13.737C21.5749 20.107 19.1849 14.047 20.5349 22.387C20.5349 22.387 16.9949 26.047 18.2449 30.947C18.2449 30.947 13.6549 33.237 16.8849 38.947C20.1149 44.657 10.9449 40.827 17.3049 50.217C17.3049 50.217 14.1749 57.467 16.3649 58.797C18.5549 60.127 13.2349 64.927 16.6749 66.597C20.1149 68.267 14.6749 70.037 19.6749 71.707C19.6749 71.707 19.4649 78.177 23.6749 72.437C23.6749 72.437 25.5549 73.797 29.2049 71.807C32.8549 69.817 36.0949 68.887 37.7649 70.557C39.4349 72.227 43.4949 71.707 46.0049 70.037C48.5149 68.367 49.445 75.147 50.905 71.287C52.365 67.427 50.8949 68.007 54.4849 67.007C58.0749 66.007 60.7449 62.417 59.6949 60.007C59.0411 58.7061 58.72 57.2634 58.7601 55.808C58.8003 54.3527 59.2005 52.9299 59.9249 51.667C61.6849 48.117 58.5549 45.007 61.3649 40.877C64.1749 36.747 58.0949 28.137 56.6349 28.137ZM52.8549 49.537C48.4649 55.687 46.9149 52.537 45.8549 54.607C44.7949 56.677 48.1449 60.767 48.1449 60.767C42.7749 67.397 34.6049 61.387 34.6049 61.387C34.6049 61.387 37.8249 51.387 36.0049 50.607C32.3949 49.027 29.6249 41.737 30.0949 41.207C27.6349 43.907 25.3749 39.857 24.7849 35.937C24.3749 33.237 28.0449 34.357 28.0449 34.357C27.8649 30.837 30.1749 31.047 29.8349 29.807C29.5749 28.877 28.9949 21.407 32.5249 21.807C36.0549 22.207 32.6049 16.477 37.0849 17.807C41.5649 19.137 41.4849 15.727 41.4849 15.727C42.4349 15.297 43.0349 16.417 44.4149 17.367C45.7949 18.317 48.1149 17.797 48.1149 17.797C56.4849 20.007 57.5349 43.007 52.8549 49.537Z" fill="#202020"/>
<path d="M47.9997 59.783C42.2904 64.3505 36.7393 61.6861 34.6774 59.783C24.5813 59.3618 16.8316 74.9913 14.2188 82.8587H70.8372C65.6036 73.2637 53.709 55.2155 47.9997 59.783Z" fill="#B4C1FF"/>
</svg>
