<svg width="79" height="83" viewBox="0 0 79 83" fill="none" xmlns="http://www.w3.org/2000/svg">
<path fill-rule="evenodd" clip-rule="evenodd" d="M39.9408 0.00223137C47.6403 -0.0987379 54.984 3.23544 61.2201 8.2716C67.4636 13.3136 72.0672 20.2711 74.9248 28.2544C77.9459 36.6945 80.6172 46.1165 77.8221 54.6529C75.0605 63.0869 67.2948 67.6716 60.4626 72.4234C54.1088 76.8425 47.4292 81.0453 39.9408 80.9996C32.477 80.9541 25.9694 76.4789 19.5815 72.174C12.5738 67.4515 4.20986 63.4601 1.26984 54.939C-1.71448 46.2895 1.07414 36.5516 4.35254 28.0355C7.40231 20.1133 12.7071 13.7994 19.0221 8.82498C25.2637 3.90836 32.2992 0.102441 39.9408 0.00223137Z" fill="#343434"/>
<path d="M38.7889 14.06C38.7889 14.06 25.6189 14.27 25.3789 32.91C25.3789 32.91 18.2689 31.65 24.3789 40.85C24.3789 40.85 24.9689 42.44 26.8389 40.85C28.7089 39.26 25.0889 44.64 33.5889 50.01C33.5889 50.01 33.7089 58.63 31.5889 60.01C29.4689 61.39 43.2089 66.13 45.4489 60.01C44.0227 58.2444 43.2712 56.029 43.3289 53.76C43.3289 53.76 52.7689 53.28 52.8189 37.02C52.8689 20.76 48.3789 13.12 38.7889 14.06Z" fill="#F0CEBB"/>
<path d="M20.2891 20.15C20.2891 20.15 16.8591 23.9 21.1891 29.37C21.0013 29.7585 20.8996 30.183 20.8908 30.6144C20.882 31.0458 20.9664 31.4741 21.1382 31.8699C21.3101 32.2657 21.5652 32.6198 21.8864 32.9081C22.2075 33.1963 22.5871 33.4118 22.9991 33.54C22.9991 33.54 25.1191 35.96 25.9191 34.04C26.7191 32.12 25.78 27.1 29 27C29 27 27.56 20.69 32.5 21.5C32.5 21.5 36.4891 17.03 38.6091 18.04C40.7291 19.05 42.2991 20.38 44.2191 18.67C46.1391 16.96 47.6691 23.82 50.4291 23.14C51.9791 22.75 51.7891 33.04 52.7991 32.03C53.8091 31.02 55.9191 20.25 50.5791 14.22C50.5791 14.22 46.3591 11.5 44.8491 13.22C44.8491 13.22 43.4391 10 40.1191 10C36.7991 10 35.1191 11.51 33.4691 11.21C31.8191 10.91 28.9391 10.7 27.5291 12.21C27.5291 12.2 19.2991 16.77 20.2891 20.15Z" fill="#5F4434"/>
<path d="M45.3789 12.83C45.5735 12.1729 45.9872 11.6022 46.5512 11.2128C47.1152 10.8235 47.7955 10.639 48.4789 10.69" fill="#202020"/>
<path d="M44.2188 12.18C44.2289 11.6877 44.4149 11.2153 44.7433 10.8485C45.0717 10.4816 45.5206 10.2444 46.0088 10.18" fill="#202020"/>
<path d="M45.7067 59.6645C39.9974 64.232 34.4463 61.5676 32.3844 59.6645C22.2884 59.2432 14.5386 74.8727 11.9258 82.7401H68.5443C63.3106 73.1451 51.416 55.097 45.7067 59.6645Z" fill="#202020"/>
</svg>
