<svg width="182" height="98" viewBox="0 0 182 98" fill="none" xmlns="http://www.w3.org/2000/svg">
<path d="M12.3702 79.363V81.559H15.5292V82.333H12.3702V84.88H11.4702V78.58H15.9162V79.363H12.3702ZM18.6271 80.065C19.2871 80.065 19.7911 80.227 20.1391 80.551C20.4931 80.875 20.6701 81.358 20.6701 82V84.88H19.8511V84.25C19.7071 84.472 19.5001 84.643 19.2301 84.763C18.9661 84.877 18.6511 84.934 18.2851 84.934C17.7511 84.934 17.3221 84.805 16.9981 84.547C16.6801 84.289 16.5211 83.95 16.5211 83.53C16.5211 83.11 16.6741 82.774 16.9801 82.522C17.2861 82.264 17.7721 82.135 18.4381 82.135H19.8061V81.964C19.8061 81.592 19.6981 81.307 19.4821 81.109C19.2661 80.911 18.9481 80.812 18.5281 80.812C18.2461 80.812 17.9701 80.86 17.7001 80.956C17.4301 81.046 17.2021 81.169 17.0161 81.325L16.6561 80.677C16.9021 80.479 17.1961 80.329 17.5381 80.227C17.8801 80.119 18.2431 80.065 18.6271 80.065ZM18.4291 84.268C18.7591 84.268 19.0441 84.196 19.2841 84.052C19.5241 83.902 19.6981 83.692 19.8061 83.422V82.756H18.4741C17.7421 82.756 17.3761 83.002 17.3761 83.494C17.3761 83.734 17.4691 83.923 17.6551 84.061C17.8411 84.199 18.0991 84.268 18.4291 84.268ZM26.715 80.11V84.88H25.896V84.16C25.722 84.406 25.491 84.598 25.203 84.736C24.921 84.868 24.612 84.934 24.276 84.934C23.64 84.934 23.139 84.76 22.773 84.412C22.407 84.058 22.224 83.539 22.224 82.855V80.11H23.088V82.756C23.088 83.218 23.199 83.569 23.421 83.809C23.643 84.043 23.961 84.16 24.375 84.16C24.831 84.16 25.191 84.022 25.455 83.746C25.719 83.47 25.851 83.08 25.851 82.576V80.11H26.715ZM29.7279 84.934C29.3379 84.934 28.9629 84.883 28.6029 84.781C28.2429 84.673 27.9609 84.538 27.7569 84.376L28.1169 83.692C28.3269 83.842 28.5819 83.962 28.8819 84.052C29.1819 84.142 29.4849 84.187 29.7909 84.187C30.5469 84.187 30.9249 83.971 30.9249 83.539C30.9249 83.395 30.8739 83.281 30.7719 83.197C30.6699 83.113 30.5409 83.053 30.3849 83.017C30.2349 82.975 30.0189 82.93 29.7369 82.882C29.3529 82.822 29.0379 82.753 28.7919 82.675C28.5519 82.597 28.3449 82.465 28.1709 82.279C27.9969 82.093 27.9099 81.832 27.9099 81.496C27.9099 81.064 28.0899 80.719 28.4499 80.461C28.8099 80.197 29.2929 80.065 29.8989 80.065C30.2169 80.065 30.5349 80.104 30.8529 80.182C31.1709 80.26 31.4319 80.365 31.6359 80.497L31.2669 81.181C30.8769 80.929 30.4179 80.803 29.8899 80.803C29.5239 80.803 29.2449 80.863 29.0529 80.983C28.8609 81.103 28.7649 81.262 28.7649 81.46C28.7649 81.616 28.8189 81.739 28.9269 81.829C29.0349 81.919 29.1669 81.985 29.3229 82.027C29.4849 82.069 29.7099 82.117 29.9979 82.171C30.3819 82.237 30.6909 82.309 30.9249 82.387C31.1649 82.459 31.3689 82.585 31.5369 82.765C31.7049 82.945 31.7889 83.197 31.7889 83.521C31.7889 83.953 31.6029 84.298 31.2309 84.556C30.8649 84.808 30.3639 84.934 29.7279 84.934ZM35.5506 84.601C35.4246 84.709 35.2686 84.793 35.0826 84.853C34.8966 84.907 34.7046 84.934 34.5066 84.934C34.0266 84.934 33.6546 84.805 33.3906 84.547C33.1266 84.289 32.9946 83.92 32.9946 83.44V80.821H32.1846V80.11H32.9946V79.066H33.8586V80.11H35.2266V80.821H33.8586V83.404C33.8586 83.662 33.9216 83.86 34.0476 83.998C34.1796 84.136 34.3656 84.205 34.6056 84.205C34.8696 84.205 35.0946 84.13 35.2806 83.98L35.5506 84.601ZM36.5952 80.11H37.4592V84.88H36.5952V80.11ZM37.0272 79.192C36.8592 79.192 36.7182 79.138 36.6042 79.03C36.4962 78.922 36.4422 78.79 36.4422 78.634C36.4422 78.478 36.4962 78.346 36.6042 78.238C36.7182 78.124 36.8592 78.067 37.0272 78.067C37.1952 78.067 37.3332 78.121 37.4412 78.229C37.5552 78.331 37.6122 78.46 37.6122 78.616C37.6122 78.778 37.5552 78.916 37.4412 79.03C37.3332 79.138 37.1952 79.192 37.0272 79.192ZM41.6559 80.065C42.2619 80.065 42.7419 80.242 43.0959 80.596C43.4559 80.944 43.6359 81.457 43.6359 82.135V84.88H42.7719V82.234C42.7719 81.772 42.6609 81.424 42.4389 81.19C42.2169 80.956 41.8989 80.839 41.4849 80.839C41.0169 80.839 40.6479 80.977 40.3779 81.253C40.1079 81.523 39.9729 81.913 39.9729 82.423V84.88H39.1089V80.11H39.9369V80.83C40.1109 80.584 40.3449 80.395 40.6389 80.263C40.9389 80.131 41.2779 80.065 41.6559 80.065ZM46.9719 80.065C47.6319 80.065 48.1359 80.227 48.4839 80.551C48.8379 80.875 49.0149 81.358 49.0149 82V84.88H48.1959V84.25C48.0519 84.472 47.8449 84.643 47.5749 84.763C47.3109 84.877 46.9959 84.934 46.6299 84.934C46.0959 84.934 45.6669 84.805 45.3429 84.547C45.0249 84.289 44.8659 83.95 44.8659 83.53C44.8659 83.11 45.0189 82.774 45.3249 82.522C45.6309 82.264 46.1169 82.135 46.7829 82.135H48.1509V81.964C48.1509 81.592 48.0429 81.307 47.8269 81.109C47.6109 80.911 47.2929 80.812 46.8729 80.812C46.5909 80.812 46.3149 80.86 46.0449 80.956C45.7749 81.046 45.5469 81.169 45.3609 81.325L45.0009 80.677C45.2469 80.479 45.5409 80.329 45.8829 80.227C46.2249 80.119 46.5879 80.065 46.9719 80.065ZM46.7739 84.268C47.1039 84.268 47.3889 84.196 47.6289 84.052C47.8689 83.902 48.0429 83.692 48.1509 83.422V82.756H46.8189C46.0869 82.756 45.7209 83.002 45.7209 83.494C45.7209 83.734 45.8139 83.923 45.9999 84.061C46.1859 84.199 46.4439 84.268 46.7739 84.268Z" fill="#202020"/>
<path d="M83.257 91.12L83.248 86.53L80.971 90.355H80.557L78.28 86.557V91.12H77.416V84.82H78.154L80.782 89.248L83.374 84.82H84.112L84.121 91.12H83.257ZM87.6227 86.305C88.2827 86.305 88.7867 86.467 89.1347 86.791C89.4887 87.115 89.6657 87.598 89.6657 88.24V91.12H88.8467V90.49C88.7027 90.712 88.4957 90.883 88.2257 91.003C87.9617 91.117 87.6467 91.174 87.2807 91.174C86.7467 91.174 86.3177 91.045 85.9937 90.787C85.6757 90.529 85.5167 90.19 85.5167 89.77C85.5167 89.35 85.6697 89.014 85.9757 88.762C86.2817 88.504 86.7677 88.375 87.4337 88.375H88.8017V88.204C88.8017 87.832 88.6937 87.547 88.4777 87.349C88.2617 87.151 87.9437 87.052 87.5237 87.052C87.2417 87.052 86.9657 87.1 86.6957 87.196C86.4257 87.286 86.1977 87.409 86.0117 87.565L85.6517 86.917C85.8977 86.719 86.1917 86.569 86.5337 86.467C86.8757 86.359 87.2387 86.305 87.6227 86.305ZM87.4247 90.508C87.7547 90.508 88.0397 90.436 88.2797 90.292C88.5197 90.142 88.6937 89.932 88.8017 89.662V88.996H87.4697C86.7377 88.996 86.3717 89.242 86.3717 89.734C86.3717 89.974 86.4647 90.163 86.6507 90.301C86.8367 90.439 87.0947 90.508 87.4247 90.508ZM95.3978 86.35L93.3098 91.12H92.4278L90.3398 86.35H91.2398L92.8778 90.175L94.5518 86.35H95.3978ZM96.2041 86.35H97.0681V91.12H96.2041V86.35ZM96.6361 85.432C96.4681 85.432 96.3271 85.378 96.2131 85.27C96.1051 85.162 96.0511 85.03 96.0511 84.874C96.0511 84.718 96.1051 84.586 96.2131 84.478C96.3271 84.364 96.4681 84.307 96.6361 84.307C96.8041 84.307 96.9421 84.361 97.0501 84.469C97.1641 84.571 97.2211 84.7 97.2211 84.856C97.2211 85.018 97.1641 85.156 97.0501 85.27C96.9421 85.378 96.8041 85.432 96.6361 85.432ZM100.086 91.174C99.6958 91.174 99.3208 91.123 98.9608 91.021C98.6008 90.913 98.3188 90.778 98.1148 90.616L98.4748 89.932C98.6848 90.082 98.9398 90.202 99.2398 90.292C99.5398 90.382 99.8428 90.427 100.149 90.427C100.905 90.427 101.283 90.211 101.283 89.779C101.283 89.635 101.232 89.521 101.13 89.437C101.028 89.353 100.899 89.293 100.743 89.257C100.593 89.215 100.377 89.17 100.095 89.122C99.7108 89.062 99.3958 88.993 99.1498 88.915C98.9098 88.837 98.7028 88.705 98.5288 88.519C98.3548 88.333 98.2678 88.072 98.2678 87.736C98.2678 87.304 98.4478 86.959 98.8078 86.701C99.1678 86.437 99.6508 86.305 100.257 86.305C100.575 86.305 100.893 86.344 101.211 86.422C101.529 86.5 101.79 86.605 101.994 86.737L101.625 87.421C101.235 87.169 100.776 87.043 100.248 87.043C99.8818 87.043 99.6028 87.103 99.4108 87.223C99.2188 87.343 99.1228 87.502 99.1228 87.7C99.1228 87.856 99.1768 87.979 99.2848 88.069C99.3928 88.159 99.5248 88.225 99.6808 88.267C99.8428 88.309 100.068 88.357 100.356 88.411C100.74 88.477 101.049 88.549 101.283 88.627C101.523 88.699 101.727 88.825 101.895 89.005C102.063 89.185 102.147 89.437 102.147 89.761C102.147 90.193 101.961 90.538 101.589 90.796C101.223 91.048 100.722 91.174 100.086 91.174Z" fill="#202020"/>
<path d="M140.011 85.992C139.633 85.992 139.282 85.914 138.958 85.758C138.634 85.596 138.373 85.371 138.175 85.083L138.697 84.471C139.045 84.969 139.483 85.218 140.011 85.218C140.365 85.218 140.632 85.11 140.812 84.894C140.998 84.678 141.091 84.36 141.091 83.94V80.403H138.814V79.62H141.982V83.895C141.982 84.591 141.814 85.116 141.478 85.47C141.148 85.818 140.659 85.992 140.011 85.992ZM145.732 85.974C145.258 85.974 144.832 85.869 144.454 85.659C144.076 85.449 143.779 85.161 143.563 84.795C143.353 84.423 143.248 84.003 143.248 83.535C143.248 83.067 143.353 82.65 143.563 82.284C143.779 81.912 144.076 81.624 144.454 81.42C144.832 81.21 145.258 81.105 145.732 81.105C146.206 81.105 146.629 81.21 147.001 81.42C147.379 81.624 147.673 81.912 147.883 82.284C148.099 82.65 148.207 83.067 148.207 83.535C148.207 84.003 148.099 84.423 147.883 84.795C147.673 85.161 147.379 85.449 147.001 85.659C146.629 85.869 146.206 85.974 145.732 85.974ZM145.732 85.218C146.038 85.218 146.311 85.149 146.551 85.011C146.797 84.867 146.989 84.669 147.127 84.417C147.265 84.159 147.334 83.865 147.334 83.535C147.334 83.205 147.265 82.914 147.127 82.662C146.989 82.404 146.797 82.206 146.551 82.068C146.311 81.93 146.038 81.861 145.732 81.861C145.426 81.861 145.15 81.93 144.904 82.068C144.664 82.206 144.472 82.404 144.328 82.662C144.19 82.914 144.121 83.205 144.121 83.535C144.121 83.865 144.19 84.159 144.328 84.417C144.472 84.669 144.664 84.867 144.904 85.011C145.15 85.149 145.426 85.218 145.732 85.218ZM151.095 81.105C151.755 81.105 152.259 81.267 152.607 81.591C152.961 81.915 153.138 82.398 153.138 83.04V85.92H152.319V85.29C152.175 85.512 151.968 85.683 151.698 85.803C151.434 85.917 151.119 85.974 150.753 85.974C150.219 85.974 149.79 85.845 149.466 85.587C149.148 85.329 148.989 84.99 148.989 84.57C148.989 84.15 149.142 83.814 149.448 83.562C149.754 83.304 150.24 83.175 150.906 83.175H152.274V83.004C152.274 82.632 152.166 82.347 151.95 82.149C151.734 81.951 151.416 81.852 150.996 81.852C150.714 81.852 150.438 81.9 150.168 81.996C149.898 82.086 149.67 82.209 149.484 82.365L149.124 81.717C149.37 81.519 149.664 81.369 150.006 81.267C150.348 81.159 150.711 81.105 151.095 81.105ZM150.897 85.308C151.227 85.308 151.512 85.236 151.752 85.092C151.992 84.942 152.166 84.732 152.274 84.462V83.796H150.942C150.21 83.796 149.844 84.042 149.844 84.534C149.844 84.774 149.937 84.963 150.123 85.101C150.309 85.239 150.567 85.308 150.897 85.308ZM157.284 81.105C157.89 81.105 158.37 81.282 158.724 81.636C159.084 81.984 159.264 82.497 159.264 83.175V85.92H158.4V83.274C158.4 82.812 158.289 82.464 158.067 82.23C157.845 81.996 157.527 81.879 157.113 81.879C156.645 81.879 156.276 82.017 156.006 82.293C155.736 82.563 155.601 82.953 155.601 83.463V85.92H154.737V81.15H155.565V81.87C155.739 81.624 155.973 81.435 156.267 81.303C156.567 81.171 156.906 81.105 157.284 81.105ZM162.6 81.105C163.26 81.105 163.764 81.267 164.112 81.591C164.466 81.915 164.643 82.398 164.643 83.04V85.92H163.824V85.29C163.68 85.512 163.473 85.683 163.203 85.803C162.939 85.917 162.624 85.974 162.258 85.974C161.724 85.974 161.295 85.845 160.971 85.587C160.653 85.329 160.494 84.99 160.494 84.57C160.494 84.15 160.647 83.814 160.953 83.562C161.259 83.304 161.745 83.175 162.411 83.175H163.779V83.004C163.779 82.632 163.671 82.347 163.455 82.149C163.239 81.951 162.921 81.852 162.501 81.852C162.219 81.852 161.943 81.9 161.673 81.996C161.403 82.086 161.175 82.209 160.989 82.365L160.629 81.717C160.875 81.519 161.169 81.369 161.511 81.267C161.853 81.159 162.216 81.105 162.6 81.105ZM162.402 85.308C162.732 85.308 163.017 85.236 163.257 85.092C163.497 84.942 163.671 84.732 163.779 84.462V83.796H162.447C161.715 83.796 161.349 84.042 161.349 84.534C161.349 84.774 161.442 84.963 161.628 85.101C161.814 85.239 162.072 85.308 162.402 85.308Z" fill="#202020"/>
<path d="M90.2441 7.03956C90.2441 7.03956 76.5473 7.25796 76.3289 26.602C76.3289 26.602 68.9345 25.302 75.2369 34.922C75.2369 34.922 75.8609 36.5652 77.8057 34.922C79.7505 33.2788 75.9857 38.8532 84.8257 44.4484C84.8257 44.4484 84.9505 53.4132 82.7457 54.8484C80.5409 56.2836 94.8201 61.2132 97.1601 54.8484C95.6769 53.0121 94.8953 50.7081 94.9553 48.3484C94.9553 48.3484 104.773 47.8596 104.825 30.9388C104.887 14.122 100.207 6.06196 90.2441 7.03956Z" fill="#5F3E2B"/>
<path d="M89.6386 2.18318C89.6386 2.18318 83.6009 1.12114 78.7186 4.78278C70.3983 11.0228 74.3848 21.1001 73.519 12.5832C74.5581 8.94324 69.7011 26.2272 76.6379 31.8224C78.3728 22.4624 82.3586 18.8224 100.039 15.1824C100.039 15.1824 102.639 20.9032 104.719 22.9832C106.12 21.4232 104.49 1.26798 89.6386 2.18318Z" fill="#202020"/>
<path d="M97.5306 53.4205C91.5929 58.1707 85.8198 55.3998 83.6754 53.4205C73.1755 52.9824 65.1158 69.2371 62.3984 77.4192H121.282C115.839 67.4404 103.468 48.6703 97.5306 53.4205Z" fill="white" stroke="#AEABAB" stroke-width="0.7"/>
<path d="M100.602 14.1432C100.523 14.9576 100.168 15.7205 99.5952 16.305C99.0227 16.8894 98.2672 17.2602 97.4546 17.3557" fill="#202020"/>
<path d="M78.1973 54.7031C78.1973 54.7031 81.5049 57.2518 83.9173 58.3431C85.6725 59.1371 88.5973 59.9031 88.5973 59.9031L90.1573 56.7831L92.7573 59.9031C92.7573 59.9031 96.0805 59.3294 97.9573 58.3431C100.376 57.0722 103.157 53.6631 103.157 53.6631" stroke="#AEABAB" stroke-width="0.7"/>
<path d="M90.1562 56.7832L90.6763 77.0632" stroke="#AEABAB" stroke-width="0.7"/>
<circle cx="90.1573" cy="64.0631" r="1.04" transform="rotate(-180 90.1573 64.0631)" fill="#AEABAB"/>
<circle cx="90.1573" cy="69.2631" r="1.04" transform="rotate(-180 90.1573 69.2631)" fill="#AEABAB"/>
<circle cx="90.1573" cy="74.4632" r="1.04" transform="rotate(-180 90.1573 74.4632)" fill="#AEABAB"/>
<path d="M31.1954 4.02446C31.1954 4.02446 18.7211 1.65494 18.5027 20.9989C18.5027 20.9989 11.1083 19.6989 17.4107 29.3189C17.4107 29.3189 18.0243 30.9621 19.9795 29.3189C21.9347 27.6757 18.1595 33.2501 26.9891 38.8453C26.9891 38.8453 27.1243 47.8101 24.9091 49.2453C22.6939 50.6805 36.9939 55.6101 39.3339 49.2453C37.8507 47.4091 37.0692 45.105 37.1291 42.7453C37.1291 42.7453 46.9467 42.2565 46.9987 25.3357C47.0507 8.51894 41.169 3.04686 31.1954 4.02446Z" fill="#734632"/>
<path d="M38.4811 48.2246C30.9013 48.831 27.0411 51.8646 25.4811 48.7446C13.0011 48.2246 5.83846 64.798 3.12109 72.9801H62.0043C56.5613 63.0013 51.4811 47.1846 38.4811 48.2246Z" fill="#734632"/>
<path d="M45.7611 49.7846C48.6631 47.0899 57.7211 62.2647 62.0043 72.98H3.12109C5.83846 64.7979 8.32109 53.4244 18.2011 50.3044C18.6313 50.9498 20.271 52.3467 21.8411 52.9046L32.2411 54.9846C36.0444 55.0318 40.5611 52.9046 43.1611 51.8646C43.3302 51.7969 44.8572 50.6239 45.7611 49.7846Z" fill="#2A467B"/>
<path d="M44.7119 8.18458C44.7119 8.18458 29.1119 -8.97532 16.112 9.74463C16.112 9.74463 9.87883 24.8245 16.3477 37.8245C16.3477 37.8245 25.4817 40.1135 27.0383 38.8645C23.3983 38.8645 28.1291 39.2191 26.9747 38.6367C25.0883 37.7049 23.4835 36.2883 22.3249 34.5321C21.1663 32.7759 20.9342 30.4096 20.8199 28.3088C20.8199 28.3088 17.7291 31.1695 16.3459 27.3943C14.9003 23.4423 15.0999 19.9888 18.7399 21.5488C18.7399 21.5488 18.5507 19.1048 20.3811 16.3488C22.2115 13.5928 23.9399 11.0351 24.9799 9.99511C27.1223 10.8687 39.0199 10.6288 42.6599 16.8688C42.6599 16.8688 44.7399 24.6687 42.6599 34.0287C42.6599 34.0287 40.5799 40.2688 36.4199 41.3088C36.4199 41.3088 36.5515 44.8861 37.4355 45.1045C38.9227 45.4789 45.2338 44.6356 46.7955 42.5045C47.6275 38.7709 48.8436 11.9805 44.7119 8.18458Z" fill="#202020"/>
<circle cx="24.962" cy="48.84" r="1.04" transform="rotate(-180 24.962 48.84)" fill="#BCADA6"/>
<circle cx="27.042" cy="49.8799" r="1.04" transform="rotate(-180 27.042 49.8799)" fill="#BCADA6"/>
<circle cx="29.1221" cy="50.92" r="1.04" transform="rotate(-180 29.1221 50.92)" fill="#BCADA6"/>
<circle cx="31.2002" cy="50.92" r="1.04" transform="rotate(-180 31.2002 50.92)" fill="#BCADA6"/>
<circle cx="33.2803" cy="50.92" r="1.04" transform="rotate(-180 33.2803 50.92)" fill="#BCADA6"/>
<circle cx="35.3604" cy="49.8799" r="1.04" transform="rotate(-180 35.3604 49.8799)" fill="#BCADA6"/>
<circle cx="37.4405" cy="48.84" r="1.04" transform="rotate(-180 37.4405 48.84)" fill="#BCADA6"/>
<circle cx="38.4815" cy="47.8" r="1.04" transform="rotate(-180 38.4815 47.8)" fill="#BCADA6"/>
<path d="M150.647 3.18098C150.647 3.18098 136.951 3.35778 136.732 22.7122C136.732 22.7122 129.348 21.4018 135.692 30.9698C135.692 30.9698 136.306 32.613 138.251 30.9698C140.195 29.3266 136.431 34.9114 145.271 40.4962C145.271 40.4962 145.395 49.461 143.191 50.8962C140.986 52.3314 155.275 57.261 157.615 50.8962C156.126 49.0668 155.419 44.9583 155.479 42.6C155.479 42.6 162.239 40.4962 163.799 29.6C163.899 28.8991 164.839 30.64 166.399 29.08C166.919 28.04 171.079 19.72 164.839 21.28C163.875 8.30391 159.42 2.26617 150.647 3.18098Z" fill="#724124"/>
<path d="M164.557 19.55C164.828 18.0454 164.562 16.4798 163.802 15.1135C163.043 13.7472 161.836 12.6627 160.382 12.0403" fill="#202020"/>
<path d="M140.4 14.52C139.142 15.132 138.097 16.3118 137.44 17.8633C136.782 19.4147 136.552 21.2442 136.788 23.0474" fill="#202020"/>
<path d="M136.241 21.7327C134.211 19.3212 134.266 18.6127 134.266 14.9728C134.266 13.4128 134.736 11.8944 135.306 9.77274C139.315 -0.585299 154.025 0.413087 157.146 1.97287C161.305 3.53309 162.346 6.65268 162.346 6.65268C162.346 6.65268 164.946 12.8927 164.426 16.5327C161.201 7.69271 135.306 10.3601 136.241 21.7327Z" fill="#BCBEBB" stroke="#595D55" stroke-miterlimit="10"/>
<path d="M141.439 3.60014L151.319 4.64014L154.439 1.52014L158.599 5.16014H161.199" stroke="#595D55"/>
<path d="M137.281 6.07012L141.154 9.32012L143.366 4.12012L151.111 8.02012L155.537 4.12012L162.175 9.32012L163.281 8.02012" stroke="#595D55"/>
<path d="M135.199 11.211L138.979 8.37466V13.4801L145.999 7.24011L148.159 9.5092L150.319 8.37466L155.719 9.5092L156.799 7.24011L161.119 11.7783L163.279 11.211" stroke="#595D55"/>
<path d="M135.199 12.4401L138.319 15.0401L135.199 16.6001L136.447 19.7201" stroke="#595D55"/>
<path d="M147.68 1.00012L151.84 4.12012" stroke="#595D55"/>
<circle cx="136.24" cy="33.2401" r="2.08" transform="rotate(-180 136.24 33.2401)" fill="#FEF2D5"/>
<circle cx="136.24" cy="33.2401" r="1.93" transform="rotate(-180 136.24 33.2401)" stroke="#A98E6C" stroke-opacity="0.75" stroke-width="0.3"/>
<circle cx="166.4" cy="31.1601" r="2.08" transform="rotate(-180 166.4 31.1601)" fill="#FEF2D5"/>
<circle cx="166.4" cy="31.1601" r="1.93" transform="rotate(-180 166.4 31.1601)" stroke="#A98E6C" stroke-opacity="0.75" stroke-width="0.3"/>
<path d="M156.812 49.5969C150.874 54.3471 145.101 51.5762 142.957 49.5969C132.457 49.1588 124.397 65.4135 121.68 73.5956H180.563C175.12 63.6168 162.75 44.8467 156.812 49.5969Z" fill="#FFF7E4" stroke="#DCCBA1" stroke-width="0.5"/>
</svg>
