<svg width="81" height="83" viewBox="0 0 81 83" fill="none" xmlns="http://www.w3.org/2000/svg">
<path fill-rule="evenodd" clip-rule="evenodd" d="M40.0416 1.06172C47.9611 0.691307 56.072 1.91396 62.6484 6.75561C69.3706 11.7046 73.641 19.5405 76.4406 27.8593C79.3339 36.4566 81.4721 45.8957 78.7341 54.5537C76.0192 63.1389 68.8947 68.8147 61.9267 73.7552C55.2906 78.4603 47.9457 82.2464 40.0416 81.9875C32.2788 81.7331 25.1823 77.6195 19.0886 72.3517C13.194 67.256 9.18605 60.3803 6.27936 52.801C3.12818 44.5842 -0.650431 35.7018 1.77034 27.1937C4.20005 18.6542 11.862 13.5419 18.7969 8.80667C25.2881 4.37441 32.397 1.41928 40.0416 1.06172Z" fill="white" stroke="#DADADA" stroke-width="2"/>
<path d="M42.5988 13.2949C42.5988 13.2949 29.4288 13.5049 29.2188 32.1049C29.2188 32.1049 22.1088 30.8549 28.2188 40.1049C28.2188 40.1049 28.8087 41.6849 30.6787 40.1049C32.5487 38.5249 28.9287 43.8849 37.4287 49.2649C37.4287 49.2649 37.5487 57.8849 35.4287 59.2649C33.3087 60.6449 47.0488 65.3849 49.2888 59.2649C47.8626 57.4993 47.1111 55.2839 47.1687 53.0149C47.1687 53.0149 56.6087 52.5449 56.6687 36.2749C56.6787 20.1049 52.1788 12.3549 42.5988 13.2949Z" fill="#E8C8B6"/>
<path d="M47.3483 13.0449C47.3483 13.0449 37.7583 9.04491 33.8483 11.9149C29.9383 14.7849 30.5683 17.5249 27.0983 17.4049C23.6283 17.2849 14.0283 18.7449 16.8383 35.5149C16.8383 35.5149 25.9883 26.6749 25.1083 19.2949C25.1083 19.2949 25.9283 29.1449 23.5283 32.1649C21.1283 35.1849 16.0183 49.9049 25.3583 54.4449C34.6983 58.9849 37.4783 55.0149 37.4783 55.0149L37.9783 49.3349C37.9783 49.3349 31.7683 43.9549 31.1983 39.8549C30.7483 39.8549 27.9083 42.1449 26.5983 37.2049C25.3383 32.4349 27.0583 30.8249 30.0283 32.9949C30.0283 32.9949 29.8383 36.6549 30.5983 36.2749C31.3583 35.8949 32.7483 25.2749 35.1383 24.5349C37.5283 23.7949 47.8383 22.7449 47.3483 13.0449Z" fill="#202020"/>
<path d="M47.3178 15.3049C47.3178 15.3049 54.6378 20.7449 56.1678 27.7449C56.1678 27.7449 58.9078 16.4149 50.8978 13.7449C50.8978 13.7449 45.9478 11.7449 47.3178 15.3049Z" fill="#202020"/>
<path d="M48.6774 59.783C42.9681 64.3505 37.417 61.6861 35.3551 59.783C25.2591 59.3617 17.5093 74.9912 14.8965 82.8586H71.515C66.2813 73.2636 54.3867 55.2155 48.6774 59.783Z" fill="#DADADA"/>
</svg>
