<svg width="392" height="392" viewBox="0 0 392 392" fill="none" xmlns="http://www.w3.org/2000/svg">
<rect width="392" height="392" rx="196" fill="#202020"/>
<path fill-rule="evenodd" clip-rule="evenodd" d="M181.581 86.7005C179.995 87.82 180.124 90.219 182.003 94.5905C186.843 105.851 191.032 119.18 192.246 127.188C193.372 134.612 193.019 146.458 191.501 152.169C188.876 162.046 181.91 172.727 175.314 176.991C168.361 181.485 156.609 183.012 145.522 180.863C142.693 180.314 133.607 177.047 130.525 175.47C127.308 173.824 117.639 166.549 115.642 164.272C112.76 160.987 108.113 152.609 107.128 148.925C105.881 144.256 105.999 136.34 107.392 131.199C109.694 122.709 117.252 113.013 124.149 109.703C129.877 106.955 134.933 105.776 139.68 106.083C146.706 106.538 149.274 107.828 153.031 112.792C156.498 117.371 157.661 120.731 157.67 126.188C157.685 134.77 154.609 141.016 149.695 142.38C146.451 143.281 143.108 143.09 141.956 141.938C140.619 140.601 140.682 138.303 142.216 132.464C143.803 126.421 143.81 124.404 142.249 122.591C141.217 121.392 140.69 121.196 138.624 121.246C133.64 121.365 125.294 125.753 122.591 129.674C119.42 134.276 119.219 138.996 121.946 144.823C123.885 148.966 129.389 154.491 135.948 158.878C141.681 162.713 146.018 164.143 151.992 164.169C156.071 164.187 156.495 164.081 160.742 161.979C164.408 160.165 166.018 158.958 169.743 155.229C177.091 147.875 178.96 142.949 178.951 130.958C178.946 123.972 178.879 123.496 177.232 118.782C175.271 113.169 170.524 105.607 166.622 101.881C163.542 98.941 157.924 94.6965 155.417 93.418C153.168 92.271 147.135 90.3145 142.456 89.216C140.409 88.735 136.738 88.45 132.536 88.4455C126.352 88.4385 125.533 88.5525 121.286 90.01C118.767 90.8745 115.21 92.3285 113.381 93.241C107.908 95.9725 99.8402 103.396 95.4032 109.784C93.3702 112.712 89.8002 120.061 88.5212 123.952C86.1497 131.167 85.2847 141.461 86.4817 148.221C87.7232 155.233 91.5577 164.36 95.7097 170.188C99.0847 174.925 107.374 182.547 113.942 186.955C121.199 191.823 121.231 193.738 114.129 197.901C109.94 200.358 104.319 204.558 99.7537 208.645C92.3872 215.239 85.9637 226.627 82.9482 238.438C82.0072 242.123 81.8907 243.684 82.0717 250.188C82.2682 257.233 82.3957 258.036 84.1732 263.438C87.4107 273.276 93.3012 283.392 98.7667 288.5C103.506 292.929 110.51 298.121 113.956 299.759C126.934 305.926 140.981 304.335 154.814 295.13C159.994 291.684 166.106 285.693 168.367 281.847C171.361 276.753 172.595 272.366 172.847 265.925C173.083 259.871 172.636 257.119 170.489 251.385C168.868 247.059 166.761 244.286 161.888 240.066C155.865 234.85 152.751 232.82 147.84 230.906C140.78 228.156 137.728 228.348 130.357 232.011C123.88 235.228 121.805 237.643 120.295 243.718C119.39 247.355 118.865 258.632 119.519 260.354C120.565 263.104 123.552 263.678 127.456 261.879C136.235 257.835 144.653 254.438 145.895 254.438C150.055 254.438 152.639 263.335 150.116 268.971C148.639 272.27 143.401 277.64 139.569 279.783C135.483 282.068 131.41 282.449 124.153 281.226C117.953 280.181 113.981 278.353 110.573 274.976C105.542 269.99 104.254 265.623 104.589 254.688C104.861 245.819 106.251 239.72 109.538 232.975C115.109 221.546 129.619 212.076 145.612 209.432C154.728 207.924 168.235 211.805 175.011 217.879C178.124 220.669 183.383 228.013 185.169 232.063C186.512 235.111 187.616 239.808 188.503 246.259C188.991 249.806 189.004 251.934 188.56 255.759C187.316 266.467 186.834 270.862 186.454 274.938C186.236 277.275 185.675 280.763 185.208 282.688C184.741 284.613 184.159 288.55 183.914 291.438C183.67 294.325 183.329 297.837 183.156 299.241C182.868 301.592 182.963 301.93 184.358 303.491L185.873 305.188L198.214 305.338C211.657 305.501 212.439 305.363 213.473 302.644C214.003 301.249 212.59 293.822 209.677 282.688C206.348 269.964 204.95 258.733 205.934 252.608C208.397 237.282 223.52 218.154 237.304 212.93C242.396 211 245.699 210.658 249.962 211.62C256.918 213.188 267.482 219.458 274.364 226.104C277.675 229.302 283.963 237.838 285.476 241.188C290.829 253.044 288.792 265.873 279.814 276.862C276.118 281.385 273.97 282.974 268.917 284.923C261.113 287.932 253.239 288.012 246.972 285.146C242.207 282.967 239.78 279.734 238.159 273.407C236.871 268.379 238.415 264.547 244.131 258.585C246.994 255.599 248.048 254.813 249.188 254.813C251.302 254.813 251.868 255.985 251.862 260.348C251.856 264.736 253.391 271.24 254.95 273.429C256.673 275.849 258.45 275.852 263.303 273.447C268.064 271.088 269.876 268.942 270.974 264.362C271.723 261.241 271.244 254.974 269.933 250.731C268.133 244.907 263.466 239.373 258.031 236.619C255.567 235.37 254.541 235.166 249.995 235.015C243.358 234.794 239.727 235.5 234.616 238.005C228.732 240.887 223.617 245.416 221.331 249.766C218.36 255.42 217.29 260.179 217.587 266.42C218.145 278.134 223.119 287.329 233.97 296.699C238.904 300.961 242.146 302.802 248.619 305.018C254.07 306.885 254.381 306.932 261.347 306.935C267.255 306.937 269.024 306.758 271.597 305.898C283.269 301.993 293.689 292.527 300.166 279.942C304.789 270.96 305.956 266.247 305.956 256.563C305.956 250.226 305.763 248.493 304.417 242.752C300.857 227.569 295.294 218.192 282.514 205.838C275.595 199.149 275.005 198.133 276.831 196.051C277.312 195.503 280.406 193.035 283.706 190.568C296.845 180.745 302.908 172.857 307.516 159.588C309.591 153.613 310.101 149.343 309.834 140.2C309.61 132.502 309.527 131.982 307.731 126.938C304.833 118.796 302.869 115.075 298.813 110.038C295.132 105.468 291.762 102.463 286.598 99.147C281.798 96.0645 279.248 95.0565 272.288 93.4925C266.575 92.2085 264.292 91.938 259.17 91.938C253.66 91.938 252.452 92.104 248.337 93.4265C240.125 96.0665 236.272 99.555 231.702 108.489C228.746 114.269 227.667 117.787 225.936 127.285C224.658 134.296 224.815 136.414 226.928 140.707C231.343 149.674 245.809 160.077 253.963 160.147C257.266 160.176 259.68 158.914 264.233 154.78C267.514 151.801 274.654 143.394 276.108 140.797C277.245 138.767 276.953 136.562 274.894 131.616C273.371 127.958 271.194 125.438 269.555 125.438C269.102 125.438 264.9 127.353 260.219 129.694C250.16 134.724 249.017 135.044 247.29 133.317C245.662 131.689 244.662 127.095 245.429 124.771C246.384 121.877 250.779 118.558 259.413 114.21C265.799 110.993 268.096 111.252 274.347 115.888C279.067 119.389 283.372 124.056 286.094 128.622C288.361 132.427 290.46 138.931 290.449 142.119C290.41 153.018 280.18 167.662 267.21 175.389C261.018 179.077 257.08 180.559 250.266 181.767C245.659 182.583 245.02 182.586 239.737 181.809C232.703 180.775 229.609 179.624 224.081 175.986C217.476 171.639 214.683 168.105 212.147 160.885C209.242 152.613 208.442 145.428 209.482 136.964C210.887 125.529 212.7 112.704 214.248 103.259C216.311 90.6685 216.35 89.4515 214.75 87.591L213.544 86.188L198.125 86.047C184.693 85.9245 182.561 86.0085 181.581 86.7005ZM208.801 189.532C210.311 190.443 212.426 192.139 213.501 193.302C215.121 195.053 215.456 195.771 215.456 197.492C215.456 199.396 215.176 199.842 212.072 202.878C207.552 207.298 204.076 209.168 200.456 209.126C194.54 209.057 187.456 203.518 187.456 198.961C187.456 196.642 189.584 193.663 193.069 191.105C198.629 187.024 203.788 186.508 208.801 189.532Z" fill="url(#paint0_linear)"/>
<defs>
<linearGradient id="paint0_linear" x1="124" y1="91.5" x2="291" y2="307" gradientUnits="userSpaceOnUse">
<stop offset="0.192708" stop-color="#9A3267"/>
<stop offset="1" stop-color="#CE3C68"/>
</linearGradient>
</defs>
</svg>
