<svg width="79" height="84" viewBox="0 0 79 84" fill="none" xmlns="http://www.w3.org/2000/svg">
<path fill-rule="evenodd" clip-rule="evenodd" d="M39.3169 0.0352434C47.2623 -0.268719 55.182 1.36897 61.9484 5.90302C69.1041 10.6979 75.7599 17.2777 78.1267 26.0411C80.4643 34.6963 77.7253 43.8511 74.4341 52.1324C71.394 59.7822 66.371 66.0126 60.2472 71.0304C54.0222 76.1311 47.0976 80.3509 39.3169 80.9073C31.1841 81.4889 22.9002 79.3438 16.2834 74.1745C9.64715 68.99 5.63435 60.9616 3.01805 52.5494C0.375489 44.0528 -1.36667 34.8056 1.41273 26.3607C4.15315 18.0342 10.9561 12.3549 17.8147 7.59142C24.3206 3.07289 31.5995 0.330481 39.3169 0.0352434Z" fill="#99CC99"/>
<path d="M40.526 14.6894C40.526 14.6894 27.356 14.8994 27.146 33.5094C27.146 33.5094 20.046 32.2494 26.146 41.4494C26.146 41.4494 26.736 43.0294 28.606 41.4494C30.476 39.8694 26.836 45.1994 35.316 50.5694C35.316 50.5694 35.436 59.1894 33.316 60.5694C31.196 61.9494 44.936 66.6894 47.186 60.5694C45.7538 58.8104 44.9982 56.597 45.056 54.3294C45.056 54.3294 54.496 53.8494 54.556 37.5894C54.616 21.3294 50.106 13.6894 40.526 14.6894Z" fill="#E7C3AF"/>
<path d="M54.1033 16.0536C54.1033 16.0536 49.7499 13.4358 49.8793 12.188C50.0087 10.9403 46.8476 9.41324 44.2041 10.5738C44.2041 10.5738 39.5827 6.95256 35.0998 10.6959C35.0998 10.6959 29.1566 10.1986 27.1786 13.811C27.1786 13.811 22.5572 13.4358 24.4058 19.5439C24.4058 19.5439 19.7843 21.6643 23.3521 26.3937C23.3521 26.3937 20.7086 30.137 24.2764 32.3796C27.8441 34.6221 28.1029 31.8822 28.8978 35.8699C29.6927 39.8576 31.0052 32.1265 30.8758 30.6344C30.7464 29.1423 30.8758 25.8963 32.9832 26.7689C35.0906 27.6414 32.1976 22.5019 36.4678 24.5263C40.738 26.5507 42.7992 20.5997 44.5184 22.9993C46.2376 25.3989 49.9255 26.4896 50.8498 24.029C51.7741 21.5683 53.4933 25.0848 55.3419 22.9993C57.1905 20.9138 58.3274 19.8842 54.1033 16.0536Z" fill="#202020"/>
<path d="M46.4313 60.155C40.722 64.7225 35.1709 62.0582 33.109 60.155C23.013 59.7338 15.2632 75.3633 12.6504 83.2307H69.2689C64.0352 73.6357 52.1406 55.5875 46.4313 60.155Z" fill="#CBF4CB"/>
</svg>
