<svg width="35" height="35" viewBox="0 0 35 35" fill="none" xmlns="http://www.w3.org/2000/svg">
<path d="M34 17.5C34 26.6127 26.6127 34 17.5 34C8.3873 34 1 26.6127 1 17.5C1 8.3873 8.3873 1 17.5 1C26.6127 1 34 8.3873 34 17.5Z" fill="#99CC99" stroke="#99CC99" stroke-width="2"/>
<path d="M15.4543 19.9C15.4543 21.18 16.241 21.82 17.8143 21.82C18.601 21.82 19.201 21.66 19.6143 21.34C20.041 21.02 20.2543 20.54 20.2543 19.9C20.2543 19.1667 20.021 18.68 19.5543 18.44C19.0876 18.2 18.461 18.08 17.6743 18.08H16.2343V15.94H17.8743C18.4743 15.94 18.9676 15.7867 19.3543 15.48C19.741 15.1733 19.9343 14.7333 19.9343 14.16C19.9343 13.6 19.7276 13.18 19.3143 12.9C18.9143 12.6067 18.4143 12.46 17.8143 12.46C17.241 12.46 16.7543 12.62 16.3543 12.94C15.9543 13.2467 15.7543 13.68 15.7543 14.24H13.0943V13.82C13.0943 13.1133 13.2943 12.4733 13.6943 11.9C14.1076 11.3267 14.6743 10.88 15.3943 10.56C16.1143 10.24 16.9343 10.08 17.8543 10.08H18.2343C19.1276 10.08 19.921 10.24 20.6143 10.56C21.321 10.88 21.8743 11.3267 22.2743 11.9C22.6743 12.46 22.8743 13.0933 22.8743 13.8C22.8743 14.52 22.6876 15.1333 22.3143 15.64C21.9543 16.1467 21.461 16.54 20.8343 16.82V16.92C21.581 17.1733 22.1676 17.5867 22.5943 18.16C23.021 18.72 23.2343 19.4267 23.2343 20.28C23.2343 21.0267 23.0276 21.7 22.6143 22.3C22.201 22.9 21.6143 23.3667 20.8543 23.7C20.1076 24.0333 19.2343 24.2 18.2343 24.2H17.6943C16.6543 24.2 15.7543 24.0267 14.9943 23.68C14.2476 23.3333 13.681 22.86 13.2943 22.26C12.9076 21.6467 12.7143 20.9533 12.7143 20.18V19.9H15.4543Z" fill="white"/>
<path d="M15.4543 19.9H15.9543V19.4H15.4543V19.9ZM19.6143 21.34L19.3143 20.94L19.3082 20.9446L19.6143 21.34ZM19.5543 18.44L19.783 17.9954L19.5543 18.44ZM16.2343 18.08H15.7343V18.58H16.2343V18.08ZM16.2343 15.94V15.44H15.7343V15.94H16.2343ZM19.3143 12.9L19.0186 13.3032L19.0261 13.3087L19.0339 13.314L19.3143 12.9ZM16.3543 12.94L16.6586 13.3369L16.6666 13.3304L16.3543 12.94ZM15.7543 14.24V14.74H16.2543V14.24H15.7543ZM13.0943 14.24H12.5943V14.74H13.0943V14.24ZM13.6943 11.9L13.2887 11.6076L13.2842 11.6139L13.6943 11.9ZM15.3943 10.56L15.1912 10.1031H15.1912L15.3943 10.56ZM20.6143 10.56L20.4048 11.014L20.408 11.0155L20.6143 10.56ZM22.2743 11.9L21.8642 12.1861L21.8674 12.1906L22.2743 11.9ZM22.3143 15.64L21.9117 15.3434L21.9067 15.3504L22.3143 15.64ZM20.8343 16.82L20.6303 16.3635L20.3343 16.4958V16.82H20.8343ZM20.8343 16.92H20.3343V17.2784L20.6737 17.3935L20.8343 16.92ZM22.5943 18.16L22.1932 18.4585L22.1966 18.463L22.5943 18.16ZM22.6143 22.3L22.2025 22.0163H22.2025L22.6143 22.3ZM20.8543 23.7L20.6535 23.2421L20.6505 23.2434L20.8543 23.7ZM14.9943 23.68L14.7837 24.1335L14.7868 24.1349L14.9943 23.68ZM13.2943 22.26L12.8713 22.5267L12.874 22.5309L13.2943 22.26ZM12.7143 19.9V19.4H12.2143V19.9H12.7143ZM14.9543 19.9C14.9543 20.6475 15.189 21.2888 15.7288 21.7279C16.2488 22.1509 16.9727 22.32 17.8143 22.32V21.32C17.0825 21.32 16.6265 21.1691 16.3598 20.9521C16.1129 20.7512 15.9543 20.4325 15.9543 19.9H14.9543ZM17.8143 22.32C18.6585 22.32 19.385 22.1499 19.9204 21.7354L19.3082 20.9446C19.0169 21.1701 18.5435 21.32 17.8143 21.32V22.32ZM19.9143 21.74C20.4927 21.3062 20.7543 20.662 20.7543 19.9H19.7543C19.7543 20.418 19.5892 20.7338 19.3143 20.94L19.9143 21.74ZM20.7543 19.9C20.7543 19.0644 20.4804 18.354 19.783 17.9954L19.3256 18.8846C19.5616 19.006 19.7543 19.2689 19.7543 19.9H20.7543ZM19.783 17.9954C19.2191 17.7053 18.5041 17.58 17.6743 17.58V18.58C18.4179 18.58 18.9562 18.6947 19.3256 18.8846L19.783 17.9954ZM17.6743 17.58H16.2343V18.58H17.6743V17.58ZM16.7343 18.08V15.94H15.7343V18.08H16.7343ZM16.2343 16.44H17.8743V15.44H16.2343V16.44ZM17.8743 16.44C18.562 16.44 19.1721 16.2627 19.665 15.8717L19.0436 15.0883C18.7632 15.3107 18.3866 15.44 17.8743 15.44V16.44ZM19.665 15.8717C20.1914 15.4542 20.4343 14.8582 20.4343 14.16H19.4343C19.4343 14.6085 19.2905 14.8924 19.0436 15.0883L19.665 15.8717ZM20.4343 14.16C20.4343 13.4577 20.1638 12.8716 19.5947 12.486L19.0339 13.314C19.2914 13.4884 19.4343 13.7423 19.4343 14.16H20.4343ZM19.61 12.4968C19.1075 12.1283 18.4978 11.96 17.8143 11.96V12.96C18.3308 12.96 18.7211 13.085 19.0186 13.3032L19.61 12.4968ZM17.8143 11.96C17.1418 11.96 16.5412 12.1502 16.042 12.5496L16.6666 13.3304C16.9674 13.0898 17.3402 12.96 17.8143 12.96V11.96ZM16.0501 12.5432C15.5118 12.9559 15.2543 13.5443 15.2543 14.24H16.2543C16.2543 13.8157 16.3968 13.5374 16.6585 13.3368L16.0501 12.5432ZM15.7543 13.74H13.0943V14.74H15.7543V13.74ZM13.5943 14.24V13.82H12.5943V14.24H13.5943ZM13.5943 13.82C13.5943 13.2145 13.7636 12.6745 14.1044 12.1861L13.2842 11.6139C12.825 12.2721 12.5943 13.0122 12.5943 13.82H13.5943ZM14.0999 12.1924C14.4557 11.6989 14.9487 11.3052 15.5974 11.0169L15.1912 10.1031C14.3999 10.4548 13.7596 10.9545 13.2887 11.6076L14.0999 12.1924ZM15.5974 11.0169C16.2436 10.7297 16.9926 10.58 17.8543 10.58V9.58C16.876 9.58 15.985 9.75031 15.1912 10.1031L15.5974 11.0169ZM17.8543 10.58H18.2343V9.58H17.8543V10.58ZM18.2343 10.58C19.0675 10.58 19.7874 10.729 20.4048 11.014L20.8238 10.106C20.0546 9.75098 19.1878 9.58 18.2343 9.58V10.58ZM20.408 11.0155C21.042 11.3026 21.5212 11.6944 21.8642 12.1861L22.6844 11.6139C22.2274 10.9589 21.5999 10.4574 20.8206 10.1045L20.408 11.0155ZM21.8674 12.1906C22.2051 12.6634 22.3743 13.1946 22.3743 13.8H23.3743C23.3743 12.9921 23.1435 12.2566 22.6812 11.6094L21.8674 12.1906ZM22.3743 13.8C22.3743 14.4293 22.2129 14.9347 21.9118 15.3434L22.7168 15.9366C23.1624 15.332 23.3743 14.6107 23.3743 13.8H22.3743ZM21.9067 15.3504C21.6037 15.7768 21.1842 16.116 20.6303 16.3635L21.0383 17.2765C21.7378 16.964 22.3049 16.5165 22.7219 15.9296L21.9067 15.3504ZM20.3343 16.82V16.92H21.3343V16.82H20.3343ZM20.6737 17.3935C21.3346 17.6177 21.8333 17.9749 22.1932 18.4585L22.9954 17.8615C22.502 17.1984 21.8273 16.7289 20.995 16.4465L20.6737 17.3935ZM22.1966 18.463C22.5438 18.9187 22.7343 19.5123 22.7343 20.28H23.7343C23.7343 19.341 23.4982 18.5213 22.992 17.857L22.1966 18.463ZM22.7343 20.28C22.7343 20.928 22.5569 21.502 22.2025 22.0163L23.0261 22.5837C23.4984 21.898 23.7343 21.1253 23.7343 20.28H22.7343ZM22.2025 22.0163C21.849 22.5296 21.3404 22.9408 20.6535 23.2421L21.0551 24.1579C21.8882 23.7925 22.5529 23.2704 23.0261 22.5837L22.2025 22.0163ZM20.6505 23.2434C19.9806 23.5425 19.1794 23.7 18.2343 23.7V24.7C19.2892 24.7 20.2347 24.5242 21.0581 24.1566L20.6505 23.2434ZM18.2343 23.7H17.6943V24.7H18.2343V23.7ZM17.6943 23.7C16.7088 23.7 15.8828 23.5357 15.2018 23.2251L14.7868 24.1349C15.6259 24.5176 16.5998 24.7 17.6943 24.7V23.7ZM15.2049 23.2265C14.5305 22.9134 14.0426 22.4981 13.7146 21.9891L12.874 22.5309C13.3194 23.2219 13.9647 23.7533 14.7837 24.1335L15.2049 23.2265ZM13.7173 21.9933C13.3843 21.4652 13.2143 20.8655 13.2143 20.18H12.2143C12.2143 21.0411 12.431 21.8281 12.8713 22.5266L13.7173 21.9933ZM13.2143 20.18V19.9H12.2143V20.18H13.2143ZM12.7143 20.4H15.4543V19.4H12.7143V20.4Z" fill="white"/>
</svg>
