<svg width="372" height="238" viewBox="0 0 372 238" fill="none" xmlns="http://www.w3.org/2000/svg">
<path d="M63.1241 37.6211L63.1131 32.5171L60.5831 36.7411H59.9451L57.4151 32.5831V37.6211H56.0511V29.9211H57.2281L60.2861 35.0251L63.2891 29.9211H64.4661L64.4771 37.6211H63.1241ZM71.5509 35.8391H67.7009L66.9419 37.6211H65.4679L68.9329 29.9211H70.3409L73.8169 37.6211H72.3209L71.5509 35.8391ZM71.0779 34.7171L69.6259 31.3511L68.1849 34.7171H71.0779ZM75.9715 31.1311H73.4195V29.9211H79.9535V31.1311H77.4015V37.6211H75.9715V31.1311ZM87.8687 29.9211V37.6211H86.4387V34.3211H82.4567V37.6211H81.0267V29.9211H82.4567V33.1001H86.4387V29.9211H87.8687ZM98.747 37.7421L97.779 36.8071C97.0603 37.4231 96.1987 37.7311 95.194 37.7311C94.6587 37.7311 94.1783 37.6431 93.753 37.4671C93.3277 37.2911 92.994 37.0491 92.752 36.7411C92.51 36.4258 92.389 36.0701 92.389 35.6741C92.389 35.1974 92.5283 34.7794 92.807 34.4201C93.0857 34.0534 93.5403 33.6941 94.171 33.3421C93.863 33.0341 93.643 32.7481 93.511 32.4841C93.379 32.2128 93.313 31.9341 93.313 31.6481C93.313 31.1054 93.5147 30.6691 93.918 30.3391C94.3287 30.0018 94.8713 29.8331 95.546 29.8331C96.1693 29.8331 96.668 29.9871 97.042 30.2951C97.416 30.5958 97.603 31.0064 97.603 31.5271C97.603 31.9231 97.4783 32.2751 97.229 32.5831C96.987 32.8911 96.5873 33.2028 96.03 33.5181L97.691 35.1021C97.8743 34.7428 98.0173 34.3101 98.12 33.8041L99.231 34.1671C99.0843 34.8491 98.8533 35.4358 98.538 35.9271L99.506 36.8511L98.747 37.7421ZM95.546 30.8121C95.2453 30.8121 95.007 30.8891 94.831 31.0431C94.655 31.1898 94.567 31.3841 94.567 31.6261C94.567 31.8021 94.6147 31.9708 94.71 32.1321C94.8053 32.2861 94.9887 32.4988 95.26 32.7701C95.7 32.5281 96.0043 32.3191 96.173 32.1431C96.349 31.9598 96.437 31.7618 96.437 31.5491C96.437 31.3218 96.3563 31.1421 96.195 31.0101C96.041 30.8781 95.8247 30.8121 95.546 30.8121ZM95.293 36.6091C95.931 36.6091 96.4883 36.4148 96.965 36.0261L94.93 34.0791C94.49 34.3211 94.1783 34.5558 93.995 34.7831C93.819 35.0031 93.731 35.2524 93.731 35.5311C93.731 35.8538 93.874 36.1141 94.16 36.3121C94.446 36.5101 94.8237 36.6091 95.293 36.6091ZM106.166 37.7311C105.572 37.7311 104.996 37.6468 104.439 37.4781C103.889 37.3094 103.452 37.0858 103.13 36.8071L103.625 35.6961C103.94 35.9454 104.325 36.1508 104.78 36.3121C105.242 36.4661 105.704 36.5431 106.166 36.5431C106.738 36.5431 107.163 36.4514 107.442 36.2681C107.728 36.0848 107.871 35.8428 107.871 35.5421C107.871 35.3221 107.79 35.1424 107.629 35.0031C107.475 34.8564 107.277 34.7428 107.035 34.6621C106.793 34.5814 106.463 34.4898 106.045 34.3871C105.458 34.2478 104.981 34.1084 104.615 33.9691C104.255 33.8298 103.944 33.6134 103.68 33.3201C103.423 33.0194 103.295 32.6161 103.295 32.1101C103.295 31.6848 103.408 31.2998 103.636 30.9551C103.87 30.6031 104.219 30.3244 104.681 30.1191C105.15 29.9138 105.722 29.8111 106.397 29.8111C106.866 29.8111 107.328 29.8698 107.783 29.9871C108.237 30.1044 108.63 30.2731 108.96 30.4931L108.509 31.6041C108.171 31.4061 107.819 31.2558 107.453 31.1531C107.086 31.0504 106.73 30.9991 106.386 30.9991C105.821 30.9991 105.399 31.0944 105.121 31.2851C104.849 31.4758 104.714 31.7288 104.714 32.0441C104.714 32.2641 104.791 32.4438 104.945 32.5831C105.106 32.7224 105.308 32.8324 105.55 32.9131C105.792 32.9938 106.122 33.0854 106.54 33.1881C107.112 33.3201 107.581 33.4594 107.948 33.6061C108.314 33.7454 108.626 33.9618 108.883 34.2551C109.147 34.5484 109.279 34.9444 109.279 35.4431C109.279 35.8684 109.161 36.2534 108.927 36.5981C108.699 36.9428 108.351 37.2178 107.882 37.4231C107.412 37.6284 106.84 37.7311 106.166 37.7311ZM112.151 31.1311H109.599V29.9211H116.133V31.1311H113.581V37.6211H112.151V31.1311ZM121.814 35.8391H117.964L117.205 37.6211H115.731L119.196 29.9211H120.604L124.08 37.6211H122.584L121.814 35.8391ZM121.341 34.7171L119.889 31.3511L118.448 34.7171H121.341ZM126.234 31.1311H123.682V29.9211H130.216V31.1311H127.664V37.6211H126.234V31.1311ZM131.289 29.9211H132.719V37.6211H131.289V29.9211ZM137.189 37.7311C136.595 37.7311 136.019 37.6468 135.462 37.4781C134.912 37.3094 134.476 37.0858 134.153 36.8071L134.648 35.6961C134.963 35.9454 135.348 36.1508 135.803 36.3121C136.265 36.4661 136.727 36.5431 137.189 36.5431C137.761 36.5431 138.186 36.4514 138.465 36.2681C138.751 36.0848 138.894 35.8428 138.894 35.5421C138.894 35.3221 138.813 35.1424 138.652 35.0031C138.498 34.8564 138.3 34.7428 138.058 34.6621C137.816 34.5814 137.486 34.4898 137.068 34.3871C136.481 34.2478 136.005 34.1084 135.638 33.9691C135.279 33.8298 134.967 33.6134 134.703 33.3201C134.446 33.0194 134.318 32.6161 134.318 32.1101C134.318 31.6848 134.432 31.2998 134.659 30.9551C134.894 30.6031 135.242 30.3244 135.704 30.1191C136.173 29.9138 136.745 29.8111 137.42 29.8111C137.889 29.8111 138.351 29.8698 138.806 29.9871C139.261 30.1044 139.653 30.2731 139.983 30.4931L139.532 31.6041C139.195 31.4061 138.843 31.2558 138.476 31.1531C138.109 31.0504 137.754 30.9991 137.409 30.9991C136.844 30.9991 136.423 31.0944 136.144 31.2851C135.873 31.4758 135.737 31.7288 135.737 32.0441C135.737 32.2641 135.814 32.4438 135.968 32.5831C136.129 32.7224 136.331 32.8324 136.573 32.9131C136.815 32.9938 137.145 33.0854 137.563 33.1881C138.135 33.3201 138.604 33.4594 138.971 33.6061C139.338 33.7454 139.649 33.9618 139.906 34.2551C140.17 34.5484 140.302 34.9444 140.302 35.4431C140.302 35.8684 140.185 36.2534 139.95 36.5981C139.723 36.9428 139.374 37.2178 138.905 37.4231C138.436 37.6284 137.864 37.7311 137.189 37.7311ZM143.175 31.1311H140.623V29.9211H147.157V31.1311H144.605V37.6211H143.175V31.1311ZM148.23 29.9211H149.66V37.6211H148.23V29.9211ZM155.306 37.7311C154.529 37.7311 153.825 37.5624 153.194 37.2251C152.571 36.8804 152.08 36.4074 151.72 35.8061C151.368 35.2048 151.192 34.5264 151.192 33.7711C151.192 33.0158 151.372 32.3374 151.731 31.7361C152.091 31.1348 152.582 30.6654 153.205 30.3281C153.836 29.9834 154.54 29.8111 155.317 29.8111C155.948 29.8111 156.524 29.9211 157.044 30.1411C157.565 30.3611 158.005 30.6801 158.364 31.0981L157.44 31.9671C156.883 31.3658 156.197 31.0651 155.383 31.0651C154.855 31.0651 154.382 31.1824 153.964 31.4171C153.546 31.6444 153.22 31.9634 152.985 32.3741C152.751 32.7848 152.633 33.2504 152.633 33.7711C152.633 34.2918 152.751 34.7574 152.985 35.1681C153.22 35.5788 153.546 35.9014 153.964 36.1361C154.382 36.3634 154.855 36.4771 155.383 36.4771C156.197 36.4771 156.883 36.1728 157.44 35.5641L158.364 36.4441C158.005 36.8621 157.561 37.1811 157.033 37.4011C156.513 37.6211 155.937 37.7311 155.306 37.7311ZM162.079 37.7311C161.485 37.7311 160.909 37.6468 160.352 37.4781C159.802 37.3094 159.365 37.0858 159.043 36.8071L159.538 35.6961C159.853 35.9454 160.238 36.1508 160.693 36.3121C161.155 36.4661 161.617 36.5431 162.079 36.5431C162.651 36.5431 163.076 36.4514 163.355 36.2681C163.641 36.0848 163.784 35.8428 163.784 35.5421C163.784 35.3221 163.703 35.1424 163.542 35.0031C163.388 34.8564 163.19 34.7428 162.948 34.6621C162.706 34.5814 162.376 34.4898 161.958 34.3871C161.371 34.2478 160.894 34.1084 160.528 33.9691C160.168 33.8298 159.857 33.6134 159.593 33.3201C159.336 33.0194 159.208 32.6161 159.208 32.1101C159.208 31.6848 159.321 31.2998 159.549 30.9551C159.783 30.6031 160.132 30.3244 160.594 30.1191C161.063 29.9138 161.635 29.8111 162.31 29.8111C162.779 29.8111 163.241 29.8698 163.696 29.9871C164.15 30.1044 164.543 30.2731 164.873 30.4931L164.422 31.6041C164.084 31.4061 163.732 31.2558 163.366 31.1531C162.999 31.0504 162.643 30.9991 162.299 30.9991C161.734 30.9991 161.312 31.0944 161.034 31.2851C160.762 31.4758 160.627 31.7288 160.627 32.0441C160.627 32.2641 160.704 32.4438 160.858 32.5831C161.019 32.7224 161.221 32.8324 161.463 32.9131C161.705 32.9938 162.035 33.0854 162.453 33.1881C163.025 33.3201 163.494 33.4594 163.861 33.6061C164.227 33.7454 164.539 33.9618 164.796 34.2551C165.06 34.5484 165.192 34.9444 165.192 35.4431C165.192 35.8684 165.074 36.2534 164.84 36.5981C164.612 36.9428 164.264 37.2178 163.795 37.4231C163.325 37.6284 162.753 37.7311 162.079 37.7311Z" fill="#202020"/>
<path d="M17.0211 64.3524C16.2438 64.3524 15.5398 64.1838 14.9091 63.8464C14.2858 63.5018 13.7944 63.0288 13.4351 62.4274C13.0831 61.8261 12.9071 61.1478 12.9071 60.3924C12.9071 59.6371 13.0868 58.9588 13.4461 58.3574C13.8054 57.7561 14.2968 57.2868 14.9201 56.9494C15.5508 56.6048 16.2548 56.4324 17.0321 56.4324C17.6628 56.4324 18.2384 56.5424 18.7591 56.7624C19.2798 56.9824 19.7198 57.3014 20.0791 57.7194L19.1551 58.5884C18.5978 57.9871 17.9121 57.6864 17.0981 57.6864C16.5701 57.6864 16.0971 57.8038 15.6791 58.0384C15.2611 58.2658 14.9348 58.5848 14.7001 58.9954C14.4654 59.4061 14.3481 59.8718 14.3481 60.3924C14.3481 60.9131 14.4654 61.3788 14.7001 61.7894C14.9348 62.2001 15.2611 62.5228 15.6791 62.7574C16.0971 62.9848 16.5701 63.0984 17.0981 63.0984C17.9121 63.0984 18.5978 62.7941 19.1551 62.1854L20.0791 63.0654C19.7198 63.4834 19.2761 63.8024 18.7481 64.0224C18.2274 64.2424 17.6518 64.3524 17.0211 64.3524ZM28.2913 56.5424V64.2424H26.8613V60.9424H22.8793V64.2424H21.4493V56.5424H22.8793V59.7214H26.8613V56.5424H28.2913ZM36.1296 63.0434V64.2424H30.3546V56.5424H35.9756V57.7414H31.7846V59.7434H35.5026V60.9204H31.7846V63.0434H36.1296ZM44.7967 64.2424L44.7857 59.1384L42.2557 63.3624H41.6177L39.0877 59.2044V64.2424H37.7237V56.5424H38.9007L41.9587 61.6464L44.9617 56.5424H46.1387L46.1497 64.2424H44.7967ZM48.2296 56.5424H49.6596V64.2424H48.2296V56.5424ZM55.3063 64.3524C54.5289 64.3524 53.8249 64.1838 53.1943 63.8464C52.5709 63.5018 52.0796 63.0288 51.7203 62.4274C51.3683 61.8261 51.1923 61.1478 51.1923 60.3924C51.1923 59.6371 51.3719 58.9588 51.7313 58.3574C52.0906 57.7561 52.5819 57.2868 53.2053 56.9494C53.8359 56.6048 54.5399 56.4324 55.3173 56.4324C55.9479 56.4324 56.5236 56.5424 57.0443 56.7624C57.5649 56.9824 58.0049 57.3014 58.3643 57.7194L57.4403 58.5884C56.8829 57.9871 56.1973 57.6864 55.3833 57.6864C54.8553 57.6864 54.3823 57.8038 53.9643 58.0384C53.5463 58.2658 53.2199 58.5848 52.9853 58.9954C52.7506 59.4061 52.6333 59.8718 52.6333 60.3924C52.6333 60.9131 52.7506 61.3788 52.9853 61.7894C53.2199 62.2001 53.5463 62.5228 53.9643 62.7574C54.3823 62.9848 54.8553 63.0984 55.3833 63.0984C56.1973 63.0984 56.8829 62.7941 57.4403 62.1854L58.3643 63.0654C58.0049 63.4834 57.5613 63.8024 57.0333 64.0224C56.5126 64.2424 55.9369 64.3524 55.3063 64.3524ZM64.5673 62.4604H60.7173L59.9583 64.2424H58.4843L61.9493 56.5424H63.3573L66.8333 64.2424H65.3373L64.5673 62.4604ZM64.0943 61.3384L62.6423 57.9724L61.2013 61.3384H64.0943ZM67.8126 56.5424H69.2426V63.0324H73.2686V64.2424H67.8126V56.5424ZM83.2126 63.0434V64.2424H77.4376V56.5424H83.0586V57.7414H78.8676V59.7434H82.5856V60.9204H78.8676V63.0434H83.2126ZM91.6487 56.5424V64.2424H90.4717L86.2257 59.0284V64.2424H84.8067V56.5424H85.9837L90.2297 61.7564V56.5424H91.6487ZM98.97 60.3044H100.323V63.3734C99.927 63.6888 99.465 63.9308 98.937 64.0994C98.409 64.2681 97.8663 64.3524 97.309 64.3524C96.5243 64.3524 95.8166 64.1838 95.186 63.8464C94.5553 63.5018 94.0603 63.0288 93.701 62.4274C93.3416 61.8261 93.162 61.1478 93.162 60.3924C93.162 59.6371 93.3416 58.9588 93.701 58.3574C94.0603 57.7561 94.5553 57.2868 95.186 56.9494C95.824 56.6048 96.539 56.4324 97.331 56.4324C97.9763 56.4324 98.563 56.5388 99.091 56.7514C99.619 56.9641 100.063 57.2758 100.422 57.6864L99.52 58.5664C98.9333 57.9798 98.2256 57.6864 97.397 57.6864C96.8543 57.6864 96.3703 57.8001 95.945 58.0274C95.527 58.2548 95.197 58.5738 94.955 58.9844C94.7203 59.3951 94.603 59.8644 94.603 60.3924C94.603 60.9058 94.7203 61.3678 94.955 61.7784C95.197 62.1891 95.527 62.5118 95.945 62.7464C96.3703 62.9811 96.8506 63.0984 97.386 63.0984C97.9873 63.0984 98.5153 62.9664 98.97 62.7024V60.3044ZM102.209 56.5424H103.639V64.2424H102.209V56.5424ZM112.564 56.5424V64.2424H111.387L107.141 59.0284V64.2424H105.722V56.5424H106.899L111.145 61.7564V56.5424H112.564ZM120.402 63.0434V64.2424H114.627V56.5424H120.248V57.7414H116.057V59.7434H119.775V60.9204H116.057V63.0434H120.402ZM127.771 63.0434V64.2424H121.996V56.5424H127.617V57.7414H123.426V59.7434H127.144V60.9204H123.426V63.0434H127.771ZM134.403 64.2424L132.83 61.9874C132.764 61.9948 132.665 61.9984 132.533 61.9984H130.795V64.2424H129.365V56.5424H132.533C133.201 56.5424 133.78 56.6524 134.271 56.8724C134.77 57.0924 135.151 57.4078 135.415 57.8184C135.679 58.2291 135.811 58.7168 135.811 59.2814C135.811 59.8608 135.668 60.3594 135.382 60.7774C135.104 61.1954 134.7 61.5071 134.172 61.7124L135.943 64.2424H134.403ZM134.37 59.2814C134.37 58.7901 134.209 58.4124 133.886 58.1484C133.564 57.8844 133.091 57.7524 132.467 57.7524H130.795V60.8214H132.467C133.091 60.8214 133.564 60.6894 133.886 60.4254C134.209 60.1541 134.37 59.7728 134.37 59.2814ZM137.411 56.5424H138.841V64.2424H137.411V56.5424ZM147.766 56.5424V64.2424H146.589L142.343 59.0284V64.2424H140.924V56.5424H142.101L146.347 61.7564V56.5424H147.766ZM155.087 60.3044H156.44V63.3734C156.044 63.6888 155.582 63.9308 155.054 64.0994C154.526 64.2681 153.983 64.3524 153.426 64.3524C152.641 64.3524 151.934 64.1838 151.303 63.8464C150.672 63.5018 150.177 63.0288 149.818 62.4274C149.459 61.8261 149.279 61.1478 149.279 60.3924C149.279 59.6371 149.459 58.9588 149.818 58.3574C150.177 57.7561 150.672 57.2868 151.303 56.9494C151.941 56.6048 152.656 56.4324 153.448 56.4324C154.093 56.4324 154.68 56.5388 155.208 56.7514C155.736 56.9641 156.18 57.2758 156.539 57.6864L155.637 58.5664C155.05 57.9798 154.343 57.6864 153.514 57.6864C152.971 57.6864 152.487 57.8001 152.062 58.0274C151.644 58.2548 151.314 58.5738 151.072 58.9844C150.837 59.3951 150.72 59.8644 150.72 60.3924C150.72 60.9058 150.837 61.3678 151.072 61.7784C151.314 62.1891 151.644 62.5118 152.062 62.7464C152.487 62.9811 152.968 63.0984 153.503 63.0984C154.104 63.0984 154.632 62.9664 155.087 62.7024V60.3044Z" fill="#202020"/>
<path d="M28.5167 11L28.5057 5.896L25.9757 10.12H25.3377L22.8077 5.962V11H21.4437V3.3H22.6207L25.6787 8.404L28.6817 3.3H29.8587L29.8697 11H28.5167ZM37.7245 9.801V11H31.9495V3.3H37.5705V4.499H33.3795V6.501H37.0975V7.678H33.3795V9.801H37.7245ZM42.8504 11.11C42.0731 11.11 41.3691 10.9413 40.7384 10.604C40.1151 10.2593 39.6238 9.78633 39.2644 9.185C38.9124 8.58367 38.7364 7.90533 38.7364 7.15C38.7364 6.39467 38.9161 5.71633 39.2754 5.115C39.6348 4.51367 40.1261 4.04433 40.7494 3.707C41.3801 3.36233 42.0841 3.19 42.8614 3.19C43.4921 3.19 44.0678 3.3 44.5884 3.52C45.1091 3.74 45.5491 4.059 45.9084 4.477L44.9844 5.346C44.4271 4.74467 43.7414 4.444 42.9274 4.444C42.3994 4.444 41.9264 4.56133 41.5084 4.796C41.0904 5.02333 40.7641 5.34233 40.5294 5.753C40.2948 6.16367 40.1774 6.62933 40.1774 7.15C40.1774 7.67067 40.2948 8.13633 40.5294 8.547C40.7641 8.95767 41.0904 9.28033 41.5084 9.515C41.9264 9.74233 42.3994 9.856 42.9274 9.856C43.7414 9.856 44.4271 9.55167 44.9844 8.943L45.9084 9.823C45.5491 10.241 45.1054 10.56 44.5774 10.78C44.0568 11 43.4811 11.11 42.8504 11.11ZM54.1206 3.3V11H52.6906V7.7H48.7086V11H47.2786V3.3H48.7086V6.479H52.6906V3.3H54.1206ZM61.1779 9.218H57.3279L56.5689 11H55.0949L58.5599 3.3H59.9679L63.4439 11H61.9479L61.1779 9.218ZM60.7049 8.096L59.2529 4.73L57.8119 8.096H60.7049ZM71.2652 3.3V11H70.0882L65.8422 5.786V11H64.4232V3.3H65.6002L69.8462 8.514V3.3H71.2652ZM73.3284 3.3H74.7584V11H73.3284V3.3ZM80.4051 11.11C79.6278 11.11 78.9238 10.9413 78.2931 10.604C77.6698 10.2593 77.1785 9.78633 76.8191 9.185C76.4671 8.58367 76.2911 7.90533 76.2911 7.15C76.2911 6.39467 76.4708 5.71633 76.8301 5.115C77.1895 4.51367 77.6808 4.04433 78.3041 3.707C78.9348 3.36233 79.6388 3.19 80.4161 3.19C81.0468 3.19 81.6225 3.3 82.1431 3.52C82.6638 3.74 83.1038 4.059 83.4631 4.477L82.5391 5.346C81.9818 4.74467 81.2961 4.444 80.4821 4.444C79.9541 4.444 79.4811 4.56133 79.0631 4.796C78.6451 5.02333 78.3188 5.34233 78.0841 5.753C77.8495 6.16367 77.7321 6.62933 77.7321 7.15C77.7321 7.67067 77.8495 8.13633 78.0841 8.547C78.3188 8.95767 78.6451 9.28033 79.0631 9.515C79.4811 9.74233 79.9541 9.856 80.4821 9.856C81.2961 9.856 81.9818 9.55167 82.5391 8.943L83.4631 9.823C83.1038 10.241 82.6601 10.56 82.1321 10.78C81.6115 11 81.0358 11.11 80.4051 11.11ZM89.6662 9.218H85.8162L85.0572 11H83.5832L87.0482 3.3H88.4562L91.9322 11H90.4362L89.6662 9.218ZM89.1932 8.096L87.7412 4.73L86.3002 8.096H89.1932ZM92.9114 3.3H94.3414V9.79H98.3674V11H92.9114V3.3ZM108.311 9.801V11H102.536V3.3H108.157V4.499H103.966V6.501H107.684V7.678H103.966V9.801H108.311ZM116.748 3.3V11H115.571L111.325 5.786V11H109.906V3.3H111.083L115.329 8.514V3.3H116.748ZM124.069 7.062H125.422V10.131C125.026 10.4463 124.564 10.6883 124.036 10.857C123.508 11.0257 122.965 11.11 122.408 11.11C121.623 11.11 120.916 10.9413 120.285 10.604C119.654 10.2593 119.159 9.78633 118.8 9.185C118.441 8.58367 118.261 7.90533 118.261 7.15C118.261 6.39467 118.441 5.71633 118.8 5.115C119.159 4.51367 119.654 4.04433 120.285 3.707C120.923 3.36233 121.638 3.19 122.43 3.19C123.075 3.19 123.662 3.29633 124.19 3.509C124.718 3.72167 125.162 4.03333 125.521 4.444L124.619 5.324C124.032 4.73733 123.325 4.444 122.496 4.444C121.953 4.444 121.469 4.55767 121.044 4.785C120.626 5.01233 120.296 5.33133 120.054 5.742C119.819 6.15267 119.702 6.622 119.702 7.15C119.702 7.66333 119.819 8.12533 120.054 8.536C120.296 8.94667 120.626 9.26933 121.044 9.504C121.469 9.73867 121.95 9.856 122.485 9.856C123.086 9.856 123.614 9.724 124.069 9.46V7.062ZM127.308 3.3H128.738V11H127.308V3.3ZM137.663 3.3V11H136.486L132.24 5.786V11H130.821V3.3H131.998L136.244 8.514V3.3H137.663ZM145.501 9.801V11H139.726V3.3H145.347V4.499H141.156V6.501H144.874V7.678H141.156V9.801H145.501ZM152.87 9.801V11H147.095V3.3H152.716V4.499H148.525V6.501H152.243V7.678H148.525V9.801H152.87ZM159.502 11L157.929 8.745C157.863 8.75233 157.764 8.756 157.632 8.756H155.894V11H154.464V3.3H157.632C158.3 3.3 158.879 3.41 159.37 3.63C159.869 3.85 160.25 4.16533 160.514 4.576C160.778 4.98667 160.91 5.47433 160.91 6.039C160.91 6.61833 160.767 7.117 160.481 7.535C160.203 7.953 159.799 8.26467 159.271 8.47L161.042 11H159.502ZM159.469 6.039C159.469 5.54767 159.308 5.17 158.985 4.906C158.663 4.642 158.19 4.51 157.566 4.51H155.894V7.579H157.566C158.19 7.579 158.663 7.447 158.985 7.183C159.308 6.91167 159.469 6.53033 159.469 6.039ZM162.51 3.3H163.94V11H162.51V3.3ZM172.865 3.3V11H171.688L167.442 5.786V11H166.023V3.3H167.2L171.446 8.514V3.3H172.865ZM180.186 7.062H181.539V10.131C181.143 10.4463 180.681 10.6883 180.153 10.857C179.625 11.0257 179.082 11.11 178.525 11.11C177.74 11.11 177.033 10.9413 176.402 10.604C175.771 10.2593 175.276 9.78633 174.917 9.185C174.558 8.58367 174.378 7.90533 174.378 7.15C174.378 6.39467 174.558 5.71633 174.917 5.115C175.276 4.51367 175.771 4.04433 176.402 3.707C177.04 3.36233 177.755 3.19 178.547 3.19C179.192 3.19 179.779 3.29633 180.307 3.509C180.835 3.72167 181.279 4.03333 181.638 4.444L180.736 5.324C180.149 4.73733 179.442 4.444 178.613 4.444C178.07 4.444 177.586 4.55767 177.161 4.785C176.743 5.01233 176.413 5.33133 176.171 5.742C175.936 6.15267 175.819 6.622 175.819 7.15C175.819 7.66333 175.936 8.12533 176.171 8.536C176.413 8.94667 176.743 9.26933 177.161 9.504C177.586 9.73867 178.067 9.856 178.602 9.856C179.203 9.856 179.731 9.724 180.186 9.46V7.062Z" fill="#202020"/>
<path d="M33.8812 90.9735C33.1039 90.9735 32.3999 90.8049 31.7692 90.4675C31.1459 90.1229 30.6545 89.6499 30.2952 89.0485C29.9432 88.4472 29.7672 87.7689 29.7672 87.0135C29.7672 86.2582 29.9469 85.5799 30.3062 84.9785C30.6655 84.3772 31.1569 83.9079 31.7802 83.5705C32.4109 83.2259 33.1149 83.0535 33.8922 83.0535C34.5229 83.0535 35.0985 83.1635 35.6192 83.3835C36.1399 83.6035 36.5799 83.9225 36.9392 84.3405L36.0152 85.2095C35.4579 84.6082 34.7722 84.3075 33.9582 84.3075C33.4302 84.3075 32.9572 84.4249 32.5392 84.6595C32.1212 84.8869 31.7949 85.2059 31.5602 85.6165C31.3255 86.0272 31.2082 86.4929 31.2082 87.0135C31.2082 87.5342 31.3255 87.9999 31.5602 88.4105C31.7949 88.8212 32.1212 89.1439 32.5392 89.3785C32.9572 89.6059 33.4302 89.7195 33.9582 89.7195C34.7722 89.7195 35.4579 89.4152 36.0152 88.8065L36.9392 89.6865C36.5799 90.1045 36.1362 90.4235 35.6082 90.6435C35.0875 90.8635 34.5119 90.9735 33.8812 90.9735ZM41.7453 90.9735C40.9606 90.9735 40.2529 90.8049 39.6223 90.4675C38.9916 90.1229 38.4966 89.6499 38.1373 89.0485C37.7779 88.4399 37.5983 87.7615 37.5983 87.0135C37.5983 86.2655 37.7779 85.5909 38.1373 84.9895C38.4966 84.3809 38.9916 83.9079 39.6223 83.5705C40.2529 83.2259 40.9606 83.0535 41.7453 83.0535C42.5299 83.0535 43.2376 83.2259 43.8683 83.5705C44.4989 83.9079 44.9939 84.3772 45.3533 84.9785C45.7126 85.5799 45.8923 86.2582 45.8923 87.0135C45.8923 87.7689 45.7126 88.4472 45.3533 89.0485C44.9939 89.6499 44.4989 90.1229 43.8683 90.4675C43.2376 90.8049 42.5299 90.9735 41.7453 90.9735ZM41.7453 89.7195C42.2586 89.7195 42.7206 89.6059 43.1313 89.3785C43.5419 89.1439 43.8646 88.8212 44.0993 88.4105C44.3339 87.9925 44.4513 87.5269 44.4513 87.0135C44.4513 86.5002 44.3339 86.0382 44.0993 85.6275C43.8646 85.2095 43.5419 84.8869 43.1313 84.6595C42.7206 84.4249 42.2586 84.3075 41.7453 84.3075C41.2319 84.3075 40.7699 84.4249 40.3593 84.6595C39.9486 84.8869 39.6259 85.2095 39.3913 85.6275C39.1566 86.0382 39.0393 86.5002 39.0393 87.0135C39.0393 87.5269 39.1566 87.9925 39.3913 88.4105C39.6259 88.8212 39.9486 89.1439 40.3593 89.3785C40.7699 89.6059 41.2319 89.7195 41.7453 89.7195ZM54.481 90.8635L54.47 85.7595L51.94 89.9835H51.302L48.772 85.8255V90.8635H47.408V83.1635H48.585L51.643 88.2675L54.646 83.1635H55.823L55.834 90.8635H54.481ZM61.0819 83.1635C61.7492 83.1635 62.3285 83.2735 62.8199 83.4935C63.3185 83.7135 63.6999 84.0289 63.9639 84.4395C64.2279 84.8502 64.3599 85.3379 64.3599 85.9025C64.3599 86.4599 64.2279 86.9475 63.9639 87.3655C63.6999 87.7762 63.3185 88.0915 62.8199 88.3115C62.3285 88.5315 61.7492 88.6415 61.0819 88.6415H59.3439V90.8635H57.9139V83.1635H61.0819ZM61.0159 87.4315C61.6392 87.4315 62.1122 87.2995 62.4349 87.0355C62.7575 86.7715 62.9189 86.3939 62.9189 85.9025C62.9189 85.4112 62.7575 85.0335 62.4349 84.7695C62.1122 84.5055 61.6392 84.3735 61.0159 84.3735H59.3439V87.4315H61.0159ZM69.0989 90.9735C68.0356 90.9735 67.2069 90.6765 66.6129 90.0825C66.0189 89.4812 65.7219 88.6232 65.7219 87.5085V83.1635H67.1519V87.4535C67.1519 88.9642 67.8046 89.7195 69.1099 89.7195C70.4079 89.7195 71.0569 88.9642 71.0569 87.4535V83.1635H72.4649V87.5085C72.4649 88.6232 72.1679 89.4812 71.5739 90.0825C70.9872 90.6765 70.1622 90.9735 69.0989 90.9735ZM75.8899 84.3735H73.3379V83.1635H79.8719V84.3735H77.3199V90.8635H75.8899V84.3735ZM86.7201 89.6645V90.8635H80.9451V83.1635H86.5661V84.3625H82.3751V86.3645H86.0931V87.5415H82.3751V89.6645H86.7201ZM93.3523 90.8635L91.7793 88.6085C91.7133 88.6159 91.6143 88.6195 91.4823 88.6195H89.7443V90.8635H88.3143V83.1635H91.4823C92.1496 83.1635 92.7289 83.2735 93.2203 83.4935C93.7189 83.7135 94.1003 84.0289 94.3643 84.4395C94.6283 84.8502 94.7603 85.3379 94.7603 85.9025C94.7603 86.4819 94.6173 86.9805 94.3313 87.3985C94.0526 87.8165 93.6493 88.1282 93.1213 88.3335L94.8923 90.8635H93.3523ZM93.3193 85.9025C93.3193 85.4112 93.1579 85.0335 92.8353 84.7695C92.5126 84.5055 92.0396 84.3735 91.4163 84.3735H89.7443V87.4425H91.4163C92.0396 87.4425 92.5126 87.3105 92.8353 87.0465C93.1579 86.7752 93.3193 86.3939 93.3193 85.9025ZM101.787 90.9735C101.193 90.9735 100.618 90.8892 100.06 90.7205C99.5102 90.5519 99.0739 90.3282 98.7512 90.0495L99.2462 88.9385C99.5615 89.1879 99.9465 89.3932 100.401 89.5545C100.863 89.7085 101.325 89.7855 101.787 89.7855C102.359 89.7855 102.785 89.6939 103.063 89.5105C103.349 89.3272 103.492 89.0852 103.492 88.7845C103.492 88.5645 103.412 88.3849 103.25 88.2455C103.096 88.0989 102.898 87.9852 102.656 87.9045C102.414 87.8239 102.084 87.7322 101.666 87.6295C101.08 87.4902 100.603 87.3509 100.236 87.2115C99.8769 87.0722 99.5652 86.8559 99.3012 86.5625C99.0445 86.2619 98.9162 85.8585 98.9162 85.3525C98.9162 84.9272 99.0299 84.5422 99.2572 84.1975C99.4919 83.8455 99.8402 83.5669 100.302 83.3615C100.772 83.1562 101.344 83.0535 102.018 83.0535C102.488 83.0535 102.95 83.1122 103.404 83.2295C103.859 83.3469 104.251 83.5155 104.581 83.7355L104.13 84.8465C103.793 84.6485 103.441 84.4982 103.074 84.3955C102.708 84.2929 102.352 84.2415 102.007 84.2415C101.443 84.2415 101.021 84.3369 100.742 84.5275C100.471 84.7182 100.335 84.9712 100.335 85.2865C100.335 85.5065 100.412 85.6862 100.566 85.8255C100.728 85.9649 100.929 86.0749 101.171 86.1555C101.413 86.2362 101.743 86.3279 102.161 86.4305C102.733 86.5625 103.203 86.7019 103.569 86.8485C103.936 86.9879 104.248 87.2042 104.504 87.4975C104.768 87.7909 104.9 88.1869 104.9 88.6855C104.9 89.1109 104.783 89.4959 104.548 89.8405C104.321 90.1852 103.973 90.4602 103.503 90.6655C103.034 90.8709 102.462 90.9735 101.787 90.9735ZM109.882 90.9735C109.105 90.9735 108.401 90.8049 107.77 90.4675C107.147 90.1229 106.656 89.6499 106.296 89.0485C105.944 88.4472 105.768 87.7689 105.768 87.0135C105.768 86.2582 105.948 85.5799 106.307 84.9785C106.667 84.3772 107.158 83.9079 107.781 83.5705C108.412 83.2259 109.116 83.0535 109.893 83.0535C110.524 83.0535 111.1 83.1635 111.62 83.3835C112.141 83.6035 112.581 83.9225 112.94 84.3405L112.016 85.2095C111.459 84.6082 110.773 84.3075 109.959 84.3075C109.431 84.3075 108.958 84.4249 108.54 84.6595C108.122 84.8869 107.796 85.2059 107.561 85.6165C107.327 86.0272 107.209 86.4929 107.209 87.0135C107.209 87.5342 107.327 87.9999 107.561 88.4105C107.796 88.8212 108.122 89.1439 108.54 89.3785C108.958 89.6059 109.431 89.7195 109.959 89.7195C110.773 89.7195 111.459 89.4152 112.016 88.8065L112.94 89.6865C112.581 90.1045 112.137 90.4235 111.609 90.6435C111.089 90.8635 110.513 90.9735 109.882 90.9735ZM114.31 83.1635H115.74V90.8635H114.31V83.1635ZM123.598 89.6645V90.8635H117.823V83.1635H123.444V84.3625H119.253V86.3645H122.971V87.5415H119.253V89.6645H123.598ZM132.034 83.1635V90.8635H130.857L126.611 85.6495V90.8635H125.192V83.1635H126.369L130.615 88.3775V83.1635H132.034ZM137.661 90.9735C136.884 90.9735 136.18 90.8049 135.549 90.4675C134.926 90.1229 134.435 89.6499 134.075 89.0485C133.723 88.4472 133.547 87.7689 133.547 87.0135C133.547 86.2582 133.727 85.5799 134.086 84.9785C134.446 84.3772 134.937 83.9079 135.56 83.5705C136.191 83.2259 136.895 83.0535 137.672 83.0535C138.303 83.0535 138.879 83.1635 139.399 83.3835C139.92 83.6035 140.36 83.9225 140.719 84.3405L139.795 85.2095C139.238 84.6082 138.552 84.3075 137.738 84.3075C137.21 84.3075 136.737 84.4249 136.319 84.6595C135.901 84.8869 135.575 85.2059 135.34 85.6165C135.106 86.0272 134.988 86.4929 134.988 87.0135C134.988 87.5342 135.106 87.9999 135.34 88.4105C135.575 88.8212 135.901 89.1439 136.319 89.3785C136.737 89.6059 137.21 89.7195 137.738 89.7195C138.552 89.7195 139.238 89.4152 139.795 88.8065L140.719 89.6865C140.36 90.1045 139.916 90.4235 139.388 90.6435C138.868 90.8635 138.292 90.9735 137.661 90.9735ZM147.865 89.6645V90.8635H142.09V83.1635H147.711V84.3625H143.52V86.3645H147.238V87.5415H143.52V89.6645H147.865Z" fill="#202020"/>
<path d="M40.0929 117.595C39.3155 117.595 38.6115 117.426 37.9809 117.089C37.3575 116.744 36.8662 116.271 36.5069 115.67C36.1549 115.068 35.9789 114.39 35.9789 113.635C35.9789 112.879 36.1585 112.201 36.5179 111.6C36.8772 110.998 37.3685 110.529 37.9919 110.192C38.6225 109.847 39.3265 109.675 40.1039 109.675C40.7345 109.675 41.3102 109.785 41.8309 110.005C42.3515 110.225 42.7915 110.544 43.1509 110.962L42.2269 111.831C41.6695 111.229 40.9839 110.929 40.1699 110.929C39.6419 110.929 39.1689 111.046 38.7509 111.281C38.3329 111.508 38.0065 111.827 37.7719 112.238C37.5372 112.648 37.4199 113.114 37.4199 113.635C37.4199 114.155 37.5372 114.621 37.7719 115.032C38.0065 115.442 38.3329 115.765 38.7509 116C39.1689 116.227 39.6419 116.341 40.1699 116.341C40.9839 116.341 41.6695 116.036 42.2269 115.428L43.1509 116.308C42.7915 116.726 42.3479 117.045 41.8199 117.265C41.2992 117.485 40.7235 117.595 40.0929 117.595ZM44.5211 109.785H45.9511V117.485H44.5211V109.785ZM55.02 109.785L51.665 117.485H50.257L46.891 109.785H48.442L51.005 115.725L53.59 109.785H55.02ZM55.8326 109.785H57.2626V117.485H55.8326V109.785ZM59.3453 109.785H60.7753V116.275H64.8013V117.485H59.3453V109.785ZM74.7453 116.286V117.485H68.9703V109.785H74.5913V110.984H70.4003V112.986H74.1183V114.163H70.4003V116.286H74.7453ZM83.1814 109.785V117.485H82.0044L77.7584 112.271V117.485H76.3394V109.785H77.5164L81.7624 114.999V109.785H83.1814ZM90.5027 113.547H91.8557V116.616C91.4597 116.931 90.9977 117.173 90.4697 117.342C89.9417 117.51 89.399 117.595 88.8417 117.595C88.057 117.595 87.3494 117.426 86.7187 117.089C86.088 116.744 85.593 116.271 85.2337 115.67C84.8744 115.068 84.6947 114.39 84.6947 113.635C84.6947 112.879 84.8744 112.201 85.2337 111.6C85.593 110.998 86.088 110.529 86.7187 110.192C87.3567 109.847 88.0717 109.675 88.8637 109.675C89.509 109.675 90.0957 109.781 90.6237 109.994C91.1517 110.206 91.5954 110.518 91.9547 110.929L91.0527 111.809C90.466 111.222 89.7584 110.929 88.9297 110.929C88.387 110.929 87.903 111.042 87.4777 111.27C87.0597 111.497 86.7297 111.816 86.4877 112.227C86.253 112.637 86.1357 113.107 86.1357 113.635C86.1357 114.148 86.253 114.61 86.4877 115.021C86.7297 115.431 87.0597 115.754 87.4777 115.989C87.903 116.223 88.3834 116.341 88.9187 116.341C89.52 116.341 90.048 116.209 90.5027 115.945V113.547ZM93.7418 109.785H95.1718V117.485H93.7418V109.785ZM104.096 109.785V117.485H102.919L98.6735 112.271V117.485H97.2545V109.785H98.4315L102.677 114.999V109.785H104.096ZM111.935 116.286V117.485H106.16V109.785H111.781V110.984H107.59V112.986H111.308V114.163H107.59V116.286H111.935ZM119.304 116.286V117.485H113.529V109.785H119.15V110.984H114.959V112.986H118.677V114.163H114.959V116.286H119.304ZM125.936 117.485L124.363 115.23C124.297 115.237 124.198 115.241 124.066 115.241H122.328V117.485H120.898V109.785H124.066C124.733 109.785 125.313 109.895 125.804 110.115C126.303 110.335 126.684 110.65 126.948 111.061C127.212 111.471 127.344 111.959 127.344 112.524C127.344 113.103 127.201 113.602 126.915 114.02C126.636 114.438 126.233 114.749 125.705 114.955L127.476 117.485H125.936ZM125.903 112.524C125.903 112.032 125.742 111.655 125.419 111.391C125.096 111.127 124.623 110.995 124 110.995H122.328V114.064H124C124.623 114.064 125.096 113.932 125.419 113.668C125.742 113.396 125.903 113.015 125.903 112.524ZM128.944 109.785H130.374V117.485H128.944V109.785ZM139.299 109.785V117.485H138.122L133.876 112.271V117.485H132.457V109.785H133.634L137.88 114.999V109.785H139.299ZM146.62 113.547H147.973V116.616C147.577 116.931 147.115 117.173 146.587 117.342C146.059 117.51 145.516 117.595 144.959 117.595C144.174 117.595 143.467 117.426 142.836 117.089C142.205 116.744 141.71 116.271 141.351 115.67C140.992 115.068 140.812 114.39 140.812 113.635C140.812 112.879 140.992 112.201 141.351 111.6C141.71 110.998 142.205 110.529 142.836 110.192C143.474 109.847 144.189 109.675 144.981 109.675C145.626 109.675 146.213 109.781 146.741 109.994C147.269 110.206 147.713 110.518 148.072 110.929L147.17 111.809C146.583 111.222 145.876 110.929 145.047 110.929C144.504 110.929 144.02 111.042 143.595 111.27C143.177 111.497 142.847 111.816 142.605 112.227C142.37 112.637 142.253 113.107 142.253 113.635C142.253 114.148 142.37 114.61 142.605 115.021C142.847 115.431 143.177 115.754 143.595 115.989C144.02 116.223 144.501 116.341 145.036 116.341C145.637 116.341 146.165 116.209 146.62 115.945V113.547Z" fill="#202020"/>
<path d="M32.5429 222.77V223.969H26.7679V216.269H32.3889V217.468H28.1979V219.47H31.9159V220.647H28.1979V222.77H32.5429ZM34.137 216.269H35.567V222.759H39.593V223.969H34.137V216.269ZM46.497 222.77V223.969H40.722V216.269H46.343V217.468H42.152V219.47H45.87V220.647H42.152V222.77H46.497ZM51.6229 224.079C50.8456 224.079 50.1416 223.911 49.5109 223.573C48.8876 223.229 48.3962 222.756 48.0369 222.154C47.6849 221.553 47.5089 220.875 47.5089 220.119C47.5089 219.364 47.6886 218.686 48.0479 218.084C48.4072 217.483 48.8986 217.014 49.5219 216.676C50.1526 216.332 50.8566 216.159 51.6339 216.159C52.2646 216.159 52.8402 216.269 53.3609 216.489C53.8816 216.709 54.3216 217.028 54.6809 217.446L53.7569 218.315C53.1996 217.714 52.5139 217.413 51.6999 217.413C51.1719 217.413 50.6989 217.531 50.2809 217.765C49.8629 217.993 49.5366 218.312 49.3019 218.722C49.0672 219.133 48.9499 219.599 48.9499 220.119C48.9499 220.64 49.0672 221.106 49.3019 221.516C49.5366 221.927 49.8629 222.25 50.2809 222.484C50.6989 222.712 51.1719 222.825 51.6999 222.825C52.5139 222.825 53.1996 222.521 53.7569 221.912L54.6809 222.792C54.3216 223.21 53.8779 223.529 53.3499 223.749C52.8292 223.969 52.2536 224.079 51.6229 224.079ZM57.5272 217.479H54.9752V216.269H61.5092V217.479H58.9572V223.969H57.5272V217.479ZM67.6203 223.969L66.0473 221.714C65.9813 221.722 65.8823 221.725 65.7503 221.725H64.0123V223.969H62.5823V216.269H65.7503C66.4177 216.269 66.997 216.379 67.4883 216.599C67.987 216.819 68.3683 217.135 68.6323 217.545C68.8963 217.956 69.0283 218.444 69.0283 219.008C69.0283 219.588 68.8853 220.086 68.5993 220.504C68.3207 220.922 67.9173 221.234 67.3893 221.439L69.1603 223.969H67.6203ZM67.5873 219.008C67.5873 218.517 67.426 218.139 67.1033 217.875C66.7807 217.611 66.3077 217.479 65.6843 217.479H64.0123V220.548H65.6843C66.3077 220.548 66.7807 220.416 67.1033 220.152C67.426 219.881 67.5873 219.5 67.5873 219.008ZM70.6282 216.269H72.0582V223.969H70.6282V216.269ZM77.7049 224.079C76.9276 224.079 76.2236 223.911 75.5929 223.573C74.9696 223.229 74.4783 222.756 74.1189 222.154C73.7669 221.553 73.5909 220.875 73.5909 220.119C73.5909 219.364 73.7706 218.686 74.1299 218.084C74.4893 217.483 74.9806 217.014 75.6039 216.676C76.2346 216.332 76.9386 216.159 77.7159 216.159C78.3466 216.159 78.9223 216.269 79.4429 216.489C79.9636 216.709 80.4036 217.028 80.7629 217.446L79.8389 218.315C79.2816 217.714 78.5959 217.413 77.7819 217.413C77.2539 217.413 76.7809 217.531 76.3629 217.765C75.9449 217.993 75.6186 218.312 75.3839 218.722C75.1493 219.133 75.0319 219.599 75.0319 220.119C75.0319 220.64 75.1493 221.106 75.3839 221.516C75.6186 221.927 75.9449 222.25 76.3629 222.484C76.7809 222.712 77.2539 222.825 77.7819 222.825C78.5959 222.825 79.2816 222.521 79.8389 221.912L80.7629 222.792C80.4036 223.21 79.9599 223.529 79.4319 223.749C78.9113 223.969 78.3356 224.079 77.7049 224.079ZM86.966 222.187H83.116L82.357 223.969H80.883L84.348 216.269H85.756L89.232 223.969H87.736L86.966 222.187ZM86.493 221.065L85.041 217.699L83.6 221.065H86.493ZM90.2112 216.269H91.6412V222.759H95.6672V223.969H90.2112V216.269ZM105.611 222.77V223.969H99.8362V216.269H105.457V217.468H101.266V219.47H104.984V220.647H101.266V222.77H105.611ZM114.047 216.269V223.969H112.87L108.624 218.755V223.969H107.205V216.269H108.382L112.628 221.483V216.269H114.047ZM121.369 220.031H122.722V223.1C122.326 223.416 121.864 223.658 121.336 223.826C120.808 223.995 120.265 224.079 119.708 224.079C118.923 224.079 118.215 223.911 117.585 223.573C116.954 223.229 116.459 222.756 116.1 222.154C115.74 221.553 115.561 220.875 115.561 220.119C115.561 219.364 115.74 218.686 116.1 218.084C116.459 217.483 116.954 217.014 117.585 216.676C118.223 216.332 118.938 216.159 119.73 216.159C120.375 216.159 120.962 216.266 121.49 216.478C122.018 216.691 122.461 217.003 122.821 217.413L121.919 218.293C121.332 217.707 120.624 217.413 119.796 217.413C119.253 217.413 118.769 217.527 118.344 217.754C117.926 217.982 117.596 218.301 117.354 218.711C117.119 219.122 117.002 219.591 117.002 220.119C117.002 220.633 117.119 221.095 117.354 221.505C117.596 221.916 117.926 222.239 118.344 222.473C118.769 222.708 119.249 222.825 119.785 222.825C120.386 222.825 120.914 222.693 121.369 222.429V220.031ZM124.608 216.269H126.038V223.969H124.608V216.269ZM134.962 216.269V223.969H133.785L129.539 218.755V223.969H128.12V216.269H129.297L133.543 221.483V216.269H134.962ZM142.801 222.77V223.969H137.026V216.269H142.647V217.468H138.456V219.47H142.174V220.647H138.456V222.77H142.801ZM150.17 222.77V223.969H144.395V216.269H150.016V217.468H145.825V219.47H149.543V220.647H145.825V222.77H150.17ZM156.802 223.969L155.229 221.714C155.163 221.722 155.064 221.725 154.932 221.725H153.194V223.969H151.764V216.269H154.932C155.599 216.269 156.179 216.379 156.67 216.599C157.169 216.819 157.55 217.135 157.814 217.545C158.078 217.956 158.21 218.444 158.21 219.008C158.21 219.588 158.067 220.086 157.781 220.504C157.502 220.922 157.099 221.234 156.571 221.439L158.342 223.969H156.802ZM156.769 219.008C156.769 218.517 156.608 218.139 156.285 217.875C155.962 217.611 155.489 217.479 154.866 217.479H153.194V220.548H154.866C155.489 220.548 155.962 220.416 156.285 220.152C156.608 219.881 156.769 219.5 156.769 219.008ZM159.81 216.269H161.24V223.969H159.81V216.269ZM170.165 216.269V223.969H168.988L164.742 218.755V223.969H163.323V216.269H164.5L168.746 221.483V216.269H170.165ZM177.486 220.031H178.839V223.1C178.443 223.416 177.981 223.658 177.453 223.826C176.925 223.995 176.382 224.079 175.825 224.079C175.04 224.079 174.333 223.911 173.702 223.573C173.071 223.229 172.576 222.756 172.217 222.154C171.858 221.553 171.678 220.875 171.678 220.119C171.678 219.364 171.858 218.686 172.217 218.084C172.576 217.483 173.071 217.014 173.702 216.676C174.34 216.332 175.055 216.159 175.847 216.159C176.492 216.159 177.079 216.266 177.607 216.478C178.135 216.691 178.579 217.003 178.938 217.413L178.036 218.293C177.449 217.707 176.742 217.413 175.913 217.413C175.37 217.413 174.886 217.527 174.461 217.754C174.043 217.982 173.713 218.301 173.471 218.711C173.236 219.122 173.119 219.591 173.119 220.119C173.119 220.633 173.236 221.095 173.471 221.505C173.713 221.916 174.043 222.239 174.461 222.473C174.886 222.708 175.367 222.825 175.902 222.825C176.503 222.825 177.031 222.693 177.486 222.429V220.031Z" fill="#202020"/>
<path d="M65.8121 136.406H69.1781C69.9994 136.406 70.7291 136.567 71.3671 136.89C72.0051 137.205 72.5001 137.656 72.8521 138.243C73.2041 138.822 73.3801 139.493 73.3801 140.256C73.3801 141.018 73.2041 141.693 72.8521 142.28C72.5001 142.859 72.0051 143.31 71.3671 143.633C70.7291 143.948 69.9994 144.106 69.1781 144.106H65.8121V136.406ZM69.1121 142.896C69.6767 142.896 70.1717 142.789 70.5971 142.577C71.0297 142.357 71.3597 142.049 71.5871 141.653C71.8217 141.249 71.9391 140.784 71.9391 140.256C71.9391 139.728 71.8217 139.266 71.5871 138.87C71.3597 138.466 71.0297 138.158 70.5971 137.946C70.1717 137.726 69.6767 137.616 69.1121 137.616H67.2421V142.896H69.1121ZM79.7865 142.324H75.9365L75.1775 144.106H73.7035L77.1685 136.406H78.5765L82.0525 144.106H80.5565L79.7865 142.324ZM79.3135 141.202L77.8615 137.836L76.4205 141.202H79.3135ZM84.2071 137.616H81.6551V136.406H88.1891V137.616H85.6371V144.106H84.2071V137.616ZM93.8696 142.324H90.0196L89.2606 144.106H87.7866L91.2516 136.406H92.6596L96.1356 144.106H94.6396L93.8696 142.324ZM93.3966 141.202L91.9446 137.836L90.5036 141.202H93.3966ZM102.542 144.216C101.948 144.216 101.372 144.131 100.815 143.963C100.265 143.794 99.8285 143.57 99.5058 143.292L100.001 142.181C100.316 142.43 100.701 142.635 101.156 142.797C101.618 142.951 102.08 143.028 102.542 143.028C103.114 143.028 103.539 142.936 103.818 142.753C104.104 142.569 104.247 142.327 104.247 142.027C104.247 141.807 104.166 141.627 104.005 141.488C103.851 141.341 103.653 141.227 103.411 141.147C103.169 141.066 102.839 140.974 102.421 140.872C101.834 140.732 101.358 140.593 100.991 140.454C100.632 140.314 100.32 140.098 100.056 139.805C99.7992 139.504 99.6708 139.101 99.6708 138.595C99.6708 138.169 99.7845 137.784 100.012 137.44C100.247 137.088 100.595 136.809 101.057 136.604C101.526 136.398 102.098 136.296 102.773 136.296C103.242 136.296 103.704 136.354 104.159 136.472C104.614 136.589 105.006 136.758 105.336 136.978L104.885 138.089C104.548 137.891 104.196 137.74 103.829 137.638C103.462 137.535 103.107 137.484 102.762 137.484C102.197 137.484 101.776 137.579 101.497 137.77C101.226 137.96 101.09 138.213 101.09 138.529C101.09 138.749 101.167 138.928 101.321 139.068C101.482 139.207 101.684 139.317 101.926 139.398C102.168 139.478 102.498 139.57 102.916 139.673C103.488 139.805 103.957 139.944 104.324 140.091C104.691 140.23 105.002 140.446 105.259 140.74C105.523 141.033 105.655 141.429 105.655 141.928C105.655 142.353 105.538 142.738 105.303 143.083C105.076 143.427 104.727 143.702 104.258 143.908C103.789 144.113 103.217 144.216 102.542 144.216ZM110.637 144.216C109.859 144.216 109.155 144.047 108.525 143.71C107.901 143.365 107.41 142.892 107.051 142.291C106.699 141.689 106.523 141.011 106.523 140.256C106.523 139.5 106.702 138.822 107.062 138.221C107.421 137.619 107.912 137.15 108.536 136.813C109.166 136.468 109.87 136.296 110.648 136.296C111.278 136.296 111.854 136.406 112.375 136.626C112.895 136.846 113.335 137.165 113.695 137.583L112.771 138.452C112.213 137.85 111.528 137.55 110.714 137.55C110.186 137.55 109.713 137.667 109.295 137.902C108.877 138.129 108.55 138.448 108.316 138.859C108.081 139.269 107.964 139.735 107.964 140.256C107.964 140.776 108.081 141.242 108.316 141.653C108.55 142.063 108.877 142.386 109.295 142.621C109.713 142.848 110.186 142.962 110.714 142.962C111.528 142.962 112.213 142.657 112.771 142.049L113.695 142.929C113.335 143.347 112.892 143.666 112.364 143.886C111.843 144.106 111.267 144.216 110.637 144.216ZM115.065 136.406H116.495V144.106H115.065V136.406ZM124.353 142.907V144.106H118.578V136.406H124.199V137.605H120.008V139.607H123.726V140.784H120.008V142.907H124.353ZM132.789 136.406V144.106H131.612L127.366 138.892V144.106H125.947V136.406H127.124L131.37 141.62V136.406H132.789ZM138.416 144.216C137.639 144.216 136.935 144.047 136.304 143.71C135.681 143.365 135.189 142.892 134.83 142.291C134.478 141.689 134.302 141.011 134.302 140.256C134.302 139.5 134.482 138.822 134.841 138.221C135.2 137.619 135.692 137.15 136.315 136.813C136.946 136.468 137.65 136.296 138.427 136.296C139.058 136.296 139.633 136.406 140.154 136.626C140.675 136.846 141.115 137.165 141.474 137.583L140.55 138.452C139.993 137.85 139.307 137.55 138.493 137.55C137.965 137.55 137.492 137.667 137.074 137.902C136.656 138.129 136.33 138.448 136.095 138.859C135.86 139.269 135.743 139.735 135.743 140.256C135.743 140.776 135.86 141.242 136.095 141.653C136.33 142.063 136.656 142.386 137.074 142.621C137.492 142.848 137.965 142.962 138.493 142.962C139.307 142.962 139.993 142.657 140.55 142.049L141.474 142.929C141.115 143.347 140.671 143.666 140.143 143.886C139.622 144.106 139.047 144.216 138.416 144.216ZM148.619 142.907V144.106H142.844V136.406H148.465V137.605H144.274V139.607H147.992V140.784H144.274V142.907H148.619Z" fill="#202020"/>
<path d="M63.2817 166.723C63.7071 166.862 64.0444 167.097 64.2937 167.427C64.5431 167.75 64.6677 168.153 64.6677 168.637C64.6677 169.304 64.4111 169.821 63.8977 170.188C63.3844 170.547 62.6364 170.727 61.6537 170.727H57.8257V163.027H61.4337C62.3431 163.027 63.0434 163.207 63.5347 163.566C64.0261 163.918 64.2717 164.406 64.2717 165.029C64.2717 165.41 64.1837 165.748 64.0077 166.041C63.8317 166.334 63.5897 166.562 63.2817 166.723ZM59.2557 164.149V166.272H61.2797C61.7784 166.272 62.1597 166.184 62.4237 166.008C62.6951 165.825 62.8307 165.561 62.8307 165.216C62.8307 164.864 62.6951 164.6 62.4237 164.424C62.1597 164.241 61.7784 164.149 61.2797 164.149H59.2557ZM61.5657 169.605C62.6731 169.605 63.2267 169.235 63.2267 168.494C63.2267 167.753 62.6731 167.383 61.5657 167.383H59.2557V169.605H61.5657ZM66.1939 163.027H67.6239V170.727H66.1939V163.027ZM73.3036 170.837C72.5189 170.837 71.8113 170.668 71.1806 170.331C70.5499 169.986 70.0549 169.513 69.6956 168.912C69.3363 168.303 69.1566 167.625 69.1566 166.877C69.1566 166.129 69.3363 165.454 69.6956 164.853C70.0549 164.244 70.5499 163.771 71.1806 163.434C71.8113 163.089 72.5189 162.917 73.3036 162.917C74.0883 162.917 74.7959 163.089 75.4266 163.434C76.0573 163.771 76.5523 164.241 76.9116 164.842C77.2709 165.443 77.4506 166.122 77.4506 166.877C77.4506 167.632 77.2709 168.311 76.9116 168.912C76.5523 169.513 76.0573 169.986 75.4266 170.331C74.7959 170.668 74.0883 170.837 73.3036 170.837ZM73.3036 169.583C73.8169 169.583 74.2789 169.469 74.6896 169.242C75.1003 169.007 75.4229 168.685 75.6576 168.274C75.8923 167.856 76.0096 167.39 76.0096 166.877C76.0096 166.364 75.8923 165.902 75.6576 165.491C75.4229 165.073 75.1003 164.75 74.6896 164.523C74.2789 164.288 73.8169 164.171 73.3036 164.171C72.7903 164.171 72.3283 164.288 71.9176 164.523C71.5069 164.75 71.1843 165.073 70.9496 165.491C70.7149 165.902 70.5976 166.364 70.5976 166.877C70.5976 167.39 70.7149 167.856 70.9496 168.274C71.1843 168.685 71.5069 169.007 71.9176 169.242C72.3283 169.469 72.7903 169.583 73.3036 169.583ZM84.7414 169.528V170.727H78.9664V163.027H84.5874V164.226H80.3964V166.228H84.1144V167.405H80.3964V169.528H84.7414ZM93.1775 163.027V170.727H92.0005L87.7545 165.513V170.727H86.3355V163.027H87.5125L91.7585 168.241V163.027H93.1775ZM100.499 166.789H101.852V169.858C101.456 170.173 100.994 170.415 100.466 170.584C99.9378 170.753 99.3951 170.837 98.8378 170.837C98.0531 170.837 97.3455 170.668 96.7148 170.331C96.0841 169.986 95.5891 169.513 95.2298 168.912C94.8705 168.311 94.6908 167.632 94.6908 166.877C94.6908 166.122 94.8705 165.443 95.2298 164.842C95.5891 164.241 96.0841 163.771 96.7148 163.434C97.3528 163.089 98.0678 162.917 98.8598 162.917C99.5051 162.917 100.092 163.023 100.62 163.236C101.148 163.449 101.591 163.76 101.951 164.171L101.049 165.051C100.462 164.464 99.7545 164.171 98.9258 164.171C98.3831 164.171 97.8991 164.285 97.4738 164.512C97.0558 164.739 96.7258 165.058 96.4838 165.469C96.2491 165.88 96.1318 166.349 96.1318 166.877C96.1318 167.39 96.2491 167.852 96.4838 168.263C96.7258 168.674 97.0558 168.996 97.4738 169.231C97.8991 169.466 98.3795 169.583 98.9148 169.583C99.5161 169.583 100.044 169.451 100.499 169.187V166.789ZM103.738 163.027H105.168V170.727H103.738V163.027ZM114.093 163.027V170.727H112.916L108.67 165.513V170.727H107.251V163.027H108.428L112.674 168.241V163.027H114.093ZM121.931 169.528V170.727H116.156V163.027H121.777V164.226H117.586V166.228H121.304V167.405H117.586V169.528H121.931ZM129.3 169.528V170.727H123.525V163.027H129.146V164.226H124.955V166.228H128.673V167.405H124.955V169.528H129.3ZM135.932 170.727L134.359 168.472C134.293 168.479 134.194 168.483 134.062 168.483H132.324V170.727H130.894V163.027H134.062C134.729 163.027 135.309 163.137 135.8 163.357C136.299 163.577 136.68 163.892 136.944 164.303C137.208 164.714 137.34 165.201 137.34 165.766C137.34 166.345 137.197 166.844 136.911 167.262C136.632 167.68 136.229 167.992 135.701 168.197L137.472 170.727H135.932ZM135.899 165.766C135.899 165.275 135.738 164.897 135.415 164.633C135.092 164.369 134.619 164.237 133.996 164.237H132.324V167.306H133.996C134.619 167.306 135.092 167.174 135.415 166.91C135.738 166.639 135.899 166.257 135.899 165.766ZM138.94 163.027H140.37V170.727H138.94V163.027ZM149.295 163.027V170.727H148.118L143.872 165.513V170.727H142.453V163.027H143.63L147.876 168.241V163.027H149.295ZM156.616 166.789H157.969V169.858C157.573 170.173 157.111 170.415 156.583 170.584C156.055 170.753 155.512 170.837 154.955 170.837C154.17 170.837 153.463 170.668 152.832 170.331C152.201 169.986 151.706 169.513 151.347 168.912C150.988 168.311 150.808 167.632 150.808 166.877C150.808 166.122 150.988 165.443 151.347 164.842C151.706 164.241 152.201 163.771 152.832 163.434C153.47 163.089 154.185 162.917 154.977 162.917C155.622 162.917 156.209 163.023 156.737 163.236C157.265 163.449 157.709 163.76 158.068 164.171L157.166 165.051C156.579 164.464 155.872 164.171 155.043 164.171C154.5 164.171 154.016 164.285 153.591 164.512C153.173 164.739 152.843 165.058 152.601 165.469C152.366 165.88 152.249 166.349 152.249 166.877C152.249 167.39 152.366 167.852 152.601 168.263C152.843 168.674 153.173 168.996 153.591 169.231C154.016 169.466 154.497 169.583 155.032 169.583C155.633 169.583 156.161 169.451 156.616 169.187V166.789Z" fill="#202020"/>
<path d="M8.107 197.348L8.096 192.244L5.566 196.468H4.928L2.398 192.31V197.348H1.034V189.648H2.211L5.269 194.752L8.272 189.648H9.449L9.46 197.348H8.107ZM15.1369 197.458C14.3522 197.458 13.6445 197.289 13.0139 196.952C12.3832 196.607 11.8882 196.134 11.5289 195.533C11.1695 194.924 10.9899 194.246 10.9899 193.498C10.9899 192.75 11.1695 192.075 11.5289 191.474C11.8882 190.865 12.3832 190.392 13.0139 190.055C13.6445 189.71 14.3522 189.538 15.1369 189.538C15.9215 189.538 16.6292 189.71 17.2599 190.055C17.8905 190.392 18.3855 190.862 18.7449 191.463C19.1042 192.064 19.2839 192.743 19.2839 193.498C19.2839 194.253 19.1042 194.932 18.7449 195.533C18.3855 196.134 17.8905 196.607 17.2599 196.952C16.6292 197.289 15.9215 197.458 15.1369 197.458ZM15.1369 196.204C15.6502 196.204 16.1122 196.09 16.5229 195.863C16.9335 195.628 17.2562 195.306 17.4909 194.895C17.7255 194.477 17.8429 194.011 17.8429 193.498C17.8429 192.985 17.7255 192.523 17.4909 192.112C17.2562 191.694 16.9335 191.371 16.5229 191.144C16.1122 190.909 15.6502 190.792 15.1369 190.792C14.6235 190.792 14.1615 190.909 13.7509 191.144C13.3402 191.371 13.0175 191.694 12.7829 192.112C12.5482 192.523 12.4309 192.985 12.4309 193.498C12.4309 194.011 12.5482 194.477 12.7829 194.895C13.0175 195.306 13.3402 195.628 13.7509 195.863C14.1615 196.09 14.6235 196.204 15.1369 196.204ZM20.7996 189.648H22.2296V196.138H26.2556V197.348H20.7996V189.648ZM33.1596 196.149V197.348H27.3846V189.648H33.0056V190.847H28.8146V192.849H32.5326V194.026H28.8146V196.149H33.1596ZM38.2855 197.458C37.5082 197.458 36.8042 197.289 36.1735 196.952C35.5502 196.607 35.0588 196.134 34.6995 195.533C34.3475 194.932 34.1715 194.253 34.1715 193.498C34.1715 192.743 34.3512 192.064 34.7105 191.463C35.0698 190.862 35.5612 190.392 36.1845 190.055C36.8152 189.71 37.5192 189.538 38.2965 189.538C38.9272 189.538 39.5028 189.648 40.0235 189.868C40.5442 190.088 40.9842 190.407 41.3435 190.825L40.4195 191.694C39.8622 191.093 39.1765 190.792 38.3625 190.792C37.8345 190.792 37.3615 190.909 36.9435 191.144C36.5255 191.371 36.1992 191.69 35.9645 192.101C35.7298 192.512 35.6125 192.977 35.6125 193.498C35.6125 194.019 35.7298 194.484 35.9645 194.895C36.1992 195.306 36.5255 195.628 36.9435 195.863C37.3615 196.09 37.8345 196.204 38.3625 196.204C39.1765 196.204 39.8622 195.9 40.4195 195.291L41.3435 196.171C40.9842 196.589 40.5405 196.908 40.0125 197.128C39.4918 197.348 38.9162 197.458 38.2855 197.458ZM45.971 197.458C44.9076 197.458 44.079 197.161 43.485 196.567C42.891 195.966 42.594 195.108 42.594 193.993V189.648H44.024V193.938C44.024 195.449 44.6766 196.204 45.982 196.204C47.28 196.204 47.929 195.449 47.929 193.938V189.648H49.337V193.993C49.337 195.108 49.04 195.966 48.446 196.567C47.8593 197.161 47.0343 197.458 45.971 197.458ZM51.3397 189.648H52.7697V196.138H56.7957V197.348H51.3397V189.648ZM62.9723 195.566H59.1223L58.3633 197.348H56.8893L60.3543 189.648H61.7623L65.2383 197.348H63.7423L62.9723 195.566ZM62.4993 194.444L61.0473 191.078L59.6063 194.444H62.4993ZM71.2556 197.348L69.6826 195.093C69.6166 195.1 69.5176 195.104 69.3856 195.104H67.6476V197.348H66.2176V189.648H69.3856C70.0529 189.648 70.6323 189.758 71.1236 189.978C71.6223 190.198 72.0036 190.513 72.2676 190.924C72.5316 191.335 72.6636 191.822 72.6636 192.387C72.6636 192.966 72.5206 193.465 72.2346 193.883C71.9559 194.301 71.5526 194.613 71.0246 194.818L72.7956 197.348H71.2556ZM71.2226 192.387C71.2226 191.896 71.0613 191.518 70.7386 191.254C70.4159 190.99 69.9429 190.858 69.3196 190.858H67.6476V193.927H69.3196C69.9429 193.927 70.4159 193.795 70.7386 193.531C71.0613 193.26 71.2226 192.878 71.2226 192.387ZM83.0785 197.469L82.1105 196.534C81.3919 197.15 80.5302 197.458 79.5255 197.458C78.9902 197.458 78.5099 197.37 78.0845 197.194C77.6592 197.018 77.3255 196.776 77.0835 196.468C76.8415 196.153 76.7205 195.797 76.7205 195.401C76.7205 194.924 76.8599 194.506 77.1385 194.147C77.4172 193.78 77.8719 193.421 78.5025 193.069C78.1945 192.761 77.9745 192.475 77.8425 192.211C77.7105 191.94 77.6445 191.661 77.6445 191.375C77.6445 190.832 77.8462 190.396 78.2495 190.066C78.6602 189.729 79.2029 189.56 79.8775 189.56C80.5009 189.56 80.9995 189.714 81.3735 190.022C81.7475 190.323 81.9345 190.733 81.9345 191.254C81.9345 191.65 81.8099 192.002 81.5605 192.31C81.3185 192.618 80.9189 192.93 80.3615 193.245L82.0225 194.829C82.2059 194.47 82.3489 194.037 82.4515 193.531L83.5625 193.894C83.4159 194.576 83.1849 195.163 82.8695 195.654L83.8375 196.578L83.0785 197.469ZM79.8775 190.539C79.5769 190.539 79.3385 190.616 79.1625 190.77C78.9865 190.917 78.8985 191.111 78.8985 191.353C78.8985 191.529 78.9462 191.698 79.0415 191.859C79.1369 192.013 79.3202 192.226 79.5915 192.497C80.0315 192.255 80.3359 192.046 80.5045 191.87C80.6805 191.687 80.7685 191.489 80.7685 191.276C80.7685 191.049 80.6879 190.869 80.5265 190.737C80.3725 190.605 80.1562 190.539 79.8775 190.539ZM79.6245 196.336C80.2625 196.336 80.8199 196.142 81.2965 195.753L79.2615 193.806C78.8215 194.048 78.5099 194.283 78.3265 194.51C78.1505 194.73 78.0625 194.979 78.0625 195.258C78.0625 195.581 78.2055 195.841 78.4915 196.039C78.7775 196.237 79.1552 196.336 79.6245 196.336ZM91.6742 197.458C90.8968 197.458 90.1928 197.289 89.5622 196.952C88.9388 196.607 88.4475 196.134 88.0882 195.533C87.7362 194.932 87.5602 194.253 87.5602 193.498C87.5602 192.743 87.7398 192.064 88.0992 191.463C88.4585 190.862 88.9498 190.392 89.5732 190.055C90.2038 189.71 90.9078 189.538 91.6852 189.538C92.3158 189.538 92.8915 189.648 93.4122 189.868C93.9328 190.088 94.3728 190.407 94.7322 190.825L93.8082 191.694C93.2508 191.093 92.5652 190.792 91.7512 190.792C91.2232 190.792 90.7502 190.909 90.3322 191.144C89.9142 191.371 89.5878 191.69 89.3532 192.101C89.1185 192.512 89.0012 192.977 89.0012 193.498C89.0012 194.019 89.1185 194.484 89.3532 194.895C89.5878 195.306 89.9142 195.628 90.3322 195.863C90.7502 196.09 91.2232 196.204 91.7512 196.204C92.5652 196.204 93.2508 195.9 93.8082 195.291L94.7322 196.171C94.3728 196.589 93.9292 196.908 93.4012 197.128C92.8805 197.348 92.3048 197.458 91.6742 197.458ZM101.877 196.149V197.348H96.1024V189.648H101.723V190.847H97.5324V192.849H101.25V194.026H97.5324V196.149H101.877ZM103.472 189.648H104.902V196.138H108.928V197.348H103.472V189.648ZM110.056 189.648H111.486V196.138H115.512V197.348H110.056V189.648ZM125.137 193.344C125.563 193.483 125.9 193.718 126.149 194.048C126.399 194.371 126.523 194.774 126.523 195.258C126.523 195.925 126.267 196.442 125.753 196.809C125.24 197.168 124.492 197.348 123.509 197.348H119.681V189.648H123.289C124.199 189.648 124.899 189.828 125.39 190.187C125.882 190.539 126.127 191.027 126.127 191.65C126.127 192.031 126.039 192.369 125.863 192.662C125.687 192.955 125.445 193.183 125.137 193.344ZM121.111 190.77V192.893H123.135C123.634 192.893 124.015 192.805 124.279 192.629C124.551 192.446 124.686 192.182 124.686 191.837C124.686 191.485 124.551 191.221 124.279 191.045C124.015 190.862 123.634 190.77 123.135 190.77H121.111ZM123.421 196.226C124.529 196.226 125.082 195.856 125.082 195.115C125.082 194.374 124.529 194.004 123.421 194.004H121.111V196.226H123.421ZM128.05 189.648H129.48V197.348H128.05V189.648ZM135.159 197.458C134.375 197.458 133.667 197.289 133.036 196.952C132.406 196.607 131.911 196.134 131.551 195.533C131.192 194.924 131.012 194.246 131.012 193.498C131.012 192.75 131.192 192.075 131.551 191.474C131.911 190.865 132.406 190.392 133.036 190.055C133.667 189.71 134.375 189.538 135.159 189.538C135.944 189.538 136.652 189.71 137.282 190.055C137.913 190.392 138.408 190.862 138.767 191.463C139.127 192.064 139.306 192.743 139.306 193.498C139.306 194.253 139.127 194.932 138.767 195.533C138.408 196.134 137.913 196.607 137.282 196.952C136.652 197.289 135.944 197.458 135.159 197.458ZM135.159 196.204C135.673 196.204 136.135 196.09 136.545 195.863C136.956 195.628 137.279 195.306 137.513 194.895C137.748 194.477 137.865 194.011 137.865 193.498C137.865 192.985 137.748 192.523 137.513 192.112C137.279 191.694 136.956 191.371 136.545 191.144C136.135 190.909 135.673 190.792 135.159 190.792C134.646 190.792 134.184 190.909 133.773 191.144C133.363 191.371 133.04 191.694 132.805 192.112C132.571 192.523 132.453 192.985 132.453 193.498C132.453 194.011 132.571 194.477 132.805 194.895C133.04 195.306 133.363 195.628 133.773 195.863C134.184 196.09 134.646 196.204 135.159 196.204ZM140.822 189.648H142.252V196.138H146.278V197.348H140.822V189.648ZM150.864 197.458C150.08 197.458 149.372 197.289 148.741 196.952C148.111 196.607 147.616 196.134 147.256 195.533C146.897 194.924 146.717 194.246 146.717 193.498C146.717 192.75 146.897 192.075 147.256 191.474C147.616 190.865 148.111 190.392 148.741 190.055C149.372 189.71 150.08 189.538 150.864 189.538C151.649 189.538 152.357 189.71 152.987 190.055C153.618 190.392 154.113 190.862 154.472 191.463C154.832 192.064 155.011 192.743 155.011 193.498C155.011 194.253 154.832 194.932 154.472 195.533C154.113 196.134 153.618 196.607 152.987 196.952C152.357 197.289 151.649 197.458 150.864 197.458ZM150.864 196.204C151.378 196.204 151.84 196.09 152.25 195.863C152.661 195.628 152.984 195.306 153.218 194.895C153.453 194.477 153.57 194.011 153.57 193.498C153.57 192.985 153.453 192.523 153.218 192.112C152.984 191.694 152.661 191.371 152.25 191.144C151.84 190.909 151.378 190.792 150.864 190.792C150.351 190.792 149.889 190.909 149.478 191.144C149.068 191.371 148.745 191.694 148.51 192.112C148.276 192.523 148.158 192.985 148.158 193.498C148.158 194.011 148.276 194.477 148.51 194.895C148.745 195.306 149.068 195.628 149.478 195.863C149.889 196.09 150.351 196.204 150.864 196.204ZM161.785 193.41H163.138V196.479C162.742 196.794 162.28 197.036 161.752 197.205C161.224 197.374 160.681 197.458 160.124 197.458C159.339 197.458 158.632 197.289 158.001 196.952C157.37 196.607 156.875 196.134 156.516 195.533C156.157 194.932 155.977 194.253 155.977 193.498C155.977 192.743 156.157 192.064 156.516 191.463C156.875 190.862 157.37 190.392 158.001 190.055C158.639 189.71 159.354 189.538 160.146 189.538C160.791 189.538 161.378 189.644 161.906 189.857C162.434 190.07 162.878 190.381 163.237 190.792L162.335 191.672C161.748 191.085 161.041 190.792 160.212 190.792C159.669 190.792 159.185 190.906 158.76 191.133C158.342 191.36 158.012 191.679 157.77 192.09C157.535 192.501 157.418 192.97 157.418 193.498C157.418 194.011 157.535 194.473 157.77 194.884C158.012 195.295 158.342 195.617 158.76 195.852C159.185 196.087 159.666 196.204 160.201 196.204C160.802 196.204 161.33 196.072 161.785 195.808V193.41ZM168.346 194.631V197.348H166.916V194.653L163.891 189.648H165.42L167.675 193.399L169.952 189.648H171.36L168.346 194.631Z" fill="#202020"/>
<path d="M326.829 8.63737V4.70602V0.774658H330.762H334.696V3.33285C334.696 4.77607 334.867 5.89105 335.089 5.89105C335.311 5.89105 335.483 4.77607 335.483 3.33285V0.774658H336.663C337.312 0.774658 337.843 0.918704 337.843 1.09424C337.843 1.27016 337.338 2.90859 336.722 4.73475C336.106 6.5613 335.186 9.78226 334.678 11.893C334.17 14.0033 333.568 15.7192 333.34 15.7055C333.112 15.6917 331.554 14.0958 329.877 12.159L326.829 8.63737Z" fill="#373737"/>
<path d="M311.662 10.0999C310.498 8.76135 310.479 8.47522 311.488 7.46533C312.479 6.47393 313.531 6.46212 314.409 7.43305C315.351 8.47444 315.049 9.87869 313.727 10.6009C312.668 11.1798 312.583 11.1594 311.662 10.0999Z" fill="#373737"/>
<path d="M321.224 49.4068C320.588 48.7003 320.535 47.1823 320.535 29.6276C320.535 10.8764 320.524 10.6139 319.749 10.6139C318.973 10.6139 318.962 10.8764 318.962 29.9566V49.2993L320.295 50.9141C321.028 51.8024 322.021 52.9717 322.503 53.5129C322.984 54.054 323.801 55.0446 324.317 55.7145L325.256 56.9326V76.0872V95.2422L323.266 97.1116C321.82 98.4694 321.347 99.1684 321.538 99.6643C321.682 100.04 321.913 100.345 322.053 100.342C322.192 100.338 323.323 99.3904 324.567 98.2353L326.829 96.1348V76.0828V56.0309L324.371 53.1016C323.019 51.4903 321.602 49.8279 321.224 49.4068Z" fill="#373737"/>
<path d="M284.454 21.594C281.386 18.8099 277.617 16.7689 272.547 15.1462C269.78 14.2607 268.322 14.0529 264.09 13.9395C258.57 13.7915 256.67 14.0222 252.577 15.3367C247.277 17.0381 240.956 21.056 238.221 24.4604C237.558 25.2869 236.724 25.9631 236.368 25.9631C236.013 25.9631 234.784 25.1621 233.638 24.1829C232.492 23.2041 231.224 22.2265 230.821 22.0104C230.259 21.7098 230.144 21.3429 230.325 20.4346C230.778 18.1688 227.934 16.711 226.39 18.4179C225 19.9548 226.16 22.025 228.417 22.0321C229.599 22.0356 230.436 22.4863 232.921 24.4573L235.973 26.8777L235.304 27.8963C231.974 32.9682 229.804 38.8713 229.417 43.9137L229.165 47.1847L232.861 47.2988L236.556 47.4125L236.835 50.1675C236.989 51.6828 237.366 53.749 237.672 54.7593C237.979 55.7696 238.148 57.0199 238.05 57.5383C237.718 59.2751 239.926 60.0445 240.552 58.4104C240.707 58.0062 240.373 57.3954 239.619 56.7067C238.699 55.866 238.346 55.082 237.992 53.0969C237.429 49.9361 237.22 48.4484 237.178 47.3142C237.148 46.468 236.998 46.4286 233.803 46.4286H230.459V44.8799C230.459 42.4378 231.477 38.2294 232.845 35.0151C234.13 31.9949 236.525 27.9309 237.018 27.9309C237.312 27.9309 238.936 29.1746 247.471 35.9365C250.446 38.2928 252.88 40.3448 252.88 40.496C252.88 40.6471 252.516 41.524 252.072 42.4445C249.313 48.1587 252.01 55.4728 257.898 58.242C262.256 60.2917 267.147 59.5191 270.767 56.2088C273.608 53.6105 274.702 51.0885 274.665 47.2158C274.632 43.6792 273.504 41.0879 271.022 38.8446C268.255 36.3438 266.472 35.6405 262.91 35.646C259.365 35.6511 256.835 36.5906 254.933 38.6068C254.346 39.2291 253.763 39.738 253.637 39.738C253.08 39.738 238.117 27.6078 238.013 27.0717C237.86 26.2779 241.1 23.005 244.253 20.7683C249.651 16.9405 256.048 14.9431 262.91 14.9431C268.483 14.9431 272.189 15.8397 277.464 18.4636C282.314 20.8758 285.036 23.1211 285.209 24.8508C285.425 27.021 287.245 27.3543 288.449 25.4447C289.026 24.5301 288.331 23.5123 286.776 22.994C286.098 22.7677 285.053 22.138 284.454 21.594Z" fill="#373737"/>
<path d="M282.774 15.7826C282.774 15.4075 282.562 14.888 282.302 14.6283C282.043 14.3685 281.458 14.156 281.004 14.156C280.55 14.156 279.966 14.3685 279.706 14.6283C278.556 15.7791 279.813 17.9342 281.403 17.5352C282.52 17.2546 284.835 18.8906 288.326 22.4268C295.095 29.2824 298.508 37.6017 298.508 47.2406C298.508 57.5343 295.252 65.486 288.113 72.6293C283.648 77.0971 279.399 79.6494 272.941 81.7431C269.265 82.9349 261.259 83.3875 256.893 82.6503C254.491 82.2449 253.94 81.9998 253.248 81.0272C252.8 80.3975 252.179 79.882 251.87 79.882C250.918 79.882 249.771 81.3197 250.006 82.2186C250.226 83.0612 251.681 83.6669 252.619 83.3064C252.909 83.1954 254.192 83.3505 255.471 83.6516C258.48 84.3596 266.871 84.3596 270.187 83.6516C284.786 80.5333 295.861 69.4748 299.069 54.8128C299.88 51.105 299.874 43.8689 299.057 39.9159C297.578 32.7596 294.304 26.8706 288.645 21.1891C286.354 18.8883 284.095 16.8838 283.627 16.7351C283.158 16.5863 282.774 16.1577 282.774 15.7826Z" fill="#373737"/>
<path d="M235.505 19.8017C234.542 18.9292 234.595 17.4828 235.618 16.7661C237.622 15.3611 239.723 17.9043 238.068 19.7333C237.261 20.6263 236.44 20.6483 235.505 19.8017Z" fill="#373737"/>
<path d="M315.422 51.63V34.4673C315.422 17.5671 315.41 17.3045 314.635 17.3045C313.86 17.3045 313.848 17.5671 313.848 34.8266V52.3491L315.815 54.853L317.782 57.3572V62.768C317.782 67.6038 317.693 68.3232 316.943 69.5366C316.206 70.7299 316.174 70.9645 316.681 71.4718C317.189 71.9791 317.39 71.8508 318.343 70.4099C319.416 68.7869 319.426 68.7109 319.375 62.6531L319.323 56.5351L317.372 54.0827L315.422 51.63Z" fill="#373737"/>
<path d="M267.374 18.8607C265.784 18.623 264.176 18.2641 263.801 18.0633C262.435 17.3333 261.534 17.6887 261.534 18.9567C261.534 19.9521 262.559 20.2752 263.729 19.6486C265.057 18.9379 269.503 19.6541 273.26 21.1839C284.297 25.6781 291.034 35.6429 291.034 47.4732C291.034 55.8274 287.871 62.8881 281.573 68.5909C278.6 71.2821 273.041 74.1422 269.199 74.9564C265.728 75.692 260.149 75.7042 256.749 74.9832C251.951 73.9654 245.406 70.4465 245.406 68.8841C245.406 68.4854 245.141 68.0572 244.816 67.9324C243.866 67.5676 243.046 68.0891 243.046 69.0588C243.046 69.9392 243.706 70.4363 244.875 70.4363C245.196 70.4363 246.035 70.8759 246.739 71.4135C250.944 74.6227 258.132 76.5748 264.467 76.2285C277.405 75.5212 287.807 66.7966 291.075 53.9104C292.154 49.6563 291.972 43.4088 290.645 39.1476C287.328 28.4902 278.125 20.4677 267.374 18.8607Z" fill="#373737"/>
<path d="M287.622 38.8217C285.164 31.2432 278.634 24.8788 270.777 22.404C264.893 20.5507 256.964 21.108 251.558 23.7543C247.921 25.5345 243.445 29.1116 244.854 29.1116C244.983 29.1116 245.9 28.3973 246.892 27.5239C252.48 22.602 261.941 20.6196 269.597 22.7665C274.047 24.0145 277.368 25.9961 280.835 29.4717C285.012 33.6609 287.463 38.3144 288.126 43.3163C288.267 44.3785 288.552 45.2479 288.76 45.2479C289.296 45.2479 288.803 42.4634 287.622 38.8217Z" fill="#373737"/>
<path d="M282.592 42.2706C280.538 35.1541 275.279 29.8381 268.247 27.7715C263.441 26.359 256.982 27.2662 252.487 29.9853C249.456 31.8182 248.827 32.4443 249.112 33.3425C249.564 34.7676 250.482 34.692 252.788 33.0398C255.609 31.0188 259.208 29.8972 262.853 29.9035C270.002 29.9153 275.718 33.5259 278.931 40.0595C280.171 42.5827 280.217 42.8444 280.202 47.4055C280.189 51.6647 280.084 52.3581 279.153 54.3744L278.119 56.6134L279.135 57.2797C280.097 57.9102 280.18 57.9074 280.676 57.2289C282.847 54.2583 283.832 46.5683 282.592 42.2706Z" fill="#373737"/>
<path d="M210.129 32.904C208.046 33.4271 206.974 30.277 208.978 29.5189C209.822 29.1994 210.933 29.5662 211.397 30.3167C211.913 31.1526 211.185 32.6388 210.129 32.904Z" fill="#373737"/>
<path d="M292.69 35.2119C292.351 34.5625 291.97 33.4113 291.844 32.6537C291.679 31.6663 291.388 31.2436 290.816 31.1613C290.378 31.0979 289.893 31.1719 289.74 31.325C289.148 31.9174 289.502 33.0823 290.374 33.4141C291.46 33.8273 293.636 38.9563 294.208 42.4496C295.119 48.0108 294.458 54.3149 292.445 59.2653C288.683 68.5188 280.908 75.2115 271.222 77.5351C267.537 78.4191 266.144 78.4915 265.12 77.8519C264.081 77.2025 263.024 77.7169 263.178 78.7981C263.316 79.7726 263.296 79.771 267.434 79.1003C275.625 77.7728 281.575 74.812 286.533 69.5968C290.899 65.0059 293.184 60.8214 294.63 54.7758C296.059 48.7975 295.186 40.0005 292.69 35.2119Z" fill="#373737"/>
<path d="M328.273 39.5093C328.433 39.0909 327.755 38.1227 326.207 36.5575C323.713 34.0351 323.762 34.0643 322.895 34.6145C322.416 34.9187 322.782 35.4697 324.851 37.5603C326.251 38.9744 327.54 40.1315 327.715 40.1315C327.89 40.1315 328.141 39.8513 328.273 39.5093Z" fill="#373737"/>
<path d="M220.7 36.983C225.966 36.983 226.919 36.8925 226.919 36.3926C226.919 35.892 225.94 35.8023 220.468 35.8023H214.016L211.627 37.8236C209.506 39.6183 208.959 40.5251 209.996 40.5251C210.182 40.5251 211.267 39.7281 212.408 38.754L214.481 36.983H220.7Z" fill="#373737"/>
<path d="M247.414 38.7887L246.509 38.0913C246.011 37.7079 245.492 37.3899 245.356 37.3852C245.042 37.3742 243.65 40.6298 243.087 42.6897C242.457 44.9988 242.558 50.2923 243.28 52.7525C244.766 57.8142 248.317 62.4661 252.547 64.8933C255.129 66.3747 255.933 66.4203 256.263 65.1046C256.402 64.5536 256.449 64.0538 256.369 63.994C256.289 63.9346 255.338 63.3887 254.257 62.781C251.407 61.18 248.285 57.7984 246.841 54.7491C245.664 52.2645 245.603 51.9024 245.612 47.4125C245.62 43.3423 245.745 42.4201 246.518 40.7392L247.414 38.7887Z" fill="#373737"/>
<path d="M216.495 40.5251C217.282 40.5251 217.479 40.3283 217.479 39.5412C217.479 38.8493 217.265 38.5573 216.758 38.5573C215.846 38.5573 215.512 38.891 215.512 39.8037C215.512 40.311 215.804 40.5251 216.495 40.5251Z" fill="#373737"/>
<path d="M219.642 40.5251C220.429 40.5251 220.626 40.3283 220.626 39.5412C220.626 38.754 220.429 38.5573 219.642 38.5573C218.855 38.5573 218.659 38.754 218.659 39.5412C218.659 40.3283 218.855 40.5251 219.642 40.5251Z" fill="#373737"/>
<path d="M222.816 40.5251C223.639 40.5251 223.804 40.3606 223.701 39.6396C223.62 39.0705 223.259 38.7092 222.691 38.6281C221.97 38.5258 221.806 38.6903 221.806 39.5136C221.806 40.3374 221.993 40.5251 222.816 40.5251Z" fill="#373737"/>
<path d="M225.963 40.5251C226.786 40.5251 226.951 40.3606 226.848 39.6396C226.767 39.0705 226.406 38.7092 225.837 38.6281C225.117 38.5258 224.952 38.6903 224.952 39.5136C224.952 40.3374 225.14 40.5251 225.963 40.5251Z" fill="#373737"/>
<path d="M324.686 43.3009C326.999 45.6391 327.724 46.028 328.233 45.2038C328.387 44.9551 327.407 43.6693 325.966 42.2265C323.7 39.9599 323.371 39.7557 322.899 40.3236C322.439 40.8789 322.667 41.2595 324.686 43.3009Z" fill="#373737"/>
<path d="M215.614 47.4787C220.285 47.4145 220.433 47.3862 220.555 46.527C220.679 45.649 220.639 45.6415 215.724 45.6415C211.754 45.6415 210.723 45.7552 210.548 46.213C210.108 47.3602 210.844 47.5444 215.614 47.4787Z" fill="#373737"/>
<path d="M328.009 50.6241C328.009 50.3592 326.986 49.1301 325.736 47.8923C324.486 46.6541 323.357 45.6415 323.227 45.6415C323.098 45.6415 322.799 45.8737 322.563 46.1578C322.234 46.5546 322.715 47.2492 324.639 49.1572C326.934 51.4325 328.009 51.9008 328.009 50.6241Z" fill="#373737"/>
<path d="M285.921 59.2405C285.921 60.0638 286.758 58.6056 287.464 56.5524C287.89 55.3134 288.095 54.3 287.919 54.3C287.621 54.3 285.921 58.5037 285.921 59.2405Z" fill="#373737"/>
<path d="M231.663 62.9065L229.03 60.1776L226.397 57.4485H216.431H206.465V58.4325V59.4164H216.228H225.99L228.612 62.1478L231.232 64.8795L234.192 64.8488C236.905 64.8209 237.233 64.9051 238.114 65.8564C240.08 67.9785 243.597 66.7777 243.597 63.9845C243.597 60.9486 239.979 59.6136 238.109 61.96C237.258 63.0282 237.067 63.0817 234.437 62.9967L231.663 62.9065Z" fill="#373737"/>
<path d="M272.591 65.2975C274.493 64.3265 274.747 63.8688 273.901 62.9337C273.048 61.9903 272.902 62.0112 269.99 63.4855C268.002 64.4922 267.06 64.7071 264.014 64.8492L260.398 65.0184L259.981 66.2169C259.751 66.8761 259.634 67.4861 259.72 67.5727C259.807 67.6589 261.295 67.7266 263.027 67.723C266.239 67.716 269.447 66.9025 272.591 65.2975Z" fill="#373737"/>
<path d="M268.733 72.9587C273.733 71.8528 279.678 68.3445 282.508 64.8299C284.364 62.5252 283.546 62.7444 281.178 65.1865C278.368 68.084 275.805 69.7814 271.957 71.2911C269.281 72.3416 268.148 72.5541 264.378 72.7119C259.206 72.9284 256.151 72.4317 252.518 70.7834C251.122 70.1502 249.792 69.7051 249.562 69.794C248.875 70.0585 254.135 72.3129 256.978 72.9729C260.366 73.7588 265.141 73.7533 268.733 72.9587Z" fill="#373737"/>
<path d="M200.798 70.8936C201.821 68.7373 200.91 66.1645 198.706 64.9842C195.878 63.4698 192.305 65.6737 192.305 68.9317C192.305 69.8794 192.578 71.046 192.913 71.5237C193.49 72.3479 193.364 72.6745 190.504 77.8102C187.634 82.9644 187.478 83.3729 187.291 86.2259C187.053 89.8794 187.536 91.5072 189.441 93.4699C190.922 94.9954 191.71 95.3992 197.516 97.6075C200.623 98.789 200.958 99.0161 200.958 99.9378C200.958 101.355 202.916 103.385 204.585 103.698C207.532 104.251 210.005 102.085 210.005 98.9504C210.005 96.8101 207.931 94.8376 205.68 94.8376C204.773 94.8376 203.513 95.1426 202.882 95.5157C201.78 96.1674 201.632 96.1584 199.032 95.2725C191.674 92.7662 189.733 91.018 189.788 86.9481C189.814 85.0003 190.14 84.1699 192.798 79.2727C195.576 74.1559 195.868 73.7663 197.09 73.5589C198.933 73.2456 200.07 72.4282 200.798 70.8936Z" fill="#373737"/>
<path d="M255.991 79.2857C251.694 78.5592 244.662 74.888 240.959 71.4376L239.462 70.0427H222.964C208.56 70.0427 206.465 70.1179 206.465 70.6331C206.465 71.1483 208.525 71.2234 222.648 71.2234H238.831L240.84 72.906C244.728 76.1616 248.244 78.0778 253.195 79.6391C256.931 80.8175 257.6 80.8895 257.6 80.1134C257.6 79.7698 256.986 79.4538 255.991 79.2857Z" fill="#373737"/>
<path d="M235.179 78.2109C235.179 77.2789 234.456 75.8971 233.64 75.2701C231.077 73.3015 227.573 77.0439 229.458 79.7367C229.908 80.3802 230.043 82.2871 230.09 88.7156L230.151 96.8774L232.665 99.7623L235.179 102.647V108.352V114.056L233.5 115.86C232.078 117.388 231.594 117.665 230.335 117.665C227.716 117.665 225.966 120.523 227.423 122.422C228.054 123.243 229.433 123.962 230.38 123.962C231.49 123.962 233.213 122.067 233.213 120.845C233.213 120.095 233.872 119.152 235.573 117.468L237.933 115.131V108.263V101.394L235.376 98.7445L232.819 96.0946V88.8463V81.5979L233.999 80.2755C234.648 79.5482 235.179 78.619 235.179 78.2109Z" fill="#373737"/>
<path d="M244.403 84.6048L241.473 81.653C238.845 79.0055 237.539 78.127 237.539 79.0051C237.539 79.1724 239.003 80.7663 240.793 82.5472L244.046 85.7855H246.805H249.564L252.99 89.2123C255.713 91.9378 256.514 92.5395 256.902 92.1515C257.289 91.7638 256.666 90.9432 253.856 88.1434L250.323 84.6229L247.363 84.6138L244.403 84.6048Z" fill="#373737"/>
<path d="M207.583 84.7882C206.537 85.9925 206.072 85.7477 206.072 83.9912C206.072 83.0498 205.892 82.6369 205.482 82.6369C204.999 82.6369 204.892 83.3147 204.892 86.3758C204.892 89.437 204.999 90.1147 205.482 90.1147C205.866 90.1147 206.072 89.7302 206.072 89.0139C206.072 87.3121 208.631 84.9984 210.513 84.9984C211.548 84.9984 211.972 84.8268 211.972 84.408C211.972 83.9707 211.513 83.8176 210.199 83.8176C208.805 83.8176 208.247 84.0251 207.583 84.7882Z" fill="#373737"/>
<path d="M244.403 88.5405L241.473 85.5887C238.845 82.9412 237.539 82.0627 237.539 82.9408C237.539 83.108 239.003 84.702 240.793 86.4829L244.046 89.7212H246.918H249.789L253.178 93.0665C255.042 94.9064 256.711 96.4118 256.887 96.4118C257.81 96.4118 256.862 95.0678 253.757 91.9759L250.307 88.5405H247.355H244.403Z" fill="#373737"/>
<path d="M308.833 92.0117C309.692 91.8894 309.718 91.7536 309.718 87.3653C309.718 83.5965 309.617 82.8251 309.109 82.7271C308.774 82.6625 308.376 82.7338 308.224 82.8857C308.073 83.0376 307.948 85.1814 307.948 87.6494C307.948 92.0782 307.96 92.1357 308.833 92.0117Z" fill="#373737"/>
<path d="M312.668 92.0826C313.411 92.0826 313.455 91.8201 313.455 87.3598C313.455 83.6866 313.339 82.6369 312.931 82.6369C311.982 82.6369 311.882 83.1151 311.882 87.6223C311.882 91.8201 311.928 92.0826 312.668 92.0826Z" fill="#373737"/>
<path d="M316.602 92.0826C317.345 92.0826 317.389 91.8201 317.389 87.3598C317.389 83.6866 317.272 82.6369 316.864 82.6369C315.916 82.6369 315.815 83.1151 315.815 87.6223C315.815 91.8201 315.862 92.0826 316.602 92.0826Z" fill="#373737"/>
<path d="M320.548 92.0826C321.312 92.0826 321.342 91.8807 321.236 87.4629C321.14 83.428 321.038 82.8266 320.437 82.7113C319.812 82.5913 319.749 83.0175 319.749 87.331C319.749 91.8449 319.789 92.0826 320.548 92.0826Z" fill="#373737"/>
<path d="M250.34 92.4762H247.432H244.524L241.27 89.2981C239.135 87.2141 237.917 86.2798 237.729 86.5844C237.552 86.8702 238.705 88.3193 240.727 90.3529L244.012 93.6569L246.971 93.6608L249.93 93.6647L253.258 97.0018C255.485 99.2345 256.717 100.208 256.981 99.9437C257.245 99.6796 256.212 98.3789 253.857 96.0124L250.34 92.4762Z" fill="#373737"/>
<path d="M250.418 96.4906L247.329 96.3501L244.24 96.2099L241.135 93.1212C239.048 91.0459 237.934 90.1887 237.736 90.5087C237.55 90.8094 238.65 92.1991 240.727 94.2885L244.012 97.5926L246.971 97.5965L249.93 97.6004L253.258 100.937C255.485 103.17 256.717 104.144 256.981 103.879C257.245 103.615 256.225 102.328 253.897 99.9874L250.418 96.4906Z" fill="#373737"/>
<path d="M225.149 103.299L225.26 98.4781C225.353 94.4102 225.278 93.6569 224.781 93.6569C224.302 93.6569 224.172 94.4428 224.081 97.8877L223.969 102.119L219.15 102.229C215.182 102.32 214.332 102.444 214.332 102.929C214.332 103.429 215.151 103.502 219.741 103.409L225.149 103.299Z" fill="#373737"/>
<path d="M249.946 99.954H246.996H244.047L241.038 96.9613C239.016 94.9497 237.934 94.1244 237.736 94.444C237.551 94.7439 238.583 96.0671 240.53 98.027L243.618 101.135H246.532H249.446L253.087 104.708C255.478 107.054 256.828 108.121 257.017 107.815C257.195 107.525 255.909 105.946 253.625 103.651L249.946 99.954Z" fill="#373737"/>
<path d="M333.461 106.633L333.39 100.642C333.33 95.5842 333.224 94.6341 332.71 94.5345C332.375 94.4696 331.977 94.5408 331.825 94.6927C331.673 94.8447 331.55 97.7287 331.552 101.102L331.555 107.235L335.087 110.519L338.619 113.802L338.723 127.639L338.826 141.475L339.711 141.601L340.596 141.727V127.596V113.466L337.028 110.049L333.461 106.633Z" fill="#373737"/>
<path d="M313.455 98.3797V97.0022V95.6247H302.835H292.214V97.0022V98.3797H302.835H313.455Z" fill="#373737"/>
<path d="M244.166 103.89L241.264 100.938C239.667 99.3144 238.275 97.9861 238.17 97.9861C238.065 97.9861 237.858 98.1829 237.709 98.4234C237.555 98.6733 238.766 100.187 240.537 101.959L243.636 105.057L246.595 105.064L249.553 105.07L253.071 108.607C255.417 110.966 256.72 112.012 256.982 111.749C257.245 111.487 256.139 110.113 253.661 107.623L249.946 103.89H247.056H244.166Z" fill="#373737"/>
<path d="M222.199 106.251C229.979 106.251 231.246 106.168 231.246 105.661C231.246 105.153 229.979 105.07 222.199 105.07C214.419 105.07 213.152 105.153 213.152 105.661C213.152 106.168 214.419 106.251 222.199 106.251Z" fill="#373737"/>
<path d="M293.89 108.526C292.86 107.41 291.708 106.176 291.329 105.784C290.695 105.126 289.721 105.07 278.906 105.07C272.452 105.07 267.058 105.184 266.92 105.322C266.151 106.092 268.159 106.251 278.641 106.251H290.195L292.68 109.002L295.165 111.754L300.212 111.757C304.077 111.76 305.222 111.646 305.097 111.269C304.982 110.922 303.585 110.744 300.348 110.666L295.763 110.556L293.89 108.526Z" fill="#373737"/>
<path d="M310.308 133.405V119.458C310.308 111.787 310.176 105.435 310.013 105.343C308.814 104.665 308.735 105.582 308.753 119.96L308.77 134.391L310.863 136.66C312.667 138.614 313.025 138.846 313.45 138.332C313.997 137.673 313.941 137.568 311.597 134.882L310.308 133.405Z" fill="#373737"/>
<path d="M222.854 109.777C229.844 109.743 231.246 109.643 231.246 109.174C231.246 108.704 229.776 108.612 222.199 108.612C213.962 108.612 211.925 108.844 213.807 109.567C214.167 109.705 218.238 109.8 222.854 109.777Z" fill="#373737"/>
<path d="M328.402 118.499C329.746 115.107 329.976 114.097 329.976 111.57C329.976 108.875 329.906 108.612 329.189 108.612C328.482 108.612 328.402 108.875 328.402 111.2C328.402 113.286 328.097 114.57 326.829 117.815L325.256 121.841V135.102C325.256 148.1 325.271 148.363 326.042 148.363C326.813 148.363 326.829 148.1 326.829 135.417V122.471L328.402 118.499Z" fill="#373737"/>
<path d="M295.828 115.697L293.279 112.942L290.73 110.187H278.655C269.171 110.187 266.617 110.292 266.745 110.679C266.87 111.054 269.661 111.195 278.547 111.275L290.185 111.379L292.729 114.128L295.273 116.877H300.234C304.381 116.877 305.195 116.781 305.195 116.287C305.195 115.796 304.412 115.697 300.512 115.697H295.828Z" fill="#373737"/>
<path d="M214.636 122.978L214.583 119.273C214.545 116.699 214.378 115.517 214.037 115.402C213.663 115.277 213.545 116.324 213.545 119.797V124.355H215.709C217.331 124.355 217.872 124.213 217.872 123.787C217.872 123.404 217.345 123.18 216.254 123.099L214.636 122.978Z" fill="#373737"/>
<path d="M221.609 122.978L221.496 119.14C221.407 116.086 221.266 115.303 220.808 115.303C220.336 115.303 220.232 116.118 220.232 119.829V124.355H222.396C224.016 124.355 224.559 124.213 224.559 123.788C224.559 123.418 224.049 123.18 223.084 123.1L221.609 122.978Z" fill="#373737"/>
<path d="M300.503 120.813C295.231 120.813 295.925 121.115 292.537 117.349L290.697 115.303H278.934C272.465 115.303 267.053 115.421 266.909 115.566C266.765 115.71 266.647 115.975 266.647 116.156C266.647 116.336 271.942 116.484 278.415 116.484H290.182L292.912 119.449L295.642 122.413L300.316 122.302C304.402 122.205 305.005 122.104 305.121 121.502C305.241 120.876 304.815 120.813 300.503 120.813Z" fill="#373737"/>
<path d="M277.464 125.536C284.872 125.536 285.134 125.509 285.134 124.749C285.134 123.988 284.872 123.962 277.464 123.962C270.056 123.962 269.794 123.988 269.794 124.749C269.794 125.509 270.056 125.536 277.464 125.536Z" fill="#373737"/>
<path d="M344.923 143.622V134.382C344.923 125.405 344.9 125.142 344.136 125.142C343.373 125.142 343.349 125.405 343.349 133.907V142.672L338.047 146.403L332.744 150.134L332.737 154.365C332.729 158.31 332.781 158.596 333.502 158.596C334.208 158.596 334.284 158.272 334.387 154.796L334.499 150.996L336.513 149.581C337.62 148.803 339.965 147.144 341.725 145.894L344.923 143.622Z" fill="#373737"/>
<path d="M359.477 134.785C360.818 131.487 361.05 130.49 361.05 128.029C361.05 125.405 360.978 125.142 360.263 125.142C359.831 125.142 359.472 125.187 359.467 125.241C359.462 125.295 359.403 126.667 359.338 128.291C359.243 130.633 358.92 131.95 357.774 134.664L356.33 138.086V151.489C356.33 164.63 356.345 164.893 357.117 164.893C357.888 164.893 357.903 164.63 357.903 151.773V138.654L359.477 134.785Z" fill="#373737"/>
<path d="M245.018 130.457C243.643 130.021 243.334 127.734 244.525 126.815C245.44 126.11 246.36 126.207 247.162 127.094C248.491 128.564 246.903 131.056 245.018 130.457Z" fill="#373737"/>
<path d="M218.052 131.657C217.679 130.869 216.874 129.966 216.265 129.651C214.313 128.641 212.457 128.908 210.949 130.416C209.803 131.563 209.612 132.022 209.612 133.626C209.612 135.297 209.78 135.657 211.185 136.995L212.759 138.492V148.271V158.05L218.364 163.635L223.969 169.218L238.405 169.22C249.885 169.222 252.905 169.328 253.155 169.738C254.818 172.463 259.502 172.009 260.937 168.983C261.686 167.405 261.686 166.71 260.937 165.132C259.681 162.483 256.272 161.713 254.056 163.579C253.372 164.155 252.655 165.04 252.463 165.547L252.113 166.467H238.579H225.044L220.278 161.774L215.512 157.08V147.593V138.106L216.877 136.907C218.595 135.398 218.99 133.634 218.052 131.657Z" fill="#373737"/>
<path d="M289.148 132.915C287.714 131.563 286.301 130.234 286.007 129.964C285.616 129.604 283.356 129.472 277.633 129.472C270.927 129.472 269.794 129.557 269.794 130.062C269.794 130.567 270.902 130.652 277.41 130.652H285.026L288.245 133.618L291.464 136.584L295.249 136.472C297.844 136.395 299.085 136.204 299.197 135.867C299.32 135.496 298.424 135.375 295.557 135.375H291.753L289.148 132.915Z" fill="#373737"/>
<path d="M224.461 134.268C225.42 134.175 225.739 133.955 225.739 133.383C225.739 132.72 225.453 132.62 223.561 132.62H221.384L221.496 136.453C221.592 139.699 221.712 140.305 222.28 140.414C222.859 140.525 222.968 140.12 223.067 137.467L223.182 134.391L224.461 134.268Z" fill="#373737"/>
<path d="M232.442 134.194C233.344 134.194 233.606 134.017 233.606 133.407C233.606 132.725 233.344 132.62 231.639 132.62H229.672L229.629 135.572C229.605 137.195 229.565 138.922 229.542 139.409C229.51 140.043 229.718 140.295 230.274 140.295C230.969 140.295 231.061 139.979 231.164 137.245L231.279 134.194H232.442Z" fill="#373737"/>
<path d="M240.588 134.268C241.548 134.175 241.866 133.955 241.866 133.383C241.866 132.721 241.58 132.62 239.703 132.62H237.539V136.585C237.539 140.148 237.609 140.536 238.228 140.418C238.788 140.312 238.953 139.74 239.113 137.339L239.309 134.391L240.588 134.268Z" fill="#373737"/>
<path d="M255.142 134.969C261.616 134.98 262.714 134.896 262.714 134.391C262.714 133.886 261.583 133.801 254.901 133.801H247.088L238.214 142.853L229.34 151.905H227.113C224.007 151.905 224.369 152.845 227.539 153.01L229.866 153.131L238.718 144.044L247.57 134.957L255.142 134.969Z" fill="#373737"/>
<path d="M291.441 139.114L288.512 136.457L285.583 133.801H277.689C270.933 133.801 269.794 133.886 269.794 134.391C269.794 134.896 270.925 134.984 277.562 134.994L285.331 135.007L288.208 137.749L291.086 140.492H295.223C298.357 140.492 299.321 140.372 299.198 140C299.089 139.671 297.779 139.443 295.238 139.311L291.441 139.114Z" fill="#373737"/>
<path d="M291.624 143.607L288.518 140.671L285.412 137.737H277.603C270.924 137.737 269.794 137.822 269.794 138.327C269.794 138.831 270.885 138.917 277.254 138.917H284.713L286.202 140.193C287.021 140.895 288.488 142.224 289.461 143.149L291.231 144.828L295.133 144.726C297.828 144.655 299.085 144.472 299.197 144.132C299.32 143.761 298.406 143.636 295.492 143.623L291.624 143.607Z" fill="#373737"/>
<path d="M311.488 141.625L310.028 139.878C308.435 137.971 308.325 137.911 307.643 138.593C307.288 138.948 307.5 139.446 308.548 140.725L309.915 142.395V148.527C309.915 154.397 309.949 154.66 310.702 154.66C311.457 154.66 311.488 154.397 311.488 148.143V141.625Z" fill="#373737"/>
<path d="M249.391 142.459C252.23 142.459 252.88 142.35 252.88 141.869C252.88 141.383 252.201 141.282 249.045 141.299L245.21 141.319L236.654 149.871C231.949 154.575 228.099 158.55 228.099 158.706C228.099 159.498 229.505 158.784 231.298 157.082L233.307 155.174L235.164 157.082C236.186 158.131 237.226 158.989 237.477 158.989C238.439 158.989 237.858 157.846 236.021 156.127L234.109 154.338L240.005 148.399L245.901 142.459H249.391Z" fill="#373737"/>
<path d="M262.352 145.624L260.713 143.845C259.227 142.232 257.993 141.568 257.993 142.379C257.993 142.552 258.701 143.385 259.567 144.23L261.14 145.768V149.066C261.14 151.529 261.265 152.323 261.632 152.201C261.958 152.093 262.162 150.962 262.238 148.832L262.352 145.624Z" fill="#373737"/>
<path d="M322.305 172.371L322.223 157.317C322.141 142.499 322.128 142.261 321.338 142.137C320.542 142.012 320.535 142.133 320.535 157.191V172.371H321.42H322.305Z" fill="#373737"/>
<path d="M301.676 151.521L303.337 149.966C304.563 148.818 304.883 148.295 304.559 147.967C304.234 147.639 303.777 147.837 302.8 148.73C302.074 149.394 301.298 149.94 301.075 149.944C300.853 149.948 293.945 149.992 285.724 150.042C272.741 150.122 270.777 150.212 270.777 150.724C270.777 151.237 272.802 151.328 286.226 151.418L301.676 151.521Z" fill="#373737"/>
<path d="M244.62 154.839C245.398 154.839 245.629 154.615 245.727 153.765C245.839 152.799 245.73 152.692 244.62 152.692C243.51 152.692 243.4 152.799 243.512 153.765C243.61 154.615 243.842 154.839 244.62 154.839Z" fill="#373737"/>
<path d="M250.086 154.761C251.308 155.026 252.093 154.583 252.093 153.63C252.093 152.859 251.892 152.692 250.959 152.692C250.067 152.692 249.785 152.898 249.64 153.658C249.512 154.328 249.649 154.666 250.086 154.761Z" fill="#373737"/>
<path d="M256.813 154.854C257.592 154.852 257.823 154.627 257.921 153.772C258.034 152.798 257.925 152.692 256.813 152.692C255.701 152.692 255.593 152.798 255.706 153.774C255.804 154.634 256.032 154.856 256.813 154.854Z" fill="#373737"/>
<path d="M364.983 180.472V167.566C364.983 155.313 364.947 154.66 364.262 154.66C363.866 154.66 363.423 154.778 363.279 154.923C363.135 155.067 363.017 160.789 363.017 167.64V180.095L361.837 181.226C360.533 182.476 360.508 182.545 361.041 183.389C361.347 183.873 361.731 183.666 363.198 182.225L364.983 180.472Z" fill="#373737"/>
<path d="M276.186 157.344C276.834 157.252 277.071 156.955 277.071 156.234C277.071 155.514 276.834 155.217 276.186 155.124C275.429 155.017 275.301 155.178 275.301 156.234C275.301 157.29 275.429 157.452 276.186 157.344Z" fill="#373737"/>
<path d="M281.975 157.415C282.601 157.415 282.774 157.159 282.774 156.234C282.774 155.31 282.601 155.054 281.975 155.054C281.093 155.054 280.599 155.909 280.95 156.825C281.074 157.149 281.536 157.415 281.975 157.415Z" fill="#373737"/>
<path d="M286.777 156.105C286.948 157.604 288.478 157.72 288.478 156.234C288.478 155.504 288.242 155.217 287.564 155.121C286.769 155.008 286.666 155.137 286.777 156.105Z" fill="#373737"/>
<path d="M293.382 157.415C294.008 157.415 294.181 157.159 294.181 156.234C294.181 155.31 294.008 155.054 293.382 155.054C292.5 155.054 292.006 155.909 292.357 156.825C292.481 157.149 292.943 157.415 293.382 157.415Z" fill="#373737"/>
<path d="M338.629 168.66L332.827 162.849C329.636 159.653 326.915 157.035 326.779 157.03C326.643 157.025 326.329 157.266 326.082 157.565C325.72 158 326.765 159.229 331.339 163.753L337.048 169.399L337.15 186.524C337.245 202.473 337.3 203.658 337.941 203.781C338.588 203.906 338.629 202.863 338.629 186.287V168.66Z" fill="#373737"/>
<path d="M300.475 173.965V167.658V161.351H294.366C289.725 161.351 288.209 161.473 288.061 161.861C287.953 162.141 287.914 164.931 287.975 168.059L288.084 173.748L294.28 173.856L300.475 173.965Z" fill="#373737"/>
<path d="M269.242 166.781C268.399 166.66 267.989 165.669 268.371 164.673C268.71 163.79 270.483 163.966 270.783 164.912C271.111 165.944 270.296 166.933 269.242 166.781Z" fill="#373737"/>
<path d="M284.348 184.178V176.109V168.041L283.463 168.041H282.578V175.224V182.407L275.59 182.514L268.603 182.621L268.707 195.497C268.803 207.398 268.862 208.382 269.499 208.504C270.142 208.628 270.187 207.872 270.187 197.03C270.187 190.646 270.294 185.143 270.426 184.8C270.631 184.265 271.63 184.178 277.506 184.178H284.348Z" fill="#373737"/>
<path d="M313.434 181.091L313.398 174.566L313.362 168.041H312.425H311.488V174.663V181.285L313.258 183.566L315.029 185.847V201.542C315.029 216.975 315.042 217.237 315.815 217.237C316.589 217.237 316.602 216.975 316.602 201.057V184.877L315.018 182.984L313.434 181.091Z" fill="#373737"/>
<path d="M358.343 171.704C358.416 171.212 358.423 169.885 358.356 169.124C358.309 168.577 357.926 168.435 356.504 168.435H354.711L354.832 170.108C354.953 171.772 354.961 171.781 356.625 171.901C357.544 171.968 358.318 171.879 358.343 171.704Z" fill="#373737"/>
<path d="M279.627 172.416V170.622V168.828H278.042C276.306 168.828 275.949 169.25 276.156 171.058C276.271 172.065 276.446 172.186 277.956 172.295L279.627 172.416Z" fill="#373737"/>
<path d="M322.863 179.977C324.684 178.066 326.888 175.751 327.762 174.832C328.877 173.658 329.226 173.037 328.934 172.745C328.641 172.452 326.983 173.944 323.355 177.761L318.193 183.194L318.184 187.064C318.177 189.987 318.296 190.894 318.667 190.771C318.992 190.664 319.226 189.395 319.355 187.03L319.552 183.452L322.863 179.977Z" fill="#373737"/>
<path d="M358.297 178.713V176.919V175.126H356.711C354.975 175.126 354.618 175.547 354.825 177.356C354.941 178.362 355.116 178.483 356.625 178.592L358.297 178.713Z" fill="#373737"/>
<path d="M279.673 179.061L279.552 177.389C279.436 175.785 279.373 175.711 278.04 175.599C276.306 175.453 276.087 175.672 276.087 177.553V179.061H277.88H279.673Z" fill="#373737"/>
<path d="M298.901 187.72C299.637 187.72 299.688 187.457 299.688 183.664V179.609L298.373 178.334C297.202 177.198 297.003 177.127 296.544 177.681C296.106 178.208 296.186 178.468 297.072 179.392C298.045 180.41 298.115 180.721 298.115 184.101C298.115 187.457 298.172 187.72 298.901 187.72Z" fill="#373737"/>
<path d="M292.333 183.719C295.444 183.987 296.769 179.954 294.215 177.992C293.175 177.192 291.473 177.406 290.411 178.469C289.644 179.236 289.449 179.796 289.522 181.024C289.595 182.271 289.395 182.826 288.554 183.704L287.494 184.811V205.589V226.367L286.314 227.47C284.81 228.876 284.727 230.64 286.1 232.014C287.65 233.565 289.876 233.267 290.852 231.378C291.671 229.793 291.58 229.246 290.248 227.727L289.068 226.382V205.939V185.496L290.07 184.553C290.779 183.887 291.443 183.642 292.333 183.719Z" fill="#373737"/>
<path d="M306.193 187.711C309.092 184.83 309.535 184.213 309.438 183.197C309.263 181.377 307.555 181.352 307.555 183.17C307.555 183.687 306.293 185.252 304.197 187.335L300.839 190.672L300.952 201.364C301.014 207.245 301.19 212.182 301.343 212.334C301.496 212.487 301.894 212.507 302.228 212.379C302.754 212.177 302.835 210.742 302.835 201.597V191.048L306.193 187.711Z" fill="#373737"/>
<path d="M329.189 207.823V194.82C329.189 182.079 329.173 181.816 328.402 181.816C327.632 181.816 327.616 182.079 327.616 194.323V206.831L326.175 208.315C324.879 209.65 324.795 209.861 325.337 210.404C325.881 210.947 326.105 210.847 327.565 209.416L329.189 207.823Z" fill="#373737"/>
<path d="M357.913 211.904L357.81 196.964C357.719 183.841 357.633 182.009 357.097 181.906C356.762 181.842 356.364 181.913 356.212 182.065C356.061 182.217 355.942 189.086 355.95 197.33C355.964 213.913 355.737 212.4 358.6 215.034C359.657 216.007 359.934 216.1 360.465 215.659C361.019 215.199 360.912 214.962 359.501 213.523L357.913 211.904Z" fill="#373737"/>
<path d="M283.561 193.473C283.561 192.391 283.245 191.706 282.283 190.694C281.579 189.955 280.473 189.254 279.824 189.136C278.475 188.891 276.61 189.607 275.579 190.766C273.866 192.689 274.548 196.318 276.88 197.697L278.054 198.391V205.731V213.072L276.63 214.531C275.264 215.93 275.121 215.981 273.139 215.777C271.195 215.576 270.982 215.645 269.58 216.93C268.251 218.149 268.089 218.502 268.089 220.189C268.089 221.863 268.255 222.232 269.526 223.398C272.898 226.49 277.828 223.765 277.079 219.223C276.865 217.925 276.987 217.71 278.829 216.133L280.807 214.439V206.183C280.807 199.258 280.901 197.892 281.39 197.704C282.362 197.331 283.561 194.994 283.561 193.473Z" fill="#373737"/>
<path d="M293.404 219.382L293.301 204.442C293.205 190.573 293.148 189.492 292.509 189.369C291.863 189.244 291.821 190.187 291.821 204.759V220.282L293.659 222.122C295.313 223.777 295.558 223.9 296.102 223.355C296.647 222.81 296.542 222.581 295.056 221.066L293.404 219.382Z" fill="#373737"/>
<path d="M264.268 235.544C262.668 236.053 261.551 233.844 262.998 233.033C263.961 232.494 265.074 233.198 265.074 234.345C265.074 234.95 264.785 235.38 264.268 235.544Z" fill="#373737"/>
</svg>
