<svg width="394" height="239" viewBox="0 0 394 239" fill="none" xmlns="http://www.w3.org/2000/svg">
<path d="M195.507 5.996C195.932 6.13533 196.27 6.37 196.519 6.7C196.768 7.02267 196.893 7.426 196.893 7.91C196.893 8.57733 196.636 9.09433 196.123 9.461C195.61 9.82033 194.862 10 193.879 10H190.051V2.3H193.659C194.568 2.3 195.269 2.47967 195.76 2.839C196.251 3.191 196.497 3.67867 196.497 4.302C196.497 4.68333 196.409 5.02067 196.233 5.314C196.057 5.60733 195.815 5.83467 195.507 5.996ZM191.481 3.422V5.545H193.505C194.004 5.545 194.385 5.457 194.649 5.281C194.92 5.09767 195.056 4.83367 195.056 4.489C195.056 4.137 194.92 3.873 194.649 3.697C194.385 3.51367 194.004 3.422 193.505 3.422H191.481ZM193.791 8.878C194.898 8.878 195.452 8.50767 195.452 7.767C195.452 7.02633 194.898 6.656 193.791 6.656H191.481V8.878H193.791ZM201.73 10.11C200.667 10.11 199.838 9.813 199.244 9.219C198.65 8.61767 198.353 7.75967 198.353 6.645V2.3H199.783V6.59C199.783 8.10067 200.436 8.856 201.741 8.856C203.039 8.856 203.688 8.10067 203.688 6.59V2.3H205.096V6.645C205.096 7.75967 204.799 8.61767 204.205 9.219C203.619 9.813 202.794 10.11 201.73 10.11ZM209.486 10.11C208.892 10.11 208.316 10.0257 207.759 9.857C207.209 9.68833 206.773 9.46467 206.45 9.186L206.945 8.075C207.26 8.32433 207.645 8.52967 208.1 8.691C208.562 8.845 209.024 8.922 209.486 8.922C210.058 8.922 210.483 8.83033 210.762 8.647C211.048 8.46367 211.191 8.22167 211.191 7.921C211.191 7.701 211.11 7.52133 210.949 7.382C210.795 7.23533 210.597 7.12167 210.355 7.041C210.113 6.96033 209.783 6.86867 209.365 6.766C208.778 6.62667 208.302 6.48733 207.935 6.348C207.576 6.20867 207.264 5.99233 207 5.699C206.743 5.39833 206.615 4.995 206.615 4.489C206.615 4.06367 206.729 3.67867 206.956 3.334C207.191 2.982 207.539 2.70333 208.001 2.498C208.47 2.29267 209.042 2.19 209.717 2.19C210.186 2.19 210.648 2.24867 211.103 2.366C211.558 2.48333 211.95 2.652 212.28 2.872L211.829 3.983C211.492 3.785 211.14 3.63467 210.773 3.532C210.406 3.42933 210.051 3.378 209.706 3.378C209.141 3.378 208.72 3.47333 208.441 3.664C208.17 3.85467 208.034 4.10767 208.034 4.423C208.034 4.643 208.111 4.82267 208.265 4.962C208.426 5.10133 208.628 5.21133 208.87 5.292C209.112 5.37267 209.442 5.46433 209.86 5.567C210.432 5.699 210.901 5.83833 211.268 5.985C211.635 6.12433 211.946 6.34067 212.203 6.634C212.467 6.92733 212.599 7.32333 212.599 7.822C212.599 8.24733 212.482 8.63233 212.247 8.977C212.02 9.32167 211.671 9.59667 211.202 9.802C210.733 10.0073 210.161 10.11 209.486 10.11ZM214.017 2.3H215.447V10H214.017V2.3ZM224.372 2.3V10H223.195L218.949 4.786V10H217.53V2.3H218.707L222.953 7.514V2.3H224.372ZM232.21 8.801V10H226.435V2.3H232.056V3.499H227.865V5.501H231.583V6.678H227.865V8.801H232.21ZM236.191 10.11C235.597 10.11 235.021 10.0257 234.464 9.857C233.914 9.68833 233.478 9.46467 233.155 9.186L233.65 8.075C233.965 8.32433 234.35 8.52967 234.805 8.691C235.267 8.845 235.729 8.922 236.191 8.922C236.763 8.922 237.188 8.83033 237.467 8.647C237.753 8.46367 237.896 8.22167 237.896 7.921C237.896 7.701 237.815 7.52133 237.654 7.382C237.5 7.23533 237.302 7.12167 237.06 7.041C236.818 6.96033 236.488 6.86867 236.07 6.766C235.483 6.62667 235.007 6.48733 234.64 6.348C234.281 6.20867 233.969 5.99233 233.705 5.699C233.448 5.39833 233.32 4.995 233.32 4.489C233.32 4.06367 233.434 3.67867 233.661 3.334C233.896 2.982 234.244 2.70333 234.706 2.498C235.175 2.29267 235.747 2.19 236.422 2.19C236.891 2.19 237.353 2.24867 237.808 2.366C238.263 2.48333 238.655 2.652 238.985 2.872L238.534 3.983C238.197 3.785 237.845 3.63467 237.478 3.532C237.111 3.42933 236.756 3.378 236.411 3.378C235.846 3.378 235.425 3.47333 235.146 3.664C234.875 3.85467 234.739 4.10767 234.739 4.423C234.739 4.643 234.816 4.82267 234.97 4.962C235.131 5.10133 235.333 5.21133 235.575 5.292C235.817 5.37267 236.147 5.46433 236.565 5.567C237.137 5.699 237.606 5.83833 237.973 5.985C238.34 6.12433 238.651 6.34067 238.908 6.634C239.172 6.92733 239.304 7.32333 239.304 7.822C239.304 8.24733 239.187 8.63233 238.952 8.977C238.725 9.32167 238.376 9.59667 237.907 9.802C237.438 10.0073 236.866 10.11 236.191 10.11ZM243.109 10.11C242.515 10.11 241.939 10.0257 241.382 9.857C240.832 9.68833 240.396 9.46467 240.073 9.186L240.568 8.075C240.883 8.32433 241.268 8.52967 241.723 8.691C242.185 8.845 242.647 8.922 243.109 8.922C243.681 8.922 244.106 8.83033 244.385 8.647C244.671 8.46367 244.814 8.22167 244.814 7.921C244.814 7.701 244.733 7.52133 244.572 7.382C244.418 7.23533 244.22 7.12167 243.978 7.041C243.736 6.96033 243.406 6.86867 242.988 6.766C242.401 6.62667 241.925 6.48733 241.558 6.348C241.199 6.20867 240.887 5.99233 240.623 5.699C240.366 5.39833 240.238 4.995 240.238 4.489C240.238 4.06367 240.352 3.67867 240.579 3.334C240.814 2.982 241.162 2.70333 241.624 2.498C242.093 2.29267 242.665 2.19 243.34 2.19C243.809 2.19 244.271 2.24867 244.726 2.366C245.181 2.48333 245.573 2.652 245.903 2.872L245.452 3.983C245.115 3.785 244.763 3.63467 244.396 3.532C244.029 3.42933 243.674 3.378 243.329 3.378C242.764 3.378 242.343 3.47333 242.064 3.664C241.793 3.85467 241.657 4.10767 241.657 4.423C241.657 4.643 241.734 4.82267 241.888 4.962C242.049 5.10133 242.251 5.21133 242.493 5.292C242.735 5.37267 243.065 5.46433 243.483 5.567C244.055 5.699 244.524 5.83833 244.891 5.985C245.258 6.12433 245.569 6.34067 245.826 6.634C246.09 6.92733 246.222 7.32333 246.222 7.822C246.222 8.24733 246.105 8.63233 245.87 8.977C245.643 9.32167 245.294 9.59667 244.825 9.802C244.356 10.0073 243.784 10.11 243.109 10.11ZM255.674 8.218H251.824L251.065 10H249.591L253.056 2.3H254.464L257.94 10H256.444L255.674 8.218ZM255.201 7.096L253.749 3.73L252.308 7.096H255.201ZM258.919 2.3H262.285C263.107 2.3 263.836 2.46133 264.474 2.784C265.112 3.09933 265.607 3.55033 265.959 4.137C266.311 4.71633 266.487 5.38733 266.487 6.15C266.487 6.91267 266.311 7.58733 265.959 8.174C265.607 8.75333 265.112 9.20433 264.474 9.527C263.836 9.84233 263.107 10 262.285 10H258.919V2.3ZM262.219 8.79C262.784 8.79 263.279 8.68367 263.704 8.471C264.137 8.251 264.467 7.943 264.694 7.547C264.929 7.14367 265.046 6.678 265.046 6.15C265.046 5.622 264.929 5.16 264.694 4.764C264.467 4.36067 264.137 4.05267 263.704 3.84C263.279 3.62 262.784 3.51 262.219 3.51H260.349V8.79H262.219ZM275.08 10L275.069 4.896L272.539 9.12H271.901L269.371 4.962V10H268.007V2.3H269.184L272.242 7.404L275.245 2.3H276.422L276.433 10H275.08ZM278.513 2.3H279.943V10H278.513V2.3ZM288.868 2.3V10H287.691L283.445 4.786V10H282.026V2.3H283.203L287.449 7.514V2.3H288.868ZM290.931 2.3H292.361V10H290.931V2.3ZM296.831 10.11C296.237 10.11 295.661 10.0257 295.104 9.857C294.554 9.68833 294.117 9.46467 293.795 9.186L294.29 8.075C294.605 8.32433 294.99 8.52967 295.445 8.691C295.907 8.845 296.369 8.922 296.831 8.922C297.403 8.922 297.828 8.83033 298.107 8.647C298.393 8.46367 298.536 8.22167 298.536 7.921C298.536 7.701 298.455 7.52133 298.294 7.382C298.14 7.23533 297.942 7.12167 297.7 7.041C297.458 6.96033 297.128 6.86867 296.71 6.766C296.123 6.62667 295.646 6.48733 295.28 6.348C294.92 6.20867 294.609 5.99233 294.345 5.699C294.088 5.39833 293.96 4.995 293.96 4.489C293.96 4.06367 294.073 3.67867 294.301 3.334C294.535 2.982 294.884 2.70333 295.346 2.498C295.815 2.29267 296.387 2.19 297.062 2.19C297.531 2.19 297.993 2.24867 298.448 2.366C298.902 2.48333 299.295 2.652 299.625 2.872L299.174 3.983C298.836 3.785 298.484 3.63467 298.118 3.532C297.751 3.42933 297.395 3.378 297.051 3.378C296.486 3.378 296.064 3.47333 295.786 3.664C295.514 3.85467 295.379 4.10767 295.379 4.423C295.379 4.643 295.456 4.82267 295.61 4.962C295.771 5.10133 295.973 5.21133 296.215 5.292C296.457 5.37267 296.787 5.46433 297.205 5.567C297.777 5.699 298.246 5.83833 298.613 5.985C298.979 6.12433 299.291 6.34067 299.548 6.634C299.812 6.92733 299.944 7.32333 299.944 7.822C299.944 8.24733 299.826 8.63233 299.592 8.977C299.364 9.32167 299.016 9.59667 298.547 9.802C298.077 10.0073 297.505 10.11 296.831 10.11ZM302.816 3.51H300.264V2.3H306.798V3.51H304.246V10H302.816V3.51ZM312.909 10L311.336 7.745C311.27 7.75233 311.171 7.756 311.039 7.756H309.301V10H307.871V2.3H311.039C311.707 2.3 312.286 2.41 312.777 2.63C313.276 2.85 313.657 3.16533 313.921 3.576C314.185 3.98667 314.317 4.47433 314.317 5.039C314.317 5.61833 314.174 6.117 313.888 6.535C313.61 6.953 313.206 7.26467 312.678 7.47L314.449 10H312.909ZM312.876 5.039C312.876 4.54767 312.715 4.17 312.392 3.906C312.07 3.642 311.597 3.51 310.973 3.51H309.301V6.579H310.973C311.597 6.579 312.07 6.447 312.392 6.183C312.715 5.91167 312.876 5.53033 312.876 5.039ZM320.911 8.218H317.061L316.302 10H314.828L318.293 2.3H319.701L323.177 10H321.681L320.911 8.218ZM320.438 7.096L318.986 3.73L317.545 7.096H320.438ZM325.332 3.51H322.78V2.3H329.314V3.51H326.762V10H325.332V3.51ZM330.387 2.3H331.817V10H330.387V2.3ZM337.497 10.11C336.712 10.11 336.004 9.94133 335.374 9.604C334.743 9.25933 334.248 8.78633 333.889 8.185C333.529 7.57633 333.35 6.898 333.35 6.15C333.35 5.402 333.529 4.72733 333.889 4.126C334.248 3.51733 334.743 3.04433 335.374 2.707C336.004 2.36233 336.712 2.19 337.497 2.19C338.281 2.19 338.989 2.36233 339.62 2.707C340.25 3.04433 340.745 3.51367 341.105 4.115C341.464 4.71633 341.644 5.39467 341.644 6.15C341.644 6.90533 341.464 7.58367 341.105 8.185C340.745 8.78633 340.25 9.25933 339.62 9.604C338.989 9.94133 338.281 10.11 337.497 10.11ZM337.497 8.856C338.01 8.856 338.472 8.74233 338.883 8.515C339.293 8.28033 339.616 7.95767 339.851 7.547C340.085 7.129 340.203 6.66333 340.203 6.15C340.203 5.63667 340.085 5.17467 339.851 4.764C339.616 4.346 339.293 4.02333 338.883 3.796C338.472 3.56133 338.01 3.444 337.497 3.444C336.983 3.444 336.521 3.56133 336.111 3.796C335.7 4.02333 335.377 4.346 335.143 4.764C334.908 5.17467 334.791 5.63667 334.791 6.15C334.791 6.66333 334.908 7.129 335.143 7.547C335.377 7.95767 335.7 8.28033 336.111 8.515C336.521 8.74233 336.983 8.856 337.497 8.856ZM350.001 2.3V10H348.824L344.578 4.786V10H343.159V2.3H344.336L348.582 7.514V2.3H350.001Z" fill="#202020"/>
<path d="M234.09 141.324H230.24L229.481 143.106H228.007L231.472 135.406H232.88L236.356 143.106H234.86L234.09 141.324ZM233.617 140.202L232.165 136.836L230.724 140.202H233.617ZM242.373 143.106L240.8 140.851C240.734 140.858 240.635 140.862 240.503 140.862H238.765V143.106H237.335V135.406H240.503C241.17 135.406 241.749 135.516 242.241 135.736C242.739 135.956 243.121 136.271 243.385 136.682C243.649 137.093 243.781 137.58 243.781 138.145C243.781 138.724 243.638 139.223 243.352 139.641C243.073 140.059 242.67 140.371 242.142 140.576L243.913 143.106H242.373ZM242.34 138.145C242.34 137.654 242.178 137.276 241.856 137.012C241.533 136.748 241.06 136.616 240.437 136.616H238.765V139.685H240.437C241.06 139.685 241.533 139.553 241.856 139.289C242.178 139.018 242.34 138.636 242.34 138.145ZM248.945 143.216C248.167 143.216 247.463 143.047 246.833 142.71C246.209 142.365 245.718 141.892 245.359 141.291C245.007 140.69 244.831 140.011 244.831 139.256C244.831 138.501 245.01 137.822 245.37 137.221C245.729 136.62 246.22 136.15 246.844 135.813C247.474 135.468 248.178 135.296 248.956 135.296C249.586 135.296 250.162 135.406 250.683 135.626C251.203 135.846 251.643 136.165 252.003 136.583L251.079 137.452C250.521 136.851 249.836 136.55 249.022 136.55C248.494 136.55 248.021 136.667 247.603 136.902C247.185 137.129 246.858 137.448 246.624 137.859C246.389 138.27 246.272 138.735 246.272 139.256C246.272 139.777 246.389 140.242 246.624 140.653C246.858 141.064 247.185 141.386 247.603 141.621C248.021 141.848 248.494 141.962 249.022 141.962C249.836 141.962 250.521 141.658 251.079 141.049L252.003 141.929C251.643 142.347 251.2 142.666 250.672 142.886C250.151 143.106 249.575 143.216 248.945 143.216ZM260.215 135.406V143.106H258.785V139.806H254.803V143.106H253.373V135.406H254.803V138.585H258.785V135.406H260.215ZM262.278 135.406H263.708V143.106H262.278V135.406ZM267.353 136.616H264.801V135.406H271.335V136.616H268.783V143.106H267.353V136.616ZM278.183 141.907V143.106H272.408V135.406H278.029V136.605H273.838V138.607H277.556V139.784H273.838V141.907H278.183ZM283.309 143.216C282.532 143.216 281.828 143.047 281.197 142.71C280.574 142.365 280.082 141.892 279.723 141.291C279.371 140.69 279.195 140.011 279.195 139.256C279.195 138.501 279.375 137.822 279.734 137.221C280.093 136.62 280.585 136.15 281.208 135.813C281.839 135.468 282.543 135.296 283.32 135.296C283.951 135.296 284.526 135.406 285.047 135.626C285.568 135.846 286.008 136.165 286.367 136.583L285.443 137.452C284.886 136.851 284.2 136.55 283.386 136.55C282.858 136.55 282.385 136.667 281.967 136.902C281.549 137.129 281.223 137.448 280.988 137.859C280.753 138.27 280.636 138.735 280.636 139.256C280.636 139.777 280.753 140.242 280.988 140.653C281.223 141.064 281.549 141.386 281.967 141.621C282.385 141.848 282.858 141.962 283.386 141.962C284.2 141.962 284.886 141.658 285.443 141.049L286.367 141.929C286.008 142.347 285.564 142.666 285.036 142.886C284.515 143.106 283.94 143.216 283.309 143.216ZM289.213 136.616H286.661V135.406H293.195V136.616H290.643V143.106H289.213V136.616ZM297.44 143.216C296.376 143.216 295.548 142.919 294.954 142.325C294.36 141.724 294.063 140.866 294.063 139.751V135.406H295.493V139.696C295.493 141.207 296.145 141.962 297.451 141.962C298.749 141.962 299.398 141.207 299.398 139.696V135.406H300.806V139.751C300.806 140.866 300.509 141.724 299.915 142.325C299.328 142.919 298.503 143.216 297.44 143.216ZM307.846 143.106L306.273 140.851C306.207 140.858 306.108 140.862 305.976 140.862H304.238V143.106H302.808V135.406H305.976C306.644 135.406 307.223 135.516 307.714 135.736C308.213 135.956 308.594 136.271 308.858 136.682C309.122 137.093 309.254 137.58 309.254 138.145C309.254 138.724 309.111 139.223 308.825 139.641C308.547 140.059 308.143 140.371 307.615 140.576L309.386 143.106H307.846ZM307.813 138.145C307.813 137.654 307.652 137.276 307.329 137.012C307.007 136.748 306.534 136.616 305.91 136.616H304.238V139.685H305.91C306.534 139.685 307.007 139.553 307.329 139.289C307.652 139.018 307.813 138.636 307.813 138.145ZM316.629 141.907V143.106H310.854V135.406H316.475V136.605H312.284V138.607H316.002V139.784H312.284V141.907H316.629Z" fill="#202020"/>
<path d="M218.898 62.0433V63.2423H213.123V55.5423H218.744V56.7413H214.553V58.7433H218.271V59.9203H214.553V62.0433H218.898ZM224.024 63.3523C223.246 63.3523 222.542 63.1836 221.912 62.8463C221.288 62.5016 220.797 62.0286 220.438 61.4273C220.086 60.826 219.91 60.1476 219.91 59.3923C219.91 58.637 220.089 57.9586 220.449 57.3573C220.808 56.756 221.299 56.2866 221.923 55.9493C222.553 55.6046 223.257 55.4323 224.035 55.4323C224.665 55.4323 225.241 55.5423 225.762 55.7623C226.282 55.9823 226.722 56.3013 227.082 56.7193L226.158 57.5883C225.6 56.987 224.915 56.6863 224.101 56.6863C223.573 56.6863 223.1 56.8036 222.682 57.0383C222.264 57.2656 221.937 57.5846 221.703 57.9953C221.468 58.406 221.351 58.8716 221.351 59.3923C221.351 59.913 221.468 60.3786 221.703 60.7893C221.937 61.2 222.264 61.5226 222.682 61.7573C223.1 61.9846 223.573 62.0983 224.101 62.0983C224.915 62.0983 225.6 61.794 226.158 61.1853L227.082 62.0653C226.722 62.4833 226.279 62.8023 225.751 63.0223C225.23 63.2423 224.654 63.3523 224.024 63.3523ZM231.888 63.3523C231.103 63.3523 230.395 63.1836 229.765 62.8463C229.134 62.5016 228.639 62.0286 228.28 61.4273C227.92 60.8186 227.741 60.1403 227.741 59.3923C227.741 58.6443 227.92 57.9696 228.28 57.3683C228.639 56.7596 229.134 56.2866 229.765 55.9493C230.395 55.6046 231.103 55.4323 231.888 55.4323C232.672 55.4323 233.38 55.6046 234.011 55.9493C234.641 56.2866 235.136 56.756 235.496 57.3573C235.855 57.9586 236.035 58.637 236.035 59.3923C236.035 60.1476 235.855 60.826 235.496 61.4273C235.136 62.0286 234.641 62.5016 234.011 62.8463C233.38 63.1836 232.672 63.3523 231.888 63.3523ZM231.888 62.0983C232.401 62.0983 232.863 61.9846 233.274 61.7573C233.684 61.5226 234.007 61.2 234.242 60.7893C234.476 60.3713 234.594 59.9056 234.594 59.3923C234.594 58.879 234.476 58.417 234.242 58.0063C234.007 57.5883 233.684 57.2656 233.274 57.0383C232.863 56.8036 232.401 56.6863 231.888 56.6863C231.374 56.6863 230.912 56.8036 230.502 57.0383C230.091 57.2656 229.768 57.5883 229.534 58.0063C229.299 58.417 229.182 58.879 229.182 59.3923C229.182 59.9056 229.299 60.3713 229.534 60.7893C229.768 61.2 230.091 61.5226 230.502 61.7573C230.912 61.9846 231.374 62.0983 231.888 62.0983ZM244.392 55.5423V63.2423H243.215L238.969 58.0283V63.2423H237.55V55.5423H238.727L242.973 60.7563V55.5423H244.392ZM250.053 63.3523C249.268 63.3523 248.56 63.1836 247.93 62.8463C247.299 62.5016 246.804 62.0286 246.445 61.4273C246.085 60.8186 245.906 60.1403 245.906 59.3923C245.906 58.6443 246.085 57.9696 246.445 57.3683C246.804 56.7596 247.299 56.2866 247.93 55.9493C248.56 55.6046 249.268 55.4323 250.053 55.4323C250.837 55.4323 251.545 55.6046 252.176 55.9493C252.806 56.2866 253.301 56.756 253.661 57.3573C254.02 57.9586 254.2 58.637 254.2 59.3923C254.2 60.1476 254.02 60.826 253.661 61.4273C253.301 62.0286 252.806 62.5016 252.176 62.8463C251.545 63.1836 250.837 63.3523 250.053 63.3523ZM250.053 62.0983C250.566 62.0983 251.028 61.9846 251.439 61.7573C251.849 61.5226 252.172 61.2 252.407 60.7893C252.641 60.3713 252.759 59.9056 252.759 59.3923C252.759 58.879 252.641 58.417 252.407 58.0063C252.172 57.5883 251.849 57.2656 251.439 57.0383C251.028 56.8036 250.566 56.6863 250.053 56.6863C249.539 56.6863 249.077 56.8036 248.667 57.0383C248.256 57.2656 247.933 57.5883 247.699 58.0063C247.464 58.417 247.347 58.879 247.347 59.3923C247.347 59.9056 247.464 60.3713 247.699 60.7893C247.933 61.2 248.256 61.5226 248.667 61.7573C249.077 61.9846 249.539 62.0983 250.053 62.0983ZM262.788 63.2423L262.777 58.1383L260.247 62.3623H259.609L257.079 58.2043V63.2423H255.715V55.5423H256.892L259.95 60.6463L262.953 55.5423H264.13L264.141 63.2423H262.788ZM266.221 55.5423H267.651V63.2423H266.221V55.5423ZM273.298 63.3523C272.521 63.3523 271.817 63.1836 271.186 62.8463C270.563 62.5016 270.071 62.0286 269.712 61.4273C269.36 60.826 269.184 60.1476 269.184 59.3923C269.184 58.637 269.364 57.9586 269.723 57.3573C270.082 56.756 270.574 56.2866 271.197 55.9493C271.828 55.6046 272.532 55.4323 273.309 55.4323C273.94 55.4323 274.515 55.5423 275.036 55.7623C275.557 55.9823 275.997 56.3013 276.356 56.7193L275.432 57.5883C274.875 56.987 274.189 56.6863 273.375 56.6863C272.847 56.6863 272.374 56.8036 271.956 57.0383C271.538 57.2656 271.212 57.5846 270.977 57.9953C270.742 58.406 270.625 58.8716 270.625 59.3923C270.625 59.913 270.742 60.3786 270.977 60.7893C271.212 61.2 271.538 61.5226 271.956 61.7573C272.374 61.9846 272.847 62.0983 273.375 62.0983C274.189 62.0983 274.875 61.794 275.432 61.1853L276.356 62.0653C275.997 62.4833 275.553 62.8023 275.025 63.0223C274.504 63.2423 273.929 63.3523 273.298 63.3523ZM280.07 63.3523C279.476 63.3523 278.901 63.268 278.343 63.0993C277.793 62.9306 277.357 62.707 277.034 62.4283L277.529 61.3173C277.845 61.5666 278.23 61.772 278.684 61.9333C279.146 62.0873 279.608 62.1643 280.07 62.1643C280.642 62.1643 281.068 62.0726 281.346 61.8893C281.632 61.706 281.775 61.464 281.775 61.1633C281.775 60.9433 281.695 60.7636 281.533 60.6243C281.379 60.4776 281.181 60.364 280.939 60.2833C280.697 60.2026 280.367 60.111 279.949 60.0083C279.363 59.869 278.886 59.7296 278.519 59.5903C278.16 59.451 277.848 59.2346 277.584 58.9413C277.328 58.6406 277.199 58.2373 277.199 57.7313C277.199 57.306 277.313 56.921 277.54 56.5763C277.775 56.2243 278.123 55.9456 278.585 55.7403C279.055 55.535 279.627 55.4323 280.301 55.4323C280.771 55.4323 281.233 55.491 281.687 55.6083C282.142 55.7256 282.534 55.8943 282.864 56.1143L282.413 57.2253C282.076 57.0273 281.724 56.877 281.357 56.7743C280.991 56.6716 280.635 56.6203 280.29 56.6203C279.726 56.6203 279.304 56.7156 279.025 56.9063C278.754 57.097 278.618 57.35 278.618 57.6653C278.618 57.8853 278.695 58.065 278.849 58.2043C279.011 58.3436 279.212 58.4536 279.454 58.5343C279.696 58.615 280.026 58.7066 280.444 58.8093C281.016 58.9413 281.486 59.0806 281.852 59.2273C282.219 59.3666 282.531 59.583 282.787 59.8763C283.051 60.1696 283.183 60.5656 283.183 61.0643C283.183 61.4896 283.066 61.8746 282.831 62.2193C282.604 62.564 282.256 62.839 281.786 63.0443C281.317 63.2496 280.745 63.3523 280.07 63.3523Z" fill="#202020"/>
<path d="M227.827 82.1635C228.494 82.1635 229.073 82.2735 229.565 82.4935C230.063 82.7135 230.445 83.0289 230.709 83.4395C230.973 83.8502 231.105 84.3379 231.105 84.9025C231.105 85.4599 230.973 85.9475 230.709 86.3655C230.445 86.7762 230.063 87.0915 229.565 87.3115C229.073 87.5315 228.494 87.6415 227.827 87.6415H226.089V89.8635H224.659V82.1635H227.827ZM227.761 86.4315C228.384 86.4315 228.857 86.2995 229.18 86.0355C229.502 85.7715 229.664 85.3939 229.664 84.9025C229.664 84.4112 229.502 84.0335 229.18 83.7695C228.857 83.5055 228.384 83.3735 227.761 83.3735H226.089V86.4315H227.761ZM235.844 89.9735C234.78 89.9735 233.952 89.6765 233.358 89.0825C232.764 88.4812 232.467 87.6232 232.467 86.5085V82.1635H233.897V86.4535C233.897 87.9642 234.549 88.7195 235.855 88.7195C237.153 88.7195 237.802 87.9642 237.802 86.4535V82.1635H239.21V86.5085C239.21 87.6232 238.913 88.4812 238.319 89.0825C237.732 89.6765 236.907 89.9735 235.844 89.9735ZM246.668 85.8595C247.094 85.9989 247.431 86.2335 247.68 86.5635C247.93 86.8862 248.054 87.2895 248.054 87.7735C248.054 88.4409 247.798 88.9579 247.284 89.3245C246.771 89.6839 246.023 89.8635 245.04 89.8635H241.212V82.1635H244.82C245.73 82.1635 246.43 82.3432 246.921 82.7025C247.413 83.0545 247.658 83.5422 247.658 84.1655C247.658 84.5469 247.57 84.8842 247.394 85.1775C247.218 85.4709 246.976 85.6982 246.668 85.8595ZM242.642 83.2855V85.4085H244.666C245.165 85.4085 245.546 85.3205 245.81 85.1445C246.082 84.9612 246.217 84.6972 246.217 84.3525C246.217 84.0005 246.082 83.7365 245.81 83.5605C245.546 83.3772 245.165 83.2855 244.666 83.2855H242.642ZM244.952 88.7415C246.06 88.7415 246.613 88.3712 246.613 87.6305C246.613 86.8899 246.06 86.5195 244.952 86.5195H242.642V88.7415H244.952ZM249.58 82.1635H251.01V88.6535H255.036V89.8635H249.58V82.1635ZM256.165 82.1635H257.595V89.8635H256.165V82.1635ZM263.242 89.9735C262.465 89.9735 261.761 89.8049 261.13 89.4675C260.507 89.1229 260.015 88.6499 259.656 88.0485C259.304 87.4472 259.128 86.7689 259.128 86.0135C259.128 85.2582 259.308 84.5799 259.667 83.9785C260.026 83.3772 260.518 82.9079 261.141 82.5705C261.772 82.2259 262.476 82.0535 263.253 82.0535C263.884 82.0535 264.459 82.1635 264.98 82.3835C265.501 82.6035 265.941 82.9225 266.3 83.3405L265.376 84.2095C264.819 83.6082 264.133 83.3075 263.319 83.3075C262.791 83.3075 262.318 83.4249 261.9 83.6595C261.482 83.8869 261.156 84.2059 260.921 84.6165C260.686 85.0272 260.569 85.4929 260.569 86.0135C260.569 86.5342 260.686 86.9999 260.921 87.4105C261.156 87.8212 261.482 88.1439 261.9 88.3785C262.318 88.6059 262.791 88.7195 263.319 88.7195C264.133 88.7195 264.819 88.4152 265.376 87.8065L266.3 88.6865C265.941 89.1045 265.497 89.4235 264.969 89.6435C264.448 89.8635 263.873 89.9735 263.242 89.9735ZM277.552 82.1635V89.8635H276.122V86.5635H272.14V89.8635H270.71V82.1635H272.14V85.3425H276.122V82.1635H277.552ZM285.391 88.6645V89.8635H279.616V82.1635H285.237V83.3625H281.046V85.3645H284.764V86.5415H281.046V88.6645H285.391ZM291.979 88.0815H288.129L287.37 89.8635H285.896L289.361 82.1635H290.769L294.245 89.8635H292.749L291.979 88.0815ZM291.506 86.9595L290.054 83.5935L288.613 86.9595H291.506ZM295.224 82.1635H296.654V88.6535H300.68V89.8635H295.224V82.1635ZM302.651 83.3735H300.099V82.1635H306.633V83.3735H304.081V89.8635H302.651V83.3735ZM314.548 82.1635V89.8635H313.118V86.5635H309.136V89.8635H307.706V82.1635H309.136V85.3425H313.118V82.1635H314.548Z" fill="#202020"/>
<path d="M234.926 108.785C235.593 108.785 236.172 108.895 236.664 109.115C237.162 109.335 237.544 109.65 237.808 110.061C238.072 110.471 238.204 110.959 238.204 111.524C238.204 112.081 238.072 112.569 237.808 112.987C237.544 113.397 237.162 113.713 236.664 113.933C236.172 114.153 235.593 114.263 234.926 114.263H233.188V116.485H231.758V108.785H234.926ZM234.86 113.053C235.483 113.053 235.956 112.921 236.279 112.657C236.601 112.393 236.763 112.015 236.763 111.524C236.763 111.032 236.601 110.655 236.279 110.391C235.956 110.127 235.483 109.995 234.86 109.995H233.188V113.053H234.86ZM243.336 116.595C242.551 116.595 241.844 116.426 241.213 116.089C240.582 115.744 240.087 115.271 239.728 114.67C239.369 114.061 239.189 113.383 239.189 112.635C239.189 111.887 239.369 111.212 239.728 110.611C240.087 110.002 240.582 109.529 241.213 109.192C241.844 108.847 242.551 108.675 243.336 108.675C244.121 108.675 244.828 108.847 245.459 109.192C246.09 109.529 246.585 109.998 246.944 110.6C247.303 111.201 247.483 111.879 247.483 112.635C247.483 113.39 247.303 114.068 246.944 114.67C246.585 115.271 246.09 115.744 245.459 116.089C244.828 116.426 244.121 116.595 243.336 116.595ZM243.336 115.341C243.849 115.341 244.311 115.227 244.722 115C245.133 114.765 245.455 114.442 245.69 114.032C245.925 113.614 246.042 113.148 246.042 112.635C246.042 112.121 245.925 111.659 245.69 111.249C245.455 110.831 245.133 110.508 244.722 110.281C244.311 110.046 243.849 109.929 243.336 109.929C242.823 109.929 242.361 110.046 241.95 110.281C241.539 110.508 241.217 110.831 240.982 111.249C240.747 111.659 240.63 112.121 240.63 112.635C240.63 113.148 240.747 113.614 240.982 114.032C241.217 114.442 241.539 114.765 241.95 115C242.361 115.227 242.823 115.341 243.336 115.341ZM248.999 108.785H250.429V115.275H254.455V116.485H248.999V108.785ZM255.584 108.785H257.014V116.485H255.584V108.785ZM260.659 109.995H258.107V108.785H264.641V109.995H262.089V116.485H260.659V109.995ZM265.714 108.785H267.144V116.485H265.714V108.785ZM272.79 116.595C272.013 116.595 271.309 116.426 270.678 116.089C270.055 115.744 269.564 115.271 269.204 114.67C268.852 114.068 268.676 113.39 268.676 112.635C268.676 111.879 268.856 111.201 269.215 110.6C269.575 109.998 270.066 109.529 270.689 109.192C271.32 108.847 272.024 108.675 272.801 108.675C273.432 108.675 274.008 108.785 274.528 109.005C275.049 109.225 275.489 109.544 275.848 109.962L274.924 110.831C274.367 110.229 273.681 109.929 272.867 109.929C272.339 109.929 271.866 110.046 271.448 110.281C271.03 110.508 270.704 110.827 270.469 111.238C270.235 111.648 270.117 112.114 270.117 112.635C270.117 113.155 270.235 113.621 270.469 114.032C270.704 114.442 271.03 114.765 271.448 115C271.866 115.227 272.339 115.341 272.867 115.341C273.681 115.341 274.367 115.036 274.924 114.428L275.848 115.308C275.489 115.726 275.045 116.045 274.517 116.265C273.997 116.485 273.421 116.595 272.79 116.595ZM282.051 114.703H278.201L277.442 116.485H275.968L279.433 108.785H280.841L284.317 116.485H282.821L282.051 114.703ZM281.578 113.581L280.126 110.215L278.685 113.581H281.578ZM285.297 108.785H286.727V115.275H290.753V116.485H285.297V108.785ZM297.309 116.595C296.715 116.595 296.139 116.51 295.582 116.342C295.032 116.173 294.595 115.949 294.273 115.671L294.768 114.56C295.083 114.809 295.468 115.014 295.923 115.176C296.385 115.33 296.847 115.407 297.309 115.407C297.881 115.407 298.306 115.315 298.585 115.132C298.871 114.948 299.014 114.706 299.014 114.406C299.014 114.186 298.933 114.006 298.772 113.867C298.618 113.72 298.42 113.606 298.178 113.526C297.936 113.445 297.606 113.353 297.188 113.251C296.601 113.111 296.124 112.972 295.758 112.833C295.398 112.693 295.087 112.477 294.823 112.184C294.566 111.883 294.438 111.48 294.438 110.974C294.438 110.548 294.551 110.163 294.779 109.819C295.013 109.467 295.362 109.188 295.824 108.983C296.293 108.777 296.865 108.675 297.54 108.675C298.009 108.675 298.471 108.733 298.926 108.851C299.38 108.968 299.773 109.137 300.103 109.357L299.652 110.468C299.314 110.27 298.962 110.119 298.596 110.017C298.229 109.914 297.873 109.863 297.529 109.863C296.964 109.863 296.542 109.958 296.264 110.149C295.992 110.339 295.857 110.592 295.857 110.908C295.857 111.128 295.934 111.307 296.088 111.447C296.249 111.586 296.451 111.696 296.693 111.777C296.935 111.857 297.265 111.949 297.683 112.052C298.255 112.184 298.724 112.323 299.091 112.47C299.457 112.609 299.769 112.825 300.026 113.119C300.29 113.412 300.422 113.808 300.422 114.307C300.422 114.732 300.304 115.117 300.07 115.462C299.842 115.806 299.494 116.081 299.025 116.287C298.555 116.492 297.983 116.595 297.309 116.595ZM305.404 116.595C304.626 116.595 303.922 116.426 303.292 116.089C302.668 115.744 302.177 115.271 301.818 114.67C301.466 114.068 301.29 113.39 301.29 112.635C301.29 111.879 301.469 111.201 301.829 110.6C302.188 109.998 302.679 109.529 303.303 109.192C303.933 108.847 304.637 108.675 305.415 108.675C306.045 108.675 306.621 108.785 307.142 109.005C307.662 109.225 308.102 109.544 308.462 109.962L307.538 110.831C306.98 110.229 306.295 109.929 305.481 109.929C304.953 109.929 304.48 110.046 304.062 110.281C303.644 110.508 303.317 110.827 303.083 111.238C302.848 111.648 302.731 112.114 302.731 112.635C302.731 113.155 302.848 113.621 303.083 114.032C303.317 114.442 303.644 114.765 304.062 115C304.48 115.227 304.953 115.341 305.481 115.341C306.295 115.341 306.98 115.036 307.538 114.428L308.462 115.308C308.102 115.726 307.659 116.045 307.131 116.265C306.61 116.485 306.034 116.595 305.404 116.595ZM309.832 108.785H311.262V116.485H309.832V108.785ZM319.12 115.286V116.485H313.345V108.785H318.966V109.984H314.775V111.986H318.493V113.163H314.775V115.286H319.12ZM327.556 108.785V116.485H326.379L322.133 111.271V116.485H320.714V108.785H321.891L326.137 113.999V108.785H327.556ZM333.183 116.595C332.406 116.595 331.702 116.426 331.071 116.089C330.448 115.744 329.956 115.271 329.597 114.67C329.245 114.068 329.069 113.39 329.069 112.635C329.069 111.879 329.249 111.201 329.608 110.6C329.967 109.998 330.459 109.529 331.082 109.192C331.713 108.847 332.417 108.675 333.194 108.675C333.825 108.675 334.4 108.785 334.921 109.005C335.442 109.225 335.882 109.544 336.241 109.962L335.317 110.831C334.76 110.229 334.074 109.929 333.26 109.929C332.732 109.929 332.259 110.046 331.841 110.281C331.423 110.508 331.097 110.827 330.862 111.238C330.627 111.648 330.51 112.114 330.51 112.635C330.51 113.155 330.627 113.621 330.862 114.032C331.097 114.442 331.423 114.765 331.841 115C332.259 115.227 332.732 115.341 333.26 115.341C334.074 115.341 334.76 115.036 335.317 114.428L336.241 115.308C335.882 115.726 335.438 116.045 334.91 116.265C334.389 116.485 333.814 116.595 333.183 116.595ZM343.386 115.286V116.485H337.611V108.785H343.232V109.984H339.041V111.986H342.759V113.163H339.041V115.286H343.386Z" fill="#202020"/>
<path d="M196.196 219.031H197.549V222.1C197.153 222.416 196.691 222.658 196.163 222.826C195.635 222.995 195.093 223.079 194.535 223.079C193.751 223.079 193.043 222.911 192.412 222.573C191.782 222.229 191.287 221.756 190.927 221.154C190.568 220.553 190.388 219.875 190.388 219.119C190.388 218.364 190.568 217.686 190.927 217.084C191.287 216.483 191.782 216.014 192.412 215.676C193.05 215.332 193.765 215.159 194.557 215.159C195.203 215.159 195.789 215.266 196.317 215.478C196.845 215.691 197.289 216.003 197.648 216.413L196.746 217.293C196.16 216.707 195.452 216.413 194.623 216.413C194.081 216.413 193.597 216.527 193.171 216.754C192.753 216.982 192.423 217.301 192.181 217.711C191.947 218.122 191.829 218.591 191.829 219.119C191.829 219.633 191.947 220.095 192.181 220.505C192.423 220.916 192.753 221.239 193.171 221.473C193.597 221.708 194.077 221.825 194.612 221.825C195.214 221.825 195.742 221.693 196.196 221.429V219.031ZM199.435 215.269H200.865V221.759H204.891V222.969H199.435V215.269ZM209.478 223.079C208.693 223.079 207.985 222.911 207.355 222.573C206.724 222.229 206.229 221.756 205.87 221.154C205.51 220.546 205.331 219.867 205.331 219.119C205.331 218.371 205.51 217.697 205.87 217.095C206.229 216.487 206.724 216.014 207.355 215.676C207.985 215.332 208.693 215.159 209.478 215.159C210.262 215.159 210.97 215.332 211.601 215.676C212.231 216.014 212.726 216.483 213.086 217.084C213.445 217.686 213.625 218.364 213.625 219.119C213.625 219.875 213.445 220.553 213.086 221.154C212.726 221.756 212.231 222.229 211.601 222.573C210.97 222.911 210.262 223.079 209.478 223.079ZM209.478 221.825C209.991 221.825 210.453 221.712 210.864 221.484C211.274 221.25 211.597 220.927 211.832 220.516C212.066 220.098 212.184 219.633 212.184 219.119C212.184 218.606 212.066 218.144 211.832 217.733C211.597 217.315 211.274 216.993 210.864 216.765C210.453 216.531 209.991 216.413 209.478 216.413C208.964 216.413 208.502 216.531 208.092 216.765C207.681 216.993 207.358 217.315 207.124 217.733C206.889 218.144 206.772 218.606 206.772 219.119C206.772 219.633 206.889 220.098 207.124 220.516C207.358 220.927 207.681 221.25 208.092 221.484C208.502 221.712 208.964 221.825 209.478 221.825ZM220.596 218.965C221.022 219.105 221.359 219.339 221.608 219.669C221.858 219.992 221.982 220.395 221.982 220.879C221.982 221.547 221.726 222.064 221.212 222.43C220.699 222.79 219.951 222.969 218.968 222.969H215.14V215.269H218.748C219.658 215.269 220.358 215.449 220.849 215.808C221.341 216.16 221.586 216.648 221.586 217.271C221.586 217.653 221.498 217.99 221.322 218.283C221.146 218.577 220.904 218.804 220.596 218.965ZM216.57 216.391V218.514H218.594C219.093 218.514 219.474 218.426 219.738 218.25C220.01 218.067 220.145 217.803 220.145 217.458C220.145 217.106 220.01 216.842 219.738 216.666C219.474 216.483 219.093 216.391 218.594 216.391H216.57ZM218.88 221.847C219.988 221.847 220.541 221.477 220.541 220.736C220.541 219.996 219.988 219.625 218.88 219.625H216.57V221.847H218.88ZM228.503 221.187H224.653L223.894 222.969H222.42L225.885 215.269H227.293L230.769 222.969H229.273L228.503 221.187ZM228.03 220.065L226.578 216.699L225.137 220.065H228.03ZM231.748 215.269H233.178V221.759H237.204V222.969H231.748V215.269ZM244.541 215.269C245.208 215.269 245.788 215.379 246.279 215.599C246.778 215.819 247.159 216.135 247.423 216.545C247.687 216.956 247.819 217.444 247.819 218.008C247.819 218.566 247.687 219.053 247.423 219.471C247.159 219.882 246.778 220.197 246.279 220.417C245.788 220.637 245.208 220.747 244.541 220.747H242.803V222.969H241.373V215.269H244.541ZM244.475 219.537C245.098 219.537 245.571 219.405 245.894 219.141C246.217 218.877 246.378 218.5 246.378 218.008C246.378 217.517 246.217 217.139 245.894 216.875C245.571 216.611 245.098 216.479 244.475 216.479H242.803V219.537H244.475ZM252.951 223.079C252.167 223.079 251.459 222.911 250.828 222.573C250.198 222.229 249.703 221.756 249.343 221.154C248.984 220.546 248.804 219.867 248.804 219.119C248.804 218.371 248.984 217.697 249.343 217.095C249.703 216.487 250.198 216.014 250.828 215.676C251.459 215.332 252.167 215.159 252.951 215.159C253.736 215.159 254.444 215.332 255.074 215.676C255.705 216.014 256.2 216.483 256.559 217.084C256.919 217.686 257.098 218.364 257.098 219.119C257.098 219.875 256.919 220.553 256.559 221.154C256.2 221.756 255.705 222.229 255.074 222.573C254.444 222.911 253.736 223.079 252.951 223.079ZM252.951 221.825C253.465 221.825 253.927 221.712 254.337 221.484C254.748 221.25 255.071 220.927 255.305 220.516C255.54 220.098 255.657 219.633 255.657 219.119C255.657 218.606 255.54 218.144 255.305 217.733C255.071 217.315 254.748 216.993 254.337 216.765C253.927 216.531 253.465 216.413 252.951 216.413C252.438 216.413 251.976 216.531 251.565 216.765C251.155 216.993 250.832 217.315 250.597 217.733C250.363 218.144 250.245 218.606 250.245 219.119C250.245 219.633 250.363 220.098 250.597 220.516C250.832 220.927 251.155 221.25 251.565 221.484C251.976 221.712 252.438 221.825 252.951 221.825ZM265.407 215.269L262.052 222.969H260.644L257.278 215.269H258.829L261.392 221.209L263.977 215.269H265.407ZM271.995 221.77V222.969H266.22V215.269H271.841V216.468H267.65V218.47H271.368V219.647H267.65V221.77H271.995ZM278.627 222.969L277.054 220.714C276.988 220.722 276.889 220.725 276.757 220.725H275.019V222.969H273.589V215.269H276.757C277.424 215.269 278.003 215.379 278.495 215.599C278.993 215.819 279.375 216.135 279.639 216.545C279.903 216.956 280.035 217.444 280.035 218.008C280.035 218.588 279.892 219.086 279.606 219.504C279.327 219.922 278.924 220.234 278.396 220.439L280.167 222.969H278.627ZM278.594 218.008C278.594 217.517 278.432 217.139 278.11 216.875C277.787 216.611 277.314 216.479 276.691 216.479H275.019V219.548H276.691C277.314 219.548 277.787 219.416 278.11 219.152C278.432 218.881 278.594 218.5 278.594 218.008ZM283.089 216.479H280.537V215.269H287.071V216.479H284.519V222.969H283.089V216.479ZM291.359 220.252V222.969H289.929V220.274L286.904 215.269H288.433L290.688 219.02L292.965 215.269H294.373L291.359 220.252ZM304.124 223.09L303.156 222.155C302.438 222.771 301.576 223.079 300.571 223.079C300.036 223.079 299.556 222.991 299.13 222.815C298.705 222.639 298.371 222.397 298.129 222.089C297.887 221.774 297.766 221.418 297.766 221.022C297.766 220.546 297.906 220.128 298.184 219.768C298.463 219.402 298.918 219.042 299.548 218.69C299.24 218.382 299.02 218.096 298.888 217.832C298.756 217.561 298.69 217.282 298.69 216.996C298.69 216.454 298.892 216.017 299.295 215.687C299.706 215.35 300.249 215.181 300.923 215.181C301.547 215.181 302.045 215.335 302.419 215.643C302.793 215.944 302.98 216.355 302.98 216.875C302.98 217.271 302.856 217.623 302.606 217.931C302.364 218.239 301.965 218.551 301.407 218.866L303.068 220.45C303.252 220.091 303.395 219.658 303.497 219.152L304.608 219.515C304.462 220.197 304.231 220.784 303.915 221.275L304.883 222.199L304.124 223.09ZM300.923 216.16C300.623 216.16 300.384 216.237 300.208 216.391C300.032 216.538 299.944 216.732 299.944 216.974C299.944 217.15 299.992 217.319 300.087 217.48C300.183 217.634 300.366 217.847 300.637 218.118C301.077 217.876 301.382 217.667 301.55 217.491C301.726 217.308 301.814 217.11 301.814 216.897C301.814 216.67 301.734 216.49 301.572 216.358C301.418 216.226 301.202 216.16 300.923 216.16ZM300.67 221.957C301.308 221.957 301.866 221.763 302.342 221.374L300.307 219.427C299.867 219.669 299.556 219.904 299.372 220.131C299.196 220.351 299.108 220.601 299.108 220.879C299.108 221.202 299.251 221.462 299.537 221.66C299.823 221.858 300.201 221.957 300.67 221.957ZM312.324 215.269C312.991 215.269 313.571 215.379 314.062 215.599C314.561 215.819 314.942 216.135 315.206 216.545C315.47 216.956 315.602 217.444 315.602 218.008C315.602 218.566 315.47 219.053 315.206 219.471C314.942 219.882 314.561 220.197 314.062 220.417C313.571 220.637 312.991 220.747 312.324 220.747H310.586V222.969H309.156V215.269H312.324ZM312.258 219.537C312.881 219.537 313.354 219.405 313.677 219.141C314 218.877 314.161 218.5 314.161 218.008C314.161 217.517 314 217.139 313.677 216.875C313.354 216.611 312.881 216.479 312.258 216.479H310.586V219.537H312.258ZM322.068 222.969L320.495 220.714C320.429 220.722 320.33 220.725 320.198 220.725H318.46V222.969H317.03V215.269H320.198C320.865 215.269 321.445 215.379 321.936 215.599C322.435 215.819 322.816 216.135 323.08 216.545C323.344 216.956 323.476 217.444 323.476 218.008C323.476 218.588 323.333 219.086 323.047 219.504C322.768 219.922 322.365 220.234 321.837 220.439L323.608 222.969H322.068ZM322.035 218.008C322.035 217.517 321.874 217.139 321.551 216.875C321.228 216.611 320.755 216.479 320.132 216.479H318.46V219.548H320.132C320.755 219.548 321.228 219.416 321.551 219.152C321.874 218.881 322.035 218.5 322.035 218.008ZM330.07 221.187H326.22L325.461 222.969H323.987L327.452 215.269H328.86L332.336 222.969H330.84L330.07 221.187ZM329.597 220.065L328.145 216.699L326.704 220.065H329.597ZM336.772 223.079C335.994 223.079 335.29 222.911 334.66 222.573C334.036 222.229 333.545 221.756 333.186 221.154C332.834 220.553 332.658 219.875 332.658 219.119C332.658 218.364 332.837 217.686 333.197 217.084C333.556 216.483 334.047 216.014 334.671 215.676C335.301 215.332 336.005 215.159 336.783 215.159C337.413 215.159 337.989 215.269 338.51 215.489C339.03 215.709 339.47 216.028 339.83 216.446L338.906 217.315C338.348 216.714 337.663 216.413 336.849 216.413C336.321 216.413 335.848 216.531 335.43 216.765C335.012 216.993 334.685 217.312 334.451 217.722C334.216 218.133 334.099 218.599 334.099 219.119C334.099 219.64 334.216 220.106 334.451 220.516C334.685 220.927 335.012 221.25 335.43 221.484C335.848 221.712 336.321 221.825 336.849 221.825C337.663 221.825 338.348 221.521 338.906 220.912L339.83 221.792C339.47 222.21 339.027 222.529 338.499 222.749C337.978 222.969 337.402 223.079 336.772 223.079ZM342.676 216.479H340.124V215.269H346.658V216.479H344.106V222.969H342.676V216.479ZM347.731 215.269H349.161V222.969H347.731V215.269ZM354.808 223.079C354.031 223.079 353.327 222.911 352.696 222.573C352.073 222.229 351.581 221.756 351.222 221.154C350.87 220.553 350.694 219.875 350.694 219.119C350.694 218.364 350.874 217.686 351.233 217.084C351.592 216.483 352.084 216.014 352.707 215.676C353.338 215.332 354.042 215.159 354.819 215.159C355.45 215.159 356.025 215.269 356.546 215.489C357.067 215.709 357.507 216.028 357.866 216.446L356.942 217.315C356.385 216.714 355.699 216.413 354.885 216.413C354.357 216.413 353.884 216.531 353.466 216.765C353.048 216.993 352.722 217.312 352.487 217.722C352.252 218.133 352.135 218.599 352.135 219.119C352.135 219.64 352.252 220.106 352.487 220.516C352.722 220.927 353.048 221.25 353.466 221.484C353.884 221.712 354.357 221.825 354.885 221.825C355.699 221.825 356.385 221.521 356.942 220.912L357.866 221.792C357.507 222.21 357.063 222.529 356.535 222.749C356.014 222.969 355.439 223.079 354.808 223.079ZM365.011 221.77V222.969H359.236V215.269H364.857V216.468H360.666V218.47H364.384V219.647H360.666V221.77H365.011Z" fill="#202020"/>
<path d="M201.312 36.7312C200.718 36.7312 200.142 36.6469 199.585 36.4782C199.035 36.3095 198.599 36.0859 198.276 35.8072L198.771 34.6962C199.086 34.9455 199.471 35.1509 199.926 35.3122C200.388 35.4662 200.85 35.5432 201.312 35.5432C201.884 35.5432 202.309 35.4515 202.588 35.2682C202.874 35.0849 203.017 34.8429 203.017 34.5422C203.017 34.3222 202.936 34.1425 202.775 34.0032C202.621 33.8565 202.423 33.7429 202.181 33.6622C201.939 33.5815 201.609 33.4899 201.191 33.3872C200.604 33.2479 200.128 33.1085 199.761 32.9692C199.402 32.8299 199.09 32.6135 198.826 32.3202C198.569 32.0195 198.441 31.6162 198.441 31.1102C198.441 30.6849 198.555 30.2999 198.782 29.9552C199.017 29.6032 199.365 29.3245 199.827 29.1192C200.296 28.9139 200.868 28.8112 201.543 28.8112C202.012 28.8112 202.474 28.8699 202.929 28.9872C203.384 29.1045 203.776 29.2732 204.106 29.4932L203.655 30.6042C203.318 30.4062 202.966 30.2559 202.599 30.1532C202.232 30.0505 201.877 29.9992 201.532 29.9992C200.967 29.9992 200.546 30.0945 200.267 30.2852C199.996 30.4759 199.86 30.7289 199.86 31.0442C199.86 31.2642 199.937 31.4439 200.091 31.5832C200.252 31.7225 200.454 31.8325 200.696 31.9132C200.938 31.9939 201.268 32.0855 201.686 32.1882C202.258 32.3202 202.727 32.4595 203.094 32.6062C203.461 32.7455 203.772 32.9619 204.029 33.2552C204.293 33.5485 204.425 33.9445 204.425 34.4432C204.425 34.8685 204.308 35.2535 204.073 35.5982C203.846 35.9429 203.497 36.2179 203.028 36.4232C202.559 36.6285 201.987 36.7312 201.312 36.7312ZM209.154 36.7312C208.091 36.7312 207.262 36.4342 206.668 35.8402C206.074 35.2389 205.777 34.3809 205.777 33.2662V28.9212H207.207V33.2112C207.207 34.7219 207.86 35.4772 209.165 35.4772C210.463 35.4772 211.112 34.7219 211.112 33.2112V28.9212H212.52V33.2662C212.52 34.3809 212.223 35.2389 211.629 35.8402C211.042 36.4342 210.217 36.7312 209.154 36.7312ZM216.91 36.7312C216.316 36.7312 215.74 36.6469 215.183 36.4782C214.633 36.3095 214.196 36.0859 213.874 35.8072L214.369 34.6962C214.684 34.9455 215.069 35.1509 215.524 35.3122C215.986 35.4662 216.448 35.5432 216.91 35.5432C217.482 35.5432 217.907 35.4515 218.186 35.2682C218.472 35.0849 218.615 34.8429 218.615 34.5422C218.615 34.3222 218.534 34.1425 218.373 34.0032C218.219 33.8565 218.021 33.7429 217.779 33.6622C217.537 33.5815 217.207 33.4899 216.789 33.3872C216.202 33.2479 215.725 33.1085 215.359 32.9692C214.999 32.8299 214.688 32.6135 214.424 32.3202C214.167 32.0195 214.039 31.6162 214.039 31.1102C214.039 30.6849 214.152 30.2999 214.38 29.9552C214.614 29.6032 214.963 29.3245 215.425 29.1192C215.894 28.9139 216.466 28.8112 217.141 28.8112C217.61 28.8112 218.072 28.8699 218.527 28.9872C218.981 29.1045 219.374 29.2732 219.704 29.4932L219.253 30.6042C218.915 30.4062 218.563 30.2559 218.197 30.1532C217.83 30.0505 217.474 29.9992 217.13 29.9992C216.565 29.9992 216.143 30.0945 215.865 30.2852C215.593 30.4759 215.458 30.7289 215.458 31.0442C215.458 31.2642 215.535 31.4439 215.689 31.5832C215.85 31.7225 216.052 31.8325 216.294 31.9132C216.536 31.9939 216.866 32.0855 217.284 32.1882C217.856 32.3202 218.325 32.4595 218.692 32.6062C219.058 32.7455 219.37 32.9619 219.627 33.2552C219.891 33.5485 220.023 33.9445 220.023 34.4432C220.023 34.8685 219.905 35.2535 219.671 35.5982C219.443 35.9429 219.095 36.2179 218.626 36.4232C218.156 36.6285 217.584 36.7312 216.91 36.7312ZM222.895 30.1312H220.343V28.9212H226.877V30.1312H224.325V36.6212H222.895V30.1312ZM232.558 34.8392H228.708L227.949 36.6212H226.475L229.94 28.9212H231.348L234.824 36.6212H233.328L232.558 34.8392ZM232.085 33.7172L230.633 30.3512L229.192 33.7172H232.085ZM235.803 28.9212H237.233V36.6212H235.803V28.9212ZM246.157 28.9212V36.6212H244.98L240.734 31.4072V36.6212H239.315V28.9212H240.492L244.738 34.1352V28.9212H246.157ZM253.215 34.8392H249.365L248.606 36.6212H247.132L250.597 28.9212H252.005L255.481 36.6212H253.985L253.215 34.8392ZM252.742 33.7172L251.29 30.3512L249.849 33.7172H252.742ZM261.916 32.6172C262.341 32.7565 262.679 32.9912 262.928 33.3212C263.177 33.6439 263.302 34.0472 263.302 34.5312C263.302 35.1985 263.045 35.7155 262.532 36.0822C262.019 36.4415 261.271 36.6212 260.288 36.6212H256.46V28.9212H260.068C260.977 28.9212 261.678 29.1009 262.169 29.4602C262.66 29.8122 262.906 30.2999 262.906 30.9232C262.906 31.3045 262.818 31.6419 262.642 31.9352C262.466 32.2285 262.224 32.4559 261.916 32.6172ZM257.89 30.0432V32.1662H259.914C260.413 32.1662 260.794 32.0782 261.058 31.9022C261.329 31.7189 261.465 31.4549 261.465 31.1102C261.465 30.7582 261.329 30.4942 261.058 30.3182C260.794 30.1349 260.413 30.0432 259.914 30.0432H257.89ZM260.2 35.4992C261.307 35.4992 261.861 35.1289 261.861 34.3882C261.861 33.6475 261.307 33.2772 260.2 33.2772H257.89V35.4992H260.2ZM264.828 28.9212H266.258V35.4112H270.284V36.6212H264.828V28.9212ZM277.188 35.4222V36.6212H271.413V28.9212H277.034V30.1202H272.843V32.1222H276.561V33.2992H272.843V35.4222H277.188ZM287.597 35.4222V36.6212H281.822V28.9212H287.443V30.1202H283.252V32.1222H286.97V33.2992H283.252V35.4222H287.597ZM296.033 28.9212V36.6212H294.856L290.61 31.4072V36.6212H289.191V28.9212H290.368L294.614 34.1352V28.9212H296.033ZM305.083 28.9212L301.728 36.6212H300.32L296.954 28.9212H298.505L301.068 34.8612L303.653 28.9212H305.083ZM305.896 28.9212H307.326V36.6212H305.896V28.9212ZM314.446 36.6212L312.873 34.3662C312.807 34.3735 312.708 34.3772 312.576 34.3772H310.838V36.6212H309.408V28.9212H312.576C313.244 28.9212 313.823 29.0312 314.314 29.2512C314.813 29.4712 315.194 29.7865 315.458 30.1972C315.722 30.6079 315.854 31.0955 315.854 31.6602C315.854 32.2395 315.711 32.7382 315.425 33.1562C315.147 33.5742 314.743 33.8859 314.215 34.0912L315.986 36.6212H314.446ZM314.413 31.6602C314.413 31.1689 314.252 30.7912 313.929 30.5272C313.607 30.2632 313.134 30.1312 312.51 30.1312H310.838V33.2002H312.51C313.134 33.2002 313.607 33.0682 313.929 32.8042C314.252 32.5329 314.413 32.1515 314.413 31.6602ZM321.051 36.7312C320.266 36.7312 319.559 36.5625 318.928 36.2252C318.297 35.8805 317.802 35.4075 317.443 34.8062C317.084 34.1975 316.904 33.5192 316.904 32.7712C316.904 32.0232 317.084 31.3485 317.443 30.7472C317.802 30.1385 318.297 29.6655 318.928 29.3282C319.559 28.9835 320.266 28.8112 321.051 28.8112C321.836 28.8112 322.543 28.9835 323.174 29.3282C323.805 29.6655 324.3 30.1349 324.659 30.7362C325.018 31.3375 325.198 32.0159 325.198 32.7712C325.198 33.5265 325.018 34.2049 324.659 34.8062C324.3 35.4075 323.805 35.8805 323.174 36.2252C322.543 36.5625 321.836 36.7312 321.051 36.7312ZM321.051 35.4772C321.564 35.4772 322.026 35.3635 322.437 35.1362C322.848 34.9015 323.17 34.5789 323.405 34.1682C323.64 33.7502 323.757 33.2845 323.757 32.7712C323.757 32.2579 323.64 31.7959 323.405 31.3852C323.17 30.9672 322.848 30.6445 322.437 30.4172C322.026 30.1825 321.564 30.0652 321.051 30.0652C320.538 30.0652 320.076 30.1825 319.665 30.4172C319.254 30.6445 318.932 30.9672 318.697 31.3852C318.462 31.7959 318.345 32.2579 318.345 32.7712C318.345 33.2845 318.462 33.7502 318.697 34.1682C318.932 34.5789 319.254 34.9015 319.665 35.1362C320.076 35.3635 320.538 35.4772 321.051 35.4772ZM333.556 28.9212V36.6212H332.379L328.133 31.4072V36.6212H326.714V28.9212H327.891L332.137 34.1352V28.9212H333.556ZM335.927 36.6982C335.678 36.6982 335.465 36.6139 335.289 36.4452C335.113 36.2692 335.025 36.0492 335.025 35.7852C335.025 35.5139 335.11 35.2939 335.278 35.1252C335.454 34.9565 335.671 34.8722 335.927 34.8722C336.184 34.8722 336.397 34.9565 336.565 35.1252C336.741 35.2939 336.829 35.5139 336.829 35.7852C336.829 36.0492 336.741 36.2692 336.565 36.4452C336.389 36.6139 336.177 36.6982 335.927 36.6982ZM341.345 28.9212H344.711C345.532 28.9212 346.262 29.0825 346.9 29.4052C347.538 29.7205 348.033 30.1715 348.385 30.7582C348.737 31.3375 348.913 32.0085 348.913 32.7712C348.913 33.5339 348.737 34.2085 348.385 34.7952C348.033 35.3745 347.538 35.8255 346.9 36.1482C346.262 36.4635 345.532 36.6212 344.711 36.6212H341.345V28.9212ZM344.645 35.4112C345.209 35.4112 345.704 35.3049 346.13 35.0922C346.562 34.8722 346.892 34.5642 347.12 34.1682C347.354 33.7649 347.472 33.2992 347.472 32.7712C347.472 32.2432 347.354 31.7812 347.12 31.3852C346.892 30.9819 346.562 30.6739 346.13 30.4612C345.704 30.2412 345.209 30.1312 344.645 30.1312H342.775V35.4112H344.645ZM356.208 35.4222V36.6212H350.433V28.9212H356.054V30.1202H351.863V32.1222H355.581V33.2992H351.863V35.4222H356.208ZM360.189 36.7312C359.595 36.7312 359.019 36.6469 358.462 36.4782C357.912 36.3095 357.475 36.0859 357.153 35.8072L357.648 34.6962C357.963 34.9455 358.348 35.1509 358.803 35.3122C359.265 35.4662 359.727 35.5432 360.189 35.5432C360.761 35.5432 361.186 35.4515 361.465 35.2682C361.751 35.0849 361.894 34.8429 361.894 34.5422C361.894 34.3222 361.813 34.1425 361.652 34.0032C361.498 33.8565 361.3 33.7429 361.058 33.6622C360.816 33.5815 360.486 33.4899 360.068 33.3872C359.481 33.2479 359.004 33.1085 358.638 32.9692C358.278 32.8299 357.967 32.6135 357.703 32.3202C357.446 32.0195 357.318 31.6162 357.318 31.1102C357.318 30.6849 357.431 30.2999 357.659 29.9552C357.893 29.6032 358.242 29.3245 358.704 29.1192C359.173 28.9139 359.745 28.8112 360.42 28.8112C360.889 28.8112 361.351 28.8699 361.806 28.9872C362.26 29.1045 362.653 29.2732 362.983 29.4932L362.532 30.6042C362.194 30.4062 361.842 30.2559 361.476 30.1532C361.109 30.0505 360.753 29.9992 360.409 29.9992C359.844 29.9992 359.422 30.0945 359.144 30.2852C358.872 30.4759 358.737 30.7289 358.737 31.0442C358.737 31.2642 358.814 31.4439 358.968 31.5832C359.129 31.7225 359.331 31.8325 359.573 31.9132C359.815 31.9939 360.145 32.0855 360.563 32.1882C361.135 32.3202 361.604 32.4595 361.971 32.6062C362.337 32.7455 362.649 32.9619 362.906 33.2552C363.17 33.5485 363.302 33.9445 363.302 34.4432C363.302 34.8685 363.184 35.2535 362.95 35.5982C362.722 35.9429 362.374 36.2179 361.905 36.4232C361.435 36.6285 360.863 36.7312 360.189 36.7312ZM364.72 28.9212H366.15V36.6212H364.72V28.9212ZM373.49 32.6832H374.843V35.7522C374.447 36.0675 373.985 36.3095 373.457 36.4782C372.929 36.6469 372.387 36.7312 371.829 36.7312C371.045 36.7312 370.337 36.5625 369.706 36.2252C369.076 35.8805 368.581 35.4075 368.221 34.8062C367.862 34.2049 367.682 33.5265 367.682 32.7712C367.682 32.0159 367.862 31.3375 368.221 30.7362C368.581 30.1349 369.076 29.6655 369.706 29.3282C370.344 28.9835 371.059 28.8112 371.851 28.8112C372.497 28.8112 373.083 28.9175 373.611 29.1302C374.139 29.3429 374.583 29.6545 374.942 30.0652L374.04 30.9452C373.454 30.3585 372.746 30.0652 371.917 30.0652C371.375 30.0652 370.891 30.1789 370.465 30.4062C370.047 30.6335 369.717 30.9525 369.475 31.3632C369.241 31.7739 369.123 32.2432 369.123 32.7712C369.123 33.2845 369.241 33.7465 369.475 34.1572C369.717 34.5679 370.047 34.8905 370.465 35.1252C370.891 35.3599 371.371 35.4772 371.906 35.4772C372.508 35.4772 373.036 35.3452 373.49 35.0812V32.6832ZM383.572 28.9212V36.6212H382.395L378.149 31.4072V36.6212H376.73V28.9212H377.907L382.153 34.1352V28.9212H383.572Z" fill="#202020"/>
<path d="M225.56 169.837C224.783 169.837 224.079 169.668 223.448 169.331C222.825 168.986 222.334 168.513 221.974 167.912C221.622 167.311 221.446 166.632 221.446 165.877C221.446 165.122 221.626 164.443 221.985 163.842C222.345 163.241 222.836 162.771 223.459 162.434C224.09 162.089 224.794 161.917 225.571 161.917C226.202 161.917 226.778 162.027 227.298 162.247C227.819 162.467 228.259 162.786 228.618 163.204L227.694 164.073C227.137 163.472 226.451 163.171 225.637 163.171C225.109 163.171 224.636 163.288 224.218 163.523C223.8 163.75 223.474 164.069 223.239 164.48C223.005 164.891 222.887 165.356 222.887 165.877C222.887 166.398 223.005 166.863 223.239 167.274C223.474 167.685 223.8 168.007 224.218 168.242C224.636 168.469 225.109 168.583 225.637 168.583C226.451 168.583 227.137 168.279 227.694 167.67L228.618 168.55C228.259 168.968 227.815 169.287 227.287 169.507C226.767 169.727 226.191 169.837 225.56 169.837ZM233.424 169.837C232.64 169.837 231.932 169.668 231.301 169.331C230.671 168.986 230.176 168.513 229.816 167.912C229.457 167.303 229.277 166.625 229.277 165.877C229.277 165.129 229.457 164.454 229.816 163.853C230.176 163.244 230.671 162.771 231.301 162.434C231.932 162.089 232.64 161.917 233.424 161.917C234.209 161.917 234.917 162.089 235.547 162.434C236.178 162.771 236.673 163.241 237.032 163.842C237.392 164.443 237.571 165.122 237.571 165.877C237.571 166.632 237.392 167.311 237.032 167.912C236.673 168.513 236.178 168.986 235.547 169.331C234.917 169.668 234.209 169.837 233.424 169.837ZM233.424 168.583C233.938 168.583 234.4 168.469 234.81 168.242C235.221 168.007 235.544 167.685 235.778 167.274C236.013 166.856 236.13 166.39 236.13 165.877C236.13 165.364 236.013 164.902 235.778 164.491C235.544 164.073 235.221 163.75 234.81 163.523C234.4 163.288 233.938 163.171 233.424 163.171C232.911 163.171 232.449 163.288 232.038 163.523C231.628 163.75 231.305 164.073 231.07 164.491C230.836 164.902 230.718 165.364 230.718 165.877C230.718 166.39 230.836 166.856 231.07 167.274C231.305 167.685 231.628 168.007 232.038 168.242C232.449 168.469 232.911 168.583 233.424 168.583ZM244.345 165.789H245.698V168.858C245.302 169.173 244.84 169.415 244.312 169.584C243.784 169.753 243.242 169.837 242.684 169.837C241.9 169.837 241.192 169.668 240.561 169.331C239.931 168.986 239.436 168.513 239.076 167.912C238.717 167.311 238.537 166.632 238.537 165.877C238.537 165.122 238.717 164.443 239.076 163.842C239.436 163.241 239.931 162.771 240.561 162.434C241.199 162.089 241.914 161.917 242.706 161.917C243.352 161.917 243.938 162.023 244.466 162.236C244.994 162.449 245.438 162.76 245.797 163.171L244.895 164.051C244.309 163.464 243.601 163.171 242.772 163.171C242.23 163.171 241.746 163.285 241.32 163.512C240.902 163.739 240.572 164.058 240.33 164.469C240.096 164.88 239.978 165.349 239.978 165.877C239.978 166.39 240.096 166.852 240.33 167.263C240.572 167.674 240.902 167.996 241.32 168.231C241.746 168.466 242.226 168.583 242.761 168.583C243.363 168.583 243.891 168.451 244.345 168.187V165.789ZM254.426 162.027V169.727H253.249L249.003 164.513V169.727H247.584V162.027H248.761L253.007 167.241V162.027H254.426ZM256.49 162.027H257.92V169.727H256.49V162.027ZM261.564 163.237H259.012V162.027H265.546V163.237H262.994V169.727H261.564V163.237ZM266.619 162.027H268.049V169.727H266.619V162.027ZM277.118 162.027L273.763 169.727H272.355L268.989 162.027H270.54L273.103 167.967L275.688 162.027H277.118ZM283.706 168.528V169.727H277.931V162.027H283.552V163.226H279.361V165.228H283.079V166.405H279.361V168.528H283.706ZM290.727 169.837C290.133 169.837 289.557 169.753 289 169.584C288.45 169.415 288.014 169.192 287.691 168.913L288.186 167.802C288.501 168.051 288.886 168.257 289.341 168.418C289.803 168.572 290.265 168.649 290.727 168.649C291.299 168.649 291.724 168.557 292.003 168.374C292.289 168.191 292.432 167.949 292.432 167.648C292.432 167.428 292.351 167.248 292.19 167.109C292.036 166.962 291.838 166.849 291.596 166.768C291.354 166.687 291.024 166.596 290.606 166.493C290.019 166.354 289.543 166.214 289.176 166.075C288.817 165.936 288.505 165.719 288.241 165.426C287.984 165.125 287.856 164.722 287.856 164.216C287.856 163.791 287.97 163.406 288.197 163.061C288.432 162.709 288.78 162.43 289.242 162.225C289.711 162.02 290.283 161.917 290.958 161.917C291.427 161.917 291.889 161.976 292.344 162.093C292.799 162.21 293.191 162.379 293.521 162.599L293.07 163.71C292.733 163.512 292.381 163.362 292.014 163.259C291.647 163.156 291.292 163.105 290.947 163.105C290.382 163.105 289.961 163.2 289.682 163.391C289.411 163.582 289.275 163.835 289.275 164.15C289.275 164.37 289.352 164.55 289.506 164.689C289.667 164.828 289.869 164.938 290.111 165.019C290.353 165.1 290.683 165.191 291.101 165.294C291.673 165.426 292.142 165.565 292.509 165.712C292.876 165.851 293.187 166.068 293.444 166.361C293.708 166.654 293.84 167.05 293.84 167.549C293.84 167.974 293.723 168.359 293.488 168.704C293.261 169.049 292.912 169.324 292.443 169.529C291.974 169.734 291.402 169.837 290.727 169.837ZM298.822 169.837C298.045 169.837 297.341 169.668 296.71 169.331C296.087 168.986 295.595 168.513 295.236 167.912C294.884 167.311 294.708 166.632 294.708 165.877C294.708 165.122 294.888 164.443 295.247 163.842C295.606 163.241 296.098 162.771 296.721 162.434C297.352 162.089 298.056 161.917 298.833 161.917C299.464 161.917 300.039 162.027 300.56 162.247C301.081 162.467 301.521 162.786 301.88 163.204L300.956 164.073C300.399 163.472 299.713 163.171 298.899 163.171C298.371 163.171 297.898 163.288 297.48 163.523C297.062 163.75 296.736 164.069 296.501 164.48C296.266 164.891 296.149 165.356 296.149 165.877C296.149 166.398 296.266 166.863 296.501 167.274C296.736 167.685 297.062 168.007 297.48 168.242C297.898 168.469 298.371 168.583 298.899 168.583C299.713 168.583 300.399 168.279 300.956 167.67L301.88 168.55C301.521 168.968 301.077 169.287 300.549 169.507C300.028 169.727 299.453 169.837 298.822 169.837ZM303.25 162.027H304.68V169.727H303.25V162.027ZM312.538 168.528V169.727H306.763V162.027H312.384V163.226H308.193V165.228H311.911V166.405H308.193V168.528H312.538ZM320.974 162.027V169.727H319.797L315.551 164.513V169.727H314.132V162.027H315.309L319.555 167.241V162.027H320.974ZM326.601 169.837C325.824 169.837 325.12 169.668 324.489 169.331C323.866 168.986 323.375 168.513 323.015 167.912C322.663 167.311 322.487 166.632 322.487 165.877C322.487 165.122 322.667 164.443 323.026 163.842C323.386 163.241 323.877 162.771 324.5 162.434C325.131 162.089 325.835 161.917 326.612 161.917C327.243 161.917 327.819 162.027 328.339 162.247C328.86 162.467 329.3 162.786 329.659 163.204L328.735 164.073C328.178 163.472 327.492 163.171 326.678 163.171C326.15 163.171 325.677 163.288 325.259 163.523C324.841 163.75 324.515 164.069 324.28 164.48C324.046 164.891 323.928 165.356 323.928 165.877C323.928 166.398 324.046 166.863 324.28 167.274C324.515 167.685 324.841 168.007 325.259 168.242C325.677 168.469 326.15 168.583 326.678 168.583C327.492 168.583 328.178 168.279 328.735 167.67L329.659 168.55C329.3 168.968 328.856 169.287 328.328 169.507C327.808 169.727 327.232 169.837 326.601 169.837ZM336.805 168.528V169.727H331.03V162.027H336.651V163.226H332.46V165.228H336.178V166.405H332.46V168.528H336.805Z" fill="#202020"/>
<path d="M207.798 188.648H209.228V196.348H207.798V188.648ZM218.153 188.648V196.348H216.976L212.73 191.134V196.348H211.311V188.648H212.488L216.734 193.862V188.648H218.153ZM221.778 189.858H219.226V188.648H225.76V189.858H223.208V196.348H221.778V189.858ZM232.609 195.149V196.348H226.834V188.648H232.455V189.847H228.264V191.849H231.982V193.026H228.264V195.149H232.609ZM239.241 196.348L237.668 194.093C237.602 194.1 237.503 194.104 237.371 194.104H235.633V196.348H234.203V188.648H237.371C238.038 188.648 238.617 188.758 239.109 188.978C239.607 189.198 239.989 189.513 240.253 189.924C240.517 190.335 240.649 190.822 240.649 191.387C240.649 191.966 240.506 192.465 240.22 192.883C239.941 193.301 239.538 193.613 239.01 193.818L240.781 196.348H239.241ZM239.208 191.387C239.208 190.896 239.046 190.518 238.724 190.254C238.401 189.99 237.928 189.858 237.305 189.858H235.633V192.927H237.305C237.928 192.927 238.401 192.795 238.724 192.531C239.046 192.26 239.208 191.878 239.208 191.387ZM242.249 188.648H245.615C246.436 188.648 247.166 188.809 247.804 189.132C248.442 189.447 248.937 189.898 249.289 190.485C249.641 191.064 249.817 191.735 249.817 192.498C249.817 193.261 249.641 193.935 249.289 194.522C248.937 195.101 248.442 195.552 247.804 195.875C247.166 196.19 246.436 196.348 245.615 196.348H242.249V188.648ZM245.549 195.138C246.113 195.138 246.608 195.032 247.034 194.819C247.466 194.599 247.796 194.291 248.024 193.895C248.258 193.492 248.376 193.026 248.376 192.498C248.376 191.97 248.258 191.508 248.024 191.112C247.796 190.709 247.466 190.401 247.034 190.188C246.608 189.968 246.113 189.858 245.549 189.858H243.679V195.138H245.549ZM251.336 188.648H252.766V196.348H251.336V188.648ZM257.236 196.458C256.642 196.458 256.067 196.374 255.509 196.205C254.959 196.036 254.523 195.813 254.2 195.534L254.695 194.423C255.011 194.672 255.396 194.878 255.85 195.039C256.312 195.193 256.774 195.27 257.236 195.27C257.808 195.27 258.234 195.178 258.512 194.995C258.798 194.812 258.941 194.57 258.941 194.269C258.941 194.049 258.861 193.869 258.699 193.73C258.545 193.583 258.347 193.47 258.105 193.389C257.863 193.308 257.533 193.217 257.115 193.114C256.529 192.975 256.052 192.835 255.685 192.696C255.326 192.557 255.014 192.34 254.75 192.047C254.494 191.746 254.365 191.343 254.365 190.837C254.365 190.412 254.479 190.027 254.706 189.682C254.941 189.33 255.289 189.051 255.751 188.846C256.221 188.641 256.793 188.538 257.467 188.538C257.937 188.538 258.399 188.597 258.853 188.714C259.308 188.831 259.7 189 260.03 189.22L259.579 190.331C259.242 190.133 258.89 189.983 258.523 189.88C258.157 189.777 257.801 189.726 257.456 189.726C256.892 189.726 256.47 189.821 256.191 190.012C255.92 190.203 255.784 190.456 255.784 190.771C255.784 190.991 255.861 191.171 256.015 191.31C256.177 191.449 256.378 191.559 256.62 191.64C256.862 191.721 257.192 191.812 257.61 191.915C258.182 192.047 258.652 192.186 259.018 192.333C259.385 192.472 259.697 192.689 259.953 192.982C260.217 193.275 260.349 193.671 260.349 194.17C260.349 194.595 260.232 194.98 259.997 195.325C259.77 195.67 259.422 195.945 258.952 196.15C258.483 196.355 257.911 196.458 257.236 196.458ZM265.331 196.458C264.554 196.458 263.85 196.289 263.219 195.952C262.596 195.607 262.104 195.134 261.745 194.533C261.393 193.932 261.217 193.253 261.217 192.498C261.217 191.743 261.397 191.064 261.756 190.463C262.115 189.862 262.607 189.392 263.23 189.055C263.861 188.71 264.565 188.538 265.342 188.538C265.973 188.538 266.548 188.648 267.069 188.868C267.59 189.088 268.03 189.407 268.389 189.825L267.465 190.694C266.908 190.093 266.222 189.792 265.408 189.792C264.88 189.792 264.407 189.909 263.989 190.144C263.571 190.371 263.245 190.69 263.01 191.101C262.775 191.512 262.658 191.977 262.658 192.498C262.658 193.019 262.775 193.484 263.01 193.895C263.245 194.306 263.571 194.628 263.989 194.863C264.407 195.09 264.88 195.204 265.408 195.204C266.222 195.204 266.908 194.9 267.465 194.291L268.389 195.171C268.03 195.589 267.586 195.908 267.058 196.128C266.537 196.348 265.962 196.458 265.331 196.458ZM269.759 188.648H271.189V196.348H269.759V188.648ZM276.44 188.648C277.107 188.648 277.687 188.758 278.178 188.978C278.677 189.198 279.058 189.513 279.322 189.924C279.586 190.335 279.718 190.822 279.718 191.387C279.718 191.944 279.586 192.432 279.322 192.85C279.058 193.261 278.677 193.576 278.178 193.796C277.687 194.016 277.107 194.126 276.44 194.126H274.702V196.348H273.272V188.648H276.44ZM276.374 192.916C276.997 192.916 277.47 192.784 277.793 192.52C278.116 192.256 278.277 191.878 278.277 191.387C278.277 190.896 278.116 190.518 277.793 190.254C277.47 189.99 276.997 189.858 276.374 189.858H274.702V192.916H276.374ZM281.146 188.648H282.576V195.138H286.602V196.348H281.146V188.648ZM287.731 188.648H289.161V196.348H287.731V188.648ZM298.086 188.648V196.348H296.909L292.663 191.134V196.348H291.244V188.648H292.421L296.667 193.862V188.648H298.086ZM305.143 194.566H301.293L300.534 196.348H299.06L302.525 188.648H303.933L307.409 196.348H305.913L305.143 194.566ZM304.67 193.444L303.218 190.078L301.777 193.444H304.67ZM313.426 196.348L311.853 194.093C311.787 194.1 311.688 194.104 311.556 194.104H309.818V196.348H308.388V188.648H311.556C312.224 188.648 312.803 188.758 313.294 188.978C313.793 189.198 314.174 189.513 314.438 189.924C314.702 190.335 314.834 190.822 314.834 191.387C314.834 191.966 314.691 192.465 314.405 192.883C314.127 193.301 313.723 193.613 313.195 193.818L314.966 196.348H313.426ZM313.393 191.387C313.393 190.896 313.232 190.518 312.909 190.254C312.587 189.99 312.114 189.858 311.49 189.858H309.818V192.927H311.49C312.114 192.927 312.587 192.795 312.909 192.531C313.232 192.26 313.393 191.878 313.393 191.387ZM319.649 193.631V196.348H318.219V193.653L315.194 188.648H316.723L318.978 192.399L321.255 188.648H322.663L319.649 193.631ZM329.026 196.458C328.432 196.458 327.857 196.374 327.299 196.205C326.749 196.036 326.313 195.813 325.99 195.534L326.485 194.423C326.801 194.672 327.186 194.878 327.64 195.039C328.102 195.193 328.564 195.27 329.026 195.27C329.598 195.27 330.024 195.178 330.302 194.995C330.588 194.812 330.731 194.57 330.731 194.269C330.731 194.049 330.651 193.869 330.489 193.73C330.335 193.583 330.137 193.47 329.895 193.389C329.653 193.308 329.323 193.217 328.905 193.114C328.319 192.975 327.842 192.835 327.475 192.696C327.116 192.557 326.804 192.34 326.54 192.047C326.284 191.746 326.155 191.343 326.155 190.837C326.155 190.412 326.269 190.027 326.496 189.682C326.731 189.33 327.079 189.051 327.541 188.846C328.011 188.641 328.583 188.538 329.257 188.538C329.727 188.538 330.189 188.597 330.643 188.714C331.098 188.831 331.49 189 331.82 189.22L331.369 190.331C331.032 190.133 330.68 189.983 330.313 189.88C329.947 189.777 329.591 189.726 329.246 189.726C328.682 189.726 328.26 189.821 327.981 190.012C327.71 190.203 327.574 190.456 327.574 190.771C327.574 190.991 327.651 191.171 327.805 191.31C327.967 191.449 328.168 191.559 328.41 191.64C328.652 191.721 328.982 191.812 329.4 191.915C329.972 192.047 330.442 192.186 330.808 192.333C331.175 192.472 331.487 192.689 331.743 192.982C332.007 193.275 332.139 193.671 332.139 194.17C332.139 194.595 332.022 194.98 331.787 195.325C331.56 195.67 331.212 195.945 330.742 196.15C330.273 196.355 329.701 196.458 329.026 196.458ZM335.012 189.858H332.46V188.648H338.994V189.858H336.442V196.348H335.012V189.858ZM343.238 196.458C342.175 196.458 341.346 196.161 340.752 195.567C340.158 194.966 339.861 194.108 339.861 192.993V188.648H341.291V192.938C341.291 194.449 341.944 195.204 343.249 195.204C344.547 195.204 345.196 194.449 345.196 192.938V188.648H346.604V192.993C346.604 194.108 346.307 194.966 345.713 195.567C345.127 196.161 344.302 196.458 343.238 196.458ZM348.607 188.648H351.973C352.794 188.648 353.524 188.809 354.162 189.132C354.8 189.447 355.295 189.898 355.647 190.485C355.999 191.064 356.175 191.735 356.175 192.498C356.175 193.261 355.999 193.935 355.647 194.522C355.295 195.101 354.8 195.552 354.162 195.875C353.524 196.19 352.794 196.348 351.973 196.348H348.607V188.648ZM351.907 195.138C352.472 195.138 352.967 195.032 353.392 194.819C353.825 194.599 354.155 194.291 354.382 193.895C354.617 193.492 354.734 193.026 354.734 192.498C354.734 191.97 354.617 191.508 354.382 191.112C354.155 190.709 353.825 190.401 353.392 190.188C352.967 189.968 352.472 189.858 351.907 189.858H350.037V195.138H351.907ZM357.695 188.648H359.125V196.348H357.695V188.648ZM366.983 195.149V196.348H361.208V188.648H366.829V189.847H362.638V191.849H366.356V193.026H362.638V195.149H366.983ZM370.964 196.458C370.37 196.458 369.794 196.374 369.237 196.205C368.687 196.036 368.25 195.813 367.928 195.534L368.423 194.423C368.738 194.672 369.123 194.878 369.578 195.039C370.04 195.193 370.502 195.27 370.964 195.27C371.536 195.27 371.961 195.178 372.24 194.995C372.526 194.812 372.669 194.57 372.669 194.269C372.669 194.049 372.588 193.869 372.427 193.73C372.273 193.583 372.075 193.47 371.833 193.389C371.591 193.308 371.261 193.217 370.843 193.114C370.256 192.975 369.779 192.835 369.413 192.696C369.053 192.557 368.742 192.34 368.478 192.047C368.221 191.746 368.093 191.343 368.093 190.837C368.093 190.412 368.206 190.027 368.434 189.682C368.668 189.33 369.017 189.051 369.479 188.846C369.948 188.641 370.52 188.538 371.195 188.538C371.664 188.538 372.126 188.597 372.581 188.714C373.035 188.831 373.428 189 373.758 189.22L373.307 190.331C372.969 190.133 372.617 189.983 372.251 189.88C371.884 189.777 371.528 189.726 371.184 189.726C370.619 189.726 370.197 189.821 369.919 190.012C369.647 190.203 369.512 190.456 369.512 190.771C369.512 190.991 369.589 191.171 369.743 191.31C369.904 191.449 370.106 191.559 370.348 191.64C370.59 191.721 370.92 191.812 371.338 191.915C371.91 192.047 372.379 192.186 372.746 192.333C373.112 192.472 373.424 192.689 373.681 192.982C373.945 193.275 374.077 193.671 374.077 194.17C374.077 194.595 373.959 194.98 373.725 195.325C373.497 195.67 373.149 195.945 372.68 196.15C372.21 196.355 371.638 196.458 370.964 196.458Z" fill="#202020"/>
<path d="M34.9932 6.76051C34.2643 4.41602 33.6684 2.33522 33.6684 2.13608C33.6684 1.91843 57.393 1.77478 93.4416 1.77478H153.215L153.659 3.44745C154.628 7.09504 156.958 13.9723 158.423 17.5073C160.679 22.9519 161.533 26.5621 161.551 30.7241C161.567 34.4091 161.59 34.3146 158.811 41.9188C156.748 47.5602 157.248 51.242 160.828 56.7914C165.13 63.4592 174.013 76.515 176.796 80.2618C181.57 86.6876 182.828 90.2612 181.334 93.152C180.111 95.5181 176.903 97.7256 172.54 99.2023C164.905 101.787 163.735 103.964 166.257 110.891C167.913 115.439 167.601 116.625 163.782 120.32C162.261 121.791 160.862 122.994 160.672 122.994C159.926 122.994 160.396 123.879 161.899 125.31C164.264 127.561 164.019 129.197 160.508 134.584C159.795 135.677 158.898 137.479 158.514 138.588C157.822 140.588 157.825 140.638 158.874 144.885C160.416 151.131 160.491 152.048 159.755 155.681C158.326 162.737 155.107 166.75 148.752 169.397C144.888 171.007 140.091 171.712 129.841 172.177C114.023 172.894 108.053 174.459 104.353 178.858C102.541 181.013 102.363 182.288 102.652 191.069C102.932 199.578 103.836 214.033 104.462 220.009C104.666 221.957 105.026 226.65 105.261 230.438C105.497 234.226 105.782 237.636 105.894 238.014C106.086 238.668 103.563 238.703 56.7566 238.703H7.41649L7.19936 237.03C7.08017 236.111 6.53461 232.878 5.98746 229.847C4.33817 220.715 1.91278 204.731 0.970325 196.788C-0.541303 184.042 -0.290343 170.069 1.83726 148.576C3.08063 136.018 5.93433 125.588 10.9896 115.123C13.1684 110.613 16.1507 105.363 18.2012 102.43C25.5414 91.9288 26.4898 90.5127 28.2815 87.376C32.7196 79.6069 37.9743 64.7698 39.5544 55.5441C40.7746 48.4221 40.69 36.1912 39.3574 26.9632C38.8102 23.1751 38.1151 19.0131 37.8131 17.7143C37.5106 16.4155 37.0504 14.3788 36.7904 13.1883C36.5304 11.9977 35.7216 9.10539 34.9932 6.76051Z" fill="#373737"/>
</svg>
