<svg width="766" height="281" viewBox="0 0 766 281" fill="none" xmlns="http://www.w3.org/2000/svg">
<rect opacity="0.6" x="146" y="5" width="487" height="13" fill="#E06B65"/>
<rect opacity="0.6" x="146" y="150" width="582" height="13" fill="#FEEB96"/>
<rect opacity="0.6" x="146" y="34" width="249" height="13" fill="#FEEB96"/>
<rect opacity="0.6" x="146" y="179" width="468" height="13" fill="#99CC99"/>
<rect opacity="0.6" x="146" y="63" width="249" height="13" fill="#99CC99"/>
<rect opacity="0.6" x="146" y="208" width="571" height="13" fill="#99CCFF"/>
<rect opacity="0.6" x="146" y="92" width="123" height="13" fill="#99CCFF"/>
<rect opacity="0.6" x="146" y="237" width="363" height="13" fill="#E06B65"/>
<rect opacity="0.6" x="146" y="121" width="376" height="13" fill="#E06B65"/>
<rect opacity="0.6" x="146" y="266" width="421" height="13" fill="#FEEB96"/>
<path d="M4.584 3.6C5.312 3.6 5.944 3.72 6.48 3.96C7.024 4.2 7.44 4.544 7.728 4.992C8.016 5.44 8.16 5.972 8.16 6.588C8.16 7.196 8.016 7.728 7.728 8.184C7.44 8.632 7.024 8.976 6.48 9.216C5.944 9.456 5.312 9.576 4.584 9.576H2.688V12H1.128V3.6H4.584ZM4.512 8.256C5.192 8.256 5.708 8.112 6.06 7.824C6.412 7.536 6.588 7.124 6.588 6.588C6.588 6.052 6.412 5.64 6.06 5.352C5.708 5.064 5.192 4.92 4.512 4.92H2.688V8.256H4.512ZM15.2138 12L13.4978 9.54C13.4258 9.548 13.3178 9.552 13.1738 9.552H11.2778V12H9.71784V3.6H13.1738C13.9018 3.6 14.5338 3.72 15.0698 3.96C15.6138 4.2 16.0298 4.544 16.3178 4.992C16.6058 5.44 16.7498 5.972 16.7498 6.588C16.7498 7.22 16.5938 7.764 16.2818 8.22C15.9778 8.676 15.5378 9.016 14.9618 9.24L16.8938 12H15.2138ZM15.1778 6.588C15.1778 6.052 15.0018 5.64 14.6498 5.352C14.2978 5.064 13.7818 4.92 13.1018 4.92H11.2778V8.268H13.1018C13.7818 8.268 14.2978 8.124 14.6498 7.836C15.0018 7.54 15.1778 7.124 15.1778 6.588ZM22.4192 12.12C21.5632 12.12 20.7912 11.936 20.1032 11.568C19.4152 11.192 18.8752 10.676 18.4832 10.02C18.0912 9.356 17.8952 8.616 17.8952 7.8C17.8952 6.984 18.0912 6.248 18.4832 5.592C18.8752 4.928 19.4152 4.412 20.1032 4.044C20.7912 3.668 21.5632 3.48 22.4192 3.48C23.2752 3.48 24.0472 3.668 24.7352 4.044C25.4232 4.412 25.9632 4.924 26.3552 5.58C26.7472 6.236 26.9432 6.976 26.9432 7.8C26.9432 8.624 26.7472 9.364 26.3552 10.02C25.9632 10.676 25.4232 11.192 24.7352 11.568C24.0472 11.936 23.2752 12.12 22.4192 12.12ZM22.4192 10.752C22.9792 10.752 23.4832 10.628 23.9312 10.38C24.3792 10.124 24.7312 9.772 24.9872 9.324C25.2432 8.868 25.3712 8.36 25.3712 7.8C25.3712 7.24 25.2432 6.736 24.9872 6.288C24.7312 5.832 24.3792 5.48 23.9312 5.232C23.4832 4.976 22.9792 4.848 22.4192 4.848C21.8592 4.848 21.3552 4.976 20.9072 5.232C20.4592 5.48 20.1072 5.832 19.8512 6.288C19.5952 6.736 19.4672 7.24 19.4672 7.8C19.4672 8.36 19.5952 8.868 19.8512 9.324C20.1072 9.772 20.4592 10.124 20.9072 10.38C21.3552 10.628 21.8592 10.752 22.4192 10.752ZM34.3328 7.704H35.8088V11.052C35.3768 11.396 34.8728 11.66 34.2968 11.844C33.7208 12.028 33.1288 12.12 32.5208 12.12C31.6648 12.12 30.8928 11.936 30.2048 11.568C29.5168 11.192 28.9768 10.676 28.5848 10.02C28.1928 9.364 27.9968 8.624 27.9968 7.8C27.9968 6.976 28.1928 6.236 28.5848 5.58C28.9768 4.924 29.5168 4.412 30.2048 4.044C30.9008 3.668 31.6808 3.48 32.5448 3.48C33.2488 3.48 33.8888 3.596 34.4648 3.828C35.0408 4.06 35.5248 4.4 35.9168 4.848L34.9328 5.808C34.2928 5.168 33.5208 4.848 32.6168 4.848C32.0248 4.848 31.4968 4.972 31.0328 5.22C30.5768 5.468 30.2168 5.816 29.9528 6.264C29.6968 6.712 29.5688 7.224 29.5688 7.8C29.5688 8.36 29.6968 8.864 29.9528 9.312C30.2168 9.76 30.5768 10.112 31.0328 10.368C31.4968 10.624 32.0208 10.752 32.6048 10.752C33.2608 10.752 33.8368 10.608 34.3328 10.32V7.704ZM43.3623 12L41.6463 9.54C41.5743 9.548 41.4663 9.552 41.3223 9.552H39.4263V12H37.8663V3.6H41.3223C42.0503 3.6 42.6823 3.72 43.2183 3.96C43.7623 4.2 44.1783 4.544 44.4663 4.992C44.7543 5.44 44.8983 5.972 44.8983 6.588C44.8983 7.22 44.7423 7.764 44.4303 8.22C44.1263 8.676 43.6863 9.016 43.1103 9.24L45.0423 12H43.3623ZM43.3263 6.588C43.3263 6.052 43.1503 5.64 42.7983 5.352C42.4463 5.064 41.9303 4.92 41.2503 4.92H39.4263V8.268H41.2503C41.9303 8.268 42.4463 8.124 42.7983 7.836C43.1503 7.54 43.3263 7.124 43.3263 6.588ZM52.0916 10.056H47.8916L47.0636 12H45.4556L49.2356 3.6H50.7716L54.5636 12H52.9316L52.0916 10.056ZM51.5756 8.832L49.9916 5.16L48.4196 8.832H51.5756ZM63.3479 12L63.3359 6.432L60.5759 11.04H59.8799L57.1199 6.504V12H55.6319V3.6H56.9159L60.2519 9.168L63.5279 3.6H64.8119L64.8239 12H63.3479ZM74.8088 12L74.7968 6.432L72.0368 11.04H71.3408L68.5808 6.504V12H67.0928V3.6H68.3768L71.7128 9.168L74.9888 3.6H76.2728L76.2848 12H74.8088ZM78.5538 3.6H80.1138V12H78.5538V3.6ZM89.8498 3.6V12H88.5658L83.9338 6.312V12H82.3858V3.6H83.6698L88.3018 9.288V3.6H89.8498ZM97.8367 7.704H99.3127V11.052C98.8807 11.396 98.3767 11.66 97.8007 11.844C97.2247 12.028 96.6327 12.12 96.0247 12.12C95.1687 12.12 94.3967 11.936 93.7087 11.568C93.0207 11.192 92.4807 10.676 92.0887 10.02C91.6967 9.364 91.5007 8.624 91.5007 7.8C91.5007 6.976 91.6967 6.236 92.0887 5.58C92.4807 4.924 93.0207 4.412 93.7087 4.044C94.4047 3.668 95.1847 3.48 96.0487 3.48C96.7527 3.48 97.3927 3.596 97.9687 3.828C98.5447 4.06 99.0287 4.4 99.4207 4.848L98.4367 5.808C97.7967 5.168 97.0247 4.848 96.1207 4.848C95.5287 4.848 95.0007 4.972 94.5367 5.22C94.0807 5.468 93.7207 5.816 93.4567 6.264C93.2007 6.712 93.0727 7.224 93.0727 7.8C93.0727 8.36 93.2007 8.864 93.4567 9.312C93.7207 9.76 94.0807 10.112 94.5367 10.368C95.0007 10.624 95.5247 10.752 96.1087 10.752C96.7647 10.752 97.3407 10.608 97.8367 10.32V7.704Z" fill="#202020"/>
<path d="M8.844 70L8.832 64.432L6.072 69.04H5.376L2.616 64.504V70H1.128V61.6H2.412L5.748 67.168L9.024 61.6H10.308L10.32 70H8.844ZM16.5129 70.12C15.6569 70.12 14.8849 69.936 14.1969 69.568C13.5089 69.192 12.9689 68.676 12.5769 68.02C12.1849 67.356 11.9889 66.616 11.9889 65.8C11.9889 64.984 12.1849 64.248 12.5769 63.592C12.9689 62.928 13.5089 62.412 14.1969 62.044C14.8849 61.668 15.6569 61.48 16.5129 61.48C17.3689 61.48 18.1409 61.668 18.8289 62.044C19.5169 62.412 20.0569 62.924 20.4489 63.58C20.8409 64.236 21.0369 64.976 21.0369 65.8C21.0369 66.624 20.8409 67.364 20.4489 68.02C20.0569 68.676 19.5169 69.192 18.8289 69.568C18.1409 69.936 17.3689 70.12 16.5129 70.12ZM16.5129 68.752C17.0729 68.752 17.5769 68.628 18.0249 68.38C18.4729 68.124 18.8249 67.772 19.0809 67.324C19.3369 66.868 19.4649 66.36 19.4649 65.8C19.4649 65.24 19.3369 64.736 19.0809 64.288C18.8249 63.832 18.4729 63.48 18.0249 63.232C17.5769 62.976 17.0729 62.848 16.5129 62.848C15.9529 62.848 15.4489 62.976 15.0009 63.232C14.5529 63.48 14.2009 63.832 13.9449 64.288C13.6889 64.736 13.5609 65.24 13.5609 65.8C13.5609 66.36 13.6889 66.868 13.9449 67.324C14.2009 67.772 14.5529 68.124 15.0009 68.38C15.4489 68.628 15.9529 68.752 16.5129 68.752ZM28.6425 65.632C29.1065 65.784 29.4745 66.04 29.7465 66.4C30.0185 66.752 30.1545 67.192 30.1545 67.72C30.1545 68.448 29.8745 69.012 29.3145 69.412C28.7545 69.804 27.9385 70 26.8665 70H22.6905V61.6H26.6265C27.6185 61.6 28.3825 61.796 28.9185 62.188C29.4545 62.572 29.7225 63.104 29.7225 63.784C29.7225 64.2 29.6265 64.568 29.4345 64.888C29.2425 65.208 28.9785 65.456 28.6425 65.632ZM24.2505 62.824V65.14H26.4585C27.0025 65.14 27.4185 65.044 27.7065 64.852C28.0025 64.652 28.1505 64.364 28.1505 63.988C28.1505 63.604 28.0025 63.316 27.7065 63.124C27.4185 62.924 27.0025 62.824 26.4585 62.824H24.2505ZM26.7705 68.776C27.9785 68.776 28.5825 68.372 28.5825 67.564C28.5825 66.756 27.9785 66.352 26.7705 66.352H24.2505V68.776H26.7705ZM31.8194 61.6H33.3794V70H31.8194V61.6ZM35.6514 61.6H37.2114V68.68H41.6034V70H35.6514V61.6ZM49.135 68.692V70H42.835V61.6H48.967V62.908H44.395V65.092H48.451V66.376H44.395V68.692H49.135ZM54.1905 61.6H57.8625C58.7585 61.6 59.5545 61.776 60.2505 62.128C60.9465 62.472 61.4865 62.964 61.8705 63.604C62.2545 64.236 62.4465 64.968 62.4465 65.8C62.4465 66.632 62.2545 67.368 61.8705 68.008C61.4865 68.64 60.9465 69.132 60.2505 69.484C59.5545 69.828 58.7585 70 57.8625 70H54.1905V61.6ZM57.7905 68.68C58.4065 68.68 58.9465 68.564 59.4105 68.332C59.8825 68.092 60.2425 67.756 60.4905 67.324C60.7465 66.884 60.8745 66.376 60.8745 65.8C60.8745 65.224 60.7465 64.72 60.4905 64.288C60.2425 63.848 59.8825 63.512 59.4105 63.28C58.9465 63.04 58.4065 62.92 57.7905 62.92H55.7505V68.68H57.7905ZM70.4046 68.692V70H64.1046V61.6H70.2366V62.908H65.6646V65.092H69.7206V66.376H65.6646V68.692H70.4046ZM79.7064 61.6L76.0464 70H74.5104L70.8384 61.6H72.5304L75.3264 68.08L78.1464 61.6H79.7064Z" fill="#202020"/>
<path d="M13.404 32.6L10.62 41H8.964L6.888 34.784L4.776 41H3.108L0.324 32.6H1.944L4.032 38.984L6.204 32.6H7.644L9.768 39.02L11.916 32.6H13.404ZM20.9749 39.692V41H14.6749V32.6H20.8069V33.908H16.2349V36.092H20.2909V37.376H16.2349V39.692H20.9749ZM28.6659 36.632C29.1299 36.784 29.4979 37.04 29.7699 37.4C30.0419 37.752 30.1779 38.192 30.1779 38.72C30.1779 39.448 29.8979 40.012 29.3379 40.412C28.7779 40.804 27.9619 41 26.8899 41H22.7139V32.6H26.6499C27.6419 32.6 28.4059 32.796 28.9419 33.188C29.4779 33.572 29.7459 34.104 29.7459 34.784C29.7459 35.2 29.6499 35.568 29.4579 35.888C29.2659 36.208 29.0019 36.456 28.6659 36.632ZM24.2739 33.824V36.14H26.4819C27.0259 36.14 27.4419 36.044 27.7299 35.852C28.0259 35.652 28.1739 35.364 28.1739 34.988C28.1739 34.604 28.0259 34.316 27.7299 34.124C27.4419 33.924 27.0259 33.824 26.4819 33.824H24.2739ZM26.7939 39.776C28.0019 39.776 28.6059 39.372 28.6059 38.564C28.6059 37.756 28.0019 37.352 26.7939 37.352H24.2739V39.776H26.7939ZM35.1593 32.6H38.8313C39.7273 32.6 40.5233 32.776 41.2193 33.128C41.9153 33.472 42.4553 33.964 42.8393 34.604C43.2233 35.236 43.4153 35.968 43.4153 36.8C43.4153 37.632 43.2233 38.368 42.8393 39.008C42.4553 39.64 41.9153 40.132 41.2193 40.484C40.5233 40.828 39.7273 41 38.8313 41H35.1593V32.6ZM38.7593 39.68C39.3753 39.68 39.9153 39.564 40.3793 39.332C40.8513 39.092 41.2113 38.756 41.4593 38.324C41.7153 37.884 41.8433 37.376 41.8433 36.8C41.8433 36.224 41.7153 35.72 41.4593 35.288C41.2113 34.848 40.8513 34.512 40.3793 34.28C39.9153 34.04 39.3753 33.92 38.7593 33.92H36.7193V39.68H38.7593ZM51.3733 39.692V41H45.0733V32.6H51.2053V33.908H46.6333V36.092H50.6893V37.376H46.6333V39.692H51.3733ZM60.6752 32.6L57.0152 41H55.4792L51.8072 32.6H53.4992L56.2952 39.08L59.1152 32.6H60.6752Z" fill="#202020"/>
<path d="M1.128 90.6H4.8C5.696 90.6 6.492 90.776 7.188 91.128C7.884 91.472 8.424 91.964 8.808 92.604C9.192 93.236 9.384 93.968 9.384 94.8C9.384 95.632 9.192 96.368 8.808 97.008C8.424 97.64 7.884 98.132 7.188 98.484C6.492 98.828 5.696 99 4.8 99H1.128V90.6ZM4.728 97.68C5.344 97.68 5.884 97.564 6.348 97.332C6.82 97.092 7.18 96.756 7.428 96.324C7.684 95.884 7.812 95.376 7.812 94.8C7.812 94.224 7.684 93.72 7.428 93.288C7.18 92.848 6.82 92.512 6.348 92.28C5.884 92.04 5.344 91.92 4.728 91.92H2.688V97.68H4.728ZM16.3729 97.056H12.1729L11.3449 99H9.73687L13.5169 90.6H15.0529L18.8449 99H17.2129L16.3729 97.056ZM15.8569 95.832L14.2729 92.16L12.7009 95.832H15.8569ZM21.1953 91.92H18.4113V90.6H25.5393V91.92H22.7553V99H21.1953V91.92ZM31.7362 97.056H27.5362L26.7082 99H25.1002L28.8802 90.6H30.4162L34.2082 99H32.5762L31.7362 97.056ZM31.2202 95.832L29.6362 92.16L28.0642 95.832H31.2202ZM46.3088 99L46.2968 93.432L43.5368 98.04H42.8408L40.0808 93.504V99H38.5928V90.6H39.8768L43.2128 96.168L46.4888 90.6H47.7728L47.7848 99H46.3088ZM55.5018 97.056H51.3018L50.4738 99H48.8658L52.6458 90.6H54.1818L57.9738 99H56.3418L55.5018 97.056ZM54.9858 95.832L53.4018 92.16L51.8298 95.832H54.9858ZM62.4981 90.6C63.2261 90.6 63.8581 90.72 64.3941 90.96C64.9381 91.2 65.3541 91.544 65.6421 91.992C65.9301 92.44 66.0741 92.972 66.0741 93.588C66.0741 94.196 65.9301 94.728 65.6421 95.184C65.3541 95.632 64.9381 95.976 64.3941 96.216C63.8581 96.456 63.2261 96.576 62.4981 96.576H60.6021V99H59.0421V90.6H62.4981ZM62.4261 95.256C63.1061 95.256 63.6221 95.112 63.9741 94.824C64.3261 94.536 64.5021 94.124 64.5021 93.588C64.5021 93.052 64.3261 92.64 63.9741 92.352C63.6221 92.064 63.1061 91.92 62.4261 91.92H60.6021V95.256H62.4261ZM71.0879 90.6C71.8159 90.6 72.4479 90.72 72.9839 90.96C73.5279 91.2 73.9439 91.544 74.2319 91.992C74.5199 92.44 74.6639 92.972 74.6639 93.588C74.6639 94.196 74.5199 94.728 74.2319 95.184C73.9439 95.632 73.5279 95.976 72.9839 96.216C72.4479 96.456 71.8159 96.576 71.0879 96.576H69.1919V99H67.6319V90.6H71.0879ZM71.0159 95.256C71.6959 95.256 72.2119 95.112 72.5639 94.824C72.9159 94.536 73.0919 94.124 73.0919 93.588C73.0919 93.052 72.9159 92.64 72.5639 92.352C72.2119 92.064 71.6959 91.92 71.0159 91.92H69.1919V95.256H71.0159ZM76.2218 90.6H77.7818V99H76.2218V90.6ZM87.5178 90.6V99H86.2338L81.6018 93.312V99H80.0538V90.6H81.3378L85.9698 96.288V90.6H87.5178ZM95.5046 94.704H96.9806V98.052C96.5486 98.396 96.0446 98.66 95.4686 98.844C94.8926 99.028 94.3006 99.12 93.6926 99.12C92.8366 99.12 92.0646 98.936 91.3766 98.568C90.6886 98.192 90.1486 97.676 89.7566 97.02C89.3646 96.364 89.1686 95.624 89.1686 94.8C89.1686 93.976 89.3646 93.236 89.7566 92.58C90.1486 91.924 90.6886 91.412 91.3766 91.044C92.0726 90.668 92.8526 90.48 93.7166 90.48C94.4206 90.48 95.0606 90.596 95.6366 90.828C96.2126 91.06 96.6966 91.4 97.0886 91.848L96.1046 92.808C95.4646 92.168 94.6926 91.848 93.7886 91.848C93.1966 91.848 92.6686 91.972 92.2046 92.22C91.7486 92.468 91.3886 92.816 91.1246 93.264C90.8686 93.712 90.7406 94.224 90.7406 94.8C90.7406 95.36 90.8686 95.864 91.1246 96.312C91.3886 96.76 91.7486 97.112 92.2046 97.368C92.6686 97.624 93.1926 97.752 93.7766 97.752C94.4326 97.752 95.0086 97.608 95.5046 97.32V94.704Z" fill="#202020"/>
<path d="M5.016 128.12C4.168 128.12 3.4 127.936 2.712 127.568C2.032 127.192 1.496 126.676 1.104 126.02C0.72 125.364 0.528 124.624 0.528 123.8C0.528 122.976 0.724 122.236 1.116 121.58C1.508 120.924 2.044 120.412 2.724 120.044C3.412 119.668 4.18 119.48 5.028 119.48C5.716 119.48 6.344 119.6 6.912 119.84C7.48 120.08 7.96 120.428 8.352 120.884L7.344 121.832C6.736 121.176 5.988 120.848 5.1 120.848C4.524 120.848 4.008 120.976 3.552 121.232C3.096 121.48 2.74 121.828 2.484 122.276C2.228 122.724 2.1 123.232 2.1 123.8C2.1 124.368 2.228 124.876 2.484 125.324C2.74 125.772 3.096 126.124 3.552 126.38C4.008 126.628 4.524 126.752 5.1 126.752C5.988 126.752 6.736 126.42 7.344 125.756L8.352 126.716C7.96 127.172 7.476 127.52 6.9 127.76C6.332 128 5.704 128.12 5.016 128.12ZM15.119 126.056H10.919L10.091 128H8.48297L12.263 119.6H13.799L17.591 128H15.959L15.119 126.056ZM14.603 124.832L13.019 121.16L11.447 124.832H14.603ZM18.6593 119.6H22.3313C23.2273 119.6 24.0233 119.776 24.7193 120.128C25.4153 120.472 25.9553 120.964 26.3393 121.604C26.7233 122.236 26.9153 122.968 26.9153 123.8C26.9153 124.632 26.7233 125.368 26.3393 126.008C25.9553 126.64 25.4153 127.132 24.7193 127.484C24.0233 127.828 23.2273 128 22.3313 128H18.6593V119.6ZM22.2593 126.68C22.8753 126.68 23.4153 126.564 23.8793 126.332C24.3513 126.092 24.7113 125.756 24.9593 125.324C25.2153 124.884 25.3433 124.376 25.3433 123.8C25.3433 123.224 25.2153 122.72 24.9593 122.288C24.7113 121.848 24.3513 121.512 23.8793 121.28C23.4153 121.04 22.8753 120.92 22.2593 120.92H20.2193V126.68H22.2593Z" fill="#202020"/>
<path d="M6.864 152.704H8.34V156.052C7.908 156.396 7.404 156.66 6.828 156.844C6.252 157.028 5.66 157.12 5.052 157.12C4.196 157.12 3.424 156.936 2.736 156.568C2.048 156.192 1.508 155.676 1.116 155.02C0.724 154.364 0.528 153.624 0.528 152.8C0.528 151.976 0.724 151.236 1.116 150.58C1.508 149.924 2.048 149.412 2.736 149.044C3.432 148.668 4.212 148.48 5.076 148.48C5.78 148.48 6.42 148.596 6.996 148.828C7.572 149.06 8.056 149.4 8.448 149.848L7.464 150.808C6.824 150.168 6.052 149.848 5.148 149.848C4.556 149.848 4.028 149.972 3.564 150.22C3.108 150.468 2.748 150.816 2.484 151.264C2.228 151.712 2.1 152.224 2.1 152.8C2.1 153.36 2.228 153.864 2.484 154.312C2.748 154.76 3.108 155.112 3.564 155.368C4.028 155.624 4.552 155.752 5.136 155.752C5.792 155.752 6.368 155.608 6.864 155.32V152.704ZM15.8935 157L14.1775 154.54C14.1055 154.548 13.9975 154.552 13.8535 154.552H11.9575V157H10.3975V148.6H13.8535C14.5815 148.6 15.2135 148.72 15.7495 148.96C16.2935 149.2 16.7095 149.544 16.9975 149.992C17.2855 150.44 17.4295 150.972 17.4295 151.588C17.4295 152.22 17.2735 152.764 16.9615 153.22C16.6575 153.676 16.2175 154.016 15.6415 154.24L17.5735 157H15.8935ZM15.8575 151.588C15.8575 151.052 15.6815 150.64 15.3295 150.352C14.9775 150.064 14.4615 149.92 13.7815 149.92H11.9575V153.268H13.7815C14.4615 153.268 14.9775 153.124 15.3295 152.836C15.6815 152.54 15.8575 152.124 15.8575 151.588ZM24.6229 155.056H20.4229L19.5949 157H17.9869L21.7669 148.6H23.3029L27.0949 157H25.4629L24.6229 155.056ZM24.1069 153.832L22.5229 150.16L20.9509 153.832H24.1069ZM31.6192 148.6C32.3472 148.6 32.9792 148.72 33.5152 148.96C34.0592 149.2 34.4752 149.544 34.7632 149.992C35.0512 150.44 35.1952 150.972 35.1952 151.588C35.1952 152.196 35.0512 152.728 34.7632 153.184C34.4752 153.632 34.0592 153.976 33.5152 154.216C32.9792 154.456 32.3472 154.576 31.6192 154.576H29.7232V157H28.1632V148.6H31.6192ZM31.5472 153.256C32.2272 153.256 32.7432 153.112 33.0952 152.824C33.4472 152.536 33.6232 152.124 33.6232 151.588C33.6232 151.052 33.4472 150.64 33.0952 150.352C32.7432 150.064 32.2272 149.92 31.5472 149.92H29.7232V153.256H31.5472ZM44.217 148.6V157H42.657V153.4H38.313V157H36.753V148.6H38.313V152.068H42.657V148.6H44.217ZM46.4678 148.6H48.0278V157H46.4678V148.6ZM54.1879 157.12C53.3399 157.12 52.5719 156.936 51.8839 156.568C51.2039 156.192 50.6679 155.676 50.2759 155.02C49.8919 154.364 49.6999 153.624 49.6999 152.8C49.6999 151.976 49.8959 151.236 50.2879 150.58C50.6799 149.924 51.2159 149.412 51.8959 149.044C52.5839 148.668 53.3519 148.48 54.1999 148.48C54.8879 148.48 55.5159 148.6 56.0839 148.84C56.6519 149.08 57.1319 149.428 57.5239 149.884L56.5159 150.832C55.9079 150.176 55.1599 149.848 54.2719 149.848C53.6959 149.848 53.1799 149.976 52.7239 150.232C52.2679 150.48 51.9119 150.828 51.6559 151.276C51.3999 151.724 51.2719 152.232 51.2719 152.8C51.2719 153.368 51.3999 153.876 51.6559 154.324C51.9119 154.772 52.2679 155.124 52.7239 155.38C53.1799 155.628 53.6959 155.752 54.2719 155.752C55.1599 155.752 55.9079 155.42 56.5159 154.756L57.5239 155.716C57.1319 156.172 56.6479 156.52 56.0719 156.76C55.5039 157 54.8759 157.12 54.1879 157.12ZM62.335 148.6H66.007C66.903 148.6 67.699 148.776 68.395 149.128C69.091 149.472 69.631 149.964 70.015 150.604C70.399 151.236 70.591 151.968 70.591 152.8C70.591 153.632 70.399 154.368 70.015 155.008C69.631 155.64 69.091 156.132 68.395 156.484C67.699 156.828 66.903 157 66.007 157H62.335V148.6ZM65.935 155.68C66.551 155.68 67.091 155.564 67.555 155.332C68.027 155.092 68.387 154.756 68.635 154.324C68.891 153.884 69.019 153.376 69.019 152.8C69.019 152.224 68.891 151.72 68.635 151.288C68.387 150.848 68.027 150.512 67.555 150.28C67.091 150.04 66.551 149.92 65.935 149.92H63.895V155.68H65.935ZM78.5491 155.692V157H72.2491V148.6H78.3811V149.908H73.8091V152.092H77.8651V153.376H73.8091V155.692H78.5491ZM82.8922 157.12C82.2442 157.12 81.6162 157.028 81.0082 156.844C80.4082 156.66 79.9322 156.416 79.5802 156.112L80.1202 154.9C80.4642 155.172 80.8842 155.396 81.3802 155.572C81.8842 155.74 82.3882 155.824 82.8922 155.824C83.5162 155.824 83.9802 155.724 84.2842 155.524C84.5962 155.324 84.7522 155.06 84.7522 154.732C84.7522 154.492 84.6642 154.296 84.4882 154.144C84.3202 153.984 84.1042 153.86 83.8402 153.772C83.5762 153.684 83.2162 153.584 82.7602 153.472C82.1202 153.32 81.6002 153.168 81.2002 153.016C80.8082 152.864 80.4682 152.628 80.1802 152.308C79.9002 151.98 79.7602 151.54 79.7602 150.988C79.7602 150.524 79.8842 150.104 80.1322 149.728C80.3882 149.344 80.7682 149.04 81.2722 148.816C81.7842 148.592 82.4082 148.48 83.1442 148.48C83.6562 148.48 84.1602 148.544 84.6562 148.672C85.1522 148.8 85.5802 148.984 85.9402 149.224L85.4482 150.436C85.0802 150.22 84.6962 150.056 84.2962 149.944C83.8962 149.832 83.5082 149.776 83.1322 149.776C82.5162 149.776 82.0562 149.88 81.7522 150.088C81.4562 150.296 81.3082 150.572 81.3082 150.916C81.3082 151.156 81.3922 151.352 81.5602 151.504C81.7362 151.656 81.9562 151.776 82.2202 151.864C82.4842 151.952 82.8442 152.052 83.3002 152.164C83.9242 152.308 84.4362 152.46 84.8362 152.62C85.2362 152.772 85.5762 153.008 85.8562 153.328C86.1442 153.648 86.2882 154.08 86.2882 154.624C86.2882 155.088 86.1602 155.508 85.9042 155.884C85.6562 156.26 85.2762 156.56 84.7642 156.784C84.2522 157.008 83.6282 157.12 82.8922 157.12ZM87.835 148.6H89.395V157H87.835V148.6ZM97.4031 152.704H98.8791V156.052C98.4471 156.396 97.9431 156.66 97.3671 156.844C96.7911 157.028 96.1991 157.12 95.5911 157.12C94.7351 157.12 93.9631 156.936 93.2751 156.568C92.5871 156.192 92.0471 155.676 91.6551 155.02C91.2631 154.364 91.0671 153.624 91.0671 152.8C91.0671 151.976 91.2631 151.236 91.6551 150.58C92.0471 149.924 92.5871 149.412 93.2751 149.044C93.9711 148.668 94.7511 148.48 95.6151 148.48C96.3191 148.48 96.9591 148.596 97.5351 148.828C98.1111 149.06 98.5951 149.4 98.9871 149.848L98.0031 150.808C97.3631 150.168 96.5911 149.848 95.6871 149.848C95.0951 149.848 94.5671 149.972 94.1031 150.22C93.6471 150.468 93.2871 150.816 93.0231 151.264C92.7671 151.712 92.6391 152.224 92.6391 152.8C92.6391 153.36 92.7671 153.864 93.0231 154.312C93.2871 154.76 93.6471 155.112 94.1031 155.368C94.5671 155.624 95.0911 155.752 95.6751 155.752C96.3311 155.752 96.9071 155.608 97.4031 155.32V152.704ZM108.401 148.6V157H107.117L102.485 151.312V157H100.937V148.6H102.221L106.853 154.288V148.6H108.401Z" fill="#202020"/>
<path d="M4.74 186.12C3.58 186.12 2.676 185.796 2.028 185.148C1.38 184.492 1.056 183.556 1.056 182.34V177.6H2.616V182.28C2.616 183.928 3.328 184.752 4.752 184.752C6.168 184.752 6.876 183.928 6.876 182.28V177.6H8.412V182.34C8.412 183.556 8.088 184.492 7.44 185.148C6.8 185.796 5.9 186.12 4.74 186.12ZM10.5968 177.6H12.1568V186H10.5968V177.6ZM16.9008 175.896H18.2448L14.2848 187.2H12.9408L16.9008 175.896ZM22.4939 186.12C21.3339 186.12 20.4299 185.796 19.7819 185.148C19.1339 184.492 18.8099 183.556 18.8099 182.34V177.6H20.3699V182.28C20.3699 183.928 21.0819 184.752 22.5059 184.752C23.9219 184.752 24.6299 183.928 24.6299 182.28V177.6H26.1659V182.34C26.1659 183.556 25.8419 184.492 25.1939 185.148C24.5539 185.796 23.6539 186.12 22.4939 186.12ZM33.5255 186L31.2455 182.808L28.9895 186H27.2135L30.3335 181.716L27.3815 177.6H29.1455L31.2935 180.588L33.4175 177.6H35.1095L32.1695 181.656L35.3255 186H33.5255Z" fill="#202020"/>
<path d="M4.74 215.12C3.58 215.12 2.676 214.796 2.028 214.148C1.38 213.492 1.056 212.556 1.056 211.34V206.6H2.616V211.28C2.616 212.928 3.328 213.752 4.752 213.752C6.168 213.752 6.876 212.928 6.876 211.28V206.6H8.412V211.34C8.412 212.556 8.088 213.492 7.44 214.148C6.8 214.796 5.9 215.12 4.74 215.12ZM13.2008 215.12C12.5528 215.12 11.9248 215.028 11.3168 214.844C10.7168 214.66 10.2408 214.416 9.88875 214.112L10.4288 212.9C10.7728 213.172 11.1928 213.396 11.6888 213.572C12.1928 213.74 12.6968 213.824 13.2008 213.824C13.8248 213.824 14.2888 213.724 14.5928 213.524C14.9048 213.324 15.0608 213.06 15.0608 212.732C15.0608 212.492 14.9728 212.296 14.7968 212.144C14.6288 211.984 14.4128 211.86 14.1488 211.772C13.8848 211.684 13.5248 211.584 13.0688 211.472C12.4288 211.32 11.9088 211.168 11.5088 211.016C11.1168 210.864 10.7768 210.628 10.4888 210.308C10.2088 209.98 10.0688 209.54 10.0688 208.988C10.0688 208.524 10.1928 208.104 10.4408 207.728C10.6968 207.344 11.0768 207.04 11.5808 206.816C12.0928 206.592 12.7168 206.48 13.4528 206.48C13.9648 206.48 14.4688 206.544 14.9648 206.672C15.4608 206.8 15.8888 206.984 16.2487 207.224L15.7568 208.436C15.3888 208.22 15.0048 208.056 14.6048 207.944C14.2048 207.832 13.8168 207.776 13.4408 207.776C12.8248 207.776 12.3648 207.88 12.0608 208.088C11.7648 208.296 11.6168 208.572 11.6168 208.916C11.6168 209.156 11.7008 209.352 11.8688 209.504C12.0448 209.656 12.2648 209.776 12.5288 209.864C12.7928 209.952 13.1528 210.052 13.6088 210.164C14.2328 210.308 14.7448 210.46 15.1448 210.62C15.5448 210.772 15.8848 211.008 16.1648 211.328C16.4528 211.648 16.5968 212.08 16.5968 212.624C16.5968 213.088 16.4688 213.508 16.2128 213.884C15.9648 214.26 15.5848 214.56 15.0728 214.784C14.5608 215.008 13.9368 215.12 13.2008 215.12ZM24.4436 213.692V215H18.1436V206.6H24.2756V207.908H19.7036V210.092H23.7596V211.376H19.7036V213.692H24.4436ZM31.6787 215L29.9627 212.54C29.8907 212.548 29.7827 212.552 29.6387 212.552H27.7427V215H26.1827V206.6H29.6387C30.3667 206.6 30.9987 206.72 31.5347 206.96C32.0787 207.2 32.4947 207.544 32.7827 207.992C33.0707 208.44 33.2147 208.972 33.2147 209.588C33.2147 210.22 33.0587 210.764 32.7467 211.22C32.4427 211.676 32.0027 212.016 31.4267 212.24L33.3587 215H31.6787ZM31.6427 209.588C31.6427 209.052 31.4667 208.64 31.1147 208.352C30.7627 208.064 30.2467 207.92 29.5667 207.92H27.7427V211.268H29.5667C30.2467 211.268 30.7627 211.124 31.1147 210.836C31.4667 210.54 31.6427 210.124 31.6427 209.588ZM43.7724 215L42.0564 212.54C41.9844 212.548 41.8764 212.552 41.7324 212.552H39.8364V215H38.2764V206.6H41.7324C42.4604 206.6 43.0924 206.72 43.6284 206.96C44.1724 207.2 44.5884 207.544 44.8764 207.992C45.1644 208.44 45.3084 208.972 45.3084 209.588C45.3084 210.22 45.1524 210.764 44.8404 211.22C44.5364 211.676 44.0964 212.016 43.5204 212.24L45.4524 215H43.7724ZM43.7364 209.588C43.7364 209.052 43.5604 208.64 43.2084 208.352C42.8564 208.064 42.3404 207.92 41.6604 207.92H39.8364V211.268H41.6604C42.3404 211.268 42.8564 211.124 43.2084 210.836C43.5604 210.54 43.7364 210.124 43.7364 209.588ZM53.3538 213.692V215H47.0538V206.6H53.1858V207.908H48.6138V210.092H52.6698V211.376H48.6138V213.692H53.3538ZM57.6968 215.12C57.0488 215.12 56.4208 215.028 55.8128 214.844C55.2128 214.66 54.7368 214.416 54.3848 214.112L54.9248 212.9C55.2688 213.172 55.6888 213.396 56.1848 213.572C56.6888 213.74 57.1928 213.824 57.6968 213.824C58.3208 213.824 58.7848 213.724 59.0888 213.524C59.4008 213.324 59.5568 213.06 59.5568 212.732C59.5568 212.492 59.4688 212.296 59.2928 212.144C59.1248 211.984 58.9088 211.86 58.6448 211.772C58.3808 211.684 58.0208 211.584 57.5648 211.472C56.9248 211.32 56.4048 211.168 56.0048 211.016C55.6128 210.864 55.2728 210.628 54.9848 210.308C54.7048 209.98 54.5648 209.54 54.5648 208.988C54.5648 208.524 54.6888 208.104 54.9368 207.728C55.1928 207.344 55.5728 207.04 56.0768 206.816C56.5888 206.592 57.2128 206.48 57.9488 206.48C58.4608 206.48 58.9648 206.544 59.4608 206.672C59.9568 206.8 60.3848 206.984 60.7448 207.224L60.2528 208.436C59.8848 208.22 59.5008 208.056 59.1008 207.944C58.7008 207.832 58.3128 207.776 57.9368 207.776C57.3208 207.776 56.8608 207.88 56.5568 208.088C56.2608 208.296 56.1128 208.572 56.1128 208.916C56.1128 209.156 56.1968 209.352 56.3648 209.504C56.5408 209.656 56.7608 209.776 57.0248 209.864C57.2888 209.952 57.6488 210.052 58.1048 210.164C58.7288 210.308 59.2408 210.46 59.6408 210.62C60.0408 210.772 60.3808 211.008 60.6608 211.328C60.9488 211.648 61.0928 212.08 61.0928 212.624C61.0928 213.088 60.9648 213.508 60.7088 213.884C60.4608 214.26 60.0808 214.56 59.5688 214.784C59.0568 215.008 58.4328 215.12 57.6968 215.12ZM68.9397 213.692V215H62.6397V206.6H68.7717V207.908H64.1997V210.092H68.2557V211.376H64.1997V213.692H68.9397ZM76.1268 213.056H71.9268L71.0988 215H69.4908L73.2708 206.6H74.8068L78.5988 215H76.9668L76.1268 213.056ZM75.6108 211.832L74.0268 208.16L72.4548 211.832H75.6108ZM85.1631 215L83.4471 212.54C83.3751 212.548 83.2671 212.552 83.1231 212.552H81.2271V215H79.6671V206.6H83.1231C83.8511 206.6 84.4831 206.72 85.0191 206.96C85.5631 207.2 85.9791 207.544 86.2671 207.992C86.5551 208.44 86.6991 208.972 86.6991 209.588C86.6991 210.22 86.5431 210.764 86.2311 211.22C85.9271 211.676 85.4871 212.016 84.9111 212.24L86.8431 215H85.1631ZM85.1271 209.588C85.1271 209.052 84.9511 208.64 84.5991 208.352C84.2471 208.064 83.7311 207.92 83.0511 207.92H81.2271V211.268H83.0511C83.7311 211.268 84.2471 211.124 84.5991 210.836C84.9511 210.54 85.1271 210.124 85.1271 209.588ZM92.3324 215.12C91.4844 215.12 90.7164 214.936 90.0284 214.568C89.3484 214.192 88.8124 213.676 88.4204 213.02C88.0364 212.364 87.8444 211.624 87.8444 210.8C87.8444 209.976 88.0404 209.236 88.4324 208.58C88.8244 207.924 89.3604 207.412 90.0404 207.044C90.7284 206.668 91.4964 206.48 92.3444 206.48C93.0324 206.48 93.6604 206.6 94.2284 206.84C94.7964 207.08 95.2764 207.428 95.6684 207.884L94.6604 208.832C94.0524 208.176 93.3044 207.848 92.4164 207.848C91.8404 207.848 91.3244 207.976 90.8684 208.232C90.4124 208.48 90.0564 208.828 89.8004 209.276C89.5444 209.724 89.4164 210.232 89.4164 210.8C89.4164 211.368 89.5444 211.876 89.8004 212.324C90.0564 212.772 90.4124 213.124 90.8684 213.38C91.3244 213.628 91.8404 213.752 92.4164 213.752C93.3044 213.752 94.0524 213.42 94.6604 212.756L95.6684 213.716C95.2764 214.172 94.7924 214.52 94.2164 214.76C93.6484 215 93.0204 215.12 92.3324 215.12ZM104.627 206.6V215H103.067V211.4H98.7232V215H97.1632V206.6H98.7232V210.068H103.067V206.6H104.627Z" fill="#202020"/>
<path d="M4.584 235.6C5.312 235.6 5.944 235.72 6.48 235.96C7.024 236.2 7.44 236.544 7.728 236.992C8.016 237.44 8.16 237.972 8.16 238.588C8.16 239.196 8.016 239.728 7.728 240.184C7.44 240.632 7.024 240.976 6.48 241.216C5.944 241.456 5.312 241.576 4.584 241.576H2.688V244H1.128V235.6H4.584ZM4.512 240.256C5.192 240.256 5.708 240.112 6.06 239.824C6.412 239.536 6.588 239.124 6.588 238.588C6.588 238.052 6.412 237.64 6.06 237.352C5.708 237.064 5.192 236.92 4.512 236.92H2.688V240.256H4.512ZM15.2138 244L13.4978 241.54C13.4258 241.548 13.3178 241.552 13.1738 241.552H11.2778V244H9.71784V235.6H13.1738C13.9018 235.6 14.5338 235.72 15.0698 235.96C15.6138 236.2 16.0298 236.544 16.3178 236.992C16.6058 237.44 16.7498 237.972 16.7498 238.588C16.7498 239.22 16.5938 239.764 16.2818 240.22C15.9778 240.676 15.5378 241.016 14.9618 241.24L16.8938 244H15.2138ZM15.1778 238.588C15.1778 238.052 15.0018 237.64 14.6498 237.352C14.2978 237.064 13.7818 236.92 13.1018 236.92H11.2778V240.268H13.1018C13.7818 240.268 14.2978 240.124 14.6498 239.836C15.0018 239.54 15.1778 239.124 15.1778 238.588ZM22.4192 244.12C21.5632 244.12 20.7912 243.936 20.1032 243.568C19.4152 243.192 18.8752 242.676 18.4832 242.02C18.0912 241.356 17.8952 240.616 17.8952 239.8C17.8952 238.984 18.0912 238.248 18.4832 237.592C18.8752 236.928 19.4152 236.412 20.1032 236.044C20.7912 235.668 21.5632 235.48 22.4192 235.48C23.2752 235.48 24.0472 235.668 24.7352 236.044C25.4232 236.412 25.9632 236.924 26.3552 237.58C26.7472 238.236 26.9432 238.976 26.9432 239.8C26.9432 240.624 26.7472 241.364 26.3552 242.02C25.9632 242.676 25.4232 243.192 24.7352 243.568C24.0472 243.936 23.2752 244.12 22.4192 244.12ZM22.4192 242.752C22.9792 242.752 23.4832 242.628 23.9312 242.38C24.3792 242.124 24.7312 241.772 24.9872 241.324C25.2432 240.868 25.3712 240.36 25.3712 239.8C25.3712 239.24 25.2432 238.736 24.9872 238.288C24.7312 237.832 24.3792 237.48 23.9312 237.232C23.4832 236.976 22.9792 236.848 22.4192 236.848C21.8592 236.848 21.3552 236.976 20.9072 237.232C20.4592 237.48 20.1072 237.832 19.8512 238.288C19.5952 238.736 19.4672 239.24 19.4672 239.8C19.4672 240.36 19.5952 240.868 19.8512 241.324C20.1072 241.772 20.4592 242.124 20.9072 242.38C21.3552 242.628 21.8592 242.752 22.4192 242.752ZM28.5968 235.6H32.2688C33.1648 235.6 33.9608 235.776 34.6568 236.128C35.3528 236.472 35.8928 236.964 36.2768 237.604C36.6608 238.236 36.8528 238.968 36.8528 239.8C36.8528 240.632 36.6608 241.368 36.2768 242.008C35.8928 242.64 35.3528 243.132 34.6568 243.484C33.9608 243.828 33.1648 244 32.2688 244H28.5968V235.6ZM32.1968 242.68C32.8128 242.68 33.3528 242.564 33.8168 242.332C34.2888 242.092 34.6488 241.756 34.8968 241.324C35.1528 240.884 35.2808 240.376 35.2808 239.8C35.2808 239.224 35.1528 238.72 34.8968 238.288C34.6488 237.848 34.2888 237.512 33.8168 237.28C33.3528 237.04 32.8128 236.92 32.1968 236.92H30.1568V242.68H32.1968ZM42.1228 244.12C40.9628 244.12 40.0588 243.796 39.4108 243.148C38.7628 242.492 38.4388 241.556 38.4388 240.34V235.6H39.9988V240.28C39.9988 241.928 40.7108 242.752 42.1348 242.752C43.5508 242.752 44.2588 241.928 44.2588 240.28V235.6H45.7948V240.34C45.7948 241.556 45.4708 242.492 44.8228 243.148C44.1828 243.796 43.2828 244.12 42.1228 244.12ZM51.8676 244.12C51.0196 244.12 50.2516 243.936 49.5636 243.568C48.8836 243.192 48.3476 242.676 47.9556 242.02C47.5716 241.364 47.3796 240.624 47.3796 239.8C47.3796 238.976 47.5756 238.236 47.9676 237.58C48.3596 236.924 48.8956 236.412 49.5756 236.044C50.2636 235.668 51.0316 235.48 51.8796 235.48C52.5676 235.48 53.1956 235.6 53.7636 235.84C54.3316 236.08 54.8116 236.428 55.2036 236.884L54.1956 237.832C53.5876 237.176 52.8396 236.848 51.9516 236.848C51.3756 236.848 50.8596 236.976 50.4036 237.232C49.9476 237.48 49.5916 237.828 49.3356 238.276C49.0796 238.724 48.9516 239.232 48.9516 239.8C48.9516 240.368 49.0796 240.876 49.3356 241.324C49.5916 241.772 49.9476 242.124 50.4036 242.38C50.8596 242.628 51.3756 242.752 51.9516 242.752C52.8396 242.752 53.5876 242.42 54.1956 241.756L55.2036 242.716C54.8116 243.172 54.3276 243.52 53.7516 243.76C53.1836 244 52.5556 244.12 51.8676 244.12ZM58.3086 236.92H55.5246V235.6H62.6526V236.92H59.8686V244H58.3086V236.92ZM67.1397 235.6H70.8117C71.7077 235.6 72.5037 235.776 73.1997 236.128C73.8957 236.472 74.4357 236.964 74.8197 237.604C75.2037 238.236 75.3957 238.968 75.3957 239.8C75.3957 240.632 75.2037 241.368 74.8197 242.008C74.4357 242.64 73.8957 243.132 73.1997 243.484C72.5037 243.828 71.7077 244 70.8117 244H67.1397V235.6ZM70.7397 242.68C71.3557 242.68 71.8957 242.564 72.3597 242.332C72.8317 242.092 73.1917 241.756 73.4397 241.324C73.6957 240.884 73.8237 240.376 73.8237 239.8C73.8237 239.224 73.6957 238.72 73.4397 238.288C73.1917 237.848 72.8317 237.512 72.3597 237.28C71.8957 237.04 71.3557 236.92 70.7397 236.92H68.6997V242.68H70.7397ZM83.3538 242.692V244H77.0538V235.6H83.1858V236.908H78.6138V239.092H82.6698V240.376H78.6138V242.692H83.3538ZM87.6968 244.12C87.0488 244.12 86.4208 244.028 85.8128 243.844C85.2128 243.66 84.7368 243.416 84.3848 243.112L84.9248 241.9C85.2688 242.172 85.6888 242.396 86.1848 242.572C86.6888 242.74 87.1928 242.824 87.6968 242.824C88.3208 242.824 88.7848 242.724 89.0888 242.524C89.4008 242.324 89.5568 242.06 89.5568 241.732C89.5568 241.492 89.4688 241.296 89.2928 241.144C89.1248 240.984 88.9088 240.86 88.6448 240.772C88.3808 240.684 88.0208 240.584 87.5648 240.472C86.9248 240.32 86.4048 240.168 86.0048 240.016C85.6128 239.864 85.2728 239.628 84.9848 239.308C84.7048 238.98 84.5648 238.54 84.5648 237.988C84.5648 237.524 84.6888 237.104 84.9368 236.728C85.1928 236.344 85.5728 236.04 86.0768 235.816C86.5888 235.592 87.2128 235.48 87.9488 235.48C88.4608 235.48 88.9648 235.544 89.4608 235.672C89.9568 235.8 90.3848 235.984 90.7448 236.224L90.2528 237.436C89.8848 237.22 89.5008 237.056 89.1008 236.944C88.7008 236.832 88.3128 236.776 87.9368 236.776C87.3208 236.776 86.8608 236.88 86.5568 237.088C86.2608 237.296 86.1128 237.572 86.1128 237.916C86.1128 238.156 86.1968 238.352 86.3648 238.504C86.5408 238.656 86.7608 238.776 87.0248 238.864C87.2888 238.952 87.6488 239.052 88.1048 239.164C88.7288 239.308 89.2408 239.46 89.6408 239.62C90.0408 239.772 90.3808 240.008 90.6608 240.328C90.9488 240.648 91.0928 241.08 91.0928 241.624C91.0928 242.088 90.9648 242.508 90.7088 242.884C90.4608 243.26 90.0808 243.56 89.5688 243.784C89.0568 244.008 88.4328 244.12 87.6968 244.12ZM92.6397 235.6H94.1997V244H92.6397V235.6ZM102.208 239.704H103.684V243.052C103.252 243.396 102.748 243.66 102.172 243.844C101.596 244.028 101.004 244.12 100.396 244.12C99.5398 244.12 98.7678 243.936 98.0798 243.568C97.3918 243.192 96.8518 242.676 96.4598 242.02C96.0678 241.364 95.8718 240.624 95.8718 239.8C95.8718 238.976 96.0678 238.236 96.4598 237.58C96.8518 236.924 97.3918 236.412 98.0798 236.044C98.7758 235.668 99.5558 235.48 100.42 235.48C101.124 235.48 101.764 235.596 102.34 235.828C102.916 236.06 103.4 236.4 103.792 236.848L102.808 237.808C102.168 237.168 101.396 236.848 100.492 236.848C99.8998 236.848 99.3718 236.972 98.9078 237.22C98.4518 237.468 98.0918 237.816 97.8278 238.264C97.5718 238.712 97.4438 239.224 97.4438 239.8C97.4438 240.36 97.5718 240.864 97.8278 241.312C98.0918 241.76 98.4518 242.112 98.9078 242.368C99.3718 242.624 99.8958 242.752 100.48 242.752C101.136 242.752 101.712 242.608 102.208 242.32V239.704ZM113.205 235.6V244H111.921L107.289 238.312V244H105.741V235.6H107.025L111.657 241.288V235.6H113.205Z" fill="#202020"/>
<path d="M3.732 273.12C3.084 273.12 2.456 273.028 1.848 272.844C1.248 272.66 0.772 272.416 0.42 272.112L0.96 270.9C1.304 271.172 1.724 271.396 2.22 271.572C2.724 271.74 3.228 271.824 3.732 271.824C4.356 271.824 4.82 271.724 5.124 271.524C5.436 271.324 5.592 271.06 5.592 270.732C5.592 270.492 5.504 270.296 5.328 270.144C5.16 269.984 4.944 269.86 4.68 269.772C4.416 269.684 4.056 269.584 3.6 269.472C2.96 269.32 2.44 269.168 2.04 269.016C1.648 268.864 1.308 268.628 1.02 268.308C0.74 267.98 0.6 267.54 0.6 266.988C0.6 266.524 0.724 266.104 0.972 265.728C1.228 265.344 1.608 265.04 2.112 264.816C2.624 264.592 3.248 264.48 3.984 264.48C4.496 264.48 5 264.544 5.496 264.672C5.992 264.8 6.42 264.984 6.78 265.224L6.288 266.436C5.92 266.22 5.536 266.056 5.136 265.944C4.736 265.832 4.348 265.776 3.972 265.776C3.356 265.776 2.896 265.88 2.592 266.088C2.296 266.296 2.148 266.572 2.148 266.916C2.148 267.156 2.232 267.352 2.4 267.504C2.576 267.656 2.796 267.776 3.06 267.864C3.324 267.952 3.684 268.052 4.14 268.164C4.764 268.308 5.276 268.46 5.676 268.62C6.076 268.772 6.416 269.008 6.696 269.328C6.984 269.648 7.128 270.08 7.128 270.624C7.128 271.088 7 271.508 6.744 271.884C6.496 272.26 6.116 272.56 5.604 272.784C5.092 273.008 4.468 273.12 3.732 273.12ZM10.2617 265.92H7.47769V264.6H14.6057V265.92H11.8217V273H10.2617V265.92ZM19.5833 273.12C18.7273 273.12 17.9553 272.936 17.2673 272.568C16.5793 272.192 16.0393 271.676 15.6473 271.02C15.2553 270.356 15.0593 269.616 15.0593 268.8C15.0593 267.984 15.2553 267.248 15.6473 266.592C16.0393 265.928 16.5793 265.412 17.2673 265.044C17.9553 264.668 18.7273 264.48 19.5833 264.48C20.4393 264.48 21.2113 264.668 21.8993 265.044C22.5873 265.412 23.1273 265.924 23.5193 266.58C23.9113 267.236 24.1073 267.976 24.1073 268.8C24.1073 269.624 23.9113 270.364 23.5193 271.02C23.1273 271.676 22.5873 272.192 21.8993 272.568C21.2113 272.936 20.4393 273.12 19.5833 273.12ZM19.5833 271.752C20.1433 271.752 20.6473 271.628 21.0953 271.38C21.5433 271.124 21.8953 270.772 22.1513 270.324C22.4073 269.868 22.5353 269.36 22.5353 268.8C22.5353 268.24 22.4073 267.736 22.1513 267.288C21.8953 266.832 21.5433 266.48 21.0953 266.232C20.6473 265.976 20.1433 265.848 19.5833 265.848C19.0233 265.848 18.5193 265.976 18.0713 266.232C17.6233 266.48 17.2713 266.832 17.0153 267.288C16.7593 267.736 16.6313 268.24 16.6313 268.8C16.6313 269.36 16.7593 269.868 17.0153 270.324C17.2713 270.772 17.6233 271.124 18.0713 271.38C18.5193 271.628 19.0233 271.752 19.5833 271.752ZM31.2568 273L29.5408 270.54C29.4688 270.548 29.3608 270.552 29.2168 270.552H27.3208V273H25.7608V264.6H29.2168C29.9448 264.6 30.5768 264.72 31.1128 264.96C31.6568 265.2 32.0728 265.544 32.3608 265.992C32.6488 266.44 32.7928 266.972 32.7928 267.588C32.7928 268.22 32.6368 268.764 32.3248 269.22C32.0208 269.676 31.5808 270.016 31.0048 270.24L32.9368 273H31.2568ZM31.2208 267.588C31.2208 267.052 31.0448 266.64 30.6928 266.352C30.3408 266.064 29.8248 265.92 29.1448 265.92H27.3208V269.268H29.1448C29.8248 269.268 30.3408 269.124 30.6928 268.836C31.0448 268.54 31.2208 268.124 31.2208 267.588ZM38.045 270.036V273H36.485V270.06L33.185 264.6H34.853L37.313 268.692L39.797 264.6H41.333L38.045 270.036ZM43.9414 265.92H41.1574V264.6H48.2854V265.92H45.5014V273H43.9414V265.92ZM55.7561 271.692V273H49.4561V264.6H55.5881V265.908H51.0161V268.092H55.0721V269.376H51.0161V271.692H55.7561ZM57.4952 264.6H59.0552V271.68H63.4472V273H57.4952V264.6ZM64.6788 264.6H66.2388V271.68H70.6308V273H64.6788V264.6ZM71.8624 264.6H73.4224V273H71.8624V264.6ZM83.1584 264.6V273H81.8744L77.2424 267.312V273H75.6944V264.6H76.9784L81.6104 270.288V264.6H83.1584ZM91.1453 268.704H92.6213V272.052C92.1893 272.396 91.6853 272.66 91.1093 272.844C90.5333 273.028 89.9413 273.12 89.3333 273.12C88.4773 273.12 87.7053 272.936 87.0173 272.568C86.3293 272.192 85.7893 271.676 85.3973 271.02C85.0053 270.364 84.8093 269.624 84.8093 268.8C84.8093 267.976 85.0053 267.236 85.3973 266.58C85.7893 265.924 86.3293 265.412 87.0173 265.044C87.7133 264.668 88.4933 264.48 89.3573 264.48C90.0613 264.48 90.7013 264.596 91.2773 264.828C91.8533 265.06 92.3373 265.4 92.7293 265.848L91.7453 266.808C91.1053 266.168 90.3333 265.848 89.4293 265.848C88.8373 265.848 88.3093 265.972 87.8453 266.22C87.3893 266.468 87.0293 266.816 86.7653 267.264C86.5093 267.712 86.3813 268.224 86.3813 268.8C86.3813 269.36 86.5093 269.864 86.7653 270.312C87.0293 270.76 87.3893 271.112 87.8453 271.368C88.3093 271.624 88.8333 271.752 89.4173 271.752C90.0733 271.752 90.6493 271.608 91.1453 271.32V268.704Z" fill="#202020"/>
<path d="M645.982 10.248C646.488 10.248 646.943 10.347 647.346 10.545C647.749 10.7357 648.065 11.0107 648.292 11.37C648.519 11.7293 648.633 12.1437 648.633 12.613C648.633 13.1117 648.508 13.5517 648.259 13.933C648.01 14.307 647.672 14.5967 647.247 14.802C646.822 15.0073 646.345 15.11 645.817 15.11C644.761 15.11 643.94 14.78 643.353 14.12C642.774 13.46 642.484 12.514 642.484 11.282C642.484 10.4167 642.642 9.67967 642.957 9.071C643.272 8.455 643.712 7.98933 644.277 7.674C644.849 7.35133 645.509 7.19 646.257 7.19C646.653 7.19 647.023 7.234 647.368 7.322C647.72 7.40267 648.024 7.52367 648.281 7.685L647.753 8.763C647.372 8.51367 646.884 8.389 646.29 8.389C645.549 8.389 644.97 8.61633 644.552 9.071C644.134 9.52567 643.925 10.182 643.925 11.04V11.051C644.152 10.787 644.442 10.589 644.794 10.457C645.146 10.3177 645.542 10.248 645.982 10.248ZM645.74 13.988C646.187 13.988 646.55 13.8707 646.829 13.636C647.108 13.394 647.247 13.075 647.247 12.679C647.247 12.2757 647.108 11.9567 646.829 11.722C646.55 11.4873 646.176 11.37 645.707 11.37C645.245 11.37 644.867 11.4947 644.574 11.744C644.288 11.9933 644.145 12.3087 644.145 12.69C644.145 13.064 644.284 13.3757 644.563 13.625C644.849 13.867 645.241 13.988 645.74 13.988ZM652.042 7.3V15H650.612V8.499H648.984V7.3H652.042ZM655.286 11.447C654.736 11.447 654.292 11.2527 653.955 10.864C653.618 10.4753 653.449 9.96567 653.449 9.335C653.449 8.70433 653.618 8.19467 653.955 7.806C654.292 7.41733 654.736 7.223 655.286 7.223C655.836 7.223 656.28 7.41733 656.617 7.806C656.962 8.18733 657.134 8.697 657.134 9.335C657.134 9.973 656.962 10.4863 656.617 10.875C656.28 11.2563 655.836 11.447 655.286 11.447ZM659.906 7.3H660.984L655.726 15H654.648L659.906 7.3ZM655.286 10.677C655.587 10.677 655.818 10.5597 655.979 10.325C656.148 10.0903 656.232 9.76033 656.232 9.335C656.232 8.90967 656.148 8.57967 655.979 8.345C655.818 8.11033 655.587 7.993 655.286 7.993C655 7.993 654.769 8.114 654.593 8.356C654.424 8.59067 654.34 8.917 654.34 9.335C654.34 9.753 654.424 10.083 654.593 10.325C654.769 10.5597 655 10.677 655.286 10.677ZM660.335 15.077C659.785 15.077 659.341 14.8827 659.004 14.494C658.667 14.1053 658.498 13.5957 658.498 12.965C658.498 12.3343 658.667 11.8247 659.004 11.436C659.341 11.0473 659.785 10.853 660.335 10.853C660.885 10.853 661.329 11.0473 661.666 11.436C662.011 11.8247 662.183 12.3343 662.183 12.965C662.183 13.5957 662.011 14.1053 661.666 14.494C661.329 14.8827 660.885 15.077 660.335 15.077ZM660.335 14.307C660.628 14.307 660.859 14.1897 661.028 13.955C661.197 13.713 661.281 13.383 661.281 12.965C661.281 12.547 661.197 12.2207 661.028 11.986C660.859 11.744 660.628 11.623 660.335 11.623C660.042 11.623 659.811 11.7403 659.642 11.975C659.473 12.2097 659.389 12.5397 659.389 12.965C659.389 13.3903 659.473 13.7203 659.642 13.955C659.811 14.1897 660.042 14.307 660.335 14.307ZM669.132 15.077C668.538 15.077 668.003 14.9487 667.526 14.692C667.049 14.4353 666.675 14.0797 666.404 13.625C666.14 13.163 666.008 12.6423 666.008 12.063C666.008 11.4837 666.14 10.9667 666.404 10.512C666.675 10.0573 667.049 9.70167 667.526 9.445C668.003 9.18833 668.538 9.06 669.132 9.06C669.733 9.06 670.272 9.18833 670.749 9.445C671.226 9.70167 671.596 10.0573 671.86 10.512C672.131 10.9667 672.267 11.4837 672.267 12.063C672.267 12.6423 672.131 13.163 671.86 13.625C671.596 14.0797 671.226 14.4353 670.749 14.692C670.272 14.9487 669.733 15.077 669.132 15.077ZM669.132 13.9C669.638 13.9 670.056 13.7313 670.386 13.394C670.716 13.0567 670.881 12.613 670.881 12.063C670.881 11.513 670.716 11.0693 670.386 10.732C670.056 10.3947 669.638 10.226 669.132 10.226C668.626 10.226 668.208 10.3947 667.878 10.732C667.555 11.0693 667.394 11.513 667.394 12.063C667.394 12.613 667.555 13.0567 667.878 13.394C668.208 13.7313 668.626 13.9 669.132 13.9ZM675.969 7.872C675.389 7.872 675.1 8.18733 675.1 8.818V9.17H676.717V10.27H675.144V15H673.769V10.27H672.801V9.17H673.769V8.796C673.769 8.16533 673.952 7.67033 674.319 7.311C674.685 6.94433 675.202 6.761 675.87 6.761C676.398 6.761 676.812 6.86733 677.113 7.08L676.728 8.114C676.493 7.95267 676.24 7.872 675.969 7.872ZM688.096 9.06C688.837 9.06 689.424 9.27633 689.856 9.709C690.289 10.1343 690.505 10.776 690.505 11.634V15H689.13V11.81C689.13 11.2967 689.017 10.9117 688.789 10.655C688.562 10.391 688.236 10.259 687.81 10.259C687.348 10.259 686.978 10.413 686.699 10.721C686.421 11.0217 686.281 11.4543 686.281 12.019V15H684.906V11.81C684.906 11.2967 684.793 10.9117 684.565 10.655C684.338 10.391 684.012 10.259 683.586 10.259C683.117 10.259 682.743 10.4093 682.464 10.71C682.193 11.0107 682.057 11.447 682.057 12.019V15H680.682V9.126H681.991V9.874C682.211 9.61 682.486 9.40833 682.816 9.269C683.146 9.12967 683.513 9.06 683.916 9.06C684.356 9.06 684.745 9.14433 685.082 9.313C685.427 9.47433 685.698 9.71633 685.896 10.039C686.138 9.731 686.45 9.49267 686.831 9.324C687.213 9.148 687.634 9.06 688.096 9.06ZM697.838 12.096C697.838 12.1913 697.831 12.327 697.816 12.503H693.207C693.288 12.9357 693.497 13.2803 693.834 13.537C694.179 13.7863 694.604 13.911 695.11 13.911C695.755 13.911 696.287 13.6983 696.705 13.273L697.442 14.12C697.178 14.4353 696.844 14.6737 696.441 14.835C696.038 14.9963 695.583 15.077 695.077 15.077C694.432 15.077 693.863 14.9487 693.372 14.692C692.881 14.4353 692.499 14.0797 692.228 13.625C691.964 13.163 691.832 12.6423 691.832 12.063C691.832 11.491 691.96 10.9777 692.217 10.523C692.481 10.061 692.844 9.70167 693.306 9.445C693.768 9.18833 694.289 9.06 694.868 9.06C695.44 9.06 695.95 9.18833 696.397 9.445C696.852 9.69433 697.204 10.05 697.453 10.512C697.71 10.9667 697.838 11.4947 697.838 12.096ZM694.868 10.16C694.428 10.16 694.054 10.292 693.746 10.556C693.445 10.8127 693.262 11.1573 693.196 11.59H696.529C696.47 11.1647 696.291 10.82 695.99 10.556C695.689 10.292 695.315 10.16 694.868 10.16ZM706.573 9.06C707.314 9.06 707.9 9.27633 708.333 9.709C708.766 10.1343 708.982 10.776 708.982 11.634V15H707.607V11.81C707.607 11.2967 707.493 10.9117 707.266 10.655C707.039 10.391 706.712 10.259 706.287 10.259C705.825 10.259 705.455 10.413 705.176 10.721C704.897 11.0217 704.758 11.4543 704.758 12.019V15H703.383V11.81C703.383 11.2967 703.269 10.9117 703.042 10.655C702.815 10.391 702.488 10.259 702.063 10.259C701.594 10.259 701.22 10.4093 700.941 10.71C700.67 11.0107 700.534 11.447 700.534 12.019V15H699.159V9.126H700.468V9.874C700.688 9.61 700.963 9.40833 701.293 9.269C701.623 9.12967 701.99 9.06 702.393 9.06C702.833 9.06 703.222 9.14433 703.559 9.313C703.904 9.47433 704.175 9.71633 704.373 10.039C704.615 9.731 704.927 9.49267 705.308 9.324C705.689 9.148 706.111 9.06 706.573 9.06ZM713.995 9.06C714.567 9.06 715.077 9.18467 715.524 9.434C715.979 9.68333 716.334 10.0353 716.591 10.49C716.848 10.9447 716.976 11.469 716.976 12.063C716.976 12.657 716.848 13.185 716.591 13.647C716.334 14.1017 715.979 14.4537 715.524 14.703C715.077 14.9523 714.567 15.077 713.995 15.077C713.592 15.077 713.221 15.0073 712.884 14.868C712.554 14.7287 712.275 14.5197 712.048 14.241V15H710.739V6.838H712.114V9.841C712.349 9.58433 712.624 9.39 712.939 9.258C713.262 9.126 713.614 9.06 713.995 9.06ZM713.841 13.9C714.347 13.9 714.761 13.7313 715.084 13.394C715.414 13.0567 715.579 12.613 715.579 12.063C715.579 11.513 715.414 11.0693 715.084 10.732C714.761 10.3947 714.347 10.226 713.841 10.226C713.511 10.226 713.214 10.303 712.95 10.457C712.686 10.6037 712.477 10.8163 712.323 11.095C712.169 11.3737 712.092 11.6963 712.092 12.063C712.092 12.4297 712.169 12.7523 712.323 13.031C712.477 13.3097 712.686 13.526 712.95 13.68C713.214 13.8267 713.511 13.9 713.841 13.9ZM723.802 12.096C723.802 12.1913 723.795 12.327 723.78 12.503H719.171C719.252 12.9357 719.461 13.2803 719.798 13.537C720.143 13.7863 720.568 13.911 721.074 13.911C721.719 13.911 722.251 13.6983 722.669 13.273L723.406 14.12C723.142 14.4353 722.808 14.6737 722.405 14.835C722.002 14.9963 721.547 15.077 721.041 15.077C720.396 15.077 719.827 14.9487 719.336 14.692C718.845 14.4353 718.463 14.0797 718.192 13.625C717.928 13.163 717.796 12.6423 717.796 12.063C717.796 11.491 717.924 10.9777 718.181 10.523C718.445 10.061 718.808 9.70167 719.27 9.445C719.732 9.18833 720.253 9.06 720.832 9.06C721.404 9.06 721.914 9.18833 722.361 9.445C722.816 9.69433 723.168 10.05 723.417 10.512C723.674 10.9667 723.802 11.4947 723.802 12.096ZM720.832 10.16C720.392 10.16 720.018 10.292 719.71 10.556C719.409 10.8127 719.226 11.1573 719.16 11.59H722.493C722.434 11.1647 722.255 10.82 721.954 10.556C721.653 10.292 721.279 10.16 720.832 10.16ZM726.432 9.984C726.828 9.368 727.524 9.06 728.522 9.06V10.369C728.404 10.347 728.298 10.336 728.203 10.336C727.667 10.336 727.249 10.4937 726.949 10.809C726.648 11.117 726.498 11.5643 726.498 12.151V15H725.123V9.126H726.432V9.984ZM731.525 15.077C731.048 15.077 730.582 15.0147 730.128 14.89C729.673 14.7653 729.31 14.6077 729.039 14.417L729.567 13.372C729.831 13.548 730.146 13.691 730.513 13.801C730.887 13.9037 731.253 13.955 731.613 13.955C732.434 13.955 732.845 13.7387 732.845 13.306C732.845 13.1007 732.738 12.9577 732.526 12.877C732.32 12.7963 731.987 12.7193 731.525 12.646C731.041 12.5727 730.645 12.4883 730.337 12.393C730.036 12.2977 729.772 12.1327 729.545 11.898C729.325 11.656 729.215 11.3223 729.215 10.897C729.215 10.3397 729.446 9.896 729.908 9.566C730.377 9.22867 731.008 9.06 731.8 9.06C732.203 9.06 732.606 9.10767 733.01 9.203C733.413 9.291 733.743 9.412 734 9.566L733.472 10.611C732.973 10.3177 732.412 10.171 731.789 10.171C731.385 10.171 731.077 10.2333 730.865 10.358C730.659 10.4753 730.557 10.633 730.557 10.831C730.557 11.051 730.667 11.2087 730.887 11.304C731.114 11.392 731.462 11.4763 731.932 11.557C732.401 11.6303 732.786 11.7147 733.087 11.81C733.387 11.9053 733.644 12.0667 733.857 12.294C734.077 12.5213 734.187 12.844 734.187 13.262C734.187 13.812 733.948 14.252 733.472 14.582C732.995 14.912 732.346 15.077 731.525 15.077Z" fill="black"/>
<path d="M408.762 39.479C409.473 39.567 410.016 39.809 410.39 40.205C410.764 40.601 410.951 41.096 410.951 41.69C410.951 42.1373 410.837 42.5443 410.61 42.911C410.383 43.2777 410.038 43.571 409.576 43.791C409.121 44.0037 408.564 44.11 407.904 44.11C407.354 44.11 406.822 44.033 406.309 43.879C405.803 43.7177 405.37 43.4977 405.011 43.219L405.627 42.108C405.906 42.3427 406.243 42.5297 406.639 42.669C407.042 42.801 407.457 42.867 407.882 42.867C408.388 42.867 408.784 42.7643 409.07 42.559C409.363 42.3463 409.51 42.0603 409.51 41.701C409.51 41.3417 409.371 41.063 409.092 40.865C408.821 40.6597 408.403 40.557 407.838 40.557H407.134V39.578L408.883 37.499H405.385V36.3H410.632V37.257L408.762 39.479ZM417.41 42.79V44H411.734V43.043L414.792 40.139C415.136 39.809 415.367 39.523 415.485 39.281C415.609 39.0317 415.672 38.786 415.672 38.544C415.672 38.1847 415.551 37.9097 415.309 37.719C415.067 37.5283 414.711 37.433 414.242 37.433C413.457 37.433 412.856 37.7007 412.438 38.236L411.437 37.466C411.737 37.0627 412.141 36.751 412.647 36.531C413.16 36.3037 413.732 36.19 414.363 36.19C415.199 36.19 415.866 36.388 416.365 36.784C416.863 37.18 417.113 37.719 417.113 38.401C417.113 38.819 417.025 39.2113 416.849 39.578C416.673 39.9447 416.335 40.3627 415.837 40.832L413.78 42.79H417.41ZM420.058 40.447C419.508 40.447 419.065 40.2527 418.727 39.864C418.39 39.4753 418.221 38.9657 418.221 38.335C418.221 37.7043 418.39 37.1947 418.727 36.806C419.065 36.4173 419.508 36.223 420.058 36.223C420.608 36.223 421.052 36.4173 421.389 36.806C421.734 37.1873 421.906 37.697 421.906 38.335C421.906 38.973 421.734 39.4863 421.389 39.875C421.052 40.2563 420.608 40.447 420.058 40.447ZM424.678 36.3H425.756L420.498 44H419.42L424.678 36.3ZM420.058 39.677C420.359 39.677 420.59 39.5597 420.751 39.325C420.92 39.0903 421.004 38.7603 421.004 38.335C421.004 37.9097 420.92 37.5797 420.751 37.345C420.59 37.1103 420.359 36.993 420.058 36.993C419.772 36.993 419.541 37.114 419.365 37.356C419.197 37.5907 419.112 37.917 419.112 38.335C419.112 38.753 419.197 39.083 419.365 39.325C419.541 39.5597 419.772 39.677 420.058 39.677ZM425.107 44.077C424.557 44.077 424.114 43.8827 423.776 43.494C423.439 43.1053 423.27 42.5957 423.27 41.965C423.27 41.3343 423.439 40.8247 423.776 40.436C424.114 40.0473 424.557 39.853 425.107 39.853C425.657 39.853 426.101 40.0473 426.438 40.436C426.783 40.8247 426.955 41.3343 426.955 41.965C426.955 42.5957 426.783 43.1053 426.438 43.494C426.101 43.8827 425.657 44.077 425.107 44.077ZM425.107 43.307C425.401 43.307 425.632 43.1897 425.8 42.955C425.969 42.713 426.053 42.383 426.053 41.965C426.053 41.547 425.969 41.2207 425.8 40.986C425.632 40.744 425.401 40.623 425.107 40.623C424.814 40.623 424.583 40.7403 424.414 40.975C424.246 41.2097 424.161 41.5397 424.161 41.965C424.161 42.3903 424.246 42.7203 424.414 42.955C424.583 43.1897 424.814 43.307 425.107 43.307Z" fill="black"/>
<path d="M281.146 94.3V102H279.716V95.499H278.088V94.3H281.146ZM286.171 97.248C286.677 97.248 287.132 97.347 287.535 97.545C287.939 97.7357 288.254 98.0107 288.481 98.37C288.709 98.7293 288.822 99.1437 288.822 99.613C288.822 100.112 288.698 100.552 288.448 100.933C288.199 101.307 287.862 101.597 287.436 101.802C287.011 102.007 286.534 102.11 286.006 102.11C284.95 102.11 284.129 101.78 283.542 101.12C282.963 100.46 282.673 99.514 282.673 98.282C282.673 97.4167 282.831 96.6797 283.146 96.071C283.462 95.455 283.902 94.9893 284.466 94.674C285.038 94.3513 285.698 94.19 286.446 94.19C286.842 94.19 287.213 94.234 287.557 94.322C287.909 94.4027 288.214 94.5237 288.47 94.685L287.942 95.763C287.561 95.5137 287.073 95.389 286.479 95.389C285.739 95.389 285.159 95.6163 284.741 96.071C284.323 96.5257 284.114 97.182 284.114 98.04V98.051C284.342 97.787 284.631 97.589 284.983 97.457C285.335 97.3177 285.731 97.248 286.171 97.248ZM285.929 100.988C286.377 100.988 286.74 100.871 287.018 100.636C287.297 100.394 287.436 100.075 287.436 99.679C287.436 99.2757 287.297 98.9567 287.018 98.722C286.74 98.4873 286.366 98.37 285.896 98.37C285.434 98.37 285.057 98.4947 284.763 98.744C284.477 98.9933 284.334 99.3087 284.334 99.69C284.334 100.064 284.474 100.376 284.752 100.625C285.038 100.867 285.431 100.988 285.929 100.988ZM291.071 98.447C290.521 98.447 290.077 98.2527 289.74 97.864C289.403 97.4753 289.234 96.9657 289.234 96.335C289.234 95.7043 289.403 95.1947 289.74 94.806C290.077 94.4173 290.521 94.223 291.071 94.223C291.621 94.223 292.065 94.4173 292.402 94.806C292.747 95.1873 292.919 95.697 292.919 96.335C292.919 96.973 292.747 97.4863 292.402 97.875C292.065 98.2563 291.621 98.447 291.071 98.447ZM295.691 94.3H296.769L291.511 102H290.433L295.691 94.3ZM291.071 97.677C291.372 97.677 291.603 97.5597 291.764 97.325C291.933 97.0903 292.017 96.7603 292.017 96.335C292.017 95.9097 291.933 95.5797 291.764 95.345C291.603 95.1103 291.372 94.993 291.071 94.993C290.785 94.993 290.554 95.114 290.378 95.356C290.209 95.5907 290.125 95.917 290.125 96.335C290.125 96.753 290.209 97.083 290.378 97.325C290.554 97.5597 290.785 97.677 291.071 97.677ZM296.12 102.077C295.57 102.077 295.126 101.883 294.789 101.494C294.452 101.105 294.283 100.596 294.283 99.965C294.283 99.3343 294.452 98.8247 294.789 98.436C295.126 98.0473 295.57 97.853 296.12 97.853C296.67 97.853 297.114 98.0473 297.451 98.436C297.796 98.8247 297.968 99.3343 297.968 99.965C297.968 100.596 297.796 101.105 297.451 101.494C297.114 101.883 296.67 102.077 296.12 102.077ZM296.12 101.307C296.413 101.307 296.644 101.19 296.813 100.955C296.982 100.713 297.066 100.383 297.066 99.965C297.066 99.547 296.982 99.2207 296.813 98.986C296.644 98.744 296.413 98.623 296.12 98.623C295.827 98.623 295.596 98.7403 295.427 98.975C295.258 99.2097 295.174 99.5397 295.174 99.965C295.174 100.39 295.258 100.72 295.427 100.955C295.596 101.19 295.827 101.307 296.12 101.307Z" fill="black"/>
<path d="M537.348 129.251H535.984V131H534.598V129.251H530.374V128.261L534.169 123.3H535.698L532.123 128.041H534.642V126.49H535.984V128.041H537.348V129.251ZM543.051 126.952C543.455 127.135 543.763 127.385 543.975 127.7C544.195 128.008 544.305 128.371 544.305 128.789C544.305 129.258 544.173 129.669 543.909 130.021C543.653 130.373 543.286 130.644 542.809 130.835C542.333 131.018 541.779 131.11 541.148 131.11C540.518 131.11 539.964 131.018 539.487 130.835C539.018 130.644 538.655 130.373 538.398 130.021C538.142 129.669 538.013 129.258 538.013 128.789C538.013 128.371 538.12 128.008 538.332 127.7C538.545 127.385 538.849 127.135 539.245 126.952C538.937 126.783 538.699 126.563 538.53 126.292C538.369 126.013 538.288 125.694 538.288 125.335C538.288 124.902 538.406 124.525 538.64 124.202C538.882 123.879 539.22 123.63 539.652 123.454C540.085 123.278 540.584 123.19 541.148 123.19C541.72 123.19 542.223 123.278 542.655 123.454C543.088 123.63 543.425 123.879 543.667 124.202C543.909 124.525 544.03 124.902 544.03 125.335C544.03 125.694 543.946 126.01 543.777 126.281C543.609 126.552 543.367 126.776 543.051 126.952ZM541.148 124.312C540.701 124.312 540.345 124.407 540.081 124.598C539.825 124.789 539.696 125.056 539.696 125.401C539.696 125.731 539.825 125.995 540.081 126.193C540.345 126.384 540.701 126.479 541.148 126.479C541.603 126.479 541.962 126.384 542.226 126.193C542.49 125.995 542.622 125.731 542.622 125.401C542.622 125.056 542.487 124.789 542.215 124.598C541.951 124.407 541.596 124.312 541.148 124.312ZM541.148 129.988C541.676 129.988 542.094 129.878 542.402 129.658C542.71 129.438 542.864 129.134 542.864 128.745C542.864 128.364 542.71 128.063 542.402 127.843C542.094 127.623 541.676 127.513 541.148 127.513C540.62 127.513 540.206 127.623 539.905 127.843C539.605 128.063 539.454 128.364 539.454 128.745C539.454 129.134 539.605 129.438 539.905 129.658C540.206 129.878 540.62 129.988 541.148 129.988ZM546.842 127.447C546.292 127.447 545.848 127.253 545.511 126.864C545.173 126.475 545.005 125.966 545.005 125.335C545.005 124.704 545.173 124.195 545.511 123.806C545.848 123.417 546.292 123.223 546.842 123.223C547.392 123.223 547.835 123.417 548.173 123.806C548.517 124.187 548.69 124.697 548.69 125.335C548.69 125.973 548.517 126.486 548.173 126.875C547.835 127.256 547.392 127.447 546.842 127.447ZM551.462 123.3H552.54L547.282 131H546.204L551.462 123.3ZM546.842 126.677C547.142 126.677 547.373 126.56 547.535 126.325C547.703 126.09 547.788 125.76 547.788 125.335C547.788 124.91 547.703 124.58 547.535 124.345C547.373 124.11 547.142 123.993 546.842 123.993C546.556 123.993 546.325 124.114 546.149 124.356C545.98 124.591 545.896 124.917 545.896 125.335C545.896 125.753 545.98 126.083 546.149 126.325C546.325 126.56 546.556 126.677 546.842 126.677ZM551.891 131.077C551.341 131.077 550.897 130.883 550.56 130.494C550.222 130.105 550.054 129.596 550.054 128.965C550.054 128.334 550.222 127.825 550.56 127.436C550.897 127.047 551.341 126.853 551.891 126.853C552.441 126.853 552.884 127.047 553.222 127.436C553.566 127.825 553.739 128.334 553.739 128.965C553.739 129.596 553.566 130.105 553.222 130.494C552.884 130.883 552.441 131.077 551.891 131.077ZM551.891 130.307C552.184 130.307 552.415 130.19 552.584 129.955C552.752 129.713 552.837 129.383 552.837 128.965C552.837 128.547 552.752 128.221 552.584 127.986C552.415 127.744 552.184 127.623 551.891 127.623C551.597 127.623 551.366 127.74 551.198 127.975C551.029 128.21 550.945 128.54 550.945 128.965C550.945 129.39 551.029 129.72 551.198 129.955C551.366 130.19 551.597 130.307 551.891 130.307Z" fill="black"/>
<path d="M579.893 271.281C580.978 271.281 581.781 271.494 582.302 271.919C582.823 272.337 583.083 272.909 583.083 273.635C583.083 274.097 582.969 274.515 582.742 274.889C582.515 275.263 582.174 275.56 581.719 275.78C581.264 276 580.703 276.11 580.036 276.11C579.486 276.11 578.954 276.033 578.441 275.879C577.928 275.718 577.495 275.498 577.143 275.219L577.748 274.108C578.034 274.343 578.375 274.53 578.771 274.669C579.174 274.801 579.589 274.867 580.014 274.867C580.52 274.867 580.916 274.764 581.202 274.559C581.495 274.346 581.642 274.057 581.642 273.69C581.642 273.294 581.484 272.997 581.169 272.799C580.861 272.594 580.329 272.491 579.574 272.491H577.715L578.111 268.3H582.632V269.499H579.321L579.156 271.281H579.893ZM589.431 274.79V276H583.755V275.043L586.813 272.139C587.158 271.809 587.389 271.523 587.506 271.281C587.631 271.032 587.693 270.786 587.693 270.544C587.693 270.185 587.572 269.91 587.33 269.719C587.088 269.528 586.732 269.433 586.263 269.433C585.478 269.433 584.877 269.701 584.459 270.236L583.458 269.466C583.759 269.063 584.162 268.751 584.668 268.531C585.181 268.304 585.753 268.19 586.384 268.19C587.22 268.19 587.887 268.388 588.386 268.784C588.885 269.18 589.134 269.719 589.134 270.401C589.134 270.819 589.046 271.211 588.87 271.578C588.694 271.945 588.357 272.363 587.858 272.832L585.801 274.79H589.431ZM592.08 272.447C591.53 272.447 591.086 272.253 590.749 271.864C590.412 271.475 590.243 270.966 590.243 270.335C590.243 269.704 590.412 269.195 590.749 268.806C591.086 268.417 591.53 268.223 592.08 268.223C592.63 268.223 593.074 268.417 593.411 268.806C593.756 269.187 593.928 269.697 593.928 270.335C593.928 270.973 593.756 271.486 593.411 271.875C593.074 272.256 592.63 272.447 592.08 272.447ZM596.7 268.3H597.778L592.52 276H591.442L596.7 268.3ZM592.08 271.677C592.381 271.677 592.612 271.56 592.773 271.325C592.942 271.09 593.026 270.76 593.026 270.335C593.026 269.91 592.942 269.58 592.773 269.345C592.612 269.11 592.381 268.993 592.08 268.993C591.794 268.993 591.563 269.114 591.387 269.356C591.218 269.591 591.134 269.917 591.134 270.335C591.134 270.753 591.218 271.083 591.387 271.325C591.563 271.56 591.794 271.677 592.08 271.677ZM597.129 276.077C596.579 276.077 596.135 275.883 595.798 275.494C595.461 275.105 595.292 274.596 595.292 273.965C595.292 273.334 595.461 272.825 595.798 272.436C596.135 272.047 596.579 271.853 597.129 271.853C597.679 271.853 598.123 272.047 598.46 272.436C598.805 272.825 598.977 273.334 598.977 273.965C598.977 274.596 598.805 275.105 598.46 275.494C598.123 275.883 597.679 276.077 597.129 276.077ZM597.129 275.307C597.422 275.307 597.653 275.19 597.822 274.955C597.991 274.713 598.075 274.383 598.075 273.965C598.075 273.547 597.991 273.221 597.822 272.986C597.653 272.744 597.422 272.623 597.129 272.623C596.836 272.623 596.605 272.74 596.436 272.975C596.267 273.21 596.183 273.54 596.183 273.965C596.183 274.39 596.267 274.72 596.436 274.955C596.605 275.19 596.836 275.307 597.129 275.307Z" fill="black"/>
<path d="M525.348 245.251H523.984V247H522.598V245.251H518.374V244.261L522.169 239.3H523.698L520.123 244.041H522.642V242.49H523.984V244.041H525.348V245.251ZM528.327 242.281C529.412 242.281 530.215 242.494 530.736 242.919C531.256 243.337 531.517 243.909 531.517 244.635C531.517 245.097 531.403 245.515 531.176 245.889C530.948 246.263 530.607 246.56 530.153 246.78C529.698 247 529.137 247.11 528.47 247.11C527.92 247.11 527.388 247.033 526.875 246.879C526.361 246.718 525.929 246.498 525.577 246.219L526.182 245.108C526.468 245.343 526.809 245.53 527.205 245.669C527.608 245.801 528.022 245.867 528.448 245.867C528.954 245.867 529.35 245.764 529.636 245.559C529.929 245.346 530.076 245.057 530.076 244.69C530.076 244.294 529.918 243.997 529.603 243.799C529.295 243.594 528.763 243.491 528.008 243.491H526.149L526.545 239.3H531.066V240.499H527.755L527.59 242.281H528.327ZM533.95 243.447C533.4 243.447 532.956 243.253 532.619 242.864C532.282 242.475 532.113 241.966 532.113 241.335C532.113 240.704 532.282 240.195 532.619 239.806C532.956 239.417 533.4 239.223 533.95 239.223C534.5 239.223 534.944 239.417 535.281 239.806C535.626 240.187 535.798 240.697 535.798 241.335C535.798 241.973 535.626 242.486 535.281 242.875C534.944 243.256 534.5 243.447 533.95 243.447ZM538.57 239.3H539.648L534.39 247H533.312L538.57 239.3ZM533.95 242.677C534.251 242.677 534.482 242.56 534.643 242.325C534.812 242.09 534.896 241.76 534.896 241.335C534.896 240.91 534.812 240.58 534.643 240.345C534.482 240.11 534.251 239.993 533.95 239.993C533.664 239.993 533.433 240.114 533.257 240.356C533.088 240.591 533.004 240.917 533.004 241.335C533.004 241.753 533.088 242.083 533.257 242.325C533.433 242.56 533.664 242.677 533.95 242.677ZM538.999 247.077C538.449 247.077 538.005 246.883 537.668 246.494C537.331 246.105 537.162 245.596 537.162 244.965C537.162 244.334 537.331 243.825 537.668 243.436C538.005 243.047 538.449 242.853 538.999 242.853C539.549 242.853 539.993 243.047 540.33 243.436C540.675 243.825 540.847 244.334 540.847 244.965C540.847 245.596 540.675 246.105 540.33 246.494C539.993 246.883 539.549 247.077 538.999 247.077ZM538.999 246.307C539.292 246.307 539.523 246.19 539.692 245.955C539.861 245.713 539.945 245.383 539.945 244.965C539.945 244.547 539.861 244.221 539.692 243.986C539.523 243.744 539.292 243.623 538.999 243.623C538.706 243.623 538.475 243.74 538.306 243.975C538.137 244.21 538.053 244.54 538.053 244.965C538.053 245.39 538.137 245.72 538.306 245.955C538.475 246.19 538.706 246.307 538.999 246.307Z" fill="black"/>
<path d="M731.292 210.3V211.257L728.3 218H726.771L729.664 211.51H726.639V212.819H725.308V210.3H731.292ZM734.946 210.3V218H733.516V211.499H731.888V210.3H734.946ZM738.189 214.447C737.639 214.447 737.196 214.253 736.858 213.864C736.521 213.475 736.352 212.966 736.352 212.335C736.352 211.704 736.521 211.195 736.858 210.806C737.196 210.417 737.639 210.223 738.189 210.223C738.739 210.223 739.183 210.417 739.52 210.806C739.865 211.187 740.037 211.697 740.037 212.335C740.037 212.973 739.865 213.486 739.52 213.875C739.183 214.256 738.739 214.447 738.189 214.447ZM742.809 210.3H743.887L738.629 218H737.551L742.809 210.3ZM738.189 213.677C738.49 213.677 738.721 213.56 738.882 213.325C739.051 213.09 739.135 212.76 739.135 212.335C739.135 211.91 739.051 211.58 738.882 211.345C738.721 211.11 738.49 210.993 738.189 210.993C737.903 210.993 737.672 211.114 737.496 211.356C737.328 211.591 737.243 211.917 737.243 212.335C737.243 212.753 737.328 213.083 737.496 213.325C737.672 213.56 737.903 213.677 738.189 213.677ZM743.238 218.077C742.688 218.077 742.245 217.883 741.907 217.494C741.57 217.105 741.401 216.596 741.401 215.965C741.401 215.334 741.57 214.825 741.907 214.436C742.245 214.047 742.688 213.853 743.238 213.853C743.788 213.853 744.232 214.047 744.569 214.436C744.914 214.825 745.086 215.334 745.086 215.965C745.086 216.596 744.914 217.105 744.569 217.494C744.232 217.883 743.788 218.077 743.238 218.077ZM743.238 217.307C743.532 217.307 743.763 217.19 743.931 216.955C744.1 216.713 744.184 216.383 744.184 215.965C744.184 215.547 744.1 215.221 743.931 214.986C743.763 214.744 743.532 214.623 743.238 214.623C742.945 214.623 742.714 214.74 742.545 214.975C742.377 215.21 742.292 215.54 742.292 215.965C742.292 216.39 742.377 216.72 742.545 216.955C742.714 217.19 742.945 217.307 743.238 217.307Z" fill="black"/>
<path d="M625.893 184.281C626.978 184.281 627.781 184.494 628.302 184.919C628.823 185.337 629.083 185.909 629.083 186.635C629.083 187.097 628.969 187.515 628.742 187.889C628.515 188.263 628.174 188.56 627.719 188.78C627.264 189 626.703 189.11 626.036 189.11C625.486 189.11 624.954 189.033 624.441 188.879C623.928 188.718 623.495 188.498 623.143 188.219L623.748 187.108C624.034 187.343 624.375 187.53 624.771 187.669C625.174 187.801 625.589 187.867 626.014 187.867C626.52 187.867 626.916 187.764 627.202 187.559C627.495 187.346 627.642 187.057 627.642 186.69C627.642 186.294 627.484 185.997 627.169 185.799C626.861 185.594 626.329 185.491 625.574 185.491H623.715L624.111 181.3H628.632V182.499H625.321L625.156 184.281H625.893ZM634.902 184.952C635.305 185.135 635.613 185.385 635.826 185.7C636.046 186.008 636.156 186.371 636.156 186.789C636.156 187.258 636.024 187.669 635.76 188.021C635.503 188.373 635.136 188.644 634.66 188.835C634.183 189.018 633.629 189.11 632.999 189.11C632.368 189.11 631.814 189.018 631.338 188.835C630.868 188.644 630.505 188.373 630.249 188.021C629.992 187.669 629.864 187.258 629.864 186.789C629.864 186.371 629.97 186.008 630.183 185.7C630.395 185.385 630.7 185.135 631.096 184.952C630.788 184.783 630.549 184.563 630.381 184.292C630.219 184.013 630.139 183.694 630.139 183.335C630.139 182.902 630.256 182.525 630.491 182.202C630.733 181.879 631.07 181.63 631.503 181.454C631.935 181.278 632.434 181.19 632.999 181.19C633.571 181.19 634.073 181.278 634.506 181.454C634.938 181.63 635.276 181.879 635.518 182.202C635.76 182.525 635.881 182.902 635.881 183.335C635.881 183.694 635.796 184.01 635.628 184.281C635.459 184.552 635.217 184.776 634.902 184.952ZM632.999 182.312C632.551 182.312 632.196 182.407 631.932 182.598C631.675 182.789 631.547 183.056 631.547 183.401C631.547 183.731 631.675 183.995 631.932 184.193C632.196 184.384 632.551 184.479 632.999 184.479C633.453 184.479 633.813 184.384 634.077 184.193C634.341 183.995 634.473 183.731 634.473 183.401C634.473 183.056 634.337 182.789 634.066 182.598C633.802 182.407 633.446 182.312 632.999 182.312ZM632.999 187.988C633.527 187.988 633.945 187.878 634.253 187.658C634.561 187.438 634.715 187.134 634.715 186.745C634.715 186.364 634.561 186.063 634.253 185.843C633.945 185.623 633.527 185.513 632.999 185.513C632.471 185.513 632.056 185.623 631.756 185.843C631.455 186.063 631.305 186.364 631.305 186.745C631.305 187.134 631.455 187.438 631.756 187.658C632.056 187.878 632.471 187.988 632.999 187.988ZM638.692 185.447C638.142 185.447 637.699 185.253 637.361 184.864C637.024 184.475 636.855 183.966 636.855 183.335C636.855 182.704 637.024 182.195 637.361 181.806C637.699 181.417 638.142 181.223 638.692 181.223C639.242 181.223 639.686 181.417 640.023 181.806C640.368 182.187 640.54 182.697 640.54 183.335C640.54 183.973 640.368 184.486 640.023 184.875C639.686 185.256 639.242 185.447 638.692 185.447ZM643.312 181.3H644.39L639.132 189H638.054L643.312 181.3ZM638.692 184.677C638.993 184.677 639.224 184.56 639.385 184.325C639.554 184.09 639.638 183.76 639.638 183.335C639.638 182.91 639.554 182.58 639.385 182.345C639.224 182.11 638.993 181.993 638.692 181.993C638.406 181.993 638.175 182.114 637.999 182.356C637.831 182.591 637.746 182.917 637.746 183.335C637.746 183.753 637.831 184.083 637.999 184.325C638.175 184.56 638.406 184.677 638.692 184.677ZM643.741 189.077C643.191 189.077 642.748 188.883 642.41 188.494C642.073 188.105 641.904 187.596 641.904 186.965C641.904 186.334 642.073 185.825 642.41 185.436C642.748 185.047 643.191 184.853 643.741 184.853C644.291 184.853 644.735 185.047 645.072 185.436C645.417 185.825 645.589 186.334 645.589 186.965C645.589 187.596 645.417 188.105 645.072 188.494C644.735 188.883 644.291 189.077 643.741 189.077ZM643.741 188.307C644.035 188.307 644.266 188.19 644.434 187.955C644.603 187.713 644.687 187.383 644.687 186.965C644.687 186.547 644.603 186.221 644.434 185.986C644.266 185.744 644.035 185.623 643.741 185.623C643.448 185.623 643.217 185.74 643.048 185.975C642.88 186.21 642.795 186.54 642.795 186.965C642.795 187.39 642.88 187.72 643.048 187.955C643.217 188.19 643.448 188.307 643.741 188.307Z" fill="black"/>
<path d="M743.292 152.3V153.257L740.3 160H738.771L741.664 153.51H738.639V154.819H737.308V152.3H743.292ZM750.321 158.251H748.957V160H747.571V158.251H743.347V157.261L747.142 152.3H748.671L745.096 157.041H747.615V155.49H748.957V157.041H750.321V158.251ZM752.305 156.447C751.755 156.447 751.312 156.253 750.974 155.864C750.637 155.475 750.468 154.966 750.468 154.335C750.468 153.704 750.637 153.195 750.974 152.806C751.312 152.417 751.755 152.223 752.305 152.223C752.855 152.223 753.299 152.417 753.636 152.806C753.981 153.187 754.153 153.697 754.153 154.335C754.153 154.973 753.981 155.486 753.636 155.875C753.299 156.256 752.855 156.447 752.305 156.447ZM756.925 152.3H758.003L752.745 160H751.667L756.925 152.3ZM752.305 155.677C752.606 155.677 752.837 155.56 752.998 155.325C753.167 155.09 753.251 154.76 753.251 154.335C753.251 153.91 753.167 153.58 752.998 153.345C752.837 153.11 752.606 152.993 752.305 152.993C752.019 152.993 751.788 153.114 751.612 153.356C751.444 153.591 751.359 153.917 751.359 154.335C751.359 154.753 751.444 155.083 751.612 155.325C751.788 155.56 752.019 155.677 752.305 155.677ZM757.354 160.077C756.804 160.077 756.361 159.883 756.023 159.494C755.686 159.105 755.517 158.596 755.517 157.965C755.517 157.334 755.686 156.825 756.023 156.436C756.361 156.047 756.804 155.853 757.354 155.853C757.904 155.853 758.348 156.047 758.685 156.436C759.03 156.825 759.202 157.334 759.202 157.965C759.202 158.596 759.03 159.105 758.685 159.494C758.348 159.883 757.904 160.077 757.354 160.077ZM757.354 159.307C757.648 159.307 757.879 159.19 758.047 158.955C758.216 158.713 758.3 158.383 758.3 157.965C758.3 157.547 758.216 157.221 758.047 156.986C757.879 156.744 757.648 156.623 757.354 156.623C757.061 156.623 756.83 156.74 756.661 156.975C756.493 157.21 756.408 157.54 756.408 157.965C756.408 158.39 756.493 158.72 756.661 158.955C756.83 159.19 757.061 159.307 757.354 159.307Z" fill="black"/>
<path d="M408.762 68.479C409.473 68.567 410.016 68.809 410.39 69.205C410.764 69.601 410.951 70.096 410.951 70.69C410.951 71.1373 410.837 71.5443 410.61 71.911C410.383 72.2777 410.038 72.571 409.576 72.791C409.121 73.0037 408.564 73.11 407.904 73.11C407.354 73.11 406.822 73.033 406.309 72.879C405.803 72.7177 405.37 72.4977 405.011 72.219L405.627 71.108C405.906 71.3427 406.243 71.5297 406.639 71.669C407.042 71.801 407.457 71.867 407.882 71.867C408.388 71.867 408.784 71.7643 409.07 71.559C409.363 71.3463 409.51 71.0603 409.51 70.701C409.51 70.3417 409.371 70.063 409.092 69.865C408.821 69.6597 408.403 69.557 407.838 69.557H407.134V68.578L408.883 66.499H405.385V65.3H410.632V66.257L408.762 68.479ZM417.41 71.79V73H411.734V72.043L414.792 69.139C415.136 68.809 415.367 68.523 415.485 68.281C415.609 68.0317 415.672 67.786 415.672 67.544C415.672 67.1847 415.551 66.9097 415.309 66.719C415.067 66.5283 414.711 66.433 414.242 66.433C413.457 66.433 412.856 66.7007 412.438 67.236L411.437 66.466C411.737 66.0627 412.141 65.751 412.647 65.531C413.16 65.3037 413.732 65.19 414.363 65.19C415.199 65.19 415.866 65.388 416.365 65.784C416.863 66.18 417.113 66.719 417.113 67.401C417.113 67.819 417.025 68.2113 416.849 68.578C416.673 68.9447 416.335 69.3627 415.837 69.832L413.78 71.79H417.41ZM420.058 69.447C419.508 69.447 419.065 69.2527 418.727 68.864C418.39 68.4753 418.221 67.9657 418.221 67.335C418.221 66.7043 418.39 66.1947 418.727 65.806C419.065 65.4173 419.508 65.223 420.058 65.223C420.608 65.223 421.052 65.4173 421.389 65.806C421.734 66.1873 421.906 66.697 421.906 67.335C421.906 67.973 421.734 68.4863 421.389 68.875C421.052 69.2563 420.608 69.447 420.058 69.447ZM424.678 65.3H425.756L420.498 73H419.42L424.678 65.3ZM420.058 68.677C420.359 68.677 420.59 68.5597 420.751 68.325C420.92 68.0903 421.004 67.7603 421.004 67.335C421.004 66.9097 420.92 66.5797 420.751 66.345C420.59 66.1103 420.359 65.993 420.058 65.993C419.772 65.993 419.541 66.114 419.365 66.356C419.197 66.5907 419.112 66.917 419.112 67.335C419.112 67.753 419.197 68.083 419.365 68.325C419.541 68.5597 419.772 68.677 420.058 68.677ZM425.107 73.077C424.557 73.077 424.114 72.8827 423.776 72.494C423.439 72.1053 423.27 71.5957 423.27 70.965C423.27 70.3343 423.439 69.8247 423.776 69.436C424.114 69.0473 424.557 68.853 425.107 68.853C425.657 68.853 426.101 69.0473 426.438 69.436C426.783 69.8247 426.955 70.3343 426.955 70.965C426.955 71.5957 426.783 72.1053 426.438 72.494C426.101 72.8827 425.657 73.077 425.107 73.077ZM425.107 72.307C425.401 72.307 425.632 72.1897 425.8 71.955C425.969 71.713 426.053 71.383 426.053 70.965C426.053 70.547 425.969 70.2207 425.8 69.986C425.632 69.744 425.401 69.623 425.107 69.623C424.814 69.623 424.583 69.7403 424.414 69.975C424.246 70.2097 424.161 70.5397 424.161 70.965C424.161 71.3903 424.246 71.7203 424.414 71.955C424.583 72.1897 424.814 72.307 425.107 72.307Z" fill="black"/>
</svg>
