<svg width="79" height="81" viewBox="0 0 79 81" fill="none" xmlns="http://www.w3.org/2000/svg">
<path fill-rule="evenodd" clip-rule="evenodd" d="M39.9408 0.00223137C47.6403 -0.0987379 54.984 3.23544 61.2201 8.2716C67.4636 13.3136 72.0672 20.2711 74.9248 28.2544C77.9459 36.6945 80.6172 46.1165 77.8221 54.6529C75.0605 63.0869 67.2948 67.6716 60.4626 72.4234C54.1088 76.8425 47.4292 81.0453 39.9408 80.9996C32.477 80.9541 25.9694 76.4789 19.5815 72.174C12.5738 67.4515 4.20986 63.4601 1.26984 54.939C-1.71448 46.2895 1.07414 36.5516 4.35254 28.0355C7.40231 20.1133 12.7071 13.7994 19.0221 8.82498C25.2637 3.90836 32.2992 0.102441 39.9408 0.00223137Z" fill="#FEEB96"/>
<path d="M38.9041 11.9383C38.9041 11.9383 25.7341 12.1483 25.4941 30.7883C25.4941 30.7883 18.3841 29.5283 24.4941 38.7283C24.4941 38.7283 25.0841 40.3183 26.9541 38.7283C28.8241 37.1383 25.2041 42.5183 33.7041 47.8883C33.7041 47.8883 33.8241 56.5083 31.7041 57.8883C29.5841 59.2683 43.3241 64.0083 45.5641 57.8883C44.138 56.1227 43.3865 53.9073 43.4441 51.6383C43.4441 51.6383 52.8841 51.1583 52.9341 34.8983C52.9841 18.6383 48.4941 10.9983 38.9041 11.9383Z" fill="#F4D1AE"/>
<path d="M20.4043 18.0283C20.4043 18.0283 16.9743 21.7783 21.3043 27.2483C21.1166 27.6368 21.0148 28.0613 21.006 28.4927C20.9973 28.9241 21.0817 29.3524 21.2535 29.7482C21.4253 30.144 21.6805 30.4981 22.0016 30.7864C22.3227 31.0746 22.7023 31.2901 23.1143 31.4183C23.1143 31.4183 25.2343 33.8383 26.0343 31.9183C26.8343 29.9983 28.2543 22.7583 31.4743 22.6583C31.4743 22.6583 30.6643 16.4183 35.6043 17.2283C35.6043 17.2283 36.6043 14.9083 38.7243 15.9183C40.8443 16.9283 42.4143 18.2583 44.3343 16.5483C46.2543 14.8383 47.7843 21.6983 50.5443 21.0183C52.0943 20.6283 51.9043 30.9183 52.9143 29.9083C53.9243 28.8983 56.0343 18.1283 50.6943 12.0983C50.6943 12.0983 46.4743 9.3783 44.9643 11.0983C44.9643 11.0983 43.5543 7.8783 40.2343 7.8783C36.9143 7.8783 35.2343 9.3883 33.5843 9.0883C31.9343 8.7883 29.0543 8.5783 27.6443 10.0883C27.6443 10.0783 19.4143 14.6483 20.4043 18.0283Z" fill="#614922"/>
<path d="M45.4941 10.7083C45.6887 10.0512 46.1024 9.48045 46.6664 9.09111C47.2304 8.70176 47.9107 8.51726 48.5941 8.5683" fill="#202020"/>
<path d="M44.334 10.0583C44.3441 9.56602 44.5302 9.09364 44.8586 8.72675C45.1869 8.35986 45.6359 8.12272 46.124 8.05829" fill="#202020"/>
<path d="M45.1208 57.783C39.4114 62.3505 33.8604 59.6861 31.7985 57.783C21.7024 57.3617 13.9527 72.9912 11.3398 80.8586H67.9583C62.7247 71.2636 50.8301 53.2155 45.1208 57.783Z" fill="#FFF6CE"/>
</svg>
