<svg width="386" height="363" viewBox="0 0 386 363" fill="none" xmlns="http://www.w3.org/2000/svg">
<rect width="386" height="363" fill="white"/>
<path fill-rule="evenodd" clip-rule="evenodd" d="M142.237 97.1808C135.838 98.5228 134.035 99.1348 128.968 101.682C118.241 107.074 116.105 110.47 120.831 114.618C129.133 121.905 140.202 132.3 145.988 138.242C155.597 148.11 160.441 153.517 170.524 165.629C172.295 167.756 185.371 185.199 187.328 188.044C190.922 193.27 192.903 192.924 198.381 186.112C220.138 159.061 244.887 132.826 261.466 119.238C269.895 112.33 269.77 111.068 260 104.434C247.608 96.0188 235.28 94.3743 216.814 98.6728C211.041 100.016 201.655 104.582 197.257 108.186C192.977 111.693 192.974 111.692 183.124 105.705C177.522 102.299 169.402 98.8308 165.15 98.0278C151.857 95.5158 150.427 95.4628 142.237 97.1808ZM285.699 107.275C283.538 109.695 280.403 113.138 278.733 114.925C274.221 119.756 256.581 142.945 249.667 153.137C248.161 155.358 245.746 158.863 244.303 160.925C223.344 190.863 203.979 230.847 197.215 258.149C193.784 271.997 196.485 271.552 217.987 254.731C221.15 252.257 225.537 248.839 227.737 247.137C229.937 245.434 233.112 242.833 234.793 241.358C236.474 239.882 239.531 237.264 241.586 235.54C246.348 231.546 259.887 217.797 263.768 213.016C273.803 200.65 277.002 195.947 281.507 186.935C291.084 167.774 291.871 148.301 283.729 131.925C282.094 128.637 281.834 126.862 282.661 124.625C284.229 120.378 288.461 110.802 289.886 108.277C293.667 101.578 291.292 101.01 285.699 107.275ZM98.6878 104.624C98.4333 105.288 99.0873 106.966 103.192 116.175C105.544 121.452 105.486 122.46 102.5 128.151C82.1708 166.896 102.817 206.963 168.737 256.696C189.347 272.244 190.478 271.95 185.144 252.425C171.799 203.576 143.777 151.702 111.048 115.262C108.127 112.01 105.661 109.137 105.568 108.878C104.898 107.02 99.1358 103.456 98.6878 104.624Z" fill="#D6392E"/>
</svg>
