<svg width="357" height="49" viewBox="0 0 357 49" fill="none" xmlns="http://www.w3.org/2000/svg">
<rect y="30" width="251" height="18" rx="9" fill="#D6392E" fill-opacity="0.6"/>
<path d="M20.4273 24.2465C20.4273 25.8945 19.9873 27.2705 19.1073 28.3745C18.2273 29.4785 16.9873 30.2385 15.3873 30.6545L18.4593 36.1265H15.9153L12.9873 30.9905H12.5313H8.04328L7.03528 36.1265H4.61128L7.97128 19.3265H14.2353C16.2033 19.3265 17.7233 19.7585 18.7953 20.6225C19.8833 21.4705 20.4273 22.6785 20.4273 24.2465ZM12.6033 28.9505C14.3313 28.9505 15.6673 28.5665 16.6113 27.7985C17.5553 27.0305 18.0273 25.9185 18.0273 24.4625C18.0273 23.4545 17.6833 22.6945 16.9953 22.1825C16.3073 21.6705 15.3153 21.4145 14.0193 21.4145H9.96328L8.45128 28.9505H12.6033ZM23.9688 30.4865V30.6305C23.9688 31.8145 24.3048 32.7185 24.9768 33.3425C25.6488 33.9505 26.6568 34.2545 28.0008 34.2545C28.7848 34.2545 29.5208 34.1265 30.2088 33.8705C30.8968 33.5985 31.4728 33.2385 31.9368 32.7905L32.9208 34.4465C32.2968 35.0225 31.5368 35.4705 30.6408 35.7905C29.7448 36.1105 28.8008 36.2705 27.8088 36.2705C26.5608 36.2705 25.4808 36.0465 24.5688 35.5985C23.6568 35.1505 22.9528 34.5105 22.4568 33.6785C21.9608 32.8465 21.7128 31.8705 21.7128 30.7505C21.7128 29.3265 22.0168 28.0465 22.6248 26.9105C23.2488 25.7745 24.1048 24.8865 25.1928 24.2465C26.2968 23.6065 27.5288 23.2865 28.8888 23.2865C30.6168 23.2865 31.9928 23.7825 33.0168 24.7745C34.0568 25.7505 34.5768 27.0865 34.5768 28.7825C34.5768 29.2945 34.5208 29.8625 34.4088 30.4865H23.9688ZM28.7928 25.2065C27.6568 25.2065 26.6808 25.5265 25.8648 26.1665C25.0488 26.8065 24.4968 27.6865 24.2088 28.8065H32.4168C32.4808 27.6705 32.1768 26.7905 31.5048 26.1665C30.8488 25.5265 29.9448 25.2065 28.7928 25.2065ZM40.4167 36.2705C39.3607 36.2705 38.3527 36.1345 37.3927 35.8625C36.4487 35.5905 35.7127 35.2385 35.1847 34.8065L36.2167 32.9825C36.7127 33.3825 37.3527 33.7025 38.1367 33.9425C38.9367 34.1665 39.7687 34.2785 40.6327 34.2785C41.7207 34.2785 42.5447 34.1185 43.1047 33.7985C43.6807 33.4625 43.9687 32.9985 43.9687 32.4065C43.9687 31.9265 43.7367 31.5825 43.2727 31.3745C42.8247 31.1665 42.1207 30.9585 41.1607 30.7505C40.2647 30.5585 39.5287 30.3665 38.9527 30.1745C38.3927 29.9665 37.9127 29.6465 37.5127 29.2145C37.1127 28.7665 36.9127 28.1665 36.9127 27.4145C36.9127 26.5825 37.1447 25.8545 37.6087 25.2305C38.0887 24.6065 38.7607 24.1265 39.6247 23.7905C40.5047 23.4545 41.5207 23.2865 42.6727 23.2865C43.5207 23.2865 44.3447 23.3905 45.1447 23.5985C45.9447 23.8065 46.6007 24.0865 47.1127 24.4385L46.2007 26.2625C45.7047 25.9265 45.1287 25.6785 44.4727 25.5185C43.8167 25.3425 43.1447 25.2545 42.4567 25.2545C41.4167 25.2545 40.6167 25.4305 40.0567 25.7825C39.4967 26.1185 39.2167 26.5745 39.2167 27.1505C39.2167 27.6625 39.4487 28.0305 39.9127 28.2545C40.3767 28.4625 41.0967 28.6705 42.0727 28.8785C42.9527 29.0705 43.6727 29.2625 44.2327 29.4545C44.7927 29.6465 45.2647 29.9585 45.6487 30.3905C46.0487 30.8225 46.2487 31.4065 46.2487 32.1425C46.2487 33.4385 45.7127 34.4545 44.6407 35.1905C43.5847 35.9105 42.1767 36.2705 40.4167 36.2705ZM50.6641 30.4865V30.6305C50.6641 31.8145 51.0001 32.7185 51.6721 33.3425C52.3441 33.9505 53.3521 34.2545 54.6961 34.2545C55.4801 34.2545 56.2161 34.1265 56.9041 33.8705C57.5921 33.5985 58.1681 33.2385 58.6321 32.7905L59.6161 34.4465C58.9921 35.0225 58.2321 35.4705 57.3361 35.7905C56.4401 36.1105 55.4961 36.2705 54.5041 36.2705C53.2561 36.2705 52.1761 36.0465 51.2641 35.5985C50.3521 35.1505 49.6481 34.5105 49.1521 33.6785C48.6561 32.8465 48.4081 31.8705 48.4081 30.7505C48.4081 29.3265 48.7121 28.0465 49.3201 26.9105C49.9441 25.7745 50.8001 24.8865 51.8881 24.2465C52.9921 23.6065 54.2241 23.2865 55.5841 23.2865C57.3121 23.2865 58.6881 23.7825 59.7121 24.7745C60.7521 25.7505 61.2721 27.0865 61.2721 28.7825C61.2721 29.2945 61.2161 29.8625 61.1041 30.4865H50.6641ZM55.4881 25.2065C54.3521 25.2065 53.3761 25.5265 52.5601 26.1665C51.7441 26.8065 51.1921 27.6865 50.9041 28.8065H59.1121C59.1761 27.6705 58.8721 26.7905 58.2001 26.1665C57.5441 25.5265 56.6401 25.2065 55.4881 25.2065ZM77.6 23.4065L75.08 36.1265H72.872L73.184 34.5665C72.608 35.1105 71.936 35.5345 71.168 35.8385C70.416 36.1265 69.592 36.2705 68.696 36.2705C67.608 36.2705 66.64 36.0545 65.792 35.6225C64.944 35.1745 64.28 34.5345 63.8 33.7025C63.32 32.8705 63.08 31.8945 63.08 30.7745C63.08 29.3345 63.392 28.0465 64.016 26.9105C64.64 25.7745 65.496 24.8865 66.584 24.2465C67.688 23.6065 68.92 23.2865 70.28 23.2865C71.368 23.2865 72.296 23.4785 73.064 23.8625C73.848 24.2465 74.448 24.8145 74.864 25.5665L75.296 23.4065H77.6ZM69.2 34.2545C70.144 34.2545 70.992 34.0305 71.744 33.5825C72.512 33.1185 73.104 32.4785 73.52 31.6625C73.952 30.8465 74.168 29.9185 74.168 28.8785C74.168 27.7425 73.84 26.8625 73.184 26.2385C72.528 25.6145 71.592 25.3025 70.376 25.3025C69.432 25.3025 68.584 25.5345 67.832 25.9985C67.08 26.4465 66.488 27.0785 66.056 27.8945C65.624 28.7105 65.408 29.6385 65.408 30.6785C65.408 31.7985 65.736 32.6785 66.392 33.3185C67.064 33.9425 68 34.2545 69.2 34.2545ZM83.8313 25.3025C84.3913 24.5985 85.0793 24.0865 85.8953 23.7665C86.7113 23.4465 87.7033 23.2865 88.8713 23.2865L88.4393 25.5185C88.2953 25.5025 88.0953 25.4945 87.8393 25.4945C85.1993 25.4945 83.5993 26.9185 83.0393 29.7665L81.7673 36.1265H79.4633L81.9833 23.4065H84.1913L83.8313 25.3025ZM95.0498 36.2705C93.8338 36.2705 92.7698 36.0465 91.8578 35.5985C90.9458 35.1345 90.2418 34.4945 89.7458 33.6785C89.2498 32.8465 89.0018 31.8785 89.0018 30.7745C89.0018 29.3505 89.3218 28.0705 89.9618 26.9345C90.6018 25.7985 91.4898 24.9105 92.6258 24.2705C93.7618 23.6145 95.0498 23.2865 96.4898 23.2865C99.0018 23.2865 100.746 24.2065 101.722 26.0465L99.7778 27.1265C99.1058 25.9105 97.9538 25.3025 96.3218 25.3025C95.3778 25.3025 94.5218 25.5345 93.7538 25.9985C93.0018 26.4465 92.4098 27.0785 91.9778 27.8945C91.5458 28.7105 91.3298 29.6385 91.3298 30.6785C91.3298 31.7985 91.6578 32.6785 92.3138 33.3185C92.9858 33.9425 93.9298 34.2545 95.1458 34.2545C95.9138 34.2545 96.6258 34.1025 97.2818 33.7985C97.9538 33.4945 98.5058 33.0465 98.9378 32.4545L100.618 33.6545C100.026 34.4705 99.2338 35.1105 98.2418 35.5745C97.2498 36.0385 96.1858 36.2705 95.0498 36.2705ZM111.597 23.2865C113.053 23.2865 114.181 23.6545 114.981 24.3905C115.797 25.1265 116.205 26.1665 116.205 27.5105C116.205 27.9745 116.157 28.4705 116.061 28.9985L114.645 36.1265H112.341L113.757 28.9985C113.837 28.5665 113.877 28.2145 113.877 27.9425C113.877 27.1105 113.629 26.4705 113.133 26.0225C112.637 25.5745 111.901 25.3505 110.925 25.3505C109.677 25.3505 108.645 25.6945 107.829 26.3825C107.029 27.0545 106.493 28.0625 106.221 29.4065L104.877 36.1265H102.573L106.125 18.3185H108.429L107.109 24.8945C108.245 23.8225 109.741 23.2865 111.597 23.2865ZM139.97 28.7585C139.394 30.2625 138.65 31.5905 137.738 32.7425L139.466 34.8785L137.93 36.3905L136.226 34.2785C134.578 35.6385 132.666 36.3185 130.49 36.3185C128.826 36.3185 127.498 35.9665 126.506 35.2625C125.53 34.5425 125.042 33.5745 125.042 32.3585C125.042 31.2225 125.45 30.2145 126.266 29.3345C127.082 28.4385 128.362 27.5745 130.106 26.7425C129.69 26.1825 129.378 25.6465 129.17 25.1345C128.962 24.6065 128.858 24.0705 128.858 23.5265C128.858 22.1985 129.322 21.1425 130.25 20.3585C131.178 19.5745 132.362 19.1825 133.802 19.1825C134.97 19.1825 135.914 19.4625 136.634 20.0225C137.354 20.5665 137.714 21.3185 137.714 22.2785C137.714 23.3025 137.354 24.1825 136.634 24.9185C135.93 25.6545 134.786 26.3985 133.202 27.1505L136.514 31.2305C137.186 30.3345 137.738 29.3105 138.17 28.1585L139.97 28.7585ZM133.73 20.8625C132.898 20.8625 132.226 21.0865 131.714 21.5345C131.218 21.9665 130.97 22.5585 130.97 23.3105C130.97 23.6785 131.058 24.0625 131.234 24.4625C131.426 24.8625 131.722 25.3185 132.122 25.8305C133.066 25.3825 133.794 24.9905 134.306 24.6545C134.834 24.3025 135.202 23.9585 135.41 23.6225C135.634 23.2865 135.746 22.9025 135.746 22.4705C135.746 22.0065 135.562 21.6225 135.194 21.3185C134.842 21.0145 134.354 20.8625 133.73 20.8625ZM130.634 34.3985C132.25 34.3985 133.714 33.8625 135.026 32.7905L131.186 28.0865C129.794 28.7585 128.802 29.3825 128.21 29.9585C127.634 30.5345 127.346 31.2065 127.346 31.9745C127.346 32.6945 127.634 33.2785 128.21 33.7265C128.786 34.1745 129.594 34.3985 130.634 34.3985ZM153.892 21.4145L152.86 26.5745H161.308L160.9 28.6145H152.452L151.372 34.0385H161.188L160.78 36.1265H148.564L151.924 19.3265H163.78L163.372 21.4145H153.892ZM171.873 20.0705C171.185 20.0705 170.641 20.2625 170.241 20.6465C169.841 21.0145 169.553 21.5985 169.377 22.3985L169.161 23.4065H172.857L172.473 25.3025H168.849L166.665 36.1265H164.361L166.545 25.3025H164.361L164.721 23.4065H166.929L167.169 22.2065C167.425 20.9105 167.945 19.9185 168.729 19.2305C169.529 18.5265 170.577 18.1745 171.873 18.1745C172.401 18.1745 172.897 18.2465 173.361 18.3905C173.841 18.5185 174.233 18.7105 174.537 18.9665L173.577 20.6705C173.129 20.2705 172.561 20.0705 171.873 20.0705ZM180.334 20.0705C179.646 20.0705 179.102 20.2625 178.702 20.6465C178.302 21.0145 178.014 21.5985 177.838 22.3985L177.622 23.4065H181.318L180.934 25.3025H177.31L175.126 36.1265H172.822L175.006 25.3025H172.822L173.182 23.4065H175.39L175.63 22.2065C175.886 20.9105 176.406 19.9185 177.19 19.2305C177.99 18.5265 179.038 18.1745 180.334 18.1745C180.862 18.1745 181.358 18.2465 181.822 18.3905C182.302 18.5185 182.694 18.7105 182.998 18.9665L182.038 20.6705C181.59 20.2705 181.022 20.0705 180.334 20.0705ZM185.422 23.4065H187.726L185.206 36.1265H182.902L185.422 23.4065ZM187.246 20.9585C186.83 20.9585 186.486 20.8225 186.214 20.5505C185.942 20.2785 185.806 19.9505 185.806 19.5665C185.806 19.1185 185.958 18.7425 186.262 18.4385C186.582 18.1185 186.982 17.9585 187.462 17.9585C187.878 17.9585 188.222 18.0945 188.494 18.3665C188.782 18.6225 188.926 18.9345 188.926 19.3025C188.926 19.7985 188.766 20.1985 188.446 20.5025C188.142 20.8065 187.742 20.9585 187.246 20.9585ZM195.62 36.2705C194.404 36.2705 193.34 36.0465 192.428 35.5985C191.516 35.1345 190.812 34.4945 190.316 33.6785C189.82 32.8465 189.572 31.8785 189.572 30.7745C189.572 29.3505 189.892 28.0705 190.532 26.9345C191.172 25.7985 192.06 24.9105 193.196 24.2705C194.332 23.6145 195.62 23.2865 197.06 23.2865C199.572 23.2865 201.316 24.2065 202.292 26.0465L200.348 27.1265C199.676 25.9105 198.524 25.3025 196.892 25.3025C195.948 25.3025 195.092 25.5345 194.324 25.9985C193.572 26.4465 192.98 27.0785 192.548 27.8945C192.116 28.7105 191.9 29.6385 191.9 30.6785C191.9 31.7985 192.228 32.6785 192.884 33.3185C193.556 33.9425 194.5 34.2545 195.716 34.2545C196.484 34.2545 197.196 34.1025 197.852 33.7985C198.524 33.4945 199.076 33.0465 199.508 32.4545L201.188 33.6545C200.596 34.4705 199.804 35.1105 198.812 35.5745C197.82 36.0385 196.756 36.2705 195.62 36.2705ZM217.616 23.4065L215.096 36.1265H212.888L213.2 34.5665C212.624 35.1105 211.952 35.5345 211.184 35.8385C210.432 36.1265 209.608 36.2705 208.712 36.2705C207.624 36.2705 206.656 36.0545 205.808 35.6225C204.96 35.1745 204.296 34.5345 203.816 33.7025C203.336 32.8705 203.096 31.8945 203.096 30.7745C203.096 29.3345 203.408 28.0465 204.032 26.9105C204.656 25.7745 205.512 24.8865 206.6 24.2465C207.704 23.6065 208.936 23.2865 210.296 23.2865C211.384 23.2865 212.312 23.4785 213.08 23.8625C213.864 24.2465 214.464 24.8145 214.88 25.5665L215.312 23.4065H217.616ZM209.216 34.2545C210.16 34.2545 211.008 34.0305 211.76 33.5825C212.528 33.1185 213.12 32.4785 213.536 31.6625C213.968 30.8465 214.184 29.9185 214.184 28.8785C214.184 27.7425 213.856 26.8625 213.2 26.2385C212.544 25.6145 211.608 25.3025 210.392 25.3025C209.448 25.3025 208.6 25.5345 207.848 25.9985C207.096 26.4465 206.504 27.0785 206.072 27.8945C205.64 28.7105 205.424 29.6385 205.424 30.6785C205.424 31.7985 205.752 32.6785 206.408 33.3185C207.08 33.9425 208.016 34.2545 209.216 34.2545ZM225.503 36.2705C224.287 36.2705 223.223 36.0465 222.311 35.5985C221.399 35.1345 220.695 34.4945 220.199 33.6785C219.703 32.8465 219.455 31.8785 219.455 30.7745C219.455 29.3505 219.775 28.0705 220.415 26.9345C221.055 25.7985 221.943 24.9105 223.079 24.2705C224.215 23.6145 225.503 23.2865 226.943 23.2865C229.455 23.2865 231.199 24.2065 232.175 26.0465L230.231 27.1265C229.559 25.9105 228.407 25.3025 226.775 25.3025C225.831 25.3025 224.975 25.5345 224.207 25.9985C223.455 26.4465 222.863 27.0785 222.431 27.8945C221.999 28.7105 221.783 29.6385 221.783 30.6785C221.783 31.7985 222.111 32.6785 222.767 33.3185C223.439 33.9425 224.383 34.2545 225.599 34.2545C226.367 34.2545 227.079 34.1025 227.735 33.7985C228.407 33.4945 228.959 33.0465 229.391 32.4545L231.071 33.6545C230.479 34.4705 229.687 35.1105 228.695 35.5745C227.703 36.0385 226.639 36.2705 225.503 36.2705ZM246.802 23.4065L237.778 37.5185C236.962 38.7985 236.186 39.6865 235.45 40.1825C234.714 40.6785 233.842 40.9265 232.834 40.9265C232.21 40.9265 231.602 40.8225 231.01 40.6145C230.418 40.4225 229.962 40.1505 229.642 39.7985L230.842 38.0945C231.418 38.6705 232.138 38.9585 233.002 38.9585C233.546 38.9585 234.026 38.8145 234.442 38.5265C234.858 38.2385 235.29 37.7505 235.738 37.0625L236.386 36.0545L233.314 23.4065H235.618L238.066 33.5825L244.474 23.4065H246.802Z" fill="#202020"/>
<circle cx="332.242" cy="24.2425" r="24.2425" fill="#DADADA"/>
<path d="M331.252 30.6403L331.234 22.2883L327.094 29.2003H326.05L321.91 22.3963V30.6403H319.678V18.0403H321.604L326.608 26.3923L331.522 18.0403H333.448L333.466 30.6403H331.252ZM340.775 30.8203C339.803 30.8203 338.861 30.6823 337.949 30.4063C337.049 30.1303 336.335 29.7643 335.807 29.3083L336.617 27.4903C337.133 27.8983 337.763 28.2343 338.507 28.4983C339.263 28.7503 340.019 28.8763 340.775 28.8763C341.711 28.8763 342.407 28.7263 342.863 28.4263C343.331 28.1263 343.565 27.7303 343.565 27.2383C343.565 26.8783 343.433 26.5843 343.169 26.3563C342.917 26.1163 342.593 25.9303 342.197 25.7983C341.801 25.6663 341.261 25.5163 340.577 25.3483C339.617 25.1203 338.837 24.8923 338.237 24.6643C337.649 24.4363 337.139 24.0823 336.707 23.6023C336.287 23.1103 336.077 22.4503 336.077 21.6223C336.077 20.9263 336.263 20.2963 336.635 19.7323C337.019 19.1563 337.589 18.7003 338.345 18.3643C339.113 18.0283 340.049 17.8603 341.153 17.8603C341.921 17.8603 342.677 17.9563 343.421 18.1483C344.165 18.3403 344.807 18.6163 345.347 18.9763L344.609 20.7943C344.057 20.4703 343.481 20.2243 342.881 20.0563C342.281 19.8883 341.699 19.8043 341.135 19.8043C340.211 19.8043 339.521 19.9603 339.065 20.2723C338.621 20.5843 338.399 20.9983 338.399 21.5143C338.399 21.8743 338.525 22.1683 338.777 22.3963C339.041 22.6243 339.371 22.8043 339.767 22.9363C340.163 23.0683 340.703 23.2183 341.387 23.3863C342.323 23.6023 343.091 23.8303 343.691 24.0703C344.291 24.2983 344.801 24.6523 345.221 25.1323C345.653 25.6123 345.869 26.2603 345.869 27.0763C345.869 27.7723 345.677 28.4023 345.293 28.9663C344.921 29.5303 344.351 29.9803 343.583 30.3163C342.815 30.6523 341.879 30.8203 340.775 30.8203Z" fill="#202020"/>
<circle cx="292.242" cy="24.2425" r="24.2425" fill="#99CC99"/>
<path d="M282.121 18.0403H284.461V28.6603H291.049V30.6403H282.121V18.0403ZM298.5 30.8203C297.228 30.8203 296.076 30.5443 295.044 29.9923C294.024 29.4283 293.22 28.6543 292.632 27.6703C292.056 26.6863 291.768 25.5763 291.768 24.3403C291.768 23.1043 292.062 21.9943 292.65 21.0103C293.238 20.0263 294.042 19.2583 295.062 18.7063C296.094 18.1423 297.246 17.8603 298.518 17.8603C299.55 17.8603 300.492 18.0403 301.344 18.4003C302.196 18.7603 302.916 19.2823 303.504 19.9663L301.992 21.3883C301.08 20.4043 299.958 19.9123 298.626 19.9123C297.762 19.9123 296.988 20.1043 296.304 20.4883C295.62 20.8603 295.086 21.3823 294.702 22.0543C294.318 22.7263 294.126 23.4883 294.126 24.3403C294.126 25.1923 294.318 25.9543 294.702 26.6263C295.086 27.2983 295.62 27.8263 296.304 28.2103C296.988 28.5823 297.762 28.7683 298.626 28.7683C299.958 28.7683 301.08 28.2703 301.992 27.2743L303.504 28.7143C302.916 29.3983 302.19 29.9203 301.326 30.2803C300.474 30.6403 299.532 30.8203 298.5 30.8203Z" fill="#202020"/>
</svg>
