<svg width="277" height="49" viewBox="0 0 277 49" fill="none" xmlns="http://www.w3.org/2000/svg">
<rect y="26" width="207" height="22" rx="10" fill="#D6392E" fill-opacity="0.6"/>
<path d="M12.688 33.192C10.704 33.192 9.152 32.696 8.032 31.704C6.928 30.712 6.376 29.336 6.376 27.576C6.376 27.048 6.44 26.44 6.568 25.752L8.464 16.2H10.864L8.944 25.728C8.832 26.272 8.776 26.8 8.776 27.312C8.776 28.544 9.128 29.48 9.832 30.12C10.536 30.744 11.56 31.056 12.904 31.056C14.408 31.056 15.608 30.624 16.504 29.76C17.416 28.896 18.056 27.544 18.424 25.704L20.32 16.2H22.672L20.752 25.872C20.256 28.304 19.328 30.136 17.968 31.368C16.624 32.584 14.864 33.192 12.688 33.192ZM27.9284 33.144C26.8724 33.144 25.8644 33.008 24.9044 32.736C23.9604 32.464 23.2244 32.112 22.6964 31.68L23.7284 29.856C24.2244 30.256 24.8644 30.576 25.6484 30.816C26.4484 31.04 27.2804 31.152 28.1444 31.152C29.2324 31.152 30.0564 30.992 30.6164 30.672C31.1924 30.336 31.4804 29.872 31.4804 29.28C31.4804 28.8 31.2484 28.456 30.7844 28.248C30.3364 28.04 29.6324 27.832 28.6724 27.624C27.7764 27.432 27.0404 27.24 26.4644 27.048C25.9044 26.84 25.4244 26.52 25.0244 26.088C24.6244 25.64 24.4244 25.04 24.4244 24.288C24.4244 23.456 24.6564 22.728 25.1204 22.104C25.6004 21.48 26.2724 21 27.1364 20.664C28.0164 20.328 29.0324 20.16 30.1844 20.16C31.0324 20.16 31.8564 20.264 32.6564 20.472C33.4564 20.68 34.1124 20.96 34.6244 21.312L33.7124 23.136C33.2164 22.8 32.6404 22.552 31.9844 22.392C31.3284 22.216 30.6564 22.128 29.9684 22.128C28.9284 22.128 28.1284 22.304 27.5684 22.656C27.0084 22.992 26.7284 23.448 26.7284 24.024C26.7284 24.536 26.9604 24.904 27.4244 25.128C27.8884 25.336 28.6084 25.544 29.5844 25.752C30.4644 25.944 31.1844 26.136 31.7444 26.328C32.3044 26.52 32.7764 26.832 33.1604 27.264C33.5604 27.696 33.7604 28.28 33.7604 29.016C33.7604 30.312 33.2244 31.328 32.1524 32.064C31.0964 32.784 29.6884 33.144 27.9284 33.144ZM50.4398 20.28L47.9198 33H45.7118L46.0238 31.44C45.4478 31.984 44.7758 32.408 44.0078 32.712C43.2558 33 42.4318 33.144 41.5358 33.144C40.4478 33.144 39.4798 32.928 38.6318 32.496C37.7838 32.048 37.1198 31.408 36.6398 30.576C36.1598 29.744 35.9198 28.768 35.9198 27.648C35.9198 26.208 36.2318 24.92 36.8558 23.784C37.4798 22.648 38.3358 21.76 39.4238 21.12C40.5278 20.48 41.7598 20.16 43.1198 20.16C44.2078 20.16 45.1358 20.352 45.9038 20.736C46.6878 21.12 47.2878 21.688 47.7038 22.44L48.1358 20.28H50.4398ZM42.0398 31.128C42.9838 31.128 43.8318 30.904 44.5838 30.456C45.3518 29.992 45.9438 29.352 46.3598 28.536C46.7918 27.72 47.0078 26.792 47.0078 25.752C47.0078 24.616 46.6798 23.736 46.0238 23.112C45.3678 22.488 44.4318 22.176 43.2158 22.176C42.2718 22.176 41.4238 22.408 40.6718 22.872C39.9198 23.32 39.3278 23.952 38.8958 24.768C38.4638 25.584 38.2478 26.512 38.2478 27.552C38.2478 28.672 38.5758 29.552 39.2318 30.192C39.9038 30.816 40.8398 31.128 42.0398 31.128ZM61.2072 20.16C62.2952 20.16 63.2632 20.384 64.1112 20.832C64.9592 21.264 65.6232 21.896 66.1032 22.728C66.5832 23.544 66.8232 24.512 66.8232 25.632C66.8232 27.072 66.5112 28.36 65.8872 29.496C65.2632 30.632 64.3992 31.528 63.2952 32.184C62.2072 32.824 60.9832 33.144 59.6232 33.144C58.5032 33.144 57.5432 32.936 56.7432 32.52C55.9592 32.104 55.3672 31.496 54.9672 30.696L54.4872 33H52.3032L55.8552 15.192H58.1592L56.8392 21.744C58.0232 20.688 59.4792 20.16 61.2072 20.16ZM59.5272 31.128C60.4712 31.128 61.3192 30.904 62.0712 30.456C62.8232 29.992 63.4152 29.352 63.8472 28.536C64.2792 27.72 64.4952 26.792 64.4952 25.752C64.4952 24.616 64.1672 23.736 63.5112 23.112C62.8552 22.488 61.9192 22.176 60.7032 22.176C59.7592 22.176 58.9032 22.408 58.1352 22.872C57.3832 23.32 56.7912 23.952 56.3592 24.768C55.9432 25.584 55.7352 26.512 55.7352 27.552C55.7352 28.672 56.0632 29.552 56.7192 30.192C57.3912 30.816 58.3272 31.128 59.5272 31.128ZM71.1826 20.28H73.4866L70.9666 33H68.6626L71.1826 20.28ZM73.0066 17.832C72.5906 17.832 72.2466 17.696 71.9746 17.424C71.7026 17.152 71.5666 16.824 71.5666 16.44C71.5666 15.992 71.7186 15.616 72.0226 15.312C72.3426 14.992 72.7426 14.832 73.2226 14.832C73.6386 14.832 73.9826 14.968 74.2546 15.24C74.5426 15.496 74.6866 15.808 74.6866 16.176C74.6866 16.672 74.5266 17.072 74.2066 17.376C73.9026 17.68 73.5026 17.832 73.0066 17.832ZM78.9177 15.192H81.2217L77.6697 33H75.3657L78.9177 15.192ZM84.5888 20.28H86.8928L84.3728 33H82.0688L84.5888 20.28ZM86.4128 17.832C85.9968 17.832 85.6528 17.696 85.3808 17.424C85.1088 17.152 84.9728 16.824 84.9728 16.44C84.9728 15.992 85.1248 15.616 85.4288 15.312C85.7488 14.992 86.1488 14.832 86.6288 14.832C87.0448 14.832 87.3888 14.968 87.6608 15.24C87.9488 15.496 88.0928 15.808 88.0928 16.176C88.0928 16.672 87.9328 17.072 87.6128 17.376C87.3088 17.68 86.9088 17.832 86.4128 17.832ZM92.1799 28.944C92.1319 29.184 92.1079 29.408 92.1079 29.616C92.1079 30.128 92.2439 30.52 92.5159 30.792C92.8039 31.064 93.2279 31.2 93.7879 31.2C94.4599 31.2 95.0679 31 95.6119 30.6L96.0919 32.352C95.3239 32.88 94.3399 33.144 93.1399 33.144C92.1319 33.144 91.3159 32.864 90.6919 32.304C90.0839 31.728 89.7799 30.944 89.7799 29.952C89.7799 29.616 89.8119 29.296 89.8759 28.992L91.2439 22.176H89.0839L89.4439 20.28H91.6279L92.1799 17.496H94.4839L93.9319 20.28H97.5799L97.1959 22.176H93.5479L92.1799 28.944ZM112.251 20.28L103.227 34.392C102.411 35.672 101.635 36.56 100.899 37.056C100.163 37.552 99.2911 37.8 98.2831 37.8C97.6591 37.8 97.0511 37.696 96.4591 37.488C95.8671 37.296 95.4111 37.024 95.0911 36.672L96.2911 34.968C96.8671 35.544 97.5871 35.832 98.4511 35.832C98.9951 35.832 99.4751 35.688 99.8911 35.4C100.307 35.112 100.739 34.624 101.187 33.936L101.835 32.928L98.7631 20.28H101.067L103.515 30.456L109.923 20.28H112.251ZM124.903 18.288H119.167L119.575 16.2H133.471L133.039 18.288H127.303L124.351 33H121.975L124.903 18.288ZM133.332 27.36V27.504C133.332 28.688 133.668 29.592 134.34 30.216C135.012 30.824 136.02 31.128 137.364 31.128C138.148 31.128 138.884 31 139.572 30.744C140.26 30.472 140.836 30.112 141.3 29.664L142.284 31.32C141.66 31.896 140.9 32.344 140.004 32.664C139.108 32.984 138.164 33.144 137.172 33.144C135.924 33.144 134.844 32.92 133.932 32.472C133.02 32.024 132.316 31.384 131.82 30.552C131.324 29.72 131.076 28.744 131.076 27.624C131.076 26.2 131.38 24.92 131.988 23.784C132.612 22.648 133.468 21.76 134.556 21.12C135.66 20.48 136.892 20.16 138.252 20.16C139.98 20.16 141.356 20.656 142.38 21.648C143.42 22.624 143.94 23.96 143.94 25.656C143.94 26.168 143.884 26.736 143.772 27.36H133.332ZM138.156 22.08C137.02 22.08 136.044 22.4 135.228 23.04C134.412 23.68 133.86 24.56 133.572 25.68H141.78C141.844 24.544 141.54 23.664 140.868 23.04C140.212 22.4 139.308 22.08 138.156 22.08ZM149.78 33.144C148.724 33.144 147.716 33.008 146.756 32.736C145.812 32.464 145.076 32.112 144.548 31.68L145.58 29.856C146.076 30.256 146.716 30.576 147.5 30.816C148.3 31.04 149.132 31.152 149.996 31.152C151.084 31.152 151.908 30.992 152.468 30.672C153.044 30.336 153.332 29.872 153.332 29.28C153.332 28.8 153.1 28.456 152.636 28.248C152.188 28.04 151.484 27.832 150.524 27.624C149.628 27.432 148.892 27.24 148.316 27.048C147.756 26.84 147.276 26.52 146.876 26.088C146.476 25.64 146.276 25.04 146.276 24.288C146.276 23.456 146.508 22.728 146.972 22.104C147.452 21.48 148.124 21 148.988 20.664C149.868 20.328 150.884 20.16 152.036 20.16C152.884 20.16 153.708 20.264 154.508 20.472C155.308 20.68 155.964 20.96 156.476 21.312L155.564 23.136C155.068 22.8 154.492 22.552 153.836 22.392C153.18 22.216 152.508 22.128 151.82 22.128C150.78 22.128 149.98 22.304 149.42 22.656C148.86 22.992 148.58 23.448 148.58 24.024C148.58 24.536 148.812 24.904 149.276 25.128C149.74 25.336 150.46 25.544 151.436 25.752C152.316 25.944 153.036 26.136 153.596 26.328C154.156 26.52 154.628 26.832 155.012 27.264C155.412 27.696 155.612 28.28 155.612 29.016C155.612 30.312 155.076 31.328 154.004 32.064C152.948 32.784 151.54 33.144 149.78 33.144ZM161.203 28.944C161.155 29.184 161.131 29.408 161.131 29.616C161.131 30.128 161.267 30.52 161.539 30.792C161.827 31.064 162.251 31.2 162.811 31.2C163.483 31.2 164.091 31 164.635 30.6L165.115 32.352C164.347 32.88 163.363 33.144 162.163 33.144C161.155 33.144 160.339 32.864 159.715 32.304C159.107 31.728 158.803 30.944 158.803 29.952C158.803 29.616 158.835 29.296 158.899 28.992L160.267 22.176H158.107L158.467 20.28H160.651L161.203 17.496H163.507L162.955 20.28H166.603L166.219 22.176H162.571L161.203 28.944ZM170.253 20.28H172.557L170.037 33H167.733L170.253 20.28ZM172.077 17.832C171.661 17.832 171.317 17.696 171.045 17.424C170.773 17.152 170.637 16.824 170.637 16.44C170.637 15.992 170.789 15.616 171.093 15.312C171.413 14.992 171.813 14.832 172.293 14.832C172.709 14.832 173.053 14.968 173.325 15.24C173.613 15.496 173.757 15.808 173.757 16.176C173.757 16.672 173.597 17.072 173.277 17.376C172.973 17.68 172.573 17.832 172.077 17.832ZM183.46 20.16C184.916 20.16 186.044 20.528 186.844 21.264C187.66 22 188.068 23.04 188.068 24.384C188.068 24.848 188.02 25.344 187.924 25.872L186.508 33H184.204L185.62 25.872C185.7 25.44 185.74 25.088 185.74 24.816C185.74 23.984 185.492 23.344 184.996 22.896C184.5 22.448 183.764 22.224 182.788 22.224C181.54 22.224 180.508 22.568 179.692 23.256C178.892 23.928 178.356 24.936 178.084 26.28L176.74 33H174.436L176.956 20.28H179.164L178.852 21.912C180.004 20.744 181.54 20.16 183.46 20.16ZM205.53 20.28L203.346 31.272C202.898 33.544 202.05 35.2 200.802 36.24C199.57 37.28 197.882 37.8 195.738 37.8C194.538 37.8 193.442 37.64 192.45 37.32C191.458 37.016 190.618 36.576 189.93 36L191.202 34.224C191.714 34.688 192.378 35.056 193.194 35.328C194.026 35.616 194.93 35.76 195.906 35.76C197.378 35.76 198.514 35.424 199.314 34.752C200.13 34.08 200.682 33.04 200.97 31.632L201.162 30.72C199.946 31.888 198.41 32.472 196.554 32.472C195.434 32.472 194.442 32.264 193.578 31.848C192.73 31.432 192.066 30.832 191.586 30.048C191.122 29.264 190.89 28.344 190.89 27.288C190.89 25.96 191.194 24.752 191.802 23.664C192.426 22.576 193.29 21.72 194.394 21.096C195.498 20.472 196.746 20.16 198.138 20.16C199.226 20.16 200.186 20.368 201.018 20.784C201.866 21.184 202.49 21.792 202.89 22.608L203.346 20.28H205.53ZM197.01 30.456C197.97 30.456 198.826 30.248 199.578 29.832C200.346 29.4 200.938 28.808 201.354 28.056C201.786 27.288 202.002 26.424 202.002 25.464C202.002 24.44 201.666 23.64 200.994 23.064C200.338 22.472 199.41 22.176 198.21 22.176C197.25 22.176 196.386 22.392 195.618 22.824C194.866 23.24 194.274 23.832 193.842 24.6C193.426 25.352 193.218 26.2 193.218 27.144C193.218 28.184 193.554 29 194.226 29.592C194.898 30.168 195.826 30.456 197.01 30.456Z" fill="#202020"/>
<circle cx="252.242" cy="24.2425" r="24.2425" fill="#E06B65"/>
<path d="M250.798 28.6781V30.6401H241.348V18.0401H250.546V20.0021H243.688V23.2781H249.772V25.2041H243.688V28.6781H250.798ZM257.744 25.3661L255.746 27.4181V30.6401H253.406V18.0401H255.746V24.5021L261.974 18.0401H264.602L259.31 23.6741L264.926 30.6401H262.19L257.744 25.3661Z" fill="#202020"/>
</svg>
