<svg width="339" height="49" viewBox="0 0 339 49" fill="none" xmlns="http://www.w3.org/2000/svg">
<rect y="28" width="237" height="20" rx="10" fill="#D6392E" fill-opacity="0.6"/>
<path d="M14.4027 17.2C16.3547 17.2 17.8667 17.632 18.9387 18.496C20.0267 19.344 20.5707 20.552 20.5707 22.12C20.5707 23.544 20.2507 24.768 19.6107 25.792C18.9867 26.8 18.0827 27.576 16.8987 28.12C15.7147 28.648 14.3147 28.912 12.6987 28.912H8.21069L7.20269 34H4.80269L8.16269 17.2H14.4027ZM12.7467 26.824C14.4747 26.824 15.8107 26.44 16.7547 25.672C17.6987 24.904 18.1707 23.792 18.1707 22.336C18.1707 21.344 17.8267 20.592 17.1387 20.08C16.4507 19.552 15.4667 19.288 14.1867 19.288H10.1547L8.64269 26.824H12.7467ZM30.835 21.16C32.291 21.16 33.419 21.528 34.219 22.264C35.035 23 35.443 24.04 35.443 25.384C35.443 25.848 35.395 26.344 35.299 26.872L33.883 34H31.579L32.995 26.872C33.075 26.44 33.115 26.088 33.115 25.816C33.115 24.984 32.867 24.344 32.371 23.896C31.875 23.448 31.139 23.224 30.163 23.224C28.915 23.224 27.883 23.568 27.067 24.256C26.267 24.928 25.731 25.936 25.459 27.28L24.115 34H21.811L25.363 16.192H27.667L26.347 22.768C27.483 21.696 28.979 21.16 30.835 21.16ZM51.6886 21.28L42.6646 35.392C41.8486 36.672 41.0726 37.56 40.3366 38.056C39.6006 38.552 38.7286 38.8 37.7206 38.8C37.0966 38.8 36.4886 38.696 35.8966 38.488C35.3046 38.296 34.8486 38.024 34.5286 37.672L35.7286 35.968C36.3046 36.544 37.0246 36.832 37.8886 36.832C38.4326 36.832 38.9126 36.688 39.3286 36.4C39.7446 36.112 40.1766 35.624 40.6246 34.936L41.2726 33.928L38.2006 21.28H40.5046L42.9526 31.456L49.3606 21.28H51.6886ZM55.1628 34.144C54.1068 34.144 53.0988 34.008 52.1388 33.736C51.1948 33.464 50.4588 33.112 49.9307 32.68L50.9628 30.856C51.4588 31.256 52.0988 31.576 52.8828 31.816C53.6828 32.04 54.5148 32.152 55.3788 32.152C56.4668 32.152 57.2908 31.992 57.8508 31.672C58.4268 31.336 58.7148 30.872 58.7148 30.28C58.7148 29.8 58.4828 29.456 58.0188 29.248C57.5708 29.04 56.8668 28.832 55.9068 28.624C55.0108 28.432 54.2748 28.24 53.6988 28.048C53.1388 27.84 52.6588 27.52 52.2588 27.088C51.8588 26.64 51.6588 26.04 51.6588 25.288C51.6588 24.456 51.8908 23.728 52.3548 23.104C52.8348 22.48 53.5068 22 54.3708 21.664C55.2508 21.328 56.2668 21.16 57.4188 21.16C58.2668 21.16 59.0908 21.264 59.8908 21.472C60.6908 21.68 61.3468 21.96 61.8588 22.312L60.9468 24.136C60.4508 23.8 59.8748 23.552 59.2188 23.392C58.5628 23.216 57.8908 23.128 57.2028 23.128C56.1628 23.128 55.3628 23.304 54.8028 23.656C54.2428 23.992 53.9628 24.448 53.9628 25.024C53.9628 25.536 54.1948 25.904 54.6588 26.128C55.1228 26.336 55.8428 26.544 56.8188 26.752C57.6988 26.944 58.4188 27.136 58.9788 27.328C59.5388 27.52 60.0108 27.832 60.3948 28.264C60.7948 28.696 60.9948 29.28 60.9948 30.016C60.9948 31.312 60.4588 32.328 59.3868 33.064C58.3308 33.784 56.9228 34.144 55.1628 34.144ZM65.6982 21.28H68.0022L65.4822 34H63.1782L65.6982 21.28ZM67.5222 18.832C67.1062 18.832 66.7622 18.696 66.4902 18.424C66.2182 18.152 66.0822 17.824 66.0822 17.44C66.0822 16.992 66.2342 16.616 66.5382 16.312C66.8582 15.992 67.2582 15.832 67.7382 15.832C68.1542 15.832 68.4982 15.968 68.7702 16.24C69.0582 16.496 69.2022 16.808 69.2022 17.176C69.2022 17.672 69.0422 18.072 68.7222 18.376C68.4182 18.68 68.0182 18.832 67.5222 18.832ZM75.9053 34.144C74.6893 34.144 73.6253 33.92 72.7133 33.472C71.8013 33.008 71.0973 32.368 70.6013 31.552C70.1053 30.72 69.8573 29.752 69.8573 28.648C69.8573 27.224 70.1773 25.944 70.8173 24.808C71.4573 23.672 72.3453 22.784 73.4813 22.144C74.6173 21.488 75.9053 21.16 77.3453 21.16C79.8573 21.16 81.6013 22.08 82.5773 23.92L80.6333 25C79.9613 23.784 78.8093 23.176 77.1773 23.176C76.2333 23.176 75.3773 23.408 74.6093 23.872C73.8573 24.32 73.2653 24.952 72.8333 25.768C72.4013 26.584 72.1853 27.512 72.1853 28.552C72.1853 29.672 72.5133 30.552 73.1693 31.192C73.8413 31.816 74.7853 32.128 76.0013 32.128C76.7693 32.128 77.4813 31.976 78.1373 31.672C78.8093 31.368 79.3613 30.92 79.7933 30.328L81.4733 31.528C80.8813 32.344 80.0893 32.984 79.0973 33.448C78.1053 33.912 77.0413 34.144 75.9053 34.144ZM97.9008 21.28L95.3808 34H93.1728L93.4848 32.44C92.9088 32.984 92.2368 33.408 91.4688 33.712C90.7168 34 89.8928 34.144 88.9968 34.144C87.9088 34.144 86.9408 33.928 86.0928 33.496C85.2448 33.048 84.5808 32.408 84.1008 31.576C83.6208 30.744 83.3808 29.768 83.3808 28.648C83.3808 27.208 83.6928 25.92 84.3168 24.784C84.9408 23.648 85.7968 22.76 86.8848 22.12C87.9888 21.48 89.2208 21.16 90.5808 21.16C91.6688 21.16 92.5968 21.352 93.3648 21.736C94.1488 22.12 94.7488 22.688 95.1648 23.44L95.5968 21.28H97.9008ZM89.5008 32.128C90.4448 32.128 91.2928 31.904 92.0448 31.456C92.8128 30.992 93.4048 30.352 93.8208 29.536C94.2528 28.72 94.4688 27.792 94.4688 26.752C94.4688 25.616 94.1408 24.736 93.4848 24.112C92.8288 23.488 91.8928 23.176 90.6768 23.176C89.7328 23.176 88.8848 23.408 88.1328 23.872C87.3808 24.32 86.7888 24.952 86.3568 25.768C85.9248 26.584 85.7088 27.512 85.7088 28.552C85.7088 29.672 86.0368 30.552 86.6928 31.192C87.3648 31.816 88.3008 32.128 89.5008 32.128ZM103.316 16.192H105.62L102.068 34H99.7641L103.316 16.192ZM122.825 17.2C124.777 17.2 126.289 17.632 127.361 18.496C128.449 19.344 128.993 20.552 128.993 22.12C128.993 23.544 128.673 24.768 128.033 25.792C127.409 26.8 126.505 27.576 125.321 28.12C124.137 28.648 122.737 28.912 121.121 28.912H116.633L115.625 34H113.225L116.585 17.2H122.825ZM121.169 26.824C122.897 26.824 124.233 26.44 125.177 25.672C126.121 24.904 126.593 23.792 126.593 22.336C126.593 21.344 126.249 20.592 125.561 20.08C124.873 19.552 123.889 19.288 122.609 19.288H118.577L117.065 26.824H121.169ZM134.156 23.176C134.716 22.472 135.404 21.96 136.22 21.64C137.036 21.32 138.028 21.16 139.196 21.16L138.764 23.392C138.62 23.376 138.42 23.368 138.164 23.368C135.524 23.368 133.924 24.792 133.364 27.64L132.092 34H129.788L132.308 21.28H134.516L134.156 23.176ZM145.302 34.144C144.102 34.144 143.054 33.92 142.158 33.472C141.262 33.008 140.566 32.36 140.07 31.528C139.574 30.696 139.326 29.736 139.326 28.648C139.326 27.224 139.646 25.944 140.286 24.808C140.926 23.672 141.814 22.784 142.95 22.144C144.086 21.488 145.366 21.16 146.79 21.16C147.99 21.16 149.038 21.384 149.934 21.832C150.83 22.28 151.518 22.92 151.998 23.752C152.494 24.568 152.742 25.528 152.742 26.632C152.742 28.056 152.422 29.344 151.782 30.496C151.142 31.632 150.254 32.528 149.118 33.184C147.998 33.824 146.726 34.144 145.302 34.144ZM145.446 32.128C146.39 32.128 147.238 31.904 147.99 31.456C148.758 30.992 149.35 30.352 149.766 29.536C150.198 28.72 150.414 27.792 150.414 26.752C150.414 25.616 150.086 24.736 149.43 24.112C148.774 23.488 147.838 23.176 146.622 23.176C145.678 23.176 144.83 23.408 144.078 23.872C143.326 24.32 142.734 24.952 142.302 25.768C141.87 26.584 141.654 27.512 141.654 28.552C141.654 29.672 141.982 30.552 142.638 31.192C143.31 31.816 144.246 32.128 145.446 32.128ZM157.992 29.944C157.944 30.184 157.92 30.408 157.92 30.616C157.92 31.128 158.056 31.52 158.328 31.792C158.616 32.064 159.04 32.2 159.6 32.2C160.272 32.2 160.88 32 161.424 31.6L161.904 33.352C161.136 33.88 160.152 34.144 158.952 34.144C157.944 34.144 157.128 33.864 156.504 33.304C155.896 32.728 155.592 31.944 155.592 30.952C155.592 30.616 155.624 30.296 155.688 29.992L157.056 23.176H154.896L155.256 21.28H157.44L157.992 18.496H160.296L159.744 21.28H163.392L163.008 23.176H159.36L157.992 29.944ZM170.052 34.144C168.852 34.144 167.804 33.92 166.908 33.472C166.012 33.008 165.316 32.36 164.82 31.528C164.324 30.696 164.076 29.736 164.076 28.648C164.076 27.224 164.396 25.944 165.036 24.808C165.676 23.672 166.564 22.784 167.7 22.144C168.836 21.488 170.116 21.16 171.54 21.16C172.74 21.16 173.788 21.384 174.684 21.832C175.58 22.28 176.268 22.92 176.748 23.752C177.244 24.568 177.492 25.528 177.492 26.632C177.492 28.056 177.172 29.344 176.532 30.496C175.892 31.632 175.004 32.528 173.868 33.184C172.748 33.824 171.476 34.144 170.052 34.144ZM170.196 32.128C171.14 32.128 171.988 31.904 172.74 31.456C173.508 30.992 174.1 30.352 174.516 29.536C174.948 28.72 175.164 27.792 175.164 26.752C175.164 25.616 174.836 24.736 174.18 24.112C173.524 23.488 172.588 23.176 171.372 23.176C170.428 23.176 169.58 23.408 168.828 23.872C168.076 24.32 167.484 24.952 167.052 25.768C166.62 26.584 166.404 27.512 166.404 28.552C166.404 29.672 166.732 30.552 167.388 31.192C168.06 31.816 168.996 32.128 170.196 32.128ZM182.742 29.944C182.694 30.184 182.67 30.408 182.67 30.616C182.67 31.128 182.806 31.52 183.078 31.792C183.366 32.064 183.79 32.2 184.35 32.2C185.022 32.2 185.63 32 186.174 31.6L186.654 33.352C185.886 33.88 184.902 34.144 183.702 34.144C182.694 34.144 181.878 33.864 181.254 33.304C180.646 32.728 180.342 31.944 180.342 30.952C180.342 30.616 180.374 30.296 180.438 29.992L181.806 23.176H179.646L180.006 21.28H182.19L182.742 18.496H185.046L184.494 21.28H188.142L187.758 23.176H184.11L182.742 29.944ZM202.814 21.28L193.79 35.392C192.974 36.672 192.198 37.56 191.462 38.056C190.726 38.552 189.854 38.8 188.846 38.8C188.222 38.8 187.614 38.696 187.022 38.488C186.43 38.296 185.974 38.024 185.654 37.672L186.854 35.968C187.43 36.544 188.15 36.832 189.014 36.832C189.558 36.832 190.038 36.688 190.454 36.4C190.87 36.112 191.302 35.624 191.75 34.936L192.398 33.928L189.326 21.28H191.63L194.078 31.456L200.486 21.28H202.814ZM211.348 21.16C212.436 21.16 213.404 21.384 214.252 21.832C215.1 22.264 215.764 22.896 216.244 23.728C216.724 24.544 216.964 25.512 216.964 26.632C216.964 28.072 216.652 29.36 216.028 30.496C215.404 31.632 214.54 32.528 213.436 33.184C212.348 33.824 211.124 34.144 209.764 34.144C208.676 34.144 207.74 33.952 206.956 33.568C206.172 33.168 205.572 32.592 205.156 31.84L203.812 38.656H201.508L204.964 21.28H207.172L206.86 22.864C208.044 21.728 209.54 21.16 211.348 21.16ZM209.668 32.128C210.612 32.128 211.46 31.904 212.212 31.456C212.964 30.992 213.556 30.352 213.988 29.536C214.42 28.72 214.636 27.792 214.636 26.752C214.636 25.616 214.308 24.736 213.652 24.112C212.996 23.488 212.06 23.176 210.844 23.176C209.9 23.176 209.044 23.408 208.276 23.872C207.524 24.32 206.932 24.952 206.5 25.768C206.084 26.584 205.876 27.512 205.876 28.552C205.876 29.672 206.204 30.552 206.86 31.192C207.532 31.816 208.468 32.128 209.668 32.128ZM221.035 28.36V28.504C221.035 29.688 221.371 30.592 222.043 31.216C222.715 31.824 223.723 32.128 225.067 32.128C225.851 32.128 226.587 32 227.275 31.744C227.963 31.472 228.539 31.112 229.003 30.664L229.987 32.32C229.363 32.896 228.603 33.344 227.707 33.664C226.811 33.984 225.867 34.144 224.875 34.144C223.627 34.144 222.547 33.92 221.635 33.472C220.723 33.024 220.019 32.384 219.523 31.552C219.027 30.72 218.779 29.744 218.779 28.624C218.779 27.2 219.083 25.92 219.691 24.784C220.315 23.648 221.171 22.76 222.259 22.12C223.363 21.48 224.595 21.16 225.955 21.16C227.683 21.16 229.059 21.656 230.083 22.648C231.123 23.624 231.643 24.96 231.643 26.656C231.643 27.168 231.587 27.736 231.475 28.36H221.035ZM225.859 23.08C224.723 23.08 223.747 23.4 222.931 24.04C222.115 24.68 221.563 25.56 221.275 26.68H229.483C229.547 25.544 229.243 24.664 228.571 24.04C227.915 23.4 227.011 23.08 225.859 23.08Z" fill="#202020"/>
<circle cx="314.242" cy="24.2425" r="24.2425" fill="#99CCFF"/>
<path d="M303.26 18.0401H305.6V28.6601H312.188V30.6401H303.26V18.0401ZM325.231 18.0401V30.6401H323.305L316.357 22.1081V30.6401H314.035V18.0401H315.961L322.909 26.5721V18.0401H325.231Z" fill="#202020"/>
<circle cx="277.242" cy="24.2425" r="24.2425" fill="#FEEB96"/>
<path d="M274.977 27.7241H268.677L267.435 30.6401H265.023L270.693 18.0401H272.997L278.685 30.6401H276.237L274.977 27.7241ZM274.203 25.8881L271.827 20.3801L269.469 25.8881H274.203ZM280.287 18.0401H282.627V28.6601H289.215V30.6401H280.287V18.0401Z" fill="#202020"/>
</svg>
