<svg width="79" height="81" viewBox="0 0 79 81" fill="none" xmlns="http://www.w3.org/2000/svg">
<path fill-rule="evenodd" clip-rule="evenodd" d="M39.0416 0.0617201C46.9611 -0.308693 55.072 0.913959 61.6484 5.75561C68.3706 10.7046 72.641 18.5405 75.4406 26.8593C78.3339 35.4566 80.4721 44.8957 77.7341 53.5537C75.0192 62.1389 67.8947 67.8147 60.9267 72.7552C54.2906 77.4603 46.9457 81.2464 39.0416 80.9875C31.2788 80.7331 24.1823 76.6195 18.0886 71.3517C12.194 66.256 8.18605 59.3803 5.27936 51.801C2.12818 43.5842 -1.65043 34.7018 0.770336 26.1937C3.20005 17.6542 10.862 12.5419 17.7969 7.80667C24.2881 3.37441 31.397 0.41928 39.0416 0.0617201Z" fill="#E06B65"/>
<path d="M39.069 12.4587C39.069 12.4587 25.8989 12.6287 25.6889 31.2387C25.6889 31.2387 18.5889 29.9787 24.6889 39.1787C24.6889 39.1787 25.2789 40.7587 27.1489 39.1787C29.0189 37.5987 25.3989 42.9687 33.8989 48.3387C33.8989 48.3387 34.0189 56.9587 31.8989 58.3387C29.7789 59.7187 43.5189 64.4587 45.7689 58.3387C44.3368 56.5797 43.5812 54.3663 43.639 52.0987C43.639 52.0987 53.079 51.6187 53.139 35.3587C53.199 19.0987 48.659 11.4587 39.069 12.4587Z" fill="#F0CEBB"/>
<path d="M27.4389 35.2587C25.4867 32.94 24.1382 30.1744 23.5136 27.2084C22.889 24.2423 23.0076 21.1678 23.8589 18.2587C26.6589 7.8287 40.5389 6.58871 46.6989 8.04871C52.8589 9.50871 54.0889 4.79871 54.0889 4.79871C54.0889 4.79871 60.6989 19.3587 54.0889 22.3787C47.4789 25.3987 27.8889 17.7387 27.4389 35.2587Z" fill="#C99F5F" stroke="#C99F5F" stroke-miterlimit="10"/>
<path d="M44.9723 57.9243C39.263 62.4918 33.7119 59.8275 31.6501 57.9243C21.554 57.5031 13.8043 73.1326 11.1914 81H67.8099C62.5763 71.405 50.6816 53.3568 44.9723 57.9243Z" fill="#FFB6B2"/>
</svg>
