<svg width="89" height="49" viewBox="0 0 89 49" fill="none" xmlns="http://www.w3.org/2000/svg">
<circle cx="64.2425" cy="24.2425" r="24.2425" fill="#DADADA"/>
<path d="M63.252 30.6403L63.234 22.2883L59.094 29.2003H58.05L53.91 22.3963V30.6403H51.678V18.0403H53.604L58.608 26.3923L63.522 18.0403H65.448L65.466 30.6403H63.252ZM72.7754 30.8203C71.8034 30.8203 70.8614 30.6823 69.9494 30.4063C69.0494 30.1303 68.3354 29.7643 67.8074 29.3083L68.6174 27.4903C69.1334 27.8983 69.7634 28.2343 70.5074 28.4983C71.2634 28.7503 72.0194 28.8763 72.7754 28.8763C73.7114 28.8763 74.4074 28.7263 74.8634 28.4263C75.3314 28.1263 75.5654 27.7303 75.5654 27.2383C75.5654 26.8783 75.4334 26.5843 75.1694 26.3563C74.9174 26.1163 74.5934 25.9303 74.1974 25.7983C73.8014 25.6663 73.2614 25.5163 72.5774 25.3483C71.6174 25.1203 70.8374 24.8923 70.2374 24.6643C69.6494 24.4363 69.1394 24.0823 68.7074 23.6023C68.2874 23.1103 68.0774 22.4503 68.0774 21.6223C68.0774 20.9263 68.2634 20.2963 68.6354 19.7323C69.0194 19.1563 69.5894 18.7003 70.3454 18.3643C71.1134 18.0283 72.0494 17.8603 73.1534 17.8603C73.9214 17.8603 74.6774 17.9563 75.4214 18.1483C76.1654 18.3403 76.8074 18.6163 77.3474 18.9763L76.6094 20.7943C76.0574 20.4703 75.4814 20.2243 74.8814 20.0563C74.2814 19.8883 73.6994 19.8043 73.1354 19.8043C72.2114 19.8043 71.5214 19.9603 71.0654 20.2723C70.6214 20.5843 70.3994 20.9983 70.3994 21.5143C70.3994 21.8743 70.5254 22.1683 70.7774 22.3963C71.0414 22.6243 71.3714 22.8043 71.7674 22.9363C72.1634 23.0683 72.7034 23.2183 73.3874 23.3863C74.3234 23.6023 75.0914 23.8303 75.6914 24.0703C76.2914 24.2983 76.8014 24.6523 77.2214 25.1323C77.6534 25.6123 77.8694 26.2603 77.8694 27.0763C77.8694 27.7723 77.6774 28.4023 77.2934 28.9663C76.9214 29.5303 76.3514 29.9803 75.5834 30.3163C74.8154 30.6523 73.8794 30.8203 72.7754 30.8203Z" fill="#202020"/>
<circle cx="24.2425" cy="24.2425" r="24.2425" fill="#99CC99"/>
<path d="M14.1213 18.0403H16.4613V28.6603H23.0493V30.6403H14.1213V18.0403ZM30.5002 30.8203C29.2282 30.8203 28.0762 30.5443 27.0442 29.9923C26.0242 29.4283 25.2202 28.6543 24.6322 27.6703C24.0562 26.6863 23.7682 25.5763 23.7682 24.3403C23.7682 23.1043 24.0622 21.9943 24.6502 21.0103C25.2382 20.0263 26.0422 19.2583 27.0622 18.7063C28.0942 18.1423 29.2462 17.8603 30.5182 17.8603C31.5502 17.8603 32.4922 18.0403 33.3442 18.4003C34.1962 18.7603 34.9162 19.2823 35.5042 19.9663L33.9922 21.3883C33.0802 20.4043 31.9582 19.9123 30.6262 19.9123C29.7622 19.9123 28.9882 20.1043 28.3042 20.4883C27.6202 20.8603 27.0862 21.3823 26.7022 22.0543C26.3182 22.7263 26.1262 23.4883 26.1262 24.3403C26.1262 25.1923 26.3182 25.9543 26.7022 26.6263C27.0862 27.2983 27.6202 27.8263 28.3042 28.2103C28.9882 28.5823 29.7622 28.7683 30.6262 28.7683C31.9582 28.7683 33.0802 28.2703 33.9922 27.2743L35.5042 28.7143C34.9162 29.3983 34.1902 29.9203 33.3262 30.2803C32.4742 30.6403 31.5322 30.8203 30.5002 30.8203Z" fill="#202020"/>
</svg>
