<svg width="79" height="82" viewBox="0 0 79 82" fill="none" xmlns="http://www.w3.org/2000/svg">
<path fill-rule="evenodd" clip-rule="evenodd" d="M41.6893 0.047923C50.3229 -0.425534 59.0462 2.63377 65.597 8.13367C71.8554 13.3882 74.2202 21.4415 76.4138 29.2021C78.5092 36.6153 80.1937 44.3014 77.8996 51.6586C75.5779 59.1039 69.905 64.8226 63.7575 69.7898C57.222 75.0705 50.1555 80.2927 41.6893 80.9165C32.8761 81.5659 24.1444 78.3736 17.0551 73.231C10.0221 68.1292 5.30292 60.6971 2.60886 52.5672C-0.0812364 44.4493 -1.28872 35.5408 1.9374 27.6105C5.0649 19.9226 12.7448 15.4476 19.6601 10.6528C26.5007 5.90974 33.3066 0.507617 41.6893 0.047923Z" fill="#E4675E"/>
<path d="M40.7889 14.06C40.7889 14.06 27.6189 14.27 27.3789 32.91C27.3789 32.91 20.2689 31.65 26.3789 40.85C26.3789 40.85 26.9689 42.44 28.8389 40.85C30.7089 39.26 27.0889 44.64 35.5889 50.01C35.5889 50.01 35.7089 58.63 33.5889 60.01C31.4689 61.39 45.2089 66.13 47.4489 60.01C46.0227 58.2444 45.2712 56.029 45.3289 53.76C45.3289 53.76 54.7689 53.28 54.8189 37.02C54.8689 20.76 50.3789 13.12 40.7889 14.06Z" fill="#F0CEBB" fill-opacity="0.9"/>
<path d="M23.1889 20.15C23.1889 20.15 20.5 24 23.1898 29.37C23.002 29.7585 22.9003 30.183 22.8915 30.6144C22.8827 31.0458 22.9671 31.4741 23.1389 31.8699C23.3108 32.2657 23.5659 32.6198 23.8871 32.9081C24.2082 33.1963 24.5878 33.4118 24.9998 33.54C24.9998 33.54 27.1198 35.96 27.9198 34.04C28.7198 32.12 28.2807 26.6 31.5007 26.5C31.5007 26.5 32.5007 20.15 37.5007 20.15C37.5007 20.15 38.8807 18.49 41.0007 19.5C43.1207 20.51 44.0007 19 45.5007 18.5C46.8498 18.5 50.0007 23 52.4298 23.14C53.9798 22.75 53.7898 33.04 54.7998 32.03C55.8098 31.02 57.9198 20.25 52.5798 14.22C52.5798 14.22 48.3598 11.5 46.8498 13.22C46.8498 13.22 45.4398 10 42.1198 10C38.7998 10 37.1198 11.51 35.4698 11.21C33.8198 10.91 30.9398 10.7 29.5298 12.21C29.5298 13.22 22.8915 16.5 23.1889 20.15Z" fill="#9E7646"/>
<path d="M47.3789 12.83C47.5735 12.1728 47.9872 11.6021 48.5512 11.2128C49.1152 10.8234 49.7955 10.6389 50.4789 10.69" fill="#9E7646"/>
<path d="M46.2207 12.18C46.2308 11.6877 46.4169 11.2153 46.7453 10.8485C47.0736 10.4816 47.5226 10.2444 48.0107 10.18" fill="#9E7646"/>
<path d="M47.4411 58.9245C41.7318 63.492 36.1807 60.8276 34.1188 58.9245C24.0227 58.5033 16.273 74.1328 13.6602 82.0002H70.2787C65.045 72.4051 53.1504 54.357 47.4411 58.9245Z" fill="#E24D43"/>
</svg>
