<svg width="79" height="82" viewBox="0 0 79 82" fill="none" xmlns="http://www.w3.org/2000/svg">
<path fill-rule="evenodd" clip-rule="evenodd" d="M39.9408 0.00223137C47.6403 -0.0987379 54.984 3.23544 61.2201 8.2716C67.4636 13.3136 72.0672 20.2711 74.9248 28.2544C77.9459 36.6945 80.6172 46.1165 77.8221 54.6529C75.0605 63.0869 67.2948 67.6716 60.4626 72.4234C54.1088 76.8425 47.4292 81.0453 39.9408 80.9996C32.477 80.9541 25.9694 76.4789 19.5815 72.174C12.5738 67.4515 4.20986 63.4601 1.26984 54.939C-1.71448 46.2895 1.07414 36.5516 4.35254 28.0355C7.40231 20.1133 12.7071 13.7994 19.0221 8.82498C25.2637 3.90836 32.2992 0.102441 39.9408 0.00223137Z" fill="#99CCFF"/>
<path d="M28.2207 39.8411C28.2207 39.8411 31.9307 49.8411 36.2207 48.0811C36.2207 48.0811 30.4507 44.3811 30.5007 38.9411C30.5007 38.6611 30.0007 39.0011 29.8007 39.2011C29.6049 39.4228 29.3602 39.596 29.0861 39.7071C28.8119 39.8182 28.5156 39.864 28.2207 39.8411Z" fill="#F0DAB8"/>
<path d="M41.7898 12.3911C41.7898 12.3911 28.6198 12.6011 28.4098 31.2011C28.4098 31.2011 21.2997 29.9511 27.3597 39.2011C27.3597 39.2011 27.9597 40.7811 29.8297 39.2011C31.6997 37.6211 28.0798 42.9811 36.5798 48.3611C36.5798 48.3611 36.6997 56.9811 34.5798 58.3611C32.4598 59.7411 46.1898 64.4811 48.4398 58.3611C47.0136 56.5954 46.2621 54.38 46.3198 52.1111C46.3198 52.1111 55.7598 51.6411 55.8098 35.3711C55.8698 19.2011 51.3698 11.4511 41.7898 12.3911Z" fill="#EFD4C5"/>
<path d="M40.0002 11.5C40.0002 11.5 35 3.5 28 7.50001C20.5817 11.739 27.3903 23.8811 26.9603 20.5511C26.2103 14.7411 19.4603 26.0311 26.1303 31.4111C26.1303 30.3311 39.0703 34.1611 44.7003 18.4111C44.7003 18.4111 54.1303 28.2811 55.4503 26.8111C56.7703 25.3411 54.2802 10.62 40.0002 11.5Z" fill="#F0DAB8"/>
<path d="M47.2575 58.484C41.5482 63.0515 35.9971 60.3871 33.9352 58.484C23.8391 58.0627 16.0894 73.6922 13.4766 81.5596H70.0951C64.8614 71.9646 52.9668 53.9165 47.2575 58.484Z" fill="#C3DDF6"/>
</svg>
