<svg width="79" height="82" viewBox="0 0 79 82" fill="none" xmlns="http://www.w3.org/2000/svg">
<path fill-rule="evenodd" clip-rule="evenodd" d="M39.0416 0.0617201C46.9611 -0.308693 55.072 0.913959 61.6484 5.75561C68.3706 10.7046 72.641 18.5405 75.4406 26.8593C78.3339 35.4566 80.4721 44.8957 77.7341 53.5537C75.0192 62.1389 67.8947 67.8147 60.9267 72.7552C54.2906 77.4603 46.9457 81.2464 39.0416 80.9875C31.2788 80.7331 24.1823 76.6195 18.0886 71.3517C12.194 66.256 8.18605 59.3803 5.27936 51.801C2.12818 43.5842 -1.65043 34.7018 0.770336 26.1937C3.20005 17.6542 10.862 12.5419 17.7969 7.80667C24.2881 3.37441 31.397 0.41928 39.0416 0.0617201Z" fill="#99CC99"/>
<path d="M40.9347 14.9194C40.9347 14.9194 27.7647 15.1293 27.5547 33.7293C27.5547 33.7293 20.4447 32.4793 26.5547 41.7293C26.5547 41.7293 27.1547 43.3093 29.0247 41.7293C30.8947 40.1493 27.2747 45.5194 35.7747 50.8894C35.7747 50.8894 35.8947 59.5094 33.7747 60.8894C31.6547 62.2694 45.3947 67.0094 47.6347 60.8894C46.1856 59.1152 45.4226 56.8792 45.4847 54.5894C45.4847 54.5894 54.9247 54.1093 54.9747 37.8493C55.0247 21.5893 50.4847 13.9794 40.9347 14.9194Z" fill="#E0B9A3"/>
<path d="M65.4852 65.3693C65.4852 65.3693 62.8252 49.2593 64.0652 42.2393C65.3052 35.2193 51.8752 14.8793 51.8752 14.8793C51.8752 14.8793 53.1052 6.08933 46.8752 8.72933C46.8752 8.72933 42.6052 11.8293 34.8752 10.0793C27.1452 8.32933 22.4852 18.8093 23.0352 22.2993C23.0352 22.2993 10.2352 26.9593 14.1152 47.2993C17.9952 67.6393 17.4152 77.7593 23.0352 80.6693C28.6552 83.5793 37.6352 78.15 43.1152 70C48.5952 61.85 54.1152 80.6693 54.1152 80.6693C54.1152 80.6693 67.0652 85.5393 65.4852 65.3693ZM52.7752 48.8493C50.2952 52.6893 48.6252 54.1693 46.1652 54.1693C43.7052 54.1693 47.2652 60.4393 47.2652 60.4393C40.7352 63.6393 34.4652 59.9093 34.4652 59.9093C37.2952 57.9093 36.4652 50.9093 36.4652 50.9093C33.0152 50.6893 29.5552 41.4393 29.5552 41.4393C26.7252 43.6593 25.4452 39.8793 25.4452 39.8793C22.9952 32.2093 27.5952 33.7493 27.5952 33.7493C26.9752 24.7493 37.0752 22.5793 43.1152 21.3493C49.1552 20.1193 49.6452 17.5293 49.6452 17.5293C57.0752 26.1893 55.2952 44.9493 52.7752 48.8493Z" fill="#202020"/>
<path d="M47.1637 58.484C41.4544 63.0515 35.9033 60.3871 33.8415 58.484C23.7454 58.0627 15.9957 73.6922 13.3828 81.5596H70.0013C64.7677 71.9646 52.8731 53.9165 47.1637 58.484Z" fill="#CBF4CB"/>
</svg>
