<svg width="81" height="83" viewBox="0 0 81 83" fill="none" xmlns="http://www.w3.org/2000/svg">
<path fill-rule="evenodd" clip-rule="evenodd" d="M42.6893 1.04792C51.3229 0.574466 60.0462 3.63377 66.597 9.13367C72.8554 14.3882 75.2202 22.4415 77.4138 30.2021C79.5092 37.6153 81.1937 45.3014 78.8996 52.6586C76.5779 60.1039 70.905 65.8226 64.7575 70.7898C58.222 76.0705 51.1555 81.2927 42.6893 81.9165C33.8761 82.5659 25.1444 79.3736 18.0551 74.231C11.0221 69.1292 6.30292 61.6971 3.60886 53.5672C0.918764 45.4493 -0.288722 36.5408 2.9374 28.6105C6.0649 20.9226 13.7448 16.4476 20.6601 11.6528C27.5007 6.90974 34.3066 1.50762 42.6893 1.04792Z" fill="white" stroke="#DADADA" stroke-width="2"/>
<path d="M43.3775 13.9807C43.3775 13.9807 30.2075 14.1907 29.9975 32.8007C29.9975 32.8007 22.8975 31.5407 28.9975 40.7407C28.9975 40.7407 29.5875 42.3207 31.4575 40.7407C33.3275 39.1607 29.6875 44.4907 38.1675 49.8607C38.1675 49.8607 38.2875 58.4807 36.1675 59.8607C34.0475 61.2407 47.7875 65.9807 50.0375 59.8607C48.6053 58.1017 47.8498 55.8883 47.9075 53.6207C47.9075 53.6207 57.3475 53.1407 57.4075 36.8807C57.4675 20.6207 52.9575 12.9807 43.3775 13.9807Z" fill="#F0CEBB"/>
<path d="M57.768 13.5907C57.768 13.5907 53.058 10.5907 53.198 9.1607C53.338 7.7307 49.918 5.9807 47.058 7.3107C47.058 7.3107 42.058 3.1607 37.208 7.4507C37.208 7.4507 30.778 6.8807 28.638 11.0207C28.638 11.0207 23.638 10.5907 25.638 17.5907C25.638 17.5907 20.638 20.0207 24.498 25.4407C24.498 25.4407 21.638 29.7307 25.498 32.3007C29.358 34.8707 29.638 31.7307 30.498 36.3007C31.358 40.8707 32.778 32.0107 32.638 30.3007C32.498 28.5907 32.638 24.8707 34.918 25.8707C37.198 26.8707 34.068 20.9807 38.688 23.3007C43.308 25.6207 45.538 18.8007 47.398 21.5507C49.258 24.3007 53.248 25.5507 54.248 22.7307C55.248 19.9107 57.108 23.9407 59.108 21.5507C61.108 19.1607 62.338 17.9807 57.768 13.5907Z" fill="#69512B"/>
<path d="M48.4411 58.9243C42.7318 63.4918 37.1807 60.8275 35.1188 58.9243C25.0227 58.5031 17.273 74.1326 14.6602 82H71.2787C66.045 72.405 54.1504 54.3568 48.4411 58.9243Z" fill="#DADADA"/>
</svg>
