<svg width="79" height="81" viewBox="0 0 79 81" fill="none" xmlns="http://www.w3.org/2000/svg">
<path fill-rule="evenodd" clip-rule="evenodd" d="M38.2771 0.121239C46.5944 -0.578627 54.94 1.76903 61.9189 6.7106C69.1418 11.8249 75.1578 19.1217 77.7068 28.0403C80.2348 36.8854 78.7786 46.3968 75.7346 55.0498C72.8062 63.3739 67.8978 70.8439 60.9598 75.6451C54.2798 80.2678 46.2079 80.8814 38.2771 80.971C30.2629 81.0615 21.7365 81.2468 15.2473 76.1615C8.75497 71.0737 6.32806 62.23 3.84403 53.9873C1.35793 45.7378 -1.55175 37.0229 0.970142 28.786C3.48632 20.5679 10.6392 15.4911 17.1659 10.4764C23.6227 5.5153 30.3797 0.785774 38.2771 0.121239Z" fill="#373737"/>
<path d="M40.8795 12.4018C40.8795 12.4018 27.7095 12.6118 27.4995 31.2218C27.4995 31.2218 20.3995 29.9618 26.4995 39.1618C26.4995 39.1618 27.0895 40.7418 28.9595 39.1618C30.8295 37.5818 27.1895 42.9118 35.6695 48.2818C35.6695 48.2818 35.7895 56.9018 33.6695 58.2818C31.5495 59.6618 45.2895 64.4018 47.5395 58.2818C46.1073 56.5228 45.3518 54.3094 45.4095 52.0418C45.4095 52.0418 54.8495 51.5618 54.9095 35.3018C54.9695 19.0418 50.4595 11.4018 40.8795 12.4018Z" fill="#F4D8BD"/>
<path d="M55.27 12.0118C55.27 12.0118 51.75 8.92134 50.7 7.58183C50.7 7.58183 47.362 5.09132 44.502 6.42132C44.502 6.42132 38.002 4.92134 34.002 7.58184C34.002 7.58184 30.14 6.28134 28 10.4213C28 10.4213 23 12.9213 23.14 16.0118C23.14 16.0118 21.9999 19.9718 22 23.8618C22 23.8618 22.502 27.9213 24.002 29.9213C27.862 32.4913 27.14 30.1518 28 34.7218C28.86 39.2918 30.28 30.4318 30.14 28.7218C30 27.0118 30.14 23.2918 32.42 24.2918C34.7 25.2918 31.57 19.4018 36.19 21.7218C40.81 24.0418 43.04 17.2218 44.9 19.9718C46.502 21.1518 51.502 19.9213 52.502 19.4213C54.002 17.9213 53.502 20.3113 55.502 17.9213C57.0999 16.0118 56.61 13.9213 55.27 12.0118Z" fill="#69512B"/>
<path d="M47.2575 57.4841C41.5482 62.0516 35.9971 59.3872 33.9352 57.4841C23.8391 57.0628 16.0894 72.6923 13.4766 80.5597H70.0951C64.8614 70.9647 52.9668 52.9166 47.2575 57.4841Z" fill="#202020"/>
</svg>
