<svg width="79" height="83" viewBox="0 0 79 83" fill="none" xmlns="http://www.w3.org/2000/svg">
<path fill-rule="evenodd" clip-rule="evenodd" d="M39.3169 0.32394C47.2623 0.0199777 55.182 1.65767 61.9484 6.19172C69.1041 10.9866 75.7599 17.5664 78.1267 26.3297C80.4643 34.985 77.7253 44.1398 74.4341 52.4211C71.394 60.0709 66.371 66.3013 60.2472 71.319C54.0222 76.4198 47.0976 80.6395 39.3169 81.196C31.1841 81.7776 22.9002 79.6325 16.2834 74.4632C9.64715 69.2787 5.63435 61.2503 3.01805 52.8381C0.375489 44.3415 -1.36667 35.0943 1.41273 26.6494C4.15315 18.3229 10.9561 12.6436 17.8147 7.88011C24.3206 3.36158 31.5995 0.619177 39.3169 0.32394Z" fill="#575555"/>
<path d="M38.484 15.5611C38.484 15.5611 25.314 15.7631 25.104 33.6675C25.104 33.6675 18.004 32.4553 24.104 41.3065C24.104 41.3065 24.694 42.8266 26.564 41.3065C28.434 39.7864 24.794 44.9144 33.274 50.0808C33.274 50.0808 33.394 58.374 31.274 59.7016C29.154 61.0293 42.894 65.5896 45.144 59.7016C43.7118 58.0093 42.9562 55.8798 43.014 53.6982C43.014 53.6982 52.454 53.2364 52.514 37.5929C52.574 21.9493 48.064 14.599 38.484 15.5611Z" fill="#CD9F94"/>
<path d="M52.8744 15.1857C52.8744 15.1857 48.1644 12.2994 48.3044 10.9236C48.4444 9.54781 45.0244 7.86415 42.1644 9.14373C42.1644 9.14373 37.1644 5.15104 32.3144 9.27842C32.3144 9.27842 25.8844 8.73003 23.7444 12.7131C23.7444 12.7131 18.7444 12.2994 20.7444 19.0341C20.7444 19.0341 15.7444 21.3719 19.6044 26.5865C19.6044 26.5865 16.7444 30.7139 20.6044 33.1865C24.4644 35.659 24.7444 32.6381 25.6044 37.0348C26.4644 41.4316 27.8844 32.9075 27.7444 31.2623C27.6044 29.6171 27.7444 26.0381 30.0244 27.0002C32.3044 27.9623 29.1744 22.2956 33.7944 24.5276C38.4144 26.7597 40.6444 20.1982 42.5044 22.8439C44.3644 25.4897 48.3544 26.6923 49.3544 23.9792C50.3544 21.2661 52.2144 25.1434 54.2144 22.8439C56.2144 20.5445 57.4444 19.4093 52.8744 15.1857Z" fill="#202020"/>
<path d="M44.9714 59.6356C39.262 64.2031 33.711 61.5387 31.6491 59.6356C21.553 59.2143 13.8033 74.8438 11.1904 82.7112H67.8089C62.5753 73.1162 50.6807 55.0681 44.9714 59.6356Z" fill="#DADADA"/>
</svg>
