<svg width="79" height="83" viewBox="0 0 79 83" fill="none" xmlns="http://www.w3.org/2000/svg">
<path fill-rule="evenodd" clip-rule="evenodd" d="M39.9408 0.00223137C47.6403 -0.0987379 54.984 3.23544 61.2201 8.2716C67.4636 13.3136 72.0672 20.2711 74.9248 28.2544C77.9459 36.6945 80.6172 46.1165 77.8221 54.6529C75.0605 63.0869 67.2948 67.6716 60.4626 72.4234C54.1088 76.8425 47.4292 81.0453 39.9408 80.9996C32.477 80.9541 25.9694 76.4789 19.5815 72.174C12.5738 67.4515 4.20986 63.4601 1.26984 54.939C-1.71448 46.2895 1.07414 36.5516 4.35254 28.0355C7.40231 20.1133 12.7071 13.7994 19.0221 8.82498C25.2637 3.90836 32.2992 0.102441 39.9408 0.00223137Z" fill="#99CC99"/>
<path d="M39.0343 16.9413C39.0343 16.9413 25.8643 17.1433 25.6543 35.0381C25.6543 35.0381 18.5443 33.8355 24.6543 42.7349C24.6543 42.7349 25.2543 44.255 27.1243 42.7349C28.9943 41.2148 25.3743 46.3812 33.8743 51.5476C33.8743 51.5476 33.9943 59.8408 31.8743 61.1685C29.7543 62.4962 44.7424 66.9078 46.9824 61.0198C45.5334 59.3129 43.5222 57.3104 43.5843 55.1073C43.5843 55.1073 53.0243 54.6455 53.0743 39.002C53.1243 23.3584 48.5843 16.0369 39.0343 16.9413Z" fill="#E8C0B6"/>
<path d="M63.5848 65.4787C63.5848 65.4787 60.9248 49.9794 62.1648 43.2256C63.4048 36.4717 49.9748 16.9028 49.9748 16.9028C49.9748 16.9028 51.2048 8.446 44.9748 10.9859C44.9748 10.9859 40.7048 13.9684 32.9748 12.2847C25.2448 10.6011 20.5848 20.6838 21.1348 24.0415C21.1348 24.0415 8.33481 28.5248 12.2148 48.0937C16.0948 67.6626 17.9248 77.399 23.5448 80.1987C29.1648 82.9984 35.7348 82.8495 41.2148 75.0084C46.6948 67.1674 52.2148 80.1987 52.2148 80.1987C52.2148 80.1987 65.1648 84.884 63.5848 65.4787ZM50.8748 49.585C48.3948 53.2794 46.7248 54.7033 44.2648 54.7033C41.8048 54.7033 45.9824 60.0578 45.9824 60.0578C39.4824 65.3493 32.5648 60.2257 32.5648 60.2257C34.9824 58.6146 34.5648 51.5669 34.5648 51.5669C31.1148 51.3552 27.6548 42.4559 27.6548 42.4559C24.8248 44.5917 23.5448 40.955 23.5448 40.955C21.0948 33.5758 25.6948 35.0574 25.6948 35.0574C25.0748 26.3986 35.1748 24.3109 41.2148 23.1275C47.2548 21.9441 47.7448 19.4523 47.7448 19.4523C55.1748 27.784 53.3948 45.8328 50.8748 49.585Z" fill="#202020"/>
<path d="M45.7067 59.6645C39.9974 64.232 34.4463 61.5676 32.3844 59.6645C22.2884 59.2432 14.5386 74.8727 11.9258 82.7401H68.5443C63.3106 73.1451 51.416 55.097 45.7067 59.6645Z" fill="#CBF4CB"/>
</svg>
