<svg width="81" height="84" viewBox="0 0 81 84" fill="none" xmlns="http://www.w3.org/2000/svg">
<path fill-rule="evenodd" clip-rule="evenodd" d="M40.0416 1.08223C47.9611 0.711815 56.072 1.93447 62.6484 6.77612C69.3706 11.7251 73.641 19.561 76.4406 27.8798C79.3339 36.4771 81.4721 45.9162 78.7341 54.5742C76.0192 63.1594 68.8947 68.8352 61.9267 73.7757C55.2906 78.4808 47.9457 82.2669 40.0416 82.008C32.2788 81.7536 25.1823 77.64 19.0886 72.3722C13.194 67.2765 9.18605 60.4008 6.27936 52.8215C3.12818 44.6047 -0.650431 35.7223 1.77034 27.2142C4.20005 18.6747 11.862 13.5624 18.7969 8.82717C25.2881 4.39492 32.397 1.43979 40.0416 1.08223Z" fill="white" stroke="#DADADA" stroke-width="2"/>
<path d="M43.0893 19.6609C43.0893 19.6609 29.9293 19.8709 29.7193 38.4709C29.7193 38.4709 22.6093 37.2209 28.6693 46.4109C28.6693 46.4109 29.2593 48.0009 31.1393 46.4109C33.0193 44.8209 29.3893 50.2009 37.8793 55.5709C37.8793 55.5709 38.0093 64.1909 35.8793 65.5709C33.7493 66.9509 47.4993 71.6909 49.7493 65.5709C48.3232 63.8053 47.5717 61.5898 47.6293 59.3209C47.6293 59.3209 57.0693 58.8509 57.1193 42.5809C57.1693 26.5009 52.6793 18.7509 43.0893 19.6609Z" fill="#E4B3A3"/>
<path d="M42.3991 15.1909C39.4054 13.7283 35.9899 13.3748 32.76 14.1932C29.5301 15.0117 26.6952 16.9491 24.7592 19.6609C17.1392 29.3809 18.9391 57.2509 20.9491 61.1609C22.9591 65.0709 37.6191 60.6609 37.6191 60.6609C37.8674 59.1141 37.9546 57.5457 37.8792 55.9809C37.6792 54.2009 34.1192 55.2809 31.6892 46.0609C31.6892 46.0609 29.5291 48.3109 28.3591 46.0009C27.1891 43.6909 24.5392 40.1309 27.8192 38.6209C29.0992 38.0309 31.0392 39.9009 33.3792 35.7909C35.3792 32.2309 36.6891 22.7909 44.1091 23.4609C51.5291 24.1309 51.6292 22.4609 51.6292 22.4609C51.6292 22.4609 57.9192 26.0809 56.8092 47.0209C56.7824 47.6972 56.6784 48.3682 56.4992 49.0209C55.7992 51.6409 53.7592 58.0209 47.7192 58.3709C47.7192 58.3709 47.0391 62.3709 48.4491 62.0909C49.8591 61.8109 59.9491 62.9809 60.9491 60.0909C61.9491 57.2009 65.7591 4.7709 42.3991 15.1909Z" fill="#202020"/>
<path d="M50.4411 60.644C44.7318 65.2115 39.1807 62.5471 37.1188 60.644C27.0227 60.2227 19.273 75.8522 16.6602 83.7196H73.2787C68.045 74.1246 56.1504 56.0765 50.4411 60.644Z" fill="#DADADA"/>
</svg>
