<svg width="89" height="49" viewBox="0 0 89 49" fill="none" xmlns="http://www.w3.org/2000/svg">
<ellipse cx="63.9717" cy="24.2425" rx="24.7833" ry="24.2425" fill="#575555"/>
<path d="M61.4344 27.7242H55.1344L53.8924 30.6402H51.4804L57.1504 18.0402H59.4544L65.1424 30.6402H62.6944L61.4344 27.7242ZM60.6604 25.8882L58.2844 20.3802L55.9264 25.8882H60.6604ZM70.6508 30.8202C69.6788 30.8202 68.7368 30.6822 67.8248 30.4062C66.9248 30.1302 66.2108 29.7642 65.6828 29.3082L66.4928 27.4902C67.0088 27.8982 67.6388 28.2342 68.3828 28.4982C69.1388 28.7502 69.8948 28.8762 70.6508 28.8762C71.5868 28.8762 72.2828 28.7262 72.7388 28.4262C73.2068 28.1262 73.4408 27.7302 73.4408 27.2382C73.4408 26.8782 73.3088 26.5842 73.0448 26.3562C72.7928 26.1162 72.4688 25.9302 72.0728 25.7982C71.6768 25.6662 71.1368 25.5162 70.4528 25.3482C69.4928 25.1202 68.7128 24.8922 68.1128 24.6642C67.5248 24.4362 67.0148 24.0822 66.5828 23.6022C66.1628 23.1102 65.9528 22.4502 65.9528 21.6222C65.9528 20.9262 66.1388 20.2962 66.5108 19.7322C66.8948 19.1562 67.4648 18.7002 68.2208 18.3642C68.9888 18.0282 69.9248 17.8602 71.0288 17.8602C71.7968 17.8602 72.5528 17.9562 73.2968 18.1482C74.0408 18.3402 74.6828 18.6162 75.2228 18.9762L74.4848 20.7942C73.9328 20.4702 73.3568 20.2242 72.7568 20.0562C72.1568 19.8882 71.5748 19.8042 71.0108 19.8042C70.0868 19.8042 69.3968 19.9602 68.9408 20.2722C68.4968 20.5842 68.2748 20.9982 68.2748 21.5142C68.2748 21.8742 68.4008 22.1682 68.6528 22.3962C68.9168 22.6242 69.2468 22.8042 69.6428 22.9362C70.0388 23.0682 70.5788 23.2182 71.2628 23.3862C72.1988 23.6022 72.9668 23.8302 73.5668 24.0702C74.1668 24.2982 74.6768 24.6522 75.0968 25.1322C75.5288 25.6122 75.7448 26.2602 75.7448 27.0762C75.7448 27.7722 75.5528 28.4022 75.1688 28.9662C74.7968 29.5302 74.2268 29.9802 73.4588 30.3162C72.6908 30.6522 71.7548 30.8202 70.6508 30.8202Z" fill="#202020"/>
<ellipse cx="25.1241" cy="24.2425" rx="24.7833" ry="24.2425" fill="#FFFF99"/>
<path d="M23.2378 30.6402L23.2198 22.2882L19.0798 29.2002H18.0358L13.8958 22.3962V30.6402H11.6638V18.0402H13.5898L18.5938 26.3922L23.5078 18.0402H25.4338L25.4518 30.6402H23.2378ZM33.1932 25.3662L31.1952 27.4182V30.6402H28.8552V18.0402H31.1952V24.5022L37.4232 18.0402H40.0512L34.7592 23.6742L40.3752 30.6402H37.6392L33.1932 25.3662Z" fill="#202020"/>
</svg>
