<svg width="91" height="49" viewBox="0 0 91 49" fill="none" xmlns="http://www.w3.org/2000/svg">
<ellipse cx="65.3621" cy="24.2425" rx="25.2498" ry="24.2425" fill="#575555"/>
<path d="M62.8255 27.7243H56.5255L55.2835 30.6403H52.8715L58.5415 18.0403H60.8455L66.5335 30.6403H64.0855L62.8255 27.7243ZM62.0515 25.8883L59.6755 20.3803L57.3175 25.8883H62.0515ZM72.042 30.8203C71.07 30.8203 70.128 30.6823 69.216 30.4063C68.316 30.1303 67.602 29.7643 67.074 29.3083L67.884 27.4903C68.4 27.8983 69.03 28.2343 69.774 28.4983C70.53 28.7503 71.286 28.8763 72.042 28.8763C72.978 28.8763 73.674 28.7263 74.13 28.4263C74.598 28.1263 74.832 27.7303 74.832 27.2383C74.832 26.8783 74.7 26.5843 74.436 26.3563C74.184 26.1163 73.86 25.9303 73.464 25.7983C73.068 25.6663 72.528 25.5163 71.844 25.3483C70.884 25.1203 70.104 24.8923 69.504 24.6643C68.916 24.4363 68.406 24.0823 67.974 23.6023C67.554 23.1103 67.344 22.4503 67.344 21.6223C67.344 20.9263 67.53 20.2963 67.902 19.7323C68.286 19.1563 68.856 18.7003 69.612 18.3643C70.38 18.0283 71.316 17.8603 72.42 17.8603C73.188 17.8603 73.944 17.9563 74.688 18.1483C75.432 18.3403 76.074 18.6163 76.614 18.9763L75.876 20.7943C75.324 20.4703 74.748 20.2243 74.148 20.0563C73.548 19.8883 72.966 19.8043 72.402 19.8043C71.478 19.8043 70.788 19.9603 70.332 20.2723C69.888 20.5843 69.666 20.9983 69.666 21.5143C69.666 21.8743 69.792 22.1683 70.044 22.3963C70.308 22.6243 70.638 22.8043 71.034 22.9363C71.43 23.0683 71.97 23.2183 72.654 23.3863C73.59 23.6023 74.358 23.8303 74.958 24.0703C75.558 24.2983 76.068 24.6523 76.488 25.1323C76.92 25.6123 77.136 26.2603 77.136 27.0763C77.136 27.7723 76.944 28.4023 76.56 28.9663C76.188 29.5303 75.618 29.9803 74.85 30.3163C74.082 30.6523 73.146 30.8203 72.042 30.8203Z" fill="#202020"/>
<ellipse cx="25.784" cy="24.2425" rx="25.2498" ry="24.2425" fill="#99CCFF"/>
<path d="M23.8106 30.6403L21.2366 26.9503C21.1286 26.9623 20.9666 26.9683 20.7506 26.9683H17.9066V30.6403H15.5666V18.0403H20.7506C21.8426 18.0403 22.7906 18.2203 23.5946 18.5803C24.4106 18.9403 25.0346 19.4563 25.4666 20.1283C25.8986 20.8003 26.1146 21.5983 26.1146 22.5223C26.1146 23.4703 25.8806 24.2863 25.4126 24.9703C24.9566 25.6543 24.2966 26.1643 23.4326 26.5003L26.3306 30.6403H23.8106ZM23.7566 22.5223C23.7566 21.7183 23.4926 21.1003 22.9646 20.6683C22.4366 20.2363 21.6626 20.0203 20.6426 20.0203H17.9066V25.0423H20.6426C21.6626 25.0423 22.4366 24.8263 22.9646 24.3943C23.4926 23.9503 23.7566 23.3263 23.7566 22.5223ZM31.1129 20.0203H26.9369V18.0403H37.6289V20.0203H33.4529V30.6403H31.1129V20.0203Z" fill="#202020"/>
</svg>
