<svg width="90" height="85" viewBox="0 0 90 85" fill="none" xmlns="http://www.w3.org/2000/svg">
<path fill-rule="evenodd" clip-rule="evenodd" d="M39.3169 0.535243C47.2623 0.231281 55.182 1.86897 61.9484 6.40302C69.1041 11.1979 75.7599 17.7777 78.1267 26.5411C80.4643 35.1963 77.7253 44.3511 74.4341 52.6324C71.394 60.2822 66.371 66.5126 60.2472 71.5303C54.0222 76.6311 47.0976 80.8509 39.3169 81.4073C31.1841 81.9889 22.9002 79.8438 16.2834 74.6745C9.64715 69.49 5.63435 61.4616 3.01805 53.0494C0.375489 44.5528 -1.36667 35.3056 1.41273 26.8607C4.15315 18.5342 10.9561 12.8549 17.8147 8.09142C24.3206 3.57289 31.5995 0.830481 39.3169 0.535243Z" fill="#FFFF99"/>
<path d="M56.9745 33.1798C55.5026 33.1798 58.8699 23.9623 53.6073 23.2199C53.6073 23.2199 49.7158 16.8481 47.4071 17.0337C45.0985 17.2193 44.7759 17.67 42.2454 17.0337C42.2454 17.0337 35.4101 11.7842 33.4139 16.3974C33.4139 16.3974 29.2099 14.8243 25.4192 20.4538C21.6286 26.0833 19.2191 20.7278 20.5801 28.0982C20.5801 28.0982 17.0112 31.3328 18.2714 35.6631C18.2714 35.6631 13.6439 37.6869 16.9003 42.7331C20.1566 47.7794 10.9119 44.3946 17.3237 52.693C17.3237 52.693 14.1682 59.1002 16.3761 60.2756C18.5839 61.451 13.2205 65.693 16.6886 67.1688C20.1567 68.6447 14.6723 70.2089 19.7131 71.6848C19.7131 71.6848 19.5014 77.4027 23.7457 72.3299C23.7457 72.3299 25.641 73.5318 29.3208 71.7732C33.0006 70.0145 36.267 69.1926 37.9506 70.6685C39.6342 72.1443 43.7274 71.6848 46.2578 70.2089C48.7883 68.7331 49.7259 74.7249 51.1978 71.3136C52.6697 67.9023 51.1877 68.4149 54.807 67.5312C58.4263 66.6474 61.1181 63.4748 60.0595 61.3449C59.4004 60.1952 59.0766 58.9203 59.1171 57.6341C59.1575 56.3479 59.561 55.0905 60.2914 53.9744C62.0658 50.8371 58.9102 48.0887 61.7431 44.4388C64.5761 40.7889 58.4465 33.1798 56.9745 33.1798ZM53.1637 52.092C48.7379 57.5271 47.1753 54.7433 46.1066 56.5727C45.038 58.402 48.4153 62.0166 48.4153 62.0166C43.0015 67.8758 34.7648 62.5645 34.7648 62.5645C34.7648 62.5645 38.0111 53.727 36.1763 53.0377C32.5368 51.6413 29.7442 45.1988 30.218 44.7304C27.738 47.1165 25.4595 43.5374 24.8647 40.0731C24.4514 37.6869 28.1513 38.6767 28.1513 38.6767C27.9699 35.5659 30.2987 35.7515 29.9559 34.6557C29.6938 33.8338 29.1091 27.2322 32.6679 27.5857C36.2267 27.9392 32.7485 22.8753 37.2651 24.0507C41.7816 25.2261 41.701 22.2125 41.701 22.2125C42.6587 21.8325 43.2636 22.8223 44.6549 23.6618C46.0461 24.5014 48.3851 24.0418 48.3851 24.0418C56.8233 25.9949 57.8819 46.3212 53.1637 52.092Z" fill="#202020"/>
<path d="M41.4513 21.5679C41.4513 21.5679 27.8344 21.7563 27.6171 38.4491C27.6171 38.4491 20.2602 37.3189 26.5306 45.5711C26.5306 45.5711 27.1411 46.9883 29.0864 45.5711C31.0316 44.1538 27.2756 48.9706 36.0604 53.7874C36.0604 53.7874 36.1949 61.5194 33.9909 62.7572C31.787 63.995 47.6719 68.2557 50 62.7572C48.5234 61.1774 46.0881 59.1927 46.1489 57.1601C46.1489 57.1601 55.9373 56.6847 55.9994 42.1356C56.0615 27.5866 51.4052 20.7337 41.4513 21.5679Z" fill="#CD9F94"/>
<path d="M48.0085 61.2337C42.2608 65.839 36.6723 63.1526 34.5965 61.2337C24.4324 60.809 16.6305 76.5676 14 84.5H71C65.7311 74.8257 53.7563 56.6285 48.0085 61.2337Z" fill="#F8F8C8"/>
</svg>
