<svg width="80" height="85" viewBox="0 0 80 85" fill="none" xmlns="http://www.w3.org/2000/svg">
<path fill-rule="evenodd" clip-rule="evenodd" d="M38.8923 0.751122C47.2096 0.0512562 55.5553 2.39891 62.5342 7.34049C69.757 12.4548 75.773 19.7516 78.322 28.6702C80.85 37.5153 79.3939 47.0267 76.3498 55.6797C73.4215 64.0038 68.513 71.4738 61.5751 76.275C54.895 80.8977 46.8232 81.5113 38.8923 81.6009C30.8781 81.6914 22.3518 81.8767 15.8625 76.7914C9.37021 71.7036 6.94329 62.8599 4.45926 54.6172C1.97316 46.3677 -0.936513 37.6527 1.58538 29.4159C4.10155 21.1977 11.2545 16.121 17.7811 11.1063C24.2379 6.14519 30.9949 1.41566 38.8923 0.751122Z" fill="#99CCFF"/>
<path d="M38.297 17.8584C38.297 17.8584 25.127 18.0684 24.917 36.6684C24.917 36.6684 17.807 35.4184 23.917 44.6684C23.917 44.6684 24.517 46.2484 26.387 44.6684C28.257 43.0884 24.637 48.4584 33.137 53.8284C33.137 53.8284 33.257 62.4484 31.137 63.8284C29.017 65.2084 42.757 69.9484 44.997 63.8284C43.5479 62.0542 42.7849 59.8183 42.847 57.5284C42.847 57.5284 52.287 57.0484 52.337 40.7884C52.387 24.5284 47.847 16.9184 38.297 17.8584Z" fill="#E6B498"/>
<path d="M61.7422 70.1646C61.7422 70.1646 56.1152 57.0987 58.6152 46.6299C59.6152 36.6787 54.2422 23.6646 54.2422 23.6646C54.2422 23.6646 51.7422 17.1745 39.7422 15.6745C39.7422 15.6745 52.6152 19.1299 43.2425 16.1642C35.5125 14.4142 24.9524 16.9232 18.7422 24.2786C18.7422 24.2786 11.3627 29.3241 15.2427 49.6641C19.1227 70.0041 14.9952 80.6887 20.6152 83.5987C26.2352 86.5087 36.8856 70.1811 40.1152 82.6299C45.5952 74.4799 51.4748 83.5986 51.4748 83.5986C51.4748 83.5986 66.2422 81.6646 61.7422 70.1646ZM50.1349 51.7787C47.6549 55.6187 45.9848 57.0987 43.5248 57.0987C41.0648 57.0987 44.6248 63.3687 44.6248 63.3687C38.0948 66.5687 31.8248 62.8387 31.8248 62.8387C34.6548 60.8387 33.8248 53.8387 33.8248 53.8387C30.3748 53.6187 26.9148 44.3687 26.9148 44.3687C24.0848 46.5887 22.8048 42.8087 22.8048 42.8087C20.3548 35.1387 24.9548 36.6787 24.9548 36.6787C24.3348 27.6787 34.4348 25.5087 40.4748 24.2787C46.5148 23.0487 47.0048 20.4587 47.0048 20.4587C54.4348 29.1187 52.6549 47.8787 50.1349 51.7787Z" fill="#202020"/>
<path d="M37.2596 16.5638C37.2596 16.5638 36.0368 14.6933 26.7168 19.1533C17.3968 23.6133 23.9196 29.8138 23.4896 26.4838C22.7396 20.6738 15.9896 31.9638 22.6596 37.3438C22.6596 36.2638 35.5996 40.0938 41.2296 24.3438C41.2296 24.3438 50.6596 34.2138 51.9796 32.7438C53.2996 31.2738 51.5396 15.6838 37.2596 16.5638Z" fill="#202020"/>
<path d="M44.8512 61.2944C39.1419 65.8619 33.5908 63.1975 31.529 61.2944C21.4329 60.8731 13.6832 76.5026 11.0703 84.37H67.6888C62.4552 74.775 50.5606 56.7269 44.8512 61.2944Z" fill="#C3DDF6"/>
</svg>
